<?xml version="1.0" encoding="utf-8"?>
<!-- Generator: Adobe Illustrator 15.1.0, SVG Export Plug-In . SVG Version: 6.00 Build 0)  -->
<!DOCTYPE svg PUBLIC "-//W3C//DTD SVG 1.1//EN" "http://www.w3.org/Graphics/SVG/1.1/DTD/svg11.dtd">
<svg version="1.1" id="Ebene_1" xmlns="http://www.w3.org/2000/svg" xmlns:xlink="http://www.w3.org/1999/xlink" x="0px" y="0px"
	 width="113.39px" height="113.39px" viewBox="0 0 113.39 113.39" enable-background="new 0 0 113.39 113.39" xml:space="preserve">
<path fill-rule="evenodd" clip-rule="evenodd" fill="#503526" d="M60.295,12.589c-0.536,1.23-2.02,0.404-2.64-0.24
	c-3.229,1.943-6.487-1.632-10.08,0c0.569-1.491,2.265-0.42,3.6-1.2c1.422,1.538,4.289,1.666,6.48,0.72
	C58.622,12.102,59.008,13.374,60.295,12.589z"/>
<path fill-rule="evenodd" clip-rule="evenodd" fill="#503526" d="M47.095,12.109c-0.557,0.077-0.921-0.039-1.2-0.24
	C45.916,11.155,47.326,11.228,47.095,12.109z"/>
<path fill-rule="evenodd" clip-rule="evenodd" fill="#503526" d="M62.215,13.069c-0.584-0.296-1.558-0.202-1.68-0.96
	C61.523,11.835,62.083,11.972,62.215,13.069z"/>
<path fill-rule="evenodd" clip-rule="evenodd" fill="#503526" d="M64.854,12.589c0.554-0.073,0.267,0.693,0.721,0.72
	c-0.337,0.699-0.827-0.425-1.44-0.24C64.189,12.724,64.852,12.986,64.854,12.589z"/>
<path fill-rule="evenodd" clip-rule="evenodd" fill="#503526" d="M71.095,16.43c0.598-0.736,1.331,0.413,1.2,1.2
	C71.516,17.608,72.126,16.198,71.095,16.43z"/>
<path fill-rule="evenodd" clip-rule="evenodd" fill="#503526" d="M81.655,27.709c1.017-0.087,0.21,1.04,0.239,1.44
	C81.365,29.12,81.793,28.131,81.655,27.709z"/>
<path fill-rule="evenodd" clip-rule="evenodd" fill="#503526" d="M55.735,37.31c0.971,0.229,1.284,1.116,1.68,1.92
	C56.537,38.908,56.116,38.129,55.735,37.31z"/>
<path fill-rule="evenodd" clip-rule="evenodd" fill="#503526" d="M52.615,38.99c0.429-0.292,1.396-0.044,1.68-0.48
	c1.237,2.123,5.366,1.354,4.8,5.28c1.507,0.653,1.311,3.009,3.12,3.36c-0.138,3.628-0.403,6.237-0.72,10.08
	c0.503,0.537,1.063,1.017,1.68,1.44c2.199-0.699,3.331-1.665,5.76-0.72c2.621,3.451-0.27,9.77-3.6,10.08
	c0.043-0.677,1.141-0.299,0.96-1.199c0.174-0.734-0.414-0.706-0.24-1.44c-6.742-1.385-10.945,6.347-7.68,12
	c0.179,0.738-0.659,0.461-0.48,1.2c0.219,0.806,0.446,0.119,1.2,0.24c-0.922,4.466-0.898,9.812,0.48,14.159
	c0.832,0.113,0.138-1.302,0.72-1.439c6.157,3.453-9.895,9.926-13.2,6c0.46-1.7,1.734-2.586,2.88-3.601
	c0.77-0.21,0.498,0.623,0.96,0.721c1.952-2.778,1.645-6.345,1.68-11.04c0.868-0.652,2.084-0.956,2.64-1.92
	c-5.332,1.646-12.843,2.249-13.92-4.561c5.551-0.688,8.547-3.933,10.8-7.92c-0.215-0.774,0.783-0.337,0.96-0.72
	c-0.883-0.957-1.438-2.242-2.64-2.88c-0.755,0.334,0.33,1.185-0.24,1.439c-1.805,0.757-5.683,1.173-7.68,0.24
	c-1.035,0.005-0.884,1.195-1.92,1.2c-0.155-0.725-1.09-0.67-1.44-1.2c-0.892-0.092-0.627,0.973-1.68,0.72
	c-0.471-1.129-1.425-1.774-1.44-3.359c2.553,1.026,4.908-0.604,7.92-0.48c0.679-0.313,1.257-1.628,0.96-2.16
	c-0.833,0.128-0.791,1.13-1.44,1.44c-3.161-0.713-8.145,2.746-7.2-2.4c2.025-1.59,6.268-4.002,6.48-8.4
	c0.228-4.718-2.952-8.996-7.44-7.2c0.068-4.098,4.519-1.305,6.24-1.44c-0.498-2.496-3.788-2.249-5.52-2.88
	c-0.317-1.758,1.262-1.618,1.44-2.88c2.581,0.975,4.809,1.137,6.72,2.64C46.441,39.455,49.922,35.866,52.615,38.99z M46.615,43.55
	c1.607,0.376,2.698-1.356,4.56-1.44c1.957-0.088,3.692,1.562,5.52,1.2C54.996,40.229,47.919,39.72,46.615,43.55z M50.695,44.03
	c0,0.24,0,0.48,0,0.72c3.008-0.022,5.555,2.546,5.28,4.56c-0.362,2.649-6.023,3.233-8.88,3.12c-0.333-4.093,1.456-6.064,3.36-7.92
	c-8.466,1.856-3.516,19.382,4.08,14.88c2.171-1.287,2.973-4.137,3.12-7.92c0.32-0.88,1.889-0.511,1.68-1.92
	c-0.473-0.068-1.66,0.347-1.66,0.347C56.841,47.394,54.338,43.065,50.695,44.03z M63.895,61.79c0.834-0.047,0.911-0.85,1.681-0.96
	c1.009,0.271,0.381,2.179,1.439,2.399c0.865-0.791,0.33-2.416,0-3.36c0.663-0.137,1.346-0.254,1.2-1.199
	C66.072,58.873,63.657,59.996,63.895,61.79z"/>
<path fill-rule="evenodd" clip-rule="evenodd" fill="#503526" d="M35.095,38.51c0.534,0.448-0.834,2.496,0.24,3.84
	c-0.279,0.201-0.644,0.316-1.2,0.24C34.659,41.434,33.946,39.041,35.095,38.51z"/>
<path fill-rule="evenodd" clip-rule="evenodd" fill="#503526" d="M59.575,40.43c0.73,0.149,1.227,0.533,1.199,1.44
	C60.382,41.382,59.679,41.206,59.575,40.43z"/>
<path fill-rule="evenodd" clip-rule="evenodd" fill="#26221D" d="M56.695,43.31c-1.828,0.362-3.563-1.289-5.52-1.2
	c-1.862,0.084-2.953,1.816-4.56,1.44C47.919,39.72,54.996,40.229,56.695,43.31z"/>
<path fill-rule="evenodd" clip-rule="evenodd" fill="#503526" d="M38.935,45.95c1.528,1.512,3.186,2.894,2.88,6.24
	c-2.694,0.129-6.601,0.053-8.16-1.68C33.955,47.53,35.354,45.649,38.935,45.95z"/>
<path fill-rule="evenodd" clip-rule="evenodd" fill="#503526" d="M63.175,50.51c0.728-0.008,0.598,0.842,0.72,1.44
	C63.386,51.709,62.732,50.981,63.175,50.51z"/>
<path fill-rule="evenodd" clip-rule="evenodd" fill="#503526" d="M63.175,55.55c0.65,0.149,0.598,1.002,1.44,0.96
	C64.275,57.526,63.018,56.492,63.175,55.55z"/>
<path fill-rule="evenodd" clip-rule="evenodd" fill="#503526" d="M30.295,56.99c0.879,0.96,1.259,2.42,3.12,2.4
	c0,0.479,0,0.96,0,1.44C32.012,59.933,29.901,58.939,30.295,56.99z"/>
<path fill-rule="evenodd" clip-rule="evenodd" fill="#503526" d="M35.095,58.43c0.878-0.158,0.921,0.52,1.68,0.479
	c-0.154,1.206-1.526,1.194-1.68,2.4C34.556,60.755,34.902,59.049,35.095,58.43z"/>
<path fill-rule="evenodd" clip-rule="evenodd" fill="#26221D" d="M68.215,58.67c0.146,0.945-0.537,1.063-1.2,1.199
	c0.33,0.944,0.865,2.569,0,3.36c-1.059-0.221-0.431-2.129-1.439-2.399c-0.77,0.11-0.847,0.913-1.681,0.96
	C63.657,59.996,66.072,58.873,68.215,58.67z"/>
<path fill-rule="evenodd" clip-rule="evenodd" fill="#AD892A" d="M58.854,75.71c-1.758-4.792,1.238-9.153,5.761-9.841
	c0.053,0.188,0.2,0.279,0.479,0.24c-0.542,1.025-2.752,1.053-3.6,2.4c-1.788,1.409-1.715,5.222-0.24,6.96
	c0.571,0.708,1.287,1.272,2.16,1.68c0.448,0.191,0.879,0.401,1.439,0.48c0.499,0.264,2.027-0.102,2.641-0.48c0.08,0,0.16,0,0.24,0
	c1.541-0.541,2.911-2.524,3.119-3.6c0-0.08,0-0.16,0-0.24c0.548-0.333,0.09-1.671,0.24-2.4c-0.127-0.192-0.25-0.39-0.24-0.72
	c-0.565-1.033-0.955-2.244-2.159-2.64c0-0.16,0-0.32,0-0.48c1.406,0.273,2.039,1.32,2.88,2.16c0.667,1.333,1.093,2.907,0.96,5.04
	c-0.443,1.557-1.315,2.685-2.16,3.84c-0.544,0.657-1.44,0.96-2.16,1.44c-0.566,0.313-1.658,0.102-2.16,0.479
	c-0.147-0.237-1.615,0.224-2.16-0.239c-0.876-0.244-1.645-0.596-2.399-0.96c-0.558-0.163-0.643-0.798-1.2-0.96
	C59.652,77.313,59.17,76.595,58.854,75.71z"/>
<path fill-rule="evenodd" clip-rule="evenodd" fill="#AD892A" d="M31.255,72.109c0.138-3.222,1.375-5.345,4.08-6
	c-0.067,0.547,0.058,0.902,0.48,0.96c0,0.32,0,0.641,0,0.96c-1.866,1.413-2.737,4.326-1.44,6.48c-0.044,0.204,0.093,0.227,0.24,0.24
	c0.569,0.631,0.953,1.446,1.92,1.68c-0.044,0.204,0.094,0.227,0.24,0.24c1.042,0.496,2.65-0.065,3.36,0.239c0,0.561,0,1.12,0,1.681
	c-1.108,0.035-1.979,0.679-2.88,0.24c-0.892-0.148-1.508-0.572-2.4-0.721c-0.36-0.279-0.587-0.693-1.2-0.72
	c-0.459-0.661-1.065-1.175-1.44-1.92c-0.045-0.194-0.241-0.239-0.24-0.48C31.681,74.084,31.17,73.394,31.255,72.109z"/>
<path fill-rule="evenodd" clip-rule="evenodd" fill="#843127" d="M49.735,68.029c0.408-0.088,0.453,0.188,0.48,0.48
	c-2.753,2.132-6.224,3.504-9.6,1.92c-0.759,0.604-1.689-0.054-1.92,0.72c3.352,1.372,8.888,0.379,11.76-1.439
	c-0.714,4.164-10.952,9.635-12.48,3.359c-0.344-1.411,1.011-2.647-0.48-3.6c0.942-1.112,2.498-0.541,3.6,0
	C43.212,67.686,47.879,69.772,49.735,68.029z"/>
<path fill-rule="evenodd" clip-rule="evenodd" fill="#FFFFFF" d="M36.535,75.229c-1.839-0.806-2.127-4.277-0.72-5.76
	c0.355,0.125,0.605,0.355,0.96,0.479c0.523,1.951-0.119,4.136,1.44,5.521C37.88,76.094,36.973,75.295,36.535,75.229z"/>
<path fill-rule="evenodd" clip-rule="evenodd" fill="#FFFFFF" d="M69.415,70.43c2.261,3.376-2.149,7.481-6,5.52
	c0.15-0.569,1.478,0.038,1.68-0.479C65.713,72.968,68.431,72.565,69.415,70.43z"/>
<path fill-rule="evenodd" clip-rule="evenodd" fill="#26221D" d="M70.854,73.31c0.151-0.729-0.307-2.067,0.24-2.4
	C70.944,71.639,71.402,72.977,70.854,73.31z"/>
<path fill-rule="evenodd" clip-rule="evenodd" fill="#AD892A" d="M60.295,86.989c0.08,0,0.16,0,0.24,0
	c0.948,0.475,2.388,1.508,3.359,2.641c0.908,1.909,1.813,3.262,0.96,5.28c-0.923,0.676-1.452,1.747-2.399,2.399
	c-1.06,0.781-2.33,1.35-3.601,1.92c-1.88,0.6-4.043,0.917-5.76,1.681c-2.336,0.098-4.16-0.17-5.76,0.239
	c-1.659-0.607-2.83-1.807-4.08-3.359c0-0.08,0-0.16,0-0.24c-0.341-0.803-0.341-2.317,0-3.12c0.417-0.464,0.543-1.217,0.96-1.68
	c0.459-0.661,1.019-1.222,1.68-1.681c1.19-1.129,2.682-1.958,4.08-2.88c0.427,0.144,0.997-0.703,1.2,0
	c0.258,1.299-1.069,1.011-1.44,1.681c-0.557,0.323-1.078,0.682-1.44,1.199c-1.363,0.718-2.334,1.826-2.88,3.36
	c-0.204-0.044-0.227,0.094-0.24,0.24c-0.726,2.351,0.839,3.988,2.64,4.56c0.489,0.134,0.471,0.723,0.96,0.24
	c0.182,0.396,1.978,0.396,2.16,0c0.307,0.328,1.133,0.328,1.44,0c0.768,0.28,2.626-0.408,3.6-0.72
	c3.969-0.93,9.293-4.192,6.72-8.641c-0.394-1.207-2.048-1.152-2.881-1.92C59.921,87.736,59.488,86.743,60.295,86.989z"/>
<path fill-rule="evenodd" clip-rule="evenodd" fill="#26221D" d="M60.774,90.109c-0.523,0.044-0.763-0.196-0.72-0.72
	c0.24,0,0.48,0,0.72,0C60.941,89.583,61.148,90.047,60.774,90.109z"/>
<path fill-rule="evenodd" clip-rule="evenodd" fill="#AD892A" d="M48.535,92.029c0.976-0.384,1.281-1.438,2.64-1.439
	c-0.331,0.31-0.237,1.042-0.24,1.68c-0.447,0.033-0.802,0.158-0.96,0.48c-1.095,0.345-1.671,1.209-2.4,1.92
	c-0.423,0.217-0.743,0.536-0.96,0.96C46.086,94.216,47.839,93.019,48.535,92.029z"/>
<path fill-rule="evenodd" clip-rule="evenodd" fill="#AD892A" d="M66.055,94.67c0.373-1.922,1.495,0.365,1.681,1.439
	c0,0.801,0,1.601,0,2.4c-1.078,1.963-2.321,3.759-4.32,4.8c-0.204-0.044-0.227,0.094-0.24,0.24c-1.207,0.072-1.789,0.771-2.88,0.96
	c-1.193,0.691-2.063,0.38-3.12,0.96c-0.72,0-1.44,0-2.16,0c-0.655-0.021-0.483,0.399-0.96,0c-0.8,0-1.6,0-2.4,0
	c-2.824-0.776-5.316-1.884-6.72-4.08c0-0.16,0-0.32,0-0.479c2.51,0.689,3.156,3.244,6.24,3.359c1.412,0.38,2.73,0.147,3.6,0
	c1.213-0.354,3.679-0.124,4.8-1.2c0.08,0,0.16,0,0.239,0c1.236-0.443,2.242-0.304,3.12-1.439c1.168-0.272,2.016-0.864,2.4-1.92
	c0.556-0.645,0.944-1.456,0.96-2.641C66.438,96.988,66.357,95.101,66.055,94.67z"/>
<path fill-rule="evenodd" clip-rule="evenodd" fill="#503526" d="M64.854,97.069c0.263,1.942-0.951,2.408-1.439,3.601
	c-3.454,1.615-11.07,4.449-14.88,1.2C55.099,102.31,60.918,100.045,64.854,97.069z"/>
<path fill-rule="evenodd" clip-rule="evenodd" fill="#504E6D" d="M61.495,113.39c1.467-3.333,4.126-5.475,4.319-10.08
	c1.364-1.756,3.058-3.183,3.12-6.24c4.359,2.799,10.221,2.439,14.4,4.801c4.261,2.406,5.317,6.766,7.2,11.52
	C80.854,113.39,71.175,113.39,61.495,113.39z"/>
<path fill-rule="evenodd" clip-rule="evenodd" fill="#504E6D" d="M25.495,113.39c-0.513-9.361,10.861-10.248,16.8-14.64
	c2.404,2.054,2.171,5.63,3.6,8.399c1.105,2.144,2.933,4.721,4.08,6.24C41.815,113.39,33.655,113.39,25.495,113.39z"/>
<path fill-rule="evenodd" clip-rule="evenodd" fill="#26221D" d="M50.935,99.47c-0.183,0.396-1.978,0.396-2.16,0
	C49.89,99.61,50.224,99.142,50.935,99.47z"/>
<path fill-rule="evenodd" clip-rule="evenodd" fill="#503526" d="M60.055,113.39c-3.04,0-6.08,0-9.12,0
	c-1.623-2.938-3.629-5.491-4.8-8.88c4.724,3.585,13.306,2.294,18.24-0.24C63.887,108.262,61.546,110.4,60.055,113.39z"/>
<path fill-rule="evenodd" clip-rule="evenodd" fill="#26221D" d="M73.255,71.63c0.514,0.686,0.233,2.624,0,3.359
	C72.967,74.529,73.447,72.791,73.255,71.63z"/>
<path fill-rule="evenodd" clip-rule="evenodd" fill="#503526" d="M83.814,48.35c1.047-0.563,0.892-2.3,0.721-2.88
	C85.429,46.406,84.825,47.971,83.814,48.35z"/>
<path fill-rule="evenodd" clip-rule="evenodd" fill="#503526" d="M85.015,40.189c-0.166,1.386,1.967,2.298,0.24,3.12
	C86.678,42.336,84.144,41.26,85.015,40.189z"/>
<path fill-rule="evenodd" clip-rule="evenodd" fill="#503526" d="M76.854,19.31c1.2,0.08,1.848,0.712,2.16,1.68
	C78.852,20.026,76.829,19.666,76.854,19.31z"/>
<path fill-rule="evenodd" clip-rule="evenodd" fill="#503526" d="M73.495,16.669c0.367,1.313,1.272,2.087,2.64,2.4
	C75.167,19.468,73.057,17.676,73.495,16.669z"/>
<path fill-rule="evenodd" clip-rule="evenodd" fill="#503526" d="M58.615,10.669c0.615,0.844,1.594,0.267,2.399,0
	c-0.453,0.427-0.969,0.791-1.92,0.72c-0.106-0.214-0.211-0.429-0.479-0.48C58.615,10.83,58.615,10.75,58.615,10.669z"/>
<path fill-rule="evenodd" clip-rule="evenodd" fill="#503526" d="M37.015,15.47c-0.136,0.194-1.921,0.791-1.92,1.92
	C35.216,16.23,35.659,15.394,37.015,15.47z"/>
<path fill-rule="evenodd" clip-rule="evenodd" fill="#503526" d="M29.095,22.669c1.408-0.272,1.2-2.16,2.4-2.64
	c-0.929,0.991-1.131,2.708-2.64,3.12C28.9,22.955,29.096,22.91,29.095,22.669z"/>
<path fill-rule="evenodd" clip-rule="evenodd" fill="#503526" d="M26.935,24.589c0.218,1.499-0.564,1.996-1.2,2.64
	C26.265,26.48,26.707,25.642,26.935,24.589z"/>
<path fill-rule="evenodd" clip-rule="evenodd" fill="#503526" d="M22.855,32.51c0.046-1.074,0.614-1.626,1.2-2.16
	C25.356,28.98,23.072,31.704,22.855,32.51z"/>
<path fill-rule="evenodd" clip-rule="evenodd" fill="#503526" d="M23.095,43.31c1.376,0.864,2.028,2.453,3.12,3.6
	C24.839,46.046,24.226,44.419,23.095,43.31z"/>
<path fill-rule="evenodd" clip-rule="evenodd" fill="#26221D" d="M30.535,69.949c0.18-1.5,0.895-2.465,1.92-3.119
	C31.687,67.741,31.125,68.859,30.535,69.949z"/>
<path fill-rule="evenodd" clip-rule="evenodd" fill="#26221D" d="M49.255,87.71c0.53-0.83,2.136-0.584,2.16-1.92
	C52.171,86.955,50.049,87.298,49.255,87.71z"/>
<path fill-rule="evenodd" clip-rule="evenodd" fill="#503526" d="M28.855,24.589c0.173,1.029-0.894,2.742-0.72,3.6
	c-1.933,0.608-1.68,2.356-1.92,3.84c-0.32,0-0.64,0-0.96,0c-0.828,2.232-0.219,5.998-1.2,7.44c0.188,1.252,1.074,1.806,0.96,3.36
	c1.7,0.38,1.335,2.825,3.12,3.12c0.454,1.307,0.338,3.182,1.44,3.84c-0.65,2.623-0.034,4.739,0.96,6.96
	c-0.408-0.631-1.14-0.94-1.92-1.2c0.446-4.858-0.368-9.767-4.56-11.76c0.194-1.794-0.62-2.58-1.2-3.6
	c0.131-0.748,0.727-1.033,0.96-1.68c-1.537-2.622,0.997-4.326,0.24-6.96c1.244-0.036,1.496-1.064,1.44-2.4
	c1.229-1.25,2.515-2.445,2.64-4.8c0.745-0.522,1.528-0.636,2.16-0.72c0.433-2.367,3.01-2.589,4.08-4.32
	c0.757-0.118,0.847,0.433,1.68,0.24c0.898-0.509,0.222-1.662,0.24-2.64c0.545-0.415,1.341-0.579,2.4-0.48
	c1.678-1.865,3.531-5.768,6.72-4.56c-2.272,1.168-4.684,2.196-5.52,4.8c-1.314-0.194-1.438,0.802-2.64,0.72
	c0.339,1.792-0.753,2.276-0.72,3.12c-0.493,0.485-0.479-0.098-0.72-0.48c-2.09,1.401-4.681,2.208-4.56,4.8
	C30.869,24.301,29.801,24.808,28.855,24.589z"/>
<path fill-rule="evenodd" clip-rule="evenodd" fill="#503526" d="M40.135,37.55c0.06-0.7-0.452-0.828-0.72-1.2
	c-1.38,1.124-1.816-0.784-3.36,0c3.059-3.118,6.271,4.045,9.6,1.44c-0.019,0.861-0.929,0.831-1.2,1.44
	c-0.895-0.226-1.25-0.99-2.64-0.72C42.097,37.18,40.88,37.206,40.135,37.55z"/>
<path fill-rule="evenodd" clip-rule="evenodd" fill="#503526" d="M49.255,36.109c1.386-0.902,3.12,0.269,4.56,0.96
	C52.945,37.5,50.874,36.027,49.255,36.109z"/>
<path fill-rule="evenodd" clip-rule="evenodd" fill="#503526" d="M60.295,42.83c0.754,0.206,1.482,0.438,1.92,0.96
	C61.789,43.682,60.349,44.032,60.295,42.83z"/>
<path fill-rule="evenodd" clip-rule="evenodd" fill="#503526" d="M33.415,46.43c0.536,0.865-0.811,1.902-0.72,3.12
	c-1.238-0.119-1.91,0.33-1.92,1.44c-1.007-0.363,0.369-1.436,0.48-2.16c0.766-0.143,0.742,0.45,1.2,0
	C32.865,48.12,33.027,47.162,33.415,46.43z"/>
<path fill-rule="evenodd" clip-rule="evenodd" fill="#BCBBBA" d="M40.855,56.03c0.062-0.687,1.408-2.282,0.24-2.64
	C42.419,52.582,41.606,55.938,40.855,56.03z"/>
<path fill-rule="evenodd" clip-rule="evenodd" fill="#BCBBBA" d="M36.055,52.91c0.347,2.745,3.474,2.054,5.04,0.48
	c1.168,0.358-0.178,1.954-0.24,2.64c-0.521,0.359-0.559,1.201-1.44,1.2c-1.129,1.527-3.13,0.054-4.32-0.48
	c-0.988-1.203-1.451-2.067-1.44-3.84c0-0.08,0-0.16,0-0.24C34.614,52.59,34.987,53.098,36.055,52.91z"/>
<path fill-rule="evenodd" clip-rule="evenodd" fill="#BCBBBA" d="M33.655,52.91c-0.559-0.783,1.915-0.336,2.4,0
	c-1.068,0.188-1.44-0.32-2.4-0.24C33.655,52.75,33.655,52.83,33.655,52.91z"/>
<path fill-rule="evenodd" clip-rule="evenodd" fill="#26221D" d="M39.415,57.229c-0.776,1.881-3.478,0.408-4.32-0.48
	C36.285,57.284,38.286,58.757,39.415,57.229z"/>
<path fill-rule="evenodd" clip-rule="evenodd" fill="#26221D" d="M31.975,74.989c-0.683-0.364-1.251-2.097-0.72-2.88
	C31.17,73.394,31.681,74.084,31.975,74.989z"/>
<path fill-rule="evenodd" clip-rule="evenodd" fill="#26221D" d="M33.655,77.39c-0.833-0.136-1.566-1.622-1.44-1.92
	C32.59,76.215,33.196,76.729,33.655,77.39z"/>
<path fill-rule="evenodd" clip-rule="evenodd" fill="#AD892A" d="M34.855,78.109c0.892,0.148,1.508,0.572,2.4,0.721
	C36.623,79.367,35.344,78.511,34.855,78.109z"/>
<path fill-rule="evenodd" clip-rule="evenodd" fill="#AD892A" d="M36.775,76.67c0.546-0.455,2.277,0.411,3.12-0.24
	c0.411,0.245,0.829,1.709,0.24,2.16c0-0.561,0-1.12,0-1.681C39.425,76.604,37.817,77.166,36.775,76.67z"/>
<path fill-rule="evenodd" clip-rule="evenodd" fill="#AD892A" d="M34.615,74.75c0.606,0.594,1.456,0.943,1.92,1.68
	C35.568,76.196,35.184,75.381,34.615,74.75z"/>
<path fill-rule="evenodd" clip-rule="evenodd" fill="#AD892A" d="M35.815,68.029c-1.532,1.559-2.032,4.201-1.44,6.48
	C33.078,72.355,33.949,69.442,35.815,68.029z"/>
<path fill-rule="evenodd" clip-rule="evenodd" fill="#26221D" d="M60.295,77.87c1.204,1.727-2.091-1.484-1.44-2.16
	C59.17,76.595,59.652,77.313,60.295,77.87z"/>
<path fill-rule="evenodd" clip-rule="evenodd" fill="#26221D" d="M61.495,78.83c0.755,0.364,1.523,0.716,2.399,0.96
	C63.216,80.296,61.788,79.506,61.495,78.83z"/>
<path fill-rule="evenodd" clip-rule="evenodd" fill="#26221D" d="M68.215,79.55c-0.021,0.713-2.14,0.563-2.16,0.479
	C66.557,79.651,67.648,79.863,68.215,79.55z"/>
<path fill-rule="evenodd" clip-rule="evenodd" fill="#26221D" d="M70.375,78.109c0.845-1.155,1.717-2.283,2.16-3.84
	C72.656,75.436,71.518,77.409,70.375,78.109z"/>
<path fill-rule="evenodd" clip-rule="evenodd" fill="#AD892A" d="M68.695,67.069c1.041-0.315,2.52,0.996,2.88,2.16
	C70.734,68.39,70.102,67.343,68.695,67.069z"/>
<path fill-rule="evenodd" clip-rule="evenodd" fill="#AD892A" d="M68.695,67.55c1.204,0.396,1.594,1.606,2.159,2.64
	C70.111,69.333,69.483,68.36,68.695,67.55z"/>
<path fill-rule="evenodd" clip-rule="evenodd" fill="#26221D" d="M67.735,77.149c1.193-1.046,2.392-2.088,3.119-3.6
	C70.646,74.625,69.276,76.608,67.735,77.149z"/>
<path fill-rule="evenodd" clip-rule="evenodd" fill="#26221D" d="M67.495,77.149c-0.613,0.379-2.142,0.744-2.641,0.48
	C65.175,77.631,66.927,76.841,67.495,77.149z"/>
<path fill-rule="evenodd" clip-rule="evenodd" fill="#26221D" d="M61.255,75.47c0.815,0.464,1.636,0.924,2.16,1.68
	C62.542,76.742,61.826,76.178,61.255,75.47z"/>
<path fill-rule="evenodd" clip-rule="evenodd" fill="#AD892A" d="M61.495,68.51c0.848-1.348,3.058-1.375,3.6-2.4
	c-0.279,0.039-0.427-0.053-0.479-0.24c0.801-0.24,0.787,0.334,0.72,0.961C63.57,66.905,62.744,67.919,61.495,68.51z"/>
<path fill-rule="evenodd" clip-rule="evenodd" fill="#26221D" d="M36.535,75.229c-0.599,1.376-3.477-4.665-0.72-6
	c0.319,0.241,0.893,0.228,0.96,0.72c-0.355-0.124-0.605-0.354-0.96-0.479C34.407,70.952,34.695,74.424,36.535,75.229z"/>
<path fill-rule="evenodd" clip-rule="evenodd" fill="#26221D" d="M61.495,73.069c0.133,0.827,1.103,0.817,1.2,1.681
	C61.717,74.768,61.684,73.841,61.495,73.069z"/>
<path fill-rule="evenodd" clip-rule="evenodd" fill="#26221D" d="M60.295,86.989c-0.807-0.246-0.374,0.747-0.48,1.2
	c0.833,0.768,2.487,0.713,2.881,1.92c-0.728-0.313-1.071-1.009-1.921-1.199c-0.349,0.105,0.024,0.21,0,0.479
	c-0.239,0-0.479,0-0.72,0c-0.043,0.523,0.196,0.764,0.72,0.72c0.046,0.194,0.241,0.239,0.24,0.48c0.233-0.007,0.187-0.294,0.24-0.48
	c0.61,0.029,0.931,0.35,0.96,0.96c-1.228,0.108-1.313-0.926-2.4-0.96c0.58-0.769-1.194-2.726,0.48-3.359
	C60.295,86.83,60.295,86.909,60.295,86.989z"/>
<path fill-rule="evenodd" clip-rule="evenodd" fill="#26221D" d="M52.375,99.47c1.125-0.161,2.91-0.922,3.6-0.72
	C55.001,99.062,53.143,99.75,52.375,99.47z"/>
<path fill-rule="evenodd" clip-rule="evenodd" fill="#26221D" d="M45.175,94.67c-0.293,2.021,1.019,3.739,2.64,4.56
	C46.014,98.658,44.449,97.021,45.175,94.67z"/>
<path fill-rule="evenodd" clip-rule="evenodd" fill="#26221D" d="M48.295,91.069c-1.098,0.982-2.044,2.116-2.88,3.36
	C45.961,92.896,46.932,91.787,48.295,91.069z"/>
<path fill-rule="evenodd" clip-rule="evenodd" fill="#26221D" d="M49.735,89.87c0.371-0.67,1.698-0.382,1.44-1.681
	c-0.203-0.703-0.772,0.144-1.2,0c0.496-0.689,1.228-0.848,1.92-0.24C51.897,89.159,50.379,90.105,49.735,89.87z"/>
<path fill-rule="evenodd" clip-rule="evenodd" fill="#26221D" d="M44.215,92.75c-0.417-0.306,2.172-2.823,1.68-1.681
	C45.234,91.528,44.674,92.089,44.215,92.75z"/>
<path fill-rule="evenodd" clip-rule="evenodd" fill="#26221D" d="M43.255,94.43c-0.341,0.803-0.341,2.317,0,3.12
	C42.543,97.171,42.543,94.809,43.255,94.43z"/>
<path fill-rule="evenodd" clip-rule="evenodd" fill="#26221D" d="M57.175,105.47c-0.752,0.319-2.858,0.778-2.16,0
	C55.735,105.47,56.455,105.47,57.175,105.47z"/>
<path fill-rule="evenodd" clip-rule="evenodd" fill="#26221D" d="M63.175,103.55c-0.488,0.872-2.221,0.5-2.64,1.439
	c-0.233-0.006-0.187-0.293-0.24-0.479C61.386,104.321,61.968,103.622,63.175,103.55z"/>
<path fill-rule="evenodd" clip-rule="evenodd" fill="#AD892A" d="M63.415,103.31c1.999-1.041,3.242-2.837,4.32-4.8
	C67.024,100.681,65.134,102.946,63.415,103.31z"/>
<path fill-rule="evenodd" clip-rule="evenodd" fill="#AD892A" d="M66.055,94.67c-0.076-0.557,0.039-0.922,0.24-1.2
	c1.024,0.183,1.713,1.958,1.44,2.64C67.55,95.035,66.428,92.748,66.055,94.67z"/>
<path fill-rule="evenodd" clip-rule="evenodd" fill="#AD892A" d="M66.295,97.069c-0.016,1.185-0.404,1.996-0.96,2.641
	C65.67,98.845,65.902,97.877,66.295,97.069z"/>
<path fill-rule="evenodd" clip-rule="evenodd" fill="#AD892A" d="M59.814,103.069c0.764-0.757,2.328-0.712,3.12-1.439
	C62.057,102.766,61.051,102.626,59.814,103.069z"/>
<path fill-rule="evenodd" clip-rule="evenodd" fill="#AD892A" d="M59.575,103.069c-1.121,1.076-3.587,0.846-4.8,1.2
	C55.83,103.606,57.948,103.729,59.575,103.069z"/>
<path fill-rule="evenodd" clip-rule="evenodd" fill="#26221D" d="M47.335,101.149c-0.597,0.037-0.743-0.377-1.2-0.479
	c0.836,2.044,3.052,2.707,5.04,3.6c-3.084-0.115-3.729-2.67-6.24-3.359c0,0.159,0,0.319,0,0.479c0.065-1.665-1.054-2.115-1.68-3.6
	C44.505,99.343,45.676,100.542,47.335,101.149z"/>
<path fill-rule="evenodd" clip-rule="evenodd" fill="#26221D" d="M37.015,15.47c0.03-0.53,1.018-0.102,1.44-0.24
	c0.674-2.925,3.283-3.917,5.52-5.28c2.539,0.299,4.103-0.11,7.44-0.24c1.499,1.857,5.06,0.776,7.2,0.96c0,0.08,0,0.16,0,0.24
	c0.269,0.051,0.373,0.266,0.479,0.48c0.951,0.071,1.467-0.293,1.92-0.72c1.755,0.923,5.028-0.346,6,2.16
	c0.587,0.203,1.134-0.516,1.92-0.24c0.528,0.186,0.658,1.49,1.44,1.92c1.417,0.778,3.328-0.16,3.12,2.16
	c-0.438,1.007,1.672,2.799,2.64,2.4c0.341-0.021,0.68-0.04,0.72,0.24c-0.025,0.356,1.997,0.716,2.16,1.68
	c0.804,1.917,3.109,2.331,2.88,5.28c0.7,0.26,1.42,0.501,1.681,1.2c-0.792,1.305,0.623,2.195,0.96,3.36
	c0.132,0.458-0.334,1.095-0.24,1.68c0.125,0.781,0.893,1.314,0.96,1.92c0.211,1.884-0.124,4.08-0.24,5.76
	c-0.871,1.071,1.663,2.146,0.24,3.12c-0.955,0.005-0.71,1.21-0.72,2.16c0.171,0.58,0.326,2.316-0.721,2.88
	c-0.706,0.747-0.917,2.112-0.479,3.36c-2.342,1.203-1.514,4.092-3.84,5.28c-0.039,0.759,0.638,0.802,0.479,1.68
	c-0.453,0.826-1.471,1.089-2.16,1.68c0.115,0.859,0.391,1.387,0,2.16c-2.214,1.785-3.424,4.576-5.52,6.479
	c0.435,0.766,0.861,1.539,0.96,2.641c0.192,1.161-0.288,2.899,0,3.359c-0.982,5.164-8.437,7.86-13.2,4.32
	c-0.173,2.067-0.165,4.315-0.479,6.24c3.173,1.387,5.863,3.256,6.72,6.96c1.769,0.151,1.908,1.932,2.64,3.12
	c6.209,3.604,14.202,3.14,18.48,8.64c1.989,2.558,2.807,5.586,4.32,9.12c-0.4,0-0.801,0-1.2,0c-1.883-4.754-2.939-9.113-7.2-11.52
	c-4.18-2.361-10.041-2.002-14.4-4.801c-0.063,3.058-1.756,4.484-3.12,6.24c-0.193,4.605-2.853,6.747-4.319,10.08
	c-0.48,0-0.96,0-1.44,0c1.491-2.989,3.832-5.128,4.32-9.12c-4.935,2.534-13.516,3.825-18.24,0.24c1.171,3.389,3.177,5.942,4.8,8.88
	c-0.32,0-0.64,0-0.96,0c-1.147-1.52-2.975-4.097-4.08-6.24c-1.429-2.77-1.196-6.346-3.6-8.399c-5.939,4.392-17.313,5.278-16.8,14.64
	c-0.4,0-0.8,0-1.2,0c0.207-10.913,11.208-11.032,17.76-15.6c-0.22-1.282-0.451-2.896,0.24-3.841c0.569-0.79,0.992-1.728,1.68-2.399
	c1.195-1.845,3.119-2.961,5.28-3.84c0.794-0.412,2.916-0.755,2.16-1.92c-0.002-0.638,0.09-1.371-0.24-1.681
	c-2.341-0.604-4.667,0.375-7.2-1.2c-1.195-0.743-2.177-2.831-3.36-3.119c-0.854-0.209-2.055,0.292-2.88,0.239
	c-5.126-0.325-8.317-4.59-7.2-10.08c0.59-1.09,1.152-2.208,1.92-3.119c0.15-1.211,1.771-0.95,1.92-2.16
	c-0.11-0.851-0.534-1.387-0.48-2.4c-2.677-0.443-3.575-2.665-5.04-4.32c0.556-2.076-1.225-1.815-1.44-3.12
	c0.617-3.62-0.843-4.995-1.2-7.92c-1.092-1.147-1.744-2.736-3.12-3.6c0.282-1.881-1.343-1.856-1.44-3.36
	c1.041-1.089,0.735-3.345,0.24-4.8c0.29-0.839,1.749-1.488,0.96-2.64c0.217-0.806,2.501-3.53,1.2-2.16
	c-0.352-1.952,1.171-2.029,1.68-3.12c0.636-0.645,1.418-1.141,1.2-2.64c0.456-0.904,0.749-1.971,2.16-1.92
	c0.001,0.241-0.194,0.286-0.24,0.48c1.508-0.412,1.711-2.129,2.64-3.12c1.198-0.882,2.561-1.599,3.6-2.64
	C35.093,16.261,36.879,15.664,37.015,15.47z M51.175,104.27c-1.988-0.893-4.204-1.556-5.04-3.6c0.457,0.103,0.603,0.517,1.2,0.479
	c1.6-0.409,3.423-0.142,5.76-0.239c2.025-0.479,4.002-0.519,5.76-1.681c1.271-0.57,2.541-1.139,3.601-1.92
	c0.721,0.074,1.827-1.528,2.399-2.399c0.854-2.019-0.052-3.371-0.96-5.28c-0.627-1.39-2.223-2.487-3.359-2.641
	c-0.08,0-0.16,0-0.24,0c0-0.08,0-0.159,0-0.239c-1.675,0.634,0.1,2.591-0.48,3.359c1.087,0.034,1.173,1.068,2.4,0.96
	c-0.029-0.61-0.35-0.931-0.96-0.96c-0.054,0.187-0.007,0.474-0.24,0.48c0.001-0.241-0.194-0.286-0.24-0.48
	c0.374-0.063,0.167-0.526,0-0.72c0.024-0.27-0.349-0.374,0-0.479c0.85,0.19,1.193,0.887,1.921,1.199
	c2.573,4.448-2.751,7.711-6.72,8.641c-0.69-0.202-2.476,0.559-3.6,0.72c-0.307,0.328-1.133,0.328-1.44,0
	c-0.711-0.328-1.045,0.141-2.16,0c-0.489,0.482-0.471-0.106-0.96-0.24c-1.622-0.82-2.933-2.539-2.64-4.56
	c0.014-0.146,0.036-0.284,0.24-0.24c0.835-1.244,1.782-2.378,2.88-3.36c0.362-0.518,0.883-0.876,1.44-1.199
	c0.644,0.235,2.163-0.711,2.16-1.921c-0.692-0.607-1.424-0.449-1.92,0.24c-1.398,0.922-2.89,1.751-4.08,2.88
	c0.492-1.143-2.098,1.375-1.68,1.681c-0.417,0.463-0.543,1.216-0.96,1.68c-0.711,0.379-0.711,2.741,0,3.12c0,0.08,0,0.16,0,0.24
	c0.626,1.484,1.746,1.935,1.68,3.6c1.404,2.196,3.896,3.304,6.72,4.08c0.588,0.372,1.562,0.358,2.4,0.479c0-0.159,0-0.319,0-0.479
	c0.477,0.399,0.305-0.021,0.96,0c-0.698,0.778,1.408,0.319,2.16,0c1.057-0.58,1.927-0.269,3.12-0.96
	c0.054,0.187,0.007,0.474,0.24,0.479c0.419-0.939,2.151-0.567,2.64-1.439c0.014-0.146,0.036-0.284,0.24-0.24
	c1.719-0.363,3.609-2.629,4.32-4.8c0-0.8,0-1.6,0-2.4c0.272-0.682-0.416-2.457-1.44-2.64c-0.201,0.278-0.316,0.644-0.24,1.2
	c0.303,0.431,0.383,2.318,0.24,2.399c-0.393,0.808-0.625,1.775-0.96,2.641c-0.385,1.056-1.232,1.647-2.4,1.92
	c-0.792,0.728-2.356,0.683-3.12,1.439c-0.079,0-0.159,0-0.239,0c-1.627,0.659-3.746,0.537-4.8,1.2
	C53.905,104.417,52.586,104.649,51.175,104.27z M57.655,11.87c-2.191,0.945-5.058,0.817-6.48-0.72c-1.335,0.78-3.031-0.291-3.6,1.2
	c3.593-1.632,6.851,1.943,10.08,0c0.621,0.644,2.104,1.47,2.64,0.24C59.008,13.374,58.622,12.102,57.655,11.87z M31.255,24.83
	c-0.121-2.592,2.47-3.399,4.56-4.8c0.241,0.382,0.227,0.966,0.72,0.48c-0.033-0.844,1.06-1.328,0.72-3.12
	c1.202,0.082,1.326-0.915,2.64-0.72c0.836-2.604,3.248-3.632,5.52-4.8c-3.189-1.208-5.042,2.695-6.72,4.56
	c-1.059-0.099-1.855,0.065-2.4,0.48c-0.019,0.978,0.658,2.13-0.24,2.64c-0.833,0.193-0.922-0.357-1.68-0.24
	c-1.07,1.73-3.647,1.953-4.08,4.32c-0.632,0.084-1.415,0.198-2.16,0.72c-0.125,2.354-1.411,3.549-2.64,4.8
	c0.056,1.336-0.196,2.364-1.44,2.4c0.757,2.634-1.777,4.338-0.24,6.96c-0.233,0.647-0.829,0.932-0.96,1.68
	c0.58,1.02,1.394,1.806,1.2,3.6c4.192,1.994,5.006,6.902,4.56,11.76c0.78,0.26,1.512,0.568,1.92,1.2
	c-0.994-2.221-1.61-4.337-0.96-6.96c-1.102-0.658-0.986-2.533-1.44-3.84c-1.785-0.295-1.42-2.74-3.12-3.12
	c0.114-1.554-0.772-2.107-0.96-3.36c0.981-1.442,0.372-5.208,1.2-7.44c0.32,0,0.64,0,0.96,0c0.24-1.484-0.013-3.232,1.92-3.84
	c-0.173-0.858,0.893-2.571,0.72-3.6C29.801,24.808,30.869,24.301,31.255,24.83z M45.895,11.87c0.278,0.201,0.643,0.316,1.2,0.24
	C47.326,11.228,45.916,11.155,45.895,11.87z M60.535,12.109c0.122,0.758,1.096,0.664,1.68,0.96
	C62.083,11.972,61.523,11.835,60.535,12.109z M64.135,13.069c0.613-0.185,1.104,0.939,1.44,0.24
	c-0.454-0.027-0.167-0.793-0.721-0.72C64.852,12.986,64.189,12.724,64.135,13.069z M72.295,17.629c0.131-0.787-0.603-1.936-1.2-1.2
	C72.126,16.198,71.516,17.608,72.295,17.629z M81.895,29.149c-0.029-0.4,0.777-1.527-0.239-1.44
	C81.793,28.131,81.365,29.12,81.895,29.149z M41.815,38.51c1.391-0.271,1.745,0.494,2.64,0.72c0.271-0.609,1.181-0.579,1.2-1.44
	c-3.329,2.605-6.541-4.558-9.6-1.44c1.544-0.784,1.98,1.124,3.36,0c0.268,0.372,0.78,0.5,0.72,1.2
	C40.88,37.206,42.097,37.18,41.815,38.51z M53.815,37.069c-1.44-0.691-3.174-1.862-4.56-0.96
	C50.874,36.027,52.945,37.5,53.815,37.069z M57.415,39.229c-0.396-0.804-0.709-1.69-1.68-1.92
	C56.116,38.129,56.537,38.908,57.415,39.229z M44.215,40.91c-1.911-1.503-4.14-1.666-6.72-2.64c-0.178,1.262-1.757,1.122-1.44,2.88
	c1.732,0.632,5.022,0.385,5.52,2.88c-1.721,0.135-6.171-2.658-6.24,1.44c4.488-1.796,7.668,2.481,7.44,7.2
	c-0.212,4.398-4.455,6.81-6.48,8.4c-0.945,5.146,4.039,1.688,7.2,2.4c0.65-0.311,0.607-1.313,1.44-1.44
	c0.297,0.532-0.282,1.848-0.96,2.16c-3.012-0.124-5.367,1.507-7.92,0.48c0.015,1.585,0.969,2.23,1.44,3.359
	c1.053,0.253,0.789-0.812,1.68-0.72c0.35,0.53,1.285,0.476,1.44,1.2c1.036-0.005,0.885-1.195,1.92-1.2
	c1.998,0.933,5.875,0.517,7.68-0.24c0.57-0.255-0.515-1.105,0.24-1.439c1.202,0.638,1.756,1.923,2.64,2.88
	c-0.177,0.383-1.175-0.055-0.96,0.72c-2.253,3.987-5.249,7.231-10.8,7.92c1.077,6.81,8.588,6.207,13.92,4.561
	c-0.556,0.964-1.772,1.268-2.64,1.92c-0.035,4.695,0.272,8.262-1.68,11.04c-0.462-0.098-0.19-0.931-0.96-0.721
	c-1.146,1.015-2.42,1.9-2.88,3.601c3.306,3.926,19.357-2.547,13.2-6c-0.582,0.138,0.112,1.553-0.72,1.439
	c-1.379-4.348-1.402-9.693-0.48-14.159c-0.754-0.121-0.98,0.565-1.2-0.24c-0.179-0.739,0.659-0.462,0.48-1.2
	c-3.266-5.653,0.938-13.385,7.68-12c-0.174,0.734,0.414,0.706,0.24,1.44c0.181,0.9-0.917,0.522-0.96,1.199
	c3.33-0.31,6.221-6.629,3.6-10.08c-2.429-0.944-3.561,0.021-5.76,0.72c-0.617-0.424-1.177-0.903-1.68-1.44
	c0.316-3.843,0.582-6.452,0.72-10.08c-1.81-0.351-1.613-2.707-3.12-3.36c0.566-3.926-3.563-3.157-4.8-5.28
	c-0.284,0.436-1.251,0.188-1.68,0.48C49.922,35.866,46.441,39.455,44.215,40.91z M34.135,42.589c0.557,0.077,0.921-0.039,1.2-0.24
	c-1.074-1.344,0.294-3.392-0.24-3.84C33.946,39.041,34.659,41.434,34.135,42.589z M60.774,41.87c0.027-0.907-0.469-1.291-1.199-1.44
	C59.679,41.206,60.382,41.382,60.774,41.87z M62.215,43.79c-0.438-0.522-1.166-0.754-1.92-0.96
	C60.349,44.032,61.789,43.682,62.215,43.79z M33.655,50.51c1.56,1.733,5.466,1.809,8.16,1.68c0.306-3.346-1.352-4.728-2.88-6.24
	C35.354,45.649,33.955,47.53,33.655,50.51z M32.455,48.83c-0.458,0.45-0.434-0.143-1.2,0c-0.111,0.724-1.487,1.797-0.48,2.16
	c0.01-1.11,0.682-1.559,1.92-1.44c-0.091-1.218,1.256-2.255,0.72-3.12C33.027,47.162,32.865,48.12,32.455,48.83z M63.895,51.95
	c-0.122-0.598,0.008-1.448-0.72-1.44C62.732,50.981,63.386,51.709,63.895,51.95z M36.055,52.91c-0.485-0.336-2.959-0.783-2.4,0
	c-0.011,1.772,0.452,2.637,1.44,3.84c0.843,0.888,3.544,2.361,4.32,0.48c0.881,0.001,0.919-0.84,1.44-1.2
	c0.751-0.092,1.564-3.448,0.24-2.64C39.529,54.963,36.402,55.654,36.055,52.91z M64.615,56.51c-0.843,0.042-0.79-0.811-1.44-0.96
	C63.018,56.492,64.275,57.526,64.615,56.51z M33.415,60.83c0-0.48,0-0.961,0-1.44c-1.861,0.021-2.241-1.439-3.12-2.4
	C29.901,58.939,32.012,59.933,33.415,60.83z M35.095,61.31c0.154-1.206,1.526-1.194,1.68-2.4c-0.759,0.04-0.802-0.638-1.68-0.479
	C34.902,59.049,34.556,60.755,35.095,61.31z M35.815,68.029c0-0.319,0-0.64,0-0.96c-0.422-0.058-0.547-0.413-0.48-0.96
	c-2.705,0.655-3.942,2.778-4.08,6c-0.532,0.783,0.037,2.516,0.72,2.88c0,0.241,0.195,0.286,0.24,0.48
	c-0.126,0.298,0.606,1.784,1.44,1.92c0.613,0.026,0.84,0.44,1.2,0.72c0.489,0.401,1.768,1.258,2.4,0.721
	c0.901,0.438,1.771-0.205,2.88-0.24c0.589-0.451,0.171-1.915-0.24-2.16c-0.843,0.651-2.574-0.215-3.12,0.24
	c-0.146-0.014-0.284-0.036-0.24-0.24c-0.464-0.736-1.313-1.086-1.92-1.68c-0.146-0.014-0.284-0.036-0.24-0.24
	C33.783,72.23,34.283,69.588,35.815,68.029z M64.615,65.869c-4.522,0.688-7.519,5.049-5.761,9.841
	c-0.65,0.676,2.645,3.887,1.44,2.16c0.558,0.162,0.643,0.797,1.2,0.96c0.293,0.676,1.721,1.466,2.399,0.96
	c0.545,0.463,2.013,0.002,2.16,0.239c0.021,0.083,2.14,0.233,2.16-0.479c0.72-0.48,1.616-0.783,2.16-1.44
	c1.143-0.7,2.281-2.674,2.16-3.84c0.133-2.133-0.293-3.707-0.96-5.04c-0.36-1.164-1.839-2.476-2.88-2.16c0,0.16,0,0.32,0,0.48
	c0.788,0.811,1.416,1.783,2.159,2.64c-0.01,0.33,0.113,0.527,0.24,0.72c-0.547,0.333-0.089,1.671-0.24,2.4c0,0.08,0,0.16,0,0.24
	c-0.728,1.512-1.926,2.554-3.119,3.6c-0.08,0-0.16,0-0.24,0c-0.568-0.309-2.32,0.481-2.641,0.48
	c-0.561-0.079-0.991-0.289-1.439-0.48c-0.524-0.756-1.345-1.216-2.16-1.68c-1.475-1.738-1.548-5.551,0.24-6.96
	c1.249-0.591,2.075-1.604,3.84-1.68C65.402,66.203,65.416,65.629,64.615,65.869z M41.095,69.47c-1.103-0.541-2.658-1.112-3.6,0
	c1.491,0.952,0.136,2.188,0.48,3.6c1.529,6.275,11.767,0.805,12.48-3.359c-2.873,1.818-8.409,2.812-11.76,1.439
	c0.231-0.773,1.161-0.116,1.92-0.72c3.376,1.584,6.847,0.212,9.6-1.92c-0.027-0.293-0.072-0.568-0.48-0.48
	C47.879,69.772,43.212,67.686,41.095,69.47z M36.775,69.949c-0.067-0.492-0.641-0.479-0.96-0.72c-2.757,1.335,0.121,7.376,0.72,6
	c0.438,0.065,1.346,0.864,1.68,0.24C36.656,74.085,37.298,71.9,36.775,69.949z M65.095,75.47c-0.202,0.518-1.529-0.09-1.68,0.479
	c3.851,1.962,8.261-2.144,6-5.52C68.431,72.565,65.713,72.968,65.095,75.47z M62.695,74.75c-0.098-0.863-1.067-0.854-1.2-1.681
	C61.684,73.841,61.717,74.768,62.695,74.75z M51.175,90.59c0.184-0.932-2.288,0.627-2.64,1.439c-0.695,0.989-2.449,2.187-1.92,3.601
	c0.217-0.424,0.537-0.743,0.96-0.96c0.474-0.015,1.648-1.387,2.4-1.92c0.158-0.322,0.513-0.447,0.96-0.48
	C50.938,91.632,50.844,90.899,51.175,90.59z M48.535,101.87c3.811,3.249,11.426,0.415,14.88-1.2
	c0.488-1.192,1.702-1.658,1.439-3.601C60.918,100.045,55.099,102.31,48.535,101.87z"/>
<path fill-rule="evenodd" clip-rule="evenodd" fill="#AD892A" d="M53.095,100.91c1.717-0.764,3.879-1.081,5.76-1.681
	C57.097,100.392,55.12,100.432,53.095,100.91z"/>
<path fill-rule="evenodd" clip-rule="evenodd" fill="#26221D" d="M64.854,94.91c-0.572,0.871-1.679,2.474-2.399,2.399
	C63.402,96.657,63.932,95.586,64.854,94.91z"/>
<path fill-rule="evenodd" clip-rule="evenodd" fill="#AD892A" d="M60.535,86.989c1.137,0.153,2.732,1.251,3.359,2.641
	C62.923,88.497,61.483,87.464,60.535,86.989z"/>
<path fill-rule="evenodd" clip-rule="evenodd" fill="#26221D" d="M48.535,92.029c0.353-0.813,2.824-2.371,2.64-1.439
	C49.816,90.591,49.511,91.646,48.535,92.029z"/>
<path fill-rule="evenodd" clip-rule="evenodd" fill="#26221D" d="M47.575,94.67c0.729-0.711,1.306-1.575,2.4-1.92
	C49.223,93.283,48.048,94.655,47.575,94.67z"/>
<path fill-rule="evenodd" clip-rule="evenodd" fill="#26221D" d="M59.335,49.55c0.209,1.409-1.36,1.04-1.68,1.92
	c-0.147,3.783-0.949,6.633-3.12,7.92c-7.595,4.502-12.546-13.023-4.08-14.88c-1.904,1.855-3.693,3.827-3.36,7.92
	c2.857,0.113,8.518-0.471,8.88-3.12c0.275-2.014-2.272-4.582-5.28-4.56c0-0.24,0-0.48,0-0.72c3.517-1.105,6.259,3.319,6.98,5.867
	C57.675,49.896,58.72,49.461,59.335,49.55z M56.695,51.95c-0.861-0.088-0.879-0.645-1.68-0.24c0.243,2.163-1.094,2.746-2.88,2.88
	c-1.234-1.216-2.827-1.719-4.8-0.72C49.21,61.778,57.281,59.153,56.695,51.95z"/>
<path fill-rule="evenodd" clip-rule="evenodd" fill="#26221D" d="M51.655,105.47c0.8,0,1.6,0,2.4,0c0,0.16,0,0.32,0,0.479
	C53.217,105.828,52.243,105.842,51.655,105.47z"/>
<ellipse fill-rule="evenodd" clip-rule="evenodd" fill="#BCBBBA" cx="37.996" cy="53.422" rx="0.243" ry="0.261"/>
<ellipse fill-rule="evenodd" clip-rule="evenodd" fill="#BCBBBA" cx="52.688" cy="53.187" rx="0.255" ry="0.235"/>
<path fill-rule="evenodd" clip-rule="evenodd" fill="#BCBBBA" d="M47.335,53.87c0.915-0.62,3.373-0.762,3.399-0.729
	c0.536,0.674,0.969,1.328,1.672,1.344c1.708-0.209,2.797-0.672,2.608-2.775c0.801-0.404,0.819,0.152,1.68,0.24
	C57.281,59.153,49.21,61.778,47.335,53.87z"/>
</svg>
