<?xml version="1.0" encoding="utf-8"?>
<!-- Generator: Adobe Illustrator 15.1.0, SVG Export Plug-In . SVG Version: 6.00 Build 0)  -->
<!DOCTYPE svg PUBLIC "-//W3C//DTD SVG 1.1//EN" "http://www.w3.org/Graphics/SVG/1.1/DTD/svg11.dtd">
<svg version="1.1" id="Ebene_1" xmlns="http://www.w3.org/2000/svg" xmlns:xlink="http://www.w3.org/1999/xlink" x="0px" y="0px"
	 width="113.39px" height="113.39px" viewBox="0 0 113.39 113.39" enable-background="new 0 0 113.39 113.39" xml:space="preserve">
<path fill-rule="evenodd" clip-rule="evenodd" fill="#4D3425" d="M48.655,7.549c0.561,0.079,0.992,0.289,1.44,0.48
	C50.042,8.795,48.391,8.517,48.655,7.549z"/>
<path fill-rule="evenodd" clip-rule="evenodd" fill="#4D3425" d="M60.175,10.429c-0.946,0.066-0.733-1.026-1.68-0.96
	C58.805,8.516,60.121,9.648,60.175,10.429z"/>
<path fill-rule="evenodd" clip-rule="evenodd" fill="#4D3425" d="M40.735,9.229c0.193,0.127,0.39,0.25,0.72,0.24
	c0.073,0.632-0.332,0.788-0.96,0.72C40.393,9.688,40.659,9.554,40.735,9.229z"/>
<path fill-rule="evenodd" clip-rule="evenodd" fill="#4D3425" d="M61.854,11.149c0.102-0.534,1.273-0.188,1.44,0
	C63.194,11.684,62.021,11.337,61.854,11.149z"/>
<path fill-rule="evenodd" clip-rule="evenodd" fill="#4D3425" d="M34.495,11.87c0.005,0.565-0.413,0.707-0.24,1.44
	c-0.563-0.077-0.537-0.743-0.96-0.96C33.33,11.825,33.899,11.834,34.495,11.87z"/>
<path fill-rule="evenodd" clip-rule="evenodd" fill="#4D3425" d="M75.055,21.949c0.537,0.104,0.098,1.183,0.24,1.68
	C74.666,23.31,74.837,22.564,75.055,21.949z"/>
<path fill-rule="evenodd" clip-rule="evenodd" fill="#23211F" d="M49.615,33.949c-2.939-1.282-5.308-3.244-9.36-2.16
	C41.964,27.4,49.3,30.444,49.615,33.949z"/>
<path fill-rule="evenodd" clip-rule="evenodd" fill="#23211F" d="M67.854,44.989c0.079,0.959-1.253,0.506-1.68,0.96
	c-0.138,1.331,0.652,2.896-0.72,3.36c-0.179-0.823-0.128-1.739-0.721-2.64c-1.241,0.198-1.377,1.502-2.64,1.68
	C62.45,45.776,65.271,44.552,67.854,44.989z"/>
<path fill-rule="evenodd" clip-rule="evenodd" fill="#23211F" d="M34.015,62.27c0.284,0.276,0.849,0.271,1.44,0.24
	c-0.095,0.54-1.497-0.036-0.72,0.72c-0.597,0.037-0.743-0.377-1.2-0.48C33.538,62.433,33.956,62.53,34.015,62.27z"/>
<path fill-rule="evenodd" clip-rule="evenodd" fill="#23211F" d="M37.375,63.47c-0.099,0.578,0.438,0.521,0.24,1.2
	c-0.24,0-0.48,0-0.72,0c0.067-0.388-0.227-0.414-0.24-0.721C37.187,64.082,36.997,63.491,37.375,63.47z"/>
<path fill-rule="evenodd" clip-rule="evenodd" fill="#23211F" d="M56.335,68.029c-0.136,0.585-0.206,1.234-0.96,1.2
	C55.51,68.645,55.58,67.995,56.335,68.029z"/>
<path fill-rule="evenodd" clip-rule="evenodd" fill="#4C5B76" d="M44.815,80.75c0.628-0.572,1.322-1.078,2.4-1.2
	c0.067,0.388-0.227,0.413-0.24,0.72C46.15,79.565,45.932,81.004,44.815,80.75z"/>
<path fill-rule="evenodd" clip-rule="evenodd" fill="#4C5B76" d="M63.774,81.47c0.09-0.669-0.914-1.461-0.239-1.92
	c0.379,0.42,0.321,1.278,0.479,1.92C63.935,81.47,63.854,81.47,63.774,81.47z"/>
<path fill-rule="evenodd" clip-rule="evenodd" fill="#4C5B76" d="M46.975,80.51c0.17,0.89-0.41,1.029-0.24,1.92
	c-0.496-0.206-0.253-1.671,0-1.92C46.815,80.51,46.895,80.51,46.975,80.51z"/>
<path fill-rule="evenodd" clip-rule="evenodd" fill="#4C5B76" d="M46.735,82.67c0.031,1.391-0.453,2.268-0.48,3.6
	c-0.16,0-0.32,0-0.48,0c0.095-1.345,0.704-2.176,0.72-3.6C46.575,82.67,46.655,82.67,46.735,82.67z"/>
<path fill-rule="evenodd" clip-rule="evenodd" fill="#B57A27" d="M50.815,85.31c0.165-1.195,1.017-1.703,1.68-2.4
	c1.439,0.481,1.99,1.851,3.36,2.4c-0.022,0.896-0.269,0.684,0,1.44c-0.547,0.332-0.09,1.67-0.24,2.399
	c-0.401,0.559-0.627,1.293-0.72,2.16c-0.233,0.007-0.187,0.294-0.24,0.48c-1.635-0.081-1.585-0.26-2.88,0
	c0.067-0.548-0.058-0.902-0.48-0.961c0.077-0.556-0.039-0.921-0.24-1.199c0.175-0.245,0.113-1.71-0.24-2.16c0-0.08,0-0.16,0-0.24
	c0.326-0.769,1.408,0.954,1.92,0c0.732-0.147,0.683-1.077,1.92-0.72c0.103-0.929,0.263-0.854-0.24-1.44
	c-0.976-0.096-0.739,1.021-1.44,1.2c-0.16,0-0.32,0-0.48,0c-0.424-0.401,0.213-0.804,0-1.68c-0.812-0.012-1.041,0.559-1.44,0.96
	C50.908,85.536,50.771,85.514,50.815,85.31z M52.255,88.43c-0.241-0.001-0.286,0.194-0.48,0.24c-0.01,0.33,0.113,0.526,0.24,0.72
	c0.454,1.716,2.867,0.06,1.92-1.2C53.438,88.332,52.358,87.893,52.255,88.43z"/>
<path fill-rule="evenodd" clip-rule="evenodd" fill="#4C5B76" d="M46.255,86.51c-0.25,1.53,0.522,2.038,0.48,3.359
	c-0.58-0.8-1.23-2.194-0.72-3.359C46.095,86.51,46.175,86.51,46.255,86.51z"/>
<path fill-rule="evenodd" clip-rule="evenodd" fill="#4C5B76" d="M76.495,87.229c0.881,0.238,1.355,0.884,2.399,0.96
	c0.061,0.819,1.271,0.489,1.44,1.2c-1.434-0.486-2.692-1.148-3.84-1.92C76.495,87.39,76.495,87.31,76.495,87.229z"/>
<path fill-rule="evenodd" clip-rule="evenodd" fill="#4C5B76" d="M37.855,89.39c-0.365,0.595-0.06,1.86-0.48,2.4
	c-0.559-0.498,0.122-1.785,0.24-2.4C37.695,89.39,37.775,89.39,37.855,89.39z"/>
<path fill-rule="evenodd" clip-rule="evenodd" fill="#4C5B76" d="M68.335,91.069c-1.109-0.606-1.588,0.574-2.16,1.2
	c-0.71-0.882,0.65-1.74,0.96-2.4C67.989,89.814,68.39,90.215,68.335,91.069z"/>
<path fill-rule="evenodd" clip-rule="evenodd" fill="#4C5B76" d="M46.735,92.029c-0.529,1.071-0.062,3.139-0.96,3.84
	c0.025-1.988,0.318-2.562,0.72-3.84C46.575,92.029,46.655,92.029,46.735,92.029z"/>
<path fill-rule="evenodd" clip-rule="evenodd" fill="#4C5B76" d="M70.734,93.71c0.331-0.31,0.238-1.043,0.24-1.681
	C71.699,92.041,71.719,93.99,70.734,93.71z"/>
<path fill-rule="evenodd" clip-rule="evenodd" fill="#4C5B76" d="M38.575,92.51c0.42,0.459,0.509,1.251,0.72,1.92
	C38.667,94.177,38.51,93.454,38.575,92.51z"/>
<path fill-rule="evenodd" clip-rule="evenodd" fill="#4C5B76" d="M27.535,94.189c-0.5-0.07,0.356-0.649-0.48-0.72
	c-0.635,0.085-0.217,1.223-0.72,1.439c-0.065-0.944,0.092-1.667,0.72-1.92c0.75-0.109,0.767,0.513,0.72,1.2
	C27.695,94.189,27.615,94.189,27.535,94.189z"/>
<path fill-rule="evenodd" clip-rule="evenodd" fill="#4C5B76" d="M63.774,92.989c0.202,0.5,0.912,1.013,0.48,1.44
	C63.388,94.657,63.92,93.484,63.774,92.989z"/>
<path fill-rule="evenodd" clip-rule="evenodd" fill="#4C5B76" d="M78.895,93.47c0.24,0,0.48,0,0.721,0
	c-0.102,0.459-0.087,1.033-0.721,0.96C78.895,94.109,78.895,93.79,78.895,93.47z"/>
<path fill-rule="evenodd" clip-rule="evenodd" fill="#4C5B76" d="M42.895,94.189c0.859-0.14,0.729,0.71,0.72,1.44
	C43.098,95.426,42.766,95.038,42.895,94.189z"/>
<path fill-rule="evenodd" clip-rule="evenodd" fill="#516381" d="M68.095,94.43c1.009,1-1.033,2.698-1.92,3.36
	c-0.708-1.01,1.429-1.477,0.24-2.4C66.953,95.048,67.996,95.211,68.095,94.43z"/>
<path fill-rule="evenodd" clip-rule="evenodd" fill="#4C5B76" d="M27.535,94.909c0.537,0.631,0.121,2.351-0.48,2.641
	C27.351,96.497,26.948,96.194,27.535,94.909z"/>
<path fill-rule="evenodd" clip-rule="evenodd" fill="#4C5B76" d="M35.455,94.909c0.422,0.059,0.547,0.413,0.48,0.96
	c-0.24,0-0.48,0-0.72,0C35.113,95.368,35.379,95.234,35.455,94.909z"/>
<path fill-rule="evenodd" clip-rule="evenodd" fill="#4C5B76" d="M73.854,96.109c0.731,0.073,1.31,1.021,0.96,1.44
	C74.362,97.202,73.751,97.014,73.854,96.109z"/>
<path fill-rule="evenodd" clip-rule="evenodd" fill="#4C5B76" d="M83.695,96.109c0.632-0.072,0.787,0.333,0.72,0.96
	C83.782,97.142,83.627,96.737,83.695,96.109z"/>
<path fill-rule="evenodd" clip-rule="evenodd" fill="#4C5B76" d="M29.935,97.79c0.633-0.073,0.619,0.501,0.72,0.96
	c-0.477,0.003-0.305,0.654-0.96,0.479C29.521,98.496,29.94,98.354,29.935,97.79z"/>
<path fill-rule="evenodd" clip-rule="evenodd" fill="#4C5B76" d="M45.055,99.47c-0.678,0.198-0.622-0.339-1.2-0.24
	C43.785,98.606,45.478,98.396,45.055,99.47z"/>
<path fill-rule="evenodd" clip-rule="evenodd" fill="#4D3425" d="M54.895,99.47c0-0.08,0-0.16,0-0.24
	c0.398,0.729,0.398,3.111,0,3.84C54.895,101.869,54.895,100.67,54.895,99.47z"/>
<path fill-rule="evenodd" clip-rule="evenodd" fill="#4C5B76" d="M46.015,99.47c-0.329,2.83-0.09,4.959,0,8.399
	C45.084,105.234,45.193,101.709,46.015,99.47z"/>
<path fill-rule="evenodd" clip-rule="evenodd" fill="#4C5B76" d="M61.854,99.47c0.502-0.102,0.636,0.164,0.96,0.24
	c-0.084,0.314-0.422,0.377-0.479,0.72C61.913,100.372,61.788,100.017,61.854,99.47z"/>
<path fill-rule="evenodd" clip-rule="evenodd" fill="#4C5B76" d="M23.935,100.189c0.32,0,0.64,0,0.96,0
	c0.237,0.957-0.718,0.723-0.48,1.68C24.043,101.521,23.911,100.934,23.935,100.189z"/>
<path fill-rule="evenodd" clip-rule="evenodd" fill="#4C5B76" d="M60.895,100.43c0.16,0,0.32,0,0.48,0
	c-0.283,0.597,0.111,1.871-0.72,1.92C60.8,101.774,61,101.255,60.895,100.43z"/>
<path fill-rule="evenodd" clip-rule="evenodd" fill="#4C5B76" d="M81.295,102.59c0.351-0.45,0.01-1.591,0.479-1.92
	c0.235,0.366,0.155,1.204-0.239,1.92C81.455,102.59,81.375,102.59,81.295,102.59z"/>
<path fill-rule="evenodd" clip-rule="evenodd" fill="#516381" d="M38.095,104.029c-0.18,0.45,0.708,2.214-0.48,2.641
	c-1.284-0.123-0.512-1.372-0.96-1.92c-0.307,0.013-0.333,0.308-0.72,0.239c-0.118,0.754,0.828,0.635,0.24,1.2
	c-0.742,0.022-0.715-0.725-0.72-1.439c-0.342,0.093-0.405,0.288-0.72,0c-0.646-0.166-0.464,0.496-0.72,0.72
	c-0.859-0.404-0.719-3.253,0.48-3.12c0.166,0.965-0.23,1.37-0.24,2.16c1.289,0.089,0.312-2.089,1.68-1.92
	c0.505,0.856-0.536,1.417,0.72,1.68c0.914-1.147-1.604-1.979-0.48-3.36c0.807,0.714,1.071,1.97,1.68,2.881
	C38.001,103.803,38.139,103.825,38.095,104.029z"/>
<path fill-rule="evenodd" clip-rule="evenodd" fill="#4C5B76" d="M78.415,101.149c0.632-0.072,0.787,0.332,0.72,0.96
	c-0.628,0.067-1.032-0.088-0.96-0.72C78.379,101.434,78.401,101.296,78.415,101.149z"/>
<path fill-rule="evenodd" clip-rule="evenodd" fill="#516381" d="M75.774,102.35c0.042,0.392-1.569,0.484-1.199-0.24
	C74.999,101.664,75.275,102.214,75.774,102.35z"/>
<path fill-rule="evenodd" clip-rule="evenodd" fill="#516381" d="M66.175,102.109c0.728-0.008,0.598,0.842,0.72,1.44
	C66.378,103.346,66.046,102.959,66.175,102.109z"/>
<path fill-rule="evenodd" clip-rule="evenodd" fill="#4C5B76" d="M80.095,102.35c0.169,0.599,0.236,0.986-0.24,1.44
	c-0.729-0.296,0.261-0.826,0-1.44C79.935,102.35,80.015,102.35,80.095,102.35z"/>
<path fill-rule="evenodd" clip-rule="evenodd" fill="#516381" d="M82.975,102.35c0.972,0.445,0.05,1.495,0.48,2.64
	C82.711,104.742,82.644,102.916,82.975,102.35z"/>
<path fill-rule="evenodd" clip-rule="evenodd" fill="#516381" d="M72.655,103.069c0.584-0.723,0.964,0.779,0.96,1.44
	C72.708,104.616,73.269,103.256,72.655,103.069z"/>
<path fill-rule="evenodd" clip-rule="evenodd" fill="#4C5B76" d="M22.735,103.31c0.457-0.44,0.021,2.048,0.96,1.92
	c0.092,0.892-0.973,0.628-0.72,1.68C21.87,106.314,22.86,104.439,22.735,103.31z"/>
<path fill-rule="evenodd" clip-rule="evenodd" fill="#4C5B76" d="M26.575,107.869c-0.583-1.309-0.027-3.543,0.24-4.8
	C26.965,103.945,26.877,106.648,26.575,107.869z"/>
<path fill-rule="evenodd" clip-rule="evenodd" fill="#23211F" d="M50.815,103.069c0.342,0.058,0.405,0.396,0.72,0.48
	c-0.01,0.33,0.113,0.526,0.24,0.72c0.752,0.112,0.676-0.604,0.96-0.96C54.54,105.011,49.295,105.692,50.815,103.069z"/>
<path fill-rule="evenodd" clip-rule="evenodd" fill="#516381" d="M60.415,104.27c0-0.08,0-0.16,0-0.24
	c0.346-0.134,0.585-0.374,0.72-0.72c0.355,0.045,0.22,0.58,0.24,0.96C61.055,104.27,60.734,104.27,60.415,104.27z"/>
<path fill-rule="evenodd" clip-rule="evenodd" fill="#4C5B76" d="M23.935,103.55c0.525,0.035,0.516,0.604,0.48,1.2
	c-0.477-0.004-0.305-0.655-0.96-0.48C23.54,103.954,23.877,103.893,23.935,103.55z"/>
<path fill-rule="evenodd" clip-rule="evenodd" fill="#23211F" d="M48.655,106.43c0.153-0.887-0.311-2.391,0.24-2.88
	C48.742,104.437,49.206,105.94,48.655,106.43z"/>
<path fill-rule="evenodd" clip-rule="evenodd" fill="#516381" d="M74.575,103.55c0.667-0.165,0.672,1.537,0.96,0.96
	c0.471,0.409,0.396,2.302-0.48,2.16c-0.117,0.757,0.433,0.848,0.24,1.68c0.85-0.658,1.586-1.645,1.2-2.88
	c1.305-0.016-0.111,2.148,0,3.12c0.09,0.785,1.126,1.687-0.48,2.16c-0.198-0.679,0.339-0.622,0.24-1.2
	c-0.804-0.901-1.042,0.062-1.92,0.24c0.283-0.357,0.208-1.073,0.96-0.96C73.626,108.024,74.803,105.635,74.575,103.55z"/>
<path fill-rule="evenodd" clip-rule="evenodd" fill="#516381" d="M76.975,104.27c-0.319,0-0.64,0-0.96,0
	C75.826,103.346,77.164,103.346,76.975,104.27z"/>
<path fill-rule="evenodd" clip-rule="evenodd" fill="#516381" d="M86.335,103.55c0.679-0.198,0.622,0.338,1.2,0.24
	c-0.506,0.454-0.74,1.18-0.96,1.92C85.511,105.176,87.027,104.623,86.335,103.55z"/>
<path fill-rule="evenodd" clip-rule="evenodd" fill="#516381" d="M64.975,104.27c0.533,0.41,0.913,1.794,0.24,2.64
	C64.612,106.38,64.155,104.854,64.975,104.27z"/>
<path fill-rule="evenodd" clip-rule="evenodd" fill="#516381" d="M88.015,104.51c0.778-0.992,0.146,1.435,0.96,1.2
	c0.637,0.076-0.225-1.345,0.721-0.96c-0.054,0.767,0.375,1.034,0.479,2.159c-0.489-0.07-0.471-0.649-0.96-0.72
	c-0.813,0.146-0.385,1.535-1.439,1.44c-0.187-1.03,0.603-1.547-0.24-1.92c-0.211-0.771,0.791-0.329,0.72-0.96
	C88.299,104.546,88.161,104.523,88.015,104.51z"/>
<path fill-rule="evenodd" clip-rule="evenodd" fill="#516381" d="M66.895,105.71c0.357,0.203,0.348,0.772,0.48,1.199
	C66.346,107.275,66.594,105.988,66.895,105.71z"/>
<path fill-rule="evenodd" clip-rule="evenodd" fill="#516381" d="M40.495,113.39c0.346-2.646-2.362-4.154-2.16-7.44
	c1.525,2.075,2.436,4.764,3.36,7.44C41.295,113.39,40.895,113.39,40.495,113.39z"/>
<path fill-rule="evenodd" clip-rule="evenodd" fill="#4C5B76" d="M79.375,105.949c0.549,0.411,0.088,1.832,0.24,2.641
	c-0.08,0-0.16,0-0.24,0C79.209,108.022,78.82,106.442,79.375,105.949z"/>
<path fill-rule="evenodd" clip-rule="evenodd" fill="#4C5B76" d="M21.535,106.67c0.357,0.373,0.208,2.275-0.48,2.399
	C21.251,108.306,21.208,107.303,21.535,106.67z"/>
<path fill-rule="evenodd" clip-rule="evenodd" fill="#516381" d="M32.815,106.67c0.601,0.48-0.709,0.889,0,1.68
	c-1.137,0.257-0.556-1.205-1.44-1.2C31.468,106.066,32.505,107.417,32.815,106.67z"/>
<path fill-rule="evenodd" clip-rule="evenodd" fill="#516381" d="M90.175,107.149c0.703,0.348-1.199,1.614-0.96,0.24
	C89.595,107.369,90.13,107.505,90.175,107.149z"/>
<path fill-rule="evenodd" clip-rule="evenodd" fill="#516381" d="M63.055,108.59c0.393-0.108,0.393,1.308,0,1.2
	C62.066,109.905,62.714,108.618,63.055,108.59z"/>
<path fill-rule="evenodd" clip-rule="evenodd" fill="#4C5B76" d="M27.295,108.83c1.568,0.525,1.668,2.498,0.24,3.119
	C27.254,110.854,27.329,109.601,27.295,108.83z"/>
<path fill-rule="evenodd" clip-rule="evenodd" fill="#516381" d="M35.455,108.83c0.32,0,0.64,0,0.96,0
	c0.114,0.993,0,1.761-0.96,1.68C35.507,109.632,35.785,109.589,35.455,108.83z"/>
<path fill-rule="evenodd" clip-rule="evenodd" fill="#516381" d="M42.175,110.51c0-0.08,0-0.16,0-0.24
	c0.599-0.166-0.445-0.64-0.24-1.2c0.624-0.436,0.724,0.104,1.44-0.239c0.118,0.918-0.834,0.766-0.48,1.92
	C42.588,110.736,42.563,110.442,42.175,110.51z"/>
<path fill-rule="evenodd" clip-rule="evenodd" fill="#4C5B76" d="M23.215,113.149c-1.273-0.494-1.043-1.725-0.96-3.12
	c0.355,0.125,0.605,0.355,0.96,0.48C22.035,111.477,24.201,111.853,23.215,113.149z"/>
<path fill-rule="evenodd" clip-rule="evenodd" fill="#4C5B76" d="M46.015,110.27c0.537,0.104,0.097,1.183,0.24,1.68
	C45.479,111.651,46.002,110.724,46.015,110.27z"/>
<path fill-rule="evenodd" clip-rule="evenodd" fill="#4C5B76" d="M24.175,110.51c0.481,0.478-0.076,1.143-0.24,1.68
	C23.32,111.95,23.245,110.472,24.175,110.51z"/>
<path fill-rule="evenodd" clip-rule="evenodd" fill="#516381" d="M72.175,113.39c-0.24,0-0.479,0-0.72,0
	c-0.676-0.444-0.548-1.692-0.721-2.64c0.755-0.372,1.34-0.153,1.921,0.239C72.483,111.744,71.389,112.429,72.175,113.39z"/>
<path fill-rule="evenodd" clip-rule="evenodd" fill="#516381" d="M32.335,112.43c0.041-0.601-0.369-0.751-0.72-0.96
	c-0.073-0.554,0.693-0.267,0.72-0.72c0.374,0.346,0.474,0.966,1.44,0.72C33.743,112.238,33.23,112.525,32.335,112.43z"/>
<path fill-rule="evenodd" clip-rule="evenodd" fill="#516381" d="M77.455,113.39c-1.12,0-2.24,0-3.36,0
	c0.23-0.73,0.484-1.436,0.72-2.16c0.723,0.252,1.087,0.69,0.721,1.44c0.623,0.144,0.863-0.097,0.72-0.721
	c0.692,0.107,0.567,1.033,1.2,1.2C77.455,113.229,77.455,113.31,77.455,113.39z"/>
<path fill-rule="evenodd" clip-rule="evenodd" fill="#516381" d="M33.295,113.39c0-0.32,0-0.64,0-0.96
	c0.633-0.073,0.619,0.501,0.72,0.96C33.775,113.39,33.535,113.39,33.295,113.39z"/>
<path fill-rule="evenodd" clip-rule="evenodd" fill="#4D3425" d="M61.375,55.069c-0.723-0.796,1.993,0.122,2.64,0.24
	C62.897,55.711,62.689,55.022,61.375,55.069z"/>
<path fill-rule="evenodd" clip-rule="evenodd" fill="#4D3425" d="M32.095,16.669c0.393,0.727,0.188,2.052,0.96,2.4
	C32.234,18.77,31.936,17.949,32.095,16.669z"/>
<path fill-rule="evenodd" clip-rule="evenodd" fill="#4D3425" d="M30.175,31.79c0.263,0.864,0.494,3.016,0,3.84
	C30.338,34.339,29.935,32.359,30.175,31.79z"/>
<path fill-rule="evenodd" clip-rule="evenodd" fill="#4D3425" d="M29.935,44.75c-0.749-2.003-1.166-5.567,0.24-7.2
	C28.974,39.531,29.786,43.08,29.935,44.75z"/>
<path fill-rule="evenodd" clip-rule="evenodd" fill="#4D3425" d="M32.095,62.989c0.416,0.318,0.799,1.902,0.24,2.4
	C32.477,64.368,32.162,63.802,32.095,62.989z"/>
<path fill-rule="evenodd" clip-rule="evenodd" fill="#4D3425" d="M91.615,106.67c-0.046-0.194-0.241-0.239-0.24-0.48
	c0.447-0.309-0.552-1.192-0.24-2.16C91.555,104.838,91.966,106.413,91.615,106.67z"/>
<path fill-rule="evenodd" clip-rule="evenodd" fill="#4D3425" d="M88.975,96.109c0.223,0.668,1.03,1.996,0.721,2.4
	c0.044-0.204-0.094-0.227-0.24-0.24C89.575,97.27,88.754,97.211,88.975,96.109z"/>
<path fill-rule="evenodd" clip-rule="evenodd" fill="#4D3425" d="M82.495,90.35c-0.645-0.315-1.276-0.645-1.92-0.96
	c-0.08,0-0.16,0-0.24,0c-0.169-0.711-1.38-0.381-1.44-1.2C79.993,89.012,81.577,89.348,82.495,90.35z"/>
<path fill-rule="evenodd" clip-rule="evenodd" fill="#4C5B76" d="M59.935,105.71c0.069,0.774-0.419,2.463-1.2,3.6
	C59.297,107.871,59.406,106.718,59.935,105.71z"/>
<path fill-rule="evenodd" clip-rule="evenodd" fill="#4D3425" d="M59.455,90.109c-0.4-0.4-0.445-1.155-0.96-1.439
	c-0.071-0.49-0.649-0.471-0.72-0.96C58.654,88.189,59.263,88.941,59.455,90.109z"/>
<path fill-rule="evenodd" clip-rule="evenodd" fill="#4D3425" d="M54.415,108.83c0.361,1.559-0.787,2.628-0.48,4.56
	c-0.08,0-0.16,0-0.24,0C53.406,112.236,54.008,110.07,54.415,108.83z"/>
<path fill-rule="evenodd" clip-rule="evenodd" fill="#4D3425" d="M54.895,103.31c0.276,0.618-0.011,3.484-0.48,5.28
	C54.376,107.185,54.562,105.271,54.895,103.31z"/>
<path fill-rule="evenodd" clip-rule="evenodd" fill="#23211F" d="M52.495,92.989c0.421-0.71,1.279,0.139,1.92,0
	c0.14,0.852,0.592,2.293,0.24,2.88C54.007,94.637,54.947,92.723,52.495,92.989z"/>
<path fill-rule="evenodd" clip-rule="evenodd" fill="#23211F" d="M48.655,108.35c0-0.56,0-1.12,0-1.68
	c0.81,0.117,0.134,1.711,0.24,1.92C48.939,108.386,48.801,108.363,48.655,108.35z"/>
<path fill-rule="evenodd" clip-rule="evenodd" fill="#23211F" d="M41.215,98.989c0.734-0.626,1.507-1.212,2.64-1.439
	C43.008,98.063,42.187,98.602,41.215,98.989z"/>
<path fill-rule="evenodd" clip-rule="evenodd" fill="#4C5B76" d="M39.055,100.189c-0.548,0.577-0.041,1.451,0.24,1.92
	c-0.212-1.892,2.254-1.105,2.4-2.64c0.733,0.173,0.875-0.245,1.44-0.24c0.459,0.661,1.065,1.175,1.44,1.92
	c-0.141,0.574-0.504-0.581-0.72-0.72c-0.594,0.446-0.999,1.081-1.68,1.439c0.428,0.612,1.099,0.982,2.16,0.96
	c-0.063,0.986,0.976,1.572,0,2.16c0.076,0.563,0.743,0.537,0.96,0.96c-0.407,2.722-1.058,5.358,0.24,7.44c-0.8,0-1.6,0-2.4,0
	c-0.143-1.138-0.668-1.892-0.96-2.88c0.388-0.067,0.413,0.227,0.72,0.24c-0.354-1.154,0.598-1.002,0.48-1.92
	c-0.716,0.344-0.816-0.196-1.44,0.239c-0.205,0.561,0.839,1.034,0.24,1.2c-0.08,0-0.16,0-0.24,0c-0.159-0.961-0.504-1.736-0.72-2.64
	c0.006-0.233,0.294-0.187,0.48-0.24c0.039-0.76-0.638-0.802-0.48-1.68c-0.408-0.089-0.453,0.187-0.48,0.479
	c-0.604-1.839-2.853-4.177-1.92-6C38.895,100.189,38.975,100.189,39.055,100.189z M40.975,104.51c0.001-0.241-0.194-0.286-0.24-0.48
	c0.529,0.102,1.324-0.719,0.72-0.96c-0.043,0.677-1.141,0.3-0.96,1.2C40.832,104.25,40.769,104.968,40.975,104.51z"/>
<path fill-rule="evenodd" clip-rule="evenodd" fill="#4C5B76" d="M30.175,89.63c0.976-0.624,2.048-1.152,3.12-1.681
	C32.483,88.737,31.603,89.457,30.175,89.63z"/>
<path fill-rule="evenodd" clip-rule="evenodd" fill="#4D3425" d="M25.855,90.829c1.285,0.29,1.733,0.064,2.64-0.479
	C27.998,91.19,26.705,91.546,25.855,90.829z"/>
<path fill-rule="evenodd" clip-rule="evenodd" fill="#4C5B76" d="M22.975,97.55c0.791-2.381,0.975-3.91,2.16-5.76
	C24.637,93.932,23.896,95.831,22.975,97.55z"/>
<path fill-rule="evenodd" clip-rule="evenodd" fill="#4D3425" d="M36.175,10.669c0.212-0.861,1.783-0.846,2.16-0.24
	C38.188,10.667,36.72,10.206,36.175,10.669z"/>
<path fill-rule="evenodd" clip-rule="evenodd" fill="#4D3425" d="M31.855,35.87c0.396-1.294,3.021-1.628,3.84-0.48
	C34.662,35.042,33.125,34.529,31.855,35.87z"/>
<path fill-rule="evenodd" clip-rule="evenodd" fill="#23211F" d="M43.855,46.43c-5.675-3.16-2.418-16.359,3.6-11.76
	C51.337,37.637,52.742,49.238,43.855,46.43z M44.815,34.91c-0.89,0.149-1.405,0.674-2.16,0.96c-0.062,1.058-0.736,1.503-0.48,2.88
	c-0.397,0.336-0.397,2.304,0,2.64c-0.361,3.919,3.29,5.594,6.48,3.84c1.799-2.583-0.179-7.218-0.96-8.64
	C47.445,35.474,46.049,34.242,44.815,34.91z"/>
<path fill-rule="evenodd" clip-rule="evenodd" fill="#4D3425" d="M47.695,36.589c-0.747-0.773-1.152-1.888-2.88-1.68
	C46.049,34.242,47.445,35.474,47.695,36.589z"/>
<path fill-rule="evenodd" clip-rule="evenodd" fill="#C1BEBE" d="M47.695,36.589c0.781,1.422,2.759,6.058,0.96,8.64
	c-3.19,1.754-6.841,0.08-6.48-3.84c0-0.88,0-1.76,0-2.64c-0.256-1.376,0.418-1.822,0.48-2.88c0.755-0.286,1.27-0.811,2.16-0.96
	C46.543,34.701,46.948,35.816,47.695,36.589z M46.255,38.989c-0.494-0.066-0.226-0.894-0.72-0.96c0.001,0.241-0.194,0.286-0.24,0.48
	c-0.478,0.563-0.553,1.527-0.48,2.64c-0.083,1.234,2.09,1.704,2.4,0.48c0.338-0.838,0.68-3.487-0.72-3.36
	C46.505,38.6,46.382,38.796,46.255,38.989z"/>
<path fill-rule="evenodd" clip-rule="evenodd" fill="#23211F" d="M33.775,38.029c0.381,0.254,1.914-0.859,2.16,0.72
	c-0.462-0.098-0.189-0.931-0.96-0.72c-0.539,0.101-0.006,1.273-0.48,1.44C33.662,39.582,34.357,38.167,33.775,38.029z"/>
<path fill-rule="evenodd" clip-rule="evenodd" fill="#23211F" d="M44.815,41.149c0.447,0.685,1.688,1.426,2.4,0.48
	C46.905,42.854,44.731,42.384,44.815,41.149z"/>
<path fill-rule="evenodd" clip-rule="evenodd" fill="#23211F" d="M45.295,38.509c0.045-0.194,0.241-0.239,0.24-0.48
	c0.494,0.066,0.226,0.894,0.72,0.96c0,0.32,0,0.64,0,0.96C45.11,40.294,46.439,38.165,45.295,38.509z"/>
<path fill-rule="evenodd" clip-rule="evenodd" fill="#23211F" d="M34.015,56.029c-0.72,0-1.44,0-2.16,0
	c-0.104,1.305,0.656,1.744,1.2,2.4c4.017,0.455,5.813-0.057,10.08-0.96c-3.961,1.335-10.115,3.031-11.76-0.96
	c0.486-1.007,1.444-0.914,2.64-0.72C34.015,55.87,34.015,55.95,34.015,56.029z"/>
<path fill-rule="evenodd" clip-rule="evenodd" fill="#843C25" d="M42.175,56.029c1.857-0.428,2.907-0.334,4.8-0.48
	c-0.559,1.281-2.343,1.337-3.6,1.92c0.351-0.769,1.638-0.602,2.16-1.2C45.08,55.481,43.544,56.31,42.175,56.029z"/>
<path fill-rule="evenodd" clip-rule="evenodd" fill="#23211F" d="M42.895,58.67c0.375-0.595,2.095-1.093,2.4-0.96
	C44.277,58.158,43.331,58.763,42.895,58.67z"/>
<path fill-rule="evenodd" clip-rule="evenodd" fill="#23211F" d="M44.335,60.59c0.176-0.225,0.436-0.364,0.72-0.48
	c0.16,0,0.32,0,0.48,0c-0.045,0.915-1.339,0.581-1.44,1.44c-0.08,0-0.16,0-0.24,0C43.558,60.772,44.631,61.366,44.335,60.59z"/>
<path fill-rule="evenodd" clip-rule="evenodd" fill="#C1BEBE" d="M45.295,57.709c0.565,0.005,0.707-0.414,1.44-0.24
	c0.152,0.896,0.378,1.374-0.48,1.68c0.035,0.524,0.604,0.516,1.2,0.48c-0.459,0.82-0.854,1.705-1.68,2.159
	c-0.898,0.028-1.261,1.444-2.16,0.721c-0.127-0.193-0.25-0.39-0.24-0.721c0.194-0.045,0.239-0.24,0.48-0.239c0.08,0,0.16,0,0.24,0
	c0.752-0.208,1.326-0.595,1.68-1.2c-0.046-0.194-0.241-0.239-0.24-0.48c-0.279-0.039-0.427,0.054-0.48,0.24
	c-0.284,0.116-0.544,0.256-0.72,0.48c-0.679-0.198-0.622,0.338-1.2,0.239c-0.478-0.614-0.642-1.376-0.24-2.159
	C43.331,58.763,44.277,58.158,45.295,57.709z"/>
<path fill-rule="evenodd" clip-rule="evenodd" fill="#C1BEBE" d="M47.455,57.95c0.279,0.039,0.427-0.053,0.48-0.24
	c0.295,0.105,0.493,0.307,0.48,0.72c0.194-0.046,0.239-0.241,0.48-0.24c-0.209,0.352-0.359,0.761-0.96,0.72
	c-0.031-0.43,0.293-0.506,0.24-0.959c-0.193,0.126-0.39,0.25-0.72,0.24C47.455,58.109,47.455,58.029,47.455,57.95z"/>
<path fill-rule="evenodd" clip-rule="evenodd" fill="#C1BEBE" d="M47.455,57.95c0.031-0.431-0.293-0.506-0.24-0.96
	c1.007-0.193,1.556-0.843,2.64-0.96c-0.171,0.869-0.837,1.243-0.96,2.16c-0.241-0.001-0.286,0.194-0.48,0.24
	c0.013-0.413-0.185-0.615-0.48-0.72C47.882,57.896,47.734,57.989,47.455,57.95z"/>
<path fill-rule="evenodd" clip-rule="evenodd" fill="#C1BEBE" d="M45.775,61.789c-0.235,0.514-1.855,1.835-2.16,0.721
	C44.514,63.233,44.877,61.817,45.775,61.789z"/>
<path fill-rule="evenodd" clip-rule="evenodd" fill="#C1BEBE" d="M44.095,61.55c0.101-0.859,1.395-0.525,1.44-1.44
	c-0.16,0-0.32,0-0.48,0c0.053-0.187,0.201-0.279,0.48-0.24c0,0.241,0.194,0.286,0.24,0.48C45.42,60.955,44.847,61.342,44.095,61.55z
	"/>
<path fill-rule="evenodd" clip-rule="evenodd" fill="#23211F" d="M32.095,16.669c-0.28-0.44-0.627-0.813-0.96-1.2
	c1.011-3.069,2.712-5.447,5.52-6.72c1.048-0.168,1.352,0.408,2.4,0.24c2.372-0.674,5.055-2.027,7.68-1.68
	c4.585-1.793,7.942,0.179,12.24,0.72c2.065,2.575,7.696,1.584,8.88,5.04c0.638,0.002,1.371-0.091,1.681,0.24
	c1.891,2.829,3.969,5.471,5.52,8.64c-0.218,0.615-0.389,1.361,0.24,1.68c1.924,6.911-2.856,13.214-5.28,18.72
	c3.254,5.083-0.295,12.432-6,12.96c-0.646-0.118-3.362-1.036-2.64-0.24c-1.89,6.231-0.782,15.807,1.439,20.88
	c1.896,1.176,3.6,2.089,5.28,3.84c0.847,0.883,1.248,2.341,2.16,3.12c1.886,1.612,5.025,2.301,7.44,3.601
	c2.463,1.326,4.664,2.719,6.96,4.08c1.135,0.331,1.577-0.752,2.159-0.24c2.438,2.069,3.626,5.981,4.561,9.6
	c1.089,4.218,1.906,9.046,1.92,13.44c-0.32,0-0.64,0-0.96,0c0.354-2.147-0.535-4.393-0.72-6.72c0.351-0.257-0.061-1.832-0.48-2.641
	c0.011-0.41-0.178-0.621-0.479-0.72c0.553-0.581-0.245-1.166-0.24-1.92c-0.016-1.185-0.705-1.695-0.72-2.88
	c0.31-0.404-0.498-1.732-0.721-2.4c0.044-0.204-0.094-0.227-0.239-0.24c-0.324-1.584-1.03-2.785-1.921-4.319
	c-0.239,0-0.479,0-0.72,0c-1.539,0.545-2.594-0.52-3.6-1.2c-0.918-1.002-2.502-1.338-3.601-2.16
	c-1.044-0.076-1.519-0.722-2.399-0.96c-0.08,0-0.16,0-0.24,0c-0.479-0.882-1.698-1.021-2.64-1.44
	c0.044-0.204-0.094-0.226-0.24-0.239c-0.959-0.321-1.644-0.917-2.641-1.2c-0.545,1.228,0.339,2.358,0.24,4.32
	c0,1.12,0,2.239,0,3.359c-0.002,0.638,0.091,1.371-0.24,1.681c0,0.08,0,0.159,0,0.239c-0.854,1.466-1.781,2.858-2.64,4.32
	c-0.224,0.176-0.363,0.437-0.479,0.72c0.771-0.147,0.328,0.864,0.96,0.24c1.07,1.188,3.384,1.236,2.64,3.6
	c-0.165,1.275-0.665,2.215-0.96,3.36c-0.121,0.309-0.254,0.496-0.48,1.2c-0.204-0.044-0.226,0.094-0.239,0.24
	c-0.093,0.787-0.702,1.058-0.96,1.68c-0.279,0.039-0.428-0.053-0.48-0.24c0.589-1.653,1.375-4.382,1.68-5.52c0-0.08,0-0.16,0-0.24
	c0.996-1.86-0.946-2.687-2.159-3.12c-0.16,0-0.32,0-0.48,0c-0.793-0.619-6.563-3.846-6-0.96c0.099,0.578-0.438,0.521-0.24,1.2
	c0.105,0.825-0.095,1.345-0.239,1.92c0,0.08,0,0.16,0,0.24c-0.276,0.283-0.272,0.848-0.24,1.439c0,0.08,0,0.16,0,0.24
	c-0.079,0.562-0.289,0.991-0.48,1.44c-0.528,1.008-0.638,2.161-1.2,3.6c-0.361,1.317-0.768,2.592-1.439,3.6c0,0.16,0,0.32,0,0.48
	c-0.4,0-0.8,0-1.2,0c2.09-3.998,3.428-9.611,3.601-13.92c0.554-0.727,0.084-2.476,0.239-3.601c0-0.079,0-0.159,0-0.239
	c-0.153-0.966,0.313-2.553-0.239-3.12c0.168-1.049-0.408-1.352-0.24-2.4c-0.192-1.168-0.801-1.92-1.68-2.399
	c0.067-0.388-0.227-0.414-0.24-0.721c-0.295,0.105-0.493,0.308-0.48,0.721c-0.299,2.328-2.007,5.306-1.2,7.199
	c0.154,0.967-0.312,2.553,0.24,3.12c0,1.44,0,2.88,0,4.32c0,0.479,0,0.96,0,1.44c-0.552,0.567-0.086,2.153-0.24,3.119
	c-0.426,1.34-0.535,4.844-1.44,6.48c-0.16,0-0.32,0-0.48,0c-0.307-1.932,0.841-3.001,0.48-4.56c0-0.08,0-0.16,0-0.24
	c0.469-1.796,0.756-4.662,0.48-5.28c0-0.08,0-0.16,0-0.24c0.398-0.729,0.398-3.111,0-3.84c0.041-1.646,0.355-1.874-0.24-3.36
	c0.353-0.587-0.1-2.028-0.24-2.88c-0.642,0.139-1.5-0.71-1.92,0c-0.488,0.071-0.639,0.481-0.96,0.721
	c-0.753,0.605-0.767,1.952-0.96,3.119c-0.249,0.632-0.287,1.474-0.24,2.4c-0.173,1.082,0.078,1.198-0.24,1.92
	c-0.276,0.284-0.271,0.849-0.24,1.44c0.33,0.547-0.619,0.902,0,0.96c-0.195,0.83,0.448,1.013,0,1.439
	c-0.399,0.967-0.399,3.594,0,4.561c0.023,1.612,0.146,2.048,0.24,3.84c-0.32,0-0.64,0-0.96,0c-0.588-0.319,0.264-0.894-0.24-0.96
	c0-1.28,0-2.561,0-3.84c-0.106-0.209,0.569-1.803-0.24-1.92c0-0.08,0-0.16,0-0.24c0.551-0.489,0.087-1.993,0.24-2.88
	c-0.046-0.194-0.241-0.239-0.24-0.48c0.552-0.567,0.086-2.153,0.24-3.12c0.842-3.85,2.324-7.431,0.72-11.279c0-0.641,0-1.28,0-1.92
	c-0.224,0.256-0.885,0.074-0.72,0.72c-2.227,4.009-1.395,9.238-1.92,16.08c0.157,1.283-0.315,3.195,0.24,4.08
	c0,0.16,0,0.319,0,0.479c-0.397,0.259-0.397,2.142,0,2.4c-0.162,1.201,0.222,1.857,0.24,2.88c-0.32,0-0.64,0-0.96,0
	c0.005-0.565-0.413-0.707-0.24-1.44c-0.143-0.497,0.296-1.576-0.24-1.68c0.254-0.977-0.067-1.137,0-2.4
	c-0.09-3.44-0.329-5.569,0-8.399c0-0.24,0-0.48,0-0.72c0.417-0.339-0.134-0.776,0-1.921c-0.976-0.016-1.159,0.762-2.16,0.721
	c-1.133,0.228-1.906,0.813-2.64,1.439c-0.435,0.605-1.485,0.596-1.92,1.2c-0.08,0-0.16,0-0.24,0s-0.16,0-0.24,0
	c-0.933,1.823,1.315,4.161,1.92,6c0.025,0.615,0.136,1.145,0.48,1.44c0.216,0.903,0.561,1.679,0.72,2.64c0.08,0,0.16,0,0.24,0
	c0,0.08,0,0.16,0,0.24c0.292,0.988,0.817,1.742,0.96,2.88c-0.4,0-0.8,0-1.2,0c-0.718-3.647-2.681-6.348-3.84-9.36
	c0.044-0.204-0.094-0.227-0.24-0.239c0.042-1.687-1.745-2.848-0.72-4.08c0.08,0,0.16,0,0.24,0c0.859-0.421,1.71-0.851,2.64-1.2
	c-0.785-1.455-1.555-2.925-2.64-4.08c-0.247-0.857-0.115-1.547,0-2.64c0.42-0.54,0.115-1.806,0.48-2.4
	c0.191-0.448,0.401-0.879,0.48-1.44c0.402-0.397,0.191-1.409,0.24-2.16c-0.951,0.111-1.944,0.5-2.88,1.2
	c-1.104,0.016-1.558,0.683-2.4,0.96c-1.072,0.528-2.144,1.057-3.12,1.681c-0.08,0-0.16,0-0.24,0c-0.506,0.213-0.709,0.73-1.44,0.72
	c-0.906,0.544-1.355,0.77-2.64,0.479c-0.346,0.135-0.586,0.375-0.72,0.721c0,0.08,0,0.16,0,0.24c-1.185,1.85-1.369,3.379-2.16,5.76
	c-0.782,3.573-1.313,4.892-1.44,9.12c-0.327,0.633-0.284,1.636-0.48,2.399c-0.197,1.291,0.102,2.53,0,4.32c-0.4,0-0.8,0-1.2,0
	c-0.292-4.507,0.848-9.343,1.68-13.2c0.963-4.465,1.485-8.835,4.32-10.32c0.565-0.005,0.707,0.414,1.44,0.24
	c3.942-1.978,7.719-4.121,12-5.76c1.318-3.643,5.476-4.444,8.4-6.48c0.224-0.176,0.364-0.436,0.48-0.72
	c-0.433-0.494-1.875,0.031-2.4,0.24c-8.537,1.616-9.697-3.359-12-7.92c-0.64-1.268-2.313-2.189-1.44-4.08
	c0.559-0.498,0.175-2.082-0.24-2.4c-0.278-3.562-1.983-5.697-2.4-9.12c-4.449-0.88-4.459-7.5,0.24-8.16c0-0.32,0-0.64,0-0.96
	c-0.149-1.67-0.96-5.218,0.24-7.2c0-0.64,0-1.28,0-1.92c0.494-0.824,0.263-2.976,0-3.84c-0.932-5.815,4.978-8.078,2.88-12.72
	C32.282,18.722,32.487,17.396,32.095,16.669z M36.895,62.27c0.083,0.619,2.099-0.175,1.2,0.72c-0.284,0.116-0.544,0.256-0.72,0.48
	c-0.378,0.021-0.188,0.612-0.72,0.479c-0.027-0.613-0.804-0.476-1.44-0.479c-0.053-0.188-0.201-0.279-0.48-0.24
	c-0.777-0.756,0.625-0.18,0.72-0.72c0.08,0,0.16,0,0.24,0c-0.158-0.883-0.466-1.614-0.48-2.641c-0.972-0.067-1.668-0.411-2.64-0.479
	c-0.678,1.041,0.324,2.146,0.48,3.12c0.08,0,0.16,0,0.24,0c0.024,0.269-0.349,0.373,0,0.479c-0.006,1.286,0.634,1.926,1.92,1.92
	c0.966,0.399,3.594,0.399,4.56,0c1.585,0.065,2.199-0.841,3.36-1.199c0.238-0.901-1.179-0.523-0.48-1.2
	c-0.046-0.656-1.555-0.369-0.72-1.2c0-0.4,0-0.8,0-1.2c-0.048-2.098-2.339-0.725-3.84-0.479c-0.309,0.33-1.042,0.237-1.68,0.239
	c-0.168,1.049,0.408,1.353,0.24,2.4C36.735,62.27,36.815,62.27,36.895,62.27z M50.095,8.029c-0.448-0.191-0.879-0.401-1.44-0.48
	C48.391,8.517,50.042,8.795,50.095,8.029z M58.495,9.469c0.946-0.066,0.733,1.026,1.68,0.96C60.121,9.648,58.805,8.516,58.495,9.469
	z M40.495,10.189c0.628,0.067,1.033-0.088,0.96-0.72c-0.33,0.011-0.527-0.113-0.72-0.24C40.659,9.554,40.393,9.688,40.495,10.189z
	 M38.335,10.429c-0.377-0.606-1.948-0.621-2.16,0.24C36.72,10.206,38.188,10.667,38.335,10.429z M63.295,11.149
	c-0.167-0.188-1.339-0.534-1.44,0C62.021,11.337,63.194,11.684,63.295,11.149z M33.295,12.35c0.423,0.217,0.396,0.883,0.96,0.96
	c-0.173-0.733,0.245-0.875,0.24-1.44C33.899,11.834,33.33,11.825,33.295,12.35z M55.375,20.27c-1.395,0.679-1.802-0.627-2.88-0.72
	c-2.576-0.221-4.412,2.849-6.96,3.84c-2.365,0.282-4.214-0.28-6.48,0.24c-1.405-0.595-2.956-1.044-4.56-1.44
	c-1.237,2.363-2.884,4.316-2.88,7.92c1.589,0.411,3.798,0.202,4.56,1.44c-1.03,0.57-2.701,0.499-4.32,0.48
	c-0.415,0.545-0.579,1.341-0.48,2.4c0.759,0.188,2.136-0.838,3.84-0.48c2.237,1.39,2.941,4.769,2.64,7.44
	c-0.696,6.165-7.418,2.881-10.08,6.48c-4.409,5.96,9.785,6.009,10.56,2.64c-0.339-0.94-1.555-1.005-2.4-1.44
	c5.508-0.629,3.433,3.677-0.96,4.56c-1.427,0.287-3.953-0.454-3.84,1.44c4.791-0.544,15.025,0.563,19.68-1.68
	c0.32-1.054-0.718-1.984,0-2.64c0.701,1.938,1.84,3.44,3.12,4.8c-0.779,0.139-1.117-0.163-1.68-0.24
	c-2.101,8.338-6.546,15.931-17.04,14.4c0.082,6.593,8.069,8.187,14.16,5.52c3.227-1.412,4.314-4.563,6.24-5.52
	c-1.178,2.901-3.587,4.572-5.52,6.72c1.324,9.45,8.632,0.505,10.561-3.12c-1.326-5.645-2.145-12.7-0.721-18.96
	c-0.419-0.443-1.794-0.726-1.2-1.44c6.206,3.28,11.215-0.38,11.521-6c0.318-5.855-5.101-4.524-8.88-2.64
	c-1.672-1.624-4.064-2.957-4.8-5.04c-2.11-5.975,2.017-11.829,3.84-16.56C58.998,21.606,56.832,21.292,55.375,20.27z M35.695,35.39
	c-0.819-1.148-3.444-0.814-3.84,0.48c-1.707,2.226-2.529,7.31-0.24,9.36c0.897,0.091,3.143-0.533,4.32-0.96
	C36.974,42.067,37.03,37.288,35.695,35.39z M34.015,56.029c0-0.08,0-0.16,0-0.24c-1.195-0.194-2.154-0.288-2.64,0.72
	c1.645,3.992,7.799,2.295,11.76,0.96c0.08,0,0.16,0,0.24,0c1.257-0.583,3.041-0.639,3.6-1.92c-1.893,0.146-2.943,0.052-4.8,0.48
	C39.311,55.834,36.796,55.68,34.015,56.029z M48.895,58.189c0.123-0.917,0.789-1.291,0.96-2.16c-1.084,0.117-1.633,0.767-2.64,0.96
	c-0.054,0.454,0.271,0.53,0.24,0.96c0,0.08,0,0.16,0,0.24c0.331,0.011,0.527-0.113,0.72-0.24c0.054,0.454-0.271,0.53-0.24,0.959
	C48.536,58.95,48.686,58.541,48.895,58.189z M45.775,61.789c0.825-0.454,1.22-1.339,1.68-2.159c-0.595,0.035-1.165,0.044-1.2-0.48
	c0.858-0.306,0.632-0.783,0.48-1.68c-0.733-0.174-0.875,0.245-1.44,0.24c-0.305-0.132-2.025,0.366-2.4,0.96
	c-0.402,0.783-0.238,1.545,0.24,2.159c0.578,0.099,0.521-0.438,1.2-0.239c0.296,0.776-0.777,0.183-0.48,0.96
	c-0.241-0.001-0.286,0.194-0.48,0.239c-0.011,0.331,0.113,0.527,0.24,0.721C43.919,63.624,45.54,62.303,45.775,61.789z
	 M48.415,60.109c0,0.08,0,0.16,0,0.24c-2.662,3.525-7.735,6.174-12.72,5.28c-0.08,0-0.16,0-0.24,0
	c-0.763-0.037-1.056-0.545-1.92-0.48c-0.075,0.324-0.341,0.458-0.24,0.96c-0.018,0.418,0.053,0.746,0.24,0.96
	c1.061,2.621,4,2.622,6.24,1.92c0.744,0.024,1.146-0.293,1.68-0.479c2.387-1.054,4.572-2.309,5.76-4.561
	c-0.001-0.24,0.194-0.285,0.24-0.479c1.011-1.149,1.802-2.519,2.16-4.32C48.911,59.166,48.724,59.698,48.415,60.109z M61.615,75.949
	c0.035-0.596-0.124-0.996-0.48-1.199c-0.272,0.527-0.803,0.797-0.96,1.439c-0.411,0.309-0.943,0.496-0.96,1.2
	c-1.012,0.988-2.173,1.826-2.88,3.12c-0.751,0.529-1.808,0.752-2.16,1.68c1.323,1.638,2.988,2.933,4.32,4.561
	c0.149,0.73,0.533,1.227,1.439,1.199c-0.01-0.33,0.113-0.526,0.24-0.72C62.611,85.149,63.026,80.178,61.615,75.949z M65.935,79.789
	c-0.211-0.854-2.64-2.701-2.64-1.439c-0.198,0.679,0.338,0.622,0.24,1.2c-0.675,0.459,0.329,1.251,0.239,1.92
	c0,0.16,0,0.319,0,0.479c0.33,3.12-4.248,5.485-2.88,8.88c-0.111,1.941,0.067,3.012,0.48,4.801c-0.788,1.085,1.175,1.125,1.92,1.439
	c0.04,0.28,0.379,0.261,0.72,0.24c0.89,0.311,1.643,0.758,2.641,0.96c1.266-2.094,3.187-3.533,3.119-6.96c0-0.08,0-0.16,0-0.24
	c-0.154-5.294-0.075-8.821-3.6-11.28C66.095,79.789,66.015,79.789,65.935,79.789z M50.335,83.63c0.453-0.587,0.917-1.163,1.2-1.92
	c-1.242-0.838-1.627-2.533-2.64-3.601c-0.437,1.909-1.316,4.569-1.2,6.24c-0.48,0.342-0.362,3.38,0.24,2.64
	c0.322-0.157,0.447-0.513,0.48-0.96C49.308,85.482,49.612,84.347,50.335,83.63z M46.975,80.27c0.013-0.307,0.308-0.332,0.24-0.72
	c-1.078,0.122-1.772,0.628-2.4,1.2c-1.321,0.278-2.244,0.955-3.12,1.68c-2.02,2.887-2.262,5.761-2.88,9.36
	c0.01,0.33-0.113,0.526-0.24,0.72c-0.065,0.944,0.092,1.667,0.72,1.92c0,0.08,0,0.16,0,0.24c0.7,0.9,1.448,1.752,1.92,2.88
	c0.42-0.22,1.197-0.083,1.44-0.48c1.225-0.215,1.858-1.021,3.12-1.2c0.898-0.701,0.431-2.769,0.96-3.84c0-0.72,0-1.439,0-2.16
	c0.042-1.321-0.73-1.829-0.48-3.359c0-0.08,0-0.16,0-0.24c0.027-1.332,0.511-2.209,0.48-3.6c0-0.08,0-0.16,0-0.24
	c-0.17-0.891,0.41-1.03,0.24-1.92C46.975,80.43,46.975,80.35,46.975,80.27z M55.855,86.75c0.676-2.279-2.045-3.233-3.36-4.32
	c-0.754,0.846-1.802,1.397-1.92,2.88c0.146,0.574-0.301,1.741,0.24,1.92c0,0.08,0,0.16,0,0.24c-0.11-0.028-0.133,1.877,0.24,2.16
	c0.202,0.278,0.317,0.644,0.24,1.199c-0.198,0.679,0.338,0.622,0.24,1.2c1.476-0.122,2.368,0.244,3.36,0c0-0.239,0-0.479,0-0.72
	c0.093-0.867,0.318-1.602,0.72-2.16C56.015,88.214,56.097,87.259,55.855,86.75z"/>
<path fill-rule="evenodd" clip-rule="evenodd" fill="#23211F" d="M42.655,62.51c-0.309-0.331-1.042-0.238-1.68-0.24
	c-0.165-0.805,0.403-0.877,0.96-0.96C41.1,62.141,42.609,61.854,42.655,62.51z"/>
<path fill-rule="evenodd" clip-rule="evenodd" fill="#23211F" d="M41.935,60.109c-0.271-1.582-2.447-0.675-3.6,0
	c-0.187-0.053-0.279-0.201-0.24-0.479C39.595,59.385,41.886,58.012,41.935,60.109z"/>
<path fill-rule="evenodd" clip-rule="evenodd" fill="#843C25" d="M48.415,60.35c-2.542,3.771-7.545,6.837-12.72,5.28
	C40.68,66.523,45.753,63.875,48.415,60.35z"/>
<path fill-rule="evenodd" clip-rule="evenodd" fill="#843C25" d="M35.455,65.63c-0.085,0.447-1.223-0.029-1.44-0.24
	c-0.553-0.073-0.267,0.693-0.72,0.72c-0.102-0.502,0.165-0.636,0.24-0.96C34.399,65.085,34.691,65.593,35.455,65.63z"/>
<path fill-rule="evenodd" clip-rule="evenodd" fill="#23211F" d="M33.535,67.069c0.779,2.392,4.936,1.899,6.24,1.92
	C37.535,69.691,34.595,69.69,33.535,67.069z"/>
<path fill-rule="evenodd" clip-rule="evenodd" fill="#843C25" d="M41.455,68.51c2.123-1.318,4.216-2.665,5.76-4.561
	C46.026,66.201,43.841,67.456,41.455,68.51z"/>
<path fill-rule="evenodd" clip-rule="evenodd" fill="#843C25" d="M48.415,60.109c0.309-0.411,0.496-0.943,1.2-0.96
	c-0.358,1.802-1.149,3.171-2.16,4.32C47.57,62.359,49.918,60.549,48.415,60.109z"/>
<path fill-rule="evenodd" clip-rule="evenodd" fill="#23211F" d="M33.295,62.51c0.193-0.127,0.39-0.251,0.72-0.24
	c-0.059,0.261-0.477,0.163-0.48,0.479c0.457,0.104,0.603,0.518,1.2,0.48c0.279-0.039,0.427,0.053,0.48,0.24
	c-0.879,0.079-1.333-0.267-1.92-0.48C32.946,62.883,33.319,62.778,33.295,62.51z"/>
<path fill-rule="evenodd" clip-rule="evenodd" fill="#C1BEBE" d="M36.895,62.27c0.56,0,1.12,0,1.68,0
	c0.082,0.481-0.049,0.751-0.48,0.72C38.994,62.095,36.978,62.889,36.895,62.27z"/>
<path fill-rule="evenodd" clip-rule="evenodd" fill="#C1BEBE" d="M35.215,63.47c0.636,0.004,1.413-0.134,1.44,0.479
	c0.013,0.307,0.308,0.333,0.24,0.721c0,0.079,0,0.159,0,0.239c-0.56,0-1.12,0-1.68,0c-1.286,0.006-1.926-0.634-1.92-1.92
	C33.881,63.203,34.335,63.549,35.215,63.47z"/>
<path fill-rule="evenodd" clip-rule="evenodd" fill="#C1BEBE" d="M60.175,76.189c0.157-0.643,0.688-0.912,0.96-1.439
	c0.356,0.203,0.516,0.604,0.48,1.199C61.183,74.672,60.752,75.706,60.175,76.189z"/>
<path fill-rule="evenodd" clip-rule="evenodd" fill="#C1BEBE" d="M56.335,80.51c0.707-1.294,1.868-2.132,2.88-3.12
	c-0.712,1.208-1.872,1.969-2.64,3.12C56.495,80.51,56.415,80.51,56.335,80.51z"/>
<path fill-rule="evenodd" clip-rule="evenodd" fill="#C1BEBE" d="M60.175,87.229c-0.127,0.193-0.25,0.39-0.24,0.72
	c-0.906,0.027-1.29-0.469-1.439-1.199c0.351,0.208,0.761,0.358,0.72,0.96C59.87,87.885,59.698,87.232,60.175,87.229z"/>
<path fill-rule="evenodd" clip-rule="evenodd" fill="#4C5B76" d="M60.895,90.829c-1.368-3.395,3.21-5.76,2.88-8.88
	c1.419,1.808-2.385,3.387-1.199,5.761c-0.932-0.861-0.743,0.853-1.681,0.72C60.895,89.229,60.895,90.029,60.895,90.829z"/>
<path fill-rule="evenodd" clip-rule="evenodd" fill="#4C5B76" d="M63.295,78.35c0-1.262,2.429,0.585,2.64,1.439
	C65.11,79.341,64.235,77.909,63.295,78.35z"/>
<path fill-rule="evenodd" clip-rule="evenodd" fill="#4C5B76" d="M66.175,79.789c3.524,2.459,3.445,5.986,3.6,11.28
	c-0.792-0.385,0.034-0.896-0.479-1.439c-0.431-0.031-0.562,0.238-0.48,0.72c-0.563-0.316-1.184-0.575-1.199-1.44
	c0.565-0.005,0.706,0.414,1.439,0.24c0.763-2.957-0.455-7.781-2.88-9.12C66.175,79.949,66.175,79.869,66.175,79.789z"/>
<path fill-rule="evenodd" clip-rule="evenodd" fill="#516381" d="M63.295,78.35c0.94-0.44,1.815,0.991,2.64,1.439
	c0.08,0,0.16,0,0.24,0c0,0.08,0,0.16,0,0.24c2.425,1.339,3.643,6.163,2.88,9.12c-0.733,0.174-0.874-0.245-1.439-0.24
	c0.016,0.865,0.636,1.124,1.199,1.44c-0.081-0.481,0.05-0.751,0.48-0.72c0.514,0.543-0.313,1.055,0.479,1.439c0,0.08,0,0.16,0,0.24
	c-0.681,0.679-0.474,2.245-0.96,3.12c-0.702-0.302-1.435,0.157-2.64,0c-0.348,0.292-0.321,0.958-0.96,0.96
	c-0.117,0.758,0.433,0.848,0.24,1.68c-0.373,0.688-1.12-0.5-1.44,0.24c-0.341,0.021-0.68,0.04-0.72-0.24
	c-0.434-0.366-0.735-0.864-1.68-0.72c-0.531-0.346,0.302-0.586-0.24-0.72c-0.413-1.789-0.592-2.859-0.48-4.801c0-0.8,0-1.6,0-2.399
	c0.938,0.133,0.749-1.581,1.681-0.72c-1.186-2.374,2.618-3.953,1.199-5.761c0-0.16,0-0.319,0-0.479c0.08,0,0.16,0,0.24,0
	c-0.158-0.642-0.101-1.5-0.479-1.92C63.633,78.972,63.097,79.028,63.295,78.35z M67.135,89.869c-0.31,0.66-1.67,1.519-0.96,2.4
	c0.572-0.626,1.051-1.807,2.16-1.2C68.39,90.215,67.989,89.814,67.135,89.869z M66.655,88.909c-1.159-0.49-0.103-2.254-0.96-2.64
	c-0.121,0.691-1.281,1.584-0.961,1.92c0.158-0.322,0.514-0.447,0.961-0.479C65.059,88.441,66.339,89.279,66.655,88.909z
	 M64.255,94.43c0.432-0.428-0.278-0.94-0.48-1.44C63.92,93.484,63.388,94.657,64.255,94.43z"/>
<path fill-rule="evenodd" clip-rule="evenodd" fill="#4C5B76" d="M64.015,97.31c0.32-0.74,1.067,0.447,1.44-0.24
	c0.192-0.832-0.357-0.922-0.24-1.68c0.639-0.002,0.612-0.668,0.96-0.96c1.205,0.157,1.938-0.302,2.64,0
	c0.486-0.875,0.279-2.441,0.96-3.12c0.067,3.427-1.854,4.866-3.119,6.96C65.657,98.067,64.904,97.62,64.015,97.31z M66.415,95.39
	c1.188,0.924-0.948,1.391-0.24,2.4c0.887-0.662,2.929-2.36,1.92-3.36C67.996,95.211,66.953,95.048,66.415,95.39z"/>
<path fill-rule="evenodd" clip-rule="evenodd" fill="#4C5B76" d="M61.375,95.63c0.542,0.134-0.291,0.374,0.24,0.72
	c0.944-0.145,1.246,0.354,1.68,0.72C62.55,96.755,60.587,96.715,61.375,95.63z"/>
<path fill-rule="evenodd" clip-rule="evenodd" fill="#C1BEBE" d="M48.415,86.029c0.529-0.911,1.052-1.828,1.92-2.399
	C49.612,84.347,49.308,85.482,48.415,86.029z"/>
<path fill-rule="evenodd" clip-rule="evenodd" fill="#4C5B76" d="M39.295,94.67c1.348-0.092,1.397,1.652,2.64,0.96
	c0.054,0.186,0.007,0.473,0.24,0.479c-0.217,0.809-0.537,0.028-0.96,0.48c0.093,1.083,1.131-0.268,1.44,0.479
	c-0.243,0.397-1.02,0.261-1.44,0.48C40.743,96.422,39.995,95.57,39.295,94.67z"/>
<path fill-rule="evenodd" clip-rule="evenodd" fill="#4C5B76" d="M38.815,91.79c0.618-3.6,0.86-6.474,2.88-9.36
	c-1.405,2.738-1.799,6.717-2.64,9.36C38.975,91.79,38.895,91.79,38.815,91.79z"/>
<path fill-rule="evenodd" clip-rule="evenodd" fill="#B57A27" d="M55.615,89.149c0.15-0.729-0.307-2.067,0.24-2.399
	C56.097,87.259,56.015,88.214,55.615,89.149z"/>
<path fill-rule="evenodd" clip-rule="evenodd" fill="#B57A27" d="M50.575,85.31c0.118-1.482,1.166-2.034,1.92-2.88
	c1.315,1.087,4.036,2.041,3.36,4.32c-0.269-0.757-0.022-0.544,0-1.44c-1.37-0.55-1.921-1.919-3.36-2.4
	c-0.663,0.697-1.515,1.205-1.68,2.4C50.735,85.31,50.655,85.31,50.575,85.31z"/>
<path fill-rule="evenodd" clip-rule="evenodd" fill="#B57A27" d="M50.575,85.31c0.08,0,0.16,0,0.24,0
	c-0.044,0.204,0.093,0.227,0.24,0.24c-0.095,1.055,0.295,1.625,1.2,1.68c0.16,0,0.32,0,0.48,0c-0.512,0.954-1.594-0.769-1.92,0
	C50.273,87.051,50.721,85.884,50.575,85.31z"/>
<path fill-rule="evenodd" clip-rule="evenodd" fill="#4C5B76" d="M70.975,88.67c0.099-1.962-0.785-3.093-0.24-4.32
	c0.997,0.283,1.682,0.879,2.641,1.2c-0.447,0.432-1.44-0.628-2.16-0.721C70.139,85.253,71.875,87.685,70.975,88.67z"/>
<path fill-rule="evenodd" clip-rule="evenodd" fill="#B57A27" d="M51.055,85.55c0.399-0.401,0.628-0.972,1.44-0.96
	c0.213,0.876-0.424,1.278,0,1.68c-1.006,0.088-0.171-0.782-0.24-1.2c-0.601-0.04-0.751,0.369-0.96,0.72
	c0.135,0.585,0.206,1.235,0.96,1.2c0,0.08,0,0.16,0,0.24C51.35,87.175,50.96,86.604,51.055,85.55z"/>
<path fill-rule="evenodd" clip-rule="evenodd" fill="#4C5B76" d="M73.615,85.789c0.941,0.419,2.161,0.559,2.64,1.44
	C75.378,86.746,74.157,86.606,73.615,85.789z"/>
<path fill-rule="evenodd" clip-rule="evenodd" fill="#4C5B76" d="M80.575,89.39c0.644,0.315,1.275,0.645,1.92,0.96
	c1.006,0.681,2.061,1.745,3.6,1.2C84.07,92.851,81.989,90.275,80.575,89.39z"/>
<path fill-rule="evenodd" clip-rule="evenodd" fill="#4C5B76" d="M88.735,95.869c0.146,0.014,0.283,0.036,0.239,0.24
	c-0.221,1.102,0.601,1.16,0.48,2.16C89.075,97.609,88.63,97.015,88.735,95.869z"/>
<path fill-rule="evenodd" clip-rule="evenodd" fill="#4C5B76" d="M89.695,98.51c0.015,1.185,0.704,1.695,0.72,2.88
	C89.931,100.826,89.261,99.194,89.695,98.51z"/>
<path fill-rule="evenodd" clip-rule="evenodd" fill="#4C5B76" d="M90.655,103.31c0.302,0.099,0.49,0.31,0.479,0.72
	c-0.312,0.968,0.688,1.852,0.24,2.16C90.849,105.473,90.807,104.808,90.655,103.31z"/>
<path fill-rule="evenodd" clip-rule="evenodd" fill="#516381" d="M70.975,88.67c0.9-0.985-0.836-3.417,0.24-3.841
	c0.72,0.093,1.713,1.152,2.16,0.721c0.146,0.014,0.284,0.035,0.24,0.239c0.542,0.817,1.763,0.957,2.64,1.44c0.08,0,0.16,0,0.24,0
	c0,0.08,0,0.16,0,0.24c1.147,0.771,2.406,1.434,3.84,1.92c0.08,0,0.16,0,0.24,0c1.414,0.886,3.495,3.461,5.52,2.16
	c0.24,0,0.48,0,0.72,0c0.891,1.534,1.597,2.735,1.921,4.319c-0.105,1.146,0.34,1.74,0.72,2.4c0.146,0.014,0.284,0.036,0.24,0.24
	c-0.435,0.685,0.235,2.316,0.72,2.88c-0.005,0.754,0.793,1.339,0.24,1.92c0.151,1.498,0.193,2.163,0.72,2.88
	c-0.001,0.241,0.194,0.286,0.24,0.48c0.185,2.327,1.074,4.572,0.72,6.72c-0.24,0-0.48,0-0.72,0c-0.346-0.311-0.228-2.312-0.721-1.68
	c-0.844-0.411,0.603-0.483,0.48-0.96c0.077-1.037-1.186-0.735-1.2-1.681c0.755,0.275,0.583-0.377,0.96-0.479
	c-0.469-2.571-1.658-4.422-2.399-6.721c-0.139-0.581-0.907-0.533-1.44-0.72c-0.403,1.363,1.381,0.539,1.2,1.68
	c-0.722,0.318-0.838,0.067-1.92,0.24c-0.176-0.955-0.176-0.965,0-1.92c-1.646,0.146-0.228,2.309-1.92,1.44
	c-0.027,0.954,1.121,0.565,1.199,0.72c0.815,0.601-0.657,0.923-0.239,1.92c-0.4,0-0.801,0-1.2,0c0.357-3.051-0.467-3.624-0.24-5.52
	c-0.419,0.221-0.529,0.75-0.479,1.439c-0.592-0.031-1.157-0.036-1.44,0.24c0.157,1.097-0.142,2.728-0.24,4.08
	c-0.75,0.109-0.767-0.513-0.72-1.2c-0.218-0.622-0.121-0.893,0-1.68c0.08,0,0.16,0,0.24,0c0.395-0.716,0.475-1.554,0.239-1.92
	c-0.01-1.254,0.418-1.533,0.721-2.88c0.661-1.217,1.934-2.975,1.2-4.801c-1.511,0.333-1.971,2.986-2.16,3.84c0,0.08,0,0.16,0,0.24
	c-0.655,0.632-1.019,2.814-0.96,3.36c0.063,0.864-0.443,1.156-0.48,1.92c-0.08,0-0.16,0-0.24,0c0.261,0.614-0.729,1.145,0,1.44
	c0.123,1.002-0.134,1.626-0.479,2.159c-0.555,0.493-0.166,2.073,0,2.641c0,0.08,0,0.16,0,0.24c-0.326,0.074-0.199,0.601-0.24,0.96
	c-0.578,0.098-0.521-0.438-1.2-0.24c-0.419-1.021-0.179-2.701-0.239-4.08c0.49-0.229,0.949-0.49,1.439-0.72c0-0.561,0-1.12,0-1.681
	c-0.356,0.284-1.072,0.208-0.96,0.96c-0.541-0.179-0.094-1.346-0.24-1.92c-0.722-0.241-0.425,0.535-0.479,0.96
	c-1.324,0.398-1.847-0.858-1.44-1.439c0.739-0.179,0.462,0.658,1.2,0.479c0.979-0.508,0.21-1.27,0.72-2.16
	c0.646-0.165,0.464,0.496,0.721,0.721c0.524-0.036,0.515-0.605,0.479-1.2c-0.78-0.215-1.599-0.071-1.439-1.68
	c-1.041,0.023-0.808,1.607,0,1.68c-1.087,0.594-1.711,1.649-3.12,1.92c0.123-1.51,0.063-2.771-1.2-3.84
	c-1.233-0.035-1.692,1.165-2.88,0.479c0.536-1.69-0.548-1.511-0.24-2.64c0.465,0.654,0.79,1.45,1.92,1.439
	c0-0.467-1.83-1.967-1.44-2.88c0-0.08,0-0.159,0-0.239c0.984,0.28,0.965-1.669,0.24-1.681C70.975,90.909,70.975,89.79,70.975,88.67z
	 M78.895,94.43c0.634,0.073,0.619-0.501,0.721-0.96c-0.24,0-0.48,0-0.721,0C78.895,93.79,78.895,94.109,78.895,94.43z M74.814,97.55
	c0.35-0.42-0.229-1.367-0.96-1.44C73.751,97.014,74.362,97.202,74.814,97.55z M84.415,97.069c0.067-0.627-0.088-1.032-0.72-0.96
	C83.627,96.737,83.782,97.142,84.415,97.069z M83.215,98.75c0.543,0.546,1.056-0.163,1.44-0.48
	C84.003,98.674,83.531,97.889,83.215,98.75z M87.775,100.909c0.06-1.505-0.803-1.563,0.239-2.399c-0.315-0.309-0.885-0.309-1.2,0
	C87.4,99.522,87.117,100.332,87.775,100.909z M84.895,99.229c-0.451,0.428-0.532,0.94,0,1.44c0.048-0.531,1.691-0.684,0.96-1.2
	C85.646,100.179,85.495,98.913,84.895,99.229z M78.175,101.39c-0.072,0.632,0.332,0.787,0.96,0.72
	c0.067-0.628-0.088-1.032-0.72-0.96C78.401,101.296,78.379,101.434,78.175,101.39z"/>
<path fill-rule="evenodd" clip-rule="evenodd" fill="#4C5B76" d="M81.295,104.27c-0.047,0.688-0.03,1.31,0.72,1.2
	c0.099-1.353,0.397-2.983,0.24-4.08c0.283-0.276,0.849-0.271,1.44-0.24c-0.05-0.689,0.061-1.219,0.479-1.439
	c-0.227,1.896,0.598,2.469,0.24,5.52c0.399,0,0.8,0,1.2,0c-0.418-0.997,1.055-1.319,0.239-1.92c-0.078-0.154-1.227,0.234-1.199-0.72
	c1.692,0.868,0.274-1.294,1.92-1.44c-0.176,0.955-0.176,0.965,0,1.92c1.082-0.173,1.198,0.078,1.92-0.24
	c0.181-1.141-1.604-0.316-1.2-1.68c0.533,0.187,1.302,0.139,1.44,0.72c0.741,2.299,1.931,4.149,2.399,6.721
	c-0.377,0.103-0.205,0.755-0.96,0.479c0.015,0.945,1.277,0.644,1.2,1.681c0.122,0.477-1.324,0.549-0.48,0.96
	c0.493-0.632,0.375,1.369,0.721,1.68c-0.16,0-0.32,0-0.48,0c-0.772-0.428-0.311-2.09-1.68-1.92c1.106-1.213-0.571-2.864-1.44-3.601
	c-0.161,0.301-0.375,1.601-0.479,2.641c0.744,0.024,0.685-0.755,1.68-0.48c0,0.32,0,0.641,0,0.96
	c-0.284,0.306-0.906,0.102-1.2-0.239c-0.346,0.054-0.083,0.716-0.479,0.72c-0.116,0.756,1.1,0.18,1.2,0.72
	c-0.103,0.646-1.797,0.211-2.16,1.2c-0.4,0-0.8,0-1.2,0c-0.099-0.578,0.438-0.521,0.24-1.2c-0.135-0.542-0.375,0.291-0.721-0.24
	c0.022-0.896,0.27-0.684,0-1.439c0.498-0.142,0.818-0.462,0.96-0.96c-0.201-0.998-0.841-1.559-1.199-2.4
	c0.644-0.159,1.275-1.054,1.92-0.479c0.024,0.744-0.755,0.685-0.48,1.68c1.255-0.315,0.821-1.407,0.48-2.4
	c-1.2-0.741-3.726,0.908-2.16,2.641c-0.035,0.524-0.604,0.515-1.2,0.479c-0.02,0.38,0.115,0.916-0.24,0.96
	c0.22,0.653,0.446-0.639,1.2-0.239c-0.03,0.43,0.294,0.506,0.24,0.96c-0.502-0.102-0.636,0.164-0.96,0.239
	c0.226,0.654,1.304,0.456,0.96,1.681c-0.734-0.146-0.61-1.15-1.2-1.44c-0.545,0.256-0.091,1.509-0.24,2.16c-0.239,0-0.479,0-0.72,0
	c-0.219-0.547-0.918-3.098,0-2.88c-0.193-1.566-0.59-2.931-0.72-4.561c-0.106-0.349-0.211,0.024-0.48,0
	C81.197,105.452,80.758,104.373,81.295,104.27z M83.455,104.989c-0.431-1.145,0.491-2.194-0.48-2.64
	C82.644,102.916,82.711,104.742,83.455,104.989z M86.575,105.71c0.22-0.74,0.454-1.466,0.96-1.92c-0.578,0.098-0.521-0.438-1.2-0.24
	C87.027,104.623,85.511,105.176,86.575,105.71z M88.255,104.75c0.071,0.631-0.931,0.188-0.72,0.96c0.843,0.373,0.054,0.89,0.24,1.92
	c1.055,0.095,0.626-1.294,1.439-1.44c0.489,0.07,0.471,0.649,0.96,0.72c-0.104-1.125-0.533-1.393-0.479-2.159
	c-0.945-0.385-0.084,1.036-0.721,0.96c-0.813,0.234-0.182-2.192-0.96-1.2C88.161,104.523,88.299,104.546,88.255,104.75z
	 M89.215,107.39c-0.239,1.374,1.663,0.107,0.96-0.24C90.13,107.505,89.595,107.369,89.215,107.39z M86.575,112.43
	c0.053-0.188,0.2-0.279,0.479-0.24c0.099-0.578-0.438-0.521-0.24-1.2c-0.358,0.041-0.886-0.085-0.96,0.24
	C86.943,111.419,86.147,112.101,86.575,112.43z"/>
<path fill-rule="evenodd" clip-rule="evenodd" fill="#4C5B76" d="M82.495,97.79c0.219-1.386,1.468-3.007,0.96-4.32
	c-1.014,0.746-1.189,2.331-1.92,3.359c0.189-0.854,0.649-3.507,2.16-3.84C84.429,94.815,83.156,96.573,82.495,97.79z"/>
<path fill-rule="evenodd" clip-rule="evenodd" fill="#4C5B76" d="M81.535,97.069c-0.496,0.944-0.311,2.569-0.96,3.36
	C80.517,99.884,80.88,97.701,81.535,97.069z"/>
<path fill-rule="evenodd" clip-rule="evenodd" fill="#23211F" d="M52.495,86.27c0.16,0,0.32,0,0.48,0
	c-0.186,0.214-0.258,0.542-0.24,0.96c-0.16,0-0.32,0-0.48,0c0-0.08,0-0.16,0-0.24c-0.754,0.035-0.825-0.615-0.96-1.2
	c0.208-0.351,0.359-0.76,0.96-0.72C52.324,85.487,51.488,86.357,52.495,86.27z"/>
<path fill-rule="evenodd" clip-rule="evenodd" fill="#B57A27" d="M52.975,86.27c0.702-0.179,0.465-1.296,1.44-1.2
	c0.502,0.586,0.343,0.512,0.24,1.44c-1.237-0.357-1.188,0.572-1.92,0.72C52.717,86.812,52.789,86.483,52.975,86.27z"/>
<path fill-rule="evenodd" clip-rule="evenodd" fill="#4C5B76" d="M35.695,86.989c0.936-0.7,1.929-1.089,2.88-1.2
	c-0.049,0.751,0.162,1.763-0.24,2.16c-0.584-0.196,0.476-1.265-0.24-1.68c-0.986,0.054-1.572,0.508-2.16,0.96
	C35.73,87.273,35.708,87.136,35.695,86.989z"/>
<path fill-rule="evenodd" clip-rule="evenodd" fill="#4C5B76" d="M37.375,94.43c1.084,1.155,1.854,2.625,2.64,4.08
	c-0.93,0.35-1.78,0.779-2.64,1.2c0.177-0.943,1.097-1.144,2.16-1.2c0.037-0.598-0.377-0.743-0.48-1.2
	c-1.626,0.054-1.279,2.081-3.12,1.92c-0.142-0.642,1.289-1.659,0-1.92c0.221-0.579,0.622-0.979,1.2-1.2c0,0.561,0,1.12,0,1.681
	c0.35-0.29,0.231-1.05,1.2-0.721C38.543,95.661,37.436,95.568,37.375,94.43z"/>
<path fill-rule="evenodd" clip-rule="evenodd" fill="#516381" d="M35.695,86.989c0.014,0.146,0.036,0.284,0.24,0.24
	c0.588-0.452,1.174-0.906,2.16-0.96c0.716,0.415-0.344,1.483,0.24,1.68c-0.079,0.562-0.289,0.992-0.48,1.44c-0.08,0-0.16,0-0.24,0
	c-0.118,0.615-0.799,1.902-0.24,2.4c-0.115,1.093-0.247,1.782,0,2.64c0.061,1.139,1.168,1.231,0.96,2.64
	c-0.969-0.329-0.85,0.431-1.2,0.721c0-0.561,0-1.12,0-1.681c-0.579,0.222-0.979,0.621-1.2,1.2c1.289,0.261-0.142,1.278,0,1.92
	c1.841,0.161,1.494-1.866,3.12-1.92c0.103,0.457,0.517,0.603,0.48,1.2c-1.063,0.057-1.982,0.257-2.16,1.2c-0.08,0-0.16,0-0.24,0
	c-0.216-0.649-0.579,0.506-0.72,0.72c-0.821,0.102-0.722-0.719-1.2-0.96c-0.651,0.549-0.809,1.591-1.44,2.16
	c-0.324-0.236-0.48-0.641-0.72-0.96c-0.781,0.849-2.589,0.422-2.16,2.159c-0.472-0.505-1.15-2.351,0-2.88
	c-0.176-0.224-0.437-0.363-0.72-0.479c-0.546,0.494-0.501,1.579-1.2,1.92c0.365,1.234,1.559,1.641,2.16,2.64
	c1.371-0.301,0.539-1.638,0.72-2.16c0.454,0.477,1.134,0.117,1.68,0c-0.289,1.312-0.962,2.238-1.2,3.601
	c-0.657-0.4,0.412-1.155-0.48-1.44c-1.287,1.004-0.634,3.033-0.96,4.561c-1.306-0.708,0.279-3.16-0.48-4.08
	c-1.921,1.084-1.142,3.479-1.68,5.04c-0.041,0.521,0.851,0.108,1.2,0.24c-0.38,0.678-0.651,2.952,0.96,2.399c0,0.4,0,0.8,0,1.2
	c-1.36,0-2.72,0-4.08,0c-0.332-1.15,0.426-3.853-0.48-4.56c-0.102-0.502,0.165-0.636,0.24-0.961c0.303-1.221,0.39-3.924,0.24-4.8
	c0-0.08,0-0.16,0-0.24c0.045-0.194,0.241-0.238,0.24-0.479c1.066,0.935-0.719,5.438,0.96,5.76c0.625-0.642,0.048-2.116,0-2.88
	c0.607,0.476,2.188-0.799,1.68-1.439c-0.346,0.054-0.083,0.716-0.48,0.72c-1.899-0.686-1.136-3.729-0.24-4.32
	c-0.203-0.565-1.237,0.015-1.44,0.24c-0.519-0.485,0.218-1.495-0.48-2.16c0-0.24,0-0.479,0-0.72c0.601-0.29,1.017-2.01,0.48-2.641
	c0-0.239,0-0.479,0-0.72c0.08,0,0.16,0,0.24,0c0.047-0.688,0.03-1.31-0.72-1.2c-0.627,0.253-0.785,0.976-0.72,1.92
	c-0.533,4.972-0.99,6.803-0.96,10.561c-0.638,1.646-0.728,4.741,0,6.24c-0.213,0.876,0.424,1.278,0,1.68c-1.44,0-2.88,0-4.32,0
	c0.102-1.79-0.197-3.029,0-4.32c0.688-0.124,0.837-2.026,0.48-2.399c0.127-4.229,0.658-5.547,1.44-9.12
	c0.922-1.719,1.663-3.618,2.16-5.76c0-0.08,0-0.16,0-0.24c1.96-0.169,3.824-0.279,4.8-1.92c0.08,0,0.16,0,0.24,0
	c1.428-0.173,2.308-0.893,3.12-1.681C34.137,87.672,34.59,87.005,35.695,86.989z M35.215,95.869c0.24,0,0.48,0,0.72,0
	c0.067-0.547-0.058-0.901-0.48-0.96C35.379,95.234,35.113,95.368,35.215,95.869z M31.855,99.949c-0.561-1.006-0.184-0.741,0-1.92
	c-0.343-0.058-0.405-0.395-0.72-0.479C30.554,98.365,31.241,99.572,31.855,99.949z M33.055,98.029c0.29,0.051,0.147,0.267,0,0.48
	c1.178,0.016-0.543,0.549,0.24,0.96c0.472,0.071,0.476-0.324,0.72-0.48c0.179-0.738-0.659-0.461-0.48-1.199
	c0.133,0,0.272-0.195,0-0.24C33.532,97.867,33.114,97.769,33.055,98.029z M29.695,99.229c0.655,0.175,0.483-0.477,0.96-0.479
	c-0.101-0.459-0.087-1.033-0.72-0.96C29.94,98.354,29.521,98.496,29.695,99.229z M24.415,101.869
	c-0.237-0.957,0.717-0.723,0.48-1.68c-0.32,0-0.64,0-0.96,0C23.911,100.934,24.043,101.521,24.415,101.869z M22.975,106.909
	c-0.252-1.052,0.812-0.788,0.72-1.68c-0.939,0.128-0.503-2.36-0.96-1.92C22.86,104.439,21.87,106.314,22.975,106.909z
	 M23.455,104.27c0.655-0.175,0.483,0.477,0.96,0.48c0.036-0.596,0.045-1.165-0.48-1.2C23.877,103.893,23.54,103.954,23.455,104.27z
	 M27.535,111.949c1.429-0.621,1.328-2.594-0.24-3.119C27.329,109.601,27.254,110.854,27.535,111.949z M23.935,112.189
	c0.165-0.537,0.721-1.202,0.24-1.68C23.245,110.472,23.32,111.95,23.935,112.189z M23.215,110.51
	c-0.355-0.125-0.605-0.355-0.96-0.48c-0.083,1.396-0.313,2.626,0.96,3.12C24.201,111.853,22.035,111.477,23.215,110.51z"/>
<path fill-rule="evenodd" clip-rule="evenodd" fill="#4C5B76" d="M26.335,108.83c0.906,0.707,0.148,3.409,0.48,4.56
	c-0.16,0-0.32,0-0.48,0C26.221,111.651,26.525,109.963,26.335,108.83z"/>
<path fill-rule="evenodd" clip-rule="evenodd" fill="#4C5B76" d="M25.375,105.47c-0.212,2.521-0.16,3.223,0,6.24
	C24.647,110.211,24.737,107.116,25.375,105.47z"/>
<path fill-rule="evenodd" clip-rule="evenodd" fill="#4C5B76" d="M25.135,91.55c0.134-0.346,0.375-0.586,0.72-0.721
	c0.85,0.717,2.143,0.361,2.64-0.479c0.731,0.011,0.934-0.507,1.44-0.72C28.958,91.271,27.095,91.381,25.135,91.55z"/>
<path fill-rule="evenodd" clip-rule="evenodd" fill="#4C5B76" d="M65.695,87.71c-0.447,0.032-0.803,0.157-0.961,0.479
	c-0.32-0.336,0.84-1.229,0.961-1.92c0.857,0.386-0.199,2.149,0.96,2.64C66.339,89.279,65.059,88.441,65.695,87.71z"/>
<path fill-rule="evenodd" clip-rule="evenodd" fill="#516381" d="M48.895,87.47c-0.166-0.646,0.496-0.464,0.72-0.72
	c0,0.64,0,1.279,0,1.92C48.933,88.712,49.905,87.1,48.895,87.47z"/>
<path fill-rule="evenodd" clip-rule="evenodd" fill="#516381" d="M57.055,87.71c-0.013-0.413,0.185-0.615,0.48-0.721
	c0.013,0.307,0.308,0.333,0.24,0.721c0.071,0.489,0.649,0.47,0.72,0.96c-0.412-0.309-0.944-0.497-0.96-1.2
	C57.34,87.516,57.295,87.71,57.055,87.71z"/>
<path fill-rule="evenodd" clip-rule="evenodd" fill="#4D3425" d="M52.015,89.39c0.458,0.103,0.435,0.686,1.2,0.479
	c0.525-0.035,0.515-0.604,0.48-1.199c-0.005-0.425-1.132,0.382-1.44-0.24c0.104-0.537,1.183-0.098,1.68-0.24
	C54.881,89.449,52.469,91.105,52.015,89.39z"/>
<path fill-rule="evenodd" clip-rule="evenodd" fill="#23211F" d="M26.335,94.909c0.503-0.217,0.085-1.354,0.72-1.439
	c0.836,0.07-0.02,0.649,0.48,0.72c0,0.24,0,0.48,0,0.72c-0.587,1.285-0.184,1.588-0.48,2.641c0,0.24,0,0.479,0,0.72
	c-0.016,0.644-0.607,3.134-0.24,4.56c0,0.08,0,0.16,0,0.24c-0.268,1.257-0.823,3.491-0.24,4.8c-0.075,0.325-0.342,0.459-0.24,0.961
	c0.19,1.133-0.114,2.821,0,4.56c-0.32,0-0.64,0-0.96,0c0.424-0.401-0.213-0.804,0-1.68c-0.16-3.018-0.212-3.72,0-6.24
	C25.345,101.712,25.802,99.881,26.335,94.909z"/>
<path fill-rule="evenodd" clip-rule="evenodd" fill="#B57A27" d="M50.815,102.35c-0.388-0.067-0.413,0.227-0.72,0.24
	c0.133,0.924,0.928-0.185,1.44,0.479c0,0.16,0,0.32,0,0.48c-0.315-0.085-0.377-0.423-0.72-0.48c-0.194,0.046-0.239,0.241-0.48,0.24
	c-0.194,0.046-0.239,0.241-0.48,0.24c-0.619-0.058,0.33-0.413,0-0.96C50.07,102.167,50.521,101.402,50.815,102.35z"/>
<path fill-rule="evenodd" clip-rule="evenodd" fill="#B57A27" d="M50.815,96.829c0,0.08,0,0.16,0,0.24
	c0.223,0.577,1.745-0.145,1.44,0.96c0.359-0.465,1.377-0.729,1.44,0.24c-0.971-0.567-0.867-0.096-0.72,0.96
	c-0.755,0.12-0.938-0.523-1.44,0c0.042-0.602-0.537-0.583-0.72-0.96c-0.652-0.172,0.171,1.132-0.48,0.96
	c-0.047-0.927-0.009-1.769,0.24-2.4C50.655,96.829,50.735,96.829,50.815,96.829z"/>
<path fill-rule="evenodd" clip-rule="evenodd" fill="#23211F" d="M52.735,94.67c-0.793,0.789,0.644,0.574,0.48,1.439
	c-0.337,0.543-1.902,0.795-1.92-0.24C51.383,95.096,51.991,94.046,52.735,94.67z"/>
<path fill-rule="evenodd" clip-rule="evenodd" fill="#23211F" d="M81.535,96.829c0.73-1.028,0.906-2.613,1.92-3.359
	c0.508,1.313-0.741,2.935-0.96,4.32c-0.303,1.347-0.73,1.626-0.721,2.88c-0.47,0.329-0.129,1.47-0.479,1.92
	c-0.121,0.787-0.218,1.058,0,1.68c-0.537,0.104-0.098,1.183-0.24,1.68c-0.487,2.542-0.206,4.819-0.24,7.44c-0.479,0-0.96,0-1.439,0
	c0.187-0.214,0.258-0.542,0.24-0.96c-0.367-1.044,0.175-2.301-0.24-3.6c0-0.08,0-0.16,0-0.24c0.08,0,0.16,0,0.24,0
	c-0.152-0.809,0.309-2.229-0.24-2.641c0.346-0.533,0.603-1.157,0.479-2.159c0.477-0.454,0.409-0.842,0.24-1.44
	c0.037-0.764,0.544-1.056,0.48-1.92c0.649-0.791,0.464-2.416,0.96-3.36C81.535,96.989,81.535,96.909,81.535,96.829z"/>
<path fill-rule="evenodd" clip-rule="evenodd" fill="#B57A27" d="M52.735,94.67c-0.744-0.624-1.352,0.426-1.44,1.199
	c-0.322,0.158-0.447,0.514-0.48,0.96c-0.08,0-0.16,0-0.24,0c0.193-1.167,0.207-2.514,0.96-3.119c0,0.239,0,0.479,0,0.72
	c0.555-0.385,1.283-0.849,1.44,0.24C52.895,94.67,52.815,94.67,52.735,94.67z"/>
<path fill-rule="evenodd" clip-rule="evenodd" fill="#4C5B76" d="M70.734,93.949c-0.39,0.913,1.44,2.413,1.44,2.88
	c-1.13,0.011-1.455-0.785-1.92-1.439c-0.308,1.129,0.776,0.949,0.24,2.64c1.188,0.686,1.646-0.515,2.88-0.479
	c1.263,1.069,1.323,2.33,1.2,3.84c1.409-0.271,2.033-1.326,3.12-1.92c-0.808-0.072-1.041-1.656,0-1.68
	c-0.159,1.608,0.659,1.465,1.439,1.68c0.035,0.595,0.045,1.164-0.479,1.2c-0.257-0.225-0.075-0.886-0.721-0.721
	c-0.51,0.891,0.259,1.652-0.72,2.16c-0.738,0.179-0.461-0.658-1.2-0.479c-0.406,0.581,0.116,1.838,1.44,1.439
	c0.055-0.425-0.242-1.201,0.479-0.96c0.146,0.574-0.301,1.741,0.24,1.92c-0.112-0.752,0.604-0.676,0.96-0.96c0,0.561,0,1.12,0,1.681
	c-0.49,0.229-0.949,0.49-1.439,0.72c0.061,1.379-0.18,3.06,0.239,4.08c0.679-0.198,0.622,0.338,1.2,0.24
	c0.041-0.359-0.086-0.886,0.24-0.96c0.415,1.299-0.127,2.556,0.24,3.6c-0.762-0.279-0.592-1.488-1.44-1.68
	c-0.356,0.443-0.46,1.14-0.479,1.92c0.104,0.355,0.307-0.095,0.72,0c-0.127,0.192-0.251,0.39-0.24,0.72c-0.24,0-0.479,0-0.72,0
	c0-0.08,0-0.16,0-0.24c-0.633-0.167-0.508-1.093-1.2-1.2c0.144,0.624-0.097,0.864-0.72,0.721c0.366-0.75,0.002-1.188-0.721-1.44
	c-0.235,0.725-0.489,1.43-0.72,2.16c-0.64,0-1.28,0-1.92,0c-0.786-0.961,0.309-1.646,0.48-2.4c-0.581-0.393-1.166-0.611-1.921-0.239
	c0.173,0.947,0.045,2.195,0.721,2.64c-0.48,0-0.96,0-1.44,0c0.23-0.73-0.514-2.434,0.48-2.4c-0.135-0.346-0.375-0.585-0.721-0.72
	c-0.645-0.066-0.684,1.69-0.239,1.92c-1.044,0.661-1.283-0.543-0.721-1.92c1.048,0.328,0.511-0.93,1.44-0.72
	c-1.154-0.853,1.289-2.446-0.48-2.16c0.227-0.704,0.359-0.892,0.48-1.2c0.08,0,0.16,0,0.24,0c0.143,1.057,1.126,1.274,1.439,2.16
	c-0.309,0.962-0.496-0.066-1.2,0c0.23,0.49,0.491,0.95,0.721,1.44c0.457-0.103,0.434-0.687,1.2-0.48
	c0.411,0.549,0.228,1.692,0.72,2.16c1.254-2.708-3.134-3.824-1.68-6c0.621,0.123,0.892,0.104,1.68,0.479
	c0.646-0.715-0.156-1.079-0.96-0.72c-0.854-1.203-0.742-3.593,0.479-4.56c0.541,0.519-0.198,0.818,0,1.68
	c1.551-0.569,0.418-2.53,0.96-3.84c-1.549,0.086-0.809,2.209-2.399,1.68c0.258,0.972,0.258,1.668,0,2.64c-0.08,0-0.16,0-0.24,0
	c0.744-2.363-1.569-2.412-2.64-3.6c0.104-0.356,0.307,0.095,0.72,0c-0.391-0.786,0.054-0.917,0-1.92
	c-0.543,0.177-0.525,0.915-1.2,0.96C68.953,96.808,69.881,95.415,70.734,93.949z M74.575,102.109
	c-0.37,0.725,1.241,0.632,1.199,0.24C75.275,102.214,74.999,101.664,74.575,102.109z M73.615,104.51
	c0.004-0.661-0.376-2.163-0.96-1.44C73.269,103.256,72.708,104.616,73.615,104.51z M75.295,108.83
	c-0.752-0.113-0.677,0.603-0.96,0.96c0.878-0.179,1.116-1.142,1.92-0.24c0.099,0.578-0.438,0.521-0.24,1.2
	c1.606-0.474,0.57-1.375,0.48-2.16c-0.111-0.972,1.305-3.136,0-3.12c0.386,1.235-0.351,2.222-1.2,2.88
	c0.192-0.832-0.357-0.923-0.24-1.68c0.876,0.142,0.951-1.751,0.48-2.16c-0.288,0.577-0.293-1.125-0.96-0.96
	C74.803,105.635,73.626,108.024,75.295,108.83z M76.015,104.27c0.32,0,0.641,0,0.96,0C77.164,103.346,75.826,103.346,76.015,104.27z
	"/>
<path fill-rule="evenodd" clip-rule="evenodd" fill="#516381" d="M67.615,110.989c1.039-0.564,2.146-2.328,1.92-3.359
	c0.014-0.146,0.035-0.284,0.239-0.24c1.77-0.286-0.674,1.308,0.48,2.16c-0.93-0.21-0.393,1.048-1.44,0.72
	c-0.563,1.377-0.323,2.581,0.721,1.92c-0.444-0.229-0.405-1.986,0.239-1.92c0.346,0.135,0.586,0.374,0.721,0.72
	c-0.994-0.033-0.25,1.67-0.48,2.4c-1.2,0-2.399,0-3.6,0c0-0.08,0-0.16,0-0.24c0.445-0.594,1.178-0.902,1.2-1.92
	C67.615,111.149,67.615,111.069,67.615,110.989z"/>
<path fill-rule="evenodd" clip-rule="evenodd" fill="#516381" d="M71.215,102.829c0.08,0,0.16,0,0.24,0
	c0.258-0.972,0.258-1.668,0-2.64c1.591,0.529,0.851-1.594,2.399-1.68c-0.542,1.31,0.591,3.271-0.96,3.84
	c-0.198-0.861,0.541-1.161,0-1.68c-1.222,0.967-1.333,3.356-0.479,4.56c0.804-0.359,1.606,0.005,0.96,0.72
	c-0.788-0.375-1.059-0.356-1.68-0.479c-1.454,2.176,2.934,3.292,1.68,6c-0.492-0.468-0.309-1.611-0.72-2.16
	c-0.767-0.206-0.743,0.378-1.2,0.48c-0.229-0.49-0.49-0.95-0.721-1.44c0.704-0.066,0.892,0.962,1.2,0
	c-0.313-0.886-1.297-1.104-1.439-2.16c-0.08,0-0.16,0-0.24,0C70.55,105.044,71.05,104.104,71.215,102.829z"/>
<path fill-rule="evenodd" clip-rule="evenodd" fill="#4C5B76" d="M43.855,97.55c1.001,0.041,1.184-0.736,2.16-0.721
	c-0.134,1.145,0.417,1.582,0,1.921c-0.239-0.587-0.08-0.512-0.24-1.44c-2.535,0.426-4.42,2.778-6.48,2.88
	c0.435-0.604,1.485-0.595,1.92-1.2C42.187,98.602,43.008,98.063,43.855,97.55z"/>
<path fill-rule="evenodd" clip-rule="evenodd" fill="#516381" d="M39.295,100.189c2.06-0.102,3.945-2.454,6.48-2.88
	c0.16,0.929,0,0.854,0.24,1.44c0,0.239,0,0.479,0,0.72c-0.822,2.239-0.93,5.765,0,8.399c-0.067,1.264,0.254,1.424,0,2.4
	c-0.013,0.454-0.536,1.382,0.24,1.68c-0.173,0.733,0.245,0.875,0.24,1.44c-0.32,0-0.64,0-0.96,0c-1.297-2.082-0.647-4.719-0.24-7.44
	c-0.217-0.423-0.884-0.396-0.96-0.96c0.976-0.588-0.063-1.174,0-2.16c-1.062,0.022-1.732-0.348-2.16-0.96
	c0.682-0.358,1.086-0.993,1.68-1.439c0.215,0.139,0.579,1.294,0.72,0.72c-0.375-0.745-0.981-1.259-1.44-1.92
	c-0.565-0.005-0.707,0.413-1.44,0.24c-0.146,1.534-2.612,0.748-2.4,2.64c-0.281-0.469-0.789-1.343-0.24-1.92
	C39.135,100.189,39.215,100.189,39.295,100.189z M43.855,99.229c0.578-0.099,0.521,0.438,1.2,0.24
	C45.478,98.396,43.785,98.606,43.855,99.229z"/>
<path fill-rule="evenodd" clip-rule="evenodd" fill="#4C5B76" d="M31.135,97.55c0.315,0.085,0.377,0.422,0.72,0.479
	c-0.184,1.179-0.561,0.914,0,1.92C31.241,99.572,30.554,98.365,31.135,97.55z"/>
<path fill-rule="evenodd" clip-rule="evenodd" fill="#4C5B76" d="M33.535,97.55c0.272,0.045,0.133,0.24,0,0.24
	c-0.179,0.738,0.659,0.461,0.48,1.199c-0.244,0.156-0.248,0.552-0.72,0.48c-0.783-0.411,0.938-0.944-0.24-0.96
	c0.147-0.214,0.29-0.43,0-0.48C33.114,97.769,33.532,97.867,33.535,97.55z"/>
<path fill-rule="evenodd" clip-rule="evenodd" fill="#4D3425" d="M52.975,99.229c-0.203,0.703-0.772-0.144-1.2,0
	c-0.067,1.511,1.537,0.828,1.92,0.24c-0.247,1.271-1.217,1.204-2.16,0.72c0-0.32,0-0.64,0-0.96
	C52.037,98.706,52.22,99.35,52.975,99.229z"/>
<path fill-rule="evenodd" clip-rule="evenodd" fill="#4C5B76" d="M61.135,99.229c-0.563-2.886,5.207,0.341,6,0.96
	c-1.456,0.013-3.277-1.68-5.28-1.92c-0.422,0.058-0.547,0.413-0.479,0.96C61.295,99.229,61.215,99.229,61.135,99.229z"/>
<path fill-rule="evenodd" clip-rule="evenodd" fill="#4C5B76" d="M67.615,100.189c1.213,0.434,3.155,1.26,2.159,3.12
	C70.203,101.775,68.544,101.075,67.615,100.189z"/>
<path fill-rule="evenodd" clip-rule="evenodd" fill="#4C5B76" d="M67.375,109.55c1.384-1.844,1.104-4.5,2.399-6
	c-0.305,1.138-1.091,3.866-1.68,5.52C67.779,109.154,67.718,109.492,67.375,109.55z"/>
<path fill-rule="evenodd" clip-rule="evenodd" fill="#516381" d="M61.135,99.229c0.08,0,0.16,0,0.24,0
	c-0.067-0.547,0.058-0.902,0.479-0.96c2.003,0.24,3.824,1.933,5.28,1.92c0.16,0,0.32,0,0.48,0c0.929,0.886,2.588,1.586,2.159,3.12
	c0,0.08,0,0.16,0,0.24c-1.295,1.5-1.016,4.156-2.399,6c0,0.08,0,0.16,0,0.24c-0.431-0.031-0.506,0.293-0.96,0.239
	c0.789,1.023-0.988,1.141-0.72,2.4c0.03,0.431-0.294,0.506-0.24,0.96c-1.44,0-2.88,0-4.32,0c0.174-0.733-0.245-0.875-0.24-1.44
	c0.758-0.022,1.432,0.643,1.44-0.479c0.819,0.061,1.153,0.606,2.16,0.479c0.841-0.438,1.004-1.555,1.92-1.92
	c0.098-0.578-0.438-0.521-0.24-1.199c2.237-1.014,1.356-4.08,1.44-5.761c0.654-0.175,0.482,0.478,0.96,0.48
	c0.42-0.489,0.02-1.256,0-1.681c-1.168,0.44-1.479-0.333-2.16-0.96c-0.899,0.441-1.961,0.599-2.88,0
	c-0.708,0.445-0.028,2.664,0.72,2.881c-0.55,0.25-0.667,0.933-1.2,1.199c-0.816-0.063-0.679-1.081-1.2-1.439
	c0.602-0.958,0.817-1.819,0.48-2.88c-1.669,0.13,0.051,2.158-1.44,2.399c0.039-0.278-0.053-0.427-0.239-0.479c0-0.08,0-0.16,0-0.24
	c0.831-0.049,0.437-1.323,0.72-1.92c-0.16,0-0.32,0-0.48,0C60.696,99.751,61.233,99.808,61.135,99.229z M62.335,100.43
	c0.058-0.343,0.396-0.405,0.479-0.72c-0.324-0.076-0.458-0.342-0.96-0.24C61.788,100.017,61.913,100.372,62.335,100.43z"/>
<path fill-rule="evenodd" clip-rule="evenodd" fill="#4C5B76" d="M60.655,102.59c0.187,0.053,0.278,0.201,0.239,0.479
	c1.491-0.241-0.229-2.27,1.44-2.399c0.337,1.061,0.121,1.922-0.48,2.88c0.521,0.358,0.384,1.377,1.2,1.439
	c0.533-0.267,0.65-0.949,1.2-1.199c-0.748-0.217-1.428-2.436-0.72-2.881c0.919,0.599,1.98,0.441,2.88,0
	c0.681,0.627,0.992,1.4,2.16,0.96c0.02,0.425,0.42,1.191,0,1.681c-0.478-0.003-0.306-0.655-0.96-0.48
	c-0.084,1.681,0.797,4.747-1.44,5.761c-0.198,0.678,0.338,0.621,0.24,1.199c-0.916,0.365-1.079,1.481-1.92,1.92
	c-1.007,0.127-1.341-0.419-2.16-0.479c-0.009,1.122-0.683,0.457-1.44,0.479c-0.005,0.565,0.414,0.707,0.24,1.44
	c-0.24,0-0.479,0-0.72,0c0.031-0.592,0.036-1.156-0.24-1.44c-0.739-0.179-0.293,0.828-1.2,0.48c0-0.4,0-0.8,0-1.2
	c0.679,0.198,0.622-0.338,1.2-0.24c-0.399-0.427-0.504-1.914,0.72-1.439c-1.19-0.27-0.493-1.367-0.239-2.16
	c0.493,0.065,0.226,0.894,0.72,0.96c0.52-0.28-0.032-1.633,0.72-1.68c0.011-0.411-0.179-0.622-0.479-0.721
	c-0.347,0.294-0.364,0.916-0.721,1.2c-0.46-0.026,0.282-0.804,0-1.439c-1.731,1.867-1.591,5.608-3.6,7.199
	c0.672-1.008,1.078-2.282,1.439-3.6c0.781-1.137,1.27-2.825,1.2-3.6c0.191-0.449,0.401-0.879,0.48-1.44c0.319,0,0.64,0,0.96,0
	c-0.021-0.38,0.115-0.915-0.24-0.96c-0.135,0.346-0.374,0.586-0.72,0.72C60.383,103.438,60.379,102.873,60.655,102.59z
	 M66.895,103.55c-0.122-0.599,0.008-1.448-0.72-1.44C66.046,102.959,66.378,103.346,66.895,103.55z M65.215,106.909
	c0.673-0.846,0.293-2.229-0.24-2.64C64.155,104.854,64.612,106.38,65.215,106.909z M67.375,106.909
	c-0.133-0.427-0.123-0.996-0.48-1.199C66.594,105.988,66.346,107.275,67.375,106.909z M63.055,109.79c0.393,0.107,0.393-1.309,0-1.2
	C62.714,108.618,62.066,109.905,63.055,109.79z"/>
<path fill-rule="evenodd" clip-rule="evenodd" fill="#4C5B76" d="M84.655,98.27c-0.385,0.317-0.897,1.026-1.44,0.48
	C83.531,97.889,84.003,98.674,84.655,98.27z"/>
<path fill-rule="evenodd" clip-rule="evenodd" fill="#4C5B76" d="M86.814,98.51c0.315-0.309,0.885-0.309,1.2,0
	c-1.042,0.836-0.18,0.895-0.239,2.399C87.117,100.332,87.4,99.522,86.814,98.51z"/>
<path fill-rule="evenodd" clip-rule="evenodd" fill="#4C5B76" d="M85.854,99.47c0.731,0.517-0.912,0.669-0.96,1.2
	c-0.532-0.5-0.451-1.013,0-1.44C85.495,98.913,85.646,100.179,85.854,99.47z"/>
<path fill-rule="evenodd" clip-rule="evenodd" fill="#4C5B76" d="M30.895,113.39c0-0.4,0-0.8,0-1.2
	c-1.612,0.553-1.341-1.722-0.96-2.399c-0.349-0.132-1.24,0.28-1.2-0.24c0.538-1.561-0.241-3.956,1.68-5.04
	c0.76,0.92-0.825,3.372,0.48,4.08c0.326-1.527-0.327-3.557,0.96-4.561c0.892,0.285-0.177,1.04,0.48,1.44
	c0.237-1.362,0.911-2.289,1.2-3.601c-0.546,0.117-1.226,0.477-1.68,0c-0.182,0.522,0.651,1.859-0.72,2.16
	c-0.601-0.999-1.795-1.405-2.16-2.64c0.699-0.341,0.654-1.426,1.2-1.92c0.284,0.116,0.544,0.256,0.72,0.479
	c-1.15,0.529-0.472,2.375,0,2.88c-0.43-1.737,1.378-1.311,2.16-2.159c0.24,0.319,0.396,0.724,0.72,0.96
	c0.631-0.569,0.789-1.611,1.44-2.16c0.479,0.241,0.379,1.062,1.2,0.96c0.141-0.214,0.504-1.369,0.72-0.72
	c-1.024,1.232,0.762,2.394,0.72,4.08c-0.609-0.911-0.874-2.167-1.68-2.881c-1.125,1.382,1.394,2.213,0.48,3.36
	c-1.256-0.263-0.215-0.823-0.72-1.68c-1.368-0.169-0.391,2.009-1.68,1.92c0.01-0.79,0.405-1.195,0.24-2.16
	c-1.199-0.133-1.339,2.716-0.48,3.12c0.256-0.224,0.075-0.886,0.72-0.72c0.315,0.288,0.377,0.093,0.72,0
	c0.005,0.715-0.022,1.462,0.72,1.439c0.587-0.565-0.358-0.446-0.24-1.2c0.388,0.068,0.414-0.227,0.72-0.239
	c0.448,0.548-0.324,1.797,0.96,1.92c1.188-0.427,0.3-2.19,0.48-2.641c1.159,3.013,3.122,5.713,3.84,9.36c-0.08,0-0.16,0-0.24,0
	c-0.924-2.677-1.835-5.365-3.36-7.44c-0.202,3.286,2.506,4.794,2.16,7.44c-1.52,0-3.04,0-4.56,0c-0.18-0.899,0.271-1.17,0.96-1.2
	c0.333,0.147,0.036,0.924,0.48,0.96c0.831-0.903-0.114-1.896,0-2.88c-0.474,0.166-0.64,0.641-0.72,1.2
	c-0.932-0.188-1.484-0.756-2.16-1.2c-0.304,0.255,1.13,1.063,0,1.68c0.167,0.378,1.093-0.197,1.2,0.24
	c0.179,0.739-0.828,0.293-0.48,1.2c-0.4,0-0.8,0-1.2,0c-0.101-0.459-0.087-1.033-0.72-0.96c0,0.32,0,0.64,0,0.96
	C32.495,113.39,31.695,113.39,30.895,113.39z M33.775,111.47c-0.966,0.246-1.066-0.374-1.44-0.72
	c-0.027,0.453-0.793,0.166-0.72,0.72c0.352,0.209,0.761,0.359,0.72,0.96C33.23,112.525,33.743,112.238,33.775,111.47z
	 M31.375,107.149c0.884-0.005,0.303,1.457,1.44,1.2c-0.709-0.791,0.601-1.199,0-1.68C32.505,107.417,31.468,106.066,31.375,107.149z
	 M35.455,110.51c0.961,0.081,1.074-0.687,0.96-1.68c-0.32,0-0.64,0-0.96,0C35.785,109.589,35.507,109.632,35.455,110.51z"/>
<path fill-rule="evenodd" clip-rule="evenodd" fill="#516381" d="M35.215,113.39c-0.348-0.907,0.659-0.461,0.48-1.2
	c-0.107-0.438-1.033,0.138-1.2-0.24c1.13-0.617-0.304-1.425,0-1.68c0.676,0.444,1.228,1.013,2.16,1.2
	c0.08-0.56,0.246-1.034,0.72-1.2c-0.114,0.983,0.831,1.977,0,2.88c-0.444-0.036-0.147-0.813-0.48-0.96
	c-0.69,0.03-1.14,0.301-0.96,1.2C35.695,113.39,35.455,113.39,35.215,113.39z"/>
<path fill-rule="evenodd" clip-rule="evenodd" fill="#516381" d="M85.375,113.39c-0.8,0-1.601,0-2.4,0
	c0.149-0.651-0.305-1.904,0.24-2.16c0.59,0.29,0.466,1.294,1.2,1.44c0.344-1.225-0.734-1.026-0.96-1.681
	c0.324-0.075,0.458-0.341,0.96-0.239c0.054-0.454-0.271-0.53-0.24-0.96c-0.754-0.399-0.98,0.893-1.2,0.239
	c0.355-0.044,0.221-0.58,0.24-0.96c0.596,0.035,1.165,0.045,1.2-0.479c-1.565-1.732,0.96-3.382,2.16-2.641
	c0.341,0.993,0.774,2.085-0.48,2.4c-0.274-0.995,0.505-0.936,0.48-1.68c-0.645-0.574-1.276,0.32-1.92,0.479
	c0.358,0.842,0.998,1.402,1.199,2.4c-0.142,0.498-0.462,0.818-0.96,0.96c0.27,0.756,0.022,0.543,0,1.439
	c0.346,0.531,0.586-0.302,0.721,0.24C85.813,112.868,85.276,112.812,85.375,113.39z"/>
<path fill-rule="evenodd" clip-rule="evenodd" fill="#4C5B76" d="M27.055,98.27c0.698,0.665-0.039,1.675,0.48,2.16
	c0.203-0.226,1.237-0.806,1.44-0.24c-0.896,0.592-1.659,3.635,0.24,4.32c0.396-0.004,0.134-0.666,0.48-0.72
	c0.508,0.641-1.073,1.915-1.68,1.439c0.048,0.764,0.625,2.238,0,2.88c-1.679-0.321,0.106-4.825-0.96-5.76
	c0.001,0.241-0.194,0.285-0.24,0.479C26.448,101.403,27.039,98.913,27.055,98.27z"/>
<path fill-rule="evenodd" clip-rule="evenodd" fill="#B57A27" d="M50.095,101.149c0.638,0.003,1.371-0.091,1.68,0.24
	c0.102,0.502-0.165,0.636-0.24,0.96c-0.24,0-0.48,0-0.72,0c-0.294-0.947-0.745-0.183-0.96,0.24
	C49.823,101.998,49.818,101.434,50.095,101.149z"/>
<path fill-rule="evenodd" clip-rule="evenodd" fill="#23211F" d="M54.175,101.149c0.327,1.077-0.966,1.165-1.44,0.72
	c-0.068-0.387,0.227-0.413,0.24-0.72C53.375,101.149,53.775,101.149,54.175,101.149z"/>
<path fill-rule="evenodd" clip-rule="evenodd" fill="#516381" d="M40.495,104.27c-0.181-0.9,0.917-0.523,0.96-1.2
	c0.604,0.241-0.191,1.062-0.72,0.96c0.045,0.194,0.241,0.239,0.24,0.48C40.769,104.968,40.832,104.25,40.495,104.27z"/>
<path fill-rule="evenodd" clip-rule="evenodd" fill="#4D3425" d="M50.815,103.069c-1.52,2.623,3.725,1.941,1.92,0.24
	c-0.284,0.356-0.208,1.072-0.96,0.96c-0.127-0.193-0.25-0.39-0.24-0.72c0-0.16,0-0.32,0-0.48c0.281,0.039,0.203,0.438,0.24,0.721
	c0.572-0.148,0.394-1.046,1.44-0.721c0.982,1.693-1.699,2.786-2.88,1.681c0-0.48,0-0.96,0-1.44
	C50.576,103.311,50.621,103.115,50.815,103.069z"/>
<path fill-rule="evenodd" clip-rule="evenodd" fill="#516381" d="M41.215,107.63c-0.344-0.296-0.455-0.825-0.48-1.44
	c0.027-0.293,0.072-0.568,0.48-0.479c-0.158,0.878,0.519,0.92,0.48,1.68C41.509,107.443,41.221,107.396,41.215,107.63z"/>
<path fill-rule="evenodd" clip-rule="evenodd" fill="#4C5B76" d="M68.575,109.31c0.258-0.622,0.867-0.893,0.96-1.68
	c0.226,1.031-0.881,2.795-1.92,3.359C68.031,110.526,68.158,109.773,68.575,109.31z"/>
<path fill-rule="evenodd" clip-rule="evenodd" fill="#516381" d="M91.135,113.39c-1.52,0-3.04,0-4.56,0
	c0.363-0.989,2.058-0.554,2.16-1.2c-0.101-0.54-1.316,0.036-1.2-0.72c0.396-0.004,0.134-0.666,0.479-0.72
	c0.294,0.341,0.916,0.545,1.2,0.239c0-0.319,0-0.64,0-0.96c-0.995-0.274-0.936,0.505-1.68,0.48c0.104-1.04,0.318-2.34,0.479-2.641
	c0.869,0.736,2.547,2.388,1.44,3.601C90.824,111.3,90.362,112.962,91.135,113.39z"/>
<path fill-rule="evenodd" clip-rule="evenodd" fill="#4C5B76" d="M66.415,113.149c0.113-0.926,0.846-1.234,1.2-1.92
	C67.593,112.247,66.86,112.556,66.415,113.149z"/>
<path fill-rule="evenodd" clip-rule="evenodd" fill="#23211F" d="M68.095,109.069c0.053,0.188,0.201,0.279,0.48,0.24
	c-0.417,0.464-0.544,1.217-0.96,1.68c0,0.08,0,0.16,0,0.24c-0.354,0.686-1.087,0.994-1.2,1.92c0,0.08,0,0.16,0,0.24
	c-0.32,0-0.641,0-0.96,0c-0.054-0.454,0.271-0.529,0.24-0.96c0.647-0.072,0.43-1.01,0.96-1.2c0.03,0.431-0.294,0.506-0.24,0.96
	c0.553-0.335,1.947-2.092,0.96-2.399c0-0.08,0-0.16,0-0.24C67.718,109.492,67.779,109.154,68.095,109.069z"/>
<path fill-rule="evenodd" clip-rule="evenodd" fill="#4C5B76" d="M67.375,109.79c-0.004,0.716-0.624,0.815-0.72,1.439
	c-0.53,0.19-0.313,1.128-0.96,1.2c-0.269-1.26,1.509-1.377,0.72-2.4C66.869,110.083,66.944,109.759,67.375,109.79z"/>
<path fill-rule="evenodd" clip-rule="evenodd" fill="#516381" d="M85.854,111.229c0.074-0.325,0.602-0.199,0.96-0.24
	c-0.198,0.679,0.339,0.622,0.24,1.2c-0.279-0.039-0.427,0.053-0.479,0.24C86.147,112.101,86.943,111.419,85.854,111.229z"/>
<path fill-rule="evenodd" clip-rule="evenodd" fill="#C1BEBE" d="M31.855,35.87c1.271-1.34,2.807-0.827,3.84-0.48
	c1.335,1.898,1.279,6.678,0.24,8.88c-1.177,0.427-3.423,1.051-4.32,0.96C29.326,43.179,30.148,38.095,31.855,35.87z M33.775,38.029
	c-0.921,1.084-0.776,4.387,1.44,3.84c0.613-0.667,0.827-1.733,0.72-3.12C35.689,37.17,34.156,38.284,33.775,38.029z"/>
<path fill-rule="evenodd" clip-rule="evenodd" fill="#23211F" d="M42.175,38.75c0,0.88,0,1.76,0,2.64
	C41.777,41.053,41.777,39.085,42.175,38.75z"/>
<path fill-rule="evenodd" clip-rule="evenodd" fill="#C1BEBE" d="M33.295,62.51c-0.08,0-0.16,0-0.24,0
	c-0.156-0.974-1.158-2.079-0.48-3.12c0.972,0.068,1.668,0.412,2.64,0.479c0.014,1.026,0.322,1.758,0.48,2.641c-0.08,0-0.16,0-0.24,0
	c-0.591,0.031-1.156,0.036-1.44-0.24C33.685,62.259,33.488,62.383,33.295,62.51z"/>
<path fill-rule="evenodd" clip-rule="evenodd" fill="#23211F" d="M36.895,64.67c0.24,0,0.48,0,0.72,0
	c0.255,0.544,1.509,0.091,2.16,0.239c-0.966,0.399-3.594,0.399-4.56,0c0.56,0,1.12,0,1.68,0
	C36.895,64.829,36.895,64.749,36.895,64.67z"/>
<path fill-rule="evenodd" clip-rule="evenodd" fill="#843C25" d="M41.455,68.51c-0.533,0.187-0.936,0.504-1.68,0.479
	c-1.304-0.021-5.461,0.472-6.24-1.92c-0.187-0.214-0.258-0.542-0.24-0.96c0.453-0.026,0.167-0.793,0.72-0.72
	c0.217,0.211,1.355,0.688,1.44,0.24c0.08,0,0.16,0,0.24,0c5.175,1.557,10.179-1.51,12.72-5.28c0-0.08,0-0.16,0-0.24
	c1.503,0.439-0.845,2.25-0.96,3.36c-0.045,0.194-0.241,0.239-0.24,0.479C45.67,65.845,43.577,67.191,41.455,68.51z"/>
<path fill-rule="evenodd" clip-rule="evenodd" fill="#4D3425" d="M60.415,22.669c-1.823,4.731-5.951,10.585-3.84,16.56
	c0.736,2.083,3.128,3.416,4.8,5.04c3.779-1.884,9.198-3.215,8.88,2.64c-0.306,5.62-5.314,9.28-11.521,6
	c-0.594,0.714,0.781,0.997,1.2,1.44c-1.424,6.26-0.605,13.315,0.721,18.96c-1.929,3.625-9.236,12.57-10.561,3.12
	c1.933-2.147,4.342-3.818,5.52-6.72c-1.925,0.956-3.013,4.107-6.24,5.52c-6.091,2.667-14.079,1.073-14.16-5.52
	c10.494,1.53,14.939-6.063,17.04-14.4c0.563,0.077,0.901,0.379,1.68,0.24c-1.28-1.36-2.419-2.861-3.12-4.8
	c-0.718,0.656,0.32,1.586,0,2.64c-4.655,2.243-14.89,1.135-19.68,1.68c-0.113-1.894,2.413-1.153,3.84-1.44
	c4.393-0.883,6.468-5.189,0.96-4.56c0.846,0.435,2.061,0.5,2.4,1.44c-0.775,3.369-14.969,3.321-10.56-2.64
	c2.662-3.599,9.384-0.315,10.08-6.48c0.301-2.672-0.403-6.05-2.64-7.44c-1.704-0.357-3.081,0.668-3.84,0.48
	c-0.099-1.06,0.065-1.855,0.48-2.4c1.619,0.019,3.29,0.09,4.32-0.48c-0.762-1.238-2.971-1.029-4.56-1.44
	c-0.004-3.604,1.643-5.557,2.88-7.92c1.604,0.396,3.155,0.845,4.56,1.44c2.266-0.52,4.115,0.042,6.48-0.24
	c2.548-0.992,4.384-4.061,6.96-3.84c1.079,0.093,1.485,1.399,2.88,0.72C56.832,21.292,58.998,21.606,60.415,22.669z M40.255,31.79
	c4.052-1.084,6.421,0.878,9.36,2.16C49.3,30.444,41.964,27.4,40.255,31.79z M47.455,34.669c-6.018-4.599-9.275,8.601-3.6,11.76
	C52.742,49.238,51.337,37.637,47.455,34.669z M62.095,48.35c1.263-0.178,1.398-1.482,2.64-1.68c0.593,0.901,0.542,1.817,0.721,2.64
	c1.372-0.463,0.582-2.029,0.72-3.36c0.427-0.454,1.759-0.001,1.68-0.96C65.271,44.552,62.45,45.776,62.095,48.35z M55.375,69.229
	c0.754,0.034,0.824-0.615,0.96-1.2C55.58,67.995,55.51,68.645,55.375,69.229z"/>
<path fill-rule="evenodd" clip-rule="evenodd" fill="#C1BEBE" d="M47.695,84.35c-0.116-1.671,0.763-4.331,1.2-6.24
	c1.013,1.067,1.397,2.763,2.64,3.601c-0.283,0.757-0.747,1.333-1.2,1.92c-0.868,0.571-1.391,1.488-1.92,2.399
	c-0.033,0.447-0.158,0.803-0.48,0.96C47.386,86.579,47.847,85.157,47.695,84.35z"/>
<path fill-rule="evenodd" clip-rule="evenodd" fill="#C1BEBE" d="M61.615,75.949c1.411,4.229,0.996,9.2-1.44,11.28
	c-0.477,0.003-0.305,0.655-0.96,0.48c0.041-0.602-0.369-0.752-0.72-0.96c-1.333-1.628-2.998-2.923-4.32-4.561
	c0.353-0.928,1.409-1.15,2.16-1.68c0.08,0,0.16,0,0.24,0c0.769-1.151,1.928-1.912,2.64-3.12c0.017-0.704,0.549-0.892,0.96-1.2
	C60.752,75.706,61.183,74.672,61.615,75.949z"/>
<path fill-rule="evenodd" clip-rule="evenodd" fill="#C1BEBE" d="M47.695,84.35c0.152,0.808-0.309,2.229,0.24,2.64
	C47.333,87.729,47.215,84.691,47.695,84.35z"/>
<path fill-rule="evenodd" clip-rule="evenodd" fill="#23211F" d="M50.815,87.47c0.353,0.45,0.415,1.915,0.24,2.16
	C50.682,89.347,50.705,87.441,50.815,87.47z"/>
<path fill-rule="evenodd" clip-rule="evenodd" fill="#23211F" d="M52.015,89.39c-0.127-0.193-0.25-0.39-0.24-0.72
	c0.194-0.046,0.239-0.241,0.48-0.24c0.308,0.622,1.435-0.185,1.44,0.24c0.035,0.595,0.045,1.164-0.48,1.199
	C52.449,90.075,52.473,89.492,52.015,89.39z"/>
<path fill-rule="evenodd" clip-rule="evenodd" fill="#516381" d="M46.735,89.869c0,0.721,0,1.44,0,2.16c-0.08,0-0.16,0-0.24,0
	c-0.401,1.278-0.694,1.852-0.72,3.84c-1.262,0.179-1.896,0.985-3.12,1.2c-0.309-0.747-1.347,0.604-1.44-0.479
	c0.423-0.452,0.743,0.328,0.96-0.48c-0.233-0.007-0.186-0.294-0.24-0.479c-1.242,0.692-1.292-1.052-2.64-0.96c0-0.08,0-0.16,0-0.24
	c-0.211-0.669-0.3-1.461-0.72-1.92c0.127-0.193,0.25-0.39,0.24-0.72c0.08,0,0.16,0,0.24,0c0.841-2.644,1.235-6.622,2.64-9.36
	c0.876-0.725,1.799-1.401,3.12-1.68c1.117,0.254,1.335-1.185,2.16-0.48c0,0.08,0,0.16,0,0.24c-0.08,0-0.16,0-0.24,0
	c-0.253,0.249-0.496,1.714,0,1.92c0,0.08,0,0.16,0,0.24c-0.08,0-0.16,0-0.24,0c-0.016,1.424-0.625,2.255-0.72,3.6
	c0.16,0,0.32,0,0.48,0c0,0.08,0,0.16,0,0.24c-0.08,0-0.16,0-0.24,0C45.505,87.675,46.155,89.069,46.735,89.869z M43.615,95.63
	c0.01-0.73,0.14-1.58-0.72-1.44C42.766,95.038,43.098,95.426,43.615,95.63z"/>
<path fill-rule="evenodd" clip-rule="evenodd" fill="#B57A27" d="M54.895,91.31c0,0.24,0,0.48,0,0.72
	c-0.992,0.244-1.884-0.122-3.36,0c0.099-0.578-0.438-0.521-0.24-1.2c0.422,0.059,0.547,0.413,0.48,0.961
	c1.294-0.26,1.245-0.081,2.88,0C54.708,91.604,54.662,91.316,54.895,91.31z"/>
<path fill-rule="evenodd" clip-rule="evenodd" fill="#23211F" d="M55.855,94.909c0.552,0.568,0.086,2.154,0.24,3.12
	C55.543,97.462,56.009,95.876,55.855,94.909z"/>
<path fill-rule="evenodd" clip-rule="evenodd" fill="#C1BEBE" d="M59.695,99.47c0.155-1.125-0.314-2.874,0.239-3.601
	C59.779,96.994,60.249,98.743,59.695,99.47z"/>
<path fill-rule="evenodd" clip-rule="evenodd" fill="#23211F" d="M53.695,98.27c0.392-0.108,0.392,1.309,0,1.2
	c-0.383,0.588-1.987,1.271-1.92-0.24c0.427-0.144,0.997,0.703,1.2,0C52.828,98.174,52.724,97.702,53.695,98.27z"/>
<path fill-rule="evenodd" clip-rule="evenodd" fill="#516381" d="M68.575,99.229c-0.632,0.624-0.189-0.388-0.96-0.24
	c0.116-0.283,0.256-0.544,0.479-0.72c0.675-0.045,0.657-0.783,1.2-0.96c0.054,1.003-0.391,1.134,0,1.92
	C68.882,99.324,68.68,98.873,68.575,99.229z"/>
<path fill-rule="evenodd" clip-rule="evenodd" fill="#C1BEBE" d="M59.695,99.47c-0.173,4.309-1.511,9.922-3.601,13.92
	c-0.56,0-1.12,0-1.68,0c0.905-1.637,1.014-5.141,1.44-6.48c0.552-0.567,0.086-2.153,0.24-3.119c0-0.48,0-0.961,0-1.44
	c0.399-0.887,0.399-3.434,0-4.32c-0.154-0.966,0.312-2.552-0.24-3.12c-0.808-1.894,0.901-4.871,1.2-7.199
	c0.241,0,0.286-0.194,0.48-0.24c0.017,0.703,0.548,0.892,0.96,1.2c0.515,0.284,0.56,1.039,0.96,1.439
	c-0.168,1.049,0.408,1.352,0.24,2.4c0.153,0.966-0.313,2.552,0.239,3.12c0,0.08,0,0.16,0,0.239
	C59.381,96.596,59.851,98.345,59.695,99.47z"/>
<path fill-rule="evenodd" clip-rule="evenodd" fill="#23211F" d="M48.655,103.069c0.154-0.966-0.312-2.552,0.24-3.12
	C48.741,100.916,49.207,102.502,48.655,103.069z"/>
<path fill-rule="evenodd" clip-rule="evenodd" fill="#C1BEBE" d="M48.895,103.55c-0.551,0.489-0.087,1.993-0.24,2.88
	c0,0.08,0,0.16,0,0.24c0,0.56,0,1.12,0,1.68c0.156,1.283-0.315,3.195,0.24,4.08c0.503,0.066-0.348,0.641,0.24,0.96
	c-0.56,0-1.12,0-1.68,0c-0.018-1.022-0.401-1.679-0.24-2.88c0-0.8,0-1.601,0-2.4c0-0.16,0-0.319,0-0.479
	c-0.156-1.284,0.315-3.195-0.24-4.08c0.526-6.842-0.306-12.071,1.92-16.08c1.01-0.37,0.038,1.242,0.72,1.2
	c1.604,3.849,0.123,7.43-0.72,11.279c-0.552,0.568-0.086,2.154-0.24,3.12C48.654,103.311,48.849,103.355,48.895,103.55z"/>
<path fill-rule="evenodd" clip-rule="evenodd" fill="#23211F" d="M46.975,103.55c0.555,0.885,0.084,2.796,0.24,4.08
	C46.66,106.745,47.131,104.833,46.975,103.55z"/>
<path fill-rule="evenodd" clip-rule="evenodd" fill="#23211F" d="M56.095,103.79c-0.154,0.966,0.312,2.552-0.24,3.119
	C56.009,105.943,55.543,104.357,56.095,103.79z"/>
<path fill-rule="evenodd" clip-rule="evenodd" fill="#4D3425" d="M49.855,104.989c0.188,1.406,0.061,2.994,0,4.561
	C49.456,108.583,49.456,105.956,49.855,104.989z"/>
<path fill-rule="evenodd" clip-rule="evenodd" fill="#23211F" d="M48.895,112.43c-0.555-0.885-0.084-2.797-0.24-4.08
	c0.146,0.014,0.284,0.036,0.24,0.24C48.895,109.869,48.895,111.149,48.895,112.43z"/>
<path fill-rule="evenodd" clip-rule="evenodd" fill="#23211F" d="M47.215,108.109c0,0.8,0,1.601,0,2.4
	C46.817,110.251,46.817,108.368,47.215,108.109z"/>
<path fill-rule="evenodd" clip-rule="evenodd" fill="#23211F" d="M66.655,111.229c0.096-0.624,0.716-0.724,0.72-1.439
	c0.987,0.308-0.407,2.064-0.96,2.399C66.361,111.735,66.686,111.66,66.655,111.229z"/>
<path fill-rule="evenodd" clip-rule="evenodd" fill="#B57A27" d="M50.095,113.39c-0.093-1.792-0.217-2.228-0.24-3.84
	c0.061-1.566,0.188-3.154,0-4.561c0.448-0.427-0.195-0.609,0-1.439c0.241,0.001,0.286-0.194,0.48-0.24c0,0.48,0,0.96,0,1.44
	c1.181,1.105,3.862,0.013,2.88-1.681c-1.046-0.325-0.868,0.572-1.44,0.721c-0.038-0.283,0.041-0.682-0.24-0.721
	c-0.512-0.664-1.307,0.444-1.44-0.479c0.307-0.014,0.333-0.308,0.72-0.24c0.24,0,0.48,0,0.72,0c0.076-0.324,0.342-0.458,0.24-0.96
	c-0.31-0.331-1.042-0.237-1.68-0.24c0.318-0.722,0.067-0.838,0.24-1.92c0.651,0.172-0.172-1.132,0.48-0.96
	c0.183,0.377,0.761,0.358,0.72,0.96c0,0.32,0,0.64,0,0.96c0.943,0.484,1.914,0.551,2.16-0.72c0.392,0.108,0.392-1.309,0-1.2
	c-0.063-0.97-1.081-0.705-1.44-0.24c0.305-1.104-1.217-0.383-1.44-0.96c0-0.08,0-0.16,0-0.24c0.033-0.446,0.158-0.802,0.48-0.96
	c0.018,1.035,1.583,0.783,1.92,0.24c0.164-0.865-1.273-0.65-0.48-1.439c0.08,0,0.16,0,0.24,0c-0.157-1.089-0.885-0.625-1.44-0.24
	c0-0.24,0-0.48,0-0.72c0.321-0.239,0.472-0.649,0.96-0.721c2.453-0.267,1.513,1.647,2.16,2.88c0.155,1.125-0.314,2.874,0.24,3.601
	c0,1.2,0,2.399,0,3.6c0,0.08,0,0.16,0,0.24c-0.333,1.961-0.519,3.875-0.48,5.28c0,0.08,0,0.16,0,0.24
	c-0.407,1.24-1.009,3.406-0.72,4.56C52.495,113.39,51.295,113.39,50.095,113.39z M52.975,101.149
	c-0.013,0.307-0.308,0.333-0.24,0.72c0.474,0.445,1.767,0.357,1.44-0.72C53.775,101.149,53.375,101.149,52.975,101.149z"/>
<path fill-rule="evenodd" clip-rule="evenodd" fill="#516381" d="M80.814,113.39c0.034-2.621-0.247-4.898,0.24-7.44
	c0.27,0.024,0.374-0.349,0.48,0c0.13,1.63,0.526,2.994,0.72,4.561c-0.918-0.218-0.219,2.333,0,2.88
	C81.774,113.39,81.295,113.39,80.814,113.39z"/>
<path fill-rule="evenodd" clip-rule="evenodd" fill="#516381" d="M60.415,113.39c-1.04,0-2.08,0-3.12,0c0-0.16,0-0.32,0-0.48
	c2.009-1.591,1.868-5.332,3.6-7.199c0.282,0.636-0.46,1.413,0,1.439c0.356-0.284,0.374-0.906,0.721-1.2
	c0.301,0.099,0.49,0.31,0.479,0.721c-0.752,0.047-0.2,1.399-0.72,1.68c-0.494-0.066-0.227-0.895-0.72-0.96
	c-0.254,0.793-0.951,1.891,0.239,2.16c-1.224-0.475-1.119,1.013-0.72,1.439c-0.578-0.098-0.521,0.438-1.2,0.24c0,0.4,0,0.8,0,1.2
	c0.907,0.348,0.461-0.659,1.2-0.48C60.451,112.233,60.446,112.798,60.415,113.39z"/>
<path fill-rule="evenodd" clip-rule="evenodd" fill="#516381" d="M79.615,112.43c0.018,0.418-0.054,0.746-0.24,0.96
	c-0.4,0-0.8,0-1.2,0c-0.011-0.33,0.113-0.527,0.24-0.72c-0.413-0.095-0.615,0.355-0.72,0c0.02-0.78,0.123-1.477,0.479-1.92
	C79.023,110.941,78.854,112.15,79.615,112.43z"/>
<path fill-rule="evenodd" clip-rule="evenodd" fill="#C1BEBE" d="M59.695,92.51c0.552,0.567,0.086,2.154,0.239,3.12
	C59.383,95.062,59.849,93.476,59.695,92.51z"/>
<path fill-rule="evenodd" clip-rule="evenodd" fill="#C1BEBE" d="M56.095,98.029c0.399,0.887,0.399,3.434,0,4.32
	C56.095,100.909,56.095,99.47,56.095,98.029z"/>
<path fill-rule="evenodd" clip-rule="evenodd" fill="#843C25" d="M42.175,56.029c1.37,0.28,2.905-0.548,3.36,0.24
	c-0.521,0.598-1.809,0.431-2.16,1.2c-0.08,0-0.16,0-0.24,0c-4.267,0.903-6.063,1.415-10.08,0.96c-0.544-0.656-1.304-1.096-1.2-2.4
	c0.72,0,1.44,0,2.16,0C36.796,55.68,39.311,55.834,42.175,56.029z"/>
<path fill-rule="evenodd" clip-rule="evenodd" fill="#B57A27" d="M54.655,95.869c0.596,1.486,0.281,1.714,0.24,3.36
	c0,0.08,0,0.16,0,0.24C54.341,98.743,54.81,96.994,54.655,95.869z"/>
<path fill-rule="evenodd" clip-rule="evenodd" fill="#23211F" d="M33.775,38.029c0.583,0.138-0.113,1.553,0.72,1.44
	c0.474-0.167-0.059-1.339,0.48-1.44c0.771-0.21,0.498,0.623,0.96,0.72c0.107,1.387-0.106,2.454-0.72,3.12
	C32.999,42.417,32.854,39.113,33.775,38.029z"/>
<path fill-rule="evenodd" clip-rule="evenodd" fill="#23211F" d="M46.255,38.989c0.127-0.193,0.25-0.39,0.24-0.72
	c1.4-0.127,1.059,2.521,0.72,3.36c-0.712,0.946-1.953,0.205-2.4-0.48c-0.073-1.113,0.002-2.078,0.48-2.64
	c1.144-0.344-0.185,1.785,0.96,1.44C46.255,39.629,46.255,39.31,46.255,38.989z"/>
<path fill-rule="evenodd" clip-rule="evenodd" fill="#C1BEBE" d="M38.095,59.63c-0.039,0.278,0.053,0.427,0.24,0.479
	c1.153-0.675,3.329-1.582,3.6,0c0,0.4,0,0.8,0,1.2c-0.557,0.083-1.125,0.155-0.96,0.96c0.638,0.002,1.371-0.091,1.68,0.24
	c-0.699,0.677,0.718,0.299,0.48,1.2c-1.161,0.358-1.775,1.265-3.36,1.199c-0.651-0.148-1.905,0.305-2.16-0.239
	c0.198-0.679-0.338-0.622-0.24-1.2c0.176-0.225,0.436-0.364,0.72-0.48c0.431,0.031,0.562-0.238,0.48-0.72c-0.56,0-1.12,0-1.68,0
	c-0.08,0-0.16,0-0.24,0c0.168-1.048-0.408-1.352-0.24-2.4C37.052,59.867,37.786,59.96,38.095,59.63z"/>
</svg>
