<?xml version="1.0" encoding="utf-8"?>
<!-- Generator: Adobe Illustrator 15.1.0, SVG Export Plug-In . SVG Version: 6.00 Build 0)  -->
<!DOCTYPE svg PUBLIC "-//W3C//DTD SVG 1.1//EN" "http://www.w3.org/Graphics/SVG/1.1/DTD/svg11.dtd">
<svg version="1.1" id="Ebene_1" xmlns="http://www.w3.org/2000/svg" xmlns:xlink="http://www.w3.org/1999/xlink" x="0px" y="0px"
	 width="113.39px" height="113.39px" viewBox="0 0 113.39 113.39" enable-background="new 0 0 113.39 113.39" xml:space="preserve">
<path fill-rule="evenodd" clip-rule="evenodd" fill="#1D1E1B" d="M51.24,15.949c-0.793,0.647-2.427,0.454-3.84,0.48
	C47.865,15.455,50.018,16.167,51.24,15.949z"/>
<path fill-rule="evenodd" clip-rule="evenodd" fill="#1D1E1B" d="M50.04,26.75c-0.978,0.018-1.011-0.909-1.2-1.68
	c-1.633,0.047-1.389,1.971-3.12,1.92c0.951-1.049,1.839-2.161,2.88-3.12C49.468,24.441,49.418,25.931,50.04,26.75z"/>
<path fill-rule="evenodd" clip-rule="evenodd" fill="#3E4F2B" d="M73.56,24.109c1.276,0.061,1.273,1.1,0.721,1.92
	C74.043,25.387,73.609,24.939,73.56,24.109z"/>
<path fill-rule="evenodd" clip-rule="evenodd" fill="#3E4F2B" d="M72.36,24.349c0.239,0,0.479,0,0.72,0c0,0.64,0,1.28,0,1.92
	C72.04,26.43,72.434,25.155,72.36,24.349z"/>
<path fill-rule="evenodd" clip-rule="evenodd" fill="#1D1E1B" d="M78.6,25.789c-0.332-0.147-0.036-0.924-0.479-0.96
	c0.624-0.608,1.171,0.897,1.2,1.68c-0.343-0.058-0.405-0.395-0.721-0.48C78.6,25.949,78.6,25.869,78.6,25.789z"/>
<path fill-rule="evenodd" clip-rule="evenodd" fill="#B53321" d="M45.24,29.629c-0.188-1.093-1.469-1.091-1.68-2.16
	c2.79,0.47,3.834-0.805,4.8-2.16c0.42,0.54,0.57,1.35,0.96,1.92c0.64,0,1.28,0,1.92,0c0.05,0.29,0.266,0.147,0.48,0
	c0.458,0.599,1.042-0.299,1.68,0.24c-0.609,1.15-1.962,1.558-2.88,2.4c0.143,0.498-0.297,1.577,0.24,1.68c0,0.16,0,0.32,0,0.48
	c-1.016,0.759-2.538-1.736-3.6-0.24c-0.08,0-0.16,0-0.24,0c-0.876,0.05-1.645,1.061-2.4,0.48
	C44.854,31.635,45.545,30.107,45.24,29.629z"/>
<path fill-rule="evenodd" clip-rule="evenodd" fill="#323026" d="M54.12,26.509c0.028,0.11-1.877,0.133-2.16-0.24
	C52.785,26.167,53.406,26.028,54.12,26.509z"/>
<path fill-rule="evenodd" clip-rule="evenodd" fill="#3E4F2B" d="M74.04,26.27c0.61,0.029,0.931,0.349,0.96,0.96
	c-0.377,0.103-0.205,0.755-0.96,0.48C74.04,27.229,74.04,26.75,74.04,26.27z"/>
<path fill-rule="evenodd" clip-rule="evenodd" fill="#1D1E1B" d="M44.04,26.509c0.32,0,0.64,0,0.96,0
	c0.241-0.001,0.286,0.194,0.48,0.24c-0.182,0.875-0.766-0.023-1.68,0.24C43.799,26.749,43.994,26.704,44.04,26.509z"/>
<path fill-rule="evenodd" clip-rule="evenodd" fill="#3E4F2B" d="M69.48,26.509c0.698,1.306-0.025,1.917,0.72,3.6
	C68.917,29.498,69.322,27.449,69.48,26.509z"/>
<path fill-rule="evenodd" clip-rule="evenodd" fill="#3E4F2B" d="M72.6,26.75c0.819,0.647,0.175,2.036,0.24,3.12
	C71.938,29.572,72.407,27.445,72.6,26.75z"/>
<path fill-rule="evenodd" clip-rule="evenodd" fill="#3E4F2B" d="M68.28,29.629c0.267,0.753,0.112,0.634-0.24,1.2
	c-0.431,0.031-0.506-0.293-0.96-0.24C67.046,29.835,67.695,29.765,68.28,29.629z"/>
<path fill-rule="evenodd" clip-rule="evenodd" fill="#364328" d="M52.92,33.229c0.632-0.073,0.788,0.332,0.72,0.96
	c-0.24,0-0.48,0-0.72,0C52.92,33.869,52.92,33.549,52.92,33.229z"/>
<path fill-rule="evenodd" clip-rule="evenodd" fill="#364328" d="M59.64,33.229c0.694,0.106,1.095,0.506,1.2,1.2
	c-0.307-0.333-1.133-0.147-1.439-0.48C59.527,33.756,59.65,33.56,59.64,33.229z"/>
<path fill-rule="evenodd" clip-rule="evenodd" fill="#364328" d="M58.2,34.669c0.388-0.068,0.413,0.227,0.72,0.24
	c-0.027,0.612-0.045,1.235-0.72,1.2C57.752,35.683,58.395,35.5,58.2,34.669z"/>
<path fill-rule="evenodd" clip-rule="evenodd" fill="#3E4F2B" d="M64.92,35.629c0,0.32,0,0.64,0,0.96
	C63.996,36.778,63.996,35.44,64.92,35.629z"/>
<path fill-rule="evenodd" clip-rule="evenodd" fill="#364328" d="M45.24,37.549c-0.717,0.483-1.694,0.706-2.88,0.72
	c0-0.08,0-0.16,0-0.24C43.601,38.15,43.92,37.35,45.24,37.549z"/>
<path fill-rule="evenodd" clip-rule="evenodd" fill="#3E4F2B" d="M49.56,37.549c-0.15,0.57-0.323,1.117-0.96,1.2
	C48.121,38.242,48.524,37.263,49.56,37.549z"/>
<path fill-rule="evenodd" clip-rule="evenodd" fill="#3E4F2B" d="M64.44,38.27c0.319-0.683,1.066,0.185,1.439,0.24
	C65.56,39.192,64.813,38.324,64.44,38.27z"/>
<path fill-rule="evenodd" clip-rule="evenodd" fill="#364328" d="M60.6,38.989c0.579-0.098,0.522,0.438,1.2,0.24
	c-0.621,0.608-0.838,1.088-0.479,2.16c-0.377-0.103-0.205-0.755-0.96-0.48c0.173-0.733-0.246-0.875-0.24-1.44
	C60.528,39.558,60.573,39.282,60.6,38.989z"/>
<path fill-rule="evenodd" clip-rule="evenodd" fill="#364328" d="M54.12,43.309c0.703,0.017,1.353,0.087,1.2,0.96
	C54.735,44.134,54.085,44.064,54.12,43.309z"/>
<path fill-rule="evenodd" clip-rule="evenodd" fill="#323026" d="M75.96,45.469c0.947-0.308,0.581,0.699,1.2,0.72
	c-0.035,0.524-0.604,0.515-1.2,0.48C75.96,46.27,75.96,45.869,75.96,45.469z"/>
<path fill-rule="evenodd" clip-rule="evenodd" fill="#8D7F53" d="M56.76,46.189c0.949-0.226,1.392-0.188,2.16,0.24
	c-0.46,0.288-2.199-0.192-3.36,0c0-0.08,0-0.16,0-0.24C55.96,46.189,56.36,46.189,56.76,46.189z"/>
<path fill-rule="evenodd" clip-rule="evenodd" fill="#323026" d="M68.52,53.629c0.398,0.336,0.398,2.304,0,2.64
	c0-0.48,0-0.96,0-1.44C68.52,54.429,68.52,54.029,68.52,53.629z"/>
<path fill-rule="evenodd" clip-rule="evenodd" fill="#8D7F53" d="M57.48,56.029c1.017-0.057,1.7,0.221,2.4,0.48
	C59.485,56.888,58.023,56.298,57.48,56.029z"/>
<path fill-rule="evenodd" clip-rule="evenodd" fill="#8D7F53" d="M34.92,68.749c0.098-0.148,0.274-1.23,0.72-0.239
	c-0.619,0.058,0.33,0.412,0,0.96c-0.532,0.132-0.342-0.459-0.72-0.48C34.92,68.909,34.92,68.829,34.92,68.749z"/>
<path fill-rule="evenodd" clip-rule="evenodd" fill="#C5C3C1" d="M51.24,73.549c0.198,0.1,0.84-0.74,1.2-0.239
	c0.008,0.435-1.208,0.835-1.2,0.479C51.24,73.709,51.24,73.629,51.24,73.549z"/>
<path fill-rule="evenodd" clip-rule="evenodd" fill="#C5C3C1" d="M44.04,74.029c0-0.24,0-0.48,0-0.72
	c0.751-0.111,1.071,0.208,0.96,0.96C44.546,74.323,44.471,73.999,44.04,74.029z"/>
<path fill-rule="evenodd" clip-rule="evenodd" fill="#C5C3C1" d="M48.36,74.27c0.899-0.141,0.726-0.18,1.92-0.24
	c0.013,0.413-0.185,0.615-0.48,0.72c-0.448,0.47-0.879,0.074-1.44,0C48.36,74.589,48.36,74.43,48.36,74.27z"/>
<path fill-rule="evenodd" clip-rule="evenodd" fill="#1D1E1B" d="M58.44,85.549c-0.32,0-0.641,0-0.96,0
	c0.256-0.691,0.728-0.795,1.44-0.479c0.001,0.241-0.194,0.285-0.24,0.479C58.6,85.549,58.52,85.549,58.44,85.549z"/>
<path fill-rule="evenodd" clip-rule="evenodd" fill="#364328" d="M72.36,89.149c0.067,0.628-0.088,1.032-0.721,0.96
	C71.572,89.481,71.728,89.077,72.36,89.149z"/>
<path fill-rule="evenodd" clip-rule="evenodd" fill="#3E4F2B" d="M77.64,91.549c0.603,0.464-0.362,1.382-0.96,1.44
	C76.445,91.955,77.582,92.291,77.64,91.549z"/>
<path fill-rule="evenodd" clip-rule="evenodd" fill="#1D1E1B" d="M46.44,96.109c2.964-4.795,3.122,4.392,0,0.24
	C46.44,96.27,46.44,96.189,46.44,96.109z M46.92,95.869c0.002,0.719,0.432,1.009,0.96,1.2c0.665-0.579,1.062-1.957-0.48-1.92
	C47.413,95.563,47.215,95.765,46.92,95.869z"/>
<path fill-rule="evenodd" clip-rule="evenodd" fill="#8D7F53" d="M47.4,95.629c0.24,0,0.48,0,0.72,0
	c0.102,0.502-0.165,0.636-0.24,0.96C47.458,96.531,47.333,96.177,47.4,95.629z"/>
<path fill-rule="evenodd" clip-rule="evenodd" fill="#3E4F2B" d="M67.08,95.869c-0.167,0.193-0.373,0.657,0,0.72
	c-0.221,0.42-0.75,0.53-1.44,0.48C65.419,95.968,66.147,95.816,67.08,95.869z"/>
<path fill-rule="evenodd" clip-rule="evenodd" fill="#3E4F2B" d="M82.2,102.109c-0.59-0.832-0.82-3.55,0-4.32
	C82.549,99.27,82.231,101.203,82.2,102.109z"/>
<path fill-rule="evenodd" clip-rule="evenodd" fill="#364328" d="M54.12,100.669c-0.561,0.939-1.498-0.144-1.68-0.96
	c0.341,0.021,0.68,0.04,0.72-0.239C53.493,99.856,53.655,100.414,54.12,100.669z"/>
<path fill-rule="evenodd" clip-rule="evenodd" fill="#364328" d="M52.68,101.629c0.61,0.029,0.931,0.35,0.96,0.96
	c-0.48,0-0.96,0-1.44,0C52.325,102.234,52.555,101.984,52.68,101.629z"/>
<path fill-rule="evenodd" clip-rule="evenodd" fill="#364328" d="M44.76,101.869c1.003,0.161,0.112,1.49-0.48,0.72
	C44.365,102.274,44.703,102.212,44.76,101.869z"/>
<path fill-rule="evenodd" clip-rule="evenodd" fill="#364328" d="M38.04,102.35c0.4,0,0.8,0,1.2,0
	c0.231,0.871-1.079,0.201-0.96,0.96C37.954,103.235,38.081,102.708,38.04,102.35z"/>
<path fill-rule="evenodd" clip-rule="evenodd" fill="#1D1E1B" d="M45.48,105.229c-0.438-1.951,0.835-2.95,2.16-2.4
	c0.371,0.349,0.211,1.229,0.24,1.92c0,0.08,0,0.16,0,0.24c-0.534,0.347-1.157,0.603-2.16,0.48
	C45.707,105.323,45.684,105.186,45.48,105.229z M46.68,104.749c0.907,0.206,0.849-1.074,0.48-1.439
	c-1.742-0.594-1.598,2.008-0.72,1.439C46.52,104.749,46.6,104.749,46.68,104.749z"/>
<path fill-rule="evenodd" clip-rule="evenodd" fill="#8D7F53" d="M46.44,104.749c-0.076-0.324-0.342-0.458-0.24-0.96
	c0.24,0,0.48,0,0.72,0c0.018,0.418-0.054,0.747-0.24,0.96C46.6,104.749,46.52,104.749,46.44,104.749z"/>
<path fill-rule="evenodd" clip-rule="evenodd" fill="#3E4F2B" d="M59.64,104.27c0.423,0.058,0.548,0.413,0.48,0.96
	c-0.24,0-0.48,0-0.72,0C59.299,104.728,59.564,104.594,59.64,104.27z"/>
<path fill-rule="evenodd" clip-rule="evenodd" fill="#3E4F2B" d="M53.64,104.51c0.193,0.127,0.39,0.25,0.72,0.239
	c0.047,0.688,0.03,1.311-0.72,1.2C53.76,105.194,53.117,105.011,53.64,104.51z"/>
<path fill-rule="evenodd" clip-rule="evenodd" fill="#323026" d="M48.12,109.549c0.143-0.497-0.297-1.576,0.24-1.68
	c-0.15,0.729,0.308,2.067-0.24,2.4C48.12,110.029,48.12,109.789,48.12,109.549z"/>
<path fill-rule="evenodd" clip-rule="evenodd" fill="#364328" d="M29.4,108.35c0.561,0.398,0.58,1.34,1.68,1.199
	c-0.215,0.825-1.946,0.135-1.44,1.681C28.551,110.785,29.75,109.533,29.4,108.35z"/>
<path fill-rule="evenodd" clip-rule="evenodd" fill="#3E4F2B" d="M37.56,108.589c0.281,0.359,0.997,0.283,0.96,0.96
	c-0.49-0.569-0.95,0.33-1.44-0.239C37.165,108.994,37.502,108.932,37.56,108.589z"/>
<path fill-rule="evenodd" clip-rule="evenodd" fill="#3E4F2B" d="M40.92,110.27c0.206,0.766-0.377,0.742-0.48,1.2
	c-0.422-0.059-0.547-0.413-0.48-0.96C40.174,110.323,40.502,110.251,40.92,110.27z"/>
<path fill-rule="evenodd" clip-rule="evenodd" fill="#364328" d="M29.16,111.47c0.872-0.073,0.32,1.279,0.72,1.68
	c-0.32,0-0.64,0-0.96,0C29.159,112.258,29.433,112.521,29.16,111.47z"/>
<path fill-rule="evenodd" clip-rule="evenodd" fill="#3E4F2B" d="M63.96,113.39c0.57-0.398,2.789-0.398,3.36,0
	C66.2,113.39,65.08,113.39,63.96,113.39z"/>
<path fill-rule="evenodd" clip-rule="evenodd" fill="#3E4F2B" d="M68.76,113.39c0.259-0.397,2.142-0.397,2.4,0
	C70.36,113.39,69.56,113.39,68.76,113.39z"/>
<path fill-rule="evenodd" clip-rule="evenodd" fill="#C5C3C1" d="M24.12,96.589c0.129-0.994,2.325-1.991,3.36-2.88
	c-0.203,0.758-1.237,0.683-1.44,1.44C25.212,95.441,24.593,95.942,24.12,96.589z"/>
<path fill-rule="evenodd" clip-rule="evenodd" fill="#C5C3C1" d="M17.88,106.43c0,0.319,0,0.64,0,0.96
	c-0.371,0.349-0.504,0.936-0.48,1.68C16.813,108.389,17.67,107.11,17.88,106.43z"/>
<path fill-rule="evenodd" clip-rule="evenodd" fill="#323026" d="M81.72,75.949c0.175,0.655-0.477,0.483-0.479,0.96
	c-1.464-0.514-3.813,0.542-5.28-0.24c-0.063-0.033-0.174,0.027-0.24,0c0.234-0.565,0.078-1.522,0.96-1.439
	c0.145,1.136,0.61,1.95,2.16,1.68c0.64-0.24,0.791-0.969,1.2-1.439c0.422,0.058,0.547,0.412,0.479,0.96
	C81.259,76.608,80.981,75.771,81.72,75.949z"/>
<path fill-rule="evenodd" clip-rule="evenodd" fill="#323026" d="M44.76,16.429c3.105-1.069,5.9-0.889,8.4-0.72
	c-0.104,0.537-1.183,0.097-1.68,0.24c2.066,0.654,4.75,0.69,6.96,1.2c-0.027-0.454-0.794-0.167-0.72-0.72
	c5.32,2.66,10.066,2.346,15.6,4.08c3.42,1.072,4.775,3.235,6.72,6.48c1.209,2.019,2.766,3.78,3.84,5.52
	c-1.285-0.234-1.123-1.917-2.16-2.4c0.144,1.779,2.793,3.125,3.12,5.52c-0.462-0.498-0.524-1.396-1.2-1.68
	c-0.937-1.783-2.171-3.269-3.359-4.8c0-0.08,0-0.16,0-0.24c0.692,0.107,0.567,1.033,1.2,1.2c-0.111-1.2-2.546-4.498-1.44-1.92
	c-0.55-0.331-0.563-1.196-1.2-1.44c0.067-0.388-0.227-0.414-0.24-0.72c0.315,0.085,0.378,0.422,0.721,0.48
	c-0.029-0.783-0.576-2.289-1.2-1.68c0.443,0.036,0.147,0.813,0.479,0.96c-0.637-1.042-1.596-1.763-2.159-2.88
	c-4.846-2.488-11.092-2.719-16.801-4.8c-2.509-0.915-7.146-2.045-11.04-1.44c-1.284-0.004-2.656-0.096-3.36,0.48
	c-2.598,0.762-4.2,2.521-5.52,4.56c-0.49,4.47-4.896,5.025-4.08,10.8c0.301,0.739,0.261,1.819,0.96,2.16c0,0.08,0,0.16,0,0.24
	c1.271,1.927,2.962,3.176,6,2.16c-4.155,1.942-8.005-2.002-7.2-7.44c0.237-1.599,1.338-2.306,2.88-4.56
	c1.837-2.687,1.904-5.6,4.32-7.2c1.234-0.817,2.521-0.292,2.64-1.44C45.08,16.429,44.92,16.429,44.76,16.429z M47.4,16.429
	c1.414-0.026,3.047,0.167,3.84-0.48C50.018,16.167,47.865,15.455,47.4,16.429z M58.92,17.389c0.502,0.138,0.686,0.595,1.44,0.48
	C60.599,17.13,58.137,17.145,58.92,17.389z"/>
<path fill-rule="evenodd" clip-rule="evenodd" fill="#364328" d="M45.24,17.149c0.704-0.576,2.076-0.484,3.36-0.48
	C47.767,17.116,46.226,16.854,45.24,17.149z"/>
<path fill-rule="evenodd" clip-rule="evenodd" fill="#323026" d="M53.64,15.709c1.114,0.406,2.887,0.152,3.84,0.72
	c-1.466,0.026-2.725-0.155-3.84-0.48C53.64,15.869,53.64,15.789,53.64,15.709z"/>
<path fill-rule="evenodd" clip-rule="evenodd" fill="#1D1E1B" d="M44.76,16.429c0.16,0,0.32,0,0.48,0
	c-0.119,1.148-1.406,0.623-2.64,1.44c-2.416,1.6-2.483,4.514-4.32,7.2c-1.542,2.254-2.643,2.961-2.88,4.56
	c-0.805,5.438,3.045,9.382,7.2,7.44c1.741-0.782,2.875-0.689,5.28-0.72c3.595-0.075,6.802,0.239,9.84,0.72
	c2.312,0.087,3.92,0.88,5.76,1.44c2.635,1.205,5.727,1.953,8.159,3.36c0.83-0.19,1.014,0.267,1.44,0.48
	c2.092,1.269,4.268,2.453,6.24,3.84c2.792-0.808,4.809-2.392,5.52-5.28c-0.173-0.733,0.245-0.875,0.24-1.44
	c0.497-1.271,0.174-2.451-0.24-3.36c0-0.16,0-0.32,0-0.48c-0.327-2.395-2.977-3.741-3.12-5.52c1.037,0.483,0.875,2.166,2.16,2.4
	c0.913,1.487,2.067,2.733,2.16,5.04c0.268,1.688-0.669,3.654-1.2,5.28c-0.281,0.359-0.298,0.982-0.72,1.2
	c-0.998,0.922-2.295,1.545-3.36,2.4c-0.472,0.648-2.099,0.141-1.92,1.44c-0.08,0-0.16,0-0.24,0c0.247,1.354,1.287,1.914,2.16,2.64
	c1.609,1.751,2.646,4.074,3.12,6.96c0.531,2.983,0.498,7.285,0.48,10.08c0,0.16,0,0.32,0,0.48c-0.635,0.646-0.676,1.885-0.721,3.12
	c-0.112,2.127-0.754,3.726-1.92,4.8c-0.738-0.179-0.461,0.659-1.2,0.48c0.067-0.548-0.058-0.902-0.479-0.96
	c-0.409,0.471-0.561,1.199-1.2,1.439c-1.55,0.271-2.016-0.544-2.16-1.68c-0.882-0.083-0.726,0.874-0.96,1.439
	c-0.41,2.07-1.662,3.298-3.84,3.601c-1.444-0.005-2.401,0.479-3.36,0.96c-0.006,0.233-0.293,0.187-0.479,0.24
	c0.465,2.015,2.444,2.515,2.88,4.56c0.106,0.214,0.211,0.43,0.48,0.48c-0.35,0.711-0.937-0.316-1.681,0
	c-0.773,0.346-1.064,1.175-1.439,1.92c-0.502,1.018-1.278,1.762-1.92,2.64c0,0.08,0,0.16,0,0.24
	c-0.346,0.134-0.586,0.374-0.721,0.72c-1.716,1.645-3.402,3.317-5.76,4.32c-1.459,0.211-4.661-8.323-6.24-8.16
	c-1.193,0.123-1.085,2.688-1.68,4.08c0.077,0.557-0.039,0.921-0.24,1.2c-0.717,1.282-0.862,3.138-1.2,4.8c0,0.08,0,0.16,0,0.24
	c-0.318,0.572-0.697,2.329-0.48,2.64c-0.014,2.345-0.55,4.623-0.72,6.72c-0.394,0.34-0.318,2.384-0.24,2.4c0,0.24,0,0.479,0,0.72
	c-0.612,0.268,0.096,1.856-0.48,2.16c-0.687-0.033-0.439-1.001-0.48-1.68c-0.451-0.458,0.142-0.435,0-1.2
	c0.547-0.333,0.089-1.671,0.24-2.4c-0.424-0.401,0.213-0.804,0-1.68c0-0.08,0-0.16,0-0.24c0.649-0.471-0.146-2.387,0.48-2.88
	c0.369-0.751,0.382-1.858,0.48-2.88c0.029-0.691-0.131-1.571,0.24-1.92c0.451-0.829,0.357-2.203,0.72-3.12
	c-0.121-1.241,0.68-1.561,0.48-2.88c0-0.08,0-0.16,0-0.24c0.444-0.036,0.147-0.813,0.48-0.96c0.442-0.838,0.953-1.606,0.96-2.88
	c-1.799,0.441-3.303,1.177-4.32,2.399c-0.08,0-0.16,0-0.24,0c-2.292,0.829-3.257,2.983-6,3.36c0.039-0.279-0.053-0.427-0.24-0.479
	c-0.11-1.711,0.135-3.065,0.48-4.32c0.933-0.952,0.198-2.246,0.96-3.12c0.502-0.378,0.422-1.338,0.96-1.68
	c0.637,0.076-0.224-1.345,0.72-0.96c0.204-0.045,0.227,0.093,0.24,0.239c-0.153,1.246-1.806,2.965-1.68,5.28c0,0.4,0,0.8,0,1.2
	c0,0.08,0,0.16,0,0.24c-0.379,0.42-0.321,1.278-0.48,1.92c0.778,0.86,3.832-1.814,5.04-2.88c0.204,0.044,0.226-0.094,0.24-0.24
	c0.16,0,0.32,0,0.48,0c1.175-0.825,2.884-1.116,3.84-2.16c-0.107-1.013-1.59-0.65-2.4-0.96c2.033-0.196,3.938-0.42,5.76-0.24
	c-0.654,0.467-2.006,0.234-2.64,0.721c2.77,2.51,4.746,5.813,6.96,8.88c1.671-0.49,2.91-1.41,3.84-2.641c0-0.08,0-0.16,0-0.239
	c1.388-1.093,2.412-2.548,3.36-4.08c0.046-0.194,0.24-0.239,0.24-0.48c0.784-0.896,1.596-1.764,2.64-2.4
	c-0.749-1.891-2.534-2.745-3.6-4.319c-2.343,1.257-3.761,3.439-6.96,3.84c2.729-1.59,5.875-2.765,7.199-5.76
	c0.346-0.135,0.586-0.375,0.721-0.721c2.184-2.119,3.405-4.83,4.319-7.439c-0.392-0.568-1.408-0.511-1.92-0.96
	c0.211-0.216,2.062,0.274,2.4-0.48c0.224-0.256,0.885-0.074,0.72-0.72c-0.333-0.547-1.67-0.09-2.399-0.24
	c-0.37-0.956-1.407,0.62-1.44,0c-0.551-0.249,0.113-1.714-0.48-1.92c0.116-0.767-0.067-2.064-0.479-0.96
	c-1.379,0.301-1.741,1.619-3.12,1.92c-0.118-0.753,0.827-0.634,0.24-1.2c-0.039-0.278,0.053-0.427,0.24-0.479
	c0.621-0.898,1.07-1.97,1.439-3.12c0-0.08,0-0.16,0-0.24c1.046-1.274,1.201-3.438,1.44-5.52c0.325-0.075,0.199-0.601,0.239-0.96
	c0.398-0.336,0.398-2.304,0-2.64c0.113-1.937,0.058-2.567,0-4.56c0.132-0.349-0.28-1.241,0.24-1.2
	c-0.82-1.347-2.697-1.187-4.08-1.44c0.411-0.549,1.832-0.088,2.641-0.24c-0.241-1.279-1.66-1.38-2.641-1.92
	c-0.501,0.102-0.635-0.165-0.96-0.24c-0.66-0.62-1.511-1.049-2.64-1.2c-0.864,0.064-1.157-0.443-1.92-0.48
	c-0.933-0.667-2.419-0.781-3.84-0.96c-2.842-0.252-4.934-0.661-6.96-0.72c-1.897-0.448-4.381-0.239-6.48,0.24c-0.08,0-0.16,0-0.24,0
	c-1.849,0.151-3.278,0.722-4.8,1.2c0.438-0.682,1.666-0.574,1.92-1.44c1.47-0.161,0.328-2.307-0.24-2.64
	c-0.539-0.901-1.456-1.424-2.4-1.92c-1.532-1.345-2.585-4.629-1.44-7.2c0.735-0.545,1.033-1.526,1.44-2.4
	C38.92,23.07,39.602,17.511,44.76,16.429z M48.12,37.069c-2.564-0.164-4.427,0.374-6.24,0.96c-0.324,0.076-0.458,0.342-0.96,0.24
	c-1.182-0.019-0.474,0.941-0.48,1.68c1.475-0.125,2.866-0.303,4.8-0.48c9.27,0.293,18.492,2.379,24.72,6.48
	c0.508-0.724,1.354-0.04,2.16-0.72c-0.62,0.811,2.199,0.97,2.399,0.96c0.333-0.147,0.036-0.924,0.48-0.96
	c-0.571-1.558-2.616-2.165-4.08-2.88c-5.553-2.713-12.476-5.255-20.64-5.28C49.526,37.513,48.616,37.11,48.12,37.069z M75.96,46.669
	c0.596,0.035,1.165,0.044,1.2-0.48c-0.619-0.021-0.253-1.028-1.2-0.72C75.96,45.869,75.96,46.27,75.96,46.669z"/>
<path fill-rule="evenodd" clip-rule="evenodd" fill="#364328" d="M78.84,26.75c0.637,0.244,0.65,1.109,1.2,1.44
	c-0.067,0.388,0.227,0.413,0.24,0.72c0,0.08,0,0.16,0,0.24C79.717,28.432,79.329,27.54,78.84,26.75z"/>
<path fill-rule="evenodd" clip-rule="evenodd" fill="#364328" d="M83.64,33.949c0.676,0.284,0.738,1.182,1.2,1.68
	c0,0.16,0,0.32,0,0.48c-0.108,1.308,0.428,1.972,0.24,3.36c0.005,0.565-0.413,0.707-0.24,1.44c-1.02,2.42-2.735,4.145-5.28,5.04
	c-2.232-1.127-3.937-2.783-6.479-3.6c-0.427-0.213-0.61-0.67-1.44-0.48c-2.159-1.68-5.138-2.542-8.159-3.36
	c-1.84-0.56-3.448-1.353-5.76-1.44c-2.531-0.831-6.768-1.23-9.84-0.72c-2.404,0.031-3.539-0.062-5.28,0.72
	c-3.038,1.016-4.729-0.233-6-2.16c1.026,0.734,1.811,1.709,2.88,2.4c6.49-1.683,13.016-1.978,19.68-0.48
	c0.776,0.297,0.184-0.776,0.96-0.48c-0.27,1.069,0.737,0.863,1.2,1.2c-0.698-0.955-0.317-1.563,0-2.64
	c1.495,0.734,1.641-0.429,2.399,0.24c-0.149-0.57-0.322-1.117-0.96-1.2c0.382-0.659,0.339-1.741,0.721-2.4
	c1.145,0.055,0.384,2.016,1.68,1.92c0.271-0.395-1.185-1.904,0.479-2.16c-0.233,0.983,0.595,1.538,0,2.16
	c0.874,0.019,1.316-0.741,2.16,0.48c0.603-0.696-0.752-1.478-1.68-1.44c-0.091-1.432,0.819-1.739,0-2.88
	c-0.843,0.066,0.603,0.894-0.24,0.96c-0.16,0-0.32,0-0.479,0c-0.647-0.067-0.072-1.338-1.2-1.44c-0.755,0.44,0.807,0.813,0,1.2
	c-0.909-0.62-1.324-3.294,0-3.6c-0.354,0.474,0.03,1.747,0.24,2.4c0.572-0.657,0.928-0.998,1.68-0.96
	c0.079-0.891-1.398-1.466-1.44-1.44c-0.686-0.936,1.344-0.015,1.681,0.24c0.521,0.041,0.108-0.851,0.239-1.2
	c-0.523-0.153-0.763,0.681-0.72-0.24c1.203-0.083,1.518,0.722,1.92,1.44c0.657-0.383,0.269-1.812,0.72-2.4
	c0.894-0.252,0.471,0.81,0.961,0.96c0.985-0.856,0.439-2.135,0-3.36c1.87-0.299,1.519,2.73,1.199,3.84
	c1.597-0.415,0.313-2.206,0.96-2.88c1.529-1.479,2.345,1.131,4.08,0.96c0.245,0.315,0.235,0.885,0.48,1.2
	c0.235,0.673,0.641-0.348,0.96,0.24c1.532,5.731,8.785,8.088,6.72,15.84C85.656,39.883,84.649,35.542,83.64,33.949z M74.28,26.029
	c0.553-0.82,0.556-1.859-0.721-1.92C73.609,24.939,74.043,25.387,74.28,26.029z M73.08,26.27c0-0.64,0-1.28,0-1.92
	c-0.24,0-0.48,0-0.72,0C72.434,25.155,72.04,26.43,73.08,26.27z M74.04,27.709c0.755,0.275,0.583-0.377,0.96-0.48
	c-0.029-0.611-0.35-0.931-0.96-0.96C74.04,26.75,74.04,27.229,74.04,27.709z M70.2,30.109c-0.745-1.683-0.021-2.294-0.72-3.6
	C69.322,27.449,68.917,29.498,70.2,30.109z M72.84,29.869c-0.065-1.083,0.579-2.472-0.24-3.12
	C72.407,27.445,71.938,29.572,72.84,29.869z M67.08,30.589c0.454-0.054,0.529,0.271,0.96,0.24c0.353-0.566,0.507-0.446,0.24-1.2
	C67.695,29.765,67.046,29.835,67.08,30.589z M64.92,36.589c0-0.32,0-0.64,0-0.96C63.996,35.44,63.996,36.778,64.92,36.589z
	 M63.72,37.789c-0.404-0.299-1.331-1.301-1.68-0.24C62.363,37.729,63.716,38.083,63.72,37.789z M65.88,38.509
	c-0.373-0.055-1.12-0.923-1.439-0.24C64.813,38.324,65.56,39.192,65.88,38.509z"/>
<path fill-rule="evenodd" clip-rule="evenodd" fill="#364328" d="M35.64,32.509c0.542,0.498,0.75,1.331,0.96,2.16
	C35.901,34.328,35.941,33.248,35.64,32.509z"/>
<path fill-rule="evenodd" clip-rule="evenodd" fill="#3E4F2B" d="M35.64,32.509c-0.815-5.775,3.59-6.33,4.08-10.8
	c1.32-2.04,2.922-3.798,5.52-4.56c0.985-0.295,2.527-0.033,3.36-0.48c3.894-0.605,8.531,0.525,11.04,1.44
	c5.709,2.081,11.955,2.312,16.801,4.8c0.563,1.117,1.522,1.837,2.159,2.88c0,0.08,0,0.16,0,0.24c0.014,0.307,0.308,0.333,0.24,0.72
	c0.489,0.791,0.877,1.683,1.44,2.4c1.188,1.531,2.423,3.017,3.359,4.8c1.01,1.592,2.017,5.934,0.24,7.44
	c2.065-7.751-5.188-10.109-6.72-15.84c-0.319-0.588-0.725,0.433-0.96-0.24c-0.245-0.315-0.235-0.884-0.48-1.2
	c-1.735,0.171-2.551-2.438-4.08-0.96c-0.646,0.674,0.637,2.465-0.96,2.88c0.319-1.109,0.671-4.139-1.199-3.84
	c0.439,1.225,0.985,2.504,0,3.36c-0.49-0.15-0.067-1.212-0.961-0.96c-0.451,0.588-0.063,2.017-0.72,2.4
	c-0.402-0.718-0.717-1.523-1.92-1.44c-0.043,0.92,0.196,0.087,0.72,0.24c-0.131,0.349,0.281,1.241-0.239,1.2
	c-0.337-0.255-2.366-1.175-1.681-0.24c0.042-0.026,1.52,0.549,1.44,1.44c-0.752-0.038-1.107,0.303-1.68,0.96
	c-0.21-0.653-0.594-1.926-0.24-2.4c-1.324,0.306-0.909,2.98,0,3.6c0.807-0.387-0.755-0.76,0-1.2c1.128,0.102,0.553,1.373,1.2,1.44
	c0.159,0,0.319,0,0.479,0c0.843-0.066-0.603-0.894,0.24-0.96c0.819,1.141-0.091,1.448,0,2.88c0.928-0.038,2.282,0.744,1.68,1.44
	c-0.844-1.221-1.286-0.461-2.16-0.48c0.595-0.623-0.233-1.177,0-2.16c-1.664,0.256-0.209,1.766-0.479,2.16
	c-1.296,0.096-0.535-1.865-1.68-1.92c-0.382,0.659-0.339,1.741-0.721,2.4c0.638,0.083,0.811,0.63,0.96,1.2
	c-0.759-0.669-0.904,0.494-2.399-0.24c-0.317,1.077-0.698,1.685,0,2.64c-0.463-0.337-1.47-0.131-1.2-1.2
	c-0.776-0.296-0.184,0.777-0.96,0.48c-6.665-1.498-13.19-1.203-19.68,0.48c-1.069-0.69-1.854-1.666-2.88-2.4c0-0.08,0-0.16,0-0.24
	C36.39,33.84,36.183,33.007,35.64,32.509z M63.96,22.909c-0.146-0.014-0.284-0.036-0.24-0.24c0.424-0.217,0.743-0.537,0.96-0.96
	c-0.342-0.058-0.404-0.396-0.72-0.48c0.253,1.052-0.812,0.788-0.72,1.68C63.653,22.814,63.855,23.266,63.96,22.909z M46.44,33.229
	c0.861,0.061,0.879-0.721,1.68-0.72c1.452,0.548,2.059,1.941,3.84,2.16c1.046-0.952-0.067-2.647,0-4.08
	c0.917-1.724,3.706-1.574,3.6-4.32c-1.619-0.381-3.402-0.598-5.52-0.48c-0.313-0.807-0.329-1.911-0.96-2.4
	c-1.165-0.205-1.362,0.558-1.68,1.2c0,0.08,0,0.16,0,0.24c-1.072,1.648-4.355,1.085-6.24,1.92c-0.205,1.165,0.558,1.362,1.2,1.68
	c0.08,0,0.16,0,0.24,0c1.229,0.974,1.636,1.668,0.96,3.6c0,0.08,0,0.16,0,0.24c-0.514,0.493-0.763,1.251-0.48,1.92
	c0.186,0.054,0.473,0.006,0.48,0.24c1.059-0.221,1.909-0.65,2.64-1.2C46.28,33.229,46.36,33.229,46.44,33.229z M52.92,34.189
	c0.24,0,0.48,0,0.72,0c0.067-0.628-0.088-1.033-0.72-0.96C52.92,33.549,52.92,33.869,52.92,34.189z M59.4,33.949
	c0.307,0.333,1.133,0.147,1.439,0.48c-0.105-0.694-0.506-1.094-1.2-1.2C59.65,33.56,59.527,33.756,59.4,33.949z M58.2,36.109
	c0.675,0.035,0.692-0.588,0.72-1.2c-0.307-0.013-0.332-0.308-0.72-0.24C58.395,35.5,57.752,35.683,58.2,36.109z"/>
<path fill-rule="evenodd" clip-rule="evenodd" fill="#1D1E1B" d="M60.36,17.869c-0.755,0.115-0.938-0.342-1.44-0.48
	C58.137,17.145,60.599,17.13,60.36,17.869z"/>
<path fill-rule="evenodd" clip-rule="evenodd" fill="#364328" d="M63.24,22.909c-0.092-0.892,0.973-0.627,0.72-1.68
	c0.315,0.084,0.378,0.422,0.72,0.48c-0.217,0.423-0.536,0.743-0.96,0.96c-0.044,0.204,0.094,0.226,0.24,0.24
	C63.855,23.266,63.653,22.814,63.24,22.909z"/>
<path fill-rule="evenodd" clip-rule="evenodd" fill="#323026" d="M84.84,40.909c-0.711,2.889-2.728,4.472-5.52,5.28
	c-1.973-1.388-4.148-2.572-6.24-3.84c2.543,0.817,4.247,2.473,6.479,3.6C82.104,45.054,83.82,43.33,84.84,40.909z"/>
<path fill-rule="evenodd" clip-rule="evenodd" fill="#323026" d="M63.48,38.509c3.021,0.818,6,1.68,8.159,3.36
	C69.207,40.462,66.115,39.714,63.48,38.509z"/>
<path fill-rule="evenodd" clip-rule="evenodd" fill="#323026" d="M47.88,36.349c3.072-0.51,7.309-0.11,9.84,0.72
	C54.682,36.588,51.475,36.274,47.88,36.349z"/>
<path fill-rule="evenodd" clip-rule="evenodd" fill="#364328" d="M42.36,28.429c-0.642-0.318-1.405-0.515-1.2-1.68
	c1.884-0.835,5.167-0.272,6.24-1.92c-0.758,0.623-1.612,1.812-2.4,1.68c-0.32,0-0.64,0-0.96,0c-0.882,0.078-2.125-0.205-2.64,0.24
	C41.056,27.974,42.134,27.775,42.36,28.429z"/>
<path fill-rule="evenodd" clip-rule="evenodd" fill="#364328" d="M42.6,28.429c0.526,0.514,1.333,0.747,1.68,1.44
	c-0.253,0.707-0.33,1.59-0.72,2.16C44.236,30.098,43.829,29.403,42.6,28.429z"/>
<path fill-rule="evenodd" clip-rule="evenodd" fill="#364328" d="M43.56,32.27c-0.153,0.549-0.476,1.447,0,1.92
	c0.413,0.013,0.615-0.185,0.72-0.48c0.08,0,0.16,0,0.24,0c0.878,0.158,0.921-0.52,1.68-0.48c-0.731,0.549-1.582,0.979-2.64,1.2
	c-0.007-0.233-0.294-0.186-0.48-0.24C42.797,33.521,43.046,32.763,43.56,32.27z"/>
<path fill-rule="evenodd" clip-rule="evenodd" fill="#364328" d="M46.44,33.229c0.361-0.439,1.036-0.565,1.44-0.96
	c1.551,0.369,2.293,1.547,3.6,2.16c1.107-0.224,0.561-1.859,0.24-2.64c0-0.08,0-0.16,0-0.24c0-0.4,0-0.8,0-1.2
	c1.041-1.199,2.643-1.836,3.6-3.12c0.181-0.608-0.917-1.126-0.96-0.72c-0.08,0-0.16,0-0.24,0c-0.714-0.481-1.335-0.342-2.16-0.24
	c-0.08,0-0.16,0-0.24,0c-0.847-0.37-1.073,0.129-1.92-0.24c-0.219-0.82-0.36-1.719-0.72-2.4c-1.058-0.178-0.983,0.777-1.68,0.96
	c0.318-0.642,0.515-1.405,1.68-1.2c0.631,0.489,0.647,1.593,0.96,2.4c2.118-0.117,3.901,0.099,5.52,0.48
	c0.106,2.746-2.684,2.596-3.6,4.32c-0.067,1.433,1.046,3.128,0,4.08c-1.781-0.219-2.388-1.612-3.84-2.16
	C47.319,32.509,47.301,33.29,46.44,33.229z"/>
<path fill-rule="evenodd" clip-rule="evenodd" fill="#323026" d="M47.4,24.589c0.697-0.183,0.623-1.138,1.68-0.96
	c0.359,0.681,0.5,1.58,0.72,2.4c0.847,0.37,1.073-0.129,1.92,0.24c-0.06,0.302-0.478,0.242-0.48,0c-0.803,0.217-0.21,0.537,0,0.96
	c-0.64,0-1.28,0-1.92,0c-0.39-0.571-0.54-1.38-0.96-1.92c-0.965,1.355-2.01,2.63-4.8,2.16c0.211,1.069,1.493,1.067,1.68,2.16
	c-0.425-0.831-3.28-1.604-1.92-2.64c-0.181-0.47-1.775-0.358-1.68,0.24c0.695,1.145,2.314,1.365,2.88,2.64
	c0.073,1.14-1.799,3.542-0.24,3.84c-0.104,0.295-0.307,0.493-0.72,0.48c-0.476-0.473-0.153-1.371,0-1.92c0-0.08,0-0.16,0-0.24
	c0.39-0.57,0.466-1.454,0.72-2.16c-0.347-0.693-1.154-0.926-1.68-1.44c-0.08,0-0.16,0-0.24,0c-0.226-0.654-1.304-0.456-0.96-1.68
	c0.515-0.445,1.758-0.162,2.64-0.24c-0.046,0.194-0.241,0.239-0.24,0.48c0.914-0.263,1.499,0.635,1.68-0.24
	c-0.194-0.046-0.239-0.241-0.48-0.24c0.788,0.132,1.642-1.058,2.4-1.68C47.4,24.75,47.4,24.669,47.4,24.589z M48.6,23.869
	c-1.041,0.959-1.929,2.071-2.88,3.12c1.73,0.051,1.486-1.873,3.12-1.92c0.189,0.771,0.222,1.698,1.2,1.68
	C49.418,25.931,49.468,24.441,48.6,23.869z"/>
<path fill-rule="evenodd" clip-rule="evenodd" fill="#323026" d="M51.72,27.229c0.631-0.249,1.473-0.288,2.4-0.24
	c-0.367,2.273-3.75,1.53-3.36,4.56c-0.537-0.104-0.097-1.183-0.24-1.68c0.918-0.842,2.271-1.25,2.88-2.4
	C52.762,26.93,52.178,27.828,51.72,27.229z"/>
<path fill-rule="evenodd" clip-rule="evenodd" fill="#323026" d="M46.92,31.789c-0.158,0.608-2.896,1.502-2.4,0.48
	C45.275,32.85,46.044,31.839,46.92,31.789z"/>
<path fill-rule="evenodd" clip-rule="evenodd" fill="#1D1E1B" d="M45.24,29.629c0.305,0.478-0.386,2.005-0.72,2.64
	c-0.497,1.022,2.242,0.127,2.4-0.48c0.08,0,0.16,0,0.24,0c0.52,0.388,1.308-0.754,1.92,0.24c-1.378-0.13-3.274,0.954-4.56,1.68
	c-0.08,0-0.16,0-0.24,0c-1.559-0.298,0.313-2.701,0.24-3.84c-0.565-1.274-2.185-1.495-2.88-2.64c-0.095-0.598,1.499-0.71,1.68-0.24
	C41.96,28.025,44.815,28.798,45.24,29.629z"/>
<path fill-rule="evenodd" clip-rule="evenodd" fill="#323026" d="M54.36,26.509c0.043-0.406,1.141,0.112,0.96,0.72
	c-0.957,1.283-2.559,1.921-3.6,3.12c0,0.4,0,0.8,0,1.2c-0.809-2.491,2.56-2.878,3.36-4.56C54.904,26.765,54.644,26.625,54.36,26.509
	z"/>
<path fill-rule="evenodd" clip-rule="evenodd" fill="#1D1E1B" d="M80.04,28.189c-1.105-2.578,1.329,0.72,1.44,1.92
	c-0.633-0.167-0.508-1.093-1.2-1.2C80.267,28.603,79.973,28.577,80.04,28.189z"/>
<path fill-rule="evenodd" clip-rule="evenodd" fill="#323026" d="M84.84,36.109c0.414,0.909,0.737,2.089,0.24,3.36
	C85.268,38.082,84.731,37.417,84.84,36.109z"/>
<path fill-rule="evenodd" clip-rule="evenodd" fill="#323026" d="M84.84,42.829c0.531-1.626,1.468-3.592,1.2-5.28
	C86.683,39.396,85.857,41.844,84.84,42.829z"/>
<path fill-rule="evenodd" clip-rule="evenodd" fill="#323026" d="M80.76,46.429c1.065-0.855,2.362-1.478,3.36-2.4
	C83.467,45.296,82.319,46.069,80.76,46.429z"/>
<path fill-rule="evenodd" clip-rule="evenodd" fill="#323026" d="M78.84,47.869c0.188,1.252,1.391,1.489,1.92,2.4
	c0,0.08,0,0.16,0,0.24c-0.873-0.727-1.913-1.287-2.16-2.64C78.68,47.869,78.76,47.869,78.84,47.869z"/>
<path fill-rule="evenodd" clip-rule="evenodd" fill="#323026" d="M83.88,57.469c0.984,3.296,1.104,6.663,0.48,10.08
	C84.378,64.754,84.411,60.452,83.88,57.469z"/>
<path fill-rule="evenodd" clip-rule="evenodd" fill="#323026" d="M84.36,68.029c-0.109,1.171-0.348,2.213-0.721,3.12
	C83.685,69.914,83.726,68.676,84.36,68.029z"/>
<path fill-rule="evenodd" clip-rule="evenodd" fill="#323026" d="M68.52,81.229c0.959-0.481,1.916-0.965,3.36-0.96
	C70.881,80.71,69.872,81.142,68.52,81.229z"/>
<path fill-rule="evenodd" clip-rule="evenodd" fill="#323026" d="M70.92,86.029c3.929,2.151,8.948,3.212,12.96,5.28
	c-1.134-0.114-0.447,0.299-0.24,0.72c-1.527-1.032-3.566-1.553-5.52-2.16c-0.52-0.68-1.751-0.649-2.64-0.96
	c-1.548-0.772-3.1-1.541-5.04-1.92c-1.148-0.896-1.438,1.114-2.16,1.44c0.375-0.745,0.666-1.574,1.439-1.92
	c0.744-0.316,1.331,0.711,1.681,0C71.131,86.459,71.026,86.243,70.92,86.029z"/>
<path fill-rule="evenodd" clip-rule="evenodd" fill="#323026" d="M51.96,92.27c0.595-1.393,0.487-3.957,1.68-4.08
	c1.579-0.163,4.781,8.371,6.24,8.16c2.357-1.003,4.044-2.676,5.76-4.32c-0.523,0.756-1.264,1.296-1.68,2.16
	c-1.493,0.666-2.493,1.826-4.08,2.399c-1.084-0.275-1.35-1.37-1.92-2.159c-1.158-1.322-1.71-3.25-3.12-4.32
	c-0.045-0.194-0.241-0.239-0.24-0.48c-0.507-0.213-0.417-1.022-1.2-0.96c-0.419,0.221-0.53,0.751-0.48,1.44
	C52.478,90.707,52.341,91.61,51.96,92.27z"/>
<path fill-rule="evenodd" clip-rule="evenodd" fill="#323026" d="M51.72,93.47c-0.379,1.621-0.545,3.455-1.2,4.8
	C50.858,96.607,51.003,94.752,51.72,93.47z"/>
<path fill-rule="evenodd" clip-rule="evenodd" fill="#323026" d="M50.52,98.51c0,0.399,0,0.8,0,1.199
	c-0.539,0.102-0.006,1.273-0.48,1.44C49.823,100.839,50.202,99.082,50.52,98.51z"/>
<path fill-rule="evenodd" clip-rule="evenodd" fill="#323026" d="M49.32,107.869c-0.065,0.815,0.186,1.946-0.24,2.4
	C49.002,110.253,48.926,108.209,49.32,107.869z"/>
<path fill-rule="evenodd" clip-rule="evenodd" fill="#323026" d="M49.08,110.989c-0.049,0.751,0.162,1.762-0.24,2.16
	c0,0.08,0,0.16,0,0.24c-0.24,0-0.48,0-0.72,0c-0.053-0.45-0.619-1.591,0-1.92c0.041,0.679-0.207,1.646,0.48,1.68
	C49.176,112.846,48.468,111.257,49.08,110.989z"/>
<path fill-rule="evenodd" clip-rule="evenodd" fill="#323026" d="M48.84,101.629c0.474-0.166-0.059-1.339,0.48-1.439
	c-0.098,1.021-0.111,2.129-0.48,2.88C48.84,102.589,48.84,102.109,48.84,101.629z"/>
<path fill-rule="evenodd" clip-rule="evenodd" fill="#323026" d="M49.56,97.069c0.4-0.32,0.08-1.359,0.48-1.68c0-0.08,0-0.16,0-0.24
	c0.08,0,0.16,0,0.24,0c-0.363,0.917-0.269,2.291-0.72,3.12C49.56,97.869,49.56,97.47,49.56,97.069z"/>
<path fill-rule="evenodd" clip-rule="evenodd" fill="#323026" d="M47.88,90.589c1.017-1.223,2.521-1.958,4.32-2.399
	c-0.007,1.273-0.518,2.042-0.96,2.88c-0.012-1.132,0.774-1.466,0.72-2.64c-0.481-0.082-0.751,0.049-0.72,0.479
	C49.713,89.063,48.951,89.98,47.88,90.589z"/>
<path fill-rule="evenodd" clip-rule="evenodd" fill="#323026" d="M41.4,93.47c0.187,0.053,0.279,0.2,0.24,0.479
	c2.743-0.377,3.708-2.531,6-3.36c-0.681,0.839-1.796,1.244-2.64,1.921c-0.742,0.538-1.589,0.97-2.16,1.68
	C42.11,94.199,41.26,94.329,41.4,93.47z"/>
<path fill-rule="evenodd" clip-rule="evenodd" fill="#323026" d="M27.48,93.709c4.662-3.019,9.77-5.59,15.36-7.68
	c-0.762,0.874-0.027,2.168-0.96,3.12c-0.139-0.939,0.207-1.394,0.48-1.92c-3.812,0.835-8.123,3.23-11.52,5.28
	c-0.562,0.558-1.601,0.639-1.92,1.439c-1.219,0.221-1.769,1.111-2.64,1.68c0.039-0.278-0.053-0.427-0.24-0.479
	C26.243,94.392,27.277,94.467,27.48,93.709z"/>
<path fill-rule="evenodd" clip-rule="evenodd" fill="#323026" d="M42.6,92.27c0.27,0.632,0.93-0.322,1.2-0.48
	c0.655,0.175,0.483-0.477,0.96-0.479c1.025-0.576,1.817-1.383,2.88-1.92C46.432,90.455,43.378,93.13,42.6,92.27z"/>
<path fill-rule="evenodd" clip-rule="evenodd" fill="#323026" d="M47.16,84.589c5.731,1.534,9.832,0.67,15.359-1.68
	c0.644-0.157,0.913-0.688,1.44-0.96c0.794-0.807,1.896-1.304,2.4-2.4c-0.045-0.204,0.093-0.226,0.239-0.239
	c-1.324,2.995-4.47,4.17-7.199,5.76c3.199-0.4,4.617-2.583,6.96-3.84c1.065,1.574,2.851,2.429,3.6,4.319
	c-1.044,0.637-1.855,1.505-2.64,2.4c0.244-1.2,2.143-2.01,2.16-2.64c0.038-0.279-0.054-0.428-0.24-0.48
	c-0.542-0.738-0.887-1.674-1.92-1.92c-0.046-0.675-0.783-0.657-0.96-1.2c0-0.08,0-0.16,0-0.239c-1.521,0.56-2.233,1.926-3.601,2.64
	c-1.159,0.681-2.468,1.212-4.08,1.439c0.046-0.194,0.241-0.238,0.24-0.479c-0.712-0.315-1.184-0.212-1.44,0.479
	c0.32,0,0.64,0,0.96,0c-1.224,0.777-3.37,0.631-5.041,0.961c-0.01,0.41,0.179,0.621,0.48,0.72c1.416,1.305,2.522,2.918,3.84,4.319
	c0,0.08,0,0.16,0,0.24c0.391,1.369,1.694,1.826,1.919,3.36c1.922-0.238,2.822-1.498,4.08-2.4c-0.93,1.23-2.169,2.15-3.84,2.641
	c-2.214-3.066-4.19-6.37-6.96-8.88c0.634-0.486,1.986-0.254,2.64-0.721c-1.822-0.18-3.728,0.044-5.76,0.24
	c0.811,0.31,2.293-0.053,2.4,0.96c-0.956,1.044-2.665,1.335-3.84,2.16c0.067-0.493,0.641-0.479,0.96-0.72
	c0.382-0.65,3.417-0.965,1.92-1.92c-1.241,0.12-1.561-0.68-2.88-0.48c-0.633-0.808-2.233-0.646-2.88-1.44
	c-1.536,0.145-1.563,1.797-1.92,3.12c-0.668-0.107,0.188,1.309-0.48,1.2c-0.126-2.315,1.526-4.034,1.68-5.28
	c0.738,0.063,1.08,0.521,1.68,0.721C46.828,84.281,46.853,84.576,47.16,84.589z"/>
<path fill-rule="evenodd" clip-rule="evenodd" fill="#323026" d="M67.08,88.43c-0.948,1.532-1.973,2.987-3.36,4.08
	C64.8,91.109,65.947,89.777,67.08,88.43z"/>
<path fill-rule="evenodd" clip-rule="evenodd" fill="#323026" d="M72.12,69.709c-0.339,0.755-2.189,0.265-2.4,0.48
	c0.512,0.449,1.528,0.392,1.92,0.96c-0.914,2.609-2.136,5.32-4.319,7.439c-0.114-0.753,0.646-0.634,0.72-1.199
	c0.806-1.515,1.68-2.961,2.4-4.561c0.502-0.218,0.731-0.708,0.72-1.439c-1.572-0.349-2.299-1.542-2.88-2.88c0-0.561,0-1.12,0-1.681
	c0.08,0,0.16,0,0.239,0c0.594,0.206-0.07,1.671,0.48,1.92c0.033,0.62,1.07-0.956,1.44,0C68.684,69.362,70.828,70.015,72.12,69.709z"
	/>
<path fill-rule="evenodd" clip-rule="evenodd" fill="#323026" d="M68.04,65.869c-1.121,0.959-1.834,2.326-3.6,2.641
	c0-0.32,0-0.641,0-0.961c0.24-0.319,0.396-0.724,0.72-0.96c0.587,0.566-0.358,0.447-0.24,1.2
	C66.299,67.488,66.661,66.17,68.04,65.869z"/>
<path fill-rule="evenodd" clip-rule="evenodd" fill="#323026" d="M63.72,44.029c-0.955-0.245-1.563-0.837-2.64-0.96
	c0-0.08,0-0.16,0-0.24C62.209,42.98,63.06,43.41,63.72,44.029z"/>
<path fill-rule="evenodd" clip-rule="evenodd" fill="#323026" d="M59.16,42.349c-1.232-0.368-2.879-0.32-3.84-0.96
	C56.741,41.568,58.228,41.682,59.16,42.349z"/>
<path fill-rule="evenodd" clip-rule="evenodd" fill="#323026" d="M41.88,40.909c2.099-0.479,4.583-0.688,6.48-0.24
	C46.136,40.586,43.613,40.904,41.88,40.909z"/>
<path fill-rule="evenodd" clip-rule="evenodd" fill="#323026" d="M31.32,67.549c2.176-3.244,2.339-11.796,3.36-16.56
	c0.261-1.218,1.416-2.568,1.2-3.6c-0.354-1.688-2.787-1.557-3.12-2.88c1.083-2.198,3.883-2.677,6-3.84
	c-0.254,0.866-1.482,0.758-1.92,1.44c1.522-0.479,2.952-1.049,4.8-1.2c-1.726,0.754-4.08,0.88-5.52,1.92
	c-0.956,0.244-1.674,0.727-2.16,1.44c0.176,0.224,0.437,0.363,0.72,0.48c0.676,0.363,1.5,0.58,2.64,0.48
	c3.182,0.099,10.873,0.108,14.4-0.24c0.08,0,0.16,0,0.24,0c4.039-0.111,10.183,0.304,14.88,0.96c-0.263-0.857-1.302-0.938-1.92-1.44
	c-0.204,0.044-0.227-0.094-0.24-0.24c0.98,0.54,2.399,0.641,2.641,1.92c-0.809,0.152-2.229-0.31-2.641,0.24
	c1.383,0.253,3.26,0.093,4.08,1.44c-0.521-0.041-0.108,0.852-0.24,1.2c-0.079,0-0.159,0-0.239,0c0-0.32,0-0.64,0-0.96
	c0.175-0.655-0.478-0.483-0.48-0.96c-2.744-0.074-6.563-0.896-7.68-0.48c-0.278-0.202-0.644-0.317-1.2-0.24
	c-0.769-0.427-1.211-0.465-2.16-0.24c-0.259-0.397-2.141-0.397-2.4,0c-0.733-0.173-0.875,0.245-1.44,0.24c-0.08,0-0.16,0-0.24,0
	c-0.339-0.441-1.166,0.376-1.68-0.24c4.282-1.042,8.117-0.021,12.96,0c-8.514-2.283-20.722,0.592-29.76-1.2
	c2.134,0.976,1.717,2.703,0.96,5.76C33.845,56.061,34.052,64.902,31.32,67.549z"/>
<path fill-rule="evenodd" clip-rule="evenodd" fill="#323026" d="M36.12,36.109c0.944,0.496,1.861,1.019,2.4,1.92
	C37.491,37.619,36.717,36.952,36.12,36.109z"/>
<path fill-rule="evenodd" clip-rule="evenodd" fill="#323026" d="M36.12,26.509c-0.407,0.874-0.705,1.855-1.44,2.4
	C34.902,27.852,35.327,26.996,36.12,26.509z"/>
<path fill-rule="evenodd" clip-rule="evenodd" fill="#1D1E1B" d="M51.24,27.229c-0.21-0.423-0.803-0.743,0-0.96
	c0.002,0.242,0.42,0.302,0.48,0c0.08,0,0.16,0,0.24,0c0.283,0.373,2.188,0.35,2.16,0.24c0.08,0,0.16,0,0.24,0
	c0.284,0.116,0.544,0.256,0.72,0.48c-0.8,1.682-4.168,2.069-3.36,4.56c0,0.08,0,0.16,0,0.24c-0.166,0.965,0.23,1.37,0.24,2.16
	c-0.902,0.402-2.025-0.782-2.64-1.44c0.5-0.715,0.978,0.604,1.68,0.48c0.312-0.319,0.316-0.893-0.24-0.96c0-0.16,0-0.32,0-0.48
	c-0.39-3.03,2.994-2.287,3.36-4.56c-0.927-0.047-1.769-0.008-2.4,0.24C51.506,27.377,51.291,27.52,51.24,27.229z"/>
<path fill-rule="evenodd" clip-rule="evenodd" fill="#323026" d="M51.72,31.789c0.321,0.781,0.867,2.417-0.24,2.64
	c-1.307-0.613-2.049-1.791-3.6-2.16c-0.404,0.395-1.079,0.521-1.44,0.96c-0.08,0-0.16,0-0.24,0c-0.759-0.04-0.802,0.638-1.68,0.48
	c1.286-0.726,3.182-1.811,4.56-1.68c-0.612-0.995-1.4,0.147-1.92-0.24c1.062-1.496,2.583,0.999,3.6,0.24
	c0.557,0.067,0.552,0.641,0.24,0.96c-0.702,0.124-1.18-1.195-1.68-0.48c0.615,0.658,1.738,1.842,2.64,1.44
	C51.95,33.159,51.555,32.754,51.72,31.789z"/>
<path fill-rule="evenodd" clip-rule="evenodd" fill="#323026" d="M48.12,37.069c-0.259,0.701-2.141-0.221-2.4,0.48
	c-0.16,0-0.32,0-0.48,0c-1.32-0.2-1.639,0.601-2.88,0.48c-0.16,0-0.32,0-0.48,0C43.693,37.443,45.556,36.906,48.12,37.069z"/>
<path fill-rule="evenodd" clip-rule="evenodd" fill="#323026" d="M50.28,37.069c8.165,0.025,15.087,2.567,20.64,5.28
	c1.464,0.715,3.509,1.322,4.08,2.88c-0.444,0.036-0.147,0.813-0.48,0.96c-0.2,0.01-3.02-0.149-2.399-0.96
	c-0.807,0.68-1.652-0.004-2.16,0.72c-6.228-4.101-15.45-6.187-24.72-6.48c4.319-0.5,10.589,0.896,14.399,0.96
	c0.53-0.03,0.103-1.018,0.24-1.44C57.479,37.635,53.896,37.684,50.28,37.069z M60.12,39.469c-0.006,0.565,0.413,0.707,0.24,1.44
	c0.755-0.275,0.583,0.377,0.96,0.48c-0.358-1.072-0.142-1.551,0.479-2.16c-0.678,0.198-0.621-0.338-1.2-0.24
	C60.573,39.282,60.528,39.558,60.12,39.469z"/>
<path fill-rule="evenodd" clip-rule="evenodd" fill="#364328" d="M45.24,39.469c-1.935,0.177-3.325,0.355-4.8,0.48
	c0.006-0.739-0.702-1.699,0.48-1.68c-0.423,0.506-0.541,0.709-0.24,1.44c2.761-0.648,5.244-0.205,7.44-1.2
	c-0.013-0.307-0.308-0.333-0.24-0.72c-0.62-0.71-1.504,0.335-2.16-0.24c0.259-0.701,2.141,0.221,2.4-0.48
	c0.496,0.041,1.406,0.444,2.16,0c3.616,0.614,7.199,0.566,9.6,1.92c-0.138,0.422,0.29,1.41-0.24,1.44
	C55.829,40.366,49.559,38.969,45.24,39.469z M48.6,38.75c0.637-0.083,0.81-0.63,0.96-1.2C48.524,37.263,48.121,38.242,48.6,38.75z"
	/>
<path fill-rule="evenodd" clip-rule="evenodd" fill="#3E4F2B" d="M62.04,37.549c0.349-1.062,1.275-0.06,1.68,0.24
	C63.716,38.083,62.363,37.729,62.04,37.549z"/>
<path fill-rule="evenodd" clip-rule="evenodd" fill="#3E4F2B" d="M40.92,38.27c0.502,0.102,0.636-0.165,0.96-0.24
	c0.16,0,0.32,0,0.48,0c0,0.08,0,0.16,0,0.24c1.187-0.014,2.163-0.237,2.88-0.72c0.16,0,0.32,0,0.48,0
	c0.656,0.575,1.54-0.471,2.16,0.24c-0.067,0.388,0.227,0.414,0.24,0.72c-2.196,0.996-4.679,0.552-7.44,1.2
	C40.379,38.979,40.497,38.776,40.92,38.27z"/>
<path fill-rule="evenodd" clip-rule="evenodd" fill="#3E4F2B" d="M48.36,40.669c2.026,0.059,4.118,0.468,6.96,0.72
	c0.961,0.64,2.608,0.592,3.84,0.96c0.763,0.037,1.056,0.544,1.92,0.48c0,0.08,0,0.16,0,0.24c1.077,0.123,1.685,0.715,2.64,0.96
	c0.325,0.076,0.459,0.342,0.96,0.24c0.014,0.146,0.036,0.284,0.24,0.24c0.209,0.352,0.359,0.761,0.96,0.72
	c-2.956,0.45-6.096-0.477-8.64-0.72c-0.829,0.084,0.13-1.127-0.72-1.44c-1.011,0.299,0.023,0.984,0,1.68
	c-1.7-0.101-3.112,0.088-4.56,0.24c-0.08,0-0.16,0-0.24,0c-4.098-0.087-10.288-0.081-14.4,0.24c-1.14,0.1-1.963-0.117-2.64-0.48
	c-0.106-0.214-0.211-0.43-0.48-0.48c0.38-0.74,1.398-0.842,1.92-1.44c1.44-1.04,3.794-1.166,5.52-1.92c0.08,0,0.16,0,0.24,0
	C43.613,40.904,46.136,40.586,48.36,40.669z M55.32,44.27c0.153-0.873-0.497-0.943-1.2-0.96
	C54.085,44.064,54.735,44.134,55.32,44.27z"/>
<path fill-rule="evenodd" clip-rule="evenodd" fill="#364328" d="M64.92,44.509c0.618,0.502,1.657,0.583,1.92,1.44
	c-4.697-0.656-10.841-1.071-14.88-0.96c1.448-0.152,2.86-0.34,4.56-0.24c0.023-0.696-1.011-1.381,0-1.68
	c0.851,0.313-0.109,1.524,0.72,1.44c2.544,0.243,5.684,1.17,8.64,0.72C65.279,45.27,65.129,44.861,64.92,44.509z"/>
<path fill-rule="evenodd" clip-rule="evenodd" fill="#364328" d="M51.72,44.989c-3.528,0.349-11.219,0.339-14.4,0.24
	C41.432,44.908,47.623,44.902,51.72,44.989z"/>
<path fill-rule="evenodd" clip-rule="evenodd" fill="#364328" d="M36.12,42.829c-0.522,0.598-1.54,0.7-1.92,1.44
	c0.269,0.05,0.374,0.266,0.48,0.48c-0.284-0.117-0.544-0.256-0.72-0.48C34.446,43.556,35.164,43.073,36.12,42.829z"/>
<path fill-rule="evenodd" clip-rule="evenodd" fill="#323026" d="M37.56,47.149c-1.165,2.456-1.147,3.158-0.72,6.24
	C35.959,51.693,35.618,47.943,37.56,47.149z"/>
<path fill-rule="evenodd" clip-rule="evenodd" fill="#323026" d="M36.6,65.39c-1.709-1.626-1.568-6.504,0-8.16
	c0.173,0.733-0.246,0.874-0.24,1.439c-0.756,0.782-0.884,1.976-0.48,3.12C35.255,63.056,37.279,63.98,36.6,65.39z"/>
<path fill-rule="evenodd" clip-rule="evenodd" fill="#323026" d="M37.56,71.149c-0.562-0.251-1.005-1.859-0.48-2.4
	c-0.021,0.341-0.04,0.68,0.24,0.721C37.127,70.302,37.677,70.392,37.56,71.149z"/>
<path fill-rule="evenodd" clip-rule="evenodd" fill="#323026" d="M41.88,81.709c0.502-0.102,0.636,0.165,0.96,0.24
	c-1.177-2.515-3.573-5.051-3.84-7.68c0.624,0.976,1.038,2.162,1.68,3.12c0.916,1.563,1.732,3.228,2.88,4.56c0.08,0,0.16,0,0.24,0
	c0,0.16,0,0.32,0,0.48c0.135,0.346,0.375,0.585,0.72,0.72c0,0.08,0,0.16,0,0.24c-0.944-0.385-0.083,1.036-0.72,0.96
	C43.893,82.736,42.815,82.294,41.88,81.709z"/>
<path fill-rule="evenodd" clip-rule="evenodd" fill="#1D1E1B" d="M31.32,67.549c2.732-2.646,2.525-11.488,3.84-16.799
	c0.757-3.058,1.174-4.785-0.96-5.76c9.038,1.792,21.246-1.083,29.76,1.2c-4.843-0.021-8.678-1.042-12.96,0c-0.08,0-0.16,0-0.24,0
	c-3.417-0.393-8.847-0.493-11.28,0.24c-0.806,0.074-2.081-0.32-1.92,0.72c-1.942,0.793-1.601,4.544-0.72,6.24
	c0.572,1.073,0.023,2.831-0.24,3.84c-1.568,1.656-1.709,6.534,0,8.16c-0.034,1.313,0.277,2.282,0.48,3.359
	c-0.525,0.541-0.082,2.149,0.48,2.4c-0.175,0.654,0.477,0.483,0.48,0.96c0.186,0.773,0.501,1.418,0.96,1.92c0,0.08,0,0.16,0,0.24
	c0.267,2.629,2.663,5.165,3.84,7.68c-0.324-0.075-0.458-0.342-0.96-0.24c-3.431-0.249-4.443-2.917-5.28-5.76
	c-1.43-0.01-2.776-0.104-3.84-0.479c-1.01-0.961,0.116-2.782-0.24-4.561c-0.204-0.044-0.227,0.094-0.24,0.24
	c-1.094-0.295-0.758,0.842-1.44,0.96c-0.928-0.124-0.946,1.383-1.68,0.72c0-0.16,0-0.319,0-0.479
	c-0.044-0.204,0.093-0.227,0.24-0.24c0.883-0.958,1.356-2.324,1.68-3.84C31.06,67.929,31.041,67.59,31.32,67.549z M35.88,68.51
	c0.111-0.752-0.208-1.072-0.96-0.961c-0.201,0.279-0.316,0.644-0.24,1.2c0.08,0,0.16,0,0.24,0c0,0.08,0,0.16,0,0.24
	c-0.072,0.633,0.333,0.788,0.96,0.72C35.88,69.31,35.88,68.909,35.88,68.51z"/>
<path fill-rule="evenodd" clip-rule="evenodd" fill="#323026" d="M32.28,71.149c0.014-0.146,0.036-0.284,0.24-0.24
	c0.356,1.778-0.771,3.6,0.24,4.561C30.747,75.009,32.76,72.952,32.28,71.149z"/>
<path fill-rule="evenodd" clip-rule="evenodd" fill="#323026" d="M29.16,72.35c0,0.16,0,0.319,0,0.479
	c0.733,0.663,0.752-0.844,1.68-0.72c-0.576,0.943-1.583,1.456-2.16,2.4C28.024,73.915,28.933,72.856,29.16,72.35z"/>
<path fill-rule="evenodd" clip-rule="evenodd" fill="#323026" d="M29.4,72.109c0.411-1.43,0.898-2.782,1.68-3.84
	C30.756,69.785,30.283,71.151,29.4,72.109z"/>
<path fill-rule="evenodd" clip-rule="evenodd" fill="#8D7F53" d="M40.44,46.669c2.07-0.352,5.637-0.343,7.68-0.24
	c0.887-0.153,2.391,0.311,2.88-0.24c0.514,0.616,1.341-0.201,1.68,0.24C48.822,46.863,44.375,46.627,40.44,46.669z"/>
<path fill-rule="evenodd" clip-rule="evenodd" fill="#8D7F53" d="M52.92,46.429c0.565,0.005,0.707-0.413,1.44-0.24
	c0.24,0,0.48,0,0.72,0C54.654,46.856,53.388,46.516,52.92,46.429z"/>
<path fill-rule="evenodd" clip-rule="evenodd" fill="#8D7F53" d="M60.12,46.669c1.117-0.416,4.936,0.406,7.68,0.48
	c0.003,0.477,0.655,0.305,0.48,0.96C66.178,46.926,61.698,46.961,60.12,46.669z"/>
<path fill-rule="evenodd" clip-rule="evenodd" fill="#8D7F53" d="M68.28,57.229c-0.239,2.081-0.395,4.245-1.44,5.52
	c0.586-2.454,1.229-4.851,1.44-7.68C68.28,55.789,68.28,56.509,68.28,57.229z"/>
<path fill-rule="evenodd" clip-rule="evenodd" fill="#8D7F53" d="M66.84,62.989c-0.369,1.15-0.818,2.222-1.439,3.12
	C65.804,64.992,65.983,63.652,66.84,62.989z"/>
<path fill-rule="evenodd" clip-rule="evenodd" fill="#8D7F53" d="M64.44,67.549c0,0.32,0,0.641,0,0.961
	c1.766-0.314,2.479-1.682,3.6-2.641c0.412-1.104,0.596,0.193,0.479,0.96c-0.079,0-0.159,0-0.239,0
	c-1.739-0.694-1.881,2.276-4.08,1.92c0-0.399,0-0.8,0-1.2C64.28,67.549,64.36,67.549,64.44,67.549z"/>
<path fill-rule="evenodd" clip-rule="evenodd" fill="#8D7F53" d="M68.28,68.51c0.581,1.338,1.308,2.531,2.88,2.88
	c0.012,0.731-0.218,1.222-0.72,1.439c0.124-0.354,0.354-0.604,0.479-0.96C69.945,70.844,68.309,70.481,68.28,68.51z"/>
<path fill-rule="evenodd" clip-rule="evenodd" fill="#8D7F53" d="M65.88,79.789c0.734-0.785,1.209-1.831,2.16-2.399
	c-0.074,0.565-0.834,0.446-0.72,1.199c-0.135,0.346-0.375,0.586-0.721,0.721c-0.146,0.014-0.284,0.035-0.239,0.239
	C66.166,79.595,66.121,79.79,65.88,79.789z"/>
<path fill-rule="evenodd" clip-rule="evenodd" fill="#5C513C" d="M65.16,80.51c0.346-0.135,0.586-0.375,0.72-0.721
	c0.241,0.001,0.286-0.194,0.48-0.24c-0.504,1.097-1.606,1.594-2.4,2.4C64.208,81.317,64.912,81.141,65.16,80.51z"/>
<path fill-rule="evenodd" clip-rule="evenodd" fill="#8D7F53" d="M62.52,82.909c0.729-0.95,1.718-1.643,2.641-2.399
	c-0.248,0.631-0.952,0.808-1.2,1.439C63.433,82.222,63.163,82.752,62.52,82.909z"/>
<path fill-rule="evenodd" clip-rule="evenodd" fill="#8D7F53" d="M46.44,84.35c-0.7-0.82-1.956-1.085-2.64-1.92
	c0-0.16,0-0.32,0-0.48c0.607,1.393,2.583,1.417,3.36,2.64C46.853,84.576,46.828,84.281,46.44,84.35z"/>
<path fill-rule="evenodd" clip-rule="evenodd" fill="#8D7F53" d="M40.68,77.39c1.125,1.355,2.101,2.858,2.88,4.56
	C42.413,80.617,41.596,78.953,40.68,77.39z"/>
<path fill-rule="evenodd" clip-rule="evenodd" fill="#8D7F53" d="M38.04,72.109c0.583,0.377,0.899,1.021,0.96,1.92
	C38.542,73.527,38.226,72.883,38.04,72.109z"/>
<path fill-rule="evenodd" clip-rule="evenodd" fill="#8D7F53" d="M35.88,61.789c-0.404-1.145-0.276-2.338,0.48-3.12
	C35.915,59.916,35.943,60.159,35.88,61.789z"/>
<path fill-rule="evenodd" clip-rule="evenodd" fill="#5C513C" d="M37.56,47.149c-0.161-1.041,1.114-0.646,1.92-0.72
	c0.193,0.127,0.39,0.25,0.72,0.24c-0.685,0.504-1.53-0.321-2.4,0.24C37.844,47.113,37.707,47.136,37.56,47.149z"/>
<path fill-rule="evenodd" clip-rule="evenodd" fill="#8D7F53" d="M40.92,50.509c1.184,0.318,2.779,0.567,3.6,0
	c-0.784,1.034-5.257,0.5-6.24,0.24C39.088,50.597,40.509,51.059,40.92,50.509z"/>
<path fill-rule="evenodd" clip-rule="evenodd" fill="#8D7F53" d="M40.68,49.789c1.047-0.515,1.914-0.446,2.64-0.24
	C42.662,49.843,42.129,49.569,40.68,49.789z"/>
<path fill-rule="evenodd" clip-rule="evenodd" fill="#8D7F53" d="M54.12,51.469c0.613-0.378,2.507-0.378,3.12,0
	C56.59,51.478,54.523,51.654,54.12,51.469z"/>
<path fill-rule="evenodd" clip-rule="evenodd" fill="#5C513C" d="M59.88,50.75c0.73-0.011,0.934,0.506,1.44,0.72
	c-0.076,0.787-1.519,0.511-1.681,0c0.766-0.143,0.742,0.451,1.2,0C60.774,50.975,59.946,51.243,59.88,50.75z"/>
<path fill-rule="evenodd" clip-rule="evenodd" fill="#8D7F53" d="M38.76,56.029c1.453-1.099,4.355,0.294,5.52-0.72
	C42.81,56.542,40.483,55.626,38.76,56.029z"/>
<path fill-rule="evenodd" clip-rule="evenodd" fill="#8D7F53" d="M59.64,55.549c-0.772-0.107-1.3-0.46-2.16-0.48
	c0.044-0.204-0.094-0.227-0.24-0.24C57.525,54.638,59.224,55.075,59.64,55.549z"/>
<path fill-rule="evenodd" clip-rule="evenodd" fill="#8D7F53" d="M47.16,56.75c-0.655-0.175-0.483,0.477-0.96,0.48
	c0.391-0.649,0.651-1.429,1.44-1.68C47.507,55.977,47.517,56.546,47.16,56.75z"/>
<path fill-rule="evenodd" clip-rule="evenodd" fill="#8D7F53" d="M44.76,66.829c-3.346-1.832-1.391-6.925,0.96-8.399
	c-1.678,1.673-4.123,5.813-1.2,7.92C44.565,66.544,44.761,66.589,44.76,66.829z"/>
<path fill-rule="evenodd" clip-rule="evenodd" fill="#8D7F53" d="M44.76,67.069c0.579-0.099,0.522,0.438,1.2,0.24
	c-0.242-0.479-0.415-1.025-0.96-1.2c0.067-0.388-0.227-0.413-0.24-0.72c0.714,0.486,1.196,1.204,1.44,2.159
	C45.51,67.599,44.981,67.488,44.76,67.069z"/>
<path fill-rule="evenodd" clip-rule="evenodd" fill="#8D7F53" d="M45.24,60.589c0.557-0.962,1.231-1.808,1.68-2.879
	C47.114,58.471,45.955,59.938,45.24,60.589z"/>
<path fill-rule="evenodd" clip-rule="evenodd" fill="#8D7F53" d="M65.16,59.39c0.067,0.388-0.227,0.413-0.24,0.72
	c0.94,0.14,0.613-0.987,1.2-1.2c-0.272,0.768-0.399,1.682-1.44,1.68c-0.198-0.678,0.339-0.621,0.24-1.199
	C65,59.39,65.08,59.39,65.16,59.39z"/>
<path fill-rule="evenodd" clip-rule="evenodd" fill="#323026" d="M45.72,58.43c0.102-0.458,0.686-0.435,0.48-1.2
	c0.477-0.003,0.305-0.655,0.96-0.48c0.03,0.43-0.294,0.506-0.24,0.96c-0.448,1.072-1.123,1.917-1.68,2.879
	c-0.731,1.089-1.972,3.647-0.48,4.801c0.013,0.307,0.308,0.332,0.24,0.72c0.344,0.698,0.184,0.27-0.48,0.24
	C41.597,64.243,44.042,60.103,45.72,58.43z"/>
<path fill-rule="evenodd" clip-rule="evenodd" fill="#8D7F53" d="M51,65.39c-0.583,0.797-2.25,1.174-3.12,0.96
	c0.253-1.027,1.467-1.093,2.16-1.681c-0.061,0.82-1.271,0.489-1.44,1.2C49.052,66.305,50.377,65.578,51,65.39z"/>
<path fill-rule="evenodd" clip-rule="evenodd" fill="#323026" d="M51,65.39c-0.623,0.188-1.948,0.915-2.4,0.479
	c0.168-0.711,1.379-0.38,1.44-1.2c0.355,0.125,0.605,0.355,0.96,0.48C51,65.229,51,65.31,51,65.39z"/>
<path fill-rule="evenodd" clip-rule="evenodd" fill="#364328" d="M44.52,66.35c0.664,0.029,0.824,0.458,0.48-0.24
	c0.545,0.175,0.718,0.722,0.96,1.2c-0.678,0.198-0.622-0.339-1.2-0.24c0-0.08,0-0.16,0-0.24
	C44.761,66.589,44.565,66.544,44.52,66.35z"/>
<path fill-rule="evenodd" clip-rule="evenodd" fill="#323026" d="M35.64,68.51c-0.446-0.991-0.622,0.091-0.72,0.239
	c-0.08,0-0.16,0-0.24,0c-0.077-0.557,0.039-0.921,0.24-1.2c0.751-0.111,1.071,0.209,0.96,0.961C35.8,68.51,35.72,68.51,35.64,68.51z
	"/>
<path fill-rule="evenodd" clip-rule="evenodd" fill="#5C513C" d="M34.92,68.989c0.378,0.021,0.188,0.612,0.72,0.48
	c0.33-0.548-0.619-0.902,0-0.96c0.08,0,0.16,0,0.24,0c0,0.399,0,0.8,0,1.199C35.252,69.777,34.848,69.622,34.92,68.989z"/>
<path fill-rule="evenodd" clip-rule="evenodd" fill="#8D7F53" d="M48.12,73.069c0.984-0.302,3.037-0.796,3.6-0.72
	c-0.573,0.387-1.538,0.382-2.16,0.72C49.08,73.069,48.6,73.069,48.12,73.069z"/>
<path fill-rule="evenodd" clip-rule="evenodd" fill="#8D7F53" d="M41.16,71.629c0.194,0.046,0.239,0.241,0.48,0.24
	c0,0.08,0,0.16,0,0.24c0.347,0.854,0.972,1.428,1.68,1.92c-0.044,0.204,0.094,0.227,0.24,0.24c0.045,0.194,0.241,0.239,0.24,0.479
	C42.705,73.925,41.674,73.035,41.16,71.629z"/>
<path fill-rule="evenodd" clip-rule="evenodd" fill="#8D7F53" d="M44.04,74.749c0.624,0.097,0.724,0.717,1.44,0.721
	c0.427,0.132,0.997,0.123,1.2,0.479C46.265,76.035,44.303,75.613,44.04,74.749z"/>
<path fill-rule="evenodd" clip-rule="evenodd" fill="#8D7F53" d="M46.92,75.949c0.524-0.425,1.552,0.028,1.68-0.24
	c0.204-0.044,0.226,0.094,0.24,0.24C48.173,76.31,47.27,76.167,46.92,75.949z"/>
<path fill-rule="evenodd" clip-rule="evenodd" fill="#8D7F53" d="M52.68,74.27c0.667-0.613,1.438-1.122,2.16-1.681
	C54.32,73.35,53.672,73.981,52.68,74.27z"/>
<path fill-rule="evenodd" clip-rule="evenodd" fill="#5C513C" d="M51.24,73.549c0,0.08,0,0.16,0,0.24
	c-0.008,0.355,1.208-0.045,1.2-0.479c0.336,0.085,0.021,0.422-0.24,0.479c0.106,0.214,0.21,0.43,0.48,0.48
	c-0.459,0.581-1.063,1.017-1.92,1.2c0.329-0.534,1.859-0.661,1.2-1.44c-0.431-0.03-0.506,0.294-0.96,0.24
	C50.979,73.929,50.96,73.59,51.24,73.549z"/>
<path fill-rule="evenodd" clip-rule="evenodd" fill="#5C513C" d="M48.36,74.749c0.561,0.074,0.992,0.47,1.44,0
	c-0.517,0.496-0.104,0.909,0.72,0.721c-0.15,0.569-1.477-0.038-1.68,0.479c-0.014-0.146-0.036-0.284-0.24-0.24
	C48.63,75.279,48.306,75.203,48.36,74.749z"/>
<path fill-rule="evenodd" clip-rule="evenodd" fill="#323026" d="M51.72,72.35c1.77-0.23,2.238-1.763,4.32-1.681
	c0.188,1.229-0.755,1.325-1.2,1.92c-0.722,0.559-1.493,1.067-2.16,1.681c-0.27-0.051-0.374-0.267-0.48-0.48
	c0.261-0.058,0.576-0.395,0.24-0.479c-0.359-0.501-1.001,0.339-1.2,0.239c-0.28,0.041-0.261,0.38-0.24,0.721
	c0.454,0.054,0.529-0.271,0.96-0.24c0.659,0.779-0.871,0.906-1.2,1.44c-0.08,0-0.16,0-0.24,0c-0.824,0.188-1.237-0.225-0.72-0.721
	c0.295-0.104,0.493-0.307,0.48-0.72c-0.039-0.281-0.438-0.202-0.72-0.24c0-0.24,0-0.479,0-0.72
	C50.183,72.731,51.147,72.736,51.72,72.35z"/>
<path fill-rule="evenodd" clip-rule="evenodd" fill="#364328" d="M41.16,71.629c-0.068-0.388,0.227-0.413,0.24-0.72
	c0.652,0.148,1.124,0.477,1.44,0.96c-0.146-0.138-1.138-0.562-1.2,0C41.399,71.87,41.354,71.675,41.16,71.629z"/>
<path fill-rule="evenodd" clip-rule="evenodd" fill="#364328" d="M44.04,74.029c0.431-0.03,0.506,0.294,0.96,0.24
	c-0.697,0.675,0.36,0.656,0.48,1.2c-0.716-0.004-0.816-0.624-1.44-0.721c-0.08,0-0.16,0-0.24,0c0.001-0.24-0.194-0.285-0.24-0.479
	C43.839,74.309,43.987,74.217,44.04,74.029z"/>
<path fill-rule="evenodd" clip-rule="evenodd" fill="#364328" d="M43.32,74.029c-0.708-0.492-1.333-1.066-1.68-1.92
	c0.351,0.209,0.761,0.359,0.72,0.96c0.777,0.297,0.184-0.776,0.96-0.48C43.949,73.117,42.576,73.387,43.32,74.029z"/>
<path fill-rule="evenodd" clip-rule="evenodd" fill="#8D7F53" d="M48.36,74.27c0.106-0.214,0.211-0.43,0.48-0.48
	c0.24,0,0.48,0,0.72,0c0.282,0.038,0.681-0.041,0.72,0.24C49.085,74.09,49.259,74.129,48.36,74.27z"/>
<path fill-rule="evenodd" clip-rule="evenodd" fill="#8D7F53" d="M45.72,78.589c0.65,0.31,1.333,0.588,2.4,0.48
	c0.696,0.445,2.285-0.268,3.12-0.48C50.082,79.748,46.804,79.849,45.72,78.589z"/>
<path fill-rule="evenodd" clip-rule="evenodd" fill="#8D7F53" d="M48.12,78.109c0.82-0.199,1.117,0.031,2.16-0.24
	c-0.347,0.71-0.536,0.207-1.44,0.48C48.5,78.37,48.16,78.389,48.12,78.109z"/>
<path fill-rule="evenodd" clip-rule="evenodd" fill="#323026" d="M50.28,77.869c0.355,0.125,0.605,0.355,0.96,0.48
	c0,0.08,0,0.16,0,0.239c-0.835,0.213-2.424,0.926-3.12,0.48c-0.373-0.854,0.815-0.145,0.72-0.72
	C49.744,78.076,49.933,78.579,50.28,77.869z"/>
<path fill-rule="evenodd" clip-rule="evenodd" fill="#364328" d="M48.12,78.109c0.04,0.279,0.379,0.261,0.72,0.24
	c0.095,0.575-1.093-0.134-0.72,0.72c-1.067,0.107-1.75-0.171-2.4-0.48c0-0.159,0-0.319,0-0.479
	C46.117,77.783,47.12,78.305,48.12,78.109z"/>
<path fill-rule="evenodd" clip-rule="evenodd" fill="#5C513C" d="M43.8,82.43c0.685,0.835,1.94,1.1,2.64,1.92
	c-0.601-0.199-0.942-0.658-1.68-0.721c-0.013-0.146-0.036-0.284-0.24-0.239c0-0.08,0-0.16,0-0.24
	C44.174,83.015,43.935,82.775,43.8,82.43z"/>
<path fill-rule="evenodd" clip-rule="evenodd" fill="#364328" d="M67.32,82.909c1.033,0.246,1.378,1.182,1.92,1.92
	C68.374,84.415,68.168,83.341,67.32,82.909z"/>
<path fill-rule="evenodd" clip-rule="evenodd" fill="#364328" d="M57.72,91.789c1.133,0.626,1.341,2.179,2.4,2.88
	c4.514-1.727,5.792-6.688,9.36-9.359c-0.018,0.63-1.916,1.439-2.16,2.64c0,0.241-0.194,0.286-0.24,0.48
	c-1.133,1.348-2.28,2.68-3.36,4.08c0,0.079,0,0.159,0,0.239c-1.258,0.902-2.158,2.162-4.08,2.4
	C59.414,93.615,58.111,93.158,57.72,91.789z"/>
<path fill-rule="evenodd" clip-rule="evenodd" fill="#364328" d="M57.72,91.549c-1.318-1.401-2.425-3.015-3.84-4.319
	C55.597,88.232,56.691,89.857,57.72,91.549z"/>
<path fill-rule="evenodd" clip-rule="evenodd" fill="#364328" d="M62.76,84.109c1.367-0.714,2.08-2.08,3.601-2.64
	c0,0.079,0,0.159,0,0.239C64.798,82.147,64.456,83.805,62.76,84.109z"/>
<path fill-rule="evenodd" clip-rule="evenodd" fill="#364328" d="M45.48,84.589c0.647,0.794,2.247,0.633,2.88,1.44
	c-0.749-0.371-1.864-0.376-2.4-0.96c-0.244,0.156-0.248,0.552-0.72,0.479C45.138,85.048,45.404,84.914,45.48,84.589z"/>
<path fill-rule="evenodd" clip-rule="evenodd" fill="#3E4F2B" d="M43.56,87.709c0.357-1.323,0.384-2.976,1.92-3.12
	c-0.076,0.325-0.342,0.459-0.24,0.96c0.472,0.072,0.476-0.323,0.72-0.479c0.536,0.584,1.651,0.589,2.4,0.96
	c1.32-0.199,1.639,0.601,2.88,0.48c0.127,0.192,0.25,0.39,0.24,0.72c-0.89,0.229-1.831,0.409-2.16,1.2
	c-0.319,0.24-0.893,0.227-0.96,0.72c-0.16,0-0.32,0-0.48,0c-1.291,0.47-2.267,1.253-3.12,2.16c-0.477,0.003-0.305,0.654-0.96,0.479
	c-0.43-0.03-0.506,0.294-0.96,0.24c0.331-0.31,0.238-1.042,0.24-1.68c0-0.08,0-0.16,0-0.24
	C43.444,89.514,43.543,88.652,43.56,87.709z"/>
<path fill-rule="evenodd" clip-rule="evenodd" fill="#364328" d="M51.24,86.51c1.496,0.955-1.538,1.27-1.92,1.92
	c0.33-0.791,1.27-0.971,2.16-1.2C51.49,86.899,51.367,86.702,51.24,86.51z"/>
<path fill-rule="evenodd" clip-rule="evenodd" fill="#364328" d="M44.76,91.31c0.854-0.907,1.83-1.69,3.12-2.16
	c-0.014,0.146-0.036,0.284-0.24,0.24C46.577,89.927,45.785,90.733,44.76,91.31z"/>
<path fill-rule="evenodd" clip-rule="evenodd" fill="#364328" d="M43.08,90.35c-0.002,0.638,0.091,1.37-0.24,1.68
	c0.454,0.054,0.53-0.271,0.96-0.24c-0.27,0.158-0.93,1.112-1.2,0.48C42.759,91.628,42.701,90.77,43.08,90.35z"/>
<path fill-rule="evenodd" clip-rule="evenodd" fill="#364328" d="M43.08,88.909c0.668,0.108-0.188-1.308,0.48-1.2
	c-0.017,0.943-0.116,1.805-0.48,2.4C43.08,89.709,43.08,89.31,43.08,88.909z"/>
<path fill-rule="evenodd" clip-rule="evenodd" fill="#364328" d="M28.92,93.949c0.319-0.801,1.358-0.882,1.92-1.439
	C30.367,93.156,29.748,93.657,28.92,93.949z"/>
<path fill-rule="evenodd" clip-rule="evenodd" fill="#364328" d="M75.48,88.909c0.889,0.311,2.12,0.28,2.64,0.96
	C77.266,89.523,76.087,89.503,75.48,88.909z"/>
<path fill-rule="evenodd" clip-rule="evenodd" fill="#3E4F2B" d="M83.88,92.029c1.825,1.535,4.33,2.39,5.76,4.32
	c0.78,0.98,1.66,1.86,2.641,2.64c1.312,1.488,1.907,3.693,3.12,5.28c-0.068,0.388,0.227,0.413,0.239,0.72
	c0.628,1.853,1.104,3.855,1.44,6c-0.392,0.512,0.261,1.517,0.24,2.4c-0.641,0-1.28,0-1.92,0c0.036-0.444,0.813-0.147,0.96-0.48
	c-0.679-9.802-5.585-15.375-12-19.439c-0.561,0-1.12,0-1.681,0c-1.554-2.555-5.125-1.673-7.199-3.36
	c-0.346,0.055-0.084,0.716-0.48,0.72c-0.871,0.231-0.201-1.078-0.96-0.96c-1.077,0.043-1.787,0.453-2.16,1.2
	c-0.359-0.713-1.595-1.034-2.16-0.24c0.176,0.225,0.437,0.364,0.721,0.48c-0.413,0.627-0.307,1.773-1.44,1.68
	c0.532-2.287-0.638-1.074-0.24-2.88c-0.892,0.602-0.854,1.505-0.72,2.64c-1.213-0.293-2.281,1.119-1.68,2.641
	c-0.979,0.302-1.722,0.839-2.16,1.68c-0.54-0.1,0.036-1.316-0.72-1.2c-0.51,1.189-1.119,1.466-0.721,3.12
	c-0.477-0.163-0.549-0.73-0.96-0.96c-0.194,0.046-0.239,0.241-0.479,0.24c-0.56,0.597-0.452,2.681-2.16,1.92
	c0.152-1.463,1.796-0.23,1.439-2.4c-1.048-0.328-0.511,0.93-1.439,0.721c-0.141-0.5-0.505-0.776-0.72-1.2
	c-0.355,0.125-0.605,0.354-0.96,0.479c-0.237,0.958,0.717,0.723,0.48,1.681c-0.601-0.041-0.751,0.368-0.96,0.72
	c-0.704-0.796,0.746-2.94-0.96-3.12c-0.571-0.142,0.684,1.434-0.48,1.2c0.057-1.018-0.019-1.901-0.72-2.16
	c-0.203,0.546,0.251,2.258-0.72,2.64c0.491,1.278,0.256,3.122,0.48,4.561c-1.35-1.687-1.42,2.216-3.12,0.96
	c0.448-1.102,1.277-4.012,0.24-5.04c-0.697,3.623-1.241,5.847-1.92,10.08c0.039,0.281,0.438,0.202,0.72,0.239
	c-0.34,1.594-0.222-0.594-0.72,0.48c-0.274,0.592-0.138,2.984-0.24,2.88c1.812,1.856,11.038-1.084,13.68,0.48c-4.8,0-9.6,0-14.4,0
	c0-0.08,0-0.16,0-0.24c1.183-4.646,1.041-8.939,1.68-13.44c0-0.399,0-0.8,0-1.199c0-0.08,0-0.16,0-0.24
	c0.655-1.345,0.821-3.179,1.2-4.8c0.201-0.279,0.316-0.644,0.24-1.2c0.381-0.659,0.518-1.563,0.96-2.16
	c0.499-0.062,0.065-1.055,0.48-1.2c0.82-0.18,0.305,0.976,1.2,0.72c-0.001,0.241,0.194,0.286,0.24,0.48
	c1.122,1.357,1.75,3.21,3.12,4.32c0.57,0.789,0.836,1.884,1.92,2.159c1.587-0.573,2.587-1.733,4.08-2.399
	c1.01-0.75,1.658-1.861,2.4-2.88c0-0.08,0-0.16,0-0.24c1.477-1.003,2.213-2.746,3.359-4.08c0.24,0,0.48,0,0.721,0
	c1.94,0.379,3.492,1.147,5.04,1.92c0.606,0.594,1.785,0.614,2.64,0.96c1.953,0.607,3.992,1.128,5.52,2.16
	C83.72,92.029,83.8,92.029,83.88,92.029z M53.16,99.47c-0.041,0.279-0.379,0.26-0.72,0.239c0.183,0.816,1.119,1.899,1.68,0.96
	C53.655,100.414,53.493,99.856,53.16,99.47z M71.64,90.109c0.633,0.072,0.788-0.332,0.721-0.96
	C71.728,89.077,71.572,89.481,71.64,90.109z M52.2,102.589c0.48,0,0.96,0,1.44,0c-0.029-0.61-0.35-0.931-0.96-0.96
	C52.555,101.984,52.325,102.234,52.2,102.589z"/>
<path fill-rule="evenodd" clip-rule="evenodd" fill="#364328" d="M89.64,96.35c0.98,0.779,1.86,1.659,2.641,2.64
	C91.3,98.21,90.42,97.33,89.64,96.35z"/>
<path fill-rule="evenodd" clip-rule="evenodd" fill="#364328" d="M49.32,107.869c0.17-2.097,0.707-4.375,0.72-6.72
	c0.474-0.167-0.059-1.339,0.48-1.44c-0.639,4.501-0.497,8.794-1.68,13.44c0.402-0.398,0.191-1.409,0.24-2.16c0-0.24,0-0.479,0-0.72
	C49.506,109.815,49.255,108.685,49.32,107.869z"/>
<path fill-rule="evenodd" clip-rule="evenodd" fill="#364328" d="M52.92,90.109c-0.05-0.689,0.061-1.22,0.48-1.44
	c0.783-0.063,0.693,0.747,1.2,0.96c-0.895,0.256-0.38-0.899-1.2-0.72C52.985,89.055,53.418,90.048,52.92,90.109z"/>
<path fill-rule="evenodd" clip-rule="evenodd" fill="#364328" d="M54.84,90.109c1.41,1.07,1.962,2.998,3.12,4.32
	C56.59,93.319,55.962,91.467,54.84,90.109z"/>
<path fill-rule="evenodd" clip-rule="evenodd" fill="#364328" d="M63.96,94.189c0.416-0.864,1.156-1.404,1.68-2.16
	c0.135-0.346,0.375-0.586,0.721-0.72C65.618,92.328,64.97,93.439,63.96,94.189z"/>
<path fill-rule="evenodd" clip-rule="evenodd" fill="#364328" d="M66.36,91.069c0.642-0.878,1.418-1.622,1.92-2.64
	c0.722-0.326,1.012-2.337,2.16-1.44c-0.24,0-0.48,0-0.721,0C68.573,88.323,67.837,90.066,66.36,91.069z"/>
<path fill-rule="evenodd" clip-rule="evenodd" fill="#364328" d="M42.84,94.189c0.571-0.71,1.418-1.142,2.16-1.68
	C44.406,93.195,43.758,93.828,42.84,94.189z"/>
<path fill-rule="evenodd" clip-rule="evenodd" fill="#3E4F2B" d="M45,92.51c0.844-0.677,1.959-1.082,2.64-1.921
	c0.08,0,0.16,0,0.24,0c1.071-0.608,1.833-1.526,3.36-1.68c0.08,0,0.16,0,0.24,0c-0.085,1.194-0.672,1.889-0.72,3.12
	c0,0.08,0,0.16,0,0.24c-0.319,0.88-0.65,1.749-0.72,2.88c0,0.08,0,0.16,0,0.24c-0.489,0.481-0.471-0.106-0.96-0.24
	c0-0.08,0-0.16,0-0.24c-0.434-1.556-3.042-0.794-2.88,0.96c-0.044,0.204,0.093,0.227,0.24,0.24c0,0.08,0,0.16,0,0.24
	c-0.459,0.553,0.788,1.441,1.68,1.439c0.624-0.096,0.724-0.716,1.44-0.72c0,0.4,0,0.8,0,1.2c-0.371,0.349-0.211,1.229-0.24,1.92
	c-0.539,0.101-0.006,1.273-0.48,1.439c-0.53,0.03-0.102,1.019-0.24,1.44c-0.784-0.337-1.371-0.869-1.92-1.44
	c-0.932,0.738-3.035,2.931-0.96,3.841c0.454,0.476,0.841,0.408,1.44,0.239c0.704,0.276,0.891-1.15,1.2-0.479c0,0.24,0,0.479,0,0.72
	c0,0.08,0,0.16,0,0.24c-0.361,1.091-0.734,2.086-0.24,3.359c0,0.24,0,0.48,0,0.721c0.142,0.766-0.451,0.742,0,1.2
	c-0.619,0.329-0.053,1.47,0,1.92c-6.8,0-13.6,0-20.4,0c0.201-0.279,0.316-0.644,0.24-1.2c0.53-0.03,0.102-1.019,0.24-1.44
	c0.845-1.714,1.104-4.016,1.68-6c-0.102-0.501,0.165-0.635,0.24-0.96c0.645-0.715,0.93-1.79,1.44-2.64
	c-0.068-0.388,0.227-0.413,0.24-0.72c0.683-0.758,1.788-1.093,1.68-2.641c-1.146-0.502-2.076,1.063-2.64,1.92c0,0.08,0,0.16,0,0.24
	c-0.841,0.599-1.357,1.523-1.68,2.64c0.158,0.878-0.52,0.921-0.48,1.681c-0.857,0.663-0.744,2.297-1.2,3.359c0,0.24,0,0.48,0,0.721
	c-0.416,0.318-0.799,1.902-0.24,2.399c-0.139,0.146-0.562,1.139,0,1.2c-0.276,0.284-0.272,0.849-0.24,1.44c-3.04,0-6.08,0-9.12,0
	c-0.009-2.861,0.564-7.035,1.92-9.841c0-0.079,0-0.159,0-0.239c0.204,0.044,0.227-0.094,0.24-0.24c0.669-0.69,1.067-1.652,1.68-2.4
	c0.109-1.011,1.135-1.104,1.44-1.92c1.062-1.018,2.296-1.864,3.12-3.12c0.872-0.568,1.421-1.459,2.64-1.68
	c0.828-0.292,1.447-0.793,1.92-1.439c3.397-2.05,7.708-4.445,11.52-5.28c-0.273,0.526-0.619,0.98-0.48,1.92
	c-0.345,1.255-0.59,2.609-0.48,4.32c-0.14,0.859,0.71,0.729,1.44,0.72C43.758,93.828,44.406,93.195,45,92.51z M44.28,102.589
	c0.592,0.771,1.483-0.559,0.48-0.72C44.703,102.212,44.365,102.274,44.28,102.589z M38.28,103.31
	c-0.118-0.759,1.191-0.089,0.96-0.96c-0.4,0-0.8,0-1.2,0C38.081,102.708,37.954,103.235,38.28,103.31z M42.36,105.47
	c-0.617-0.023-0.343-0.938-0.96-0.96c-0.17,0.997-1.381,2.028-0.24,2.64c-1.044,0.164-1.329-0.432-1.68-0.96
	c0.318-0.401,0.636-0.805,0.48-1.68c-1.041-0.658-0.553,0.633-1.68,0.479c-0.178,0.979,0.774,0.826,0.48,1.92
	c-0.355-0.125-0.604-0.355-0.96-0.479c0.296,1.158-0.246,2.273-1.2,1.439c-0.765,1.438,0.362,3.52-0.96,4.32
	c-0.424-2.422,0.086-5.834-1.2-7.92c-0.567,1.206,1.542,3.577-0.48,3.84c1.374,0.863-0.278,2.723,0.24,3.36
	c-1.426-0.111-3.473-0.919-4.32,0c1.326-0.096-0.022,1.091,0.72,1.68c2.493-0.352,5.652,0.679,6.48-0.72c0,0.239,0,0.479,0,0.72
	c3.28,0,6.56,0,9.84,0c-0.173-1.792,0.499-3.483,0.24-6c-0.388-0.392-1.004,0.214-1.92,0c-0.754-1.731-1.808-2.722-2.16-4.32
	C42.112,103.292,43.826,104.862,42.36,105.47z M29.64,111.229c-0.506-1.546,1.225-0.855,1.44-1.681
	c-1.1,0.141-1.119-0.801-1.68-1.199C29.75,109.533,28.551,110.785,29.64,111.229z M22.68,110.029c0.041,0.359-0.086,0.886,0.24,0.96
	c-0.169-0.588,1.196-0.627,1.68-0.24c-1.298,0.641,0.227,1.316-0.72,2.16c0.331-0.01,0.527,0.113,0.72,0.24
	c-0.304-0.944,0.566-0.714,1.2-0.72c0-0.32,0-0.641,0-0.96c-0.447-0.229-0.802,0.719-0.96,0c1.042-0.75-0.083-0.931,0.96-1.681
	c-1.145,0.422-1.065-0.139-2.16-0.24C23.582,109.972,23.227,110.097,22.68,110.029z M28.92,113.149c0.32,0,0.64,0,0.96,0
	c-0.399-0.4,0.152-1.753-0.72-1.68C29.433,112.521,29.159,112.258,28.92,113.149z"/>
<path fill-rule="evenodd" clip-rule="evenodd" fill="#364328" d="M51.24,88.909c-0.031-0.431,0.238-0.562,0.72-0.479
	c0.055,1.174-0.731,1.508-0.72,2.64c-0.333,0.147-0.036,0.924-0.48,0.96c0.048-1.231,0.635-1.926,0.72-3.12
	C51.4,88.909,51.32,88.909,51.24,88.909z"/>
<path fill-rule="evenodd" clip-rule="evenodd" fill="#364328" d="M50.76,92.27c0.2,1.319-0.601,1.639-0.48,2.88
	c-0.08,0-0.16,0-0.24,0C50.109,94.019,50.44,93.149,50.76,92.27z"/>
<path fill-rule="evenodd" clip-rule="evenodd" fill="#364328" d="M49.08,95.149c0.489,0.134,0.471,0.722,0.96,0.24
	c-0.4,0.32-0.08,1.359-0.48,1.68c-0.716,0.004-0.816,0.624-1.44,0.72C48.74,97.28,49.869,96.301,49.08,95.149z"/>
<path fill-rule="evenodd" clip-rule="evenodd" fill="#364328" d="M46.2,95.869c-0.162-1.754,2.446-2.516,2.88-0.96
	C48.145,93.839,46.4,94.759,46.2,95.869z"/>
<path fill-rule="evenodd" clip-rule="evenodd" fill="#364328" d="M47.88,104.749c0.684-0.777,0.042-2.271-0.72-2.399
	c-1.636-0.095-2.592,1.866-1.68,2.88c0.204-0.044,0.227,0.094,0.24,0.24c-2.075-0.91,0.028-3.103,0.96-3.841
	c0.549,0.571,1.136,1.104,1.92,1.44c0.138-0.422-0.29-1.41,0.24-1.44c0,0.48,0,0.96,0,1.44c-0.626,0.493,0.169,2.409-0.48,2.88
	c0-0.24,0-0.479,0-0.72c-0.309-0.671-0.496,0.756-1.2,0.479c0.026-0.453,0.793-0.166,0.72-0.72
	C47.88,104.909,47.88,104.829,47.88,104.749z"/>
<path fill-rule="evenodd" clip-rule="evenodd" fill="#364328" d="M48.36,106.189c0.213,0.876-0.424,1.278,0,1.68
	c-0.537,0.104-0.097,1.183-0.24,1.68C47.626,108.275,47.999,107.28,48.36,106.189z"/>
<path fill-rule="evenodd" clip-rule="evenodd" fill="#364328" d="M28.2,110.749c-0.148-1.107,0.539-1.381,0.48-2.399
	c0.131-0.909,0.581-1.5,0.48-2.641c0.494-0.065,0.226-0.894,0.72-0.96C29.304,106.733,29.045,109.035,28.2,110.749z"/>
<path fill-rule="evenodd" clip-rule="evenodd" fill="#364328" d="M30.12,103.789c0.15-0.89,0.675-1.405,0.96-2.16
	c0-0.08,0-0.159,0-0.239c0.194-0.046,0.239-0.241,0.48-0.24C31.05,101.999,30.765,103.074,30.12,103.789z"/>
<path fill-rule="evenodd" clip-rule="evenodd" fill="#364328" d="M31.8,100.43c0.315-1.045,1.559-1.162,1.44-2.641
	c-1.289,0.151-1.439,1.441-2.4,1.92c0.564-0.856,1.494-2.422,2.64-1.92C33.587,99.337,32.483,99.672,31.8,100.43z"/>
<path fill-rule="evenodd" clip-rule="evenodd" fill="#364328" d="M29.16,102.589c0.323-1.116,0.838-2.041,1.68-2.64
	c-0.258,0.622-0.868,0.893-0.96,1.68c0,0.08,0,0.16,0,0.24C29.327,101.796,29.613,102.563,29.16,102.589z"/>
<path fill-rule="evenodd" clip-rule="evenodd" fill="#364328" d="M28.68,104.27c-0.229,0.972-0.762,1.638-0.72,2.88
	c-0.106,0.214-0.211,0.429-0.48,0.479C27.937,106.566,27.823,104.933,28.68,104.27z"/>
<path fill-rule="evenodd" clip-rule="evenodd" fill="#364328" d="M27.48,108.35c0,0.239,0,0.479,0,0.72
	c-0.537,0.104-0.097,1.183-0.24,1.68C26.681,110.252,27.064,108.668,27.48,108.35z"/>
<path fill-rule="evenodd" clip-rule="evenodd" fill="#323026" d="M27.24,110.749c0.143-0.497-0.297-1.576,0.24-1.68
	c0.162,1.201-0.222,1.857-0.24,2.88C26.678,111.888,27.102,110.895,27.24,110.749z"/>
<path fill-rule="evenodd" clip-rule="evenodd" fill="#364328" d="M21.72,100.669c-0.613,0.748-1.011,1.71-1.68,2.4
	C20.412,102.081,20.921,101.23,21.72,100.669z"/>
<path fill-rule="evenodd" clip-rule="evenodd" fill="#364328" d="M23.16,98.749c0.709-1.29,2.143-1.857,2.88-3.12
	c0.08,0,0.16,0,0.24,0C25.456,96.885,24.222,97.731,23.16,98.749z"/>
<path fill-rule="evenodd" clip-rule="evenodd" fill="#1D1E1B" d="M83.64,92.029c-0.207-0.421-0.894-0.834,0.24-0.72
	c1.281,0.639,2.518,1.322,3.601,2.16c0.134,0.345,0.374,0.585,0.72,0.72c-1.599,0.395-2.465-2.013-4.32-2.16
	C83.8,92.029,83.72,92.029,83.64,92.029z"/>
<path fill-rule="evenodd" clip-rule="evenodd" fill="#323026" d="M46.2,95.869c0.2-1.11,1.944-2.03,2.88-0.96c0,0.08,0,0.16,0,0.24
	c0.789,1.151-0.34,2.131-0.96,2.64c-0.892,0.002-2.139-0.887-1.68-1.439c3.122,4.151,2.964-5.035,0-0.24
	C46.293,96.096,46.156,96.073,46.2,95.869z"/>
<path fill-rule="evenodd" clip-rule="evenodd" fill="#1D1E1B" d="M88.68,94.43c1.619,1.021,2.837,2.442,4.08,3.84
	c-0.179,0.738,0.659,0.461,0.48,1.2C91.803,97.865,89.147,96.204,88.68,94.43z"/>
<path fill-rule="evenodd" clip-rule="evenodd" fill="#323026" d="M88.68,94.43c0.468,1.774,3.123,3.436,4.561,5.04
	c0.179-0.739-0.659-0.462-0.48-1.2c0.603,0.357,0.843,1.077,1.2,1.68c-0.193-0.127-0.39-0.25-0.72-0.24
	c0.723,1.518,1.55,2.93,2.16,4.561c-1.213-1.587-1.809-3.792-3.12-5.28c-0.78-0.98-1.66-1.86-2.641-2.64
	c-1.43-1.931-3.935-2.785-5.76-4.32c1.855,0.147,2.722,2.555,4.32,2.16c-0.346-0.135-0.586-0.375-0.72-0.72
	C88.037,93.632,88.307,94.082,88.68,94.43z"/>
<path fill-rule="evenodd" clip-rule="evenodd" fill="#1D1E1B" d="M24.12,96.589c0.473-0.646,1.092-1.147,1.92-1.439
	c0.187,0.053,0.279,0.201,0.24,0.479c-0.08,0-0.16,0-0.24,0c-0.992,0.049-0.749,1.331-1.92,1.2
	C24.12,96.749,24.12,96.669,24.12,96.589z"/>
<path fill-rule="evenodd" clip-rule="evenodd" fill="#323026" d="M47.4,95.149c1.542-0.037,1.145,1.341,0.48,1.92
	c-0.528-0.191-0.958-0.481-0.96-1.2C47.215,95.765,47.413,95.563,47.4,95.149z M47.88,96.589c0.076-0.324,0.342-0.458,0.24-0.96
	c-0.24,0-0.48,0-0.72,0C47.333,96.177,47.458,96.531,47.88,96.589z"/>
<path fill-rule="evenodd" clip-rule="evenodd" fill="#323026" d="M24.12,96.829c1.171,0.131,0.928-1.151,1.92-1.2
	c-0.737,1.263-2.17,1.83-2.88,3.12c-0.305,0.815-1.331,0.909-1.44,1.92c-0.799,0.562-1.309,1.412-1.68,2.4
	c-0.014,0.146-0.036,0.284-0.24,0.24c0.067-0.7-0.058-0.825-0.48-0.48C20.573,100.482,22.05,98.359,24.12,96.829z"/>
<path fill-rule="evenodd" clip-rule="evenodd" fill="#323026" d="M83.64,101.629c-0.277-0.802-0.154-2.183,0-3.6
	c-0.771-0.21-0.497,0.622-0.96,0.72c0.136-0.584,0.206-1.234,0.96-1.2C84.228,98.428,83.631,100.247,83.64,101.629z"/>
<path fill-rule="evenodd" clip-rule="evenodd" fill="#364328" d="M95.4,113.39c-8.08,0-16.16,0-24.24,0
	c-0.259-0.397-2.142-0.397-2.4,0c-0.479,0-0.96,0-1.439,0c-0.571-0.398-2.79-0.398-3.36,0c-0.24,0-0.479,0-0.72,0
	c-2.643-1.564-11.869,1.376-13.68-0.48c0.102,0.104-0.034-2.288,0.24-2.88c0.498-1.074,0.38,1.113,0.72-0.48
	c-0.282-0.037-0.681,0.042-0.72-0.239c0.679-4.233,1.223-6.457,1.92-10.08c1.037,1.028,0.208,3.938-0.24,5.04
	c1.7,1.256,1.771-2.646,3.12-0.96c-0.224-1.438,0.011-3.282-0.48-4.561c0.971-0.382,0.517-2.094,0.72-2.64
	c0.701,0.259,0.777,1.143,0.72,2.16c1.164,0.233-0.091-1.342,0.48-1.2c1.706,0.18,0.256,2.324,0.96,3.12
	c0.208-0.352,0.359-0.761,0.96-0.72c0.237-0.958-0.717-0.723-0.48-1.681c0.355-0.125,0.605-0.354,0.96-0.479
	c0.215,0.424,0.579,0.7,0.72,1.2c0.929,0.209,0.392-1.049,1.439-0.721c0.356,2.17-1.287,0.938-1.439,2.4
	c1.708,0.761,1.601-1.323,2.16-1.92c0.24,0.001,0.285-0.194,0.479-0.24c0.411,0.229,0.483,0.797,0.96,0.96
	c-0.398-1.654,0.211-1.931,0.721-3.12c0.756-0.116,0.18,1.101,0.72,1.2c0.438-0.841,1.182-1.378,2.16-1.68
	c-0.602-1.521,0.467-2.934,1.68-2.641c-0.134-1.135-0.172-2.038,0.72-2.64c-0.397,1.806,0.772,0.593,0.24,2.88
	c1.134,0.094,1.027-1.053,1.44-1.68c-0.284-0.116-0.545-0.256-0.721-0.48c0.565-0.794,1.801-0.473,2.16,0.24
	c0.373-0.747,1.083-1.157,2.16-1.2c0.759-0.118,0.089,1.191,0.96,0.96c0.396-0.004,0.135-0.665,0.48-0.72
	c2.074,1.688,5.646,0.806,7.199,3.36c0.561,0,1.12,0,1.681,0c6.415,4.064,11.321,9.638,12,19.439
	C96.213,113.242,95.437,112.945,95.4,113.39z M76.68,92.989c0.598-0.059,1.563-0.977,0.96-1.44
	C77.582,92.291,76.445,91.955,76.68,92.989z M65.64,97.069c0.69,0.05,1.22-0.061,1.44-0.48c-0.373-0.063-0.167-0.526,0-0.72
	C66.147,95.816,65.419,95.968,65.64,97.069z M83.64,101.629c-0.009-1.382,0.588-3.201,0-4.08c-0.754-0.034-0.824,0.616-0.96,1.2
	c-0.041,2.124-0.102,5.767,0.48,7.44c0,0.08,0,0.16,0,0.24c-1.142-0.619-0.168-3.353-1.2-4.08c0.098,0.932-0.035,2.581,0.24,4.08
	c0.441,2.406,1.238,6.447,2.88,5.52c-1.54-0.303-1.744-3.211-1.68-4.32c0.444,1.315,0.354,3.165,1.439,3.841
	c-0.341-1.659-0.284-3.717-0.96-5.04C83.701,103.953,83.979,103.317,83.64,101.629z M82.2,97.789c-0.82,0.771-0.59,3.488,0,4.32
	C82.231,101.203,82.549,99.27,82.2,97.789z M59.4,105.229c0.239,0,0.479,0,0.72,0c0.067-0.547-0.058-0.902-0.48-0.96
	C59.564,104.594,59.299,104.728,59.4,105.229z M53.64,105.949c0.75,0.11,0.767-0.513,0.72-1.2c-0.33,0.011-0.527-0.112-0.72-0.239
	C53.117,105.011,53.76,105.194,53.64,105.949z"/>
<path fill-rule="evenodd" clip-rule="evenodd" fill="#323026" d="M83.88,106.43c0.676,1.323,0.619,3.381,0.96,5.04
	c-1.085-0.676-0.995-2.525-1.439-3.841c0.198-0.678-0.339-0.621-0.24-1.199c0-0.08,0-0.16,0-0.24c0.745,0.214,0.241,1.679,0.72,2.16
	C84.59,107.929,83.741,107.07,83.88,106.43z"/>
<path fill-rule="evenodd" clip-rule="evenodd" fill="#323026" d="M30.84,99.709c0.961-0.479,1.111-1.769,2.4-1.92
	c0.118,1.479-1.125,1.596-1.44,2.641c-0.013,0.307-0.308,0.332-0.24,0.72c-0.241-0.001-0.286,0.194-0.48,0.24
	c0.408-1.272,1.348-2.013,1.92-3.12c-1.609,0.551-2.071,2.249-3.12,3.359c0.092-0.787,0.702-1.058,0.96-1.68
	C30.84,99.869,30.84,99.789,30.84,99.709z"/>
<path fill-rule="evenodd" clip-rule="evenodd" fill="#323026" d="M29.16,105.709c0.593-1.406,0.835-3.164,1.92-4.08
	c-0.285,0.755-0.81,1.271-0.96,2.16c-0.076,0.325-0.342,0.459-0.24,0.96C29.386,104.815,29.654,105.644,29.16,105.709z"/>
<path fill-rule="evenodd" clip-rule="evenodd" fill="#323026" d="M28.68,108.35c0.059,1.019-0.628,1.292-0.48,2.399
	c-0.138,0.422,0.29,1.41-0.24,1.44C27.873,110.582,28.019,109.208,28.68,108.35z"/>
<path fill-rule="evenodd" clip-rule="evenodd" fill="#323026" d="M27.96,107.149c-0.042-1.242,0.492-1.908,0.72-2.88
	c-0.04-0.76,0.638-0.803,0.48-1.681c0.453-0.026,0.167-0.793,0.72-0.72C29.029,103.418,28.647,105.437,27.96,107.149z"/>
<path fill-rule="evenodd" clip-rule="evenodd" fill="#1D1E1B" d="M93.96,99.949c2.169,3.512,4.413,8.227,4.08,13.44
	c-0.24,0-0.48,0-0.72,0c0.021-0.884-0.632-1.889-0.24-2.4c0.066-2.546-0.564-4.396-1.44-6c-0.013-0.307-0.308-0.332-0.239-0.72
	c-0.61-1.631-1.438-3.043-2.16-4.561C93.57,99.699,93.767,99.822,93.96,99.949z"/>
<path fill-rule="evenodd" clip-rule="evenodd" fill="#323026" d="M97.08,110.989c-0.336-2.145-0.813-4.147-1.44-6
	C96.516,106.594,97.146,108.443,97.08,110.989z"/>
<path fill-rule="evenodd" clip-rule="evenodd" fill="#323026" d="M45.48,105.229c-0.912-1.014,0.044-2.975,1.68-2.88
	c0.762,0.128,1.403,1.622,0.72,2.399c-0.028-0.691,0.131-1.571-0.24-1.92C46.315,102.279,45.042,103.278,45.48,105.229z"/>
<path fill-rule="evenodd" clip-rule="evenodd" fill="#323026" d="M19.8,103.549c-1.356,2.806-1.929,6.979-1.92,9.841
	c-1.341,0.134-0.686-2.986-0.48-3.601c0.155,1.046-0.313,2.713,0.24,3.36c-0.173-1.461,0.628-3.883,0.24-5.76c0-0.32,0-0.641,0-0.96
	c-0.039-0.279,0.053-0.428,0.24-0.48C19.173,106.594,18.817,103.772,19.8,103.549z"/>
<path fill-rule="evenodd" clip-rule="evenodd" fill="#323026" d="M45.72,105.47c1.002,0.122,1.626-0.134,2.16-0.48
	c0.074,0.554-0.693,0.267-0.72,0.72C46.562,105.878,46.174,105.945,45.72,105.47z"/>
<path fill-rule="evenodd" clip-rule="evenodd" fill="#323026" d="M46.44,104.749c-0.878,0.568-1.022-2.033,0.72-1.439
	c0.369,0.365,0.427,1.646-0.48,1.439c0.186-0.213,0.258-0.542,0.24-0.96c-0.24,0-0.48,0-0.72,0
	C46.098,104.291,46.364,104.425,46.44,104.749z"/>
<path fill-rule="evenodd" clip-rule="evenodd" fill="#1D1E1B" d="M57.48,16.429c0.08,0,0.16,0,0.24,0
	c-0.074,0.554,0.693,0.267,0.72,0.72c-2.21-0.51-4.895-0.546-6.96-1.2c0.497-0.143,1.577,0.297,1.68-0.24c0.16,0,0.32,0,0.48,0
	c0,0.08,0,0.16,0,0.24C54.755,16.274,56.014,16.456,57.48,16.429z"/>
<path fill-rule="evenodd" clip-rule="evenodd" fill="#5C513C" d="M54.36,46.189c0.259-0.397,2.141-0.397,2.4,0c-0.4,0-0.8,0-1.2,0
	c-0.16,0-0.32,0-0.48,0C54.84,46.189,54.6,46.189,54.36,46.189z"/>
<path fill-rule="evenodd" clip-rule="evenodd" fill="#323026" d="M48.12,46.429c-2.043-0.103-5.61-0.111-7.68,0.24
	c-0.08,0-0.16,0-0.24,0c-0.331,0.01-0.527-0.113-0.72-0.24c2.433-0.732,7.862-0.632,11.28-0.24
	C49.952,46.341,48.531,45.88,48.12,46.429z"/>
<path fill-rule="evenodd" clip-rule="evenodd" fill="#364328" d="M48.12,46.429c0.411-0.549,1.832-0.088,2.64-0.24
	c0.08,0,0.16,0,0.24,0C50.511,46.74,49.007,46.276,48.12,46.429z"/>
<path fill-rule="evenodd" clip-rule="evenodd" fill="#CDAD5C" d="M58.92,46.429c0.557-0.077,0.922,0.039,1.2,0.24
	c1.578,0.292,6.058,0.257,8.16,1.44c0,0.32,0,0.64,0,0.96c0,1.92,0,3.84,0,5.76c0,0.08,0,0.16,0,0.24
	c-0.211,2.829-0.854,5.226-1.44,7.68c0,0.08,0,0.16,0,0.24c-0.856,0.663-1.036,2.003-1.439,3.12
	c-0.188,0.053-0.279,0.201-0.24,0.479c-0.324,0.236-0.479,0.641-0.72,0.96c-0.08,0-0.16,0-0.24,0c0,0.4,0,0.801,0,1.2
	c2.199,0.356,2.341-2.614,4.08-1.92c0,0.561,0,1.12,0,1.681c0.028,1.972,1.665,2.334,2.64,3.359
	c-0.125,0.355-0.355,0.605-0.479,0.96c-0.721,1.6-1.595,3.046-2.4,4.561c-0.951,0.568-1.426,1.614-2.16,2.399
	c-0.134,0.346-0.374,0.586-0.72,0.721c-0.923,0.757-1.911,1.449-2.641,2.399c-5.528,2.35-9.628,3.214-15.359,1.68
	c-0.777-1.223-2.753-1.247-3.36-2.64c-0.08,0-0.16,0-0.24,0c-0.779-1.701-1.755-3.204-2.88-4.56c-0.643-0.958-1.056-2.145-1.68-3.12
	c0-0.08,0-0.16,0-0.24c-0.061-0.899-0.377-1.543-0.96-1.92c-0.003-0.477-0.655-0.306-0.48-0.96c0.117-0.758-0.433-0.848-0.24-1.68
	c-0.028-1.572-0.188-3.013-0.72-4.08c0.679-1.409-1.345-2.334-0.72-3.601c0.063-1.63,0.035-1.873,0.48-3.12
	c-0.005-0.565,0.414-0.706,0.24-1.439c0.263-1.01,0.812-2.768,0.24-3.84c-0.427-3.082-0.444-3.784,0.72-6.24
	c0.146-0.014,0.284-0.036,0.24-0.24c0.87-0.561,1.716,0.265,2.4-0.24c0.08,0,0.16,0,0.24,0c3.936-0.042,8.382,0.193,12.24-0.24
	c0.08,0,0.16,0,0.24,0c0.468,0.086,1.734,0.427,2.16-0.24c0.16,0,0.32,0,0.48,0c0,0.08,0,0.16,0,0.24
	C56.721,46.237,58.46,46.717,58.92,46.429z M43.32,49.549c-0.726-0.207-1.592-0.275-2.64,0.24c-0.187,0.054-0.474,0.007-0.48,0.24
	c-0.51-0.39-2.132-0.354-1.92,0.72c0.983,0.26,5.456,0.793,6.24-0.24C44.571,49.738,43.664,49.925,43.32,49.549z M55.32,50.029
	c-0.847-0.775-2.961,0.905-1.2,1.44c0.403,0.185,2.47,0.008,3.12,0c0.703-0.317,1.238,0.153,2.399,0
	c0.162,0.511,1.604,0.787,1.681,0c-0.507-0.213-0.71-0.73-1.44-0.72c-0.567-0.472-1.806-0.274-2.4-0.72
	C56.76,50.029,56.04,50.029,55.32,50.029z M44.28,55.309c-1.157-1.391-7.068-0.935-6.48,0.96c0.418,0.018,0.747-0.054,0.96-0.24
	C40.483,55.626,42.81,56.542,44.28,55.309z M57.24,54.829c-0.965-0.088-1.55-0.393-3.12,0c-0.751-0.111-1.071,0.209-0.96,0.96
	c1.049,0.688,3.264,0.134,4.32,0.24c0.543,0.269,2.005,0.859,2.4,0.48c0.565-0.065,0.146-1.063-0.24-0.96
	C59.224,55.075,57.525,54.638,57.24,54.829z M47.16,56.75c0.356-0.204,0.347-0.773,0.48-1.2c-0.789,0.251-1.049,1.031-1.44,1.68
	c0.206,0.766-0.378,0.742-0.48,1.2c-2.351,1.475-4.307,6.567-0.96,8.399c0,0.08,0,0.16,0,0.24c0.221,0.419,0.75,0.529,1.44,0.479
	c-0.244-0.955-0.727-1.673-1.44-2.159c-1.491-1.153-0.251-3.712,0.48-4.801c0.714-0.65,1.874-2.118,1.68-2.879
	C46.866,57.255,47.19,57.18,47.16,56.75z M66.12,58.909c-0.167-0.953,0.418-2.658-0.48-2.88c-0.345,0.91,0.187,2.327-0.479,3.36
	c-0.08,0-0.16,0-0.24,0c0.099,0.578-0.438,0.521-0.24,1.199C65.721,60.591,65.848,59.677,66.12,58.909z M50.04,64.669
	c-0.693,0.588-1.907,0.653-2.16,1.681c0.87,0.214,2.537-0.163,3.12-0.96c0-0.08,0-0.16,0-0.24
	C50.645,65.024,50.395,64.794,50.04,64.669z M54.84,72.589c0.445-0.595,1.389-0.69,1.2-1.92c-2.082-0.082-2.55,1.45-4.32,1.681
	c-0.563-0.076-2.616,0.418-3.6,0.72c-0.4,0-0.8,0-1.2,0c-1.466-0.294-2.385-1.135-4.08-1.2c-0.316-0.483-0.788-0.812-1.44-0.96
	c-0.013,0.307-0.308,0.332-0.24,0.72c0.514,1.406,1.544,2.296,2.64,3.12c0.08,0,0.16,0,0.24,0c0.263,0.864,2.225,1.286,2.64,1.2
	c0.08,0,0.16,0,0.24,0c0.35,0.218,1.253,0.36,1.92,0c0.203-0.518,1.53,0.09,1.68-0.479c0.08,0,0.16,0,0.24,0
	c0.857-0.184,1.461-0.619,1.92-1.2C53.672,73.981,54.32,73.35,54.84,72.589z M48.12,78.109c-1,0.195-2.003-0.326-2.4,0
	c0,0.16,0,0.32,0,0.479c1.084,1.26,4.361,1.159,5.52,0c0-0.079,0-0.159,0-0.239c-0.355-0.125-0.605-0.355-0.96-0.48
	C49.237,78.141,48.94,77.91,48.12,78.109z"/>
<path fill-rule="evenodd" clip-rule="evenodd" fill="#5C513C" d="M57.48,50.029c-0.18,0.575-4.165,0.136-2.16,0
	C56.04,50.029,56.76,50.029,57.48,50.029z"/>
<path fill-rule="evenodd" clip-rule="evenodd" fill="#364328" d="M40.92,50.509c-0.411,0.549-1.832,0.088-2.64,0.24
	c-0.211-1.075,1.411-1.11,1.92-0.72C40.169,50.46,40.438,50.591,40.92,50.509z"/>
<path fill-rule="evenodd" clip-rule="evenodd" fill="#323026" d="M44.52,50.509c-0.821,0.567-2.416,0.318-3.6,0
	c-0.481,0.082-0.751-0.049-0.72-0.48c0.006-0.233,0.293-0.186,0.48-0.24c1.449-0.22,1.981,0.054,2.64-0.24
	C43.664,49.925,44.571,49.738,44.52,50.509z"/>
<path fill-rule="evenodd" clip-rule="evenodd" fill="#8D7F53" d="M68.52,49.069c0.058,1.993,0.113,2.624,0,4.56c0,0.4,0,0.8,0,1.2
	c-0.079,0-0.159,0-0.239,0c0-1.92,0-3.84,0-5.76C68.36,49.069,68.44,49.069,68.52,49.069z"/>
<path fill-rule="evenodd" clip-rule="evenodd" fill="#5C513C" d="M57.48,55.069c-1.045-0.155-2.713,0.313-3.36-0.24
	c1.57-0.393,2.155-0.088,3.12,0C57.386,54.843,57.524,54.865,57.48,55.069z"/>
<path fill-rule="evenodd" clip-rule="evenodd" fill="#323026" d="M57.48,55.069c0.86,0.02,1.387,0.373,2.16,0.48
	c0.387-0.103,0.806,0.895,0.24,0.96c-0.7-0.259-1.383-0.537-2.4-0.48c-1.056-0.106-3.271,0.447-4.32-0.24
	c-0.111-0.751,0.208-1.071,0.96-0.96C54.767,55.382,56.435,54.915,57.48,55.069z"/>
<path fill-rule="evenodd" clip-rule="evenodd" fill="#323026" d="M44.28,55.309c-1.165,1.014-4.067-0.378-5.52,0.72
	c-0.213,0.187-0.542,0.258-0.96,0.24C37.211,54.375,43.123,53.918,44.28,55.309z"/>
<path fill-rule="evenodd" clip-rule="evenodd" fill="#364328" d="M68.28,57.229c0-0.72,0-1.44,0-2.16c0-0.08,0-0.16,0-0.24
	c0.08,0,0.16,0,0.239,0c0,0.48,0,0.96,0,1.44C68.479,56.628,68.605,57.155,68.28,57.229z"/>
<path fill-rule="evenodd" clip-rule="evenodd" fill="#8D7F53" d="M37.08,68.749c-0.203-1.077-0.514-2.046-0.48-3.359
	c0.532,1.067,0.692,2.508,0.72,4.08C37.041,69.429,37.06,69.09,37.08,68.749z"/>
<path fill-rule="evenodd" clip-rule="evenodd" fill="#8D7F53" d="M70.44,68.749c0.729,0.15,2.066-0.307,2.399,0.24
	c0.165,0.646-0.496,0.464-0.72,0.72C70.828,70.015,68.684,69.362,70.44,68.749z"/>
<path fill-rule="evenodd" clip-rule="evenodd" fill="#323026" d="M42.84,71.869c1.695,0.065,2.614,0.906,4.08,1.2
	c0,0.32,0,0.64,0,0.96c-1.888-0.194-0.516,1.462,0.72,0.96c0-0.24,0-0.479,0-0.72c0.054-0.454-0.271-0.529-0.24-0.96
	c0.495,0.145,1.667-0.388,1.44,0.479c-0.269,0.051-0.374,0.267-0.48,0.48c0,0.16,0,0.319,0,0.479c-0.054,0.454,0.271,0.53,0.24,0.96
	c-0.128,0.269-1.156-0.185-1.68,0.24c-0.08,0-0.16,0-0.24,0c-0.204-0.356-0.773-0.348-1.2-0.479c-0.12-0.544-1.177-0.525-0.48-1.2
	c0.111-0.752-0.208-1.071-0.96-0.96c0,0.239,0,0.479,0,0.72c-0.053,0.188-0.201,0.279-0.48,0.24c-0.146-0.014-0.284-0.036-0.24-0.24
	c-0.744-0.643,0.629-0.912,0-1.44c-0.776-0.296-0.183,0.777-0.96,0.48c0.041-0.601-0.369-0.751-0.72-0.96c0-0.08,0-0.16,0-0.24
	C41.702,71.308,42.694,71.731,42.84,71.869z"/>
<path fill-rule="evenodd" clip-rule="evenodd" fill="#5C513C" d="M49.56,73.069c0,0.24,0,0.479,0,0.72c-0.24,0-0.48,0-0.72,0
	c0.228-0.867-0.945-0.335-1.44-0.479c-0.03,0.431,0.294,0.506,0.24,0.96c-0.193-0.127-0.39-0.251-0.72-0.24c0-0.32,0-0.64,0-0.96
	c0.4,0,0.8,0,1.2,0C48.6,73.069,49.08,73.069,49.56,73.069z"/>
<path fill-rule="evenodd" clip-rule="evenodd" fill="#C5C3C1" d="M47.64,74.27c0,0.24,0,0.479,0,0.72
	c-1.236,0.502-2.608-1.154-0.72-0.96C47.25,74.019,47.447,74.143,47.64,74.27z"/>
<path fill-rule="evenodd" clip-rule="evenodd" fill="#3E4F2B" d="M66.36,81.709c0.177,0.543,0.914,0.525,0.96,1.2
	c0.848,0.432,1.054,1.506,1.92,1.92c0.187,0.053,0.278,0.201,0.24,0.48c-3.568,2.672-4.847,7.633-9.36,9.359
	c-1.059-0.701-1.267-2.254-2.4-2.88c0-0.08,0-0.16,0-0.24c-1.029-1.691-2.124-3.316-3.84-4.319c-0.301-0.099-0.49-0.31-0.48-0.72
	c1.67-0.33,3.817-0.184,5.041-0.961c0.079,0,0.159,0,0.239,0c1.612-0.228,2.921-0.759,4.08-1.439
	C64.456,83.805,64.798,82.147,66.36,81.709z"/>
<path fill-rule="evenodd" clip-rule="evenodd" fill="#1D1E1B" d="M83.64,101.629c0.34,1.688,0.062,2.324,0.24,4.801
	c-0.139,0.641,0.71,1.499,0,1.92c-0.479-0.481,0.025-1.946-0.72-2.16c-0.582-1.674-0.521-5.316-0.48-7.44
	c0.463-0.098,0.189-0.93,0.96-0.72C83.485,99.446,83.362,100.827,83.64,101.629z"/>
<path fill-rule="evenodd" clip-rule="evenodd" fill="#1D1E1B" d="M18.12,105.949c0.272-1.167,0.689-2.191,1.2-3.12
	c0.422-0.345,0.547-0.22,0.48,0.48c0,0.08,0,0.16,0,0.239C18.817,103.772,19.173,106.594,18.12,105.949z"/>
<path fill-rule="evenodd" clip-rule="evenodd" fill="#1D1E1B" d="M29.16,105.709c0.101,1.141-0.349,1.731-0.48,2.641
	c-0.662,0.858-0.808,2.232-0.72,3.84c0.077,0.557-0.039,0.921-0.24,1.2c-0.24,0-0.48,0-0.72,0c-0.032-0.592-0.036-1.156,0.24-1.44
	c0.018-1.022,0.401-1.679,0.24-2.88c0-0.24,0-0.48,0-0.72c0-0.24,0-0.48,0-0.721c0.269-0.051,0.374-0.266,0.48-0.479
	c0.688-1.713,1.069-3.731,1.92-5.28c0-0.08,0-0.16,0-0.24c1.049-1.11,1.511-2.809,3.12-3.359c-0.572,1.107-1.512,1.848-1.92,3.12
	c0,0.08,0,0.159,0,0.239C29.995,102.545,29.753,104.303,29.16,105.709z"/>
<path fill-rule="evenodd" clip-rule="evenodd" fill="#3E4F2B" d="M83.16,106.43c-0.099,0.578,0.438,0.521,0.24,1.199
	c-0.064,1.109,0.14,4.018,1.68,4.32c-1.642,0.928-2.438-3.113-2.88-5.52c-0.275-1.499-0.143-3.148-0.24-4.08
	C82.992,103.077,82.019,105.811,83.16,106.43z"/>
<path fill-rule="evenodd" clip-rule="evenodd" fill="#1D1E1B" d="M17.4,109.789c0-0.24,0-0.479,0-0.72
	c-0.024-0.744,0.109-1.331,0.48-1.68c0.389,1.877-0.413,4.299-0.24,5.76C17.087,112.502,17.555,110.835,17.4,109.789z"/>
<path fill-rule="evenodd" clip-rule="evenodd" fill="#364328" d="M65.16,59.39c0.666-1.033,0.135-2.45,0.479-3.36
	c0.898,0.222,0.313,1.927,0.48,2.88c-0.587,0.213-0.26,1.34-1.2,1.2C64.934,59.803,65.228,59.777,65.16,59.39z"/>
<path fill-rule="evenodd" clip-rule="evenodd" fill="#364328" d="M43.08,102.829c0.353,1.599,1.406,2.589,2.16,4.32
	c0.916,0.214,1.532-0.392,1.92,0c0.259,2.517-0.413,4.208-0.24,6c-3.28,0-6.56,0-9.84,0c0-0.24,0-0.48,0-0.72
	c-0.828,1.398-3.987,0.368-6.48,0.72c-0.742-0.589,0.605-1.775-0.72-1.68c0.847-0.919,2.895-0.111,4.32,0
	c-0.519-0.638,1.133-2.497-0.24-3.36c2.022-0.263-0.087-2.634,0.48-3.84c1.287,2.086,0.776,5.498,1.2,7.92
	c1.322-0.801,0.195-2.883,0.96-4.32c0.954,0.834,1.496-0.281,1.2-1.439c0.355,0.124,0.605,0.354,0.96,0.479
	c0.294-1.094-0.658-0.941-0.48-1.92c1.127,0.153,0.64-1.138,1.68-0.479c0.156,0.875-0.162,1.278-0.48,1.68
	c0.352,0.528,0.636,1.124,1.68,0.96c-1.141-0.611,0.07-1.643,0.24-2.64c0.617,0.022,0.343,0.937,0.96,0.96
	C43.826,104.862,42.112,103.292,43.08,102.829z M37.08,109.31c0.49,0.569,0.95-0.33,1.44,0.239c0.037-0.677-0.679-0.601-0.96-0.96
	C37.502,108.932,37.165,108.994,37.08,109.31z M39.96,110.51c-0.067,0.547,0.058,0.901,0.48,0.96c0.103-0.458,0.686-0.435,0.48-1.2
	C40.502,110.251,40.174,110.323,39.96,110.51z"/>
<path fill-rule="evenodd" clip-rule="evenodd" fill="#364328" d="M23.64,109.549c1.095,0.102,1.015,0.662,2.16,0.24
	c-1.042,0.75,0.083,0.931-0.96,1.681c0.158,0.719,0.513-0.229,0.96,0c0,0.319,0,0.64,0,0.96c-0.634,0.006-1.503-0.225-1.2,0.72
	c-0.193-0.127-0.39-0.25-0.72-0.24c0.947-0.844-0.578-1.52,0.72-2.16c-0.484-0.387-1.849-0.348-1.68,0.24
	c-0.326-0.074-0.199-0.601-0.24-0.96C23.227,110.097,23.582,109.972,23.64,109.549z"/>
<path fill-rule="evenodd" clip-rule="evenodd" fill="#323026" d="M55.32,50.029c-2.004,0.136,1.98,0.575,2.16,0
	c0.594,0.446,1.833,0.248,2.4,0.72c0.066,0.494,0.895,0.226,0.96,0.72c-0.458,0.451-0.435-0.143-1.2,0
	c-1.161,0.153-1.697-0.317-2.399,0c-0.613-0.378-2.507-0.378-3.12,0C52.358,50.935,54.473,49.254,55.32,50.029z"/>
</svg>
