<?xml version="1.0" encoding="utf-8"?>
<!-- Generator: Adobe Illustrator 15.1.0, SVG Export Plug-In . SVG Version: 6.00 Build 0)  -->
<!DOCTYPE svg PUBLIC "-//W3C//DTD SVG 1.1//EN" "http://www.w3.org/Graphics/SVG/1.1/DTD/svg11.dtd">
<svg version="1.1" id="Ebene_1" xmlns="http://www.w3.org/2000/svg" xmlns:xlink="http://www.w3.org/1999/xlink" x="0px" y="0px"
	 width="113.39px" height="113.39px" viewBox="0 0 113.39 113.39" enable-background="new 0 0 113.39 113.39" xml:space="preserve">
<path fill-rule="evenodd" clip-rule="evenodd" fill="#35442B" d="M61.135,12.349c0.617,0.023,0.344,0.937,0.96,0.96
	c-0.165,0.682-1.325,3.365,0,4.08c-0.4,1.101-1.297-0.121-1.439-0.72c0.08-0.56,0.246-1.034,0.72-1.2
	c-0.242-0.558-0.826-0.774-1.68-0.72C60.683,14.63,61.07,13.27,61.135,12.349z"/>
<path fill-rule="evenodd" clip-rule="evenodd" fill="#35442B" d="M62.815,13.309c0.721,0.159,0.931,0.829,0.96,1.68
	c-0.279-0.039-0.428,0.053-0.48,0.24C62.611,14.905,62.626,13.884,62.815,13.309z"/>
<path fill-rule="evenodd" clip-rule="evenodd" fill="#3E4F30" d="M67.135,15.229c0.422-0.15,1.401,2.294,0,2.4
	C66.505,16.929,67.349,16.247,67.135,15.229z"/>
<path fill-rule="evenodd" clip-rule="evenodd" fill="#B03524" d="M50.575,18.349c1.455-0.181,2.263,0.068,4.08,0
	c-0.46,1.38-1.917,1.763-2.88,2.64c-0.095,1.135,0.077,2.003,0.24,2.88c-1.555-1.801-4.313-1.513-6,0
	c-0.773-0.945,0.506-1.884,0.48-2.88c0.078-1.598-1.973-1.067-1.92-2.64c0.808,0.152,2.229-0.309,2.64,0.24
	c0.841-0.679,1.694-1.346,2.16-2.4C49.942,16.742,50.143,17.661,50.575,18.349z"/>
<path fill-rule="evenodd" clip-rule="evenodd" fill="#3E4F30" d="M64.735,16.429c0.751-0.111,1.071,0.208,0.96,0.96
	C64.943,17.5,64.624,17.181,64.735,16.429z"/>
<path fill-rule="evenodd" clip-rule="evenodd" fill="#3E4F30" d="M69.535,16.909c-0.591,1.366-0.267,2.157-0.72,3.6
	c-0.493-0.067-0.479-0.641-0.721-0.96c0.402-1.23,0.402-1.169,0-2.4C68.379,16.873,68.943,16.877,69.535,16.909z"/>
<path fill-rule="evenodd" clip-rule="evenodd" fill="#35442B" d="M59.455,17.149c1.034-0.23,0.813,1.517,0.479,1.92
	C59.312,18.889,58.953,17.722,59.455,17.149z"/>
<path fill-rule="evenodd" clip-rule="evenodd" fill="#3E4F30" d="M66.895,18.349c0.667,0.349,0.558,1.707,0.24,2.64
	C66.054,20.585,67.118,19.358,66.895,18.349z"/>
<path fill-rule="evenodd" clip-rule="evenodd" fill="#35442B" d="M56.335,20.27c1.086-0.007,0.076,1.111,0,1.44
	C55.295,21.362,56.588,21.173,56.335,20.27z"/>
<path fill-rule="evenodd" clip-rule="evenodd" fill="#3E4F30" d="M60.895,21.229c0.322,0.158,0.447,0.513,0.48,0.96
	c-1.336-0.104,0.368,1.943-1.44,1.68c0.275-0.995-0.505-0.935-0.479-1.68C60.328,22.043,60.338,21.987,60.895,21.229z"/>
<path fill-rule="evenodd" clip-rule="evenodd" fill="#3E4F30" d="M63.535,21.709c1.018-0.087,0.21,1.04,0.24,1.44
	c-0.214-0.187-0.542-0.258-0.96-0.24C62.56,22.014,63.715,22.529,63.535,21.709z"/>
<path fill-rule="evenodd" clip-rule="evenodd" fill="#35442B" d="M45.055,22.669c-0.078,0.882-0.592,1.328-0.72,2.16
	c1.879,0.85,4.119-2.347,5.76-0.96c-2.691-0.211-3.208,1.752-6,1.44c-0.103-1.222,0.369-1.871,0.72-2.64
	C44.895,22.669,44.975,22.669,45.055,22.669z"/>
<path fill-rule="evenodd" clip-rule="evenodd" fill="#3E4F30" d="M58.255,22.909c0.304,0.416,0.812,0.629,0.72,1.44
	C58.115,24.489,58.245,23.639,58.255,22.909z"/>
<path fill-rule="evenodd" clip-rule="evenodd" fill="#3E4F30" d="M58.495,24.589c0.544,0.256,0.872,0.728,0.96,1.44
	c-0.561,0-1.12,0-1.68,0C57.764,25.299,58.281,25.096,58.495,24.589z"/>
<path fill-rule="evenodd" clip-rule="evenodd" fill="#35442B" d="M60.655,28.189c-0.044,1.335,0.313,1.631,0,2.4
	c-5.809-0.986-10.564-1.113-17.041,0c0.177-1.137-0.27-1.65-0.24-2.64C48.98,27.25,54.88,27.13,60.655,28.189z M44.095,28.429
	c0,0.32,0,0.64,0,0.96c0.425,0.56,3.043,0.515,3.12-0.72C46.537,27.773,45.08,28.05,44.095,28.429z"/>
<path fill-rule="evenodd" clip-rule="evenodd" fill="#3E4F30" d="M47.215,28.669c-0.077,1.235-2.695,1.28-3.12,0.72
	c0-0.32,0-0.64,0-0.96C45.08,28.05,46.537,27.773,47.215,28.669z"/>
<path fill-rule="evenodd" clip-rule="evenodd" fill="#35442B" d="M61.375,28.669c1.059,0.035,0.801,1.652,0.96,1.92
	C61.037,31.343,61.767,29.396,61.375,28.669z"/>
<path fill-rule="evenodd" clip-rule="evenodd" fill="#35442B" d="M53.215,32.27c0.032,0.591,0.037,1.156-0.24,1.44
	c-0.896-1-2.854,0.491-3.12-1.2C50.93,31.867,51.722,32.216,53.215,32.27z"/>
<path fill-rule="evenodd" clip-rule="evenodd" fill="#35442B" d="M55.135,32.75c1.018,0.695,2.538-0.265,3.601,0.48
	c-0.718,1.186-2.519,0.533-3.84,0.24C55.022,33.276,55.146,33.08,55.135,32.75z"/>
<path fill-rule="evenodd" clip-rule="evenodd" fill="#837751" d="M58.015,35.629c0.08,0,0.16,0,0.24,0
	c0.903,0.717-1.757,0.642-1.92,0.24C56.832,35.727,57.912,36.166,58.015,35.629z"/>
<path fill-rule="evenodd" clip-rule="evenodd" fill="#3E4F30" d="M79.615,38.989c-0.191,0.529-0.482,0.958-1.2,0.96
	C78.498,39.312,79.045,39.139,79.615,38.989z"/>
<path fill-rule="evenodd" clip-rule="evenodd" fill="#242620" d="M56.815,67.55c-0.871-0.219-0.146-0.709-0.24-1.44
	c0.213,0.187,0.542,0.258,0.96,0.24C57.648,67.103,56.889,66.983,56.815,67.55z"/>
<path fill-rule="evenodd" clip-rule="evenodd" fill="#BEBDBC" d="M52.015,67.069c0.448-0.191,0.879-0.4,1.44-0.479
	c0,0.72,0,1.439,0,2.159c-0.336,0.367-0.889,1.036-1.44,0.48C51.808,68.272,52.374,67.456,52.015,67.069z"/>
<path fill-rule="evenodd" clip-rule="evenodd" fill="#837751" d="M47.695,70.909c0.196,0.604,1.095,0.506,1.92,0.48
	C49.41,71.732,47.222,72.039,47.695,70.909z"/>
<path fill-rule="evenodd" clip-rule="evenodd" fill="#3E4F30" d="M54.655,87.71c-0.991,1.729-2.279,3.16-3.12,5.04
	c-0.991-1.249-2.054-2.427-2.4-4.32c0.828-1.253,1.696-2.464,2.88-3.36C53.21,85.635,53.855,86.749,54.655,87.71z"/>
<path fill-rule="evenodd" clip-rule="evenodd" fill="#3E4F30" d="M64.735,89.149c-1.431,1.771-3.161,3.24-5.04,4.561
	c-0.912-2.049-1.368-4.553-2.64-6.24C59.845,84.562,63.124,84.515,64.735,89.149z"/>
<path fill-rule="evenodd" clip-rule="evenodd" fill="#242620" d="M34.975,110.75c0-0.08,0-0.16,0-0.24
	c-0.202-0.599-0.314-1.286-0.24-2.16c0.216-0.702,0.216-0.737,0-1.44c0.053-0.449,0.619-1.59,0-1.92c0-0.08,0-0.159,0-0.239
	c0.3-1.54,0.495-3.186,0.96-4.561c0-0.08,0-0.16,0-0.24c0.725-0.334,1.057-2.005,1.92-1.439c-2.099,1.979-1.685,8.876-1.92,11.76
	C35.629,111.074,35.297,111.012,34.975,110.75z"/>
<path fill-rule="evenodd" clip-rule="evenodd" fill="#35442B" d="M45.535,100.189c0.525,0.035,0.516,0.604,0.48,1.2
	c-0.771,0.21-0.498-0.622-0.96-0.72C45.114,100.409,45.532,100.507,45.535,100.189z"/>
<path fill-rule="evenodd" clip-rule="evenodd" fill="#3E4F30" d="M76.975,104.75c0,0.159,0,0.319,0,0.479
	c-1.376,1.217-1.162,4.92-1.199,6.72c-0.985-0.591-0.616-2.809-0.48-3.84c0.391-2.957,1.736-6.375,3.12-7.92
	C79.089,100.992,76.54,102.599,76.975,104.75z"/>
<path fill-rule="evenodd" clip-rule="evenodd" fill="#242620" d="M76.975,104.75c0.889-1.192,0.703-3.457,2.4-3.841
	c-1.18,3.301-1.65,7.31-3.36,10.08c0.23-2.01,0.242-4.237,0.96-5.76C76.975,105.069,76.975,104.909,76.975,104.75z"/>
<path fill-rule="evenodd" clip-rule="evenodd" fill="#35442B" d="M40.255,103.069c0.772,0.543,1.591-0.211,2.16,0.24
	c-0.507,0.773-1.515,1.045-2.16,1.68C40.369,103.927,39.925,103.796,40.255,103.069z"/>
<path fill-rule="evenodd" clip-rule="evenodd" fill="#3E4F30" d="M47.935,104.51c0.658,0.005,0.57,1.132,0.24,1.439
	C47.517,105.944,47.605,104.817,47.935,104.51z"/>
<path fill-rule="evenodd" clip-rule="evenodd" fill="#3E4F30" d="M51.295,104.75c0.627-0.068,1.032,0.087,0.96,0.72
	c-0.315,0.308-0.885,0.308-1.2,0C51.182,105.276,51.305,105.08,51.295,104.75z"/>
<path fill-rule="evenodd" clip-rule="evenodd" fill="#35442B" d="M34.735,104.989c0.619,0.33,0.053,1.471,0,1.92
	C34.025,106.489,34.874,105.631,34.735,104.989z"/>
<path fill-rule="evenodd" clip-rule="evenodd" fill="#3E4F30" d="M48.175,106.189c-0.647,0.676,0.426,0.985,0.24,1.92
	C47.483,108.485,47.311,106.072,48.175,106.189z"/>
<path fill-rule="evenodd" clip-rule="evenodd" fill="#35442B" d="M33.055,107.87c0.668-0.108-0.188,1.308,0.48,1.199
	C32.753,109.9,32.254,108.158,33.055,107.87z"/>
<path fill-rule="evenodd" clip-rule="evenodd" fill="#35442B" d="M34.735,108.35c-0.074,0.874,0.038,1.562,0.24,2.16
	C34.291,110.538,34.313,108.633,34.735,108.35z"/>
<path fill-rule="evenodd" clip-rule="evenodd" fill="#35442B" d="M27.775,110.51c0.32,0,0.64,0,0.96,0
	c0.175,0.654-0.477,0.483-0.48,0.96C27.833,111.412,27.708,111.057,27.775,110.51z"/>
<path fill-rule="evenodd" clip-rule="evenodd" fill="#35442B" d="M28.735,113.39c-0.16,0-0.32,0-0.48,0
	c-0.309-0.411-0.496-0.943-1.2-0.96c0-0.16,0-0.32,0-0.48c0.307-0.013,0.333-0.308,0.72-0.239c-0.434,0.621,0.074,0.754,0.72,0.479
	C28.696,112.468,28.812,112.833,28.735,113.39z"/>
<path fill-rule="evenodd" clip-rule="evenodd" fill="#35442B" d="M63.535,73.069c0,0.4,0,0.8,0,1.2
	c0.346-0.055,0.084-0.717,0.479-0.72c-0.025,0.614-0.136,1.144-0.479,1.439c-0.039-0.281-0.438-0.202-0.72-0.239
	C63.177,74.312,63.069,73.404,63.535,73.069z"/>
<path fill-rule="evenodd" clip-rule="evenodd" fill="#35442B" d="M81.295,53.87c0.581,0.597,0.018,2.086-0.24,2.64
	C80.92,55.414,81.48,55.015,81.295,53.87z"/>
<path fill-rule="evenodd" clip-rule="evenodd" fill="#35442B" d="M78.415,50.029c0.912,0.768,1.867,1.493,2.4,2.64
	C80.036,51.768,79.155,50.969,78.415,50.029z"/>
<path fill-rule="evenodd" clip-rule="evenodd" fill="#35442B" d="M74.095,12.829c1.27,0.811,2.239,1.921,3.12,3.12
	c-0.814-0.305-0.909-1.331-1.92-1.44c1.606,2.713,3.893,4.748,5.28,7.68c-3.99-5.096-5.484-9.427-13.44-10.56
	c-5.59-0.796-16.284-1.86-21.6,0.48c-4.211,1.854-9.383,10.509-3.36,14.64c3.723-0.132,6.925-1.323,10.08-0.72
	c-0.07-1.29-1.664-1.056-1.92-2.16c0.86,0.5,1.54,1.181,2.4,1.68c1.165-0.709,0.05-2.583,0-3.6c0.636-1.844,2.864-2.096,3.6-3.84
	c-1.053-0.948-3.355-0.645-5.28-0.72c-0.46-0.819-0.279-2.281-1.44-2.4c-1.036,0.644-1.728,1.632-2.4,2.64
	c-1.581,0.099-3.673-0.313-4.56,0.48c0.419-1.341,2.999-0.522,4.32-0.96c1.175-0.745,1.424-2.416,3.12-2.64
	c0.832,0.449,0.861,1.699,1.2,2.64c2.147-0.121,2.88-0.131,5.28,0c1.026,3.1-4.515,2.782-3.12,6.24c0.217,0.655,0.537-0.73,0.96,0
	c-0.602,0.642-0.796,1.155-1.2,2.4c0.88,0,1.76,0,2.64,0c-0.168-0.828,0.134-1.295,0.48-2.64c0.947-0.308,0.581,0.699,1.2,0.72
	c0.535-0.788-0.499-1.058,0-1.68c0.731-0.094,1.222,0.631,1.439-0.24c-0.045-1.044-0.417-0.437-1.2-0.48
	c0.188-0.988-0.368-1.231-0.24-2.16c0.494,0.306,1.217,0.383,1.2,1.2c0.489-0.15,0.067-1.212,0.96-0.96
	c-0.036,0.595-0.045,1.165,0.479,1.2c0.613-0.427,0.771-1.31,0.96-2.16c0.631,0.169,0.474,1.126,0.96,1.44
	c1.146-1.541-0.143-3.198,0.48-4.32c1.884-0.291-0.271,2.136,1.439,2.16c0.162-1.354,0.598-2.318,0-3.6
	c0.463,0.098,0.189,0.931,0.96,0.72c1.034-0.452-0.213-1.693,0.48-2.4c1.592-0.625,1.311,1.24,3.12,0.48
	c-0.343,0.32-0.343,1.36,0,1.68c0.837-0.203,0.59-1.491,1.439-1.68c3.964,0.676,4.873,4.407,7.681,6.24
	c2.431,3.802,4.375,8.85,4.56,14.16c-0.372,2.188-1.702,3.418-2.399,5.28c3.353-1.488,2.704-6.734,2.88-10.32
	c0.973,5.576-0.393,10.777-4.561,12c-5.933-10.623-20.019-17.322-36-13.2c-4.373-1.746-3.255-9.333-0.96-12.24
	c3.47-4.396,11.378-4.554,19.44-4.08c6.011,0.353,10.93,0.445,13.92,3.12C75.325,13.642,74.083,13.27,74.095,12.829z M67.135,17.629
	c1.401-0.105,0.422-2.55,0-2.4C67.349,16.247,66.505,16.929,67.135,17.629z M65.695,17.389c0.111-0.751-0.209-1.071-0.96-0.96
	C64.624,17.181,64.943,17.5,65.695,17.389z M68.095,17.149c0.402,1.23,0.402,1.169,0,2.4c0.241,0.319,0.228,0.893,0.721,0.96
	c0.453-1.443,0.129-2.234,0.72-3.6C68.943,16.877,68.379,16.873,68.095,17.149z M67.135,20.989c0.317-0.933,0.427-2.292-0.24-2.64
	C67.118,19.358,66.054,20.585,67.135,20.989z M59.455,22.189c-0.025,0.745,0.755,0.685,0.479,1.68
	c1.809,0.264,0.104-1.784,1.44-1.68c-0.033-0.447-0.158-0.802-0.48-0.96C60.338,21.987,60.328,22.043,59.455,22.189z M62.815,22.909
	c0.418-0.018,0.746,0.054,0.96,0.24c-0.03-0.4,0.777-1.527-0.24-1.44C63.715,22.529,62.56,22.014,62.815,22.909z M58.975,24.349
	c0.092-0.811-0.416-1.024-0.72-1.44C58.245,23.639,58.115,24.489,58.975,24.349z M57.775,26.029c0.56,0,1.12,0,1.68,0
	c-0.088-0.712-0.416-1.184-0.96-1.44C58.281,25.096,57.764,25.299,57.775,26.029z M78.415,39.949c0.718-0.001,1.009-0.431,1.2-0.96
	C79.045,39.139,78.498,39.312,78.415,39.949z"/>
<path fill-rule="evenodd" clip-rule="evenodd" fill="#35442B" d="M52.495,9.709c2.561,0.159,5.759-0.319,7.92,0.24
	C57.25,10.027,55.494,10.266,52.495,9.709z"/>
<path fill-rule="evenodd" clip-rule="evenodd" fill="#35442B" d="M82.015,26.029c0.492,0.468,0.309,1.611,0.721,2.16
	C82.084,27.88,82.008,26.997,82.015,26.029z"/>
<path fill-rule="evenodd" clip-rule="evenodd" fill="#35442B" d="M80.575,22.429c0.741,0.778,0.896,2.143,1.439,3.12
	C81.116,24.928,80.938,23.586,80.575,22.429z"/>
<path fill-rule="evenodd" clip-rule="evenodd" fill="#837751" d="M74.575,49.31c-0.428,0.305-1.583,0.818-1.44-0.24
	c0.194-0.045,0.239-0.241,0.48-0.24C73.673,49.251,74.028,49.376,74.575,49.31z"/>
<path fill-rule="evenodd" clip-rule="evenodd" fill="#3E4F30" d="M68.095,38.989c-0.193,0.846-0.556,1.524-0.96,2.16
	c-0.08,0-0.16,0-0.24,0c0-0.08,0-0.16,0-0.24C67.57,40.545,67.42,39.354,68.095,38.989z"/>
<path fill-rule="evenodd" clip-rule="evenodd" fill="#35442B" d="M52.255,36.109c0.664-0.532,1.285-0.392,2.16-0.24
	C53.692,36.377,53.278,35.802,52.255,36.109z"/>
<path fill-rule="evenodd" clip-rule="evenodd" fill="#837751" d="M45.535,41.149c-0.679-1.237-1.733-2.283-3.36-1.92
	c-0.067-0.547,0.058-0.902,0.48-0.96C42.769,39.007,46.111,39.733,45.535,41.149z"/>
<path fill-rule="evenodd" clip-rule="evenodd" fill="#35442B" d="M42.895,58.43c0.38,0.02,0.916-0.115,0.96,0.24
	c-0.295,0.104-0.493,0.307-0.48,0.72c-0.16,0-0.32,0-0.48,0C42.873,58.734,43.294,58.906,42.895,58.43z"/>
<path fill-rule="evenodd" clip-rule="evenodd" fill="#35442B" d="M43.615,66.829c0.88,0,1.76,0,2.64,0c0.24,0,0.48,0,0.72,0
	c-0.156,0.244-0.552,0.249-0.48,0.721c-0.204-0.045-0.227,0.094-0.24,0.239c-1.289-0.088-2.361,0.039-2.64,0.96
	c0-0.399,0-0.8,0-1.199c0.579,0.098,0.522-0.438,1.2-0.24C44.923,66.642,43.507,67.498,43.615,66.829z"/>
<path fill-rule="evenodd" clip-rule="evenodd" fill="#242620" d="M38.095,20.27c1.37-6.95,6.345-10.295,14.4-10.56
	c2.999,0.556,4.755,0.318,7.92,0.24c5.377,0.144,10.437,0.604,13.68,2.88c-0.012,0.44,1.23,0.813,0.48,1.2
	c-2.99-2.675-7.909-2.767-13.92-3.12c-8.063-0.474-15.97-0.315-19.44,4.08c-2.295,2.907-3.413,10.495,0.96,12.24
	c15.981-4.123,30.067,2.577,36,13.2c4.168-1.223,5.533-6.424,4.561-12c0-0.08,0-0.16,0-0.24c-0.412-0.549-0.229-1.692-0.721-2.16
	c0-0.16,0-0.32,0-0.48c-0.543-0.977-0.698-2.342-1.439-3.12c0-0.08,0-0.16,0-0.24c-1.388-2.932-3.674-4.967-5.28-7.68
	c1.011,0.109,1.105,1.135,1.92,1.44c4.822,4.232,10.323,16.724,4.561,23.52c-1.606,1.894-4.23,2.445-6.48,4.08
	c0.038,2.357-0.967,3.673-1.68,5.28c-0.241-0.001-0.286,0.194-0.48,0.24c-0.143,1.058,1.013,0.545,1.44,0.24
	c1.607-0.087,2.981,0.058,3.84,0.72c0.74,0.939,1.621,1.739,2.4,2.64c0.102,0.458,0.686,0.434,0.479,1.2
	c0.186,1.145-0.375,1.544-0.24,2.64c-1.529,5.031-7.292,5.828-13.439,6.24c-0.14,2.341-1.273,3.688-1.92,5.521
	c-0.296,0.268-0.493,0.209-0.48-0.24c-0.187-1.533,1.333-2.416,0.96-3.359c0.607,0.027,0.972-1.403,0.72-1.44
	c0.202-0.278,0.317-0.644,0.24-1.2c0-0.24,0-0.479,0-0.72c0.889-0.503,0.864,0.528,2.16,0.24c0.533,0.607,2.389,0.303,3.36,0
	c3.163-0.917,6.522-1.638,7.2-5.041c0.634-0.256,0.691-2.333,0.239-2.88c-0.651,0.172,0.172-1.132-0.479-0.96
	c-0.324-1.276-1.689-1.511-2.641-2.16c-0.259-0.397-2.141-0.397-2.399,0c-2.324,0.476-3.872,1.728-6.24,2.16
	c-0.597-1.35,0.012-3.061-0.479-4.08c-0.153-0.887,0.311-2.391-0.24-2.88c-0.833,0.113-0.138-1.302-0.721-1.44
	c-0.722-1.054-0.197-1.913,0-3.12c0.08,0,0.16,0,0.24,0c0.404-0.636,0.767-1.314,0.96-2.16c-0.042-0.843,0.811-0.789,0.96-1.44
	c-0.521-0.599-1.192-1.047-1.92-1.44c-1.925-0.044-3.182-0.694-4.56-0.24c-1.644,0.123-2.614-0.426-4.32-0.24c-0.08,0-0.16,0-0.24,0
	c-1.045,0.155-2.713-0.313-3.36,0.24c-0.08,0-0.16,0-0.24,0c-0.875-0.151-1.496-0.292-2.16,0.24c-1.433,0.061-1.798,0.561-3.12,0.24
	c-0.551-0.165-1.548-0.156-2.16,0.24c-0.24,0-0.48,0-0.72,0c-0.571-0.398-2.789-0.398-3.36,0c-0.331,0.31-0.238,1.042-0.24,1.68
	c-0.422,0.058-0.547,0.413-0.48,0.96c1.626-0.363,2.681,0.683,3.36,1.92c0,0.08,0,0.16,0,0.24c-1.059,0.762-1.813-0.488-2.88-0.48
	c-0.4,0-0.8,0-1.2,0c-0.681,0.339-0.31,0.776-0.48,1.92c0.078,0.882-0.205,2.125,0.24,2.64c0.295,1.019,0.088,1.292,0,2.4
	c0.24,0,0.48,0,0.72,0c1.005,0.131,3.547-0.599,3.36,1.2c-1.465,0.261-2.305-0.889-3.84-0.48c-2.162,0.576-2.131,3.752-2.4,4.8
	c-0.102,0.501,0.165,0.635,0.24,0.96c1.652-0.348,2.288-1.712,3.84-2.16c-0.044,0.204,0.094,0.227,0.24,0.24
	c-0.127,0.193-0.25,0.39-0.24,0.72c-3.355,0.652-3.402,5.15-0.24,5.28c0.399,0.477-0.022,0.305,0,0.96
	c-1.397,0.063-0.36,1.332-0.48,1.92c0.396,1.905,0.476,3.248,0.72,4.8c-0.01,0.41,0.179,0.622,0.48,0.72
	c-0.108,0.669,1.308-0.188,1.2,0.48c-0.678-0.198-0.622,0.338-1.2,0.24c0,0.399,0,0.8,0,1.199c0.169,1.111,0.229,2.331,1.2,2.641
	c0.088,0.408-0.187,0.453-0.48,0.479c-2.251-0.229-1.21-3.749-2.16-5.279c-0.155-1.046,0.313-2.714-0.24-3.36
	c0.215-2.776-2.05-4.647-2.88-6.48c-0.136-0.301,0.121-0.897,0-1.44c-0.206-0.924-0.925-1.563-0.96-2.16
	c-0.116-2.02,1.91-4.074,2.16-6.24c0.18-1.558-0.535-3.014-0.48-4.56c0.089-2.491,1.886-3.813,1.92-6
	c-0.747-0.292-1.342-0.737-2.4-0.72c-1.373-0.067-1.998-0.882-2.64-1.68c0.975-1.985,3.794-2.126,5.76-3.12
	c0.294-4.454-4.499-3.821-4.32-8.16C38.204,22.257,38.278,20.774,38.095,20.27z M43.375,27.949c-0.03,0.99,0.417,1.503,0.24,2.64
	c6.477-1.113,11.231-0.986,17.041,0c0.313-0.769-0.044-1.064,0-2.4C54.88,27.13,48.98,27.25,43.375,27.949z M62.335,30.589
	c-0.159-0.268,0.099-1.885-0.96-1.92C61.767,29.396,61.037,31.343,62.335,30.589z M37.855,33.469c7.066,5,17.884-0.224,27.84,1.44
	C60.124,29.931,45.122,30.08,37.855,33.469z"/>
<path fill-rule="evenodd" clip-rule="evenodd" fill="#35442B" d="M38.095,20.27c0.183,0.505,0.109,1.987,0,2.4
	C37.698,22.411,37.698,20.528,38.095,20.27z"/>
<path fill-rule="evenodd" clip-rule="evenodd" fill="#35442B" d="M42.655,18.349c0.629,1.131,1.911,1.609,2.88,2.4
	c0.142,0.861-0.279,1.161-0.48,1.68C46.287,20.638,42.495,19.726,42.655,18.349z"/>
<path fill-rule="evenodd" clip-rule="evenodd" fill="#242620" d="M42.655,18.109c0.887-0.793,2.979-0.381,4.56-0.48
	c0.672-1.008,1.364-1.997,2.4-2.64c1.161,0.119,0.98,1.581,1.44,2.4c1.925,0.075,4.228-0.228,5.28,0.72
	c-0.736,1.744-2.964,1.996-3.6,3.84c0.05,1.017,1.165,2.891,0,3.6c-0.86-0.5-1.54-1.18-2.4-1.68c-0.08,0-0.16,0-0.24,0
	c-1.641-1.387-3.88,1.81-5.76,0.96c0.128-0.832,0.642-1.278,0.72-2.16c0-0.08,0-0.16,0-0.24c0.201-0.519,0.622-0.818,0.48-1.68
	c-0.969-0.792-2.25-1.27-2.88-2.4C42.655,18.27,42.655,18.189,42.655,18.109z M49.375,16.189c-0.466,1.054-1.319,1.721-2.16,2.4
	c-0.411-0.549-1.832-0.088-2.64-0.24c-0.053,1.573,1.999,1.042,1.92,2.64c0.026,0.996-1.253,1.935-0.48,2.88
	c1.688-1.513,4.445-1.801,6,0c-0.163-0.877-0.335-1.745-0.24-2.88c0.963-0.877,2.419-1.26,2.88-2.64
	c-1.817,0.068-2.625-0.181-4.08,0C50.143,17.661,49.942,16.742,49.375,16.189z"/>
<path fill-rule="evenodd" clip-rule="evenodd" fill="#35442B" d="M65.695,34.909c-9.956-1.664-20.774,3.56-27.84-1.44
	C45.122,30.08,60.124,29.931,65.695,34.909z M38.335,33.469c3.727,3.548,12.191,0.923,18.24,0.72c2.417-0.081,3.831,0.335,4.8-0.72
	c-0.059,0.874,2.088,1.363,3.36,0.72C57.89,30.607,46.251,30.546,38.335,33.469z"/>
<path fill-rule="evenodd" clip-rule="evenodd" fill="#837751" d="M66.895,40.909c0,0.08,0,0.16,0,0.24
	c-0.197,1.208-0.722,2.066,0,3.12C66.047,44.374,66.132,41.627,66.895,40.909z"/>
<path fill-rule="evenodd" clip-rule="evenodd" fill="#837751" d="M75.775,50.509c0.399,0,0.8,0,1.199,0
	c0.951,0.649,2.316,0.884,2.641,2.16c0,0.08,0,0.16,0,0.24C78.463,51.982,77.586,50.779,75.775,50.509z"/>
<path fill-rule="evenodd" clip-rule="evenodd" fill="#837751" d="M63.775,71.39c0.954-3.285,1.843-6.638,3.359-9.36
	c0.077,0.557-0.038,0.922-0.24,1.2c-0.383,0.337-0.612,0.827-0.72,1.44c0.373,0.943-1.146,1.826-0.96,3.359
	c-0.604,0.196-0.335,1.266-0.72,1.681C64.287,70.302,64.557,71.371,63.775,71.39z"/>
<path fill-rule="evenodd" clip-rule="evenodd" fill="#837751" d="M62.575,75.229c-0.058,2.263-1.04,3.6-1.44,5.521
	c-0.564,0.234-0.215,1.385-0.72,1.68C60.894,79.469,61.839,77.394,62.575,75.229z"/>
<path fill-rule="evenodd" clip-rule="evenodd" fill="#837751" d="M52.495,82.43c-0.39-0.57-0.466-1.454-0.72-2.16
	c0.452,0.588,0.906,1.174,0.96,2.16C52.655,82.43,52.575,82.43,52.495,82.43z"/>
<path fill-rule="evenodd" clip-rule="evenodd" fill="#837751" d="M49.855,75.71c0.851,0.669,2.468,0.571,2.64,1.92
	c-0.194,0.045-0.239,0.24-0.48,0.239c0.619-0.647-0.252-1.158-0.96-1.199c-0.006-0.233-0.293-0.187-0.48-0.24
	c-0.176-0.225-0.436-0.363-0.72-0.48C49.855,75.869,49.855,75.789,49.855,75.71z"/>
<path fill-rule="evenodd" clip-rule="evenodd" fill="#C6AA5E" d="M48.895,75.229c-0.353-0.927-1.329-1.231-1.44-2.4
	c0.99,0.03,1.502-0.417,2.64-0.239c1.573-0.107,2.151-1.21,2.88-2.16c0.204,0.044,0.226-0.094,0.24-0.24
	c0.194-0.046,0.239-0.241,0.48-0.24c1.407-0.272,2.105-1.254,2.88-2.16c0.08,0,0.16,0,0.24,0c1.065-0.935,2.386-1.613,2.88-3.119
	c0.07-0.49,0.649-0.471,0.72-0.961c1.077-0.06,0.212-2.046-0.48-0.96c-1.235,0.765-2.669,1.33-4.32,1.681
	c-0.147,0.332-0.924,0.036-0.96,0.479c-0.443,0.356-1.14,0.46-1.92,0.48c-0.463-0.213-2.063,0.488-2.88,0.72
	c-0.427,0.133-0.997,0.123-1.2,0.48c-1.044,0.086-1.104,0.036-1.68,0.239c-0.24,0-0.48,0-0.72,0
	c-0.489-0.551-1.993-0.087-2.88-0.239c0.039-0.279-0.053-0.428-0.24-0.48c-0.244-1.552-0.324-2.895-0.72-4.8
	c0.782-0.395-0.439-1.303,0.24-1.68c1.432,0.046,3.307,0.599,5.04,0c0.08,0,0.16,0,0.24,0c1.675,0.154,2.76-0.28,2.88-1.681
	c0.648-1.164-0.479-2.293-2.16-2.4c-0.039-0.281-0.438-0.202-0.72-0.24c-0.388-0.068-0.413,0.227-0.72,0.24
	c0.2,1,1.705,0.696,2.16,1.44c0.045,0.194,0.241,0.239,0.24,0.48c0,0.24,0,0.48,0,0.72c-0.193,0.127-0.39,0.25-0.72,0.24
	c-0.123-0.029-2.416-0.187-2.88,0.24c-0.957,0.206-1.773-0.359-2.16,0c-0.044-0.355-0.58-0.221-0.96-0.24
	c-3.163-0.13-3.116-4.628,0.24-5.28c0.446-0.514,1.487-0.433,1.68-1.2c1.374-0.626,2.64-1.36,2.64-3.36
	c-1.189,0.091-1.029,1.531-1.92,1.92c-0.506,0.213-0.709,0.731-1.44,0.72c-1.51,0.97-3.128,1.832-4.56,2.88
	c-0.346-0.054-0.083-0.716-0.48-0.72c0.27-1.048,0.239-4.225,2.4-4.8c1.535-0.409,2.375,0.741,3.84,0.48
	c0.188-1.799-2.354-1.069-3.36-1.2c-0.007-0.233-0.294-0.187-0.48-0.24c0.074-1.077,0.53-1.787-0.24-2.16
	c-0.445-0.515-0.162-1.758-0.24-2.64c0.397-0.243,0.26-1.02,0.48-1.44c0.427-0.132,0.997-0.123,1.2-0.48
	c1.067-0.008,1.821,1.242,2.88,0.48c0-0.08,0-0.16,0-0.24c0.577-1.416-2.766-2.143-2.88-2.88c0.002-0.638-0.09-1.371,0.24-1.68
	c1.12,0,2.24,0,3.36,0c0.24,0,0.48,0,0.72,0c0.651-0.148,1.904,0.305,2.16-0.24c1.322,0.321,1.687-0.179,3.12-0.24
	c1.023-0.308,1.437,0.268,2.16-0.24c0.08,0,0.16,0,0.24,0c0.56,0,1.12,0,1.68,0c0.163,0.402,2.823,0.477,1.92-0.24
	c1.706-0.186,2.677,0.363,4.32,0.24c1.417,0.082,3.873,0.936,4.56,0.24c0.728,0.393,1.399,0.841,1.92,1.44
	c-0.149,0.651-1.002,0.597-0.96,1.44c-0.675,0.365-0.524,1.556-1.2,1.92c-0.763,0.718-0.848,3.464,0,3.36
	c0.583,0.138-0.112,1.553,0.721,1.44c-0.189,0.917-0.18,1.991,0.24,2.88c0.491,1.019-0.117,2.73,0.479,4.08
	c2.368-0.432,3.916-1.684,6.24-2.16c0.399,0,0.8,0,1.2,0c1.811,0.27,2.688,1.473,3.84,2.4c0-0.08,0-0.16,0-0.24
	c0.651-0.172-0.172,1.132,0.479,0.96c0.162,1.202-0.222,1.858-0.239,2.88c-0.678,3.403-4.037,4.124-7.2,5.041c-1.12,0-2.24,0-3.36,0
	c-1.296,0.288-1.271-0.743-2.16-0.24c0,0.24,0,0.479,0,0.72c-1.517,2.723-2.405,6.075-3.359,9.36c0.117,0.757-0.433,0.848-0.24,1.68
	c-0.466,0.335-0.358,1.242-0.72,1.681c-0.046,0.194-0.241,0.238-0.24,0.479c-0.736,2.164-1.682,4.239-2.16,7.2c0,0.399,0,0.8,0,1.2
	c0,0.08,0,0.159,0,0.239c-1.692,0.63-3.28,2.638-5.04,2.4c-0.507-0.773-1.123-1.438-1.92-1.92c-0.256-0.704-0.958-0.963-0.96-1.92
	c0.08,0,0.16,0,0.24,0c-0.054-0.986-0.508-1.572-0.96-2.16c-0.18-0.78-0.435-1.485-0.72-2.16c0.214-0.187,0.542-0.258,0.96-0.24
	c0.241,0.001,0.286-0.194,0.48-0.239c-0.172-1.349-1.79-1.251-2.64-1.92C49.5,75.585,49.25,75.354,48.895,75.229z M59.695,40.909
	c-1.663-2.572-5.343-2.559-7.44-0.48c-1.323-0.056-1.097,1.067-0.96,1.92c0.359-0.041,0.886,0.085,0.96-0.24
	c2.234-1.476,5.279-1.164,7.44,0.24c0,0.08,0,0.16,0,0.24c0.654,0.175,0.482-0.477,0.96-0.48
	C60.639,41.406,60.106,41.218,59.695,40.909z M54.655,48.109c-0.874-0.074-1.562,0.038-2.16,0.24
	c-0.422,0.058-0.547,0.413-0.48,0.96c0.146,0.138,1.138,0.562,1.2,0c0.16,0,0.32,0,0.48,0c1.004,0.005,2.935,0.406,3.84,0.24
	C58.287,48.31,55.715,48.335,54.655,48.109z M66.175,50.75c0.111-0.751-0.208-1.071-0.96-0.96c0.211,1.41-0.851,1.549-0.72,2.88
	c0,0.08,0,0.16,0,0.24c-1.297,1.343-2.396,2.883-3.36,4.56c0.359,0.38,0.981,0.177,1.2-0.24c0.354-1.006,1.308-1.412,1.68-2.4
	C64.909,53.644,66.081,52.736,66.175,50.75z M74.335,53.39c-1.072-0.425-2.916,0.439-3.6,1.2c-0.308,0.013-0.333,0.308-0.721,0.24
	c-0.92,0.139-1.779,1.282-1.199,2.16c1.619-0.38,2.197-1.802,4.079-1.92c0,0.48,0,0.96,0,1.44c0,0.08,0,0.16,0,0.24
	c0.188,0.053,0.279,0.201,0.24,0.48c0.898,0.019,0.819-0.941,0.96-1.68c0.08,0,0.16,0,0.24,0c-0.002-1.31,1.469-0.923,2.4-0.72
	c0.547,0.067,0.902-0.058,0.96-0.48c-0.489-0.071-0.471-0.649-0.96-0.72C75.983,53.151,75.227,53.212,74.335,53.39z"/>
<path fill-rule="evenodd" clip-rule="evenodd" fill="#837751" d="M50.095,72.59c0.931-0.51,1.848-1.033,2.4-1.92
	c0.194-0.046,0.239-0.241,0.48-0.24C52.246,71.38,51.668,72.482,50.095,72.59z"/>
<path fill-rule="evenodd" clip-rule="evenodd" fill="#837751" d="M54.175,69.47c1.136-0.225,1.547-1.173,2.4-1.681
	c-0.775,0.906-1.474,1.888-2.88,2.16C53.801,69.736,53.906,69.521,54.175,69.47z"/>
<path fill-rule="evenodd" clip-rule="evenodd" fill="#837751" d="M56.815,67.789c0.615-1.145,2.037-1.483,2.4-2.88
	c0.194-0.045,0.239-0.24,0.48-0.239C59.201,66.176,57.88,66.854,56.815,67.789z"/>
<path fill-rule="evenodd" clip-rule="evenodd" fill="#837751" d="M52.735,65.39c-0.47,0.49-1.204,0.716-2.16,0.72
	c-0.24,0-0.48,0-0.72,0C50.672,65.878,52.271,65.177,52.735,65.39z"/>
<path fill-rule="evenodd" clip-rule="evenodd" fill="#837751" d="M43.615,66.829c-0.301-0.098-0.49-0.31-0.48-0.72
	c0.187,0.053,0.279,0.201,0.24,0.48c0.887,0.152,2.391-0.312,2.88,0.239C45.375,66.829,44.495,66.829,43.615,66.829z"/>
<path fill-rule="evenodd" clip-rule="evenodd" fill="#837751" d="M42.415,61.31c0.12-0.588-0.917-1.857,0.48-1.92
	c0.16,0,0.32,0,0.48,0c0.32,0,0.64,0,0.96,0c0.03,0.53,1.018,0.102,1.44,0.24c0.24,0,0.48,0,0.72,0c0.766,0.142,0.742-0.451,1.2,0
	c-1.733,0.599-3.608,0.046-5.04,0C41.976,60.007,43.197,60.915,42.415,61.31z"/>
<path fill-rule="evenodd" clip-rule="evenodd" fill="#837751" d="M47.935,55.31c-0.046,0.194-0.241,0.239-0.24,0.48
	c0.49,0.47,1.501,0.418,1.68,1.2c-0.456-0.744-1.96-0.439-2.16-1.44C47.522,55.536,47.547,55.242,47.935,55.31z"/>
<path fill-rule="evenodd" clip-rule="evenodd" fill="#837751" d="M46.015,58.67c0.464-0.427,2.757-0.27,2.88-0.24
	C48.315,58.89,46.966,58.581,46.015,58.67z"/>
<path fill-rule="evenodd" clip-rule="evenodd" fill="#837751" d="M39.055,53.39c0.396,0.003,0.134,0.666,0.48,0.72
	c1.432-1.048,3.05-1.91,4.56-2.88c-0.023,0.617-0.937,0.343-0.96,0.96c-1.552,0.448-2.188,1.812-3.84,2.16
	C39.219,54.025,38.953,53.891,39.055,53.39z"/>
<path fill-rule="evenodd" clip-rule="evenodd" fill="#837751" d="M41.935,47.87c-0.24,0-0.48,0-0.72,0
	c0.088-1.108,0.295-1.381,0-2.4c0.77,0.374,0.314,1.083,0.24,2.16C41.641,47.683,41.928,47.636,41.935,47.87z"/>
<path fill-rule="evenodd" clip-rule="evenodd" fill="#837751" d="M42.655,40.909c-0.203,0.357-0.772,0.348-1.2,0.48
	c-0.22,0.421-0.083,1.198-0.48,1.44c0.17-1.145-0.201-1.582,0.48-1.92C41.855,40.909,42.255,40.909,42.655,40.909z"/>
<path fill-rule="evenodd" clip-rule="evenodd" fill="#35442B" d="M59.695,40.909c0.411,0.309,0.943,0.497,0.96,1.2
	c-0.478,0.003-0.306,0.655-0.96,0.48c0-0.08,0-0.16,0-0.24c0.053-0.187,0.2-0.279,0.479-0.24
	C60.212,41.512,59.798,41.366,59.695,40.909z"/>
<path fill-rule="evenodd" clip-rule="evenodd" fill="#837751" d="M53.695,49.31c0.398-0.402,1.409-0.191,2.16-0.24
	c0.363,0.357,1.053,0.387,1.68,0.48C56.629,49.715,54.699,49.314,53.695,49.31z"/>
<path fill-rule="evenodd" clip-rule="evenodd" fill="#35442B" d="M54.655,48.109c1.06,0.226,3.632,0.2,2.88,1.44
	c-0.627-0.093-1.317-0.123-1.68-0.48c2.225-0.106-0.663-0.517-1.2-0.72C54.655,48.27,54.655,48.189,54.655,48.109z"/>
<path fill-rule="evenodd" clip-rule="evenodd" fill="#35442B" d="M53.215,49.31c-0.062,0.562-1.054,0.138-1.2,0
	c-0.067-0.547,0.058-0.902,0.48-0.96C51.811,49.012,52.78,49.082,53.215,49.31z"/>
<path fill-rule="evenodd" clip-rule="evenodd" fill="#242620" d="M45.535,50.509c0.892-0.389,0.731-1.829,1.92-1.92
	c0,2-1.267,2.733-2.64,3.36c-0.242-0.662-0.415,1.1-0.96,0.24C43.754,50.968,45.679,51.773,45.535,50.509z"/>
<path fill-rule="evenodd" clip-rule="evenodd" fill="#837751" d="M62.335,57.229c-0.219,0.417-0.841,0.62-1.2,0.24
	c0.964-1.676,2.063-3.217,3.36-4.56c-0.046,0.833-0.849,0.911-0.96,1.68c-0.806,0.795-1.677,1.523-1.92,2.88
	C61.808,57.342,62.005,57.219,62.335,57.229z"/>
<path fill-rule="evenodd" clip-rule="evenodd" fill="#837751" d="M66.175,50.75c-1.189-0.827-1.027,1.443-1.68,1.92
	c-0.131-1.331,0.931-1.47,0.72-2.88C65.967,49.678,66.286,49.998,66.175,50.75z"/>
<path fill-rule="evenodd" clip-rule="evenodd" fill="#35442B" d="M45.535,50.509c0.144,1.264-1.781,0.459-1.68,1.68
	c0.545,0.859,0.718-0.902,0.96-0.24c-0.193,0.767-1.234,0.686-1.68,1.2c-0.01-0.331,0.113-0.527,0.24-0.72
	c-0.146-0.013-0.284-0.036-0.24-0.24c0.023-0.617,0.937-0.343,0.96-0.96C44.826,51.24,45.028,50.723,45.535,50.509z"/>
<path fill-rule="evenodd" clip-rule="evenodd" fill="#837751" d="M70.735,54.589c0.684-0.76,2.527-1.625,3.6-1.2
	C72.965,53.62,71.982,54.237,70.735,54.589z"/>
<path fill-rule="evenodd" clip-rule="evenodd" fill="#837751" d="M72.895,56.509c0-0.48,0-0.96,0-1.44
	c-1.882,0.118-2.46,1.54-4.079,1.92c-0.58-0.877,0.279-2.021,1.199-2.16c-0.399,0.64-1.237,0.842-1.199,1.92
	c1.782-0.298,1.992-2.168,4.319-1.92c0,0.48,0,0.96,0,1.44C73.179,56.474,73.041,56.496,72.895,56.509z"/>
<path fill-rule="evenodd" clip-rule="evenodd" fill="#35442B" d="M74.095,55.549c-0.141,0.739-0.062,1.699-0.96,1.68
	c0.039-0.279-0.053-0.427-0.24-0.48c0-0.08,0-0.16,0-0.24c0.146-0.014,0.284-0.036,0.24-0.24c0.523,0.043,0.764-0.197,0.721-0.72
	C73.935,55.549,74.015,55.549,74.095,55.549z"/>
<path fill-rule="evenodd" clip-rule="evenodd" fill="#35442B" d="M76.735,53.629c0.489,0.071,0.471,0.649,0.96,0.72
	c-0.058,0.422-0.413,0.547-0.96,0.48c-0.003-0.317-0.421-0.22-0.48-0.48C76.686,54.38,76.816,54.111,76.735,53.629z"/>
<path fill-rule="evenodd" clip-rule="evenodd" fill="#35442B" d="M63.535,54.589c0.24,0,0.285,0.194,0.479,0.24
	c-0.372,0.988-1.325,1.394-1.68,2.4c-0.33-0.01-0.527,0.113-0.72,0.24C61.858,56.112,62.729,55.384,63.535,54.589z"/>
<path fill-rule="evenodd" clip-rule="evenodd" fill="#35442B" d="M49.375,56.989c-0.179-0.781-1.19-0.729-1.68-1.2
	c0-0.241,0.194-0.286,0.24-0.48c0.282,0.038,0.681-0.042,0.72,0.24c-0.128,0.94,1.82,1.045,0.96,1.92
	C49.616,57.229,49.42,57.184,49.375,56.989z"/>
<path fill-rule="evenodd" clip-rule="evenodd" fill="#242620" d="M48.655,55.549c1.681,0.106,2.808,1.236,2.16,2.4
	c-0.552,0.808-1.345,1.375-2.64,1.44c-0.181-0.471-1.775-0.358-1.68,0.24c-0.24,0-0.48,0-0.72,0c0.028-0.944-1.403-0.155-1.44-0.24
	c-0.32,0-0.64,0-0.96,0c-0.013-0.413,0.185-0.615,0.48-0.72c0.387-0.359,1.203,0.206,2.16,0c0.951-0.089,2.3,0.22,2.88-0.24
	c0.33,0.01,0.527-0.113,0.72-0.24c0-0.24,0-0.48,0-0.72C50.475,56.594,48.527,56.49,48.655,55.549z"/>
<path fill-rule="evenodd" clip-rule="evenodd" fill="#837751" d="M48.175,59.39c1.295-0.065,2.088-0.633,2.64-1.44
	c-0.12,1.4-1.205,1.835-2.88,1.681C47.891,59.426,48.028,59.403,48.175,59.39z"/>
<path fill-rule="evenodd" clip-rule="evenodd" fill="#35442B" d="M46.495,59.63c-0.095-0.599,1.499-0.711,1.68-0.24
	c-0.146,0.014-0.284,0.036-0.24,0.24c-0.08,0-0.16,0-0.24,0C47.237,59.179,47.261,59.771,46.495,59.63z"/>
<path fill-rule="evenodd" clip-rule="evenodd" fill="#35442B" d="M44.335,59.39c0.037,0.085,1.468-0.704,1.44,0.24
	C45.353,59.491,44.365,59.92,44.335,59.39z"/>
<path fill-rule="evenodd" clip-rule="evenodd" fill="#35442B" d="M66.175,64.67c0.107-0.613,0.337-1.104,0.72-1.44
	C67.146,63.267,66.782,64.697,66.175,64.67z"/>
<path fill-rule="evenodd" clip-rule="evenodd" fill="#35442B" d="M59.935,62.749c0.692-1.086,1.558,0.9,0.48,0.96
	C60.689,62.954,60.038,63.126,59.935,62.749z"/>
<path fill-rule="evenodd" clip-rule="evenodd" fill="#35442B" d="M55.375,67.55c1.19,0.23,0.403-1.518,0.96-1.92
	c0.891,1.007,2.337-0.397,1.92-1.2c0.357-0.791,0.678,0.408,0.96,0.479c-0.363,1.396-1.785,1.735-2.4,2.88c-0.08,0-0.16,0-0.24,0
	c-0.853,0.508-1.264,1.456-2.4,1.681c0.385-0.416,0.897-0.703,1.44-0.96c0.011-0.411-0.178-0.622-0.48-0.721
	C55.091,67.585,55.229,67.563,55.375,67.55z M57.535,66.35c-0.418,0.018-0.747-0.054-0.96-0.24c0.094,0.731-0.631,1.222,0.24,1.44
	C56.889,66.983,57.648,67.103,57.535,66.35z"/>
<path fill-rule="evenodd" clip-rule="evenodd" fill="#BEBDBC" d="M58.255,64.43c0.417,0.803-1.029,2.207-1.92,1.2
	c-0.557,0.402,0.23,2.15-0.96,1.92c0.412-0.389,0.596-1.004,0.48-1.92c0-0.08,0-0.16,0-0.24C56.7,65.115,57.532,64.826,58.255,64.43
	z"/>
<path fill-rule="evenodd" clip-rule="evenodd" fill="#35442B" d="M52.495,66.59c0.381-0.898,1.924-0.636,2.64-1.2
	c-0.106-0.214-0.21-0.43-0.48-0.48c0.036-0.443,0.813-0.147,0.96-0.479c-0.312,0.318-0.316,0.893,0.24,0.96c0,0.08,0,0.16,0,0.24
	c-0.703-0.063-0.737,0.542-1.44,0.479c-0.024,0.744,0.108,1.331,0.48,1.68c-0.103,0.664-0.755,0.013-0.48-0.479
	c-0.388-0.067-0.413,0.227-0.72,0.24c0-0.4,0-0.801,0-1.2C53.017,66.151,53.073,66.688,52.495,66.59z"/>
<path fill-rule="evenodd" clip-rule="evenodd" fill="#3E4F30" d="M52.015,67.069c0.358,0.387-0.207,1.203,0,2.16
	c-0.845-0.47-0.176-1.204-0.24-2.16C51.855,67.069,51.935,67.069,52.015,67.069z"/>
<path fill-rule="evenodd" clip-rule="evenodd" fill="#242620" d="M52.015,69.229c-0.112,0.512,0.343,0.457,0.72,0.48
	c0.031,0.43-0.294,0.506-0.24,0.96c-0.553,0.887-1.47,1.41-2.4,1.92c-1.137-0.178-1.65,0.27-2.64,0.239
	c0.111,1.169,1.087,1.474,1.44,2.4c0.214,0.745,0.882,1.038,1.68,1.2c0.187,0.054,0.474,0.007,0.48,0.24
	c0.766,0.741-0.002,0.405,0,1.439c0.286,0.675,0.541,1.38,0.72,2.16c0.254,0.706,0.33,1.59,0.72,2.16
	c0.002,0.957,0.704,1.216,0.96,1.92c0.342,0.938,0.982,1.577,1.92,1.92c1.76,0.237,3.348-1.771,5.04-2.4c0-0.08,0-0.159,0-0.239
	c0.412-0.788,0.635-1.766,0.72-2.88c0.4-1.921,1.383-3.258,1.44-5.521c-0.001-0.241,0.194-0.285,0.24-0.479
	c0.282,0.037,0.681-0.042,0.72,0.239c-0.789,2.812-1.409,5.792-2.4,8.4c3.682,3.837,7.743,7.354,12.721,10.32
	c4.593,2.736,10.11,3.547,12.72,7.68c1.896,3.003,2.2,6.84,2.399,12c-0.239,0-0.479,0-0.72,0c-0.64-5.514-0.96-10.349-4.08-13.44
	c-1.501-1.487-3.327-1.938-5.279-2.88c-4.284-2.064-8.441-5.042-12.24-7.2c-3.273,1.367-4.444,4.837-8.16,5.761
	c-1.083-1.317-0.777-4.023-1.68-5.521c-1.382,6.286-1.41,15.175-1.68,23.28c-0.24,0-0.48,0-0.72,0
	c-0.497-7.552,0.549-16.209,0.96-24.24c-1.822,1.378-1.95,4.45-3.84,5.76c-2.086-0.954-2.021-4.059-3.6-5.52
	c-11.838,3.602-19.048,11.832-22.32,24c-0.24,0-0.48,0-0.72,0c2.726-9.76,6.809-16.342,14.16-20.88
	c2.349-1.45,5.31-1.869,7.92-3.601c2.062-1.367,2.71-4.39,4.8-5.52c-0.61-2.029-1.555-3.725-1.68-6.24
	c-2.082-1.278-3.055-3.664-5.04-5.04c0.027-0.613,0.804-0.477,1.44-0.479c0.16,0,0.32,0,0.48,0c0-0.721,0-1.44,0-2.16
	c0.387-0.067,0.413,0.227,0.72,0.24c0,0.399,0,0.8,0,1.199c-0.473,1.13,1.715,0.823,1.92,0.48c0.08,0,0.16,0,0.24,0
	c0.597,0.037,0.743-0.377,1.2-0.48c-0.337-1.148,0.692-2.172,0-2.88c0-0.319,0-0.64,0-0.96c-0.854,0.203-1.438-0.694-1.68,0.24
	c-1.202-0.485-1.326,0.287-2.64,0.24c-0.08,0-0.16,0-0.24,0c-0.072-0.472,0.324-0.477,0.48-0.721
	c0.576-0.203,0.635-0.153,1.68-0.239c0.726-0.075,1.867,0.267,1.92-0.48c0.956-0.004,1.69-0.229,2.16-0.72
	c0.78-0.021,1.477-0.124,1.92-0.48c0.27,0.051,0.374,0.267,0.48,0.48c-0.715,0.564-2.258,0.302-2.64,1.2
	c-0.411-0.011-0.622,0.178-0.72,0.479C51.839,68.025,51.17,68.76,52.015,69.229z M64.975,89.149c-0.814-2.065-2.029-3.73-4.08-4.56
	c-1.615,0.944-3.137,1.982-4.56,3.12c2.027,1.092,1.963,4.276,2.88,6.479C61.679,93.053,63.346,91.121,64.975,89.149z
	 M51.535,92.989c1.313-1.807,2.451-3.789,3.84-5.52c-1.639-0.441-1.8-2.36-3.6-2.641C48.551,86.354,48.214,91.28,51.535,92.989z"/>
<path fill-rule="evenodd" clip-rule="evenodd" fill="#35442B" d="M48.895,75.229c0.355,0.125,0.605,0.355,0.96,0.48
	c0,0.079,0,0.159,0,0.239c0.284,0.117,0.544,0.256,0.72,0.48C49.777,76.268,49.109,75.975,48.895,75.229z"/>
<path fill-rule="evenodd" clip-rule="evenodd" fill="#837751" d="M49.375,67.31c0.242-0.935,0.826-0.037,1.68-0.24
	c0,0.32,0,0.641,0,0.96c-0.08,0-0.16,0-0.24,0c0-0.24,0-0.479,0-0.72c-0.4,0-0.8,0-1.2,0C49.535,67.31,49.455,67.31,49.375,67.31z"
	/>
<path fill-rule="evenodd" clip-rule="evenodd" fill="#3E4F30" d="M49.855,66.109c0.24,0,0.48,0,0.72,0
	c-0.053,0.747-1.194,0.405-1.92,0.48C48.858,66.232,49.428,66.242,49.855,66.109z"/>
<path fill-rule="evenodd" clip-rule="evenodd" fill="#837751" d="M52.495,66.59c0.578,0.098,0.521-0.438,1.2-0.24
	c0,0.399,0,0.8,0,1.2c0,0.319,0,0.64,0,0.96c0.044,0.204-0.093,0.227-0.24,0.239c0-0.72,0-1.439,0-2.159
	c-0.561,0.079-0.992,0.288-1.44,0.479c-0.08,0-0.16,0-0.24,0C51.874,66.768,52.084,66.579,52.495,66.59z"/>
<path fill-rule="evenodd" clip-rule="evenodd" fill="#35442B" d="M65.215,68.029c-0.013,0.449,0.185,0.508,0.48,0.24
	c-0.237,0.563-0.421,1.179-0.48,1.92c-0.08,0-0.16,0-0.24,0c0-0.24,0-0.479,0-0.72c-0.194,0.045-0.239,0.24-0.479,0.24
	C64.88,69.295,64.611,68.226,65.215,68.029z"/>
<path fill-rule="evenodd" clip-rule="evenodd" fill="#242620" d="M53.695,67.55c0.307-0.014,0.333-0.308,0.72-0.24
	c-0.275,0.492,0.377,1.144,0.48,0.479c0.08,0,0.16,0,0.24,0c0.302,0.099,0.491,0.31,0.48,0.721c-0.543,0.257-1.055,0.544-1.44,0.96
	c-0.269,0.051-0.374,0.267-0.48,0.479c-0.241-0.001-0.286,0.194-0.48,0.24c-0.659-0.38,1.236-0.788,0.48-1.68
	C53.695,68.189,53.695,67.869,53.695,67.55z"/>
<path fill-rule="evenodd" clip-rule="evenodd" fill="#35442B" d="M53.455,68.749c0.146-0.013,0.284-0.035,0.24-0.239
	c0.756,0.892-1.139,1.3-0.48,1.68c-0.014,0.146-0.036,0.284-0.24,0.24c-0.241-0.001-0.286,0.194-0.48,0.24
	c-0.054-0.454,0.271-0.53,0.24-0.96c-0.377-0.023-0.832,0.031-0.72-0.48C52.566,69.785,53.119,69.116,53.455,68.749z"/>
<path fill-rule="evenodd" clip-rule="evenodd" fill="#837751" d="M46.255,67.789c0.014-0.146,0.036-0.284,0.24-0.239
	c0.08,0,0.16,0,0.24,0c0.297,0.417-0.183,1.594,0,2.64C46.034,69.931,46.956,68.048,46.255,67.789z"/>
<path fill-rule="evenodd" clip-rule="evenodd" fill="#837751" d="M46.735,70.43c0.077,0.557-0.039,0.921-0.24,1.2
	c-0.637,0.003-1.414-0.134-1.44,0.479c-0.34,0.021-0.679,0.04-0.72-0.24c0.293-0.026,0.568-0.071,0.48-0.479c0.56,0,1.12,0,1.68,0
	C46.515,71.01,46.379,70.474,46.735,70.43z"/>
<path fill-rule="evenodd" clip-rule="evenodd" fill="#BEBDBC" d="M44.815,71.39c-0.971-0.31-1.031-1.529-1.2-2.641
	c0.279-0.921,1.352-1.048,2.64-0.96c0.701,0.259-0.221,2.142,0.48,2.4c0,0.08,0,0.16,0,0.24c-0.355,0.044-0.22,0.58-0.24,0.96
	C45.935,71.39,45.375,71.39,44.815,71.39z"/>
<path fill-rule="evenodd" clip-rule="evenodd" fill="#35442B" d="M49.615,67.31c-0.42,0.38-1.278,0.321-1.92,0.479
	c0,0.641,0,1.28,0,1.921c-0.307-0.014-0.333-0.308-0.72-0.24c0,0.72,0,1.439,0,2.16c-0.16,0-0.32,0-0.48,0
	c0.201-0.279,0.316-0.644,0.24-1.2c0-0.08,0-0.16,0-0.24c-0.183-1.046,0.297-2.223,0-2.64c1.314,0.047,1.438-0.726,2.64-0.24
	C49.455,67.31,49.535,67.31,49.615,67.31z"/>
<path fill-rule="evenodd" clip-rule="evenodd" fill="#35442B" d="M51.055,76.67c0.708,0.041,1.58,0.552,0.96,1.199
	c-0.418-0.018-0.747,0.054-0.96,0.24C51.053,77.075,51.82,77.411,51.055,76.67z"/>
<path fill-rule="evenodd" clip-rule="evenodd" fill="#837751" d="M55.375,86.27c-0.938-0.343-1.578-0.982-1.92-1.92
	C54.252,84.832,54.868,85.496,55.375,86.27z"/>
<path fill-rule="evenodd" clip-rule="evenodd" fill="#35442B" d="M55.135,113.39c0.271-8.105,0.298-16.994,1.68-23.28
	c0.903,1.497,0.598,4.203,1.68,5.521c3.716-0.924,4.887-4.394,8.16-5.761c3.799,2.158,7.956,5.136,12.24,7.2
	c1.952,0.941,3.778,1.393,5.279,2.88c3.12,3.092,3.44,7.927,4.08,13.44c-0.08,0-0.16,0-0.24,0c-0.341-4.139-1.114-7.845-2.399-11.04
	c-4.294-6.025-13.502-7.139-18.721-12.24c-2.451,0.988-3.556,3.323-5.76,4.561c0.514,1.057,0.206,1.237,0,2.399
	c-1.029-0.187,0.218-1.161-0.479-1.68c-0.941-0.062-0.893,0.868-1.92,0.72c-1.526-0.555-1.22-2.94-1.68-4.56
	c-0.797,2.323-0.57,5.67-0.96,8.399c0.755,0.115,0.938-0.342,1.44-0.479c0.092-0.813-1.063-0.378-0.72-1.44
	c0.553,0.074,0.267-0.693,0.72-0.72c0.69,0.283,0.672,1.105,1.68,0.48c0.377,0.423,0.067,1.532,0.72,1.68
	c0.674-0.207,0.511-1.25,0.96-1.68c1.431,1,1.354-0.579,2.881,0c0.005-0.565-0.414-0.707-0.24-1.44
	c-0.789,0.015-0.808,1.521-1.681,0.72c1.136-1.294-0.152-0.928,0.24-2.64c1.105-0.306,0.383,1.217,0.96,1.439
	c0.922-0.197,0.598-1.643,1.2-2.159c0.565,0.554,0.66,1.58,1.92,1.439c-0.151,0.897-0.378,1.375,0.48,1.681
	c0.017-0.794,0.873-1.515,0.72-3.12c1.195,0.44,0.391,2.626,0.72,3.359c0.74-1.101,1.585-2.095,2.641-2.88
	c0.926,0.594,2.538,0.501,2.399,2.16c1.481-0.315,3.397,0.243,4.08,1.44c7.308,1.026,9.896,8.005,9.84,15.6
	C76.415,113.39,65.774,113.39,55.135,113.39z M76.975,105.229c-0.718,1.522-0.729,3.75-0.96,5.76c1.71-2.771,2.181-6.779,3.36-10.08
	c-1.697,0.384-1.512,2.648-2.4,3.841c-0.435-2.151,2.114-3.758,1.44-4.561c-1.384,1.545-2.729,4.963-3.12,7.92
	c-0.136,1.031-0.505,3.249,0.48,3.84C75.813,110.149,75.599,106.446,76.975,105.229z"/>
<path fill-rule="evenodd" clip-rule="evenodd" fill="#35442B" d="M25.615,113.39c3.272-12.168,10.482-20.398,22.32-24
	c1.579,1.461,1.514,4.565,3.6,5.52c1.89-1.31,2.018-4.382,3.84-5.76c-0.411,8.031-1.457,16.688-0.96,24.24c-0.16,0-0.32,0-0.48,0
	c-0.187-4.587,0.34-8.46,0.24-12.96c-0.369-0.275-0.862,1.367-1.92,1.2c-4.011-1.069,0.762-6.277,1.92-2.16
	c0.884-3.249,0.235-6.585,1.2-9.601c-1.971,1.229-1.672,4.729-4.08,5.521c-1.637-1.403-2.181-3.899-3.36-5.76
	c-11.668,3.612-18.575,11.984-22.08,23.76C25.775,113.39,25.695,113.39,25.615,113.39z M53.695,99.949
	c0.514-4.11-5.199,0.311-1.92,1.2C52.815,101.432,53.563,101.002,53.695,99.949z"/>
<path fill-rule="evenodd" clip-rule="evenodd" fill="#35442B" d="M59.215,94.189c-0.917-2.203-0.853-5.388-2.88-6.479
	c1.422-1.138,2.944-2.176,4.56-3.12c2.051,0.829,3.266,2.494,4.08,4.56C63.346,91.121,61.679,93.053,59.215,94.189z M57.055,87.47
	c1.272,1.688,1.728,4.191,2.64,6.24c1.879-1.32,3.609-2.79,5.04-4.561C63.124,84.515,59.845,84.562,57.055,87.47z"/>
<path fill-rule="evenodd" clip-rule="evenodd" fill="#35442B" d="M51.775,84.829c1.8,0.28,1.961,2.199,3.6,2.641
	c-1.389,1.73-2.527,3.713-3.84,5.52C48.214,91.28,48.551,86.354,51.775,84.829z M52.015,85.069c-1.184,0.896-2.053,2.107-2.88,3.36
	c0.347,1.894,1.409,3.071,2.4,4.32c0.841-1.88,2.129-3.312,3.12-5.04C53.855,86.749,53.21,85.635,52.015,85.069z"/>
<path fill-rule="evenodd" clip-rule="evenodd" fill="#35442B" d="M35.695,100.189c-0.465,1.375-0.66,3.021-0.96,4.561
	C34.443,103.572,34.932,101.11,35.695,100.189z"/>
<path fill-rule="evenodd" clip-rule="evenodd" fill="#3E4F30" d="M34.735,106.909c0.216,0.703,0.216,0.738,0,1.44
	c-0.421,0.283-0.444,2.188,0.24,2.16c0,0.08,0,0.16,0,0.24c0,0.239,0,0.479,0,0.72c0.38-0.021,0.915,0.115,0.96-0.24
	c0.199,1.86-1.728,0.534-3.12,0.24c0.25-1.246,0.214-1.687-0.96-1.92c0.805-2.15-1.62-1.504-0.96,0.24
	c-0.57-0.698-0.471-1.693-0.24-2.641c-2.007-0.04,0.534,1.687-1.2,1.92c0.335,1.036,0.91,0.885,0.24,1.92
	c0.296,0.729,0.825-0.26,1.44,0c-0.175,1.025-1.673,0.727-1.2,2.4c-0.4,0-0.8,0-1.2,0c0.077-0.557-0.039-0.922-0.24-1.2
	c-0.646,0.274-1.153,0.142-0.72-0.479c-0.388-0.068-0.413,0.227-0.72,0.239c0,0.16,0,0.32,0,0.48c0.704,0.017,0.892,0.549,1.2,0.96
	c-0.8,0-1.6,0-2.4,0c3.505-11.775,10.412-20.147,22.08-23.76c1.179,1.86,1.723,4.356,3.36,5.76c2.408-0.792,2.109-4.291,4.08-5.521
	c-0.965,3.016-0.316,6.352-1.2,9.601c-1.158-4.117-5.931,1.091-1.92,2.16c1.058,0.167,1.551-1.476,1.92-1.2
	c0.1,4.5-0.426,8.373-0.24,12.96c-0.24,0-0.48,0-0.72,0c0.151-2.804,0.069-8.586-0.24-11.04c-1.078-0.005-1.741,0.888-2.4,0
	c-1.002,0.058,0.272,0.893-0.48,1.2c-1.188-0.454-0.011-1.781-1.2-2.16c-0.864,0.176-0.188,1.892-0.96,2.16
	c-0.611-0.024-0.567-0.895-0.24-1.2c-0.036-0.444-0.813-0.147-0.96-0.48c-0.754,0.335,0.33,1.185-0.24,1.44
	c-0.79,0.165-1.168,0.294-2.4,0c-0.131-0.349,0.281-1.24-0.24-1.2c-0.37,0.411,0.084,0.874-0.24,1.681
	c0.036,0.524,0.605,0.515,1.2,0.479c-0.641,0.944-0.433,1.452,0.72,1.68c-0.309,0.412-0.496,0.944-1.2,0.96
	c-0.318-0.401-0.636-0.804-0.48-1.68c-1.875-1.451-2.178,0.636-2.4,2.16c-1.319,0.278-0.471-1.609-1.44-1.68
	c-0.868,0.435,0.424,0.661,0.24,1.199c-0.224,0.257-0.885,0.075-0.72,0.721c-0.52,0.04-0.108-0.852-0.24-1.2
	c-0.905,0.055-1.295,0.625-1.2,1.68c-1.184,0.008,0.248-1.111-0.48-1.439c-1.085,0.435-0.591,2.449-1.2,3.359
	c-0.396-1.863-0.47-4.97,0-7.439c0.344-1.81,1.793-3.199,1.2-4.561c-1.199,0.081-1.639,0.922-1.92,1.92c0,0.08,0,0.16,0,0.24
	c-0.763,0.921-1.252,3.383-0.96,4.561c0,0.08,0,0.159,0,0.239C34.874,105.631,34.025,106.489,34.735,106.909z M45.055,100.67
	c0.462,0.098,0.19,0.93,0.96,0.72c0.035-0.596,0.044-1.165-0.48-1.2C45.532,100.507,45.114,100.409,45.055,100.67z M40.255,104.989
	c0.646-0.635,1.653-0.906,2.16-1.68c-0.569-0.451-1.388,0.303-2.16-0.24C39.925,103.796,40.369,103.927,40.255,104.989z
	 M33.535,109.069c-0.668,0.108,0.188-1.308-0.48-1.199C32.254,108.158,32.753,109.9,33.535,109.069z M28.255,111.47
	c0.003-0.477,0.655-0.306,0.48-0.96c-0.32,0-0.64,0-0.96,0C27.708,111.057,27.833,111.412,28.255,111.47z"/>
<path fill-rule="evenodd" clip-rule="evenodd" fill="#35442B" d="M53.215,113.39c-7.76,0-15.52,0-23.28,0
	c-0.474-1.674,1.025-1.375,1.2-2.4c-0.615-0.26-1.144,0.729-1.44,0c0.67-1.035,0.095-0.884-0.24-1.92
	c1.733-0.233-0.807-1.96,1.2-1.92c-0.231,0.947-0.33,1.942,0.24,2.641c-0.66-1.744,1.765-2.391,0.96-0.24
	c1.174,0.233,1.21,0.674,0.96,1.92c1.392,0.294,3.319,1.62,3.12-0.24c-0.045,0.355-0.58,0.22-0.96,0.24c0-0.24,0-0.48,0-0.72
	c0.322,0.262,0.654,0.324,0.72-0.48c0.235-2.884-0.179-9.781,1.92-11.76c-0.863-0.565-1.195,1.105-1.92,1.439
	c0.281-0.998,0.721-1.839,1.92-1.92c0.593,1.361-0.856,2.751-1.2,4.561c-0.47,2.47-0.396,5.576,0,7.439
	c0.609-0.91,0.115-2.925,1.2-3.359c0.728,0.328-0.704,1.447,0.48,1.439c-0.095-1.055,0.295-1.625,1.2-1.68
	c0.131,0.349-0.28,1.24,0.24,1.2c-0.165-0.646,0.497-0.464,0.72-0.721c0.184-0.538-1.108-0.765-0.24-1.199
	c0.969,0.07,0.122,1.958,1.44,1.68c0.222-1.524,0.525-3.611,2.4-2.16c-0.156,0.876,0.162,1.278,0.48,1.68
	c0.704-0.016,0.891-0.548,1.2-0.96c-1.152-0.228-1.361-0.735-0.72-1.68c-0.595,0.035-1.165,0.045-1.2-0.479
	c0.324-0.807-0.129-1.27,0.24-1.681c0.521-0.04,0.109,0.852,0.24,1.2c1.232,0.294,1.611,0.165,2.4,0
	c0.57-0.256-0.515-1.105,0.24-1.44c0.147,0.333,0.924,0.036,0.96,0.48c-0.327,0.306-0.371,1.176,0.24,1.2
	c0.772-0.269,0.096-1.984,0.96-2.16c1.188,0.379,0.011,1.706,1.2,2.16c0.752-0.308-0.522-1.143,0.48-1.2
	c0.66,0.888,1.323-0.005,2.4,0C53.284,104.804,53.366,110.586,53.215,113.39z M48.175,105.949c0.33-0.308,0.418-1.435-0.24-1.439
	C47.605,104.817,47.517,105.944,48.175,105.949z M51.055,105.47c0.315,0.308,0.885,0.308,1.2,0c0.072-0.633-0.333-0.788-0.96-0.72
	C51.305,105.08,51.182,105.276,51.055,105.47z M43.375,107.87c-0.864-1.179,0.497-1.07,0-2.16
	C42.031,105.71,42.807,107.647,43.375,107.87z M48.415,108.109c0.186-0.935-0.887-1.244-0.24-1.92
	C47.311,106.072,47.483,108.485,48.415,108.109z"/>
<path fill-rule="evenodd" clip-rule="evenodd" fill="#35442B" d="M51.775,99.71c-1.076-1.049,2.255-0.825,0.96,0.239
	C52.916,99.131,51.818,99.014,51.775,99.71z"/>
<path fill-rule="evenodd" clip-rule="evenodd" fill="#3E4F30" d="M43.375,105.71c0.497,1.09-0.864,0.981,0,2.16
	C42.807,107.647,42.031,105.71,43.375,105.71z"/>
<path fill-rule="evenodd" clip-rule="evenodd" fill="#35442B" d="M54.655,35.869c0.647-0.553,2.315-0.085,3.36-0.24
	c-0.103,0.537-1.183,0.097-1.68,0.24C55.775,35.869,55.215,35.869,54.655,35.869z"/>
<path fill-rule="evenodd" clip-rule="evenodd" fill="#837751" d="M62.575,35.869c1.378-0.454,2.635,0.196,4.56,0.24
	C66.448,36.805,63.992,35.951,62.575,35.869z"/>
<path fill-rule="evenodd" clip-rule="evenodd" fill="#3E4F30" d="M39.295,35.629c1.058-0.018,1.653,0.427,2.4,0.72
	C40.546,36.458,39.789,36.176,39.295,35.629z"/>
<path fill-rule="evenodd" clip-rule="evenodd" fill="#35442B" d="M42.895,36.589c0.571-0.398,2.789-0.398,3.36,0
	C45.135,36.589,44.015,36.589,42.895,36.589z"/>
<path fill-rule="evenodd" clip-rule="evenodd" fill="#3E4F30" d="M46.975,36.589c0.612-0.396,1.609-0.405,2.16-0.24
	C48.879,36.894,47.626,36.441,46.975,36.589z"/>
<path fill-rule="evenodd" clip-rule="evenodd" fill="#242620" d="M52.255,40.429c2.097-2.079,5.777-2.092,7.44,0.48
	c0.103,0.457,0.517,0.603,0.479,1.2c-0.279-0.039-0.427,0.053-0.479,0.24c-2.161-1.404-5.206-1.716-7.44-0.24
	c-0.388,0.068-0.413-0.227-0.72-0.24C51.289,40.903,51.909,40.803,52.255,40.429z"/>
<path fill-rule="evenodd" clip-rule="evenodd" fill="#837751" d="M52.255,42.109c-0.074,0.326-0.601,0.199-0.96,0.24
	c-0.137-0.854-0.363-1.977,0.96-1.92c-0.346,0.374-0.966,0.474-0.72,1.44C51.842,41.882,51.867,42.177,52.255,42.109z"/>
<path fill-rule="evenodd" clip-rule="evenodd" fill="#35442B" d="M67.855,48.589c-0.42-0.889-0.43-1.962-0.24-2.88
	C68.166,46.199,67.702,47.703,67.855,48.589z"/>
<path fill-rule="evenodd" clip-rule="evenodd" fill="#242620" d="M55.855,49.069c-0.751,0.049-1.762-0.162-2.16,0.24
	c-0.16,0-0.32,0-0.48,0c-0.435-0.228-1.404-0.298-0.72-0.96c0.598-0.202,1.286-0.314,2.16-0.24c0,0.08,0,0.16,0,0.24
	C55.192,48.553,58.08,48.963,55.855,49.069z"/>
<path fill-rule="evenodd" clip-rule="evenodd" fill="#3E4F30" d="M74.575,50.509c0.259-0.397,2.141-0.397,2.399,0
	c-0.399,0-0.8,0-1.199,0C75.375,50.509,74.975,50.509,74.575,50.509z"/>
<path fill-rule="evenodd" clip-rule="evenodd" fill="#242620" d="M66.175,50.75c-0.094,1.986-1.266,2.895-2.16,4.08
	c-0.194-0.046-0.239-0.241-0.479-0.24c0.111-0.769,0.914-0.846,0.96-1.68c0-0.08,0-0.16,0-0.24
	C65.147,52.192,64.985,49.923,66.175,50.75z"/>
<path fill-rule="evenodd" clip-rule="evenodd" fill="#3E4F30" d="M80.095,53.629c0.452,0.546,0.395,2.624-0.239,2.88
	C79.873,55.487,80.257,54.831,80.095,53.629z"/>
<path fill-rule="evenodd" clip-rule="evenodd" fill="#837751" d="M76.735,54.83c-0.932-0.204-2.402-0.59-2.4,0.72
	c-0.08,0-0.16,0-0.24,0c0-0.4,0-0.8,0-1.2c0.721,0,1.44,0,2.16,0C76.314,54.61,76.732,54.512,76.735,54.83z"/>
<path fill-rule="evenodd" clip-rule="evenodd" fill="#242620" d="M73.135,56.27c0-0.48,0-0.96,0-1.44
	c-2.327-0.248-2.537,1.622-4.319,1.92c-0.038-1.078,0.8-1.28,1.199-1.92c0.388,0.067,0.413-0.227,0.721-0.24
	c1.247-0.353,2.229-0.97,3.6-1.2c0.892-0.177,1.648-0.239,2.4,0.24c0.081,0.481-0.05,0.751-0.48,0.72c-0.72,0-1.439,0-2.16,0
	c0,0.4,0,0.8,0,1.2c-0.08,0-0.16,0-0.239,0C73.898,56.073,73.658,56.313,73.135,56.27z"/>
<path fill-rule="evenodd" clip-rule="evenodd" fill="#3E4F30" d="M69.295,61.55c1.12,0,2.24,0,3.36,0
	C71.684,61.853,69.828,62.157,69.295,61.55z"/>
<path fill-rule="evenodd" clip-rule="evenodd" fill="#242620" d="M60.415,63.709c-0.07,0.49-0.649,0.471-0.72,0.961
	c-0.241-0.001-0.286,0.194-0.48,0.239c-0.282-0.071-0.603-1.271-0.96-0.479c-0.723,0.396-1.555,0.686-2.4,0.96
	c-0.556-0.067-0.552-0.642-0.24-0.96c1.65-0.351,3.084-0.916,4.32-1.681C60.038,63.126,60.689,62.954,60.415,63.709z"/>
<path fill-rule="evenodd" clip-rule="evenodd" fill="#35442B" d="M42.175,66.59c-0.553-0.647-0.085-2.315-0.24-3.36
	C42.488,63.876,42.02,65.544,42.175,66.59z"/>
<path fill-rule="evenodd" clip-rule="evenodd" fill="#BEBDBC" d="M54.895,67.789c-0.372-0.349-0.504-0.936-0.48-1.68
	c0.703,0.063,0.737-0.543,1.44-0.479c0.116,0.916-0.068,1.531-0.48,1.92c-0.146,0.014-0.284,0.035-0.24,0.239
	C55.055,67.789,54.975,67.789,54.895,67.789z"/>
<path fill-rule="evenodd" clip-rule="evenodd" fill="#3E4F30" d="M51.055,68.029c0.692,0.708-0.337,1.731,0,2.88
	c-0.457,0.104-0.603,0.518-1.2,0.48c1.368-0.523,0.749-2.084,0.96-3.36C50.895,68.029,50.975,68.029,51.055,68.029z"/>
<path fill-rule="evenodd" clip-rule="evenodd" fill="#BEBDBC" d="M47.695,70.909c0-0.399,0-0.8,0-1.199c0-0.641,0-1.28,0-1.921
	c0.642-0.158,1.5-0.1,1.92-0.479c0.4,0,0.8,0,1.2,0c0,0.24,0,0.479,0,0.72c-0.211,1.276,0.408,2.837-0.96,3.36
	c-0.08,0-0.16,0-0.24,0C48.79,71.415,47.891,71.514,47.695,70.909z"/>
<path fill-rule="evenodd" clip-rule="evenodd" fill="#242620" d="M64.975,70.189c-0.141,1.299-0.572,2.308-0.96,3.36
	c-0.396,0.003-0.134,0.665-0.479,0.72c0-0.4,0-0.8,0-1.2c-0.192-0.832,0.357-0.923,0.24-1.68c0.781-0.019,0.512-1.088,0.72-1.68
	c0.24,0,0.285-0.195,0.479-0.24C64.975,69.71,64.975,69.949,64.975,70.189z"/>
<path fill-rule="evenodd" clip-rule="evenodd" fill="#35442B" d="M61.135,80.75c-0.085,1.114-0.308,2.092-0.72,2.88
	c0-0.4,0-0.801,0-1.2C60.92,82.135,60.57,80.984,61.135,80.75z"/>
<path fill-rule="evenodd" clip-rule="evenodd" fill="#837751" d="M52.735,99.949c-0.177,0.17-1.175,0.599-0.96-0.239
	C51.818,99.014,52.916,99.131,52.735,99.949z"/>
<path fill-rule="evenodd" clip-rule="evenodd" fill="#242620" d="M51.775,101.149c-3.279-0.89,2.434-5.311,1.92-1.2
	C53.563,101.002,52.815,101.432,51.775,101.149z M51.775,99.71c-0.215,0.838,0.783,0.409,0.96,0.239
	C54.03,98.885,50.699,98.661,51.775,99.71z"/>
<path fill-rule="evenodd" clip-rule="evenodd" fill="#3E4F30" d="M50.335,23.869c0.256,1.104,1.85,0.871,1.92,2.16
	c-3.155-0.603-6.357,0.588-10.08,0.72c-6.023-4.131-0.851-12.786,3.36-14.64c5.316-2.34,16.01-1.276,21.6-0.48
	c7.956,1.133,9.45,5.464,13.44,10.56c0,0.08,0,0.16,0,0.24c0.362,1.157,0.541,2.499,1.439,3.12c0,0.16,0,0.32,0,0.48
	c-0.007,0.967,0.069,1.851,0.721,2.16c0,0.08,0,0.16,0,0.24c-0.176,3.586,0.473,8.833-2.88,10.32
	c0.697-1.862,2.027-3.093,2.399-5.28c-0.185-5.31-2.129-10.358-4.56-14.16c-2.808-1.833-3.717-5.563-7.681-6.24
	c-0.85,0.189-0.603,1.477-1.439,1.68c-0.343-0.32-0.343-1.36,0-1.68c-1.81,0.76-1.528-1.105-3.12-0.48
	c-0.693,0.707,0.554,1.948-0.48,2.4c-0.771,0.21-0.497-0.623-0.96-0.72c0.598,1.282,0.162,2.246,0,3.6
	c-1.71-0.023,0.444-2.451-1.439-2.16c-0.623,1.122,0.666,2.779-0.48,4.32c-0.486-0.313-0.329-1.271-0.96-1.44
	c-0.189,0.851-0.347,1.733-0.96,2.16c-0.524-0.036-0.516-0.605-0.479-1.2c-0.893-0.252-0.471,0.81-0.96,0.96
	c0.017-0.817-0.706-0.894-1.2-1.2c-0.128,0.929,0.428,1.172,0.24,2.16c0.783,0.043,1.155-0.564,1.2,0.48
	c-0.218,0.871-0.708,0.146-1.439,0.24c-0.499,0.622,0.535,0.892,0,1.68c-0.62-0.021-0.253-1.027-1.2-0.72
	c-0.346,1.345-0.648,1.813-0.48,2.64c-0.88,0-1.76,0-2.64,0c0.404-1.246,0.599-1.758,1.2-2.4c-0.423-0.73-0.743,0.655-0.96,0
	c-1.395-3.458,4.146-3.14,3.12-6.24c-2.4-0.131-3.133-0.121-5.28,0c-0.339-0.941-0.369-2.191-1.2-2.64
	c-1.695,0.224-1.945,1.895-3.12,2.64c-1.322,0.438-3.901-0.381-4.32,0.96c0,0.08,0,0.16,0,0.24c-0.16,1.377,3.632,2.289,2.4,4.08
	c0,0.08,0,0.16,0,0.24c-0.08,0-0.16,0-0.24,0c-0.352,0.769-0.823,1.417-0.72,2.64c2.792,0.313,3.309-1.651,6-1.44
	C50.175,23.869,50.255,23.869,50.335,23.869z M59.695,14.75c0.854-0.054,1.438,0.162,1.68,0.72c-0.474,0.166-0.64,0.64-0.72,1.2
	c0.143,0.599,1.039,1.821,1.439,0.72c-1.325-0.715-0.165-3.398,0-4.08c-0.616-0.023-0.343-0.937-0.96-0.96
	C61.07,13.27,60.683,14.63,59.695,14.75z M63.295,15.229c0.053-0.187,0.201-0.279,0.48-0.24c-0.029-0.851-0.239-1.521-0.96-1.68
	C62.626,13.884,62.611,14.905,63.295,15.229z M59.935,19.069c0.333-0.403,0.555-2.15-0.479-1.92
	C58.953,17.722,59.312,18.889,59.935,19.069z M56.335,21.709c0.076-0.329,1.086-1.447,0-1.44
	C56.588,21.173,55.295,21.362,56.335,21.709z"/>
<path fill-rule="evenodd" clip-rule="evenodd" fill="#3E4F30" d="M64.735,34.189c-1.272,0.643-3.419,0.154-3.36-0.72
	c-0.969,1.056-2.383,0.639-4.8,0.72c-6.049,0.203-14.514,2.828-18.24-0.72C46.251,30.546,57.89,30.607,64.735,34.189z
	 M49.855,32.509c0.266,1.691,2.224,0.2,3.12,1.2c0.276-0.284,0.271-0.849,0.24-1.44C51.722,32.216,50.93,31.867,49.855,32.509z
	 M54.895,33.469c1.321,0.293,3.123,0.946,3.84-0.24c-1.063-0.745-2.583,0.215-3.601-0.48C55.146,33.08,55.022,33.276,54.895,33.469z
	"/>
<path fill-rule="evenodd" clip-rule="evenodd" fill="#3E4F30" d="M87.055,113.39c0.057-7.595-2.532-14.573-9.84-15.6
	c-0.683-1.197-2.599-1.756-4.08-1.44c0.139-1.659-1.474-1.566-2.399-2.16c-1.056,0.785-1.9,1.779-2.641,2.88
	c-0.329-0.733,0.476-2.919-0.72-3.359c0.153,1.605-0.703,2.326-0.72,3.12c-0.858-0.306-0.632-0.783-0.48-1.681
	c-1.26,0.141-1.354-0.886-1.92-1.439c-0.603,0.517-0.278,1.962-1.2,2.159c-0.577-0.223,0.146-1.745-0.96-1.439
	c-0.393,1.712,0.896,1.346-0.24,2.64c0.873,0.802,0.892-0.705,1.681-0.72c-0.174,0.733,0.245,0.875,0.24,1.44
	c-1.526-0.579-1.45,1-2.881,0c-0.449,0.43-0.286,1.473-0.96,1.68c-0.652-0.147-0.343-1.257-0.72-1.68
	c-1.008,0.625-0.989-0.197-1.68-0.48c-0.454,0.026-0.167,0.794-0.72,0.72c-0.342,1.063,0.812,0.628,0.72,1.44
	c-0.502,0.138-0.685,0.595-1.44,0.479c0.391-2.729,0.164-6.076,0.96-8.399c0.46,1.619,0.154,4.005,1.68,4.56
	c1.027,0.148,0.979-0.781,1.92-0.72c0.697,0.519-0.55,1.493,0.479,1.68c0.206-1.162,0.514-1.343,0-2.399
	c2.204-1.237,3.309-3.572,5.76-4.561c5.219,5.102,14.427,6.215,18.721,12.24c1.285,3.195,2.059,6.901,2.399,11.04
	C87.695,113.39,87.375,113.39,87.055,113.39z"/>
</svg>
