<?xml version="1.0" encoding="utf-8"?>
<!-- Generator: Adobe Illustrator 15.1.0, SVG Export Plug-In . SVG Version: 6.00 Build 0)  -->
<!DOCTYPE svg PUBLIC "-//W3C//DTD SVG 1.1//EN" "http://www.w3.org/Graphics/SVG/1.1/DTD/svg11.dtd">
<svg version="1.1" id="Ebene_1" xmlns="http://www.w3.org/2000/svg" xmlns:xlink="http://www.w3.org/1999/xlink" x="0px" y="0px"
	 width="113.39px" height="113.39px" viewBox="0 0 113.39 113.39" enable-background="new 0 0 113.39 113.39" xml:space="preserve">
<path fill-rule="evenodd" clip-rule="evenodd" fill="#524627" d="M72.534,23.87c-0.243,1.757-0.759,2.504-0.72,4.08
	c-6.165-0.43-9.806-2.031-16.08-3.12c-0.825,1.346,0.585,3.454-0.24,4.8c-6.503-0.537-11.807-2.273-19.2-1.92
	c0.025-2.007-0.893-6.487,0.48-8.88c2.027-0.894,5.606,0.975,7.2,1.44c3.627,1.058,7.744-0.75,12.48-0.48
	C62.222,20.118,67.44,23.054,72.534,23.87z M38.455,21.469c-0.499,1.043-0.894,3.855,0,4.8c2.54-0.466,4.86,0.522,6.48,0
	c0.687-1.413,0.088-2.076,0.48-4.08C43.489,21.263,40.726,20.8,38.455,21.469z"/>
<path fill-rule="evenodd" clip-rule="evenodd" fill="#20201E" d="M56.695,19.069c-1.381-0.021-2.772-0.052-3.84,0.24
	c0-0.08,0-0.16,0-0.24C53.719,18.806,55.871,18.576,56.695,19.069z"/>
<path fill-rule="evenodd" clip-rule="evenodd" fill="#20201E" d="M45.415,22.189c-0.392,2.004,0.207,2.667-0.48,4.08
	c-1.62,0.522-3.94-0.466-6.48,0c-0.894-0.945-0.499-3.757,0-4.8C40.726,20.8,43.489,21.263,45.415,22.189z M39.655,22.189
	c-0.861-0.878-1.519,3.938,0.48,3.12c-0.445-1.221-0.171-2.37,0.48-3.12c-0.413,0.095-0.615-0.356-0.72,0
	C39.814,22.189,39.734,22.189,39.655,22.189z M43.495,25.31c0.044,0.355,0.58,0.22,0.96,0.24c0-0.96,0-1.92,0-2.88
	c-0.561-0.079-0.992-0.289-1.44-0.48c-0.409,0.405,0.14,1.079,0.48,1.44c0.158,0.9-1.264,1.597-0.24,1.92
	C43.268,25.403,43.291,25.265,43.495,25.31z M40.615,24.35c0.321,0.428,1.389,0.742,1.92,0.24
	C43.184,22.551,40.17,22.325,40.615,24.35z"/>
<path fill-rule="evenodd" clip-rule="evenodd" fill="#A6A5A5" d="M39.895,22.189c0.559,0.653-0.708,1.522-0.24,2.88
	c-0.849-0.039-0.677-2.808,0-2.88C39.734,22.189,39.814,22.189,39.895,22.189z"/>
<path fill-rule="evenodd" clip-rule="evenodd" fill="#B8A12E" d="M42.294,23.39c0,0.4,0,0.8,0,1.2c-0.4,0-0.8,0-1.2,0
	c0.098-0.578-0.438-0.521-0.24-1.2C41.162,23.061,41.988,23.061,42.294,23.39z"/>
<path fill-rule="evenodd" clip-rule="evenodd" fill="#524627" d="M56.695,26.029c4.84,0.727,10.445,3.265,16.32,2.88
	c-1.291,3.016-3.172,6.222-2.4,10.56c-2.374-1.182-4.807-1.596-6.96-3.36c-0.689-0.05-1.219,0.061-1.439,0.48
	c-4.925-1.881-12.042,0.063-18.72-0.24c-4.581-0.208-9.006-0.994-12.48-1.2c-1.468-0.087-4.13,1.167-3.6-1.92
	c2.695-0.03,5.72,0.118,7.44-0.24c0.18-1.436-0.057-2.083,0-3.84c5.502-1.451,12.983,0.979,21.36,1.44
	C57.317,29.204,56.484,27.332,56.695,26.029z"/>
<path fill-rule="evenodd" clip-rule="evenodd" fill="#C09760" d="M35.334,37.549c0.029,0.691-0.131,1.571,0.24,1.92
	C34.811,39.31,34.766,37.73,35.334,37.549z"/>
<path fill-rule="evenodd" clip-rule="evenodd" fill="#365E81" d="M37.975,41.87c-3.19-1.037-6.931-0.5-10.8-0.48
	c-1.63,3.953,0.52,9.66,5.28,10.08c-5.426,0.889-7.263-6.438-6.48-10.32C29.415,40.603,35.52,39.281,37.975,41.87z"/>
<path fill-rule="evenodd" clip-rule="evenodd" fill="#365E81" d="M36.535,49.31c0.023,0.988-1.32,2.676-3.36,2.4
	C33.89,50.505,35.897,50.593,36.535,49.31z"/>
<path fill-rule="evenodd" clip-rule="evenodd" fill="#20201E" d="M36.055,56.27c1.199,0.427,2.632,0.778,3.12-0.48
	c0.815,0.753-0.421,1.485-0.72,1.92c-0.98-0.247-1.916-1.298-2.4-0.72c-0.16,0-0.32,0-0.48,0c-0.068-0.388,0.227-0.414,0.24-0.72
	C35.895,56.27,35.975,56.27,36.055,56.27z"/>
<path fill-rule="evenodd" clip-rule="evenodd" fill="#20201E" d="M35.814,56.27c-0.013,0.307-0.308,0.333-0.24,0.72
	c-0.315,0.308-0.885,0.308-1.2,0C34.791,56.686,35.003,56.178,35.814,56.27z"/>
<path fill-rule="evenodd" clip-rule="evenodd" fill="#BB3228" d="M42.535,63.47c-1.758,2.301-5.643-1.365-6.96,0.96
	c-0.896-0.152-1.177-1.062-2.16-0.48c-0.174-0.733,0.414-0.706,0.24-1.439c0.928-0.209,0.854,0.586,1.44,0.72
	C37.063,59.812,39.516,62.825,42.535,63.47z"/>
<path fill-rule="evenodd" clip-rule="evenodd" fill="#BB3228" d="M33.655,64.67c0.758-0.82,1.257,0.648,1.92,0.72
	c2.11-1.589,5.799,0.577,8.88-0.96C42.788,67.91,34.646,70.291,33.655,64.67z"/>
<path fill-rule="evenodd" clip-rule="evenodd" fill="#C09760" d="M52.854,72.35c0.24,0,0.48,0,0.72,0
	c0.102,0.502-0.165,0.636-0.24,0.96C52.913,73.252,52.788,72.896,52.854,72.35z"/>
<path fill-rule="evenodd" clip-rule="evenodd" fill="#C09760" d="M52.615,73.069c-0.039,0.279,0.053,0.427,0.24,0.48
	C52.372,74.714,51.197,73.063,52.615,73.069z"/>
<path fill-rule="evenodd" clip-rule="evenodd" fill="#20201E" d="M43.975,75.949c1.04,0,2.08,0,3.12,0
	C46.603,76.348,44.467,76.348,43.975,75.949z"/>
<path fill-rule="evenodd" clip-rule="evenodd" fill="#524627" d="M64.375,82.909c-2.043,4.445-0.316,11.496-0.96,14.641
	c-4.623-0.381-4.32-10.025-9.601-6c1.488-4.112,4.969-6.231,7.2-9.601C62.095,82.166,63.535,81.948,64.375,82.909z"/>
<path fill-rule="evenodd" clip-rule="evenodd" fill="#524627" d="M39.175,113.39c-3.6,0-7.2,0-10.8,0
	c-0.981-8.314,6.711-11.103,8.16-18.48c-2.521,1.33-3.369,6.384-6.24,8.16c-2.355-8.22,5.445-10.158,9.36-13.68
	c0.57,1.455-1.5,2.336-1.44,4.08c2.095-0.089,3.17-3.213,5.76-3.601c-0.347-1.676-1.715,0.067-2.64,0
	c1.148-3.411,2.856-6.264,6.24-7.439c-0.919,2.491-2.767,3.749-3.12,6.479c-0.491,3.799,0.798,8.653,1.2,11.28
	C42.692,103.787,40.258,107.913,39.175,113.39z"/>
<path fill-rule="evenodd" clip-rule="evenodd" fill="#524627" d="M90.055,113.39c-4.4,0-8.8,0-13.2,0
	c-0.829-6.141-0.669-14.876,1.68-19.92c-4.438,5.49-3.34,12.811-2.64,19.92c-11.84,0-23.68,0-35.52,0
	c1.323-10.277,9.464-13.735,13.2-21.6c0.925,1.362,1.699-0.149,3.12-0.24c1.948,2.932,2.864,6.896,7.44,7.2
	c2.277-4.116-1.313-10.078,0.96-13.92c3.478,2.193,7.294,4.375,11.76,6c1.442,0.524,3.486,0.919,4.561,1.68
	c1.226,0.868,3.397,4.488,4.319,6.479C87.958,103.79,89.552,108.876,90.055,113.39z"/>
<path fill-rule="evenodd" clip-rule="evenodd" fill="#20201E" d="M45.655,88.909c0,0.881,0,1.761,0,2.641
	C45.257,91.214,45.257,89.246,45.655,88.909z"/>
<path fill-rule="evenodd" clip-rule="evenodd" fill="#20201E" d="M76.854,113.39c-0.32,0-0.64,0-0.96,0
	c-0.7-7.109-1.799-14.43,2.64-19.92C76.186,98.514,76.025,107.249,76.854,113.39z"/>
<path fill-rule="evenodd" clip-rule="evenodd" fill="#20201E" d="M67.015,21.469c1.704,0.296,3.341,0.659,4.8,1.2
	C69.805,22.68,68.497,21.987,67.015,21.469z"/>
<path fill-rule="evenodd" clip-rule="evenodd" fill="#20201E" d="M36.055,18.109c0.08,0,0.16,0,0.24,0
	c-1.976,1.783-0.844,7.131-1.2,9.84C34.813,24.819,34.304,19.948,36.055,18.109z"/>
<path fill-rule="evenodd" clip-rule="evenodd" fill="#20201E" d="M26.455,34.669c0.324,0.796,1.08,1.16,1.92,1.44
	C27.168,36.196,26.57,35.674,26.455,34.669z"/>
<path fill-rule="evenodd" clip-rule="evenodd" fill="#20201E" d="M30.055,39.47c1.502-0.136,1.875-3.687-0.48-3.12
	c0-0.08,0-0.16,0-0.24c0.675-0.647,0.984,0.426,1.92,0.24c-0.013,1.107,0.106,2.346-0.24,3.12c-0.678-0.199-0.622,0.338-1.2,0.24
	C30.055,39.629,30.055,39.549,30.055,39.47z"/>
<path fill-rule="evenodd" clip-rule="evenodd" fill="#524627" d="M45.175,81.949c0.658-0.541,0.875-1.524,2.16-1.439
	c-0.082,1.118-1.363,1.037-1.92,1.68C45.458,81.985,45.321,81.963,45.175,81.949z"/>
<path fill-rule="evenodd" clip-rule="evenodd" fill="#A6A5A5" d="M39.895,22.189c0.105-0.356,0.307,0.095,0.72,0
	c-0.651,0.75-0.925,1.899-0.48,3.12c-1.999,0.817-1.341-3.999-0.48-3.12c-0.677,0.072-0.849,2.841,0,2.88
	C39.187,23.711,40.453,22.842,39.895,22.189z"/>
<path fill-rule="evenodd" clip-rule="evenodd" fill="#A6A5A5" d="M43.495,25.31c0.16,0,0.32,0,0.48,0
	c1.211-1.043-0.955-4.182-0.48-1.68c-0.34-0.361-0.889-1.035-0.48-1.44c0.448,0.191,0.879,0.401,1.44,0.48c0,0.96,0,1.92,0,2.88
	C44.075,25.529,43.539,25.665,43.495,25.31z"/>
<path fill-rule="evenodd" clip-rule="evenodd" fill="#A6A5A5" d="M43.495,25.31c-0.204-0.044-0.227,0.093-0.24,0.24
	c-1.023-0.323,0.398-1.02,0.24-1.92c-0.475-2.501,1.691,0.637,0.48,1.68C43.814,25.31,43.655,25.31,43.495,25.31z"/>
<path fill-rule="evenodd" clip-rule="evenodd" fill="#B8A12E" d="M42.535,24.589c-0.531,0.502-1.599,0.188-1.92-0.24
	C40.17,22.325,43.184,22.551,42.535,24.589z M40.854,23.39c-0.198,0.678,0.338,0.622,0.24,1.2c0.4,0,0.8,0,1.2,0c0-0.4,0-0.8,0-1.2
	C41.988,23.061,41.162,23.061,40.854,23.39z"/>
<path fill-rule="evenodd" clip-rule="evenodd" fill="#C09760" d="M35.334,37.31c4.767-0.46,13.025,0.384,18.72-0.48
	C48.653,38.19,40.333,37.273,35.334,37.31z"/>
<path fill-rule="evenodd" clip-rule="evenodd" fill="#C09760" d="M42.774,39.47c0.728-0.372,2.015-0.494,2.16-0.24
	C44.537,39.631,43.525,39.42,42.774,39.47z"/>
<path fill-rule="evenodd" clip-rule="evenodd" fill="#C09760" d="M48.774,38.989c1.261-0.455,3.539,0.137,4.8,0.48
	C51.722,39.562,50.58,38.944,48.774,38.989z"/>
<path fill-rule="evenodd" clip-rule="evenodd" fill="#C09760" d="M55.975,39.95c-1.014,0.054-1.55-0.37-2.4-0.48
	c-1.261-0.343-3.539-0.936-4.8-0.48c-1.4-0.04-2.301,0.419-3.84,0.24c-0.146-0.254-1.433-0.132-2.16,0.24
	c-1.659,0.021-2.281,1.079-3.36,1.68c-1.227-1.128-2.028-1.419-3.84-1.68c-0.371-0.349-0.211-1.229-0.24-1.92c0-0.08,0-0.16,0-0.24
	c4.999-0.037,13.318,0.881,18.72-0.48c0.24,0,0.48,0,0.72,0c0.439,0.175,1.648,0.056,3.12,0.24c0.158,0.878-0.519,0.921-0.48,1.68
	c0,0.08,0,0.16,0,0.24c-0.521-0.04-0.109,0.852-0.24,1.2C56.596,40.288,56.653,39.751,55.975,39.95z"/>
<path fill-rule="evenodd" clip-rule="evenodd" fill="#C09760" d="M55.975,39.95c0.678-0.199,0.622,0.338,1.2,0.24
	c0.131-0.349-0.281-1.24,0.24-1.2c0,0.48,0,0.96,0,1.44C56.8,40.404,56.271,40.293,55.975,39.95z"/>
<path fill-rule="evenodd" clip-rule="evenodd" fill="#20201E" d="M54.774,36.83c1.082-0.672,2.626,0.248,3.84,0.24
	c-0.258,0.622-0.867,0.893-0.959,1.68c-0.08,0-0.16,0-0.24,0c-0.039-0.759,0.638-0.802,0.48-1.68
	C56.423,36.885,55.213,37.004,54.774,36.83z"/>
<path fill-rule="evenodd" clip-rule="evenodd" fill="#365E81" d="M55.734,42.109c-4.55-1.24-10.375-1.176-14.88,0
	c-0.113,6.513,2.009,10.791,8.4,10.8c-4.646,1.357-8.099-2.615-8.88-6.72c-0.881-0.314-1.645-0.031-2.16-0.24c0-1.28,0-2.56,0-3.84
	c1.087,0.373,1.562,0.131,2.4,0c0.4-0.32,0.373-1.067,0.72-1.44c2.502-0.145,6.758-0.879,10.8-0.48
	c3.51,0.347,8.851,1.438,7.439,4.32c-0.906,0.672-1.354-0.773-2.64-0.48c-0.908,2.943-2.604,7.623-4.8,7.68
	C54.412,49.722,56.52,46.369,55.734,42.109z"/>
<path fill-rule="evenodd" clip-rule="evenodd" fill="#A6A5A5" d="M31.015,46.189c-0.183,1.177-1.115,1.605-1.68,2.4
	c-1.916-1.472,0.921-2.827,1.44-4.08c1.124-0.556,1.1-2.26,3.12-1.92C33.103,43.958,32.004,45.019,31.015,46.189z"/>
<path fill-rule="evenodd" clip-rule="evenodd" fill="#A6A5A5" d="M31.015,46.189c0.989-1.171,2.088-2.232,2.88-3.6
	c-2.02-0.34-1.997,1.364-3.12,1.92c0.805-1.036,1.177-2.502,3.36-2.16C33.434,43.969,32.302,45.157,31.015,46.189z"/>
<path fill-rule="evenodd" clip-rule="evenodd" fill="#A6A5A5" d="M41.814,44.27c0-0.4,0-0.8,0-1.2
	c0.284-0.295,1.519-0.855,1.68-0.48c-0.307,0.333-1.133,0.147-1.44,0.48C41.923,43.418,42.335,44.31,41.814,44.27z"/>
<path fill-rule="evenodd" clip-rule="evenodd" fill="#A6A5A5" d="M42.774,44.75c-0.224,0.176-0.363,0.437-0.48,0.72
	c-0.524-0.036-0.515-0.605-0.48-1.2c0.521,0.041,0.109-0.851,0.24-1.2c0.307-0.333,1.133-0.146,1.44-0.48c0.08,0,0.16,0,0.24,0
	c0.24,0,0.48,0,0.72,0C44.001,43.416,43.064,43.759,42.774,44.75z"/>
<path fill-rule="evenodd" clip-rule="evenodd" fill="#A6A5A5" d="M43.734,42.589c0.075-0.326,0.601-0.199,0.96-0.24
	c-0.33,1.11-1.095,1.785-1.92,2.4c0.29-0.991,1.227-1.333,1.68-2.16C44.214,42.589,43.975,42.589,43.734,42.589z"/>
<path fill-rule="evenodd" clip-rule="evenodd" fill="#A6A5A5" d="M43.495,48.83c0.484-2.477,3.086-4.913,5.28-6.48
	C47.243,44.738,45.203,46.618,43.495,48.83z"/>
<path fill-rule="evenodd" clip-rule="evenodd" fill="#A6A5A5" d="M37.015,43.069c-1.399,2.681-3.439,4.721-5.28,6.96
	c-0.155-0.84,1.222-2.395,2.16-3.6C34.882,45.162,35.91,43.77,37.015,43.069z"/>
<path fill-rule="evenodd" clip-rule="evenodd" fill="#A6A5A5" d="M54.055,47.149c-0.068-0.388,0.227-0.413,0.24-0.72
	c-0.821-0.102-0.721,0.719-1.2,0.96c0.277-0.923,0.757-1.644,1.68-1.92C54.781,46.276,54.444,46.739,54.055,47.149z"/>
<path fill-rule="evenodd" clip-rule="evenodd" fill="#A6A5A5" d="M52.135,50.029c-0.266,1.095-1.512,1.208-2.16,1.92
	c0.06-1.543,1.823-3.455,3.12-4.56c0.479-0.241,0.378-1.062,1.2-0.96c-0.013,0.307-0.308,0.332-0.24,0.72c0,0.08,0,0.16,0,0.24
	C53.335,48.19,52.842,49.217,52.135,50.029z"/>
<path fill-rule="evenodd" clip-rule="evenodd" fill="#A6A5A5" d="M52.135,50.029c0.707-0.813,1.2-1.839,1.92-2.64
	C53.81,48.665,52.919,49.294,52.135,50.029z"/>
<path fill-rule="evenodd" clip-rule="evenodd" fill="#20201E" d="M58.854,45.95c-1.354-0.627-1.441,0.37-1.92,1.2
	c-0.158-0.878,0.52-0.92,0.48-1.68C58.029,45.495,58.559,45.605,58.854,45.95z"/>
<path fill-rule="evenodd" clip-rule="evenodd" fill="#C09760" d="M56.935,47.39c-1.211,3.465-3.449,6.522-6.96,7.2
	c-5.677,1.096-8.737-3.365-11.04-6.72c0.796-1.183,2.515,4.082,4.08,4.8C48.653,56.551,55.326,52.834,56.935,47.39z"/>
<path fill-rule="evenodd" clip-rule="evenodd" fill="#C09760" d="M37.975,50.029c-2.081,3.039-5.366,4.875-9.6,5.76
	c0.023,0.617,0.937,0.343,0.96,0.96c-2.43-0.904-0.037-1.313,1.68-1.92C33.578,53.924,37.035,51.325,37.975,50.029z"/>
<path fill-rule="evenodd" clip-rule="evenodd" fill="#20201E" d="M29.575,56.75c2.581,0.779,4.873,1.847,5.04,5.04
	c1.109-0.018,1.479-2.03,2.4-1.439c-0.894,0.307-1.24,1.16-1.92,1.68c-1.284,0.084-0.798-1.602-1.2-2.399
	C33.007,58.117,30.921,57.803,29.575,56.75z"/>
<path fill-rule="evenodd" clip-rule="evenodd" fill="#20201E" d="M37.254,60.35c1.611-0.328,2.738,1.899,4.56,2.16
	C40.296,62.745,38.922,60.765,37.254,60.35z"/>
<path fill-rule="evenodd" clip-rule="evenodd" fill="#20201E" d="M42.055,62.51c2.262-0.26,4.236,0.494,4.08-1.92
	C47.688,62.555,43.264,63.306,42.055,62.51z"/>
<path fill-rule="evenodd" clip-rule="evenodd" fill="#C09760" d="M46.135,60.35c-0.598-0.098-0.015-0.931,0.48-0.72
	c0.424,1.735,1.996,2.323,2.64,3.84c-0.698,0.672-1.793-0.82-2.64,0c-0.034-1.273,1.39-0.457,1.92-0.24
	C47.853,62.427,46.603,59.781,46.135,60.35z"/>
<path fill-rule="evenodd" clip-rule="evenodd" fill="#C09760" d="M43.734,75.949c-2.704-0.204-5.574-3.508-5.28-6.72
	c3.896-0.663,6.05-3.069,8.16-5.52c-1.646,3.186-5.5,5.229-8.16,6C39.177,72.827,40.831,75.013,43.734,75.949z"/>
<path fill-rule="evenodd" clip-rule="evenodd" fill="#20201E" d="M48.055,79.069c-0.394-0.654-0.389-1.85-0.24-2.399
	c1.529-0.312,2.835-0.846,3.36-2.16c-0.256-0.546-0.728,0.689-1.44,0.479c0.481-0.399,0.889-0.871,1.68-0.96
	c0.279,1.447-1.618,2.667-3.36,2.88C47.696,77.297,48.262,78.113,48.055,79.069z"/>
<path fill-rule="evenodd" clip-rule="evenodd" fill="#C09760" d="M48.294,80.51c0.543,1.622,1.17,6.309-0.48,7.2
	c-0.288-0.315-0.093-0.378,0-0.721C49.115,85.377,48.295,83.189,48.294,80.51z"/>
<path fill-rule="evenodd" clip-rule="evenodd" fill="#C09760" d="M47.814,86.75c-0.429-0.299,0.187-0.698-0.24-1.2
	c-1.174,0.026-0.757,1.644-1.68,1.92c0.561-0.96,0.693-2.347,1.92-2.64C47.957,85.574,48.041,86.089,47.814,86.75z"/>
<path fill-rule="evenodd" clip-rule="evenodd" fill="#20201E" d="M46.375,97.31c0.532,0.188-0.046,1.485,0.96,1.2
	C46.855,99.689,46.225,98.201,46.375,97.31z"/>
<path fill-rule="evenodd" clip-rule="evenodd" fill="#20201E" d="M47.575,98.51c2.486-2.233,3.681-5.759,5.76-8.4
	C51.678,93.173,50.275,96.49,47.575,98.51z"/>
<path fill-rule="evenodd" clip-rule="evenodd" fill="#C09760" d="M59.095,82.67c-2.022,2.298-4.106,4.534-5.76,7.199
	C54.668,86.883,56.863,84.758,59.095,82.67z"/>
<path fill-rule="evenodd" clip-rule="evenodd" fill="#20201E" d="M57.175,70.67c1.146,0.786-0.224,1.613-0.48,2.399
	c0.268,2.307,0.331,3.617,0.96,5.76c0.771,0.898,2.807,2.311,1.68,3.601c-0.08,0-0.16,0-0.24,0c0.206-0.193,0.143-0.657,0.479-0.72
	c-2.006-1.925-4.425-7.156-2.16-10.32C57.288,71.196,57.164,71,57.175,70.67z"/>
<path fill-rule="evenodd" clip-rule="evenodd" fill="#C09760" d="M56.455,62.27c-0.265,0.981-0.41,2.022,0.48,2.4
	c-0.497,1.022-0.948,2.092-0.72,3.84c0.265,0.598,1.673,0.847,0.96,1.68c-0.596-0.344-2.221-3.799-0.48-5.04
	C56.057,64.404,55.578,62.64,56.455,62.27z"/>
<path fill-rule="evenodd" clip-rule="evenodd" fill="#C09760" d="M57.415,52.43c-0.002,1.597-1.244,1.956-1.2,3.6
	c-0.01,0.891,0.9,0.86,1.2,1.44c-1.85,1.433,0.492,3.524-0.96,4.56c0.709-1.056-1.058-3.165,0.72-4.32
	c-0.518-0.362-0.877-0.883-1.2-1.44C55.95,54.485,56.9,53.675,57.415,52.43z"/>
<path fill-rule="evenodd" clip-rule="evenodd" fill="#C09760" d="M58.375,49.31c0.356,0.203,0.347,0.772,0.479,1.2
	c-0.647,0.392-1.142,0.938-1.44,1.68c-0.489-0.583,0.963-1.266,1.2-1.92C58.428,50.056,58.356,49.728,58.375,49.31z"/>
<path fill-rule="evenodd" clip-rule="evenodd" fill="#C09760" d="M58.375,49.069c-0.401-1.712,2.026-1.947,0.72-3.12
	C60.792,46.605,58.402,47.905,58.375,49.069z"/>
<path fill-rule="evenodd" clip-rule="evenodd" fill="#20201E" d="M36.055,56.99c0.484-0.578,1.419,0.473,2.4,0.72
	c0.299-0.435,1.535-1.167,0.72-1.92c-0.488,1.258-1.921,0.907-3.12,0.48c0.196-0.486,1.265,0.152,1.68,0.24
	c0.821,0.101,0.721-0.719,1.2-0.96C40.882,57.389,37.354,58.754,36.055,56.99z"/>
<path fill-rule="evenodd" clip-rule="evenodd" fill="#20201E" d="M36.055,18.109c0.729-0.399,3.111-0.399,3.84,0c-1.2,0-2.4,0-3.6,0
	C36.214,18.109,36.135,18.109,36.055,18.109z"/>
<path fill-rule="evenodd" clip-rule="evenodd" fill="#20201E" d="M39.895,18.109c3.433,1.013,8.064,2.27,12.96,0.96
	c0,0.08,0,0.16,0,0.24c1.068-0.292,2.459-0.261,3.84-0.24c3.9,0.34,7.236,1.245,10.32,2.4c1.482,0.518,2.79,1.21,4.8,1.2
	c0.919,0.201,1.675,0.565,1.92,1.44c-0.978,0.98-0.652,2.485-0.479,3.6c0.418-0.018,0.746,0.054,0.96,0.24
	c0.224,2.146-1.664,4.255-2.16,6.48c-0.549,1.181-1.327,4.553,0.479,5.04c0.188,0.469,1.085,1.454,1.681,0.72
	c1.211-0.437,2.28,0.767,2.64,1.92c-0.018,0.418,0.054,0.747,0.24,0.96c0.808-0.152,1.23-0.689,2.4-0.48
	c0.73-0.011,0.933,0.507,1.439,0.72c0.611,0.749,1.307,1.413,1.68,2.4c0,0.24,0,0.48,0,0.72c0.182,2.421-0.994,3.485-1.92,4.8
	c-0.608,0.877,0.292,1.771-0.479,2.4c0.453-0.054,0.529,0.271,0.96,0.24c0,0.08,0,0.16,0,0.24c0.692,0.587,0.684,1.876,1.439,2.4
	c1.461,0.22,1.904,1.456,1.92,3.12c0.375,1.653-0.878,1.682-0.96,2.88c0.253,0.707,1.086,0.834,1.681,1.2
	c-0.039,0.278,0.053,0.427,0.24,0.479c-0.187,0.214-0.259,0.542-0.24,0.96c-0.89,0.715-1.066,3.408-1.44,3.84
	c0.015,0.895-0.242,1.519-0.479,2.16c-1.55,1.65-1.835,4.565-4.32,5.28c-1.931-1.359-2.834,1.305-4.56,0
	c-2.046,3.354-6.86,2.643-9.841,4.8c1.353,4.299,5.785,5.767,10.08,7.68c3.251,1.448,6.61,1.874,8.641,4.32
	c4.15,5.001,6.181,12.591,7.68,20.16c-0.32,0-0.64,0-0.96,0c-0.503-4.514-2.097-9.6-4.32-14.4c-0.922-1.991-3.094-5.611-4.319-6.479
	c-1.074-0.761-3.118-1.155-4.561-1.68c-4.466-1.625-8.282-3.807-11.76-6c-2.272,3.842,1.317,9.804-0.96,13.92
	c-4.576-0.305-5.492-4.269-7.44-7.2c-1.421,0.091-2.195,1.603-3.12,0.24c-3.736,7.864-11.877,11.322-13.2,21.6c-0.4,0-0.8,0-1.2,0
	c1.083-5.477,3.517-9.603,6.48-13.2c-0.402-2.627-1.691-7.481-1.2-11.28c0.353-2.73,2.201-3.988,3.12-6.479
	c-3.384,1.176-5.092,4.028-6.24,7.439c0.925,0.067,2.293-1.676,2.64,0c-2.59,0.388-3.666,3.512-5.76,3.601
	c-0.06-1.744,2.01-2.625,1.44-4.08c-3.916,3.521-11.715,5.46-9.36,13.68c2.872-1.776,3.72-6.83,6.24-8.16
	c-1.449,7.378-9.141,10.166-8.16,18.48c-0.4,0-0.8,0-1.2,0c-0.624-2.641,0.224-6.21,1.92-7.92c-0.563-4.374-0.789-8.457,1.92-11.28
	c2.717-2.832,7.766-4.449,10.8-7.68c1.393-1.483,2.093-3.117,3.6-4.32c0.557-0.643,1.838-0.562,1.92-1.68
	c-1.284-0.085-1.501,0.898-2.16,1.439c-0.279-0.039-0.427,0.054-0.48,0.24c-1.598-1.418-3.506-1.422-5.52-0.24
	c-3.306-2.743-9.461-0.099-10.32-6c-2.087-0.393-3.335-1.624-3.84-3.6c-0.335-1.186-0.234-2.806-0.24-4.32
	c0.338-1.817-1.503-6.759,1.92-6.72c-0.193-1.437-0.193-2.144,0.24-3.36c0.045-0.194,0.241-0.239,0.24-0.48
	c1.076-0.489-0.682-1.444,0.24-2.4c0.382-0.578,1.125-0.795,1.44-1.44c0.489-0.231,0.519-0.921,0.48-1.68
	c-2.062-1.219-3.158-3.402-4.08-5.76c-0.609-0.554-0.345-1.07-0.24-1.92c0.028-1.172-0.129-2.529,0.24-3.36
	c-0.067-0.388,0.227-0.414,0.24-0.72c1.388-0.373,2.625-0.895,4.56-0.72c0,0.08,0,0.16,0,0.24c0.578,0.098,0.521-0.438,1.2-0.24
	c0.347-0.774,0.227-2.013,0.24-3.12c-0.936,0.186-1.245-0.887-1.92-0.24c-0.4,0-0.8,0-1.2,0c-0.84-0.28-1.596-0.644-1.92-1.44
	c-0.204,0.044-0.227-0.094-0.24-0.24c-0.024-0.744,0.293-1.147,0.48-1.68c1.261-0.579,3.188-0.492,5.04-0.48
	c1.022,0.142,1.587-0.173,2.4-0.24c-0.104-1.704,0.05-3.149,0.72-4.08c0.08,0,0.16,0,0.24,0c0.355-2.709-0.776-8.057,1.2-9.84
	C37.495,18.109,38.694,18.109,39.895,18.109z M56.455,19.79c-4.736-0.27-8.853,1.538-12.48,0.48c-1.594-0.465-5.173-2.333-7.2-1.44
	c-1.373,2.393-0.455,6.873-0.48,8.88c7.393-0.353,12.697,1.383,19.2,1.92c0.825-1.346-0.585-3.454,0.24-4.8
	c6.274,1.089,9.915,2.69,16.08,3.12c-0.039-1.576,0.477-2.323,0.72-4.08C67.44,23.054,62.222,20.118,56.455,19.79z M56.215,30.589
	c-8.377-0.46-15.858-2.891-21.36-1.44c-0.057,1.757,0.18,2.404,0,3.84c-1.72,0.358-4.745,0.21-7.44,0.24
	c-0.53,3.087,2.132,1.833,3.6,1.92c3.474,0.206,7.899,0.992,12.48,1.2c6.679,0.303,13.795-1.641,18.72,0.24
	c0.221-0.419,0.75-0.53,1.439-0.48c2.153,1.764,4.586,2.179,6.96,3.36c-0.771-4.338,1.109-7.544,2.4-10.56
	c-5.875,0.385-11.479-2.153-16.32-2.88C56.484,27.332,57.317,29.204,56.215,30.589z M54.055,36.83
	c-5.695,0.864-13.954,0.02-18.72,0.48c0,0.08,0,0.16,0,0.24c-0.569,0.181-0.524,1.761,0.24,1.92c1.812,0.26,2.613,0.552,3.84,1.68
	c1.079-0.601,1.701-1.659,3.36-1.68c0.751-0.049,1.762,0.162,2.16-0.24c1.539,0.179,2.44-0.28,3.84-0.24
	c1.806-0.045,2.948,0.573,4.8,0.48c0.85,0.11,1.386,0.534,2.4,0.48c0.296,0.344,0.825,0.455,1.44,0.48c0-0.48,0-0.96,0-1.44
	c0-0.08,0-0.16,0-0.24c0.08,0,0.16,0,0.24,0c0.092-0.788,0.702-1.058,0.959-1.68c-1.214,0.008-2.758-0.912-3.84-0.24
	C54.535,36.83,54.294,36.83,54.055,36.83z M52.135,51.709c2.196-0.057,3.892-4.737,4.8-7.68c1.285-0.293,1.733,1.152,2.64,0.48
	c1.411-2.882-3.929-3.973-7.439-4.32c-4.042-0.399-8.298,0.335-10.8,0.48c-0.347,0.373-0.32,1.12-0.72,1.44
	c-0.839,0.131-1.313,0.373-2.4,0c0,1.28,0,2.56,0,3.84c0.515,0.208,1.279-0.074,2.16,0.24c0.781,4.105,4.234,8.077,8.88,6.72
	c-6.391-0.009-8.513-4.288-8.4-10.8c4.505-1.176,10.33-1.24,14.88,0C56.52,46.369,54.412,49.722,52.135,51.709z M25.975,41.149
	c-0.783,3.883,1.054,11.209,6.48,10.32c-4.761-0.42-6.91-6.127-5.28-10.08c3.87-0.02,7.61-0.557,10.8,0.48
	C35.52,39.281,29.415,40.603,25.975,41.149z M31.015,46.189c1.287-1.033,2.419-2.221,3.12-3.84c-2.183-0.343-2.556,1.124-3.36,2.16
	c-0.519,1.253-3.356,2.608-1.44,4.08C29.9,47.795,30.832,47.367,31.015,46.189z M43.495,42.589c-0.161-0.375-1.396,0.185-1.68,0.48
	c0,0.4,0,0.8,0,1.2c-0.035,0.595-0.044,1.165,0.48,1.2c0.117-0.284,0.256-0.544,0.48-0.72c0.825-0.615,1.59-1.29,1.92-2.4
	c-0.359,0.041-0.885-0.086-0.96,0.24C43.655,42.589,43.575,42.589,43.495,42.589z M48.774,42.35c-2.193,1.567-4.795,4.003-5.28,6.48
	C45.203,46.618,47.243,44.738,48.774,42.35z M33.895,46.43c-0.938,1.205-2.315,2.76-2.16,3.6c1.841-2.239,3.881-4.279,5.28-6.96
	C35.91,43.77,34.882,45.162,33.895,46.43z M54.055,47.149c0.39-0.41,0.727-0.874,0.72-1.68c-0.923,0.276-1.402,0.997-1.68,1.92
	c-1.297,1.105-3.06,3.017-3.12,4.56c0.648-0.712,1.895-0.826,2.16-1.92c0.785-0.735,1.675-1.364,1.92-2.64
	C54.055,47.31,54.055,47.229,54.055,47.149z M58.854,45.95c-0.296-0.344-0.825-0.455-1.44-0.48c0.04,0.759-0.638,0.802-0.48,1.68
	c0,0.08,0,0.16,0,0.24c-1.608,5.444-8.281,9.162-13.92,5.28c-1.565-0.718-3.284-5.982-4.08-4.8c-0.171,0.869-0.837,1.243-0.96,2.16
	c-0.94,1.295-4.397,3.895-6.96,4.8c-1.717,0.606-4.11,1.016-1.68,1.92c0.08,0,0.16,0,0.24,0c1.346,1.054,3.433,1.368,4.32,2.88
	c0.402,0.798-0.083,2.483,1.2,2.399c0.68-0.52,1.026-1.373,1.92-1.68c0.08,0,0.16,0,0.24,0c1.667,0.415,3.042,2.396,4.56,2.16
	c0.08,0,0.16,0,0.24,0c1.209,0.796,5.633,0.045,4.08-1.92c0-0.08,0-0.16,0-0.24c0.468-0.568,1.718,2.077,2.4,2.88
	c-0.53-0.217-1.954-1.033-1.92,0.24c0,0.08,0,0.16,0,0.24c-2.11,2.45-4.264,4.856-8.16,5.52c-0.294,3.212,2.576,6.516,5.28,6.72
	c0.08,0,0.16,0,0.24,0c0.492,0.398,2.628,0.398,3.12,0c0.658,0.295,2.107-0.363,2.64-0.96c0.712,0.21,1.184-1.025,1.44-0.479
	c-0.525,1.314-1.832,1.849-3.36,2.16c-0.148,0.55-0.153,1.745,0.24,2.399c-0.032,0.592-0.037,1.156,0.24,1.44
	c0,2.68,0.821,4.867-0.48,6.479c0-0.08,0-0.159,0-0.239c0.227-0.661,0.143-1.176,0-1.92c-1.227,0.293-1.359,1.68-1.92,2.64
	c-0.276,0.283-0.271,0.849-0.24,1.439c-0.398,0.337-0.398,2.305,0,2.641c-0.168,1.413,0.129,4.317,0.72,5.76
	c-0.15,0.892,0.481,2.38,0.96,1.2c0.08,0,0.16,0,0.24,0c2.7-2.02,4.104-5.337,5.76-8.4c0-0.08,0-0.16,0-0.24
	c1.654-2.665,3.738-4.901,5.76-7.199c0-0.08,0-0.16,0-0.24c0.08,0,0.16,0,0.24,0c1.127-1.29-0.909-2.702-1.68-3.601
	c-0.629-2.143-0.692-3.453-0.96-5.76c0.256-0.786,1.625-1.613,0.48-2.399c0-0.16,0-0.32,0-0.48c0.713-0.833-0.695-1.082-0.96-1.68
	c-0.228-1.748,0.223-2.817,0.72-3.84c-0.89-0.378-0.745-1.419-0.48-2.4c0-0.08,0-0.16,0-0.24c1.452-1.035-0.89-3.127,0.96-4.56
	c-0.3-0.58-1.21-0.55-1.2-1.44c-0.044-1.644,1.197-2.002,1.2-3.6c0-0.08,0-0.16,0-0.24c0.298-0.742,0.792-1.288,1.44-1.68
	c-0.133-0.428-0.123-0.997-0.479-1.2c0-0.08,0-0.16,0-0.24c0.027-1.164,2.417-2.464,0.72-3.12
	C59.015,45.95,58.935,45.95,58.854,45.95z M33.174,51.709c2.04,0.276,3.383-1.412,3.36-2.4
	C35.897,50.593,33.89,50.505,33.174,51.709z M35.095,63.229c-0.586-0.134-0.512-0.929-1.44-0.72c0.174,0.733-0.415,0.706-0.24,1.439
	c0.983-0.581,1.265,0.328,2.16,0.48c1.317-2.325,5.202,1.341,6.96-0.96C39.516,62.825,37.063,59.812,35.095,63.229z M44.455,64.43
	c-3.081,1.537-6.77-0.629-8.88,0.96c-0.663-0.071-1.162-1.54-1.92-0.72C34.646,70.291,42.788,67.91,44.455,64.43z M61.015,81.949
	c-2.231,3.369-5.712,5.488-7.2,9.601c5.28-4.025,4.978,5.619,9.601,6c0.644-3.145-1.083-10.195,0.96-14.641
	C63.535,81.948,62.095,82.166,61.015,81.949z"/>
<path fill-rule="evenodd" clip-rule="evenodd" fill="#C09760" d="M24.774,68.029c0.006,1.515-0.095,3.135,0.24,4.32
	c-0.993-1.167-0.25-4.07-0.48-6C25.278,66.783,24.663,67.085,24.774,68.029z"/>
<path fill-rule="evenodd" clip-rule="evenodd" fill="#C09760" d="M46.375,97.31c-0.591-1.442-0.888-4.347-0.72-5.76
	c0-0.88,0-1.76,0-2.641c-0.032-0.591-0.037-1.156,0.24-1.439c0.923-0.276,0.506-1.894,1.68-1.92c0.426,0.502-0.189,0.901,0.24,1.2
	c0,0.08,0,0.159,0,0.239c-0.093,0.343-0.288,0.405,0,0.721c1.65-0.892,1.023-5.578,0.48-7.2c-0.276-0.284-0.271-0.849-0.24-1.44
	c0.207-0.956-0.358-1.772,0-2.16c1.742-0.213,3.639-1.433,3.36-2.88c-0.791,0.089-1.199,0.561-1.68,0.96
	c-0.532,0.597-1.982,1.255-2.64,0.96c-1.04,0-2.08,0-3.12,0c-0.08,0-0.16,0-0.24,0c-2.903-0.937-4.557-3.122-5.28-6.239
	c2.66-0.771,6.514-2.814,8.16-6c0-0.08,0-0.16,0-0.24c0.846-0.82,1.941,0.672,2.64,0c-0.644-1.517-2.215-2.104-2.64-3.84
	c-0.495-0.211-1.078,0.622-0.48,0.72c0,0.08,0,0.16,0,0.24c0.156,2.414-1.818,1.66-4.08,1.92c-0.08,0-0.16,0-0.24,0
	c-1.822-0.261-2.949-2.488-4.56-2.16c-0.08,0-0.16,0-0.24,0c-0.92-0.591-1.291,1.422-2.4,1.439c-0.167-3.192-2.459-4.261-5.04-5.04
	c-0.08,0-0.16,0-0.24,0c-0.023-0.617-0.937-0.343-0.96-0.96c4.234-0.886,7.519-2.721,9.6-5.76c0.123-0.917,0.789-1.291,0.96-2.16
	c2.303,3.355,5.363,7.816,11.04,6.72c3.511-0.678,5.749-3.734,6.96-7.2c0-0.08,0-0.16,0-0.24c0.479-0.83,0.565-1.827,1.92-1.2
	c0.08,0,0.16,0,0.24,0c1.307,1.172-1.121,1.407-0.72,3.12c0,0.08,0,0.16,0,0.24c-0.019,0.418,0.053,0.747,0.239,0.96
	c-0.236,0.654-1.688,1.337-1.2,1.92c0,0.08,0,0.16,0,0.24c-0.514,1.246-1.464,2.056-1.44,3.84c0.323,0.557,0.682,1.078,1.2,1.44
	c-1.778,1.155-0.011,3.264-0.72,4.32c0,0.08,0,0.16,0,0.24c-0.877,0.37-0.397,2.135,0.24,2.88c-1.741,1.241-0.116,4.696,0.48,5.04
	c0,0.16,0,0.32,0,0.48c-0.011,0.33,0.113,0.526,0.24,0.72c-2.265,3.164,0.153,8.396,2.16,10.32c-0.337,0.063-0.273,0.526-0.479,0.72
	c0,0.08,0,0.16,0,0.24c-2.232,2.088-4.427,4.213-5.76,7.199c0,0.08,0,0.16,0,0.24c-2.079,2.642-3.273,6.167-5.76,8.4
	c-0.08,0-0.16,0-0.24,0C46.329,98.795,46.906,97.498,46.375,97.31z M36.055,56.99c1.299,1.764,4.828,0.399,2.88-1.44
	c-0.479,0.241-0.379,1.062-1.2,0.96c-0.415-0.088-1.483-0.726-1.68-0.24c-0.08,0-0.16,0-0.24,0c-0.811-0.091-1.024,0.416-1.44,0.72
	c0.315,0.308,0.885,0.308,1.2,0C35.734,56.99,35.895,56.99,36.055,56.99z M53.334,73.31c0.076-0.324,0.342-0.458,0.24-0.96
	c-0.24,0-0.48,0-0.72,0C52.788,72.896,52.913,73.252,53.334,73.31z M52.854,73.55c-0.187-0.054-0.279-0.201-0.24-0.48
	C51.197,73.063,52.372,74.714,52.854,73.55z"/>
</svg>
