<?xml version="1.0" encoding="utf-8"?>
<!-- Generator: Adobe Illustrator 15.1.0, SVG Export Plug-In . SVG Version: 6.00 Build 0)  -->
<!DOCTYPE svg PUBLIC "-//W3C//DTD SVG 1.1//EN" "http://www.w3.org/Graphics/SVG/1.1/DTD/svg11.dtd">
<svg version="1.1" id="Ebene_1" xmlns="http://www.w3.org/2000/svg" xmlns:xlink="http://www.w3.org/1999/xlink" x="0px" y="0px"
	 width="113.39px" height="113.39px" viewBox="0 0 113.39 113.39" enable-background="new 0 0 113.39 113.39" xml:space="preserve">
<path fill-rule="evenodd" clip-rule="evenodd" fill="#544929" d="M80.695,28.429c-5.871-1.521-9.202-3.958-14.881-4.8
	c-0.87,1.449-0.234,4.405-1.68,5.28c-5.978-0.074-10.235-0.113-15.36-1.44c0.506-2.23,0.524-6.983,1.44-9.6
	c10.515-0.072,21.023,2.723,30.72,6c-0.039,0.279,0.054,0.427,0.24,0.48C81.881,25.698,81.068,27.382,80.695,28.429z M50.695,20.27
	c-0.298,1.273-1.038,3.211-0.48,4.56c2.316,0.494,3.993,0.156,6.24,0.72c0.069-1.73,1.13-3.496,0.24-4.8
	C54.342,20.241,52.184,19.949,50.695,20.27z"/>
<path fill-rule="evenodd" clip-rule="evenodd" fill="#21201D" d="M56.695,20.75c0.891,1.304-0.17,3.07-0.24,4.8
	c-2.247-0.564-3.924-0.226-6.24-0.72c-0.558-1.349,0.182-3.287,0.48-4.56C52.184,19.949,54.342,20.241,56.695,20.75z M51.895,21.709
	c0.409-2.367-2.536,2.592,0,2.4c0.174-0.734-0.414-0.706-0.24-1.44C51.73,22.345,51.997,22.211,51.895,21.709z M53.575,23.629
	c0.799-0.063,0.953-1.568,0.48-2.16C52.394,20.985,52.106,23.688,53.575,23.629z M55.735,23.629c0.421-0.283,0.444-2.188-0.24-2.16
	c0.139,0.779-0.164,1.117-0.24,1.68c-0.141,0.5-0.504,0.775-0.72,1.2c0.279,0.202,0.644,0.317,1.2,0.24
	C55.713,23.935,56.135,24.106,55.735,23.629z"/>
<path fill-rule="evenodd" clip-rule="evenodd" fill="#BF972E" d="M54.055,21.709c0.114,0.994,0.001,1.761-0.96,1.68
	C52.544,22.718,52.963,21.48,54.055,21.709z"/>
<path fill-rule="evenodd" clip-rule="evenodd" fill="#544929" d="M66.535,25.069c5.664-0.146,10.404,4.813,15.359,4.56
	c-0.758,3.678-2.212,6.097-2.399,9.84c-13.251-6.511-33.706-1.062-45.84-8.64c-0.356-0.532,0.318-1.636,0.48-2.4
	c1.616,1.055,5.351,2.444,8.4,2.64c2.267,0.146,5.519,0.554,5.04-2.64c2.824,0.74,6.292,1.187,10.32,1.44
	C62.766,30.176,66.988,30.875,66.535,25.069z"/>
<path fill-rule="evenodd" clip-rule="evenodd" fill="#B7935F" d="M49.255,36.109c1.125,0.155,2.874-0.314,3.6,0.24
	c-1.692-0.042-2.182,0.175-3.6,0C49.255,36.27,49.255,36.189,49.255,36.109z"/>
<path fill-rule="evenodd" clip-rule="evenodd" fill="#B7935F" d="M53.095,36.35c0.411-0.159,3.599-0.043,5.04,0.24
	C57.175,36.744,54.349,36.7,53.095,36.35z"/>
<path fill-rule="evenodd" clip-rule="evenodd" fill="#355D81" d="M49.735,40.669c0.068,1.62-0.4,2.391-0.24,3.84
	c1.139,10.337,15.372,8.875,15.12-2.16c-3.698-1.653-9.261-1.558-14.4-2.16c0.892-1.276,3.043-0.833,4.56-0.72
	c3.774,0.279,7.891,1.281,10.8,1.68c-0.174,0.733,0.245,0.875,0.239,1.44c1.444,0.415,5.375-0.277,6,1.68
	c-1.528,1.479-4.071-0.033-5.52,0.24c-2.135,4.831-6.678,10.743-13.92,7.2c-1.287-1.754-3.214-2.866-3.6-5.52
	c-0.955-0.175-0.965-0.175-1.92,0c0.393-2.239,0.654-4.188-0.24-6c-3.281-0.034-6.488-0.279-10.08,0.24
	c-0.266,1.646,0.008,2.472,0,4.56c-0.953-0.887-0.277-3.403-0.48-5.04c3.974-0.952,6.335-0.477,9.6-0.72
	C46.949,39.775,47.452,41.112,49.735,40.669z"/>
<path fill-rule="evenodd" clip-rule="evenodd" fill="#355D81" d="M36.535,45.229c0.613,0.027,0.477,0.804,0.48,1.44
	C36.402,46.643,36.539,45.866,36.535,45.229z"/>
<path fill-rule="evenodd" clip-rule="evenodd" fill="#A6A6A6" d="M55.495,47.149c0.434,0.411-0.074,0.944-0.72,0.96
	C54.876,47.65,54.862,47.076,55.495,47.149z"/>
<path fill-rule="evenodd" clip-rule="evenodd" fill="#21201D" d="M75.415,51.229c0.001-0.241-0.194-0.286-0.24-0.48
	c-0.902,0.618-1.5,1.54-1.92,2.64c-0.554-1.736,1.778-4.577,4.08-5.04c0.076,0.956-1.11,0.65-1.2,1.44
	c-0.076,0.557,0.039,0.921,0.24,1.2c-0.443,0.019,0.683,2.659-0.48,2.64c-0.138-0.422,0.29-1.41-0.239-1.44
	C75.757,51.688,75.49,51.554,75.415,51.229z"/>
<path fill-rule="evenodd" clip-rule="evenodd" fill="#B7935F" d="M44.935,62.749c-0.188,0.552-1.486,0.233-1.2-0.479
	C44.213,61.77,44.575,62.446,44.935,62.749z"/>
<path fill-rule="evenodd" clip-rule="evenodd" fill="#422F21" d="M25.015,63.229c-3.658,1.988-5.491,7.934-9.84,7.68
	c-0.493-1.247,1.536-0.259,2.4-0.72c0.272-0.733-0.059-1.917-0.72-2.4c0.599-2.28,3.021-2.738,4.08-4.56
	C22.671,63.13,23.338,63.021,25.015,63.229z M18.775,67.789c-0.027-0.292-0.072-0.567-0.48-0.479c-0.126,0.613-0.318,0.84,0.24,1.2
	c-0.068-0.424,1.13-0.743,0.48-0.96C19.001,67.696,18.979,67.834,18.775,67.789z"/>
<path fill-rule="evenodd" clip-rule="evenodd" fill="#BA3028" d="M32.215,66.109c-1.067,1.703-1.162,2.908-0.96,5.76
	c-0.833-0.192-0.922,0.357-1.68,0.24c-0.472-0.647-0.143-2.097-0.24-3.12c-0.424-0.775-1.647-0.753-1.92-1.68
	c-0.201-1.4,0.46-1.94,1.44-2.16c-0.237-0.563-0.421-1.179-0.48-1.92C30.591,62.335,31.042,65.172,32.215,66.109z M28.615,67.31
	c1.345,1.413,3.333-0.575,1.92-1.92C29.1,65.234,28.336,65.751,28.615,67.31z"/>
<path fill-rule="evenodd" clip-rule="evenodd" fill="#422F21" d="M18.535,63.47c-0.796,0.884-1.499,1.861-2.64,2.399
	c-0.034-0.926-0.811-1.108-0.72-2.16C16.139,63.474,17.281,63.415,18.535,63.47z"/>
<path fill-rule="evenodd" clip-rule="evenodd" fill="#DAD5D5" d="M10.855,66.829c0.355-1.164,1.422-1.617,1.68-2.88
	c1.478-0.131,1.434,2.315,1.44,2.88c0,0.4,0,0.801,0,1.2c-0.544,0.496-0.673,1.406-0.96,2.16c-0.78,0.06-0.562-0.878-0.96-1.2
	C11.833,68.092,11.076,67.729,10.855,66.829z"/>
<path fill-rule="evenodd" clip-rule="evenodd" fill="#422F21" d="M38.215,64.67c-1.315,1.244-2.056,3.063-4.56,3.119
	c-0.322,0.158-0.447,0.514-0.48,0.96c0.209,0.709,0.359-0.557,0.96-0.239c-0.865,0.415-0.636,1.924-1.68,2.16
	c-0.607-2.407,1.406-3.48,0.96-5.521C34.332,64.157,36.81,63.825,38.215,64.67z"/>
<path fill-rule="evenodd" clip-rule="evenodd" fill="#422F21" d="M39.655,67.31c-0.818-0.019-0.71,0.89-0.72,1.68
	c-0.579-0.098-0.522,0.438-1.2,0.24c-0.055-0.426,0.242-1.202-0.48-0.96c0.397-1.203,1.771-1.429,2.16-2.64
	c1.063-0.104,1.52,0.399,1.68,1.199c-1.054,0.066-1.194,1.047-1.68,1.681C38.688,68.216,39.584,67.594,39.655,67.31z"/>
<path fill-rule="evenodd" clip-rule="evenodd" fill="#422F21" d="M16.855,67.789c0.139,0.779-0.164,1.117-0.24,1.681
	c-0.32,0-0.64,0-0.96,0C15.449,69.089,15.775,67.636,16.855,67.789z"/>
<path fill-rule="evenodd" clip-rule="evenodd" fill="#422F21" d="M36.775,68.27c0.85,0.026-0.51,0.793,0.24,0.72
	c-0.203,0.356-0.772,0.348-1.2,0.48C35.992,68.927,36.729,68.944,36.775,68.27z"/>
<path fill-rule="evenodd" clip-rule="evenodd" fill="#422F21" d="M27.895,69.229c0.547,0.333,0.089,1.671,0.24,2.4
	c-0.663,0.103-0.225-0.896-0.72-0.96c-0.903-0.184-0.166,1.273-1.2,0.96C26.198,70.253,27.664,70.358,27.895,69.229z"/>
<path fill-rule="evenodd" clip-rule="evenodd" fill="#422F21" d="M19.975,70.189c0.353,0.607,1.539,0.381,1.68,1.2
	c-0.976-0.22-1.159-0.518-2.16-0.24C19.32,70.495,19.972,70.666,19.975,70.189z"/>
<path fill-rule="evenodd" clip-rule="evenodd" fill="#422F21" d="M34.615,70.189c0.24,0,0.48,0,0.72,0
	c-0.526,0.499,0.21,0.775-0.24,1.2c-0.24,0-0.48,0-0.72,0C34.177,70.711,34.713,70.768,34.615,70.189z"/>
<path fill-rule="evenodd" clip-rule="evenodd" fill="#21201D" d="M19.495,72.59c0.501-0.716,1.263,0.318,2.16,0
	c0,0.08,0,0.159,0,0.239C20.904,72.78,19.893,72.991,19.495,72.59z"/>
<path fill-rule="evenodd" clip-rule="evenodd" fill="#544929" d="M71.095,73.789c1.19,2.57,1.851,5.67,3.84,7.44
	c-2.991,4.769-6.2,9.319-6.479,16.8c-5.008-0.753-5.724-5.796-11.28-6C63.358,87.493,68.639,82.054,71.095,73.789z"/>
<path fill-rule="evenodd" clip-rule="evenodd" fill="#21201D" d="M90.775,92.749c0.295,0.105,0.492,0.308,0.479,0.721
	c-2.64,1.827-2.735,5.311-3.84,8.399c-1.301,3.637-4.112,7.424-5.04,11.28c-1.187-3.703,2.082-7.261,3.6-10.8
	C87.513,98.765,87.533,94.611,90.775,92.749z"/>
<path fill-rule="evenodd" clip-rule="evenodd" fill="#21201D" d="M27.655,96.59c-0.891,2.287-1.252,4.575-1.92,6.96
	c-0.299,1.068-1.14,2.042-1.44,3.12c-0.592,2.125,0.055,4.582-1.44,6.479c-1.114-0.447-0.566-2.126-0.48-2.88
	c0.522-4.561,2.929-9.728,4.56-13.68C27.175,96.59,27.415,96.59,27.655,96.59z"/>
<path fill-rule="evenodd" clip-rule="evenodd" fill="#544929" d="M18.055,112.43c-0.01,0.41,0.179,0.621,0.48,0.72
	c1.057-0.943,1.113-2.604,1.44-3.84c1.136-4.292,2.593-10.466,6.24-13.2c4.892-3.668,11.854-3.801,17.28-7.439
	c-0.186,2.534-1.238,4.202-1.44,6.72c2.58-0.555,4.977-3.333,7.68-4.561c-2.788-0.919-3.776,1.963-6,2.4
	c0.263-2.377,1.232-4.048,1.2-6.72c1.413,0.053,2.131-0.589,3.12-0.96c0.591,1.809,1.459,3.341,2.4,4.8
	c-0.237,2.445-0.59,4.596-0.24,6.96c0.16,1.08,1.001,2.058,0.96,3.12c-0.064,1.654-2.042,5.083-2.4,7.439
	c-0.275,1.815-0.341,3.549,0.24,5.28c1.42-0.724,0.629-2.432,0.72-3.36c0.235-2.391,0.737-5.345,1.68-7.439
	c0.868-1.927,3.006-2.991,3.84-4.8c0.732-1.588,0.288-3.544,1.2-5.04c5.389,0.521,7.064,6.212,12.72,7.2
	c1.346-1.483,0.852-4.226,1.2-6.48c0.643-4.153,2.932-7.615,4.8-10.32c5.672,5.404,15.936,7.127,22.8,12
	c2.456,5.384,3.213,12.348,4.561,18.24c-0.204-0.044-0.227,0.094-0.24,0.24c-28,0-56,0-84,0c-0.003-0.477-0.655-0.306-0.48-0.96
	C17.895,112.43,17.975,112.43,18.055,112.43z M26.935,96.59c-1.631,3.952-4.038,9.119-4.56,13.68
	c-0.086,0.754-0.634,2.433,0.48,2.88c1.495-1.897,0.848-4.354,1.44-6.479c0.3-1.078,1.141-2.052,1.44-3.12
	c0.667-2.385,1.029-4.673,1.92-6.96C27.415,96.59,27.175,96.59,26.935,96.59z M85.975,102.35c-1.518,3.539-4.786,7.097-3.6,10.8
	c0.928-3.856,3.739-7.644,5.04-11.28c1.104-3.089,1.2-6.572,3.84-8.399c0.013-0.413-0.185-0.615-0.479-0.721
	C87.533,94.611,87.513,98.765,85.975,102.35z"/>
<path fill-rule="evenodd" clip-rule="evenodd" fill="#21201D" d="M48.295,21.949c0.275-2.047,0.167-5.75,2.4-5.04
	C48.219,16.914,49.277,20.452,48.295,21.949z"/>
<path fill-rule="evenodd" clip-rule="evenodd" fill="#21201D" d="M10.855,62.989c1.94-1.518,4.249,0.545,7.2-0.479
	C15.583,64.031,12.874,62.021,10.855,62.989z"/>
<path fill-rule="evenodd" clip-rule="evenodd" fill="#A6A6A6" d="M51.655,22.669c-0.174,0.734,0.414,0.706,0.24,1.44
	c-2.536,0.192,0.409-4.767,0-2.4c-0.128-1.56-1.139,1.732-0.48,0.96C51.495,22.669,51.575,22.669,51.655,22.669z"/>
<path fill-rule="evenodd" clip-rule="evenodd" fill="#BF972E" d="M54.055,21.469c0.473,0.592,0.319,2.097-0.48,2.16
	C52.106,23.688,52.394,20.985,54.055,21.469z M53.095,23.389c0.961,0.081,1.074-0.686,0.96-1.68
	C52.963,21.48,52.544,22.718,53.095,23.389z"/>
<path fill-rule="evenodd" clip-rule="evenodd" fill="#A6A6A6" d="M55.735,23.629c0.4,0.477-0.021,0.305,0,0.96
	c-0.557,0.077-0.921-0.039-1.2-0.24c0.216-0.424,0.58-0.7,0.72-1.2C55.663,23.061,55.708,23.336,55.735,23.629z"/>
<path fill-rule="evenodd" clip-rule="evenodd" fill="#A6A6A6" d="M55.255,23.149c0.077-0.563,0.379-0.901,0.24-1.68
	c0.684-0.028,0.661,1.877,0.24,2.16C55.708,23.336,55.663,23.061,55.255,23.149z"/>
<path fill-rule="evenodd" clip-rule="evenodd" fill="#B7935F" d="M44.935,37.549c0.085-0.714,0.382-1.218,0.72-1.68
	c1.354,0.379,1.954,0.087,3.6,0.24c0,0.08,0,0.16,0,0.24c1.418,0.175,1.908-0.042,3.6,0c0.08,0,0.16,0,0.24,0
	c1.254,0.35,4.08,0.395,5.04,0.24c0.08,0,0.16,0,0.24,0c2.603,0.415,4.449,0.463,7.439,0.72c1.421-0.141,2.325,0.235,3.36,0.48
	c1.138,0.52,1.962,0.407,3.36,0.96c0,0.48,0,0.96,0,1.44c-0.081,0.8-0.695,1.064-0.48,2.16c-0.479,0-0.96,0-1.439,0
	c-1.033-0.534-1.341-0.377-2.88-0.48c-0.4,0-0.801,0-1.2,0c0-0.32,0-0.64,0-0.96c-0.475-0.805-1.659-0.901-2.88-0.96
	c-0.592,0.032-1.156,0.037-1.44-0.24c-0.693-0.586-2.027-0.532-3.12-0.72c-0.691-0.028-1.571,0.131-1.92-0.24
	c-0.67-0.378-3.002-0.347-3.36-0.24c-0.655-0.021-0.483,0.4-0.96,0c-1.508-1.084-3.244,0.837-5.04,0.96c-0.08,0-0.16,0-0.24,0
	C47.871,37.654,44.968,39.036,44.935,37.549z"/>
<path fill-rule="evenodd" clip-rule="evenodd" fill="#21201D" d="M44.935,37.549c0.033,1.487,2.936,0.104,2.64,1.92
	c-0.493-0.067-0.479-0.641-0.72-0.96c-0.751-0.049-1.762,0.162-2.16-0.24c0-0.24,0-0.48,0-0.72
	C44.775,37.549,44.855,37.549,44.935,37.549z"/>
<path fill-rule="evenodd" clip-rule="evenodd" fill="#B7935F" d="M47.815,39.469c1.796-0.123,3.532-2.044,5.04-0.96
	c-1.912-0.558-3.102,1.053-5.04,1.2C47.815,39.629,47.815,39.549,47.815,39.469z"/>
<path fill-rule="evenodd" clip-rule="evenodd" fill="#B7935F" d="M53.815,38.509c0.357-0.106,2.689-0.138,3.36,0.24
	C56.657,38.904,54.675,38.778,53.815,38.509z"/>
<path fill-rule="evenodd" clip-rule="evenodd" fill="#B7935F" d="M59.095,38.989c1.093,0.188,2.427,0.134,3.12,0.72
	C61.197,39.447,59.835,39.529,59.095,38.989z"/>
<path fill-rule="evenodd" clip-rule="evenodd" fill="#B7935F" d="M63.655,39.949c1.221,0.059,2.405,0.155,2.88,0.96
	C65.738,40.426,64.504,40.38,63.655,39.949z"/>
<path fill-rule="evenodd" clip-rule="evenodd" fill="#B7935F" d="M67.735,41.87c1.539,0.103,1.847-0.054,2.88,0.48
	C69.374,42.162,68.897,42.358,67.735,41.87z"/>
<path fill-rule="evenodd" clip-rule="evenodd" fill="#21201D" d="M69.175,37.79c1.547-0.059,1.947,0.481,3.601,0.72
	c-0.144,0.498,0.296,1.577-0.24,1.68c0-0.48,0-0.96,0-1.44C71.137,38.196,70.313,38.309,69.175,37.79z"/>
<path fill-rule="evenodd" clip-rule="evenodd" fill="#21201D" d="M58.375,36.589c2.765-0.045,5.297,0.143,7.439,0.72
	C62.824,37.053,60.978,37.004,58.375,36.589z"/>
<path fill-rule="evenodd" clip-rule="evenodd" fill="#21201D" d="M18.055,38.75c0.953,0.599-1.353,2.791-2.16,2.4
	C16.535,40.269,17.381,39.596,18.055,38.75z"/>
<path fill-rule="evenodd" clip-rule="evenodd" fill="#A6A6A6" d="M42.535,41.149c-1.649,1.471-2.819,3.421-4.56,4.8
	C39.05,43.904,40.082,41.816,42.535,41.149z"/>
<path fill-rule="evenodd" clip-rule="evenodd" fill="#A6A6A6" d="M42.775,42.35c0.481-0.56,0.718-1.362,1.92-1.2
	c-0.016,0.704-0.548,0.892-0.96,1.2c0.071-0.49,0.649-0.471,0.72-0.96C43.397,41.212,43.472,42.166,42.775,42.35z"/>
<path fill-rule="evenodd" clip-rule="evenodd" fill="#A6A6A6" d="M43.735,42.35c-1.705,1.575-3.091,3.469-4.08,5.76
	c-2.231-0.612,2.057-5.465,3.12-5.76c0.697-0.184,0.623-1.138,1.68-0.96C44.384,41.879,43.806,41.86,43.735,42.35z"/>
<path fill-rule="evenodd" clip-rule="evenodd" fill="#21201D" d="M15.175,42.589c-0.568,2.049-2.835,3.737-2.16,6
	c0.486,1.63,2.704,1.147,3.36,2.88c0.275,3.076-1.577,4.023-2.16,6.24c0.627,0.067,1.032-0.088,0.96-0.72
	c1.46-1.26,2.82-2.62,4.08-4.08c0.825-1.765-1.159-2.637-1.92-3.6c0.546-1.614,1.505-2.815,2.4-4.08
	c0.65-0.149,0.597-1.003,1.44-0.96c-0.417,1.263-1.243,2.117-1.92,3.12c-1.311,0.63-0.692,3.12,0.72,3.12
	c0.367,0.496,1.114,1.407,0.48,2.16c-2.898,2.621-5.264,5.776-7.68,8.88c-0.595-2.542,0.947-4.954,1.92-6.72
	c0.333-0.948,0.913-1.647,0.72-3.12c-1.591-1.109-4.702-2.782-2.88-5.76c0.966-1.514,1.891-3.069,3.12-4.32
	C16.305,41.846,15.106,42.166,15.175,42.589z"/>
<path fill-rule="evenodd" clip-rule="evenodd" fill="#21201D" d="M15.175,42.589c-0.069-0.423,1.13-0.743,0.48-0.96
	c-1.229,1.251-2.154,2.806-3.12,4.32c0.672-1.968,1.711-3.568,3.36-4.56c0.58,0.558-0.375,0.643-0.48,1.2
	C15.335,42.589,15.255,42.589,15.175,42.589z"/>
<path fill-rule="evenodd" clip-rule="evenodd" fill="#A6A6A6" d="M51.175,45.709c0.778-1.222,1.521-2.479,2.64-3.36
	c-0.626,1.374-1.983,2.017-2.4,3.6C51.211,45.994,51.188,45.856,51.175,45.709z"/>
<path fill-rule="evenodd" clip-rule="evenodd" fill="#A6A6A6" d="M51.175,45.709c-0.241-1.844,1.385-3.893,3.36-4.32
	c-0.101,0.459-0.087,1.033-0.72,0.96C52.696,43.23,51.953,44.487,51.175,45.709z"/>
<path fill-rule="evenodd" clip-rule="evenodd" fill="#21201D" d="M19.975,50.509c-1.412,0-2.03-2.49-0.72-3.12
	c-0.624,1.033-0.648,2.638,0.72,2.88C19.975,50.35,19.975,50.429,19.975,50.509z"/>
<path fill-rule="evenodd" clip-rule="evenodd" fill="#A6A6A6" d="M54.295,47.629c1.844-1.756,2.768-4.432,5.52-5.28
	c-0.622,1.298-1.756,2.083-2.64,3.12c0.326-0.875,1.214-1.186,1.44-2.16C56.582,44.156,56.112,46.567,54.295,47.629z"/>
<path fill-rule="evenodd" clip-rule="evenodd" fill="#21201D" d="M54.295,50.029c-0.067,0.567-0.641-0.275-0.96-0.24
	c-0.017-0.897,0.386-1.375,0.96-1.68c-0.213,0.507-0.73,0.709-0.72,1.44C53.751,49.773,54.011,49.913,54.295,50.029z"/>
<path fill-rule="evenodd" clip-rule="evenodd" fill="#A6A6A6" d="M55.495,48.109c-0.147,0.894-0.455,1.625-1.2,1.92
	c-0.284-0.116-0.544-0.256-0.72-0.48c-0.01-0.73,0.507-0.933,0.72-1.44c0-0.16,0-0.32,0-0.48c1.817-1.063,2.287-3.473,4.32-4.32
	c-0.227,0.974-1.115,1.285-1.44,2.16c0,0.08,0,0.16,0,0.24C56.244,46.138,56.176,47.431,55.495,48.109z M54.775,48.109
	c0.646-0.016,1.154-0.549,0.72-0.96C54.862,47.076,54.876,47.65,54.775,48.109z"/>
<path fill-rule="evenodd" clip-rule="evenodd" fill="#21201D" d="M55.495,48.109c0.681-0.679,0.749-1.971,1.68-2.4
	C56.613,46.508,56.357,47.612,55.495,48.109z"/>
<path fill-rule="evenodd" clip-rule="evenodd" fill="#B7935F" d="M66.535,46.189c-1.644,4.254-5.206,8.292-10.56,7.92
	c-4.149-0.288-6.031-3.375-8.16-6.24c-0.473,0.654-1.932,1.579-2.4,1.44c1.037-0.483,1.758-1.282,2.64-1.92
	C52.173,56.816,62.738,55.155,66.535,46.189z"/>
<path fill-rule="evenodd" clip-rule="evenodd" fill="#B7935F" d="M39.655,50.75c1.607-1,4.181-0.736,5.52-1.44
	C43.977,50.431,41.342,50.117,39.655,50.75z"/>
<path fill-rule="evenodd" clip-rule="evenodd" fill="#B7935F" d="M35.815,53.149c0.58-1.5,2.094-2.066,3.84-2.4
	c1.688-0.633,4.322-0.318,5.52-1.44c0.08,0,0.16,0,0.24,0c0.468,0.139,1.927-0.786,2.4-1.44c2.129,2.865,4.011,5.952,8.16,6.24
	c5.354,0.372,8.917-3.666,10.56-7.92c0-0.08,0-0.16,0-0.24c0.803-0.253,2.254,0.089,3.359,0.24c-0.642,0.958-2.214,0.986-2.159,2.64
	c0,0.08,0,0.16,0,0.24c-1.168,2.274-2.165,5.994-2.641,8.16c0,0.08,0,0.16,0,0.24c-0.463,0.417-1.217,0.543-1.68,0.96
	c0,0.16,0,0.319,0,0.479s0,0.32,0,0.48c-0.011,0.949-0.528,1.392-0.72,2.16c0,0.08,0,0.159,0,0.239
	c-2.719,0.236-2.74-3.497-5.28-2.64c-0.383-0.497-0.521-1.239-1.2-1.44c-0.708,0.172-1.486,0.274-1.92,0.72
	c-0.797-0.563-2.149-0.571-1.92-2.16c-2.073-1.029-2.892-3.612-5.52-2.88c0.023,1.256,2.01,0.55,2.16,1.68
	c-0.58,2.792-4.419,2.511-6,3.36c-0.08,0-0.16,0-0.24,0c-1.459,0.065-4.494-0.065-5.76-0.96c-0.08,0-0.16,0-0.24,0
	C35.771,56.315,34.959,55.006,35.815,53.149z"/>
<path fill-rule="evenodd" clip-rule="evenodd" fill="#21201D" d="M35.815,53.149c-0.856,1.857-0.044,3.166,0.96,4.32
	C35.253,56.578,34.572,54.441,35.815,53.149z"/>
<path fill-rule="evenodd" clip-rule="evenodd" fill="#B7935F" d="M37.015,57.469c1.267,0.895,4.301,1.026,5.76,0.96
	C40.952,58.931,37.824,58.771,37.015,57.469z"/>
<path fill-rule="evenodd" clip-rule="evenodd" fill="#B7935F" d="M62.695,61.789c-2.525,0.947-2.902-3.42-5.521-2.399
	c-0.143-1.78-2.323-1.527-3.12-0.48c-2.118-1.621-3.393-4.892-6-5.28c0.114,0.767,1.231,0.529,1.2,1.44
	c-0.674,2.526-3.365,3.035-6.24,3.36c1.581-0.85,5.42-0.569,6-3.36c-0.15-1.13-2.136-0.423-2.16-1.68
	c2.628-0.732,3.447,1.851,5.52,2.88c-0.229,1.589,1.123,1.597,1.92,2.16c0.434-0.446,1.212-0.548,1.92-0.72
	c0.679,0.201,0.817,0.943,1.2,1.44C59.955,58.292,59.977,62.025,62.695,61.789z"/>
<path fill-rule="evenodd" clip-rule="evenodd" fill="#21201D" d="M63.415,59.39c0.624,0.64-0.299,1.77-0.72,2.16
	C62.887,60.781,63.404,60.339,63.415,59.39z"/>
<path fill-rule="evenodd" clip-rule="evenodd" fill="#21201D" d="M65.095,57.469c-0.115,0.925-1.402,0.677-1.68,1.44
	c0-0.16,0-0.319,0-0.479C63.878,58.013,64.632,57.886,65.095,57.469z"/>
<path fill-rule="evenodd" clip-rule="evenodd" fill="#21201D" d="M67.735,49.069c0.781,0.72-0.365,1.542-0.96,1.68
	c0.047,2.768-0.93,4.511-1.681,6.48C65.57,55.063,66.567,51.343,67.735,49.069z"/>
<path fill-rule="evenodd" clip-rule="evenodd" fill="#21201D" d="M66.535,45.949c0.5-0.956,2.483,0.049,3.6,0
	c-0.304,1.456-2.099,1.421-2.399,2.88c-0.055-1.654,1.518-1.683,2.159-2.64C68.789,46.039,67.338,45.696,66.535,45.949z"/>
<path fill-rule="evenodd" clip-rule="evenodd" fill="#B7935F" d="M78.535,50.509c-0.066-0.828,0.009-2.763-0.721-3.6
	c-2.275,0.376-3.254,0.743-4.56,1.44c1.287-1.304,2.571-1.373,4.56-1.68C78.538,47.312,79.148,49.329,78.535,50.509z"/>
<path fill-rule="evenodd" clip-rule="evenodd" fill="#B7935F" d="M72.775,48.83c-0.421,0.86-0.857,1.703-1.44,2.4
	c0.245,1.577,0.797,1.927-0.24,2.88c0.585,1.975,1.02,3.122,0.72,5.521c2.296-0.265,3.354-1.768,5.04-2.641
	c-1.229,1.571-3.211,2.389-5.279,3.12C71.936,56.232,69.662,51.538,72.775,48.83z"/>
<path fill-rule="evenodd" clip-rule="evenodd" fill="#21201D" d="M78.295,53.39c-0.1,1.02-0.42,1.82-0.96,2.4
	C77.636,54.97,77.851,54.065,78.295,53.39z"/>
<path fill-rule="evenodd" clip-rule="evenodd" fill="#B7935F" d="M75.415,51.229c-1.799,0.041-1.243,2.437-2.88,2.64
	c0.452-2.921,2.428-5.553,5.04-5.52c0.182,1.062-0.936,0.825-1.2,1.44c-0.08,0-0.16,0-0.24,0c0.09-0.79,1.276-0.484,1.2-1.44
	c-2.302,0.463-4.634,3.304-4.08,5.04c0.42-1.101,1.018-2.022,1.92-2.64C75.221,50.944,75.416,50.989,75.415,51.229z"/>
<path fill-rule="evenodd" clip-rule="evenodd" fill="#21201D" d="M75.655,52.189c0.529,0.03,0.102,1.018,0.239,1.44
	c1.163,0.019,0.037-2.622,0.48-2.64c0.455,0.689,0.265,2.394,0,3.12C75.659,53.946,75.57,53.154,75.655,52.189z"/>
<path fill-rule="evenodd" clip-rule="evenodd" fill="#B7935F" d="M42.775,66.59c-1.479-1.321-3.031-2.57-5.28-3.12
	c1.039-2.254,4.326-0.925,5.76-0.24c0.539-0.101,0.006-1.273,0.48-1.44c1.513,0.167,1.655,1.705,2.88,2.16
	c0.73-0.188,1.227-0.896,1.2,0.48c-0.659-0.597-1.918-0.223-2.64-1.2c-0.326,0.074-0.199,0.601-0.24,0.96
	c-1.941-0.543-5.105-2.87-7.2-0.96C39.649,64.115,41.847,64.717,42.775,66.59z M43.735,62.27c-0.286,0.713,1.012,1.031,1.2,0.479
	C44.575,62.446,44.213,61.77,43.735,62.27z"/>
<path fill-rule="evenodd" clip-rule="evenodd" fill="#B7935F" d="M40.855,73.31c-0.635,0.367-2.396,0.103-3.12-0.72
	c1.425-0.941,3.74-1.251,5.04-2.881c-0.997,1.404-2.431,2.37-4.56,2.641C38.515,73.796,40.614,72.778,40.855,73.31z"/>
<path fill-rule="evenodd" clip-rule="evenodd" fill="#21201D" d="M48.295,21.949c0.982-1.498-0.076-5.036,2.4-5.04
	c1.266,0.204,2.344-0.1,4.08,0c0.411,0.549,1.832,0.088,2.64,0.24c1.976,0.185,4.178,0.143,5.76,0.72
	c1.046,0.395,2.003,0.878,3.36,0.96c3.636,0.043,6.11,1.249,8.64,2.4c0.874,0.726,2.259,0.941,3.84,0.96
	c4.43-0.062,2.879,4.919,4.32,7.44c-0.934,2.746-1.763,5.597-2.64,8.4c-0.399,0.808-0.399,3.272,0,4.08
	c0.668,1.011,1.999,1.361,2.64,2.4c-0.111,1.756,0.06,3.694-1.2,4.8c-0.549,0.411-0.088,1.832-0.24,2.64
	c-0.564,0.956,0.07,3.11-0.72,3.84c-0.08,0-0.16,0-0.24,0c0.018,0.977-0.783,1.137-0.479,2.4c0.011,0.41-0.179,0.622-0.48,0.72
	c-1.474-0.033-0.955,1.925-2.16,2.16c-0.624,2.37-4.466,3.075-6.239,5.04c-1.935,6.744,2.663,10.581,4.319,15.84
	c2.097,1.723,4.012,3.49,6.721,4.8c6.515,3.149,15.113,3.942,17.76,10.801c0.848,2.196,1.457,5.368,1.92,8.16
	c0.419,2.522,1.083,5.22,0.72,7.439c-0.159,0-0.319,0-0.479,0c-1.348-5.893-2.104-12.856-4.561-18.24
	c-6.864-4.873-17.128-6.596-22.8-12c-1.868,2.705-4.157,6.167-4.8,10.32c-0.349,2.255,0.146,4.997-1.2,6.48
	c-5.655-0.988-7.331-6.679-12.72-7.2c-0.912,1.496-0.468,3.452-1.2,5.04c-0.834,1.809-2.972,2.873-3.84,4.8
	c-0.943,2.095-1.445,5.049-1.68,7.439c-0.091,0.929,0.7,2.637-0.72,3.36c-0.581-1.731-0.515-3.465-0.24-5.28
	c0.358-2.356,2.336-5.785,2.4-7.439c0.041-1.063-0.8-2.04-0.96-3.12c-0.35-2.364,0.003-4.515,0.24-6.96
	c-0.941-1.459-1.81-2.991-2.4-4.8c-0.988,0.371-1.707,1.013-3.12,0.96c0.032,2.672-0.937,4.343-1.2,6.72
	c2.224-0.438,3.212-3.319,6-2.4c-2.704,1.228-5.1,4.006-7.68,4.561c0.203-2.518,1.255-4.186,1.44-6.72
	c-5.426,3.639-12.388,3.771-17.28,7.439c-3.647,2.734-5.104,8.908-6.24,13.2c-0.327,1.236-0.383,2.896-1.44,3.84
	c-0.301-0.099-0.49-0.31-0.48-0.72c1.064-7.976,3.671-14.409,8.88-18.24c5.997-2.083,12.174-3.986,16.8-7.44
	c-0.427-1.013-1.532-1.348-1.92-2.399c-1.287-0.233-2.682-0.358-2.64-1.92c-1.094-0.294-0.941,0.658-1.92,0.479
	c-0.298-0.502-0.698-0.901-1.2-1.2c0.665-1.026-0.104-2.221,0.24-3.6c0.623-2.501,3.1-3.88,0.24-5.52
	c-2.115,0.125-3.869,0.61-6.24,0.479c-2.296,0.069-4.071-0.284-6.96-0.24c-0.878,0.053-0.921,0.33-1.68,0c0-0.08,0-0.159,0-0.239
	c-0.897,0.318-1.659-0.716-2.16,0c-2.357-0.05-4.473-1.216-6.48-0.24c-1.659-1.301-2.601-3.318-3.6-5.28
	c0.307-1.533,1.444-2.236,1.44-4.08c2.019-0.969,4.729,1.042,7.2-0.479c-0.041-0.521,0.852-0.109,1.2-0.24
	c0.709,0.368,0.705-0.041,1.92,0c0.8,0,1.6,0,2.4,0c0.96,0,1.92,0,2.88,0c0.4,0,0.8,0,1.2,0c2.335,0.465,5.476,0.124,7.68,0.72
	c1.861-0.059,1.882-1.958,3.84-1.92c1.16-2.098-1.062-1.887-2.4-2.64c-1.775-0.999-2.245-1.774-2.64-4.08
	c0.017-2.384,1.865-2.936,3.12-4.08c-0.096-2.224-2.105-2.535-1.92-5.04c-0.208-2.038-0.376-3.659,0-5.76
	c0.218-0.502,0.708-0.731,1.44-0.72c1.522-0.157,3.676,0.316,4.8-0.24c1.84,0.24,2.241-0.959,2.4-2.4
	c-2.517-1.243-5.87-1.65-8.16-3.12c-0.642-0.318-1.192-0.728-1.92-0.96c-2.385-0.429-1.059-3.568-0.24-4.8
	c1.056,0.704,2.614,0.906,3.6,1.68c0.536,0.664,1.883,0.517,2.88,0.72c1.954,0.188,3.232,0.281,5.76,0.24
	C47.012,27.546,48.329,25.423,48.295,21.949z M41.095,73.31c0.933,0.366,2.113-1.081,3.12-1.44c-1.081,2.455,1.959,1.315,3.12,2.4
	c0.527-0.272,0.797-0.803,1.44-0.96c0.08,0,0.16,0,0.24,0c0.557,0.076,0.922-0.039,1.2-0.24c-0.481-0.939-0.743-2.105,0.48-2.399
	c-0.008-1.032-1.275-0.806-0.96-2.16c0-0.08,0-0.16,0-0.24c-0.237-0.957,0.717-0.723,0.48-1.68c-0.964-0.476-1.356-1.524-2.4-1.92
	c0-0.08,0-0.16,0-0.24c0.027-1.377-0.47-0.669-1.2-0.48c-1.225-0.455-1.367-1.993-2.88-2.16c-0.474,0.167,0.059,1.34-0.48,1.44
	c-1.434-0.685-4.722-2.014-5.76,0.24c2.25,0.55,3.801,1.799,5.28,3.12c0.133,1.48,0.621,1.869,0,3.119
	c-1.3,1.63-3.615,1.939-5.04,2.881c0.724,0.822,2.485,1.087,3.12,0.72C40.935,73.31,41.015,73.31,41.095,73.31z M81.175,24.349
	c-0.187-0.053-0.279-0.201-0.24-0.48c-9.696-3.277-20.205-6.072-30.72-6c-0.916,2.617-0.934,7.37-1.44,9.6
	c5.125,1.327,9.382,1.366,15.36,1.44c1.445-0.875,0.81-3.831,1.68-5.28c5.679,0.842,9.01,3.279,14.881,4.8
	C81.068,27.382,81.881,25.698,81.175,24.349z M57.895,29.869c-4.028-0.253-7.497-0.7-10.32-1.44c0.479,3.194-2.773,2.786-5.04,2.64
	c-3.049-0.196-6.784-1.585-8.4-2.64c-0.162,0.764-0.836,1.869-0.48,2.4c12.134,7.578,32.589,2.128,45.84,8.64
	c0.188-3.743,1.642-6.162,2.399-9.84c-4.955,0.253-9.695-4.706-15.359-4.56C66.988,30.875,62.766,30.176,57.895,29.869z
	 M49.255,36.109c-1.646-0.153-2.247,0.139-3.6-0.24c-0.337,0.462-0.634,0.966-0.72,1.68c-0.08,0-0.16,0-0.24,0c0,0.24,0,0.48,0,0.72
	c0.398,0.402,1.409,0.191,2.16,0.24c0.241,0.319,0.227,0.893,0.72,0.96c0.08,0,0.16,0,0.24,0c0,0.08,0,0.16,0,0.24
	c1.938-0.147,3.128-1.758,5.04-1.2c0.477,0.4,0.305-0.021,0.96,0c0.86,0.269,2.842,0.395,3.36,0.24
	c0.349,0.371,1.229,0.211,1.92,0.24c0.74,0.54,2.103,0.458,3.12,0.72c0.284,0.276,0.849,0.271,1.44,0.24
	c0.849,0.431,2.083,0.477,2.88,0.96c0,0.32,0,0.64,0,0.96c0.399,0,0.8,0,1.2,0c1.162,0.489,1.639,0.292,2.88,0.48
	c0.479,0,0.96,0,1.439,0c-0.215-1.096,0.399-1.36,0.48-2.16c0.536-0.104,0.097-1.183,0.24-1.68c-1.653-0.239-2.054-0.779-3.601-0.72
	c-1.035-0.245-1.939-0.621-3.36-0.48c-2.143-0.578-4.675-0.765-7.439-0.72c-0.08,0-0.16,0-0.24,0
	c-1.441-0.283-4.629-0.399-5.04-0.24c-0.08,0-0.16,0-0.24,0C52.129,35.795,50.379,36.265,49.255,36.109z M45.655,39.229
	c-3.265,0.243-5.626-0.232-9.6,0.72c0.203,1.637-0.473,4.153,0.48,5.04c0.008-2.088-0.266-2.914,0-4.56
	c3.592-0.519,6.799-0.274,10.08-0.24c0.895,1.812,0.633,3.761,0.24,6c0.955-0.175,0.965-0.175,1.92,0
	c0.386,2.654,2.313,3.766,3.6,5.52c7.242,3.542,11.785-2.37,13.92-7.2c1.448-0.272,3.991,1.239,5.52-0.24
	c-0.625-1.958-4.556-1.265-6-1.68c0.006-0.565-0.413-0.707-0.239-1.44c-2.909-0.399-7.026-1.401-10.8-1.68
	c-1.517-0.112-3.668-0.556-4.56,0.72c5.139,0.603,10.702,0.507,14.4,2.16c0.252,11.035-13.981,12.497-15.12,2.16
	c-0.16-1.449,0.308-2.22,0.24-3.84C47.452,41.112,46.949,39.775,45.655,39.229z M37.975,45.949c1.741-1.379,2.91-3.329,4.56-4.8
	C40.082,41.816,39.05,43.904,37.975,45.949z M43.735,42.35c0.412-0.309,0.944-0.497,0.96-1.2c-1.202-0.162-1.439,0.641-1.92,1.2
	c-1.063,0.294-5.352,5.147-3.12,5.76C40.644,45.818,42.03,43.925,43.735,42.35z M53.815,42.35c0.633,0.073,0.619-0.501,0.72-0.96
	c-1.975,0.427-3.601,2.477-3.36,4.32c0.014,0.146,0.036,0.284,0.24,0.24C51.832,44.366,53.189,43.724,53.815,42.35z M57.175,45.469
	c0.884-1.036,2.018-1.822,2.64-3.12c-2.752,0.848-3.676,3.523-5.52,5.28c0,0.16,0,0.32,0,0.48c-0.574,0.306-0.977,0.783-0.96,1.68
	c0.319-0.035,0.893,0.807,0.96,0.24c0.745-0.294,1.053-1.026,1.2-1.92c0.862-0.498,1.118-1.602,1.68-2.4
	C57.175,45.629,57.175,45.549,57.175,45.469z M37.015,46.669c-0.003-0.636,0.133-1.413-0.48-1.44
	C36.539,45.866,36.402,46.643,37.015,46.669z M66.535,45.949c0,0.08,0,0.16,0,0.24c-3.797,8.965-14.362,10.626-18.48,1.2
	c-0.882,0.638-1.603,1.437-2.64,1.92c-0.08,0-0.16,0-0.24,0c-1.339,0.704-3.913,0.439-5.52,1.44c-1.746,0.334-3.26,0.9-3.84,2.4
	c-1.243,1.292-0.562,3.429,0.96,4.32c0.08,0,0.16,0,0.24,0c0.81,1.302,3.937,1.461,5.76,0.96c0.08,0,0.16,0,0.24,0
	c2.875-0.325,5.566-0.834,6.24-3.36c0.031-0.911-1.086-0.673-1.2-1.44c2.607,0.388,3.882,3.659,6,5.28
	c0.797-1.047,2.978-1.3,3.12,0.48c2.618-1.021,2.995,3.347,5.521,2.399c0-0.08,0-0.159,0-0.239c0.421-0.391,1.344-1.521,0.72-2.16
	c0-0.16,0-0.32,0-0.48c0.277-0.763,1.564-0.515,1.68-1.44c0-0.08,0-0.16,0-0.24c0.751-1.969,1.728-3.712,1.681-6.48
	c0.595-0.139,1.741-0.96,0.96-1.68c0-0.08,0-0.16,0-0.24c0.301-1.459,2.096-1.424,2.399-2.88
	C69.019,45.999,67.035,44.993,66.535,45.949z M78.535,50.509c0.613-1.18,0.003-3.198-0.721-3.84c-1.988,0.308-3.272,0.376-4.56,1.68
	c-0.293,0.027-0.568,0.072-0.479,0.48c-3.113,2.708-0.84,7.403-1.2,11.28c2.068-0.731,4.051-1.549,5.279-3.12
	c0.104-0.457,0.518-0.603,0.48-1.2c0.54-0.58,0.86-1.38,0.96-2.4C78.715,52.194,78.799,51.403,78.535,50.509z M15.655,69.47
	c0.32,0,0.64,0,0.96,0c0.077-0.563,0.379-0.901,0.24-1.681C15.775,67.636,15.449,69.089,15.655,69.47z M20.935,63.229
	c-1.059,1.821-3.481,2.279-4.08,4.56c0.661,0.483,0.992,1.667,0.72,2.4c-0.864,0.461-2.893-0.527-2.4,0.72
	c4.349,0.254,6.182-5.691,9.84-7.68C23.338,63.021,22.671,63.13,20.935,63.229z M28.375,63.229c0.059,0.741,0.243,1.356,0.48,1.92
	c-0.98,0.22-1.641,0.76-1.44,2.16c0.273,0.927,1.496,0.904,1.92,1.68c0.097,1.023-0.232,2.473,0.24,3.12
	c0.758,0.117,0.848-0.433,1.68-0.24c-0.202-2.852-0.107-4.057,0.96-5.76C31.042,65.172,30.591,62.335,28.375,63.229z M13.975,64.43
	c0-0.08,0-0.16,0-0.24c-0.709-0.251-0.705-1.215-1.92-0.96c-0.441,0.339,0.376,1.166-0.24,1.68c-0.16,0-0.32,0-0.48,0
	c-0.332,0.549-0.489,1.271-0.72,1.92c0.839,1.562,1.186,3.614,2.64,4.561c0.903-1.712,0.736-3.527,1.44-5.04
	C14.573,65.591,13.988,65.296,13.975,64.43z M15.175,63.709c-0.091,1.052,0.686,1.234,0.72,2.16c1.141-0.538,1.844-1.516,2.64-2.399
	C17.281,63.415,16.139,63.474,15.175,63.709z M25.495,69.229c2.229-0.896-0.503-3.911,1.92-5.28
	c-2.442,0.692-4.752,3.558-6.72,5.521c1.965,0.124,1.698-1.39,3.36-0.24c0.179-0.739-0.659-0.461-0.48-1.2
	c0.853,0.373,0.145-0.815,0.72-0.72c0.39,0.409,1.347,0.253,1.44,0.96c-0.413,0.095-0.615-0.356-0.72,0
	C25.458,68.306,25.162,69.082,25.495,69.229z M33.415,65.149c0.446,2.04-1.567,3.113-0.96,5.521c1.044-0.236,0.815-1.745,1.68-2.16
	c-0.601-0.317-0.751,0.948-0.96,0.239c0.033-0.446,0.158-0.802,0.48-0.96c2.504-0.056,3.245-1.875,4.56-3.119
	C36.81,63.825,34.332,64.157,33.415,65.149z M39.415,68.51c0.486-0.634,0.626-1.614,1.68-1.681c-0.16-0.8-0.617-1.303-1.68-1.199
	c-0.389,1.211-1.763,1.437-2.16,2.64c0.722-0.242,0.425,0.534,0.48,0.96c0.678,0.198,0.622-0.338,1.2-0.24
	c0.009-0.79-0.098-1.698,0.72-1.68C39.584,67.594,38.688,68.216,39.415,68.51z M35.815,69.47c0.427-0.133,0.997-0.124,1.2-0.48
	c-0.75,0.073,0.61-0.693-0.24-0.72C36.729,68.944,35.992,68.927,35.815,69.47z M40.135,70.189c0.068-0.744,1.948-0.916,1.2-1.68
	C41.271,69.257,39.547,69.586,40.135,70.189z M26.215,71.63c1.034,0.313,0.297-1.144,1.2-0.96c0.495,0.064,0.057,1.063,0.72,0.96
	c-0.15-0.729,0.307-2.067-0.24-2.4C27.664,70.358,26.198,70.253,26.215,71.63z M19.495,71.149c1.001-0.277,1.184,0.021,2.16,0.24
	c-0.141-0.819-1.328-0.593-1.68-1.2C19.972,70.666,19.32,70.495,19.495,71.149z M23.095,71.149c-0.255-0.011-0.609,0.113-0.24,0.24
	c0.618-0.421,1.153,0.249,1.44-0.72c-0.752-0.297-1.107,0.511-1.68-0.48C22.44,70.845,23.092,70.673,23.095,71.149z M34.375,71.39
	c0.24,0,0.48,0,0.72,0c0.451-0.425-0.286-0.701,0.24-1.2c-0.24,0-0.48,0-0.72,0C34.713,70.768,34.177,70.711,34.375,71.39z
	 M69.655,73.55c0.37-0.465,0.527-2.758-0.24-2.88c-0.462,0.737-0.03,2.369-0.72,2.88c-0.014,0.146-0.036,0.284-0.24,0.239
	c-1.399-0.199-1.227,1.175-1.2,2.4c0,0.08,0,0.16,0,0.24c-0.36,0.92-1.23,1.329-1.92,1.92c-0.08,0-0.16,0-0.24,0
	c-1.146,1.574-1.789,4.104-4.319,3.6c-1.023,2.199-1.794,5.71-5.28,3.601c-0.307-0.014-0.333-0.308-0.72-0.24
	c-0.302,0.099-0.491,0.31-0.48,0.72c-1.529,1.805-3.545-0.922-4.8-0.72c0.044,3.11,3.034,4.33,1.92,7.2
	c-0.231,0.632-0.464,2.056,0,2.64c-0.133-0.001-0.272,0.194,0,0.24c-0.011,1.691-0.062,3.421,0.96,4.08
	c0.432-0.768,1.309-1.091,1.44-2.16c0.546-0.654,0.686-1.714,0.72-2.88c1.118-4.883,6.603-5.397,8.88-9.12c0-0.08,0-0.16,0-0.24
	c1.611-1.349,2.691-3.229,3.84-5.04c0-0.08,0-0.16,0-0.24c1.152-1.647,1.894-3.706,2.4-6C69.655,73.709,69.655,73.63,69.655,73.55z
	 M57.175,92.029c5.557,0.204,6.272,5.247,11.28,6c0.279-7.48,3.488-12.031,6.479-16.8c-1.989-1.771-2.649-4.87-3.84-7.44
	C68.639,82.054,63.358,87.493,57.175,92.029z"/>
<path fill-rule="evenodd" clip-rule="evenodd" fill="#B7935F" d="M48.775,73.31c-0.643,0.157-0.913,0.688-1.44,0.96
	c-1.161-1.085-4.201,0.055-3.12-2.4c-1.007,0.359-2.187,1.807-3.12,1.44c1.188-0.572,2.395-1.125,3.12-2.16
	c0.726,0.363-0.199,1.054,0,1.68c0.085,0.315,0.422,0.378,0.48,0.721c0.613-0.847,1.717,0.03,2.4,0.479
	C47.855,74.134,48.315,72.711,48.775,73.31z"/>
<path fill-rule="evenodd" clip-rule="evenodd" fill="#B7935F" d="M49.735,68.51c-0.315,1.354,0.952,1.128,0.96,2.16
	c-1.223,0.294-0.961,1.46-0.48,2.399c-0.278,0.201-0.644,0.316-1.2,0.24c1.828-0.107-0.622-2.319,1.44-2.64
	c-0.193-0.848-1.318-0.763-0.96-2.16C49.575,68.51,49.655,68.51,49.735,68.51z"/>
<path fill-rule="evenodd" clip-rule="evenodd" fill="#B7935F" d="M47.815,64.67c1.043,0.396,1.436,1.444,2.4,1.92
	c0.237,0.957-0.717,0.723-0.48,1.68c-0.424,0.076-0.428-1.345,0.24-0.96c-0.285-1.235-1.386-1.654-2.16-2.4
	C47.815,64.829,47.815,64.749,47.815,64.67z"/>
<path fill-rule="evenodd" clip-rule="evenodd" fill="#DAD5D5" d="M11.815,64.909c0.616-0.514-0.201-1.341,0.24-1.68
	c1.215-0.255,1.21,0.709,1.92,0.96c0,0.08,0,0.16,0,0.24c-0.622-0.259-0.892-0.868-1.68-0.96
	C11.877,63.448,12.784,64.931,11.815,64.909z"/>
<path fill-rule="evenodd" clip-rule="evenodd" fill="#DAD5D5" d="M10.615,66.829c0.08,0,0.16,0,0.24,0
	c0.221,0.899,0.978,1.263,1.2,2.16c-0.024,1.064,0.285,1.796,1.2,1.92c0.046-1.002,0.885-2.464,0.72-2.88c0-0.399,0-0.8,0-1.2
	c0.343-0.058,0.405-0.395,0.72-0.479c-0.704,1.513-0.537,3.328-1.44,5.04C11.801,70.443,11.454,68.391,10.615,66.829z"/>
<path fill-rule="evenodd" clip-rule="evenodd" fill="#DAD5D5" d="M11.815,64.909c0.969,0.021,0.063-1.461,0.48-1.439
	c0.788,0.092,1.058,0.701,1.68,0.96c0.014,0.866,0.599,1.161,0.72,1.92c-0.315,0.085-0.377,0.422-0.72,0.479
	c-0.006-0.564,0.038-3.011-1.44-2.88c-0.257,1.263-1.325,1.716-1.68,2.88c-0.08,0-0.16,0-0.24,0c0.231-0.648,0.388-1.371,0.72-1.92
	C11.495,64.909,11.655,64.909,11.815,64.909z"/>
<path fill-rule="evenodd" clip-rule="evenodd" fill="#422F21" d="M25.015,68.27c0.105-0.356,0.307,0.095,0.72,0
	c-0.093-0.707-1.05-0.551-1.44-0.96c-0.575-0.096,0.133,1.093-0.72,0.72c-0.179,0.739,0.659,0.461,0.48,1.2
	c-1.662-1.149-1.395,0.364-3.36,0.24c1.968-1.963,4.278-4.828,6.72-5.521c-2.424,1.369,0.309,4.384-1.92,5.28
	C25.162,69.082,25.458,68.306,25.015,68.27z"/>
<path fill-rule="evenodd" clip-rule="evenodd" fill="#DAD5D5" d="M13.975,68.029c0.165,0.416-0.674,1.878-0.72,2.88
	c-0.916-0.124-1.224-0.855-1.2-1.92c0.398,0.322,0.18,1.26,0.96,1.2C13.301,69.436,13.431,68.525,13.975,68.029z"/>
<path fill-rule="evenodd" clip-rule="evenodd" fill="#21201D" d="M19.015,67.55c0.65,0.217-0.548,0.536-0.48,0.96
	c-0.558-0.36-0.366-0.587-0.24-1.2c0.408-0.088,0.453,0.188,0.48,0.479C18.979,67.834,19.001,67.696,19.015,67.55z"/>
<path fill-rule="evenodd" clip-rule="evenodd" fill="#422F21" d="M41.335,68.51c0.748,0.764-1.132,0.936-1.2,1.68
	C39.547,69.586,41.271,69.257,41.335,68.51z"/>
<path fill-rule="evenodd" clip-rule="evenodd" fill="#422F21" d="M22.615,70.189c0.573,0.991,0.928,0.184,1.68,0.48
	c-0.287,0.969-0.822,0.299-1.44,0.72c-0.37-0.127-0.016-0.251,0.24-0.24C23.092,70.673,22.44,70.845,22.615,70.189z"/>
<path fill-rule="evenodd" clip-rule="evenodd" fill="#B7935F" d="M69.655,73.55c0-0.24,0-0.48,0-0.721
	c-0.771-0.211-0.329,0.791-0.96,0.721c0.689-0.511,0.258-2.143,0.72-2.88C70.183,70.792,70.025,73.085,69.655,73.55z"/>
<path fill-rule="evenodd" clip-rule="evenodd" fill="#B7935F" d="M67.255,76.189c-0.026-1.226-0.199-2.6,1.2-2.4
	c-0.965,0.155-1.106,1.134-0.96,2.4C67.415,76.189,67.335,76.189,67.255,76.189z"/>
<path fill-rule="evenodd" clip-rule="evenodd" fill="#B7935F" d="M65.335,78.35c0.689-0.591,1.56-1,1.92-1.92
	C67.429,76.933,66.403,78.291,65.335,78.35z"/>
<path fill-rule="evenodd" clip-rule="evenodd" fill="#B7935F" d="M65.095,78.35c-0.656,1.997-1.893,4.101-4.08,3.84
	c-1.034,1.503-1.404,4.587-3.84,4.32c-0.184-0.021-1.632-0.74-1.68-0.96c3.486,2.109,4.257-1.401,5.28-3.601
	C63.306,82.453,63.948,79.924,65.095,78.35z"/>
<path fill-rule="evenodd" clip-rule="evenodd" fill="#B7935F" d="M51.415,92.51c1.114-2.87-1.875-4.09-1.92-7.2
	c1.255-0.202,3.271,2.524,4.8,0.72c-0.95,1.91-3.238,0.249-4.32-0.479c-0.582,1.705,1.123,3.193,1.92,4.319
	C51.996,91.01,51.546,91.601,51.415,92.51z"/>
<path fill-rule="evenodd" clip-rule="evenodd" fill="#B7935F" d="M51.415,95.149c0.416,1.185,0.179,3.021,0.72,4.08
	c0.668-0.532,1.063-1.337,1.68-1.92c-0.131,1.069-1.008,1.393-1.44,2.16c-1.021-0.659-0.971-2.389-0.96-4.08
	C51.143,95.344,51.282,95.148,51.415,95.149z"/>
<path fill-rule="evenodd" clip-rule="evenodd" fill="#B7935F" d="M54.535,94.43c-0.034,1.166-0.173,2.226-0.72,2.88
	c-0.617,0.583-1.012,1.388-1.68,1.92c-0.541-1.059-0.304-2.896-0.72-4.08c-0.464-0.584-0.231-2.008,0-2.64
	c0.131-0.909,0.581-1.5,0.48-2.641c-0.797-1.126-2.501-2.614-1.92-4.319c1.082,0.729,3.37,2.39,4.32,0.479
	c-0.011-0.41,0.178-0.621,0.48-0.72c0.388-0.067,0.413,0.227,0.72,0.24c0.048,0.22,1.496,0.939,1.68,0.96
	c2.436,0.267,2.806-2.817,3.84-4.32c2.188,0.261,3.424-1.843,4.08-3.84c0.08,0,0.16,0,0.24,0c1.068-0.059,2.094-1.417,1.92-1.92
	c0-0.08,0-0.16,0-0.24c0.08,0,0.16,0,0.24,0c-0.146-1.267-0.005-2.245,0.96-2.4c0.204,0.045,0.227-0.093,0.24-0.239
	c0.631,0.07,0.188-0.932,0.96-0.721c0,0.24,0,0.48,0,0.721c0,0.08,0,0.159,0,0.239c-0.838,1.963-1.492,4.108-2.4,6
	c0,0.08,0,0.16,0,0.24c-1.363,1.598-2.526,3.394-3.84,5.04c0,0.08,0,0.16,0,0.24C60.803,88.697,55.375,89.27,54.535,94.43z"/>
<path fill-rule="evenodd" clip-rule="evenodd" fill="#B7935F" d="M63.415,85.31c-2.277,3.723-7.762,4.237-8.88,9.12
	C55.375,89.27,60.803,88.697,63.415,85.31z"/>
<path fill-rule="evenodd" clip-rule="evenodd" fill="#B7935F" d="M63.415,85.069c1.313-1.646,2.477-3.442,3.84-5.04
	C66.106,81.841,65.026,83.721,63.415,85.069z"/>
<path fill-rule="evenodd" clip-rule="evenodd" fill="#B7935F" d="M69.655,73.789c-0.507,2.294-1.248,4.353-2.4,6
	C68.163,77.897,68.817,75.752,69.655,73.789z"/>
<path fill-rule="evenodd" clip-rule="evenodd" fill="#21201D" d="M75.175,21.229c1.466,0.134,2.576,0.624,3.84,0.96
	C77.434,22.171,76.049,21.955,75.175,21.229z"/>
<path fill-rule="evenodd" clip-rule="evenodd" fill="#A6A6A6" d="M51.895,21.709c0.102,0.501-0.165,0.635-0.24,0.96
	c-0.08,0-0.16,0-0.24,0C50.756,23.442,51.767,20.15,51.895,21.709z"/>
<path fill-rule="evenodd" clip-rule="evenodd" fill="#B7935F" d="M78.535,50.509c0.264,0.894,0.18,1.685-0.24,2.88
	c-0.444,0.676-0.659,1.581-0.96,2.4c0.037,0.597-0.377,0.743-0.48,1.2c-1.687,0.873-2.744,2.376-5.04,2.641
	c0.3-2.399-0.135-3.546-0.72-5.521c1.037-0.953,0.485-1.303,0.24-2.88c0.583-0.697,1.02-1.54,1.44-2.4
	c-0.089-0.408,0.187-0.453,0.479-0.48c1.306-0.697,2.284-1.064,4.56-1.44C78.544,47.746,78.469,49.681,78.535,50.509z M76.135,49.79
	c0.08,0,0.16,0,0.24,0c0.265-0.615,1.382-0.378,1.2-1.44c-2.612-0.033-4.588,2.599-5.04,5.52c1.637-0.204,1.081-2.6,2.88-2.64
	c0.075,0.324,0.342,0.458,0.24,0.96c-0.085,0.964,0.004,1.756,0.72,1.92c0.265-0.727,0.455-2.431,0-3.12
	C76.174,50.711,76.059,50.346,76.135,49.79z"/>
<path fill-rule="evenodd" clip-rule="evenodd" fill="#21201D" d="M30.055,62.27c1.997,0.004,4.015-0.015,5.28,0.72
	c-2.204-0.596-5.345-0.255-7.68-0.72C28.455,62.27,29.255,62.27,30.055,62.27z"/>
<path fill-rule="evenodd" clip-rule="evenodd" fill="#B7935F" d="M42.775,69.709c0.621-1.25,0.133-1.639,0-3.119
	c-0.928-1.873-3.125-2.475-5.04-3.36c2.095-1.91,5.259,0.417,7.2,0.96c0.041-0.359-0.086-0.886,0.24-0.96
	c0.722,0.978,1.981,0.604,2.64,1.2c0,0.08,0,0.16,0,0.24c0,0.079,0,0.159,0,0.239c0.774,0.746,1.875,1.165,2.16,2.4
	c-0.668-0.385-0.664,1.036-0.24,0.96c0,0.08,0,0.16,0,0.24c-0.08,0-0.16,0-0.24,0c-0.358,1.397,0.767,1.313,0.96,2.16
	c-2.063,0.32,0.388,2.532-1.44,2.64c-0.08,0-0.16,0-0.24,0c-0.46-0.599-0.92,0.824-1.68,0.72c-0.683-0.449-1.787-1.326-2.4-0.479
	c-0.058-0.343-0.395-0.405-0.48-0.721c-0.199-0.626,0.726-1.316,0-1.68c-0.725,1.035-1.932,1.588-3.12,2.16c-0.08,0-0.16,0-0.24,0
	c-0.241-0.531-2.34,0.486-2.64-0.96C40.344,72.079,41.778,71.113,42.775,69.709z"/>
<path fill-rule="evenodd" clip-rule="evenodd" fill="#21201D" d="M36.775,38.75c1.08-0.445,4.07-0.244,4.8-0.24
	C40.451,39.066,38.297,38.592,36.775,38.75z"/>
<path fill-rule="evenodd" clip-rule="evenodd" fill="#21201D" d="M30.535,65.39c1.413,1.345-0.575,3.333-1.92,1.92
	C28.336,65.751,29.1,65.234,30.535,65.39z"/>
</svg>
