<?xml version="1.0" encoding="utf-8"?>
<!-- Generator: Adobe Illustrator 15.1.0, SVG Export Plug-In . SVG Version: 6.00 Build 0)  -->
<!DOCTYPE svg PUBLIC "-//W3C//DTD SVG 1.1//EN" "http://www.w3.org/Graphics/SVG/1.1/DTD/svg11.dtd">
<svg version="1.1" id="Ebene_1" xmlns="http://www.w3.org/2000/svg" xmlns:xlink="http://www.w3.org/1999/xlink" x="0px" y="0px"
	 width="113.39px" height="113.39px" viewBox="0 0 113.39 113.39" enable-background="new 0 0 113.39 113.39" xml:space="preserve">
<g>
	<path fill-rule="evenodd" clip-rule="evenodd" fill="#2E312B" d="M49.734,23.622c0,0.32,0,0.64,0,0.96
		c-0.628,0.068-1.032-0.088-0.96-0.72C48.988,23.675,49.316,23.604,49.734,23.622z"/>
	<path fill-rule="evenodd" clip-rule="evenodd" fill="#734931" d="M48.774,45.704c-0.259,0.397-2.142,0.397-2.4,0
		C47.174,45.704,47.974,45.704,48.774,45.704z"/>
	<path fill-rule="evenodd" clip-rule="evenodd" fill="#FFFFFF" d="M35.813,50.984c-0.45-0.458,0.143-0.435,0-1.2
		c0.987,0.246,0.559,0.665,0.96,1.68c-0.325-0.076-0.458-0.342-0.96-0.24C35.813,51.145,35.813,51.064,35.813,50.984z"/>
	<path fill-rule="evenodd" clip-rule="evenodd" fill="#734931" d="M37.253,59.385c-0.182,0.397-1.978,0.397-2.16,0
		c0.574-0.146,1.741,0.302,1.92-0.24C37.16,59.158,37.297,59.181,37.253,59.385z"/>
	<path fill-rule="evenodd" clip-rule="evenodd" fill="#88A6B4" d="M58.855,75.946c-1.169-0.141,0.092-1.328,0.239-1.68
		c0.205-0.044,0.227,0.094,0.24,0.239c-0.044,0.205,0.094,0.227,0.24,0.24C59.36,75.172,58.601,75.052,58.855,75.946z"/>
	<path fill-rule="evenodd" clip-rule="evenodd" fill="#6C92A7" d="M67.256,78.827c0.896,0.145,1.729,0.352,2.16,0.96
		c-0.882-0.078-1.328-0.593-2.16-0.721C67.256,78.986,67.256,78.906,67.256,78.827z"/>
	<path fill-rule="evenodd" clip-rule="evenodd" fill="#D5BA74" d="M46.854,85.547c0.315,0.288,0.377,0.094,0.72,0
		c0.61,0.67,1.512,1.049,1.44,2.4c0.41,0.912-0.514,1.647-0.96,2.4c-1.923,0.163-3.372-0.148-3.36-1.92
		c-0.107-1.067,0.171-1.75,0.48-2.4C45.377,85.51,46.704,86.117,46.854,85.547z"/>
	<path fill-rule="evenodd" clip-rule="evenodd" fill="#6C92A7" d="M56.455,93.468c0.658,0.005,0.57,1.133,0.24,1.44
		C56.037,94.903,56.125,93.775,56.455,93.468z"/>
	<path fill-rule="evenodd" clip-rule="evenodd" fill="#6C92A7" d="M66.056,93.468c0.679-0.198,0.622,0.339,1.2,0.24
		c-0.012,0.919-1.076,1.63,0.24,1.92c-0.399,0.576-0.645,1.133-1.44,0.721C66.779,95.4,66.41,94.526,66.056,93.468z"/>
	<path fill-rule="evenodd" clip-rule="evenodd" fill="#6C92A7" d="M65.336,94.188c-0.581,0.81,0.733,1.068,0,1.92
		c-0.171-1.109-1.049-1.512-1.681-2.16C64.348,93.253,64.406,94.415,65.336,94.188z"/>
	<path fill-rule="evenodd" clip-rule="evenodd" fill="#6C92A7" d="M59.575,93.948c0.976-0.226,0.832,1.3,0.48,1.68
		C59.698,95.265,59.669,94.574,59.575,93.948z"/>
	<path fill-rule="evenodd" clip-rule="evenodd" fill="#6C92A7" d="M51.655,95.388c0.675,1.164,0.133,2.609,0.24,3.841
		C50.776,98.729,51.615,96.471,51.655,95.388z"/>
	<path fill-rule="evenodd" clip-rule="evenodd" fill="#6C92A7" d="M61.735,96.349c0.46,0.202,0.649,1.053,0.24,1.439
		c-0.355-0.125-0.605-0.354-0.96-0.479C61.086,96.819,61.665,96.838,61.735,96.349z"/>
	<path fill-rule="evenodd" clip-rule="evenodd" fill="#6C92A7" d="M70.856,101.629c-0.503-0.218-0.086-1.355-0.721-1.44
		c0.054-0.187,0.201-0.279,0.48-0.24C70.604,100.663,71.322,101.166,70.856,101.629z"/>
	<path fill-rule="evenodd" clip-rule="evenodd" fill="#6C92A7" d="M51.655,100.188c0.399,0.477-0.022,0.306,0,0.96
		C50.73,101.338,50.73,99.999,51.655,100.188z"/>
	<path fill-rule="evenodd" clip-rule="evenodd" fill="#6C92A7" d="M52.854,100.669c0.502-0.102,0.636,0.164,0.96,0.239
		c-0.101,0.459-0.087,1.033-0.72,0.961C53.293,101.19,52.756,101.247,52.854,100.669z"/>
	<path fill-rule="evenodd" clip-rule="evenodd" fill="#88A6B4" d="M55.495,101.629c0.523-0.044,0.763,0.196,0.72,0.72
		c-0.431-0.03-0.506,0.294-0.96,0.24C55.225,102.158,55.549,102.082,55.495,101.629z"/>
	<path fill-rule="evenodd" clip-rule="evenodd" fill="#88A6B4" d="M55.015,102.349c-0.201,0.52-0.621,0.818-0.48,1.681
		C53.879,103.471,54.145,102.536,55.015,102.349z"/>
	<path fill-rule="evenodd" clip-rule="evenodd" fill="#6C92A7" d="M41.333,102.589c-0.576,1.009,0.479,1.008,0,1.92
		c-0.193-0.127-0.39-0.25-0.72-0.24C41.306,103.73,39.958,102.544,41.333,102.589z"/>
	<path fill-rule="evenodd" clip-rule="evenodd" fill="#88A6B4" d="M58.135,103.789c-0.32,0-0.64,0-0.96,0c0-0.24,0-0.48,0-0.721
		c-0.135,1.18-1.175,0.205-1.68,0.721c-0.564-1.089,1.474-1.378,2.64-0.96C58.135,103.148,58.135,103.469,58.135,103.789z"/>
	<path fill-rule="evenodd" clip-rule="evenodd" fill="#88A6B4" d="M52.615,102.829c-0.002,0.638,0.09,1.37-0.24,1.68
		c-0.582-0.139-0.534-0.906-0.72-1.44C51.868,102.883,52.197,102.811,52.615,102.829z"/>
	<path fill-rule="evenodd" clip-rule="evenodd" fill="#6C92A7" d="M38.934,103.549c0.913,0.006,0.874,1.25-0.24,0.96
		C38.592,104.007,38.858,103.873,38.934,103.549z"/>
	<path fill-rule="evenodd" clip-rule="evenodd" fill="#88A6B4" d="M52.135,105.709c0.768,0.032,1.056,0.544,0.96,1.44
		c-0.4,0-0.8,0-1.2,0C51.863,106.558,51.858,105.993,52.135,105.709z"/>
	<path fill-rule="evenodd" clip-rule="evenodd" fill="#6C92A7" d="M32.453,106.909c0.421,0.219,0.439,0.841,0.72,1.2
		c0,0.08,0,0.16,0,0.24C32.654,108.289,32.07,107.078,32.453,106.909z"/>
	<path fill-rule="evenodd" clip-rule="evenodd" fill="#6C92A7" d="M18.532,107.149c0.853,0.027,0.966,0.794,0.96,1.68
		C19.112,108.329,18.709,107.852,18.532,107.149z"/>
	<path fill-rule="evenodd" clip-rule="evenodd" fill="#6C92A7" d="M21.412,108.829c0.315,0.085,0.377,0.423,0.72,0.48
		c-0.158,0.322-0.513,0.447-0.96,0.479C21.07,109.288,21.336,109.154,21.412,108.829z"/>
	<path fill-rule="evenodd" clip-rule="evenodd" fill="#6C92A7" d="M17.332,109.789c0.567,0.634,1.63,0.771,2.16,1.44
		c-0.36,0.916-1.189-0.563-1.92,0.48C17.756,110.805,17.279,110.563,17.332,109.789z"/>
	<path fill-rule="evenodd" clip-rule="evenodd" fill="#6C92A7" d="M16.131,110.27c0.541,0.191,0.792,1.609-0.24,1.44
		C15.471,110.859,16.051,111.119,16.131,110.27z"/>
	<path fill-rule="evenodd" clip-rule="evenodd" fill="#6C92A7" d="M22.612,110.27c0.467,0.388,0.75,1.659-0.24,1.68
		C22.254,111.192,22.805,111.102,22.612,110.27z"/>
	<path fill-rule="evenodd" clip-rule="evenodd" fill="#6C92A7" d="M20.212,110.51c0.979-0.1,1.514,0.245,1.44,1.2
		C20.725,111.756,20.273,111.328,20.212,110.51z"/>
	<path fill-rule="evenodd" clip-rule="evenodd" fill="#6C92A7" d="M25.012,113.39c-0.24,0-0.48,0-0.72,0
		c-0.051-0.27-0.266-0.374-0.48-0.48c-0.293-1.093,0.659-0.941,0.48-1.92C25.882,111.325,23.831,112.505,25.012,113.39z"/>
	<path fill-rule="evenodd" clip-rule="evenodd" fill="#6C92A7" d="M17.812,113.39c-0.16,0-0.32,0-0.48,0
		c0.231-1.18-1.179-0.345-1.2-0.72C16.386,111.385,18.606,112.829,17.812,113.39z"/>
	<path fill-rule="evenodd" clip-rule="evenodd" fill="#6C92A7" d="M26.452,113.39c-0.32,0-0.64,0-0.96,0
		c-0.054-0.187-0.006-0.474-0.24-0.48C25.426,112.373,26.621,112.793,26.452,113.39z"/>
	<path fill-rule="evenodd" clip-rule="evenodd" fill="#88A6B4" d="M99.179,100.429c0.588,1.335,1.798,3.318,1.2,5.04
		C100.193,103.699,99.196,101.58,99.179,100.429z"/>
	<path fill-rule="evenodd" clip-rule="evenodd" fill="#2E312B" d="M12.051,113.39c0.988-4.1,2.775-10.946,6.24-14.642
		c-0.174-0.785-1.262-0.658-1.2-1.68c0.47-1.53,1.613-2.387,2.88-3.12c0.558-0.097,1.275,0.7,2.16,0.96
		c2.407-1.114,2.422-4.618,5.281-5.28c0.941-0.062,0.892,0.868,1.92,0.72c3.146-1.814,6.218-3.703,9.841-5.04
		c-0.431-1.19-0.501-1.935-0.48-3.121c-4.127-4.225-6.499-9.645-8.401-16.081c-1.016-3.437-1.982-6.542-1.2-9.601
		c0.904-3.532,3.912-5.413,4.56-9.601c-0.833-0.607-2.547-0.333-2.64-1.68c0.85-0.13,0.59,0.85,1.44,0.72
		c0.006-0.81-1.262-1.068-0.48-1.92c0.481-0.033,1.116,1.63,1.2,0.48c-0.841-0.654,0.574-0.277,0.72-0.48
		c0.804-1.116,0.251-2.924,0.24-4.321c-0.013-1.668,0.69-3.56,0.72-4.56c0.035-1.159-0.607-1.818-0.48-2.64
		c0.319-2.061,2.361-4.803,3.84-6.241c0.878-0.853,3.304-2.445,5.041-3.36c2.108-1.111,5.208-1.486,7.681-0.72
		c4.281-1.245,8.19,0.473,11.521,1.92c0-0.72,0-1.44,0-2.16c1.472-2.209,3.737-3.624,6.001-5.041c2.483,0.115,2.479-1.045,5.04-0.96
		c2.609,0.087,5.503,2.202,7.201,4.32c1.183,1.476,1.212,1.343,1.439,2.64c0.081,0.457,0.604,0.419,0.721,0.72
		c1.656,4.305-0.464,10.601-3.12,12.721c-0.974,0.776-2.426,0.817-3.12,1.92c-1.42,0.32-2.506,0.5-4.321,0.96
		c0.021,3.28-1.282,9.338-3.12,12.241c1.062,4.71-1.919,7.288-4.32,9.841c-0.261,2.173-0.931,5.635-1.2,7.44
		c1.435-0.603,3.528-0.529,4.32,0.72c-0.441,2.977-1.171,5.179-0.72,8.161c5.843,2.538,10.822,4.646,15.842,8.16
		c0.824-0.809,1.735,0.332,2.64,0.24c0.75,3.33,4.68,3.481,6.241,6.001c1.515,0.005,3.236-0.196,3.84,0.72
		c-0.889,2.442,2.167,4.672,3.36,7.681c0.018,1.151,1.015,3.271,1.2,5.04c0.138,0.422-0.29,1.41,0.24,1.44
		c0.365,2.27,0.336,3.111,0.479,6.48c-0.32,0-0.64,0-0.96,0c-0.127-0.193-0.25-0.39-0.24-0.72c0.328-0.231,0.058-1.161-0.239-1.921
		c0-0.159,0-0.319,0-0.479c0.249,0.112,0.05-1.303-0.24-1.44c-0.128-2.753-0.603-5.157-1.44-7.2
		c-0.186-0.615-0.239-1.361-0.72-1.681c-1.04-2.224-2.049-5.384-4.801-4.8c0,0.16,0,0.319,0,0.479
		c0.553,0.721,1.053,1.809,0.24,2.641c-1.424,0.336-2.997,0.523-4.561,0.72c-0.274,0.755,0.377,0.583,0.48,0.96
		c-0.637,0.348,0.881,0.536,0.479,1.44c-1.152,2.503-3.528,0.23-5.28,1.68c0.16,0.929,0.001,0.854,0.24,1.44
		c-0.523-0.043-0.764,0.196-0.721,0.72c-0.34-0.021-0.68-0.039-0.72,0.24c-1.857-0.406-4.337,0.796-2.88,2.641c0,0.08,0,0.16,0,0.24
		c-1,1.072-2.846,0.473-4.561,0.96c0,0.479,0,0.96,0,1.439c0,0.16,0,0.32,0,0.48c-0.214,0.106-0.43,0.211-0.48,0.48
		c-1.191,0.868-3.173-0.487-3.36,1.439c0,0.08,0,0.16,0,0.24c-0.399,0-0.8,0-1.2,0c-0.591-2.752,2.071-2.249,3.841-2.641
		c-0.292-3.032,2.17-2.812,4.32-2.88c-0.813-2.673,1.642-3.455,4.08-3.601c-0.999-3.473,3.44-2.39,5.521-3.12
		c-0.254-0.706-0.965-0.955-1.2-1.68c0.644-2.388,3.821-1.204,5.281-2.4c-0.073-0.728-0.927-0.674-0.961-1.44
		c0.009-1.912,2.674-1.167,3.601-2.16c0.106-0.906-1.254-0.346-1.44-0.96c-11.158,5.325-19.561,12.977-27.602,20.882
		c-0.4,0-0.801,0-1.2,0c2.386-3.974,6.639-6.333,10.32-9.601c5.05-4.482,9.816-8.456,16.082-11.281
		c-1.613-1.587-3.793-2.608-5.521-4.08c-0.562,0.079-0.992,0.288-1.44,0.479c0.321,0.547,0.295,2.801-1.2,2.881
		c-0.341-0.021-0.68-0.04-0.72,0.24c-0.895,0.031-2.121,0.583-2.641,0.239c0.213,0.667,0.892,0.869,0.96,1.681
		c-0.108,2.531-3.294,1.986-5.28,2.64c0.131,0.35-0.28,1.241,0.24,1.2c0,0.08,0,0.16,0,0.24c-0.376,1.784-2.949,1.372-4.561,1.92
		c-0.279-0.039-0.427,0.054-0.48,0.24c0.635,0.085,0.218,1.223,0.721,1.44c-0.487,1.913-3.36,1.44-5.041,2.16
		c0.025,0.614,0.136,1.145,0.48,1.439c0,0.08,0,0.16,0,0.24c-0.513-0.112-0.457,0.343-0.48,0.721
		c-0.994,1.005-3.824,0.175-4.56,1.439c0.261,1.265,0.156,1.274,0,2.4c-1.149,0.579-3.981,0.174-3.841,1.681
		c-0.002,0.637,0.091,1.37-0.24,1.68c-0.96,0-1.92,0-2.88,0c0.384-0.416,1.08-0.52,1.92-0.48c-0.84-3.479,1.963-3.317,4.08-3.84
		c-0.01-0.79-0.405-1.195-0.239-2.16c1.313-0.606,2.424-1.416,4.56-1.2c0.327-0.396-0.195-1.4,0-2.4
		c1.584-1.251,2.858-0.858,5.041-1.439c-0.102-0.858-0.64-1.281-0.48-2.4c1.478-0.954,2.544-0.832,4.561-1.2
		c0.053-0.773-0.425-1.016-0.24-1.92c1.35-1.682,4.43-0.597,5.521-2.16c-0.159-0.641-0.721-0.879-1.2-1.2
		c0.69-2.454,3.2-1.493,4.801-2.4c0.222-1.102-0.601-1.16-0.48-2.16c0.954-0.246,1.237-1.164,2.641-0.96
		c-3.051-3.066-4.711,2.131-6.721,3.6c-1.434,1.049-3.415,1.492-5.04,2.641c-5.181,3.662-9.089,10.201-14.401,12.481
		c-2.72,2.08-5.392,4.209-7.201,7.2c-0.4,0-0.8,0-1.2,0c1.341-2.899,3.779-4.702,6-6.721c0.548-0.412,1.213-0.707,1.68-1.2
		c4.099-2.086,6.669-5.937,10.081-8.881c4.263-3.678,9.608-6.091,13.201-10.561c-3.642-2.693-7.809-4.656-11.761-6.24
		c-0.432-0.608-1.265-0.815-2.16-0.96c-3.802,1.692-12.771,7.149-16.321,10.08c-0.625,0.517-2.275,1.808-2.4,2.16
		c-0.296,0.835,0.666,0.168,0.72,1.2c0.036,0.669-0.745,1.295-0.72,1.681c0.069,1.099,1.44,1.79,0,2.88
		c0.032,0.928,0.974,0.947,1.2,1.681c-0.546,1.294-1.046,2.498,0,3.6c-0.299,1.102-1.285,2.079,0,2.881
		c-0.383,1.119-1.345,2.001-0.48,3.12c0.127,0.193,0.25,0.39,0.24,0.72c-0.34,0.361-0.888,1.036-0.48,1.44
		c-0.708,0.209,0.557,0.359,0.24,0.96c-0.533,0.663-0.458,1.22-0.24,2.16c-0.48,0-0.96,0-1.44,0c-0.486-2.631,0.951-3.738-0.24-6.24
		c0.431-0.45,0.53-1.23,0.96-1.681c-1.112-0.865-0.587-2.344,0.24-3.12c-0.611-0.409-0.196-0.889-0.96-1.44
		c0.191-0.688,0.486-1.273,0.72-1.92c-0.2-0.76-0.7-1.22-1.2-1.68c1.594-1.634-0.399-3.271,0.48-5.041
		c-0.082-0.781-1.969-0.551-2.4-0.239c0.067,2.006-0.313,4.994,0.96,6.96c-1.696,1.852,0.577,2.703-0.48,5.041
		c0.239,0.481,0.469,0.972,0.72,1.439c-0.825,2.799-1.206,5.544-0.24,7.921c-0.48,0-0.96,0-1.44,0
		c-1.087-4.361,0.095-6.564,0-10.801c-0.299-0.968-0.869-1.296-0.48-2.4c0.103-0.458,0.686-0.435,0.48-1.2
		c-0.249-0.614-0.865-1.654-0.24-2.4c-0.91-2.051-0.972-4.027,0.24-5.521c-1.453-1.781-2.173-3.782-4.56-5.04
		c-3.438,1.086-7.443,3.565-10.801,5.521c4.948,7.503,10.042,14.846,14.401,21.842c-0.32,0-0.64,0-0.96,0
		c-1.707-1.974-2.661-4.7-5.041-6c-2.762-6.628-6.913-10.383-10.081-16.562c-0.979,0.301-2.086,0.474-2.4,1.439
		c0.141,0.819,0.785,1.136,1.92,0.96c-0.413,1.174-1.125,1.679-0.72,3.121c0.882,0.078,2.125-0.205,2.641,0.239
		c0.365,0.914-1.213,2.237,0,3.36c0.885,0.349,1.537-0.313,2.4,0.24c-0.072,0.924-0.208,1.266-0.72,2.16
		c0.134,0.586,0.929,0.512,0.72,1.44c1.153,0.079,2.012-0.617,2.64,0.24c-0.03,0.85-0.394,1.365-0.72,1.92
		c0.333,1.107,1.247,1.633,2.88,1.44c0.519,0.945-0.02,1.767-0.48,2.399c0.787,0.865,1.614,0.317,2.4,0.96
		c-0.789,1.044-0.602,2.7,0.96,2.641c-0.88,0-1.76,0-2.64,0c0.065-0.995-0.315-0.936,0-1.68c0.08,0,0.16,0,0.24,0
		c-1.702-0.374-1.508-2.539-2.4-3.121c-0.597,0.037-0.743-0.377-1.2-0.479c-0.281-0.359-0.298-0.981-0.72-1.2
		c-0.33-0.771-0.204-1.049,0.24-1.681c-2.058-0.155-3.588-2.096-2.88-3.6c-1.559-0.708-2.658-1.995-1.92-3.841
		c-1.82-0.118-3.291-1.532-2.4-3.6c-0.678-0.199-0.622,0.338-1.2,0.239c-0.52,0.521-1.308,0.772-1.92,1.2
		c0.166,0.954,1.056,1.185,1.44,1.92c2.977,4.305,5.891,8.672,9.121,12.722c0.574,1.187,1.526,1.994,2.16,3.12
		c-0.48,0-0.96,0-1.44,0c-4.496-5.904-8.283-12.519-13.201-18.002c-1.089,0.111-1.591,0.809-2.16,1.44
		c0.189,0.24,0.84-0.09,1.2,0.48c0.065,0.814-0.186,1.945,0.24,2.4c1.068,0.188,1.44-0.32,2.4-0.24
		c0.268,1.147-0.748,1.013-0.48,2.16c0.363,0.597,1.62,0.3,2.16,0.72c0.304,1.424-1.06,1.181-0.72,2.641
		c0.773,0.793,1.932-0.215,2.64,0.72c-0.081,0.8-0.696,1.064-0.48,2.16c0.687,1.148,2.113,0.498,2.88,1.2
		c0.056,0.936-0.516,1.244-0.72,1.92c0.249,0.791,1.426,0.654,1.92,1.2c-0.309,0.566,0.032,0.446-0.24,1.2c-0.48,0-0.96,0-1.44,0
		c-0.017-1.213-1.97-1.61-1.44-3.12c-0.801-0.479-1.449-1.111-2.16-1.681c0.57-0.255-0.515-1.105,0.24-1.439
		c-2.207-0.679-1.872-1.783-2.16-3.601c-0.055-0.346-0.716-0.084-0.72-0.48c-0.495-0.545-1.161-0.919-0.96-2.16
		c-0.16,0-0.32,0-0.48,0c-0.379,0.383-1.102-0.115-1.2-0.72c-2.939,3.301-4.362,8.119-5.521,13.201
		C12.851,113.39,12.451,113.39,12.051,113.39z M70.376,34.183c0.921,1.63,3.037,1.025,4.801,1.44
		c-0.342,1.019-2.063,0.657-3.36,0.72c0.076,0.563,0.379,0.901,0.24,1.68c1.652,0.133,2.428-0.612,4.08-0.48
		c1.963-1.237,3.637-2.763,5.04-4.56c0.371-2.28,0.802-3.149,1.44-5.281c-0.522-0.938-0.413-1.279-0.24-2.16
		c-1.18-1.261-1.255-3.247-2.16-4.56c-3.788-5.497-10.929-4.456-15.841-0.24c-0.242,1.318-2.203,3.972-0.24,4.561
		c0.536-1.944,1.033-3.927,2.88-4.561c-0.563,1.684-2.8,4.115-1.2,5.76c-0.046-1.726,0.598-2.763,1.681-3.36
		c-1.197,3.546-0.595,6.12,1.44,8.4c-1.982-0.178-2.469-1.853-3.121-3.36c-3.207-3.235-7.354-5.549-13.201-5.521
		c-0.836,0.365-1.489,0.912-2.64,0.96c0-0.32,0-0.64,0-0.96c-3.273,0.019-4.004,0.113-6.481,1.2c-0.453,0.027-0.167,0.793-0.72,0.72
		c-2.889,1.433-6.894,4.736-6.48,7.681c1.993-3.367,6.279-4.441,10.561-5.521c0.376-0.823,0.908-1.95,1.92-1.44
		c0.179,0.739-0.659,0.461-0.48,1.2c9.312,3.725,12.073,14.008,13.441,24.242c3.185-2.807-0.199-8.555-0.24-11.281
		c2.46,3.34,2.09,6.739,2.641,10.561c2.288-0.985,1.106-4.387,0.96-6.481c-0.09-1.28-0.126-3.145-0.24-4.08
		c1.652,1.82,1.552,7.782,1.92,10.561c1.669-3.424,0.807-7.313,1.681-9.601c1.142,2.852,0.019,8.066-0.24,10.321
		c3.295-5.217,4.157-13.273,0.48-18.481c2.374,0.476,5.216,1.472,6.96,1.2C73.663,34.783,72.831,33.895,70.376,34.183z
		 M52.135,30.342c-1.003-1.477-2.881-2.079-4.561-2.88c-5.359,1.369-13.668,3.969-12.001,13.201c0.694-1.104,2.234-1.395,3.84-0.96
		c2.656,1.482,2.466,7.225,2.16,9.601c-1.518,4.163-6.406,4.956-9.121,7.92c0.352,1.334,1.702,2.104,2.64,2.16
		c0.182,0.397,1.978,0.397,2.16,0c1.428-0.412,3.421-0.259,4.08-1.44c-0.599-0.602-1.509-0.891-1.92-1.68
		c1.347-0.444,2.869,0.521,3.12,1.92c-1.287,2.553-4.819,2.616-8.401,2.16c-1.118-0.562-1.874-1.485-2.64-2.4
		c-0.834-2.676,2.333-3.426,4.081-4.32c0.683-0.197,1.218-0.542,1.44-1.2c-0.448-0.191-0.879-0.401-1.44-0.48
		c-1.004-0.196-0.697-1.703-1.92-1.68c-1.106,2.308-3.832,5.111-3.84,9.121c-0.004,1.859,1.692,7.155,2.641,9.841
		c2.44,6.91,5.405,13.549,12.721,12.241c0.202,0.278,0.317,0.644,0.24,1.2c0.074,0.726-0.267,1.867,0.48,1.92
		c0.773-0.316,0.757-2.696,0.24-2.88c-0.099-0.578,0.438-0.521,0.24-1.2c1.703-1.258,3.458-2.463,6.241-2.641
		c0.972-0.947,1.484-2.355,3.6-2.16c0.097-0.942,1.055-1.024,1.2-1.92c1.919-0.481,1.722-3.079,3.36-3.84
		c0.187,0.891-0.984,1.648,0,1.92c3.013-2.152,1.869-6.009,2.88-10.321c-1.036-0.483-2.715-0.325-2.64-1.92
		c0.957-0.782,1.484,0.47,2.4,0.48c2.955-1.418,5.302-4.103,4.32-8.161c-0.339-0.473-1.837-1.028-2.16-0.72
		c-1.815-0.294-2.656,0.385-3.841,0.72c-0.24,0-0.479,0-0.72,0c-0.43-1.01-0.283-2.597-0.721-3.6c0-0.32,0-0.64,0-0.96
		c-0.472-1.048-0.186-2.854-0.96-3.6c-0.954-3.895-2.805-8.623-5.28-11.761C53.653,31.376,52.73,29.998,52.135,30.342z
		 M36.293,40.903c-0.667,1.334-1.764,2.237-1.68,4.32c1.417,0.928,4.147,0.33,6,0.24C40.327,42.9,39.635,39.631,36.293,40.903z
		 M34.853,46.664c-0.734,0.438-0.509,1.77,0.24,2.64c-0.054,0.854,0.162,1.438,0.72,1.68c0,0.08,0,0.16,0,0.24
		c1.242,1.381,3.281,0.339,3.84-0.96c0.116-0.764,0.756-1.004,0.72-1.92c0.289-0.45,0.289-1.23,0-1.68
		c-0.198,0.762-0.766,1.154-1.2,1.68c-0.08,0-0.16,0-0.24,0c-1.045,0.004-1.666-0.415-2.16-0.96c-0.033-0.447-0.158-0.802-0.48-0.96
		c-0.053,0.187-0.201,0.279-0.48,0.24C35.493,46.664,35.173,46.664,34.853,46.664z M62.455,71.146
		c-0.385,0.574-0.324,1.595-0.96,1.92c-2.311-0.247-3.623,1.979-4.56,3.84c3.353-1.059,5.282-4.336,9.361-5.76
		c0.105-0.758,1.187-1.334,0.72-1.921C64.756,68.506,64.379,70.832,62.455,71.146z M49.014,79.787
		c0.044,0.771-0.595,1.217-1.68,1.439c0.177,1.04-0.542,1.487,0.24,1.921c2.702-2.339,6.931-3.15,9.121-6.001
		c-0.203-0.518-1.053-0.388-1.44-0.72C54.327,78.556,51.439,79.949,49.014,79.787z M61.256,76.187c-0.4,0-0.801,0-1.2,0
		c-0.237,1.399-1.314,1.704-2.4,1.68c-1.784,3.113-7.036,3.509-9.361,6.721c1.43,0.57,1.834,2.166,2.4,3.601
		c4.525-4.035,10.026-7.096,15.361-10.321c-0.432-1.467-0.202-4.131,0.24-5.76c-0.539-0.367-1.18,1.211-1.92,1.439
		c-0.676,0.365-0.943,1.138-2.16,0.96C61.69,75.215,61.964,75.479,61.256,76.187z M40.374,82.907c-1.728,0.538,1.55,3.493,2.88,4.08
		c1.017-1.095,1.545-2.135,1.2-4.08C43.063,83.024,41.049,82.732,40.374,82.907z M46.854,85.547c-1.984-0.46-2.797,1.518-2.16,2.881
		c-0.011,1.771,1.438,2.083,3.36,1.92c0.446-0.753,1.37-1.488,0.96-2.4c0.187-0.054,0.474-0.007,0.48-0.24
		c-0.487-0.872-0.657-2.063-1.92-2.16C47.231,85.641,47.169,85.835,46.854,85.547z"/>
	<path fill-rule="evenodd" clip-rule="evenodd" fill="#6C92A7" d="M97.259,99.948c0.48,0.319,0.534,1.065,0.72,1.681
		C97.019,101.274,97.526,100.7,97.259,99.948z"/>
	<path fill-rule="evenodd" clip-rule="evenodd" fill="#6C92A7" d="M89.098,101.389c0.401-0.904-1.116-1.093-0.479-1.44
		c0.134,0.346,0.374,0.586,0.72,0.721c0.656-0.219-0.426-0.842,0.24-1.2c1.573,0.244,5.243-0.845,3.12-1.2
		c0.813-0.832,0.313-1.92-0.24-2.641c0.664-0.04,0.824,0.369,0.48,0.721c0.738,0.179,0.461-0.659,1.2-0.48
		c0.582,1.748,2.122,3.176,2.88,5.04c1.222,3.008,0.746,7.322,2.4,7.921c0.29,0.138,0.489,1.553,0.24,1.44
		c-0.454-0.026-0.167-0.794-0.721-0.72c-0.027,1.028,0.234,2.341,0.48,3.84c-9.361,0-18.722,0-28.083,0c0-0.08,0-0.16,0-0.24
		c1.083-0.684,3.581,0.011,3.36-1.439c0.051-0.27,0.267-0.374,0.48-0.48c0-0.16,0-0.32,0-0.48c0.677,0.038,0.602-0.678,0.96-0.96
		c1.564-0.086,4.351,0.213,3.601-1.439c0-0.08,0-0.16,0-0.24c0.867,0.228,0.334-0.945,0.479-1.44
		c1.397,0.141,1.947-1.104,3.12-0.479c0.144-0.624-0.096-0.864-0.72-0.721c0.04-0.279,0.38-0.261,0.72-0.24
		c0.502,0.103,0.636-0.164,0.961-0.239c0.038-0.279-0.054-0.428-0.24-0.48c-0.239-0.586-0.08-0.512-0.24-1.44
		c0.295,0.105,0.493,0.308,0.48,0.721c1.58-0.687,5.006,0.368,5.28-2.16C89.571,101.396,89.284,101.442,89.098,101.389z"/>
	<path fill-rule="evenodd" clip-rule="evenodd" fill="#88A6B4" d="M83.817,103.068c1.752-1.449,4.128,0.823,5.28-1.68
		c0.187,0.054,0.474,0.007,0.48,0.24c-0.274,2.528-3.7,1.474-5.28,2.16C84.311,103.376,84.112,103.174,83.817,103.068z"/>
	<path fill-rule="evenodd" clip-rule="evenodd" fill="#88A6B4" d="M83.337,105.229c-0.043-0.523,0.197-0.763,0.721-0.72
		c0.187,0.053,0.278,0.201,0.24,0.48C83.973,105.064,83.839,105.331,83.337,105.229z"/>
	<path fill-rule="evenodd" clip-rule="evenodd" fill="#88A6B4" d="M79.737,108.109c-1.457-1.845,1.022-3.047,2.88-2.641
		c0.624-0.144,0.863,0.097,0.72,0.721c-1.173-0.624-1.723,0.62-3.12,0.479C80.071,107.164,80.604,108.337,79.737,108.109z"/>
	<path fill-rule="evenodd" clip-rule="evenodd" fill="#6C92A7" d="M65.576,113.39c8.041-7.905,16.443-15.557,27.602-20.882
		c0.187,0.614,1.547,0.054,1.44,0.96c-0.927,0.993-3.592,0.248-3.601,2.16c0.034,0.767,0.888,0.713,0.961,1.44
		c-1.46,1.196-4.638,0.013-5.281,2.4c0.235,0.725,0.946,0.974,1.2,1.68c-2.08,0.73-6.52-0.353-5.521,3.12
		c-2.438,0.146-4.894,0.928-4.08,3.601c-2.15,0.068-4.612-0.152-4.32,2.88c-1.77,0.392-4.432-0.111-3.841,2.641
		C68.616,113.39,67.096,113.39,65.576,113.39z"/>
	<path fill-rule="evenodd" clip-rule="evenodd" fill="#88A6B4" d="M61.256,107.629c0.735-1.265,3.565-0.435,4.56-1.439
		c0.023-0.378-0.032-0.833,0.48-0.721C67.32,107.866,62.437,107.88,61.256,107.629z"/>
	<path fill-rule="evenodd" clip-rule="evenodd" fill="#6C92A7" d="M82.617,91.788c0.728,1.286,1.808-0.215,2.88,0.96
		c0.052-0.771-0.855-0.584-1.199-0.96c0.547-0.942,1.192-0.954,0.479-2.16c1.773,0.464,2.835,2.659,4.32,2.64
		c-0.042,0.759-0.949,0.651-1.68,0.721c0.241-0.802-0.333-0.787-0.96-0.721c-0.18,0.739,0.658,0.462,0.479,1.2
		c-0.863,0.142-1.097,0.181-1.44,1.2c-0.869-0.01-0.056-1.704-1.199-1.44c-0.08,0.749,0.092,0.86-0.24,2.16
		c-1.332,0.076-0.011-1.109-0.96-1.199c-0.973,0.584,0.229,1.007,0,2.16c-1.147-0.432-1.504,0.108-1.921,0.96
		c-0.314-0.085-0.377-0.423-0.72-0.48c-0.276,0.284-0.271,0.849-0.24,1.44c-1.935,0.806-3.243,3.45-5.04,3.601
		c-0.356,0.104,0.095,0.307,0,0.72c-4.493,3.027-8.731,6.31-11.761,10.801c-2.081,0-4.161,0-6.241,0
		c0.331-0.31,0.238-1.043,0.24-1.68c1.143-0.419,5.087-0.458,3.841-1.681c0.156-1.126,0.261-1.136,0-2.4
		c1.181,0.251,6.064,0.237,5.04-2.16c0-0.08,0-0.16,0-0.24c1.6-2.369,5.457,0.044,5.521-4.56c1.768,0.711,4.308-1.518,3.36-2.641
		c0-0.08,0-0.16,0-0.24c0.563-0.636,1.927-0.931,2.88-0.479c-0.076,0.557,0.039,0.921,0.24,1.2c1.454-0.459-0.293-1.02,0.24-1.681
		c1.605,0.259,2.211-1.538,3.12-1.2c-0.245-1.125,0.395-1.365,0.72-1.92c-0.507-0.529-0.709,0.308-1.439,0.24
		c-0.114-1.074,0.719-1.201,1.68-1.2c0.044-0.523-0.196-0.764-0.72-0.72C81.938,91.748,82.276,91.768,82.617,91.788z"/>
	<path fill-rule="evenodd" clip-rule="evenodd" fill="#6C92A7" d="M51.415,113.39c1.809-2.991,4.481-5.12,7.201-7.2
		c5.313-2.28,9.221-8.819,14.401-12.481c1.625-1.148,3.606-1.592,5.04-2.641c2.01-1.469,3.67-6.666,6.721-3.6
		c-1.403-0.204-1.687,0.714-2.641,0.96c-0.12,1,0.702,1.059,0.48,2.16c-1.601,0.907-4.11-0.054-4.801,2.4
		c0.479,0.321,1.041,0.56,1.2,1.2c-1.091,1.563-4.171,0.479-5.521,2.16c-0.185,0.904,0.293,1.146,0.24,1.92
		c-2.017,0.368-3.083,0.246-4.561,1.2c-0.159,1.119,0.379,1.542,0.48,2.4c-2.183,0.581-3.457,0.188-5.041,1.439
		c-0.195,1,0.327,2.004,0,2.4c-2.136-0.216-3.246,0.594-4.56,1.2c-0.166,0.965,0.229,1.37,0.239,2.16
		c-2.117,0.522-4.92,0.36-4.08,3.84c-0.84-0.039-1.536,0.064-1.92,0.48C53.334,113.39,52.375,113.39,51.415,113.39z"/>
	<path fill-rule="evenodd" clip-rule="evenodd" fill="#88A6B4" d="M56.215,106.669c-2.222,2.019-4.659,3.821-6,6.721
		c-0.4,0-0.8,0-1.2,0c-0.217-0.94-0.292-1.497,0.24-2.16c0.408-0.088,0.453,0.188,0.48,0.48c1.121-0.959,2.223-1.938,2.88-3.36
		c0.8,0.414,1.303-0.09,1.2-1.2c1.197,0.203,1.724-1.39,2.16-2.641C55.856,105.369,57.095,105.697,56.215,106.669z"/>
	<path fill-rule="evenodd" clip-rule="evenodd" fill="#88A6B4" d="M69.416,79.787c3.952,1.584,8.119,3.547,11.761,6.24
		c-3.593,4.47-8.938,6.883-13.201,10.561c-3.411,2.944-5.981,6.795-10.081,8.881c-0.578-0.098-0.521,0.438-1.2,0.24
		c0.146-0.575,0.345-1.095,0.24-1.92c1.161,0.735,4.103-0.89,3.6-2.641c0.554-0.073,0.267,0.693,0.721,0.721
		c0.84,0.04,0.755-0.845,1.199-1.2c-0.217-0.937-0.883,0.795-0.96,0c-0.158-0.959,0.897-0.703,0.96-1.44
		c-1.044-1.495-1.836-0.289-2.88-1.681c0.112,1.152,0.051,2.132-1.2,1.921c-0.442,0.944,0.963,1.246,0.24,1.68
		c-0.729-0.151-0.66-1.101-1.2-1.439c-0.373-0.854,0.815-0.146,0.72-0.721c-0.029-0.53-1.018-0.102-1.44-0.24
		c0.228,1.453,1.178,2.184,1.44,3.601c-0.637-0.002-1.371,0.091-1.68-0.24c-0.175-0.654,0.477-0.482,0.48-0.96
		c-0.098-0.462-0.931-0.189-0.72-0.96c-0.907,0.149,0.26,1.003-0.96,0.96c0.287-0.716,0.066-0.815-0.24-1.439
		c-0.805,1.377-0.509,2.638-1.68,3.84c-0.676-1.984-2.872-2.426-3.36,0c0.122,0.759,0.707,1.054,0.72,1.92
		c-1.257,0.379-0.673,2.346-1.44,2.641c-0.865-1.119,0.097-2.001,0.48-3.12c-1.285-0.802-0.299-1.779,0-2.881
		c-1.046-1.102-0.546-2.306,0-3.6c-0.227-0.733-1.168-0.753-1.2-1.681c1.44-1.09,0.069-1.781,0-2.88
		c-0.024-0.386,0.756-1.012,0.72-1.681c-0.055-1.032-1.016-0.365-0.72-1.2c0.125-0.353,1.775-1.644,2.4-2.16
		c3.55-2.931,12.52-8.388,16.321-10.08c0,0.079,0,0.159,0,0.239C68.088,79.194,68.534,79.709,69.416,79.787z M71.336,92.268
		c-1.018,0.439-0.957-1.417-1.68-0.479C70.495,91.69,70.716,93.589,71.336,92.268z M68.216,94.908c0.051-0.29,0.267-0.147,0.48,0
		c0.276-0.284,0.271-0.849,0.24-1.44c-1.109,0.309-0.661-0.939-1.2-1.2C67.231,93.032,68.625,94.181,68.216,94.908z M56.695,94.908
		c0.33-0.308,0.418-1.436-0.24-1.44C56.125,93.775,56.037,94.903,56.695,94.908z M66.056,96.349c0.796,0.412,1.041-0.145,1.44-0.721
		c-1.316-0.29-0.252-1.001-0.24-1.92c-0.578,0.099-0.521-0.438-1.2-0.24C66.41,94.526,66.779,95.4,66.056,96.349z M63.655,93.948
		c0.632,0.648,1.51,1.051,1.681,2.16c0.733-0.852-0.581-1.11,0-1.92C64.406,94.415,64.348,93.253,63.655,93.948z M60.056,95.628
		c0.352-0.38,0.495-1.905-0.48-1.68C59.669,94.574,59.698,95.265,60.056,95.628z M51.895,99.229
		c-0.106-1.231,0.436-2.677-0.24-3.841C51.615,96.471,50.776,98.729,51.895,99.229z M59.095,96.349
		c-0.722,0.111-1.903,1.381-0.72,1.92c-0.111-0.992,0.567-1.193,0.96-1.681c-0.029-0.61-0.349-0.931-0.96-0.96
		C58.002,96.481,59.19,95.773,59.095,96.349z M61.016,97.309c0.354,0.125,0.604,0.354,0.96,0.479c0.409-0.387,0.22-1.237-0.24-1.439
		C61.665,96.838,61.086,96.819,61.016,97.309z M62.695,98.269c1.198-0.146,1.118,1.248,0.48,1.68c0.795-0.084,1.041-0.719,1.439-1.2
		c-0.547,0.067-0.901-0.058-0.96-0.479c0.372-0.547,0.5-0.453,1.2-0.24c-0.01-0.33,0.113-0.527,0.24-0.72
		c-1.717,0.517-1.214-1.188-2.641-0.96c-0.255,0.895,0.9,0.38,0.721,1.199c-0.413,0.095-0.615-0.355-0.721,0
		C62.735,97.589,62.716,97.928,62.695,98.269z M53.095,99.229c0.913-0.32,0.003-1.22,0.96-1.681c-1.381,0.434-0.659-0.864-0.96-0.96
		C52.056,97.543,53.649,98.177,53.095,99.229z M51.655,101.148c-0.022-0.654,0.399-0.483,0-0.96
		C50.73,99.999,50.73,101.338,51.655,101.148z M53.095,101.869c0.633,0.072,0.619-0.502,0.72-0.961
		c-0.325-0.075-0.458-0.341-0.96-0.239C52.756,101.247,53.293,101.19,53.095,101.869z"/>
	<path fill-rule="evenodd" clip-rule="evenodd" fill="#6C92A7" d="M49.254,111.229c0.317-0.601-0.949-0.751-0.24-0.96
		c0.046,0.194,0.241,0.239,0.24,0.479c0.774-0.458,0.16-1.063,0.72-1.92c-0.106-0.349-0.211,0.024-0.48,0
		c0.011-0.33-0.113-0.526-0.24-0.72c0.767-0.295,0.183-2.262,1.44-2.641c-0.013-0.866-0.598-1.161-0.72-1.92
		c0.488-2.426,2.684-1.984,3.36,0c1.171-1.202,0.875-2.463,1.68-3.84c0.306,0.624,0.527,0.724,0.24,1.439
		c1.22,0.043,0.053-0.811,0.96-0.96c-0.21,0.771,0.623,0.498,0.72,0.96c-0.003,0.478-0.655,0.306-0.48,0.96
		c0.309,0.331,1.042,0.238,1.68,0.24c-0.262-1.417-1.212-2.147-1.44-3.601c0.422,0.139,1.411-0.29,1.44,0.24
		c0.096,0.575-1.093-0.133-0.72,0.721c0.541,0.339,0.472,1.288,1.2,1.439c0.723-0.434-0.682-0.735-0.24-1.68
		c1.251,0.211,1.313-0.769,1.2-1.921c1.044,1.392,1.836,0.186,2.88,1.681c-0.063,0.737-1.118,0.481-0.96,1.44
		c0.077,0.795,0.743-0.937,0.96,0c-0.444,0.355-0.359,1.24-1.199,1.2c-0.454-0.027-0.167-0.794-0.721-0.721
		c0.503,1.751-2.439,3.376-3.6,2.641c0.105,0.825-0.095,1.345-0.24,1.92c0.679,0.198,0.622-0.338,1.2-0.24
		c-0.467,0.493-1.132,0.788-1.68,1.2c0.88-0.972-0.359-1.3-0.24-2.16c-0.436,1.251-0.963,2.844-2.16,2.641
		c0.103,1.11-0.4,1.614-1.2,1.2c-0.658,1.422-1.759,2.401-2.88,3.36C49.707,111.417,49.663,111.142,49.254,111.229z M58.135,102.829
		c-1.166-0.418-3.204-0.129-2.64,0.96c0.504-0.516,1.545,0.459,1.68-0.721c0,0.24,0,0.48,0,0.721c0.32,0,0.64,0,0.96,0
		C58.135,103.469,58.135,103.148,58.135,102.829z M51.655,103.068c0.186,0.534,0.138,1.302,0.72,1.44
		c0.331-0.31,0.238-1.042,0.24-1.68C52.197,102.811,51.868,102.883,51.655,103.068z M55.255,102.589
		c0.454,0.054,0.529-0.271,0.96-0.24c0.043-0.523-0.196-0.764-0.72-0.72C55.549,102.082,55.225,102.158,55.255,102.589z
		 M54.535,104.029c-0.141-0.862,0.279-1.161,0.48-1.681C54.145,102.536,53.879,103.471,54.535,104.029z M51.895,107.149
		c0.4,0,0.8,0,1.2,0c0.096-0.896-0.192-1.408-0.96-1.44C51.858,105.993,51.863,106.558,51.895,107.149z"/>
	<path fill-rule="evenodd" clip-rule="evenodd" fill="#6C92A7" d="M46.134,113.39c-0.966-2.377-0.585-5.122,0.24-7.921
		c-0.251-0.468-0.481-0.958-0.72-1.439c1.057-2.338-1.215-3.189,0.48-5.041c-1.273-1.966-0.894-4.954-0.96-6.96
		c0.431-0.312,2.319-0.542,2.4,0.239c-0.879,1.771,1.114,3.407-0.48,5.041c0.5,0.46,1,0.92,1.2,1.68
		c-0.234,0.646-0.529,1.231-0.72,1.92c0.764,0.552,0.349,1.031,0.96,1.44c-0.827,0.776-1.352,2.255-0.24,3.12
		c-0.431,0.45-0.53,1.23-0.96,1.681c1.191,2.502-0.246,3.609,0.24,6.24C47.094,113.39,46.614,113.39,46.134,113.39z"/>
	<path fill-rule="evenodd" clip-rule="evenodd" fill="#734931" d="M44.454,96.588c-0.625,0.746-0.009,1.786,0.24,2.4
		C44.104,98.744,43.46,96.938,44.454,96.588z"/>
	<path fill-rule="evenodd" clip-rule="evenodd" fill="#6C92A7" d="M39.173,113.39c-1.562,0.06-1.749-1.597-0.96-2.641
		c-0.786-0.643-1.614-0.095-2.4-0.96c0.461-0.633,0.999-1.454,0.48-2.399c-1.634,0.192-2.548-0.333-2.88-1.44
		c0.326-0.555,0.69-1.07,0.72-1.92c-0.628-0.857-1.487-0.161-2.64-0.24c0.209-0.929-0.586-0.854-0.72-1.44
		c0.512-0.895,0.647-1.236,0.72-2.16c-0.863-0.554-1.515,0.108-2.4-0.24c-1.213-1.123,0.365-2.446,0-3.36
		c-0.516-0.444-1.758-0.161-2.641-0.239c-0.405-1.442,0.307-1.947,0.72-3.121c-1.135,0.176-1.779-0.141-1.92-0.96
		c0.314-0.966,1.421-1.139,2.4-1.439c3.168,6.179,7.319,9.934,10.081,16.562c2.38,1.3,3.334,4.026,5.041,6
		C41.574,113.39,40.374,113.39,39.173,113.39z"/>
	<path fill-rule="evenodd" clip-rule="evenodd" fill="#6C92A7" d="M34.373,108.589c0.892,0.582,0.698,2.747,2.4,3.121
		c-0.08,0-0.16,0-0.24,0C35.148,111.334,34.706,110.017,34.373,108.589z"/>
	<path fill-rule="evenodd" clip-rule="evenodd" fill="#6C92A7" d="M23.812,97.548c-0.384-0.735-1.274-0.966-1.44-1.92
		c0.612-0.428,1.4-0.68,1.92-1.2c-0.235,0.806-1.24,0.841-1.68,1.44C22.763,96.529,24.255,97.089,23.812,97.548z"/>
	<path fill-rule="evenodd" clip-rule="evenodd" fill="#6C92A7" d="M35.093,113.39c-0.634-1.126-1.586-1.934-2.16-3.12
		c1.19,0.649,1.49,2.189,2.4,3.12C35.253,113.39,35.173,113.39,35.093,113.39z"/>
	<path fill-rule="evenodd" clip-rule="evenodd" fill="#6C92A7" d="M29.093,113.39c0.271-0.754-0.069-0.634,0.24-1.2
		c-0.494-0.546-1.671-0.409-1.92-1.2c0.204-0.676,0.775-0.984,0.72-1.92c-0.767-0.702-2.193-0.052-2.88-1.2
		c-0.216-1.096,0.399-1.36,0.48-2.16c-0.708-0.935-1.867,0.073-2.64-0.72c-0.34-1.46,1.024-1.217,0.72-2.641
		c-0.541-0.42-1.797-0.123-2.16-0.72c-0.268-1.147,0.748-1.013,0.48-2.16c-0.959-0.08-1.332,0.428-2.4,0.24
		c-0.426-0.455-0.175-1.586-0.24-2.4c-0.36-0.57-1.011-0.24-1.2-0.48c0.569-0.632,1.071-1.329,2.16-1.44
		c4.918,5.483,8.705,12.098,13.201,18.002C32.133,113.39,30.613,113.39,29.093,113.39z"/>
	<path fill-rule="evenodd" clip-rule="evenodd" fill="#734931" d="M19.972,100.908c0.16,0,0.32,0,0.48,0
		c-0.2,1.241,0.466,1.615,0.96,2.16C20.332,102.949,20.363,101.717,19.972,100.908z"/>
	<path fill-rule="evenodd" clip-rule="evenodd" fill="#734931" d="M75.656,33.463c-1.744,0.272-4.586-0.724-6.96-1.2
		c3.677,5.208,2.814,13.265-0.48,18.481c0.259-2.255,1.382-7.469,0.24-10.321c-0.874,2.288-0.012,6.177-1.681,9.601
		c-0.368-2.779-0.268-8.741-1.92-10.561c0.114,0.936,0.15,2.8,0.24,4.08c0.146,2.094,1.328,5.496-0.96,6.481
		c-0.551-3.822-0.181-7.221-2.641-10.561c0.041,2.726,3.425,8.474,0.24,11.281c-1.368-10.234-4.129-20.518-13.441-24.242
		c-0.179-0.739,0.659-0.461,0.48-1.2c-1.012-0.51-1.544,0.617-1.92,1.44c-4.281,1.079-8.567,2.153-10.561,5.521
		c-0.413-2.944,3.592-6.248,6.48-7.681c0.553,0.073,0.267-0.693,0.72-0.72c2.477-1.087,3.208-1.181,6.481-1.2c0,0.32,0,0.64,0,0.96
		c1.151-0.049,1.804-0.596,2.64-0.96c5.847-0.028,9.994,2.286,13.201,5.521c0.652,1.508,1.139,3.182,3.121,3.36
		c-2.035-2.281-2.638-4.854-1.44-8.4c-1.083,0.597-1.727,1.634-1.681,3.36c-1.6-1.645,0.637-4.077,1.2-5.76
		c-1.847,0.633-2.344,2.616-2.88,4.561c-1.963-0.588-0.002-3.242,0.24-4.561c4.912-4.216,12.053-5.256,15.841,0.24
		c0.905,1.313,0.98,3.299,2.16,4.56c-0.173,0.881-0.282,1.223,0.24,2.16c-0.639,2.132-1.069,3.001-1.44,5.281
		c-1.403,1.797-3.077,3.323-5.04,4.56c-1.652-0.132-2.428,0.613-4.08,0.48c0.139-0.779-0.164-1.116-0.24-1.68
		c1.297-0.063,3.019,0.298,3.36-0.72c-1.764-0.415-3.88,0.19-4.801-1.44C72.831,33.895,73.663,34.783,75.656,33.463z M48.774,23.862
		c-0.072,0.632,0.332,0.788,0.96,0.72c0-0.32,0-0.64,0-0.96C49.316,23.604,48.988,23.675,48.774,23.862z"/>
	<path fill-rule="evenodd" clip-rule="evenodd" fill="#734931" d="M31.493,57.945c0.766,0.915,1.522,1.838,2.64,2.4
		C32.749,60.05,32.024,59.094,31.493,57.945z"/>
	<path fill-rule="evenodd" clip-rule="evenodd" fill="#734931" d="M35.573,53.625c1.116-0.736,1.362-1.147,0-1.68
		c0.561,0.079,0.992,0.289,1.44,0.48C36.792,53.083,36.256,53.428,35.573,53.625z"/>
	<path fill-rule="evenodd" clip-rule="evenodd" fill="#734931" d="M46.134,82.667c0.399-0.477-0.022-0.305,0-0.96
		c0.517,0.184,0.533,2.563-0.24,2.88C45.233,83.897,46.03,83.313,46.134,82.667z"/>
	<path fill-rule="evenodd" clip-rule="evenodd" fill="#6C92A7" d="M65.576,51.224c0.323-0.308,1.821,0.247,2.16,0.72
		c-0.413,0.095-0.615-0.356-0.721,0c-0.24,0-0.479,0-0.72,0C66.461,51.299,65.8,51.48,65.576,51.224z"/>
	<path fill-rule="evenodd" clip-rule="evenodd" fill="#734931" d="M61.735,51.944c-0.045,0.355-0.58,0.22-0.96,0.24
		c-0.136-1.305-0.633-2.248-0.48-3.84c0.438,1.003,0.291,2.59,0.721,3.6C61.256,51.944,61.495,51.944,61.735,51.944z"/>
	<path fill-rule="evenodd" clip-rule="evenodd" fill="#734931" d="M59.335,43.784c0.774,0.746,0.488,2.552,0.96,3.6
		C59.432,46.233,59.66,45.139,59.335,43.784z"/>
	<path fill-rule="evenodd" clip-rule="evenodd" fill="#734931" d="M54.055,32.022c-0.728-0.472-1.112-1.288-1.92-1.68
		C52.73,29.998,53.653,31.376,54.055,32.022z"/>
	<path fill-rule="evenodd" clip-rule="evenodd" fill="#2E312B" d="M67.016,51.944c0.076,0.325,0.342,0.458,0.24,0.96
		c-0.31,0.331-1.043,0.238-1.68,0.24c0.89,0.796,0.93,2.831-0.48,3.12c-0.023-1.096,0.24-2.48-0.72-2.64
		c-0.796,0.645-1.049,1.832-1.921,2.4c-1.007-1.806,1.283-4.26,3.841-4.081C66.536,51.944,66.775,51.944,67.016,51.944z"/>
	<path fill-rule="evenodd" clip-rule="evenodd" fill="#D5BA74" d="M35.093,59.385c-0.938-0.056-2.288-0.826-2.64-2.16
		c2.715-2.965,7.603-3.758,9.121-7.92c0.306-2.376,0.496-8.119-2.16-9.601c-1.606-0.435-3.146-0.144-3.84,0.96
		c-1.667-9.232,6.642-11.832,12.001-13.201c1.679,0.801,3.558,1.403,4.561,2.88c0.808,0.393,1.192,1.208,1.92,1.68
		c2.475,3.138,4.326,7.867,5.28,11.761c0.325,1.355,0.097,2.45,0.96,3.6c0,0.32,0,0.64,0,0.96c-0.152,1.593,0.345,2.535,0.48,3.84
		c0.38-0.02,0.915,0.115,0.96-0.24c1.185-0.335,2.025-1.015,3.841-0.72c0.224,0.256,0.885,0.075,0.72,0.72
		c-2.558-0.18-4.848,2.274-3.841,4.081c0.872-0.568,1.125-1.756,1.921-2.4c0.96,0.16,0.696,1.544,0.72,2.64
		c1.41-0.289,1.37-2.324,0.48-3.12c0.637-0.002,1.37,0.091,1.68-0.24c0.102-0.501-0.164-0.635-0.24-0.96
		c0.105-0.356,0.308,0.095,0.721,0c0.981,4.058-1.365,6.743-4.32,8.161c-0.916-0.011-1.443-1.263-2.4-0.48
		c-0.075,1.595,1.604,1.437,2.64,1.92c-1.011,4.313,0.133,8.169-2.88,10.321c-0.984-0.271,0.187-1.029,0-1.92
		c-1.639,0.761-1.441,3.358-3.36,3.84c-0.145,0.896-1.103,0.978-1.2,1.92c-2.116-0.195-2.628,1.213-3.6,2.16
		c-2.783,0.178-4.538,1.383-6.241,2.641c0.198,0.679-0.338,0.622-0.24,1.2c-0.022,0.655,0.399,0.483,0,0.96
		c-0.315,0.288-0.378,0.094-0.72,0c0.077-0.557-0.039-0.922-0.24-1.2c-7.315,1.308-10.28-5.331-12.721-12.241
		c-0.949-2.686-2.645-7.981-2.641-9.841c0.009-4.01,2.734-6.813,3.84-9.121c1.223-0.023,0.916,1.484,1.92,1.68
		c1.362,0.533,1.116,0.944,0,1.68c-1.748,0.895-4.915,1.644-4.081,4.32c0.531,1.149,1.256,2.105,2.64,2.4
		c3.582,0.456,7.114,0.393,8.401-2.16c-0.251-1.399-1.773-2.364-3.12-1.92c0.411,0.79,1.321,1.079,1.92,1.68
		c-0.659,1.181-2.652,1.028-4.08,1.44c0.044-0.204-0.094-0.227-0.24-0.24C36.834,59.687,35.667,59.239,35.093,59.385z
		 M45.654,35.623c0.187,0.053,0.279,0.201,0.24,0.48c1.979-0.739,3.33,0.879,5.041,0.24C50.546,34.692,46.571,33.885,45.654,35.623z
		 M37.013,36.583c1.889-0.338,3.322-0.762,5.041-0.72C41.76,33.67,36.852,34.629,37.013,36.583z M46.374,45.704
		c-0.729-0.15-2.067,0.308-2.4-0.24c0.141-2.019,1.158-3.162,1.68-4.8c-4.556,1.889-3.501,14.206,2.4,12.721
		c2.158-0.542,2.76-3.597,3.36-6.24c1.074-0.366,2.471-0.409,2.64-1.68c-0.566-0.587-0.446,0.358-1.2,0.24
		c0.175-0.527,1.126-0.797,0.48-1.44c-0.896-0.016-1.166,0.594-1.68,0.96c-0.175-0.655,0.477-0.483,0.48-0.96
		c-1.996-0.902-1.523-5.493-4.801-4.32c1.855,1.446,3.003,2.413,2.88,5.521c-0.592-0.032-1.156-0.037-1.44,0.24
		C47.974,45.704,47.174,45.704,46.374,45.704z M45.894,40.664c0.32,0,0.64,0,0.96,0C47.382,39.352,45.366,39.352,45.894,40.664z
		 M61.976,58.185c0.854,2.226,4.154,0.538,2.64-1.44C63.357,56.142,62.012,56.84,61.976,58.185z M44.934,64.186
		c-2.228,1.276-4.322,2.129-6.48,2.16c-1.898,0.027-3.479-1.153-5.521-0.72c3.848,3.015,9.095,1.938,12.721-0.961
		c1.047,0.01,1.315,0.35,2.161,0c-1.161-1.159-2.756-1.884-3.84-3.12C43.383,62.5,44.857,63.134,44.934,64.186z M40.614,69.466
		c0.548-0.331,1.498-0.263,1.44-1.2c-1.514,0.528-5.23,0.675-6.48,0.48c-0.067,0.547,0.058,0.902,0.48,0.96
		c0.708,0.041,1.486,0.646,1.92,0.24c0.08,0,0.16,0,0.24,0C39.272,70.045,40.068,69.881,40.614,69.466z"/>
	<path fill-rule="evenodd" clip-rule="evenodd" fill="#2E312B" d="M48.774,45.704c0.284-0.276,0.848-0.271,1.44-0.24
		c0.123-3.107-1.025-4.075-2.88-5.521c3.277-1.173,2.805,3.418,4.801,4.32c-0.003,0.477-0.655,0.305-0.48,0.96
		c0.514-0.366,0.784-0.976,1.68-0.96c0.646,0.643-0.305,0.913-0.48,1.44c0.754,0.119,0.634-0.827,1.2-0.24
		c-0.169,1.271-1.566,1.314-2.64,1.68c-0.601,2.644-1.203,5.698-3.36,6.24c-5.902,1.485-6.957-10.832-2.4-12.721
		c-0.521,1.638-1.539,2.781-1.68,4.8c0.333,0.547,1.67,0.089,2.4,0.24C46.633,46.101,48.516,46.101,48.774,45.704z M44.694,46.904
		c-0.24,0-0.48,0-0.72,0c0,0.56,0,1.12,0,1.68c0.421,0.619,0.346,1.734,0.96,2.16c-0.018,0.418,0.054,0.747,0.24,0.96
		c0.08,0,0.16,0,0.24,0c0,0.08,0,0.16,0,0.24c0.614,0.312,1.862,0.843,2.64,0.24c0-0.08,0-0.16,0-0.24
		c1.64-0.68,1.804-2.836,2.16-4.8c-1.101,0.5-1.026,2.174-2.88,1.92c-0.036-0.444-0.813-0.147-0.96-0.48c0-0.08,0-0.16,0-0.24
		c-0.613-0.027-0.477-0.804-0.48-1.44C45.494,46.904,45.094,46.904,44.694,46.904z"/>
	<path fill-rule="evenodd" clip-rule="evenodd" fill="#FFFFFF" d="M39.653,50.264c-0.56,1.299-2.598,2.341-3.84,0.96
		c0.502-0.102,0.636,0.165,0.96,0.24c-0.402-1.015,0.027-1.434-0.96-1.68c0.143,0.766-0.45,0.742,0,1.2
		c-0.558-0.242-0.774-0.826-0.72-1.68c-0.472-1.171,0.58-2.087-0.24-2.64c0.32,0,0.64,0,0.96,0c0.301,0.73,0.184,0.933-0.24,1.44
		c0.424-0.216,0.701-0.58,1.2-0.72c-0.038,0.929,1.529,1.497,2.16,0.96c0.08,0,0.16,0,0.24,0s0.16,0,0.24,0
		C39.562,48.941,38.539,50.215,39.653,50.264z"/>
	<path fill-rule="evenodd" clip-rule="evenodd" fill="#6C92A7" d="M39.173,48.344c0.434-0.526,1.002-0.918,1.2-1.68
		c0.289,0.45,0.289,1.23,0,1.68c0.178-0.917-0.884-0.274-0.96,0C39.333,48.344,39.253,48.344,39.173,48.344z"/>
	<path fill-rule="evenodd" clip-rule="evenodd" fill="#FFFFFF" d="M35.093,49.304c-0.75-0.871-0.975-2.202-0.24-2.64
		C35.673,47.217,34.622,48.133,35.093,49.304z"/>
	<path fill-rule="evenodd" clip-rule="evenodd" fill="#FFFFFF" d="M35.813,46.664c0.279,0.039,0.427-0.053,0.48-0.24
		c0.322,0.158,0.447,0.513,0.48,0.96c-0.5,0.141-0.776,0.504-1.2,0.72C35.997,47.597,36.114,47.395,35.813,46.664z"/>
	<path fill-rule="evenodd" clip-rule="evenodd" fill="#FFFFFF" d="M45.414,51.705c-0.08,0-0.16,0-0.24,0
		c-0.186-0.214-0.258-0.542-0.24-0.96c0.342,0.058,0.405,0.396,0.72,0.48c0.28-0.04,0.261-0.379,0.24-0.72
		c0.743-0.041,1.08,0.844,0.72,1.2C46.017,51.678,45.871,51.254,45.414,51.705z"/>
	<path fill-rule="evenodd" clip-rule="evenodd" fill="#FFFFFF" d="M38.934,48.344c-0.631,0.537-2.198-0.032-2.16-0.96
		C37.268,47.93,37.889,48.349,38.934,48.344z"/>
	<path fill-rule="evenodd" clip-rule="evenodd" fill="#88A6B4" d="M46.374,48.584c-1.256,0.376-0.153-1.607-1.2-1.44
		c-0.186-0.054-0.473-0.007-0.48-0.24c0.4,0,0.8,0,1.2,0c0.003,0.637-0.133,1.414,0.48,1.44
		C46.374,48.424,46.374,48.504,46.374,48.584z"/>
	<path fill-rule="evenodd" clip-rule="evenodd" fill="#2E312B" d="M43.974,61.545c1.084,1.236,2.68,1.961,3.84,3.12
		c-0.846,0.35-1.114,0.01-2.161,0c-3.625,2.899-8.873,3.976-12.721,0.961c2.041-0.434,3.623,0.747,5.521,0.72
		c2.158-0.031,4.253-0.884,6.48-2.16C44.857,63.134,43.383,62.5,43.974,61.545z"/>
	<path fill-rule="evenodd" clip-rule="evenodd" fill="#2E312B" d="M36.053,69.706c-0.422-0.058-0.547-0.413-0.48-0.96
		c1.25,0.194,4.966,0.048,6.48-0.48c0.058,0.938-0.892,0.869-1.44,1.2c-0.208-0.191-1.816,0.252-2.4,0.48c-0.08,0-0.16,0-0.24,0
		c-0.065,0.094-2.324-0.968-1.92-0.48C36.053,69.546,36.053,69.626,36.053,69.706z"/>
	<path fill-rule="evenodd" clip-rule="evenodd" fill="#734931" d="M36.053,69.706c0-0.08,0-0.16,0-0.24
		c-0.404-0.487,1.855,0.574,1.92,0.48C37.54,70.352,36.761,69.747,36.053,69.706z"/>
	<path fill-rule="evenodd" clip-rule="evenodd" fill="#734931" d="M38.213,69.946c0.584-0.229,2.192-0.672,2.4-0.48
		C40.068,69.881,39.272,70.045,38.213,69.946z"/>
	<path fill-rule="evenodd" clip-rule="evenodd" fill="#6C92A7" d="M67.016,69.226c0.467,0.587-0.614,1.163-0.72,1.921
		c-4.079,1.424-6.008,4.701-9.361,5.76c0.938-1.861,2.25-4.087,4.56-3.84c0.636-0.325,0.575-1.346,0.96-1.92
		C64.379,70.832,64.756,68.506,67.016,69.226z M59.575,74.746c-0.146-0.014-0.284-0.035-0.24-0.24
		c-0.014-0.146-0.035-0.283-0.24-0.239c-0.147,0.352-1.409,1.539-0.239,1.68C58.601,75.052,59.36,75.172,59.575,74.746z"/>
	<path fill-rule="evenodd" clip-rule="evenodd" fill="#6C92A7" d="M55.255,76.427c0.387,0.332,1.237,0.202,1.44,0.72
		c-2.19,2.851-6.419,3.662-9.121,6.001c-0.783-0.434-0.063-0.881-0.24-1.921c1.085-0.223,1.724-0.668,1.68-1.439
		C51.439,79.949,54.327,78.556,55.255,76.427z"/>
	<path fill-rule="evenodd" clip-rule="evenodd" fill="#6C92A7" d="M61.256,76.187c0.708-0.708,0.435-0.972,0.96-1.681
		c1.217,0.178,1.484-0.595,2.16-0.96c-0.779,1.47-2.605,1.121-2.881,2.641C61.415,76.187,61.335,76.187,61.256,76.187z"/>
	<path fill-rule="evenodd" clip-rule="evenodd" fill="#88A6B4" d="M64.376,73.546c0.74-0.229,1.381-1.807,1.92-1.439
		c-0.442,1.629-0.672,4.293-0.24,5.76c-5.335,3.226-10.836,6.286-15.361,10.321c-0.565-1.435-0.97-3.03-2.4-3.601
		c2.325-3.212,7.577-3.607,9.361-6.721c1.086,0.024,2.163-0.28,2.4-1.68c0.399,0,0.8,0,1.2,0c0.079,0,0.159,0,0.239,0
		C61.771,74.667,63.597,75.016,64.376,73.546z"/>
	<path fill-rule="evenodd" clip-rule="evenodd" fill="#6C92A7" d="M43.254,86.987c-1.331-0.587-4.608-3.542-2.88-4.08
		C39.248,84.078,42.157,85.837,43.254,86.987z"/>
	<path fill-rule="evenodd" clip-rule="evenodd" fill="#734931" d="M44.694,88.428c-0.637-1.363,0.176-3.341,2.16-2.881
		c-0.15,0.57-1.477-0.037-1.68,0.48C44.865,86.678,44.586,87.36,44.694,88.428z"/>
	<path fill-rule="evenodd" clip-rule="evenodd" fill="#734931" d="M47.574,85.547c1.263,0.097,1.433,1.288,1.92,2.16
		c-0.006,0.233-0.293,0.187-0.48,0.24C49.086,86.596,48.185,86.217,47.574,85.547z"/>
	<path fill-rule="evenodd" clip-rule="evenodd" fill="#6C92A7" d="M44.214,100.188c-0.389,1.104,0.181,1.433,0.48,2.4
		C43.861,102.239,43.553,100.743,44.214,100.188z"/>
	<path fill-rule="evenodd" clip-rule="evenodd" fill="#88A6B4" d="M82.617,91.788c1.495-0.08,1.521-2.334,1.2-2.881
		c0.448-0.191,0.879-0.4,1.44-0.479c1.728,1.472,3.907,2.493,5.521,4.08c-6.266,2.825-11.032,6.799-16.082,11.281
		c-3.682,3.268-7.935,5.627-10.32,9.601c-0.32,0-0.641,0-0.96,0c3.029-4.491,7.268-7.773,11.761-10.801
		c0.095-0.413-0.356-0.615,0-0.72c1.797-0.15,3.105-2.795,5.04-3.601c-0.031-0.592-0.036-1.156,0.24-1.44
		c0.343,0.058,0.405,0.396,0.72,0.48c0.417-0.852,0.773-1.392,1.921-0.96c0.229-1.153-0.973-1.576,0-2.16
		c0.949,0.09-0.372,1.275,0.96,1.199c0.332-1.3,0.16-1.411,0.24-2.16c1.144-0.264,0.33,1.431,1.199,1.44
		c0.344-1.02,0.577-1.059,1.44-1.2c0.179-0.738-0.659-0.461-0.479-1.2c0.627-0.066,1.201-0.081,0.96,0.721
		c0.73-0.069,1.638,0.038,1.68-0.721c-1.485,0.02-2.547-2.176-4.32-2.64c0.713,1.206,0.067,1.218-0.479,2.16
		c0.344,0.376,1.251,0.188,1.199,0.96C84.425,91.573,83.345,93.074,82.617,91.788z"/>
	<path fill-rule="evenodd" clip-rule="evenodd" fill="#88A6B4" d="M70.616,99.948c1.611-0.548,4.185-0.136,4.561-1.92
		c0.947,1.123-1.593,3.352-3.36,2.641c-0.063,4.604-3.921,2.19-5.521,4.56c-0.345-0.295-0.455-0.825-0.48-1.439
		c1.681-0.72,4.554-0.247,5.041-2.16C71.322,101.166,70.604,100.663,70.616,99.948z"/>
	<path fill-rule="evenodd" clip-rule="evenodd" fill="#6C92A7" d="M69.656,91.788c0.723-0.938,0.662,0.919,1.68,0.479
		C70.716,93.589,70.495,91.69,69.656,91.788z"/>
	<path fill-rule="evenodd" clip-rule="evenodd" fill="#6C92A7" d="M67.736,92.268c0.539,0.261,0.091,1.509,1.2,1.2
		c0.031,0.592,0.036,1.156-0.24,1.44c-0.214-0.147-0.43-0.29-0.48,0C68.625,94.181,67.231,93.032,67.736,92.268z"/>
	<path fill-rule="evenodd" clip-rule="evenodd" fill="#6C92A7" d="M58.375,95.628c0.611,0.029,0.931,0.35,0.96,0.96
		c-0.393,0.487-1.071,0.688-0.96,1.681c-1.183-0.539-0.002-1.809,0.72-1.92C59.19,95.773,58.002,96.481,58.375,95.628z"/>
	<path fill-rule="evenodd" clip-rule="evenodd" fill="#6C92A7" d="M62.455,97.548c0.105-0.355,0.308,0.095,0.721,0
		c0.18-0.819-0.976-0.305-0.721-1.199c1.427-0.228,0.924,1.477,2.641,0.96c-0.127,0.192-0.25,0.39-0.24,0.72
		c-0.7-0.213-0.828-0.307-1.2,0.24c0.059,0.422,0.413,0.547,0.96,0.479c-0.398,0.481-0.645,1.116-1.439,1.2
		c0.638-0.432,0.718-1.825-0.48-1.68C62.716,97.928,62.735,97.589,62.455,97.548z"/>
	<path fill-rule="evenodd" clip-rule="evenodd" fill="#6C92A7" d="M53.095,96.588c0.301,0.096-0.421,1.394,0.96,0.96
		c-0.957,0.461-0.047,1.36-0.96,1.681C53.649,98.177,52.056,97.543,53.095,96.588z"/>
	<path fill-rule="evenodd" clip-rule="evenodd" fill="#88A6B4" d="M21.412,103.068c0.004,0.396,0.665,0.135,0.72,0.48
		c0.288,1.817-0.046,2.922,2.16,3.601c-0.754,0.334,0.33,1.185-0.24,1.439c0.711,0.569,1.359,1.202,2.16,1.681
		c-0.53,1.51,1.423,1.907,1.44,3.12c-0.4,0-0.8,0-1.2,0c0.169-0.597-1.026-1.017-1.2-0.48c0.233,0.007,0.186,0.294,0.24,0.48
		c-0.16,0-0.32,0-0.48,0c-1.182-0.885,0.87-2.064-0.72-2.4c0.179,0.979-0.773,0.827-0.48,1.92c0.214,0.106,0.429,0.211,0.48,0.48
		c-2.16,0-4.32,0-6.48,0c0.794-0.561-1.426-2.005-1.68-0.72c0.021,0.375,1.431-0.46,1.2,0.72c-1.36,0-2.72,0-4.081,0
		c1.159-5.082,2.582-9.9,5.521-13.201c0.098,0.604,0.821,1.103,1.2,0.72C20.363,101.717,20.332,102.949,21.412,103.068z
		 M19.492,108.829c0.006-0.886-0.107-1.652-0.96-1.68C18.709,107.852,19.112,108.329,19.492,108.829z M21.172,109.789
		c0.447-0.032,0.802-0.157,0.96-0.479c-0.342-0.058-0.405-0.396-0.72-0.48C21.336,109.154,21.07,109.288,21.172,109.789z
		 M17.572,111.71c0.731-1.043,1.56,0.436,1.92-0.48c-0.53-0.67-1.593-0.807-2.16-1.44C17.279,110.563,17.756,110.805,17.572,111.71z
		 M15.892,111.71c1.032,0.169,0.781-1.249,0.24-1.44C16.051,111.119,15.471,110.859,15.892,111.71z M22.372,111.949
		c0.989-0.021,0.707-1.292,0.24-1.68C22.805,111.102,22.254,111.192,22.372,111.949z M21.652,111.71c0.074-0.955-0.461-1.3-1.44-1.2
		C20.273,111.328,20.725,111.756,21.652,111.71z"/>
	<path fill-rule="evenodd" clip-rule="evenodd" fill="#6C92A7" d="M99.659,110.749c0.297,0.76,0.567,1.689,0.239,1.921
		C99.556,112.434,99.035,111.159,99.659,110.749z"/>
	<path fill-rule="evenodd" clip-rule="evenodd" fill="#88A6B4" d="M57.415,111.71c-0.14-1.507,2.691-1.102,3.841-1.681
		C62.502,111.252,58.558,111.291,57.415,111.71z"/>
	<path fill-rule="evenodd" clip-rule="evenodd" fill="#D5BA74" d="M40.614,45.464c-1.853,0.09-4.584,0.688-6-0.24
		c-0.083-2.083,1.014-2.986,1.68-4.32C39.635,39.631,40.327,42.9,40.614,45.464z"/>
	<path fill-rule="evenodd" clip-rule="evenodd" fill="#FFFFFF" d="M43.974,48.584c0-0.56,0-1.12,0-1.68c0.24,0,0.48,0,0.72,0
		c0.007,0.233,0.294,0.187,0.48,0.24C44.426,47.276,45.032,48.763,43.974,48.584z"/>
	<path fill-rule="evenodd" clip-rule="evenodd" fill="#FFFFFF" d="M47.334,49.064c1.854,0.254,1.78-1.42,2.88-1.92
		c-0.356,1.964-0.52,4.12-2.16,4.8c0.021-1.259,1.124-1.436,1.2-2.64c-0.27-0.508-1.633,0.714-2.16,0
		C47.108,49.158,47.13,49.02,47.334,49.064z"/>
	<path fill-rule="evenodd" clip-rule="evenodd" fill="#FFFFFF" d="M40.374,48.344c0.036,0.916-0.604,1.156-0.72,1.92
		c-1.115-0.049-0.091-1.323-0.24-1.92C39.489,48.07,40.551,47.427,40.374,48.344z"/>
	<path fill-rule="evenodd" clip-rule="evenodd" fill="#FFFFFF" d="M48.054,51.944c0,0.08,0,0.16,0,0.24
		c-0.778,0.603-2.026,0.071-2.64-0.24c0-0.08,0-0.16,0-0.24c0.457-0.45,0.603-0.026,1.2,0c0.359-0.356,0.022-1.241-0.72-1.2
		c0.021,0.34,0.04,0.68-0.24,0.72c-0.315-0.084-0.377-0.422-0.72-0.48c-0.614-0.426-0.539-1.542-0.96-2.16
		c1.058,0.179,0.452-1.308,1.2-1.44c1.047-0.167-0.056,1.816,1.2,1.44c0.147,0.333,0.924,0.036,0.96,0.48
		c-0.204-0.044-0.226,0.094-0.24,0.24c0.527,0.714,1.891-0.508,2.16,0C49.178,50.508,48.075,50.685,48.054,51.944z"/>
	<path fill-rule="evenodd" clip-rule="evenodd" fill="#6C92A7" d="M45.894,84.587c-0.747-0.053-0.406-1.194-0.48-1.92
		c0.342,0.094,0.405,0.288,0.72,0C46.03,83.313,45.233,83.897,45.894,84.587z"/>
	<path fill-rule="evenodd" clip-rule="evenodd" fill="#88A6B4" d="M75.177,110.749c0-0.479,0-0.96,0-1.439
		c1.715-0.487,3.561,0.112,4.561-0.96c0.75,1.652-2.036,1.354-3.601,1.439C75.778,110.071,75.854,110.787,75.177,110.749z"/>
	<path fill-rule="evenodd" clip-rule="evenodd" fill="#88A6B4" d="M49.014,110.27c-0.408-0.404,0.14-1.079,0.48-1.44
		c0.27,0.024,0.374-0.349,0.48,0c-0.561,0.856,0.054,1.462-0.72,1.92C49.255,110.509,49.06,110.464,49.014,110.27z"/>
	<path fill-rule="evenodd" clip-rule="evenodd" fill="#88A6B4" d="M99.898,112.67c-0.01,0.33,0.113,0.526,0.24,0.72
		c-0.24,0-0.479,0-0.72,0c-0.246-1.499-0.508-2.812-0.48-3.84c0.554-0.074,0.267,0.693,0.721,0.72c0,0.16,0,0.32,0,0.479
		C99.035,111.159,99.556,112.434,99.898,112.67z"/>
	<path fill-rule="evenodd" clip-rule="evenodd" fill="#88A6B4" d="M43.254,86.987c-1.097-1.15-4.006-2.909-2.88-4.08
		c0.675-0.175,2.69,0.117,4.081,0C44.799,84.853,44.271,85.893,43.254,86.987z"/>
	<path fill-rule="evenodd" clip-rule="evenodd" fill="#88A6B4" d="M43.734,113.39c-4.36-6.996-9.454-14.339-14.401-21.842
		c3.358-1.955,7.363-4.435,10.801-5.521c2.387,1.258,3.107,3.259,4.56,5.04c-1.212,1.493-1.149,3.47-0.24,5.521
		c-0.994,0.35-0.351,2.156,0.24,2.4c0.206,0.766-0.377,0.742-0.48,1.2c-0.661,0.555-0.353,2.051,0.48,2.4
		c0.095,4.236-1.087,6.439,0,10.801C44.374,113.39,44.054,113.39,43.734,113.39z M40.614,104.269c0.33-0.01,0.527,0.113,0.72,0.24
		c0.479-0.912-0.576-0.911,0-1.92C39.958,102.544,41.306,103.73,40.614,104.269z M38.693,104.509c1.114,0.29,1.153-0.954,0.24-0.96
		C38.858,103.873,38.592,104.007,38.693,104.509z M41.333,106.429c0.125-0.354,0.355-0.604,0.48-0.96
		c-0.897,0.478-1.792-0.526-1.92,0.721c1.309-0.261,1.233,1.005,0.96,1.68c1.252,0.188,1.177,1.704,2.16,2.16
		c0.215-0.505,0.373-1.067,0.72-1.44c-0.28-0.359-0.693-0.587-0.72-1.199c1.093-0.981,0.515-3,0-3.841
		C42.601,104.646,43.505,106.654,41.333,106.429z"/>
	<path fill-rule="evenodd" clip-rule="evenodd" fill="#88A6B4" d="M75.177,97.788c-0.521,0.041-0.109-0.851-0.24-1.2
		c1.986-0.653,5.172-0.108,5.28-2.64c-0.068-0.812-0.747-1.014-0.96-1.681c0.52,0.344,1.746-0.208,2.641-0.239
		c0.523-0.044,0.764,0.196,0.72,0.72c-0.961-0.001-1.794,0.126-1.68,1.2c0.73,0.067,0.933-0.77,1.439-0.24
		c-0.325,0.555-0.965,0.795-0.72,1.92c-0.909-0.338-1.515,1.459-3.12,1.2c-0.533,0.661,1.214,1.222-0.24,1.681
		c-0.201-0.279-0.316-0.644-0.24-1.2C77.104,96.857,75.74,97.152,75.177,97.788z"/>
	<path fill-rule="evenodd" clip-rule="evenodd" fill="#88A6B4" d="M24.292,94.428c0.579,0.099,0.522-0.438,1.2-0.239
		c-0.891,2.067,0.58,3.481,2.4,3.6c-0.738,1.846,0.361,3.133,1.92,3.841c-0.708,1.504,0.823,3.444,2.88,3.6
		c-0.443,0.632-0.569,0.91-0.24,1.681c-0.383,0.169,0.201,1.38,0.72,1.44c0-0.08,0-0.16,0-0.24c0.457,0.103,0.603,0.517,1.2,0.479
		c0.333,1.428,0.775,2.745,2.16,3.121c-0.315,0.744,0.065,0.685,0,1.68c-0.4,0-0.8,0-1.2,0c-0.91-0.931-1.209-2.471-2.4-3.12
		c-3.23-4.05-6.144-8.417-9.121-12.722c0.443-0.459-1.049-1.019-1.2-1.68C23.052,95.269,24.057,95.233,24.292,94.428z"/>
	<path fill-rule="evenodd" clip-rule="evenodd" fill="#88A6B4" d="M92.458,95.628c0-0.16,0-0.319,0-0.479
		c2.752-0.584,3.761,2.576,4.801,4.8c0.268,0.752-0.24,1.326,0.72,1.681c0.838,2.043,1.313,4.447,1.44,7.2
		c-1.654-0.599-1.179-4.913-2.4-7.921c-0.758-1.864-2.298-3.292-2.88-5.04c-0.739-0.179-0.462,0.659-1.2,0.48
		C93.282,95.997,93.122,95.588,92.458,95.628z"/>
	<path fill-rule="evenodd" clip-rule="evenodd" fill="#88A6B4" d="M88.618,99.948c-0.104-0.377-0.755-0.205-0.48-0.96
		c1.563-0.196,3.137-0.384,4.561-0.72c2.123,0.355-1.547,1.444-3.12,1.2c-0.666,0.358,0.416,0.981-0.24,1.2
		C88.992,100.534,88.752,100.294,88.618,99.948z"/>
	<path fill-rule="evenodd" clip-rule="evenodd" fill="#6C92A7" d="M43.014,103.549c0.515,0.841,1.093,2.859,0,3.841
		c0.027,0.612,0.44,0.84,0.72,1.199c-0.347,0.373-0.505,0.936-0.72,1.44c-0.983-0.456-0.908-1.972-2.16-2.16
		c0.273-0.675,0.349-1.94-0.96-1.68c0.128-1.247,1.022-0.243,1.92-0.721c-0.125,0.355-0.355,0.605-0.48,0.96
		C43.505,106.654,42.601,104.646,43.014,103.549z"/>
	<path fill-rule="evenodd" clip-rule="evenodd" fill="#88A6B4" d="M71.336,113.149c0.188-1.927,2.169-0.571,3.36-1.439
		C74.917,113.16,72.419,112.466,71.336,113.149z"/>
	<path fill-rule="evenodd" clip-rule="evenodd" fill="#2E312B" d="M42.054,35.863c-1.718-0.042-3.152,0.382-5.041,0.72
		C36.852,34.629,41.76,33.67,42.054,35.863z"/>
	<path fill-rule="evenodd" clip-rule="evenodd" fill="#2E312B" d="M50.935,36.343c-1.71,0.639-3.062-0.979-5.041-0.24
		c0.039-0.279-0.053-0.427-0.24-0.48C46.571,33.885,50.546,34.692,50.935,36.343z"/>
	<path fill-rule="evenodd" clip-rule="evenodd" fill="#2E312B" d="M46.854,40.664c-0.32,0-0.64,0-0.96,0
		C45.366,39.352,47.382,39.352,46.854,40.664z"/>
	<path fill-rule="evenodd" clip-rule="evenodd" fill="#2E312B" d="M64.615,56.745c1.515,1.978-1.785,3.666-2.64,1.44
		C62.012,56.84,63.357,56.142,64.615,56.745z"/>
</g>
</svg>
