<?xml version="1.0" encoding="utf-8"?>
<!-- Generator: Adobe Illustrator 15.1.0, SVG Export Plug-In . SVG Version: 6.00 Build 0)  -->
<!DOCTYPE svg PUBLIC "-//W3C//DTD SVG 1.1//EN" "http://www.w3.org/Graphics/SVG/1.1/DTD/svg11.dtd">
<svg version="1.1" id="Ebene_1" xmlns="http://www.w3.org/2000/svg" xmlns:xlink="http://www.w3.org/1999/xlink" x="0px" y="0px"
	 width="113.39px" height="113.39px" viewBox="0 0 113.39 113.39" enable-background="new 0 0 113.39 113.39" xml:space="preserve">
<g>
	<path fill-rule="evenodd" clip-rule="evenodd" fill="#FEFDFE" d="M79.856,13.061c0.184,0.983-0.773,0.826-1.439,0.96
		C78.233,13.038,79.19,13.194,79.856,13.061z"/>
	<path fill-rule="evenodd" clip-rule="evenodd" fill="#CAB278" d="M66.656,25.782c-0.492,1.508-1.097,2.904-2.881,3.12
		c0.395-1.206,0.599-2.602,1.2-3.601C65.854,25.144,65.896,25.821,66.656,25.782z"/>
	<path fill-rule="evenodd" clip-rule="evenodd" fill="#FEFDFE" d="M77.696,43.063c0.184,0.983-0.773,0.827-1.439,0.96
		C76.073,43.04,77.03,43.197,77.696,43.063z"/>
	<path fill-rule="evenodd" clip-rule="evenodd" fill="#FEFDFE" d="M78.657,43.063c0.703,0.017,1.353,0.087,1.199,0.96
		C79.154,44.007,78.504,43.937,78.657,43.063z"/>
	<path fill-rule="evenodd" clip-rule="evenodd" fill="#333731" d="M66.416,49.304c0.319,0,0.64,0,0.96,0
		c-0.617,1.358-0.867,1.657-1.2,3.12C64.439,51.735,66.532,50.541,66.416,49.304z"/>
	<path fill-rule="evenodd" clip-rule="evenodd" fill="#333731" d="M69.296,50.984c0.315,0.084,0.378,0.422,0.72,0.48
		c-0.023,0.611-0.894,0.567-1.199,0.24C68.9,51.389,69.238,51.327,69.296,50.984z"/>
	<path fill-rule="evenodd" clip-rule="evenodd" fill="#FEFDFE" d="M15.771,56.985c0.703,0.017,1.353,0.087,1.2,0.96
		C16.269,57.928,15.618,57.858,15.771,56.985z"/>
	<path fill-rule="evenodd" clip-rule="evenodd" fill="#FEFDFE" d="M68.336,66.105c0.055,0.854-0.345,1.255-1.2,1.2
		C67.081,66.451,67.481,66.051,68.336,66.105z"/>
	<path fill-rule="evenodd" clip-rule="evenodd" fill="#CAB278" d="M64.735,67.306c0.24,0,0.48,0,0.721,0c0,0.48,0,0.96,0,1.44
		C65.151,68.33,64.645,68.117,64.735,67.306z"/>
	<path fill-rule="evenodd" clip-rule="evenodd" fill="#333731" d="M56.335,68.506c2.187,1.382-1.423,1.398-0.72,2.88
		C53.763,70.741,55.897,69.118,56.335,68.506z"/>
	<path fill-rule="evenodd" clip-rule="evenodd" fill="#333731" d="M34.493,72.106C32.066,72.344,34.521,69.889,34.493,72.106
		L34.493,72.106z"/>
	<path fill-rule="evenodd" clip-rule="evenodd" fill="#333731" d="M36.653,71.386c0.266,0.454,0.306,1.134,0.48,1.681
		c0.929,0.129,0.988-0.612,1.68-0.721c0.59,0.37,1.631,0.289,1.68,1.2c-1.118,0.336-2.179-0.117-3.36,0.48
		c-0.867-0.233-1.829-1.049-0.96-1.681c-0.349-0.131-1.241,0.281-1.2-0.239C34.955,71.288,35.862,71.396,36.653,71.386z"/>
	<path fill-rule="evenodd" clip-rule="evenodd" fill="#333731" d="M41.213,72.346c0.315,0.085,0.378,0.423,0.72,0.48
		c-0.024,0.61-0.895,0.567-1.2,0.24C40.818,72.751,41.156,72.688,41.213,72.346z"/>
	<path fill-rule="evenodd" clip-rule="evenodd" fill="#333731" d="M43.614,73.066c0.168,0.831-0.841,0.86-1.2,0.479
		C42.588,73.059,43.136,72.566,43.614,73.066z"/>
	<path fill-rule="evenodd" clip-rule="evenodd" fill="#333731" d="M28.732,79.307c-0.851-0.895-2.06-3.351,0.24-3.601
		c-0.563,1.457-0.016,2.771,1.2,3.12c-0.004,0.717-0.625,0.816-0.72,1.44c0.157,1.203,1.469,1.251,2.16,1.92
		c-0.24,0.32-0.396,0.725-0.72,0.961c0.168,1.271,1.166,1.714,2.4,1.92c-0.041,1.122-0.618,0.797-0.24,1.92
		c0.521,0.839,2.116,0.604,2.16,1.92c-1.825-0.392-3.5-0.365-3.6-2.88c-0.98-0.516-2.215-1.869-1.68-3.12
		C29.662,82.372,27.273,80.995,28.732,79.307z"/>
	<path fill-rule="evenodd" clip-rule="evenodd" fill="#333731" d="M33.293,80.507c-0.16,1.12,0.866,1.055,1.2,1.68
		c-1.125,0.796-2.354-0.359-2.4-1.439C32.372,80.545,32.736,80.431,33.293,80.507z"/>
	<path fill-rule="evenodd" clip-rule="evenodd" fill="#5F8B9A" d="M65.936,87.228c0.718,0.643,1.631,1.09,1.92,2.16
		c-0.388,1.132-1.372,1.667-2.16,2.4c-1.171-0.27-1.244-1.636-2.16-2.16C64.293,88.785,65.322,88.215,65.936,87.228z"/>
	<path fill-rule="evenodd" clip-rule="evenodd" fill="#5F8B9A" d="M70.016,88.428c1.559,0.762,2.334,2.307,3.841,3.12
		c0.436,0.555-0.495,1.282-1.2,1.44C72.032,91.344,69.225,90.696,70.016,88.428z"/>
	<path fill-rule="evenodd" clip-rule="evenodd" fill="#333731" d="M47.694,90.588c-0.524,0.043-0.764-0.196-0.72-0.721
		c1.376,0.417,0.905-1.015,1.92-0.96C49.485,89.674,48.707,90.675,47.694,90.588z"/>
	<path fill-rule="evenodd" clip-rule="evenodd" fill="#5F8B9A" d="M58.255,93.468c1.4,0.76,2.205,2.116,3.36,3.12
		c-0.597,1.163-1.453,2.067-2.16,3.12c-1.138-1.262-2.36-2.44-3.36-3.84C56.634,94.887,57.396,94.129,58.255,93.468z"/>
	<path fill-rule="evenodd" clip-rule="evenodd" fill="#5F8B9A" d="M66.176,93.708c0.539,1.631-0.835,3.287-0.96,5.04
		C62.189,97.479,63.654,94.79,66.176,93.708z"/>
	<path fill-rule="evenodd" clip-rule="evenodd" fill="#5F8B9A" d="M44.574,94.668c1.186,0.895,1.968,2.192,3.121,3.12
		c-0.913,0.688-1.845,1.355-2.4,2.4C43.23,99.717,42.688,95.811,44.574,94.668z"/>
	<path fill-rule="evenodd" clip-rule="evenodd" fill="#5F8B9A" d="M72.896,94.908c0.214,0.106,0.429,0.211,0.479,0.479
		c-0.628,0.972-0.758,2.443-1.92,2.881c0.179-0.739-0.659-0.462-0.479-1.2C71.854,96.585,71.993,95.365,72.896,94.908z"/>
	<path fill-rule="evenodd" clip-rule="evenodd" fill="#5F8B9A" d="M67.136,95.628c1.322-0.042,1.432,1.129,2.16,1.681
		c-0.78,1.299-1.392,2.769-2.88,3.36C65.623,99.208,67.443,96.966,67.136,95.628z"/>
	<path fill-rule="evenodd" clip-rule="evenodd" fill="#5F8B9A" d="M81.057,96.108c1.413,0.907,2.488,2.152,3.601,3.36
		c-0.651,1.188-1.771,1.908-2.4,3.12c-1.213-0.708-2.043-1.797-2.88-2.881C80.252,98.361,80.362,97.687,81.057,96.108z"/>
	<path fill-rule="evenodd" clip-rule="evenodd" fill="#5F8B9A" d="M34.973,98.509c-1.162,0.918-1.497,2.663-2.64,3.6
		c-0.273-0.123-3.195-2.227-3.121-2.88C29.372,97.837,34.12,96.491,34.973,98.509z"/>
	<path fill-rule="evenodd" clip-rule="evenodd" fill="#5F8B9A" d="M87.537,97.309c2.272,1.918,6.363,4.748,2.161,6.72
		c-0.508-1.525-2.844-2.392-2.4-4.08c-0.306-0.612-1.176,0.223-1.2-0.24C86.13,98.461,87.231,98.282,87.537,97.309z"/>
	<path fill-rule="evenodd" clip-rule="evenodd" fill="#5F8B9A" d="M27.772,98.748c-0.219,0.985-1.452,3.025-2.88,3.601
		c-0.428-0.452-0.649-1.111-1.2-1.44C24.582,99.718,26.296,99.352,27.772,98.748z"/>
	<path fill-rule="evenodd" clip-rule="evenodd" fill="#5F8B9A" d="M94.019,100.429c1.603,0.64,2.525,3.231,2.64,4.561
		c-1.152-1.008-2.099-2.223-3.36-3.121C93.302,101.152,93.922,101.053,94.019,100.429z"/>
	<path fill-rule="evenodd" clip-rule="evenodd" fill="#5F8B9A" d="M59.455,101.389c1.586,1.485,5.521,3.951,1.92,5.28
		c-0.723-2.204-1.558-2.884-2.399-5.04C59.254,101.668,59.402,101.575,59.455,101.389z"/>
	<path fill-rule="evenodd" clip-rule="evenodd" fill="#5F8B9A" d="M47.694,104.749c-0.648,1.192-1.783,1.897-2.4,3.12
		c-0.636-1.083-2.571-1.415-2.64-2.4c-0.073-1.035,2.068-1.806,2.4-3.12C46.565,102.518,46.562,104.201,47.694,104.749z"/>
	<path fill-rule="evenodd" clip-rule="evenodd" fill="#5F8B9A" d="M68.096,107.629c-1.547,0.607-1.914-1.883-3.36-2.16
		c0.257-1.344,1.277-1.924,1.921-2.88C69.358,103.051,68.482,106.08,68.096,107.629z"/>
	<path fill-rule="evenodd" clip-rule="evenodd" fill="#5F8B9A" d="M57.775,103.068c1.08,1.643,2.762,3.286,2.64,5.761
		c-1.687-0.873-2.576-2.544-4.08-3.601C56.731,104.425,57.416,103.909,57.775,103.068z"/>
	<path fill-rule="evenodd" clip-rule="evenodd" fill="#5F8B9A" d="M53.935,104.028c0.423,0.218,0.743,0.537,0.96,0.961
		c-0.769,1.212-1.973,4.247-3.36,2.64C52.039,106.133,53.059,105.153,53.935,104.028z"/>
	<path fill-rule="evenodd" clip-rule="evenodd" fill="#5F8B9A" d="M25.132,104.269c1.039,0.882,1.712,2.129,2.88,2.881
		c-0.453,1.307-1.497,2.023-2.16,3.12c-1.382-0.458-1.829-1.852-2.88-2.641C22.85,106.567,24.512,105.372,25.132,104.269z"/>
	<path fill-rule="evenodd" clip-rule="evenodd" fill="#5F8B9A" d="M40.014,104.269c0.558,0.163,0.642,0.798,1.2,0.96
		c-0.81,1.431-1.533,2.947-3.12,3.601c-0.094-0.731,0.631-1.222-0.24-1.44C38.897,106.673,39.27,105.285,40.014,104.269z"/>
	<path fill-rule="evenodd" clip-rule="evenodd" fill="#5F8B9A" d="M82.257,104.509c2.26,0.766,1.953,4.167,1.44,6.001
		c-1.392-0.849-2.156-2.324-3.601-3.121C80.496,106.108,81.392,105.323,82.257,104.509z"/>
	<path fill-rule="evenodd" clip-rule="evenodd" fill="#5F8B9A" d="M30.893,105.229c0.214,0.106,0.429,0.211,0.48,0.48
		c-0.362,1.132-0.745,1.613-0.72,2.641c-0.477-0.164-0.549-0.731-0.96-0.961C29.831,106.407,30.798,106.254,30.893,105.229z"/>
	<path fill-rule="evenodd" clip-rule="evenodd" fill="#5F8B9A" d="M90.178,105.469c1.253,1.228,2.061,2.899,3.601,3.841
		c-0.304,1.457-1.493,2.027-2.16,3.12c-0.949-1.18-3.973-2.383-4.081-3.601C87.463,107.986,89.852,106.346,90.178,105.469z"/>
	<path fill-rule="evenodd" clip-rule="evenodd" fill="#5F8B9A" d="M20.092,105.709c0,0.959,0.877,1.043,1.2,1.68
		c-0.684,0.757-1.056,1.825-1.92,2.4C16.731,109.33,17.587,105.959,20.092,105.709z"/>
	<path fill-rule="evenodd" clip-rule="evenodd" fill="#5F8B9A" d="M76.977,105.709c0.92,0.04,1.052,0.868,1.681,1.2
		c-0.796,1.205-1.523,2.478-2.881,3.12c0.097-1.284,0.887-2.538,0.48-3.601C76.78,106.473,77.021,106.232,76.977,105.709z"/>
	<path fill-rule="evenodd" clip-rule="evenodd" fill="#5F8B9A" d="M96.658,107.629c0.24,0,0.48,0,0.721,0
		c0.465,1.477,0.624,3.271,0.72,4.561c-1.186-0.575-1.723-1.798-2.641-2.641C95.631,108.682,96.766,108.776,96.658,107.629z"/>
	<path fill-rule="evenodd" clip-rule="evenodd" fill="#5F8B9A" d="M85.377,108.109c0.352,0.208,0.761,0.359,0.721,0.96
		c-0.994-0.063-0.319,0.932-0.721,0.96C84.543,109.977,85.488,108.434,85.377,108.109z"/>
	<path fill-rule="evenodd" clip-rule="evenodd" fill="#5F8B9A" d="M48.414,113.39c-1.92,0-3.84,0-5.76,0
		c-0.278-1.369,1.854-2.268,2.4-3.601c1.386,0.854,2.193,2.287,3.36,3.36C48.414,113.229,48.414,113.31,48.414,113.39z"/>
	<path fill-rule="evenodd" clip-rule="evenodd" fill="#5F8B9A" d="M55.375,113.39c-1.76,0-3.521,0-5.281,0
		c0.664-1.176,1.474-2.206,2.4-3.12C53.598,111.166,54.733,112.031,55.375,113.39z"/>
	<path fill-rule="evenodd" clip-rule="evenodd" fill="#5F8B9A" d="M40.733,113.39c-1.44,0-2.88,0-4.32,0
		c0.528-0.912,1.275-1.605,1.92-2.4c1.08,0.44,1.582,1.459,2.4,2.16C40.733,113.229,40.733,113.31,40.733,113.39z"/>
	<path fill-rule="evenodd" clip-rule="evenodd" fill="#5F8B9A" d="M62.575,113.39c-1.6,0-3.2,0-4.8,0
		c0.582-0.939,1.458-1.583,2.161-2.4c1.255,0.345,1.582,1.618,2.64,2.16C62.575,113.229,62.575,113.31,62.575,113.39z"/>
	<path fill-rule="evenodd" clip-rule="evenodd" fill="#5F8B9A" d="M20.572,113.39c-0.88,0-1.76,0-2.64,0
		c0.78-1.477,1.66-1.519,2.64-0.24C20.572,113.229,20.572,113.31,20.572,113.39z"/>
	<path fill-rule="evenodd" clip-rule="evenodd" fill="#5F8B9A" d="M77.217,113.39c-0.641,0-1.28,0-1.92,0
		c0.061-1.502,1.569-1.302,1.92-0.24C77.217,113.229,77.217,113.31,77.217,113.39z"/>
	<path fill-rule="evenodd" clip-rule="evenodd" fill="#5F8B9A" d="M26.572,113.39c-0.64,0-1.28,0-1.92,0
		c0.347-0.453,0.536-1.064,1.44-0.96c-0.013,0.413,0.185,0.615,0.48,0.72C26.572,113.229,26.572,113.31,26.572,113.39z"/>
	<path fill-rule="evenodd" clip-rule="evenodd" fill="#FEFDFE" d="M75.057,90.828c0.07-0.571,0.649,0.267,0.72,0.479
		c3.157-0.411,6.063-0.26,6.961,2.16c7.408,0.988,14.102,4.134,15.602,11.761c0.857-0.202-0.618-1.237,0.239-1.439
		c0.682,0.574,0.651,0.47,1.44,0.72c0.106,0.907-1.254,0.346-1.44,0.96c1.357,0.014-0.872,4.813,1.921,4.32c0,0.24,0,0.48,0,0.721
		c-0.214,0.186-0.542,0.258-0.96,0.239c0.116,1.004,0.377,1.863,0.72,2.641c-0.08,0-0.16,0-0.24,0
		c-1.116-2.08-0.952-4.586-1.44-6.721c-1.863-8.146-7.135-11.672-15.841-13.201C81.754,90.533,77.246,92.194,75.057,90.828z"/>
	<path fill-rule="evenodd" clip-rule="evenodd" fill="#FEFDFE" d="M66.896,79.307c0.542,0.179,0.094,1.347,0.24,1.92
		c2.534,1.654,4.108,3.666,3.841,6.001c1.184,1.296,2.809,2.151,3.84,3.601c-1.357-1.123-2.628-2.333-4.08-3.36
		c0.19-2.156-0.979-4.829-3.841-5.761C66.896,80.907,66.896,80.106,66.896,79.307z"/>
	<path fill-rule="evenodd" clip-rule="evenodd" fill="#FEFDFE" d="M66.416,75.467c0.201-3.004-0.126-5.5,0.24-9.842
		c2.651,0.171,5.733-1.053,7.44-3.12c0.371-0.449,0.26-1.39,0.72-1.92c1.031-1.188,2.45-0.757,2.641-1.92
		c-0.008,0.048-0.085-1.295-0.24-0.96c0.67-1.441,2.885-2.303,2.88-4.08c-0.744-0.647-0.918,0.583-1.92,0
		c0.429-0.531,0.923-0.997,0.96-1.92c-0.085-0.315-0.423-0.377-0.479-0.72c-0.757-0.116-0.544,0.736-1.44,0.48
		c1.106-1.192,1.98-5.186-1.2-5.521c2.147-0.48,3.716,3.639,1.44,5.041c0.627,0.132,1.514-0.528,1.92,0.72
		c-0.007,1.104-0.814,1.214-0.24,1.92c-0.008-0.646,1.208-0.646,1.2,0c0.216,1.745-2.383,2.588-2.88,4.08
		c-0.098,0.292,0.439,1.138,0.239,1.44c-0.482,0.73-1.487,0.602-2.16,1.2c-0.617,0.551-0.66,1.464-1.199,2.16
		c-1.601,2.066-5.149,3.954-7.441,3.36C66.358,71.067,67.321,72.302,66.416,75.467z"/>
	<path fill-rule="evenodd" clip-rule="evenodd" fill="#FEFDFE" d="M71.937,13.061c2.141,0.821,5.352,3.38,6,5.76
		c-3.278,3.207-8.743,5.493-10.561,9.361c3.95-0.576,8.256,1.32,9.121,5.281c-0.469,2.086-0.772,3.201-1.44,5.28
		c-1.112,1.769-3.454,2.307-3.601,5.041c1.452,0.116,3.356,0.448,3.841,2.16c-0.955-1.023-1.995-2.211-3.841-1.68
		c-1.188-2.775,2.045-3.247,3.36-5.521c3.155-5.456-0.402-12.083-8.4-10.081c2.818-4.142,7.189-6.731,11.28-9.601
		C77.071,16.416,74.235,14.739,71.937,13.061z"/>
	<path fill-rule="evenodd" clip-rule="evenodd" fill="#FEFDFE" d="M58.735,17.861c1.788-0.417,3.85,0.629,4.32,2.4
		c0.458,1.724-0.696,3.826,0,4.8c2.364-2.117,1.351-7.37,0.96-11.281c1.934-3.289,4.744-2.061,7.681-0.72
		c-1.299-0.914-3.034,0-3.601-1.44c-0.281,0.359-0.997,0.283-0.96,0.96c-0.488-0.071-0.64-0.481-0.96-0.72
		c-0.841,0.439-1.407,1.153-1.92,1.92c0.475,3.9,1.208,8.182-0.721,11.761C61.608,23.516,64.24,17.272,58.735,17.861z"/>
	<path fill-rule="evenodd" clip-rule="evenodd" fill="#FEFDFE" d="M48.174,17.861c3.56,0.732,7.139,0.652,10.321,0
		C55.323,19.076,51.355,18.933,48.174,17.861z"/>
	<path fill-rule="evenodd" clip-rule="evenodd" fill="#FEFDFE" d="M34.733,62.985c-0.389,4.285-6.781,1.309-7.681,4.801
		c0.06,1.06,1.124,1.115,1.68,1.68c-0.45,2.606-4.243,3.095-3.36,6.24c-0.145,0.896-0.903,1.178-0.96,2.16
		c1.305,3.007,0.183,6.732,1.92,9.121c0.48,0,0.96,0,1.44,0c0.251,0.549,0.152,1.448,0.48,1.92c0.204,0.517,0.591,0.85,1.44,0.721
		c-0.309,2.036,2.319,2.016,2.641,4.08c1.61,0.524,4.134-0.606,5.28,0.24c-3.935,3.621-9.933,2.478-14.401,5.521
		c-4.091,2.785-8.072,10.075-9.361,13.921c-0.08,0-0.16,0-0.24,0c2.997-7.657,8.034-16.596,18.481-16.802
		c0.668-0.962,4.701-1.174,4.8-2.64c-0.996-0.254-3.265,0.395-4.56,0c-1.498-2.788-3.777-3.317-4.801-6.48
		c-0.777-0.343-1.808-0.433-2.4-0.961c-0.575-1.385,0.119-2.268,0.24-3.6c-0.09-0.79-1.276-0.484-1.2-1.44
		c0.476-0.755-0.405-1.475,0.72-1.68c-0.027-0.854-0.888-0.873-0.72-1.921c0.419-1.381,1.23-1.793,0.72-3.6
		c1.034-1.606,2.381-2.9,3.601-4.32c-0.561-1.319-1.725-0.865-1.68-2.4C26.903,64.457,34.479,66.681,34.733,62.985z"/>
	<path fill-rule="evenodd" clip-rule="evenodd" fill="#D2D4D0" d="M92.098,113.39c0.999-0.921,1.506-2.335,2.881-2.88
		c0.511,1.249,1.803,1.717,2.4,2.88C95.618,113.39,93.858,113.39,92.098,113.39z"/>
	<path fill-rule="evenodd" clip-rule="evenodd" fill="#D2D4D0" d="M78.657,113.39c-0.464-0.978-1.655-1.226-1.921-2.4
		c1.046-0.795,1.66-2.02,2.4-3.12c1.867,0.933,2.495,3.105,4.32,4.08c0.13,0.851-0.85,0.591-0.72,1.44
		C81.377,113.39,80.017,113.39,78.657,113.39z"/>
	<path fill-rule="evenodd" clip-rule="evenodd" fill="#5F8B9A" d="M63.296,109.31c0.369-0.831,0.556-1.844,0.96-2.641
		c0.446,0.033,0.802,0.158,0.96,0.48C63.682,106.271,64.298,108.931,63.296,109.31z"/>
	<path fill-rule="evenodd" clip-rule="evenodd" fill="#5F8B9A" d="M61.855,110.27c1.046,0.326,0.868-0.572,1.44-0.721
		c0.128,0.991-1.739,0.781-0.961,1.681c-0.295-0.104-0.492-0.308-0.479-0.72C61.855,110.43,61.855,110.35,61.855,110.27z"/>
	<path fill-rule="evenodd" clip-rule="evenodd" fill="#CAB278" d="M61.855,110.51c-0.463-0.287-1.311-0.822-0.72-1.44
		c0.615,0.024,0.386,0.895,0.72,1.2C61.855,110.35,61.855,110.43,61.855,110.51z"/>
	<path fill-rule="evenodd" clip-rule="evenodd" fill="#D2D4D0" d="M15.051,113.39c0.609-1.368,1.618-2.589,1.68-3.841
		c2.539,0.691,1.033,2.9-0.24,3.841C16.011,113.39,15.531,113.39,15.051,113.39z"/>
	<path fill-rule="evenodd" clip-rule="evenodd" fill="#CAB278" d="M45.534,51.224c0.194,0.046,0.239,0.241,0.48,0.24
		c-0.19,1.3,0.124,2.32-0.24,2.88c-0.194,0.045-0.239,0.241-0.48,0.24C45.396,53.487,45.659,52.549,45.534,51.224z"/>
	<path fill-rule="evenodd" clip-rule="evenodd" fill="#5F8B9A" d="M53.215,59.865c0.434-0.927,1.044-1.676,1.68-2.4
		C54.587,58.517,53.863,59.152,53.215,59.865z"/>
	<path fill-rule="evenodd" clip-rule="evenodd" fill="#5F8B9A" d="M35.453,66.586c-0.502-0.219-0.732-0.709-0.72-1.44
		c-0.315,0.085-0.377,0.423-0.72,0.479c0.208-0.351,0.359-0.761,0.96-0.72C34.832,65.767,35.252,66.066,35.453,66.586z"/>
	<path fill-rule="evenodd" clip-rule="evenodd" fill="#5F8B9A" d="M76.497,52.665c-1.377-0.462-0.333-2.062,0.239-2.641
		C76.543,50.963,75.439,51.841,76.497,52.665z"/>
	<path fill-rule="evenodd" clip-rule="evenodd" fill="#D2D4D0" d="M35.453,66.586c2.886,4.129,11.811,3.14,13.201-1.681
		c0.565,0.006,0.707-0.413,1.44-0.24c1.536,1.271,5.944,2.544,6.721,0.48c2.567-0.286,3.877-0.384,5.041-1.92
		c0.01-0.733-0.452-0.753-0.72-1.681c0.391-0.108,1.658-1.289,0.479-1.439c0.149-0.651,1.003-0.598,0.96-1.44
		c-0.084-0.796-0.719-1.042-1.2-1.44c0.166-0.794,0.824-1.096,1.44-1.44c0.444-0.423-0.062-0.743-0.48-0.96
		c0.326-0.714,1.084-0.997,1.681-1.44c-0.04-1-1.155-0.924-1.44-1.68c0.249-3.666,3.602-7.273,7.201-5.28
		c1.314-0.934,4.168-2.155,4.32,0.72c1.618-0.528,4.269,0.989,2.64,2.88c-0.572,0.579-1.616,2.178-0.239,2.641
		c0.733,0.174,0.705-0.415,1.439-0.24c-0.361,1.039-0.471,0.923-0.96,1.92c0.104,0.537,1.183,0.097,1.681,0.24
		c-0.409,1.191-1.572,1.628-2.4,2.4c-0.083,0.937,0.661,1.747-0.48,1.92c-0.872-7.005-8.631-6.648-10.801-0.721
		c-0.533,1.458,0.318,2.515-1.2,3.601c1.286,1.118-0.326,2.723,0.72,4.08c-0.115,0.925-1.153,0.927-1.439,1.681
		c0.838,1.198,2.582,3.13,0.72,4.32c0.107,0.613,0.337,1.104,0.72,1.439c-0.493,0.706-1.085,1.315-1.439,2.161
		c0.068,1.132,0.981,1.419,1.2,2.399c-0.013,1.428-1.08,1.801-1.681,2.641c-0.005,0.565,0.414,0.707,0.24,1.44
		c-0.83,0.887-1.454,0.705-2.4,1.2c1.693,1.021,0.806,3.809-1.439,3.6c-0.175,0.734,0.414,0.706,0.239,1.44
		c-0.604,0.916-2.632,0.408-3.36,1.2c1.146,2.432-1.552,3.615-3.121,3.36c-0.567,1.657-3.037,1.167-4.32,0.479
		c-0.854,0.187-1.202,0.879-1.68,1.44c-1.499,0.059-1.671-1.209-3.12-1.2c-1.115,0.005-1.188,1.052-1.92,1.44
		c-1.432-0.125-3.152-1.509-4.561-2.4c-1.539,0.908-2.446,0.426-4.081,0.24c-0.323-0.558-0.397-1.363-0.72-1.92
		c-0.708-0.383-0.972,0.234-1.68-0.48c0.079-0.562,0.288-0.991,0.48-1.44c-0.577-0.6-0.636-0.228-1.68-0.24
		c-0.014-2.71-1.871-2.474-3.36-3.359c0.417-1.012,0.408-1.301,0.96-2.4c-0.396-0.645-1.018-1.063-1.44-1.681
		c0.262-0.618,0.606-1.153,1.2-1.439c-0.343-0.537-0.771-0.99-1.2-1.44c-0.202-1.322,0.502-1.738,1.2-2.16
		c-0.946-1.632-0.836-2.892,1.68-3.12c0.174-0.771-0.473-1.429,0.72-1.921c0.979,1.043,2.415,0.559,3.84,0.721
		c-0.147-0.214-0.29-0.43,0-0.48c-0.366-0.754-1.84-0.399-2.88-0.479c0-0.721,0-1.44,0-2.16c-0.348-0.533-1.429-0.332-1.92-0.721
		c0.814-2.122,4.359-0.571,5.761-2.4c0.342-0.057,0.405-0.395,0.72-0.479C34.721,65.877,34.951,66.367,35.453,66.586z
		 M34.493,72.106C34.521,69.889,32.066,72.344,34.493,72.106L34.493,72.106z M34.973,72.106c-0.041,0.521,0.851,0.108,1.2,0.239
		c-0.869,0.632,0.093,1.447,0.96,1.681c1.181-0.598,2.242-0.145,3.36-0.48c-0.049-0.911-1.09-0.83-1.68-1.2
		c-0.692,0.108-0.751,0.85-1.68,0.721c-0.174-0.547-0.214-1.227-0.48-1.681C35.862,71.396,34.955,71.288,34.973,72.106z
		 M40.733,73.066c0.306,0.327,1.176,0.37,1.2-0.24c-0.342-0.058-0.405-0.396-0.72-0.48C41.156,72.688,40.818,72.751,40.733,73.066z
		 M57.535,68.746c1.248,0.368,0.222-1.538,1.68-0.96c-0.185-0.935,0.706-1.302,1.2-2.161c-0.058-0.422-0.413-0.547-0.96-0.479
		C58.65,66.181,58.128,67.498,57.535,68.746z M66.176,52.424c0.333-1.463,0.583-1.762,1.2-3.12c-0.32,0-0.641,0-0.96,0
		C66.532,50.541,64.439,51.735,66.176,52.424z M68.816,51.704c0.306,0.327,1.176,0.371,1.199-0.24
		c-0.342-0.058-0.404-0.396-0.72-0.48C69.238,51.327,68.9,51.389,68.816,51.704z M55.615,71.386c-0.703-1.481,2.907-1.498,0.72-2.88
		C55.897,69.118,53.763,70.741,55.615,71.386z M48.174,73.786c2.714,1.988,4.074-1.04,6.72-1.68c-1.229-2-3.059,0.908-4.32,1.199
		c-1.904-1.299-4.35,0.44-6.48-0.96c0.199,1.241,1.466,1.415,2.16,2.16C46.897,74.269,47.344,73.836,48.174,73.786z M42.414,73.546
		c0.359,0.381,1.369,0.352,1.2-0.479C43.136,72.566,42.588,73.059,42.414,73.546z M29.933,82.907c-0.535,1.251,0.7,2.604,1.68,3.12
		c0.1,2.515,1.775,2.488,3.6,2.88c-0.044-1.315-1.639-1.081-2.16-1.92c-0.377-1.123,0.199-0.798,0.24-1.92
		c-1.234-0.206-2.232-0.648-2.4-1.92c0.325-0.236,0.48-0.641,0.72-0.961c-0.691-0.669-2.003-0.717-2.16-1.92
		c0.096-0.624,0.716-0.724,0.72-1.44c-1.216-0.349-1.763-1.663-1.2-3.12c-2.3,0.25-1.091,2.706-0.24,3.601
		C27.244,80.502,28.618,82.444,29.933,82.907z M58.495,78.347c0.749,0.113,1.162-0.3,0.72-0.72c-2.604-0.198-1.104,4.193-3.12,5.28
		c0.68,0.505,1.869-0.086,2.4-0.48C58.426,80.561,59.394,79.832,58.495,78.347z M32.093,80.747c0.047,1.08,1.275,2.235,2.4,1.439
		c-0.334-0.625-1.36-0.56-1.2-1.68C32.736,80.431,32.372,80.545,32.093,80.747z M40.014,88.667c-0.599-0.201-1.286-0.313-2.16-0.239
		c-0.54-0.421-0.074-1.847-0.96-1.921c-0.874,0.174-0.41,1.829-0.24,2.4c1.893,0.139,3.92,3.782,5.521,1.2
		C40.757,90.324,40.135,89.746,40.014,88.667z M48.894,88.907c-1.015-0.055-0.543,1.377-1.92,0.96
		c-0.043,0.524,0.196,0.764,0.72,0.721c0.679,0.584,1.721-0.509,1.68-1.44C49.133,89.148,49.089,88.953,48.894,88.907z"/>
	<path fill-rule="evenodd" clip-rule="evenodd" fill="#333731" d="M59.455,65.146c0.547-0.067,0.902,0.058,0.96,0.479
		c-0.494,0.859-1.385,1.227-1.2,2.161c-1.458-0.578-0.432,1.328-1.68,0.96C58.128,67.498,58.65,66.181,59.455,65.146z"/>
	<path fill-rule="evenodd" clip-rule="evenodd" fill="#333731" d="M50.574,55.064c-1.439-1.597-0.846-5.286,0.48-6
		c2.529-1.361,3.43,4.522,1.92,5.761C51.827,55.044,51.458,55.497,50.574,55.064z M51.535,52.184c0.322-0.351,0.491-1.901-0.24-1.92
		C50.972,50.615,50.804,52.165,51.535,52.184z"/>
	<path fill-rule="evenodd" clip-rule="evenodd" fill="#5F8B9A" d="M41.694,49.544c0.537,0.104,0.097,1.183,0.24,1.68
		C40.857,51.115,41.24,50.135,41.694,49.544z"/>
	<path fill-rule="evenodd" clip-rule="evenodd" fill="#5F8B9A" d="M51.294,50.264c0.731,0.019,0.563,1.569,0.24,1.92
		C50.804,52.165,50.972,50.615,51.294,50.264z"/>
	<path fill-rule="evenodd" clip-rule="evenodd" fill="#333731" d="M71.456,57.705c0.839,1.316,0.901,1.934,0,3.361
		c-0.368-1.231-0.853-2.349-1.92-2.881c-1.655,0.45-2.151,2.426-2.641,3.36c-1.675-2.663,2.982-6.536,6.001-4.32
		C72.869,57.838,72.093,57.701,71.456,57.705z"/>
	<path fill-rule="evenodd" clip-rule="evenodd" fill="#CAB278" d="M38.573,58.665c0.628-0.067,1.033,0.088,0.96,0.72
		c-0.597,0.026-0.743,0.45-1.2,0C38.46,59.191,38.583,58.995,38.573,58.665z"/>
	<path fill-rule="evenodd" clip-rule="evenodd" fill="#FEFDFE" d="M67.136,68.266c0.449,0.271,1.156,0.284,0.96,1.2
		c-0.894,0.254-0.774-0.505-1.2-0.72C66.941,68.552,67.137,68.507,67.136,68.266z"/>
	<path fill-rule="evenodd" clip-rule="evenodd" fill="#CAB278" d="M64.976,76.906c-0.826-0.488-1.013-2.192,0-2.64
		c0.384,0.656,0.494,1.586,0.48,2.64C65.296,76.906,65.136,76.906,64.976,76.906z"/>
	<path fill-rule="evenodd" clip-rule="evenodd" fill="#5F8B9A" d="M64.976,76.906c0.16,0,0.32,0,0.48,0
		c0.126,0.259,0.249,1.143,0.239,2.16c-0.295-0.268-0.492-0.209-0.479,0.24c-0.08,0-0.16,0-0.24,0
		C65.352,78.391,65.478,77.864,64.976,76.906z"/>
	<path fill-rule="evenodd" clip-rule="evenodd" fill="#5F8B9A" d="M28.732,79.307c-1.459,1.688,0.93,3.065,1.2,3.601
		C28.618,82.444,27.244,80.502,28.732,79.307z"/>
	<path fill-rule="evenodd" clip-rule="evenodd" fill="#CAB278" d="M65.695,79.066c0.018,3.415,1.351,5.766-0.96,8.161
		c-2.418,2.508-7.211,4.941-9.36,7.2c-1.521,4.325-1.429,9.821-5.281,12.241c-2.42-4.09,1.342-8.655-1.2-12.241
		c2.11,0.256,1.857,2.276,2.88,3.12c0.858,0.124,0.549-2.152,0.24-2.399c1.373-1.908,5.177-1.384,5.041-4.801
		c2.003-0.153,3.374-1.687,3.36-3.12c1.651,0,2.265-1.874,1.681-3.36c2.396-0.598,1.156-3.576,2.88-4.561c0.08,0,0.16,0,0.24,0
		C65.203,78.857,65.4,78.799,65.695,79.066z"/>
	<path fill-rule="evenodd" clip-rule="evenodd" fill="#D2D4D0" d="M68.336,88.428c-0.72-0.71-0.567-1.143-1.68-1.681
		c0.14-0.9,0.482-1.597,1.199-1.92c-0.223-0.576-0.964-0.636-0.72-1.68C68.671,83.672,70.981,87.408,68.336,88.428z"/>
	<path fill-rule="evenodd" clip-rule="evenodd" fill="#5F8B9A" d="M47.694,90.588c1.013,0.087,1.791-0.914,1.2-1.681
		c0.195,0.046,0.239,0.241,0.48,0.24C49.416,90.079,48.373,91.172,47.694,90.588z"/>
	<path fill-rule="evenodd" clip-rule="evenodd" fill="#D2D4D0" d="M62.335,95.868c-1.191-0.729-1.933-1.908-2.88-2.88
		c0.832-1.249,2.115-2.046,3.36-2.881c0.49,1.109,1.385,1.816,2.16,2.641C64.243,93.936,63.368,94.981,62.335,95.868z"/>
	<path fill-rule="evenodd" clip-rule="evenodd" fill="#D2D4D0" d="M69.056,90.588c1.793,0.367,1.772,2.548,3.36,3.12
		c-1.064,0.775-1.09,2.591-2.64,2.88c-0.491-1.109-1.814-1.386-2.16-2.64C68.648,92.866,68.312,91.902,69.056,90.588z"/>
	<path fill-rule="evenodd" clip-rule="evenodd" fill="#5F8B9A" d="M48.414,96.588c-0.665-0.084-1.413-0.719-0.96-1.2
		C47.983,95.579,48.413,95.87,48.414,96.588z"/>
	<path fill-rule="evenodd" clip-rule="evenodd" fill="#5F8B9A" d="M56.575,98.028c0.587,0.909,2.622,1.463,1.92,2.88
		c-0.802-0.878-1.532-1.828-2.16-2.88C56.415,98.028,56.495,98.028,56.575,98.028z"/>
	<path fill-rule="evenodd" clip-rule="evenodd" fill="#D2D4D0" d="M56.335,98.028c-0.632,0.072-0.788-0.332-0.72-0.96
		c0.611,0.029,0.931,0.35,0.96,0.96C56.495,98.028,56.415,98.028,56.335,98.028z"/>
	<path fill-rule="evenodd" clip-rule="evenodd" fill="#D2D4D0" d="M64.735,100.188c-0.294,1.74-0.748,2.423-0.96,3.84
		c-1.326-0.993-2.232-2.407-3.601-3.359c0.488-1.193,1.366-1.995,2.16-2.881C63.438,98.287,63.955,99.369,64.735,100.188z"/>
	<path fill-rule="evenodd" clip-rule="evenodd" fill="#5F8B9A" d="M67.855,101.148c0.021,1.15,1.199,2.143,1.921,1.2
		C69.464,104.052,67.116,101.918,67.855,101.148z"/>
	<path fill-rule="evenodd" clip-rule="evenodd" fill="#D2D4D0" d="M67.855,101.148c0.355-1.324,1.785-1.575,2.16-2.88
		c0.503,0.298,0.902,0.698,1.2,1.2c-1.24,1.039-0.895,1.858-1.439,2.88C69.055,103.291,67.876,102.299,67.855,101.148z"/>
	<path fill-rule="evenodd" clip-rule="evenodd" fill="#D2D4D0" d="M48.414,99.229c-0.595,1.063-0.126,2.243-0.48,3.84
		c-1.085-0.114-1.304-1.096-1.92-1.68C46.593,100.447,46.829,99.163,48.414,99.229z"/>
	<path fill-rule="evenodd" clip-rule="evenodd" fill="#D2D4D0" d="M57.535,101.868c-0.405,0.771-1.153,2.366-1.68,2.4
		c-2.413,0.159-0.347-3.669-0.24-5.04C56.603,99.761,56.704,101.18,57.535,101.868z"/>
	<path fill-rule="evenodd" clip-rule="evenodd" fill="#CAB278" d="M41.454,100.908c-0.106-0.213-0.211-0.429-0.48-0.479
		c0.058-0.423,0.413-0.547,0.96-0.48c-0.288,0.315-0.094,0.378,0,0.721C41.739,100.714,41.694,100.909,41.454,100.908z"/>
	<path fill-rule="evenodd" clip-rule="evenodd" fill="#D2D4D0" d="M41.934,100.669c-0.181,1.01,0.024,1.941-0.24,3.6
		c-0.678-0.683-1.503-1.217-1.44-2.64c0.754,0.113,0.981-0.3,1.2-0.721C41.694,100.909,41.739,100.714,41.934,100.669z"/>
	<path fill-rule="evenodd" clip-rule="evenodd" fill="#D2D4D0" d="M31.373,103.068c-0.644,1.196-1.451,2.23-2.4,3.121
		c-1.528-0.313-1.881-1.8-2.88-2.641c0.112-1.808,1.958-1.882,2.16-3.601C29.748,100.533,30.245,102.116,31.373,103.068z"/>
	<path fill-rule="evenodd" clip-rule="evenodd" fill="#D2D4D0" d="M85.377,100.188c1.385,1.559-0.735,3.084-0.72,4.801
		c-0.883-0.158-1.195-0.886-1.68-1.44C83.553,102.204,84.531,101.263,85.377,100.188z"/>
	<path fill-rule="evenodd" clip-rule="evenodd" fill="#D2D4D0" d="M43.134,100.188c0.675,0.045,1.022,0.418,0.96,1.2
		c-0.411-0.011-0.622,0.179-0.72,0.479C42.988,101.514,43.45,100.94,43.134,100.188z"/>
	<path fill-rule="evenodd" clip-rule="evenodd" fill="#D2D4D0" d="M78.417,100.908c1.664,0.096,1.89,1.631,2.88,2.4
		c-0.213,1.388-1.156,2.044-1.92,2.881c-0.904-0.297-1.476-0.925-2.16-1.44C77.499,103.27,78.271,102.671,78.417,100.908z"/>
	<path fill-rule="evenodd" clip-rule="evenodd" fill="#D2D4D0" d="M24.412,103.309c-0.56,1.36-1.748,2.093-2.4,3.36
		c-0.81-0.631-1.476-1.404-1.92-2.4c1.016-0.664,1.57-1.789,2.4-2.64C23.459,101.862,23.844,102.677,24.412,103.309z"/>
	<path fill-rule="evenodd" clip-rule="evenodd" fill="#D2D4D0" d="M89.458,104.749c-1.232,0.544-1.521,3.071-2.641,3.12
		c-2.1,0.092-1.095-4.028,0-5.761C87.896,102.789,88.62,103.826,89.458,104.749z"/>
	<path fill-rule="evenodd" clip-rule="evenodd" fill="#D2D4D0" d="M96.418,106.429c-0.359,1.001-1.199,1.521-1.68,2.4
		c-1.367-1.228-2.655-2.217-3.841-4.08c0.457-0.904,0.851-1.87,1.921-2.16C93.903,103.983,95.144,105.224,96.418,106.429z"/>
	<path fill-rule="evenodd" clip-rule="evenodd" fill="#5F8B9A" d="M58.495,109.069c-0.825-0.695-1.431-1.61-2.16-2.4
		C57.176,107.348,58.029,108.015,58.495,109.069z"/>
	<path fill-rule="evenodd" clip-rule="evenodd" fill="#D2D4D0" d="M58.495,109.069c0.554-0.073,0.267,0.693,0.72,0.72
		c-0.397,1.363-1.665,1.855-2.16,3.12c-1.609-0.951-2.557-2.563-3.84-3.84c1.093-0.907,1.502-2.498,2.88-3.12
		c0.127,0.192,0.25,0.39,0.24,0.72C57.064,107.459,57.67,108.374,58.495,109.069z"/>
	<path fill-rule="evenodd" clip-rule="evenodd" fill="#5F8B9A" d="M46.974,109.789c0.773,0.588,1.517,1.204,1.92,2.16
		C48.209,111.274,47.533,110.591,46.974,109.789z"/>
	<path fill-rule="evenodd" clip-rule="evenodd" fill="#D2D4D0" d="M46.974,109.789c-0.067-0.493-0.641-0.479-0.96-0.72
		c0.316-1.284,1.187-2.014,1.92-2.88c0.875,1.364,2.33,2.149,3.84,2.88c-0.519,1.401-1.866,1.975-2.4,3.36
		c-0.214-0.106-0.43-0.211-0.48-0.48C48.491,110.993,47.747,110.377,46.974,109.789z"/>
	<path fill-rule="evenodd" clip-rule="evenodd" fill="#D2D4D0" d="M44.334,108.35c-0.269,1.972-2.181,2.299-2.64,4.08
		c-0.741-0.859-1.47-1.731-2.4-2.4c0.627-1.452,1.741-2.42,2.64-3.601C43.054,106.749,43.108,108.135,44.334,108.35z"/>
	<path fill-rule="evenodd" clip-rule="evenodd" fill="#FFFFFF" d="M100.499,110.51c-0.153,0.887,0.311,2.391-0.24,2.88
		c-0.343-0.777-0.604-1.637-0.72-2.641C99.957,110.768,100.285,110.695,100.499,110.51z"/>
	<path fill-rule="evenodd" clip-rule="evenodd" fill="#D2D4D0" d="M71.216,14.021c0.75,1.17,2.034,1.806,3.601,2.16
		c-0.289,1.409,0.475,1.766,1.44,1.92c0,0.4,0,0.8,0,1.2c-1.477,0.376-1.967,1.27-3.841,0.72c0.241-1.121-0.418-1.342-1.439-1.2
		c0.031-0.592,0.036-1.156-0.24-1.44c-0.878-0.158-0.921,0.52-1.681,0.48c0.036-0.596-0.124-0.996-0.479-1.2
		c-0.948-0.308-0.581,0.699-1.2,0.72c-0.77-0.19-0.506-1.415-1.92-0.96c0.313-1.188-0.355-1.178-0.24-2.641
		C67.23,12.914,69.062,14.154,71.216,14.021z"/>
	<path fill-rule="evenodd" clip-rule="evenodd" fill="#CAB278" d="M45.534,51.224c0.158-1.576-0.432-2.442,0-3.12
		c-1.808-0.245-3.609-2.604-6.001-2.16c0.188-0.772,0.33-1.591,0.72-2.16c7.142-0.513,12.142-7.072,17.761-3.601
		c0.434-1.42-0.934-0.953-1.68-1.92c5.308-2.583,14.449-1.13,13.921,6.96c-4.609-2.195-10.2,3.696-8.16,8.161
		c-0.416,1.537-2.914,4.351-0.721,5.521c-1.396,1.268-0.993,3.242-0.96,4.32c-2.492,1.306-3.735-0.085-5.28,2.16
		c-1.482-0.598-3.408-0.753-4.561-1.681c-3.254,1.401-3.477-1.471-6.24-0.72c0.496,1.024,2.184,0.856,2.64,1.92
		c0.174,0.734-0.414,0.706-0.24,1.44c-1.869,1.911-9.082,2.871-10.561-0.24c-3.006-6.324,6.21-4.489,8.4-7.2
		c1.074-1.33,0.776-3.229,0.72-4.321c0.241,0.001,0.286-0.194,0.48-0.24c-0.231,3.721,3.51,9.029,7.441,5.521
		c0.648-0.713,1.372-1.349,1.68-2.4c2.358-5.697,0.229-13.817-4.8-12.001c-2.262,0.816-3.336,3.048-4.08,6
		C45.773,51.465,45.729,51.27,45.534,51.224z M46.014,45.704c2.025,0.47,3.414-1.414,5.28-1.92c1.884-0.511,3.397,0.399,5.521,0
		C56.377,37.886,47.515,41.591,46.014,45.704z"/>
	<path fill-rule="evenodd" clip-rule="evenodd" fill="#D2D4D0" d="M43.854,51.944c0.175-0.545-0.433-1.873,0.48-1.68
		c0,0.48,0,0.96,0,1.44C44.14,51.75,44.095,51.945,43.854,51.944z"/>
	<path fill-rule="evenodd" clip-rule="evenodd" fill="#CAB278" d="M65.695,63.705c0.696-1.354-0.461-1.003-0.479-2.16
		c-0.047-2.856,4.806-10.082,7.921-5.521C76.239,60.568,70.378,66.659,65.695,63.705z M72.896,57.225
		c-3.019-2.215-7.676,1.657-6.001,4.32c0.489-0.935,0.985-2.91,2.641-3.36c1.067,0.532,1.552,1.649,1.92,2.881
		c0.901-1.427,0.839-2.045,0-3.361C72.093,57.701,72.869,57.838,72.896,57.225z"/>
	<path fill-rule="evenodd" clip-rule="evenodd" fill="#333731" d="M46.254,74.506c-0.694-0.745-1.961-0.919-2.16-2.16
		c2.13,1.4,4.577-0.339,6.48,0.96c1.262-0.291,3.091-3.199,4.32-1.199c-2.646,0.64-4.006,3.668-6.72,1.68
		C47.344,73.836,46.897,74.269,46.254,74.506z"/>
	<path fill-rule="evenodd" clip-rule="evenodd" fill="#333731" d="M58.495,82.427c-0.531,0.395-1.72,0.985-2.4,0.48
		c2.017-1.087,0.516-5.479,3.12-5.28c0.442,0.42,0.029,0.833-0.72,0.72C59.394,79.832,58.426,80.561,58.495,82.427z"/>
	<path fill-rule="evenodd" clip-rule="evenodd" fill="#333731" d="M42.174,90.107c-1.601,2.582-3.628-1.062-5.521-1.2
		c-0.17-0.571-0.634-2.227,0.24-2.4c0.887,0.074,0.421,1.5,0.96,1.921c0.874-0.074,1.562,0.038,2.16,0.239
		C40.135,89.746,40.757,90.324,42.174,90.107z"/>
	<path fill-rule="evenodd" clip-rule="evenodd" fill="#CAB278" d="M74.816,92.988c0.111,0.751-0.209,1.071-0.96,0.96
		C74.14,93.592,74.064,92.876,74.816,92.988z"/>
	<path fill-rule="evenodd" clip-rule="evenodd" fill="#D2D4D0" d="M87.058,96.108c-0.214,1.306-1.018,2.022-1.92,2.64
		c-0.972-1.428-2.848-1.953-3.12-4.08C84.127,94.719,85.605,95.4,87.058,96.108z"/>
	<path fill-rule="evenodd" clip-rule="evenodd" fill="#D2D4D0" d="M65.216,107.149c0.651,0.868,1.125,1.914,2.4,2.16
		c-0.764,0.997-0.633,2.887-1.2,4.08c-0.801,0-1.601,0-2.4,0c-0.22-1.061-1.354-1.207-1.681-2.16
		c-0.778-0.899,1.089-0.689,0.961-1.681c0-0.079,0-0.159,0-0.239C64.298,108.931,63.682,106.271,65.216,107.149z"/>
	<path fill-rule="evenodd" clip-rule="evenodd" fill="#333731" d="M82.737,113.39c-0.13-0.85,0.85-0.59,0.72-1.44
		c-1.825-0.975-2.453-3.147-4.32-4.08c-0.74,1.101-1.354,2.325-2.4,3.12c0.266,1.175,1.457,1.423,1.921,2.4c-0.48,0-0.961,0-1.44,0
		c0-0.08,0-0.16,0-0.24c-0.351-1.062-1.859-1.262-1.92,0.24c-2.961,0-5.921,0-8.881,0c0.567-1.193,0.437-3.083,1.2-4.08
		c-1.275-0.246-1.749-1.292-2.4-2.16c-0.158-0.322-0.514-0.447-0.96-0.48c-0.404,0.797-0.591,1.81-0.96,2.641c0,0.08,0,0.16,0,0.239
		c-0.572,0.148-0.395,1.047-1.44,0.721c-0.334-0.306-0.104-1.176-0.72-1.2c-0.591,0.618,0.257,1.153,0.72,1.44
		c-0.013,0.412,0.185,0.615,0.479,0.72c0.327,0.953,1.461,1.1,1.681,2.16c-0.48,0-0.96,0-1.44,0c0-0.08,0-0.16,0-0.24
		c-1.058-0.542-1.385-1.815-2.64-2.16c-0.703,0.817-1.579,1.461-2.161,2.4c-0.8,0-1.6,0-2.4,0c-0.642-1.358-1.777-2.224-2.88-3.12
		c-0.926,0.914-1.736,1.944-2.4,3.12c-0.56,0-1.12,0-1.68,0c0-0.08,0-0.16,0-0.24c-1.167-1.073-1.975-2.506-3.36-3.36
		c-0.546,1.333-2.678,2.231-2.4,3.601c-0.64,0-1.28,0-1.92,0c0-0.08,0-0.16,0-0.24c-0.818-0.701-1.32-1.72-2.4-2.16
		c-0.645,0.795-1.392,1.488-1.92,2.4c-2.32,0-4.64,0-6.96,0c0.059-0.957,0.238-2.231,0.72-3.601
		c-0.383-0.577-0.655-1.265-1.44-1.439c-0.826,0.774-1.563,1.637-2.16,2.64c0.156,1.125,1.057,1.503,1.44,2.4c-0.48,0-0.96,0-1.44,0
		c0-0.08,0-0.16,0-0.24c-0.295-0.104-0.493-0.307-0.48-0.72c-0.904-0.104-1.093,0.507-1.44,0.96c-0.4,0-0.8,0-1.2,0
		c0.459-0.661,0.981-1.259,1.44-1.92c-0.978-1.103-1.871-2.29-3.12-3.12c-0.471,0.89-1.11,1.609-1.68,2.399
		c0.44,1.16,1.572,1.628,2.16,2.641c-0.56,0-1.12,0-1.68,0c0-0.08,0-0.16,0-0.24c-0.98-1.278-1.86-1.236-2.64,0.24
		c-0.48,0-0.96,0-1.44,0c1.273-0.94,2.779-3.149,0.24-3.841c-0.063,1.252-1.071,2.473-1.68,3.841c-0.4,0-0.8,0-1.2,0
		c1.289-3.846,5.27-11.136,9.361-13.921c4.469-3.043,10.466-1.899,14.401-5.521c-1.146-0.847-3.67,0.284-5.28-0.24
		c-0.322-2.064-2.95-2.044-2.641-4.08c-0.849,0.129-1.236-0.204-1.44-0.721c-0.328-0.472-0.229-1.371-0.48-1.92
		c-0.48,0-0.96,0-1.44,0c-1.738-2.389-0.616-6.114-1.92-9.121c0.057-0.982,0.815-1.265,0.96-2.16c-0.883-3.146,2.91-3.634,3.36-6.24
		c-0.556-0.564-1.62-0.62-1.68-1.68c0.899-3.492,7.292-0.516,7.681-4.801c0.146-0.014,0.284-0.036,0.24-0.24
		c0.354-1.485,1.298-2.382,2.64-2.88c0.627-3.05-0.708-6.979-0.24-11.281c-3.626,1.331-2.937-1.916,0.24-2.64
		c-2.958-0.883-6.252-1.429-7.921-3.601c2.449-2.911,7.361-3.359,10.081-6c0.169-2.081,0.585-2.786,1.2-4.08
		c0.133,0,0.272-0.194,0-0.24c1.565-3.315,4.768-4.993,5.76-8.881c-0.797-1.979-1.225-2.665-0.48-4.56
		c0.738-0.063,1.08-0.521,1.68-0.72c0,0.133,0.194,0.272,0.24,0c3.181,1.072,7.149,1.215,10.321,0c-0.001,0.133,0.194,0.272,0.24,0
		c5.505-0.589,2.873,5.655,4.8,7.681c1.929-3.58,1.195-7.861,0.721-11.761c0.513-0.767,1.079-1.481,1.92-1.92
		c0.32,0.239,0.472,0.649,0.96,0.72c-0.037-0.678,0.679-0.602,0.96-0.96c0.566,1.44,2.302,0.527,3.601,1.44
		c-0.001,0.133,0.194,0.272,0.24,0c2.299,1.678,5.135,3.354,5.76,6c-4.091,2.869-8.462,5.459-11.28,9.601
		c7.998-2.001,11.556,4.625,8.4,10.081c-1.315,2.274-4.548,2.746-3.36,5.521c1.846-0.531,2.886,0.657,3.841,1.68
		c0.07,0.224,0.649,0.224,0.72,0c3.181,0.335,2.307,4.328,1.2,5.521c0.896,0.256,0.684-0.596,1.44-0.48
		c0.057,0.342,0.395,0.405,0.479,0.72c-0.037,0.923-0.531,1.389-0.96,1.92c1.002,0.583,1.176-0.647,1.92,0
		c0.005,1.777-2.21,2.639-2.88,4.08c0.155-0.334,0.232,1.008,0.24,0.96c-0.19,1.163-1.609,0.732-2.641,1.92
		c-0.46,0.53-0.349,1.471-0.72,1.92c-1.707,2.067-4.789,3.291-7.44,3.12c-0.366,4.342-0.039,6.838-0.24,9.842
		c0.361,0.77,0,3.083,0.479,3.84c0,0.8,0,1.601,0,2.4c2.862,0.932,4.031,3.604,3.841,5.761c1.452,1.027,2.723,2.237,4.08,3.36
		c-0.001,0.133,0.194,0.271,0.24,0c2.189,1.366,6.697-0.295,7.681,2.64c8.706,1.529,13.978,5.055,15.841,13.201
		c0.488,2.135,0.324,4.641,1.44,6.721c-0.88,0-1.76,0-2.64,0c-0.598-1.163-1.89-1.631-2.4-2.88c-1.375,0.545-1.882,1.959-2.881,2.88
		c-0.56,0-1.12,0-1.68,0c-0.692-1.708-2.43-2.37-3.36-3.841c-1.057,0.465-1.128,1.913-2.16,2.4c0.134,0.666,0.826,0.774,0.96,1.44
		C84.817,113.39,83.777,113.39,82.737,113.39z M65.216,13.781c-0.115,1.463,0.554,1.452,0.24,2.641c1.414-0.455,1.15,0.77,1.92,0.96
		c0.619-0.021,0.252-1.028,1.2-0.72c0.355,0.204,0.516,0.604,0.479,1.2c0.76,0.04,0.803-0.638,1.681-0.48
		c0.276,0.284,0.271,0.848,0.24,1.44c1.021-0.142,1.681,0.08,1.439,1.2c1.874,0.549,2.364-0.344,3.841-0.72c0-0.4,0-0.8,0-1.2
		c-0.966-0.155-1.729-0.511-1.44-1.92c-1.566-0.354-2.851-0.99-3.601-2.16C69.062,14.154,67.23,12.914,65.216,13.781z
		 M64.976,25.302c-0.602,0.999-0.806,2.395-1.2,3.601c1.784-0.216,2.389-1.612,2.881-3.12
		C65.896,25.821,65.854,25.144,64.976,25.302z M45.294,54.584c0.056,1.091,0.354,2.991-0.72,4.321c-2.19,2.711-11.407,0.876-8.4,7.2
		c1.479,3.111,8.691,2.151,10.561,0.24c-0.174-0.734,0.414-0.706,0.24-1.44c-0.457-1.063-2.145-0.896-2.64-1.92
		c2.764-0.751,2.986,2.121,6.24,0.72c1.153,0.928,3.078,1.083,4.561,1.681c1.545-2.245,2.789-0.854,5.28-2.16
		c-0.033-1.078-0.437-3.053,0.96-4.32c-2.193-1.17,0.305-3.984,0.721-5.521c-2.04-4.464,3.551-10.355,8.16-8.161
		c0.528-8.091-8.613-9.543-13.921-6.96c0.746,0.967,2.113,0.5,1.68,1.92c-5.619-3.472-10.619,3.087-17.761,3.601
		c-0.391,0.569-0.532,1.388-0.72,2.16c2.392-0.444,4.193,1.915,6.001,2.16c-0.432,0.678,0.158,1.544,0,3.12
		C45.659,52.549,45.396,53.487,45.294,54.584z M76.736,50.024c1.629-1.891-1.021-3.408-2.64-2.88
		c-0.152-2.875-3.006-1.654-4.32-0.72c-3.6-1.993-6.952,1.614-7.201,5.28c0.285,0.756,1.4,0.68,1.44,1.68
		c-0.597,0.443-1.354,0.726-1.681,1.44c0.419,0.217,0.925,0.537,0.48,0.96c-0.616,0.344-1.274,0.646-1.44,1.44
		c0.481,0.399,1.116,0.645,1.2,1.44c0.043,0.843-0.811,0.789-0.96,1.44c1.179,0.15-0.089,1.331-0.479,1.439
		c0.268,0.928,0.729,0.947,0.72,1.681c-1.163,1.536-2.474,1.634-5.041,1.92c-0.776,2.063-5.185,0.79-6.721-0.48
		c-0.733-0.173-0.875,0.246-1.44,0.24c-1.39,4.82-10.315,5.81-13.201,1.681c-0.201-0.52-0.622-0.819-0.48-1.681
		c-0.601-0.041-0.751,0.369-0.96,0.72c-1.402,1.829-4.947,0.278-5.761,2.4c0.492,0.389,1.573,0.188,1.92,0.721
		c0,0.72,0,1.439,0,2.16c1.04,0.08,2.514-0.274,2.88,0.479c-0.29,0.051-0.147,0.267,0,0.48c-1.425-0.162-2.861,0.322-3.84-0.721
		c-1.192,0.492-0.546,1.15-0.72,1.921c-2.516,0.229-2.626,1.488-1.68,3.12c-0.698,0.422-1.402,0.838-1.2,2.16
		c0.429,0.45,0.857,0.903,1.2,1.44c-0.594,0.286-0.938,0.821-1.2,1.439c0.422,0.618,1.044,1.036,1.44,1.681
		c-0.552,1.1-0.542,1.389-0.96,2.4c1.489,0.886,3.346,0.649,3.36,3.359c1.044,0.013,1.104-0.359,1.68,0.24
		c-0.192,0.449-0.401,0.879-0.48,1.44c0.708,0.715,0.972,0.098,1.68,0.48c0.323,0.557,0.397,1.362,0.72,1.92
		c1.634,0.186,2.542,0.668,4.081-0.24c1.408,0.892,3.129,2.275,4.561,2.4c0.732-0.389,0.805-1.436,1.92-1.44
		c1.449-0.009,1.622,1.259,3.12,1.2c0.478-0.562,0.826-1.254,1.68-1.44c1.283,0.688,3.753,1.178,4.32-0.479
		c1.568,0.255,4.267-0.929,3.121-3.36c0.728-0.792,2.756-0.284,3.36-1.2c0.175-0.734-0.414-0.706-0.239-1.44
		c2.245,0.209,3.133-2.579,1.439-3.6c0.946-0.495,1.57-0.313,2.4-1.2c0.174-0.733-0.245-0.875-0.24-1.44
		c0.601-0.84,1.668-1.213,1.681-2.641c-0.219-0.98-1.132-1.268-1.2-2.399c0.354-0.846,0.946-1.455,1.439-2.161
		c-0.383-0.336-0.612-0.826-0.72-1.439c1.862-1.19,0.118-3.122-0.72-4.32c0.286-0.754,1.324-0.756,1.439-1.681
		c-1.046-1.357,0.566-2.962-0.72-4.08c1.519-1.086,0.667-2.143,1.2-3.601c2.17-5.927,9.929-6.284,10.801,0.721
		c1.142-0.174,0.397-0.983,0.48-1.92c0.828-0.772,1.991-1.209,2.4-2.4c-0.498-0.143-1.577,0.297-1.681-0.24
		c0.489-0.998,0.599-0.881,0.96-1.92c-0.734-0.174-0.706,0.414-1.439,0.24C75.439,51.841,76.543,50.963,76.736,50.024z
		 M43.854,51.944c-0.358,1.352-0.364,1.908-1.2,2.4c-2.676,1.573-2.997-3.205-2.64-5.761c-0.48,0-0.96,0-1.44,0
		c-0.615,3.462-0.634,9.926,3.121,10.561c3.223-1.144,2.225-3.762,2.64-7.44c0-0.48,0-0.96,0-1.44
		C43.421,50.072,44.029,51.399,43.854,51.944z M41.934,51.224c-0.143-0.497,0.297-1.577-0.24-1.68
		C41.24,50.135,40.857,51.115,41.934,51.224z M73.137,56.024c-3.115-4.562-7.968,2.664-7.921,5.521
		c0.019,1.157,1.176,0.807,0.479,2.16C70.378,66.659,76.239,60.568,73.137,56.024z M38.333,59.385c0.457,0.45,0.603,0.026,1.2,0
		c0.073-0.632-0.332-0.787-0.96-0.72C38.583,58.995,38.46,59.191,38.333,59.385z M65.456,68.746c0-0.48,0-0.96,0-1.44
		c-0.24,0-0.48,0-0.721,0C64.645,68.117,65.151,68.33,65.456,68.746z M65.456,76.906c0.014-1.054-0.097-1.983-0.48-2.64
		c-1.013,0.447-0.826,2.151,0,2.64c0.502,0.958,0.376,1.484,0,2.4c-1.724,0.984-0.483,3.963-2.88,4.561
		c0.584,1.486-0.029,3.36-1.681,3.36c0.014,1.434-1.356,2.967-3.36,3.12c0.137,3.417-3.668,2.893-5.041,4.801
		c0.309,0.247,0.618,2.523-0.24,2.399c-1.023-0.844-0.77-2.864-2.88-3.12c2.542,3.586-1.22,8.151,1.2,12.241
		c3.852-2.42,3.76-7.916,5.281-12.241c2.149-2.259,6.942-4.692,9.36-7.2c2.311-2.396,0.978-4.746,0.96-8.161
		C65.705,78.049,65.582,77.165,65.456,76.906z M67.136,83.147c-0.244,1.044,0.497,1.104,0.72,1.68
		c-0.717,0.323-1.06,1.02-1.199,1.92c1.112,0.538,0.96,0.971,1.68,1.681C70.981,87.408,68.671,83.672,67.136,83.147z M63.535,89.628
		c0.916,0.524,0.989,1.891,2.16,2.16c0.788-0.733,1.772-1.269,2.16-2.4c-0.289-1.07-1.202-1.518-1.92-2.16
		C65.322,88.215,64.293,88.785,63.535,89.628z M72.656,92.988c0.705-0.158,1.636-0.886,1.2-1.44
		c-1.507-0.813-2.282-2.358-3.841-3.12C69.225,90.696,72.032,91.344,72.656,92.988z M64.976,92.748
		c-0.775-0.824-1.67-1.531-2.16-2.641c-1.245,0.835-2.528,1.632-3.36,2.881c0.947,0.972,1.688,2.151,2.88,2.88
		C63.368,94.981,64.243,93.936,64.976,92.748z M67.616,93.948c0.346,1.254,1.669,1.53,2.16,2.64c1.55-0.289,1.575-2.104,2.64-2.88
		c-1.588-0.572-1.567-2.753-3.36-3.12C68.312,91.902,68.648,92.866,67.616,93.948z M73.856,93.948
		c0.751,0.111,1.071-0.209,0.96-0.96C74.064,92.876,74.14,93.592,73.856,93.948z M56.095,95.868c1,1.399,2.223,2.578,3.36,3.84
		c0.707-1.053,1.563-1.957,2.16-3.12c-1.155-1.004-1.96-2.36-3.36-3.12C57.396,94.129,56.634,94.887,56.095,95.868z M65.216,98.748
		c0.125-1.753,1.499-3.409,0.96-5.04C63.654,94.79,62.189,97.479,65.216,98.748z M45.294,100.188c0.555-1.045,1.487-1.713,2.4-2.4
		c-1.152-0.928-1.935-2.226-3.121-3.12C42.688,95.811,43.23,99.717,45.294,100.188z M82.018,94.668
		c0.272,2.127,2.148,2.652,3.12,4.08c0.902-0.617,1.706-1.334,1.92-2.64C85.605,95.4,84.127,94.719,82.018,94.668z M70.977,97.068
		c-0.18,0.738,0.658,0.461,0.479,1.2c1.162-0.438,1.292-1.909,1.92-2.881c-0.051-0.269-0.266-0.373-0.479-0.479
		C71.993,95.365,71.854,96.585,70.977,97.068z M47.454,95.388c-0.453,0.481,0.295,1.116,0.96,1.2
		C48.413,95.87,47.983,95.579,47.454,95.388z M66.416,100.669c1.488-0.592,2.1-2.062,2.88-3.36c-0.729-0.552-0.838-1.723-2.16-1.681
		C67.443,96.966,65.623,99.208,66.416,100.669z M79.377,99.708c0.837,1.084,1.667,2.173,2.88,2.881
		c0.629-1.212,1.749-1.933,2.4-3.12c-1.112-1.208-2.188-2.453-3.601-3.36C80.362,97.687,80.252,98.361,79.377,99.708z
		 M93.778,99.708c-0.824-1.283-3.41-3.273-4.801-2.399C90.777,98.195,91.913,102.378,93.778,99.708z M56.575,98.028
		c-0.029-0.61-0.349-0.931-0.96-0.96c-0.067,0.628,0.088,1.032,0.72,0.96c0.628,1.052,1.358,2.002,2.16,2.88
		C59.196,99.491,57.162,98.938,56.575,98.028z M29.212,99.229c-0.075,0.653,2.848,2.757,3.121,2.88
		c1.144-0.937,1.479-2.682,2.64-3.6C34.12,96.491,29.372,97.837,29.212,99.229z M86.098,99.708c0.024,0.463,0.895-0.372,1.2,0.24
		c-0.443,1.688,1.893,2.555,2.4,4.08c4.202-1.972,0.111-4.802-2.161-6.72C87.231,98.282,86.13,98.461,86.098,99.708z M62.335,97.788
		c-0.794,0.886-1.672,1.688-2.16,2.881c1.368,0.952,2.274,2.366,3.601,3.359c0.212-1.417,0.666-2.1,0.96-3.84
		C63.955,99.369,63.438,98.287,62.335,97.788z M69.776,102.349c0.545-1.021,0.199-1.841,1.439-2.88
		c-0.298-0.502-0.697-0.902-1.2-1.2c-0.375,1.305-1.805,1.556-2.16,2.88C67.116,101.918,69.464,104.052,69.776,102.349z
		 M23.692,100.908c0.551,0.329,0.772,0.988,1.2,1.44c1.428-0.575,2.662-2.615,2.88-3.601
		C26.296,99.352,24.582,99.718,23.692,100.908z M46.014,101.389c0.616,0.584,0.834,1.565,1.92,1.68
		c0.354-1.597-0.115-2.777,0.48-3.84C46.829,99.163,46.593,100.447,46.014,101.389z M55.615,99.229
		c-0.107,1.371-2.173,5.199,0.24,5.04c0.527-0.034,1.275-1.629,1.68-2.4C56.704,101.18,56.603,99.761,55.615,99.229z
		 M41.934,100.669c-0.094-0.343-0.288-0.405,0-0.721c-0.547-0.066-0.902,0.058-0.96,0.48c0.269,0.051,0.374,0.267,0.48,0.479
		c-0.219,0.421-0.446,0.834-1.2,0.721c-0.063,1.423,0.763,1.957,1.44,2.64C41.958,102.61,41.752,101.679,41.934,100.669z
		 M28.252,99.948c-0.202,1.719-2.048,1.793-2.16,3.601c0.999,0.841,1.353,2.328,2.88,2.641c0.949-0.891,1.756-1.925,2.4-3.121
		C30.245,102.116,29.748,100.533,28.252,99.948z M43.374,101.868c0.099-0.301,0.31-0.49,0.72-0.479
		c0.063-0.782-0.285-1.155-0.96-1.2C43.45,100.94,42.988,101.514,43.374,101.868z M82.978,103.549
		c0.484,0.555,0.797,1.282,1.68,1.44c-0.016-1.717,2.104-3.242,0.72-4.801C84.531,101.263,83.553,102.204,82.978,103.549z
		 M93.298,101.868c1.262,0.898,2.208,2.113,3.36,3.121c-0.114-1.329-1.037-3.921-2.64-4.561
		C93.922,101.053,93.302,101.152,93.298,101.868z M77.217,104.749c0.685,0.516,1.256,1.144,2.16,1.44
		c0.764-0.837,1.707-1.493,1.92-2.881c-0.99-0.77-1.216-2.305-2.88-2.4C78.271,102.671,77.499,103.27,77.217,104.749z
		 M22.492,101.629c-0.83,0.851-1.384,1.976-2.4,2.64c0.444,0.996,1.11,1.77,1.92,2.4c0.652-1.268,1.841-2,2.4-3.36
		C23.844,102.677,23.459,101.862,22.492,101.629z M58.976,101.629c0.842,2.156,1.677,2.836,2.399,5.04
		c3.602-1.329-0.334-3.795-1.92-5.28C59.402,101.575,59.254,101.668,58.976,101.629z M86.817,102.108
		c-1.095,1.732-2.1,5.853,0,5.761c1.119-0.049,1.408-2.576,2.641-3.12C88.62,103.826,87.896,102.789,86.817,102.108z
		 M45.054,102.349c-0.332,1.314-2.473,2.085-2.4,3.12c0.069,0.985,2.004,1.317,2.64,2.4c0.618-1.223,1.752-1.928,2.4-3.12
		C46.562,104.201,46.565,102.518,45.054,102.349z M66.656,102.589c-0.644,0.956-1.664,1.536-1.921,2.88
		c1.446,0.277,1.813,2.768,3.36,2.16C68.482,106.08,69.358,103.051,66.656,102.589z M92.818,102.589
		c-1.07,0.29-1.464,1.256-1.921,2.16c1.186,1.863,2.474,2.853,3.841,4.08c0.48-0.88,1.32-1.399,1.68-2.4
		C95.144,105.224,93.903,103.983,92.818,102.589z M56.335,105.229c1.504,1.057,2.394,2.728,4.08,3.601
		c0.122-2.475-1.561-4.118-2.64-5.761C57.416,103.909,56.731,104.425,56.335,105.229z M51.535,107.629
		c1.387,1.607,2.591-1.428,3.36-2.64c-0.217-0.424-0.537-0.743-0.96-0.961C53.059,105.153,52.039,106.133,51.535,107.629z
		 M22.972,107.629c1.051,0.789,1.498,2.183,2.88,2.641c0.664-1.097,1.708-1.813,2.16-3.12c-1.168-0.752-1.841-1.999-2.88-2.881
		C24.512,105.372,22.85,106.567,22.972,107.629z M37.854,107.389c0.871,0.219,0.146,0.709,0.24,1.44
		c1.587-0.653,2.311-2.17,3.12-3.601c-0.558-0.162-0.642-0.797-1.2-0.96C39.27,105.285,38.897,106.673,37.854,107.389z
		 M80.097,107.389c1.444,0.797,2.209,2.272,3.601,3.121c0.513-1.834,0.819-5.235-1.44-6.001
		C81.392,105.323,80.496,106.108,80.097,107.389z M29.692,107.389c0.411,0.229,0.484,0.797,0.96,0.961
		c-0.025-1.027,0.358-1.509,0.72-2.641c-0.051-0.27-0.266-0.374-0.48-0.48C30.798,106.254,29.831,106.407,29.692,107.389z
		 M87.537,108.829c0.108,1.218,3.132,2.421,4.081,3.601c0.667-1.093,1.856-1.663,2.16-3.12c-1.54-0.941-2.348-2.613-3.601-3.841
		C89.852,106.346,87.463,107.986,87.537,108.829z M19.372,109.789c0.864-0.575,1.236-1.644,1.92-2.4
		c-0.323-0.637-1.2-0.721-1.2-1.68C17.587,105.959,16.731,109.33,19.372,109.789z M76.257,106.429
		c0.406,1.063-0.384,2.316-0.48,3.601c1.357-0.643,2.085-1.915,2.881-3.12c-0.629-0.332-0.761-1.16-1.681-1.2
		C77.021,106.232,76.78,106.473,76.257,106.429z M56.335,106.669c0.01-0.33-0.113-0.527-0.24-0.72
		c-1.377,0.622-1.787,2.213-2.88,3.12c1.284,1.276,2.231,2.889,3.84,3.84c0.495-1.265,1.762-1.757,2.16-3.12
		c-0.453-0.026-0.166-0.793-0.72-0.72C58.029,108.015,57.176,107.348,56.335,106.669z M48.894,111.949
		c0.051,0.27,0.267,0.374,0.48,0.48c0.534-1.386,1.881-1.959,2.4-3.36c-1.51-0.73-2.965-1.516-3.84-2.88
		c-0.733,0.866-1.604,1.596-1.92,2.88c0.319,0.241,0.893,0.227,0.96,0.72C47.533,110.591,48.209,111.274,48.894,111.949z
		 M41.934,106.429c-0.899,1.181-2.013,2.148-2.64,3.601c0.931,0.669,1.659,1.541,2.4,2.4c0.459-1.781,2.372-2.108,2.64-4.08
		C43.108,108.135,43.054,106.749,41.934,106.429z M95.458,109.549c0.918,0.843,1.455,2.065,2.641,2.641
		c-0.096-1.289-0.255-3.084-0.72-4.561c-0.24,0-0.48,0-0.721,0C96.766,108.776,95.631,108.682,95.458,109.549z M85.377,110.029
		c0.401-0.028-0.273-1.023,0.721-0.96c0.04-0.601-0.369-0.752-0.721-0.96C85.488,108.434,84.543,109.977,85.377,110.029z"/>
	<path fill-rule="evenodd" clip-rule="evenodd" fill="#D2D4D0" d="M50.094,46.664c6.708-1.986,5.387,13.234,0.48,13.441
		c-1.299,0.054-2.896-1.725-3.36-2.881C46.343,55.054,46.204,47.815,50.094,46.664z M52.975,54.825
		c1.51-1.238,0.608-7.122-1.92-5.761c-1.326,0.714-1.919,4.403-0.48,6C51.458,55.497,51.827,55.044,52.975,54.825z"/>
	<path fill-rule="evenodd" clip-rule="evenodd" fill="#D2D4D0" d="M44.334,51.704c-0.416,3.679,0.583,6.297-2.64,7.44
		c-3.754-0.635-3.735-7.099-3.121-10.561c0.48,0,0.96,0,1.44,0c-0.357,2.556-0.036,7.334,2.64,5.761
		c0.836-0.492,0.842-1.048,1.2-2.4C44.095,51.945,44.14,51.75,44.334,51.704z"/>
	<path fill-rule="evenodd" clip-rule="evenodd" fill="#D2D4D0" d="M88.978,97.309c1.391-0.874,3.977,1.116,4.801,2.399
		C91.913,102.378,90.777,98.195,88.978,97.309z"/>
	<path fill-rule="evenodd" clip-rule="evenodd" fill="#D2D4D0" d="M22.252,113.39c-0.588-1.013-1.72-1.48-2.16-2.641
		c0.57-0.79,1.209-1.51,1.68-2.399c1.25,0.83,2.142,2.018,3.12,3.12c-0.459,0.661-0.981,1.259-1.44,1.92
		C23.052,113.39,22.652,113.39,22.252,113.39z"/>
	<path fill-rule="evenodd" clip-rule="evenodd" fill="#D2D4D0" d="M28.012,113.39c-0.383-0.897-1.284-1.275-1.44-2.4
		c0.597-1.003,1.334-1.865,2.16-2.64c0.785,0.175,1.058,0.862,1.44,1.439c-0.482,1.369-0.662,2.644-0.72,3.601
		C28.973,113.39,28.493,113.39,28.012,113.39z"/>
	<path fill-rule="evenodd" clip-rule="evenodd" fill="#D2D4D0" d="M85.857,113.39c-0.134-0.666-0.826-0.774-0.96-1.44
		c1.032-0.487,1.104-1.936,2.16-2.4c0.931,1.471,2.668,2.133,3.36,3.841C88.897,113.39,87.378,113.39,85.857,113.39z"/>
	<path fill-rule="evenodd" clip-rule="evenodd" fill="#333731" d="M56.815,43.784c-2.124,0.399-3.636-0.511-5.521,0
		c-1.866,0.506-3.255,2.39-5.28,1.92C47.515,41.591,56.377,37.886,56.815,43.784z"/>
	<path fill-rule="evenodd" clip-rule="evenodd" fill="#333731" d="M46.014,51.464c0.744-2.953,1.818-5.184,4.08-6
		c5.03-1.816,7.158,6.304,4.8,12.001c-0.635,0.725-1.246,1.474-1.68,2.4c-3.931,3.509-7.672-1.8-7.441-5.521
		C46.138,53.785,45.824,52.765,46.014,51.464z M47.214,57.225c0.464,1.156,2.061,2.935,3.36,2.881
		c4.907-0.207,6.228-15.427-0.48-13.441C46.204,47.815,46.343,55.054,47.214,57.225z"/>
</g>
</svg>
