<?xml version="1.0" encoding="utf-8"?>
<!-- Generator: Adobe Illustrator 15.1.0, SVG Export Plug-In . SVG Version: 6.00 Build 0)  -->
<!DOCTYPE svg PUBLIC "-//W3C//DTD SVG 1.1//EN" "http://www.w3.org/Graphics/SVG/1.1/DTD/svg11.dtd">
<svg version="1.1" id="Ebene_1" xmlns="http://www.w3.org/2000/svg" xmlns:xlink="http://www.w3.org/1999/xlink" x="0px" y="0px"
	 width="113.39px" height="113.39px" viewBox="0 0 113.39 113.39" enable-background="new 0 0 113.39 113.39" xml:space="preserve">
<path fill-rule="evenodd" clip-rule="evenodd" fill="#35422D" d="M22.495,38.75c0.046-0.272,0.241-0.133,0.24,0
	c9.06-9.227,20.465-11.915,32.64-12.72c-0.046,0.194-0.241,0.239-0.24,0.48c5.392-1.299,13.582,1.311,17.76,2.64
	c6.463,2.057,8.737,5.297,12,10.56c-0.204,0.356-0.604,0.516-1.199,0.48c0.203,0.704,0.772-0.144,1.199,0
	c1.108,2.456,1.379,8.04-1.199,10.56c-0.679,0.198-0.622-0.338-1.2-0.24c0.169-1.873-1.72-4.162-3.84-5.28
	c-5.886-3.103-18.269-5.502-24.96-6c-5.477-0.408-12.677-0.232-18,0.48c-0.319,0.241-0.893,0.227-0.96,0.72
	c-1.837,0.159-3.597,0.383-5.04,0.96c-0.348,0.139-1.183,0.112-0.96,0.96c0.205,0.267,1.723-0.183,2.16-0.48
	c-1.274,1.215,1.388,3.661-0.96,5.04c-2.304-0.111-7.012-0.289-9.12-2.88C20.025,41.078,22.653,40.271,22.495,38.75z M26.575,43.069
	c0.833,0.192,0.923-0.357,1.68-0.24C28.364,41.884,26.393,41.704,26.575,43.069z"/>
<path fill-rule="evenodd" clip-rule="evenodd" fill="#C1A165" d="M46.975,39.709c0.966,0.154,2.552-0.312,3.12,0.24
	C49.129,39.795,47.543,40.261,46.975,39.709z"/>
<path fill-rule="evenodd" clip-rule="evenodd" fill="#683928" d="M35.695,48.83c-0.016,1.178-0.549-0.543-0.96,0.24
	c0.366,1.154,1.573,1.467,2.4,2.16c0.186,4.367-1.867,7.276-0.48,11.28c-0.351,1.089-1.276,1.604-1.68,2.64
	c0.424,1.524,1.716,2.817,2.88,2.88c0.11,0.851,0.534,1.387,0.48,2.4c-0.944,0.517-1.452-0.335-1.68-1.2
	c-0.929-0.266-0.854,0.849-1.44,0.24c-0.47-0.448-0.074-0.879,0-1.44c-0.457-0.874-0.654-0.516-1.68-0.72
	c-0.174-0.734,0.414-0.706,0.24-1.44c-2.263,0.144-0.259-2.688-2.16-2.64c0.15-1.53,0.773-2.587,1.44-3.6
	c-0.24-0.924-0.969-0.446-1.44-0.721c-0.237-0.563-0.421-1.179-0.48-1.92c0.754,0.114,0.981-0.299,1.2-0.72
	c0.112-0.833-1.303-0.138-1.44-0.72c-0.504-1.075,1.903-1.07,1.92-2.4c-0.385-0.975-0.694-2.026-1.68-2.4
	c0.576-0.863,0.464-1.573-0.24-2.16c-0.237-2.316,1.645-2.515,2.16-4.08c-0.296-0.344-0.825-0.455-1.44-0.48
	c-0.249-3.278,2.434-2.592,4.56-3.12C35.432,42.808,35.118,46.41,35.695,48.83z"/>
<path fill-rule="evenodd" clip-rule="evenodd" fill="#262920" d="M28.255,42.83c-0.757-0.118-0.848,0.432-1.68,0.24
	C26.393,41.704,28.364,41.884,28.255,42.83z"/>
<path fill-rule="evenodd" clip-rule="evenodd" fill="#C1A165" d="M36.415,46.669c0.15-0.729-0.308-2.067,0.24-2.4
	C36.504,44.999,36.962,46.337,36.415,46.669z"/>
<path fill-rule="evenodd" clip-rule="evenodd" fill="#C1A165" d="M41.935,50.75c-1.605,0.012-1.552-0.314-3.36-0.24
	c0.438-3.288,5.826-3.973,5.76,0.24C43.535,50.75,42.735,50.75,41.935,50.75z"/>
<path fill-rule="evenodd" clip-rule="evenodd" fill="#C1A165" d="M45.295,52.189c0-0.8,0-1.6,0-2.4
	C45.692,50.048,45.692,51.931,45.295,52.189z"/>
<path fill-rule="evenodd" clip-rule="evenodd" fill="#262920" d="M44.335,50.75c-0.259,0.397-2.141,0.397-2.4,0
	C42.735,50.75,43.535,50.75,44.335,50.75z"/>
<path fill-rule="evenodd" clip-rule="evenodd" fill="#BDBBBA" d="M54.655,55.31c0-1.12,0-2.24,0-3.36
	C55.089,53.57,55.311,54.13,54.655,55.31z"/>
<path fill-rule="evenodd" clip-rule="evenodd" fill="#C1A165" d="M37.615,57.47c1.147,0.293,1.387,1.492,2.88,1.439
	c-0.639,1.121-1.201,2.319-2.64,2.641C37.388,60.216,37.412,58.969,37.615,57.47z"/>
<path fill-rule="evenodd" clip-rule="evenodd" fill="#C1A165" d="M39.535,68.029c3.577,0.443,6.647-1.662,8.4-3.84
	c1.275,1.845,2.878,3.361,3.36,6c-2.652,2.084-6.817,3.634-10.56,2.64c-0.634-0.646-0.798-1.762-1.2-2.64
	C39.533,69.442,38.967,68.626,39.535,68.029z"/>
<path fill-rule="evenodd" clip-rule="evenodd" fill="#C1A165" d="M65.695,66.59c1.718,0.041,1.253,2.267,2.88,2.399
	c-0.219,1.883-1.944,1.252-3.12,0.721C65.552,68.687,65.223,67.237,65.695,66.59z"/>
<path fill-rule="evenodd" clip-rule="evenodd" fill="#683928" d="M64.975,70.909c0.351,0.21,0.93,0.191,0.721,0.96
	c-0.24,0-0.48,0-0.721,0C64.975,71.55,64.975,71.229,64.975,70.909z"/>
<path fill-rule="evenodd" clip-rule="evenodd" fill="#C1A165" d="M46.495,98.51c0.694,0.105,1.094,0.506,1.2,1.2
	C46.749,99.855,46.632,99.173,46.495,98.51z"/>
<path fill-rule="evenodd" clip-rule="evenodd" fill="#C1A165" d="M66.895,99.949c0.266-0.614,1.289-0.471,2.16-0.479
	c0.038,0.758,0.009,1.448-0.479,1.68c-0.563,0.567-1.18-0.039-1.92,0C66.578,100.593,66.693,100.229,66.895,99.949z"/>
<path fill-rule="evenodd" clip-rule="evenodd" fill="#C1A165" d="M46.495,102.829c-0.318-0.401-0.636-0.804-0.48-1.68
	c0.279-0.201,0.644-0.316,1.2-0.24c0.194,0.046,0.239,0.241,0.48,0.24c0,0.4,0,0.8,0,1.2
	C47.379,102.595,46.81,102.585,46.495,102.829z"/>
<path fill-rule="evenodd" clip-rule="evenodd" fill="#C1A165" d="M67.135,102.829c0.661,0.689-0.136,1.274-0.24,1.921
	c-0.597,0.036-0.742-0.378-1.199-0.48C65.509,103.123,66.196,102.851,67.135,102.829z"/>
<path fill-rule="evenodd" clip-rule="evenodd" fill="#C1A165" d="M46.975,106.67c-0.595-0.285-0.89-0.87-0.72-1.92
	c0.284-0.276,0.848-0.272,1.44-0.24c0.194,0.046,0.239,0.24,0.48,0.24C48.199,105.813,47.891,106.545,46.975,106.67z"/>
<path fill-rule="evenodd" clip-rule="evenodd" fill="#C1A165" d="M64.735,105.47c0.43-0.03,0.506,0.294,0.96,0.24
	c0.143,0.863-0.087,1.354-0.721,1.439c-0.418,0.019-0.746-0.054-0.96-0.24C63.769,105.943,64.389,105.844,64.735,105.47z"/>
<path fill-rule="evenodd" clip-rule="evenodd" fill="#262920" d="M37.375,111.949c-1.534-0.613-0.834-3.096-0.96-4.08
	C38.514,106.402,37.585,110.087,37.375,111.949z"/>
<path fill-rule="evenodd" clip-rule="evenodd" fill="#C1A165" d="M61.854,108.829c0.653-1.016,1.216-0.344,1.92-0.239
	c-0.456,0.503-0.653,1.266-1.68,1.2c-0.054-0.187-0.007-0.474-0.24-0.48C61.854,109.149,61.854,108.989,61.854,108.829z"/>
<path fill-rule="evenodd" clip-rule="evenodd" fill="#35422D" d="M66.175,17.149c0.983,0.537,1.836,1.204,2.64,1.92
	C68.29,19.027,66.807,17.883,66.175,17.149z"/>
<path fill-rule="evenodd" clip-rule="evenodd" fill="#35422D" d="M56.815,13.79c1.302-0.262,1.595,0.484,2.64,0.48
	c0,0.08,0,0.16,0,0.24C58.508,14.336,57.597,14.128,56.815,13.79z"/>
<path fill-rule="evenodd" clip-rule="evenodd" fill="#35422D" d="M46.495,14.029c1.363-0.397,2.695-0.825,4.56-0.72
	C49.582,13.596,48.163,13.938,46.495,14.029z"/>
<path fill-rule="evenodd" clip-rule="evenodd" fill="#35422D" d="M39.535,18.589c0.78-0.98,1.66-1.86,2.64-2.64
	C41.395,16.93,40.515,17.81,39.535,18.589z"/>
<path fill-rule="evenodd" clip-rule="evenodd" fill="#35422D" d="M21.055,39.709c0.7-1.14,1.411-2.269,2.4-3.12
	C22.689,37.664,21.991,38.806,21.055,39.709z"/>
<path fill-rule="evenodd" clip-rule="evenodd" fill="#35422D" d="M30.655,62.51c-0.336,0.836,0.648,2.3,0.72,1.2
	c0.597,0.036,0.07,0.813,0,0.96C31.014,64.219,29.86,63.32,30.655,62.51z"/>
<path fill-rule="evenodd" clip-rule="evenodd" fill="#35422D" d="M40.015,99.71c0.315-0.085,0.377-0.423,0.72-0.48
	c-0.003,0.477-0.655,0.306-0.48,0.96c1.408-0.115,4.275-2.121,4.8-3.12c1.1-0.372-0.647,2.373,0.48,2.88
	c-0.971,0.701-1.533,3.268,0,3.841c-1.007,0.897-1.073,3.764,0.72,3.84c-0.311,0.696-0.311,1.703,0,2.399
	c0.393,1.193,2.515,0.289,2.4,1.44c0.368-0.993,1.328-1.392,1.68-2.4c-0.096-1.023-0.408-1.832-1.44-1.92
	c0.589-1.36,0.532-2.925-0.72-3.6c0.257-0.543,0.544-1.056,0.96-1.44c-0.186-0.533-0.139-1.301-0.72-1.439
	c3.013,1.177,4.504,7.365,2.64,9.359c0.935,0.865,0.16,1.948,0.48,3.36c-7.44,0-14.88,0-22.32,0c0.644-7.276,5.851-9.989,10.8-12.96
	C40.015,100.189,40.015,99.949,40.015,99.71z M36.415,107.869c0.125,0.984-0.574,3.467,0.96,4.08
	C37.585,110.087,38.514,106.402,36.415,107.869z"/>
<path fill-rule="evenodd" clip-rule="evenodd" fill="#35422D" d="M51.295,13.31c1.474-0.589,3.669,0.167,5.28,0.24
	C55.23,14.009,53.039,13.249,51.295,13.31z"/>
<path fill-rule="evenodd" clip-rule="evenodd" fill="#262920" d="M51.055,13.31c0.08,0,0.16,0,0.24,0
	c1.744-0.061,3.935,0.7,5.28,0.24c0.204-0.044,0.227,0.094,0.24,0.24c0.782,0.338,1.693,0.547,2.64,0.72
	c2.666,0.454,4.772,1.467,6.72,2.64c0.632,0.734,2.115,1.877,2.64,1.92c3.723,2.038,2.152,9.368,7.2,10.08
	c0.673,0.693,2.467,1.526,2.88,1.68c0.204-0.044,0.227,0.093,0.24,0.24c0.805,0.875,1.756,1.604,2.641,2.4
	c4.384,3.383,7.118,12.965,2.88,18.24c-0.174,0.733,0.245,0.875,0.239,1.44c-0.847,2.433-2.637,3.923-3.6,6.24
	c0.319,0.801,1.488,0.752,1.68,1.68c-0.795,3.524-3.244,5.396-6,6.96c0.185,0.904-0.293,1.147-0.239,1.92
	c-1.472,0.826-3.484,3.207-5.761,1.681c-1.741,1.938-4.323,0.237-6.479,1.439c-1.15,3.605,1.125,4.299,2.64,6.48
	c2.255,3.248,4.749,8.858,5.76,13.439c7.168,4.964,17.288,5.002,20.16,14.4c0.257,0.841-0.021,1.497,0.721,2.16
	c-0.318,1.838,0.525,2.515,0.72,3.84c-0.24,0-0.48,0-0.72,0c-1.264-3.163-2.342-6.551-3.36-8.64c-1.188-2.436-2.885-2.936-4.8-4.801
	c-0.93,0.774-0.41,0.025-1.2-0.479c-1.618-1.035-7.498-2.548-8.641-3.601c-0.569-0.524-2.416-1.004-3.359-1.68
	c-1.336,0.321-1.031,1.338-2.641,1.68c0.237,1.666-0.485,2.822,0.48,4.32c-0.417,0.863-0.557,2.004-1.68,2.16
	c0.281,3.557-3.33,4.664-4.08,7.92c-0.862-0.085-1.298,0.901-2.641,0.96c-1.808-0.723-1.708-3.549,0.48-3.84
	c-0.157-1.553,0.253-2.519,1.92-2.64c-0.102-0.996,0.584-2.172,1.44-2.881c-0.936-0.673,0.047-2.778,0.72-3.359
	c-5.321,1.992-8.931,4.211-13.2,7.2c-0.113,2.784-0.609,5.733-0.24,7.68c-0.48,0-0.96,0-1.44,0c-0.32-1.412,0.455-2.495-0.48-3.36
	c1.864-1.994,0.374-8.183-2.64-9.359c0.581,0.139,0.534,0.906,0.72,1.439c-0.416,0.385-0.703,0.897-0.96,1.44
	c1.252,0.675,1.31,2.239,0.72,3.6c1.032,0.088,1.344,0.896,1.44,1.92c-0.352,1.009-1.313,1.407-1.68,2.4
	c0.115-1.151-2.007-0.247-2.4-1.44c-0.311-0.696-0.311-1.703,0-2.399c-1.793-0.076-1.728-2.942-0.72-3.84
	c-1.533-0.573-0.971-3.14,0-3.841c-1.127-0.507,0.62-3.252-0.48-2.88c-0.525,0.999-3.392,3.005-4.8,3.12
	c-0.175-0.654,0.477-0.483,0.48-0.96c1.309-0.931,2.924-1.556,3.84-2.88c-3.395-3.594,0.423-8.242,1.68-12
	c-1.382-1.498-2.621-3.14-3.12-5.521c-1.261-1.618-2.955-2.805-3.12-5.52c-0.453-0.427-1.063-0.697-0.96-1.68
	c-3.851-0.549-5.686-3.114-7.68-5.521c0-0.479,0-0.96,0-1.439c0.07-0.147,0.597-0.924,0-0.96c-0.072,1.1-1.057-0.364-0.72-1.2
	c0.254-3.206-0.559-4.892-1.2-7.44c0.276-0.844,0.717-1.523,1.92-1.44c-0.702-2.308-1.655-2.991-1.68-5.76c0-0.16,0-0.32,0-0.48
	c-0.079,0.084-1.818,0.174-2.16,0.24c-5.423,0.431-9.967-3.673-6.48-7.92c0.937-0.904,1.635-2.045,2.4-3.12
	c3.667-3.453,7.926-6.314,13.2-8.16c0.154-3.399,1.152-7.295,2.88-9.84c0.98-0.779,1.86-1.66,2.64-2.64
	c1.299-0.781,2.608-1.552,4.32-1.92C48.163,13.938,49.582,13.596,51.055,13.31z M66.415,19.069c0.082,0.058,0.365-0.125,0.24-0.24
	c-0.975-0.894-1.727-0.503-2.641-0.96c-0.106-0.054-0.09-0.629-0.24-0.72c-5.261-3.18-12.98-3.181-17.52-1.92
	c-5.387,1.497-7.907,6.532-8.16,12.72c6.629-2.56,15.925-2.873,22.561-3.12c4.012,1.275,7.527,1.245,10.56,2.4
	C71.064,22.998,68.976,20.854,66.415,19.069z M20.815,44.029c2.108,2.591,6.816,2.769,9.12,2.88c2.348-1.379-0.314-3.825,0.96-5.04
	c-0.437,0.297-1.955,0.747-2.16,0.48c-0.223-0.848,0.612-0.821,0.96-0.96c1.443-0.577,3.203-0.801,5.04-0.96
	c0.067-0.493,0.641-0.479,0.96-0.72c5.323-0.712,12.523-0.888,18-0.48c6.692,0.498,19.075,2.897,24.96,6
	c2.12,1.118,4.009,3.407,3.84,5.28c0.578-0.098,0.521,0.438,1.2,0.24c2.578-2.52,2.308-8.104,1.199-10.56
	c-0.427-0.144-0.996,0.704-1.199,0c0.596,0.036,0.995-0.124,1.199-0.48c-3.263-5.263-5.537-8.503-12-10.56
	c-4.178-1.33-12.368-3.939-17.76-2.64c0-0.241,0.194-0.286,0.24-0.48c-12.175,0.806-23.58,3.493-32.64,12.72
	c0-0.133-0.194-0.272-0.24,0C22.653,40.271,20.025,41.078,20.815,44.029z M46.975,39.709c-3.322,0.54-5.661,0.318-9.6,0.96
	c-0.108,1.332-0.666,2.215-0.72,3.6c-0.547,0.333-0.089,1.67-0.24,2.4c0.291,1.021,0.837,3.137,1.92,1.92
	c0.566-0.233,0.917-0.683,1.44-0.96c-0.65-0.217,0.549-0.537,0.48-0.96c2.348-1.076,5.091,0.34,5.04,3.12c0,0.8,0,1.6,0,2.4
	c-0.623,6.817-6.038,8.842-8.88,13.44c0.496,0.203,0.784,1.005,1.2,1.199c3.958,1.855,8.636-2.627,11.52-4.56
	c0.048,3.449,4.057,6.141,3.6,10.08c-0.758,0.118-0.089-1.191-0.96-0.96c-1.852,2.774-4.662,5.647-9.12,5.04
	c1.593,3.362,5.365-0.612,7.2-0.48c-1.179,1.622-2.898,2.702-5.28,3.12c0.141,2.865,2.433,4.705,4.56,4.8
	c-0.675,0.308,2.065,0.463,2.16,0c0.83,0.348,1.131-0.268,1.68,0.24c-0.149,0.731-1.291,0.469-1.44,1.2
	c2.063,2.817,3.185,7.854,4.56,10.56c0.812-0.787,1.298-1.901,1.92-2.88c0.464-3.049,4.289-4.239,5.04-7.439
	c0.495-2.107-0.367-4.791-0.24-7.2c0.215-4.07,0.869-7.813,1.44-10.8c-0.584-1.576-2.09-2.23-2.4-4.08
	c0.489-0.632,1.946-0.294,2.641-0.721c0.88-2.473-0.386-6.901,2.399-8.399c-1.222-1.535,0.756-2.327,1.2-3.6
	c-1.053-0.707-1.269-2.251-2.64-2.64c0.558-4.327-5.343-3.601-6-7.44c-3.98-0.178-6.12-0.725-9.36-0.72
	C49.527,39.397,47.941,39.863,46.975,39.709z M36.175,40.91c-2.126,0.528-4.809-0.159-4.56,3.12c0.615,0.025,1.144,0.136,1.44,0.48
	c-0.515,1.565-2.396,1.764-2.16,4.08c0.704,0.587,0.815,1.297,0.24,2.16c0.986,0.374,1.295,1.425,1.68,2.4
	c-0.017,1.33-2.424,1.325-1.92,2.4c0.137,0.583,1.552-0.112,1.44,0.72c-0.219,0.42-0.446,0.834-1.2,0.72
	c0.059,0.741,0.243,1.356,0.48,1.92c0.471,0.274,1.2-0.203,1.44,0.721c-0.667,1.013-1.29,2.069-1.44,3.6
	c1.901-0.049-0.103,2.783,2.16,2.64c0.174,0.734-0.414,0.706-0.24,1.44c1.026,0.204,1.224-0.154,1.68,0.72
	c-0.074,0.562-0.47,0.992,0,1.44c0.586,0.608,0.511-0.506,1.44-0.24c0.228,0.865,0.736,1.717,1.68,1.2
	c0.054-1.014-0.37-1.55-0.48-2.4c-1.164-0.063-2.457-1.355-2.88-2.88c0.404-1.036,1.33-1.551,1.68-2.64
	c-1.387-4.004,0.666-6.914,0.48-11.28c-0.827-0.693-2.034-1.006-2.4-2.16c0.411-0.783,0.944,0.938,0.96-0.24
	C35.118,46.41,35.432,42.808,36.175,40.91z M64.495,42.589c0.073,0.727,0.742,0.857,0.479,1.92c0.834,0.127,1.271,0.65,1.92,0.96
	c0.179,0.979-0.773,0.827-0.479,1.92c0.239,0.561,1.309,0.292,1.68,0.72c-0.082,1.603,1.045,1.996,1.2,3.36
	c-0.428,0.693-1.544,0.696-1.68,1.68c-0.079,1.039,1.329,0.591,1.199,1.68c-0.96,0.079-1.426,0.653-2.159,0.96
	c0.076,0.563,0.379,0.901,0.239,1.68c-0.453-0.054-0.529,0.27-0.96,0.24c-0.014,2.468,0.747,6.499-2.399,6.48
	c0.438,0.601,0.813,1.267,1.439,1.68c0.814-0.146,0.451-1.469,1.44-1.439c0.584,1.096,1.638,1.723,1.92,3.12
	c1.631-0.063,3.125,0.259,3.84,2.16c-1.427,0.276-1.326-0.159-2.4-0.721c0.036,1.557-1.311,1.729-1.92,2.641
	c1.667,0.892,2.145-0.903,2.881-1.681c1.209,2.087,3.348,0.622,4.8-0.239c0.253-0.978-0.067-1.138,0-2.4
	c1.234,0.274,0.716-1.204,1.2-1.68c0.491,0.721,1.838,0.511,2.399,0c0.253-0.893-0.81-0.471-0.96-0.96
	c0.241-0.319,0.228-0.894,0.72-0.96c0.534,0.187,0.937,0.504,1.681,0.479c0.143-1.217,1.271-1.448,1.2-2.88
	c-1.767-0.32-4.883,0.656-4.08-1.92c0.601-0.042,0.582,0.537,0.96,0.72c2.633-0.65,1.071-3.795,3.84-4.08
	c0.237-0.957-0.718-0.723-0.48-1.68c0.802,0.053,1.669-0.338,1.44-1.92c-0.488-0.632-1.593-0.647-2.4-0.96
	c1.236-2.87-1.989-3.266-2.64-5.04c-4.144-1.559-11.547-4.571-17.28-5.28C61.091,42.794,62.918,42.566,64.495,42.589z M44.335,50.75
	c0.065-4.213-5.323-3.528-5.76-0.24c1.809-0.074,1.755,0.252,3.36,0.24C42.194,51.146,44.076,51.146,44.335,50.75z M38.815,51.709
	c-1.346,1.021-0.825,6.82,2.4,5.76c0.054,0.186,0.006,0.473,0.24,0.48c1.235-0.926,2.053-1.664,1.92-2.4
	c0.178-1.002,1.899-2.818,0.48-3.84c-0.453,1.228-0.746,2.615-2.4,2.64c-0.217-0.423-0.883-0.396-0.96-0.96
	c0.882,0.728-0.231-1.302-0.24-1.92C39.833,51.607,38.845,51.179,38.815,51.709z M37.855,61.55c1.439-0.321,2-1.52,2.64-2.641
	c-1.493,0.053-1.733-1.146-2.88-1.439C37.412,58.969,37.388,60.216,37.855,61.55z M39.535,70.189c0.402,0.878,0.566,1.994,1.2,2.64
	c3.743,0.994,7.908-0.556,10.56-2.64c-0.481-2.639-2.085-4.155-3.36-6c-1.753,2.178-4.823,4.283-8.4,3.84
	C38.516,68.067,39.208,69.96,39.535,70.189z M65.455,69.71c1.176,0.531,2.901,1.162,3.12-0.721c-1.627-0.133-1.162-2.358-2.88-2.399
	C65.223,67.237,65.552,68.687,65.455,69.71z M64.975,71.869c0.24,0,0.48,0,0.721,0c0.209-0.769-0.37-0.75-0.721-0.96
	C64.975,71.229,64.975,71.55,64.975,71.869z M46.255,74.75c0.093-0.343,0.288-0.405,0-0.721c-1.022,0.018-1.679,0.401-2.88,0.24
	c0.055,0.425-0.242,1.202,0.48,0.96C44.399,75.758,46.25,75.556,46.255,74.75z M40.975,74.029c-0.115,0.755,0.342,0.938,0.48,1.44
	c0.754-0.271,0.634,0.068,1.2-0.24c0-0.32,0-0.64,0-0.96C41.61,74.184,41.551,74.233,40.975,74.029z M46.975,74.27
	c0.53,0.41,1.5-0.277,1.68-0.96C47.87,73.404,47.103,73.518,46.975,74.27z M55.375,97.79c0.055-0.951-1.923-2.905-1.44-4.32
	c-0.346-0.531-0.586,0.302-0.72-0.24c0.103-2.49-2.131-5.395-2.88-8.16c-1.542-0.056-2.07-0.055-3.12-0.24
	c-0.87,3.226-4.06,6.153-2.64,9.601c0.898,2.181,5.496,3.642,5.52,6.24c1.832,0.328,1.442,2.878,3.12,3.359
	c1.715-0.772,5.03-4.102,7.2-3.6c0.033-0.447,0.157-0.802,0.479-0.96c3.863-1.497,6.887-3.834,10.32-5.76
	c0.4-5.449-3.417-10.752-6.96-15.36c-0.628,2.873,0.914,8.297-0.72,8.4c-2.137,2.972-3.708,6.089-5.76,9.119
	c-0.079,0.117-0.428-0.298-0.48-0.239c-1.236,1.397-1.712,5.3-2.88,5.04c0.061,1.154-0.213,2.24-1.2,1.68
	C53.667,101.444,55.301,99.056,55.375,97.79z M66.895,99.949c-0.524,0.036-0.515,0.605-0.479,1.2c0.527,0.214,1.891,0.97,2.16,0
	c0.488-0.231,0.518-0.922,0.479-1.68C68.184,99.479,67.16,99.335,66.895,99.949z M47.215,100.909
	c-0.334-0.696-1.185,0.068-1.44,0.24c-0.114,0.914,0.102,1.498,0.72,1.68c0.315-0.244,0.885-0.234,1.2-0.479c0-0.4,0-0.8,0-1.2
	C47.454,101.15,47.409,100.955,47.215,100.909z M65.695,104.27c0.457,0.103,0.603,0.517,1.199,0.48
	c0.104-0.646,0.901-1.231,0.24-1.921C66.196,102.851,65.509,103.123,65.695,104.27z M47.695,104.51
	c-0.372-0.661-1.44-0.023-1.68,0.24c-0.105,0.824,0.095,1.345,0.24,1.92c0.24,0,0.48,0,0.72,0c0.916-0.125,1.224-0.856,1.2-1.92
	C47.934,104.75,47.889,104.556,47.695,104.51z M64.735,105.47c-0.873,0.008-1.055,0.705-0.961,1.68c0.428-0.144,0.997,0.704,1.2,0
	c0.634-0.086,0.863-0.576,0.721-1.439C65.241,105.764,65.165,105.439,64.735,105.47z M48.655,109.55
	c1.247,0.061,0.571-1.505,0.24-1.92c-0.359,0.041-0.886-0.086-0.96,0.239c-0.755-0.034-0.825,0.616-0.96,1.2
	C47.376,109.388,47.779,109.705,48.655,109.55z M61.854,109.31c2.541,2.39,2.013-3.777,0-0.48
	C61.854,108.989,61.854,109.149,61.854,109.31z M47.695,99.71c-0.106-0.694-0.506-1.095-1.2-1.2
	C46.632,99.173,46.749,99.855,47.695,99.71z"/>
<path fill-rule="evenodd" clip-rule="evenodd" fill="#35422D" d="M69.774,38.75c0.004-0.368,0.655-0.789,0.48,0
	c0.233-0.007,0.187-0.294,0.24-0.48c0.565,0.203-0.2,1.053-0.24,1.44C69.527,40.47,70.959,38.445,69.774,38.75z"/>
<path fill-rule="evenodd" clip-rule="evenodd" fill="#262920" d="M40.255,46.669c0.069,0.423-1.13,0.743-0.48,0.96
	c-0.523,0.277-0.874,0.727-1.44,0.96c0.135-1.064,1.237-1.163,1.68-1.92C40.095,46.669,40.175,46.669,40.255,46.669z"/>
<path fill-rule="evenodd" clip-rule="evenodd" fill="#C1A165" d="M58.015,92.989c-0.622,0.979-1.108,2.093-1.92,2.88
	c0.422-1.098,1.199-1.841,1.68-2.88C57.855,92.989,57.935,92.989,58.015,92.989z"/>
<path fill-rule="evenodd" clip-rule="evenodd" fill="#C1A165" d="M38.095,44.509c0.785-1.15,2.805-2.881,3.84-1.68
	C40.582,42.126,39.185,43.596,38.095,44.509z"/>
<path fill-rule="evenodd" clip-rule="evenodd" fill="#262920" d="M53.935,45.469c-1.676-0.404-2.504-1.656-4.32-1.92
	c0-0.32,0-0.64,0-0.96C51.737,41.938,53.96,44.012,53.935,45.469z"/>
<path fill-rule="evenodd" clip-rule="evenodd" fill="#C1A165" d="M36.655,44.27c0.055-1.385,0.612-2.268,0.72-3.6
	c3.939-0.642,6.278-0.42,9.6-0.96c0.568,0.552,2.154,0.086,3.12,0.24c3.24-0.005,5.38,0.542,9.36,0.72
	c0.657,3.839,6.558,3.113,6,7.44c1.371,0.389,1.587,1.933,2.64,2.64c-0.444,1.273-2.422,2.065-1.2,3.6
	c-2.785,1.498-1.52,5.927-2.399,8.399c-0.694,0.427-2.151,0.089-2.641,0.721c0.311,1.85,1.816,2.504,2.4,4.08
	c-0.571,2.987-1.226,6.729-1.44,10.8c-0.127,2.409,0.735,5.093,0.24,7.2c-0.751,3.2-4.576,4.391-5.04,7.439c-0.08,0-0.16,0-0.24,0
	c-0.481,1.039-1.258,1.782-1.68,2.88c-1.375-2.705-2.497-7.742-4.56-10.56c0.149-0.731,1.291-0.469,1.44-1.2
	c-0.549-0.508-0.85,0.107-1.68-0.24c-0.534-0.505-1.157,0.253-2.16,0c-2.127-0.095-4.419-1.935-4.56-4.8
	c2.382-0.418,4.102-1.498,5.28-3.12c-1.835-0.132-5.607,3.843-7.2,0.48c4.458,0.607,7.269-2.266,9.12-5.04
	c0.871-0.231,0.202,1.078,0.96,0.96c0.457-3.939-3.552-6.631-3.6-10.08c-2.884,1.933-7.563,6.415-11.52,4.56
	c-0.416-0.194-0.704-0.996-1.2-1.199c2.842-4.599,8.257-6.623,8.88-13.44c0.397-0.259,0.397-2.141,0-2.4
	c0.051-2.78-2.692-4.196-5.04-3.12c-0.08,0-0.16,0-0.24,0c-0.442,0.757-1.544,0.855-1.68,1.92c-1.083,1.217-1.629-0.899-1.92-1.92
	C36.962,46.337,36.504,44.999,36.655,44.27z M41.935,42.83c-1.036-1.201-3.056,0.53-3.84,1.68c-0.075,0.325-0.341,0.458-0.24,0.96
	C39.272,44.776,41.828,44.044,41.935,42.83z M49.615,42.589c0,0.32,0,0.64,0,0.96c1.816,0.264,2.644,1.516,4.32,1.92
	C53.96,44.012,51.737,41.938,49.615,42.589z M53.215,47.149c-0.889-1.019-2.475-1.026-3.6-0.24c0,0.08,0,0.16,0,0.24
	c-0.917,0.204-1.155,1.085-1.44,1.92c-0.802,1.185-0.641,4.689,0,5.28c0.106,1.253,0.632,2.088,1.44,2.64
	c0.229,0.651,0.863,0.897,1.2,1.44c5.473,0.676,5.206-3.749,4.8-7.92c1.051,0.011,1.481-0.599,2.16-0.96c0.08,0,0.16,0,0.24,0
	c0.074-0.566,0.834-0.446,0.72-1.2c-0.431,0.031-0.562-0.238-0.479-0.72c-1.604-0.004-1.756,1.444-3.36,1.44
	C54.646,48.118,53.938,47.626,53.215,47.149z"/>
<path fill-rule="evenodd" clip-rule="evenodd" fill="#262920" d="M48.175,54.35c0.477,0.883,0.79,1.93,1.44,2.64
	C48.807,56.438,48.281,55.603,48.175,54.35z"/>
<path fill-rule="evenodd" clip-rule="evenodd" fill="#262920" d="M57.775,49.549c0.134-0.346,0.375-0.585,0.72-0.72
	c-0.104-0.377-0.755-0.205-0.48-0.96c-1.36,0.159-1.609,1.43-3.12,1.44c-0.29-0.991-1.227-1.333-1.68-2.16
	c0.724,0.477,1.432,0.969,1.68,1.92c1.604,0.004,1.755-1.444,3.36-1.44c-0.082,0.482,0.049,0.751,0.479,0.72
	c0.114,0.753-0.646,0.634-0.72,1.2C57.935,49.549,57.855,49.549,57.775,49.549z"/>
<path fill-rule="evenodd" clip-rule="evenodd" fill="#262920" d="M48.175,49.069c0.285-0.835,0.523-1.716,1.44-1.92
	c-0.051,0.27-0.266,0.374-0.48,0.48c0.022,0.378,0.612,0.188,0.48,0.72c-0.479-0.483-1.041,0.178-1.2,0.72
	C48.335,49.069,48.255,49.069,48.175,49.069z"/>
<path fill-rule="evenodd" clip-rule="evenodd" fill="#262920" d="M48.895,50.27c0.842,0.607,2.126-0.002,3.12,0
	C51.539,50.611,49.19,51.312,48.895,50.27z"/>
<path fill-rule="evenodd" clip-rule="evenodd" fill="#BDBBBA" d="M50.095,52.189c0.519,3.93,3.742,1.71,3.84-1.2
	c0.774-0.214,0.337,0.783,0.72,0.96c0,1.12,0,2.24,0,3.36c-0.199,0.601-0.657,0.942-0.72,1.68c-1.841,0.771-3.47,0.374-4.08-1.68
	c-0.208-1.073-0.583-1.977-0.48-3.36C49.763,51.882,49.788,52.176,50.095,52.189z"/>
<path fill-rule="evenodd" clip-rule="evenodd" fill="#BDBBBA" d="M49.375,51.95c-0.103,1.383,0.272,2.287,0.48,3.36
	c-0.55-0.41-0.568-1.353-0.72-2.16C49.266,52.801,48.854,51.909,49.375,51.95z"/>
<path fill-rule="evenodd" clip-rule="evenodd" fill="#262920" d="M49.135,53.149c-0.53-0.03-0.102-1.018-0.24-1.44
	c0.595-0.035,1.165-0.045,1.2,0.48c-0.307-0.013-0.332-0.308-0.72-0.24C48.854,51.909,49.266,52.801,49.135,53.149z"/>
<path fill-rule="evenodd" clip-rule="evenodd" fill="#262920" d="M41.215,57.47c1.374,0.014,1.423-1.297,2.16-1.92
	c0.132,0.736-0.685,1.475-1.92,2.4C41.221,57.943,41.269,57.656,41.215,57.47z"/>
<path fill-rule="evenodd" clip-rule="evenodd" fill="#262920" d="M38.815,51.709c0.03-0.53,1.018-0.102,1.44-0.24
	c0.008,0.618,1.122,2.648,0.24,1.92C40.158,52.606,40.407,51.238,38.815,51.709z"/>
<path fill-rule="evenodd" clip-rule="evenodd" fill="#BDBBBA" d="M38.815,51.709c1.592-0.472,1.343,0.897,1.68,1.68
	c0.077,0.563,0.743,0.537,0.96,0.96c1.655-0.025,1.948-1.413,2.4-2.64c1.419,1.022-0.302,2.837-0.48,3.84
	c-0.737,0.623-0.786,1.934-2.16,1.92C37.99,58.529,37.469,52.73,38.815,51.709z"/>
<path fill-rule="evenodd" clip-rule="evenodd" fill="#262920" d="M76.255,63.71c0.437,1.709-1.925,1.654-2.88,1.199
	c0.333-0.147,0.036-0.924,0.479-0.96C74.729,63.763,75.158,64.255,76.255,63.71z"/>
<path fill-rule="evenodd" clip-rule="evenodd" fill="#C1A165" d="M39.535,68.029c-0.567,0.597-0.002,1.413,0,2.16
	C39.208,69.96,38.516,68.067,39.535,68.029z"/>
<path fill-rule="evenodd" clip-rule="evenodd" fill="#BDBBBA" d="M48.655,73.31c-0.18,0.683-1.15,1.37-1.68,0.96
	C47.103,73.518,47.87,73.404,48.655,73.31z"/>
<path fill-rule="evenodd" clip-rule="evenodd" fill="#BDBBBA" d="M43.855,75.229c1,0.04,2.003,0.083,2.4-0.479
	C46.25,75.556,44.399,75.758,43.855,75.229z"/>
<path fill-rule="evenodd" clip-rule="evenodd" fill="#C1A165" d="M68.575,101.149c-0.27,0.97-1.633,0.214-2.16,0
	c-0.035-0.595-0.045-1.164,0.479-1.2c-0.201,0.279-0.316,0.644-0.239,1.2C67.396,101.11,68.012,101.717,68.575,101.149z"/>
<path fill-rule="evenodd" clip-rule="evenodd" fill="#C1A165" d="M46.495,102.829c-0.618-0.182-0.833-0.766-0.72-1.68
	c0.255-0.172,1.105-0.937,1.44-0.24c-0.557-0.076-0.921,0.039-1.2,0.24C45.859,102.025,46.177,102.428,46.495,102.829z"/>
<path fill-rule="evenodd" clip-rule="evenodd" fill="#35422D" d="M52.975,113.39c-0.369-1.946,0.127-4.896,0.24-7.68
	c4.27-2.989,7.879-5.208,13.2-7.2c-0.673,0.581-1.655,2.687-0.72,3.359c-0.856,0.709-1.542,1.885-1.44,2.881
	c-1.667,0.121-2.077,1.087-1.92,2.64c-2.188,0.291-2.288,3.117-0.48,3.84c1.343-0.059,1.778-1.045,2.641-0.96
	c0.75-3.256,4.361-4.363,4.08-7.92c1.123-0.156,1.263-1.297,1.68-2.16c-0.966-1.498-0.243-2.654-0.48-4.32
	c1.609-0.342,1.305-1.358,2.641-1.68c0.943,0.676,2.79,1.155,3.359,1.68c1.143,1.053,7.022,2.565,8.641,3.601
	c0.79,0.505,0.271,1.254,1.2,0.479c1.915,1.865,3.612,2.365,4.8,4.801c1.019,2.089,2.097,5.477,3.36,8.64
	C80.175,113.39,66.575,113.39,52.975,113.39z"/>
<path fill-rule="evenodd" clip-rule="evenodd" fill="#C1A165" d="M46.975,106.67c-0.24,0-0.48,0-0.72,0
	c-0.145-0.575-0.345-1.096-0.24-1.92c0.24-0.264,1.309-0.901,1.68-0.24c-0.592-0.032-1.156-0.036-1.44,0.24
	C46.085,105.8,46.38,106.385,46.975,106.67z"/>
<path fill-rule="evenodd" clip-rule="evenodd" fill="#C1A165" d="M64.975,107.149c-0.203,0.704-0.772-0.144-1.2,0
	c-0.094-0.975,0.088-1.672,0.961-1.68c-0.347,0.374-0.967,0.474-0.721,1.439C64.229,107.096,64.557,107.168,64.975,107.149z"/>
<path fill-rule="evenodd" clip-rule="evenodd" fill="#C1A165" d="M47.935,107.869c0.074-0.325,0.601-0.198,0.96-0.239
	c0.331,0.415,1.006,1.98-0.24,1.92c0.678-0.271,0.467-1.057,0.24-1.681C48.575,107.869,48.255,107.869,47.935,107.869z"/>
<path fill-rule="evenodd" clip-rule="evenodd" fill="#C1A165" d="M61.854,108.829c2.013-3.297,2.541,2.87,0,0.48
	c0.233,0.007,0.187,0.294,0.24,0.48c1.026,0.065,1.224-0.697,1.68-1.2C63.07,108.485,62.508,107.813,61.854,108.829z"/>
<path fill-rule="evenodd" clip-rule="evenodd" fill="#683928" d="M61.135,41.149c5.733,0.709,13.137,3.722,17.28,5.28
	c0.65,1.774,3.876,2.17,2.64,5.04c0.808,0.313,1.912,0.329,2.4,0.96c0.229,1.582-0.639,1.973-1.44,1.92
	c-0.237,0.957,0.718,0.723,0.48,1.68c-2.769,0.285-1.207,3.43-3.84,4.08c-0.378-0.183-0.359-0.762-0.96-0.72
	c-0.803,2.576,2.313,1.6,4.08,1.92c0.071,1.432-1.058,1.663-1.2,2.88c-0.744,0.024-1.146-0.293-1.681-0.479
	c-0.492,0.066-0.479,0.641-0.72,0.96c0.15,0.489,1.213,0.067,0.96,0.96c-0.562,0.511-1.908,0.721-2.399,0
	c-0.484,0.476,0.034,1.954-1.2,1.68c-0.067,1.263,0.253,1.423,0,2.4c-1.452,0.861-3.591,2.326-4.8,0.239
	c-0.736,0.777-1.214,2.572-2.881,1.681c0.609-0.911,1.956-1.084,1.92-2.641c1.074,0.562,0.974,0.997,2.4,0.721
	c-0.715-1.901-2.209-2.223-3.84-2.16c-0.282-1.397-1.336-2.024-1.92-3.12c-0.989-0.029-0.626,1.294-1.44,1.439
	c-0.627-0.413-1.001-1.079-1.439-1.68c3.146,0.019,2.386-4.012,2.399-6.48c0.431,0.03,0.507-0.294,0.96-0.24
	c0.14-0.779-0.163-1.117-0.239-1.68c0.733-0.307,1.199-0.881,2.159-0.96c0.13-1.089-1.278-0.641-1.199-1.68
	c0.136-0.984,1.252-0.987,1.68-1.68c-0.155-1.364-1.282-1.757-1.2-3.36c-0.371-0.428-1.44-0.159-1.68-0.72
	c-0.294-1.094,0.658-0.942,0.479-1.92c-0.649-0.31-1.086-0.833-1.92-0.96c0.263-1.063-0.406-1.193-0.479-1.92
	C62.918,42.566,61.091,42.794,61.135,41.149z M67.375,62.749c0.802,1.118,2.178,1.663,2.16,3.601
	c0.786,0.014,0.917,0.683,1.92,0.479c-0.011-0.33,0.113-0.526,0.24-0.72c-0.715-0.731-1.794-1.813-1.44-2.88
	c-1.429-0.11-1.34-1.245-1.92-1.68C67.807,61.741,67.377,62.031,67.375,62.749z M73.854,63.949c-0.443,0.036-0.146,0.813-0.479,0.96
	c0.955,0.455,3.316,0.51,2.88-1.199C75.158,64.255,74.729,63.763,73.854,63.949z"/>
<path fill-rule="evenodd" clip-rule="evenodd" fill="#262920" d="M68.335,61.55c0.58,0.435,0.491,1.569,1.92,1.68
	c-0.354,1.067,0.726,2.148,1.44,2.88c-0.127,0.193-0.251,0.39-0.24,0.72c-1.003,0.203-1.134-0.466-1.92-0.479
	c0.018-1.938-1.358-2.482-2.16-3.601C67.377,62.031,67.807,61.741,68.335,61.55z"/>
<path fill-rule="evenodd" clip-rule="evenodd" fill="#35422D" d="M71.215,27.229c-3.032-1.155-6.548-1.125-10.56-2.4
	c-6.636,0.247-15.932,0.56-22.561,3.12c0.253-6.188,2.773-11.223,8.16-12.72c4.539-1.261,12.259-1.26,17.52,1.92
	c0.15,0.091,0.134,0.667,0.24,0.72c0.914,0.457,1.666,0.066,2.641,0.96c0.125,0.114-0.158,0.297-0.24,0.24
	C68.976,20.854,71.064,22.998,71.215,27.229z"/>
<path fill-rule="evenodd" clip-rule="evenodd" fill="#262920" d="M38.095,44.509c1.09-0.913,2.487-2.383,3.84-1.68
	c-0.107,1.215-2.663,1.947-4.08,2.64C37.753,44.968,38.02,44.834,38.095,44.509z"/>
<path fill-rule="evenodd" clip-rule="evenodd" fill="#262920" d="M53.215,47.149c0.454,0.827,1.391,1.169,1.68,2.16
	c1.51-0.01,1.759-1.281,3.12-1.44c-0.275,0.755,0.377,0.583,0.48,0.96c-0.346,0.134-0.586,0.374-0.72,0.72
	c-0.679,0.361-1.109,0.971-2.16,0.96c0.406,4.172,0.673,8.596-4.8,7.92c-0.337-0.543-0.971-0.789-1.2-1.44
	c-0.65-0.709-0.963-1.756-1.44-2.64c-0.641-0.591-0.802-4.095,0-5.28c0.08,0,0.16,0,0.24,0c0.159-0.542,0.721-1.203,1.2-0.72
	c0.132-0.532-0.458-0.342-0.48-0.72c0.214-0.106,0.429-0.21,0.48-0.48c0-0.08,0-0.16,0-0.24
	C50.74,46.123,52.326,46.131,53.215,47.149z M48.895,50.27c0.295,1.042,2.644,0.342,3.12,0c0.563-0.077,0.901-0.379,1.68-0.24
	C53.374,46.851,49.023,47.158,48.895,50.27z M50.095,52.189c-0.035-0.525-0.604-0.515-1.2-0.48c0.138,0.422-0.29,1.41,0.24,1.44
	c0.152,0.808,0.17,1.75,0.72,2.16c0.61,2.054,2.239,2.451,4.08,1.68c0.063-0.737,0.521-1.079,0.72-1.68
	c0.656-1.179,0.434-1.74,0-3.36c-0.383-0.177,0.055-1.175-0.72-0.96C53.836,53.899,50.613,56.12,50.095,52.189z"/>
<path fill-rule="evenodd" clip-rule="evenodd" fill="#35422D" d="M53.215,102.35c0.987,0.561,1.261-0.525,1.2-1.68
	c1.167,0.26,1.644-3.643,2.88-5.04c0.052-0.059,0.401,0.356,0.48,0.239c2.052-3.03,3.624-6.147,5.76-9.119
	c1.634-0.104,0.092-5.527,0.72-8.4c3.543,4.608,7.36,9.911,6.96,15.36c-3.434,1.926-6.457,4.263-10.32,5.76
	c-0.322,0.158-0.446,0.513-0.479,0.96c-2.17-0.502-5.485,2.827-7.2,3.6c-1.678-0.481-1.288-3.031-3.12-3.359
	c-0.024-2.599-4.622-4.06-5.52-6.24c-1.419-3.447,1.77-6.375,2.64-9.601c1.05,0.186,1.578,0.185,3.12,0.24
	c0.749,2.766,2.982,5.67,2.88,8.16c0.134,0.542,0.375-0.291,0.72,0.24c-0.483,1.415,1.495,3.369,1.44,4.32
	C55.301,99.056,53.667,101.444,53.215,102.35z"/>
<path fill-rule="evenodd" clip-rule="evenodd" fill="#262920" d="M28.735,113.39c-0.379-8.699,5.958-10.683,11.28-13.68
	c0,0.239,0,0.479,0,0.72c-4.949,2.971-10.156,5.684-10.8,12.96C29.055,113.39,28.895,113.39,28.735,113.39z"/>
<path fill-rule="evenodd" clip-rule="evenodd" fill="#C1A165" d="M51.295,83.869c-0.095,0.463-2.835,0.308-2.16,0
	C50.138,84.122,50.761,83.364,51.295,83.869z"/>
<path fill-rule="evenodd" clip-rule="evenodd" fill="#C1A165" d="M48.895,50.27c0.128-3.112,4.479-3.418,4.8-0.24
	c-0.779-0.139-1.117,0.164-1.68,0.24C51.021,50.268,49.737,50.877,48.895,50.27z"/>
<path fill-rule="evenodd" clip-rule="evenodd" fill="#BDBBBA" d="M42.655,74.27c0,0.32,0,0.64,0,0.96
	c-0.566,0.309-0.446-0.031-1.2,0.24c-0.138-0.502-0.595-0.686-0.48-1.44C41.551,74.233,41.61,74.184,42.655,74.27z"/>
<path fill-rule="evenodd" clip-rule="evenodd" fill="#BDBBBA" d="M43.855,75.229c-0.722,0.242-0.425-0.535-0.48-0.96
	c1.201,0.161,1.857-0.223,2.88-0.24c0.288,0.315,0.093,0.378,0,0.721C45.858,75.313,44.854,75.27,43.855,75.229z"/>
<path fill-rule="evenodd" clip-rule="evenodd" fill="#C1A165" d="M48.655,109.55c-0.876,0.155-1.278-0.162-1.68-0.48
	c0.136-0.584,0.206-1.234,0.96-1.2c0.32,0,0.64,0,0.96,0C49.122,108.493,49.333,109.279,48.655,109.55z"/>
</svg>
