<?xml version="1.0" encoding="utf-8"?>
<!-- Generator: Adobe Illustrator 15.1.0, SVG Export Plug-In . SVG Version: 6.00 Build 0)  -->
<!DOCTYPE svg PUBLIC "-//W3C//DTD SVG 1.1//EN" "http://www.w3.org/Graphics/SVG/1.1/DTD/svg11.dtd">
<svg version="1.1" id="Ebene_1" xmlns="http://www.w3.org/2000/svg" xmlns:xlink="http://www.w3.org/1999/xlink" x="0px" y="0px"
	 width="113.39px" height="113.39px" viewBox="0 0 113.39 113.39" enable-background="new 0 0 113.39 113.39" xml:space="preserve">
<path fill-rule="evenodd" clip-rule="evenodd" fill="#B89B65" d="M49.135,37.309c1.255,0.105,2.887-0.167,3.36,0.72
	c-1.306-0.026-2.49,0.07-3.36,0.48C48.432,38.306,49.278,37.737,49.135,37.309z"/>
<path fill-rule="evenodd" clip-rule="evenodd" fill="#C3A165" d="M53.455,45.709c-1.862,0.48-3.787,0.61-6,1.2
	C46.486,41.207,54.021,38.872,53.455,45.709z"/>
<path fill-rule="evenodd" clip-rule="evenodd" fill="#222121" d="M23.455,59.149c7.258-1.738,4.044,6.996,5.52,11.04
	c0.578-3.822,1.635-7.165,2.16-11.04c-0.512-1.089-2.588-0.611-2.88-1.92c0.678-5.163,2.12-9.561,4.8-12.72
	c-1.047,4.073-3.229,8.02-3.6,12c0.278,1.082,2.247,0.473,2.64,1.44c-0.144,5.643-1.725,10.998-2.88,17.04
	c-2.112-3.327-1.447-9.433-2.16-14.16c-1.507-0.413-3.742-0.099-4.8-0.96c-2.275-5.534,0.513-11.986,2.16-16.32
	C24.969,47.787,20.719,54.713,23.455,59.149z"/>
<path fill-rule="evenodd" clip-rule="evenodd" fill="#C3A165" d="M77.936,50.75c-2.063-1.354-3.998,0.744-5.28,1.68
	c0.873-1.135,0.613-1.678,0.479-3.12C74.591,48.103,78.042,47.636,77.936,50.75z"/>
<path fill-rule="evenodd" clip-rule="evenodd" fill="#C3A165" d="M73.615,58.909c-1.487-1.915-0.74-3.434-0.72-6
	c1.093,0.293,0.941-0.658,1.92-0.48c0.296,2.376-0.812,3.349-1.44,4.8c1.418,0.26,2.894-3.046,2.88-5.76
	c0.813,0.114,1.262-0.638,1.92-0.24C78.107,54.232,76.47,57.397,73.615,58.909z"/>
<path fill-rule="evenodd" clip-rule="evenodd" fill="#C3A165" d="M47.215,52.669c0.355,0.125,0.605,0.355,0.96,0.48
	c-0.322,0.478-0.457,1.143-0.72,1.68C46.91,54.574,47.364,53.321,47.215,52.669z"/>
<path fill-rule="evenodd" clip-rule="evenodd" fill="#C3A165" d="M40.255,70.909c0.214,0.106,0.429,0.211,0.48,0.48
	c-0.465,1.055-0.802,2.238-2.16,2.399C38.412,72.106,39.752,71.926,40.255,70.909z"/>
<path fill-rule="evenodd" clip-rule="evenodd" fill="#BEBDBD" d="M60.415,103.55c-0.155,1.124,0.313,2.873-0.24,3.6
	C60.33,106.024,59.861,104.275,60.415,103.55z"/>
<path fill-rule="evenodd" clip-rule="evenodd" fill="#222121" d="M52.255,103.789c0.168,1.049-0.408,1.353-0.24,2.4
	c-0.08,0-0.16,0-0.24,0c-0.188-1.068,0.32-1.44,0.24-2.4C52.095,103.789,52.175,103.789,52.255,103.789z"/>
<path fill-rule="evenodd" clip-rule="evenodd" fill="#BEBDBD" d="M60.175,109.069c-0.154,1.045,0.313,2.713-0.24,3.36
	C60.09,111.384,59.622,109.717,60.175,109.069z"/>
<path fill-rule="evenodd" clip-rule="evenodd" fill="#BEBDBD" d="M52.015,110.27c-0.017,0.943-0.116,1.804-0.48,2.399
	c-0.219-0.563,0.208-1.746,0.24-2.399C51.855,110.27,51.935,110.27,52.015,110.27z"/>
<path fill-rule="evenodd" clip-rule="evenodd" fill="#BEBDBD" d="M62.575,109.789c-0.026,1.255-0.249,2.312-0.72,3.12
	C61.601,111.967,62.134,110.33,62.575,109.789z"/>
<path fill-rule="evenodd" clip-rule="evenodd" fill="#BEBDBD" d="M60.896,98.51c0.419-0.709,1.096-2.415,1.68-2.16
	C61.832,96.886,61.63,97.965,60.896,98.51z"/>
<path fill-rule="evenodd" clip-rule="evenodd" fill="#222121" d="M53.215,105.709c-0.293,0.987-0.407,2.153-0.96,2.881
	C52.496,107.551,52.613,106.388,53.215,105.709z"/>
<path fill-rule="evenodd" clip-rule="evenodd" fill="#BEBDBD" d="M55.615,100.43c-0.64,0.96-0.815,2.385-1.68,3.12
	C54.576,102.59,54.61,101.024,55.615,100.43z"/>
<path fill-rule="evenodd" clip-rule="evenodd" fill="#BEBDBD" d="M52.495,102.59c-0.03-2.593,0.81-5.588,2.64-5.521
	C52.864,97.519,53.215,100.59,52.495,102.59z"/>
<path fill-rule="evenodd" clip-rule="evenodd" fill="#BEBDBD" d="M67.855,37.549c-1.753,1.657,1.237,3.183,0.96,4.08
	C68.14,40.799,65.92,38.723,67.855,37.549z"/>
<path fill-rule="evenodd" clip-rule="evenodd" fill="#BEBDBD" d="M68.815,42.829c-0.789,1.749-0.394,3.304,0.72,4.32
	c-0.046,1.074-0.614,1.625-1.2,2.16c0.206-0.754,0.907-1.013,0.96-1.92C68.237,46.385,67.572,44.229,68.815,42.829z"/>
<path fill-rule="evenodd" clip-rule="evenodd" fill="#BEBDBD" d="M68.335,49.549c0.608,0.657,2.021,2.575,0.72,3.6
	C70.181,51.623,68.073,50.193,68.335,49.549z"/>
<path fill-rule="evenodd" clip-rule="evenodd" fill="#BEBDBD" d="M68.575,54.109c0,0.24,0,0.48,0,0.72
	c0.252,0.25,1.276,0.933,0.72,1.2c-0.209-0.351-0.359-0.761-0.96-0.72C68.467,54.96,68.055,54.069,68.575,54.109z"/>
<path fill-rule="evenodd" clip-rule="evenodd" fill="#BEBDBD" d="M72.415,60.589c0.313,2.167-5.622,0.911-3.36-1.439
	c0.08,0,0.16,0,0.24,0c-0.577,0.553-0.366,0.773-0.24,1.68c0.773,0.733,2.6,0.964,3.36,0C72.143,60.784,72.282,60.589,72.415,60.589
	z"/>
<path fill-rule="evenodd" clip-rule="evenodd" fill="#BEBDBD" d="M71.455,54.349c-0.231,1.74,1.154,2.076,0.48,3.6
	c-0.08,0-0.16,0-0.24,0C72.477,56.587,70.574,55.683,71.455,54.349z"/>
<path fill-rule="evenodd" clip-rule="evenodd" fill="#BEBDBD" d="M71.455,48.589c-0.096,0.742,1.373,2.77,0,3.6
	c-0.08,0-0.16,0-0.24,0C72.742,51.289,70.709,49.105,71.455,48.589z"/>
<path fill-rule="evenodd" clip-rule="evenodd" fill="#BEBDBD" d="M70.975,47.389c0.319-0.035,0.894,0.807,0.961,0.24
	c0.321,0.158,0.446,0.513,0.479,0.96c-0.502,0.102-0.636-0.165-0.96-0.24C72.093,47.732,70.993,48.006,70.975,47.389z"/>
<path fill-rule="evenodd" clip-rule="evenodd" fill="#BEBDBD" d="M70.495,42.109c0.233,0.006,0.187,0.293,0.24,0.48
	c0.235,0.42,1.968,0.57,1.439,0.96C71.504,43.18,70.266,43.378,70.495,42.109z"/>
<path fill-rule="evenodd" clip-rule="evenodd" fill="#BEBDBD" d="M72.175,46.189c0.723,0.679,1.291,1.533,2.641,0.96
	c0.102-0.502-0.165-0.636-0.24-0.96c0.403,0.557,2.15-0.23,1.92,0.96c-2.031,0.406-3.087,0.3-4.32,0
	C72.175,46.829,72.175,46.509,72.175,46.189z"/>
<path fill-rule="evenodd" clip-rule="evenodd" fill="#BEBDBD" d="M73.855,43.789c0.038-0.281,0.438-0.202,0.72-0.24
	c0.295,1.285,4.813,3.367,4.8,0.48c-0.177,3.42-4.366,0.98-5.28-0.24C74.015,43.789,73.936,43.789,73.855,43.789z"/>
<path fill-rule="evenodd" clip-rule="evenodd" fill="#BEBDBD" d="M79.375,46.429c0.483-0.876,0.811-1.909,0.72-3.36
	c-0.623-0.144-0.863,0.096-0.72,0.72c-0.652-0.562,0.313-1.526,0.96-0.96C80.29,44.304,80.406,45.94,79.375,46.429z"/>
<path fill-rule="evenodd" clip-rule="evenodd" fill="#BEBDBD" d="M78.655,47.149c-0.678,1.041,1.212,1.259,0.72,2.88
	c-0.232-1.368-1.089-2.111-1.92-2.88C77.855,47.149,78.255,47.149,78.655,47.149z"/>
<path fill-rule="evenodd" clip-rule="evenodd" fill="#BEBDBD" d="M78.415,56.029c-0.482-0.489,0.106-0.471,0.24-0.96
	c0.16,0,0.319,0,0.479,0C79.202,55.696,79.216,56.271,78.415,56.029z"/>
<path fill-rule="evenodd" clip-rule="evenodd" fill="#BEBDBD" d="M78.896,54.589c0.464,0.37,1.195-1.034,1.68-1.44
	c-0.002,1.358-1.687,1.033-1.2,2.88c-1.154-0.01-1.338,1.32-1.439,1.68c-1.033-0.051,0.109-1.494,0.479-1.68
	c0.801,0.241,0.787-0.333,0.72-0.96c-0.16,0-0.319,0-0.479,0C78.616,54.79,78.708,54.642,78.896,54.589z"/>
<path fill-rule="evenodd" clip-rule="evenodd" fill="#BEBDBD" d="M82.015,48.349c0.523,0.461-0.778,1.127-0.96,1.68
	c0.257,0.623,0.954,1.743-0.239,1.92c0.106-0.213,0.21-0.429,0.479-0.48c0.037-0.597-0.377-0.743-0.479-1.2
	C80.912,49.326,81.87,49.244,82.015,48.349z"/>
<path fill-rule="evenodd" clip-rule="evenodd" fill="#BEBDBD" d="M82.015,44.27c1.535,1.151-1.099,2.414,0,3.84
	C80.468,47.017,83.032,45.63,82.015,44.27z"/>
<path fill-rule="evenodd" clip-rule="evenodd" fill="#BEBDBD" d="M81.295,41.869c0.355,0.125,0.605,0.355,0.96,0.48
	c-0.143,0.498,0.297,1.577-0.24,1.68c-0.46-0.027,0.282-0.804,0-1.44c-0.176-0.224-0.436-0.364-0.72-0.48
	C81.295,42.029,81.295,41.949,81.295,41.869z"/>
<path fill-rule="evenodd" clip-rule="evenodd" fill="#BEBDBD" d="M77.455,35.869c0.24,0,0.48,0,0.72,0
	c0.518,0.602,0.606,1.581-0.239,1.92C78.615,37.058,78.382,36.155,77.455,35.869z"/>
<path fill-rule="evenodd" clip-rule="evenodd" fill="#C3A165" d="M62.575,38.029c0.492-0.196,2.955-0.525,3.359-0.24
	c-0.974,2.222,0.727,3.502,1.681,4.56c-0.256,1.836-1.533,4.402,0.479,5.28c-0.485,1.068-1.483,3.821,0.24,4.32
	c-0.368,0.912-0.967,1.593-1.2,2.64c1.566,2.108-1.551,7.44,2.4,7.92c-0.776,10.488-2.894,17.187-4.8,26.159
	c-1.443,0.931-2.985,2.312-4.08,2.881c-1.513-2.092-3.333-3.123-2.88-6.721c0.636-0.003,1.414,0.134,1.44-0.479
	c-1.481-1.194-3.118-0.197-4.56-1.2c-2.036-1.416-1.42-4.982-2.4-7.68c-0.373-0.854,0.815-0.146,0.72-0.721
	c-1.052-1.137-4.443-1.116-3.84-3.12c2.807,0.778,5.018,1.134,7.68,1.681c0.389,0.172,0.389-1.132,0-0.96
	c0.981-0.938,4.013,0.173,3.6-2.16c3.124-0.486,2.852-2.898,5.04-4.32c-0.992-1.256-0.203-1.852-0.48-3.359
	c-3.896,1.23-6.396,0.045-9.12,0c-0.037-1.157,1.033-1.208,0.72-2.641c-0.174-0.866-1.007-1.072-2.16-0.96
	c-0.313,1.034,0.681,0.759,0.96,1.2c-1.398,3.002-3.524,5.276-7.92,5.28c-0.74-4.052-0.107-9.557,2.16-12
	c1.999-2.154,4.554-2.197,5.04-5.28c0.549-3.485-0.329-7.244-2.64-7.92c-1.134-0.332-2.844,1.154-3.6-0.24
	c2.481-1.727,4.886-0.222,7.2-0.24c0.42-1.541-1.415-0.826-1.44-1.92c1.008,0.776,5.044-1.247,3.84,1.44
	c1.636,0.028,4.73-0.143,6.24,0.72C64.466,38.539,63.027,38.777,62.575,38.029z M57.775,52.909c9.712,6.206,9.377-16.183,1.44-12.24
	c0.702,0.784,1.366,0.114,2.4,0.48c1.365,0.935,2.741,4.215,1.92,5.76c-0.611-1.02-3.845-0.754-5.76-1.68
	c-0.034-1.603,0.713-3.091,1.2-4.8C55.857,42.287,55.463,49.272,57.775,52.909z"/>
<path fill-rule="evenodd" clip-rule="evenodd" fill="#BEBDBD" d="M58.015,50.27c-0.181-1.019-0.56-1.84-0.479-3.12
	c0.349-0.371,1.229-0.211,1.92-0.24c-0.106,1.867,0.276,3.244,2.16,3.12c1.172-0.028,1.033-1.367,1.439-2.16
	c1.741-0.182,0.574,2.063,0.48,2.88c-0.627,0.733-1.215,1.505-2.4,1.68c-0.08,0-0.16,0-0.239,0
	C59.473,52.172,58.56,51.405,58.015,50.27z"/>
<path fill-rule="evenodd" clip-rule="evenodd" fill="#222121" d="M58.015,50.27c0.545,1.135,1.458,1.902,2.881,2.16
	C59.637,52.961,58.287,51.521,58.015,50.27z"/>
<path fill-rule="evenodd" clip-rule="evenodd" fill="#222121" d="M61.135,52.429c1.186-0.174,1.773-0.947,2.4-1.68
	C63.063,51.55,62.311,53.105,61.135,52.429z"/>
<path fill-rule="evenodd" clip-rule="evenodd" fill="#BEBDBD" d="M61.615,50.029c0.97-0.229,0.677-1.723,1.439-2.16
	C62.648,48.662,62.787,50.001,61.615,50.029z"/>
<path fill-rule="evenodd" clip-rule="evenodd" fill="#BEBDBD" d="M52.735,48.349c0.363-0.694-0.351-1.094,0.72-1.2
	c0,0.48,0,0.96,0,1.44c-0.08,0-0.16,0-0.24,0C53.208,48.356,52.921,48.403,52.735,48.349z"/>
<path fill-rule="evenodd" clip-rule="evenodd" fill="#BEBDBD" d="M47.215,50.029c0-0.64,0-1.28,0-1.92
	c0.701-0.259,1.383-0.538,2.4-0.48c-0.109,1.149,0.26,1.819,0.96,2.16c1.308,0.108,1.811-0.589,2.16-1.44
	c0.187,0.054,0.474,0.007,0.48,0.24c0,0.16,0,0.32,0,0.48c-0.346,1.334-2.149,1.211-2.64,2.4c-0.08,0-0.16,0-0.24,0
	c-0.613,0.027-0.84,0.44-1.2,0.72C48.182,51.783,47.612,50.993,47.215,50.029z"/>
<path fill-rule="evenodd" clip-rule="evenodd" fill="#BEBDBD" d="M47.215,50.029c0.397,0.963,0.967,1.753,1.92,2.16
	c0.36-0.28,0.586-0.693,1.2-0.72c-0.48,0.399-0.889,0.871-1.68,0.96C48.242,51.563,47.14,51.384,47.215,50.029z"/>
<path fill-rule="evenodd" clip-rule="evenodd" fill="#BEBDBD" d="M50.575,51.469c0.491-1.189,2.294-1.066,2.64-2.4
	C53.19,50.724,51.389,50.604,50.575,51.469z"/>
<path fill-rule="evenodd" clip-rule="evenodd" fill="#BEBDBD" d="M52.735,65.149c0.445-0.675,1.142-1.099,1.68-1.68
	c0.08,0,0.16,0,0.24,0C54.163,64.177,53.588,64.803,52.735,65.149z"/>
<path fill-rule="evenodd" clip-rule="evenodd" fill="#BEBDBD" d="M44.815,64.909c0.054-0.346,0.716-0.084,0.72-0.479
	c1.105,2.919,4.902,2.141,6.96,0.72c-1.856,1.617-5.784,2.806-6.72-0.48C45.562,64.855,45.233,64.928,44.815,64.909z"/>
<path fill-rule="evenodd" clip-rule="evenodd" fill="#BEBDBD" d="M43.375,65.149c-0.333,0.547-1.67,0.09-2.4,0.24
	c0.338,0.857,0.875,0.801,0.48,1.92c-0.703-0.063-0.737,0.542-1.44,0.479c-0.168,0.889,1.026,0.414,1.2,0.96
	c-0.906,0.106-1.126-0.473-1.68-0.72c0.395-0.725,1.665-0.575,1.92-1.44c-0.165-0.955-1.67-0.569-1.68-1.68
	C40.564,65.4,42.206,65.039,43.375,65.149z"/>
<path fill-rule="evenodd" clip-rule="evenodd" fill="#BEBDBD" d="M42.655,69.47c0.719,0.157-0.229,0.513,0,0.96
	c1.223,0.103,2.828-1.58,3.36,0c-1.041-1.091-2.331,0.567-4.08,0.239C41.755,69.85,42.91,70.364,42.655,69.47z"/>
<path fill-rule="evenodd" clip-rule="evenodd" fill="#BEBDBD" d="M47.695,71.39c-0.588,0.372-1.562,0.357-2.4,0.479
	c-0.113-0.753,0.646-0.634,0.72-1.2c0.708,0.209-0.557,0.359-0.24,0.96C46.483,71.588,47.261,70.983,47.695,71.39z"/>
<path fill-rule="evenodd" clip-rule="evenodd" fill="#BEBDBD" d="M47.935,71.149c0.618-1.633,3.063-0.308,4.08-1.2
	c0.867,0.253,1.329,0.911,1.92,1.44c0.539-0.102,0.006-1.273,0.48-1.44c1.565-0.185,2.334,1.09,3.6,0.48
	c-0.125-0.355-0.354-0.605-0.479-0.96c0.42,0.329,1.144,0.988,0.72,1.439c-1.73,0.291-2.267-0.612-3.6-0.72
	c-0.646,0.283,0,1.251,0,1.68c-1.419-0.102-1.599-1.441-2.88-1.68c-0.806,0.219-0.119,0.446-0.24,1.2
	C50.48,70.104,49.178,70.363,47.935,71.149z"/>
<path fill-rule="evenodd" clip-rule="evenodd" fill="#BEBDBD" d="M59.695,67.789c0.379,0.422,1.102,0.498,1.2,1.2
	c-1.521,0.427-2.16-0.473-3.36-0.96c-0.562,0.062-0.138,1.055,0,1.2c-0.658-0.005-0.57-1.133-0.24-1.44
	c1.168,0.032,1.346,1.055,2.88,0.721C60.02,68.266,59.623,68.261,59.695,67.789z"/>
<path fill-rule="evenodd" clip-rule="evenodd" fill="#BEBDBD" d="M59.695,67.55c-0.233-0.007-0.187-0.294-0.24-0.48
	c0.679-0.602,2.682,0.121,3.36-0.48c-0.071-0.889-1.813-0.107-1.681-1.199c0.67,0.53,1.622,0.777,2.88,0.72
	C63.607,67.621,60.504,66.438,59.695,67.55z"/>
<path fill-rule="evenodd" clip-rule="evenodd" fill="#BEBDBD" d="M60.655,64.43c0.524-0.341,1.236,0.128,2.16-0.24
	c0.008,0.728-0.843,0.598-1.44,0.72C61.416,63.961,61.007,64.986,60.655,64.43z"/>
<path fill-rule="evenodd" clip-rule="evenodd" fill="#BEBDBD" d="M57.295,63.949c1.732-0.076,2.277,0.469,2.88,0.48
	C59.535,64.822,58.529,64.175,57.295,63.949z"/>
<path fill-rule="evenodd" clip-rule="evenodd" fill="#BEBDBD" d="M63.775,90.829c0.714-0.565,1.478-1.082,1.92-1.92
	c3.09,2.242,0.378,6.454-0.24,8.88c-1.234-1.726-2.387-3.533-3.6-5.279C62.708,92.163,63.283,91.537,63.775,90.829z"/>
<path fill-rule="evenodd" clip-rule="evenodd" fill="#BEBDBD" d="M65.455,97.789c-0.046,0.194-0.241,0.239-0.24,0.48
	c0.375-1.463-3.832-4.272-3.84-5.28c-0.004-0.542,1.685-1.565,2.4-2.16c-0.492,0.708-1.067,1.334-1.92,1.681
	C63.068,94.256,64.221,96.063,65.455,97.789z"/>
<path fill-rule="evenodd" clip-rule="evenodd" fill="#BEBDBD" d="M54.175,94.43c-0.021,0.654,0.4,0.482,0,0.96
	c0.528-0.272,0.797-0.803,1.44-0.96c-0.55,0.49-0.907,1.173-1.92,1.199c0.202-0.278,0.317-0.643,0.24-1.199
	C54.015,94.43,54.095,94.43,54.175,94.43z"/>
<path fill-rule="evenodd" clip-rule="evenodd" fill="#BEBDBD" d="M55.855,94.43c0.833-0.928,2.175-1.345,3.12-2.16
	c-0.264-1.336-0.979-2.221-1.919-2.88c-1.629,0.611-2.019,2.461-2.64,4.08c0.094-2.146,1.187-3.294,2.4-4.32
	c1.299,0.461,1.93,1.59,2.4,2.88C58.604,93.338,56.98,93.635,55.855,94.43z"/>
<path fill-rule="evenodd" clip-rule="evenodd" fill="#BEBDBD" d="M54.415,93.47c0.621-1.619,1.011-3.469,2.64-4.08
	c0.94,0.659,1.656,1.544,1.919,2.88c-0.944,0.815-2.287,1.232-3.12,2.16c-0.08,0-0.16,0-0.24,0c-0.643,0.157-0.913,0.688-1.44,0.96
	c0.4-0.478-0.021-0.306,0-0.96C54.073,93.928,54.339,93.794,54.415,93.47z"/>
<path fill-rule="evenodd" clip-rule="evenodd" fill="#BEBDBD" d="M54.655,63.47c1.22,0.088,2.018,0.374,2.64,0.479
	c1.234,0.226,2.24,0.873,2.88,0.48c0.16,0,0.32,0,0.48,0c0.352,0.557,0.761-0.469,0.72,0.479c-0.046,0.194-0.241,0.239-0.24,0.48
	c-0.132,1.092,1.609,0.311,1.681,1.199c-0.679,0.602-2.682-0.121-3.36,0.48c0.054,0.187,0.007,0.474,0.24,0.48
	c0,0.079,0,0.159,0,0.239c-0.072,0.472,0.324,0.477,0.479,0.721c-1.534,0.334-1.712-0.688-2.88-0.721
	c-0.33,0.308-0.417,1.436,0.24,1.44c0,0.08,0,0.16,0,0.24c0.125,0.354,0.355,0.604,0.479,0.96c-1.265,0.609-2.035-0.665-3.6-0.48
	c-0.474,0.167,0.059,1.339-0.48,1.44c-0.591-0.529-1.053-1.188-1.92-1.44c-1.017,0.893-3.462-0.433-4.08,1.2
	c-0.204-0.044-0.227,0.094-0.24,0.24c-0.434-0.406-1.212,0.198-1.92,0.239c-0.317-0.601,0.949-0.751,0.24-0.96
	c0-0.08,0-0.159,0-0.239c-0.533-1.58-2.137,0.103-3.36,0c-0.229-0.447,0.719-0.803,0-0.96c-0.203-0.518-1.053-0.388-1.44-0.721
	c-0.174-0.546-1.368-0.071-1.2-0.96c0.703,0.063,0.737-0.542,1.44-0.479c0.396-1.119-0.142-1.063-0.48-1.92
	c0.729-0.15,2.067,0.307,2.4-0.24c0.565,0.005,0.707-0.413,1.44-0.24c0.418,0.019,0.747-0.054,0.96-0.24
	c0.936,3.286,4.864,2.098,6.72,0.48c0.08,0,0.16,0,0.24,0C53.588,64.803,54.163,64.177,54.655,63.47z"/>
<path fill-rule="evenodd" clip-rule="evenodd" fill="#BEBDBD" d="M62.575,96.35c3.473,3.584,0.864,8.594,0,13.439
	c-0.441,0.541-0.975,2.178-0.72,3.12c0,0.16,0,0.32,0,0.48c-0.721,0-1.44,0-2.16,0c-0.102-0.502,0.164-0.636,0.239-0.96
	c0.554-0.647,0.086-2.315,0.24-3.36c-0.476-0.473-0.152-1.371,0-1.92c0.554-0.727,0.085-2.476,0.24-3.6
	c-0.253-1.831-0.429-3.149,0.48-5.04C61.63,97.965,61.832,96.886,62.575,96.35z"/>
<path fill-rule="evenodd" clip-rule="evenodd" fill="#BEBDBD" d="M55.135,97.069c0.381,1.205,0.897,2.316,0.48,3.36
	c-1.005,0.595-1.04,2.16-1.68,3.12c-0.269,1.217-0.246,1.401-0.72,2.159c-0.602,0.679-0.719,1.842-0.96,2.881
	c0.464,0.77-0.304,1.048-0.24,1.68c-0.08,0-0.16,0-0.24,0c-0.031,0.653-0.458,1.837-0.24,2.399c0,0.24,0,0.48,0,0.721
	c-0.4,0-0.8,0-1.2,0c0.621-2.789,0.81-4.64,1.44-7.2c0.08,0,0.16,0,0.24,0c-0.168-1.048,0.408-1.352,0.24-2.4
	c-0.076-0.557,0.039-0.921,0.24-1.199C53.215,100.59,52.864,97.519,55.135,97.069z"/>
<path fill-rule="evenodd" clip-rule="evenodd" fill="#BEBDBD" d="M67.855,37.549c2.986-0.626,6.415-2.048,9.6-1.68
	c0.927,0.286,1.16,1.188,0.48,1.92c-0.141,0.889,0.881,1.126,1.92,1.44c0.472,0.888,0.321,2.398,1.439,2.64c0,0.08,0,0.16,0,0.24
	c0.284,0.116,0.544,0.256,0.72,0.48c0.282,0.636-0.46,1.413,0,1.44c0,0.08,0,0.16,0,0.24c1.018,1.361-1.547,2.748,0,3.84
	c0,0.08,0,0.16,0,0.24c-0.145,0.895-1.103,0.977-1.199,1.92c0.103,0.457,0.517,0.603,0.479,1.2c-0.27,0.051-0.373,0.267-0.479,0.48
	c0.076,0.557-0.039,0.921-0.24,1.2c-0.484,0.406-1.216,1.81-1.68,1.44c0.09-1.59,0.639-2.721,0.479-4.56
	c0.492-1.621-1.397-1.839-0.72-2.88c0.346-0.134,0.585-0.375,0.72-0.72c1.031-0.489,0.915-2.125,0.96-3.6
	c-0.647-0.566-1.612,0.398-0.96,0.96c0,0.08,0,0.16,0,0.24c0.014,2.887-4.505,0.805-4.8-0.48c-0.282,0.038-0.682-0.042-0.72,0.24
	c-0.489,0.724,0.09,2.038,0.72,2.4c0.075,0.324,0.342,0.458,0.24,0.96c-1.35,0.573-1.918-0.281-2.641-0.96
	c-0.026-0.613-0.439-0.84-0.72-1.2c0.113-0.632,0.188-0.808,0.72-1.44c0.528-0.39-1.204-0.54-1.439-0.96
	c-0.054-0.187-0.007-0.474-0.24-0.48c-0.434-0.687,0.062-1.44,0-2.88c-2.148,2.2,0.39,5.211,0.479,8.16
	c0.019,0.617,1.118,0.343,0.48,0.96c0,0.08,0,0.16,0,0.24c-0.746,0.516,1.287,2.7-0.24,3.6c0.182,0.623,0.742,1.587,0.24,2.16
	c-0.881,1.333,1.021,2.238,0.24,3.6c-0.187,1.307,0.494,1.745,0.72,2.64c-0.133,0-0.272,0.195,0,0.24
	c-0.761,0.964-2.587,0.733-3.36,0c-0.126-0.906-0.337-1.127,0.24-1.68c0.211-0.771-0.622-0.498-0.72-0.96
	c-0.129-1.089,0.482-1.438,0.72-2.16c0.557-0.267-0.468-0.95-0.72-1.2c0-0.24,0-0.48,0-0.72c0.125-0.355,0.354-0.605,0.479-0.96
	c1.301-1.025-0.111-2.943-0.72-3.6c0-0.08,0-0.16,0-0.24c0.586-0.534,1.154-1.086,1.2-2.16c-1.113-1.017-1.509-2.572-0.72-4.32
	c0-0.4,0-0.8,0-1.2C69.093,40.732,66.103,39.207,67.855,37.549z"/>
<path fill-rule="evenodd" clip-rule="evenodd" fill="#222121" d="M30.415,113.39c0.279-4.36,0.84-8.44,3.36-10.561
	c0.813-0.067,1.378-0.382,2.4-0.239c3.071-2.289,6.218-4.503,10.08-6c2-2.561,4.68-4.44,7.68-6c1.253-1.86,3.251-2.268,2.4-5.761
	c-4.42-0.619-4.573-5.507-5.28-9.84c-1.335-0.585-2.229-1.61-3.36-2.4c-0.831,0.37-2.188,0.213-3.36,0.24
	c-1.363-0.054-0.147-1.259-1.44-1.2c-6.732,3.17-0.806,15.117-6.48,19.681c-3.854,3.099-8.233,0.896-10.32-2.4
	c-1.115-1.761-3.637-7.381-3.12-10.08c0.775-4.051,9.879-4.188,12.72-2.64c1.287-2.394,2.202-5.158,5.04-6
	c-0.173-1.347-2.111-0.929-2.16-2.4c-0.75-0.73,1.384-1.035,0.48-1.92c-0.548-0.525-0.89-1.738-0.24-2.16
	c2.573,0.513,5.251,0.253,6.96-0.479c1.392-7.598-1.687-14.845,1.92-20.88c-0.85-2.038-0.071-3.679,0.24-5.76
	c-2.76-1.16-5.736-2.104-6.72-5.04c1.128-2.059,4.23-0.006,6,0.24c0.435-12.191,4.17-22.151,16.32-21.12
	c7.934,0.673,11.487,7.844,11.28,17.04c5.974-0.867,8.177,4.388,4.08,7.2c0.73,0.945,0.797,1.67,0.479,2.88
	c2.907,2.629,5.055,5.756,3.84,10.8c-0.104,0.437-0.87,0.933-0.96,1.44c-0.09,0.509,0.361,1.198,0.24,1.68
	c-0.978,3.894-4.405,6.847-6.24,8.64c-0.819-0.061-1.153-0.607-2.16-0.48c-0.101,1.841-2.261,2.428-3.12,3.84
	c-0.666,1.096-0.573,3.434-0.96,5.28c-1.314,6.279-2.49,12.841-4.08,18c0.602,1.479,2.057,2.104,2.4,3.84
	c3.171-0.008,4.737,2.219,6.96,4.08c1.369,1.147,3.614,2.142,5.521,3.36c1.853,1.185,3.719,3.013,5.279,3.84
	c0.862,0.456,2.095,0.358,2.88,0.96c2.655,2.032,2.662,6.761,3.601,10.32c-10.24,0-20.48,0-30.72,0c0-0.16,0-0.32,0-0.48
	c0.471-0.809,0.693-1.865,0.72-3.12c0.864-4.846,3.473-9.855,0-13.439c-0.584-0.255-1.261,1.451-1.68,2.16
	c-0.909,1.891-0.733,3.209-0.48,5.04c-0.554,0.726-0.085,2.475-0.24,3.6c-0.152,0.549-0.476,1.447,0,1.92
	c-0.553,0.647-0.085,2.314-0.24,3.36c-0.075,0.324-0.341,0.458-0.239,0.96c-2.72,0-5.44,0-8.16,0c0-0.24,0-0.48,0-0.721
	c0.364-0.596,0.463-1.456,0.48-2.399c-0.064-0.632,0.704-0.91,0.24-1.68c0.553-0.728,0.667-1.894,0.96-2.881
	c0.474-0.758,0.452-0.942,0.72-2.159c0.865-0.735,1.04-2.16,1.68-3.12c0.417-1.044-0.099-2.155-0.48-3.36
	c-1.83-0.067-2.67,2.928-2.64,5.521c-0.202,0.278-0.316,0.643-0.24,1.199c-0.08,0-0.16,0-0.24,0c0.08,0.96-0.428,1.332-0.24,2.4
	c-0.63,2.561-0.819,4.411-1.44,7.2C43.695,113.39,37.055,113.39,30.415,113.39z M77.455,35.869c-3.185-0.368-6.613,1.054-9.6,1.68
	c-1.936,1.174,0.284,3.25,0.96,4.08c0,0.4,0,0.8,0,1.2c-1.243,1.4-0.578,3.556,0.479,4.56c-0.053,0.907-0.754,1.166-0.96,1.92
	c0,0.08,0,0.16,0,0.24c-0.262,0.644,1.846,2.073,0.72,3.6c-0.125,0.355-0.354,0.605-0.479,0.96c-0.521-0.041-0.108,0.851-0.24,1.2
	c0.601-0.041,0.751,0.369,0.96,0.72c-0.237,0.722-0.849,1.071-0.72,2.16c0.098,0.462,0.931,0.189,0.72,0.96c-0.08,0-0.16,0-0.24,0
	c-2.262,2.351,3.674,3.606,3.36,1.439c-0.226-0.895-0.906-1.333-0.72-2.64c0.08,0,0.16,0,0.24,0c0.674-1.524-0.712-1.86-0.48-3.6
	c0.502-0.572-0.059-1.537-0.24-2.16c0.08,0,0.16,0,0.24,0c1.373-0.83-0.096-2.858,0-3.6c0-0.08,0-0.16,0-0.24
	c0.324,0.076,0.458,0.342,0.96,0.24c-0.033-0.447-0.158-0.802-0.479-0.96c-0.067,0.567-0.642-0.275-0.961-0.24
	c-0.09-2.949-2.628-5.96-0.479-8.16c0.062,1.439-0.434,2.193,0,2.88c-0.229,1.269,1.009,1.071,1.68,1.44
	c-0.531,0.632-0.606,0.808-0.72,1.44c0.28,0.36,0.693,0.587,0.72,1.2c0,0.32,0,0.64,0,0.96c1.233,0.3,2.289,0.406,4.32,0
	c0.23-1.19-1.517-0.403-1.92-0.96c-0.63-0.362-1.209-1.677-0.72-2.4c0.08,0,0.159,0,0.239,0c0.914,1.221,5.104,3.661,5.28,0.24
	c0-0.08,0-0.16,0-0.24c-0.144-0.624,0.097-0.863,0.72-0.72c0.091,1.451-0.236,2.484-0.72,3.36c-0.135,0.346-0.374,0.586-0.72,0.72
	c-0.4,0-0.8,0-1.2,0c0.831,0.769,1.688,1.512,1.92,2.88c0.159,1.839-0.39,2.97-0.479,4.56c-0.188,0.053-0.279,0.201-0.24,0.48
	c-0.134,0.489-0.723,0.471-0.24,0.96c-0.37,0.186-1.513,1.629-0.479,1.68c0.102-0.36,0.285-1.69,1.439-1.68
	c-0.486-1.847,1.198-1.522,1.2-2.88c0.201-0.279,0.316-0.644,0.24-1.2c1.193-0.177,0.496-1.297,0.239-1.92
	c0.182-0.553,1.483-1.219,0.96-1.68c0-0.08,0-0.16,0-0.24c-1.099-1.426,1.535-2.689,0-3.84c0-0.08,0-0.16,0-0.24
	c0.537-0.104,0.098-1.183,0.24-1.68c-0.354-0.125-0.604-0.355-0.96-0.48c-1.118-0.241-0.968-1.751-1.439-2.64
	c-1.039-0.314-2.061-0.552-1.92-1.44c0.846-0.339,0.757-1.318,0.239-1.92C77.936,35.869,77.695,35.869,77.455,35.869z
	 M49.135,38.509c0.87-0.41,2.054-0.506,3.36-0.48c-0.473-0.887-2.105-0.615-3.36-0.72C49.278,37.737,48.432,38.306,49.135,38.509z
	 M64.255,39.949c-1.51-0.863-4.604-0.691-6.24-0.72c1.204-2.688-2.832-0.665-3.84-1.44c0.026,1.095,1.861,0.38,1.44,1.92
	c-2.314,0.018-4.719-1.487-7.2,0.24c0.756,1.395,2.466-0.092,3.6,0.24c2.312,0.676,3.189,4.435,2.64,7.92
	c-0.486,3.083-3.041,3.125-5.04,5.28c-2.268,2.444-2.9,7.949-2.16,12c4.396-0.004,6.522-2.278,7.92-5.28
	c-0.279-0.441-1.273-0.166-0.96-1.2c1.153-0.112,1.986,0.094,2.16,0.96c0.313,1.433-0.757,1.483-0.72,2.641
	c2.724,0.045,5.223,1.23,9.12,0c0.277,1.508-0.512,2.104,0.48,3.359c-2.188,1.422-1.916,3.834-5.04,4.32
	c0.413,2.333-2.619,1.222-3.6,2.16c0.389-0.172,0.389,1.132,0,0.96c-2.662-0.547-4.873-0.902-7.68-1.681
	c-0.604,2.004,2.788,1.983,3.84,3.12c0.095,0.575-1.093-0.133-0.72,0.721c0.98,2.697,0.364,6.264,2.4,7.68
	c1.441,1.003,3.079,0.006,4.56,1.2c-0.026,0.613-0.804,0.477-1.44,0.479c-0.453,3.598,1.368,4.629,2.88,6.721
	c1.095-0.569,2.637-1.95,4.08-2.881c1.906-8.973,4.023-15.671,4.8-26.159c-3.951-0.48-0.834-5.813-2.4-7.92
	c0.233-1.047,0.832-1.728,1.2-2.64c-1.724-0.499-0.726-3.251-0.24-4.32c-2.013-0.878-0.735-3.444-0.479-5.28
	c-0.954-1.058-2.654-2.338-1.681-4.56c-0.404-0.285-2.867,0.044-3.359,0.24C63.027,38.777,64.466,38.539,64.255,39.949z
	 M47.455,46.909c2.213-0.589,4.138-0.72,6-1.2C54.021,38.872,46.486,41.207,47.455,46.909z M53.215,48.589c0.08,0,0.16,0,0.24,0
	c0-0.48,0-0.96,0-1.44c-1.071,0.106-0.357,0.506-0.72,1.2c-0.349,0.851-0.852,1.548-2.16,1.44c-0.7-0.34-1.069-1.011-0.96-2.16
	c-1.018-0.058-1.7,0.221-2.4,0.48c0,0.64,0,1.28,0,1.92c-0.075,1.355,1.027,1.534,1.44,2.4c0.791-0.089,1.2-0.561,1.68-0.96
	c0.08,0,0.16,0,0.24,0c0.814-0.866,2.615-0.745,2.64-2.4C53.215,48.909,53.215,48.75,53.215,48.589z M73.135,49.309
	c0.134,1.442,0.394,1.985-0.479,3.12c1.282-0.936,3.218-3.033,5.28-1.68C78.042,47.636,74.591,48.103,73.135,49.309z M78.175,51.229
	c-0.658-0.398-1.107,0.354-1.92,0.24c0.014,2.714-1.462,6.021-2.88,5.76c0.629-1.452,1.736-2.424,1.44-4.8
	c-0.979-0.178-0.827,0.773-1.92,0.48c-0.021,2.566-0.768,4.085,0.72,6C76.47,57.397,78.107,54.232,78.175,51.229z M47.455,54.829
	c0.263-0.537,0.397-1.202,0.72-1.68c-0.355-0.125-0.604-0.355-0.96-0.48C47.364,53.321,46.91,54.574,47.455,54.829z M54.655,63.47
	c-0.08,0-0.16,0-0.24,0c-0.539,0.581-1.235,1.005-1.68,1.68c-0.08,0-0.16,0-0.24,0c-2.058,1.421-5.854,2.199-6.96-0.72
	c-0.004,0.396-0.666,0.134-0.72,0.479c-0.733-0.173-0.875,0.245-1.44,0.24c-1.169-0.11-2.811,0.251-3.6-0.24
	c0.01,1.11,1.515,0.725,1.68,1.68c-0.255,0.865-1.525,0.716-1.92,1.44c0.553,0.247,0.774,0.826,1.68,0.72
	c0.387,0.333,1.237,0.203,1.44,0.721c0.255,0.895-0.9,0.38-0.72,1.199c1.75,0.328,3.039-1.33,4.08-0.239c0,0.08,0,0.159,0,0.239
	c-0.074,0.566-0.833,0.447-0.72,1.2c0.838-0.122,1.812-0.107,2.4-0.479c0.014-0.146,0.036-0.284,0.24-0.24
	c1.243-0.786,2.545-1.046,3.6,0.24c0.121-0.754-0.566-0.981,0.24-1.2c1.281,0.238,1.461,1.578,2.88,1.68c0-0.429-0.646-1.396,0-1.68
	c1.333,0.107,1.869,1.011,3.6,0.72c0.424-0.451-0.299-1.11-0.72-1.439c0-0.08,0-0.16,0-0.24c-0.138-0.146-0.562-1.139,0-1.2
	c1.2,0.487,1.84,1.387,3.36,0.96c-0.099-0.702-0.821-0.778-1.2-1.2c0-0.08,0-0.16,0-0.239c0.809-1.111,3.912,0.071,4.319-1.44
	c-1.258,0.058-2.21-0.189-2.88-0.72c-0.001-0.241,0.194-0.286,0.24-0.48c0.598-0.122,1.448,0.008,1.44-0.72
	c-0.924,0.368-1.636-0.101-2.16,0.24c-0.16,0-0.32,0-0.48,0c-0.603-0.012-1.147-0.557-2.88-0.48
	C56.673,63.844,55.875,63.558,54.655,63.47z M38.575,73.789c1.358-0.161,1.694-1.345,2.16-2.399c-0.051-0.27-0.266-0.374-0.48-0.48
	C39.752,71.926,38.412,72.106,38.575,73.789z M65.455,97.789c0.618-2.426,3.33-6.638,0.24-8.88c-0.442,0.838-1.206,1.354-1.92,1.92
	c-0.716,0.595-2.404,1.618-2.4,2.16c0.008,1.008,4.215,3.817,3.84,5.28C65.214,98.028,65.409,97.983,65.455,97.789z M55.855,94.43
	c1.125-0.795,2.749-1.092,3.36-2.4c-0.47-1.29-1.101-2.419-2.4-2.88c-1.213,1.026-2.306,2.174-2.4,4.32
	c-0.076,0.324-0.342,0.458-0.24,0.96c-0.08,0-0.16,0-0.24,0c0.077,0.557-0.039,0.921-0.24,1.199c1.013-0.026,1.371-0.709,1.92-1.199
	C55.695,94.43,55.775,94.43,55.855,94.43z"/>
<path fill-rule="evenodd" clip-rule="evenodd" fill="#222121" d="M58.975,40.429c-0.486,1.709-1.234,3.198-1.2,4.8
	c1.916,0.926,5.149,0.66,5.76,1.68c0.821-1.544-0.555-4.825-1.92-5.76c-1.034-0.366-1.698,0.304-2.4-0.48
	c7.938-3.943,8.272,18.446-1.44,12.24C55.463,49.272,55.857,42.287,58.975,40.429z M61.615,50.029
	c-1.884,0.124-2.267-1.253-2.16-3.12c-0.691,0.029-1.571-0.131-1.92,0.24c-0.081,1.28,0.298,2.101,0.479,3.12
	c0.272,1.252,1.622,2.691,2.881,2.16c0.079,0,0.159,0,0.239,0c1.176,0.676,1.929-0.879,2.4-1.68c0.094-0.817,1.261-3.062-0.48-2.88
	C62.292,48.307,62.585,49.8,61.615,50.029z"/>
</svg>
