<?xml version="1.0" encoding="utf-8"?>
<!-- Generator: Adobe Illustrator 15.1.0, SVG Export Plug-In . SVG Version: 6.00 Build 0)  -->
<!DOCTYPE svg PUBLIC "-//W3C//DTD SVG 1.1//EN" "http://www.w3.org/Graphics/SVG/1.1/DTD/svg11.dtd">
<svg version="1.1" id="Ebene_1" xmlns="http://www.w3.org/2000/svg" xmlns:xlink="http://www.w3.org/1999/xlink" x="0px" y="0px"
	 width="113.39px" height="113.39px" viewBox="0 0 113.39 113.39" enable-background="new 0 0 113.39 113.39" xml:space="preserve">
<g>
	<path fill-rule="evenodd" clip-rule="evenodd" fill="#C9482A" d="M49.254,19.79c0.587,1.363-0.778,1.419-1.2,2.4
		c5.815-3.223,7.418,7.27,0.96,6.24c3.134,4.265-4.552,7.964-6.48,4.32c-0.195,3.262-6.375,3.006-6.24-0.48
		c-0.095-1.055,1.293-0.627,1.44-1.44c-0.38-0.5-1.679-0.081-2.16-0.48c-1.586-3.446-0.313-7.929,3.12-8.88
		c1.055-0.095,0.626,1.293,1.44,1.44C39.693,18.472,46.9,17.771,49.254,19.79z M48.774,28.43c2.587-7.475-9.155-6.571-10.56-1.92
		c-0.199,3.159,0.927,4.993,3.36,5.52c-0.66-1.85-2.598-2.352-2.16-4.8c0.691-3.869,9.871-5.42,8.64-0.24
		c-0.203,0.854-0.837,1.222-2.16,1.68c0.42,2.34-1.764,2.076-2.64,3.12C45.951,33.157,46.669,29.168,48.774,28.43z M42.535,28.91
		c0.039-0.759-0.638-0.802-0.48-1.68c0.902-1.257,2.996-1.324,4.32-2.16C44.105,23.427,38.256,27.567,42.535,28.91z M43.975,28.43
		c1.092,0.229,1.511-1.009,0.96-1.68C44.107,26.786,43.491,27.826,43.975,28.43z"/>
	<path fill-rule="evenodd" clip-rule="evenodd" fill="#1E1D1D" d="M43.254,31.79c0.876-1.044,3.061-0.78,2.64-3.12
		c1.323-0.458,1.957-0.826,2.16-1.68c1.231-5.18-7.949-3.628-8.64,0.24c-0.438,2.448,1.5,2.95,2.16,4.8
		c-2.433-0.527-3.559-2.361-3.36-5.52c1.405-4.651,13.147-5.555,10.56,1.92C46.669,29.168,45.951,33.157,43.254,31.79z"/>
	<path fill-rule="evenodd" clip-rule="evenodd" fill="#1E1D1D" d="M46.375,25.07c-1.324,0.836-3.417,0.903-4.32,2.16
		c-0.158,0.878,0.519,0.92,0.48,1.68C38.256,27.567,44.105,23.427,46.375,25.07z"/>
	<path fill-rule="evenodd" clip-rule="evenodd" fill="#1E1D1D" d="M44.935,26.75c0.551,0.671,0.132,1.909-0.96,1.68
		C43.491,27.826,44.107,26.786,44.935,26.75z"/>
	<path fill-rule="evenodd" clip-rule="evenodd" fill="#1E1D1D" d="M55.015,40.43c-1.652,0.771-4.72-1.183-7.44-0.72
		c-1.35,0.23-2.023,1.9-3.12,0.72C46.932,36.463,51.805,38.105,55.015,40.43z"/>
	<path fill-rule="evenodd" clip-rule="evenodd" fill="#9A5A2D" d="M69.654,46.19c-1.401,2.452-5.412,2.382-7.68,2.16
		C60.067,42.196,69.137,39.817,69.654,46.19z"/>
	<path fill-rule="evenodd" clip-rule="evenodd" fill="#A1482A" d="M71.095,44.03c-0.923,1.128,2.338,2.201,0,2.64
		c0.71-1.172-0.78-1.196-0.96-2.16C70.192,44.087,70.548,43.963,71.095,44.03z"/>
	<path fill-rule="evenodd" clip-rule="evenodd" fill="#1E1D1D" d="M54.294,58.189c1.468,0.612,1.847,2.313,3.36,2.88
		c1.974-0.025,2.468-1.53,3.6-2.399C60.563,63.486,54.708,62.408,54.294,58.189z"/>
	<path fill-rule="evenodd" clip-rule="evenodd" fill="#1E1D1D" d="M64.135,63.229c0.89,0.87,1.473,2.048,2.16,3.12
		c-0.579,0.099-0.522-0.438-1.2-0.24c-1.353,3.218-2.835,6.596-6.24,6.48c-3.237-0.109-4.308-2.785-7.2-4.08
		c1.326-1.234,3.542-1.578,4.8-2.88c0.458,0.342,1.042,0.558,1.68,0.72c1.064,0.025,0.833-1.246,1.68-1.439
		c1.909,0.278,2.536,0.211,4.561-0.24C64.135,64.084,64.295,64.158,64.135,63.229z M58.375,67.55
		c-0.601-0.199-0.943-0.657-1.681-0.72c-0.787,0.333-1.616,0.624-1.92,1.439c3.042,1.081,6.761-0.125,8.4-2.399
		C60.492,65.522,60.14,66.656,58.375,67.55z M54.774,69.229c1.373,3.676,8.459,2,7.92-1.439
		C61.094,69.465,57.663,70.212,54.774,69.229z"/>
	<path fill-rule="evenodd" clip-rule="evenodd" fill="#A1482A" d="M63.175,65.87c-1.64,2.274-5.359,3.48-8.4,2.399
		c0.304-0.815,1.133-1.106,1.92-1.439c0.738,0.063,1.08,0.521,1.681,0.72C60.14,66.656,60.492,65.522,63.175,65.87z"/>
	<path fill-rule="evenodd" clip-rule="evenodd" fill="#A1482A" d="M62.694,67.79c0.539,3.439-6.547,5.115-7.92,1.439
		C57.663,70.212,61.094,69.465,62.694,67.79z"/>
	<path fill-rule="evenodd" clip-rule="evenodd" fill="#C9482A" d="M41.334,94.91c-0.153,0.549-0.476,1.447,0,1.92
		c1.503,0.017,1.259-0.222,2.64-0.24c-1.562,2.943,0.85,4.442,3.6,3.12c0.376,1.301,0.173,3.444,1.68,3.84
		c1.563,0.409,1.606-1.153,3.36-1.2c-0.245,3.103,3.081,3.021,4.56,1.44c1.441,0.56,1.957,2.043,3.84,2.159
		c0.887-0.232,1.087-1.152,1.2-2.159c1.719,0.1,2.737,1.582,4.319,0.479c-0.139-0.939,0.207-1.394,0.48-1.92
		c0.926,0.034,1.109,0.811,2.16,0.72c1.431-0.107,1.341-1.243,1.439-2.159c1.078-0.203,1.844-0.717,2.88-0.961
		c0.023-1.143-1.102-1.138-1.199-2.159c1.45,0.171,2.182-0.379,2.64-1.2c0.147-1.028-0.781-0.979-0.72-1.92
		c1.396-0.197,1.873,0.526,2.399,1.2c1.877-0.331,3.572-0.971,5.04,0.96c-0.059,0.981-1.249,0.83-1.92,1.199
		c-0.194,1.314,1.07,1.17,0.96,2.4c-1.31,0.291-2.385,0.815-3.12,1.68c-0.252,1.053,0.812,0.789,0.721,1.681
		c-0.985,0.215-1.666,0.733-2.4,1.199c-0.452,1.125,0.504,1.567,0,2.641c-1.948-0.108-2.629,1.052-4.08,1.439
		c-0.078-0.562-1.047-0.232-1.2-0.72c-0.885,0.235-1.234,1.005-1.68,1.68c-2.261-1.438-4.315,2.038-6.48,0
		c-1.05,0.856-3.25,1.908-4.56,0.48c-0.802,0.158-1.174,0.746-1.92,0.96c-1.005-0.195-1.603-0.798-2.4-1.2
		c-1.613,1.654-3.077,0.205-5.52,0.24c0-0.32,0-0.64,0-0.96c-2.111-0.449-1.736-3.384-4.32-3.36c-0.002-0.638,0.091-1.37-0.24-1.68
		c-1.357,0.188-1.439,0.448-2.64,0.479c-0.647-0.717,0.997-0.6,0.48-1.92c-0.685-0.96-1.944,0.34-2.88-0.72
		c-0.206-0.766,0.378-0.742,0.48-1.2c-1.505-0.574-1.249-2.911-2.64-3.6c-0.037-0.678,0.679-0.602,0.96-0.96
		c-0.034-0.766-0.887-0.713-0.96-1.44c1.232-0.192,1.823,0.258,2.64,0.48C39.547,94.792,39.975,94.545,41.334,94.91z M45.655,104.27
		c-2.094-2.466-4.66-4.46-6-7.68c-0.597-0.026-0.743-0.45-1.2,0c1.097,4.023,4.581,5.659,6.72,8.64
		c0.877,0.158,0.92-0.52,1.68-0.479c0.486,1.461,0.983,3.55,3.12,2.64c1.062,2.155,3.102,1.056,5.04,1.68
		c0.115-0.755-0.342-0.938-0.48-1.439c-1.28-0.24-1.67,0.409-2.4,0.72c-0.488-0.632-0.825-1.415-1.2-2.16
		c-2.292,0.692-2.757-0.411-3.36-1.92C46.935,104.27,46.294,104.27,45.655,104.27z M77.574,98.029
		c0.076-0.324,0.342-0.458,0.24-0.96c-0.32,0-0.64,0-0.96,0C76.787,97.697,76.942,98.102,77.574,98.029z M75.414,100.43
		c1.01,0.608,1.15-0.441,2.16-0.48c-0.106-0.453,0.327-1.446-0.479-1.199C76.408,99.184,75.271,99.166,75.414,100.43z
		 M73.255,105.71c-0.225-1.185,0.256-1.664,1.439-1.44c0.672-1.021,0.178-1.729,0.72-2.88c-0.239,0-0.479,0-0.72,0
		C75.068,103.436,71.037,104.129,73.255,105.71z M68.694,107.149c1.083-0.65,1.773-0.233,3.36-0.24
		c0.216-0.424,0.579-0.7,0.72-1.199C71.468,105.777,68.633,104.775,68.694,107.149z M67.015,107.63c0.32,0,0.64,0,0.96,0
		C68.286,106.399,66.8,106.513,67.015,107.63z M62.454,108.35c-0.519-0.201-0.818-0.621-1.68-0.479
		c-0.164,0.636-1.331,0.269-1.2,1.199c1.547-0.311,1.574,0.188,2.88,0.48c0.928-1.073,2.166-1.099,3.601-1.2
		C65.713,106.125,63.283,107.688,62.454,108.35z M55.734,108.35c-0.072,0.633,0.333,0.788,0.96,0.72c0-0.319,0-0.64,0-0.96
		C56.276,108.092,55.948,108.163,55.734,108.35z M58.135,109.069c0.075-0.324,0.342-0.458,0.24-0.96c-0.24,0-0.48,0-0.72,0
		C57.587,108.656,57.712,109.012,58.135,109.069z"/>
	<path fill-rule="evenodd" clip-rule="evenodd" fill="#1E1D1D" d="M47.575,104.27c0.603,1.509,1.068,2.612,3.36,1.92
		c0.375,0.745,0.712,1.528,1.2,2.16c0.729-0.311,1.12-0.96,2.4-0.72c0.138,0.502,0.595,0.685,0.48,1.439
		c-1.938-0.624-3.978,0.476-5.04-1.68c-2.137,0.91-2.634-1.179-3.12-2.64c-0.759-0.04-0.802,0.638-1.68,0.479
		c-2.139-2.98-5.624-4.616-6.72-8.64c0.457-0.45,0.603-0.026,1.2,0c1.34,3.22,3.906,5.214,6,7.68
		C46.294,104.27,46.935,104.27,47.575,104.27z"/>
	<path fill-rule="evenodd" clip-rule="evenodd" fill="#1E1D1D" d="M76.854,97.069c0.32,0,0.64,0,0.96,0
		c0.102,0.502-0.164,0.636-0.24,0.96C76.942,98.102,76.787,97.697,76.854,97.069z"/>
	<path fill-rule="evenodd" clip-rule="evenodd" fill="#C9482A" d="M91.975,113.39c-22.561,0-45.12,0-67.68,0
		c0.361-5.957,3.816-18.774,12-14.64c-0.352,1.509,1.592,2.105,0.96,3.84c1.302,1.25,2.254,1.886,2.88,3.6
		c5.267-1.227,7.083,8.904,13.2,5.28c0.699,0.123,1.225,0.865,2.16,0.96c0.773,0.078,0.965-0.627,1.92-0.72
		c2.045-0.199,4.072,1.886,4.8-0.721c2.176,2.32,4.315-1.354,6.96,0c0.917,0.038,0.779-0.979,1.2-1.439
		c2.273,1.627,4.147-1.213,6.72-1.44c0-0.88,0-1.76,0-2.64c0.639-0.722,2.39-0.33,2.64-1.44c0.154-1.033-0.982-0.777-0.72-1.92
		c1.133-0.307,2.484-0.396,2.88-1.439c0.345-1.305-0.754-1.167-0.72-2.16c2.095-1.913,5.173,0.061,6.479,1.92
		C89.896,103.619,91.523,109.731,91.975,113.39z"/>
	<path fill-rule="evenodd" clip-rule="evenodd" fill="#1E1D1D" d="M77.095,98.75c0.807-0.247,0.373,0.746,0.479,1.199
		c-1.01,0.039-1.15,1.089-2.16,0.48C75.271,99.166,76.408,99.184,77.095,98.75z"/>
	<path fill-rule="evenodd" clip-rule="evenodd" fill="#1E1D1D" d="M74.694,101.39c0.24,0,0.48,0,0.72,0
		c-0.542,1.15-0.048,1.859-0.72,2.88c-1.184-0.224-1.664,0.256-1.439,1.44C71.037,104.129,75.068,103.436,74.694,101.39z"/>
	<path fill-rule="evenodd" clip-rule="evenodd" fill="#1E1D1D" d="M72.774,105.71c-0.141,0.499-0.504,0.775-0.72,1.199
		c-1.587,0.007-2.277-0.41-3.36,0.24C68.633,104.775,71.468,105.777,72.774,105.71z"/>
	<path fill-rule="evenodd" clip-rule="evenodd" fill="#1E1D1D" d="M67.975,107.63c-0.32,0-0.64,0-0.96,0
		C66.8,106.513,68.286,106.399,67.975,107.63z"/>
	<path fill-rule="evenodd" clip-rule="evenodd" fill="#1E1D1D" d="M66.055,108.35c-1.435,0.102-2.673,0.127-3.601,1.2
		c-1.306-0.293-1.333-0.791-2.88-0.48c-0.131-0.931,1.036-0.563,1.2-1.199c0.861-0.142,1.161,0.278,1.68,0.479
		C63.283,107.688,65.713,106.125,66.055,108.35z"/>
	<path fill-rule="evenodd" clip-rule="evenodd" fill="#1E1D1D" d="M56.694,108.109c0,0.32,0,0.641,0,0.96
		c-0.627,0.068-1.032-0.087-0.96-0.72C55.948,108.163,56.276,108.092,56.694,108.109z"/>
	<path fill-rule="evenodd" clip-rule="evenodd" fill="#1E1D1D" d="M57.655,108.109c0.24,0,0.48,0,0.72,0
		c0.102,0.502-0.165,0.636-0.24,0.96C57.712,109.012,57.587,108.656,57.655,108.109z"/>
	<path fill-rule="evenodd" clip-rule="evenodd" fill="#B6B5B4" d="M79.975,78.35c0.034,0.755-0.615,0.824-1.2,0.96
		c0-0.08,0-0.16,0-0.24c0.03-0.43-0.294-0.506-0.24-0.96C78.709,77.913,80.195,77.466,79.975,78.35z"/>
	<path fill-rule="evenodd" clip-rule="evenodd" fill="#918045" d="M52.375,52.43c0.539-0.741,1.179-1.381,1.92-1.92
		C53.782,51.277,53.215,51.991,52.375,52.43z"/>
	<path fill-rule="evenodd" clip-rule="evenodd" fill="#B6B5B4" d="M50.694,50.75c2.52,0.727,2.569-1.914,3.36-2.16
		c1.161,0.095-0.056,1.176,0.24,1.92c-0.741,0.539-1.381,1.179-1.92,1.92c-3.177,0.971-6.449-0.088-6.24-3.84
		c0.476,0.48,2.97-0.659,3.12,0.24C49.395,49.809,49.865,50.459,50.694,50.75z"/>
	<path fill-rule="evenodd" clip-rule="evenodd" fill="#918045" d="M49.254,48.83c0.315,0.806,0.994,1.246,1.44,1.92
		C49.865,50.459,49.395,49.809,49.254,48.83z"/>
	<path fill-rule="evenodd" clip-rule="evenodd" fill="#918045" d="M69.414,49.31c-1.958-0.519-2.077,0.803-2.88,1.44
		c0.338-0.462,0.635-0.966,0.721-1.68C67.906,49.218,69.159,48.765,69.414,49.31z"/>
	<path fill-rule="evenodd" clip-rule="evenodd" fill="#B6B5B4" d="M69.414,49.31c0.468,3.95-7.727,5.023-7.439-0.24
		c1.513,0.652,2.563,3.636,4.56,1.68C67.337,50.112,67.456,48.791,69.414,49.31z"/>
	<path fill-rule="evenodd" clip-rule="evenodd" fill="#918045" d="M46.854,68.27c-2.674,6.242-12.101,3.047-10.56-4.319
		c0.434-2.074,2.373-3.252,4.08-4.561c0.315-0.288,0.377-0.094,0.72,0c1.966,1.798-2.407,2.833-3.12,4.8
		c-1.114,3.075,0.73,5.937,3.36,6.24C44.126,70.752,44.914,68.836,46.854,68.27z"/>
	<path fill-rule="evenodd" clip-rule="evenodd" fill="#918045" d="M67.734,68.75c1.94,0.951,4.021,2.845,6.72,1.439
		c3.744-1.948,1.047-7.74-1.68-9.6c5.626-0.024,6.999,11.484-0.479,11.52C70.517,72.118,67.063,70.909,67.734,68.75z"/>
	<path fill-rule="evenodd" clip-rule="evenodd" fill="#1E1D1D" d="M50.455,41.63c1.14,0.581-0.522,0.802-0.72,0.96
		c-1.093,0.87-2.786,2.245-3.12,3.84c1.901-0.545,4.23,2.547,7.68,1.2c0.285-1.9-0.497-4.554-2.16-5.28
		c4.431-0.627,5.579,12.206-2.4,11.52c-2.632-0.226-4.107-2.132-4.56-5.04c-0.524-1.156-2.651-0.708-2.64-2.4
		c0.657-0.422,1.339,0.79,2.4,0.72c0.231-0.64-1.688-1.185-1.68-2.4c1.134-0.014,1.318,0.922,2.16,1.2
		C46.644,44.06,47.959,42.255,50.455,41.63z M49.254,48.83c-0.15-0.899-2.644,0.241-3.12-0.24c-0.209,3.751,3.063,4.811,6.24,3.84
		c0.841-0.439,1.407-1.153,1.92-1.92c-0.295-0.744,0.921-1.825-0.24-1.92c-0.792,0.246-0.841,2.887-3.36,2.16
		C50.249,50.076,49.569,49.635,49.254,48.83z"/>
	<path fill-rule="evenodd" clip-rule="evenodd" fill="#1E1D1D" d="M24.294,113.39c-1.563-4.397,1.928-13.699,5.52-15.36
		c-0.989-1.476-3.844-2.146-3.36-4.319c3.022-0.259,6.105-0.455,6.96-2.88c-0.698-0.535-1.693,0.299-2.64-0.24
		c-0.206-0.755-0.907-1.013-0.96-1.92c-2.3,0.534-4.547-0.613-4.56-3.12c-2.645-0.102-3.708-3.594-2.16-5.76
		c-0.783-0.417-1.479-0.922-1.92-1.681c0.068-3.204,1.804-4.944-0.48-6.96c0.345-1.255,0.737-2.462,1.44-3.359
		c-3.722-3.269-1.62-7.977,1.68-10.32c-0.691-1.372-1.529-3.467,0-4.56c-4.321-1.966-3.321-9.339,0.96-10.8
		c-0.032-1.167-1.008-1.392-1.2-2.4c0.332-1.748,1.464-2.696,2.4-3.84c-1.294-4.638,2.73-9.553,7.92-9.12
		c-0.232-3.558,2.723-4.648,5.28-6c2.374-1.256,4.842-3.752,8.64-2.88c0.937-2.732,4.33-4.788,7.92-3.36
		c1.281-0.958,2.36-2.12,4.32-2.4c0.802,0.398,1.598,0.802,2.399,1.2c2.651-1.824,5.319-0.284,6.721,1.68
		c4.341-0.978,7.238,1.124,8.16,4.32c3.892-1.496,6.815,1.871,5.039,5.28c0.572,1.508,1.963,2.198,2.4,3.84
		c-0.08,0.96-0.993,1.087-0.96,2.16c1.599,1.239,3.938,2.784,2.64,5.52c2.628,1.076,6.273,4.402,3.36,7.44
		c0.42,1.18,1.434,1.767,1.92,2.88c-0.581,1.179-1.186,2.334-2.16,3.12c1.524,2.917-0.902,4.659-2.88,5.52
		c1.11,1.145,3.165,4.864-0.72,5.28c0.483,2.103-0.084,3.898-2.64,3.601c0.572,2.268-1.705,3.289-2.4,5.04
		c0.048,0.751,0.619,0.98,0.96,1.439c1.297,0.337,1.271-0.648,2.16-0.72c0.194,2.572-1.847,4.831-4.8,5.04
		c-0.177,1.536,1.932,0.788,1.92,2.16c-0.178,0.383-1.175-0.056-0.96,0.72c-0.875,0.074-1.563-0.038-2.16-0.24
		c-0.384,0.454,0.215,1.382,0.72,1.68c0,0.08,0,0.16,0,0.24c0.585-0.136,1.234-0.205,1.2-0.96c0.233-0.007,0.187-0.294,0.24-0.479
		c2.614-1.98,5.039,2.549,2.64,4.08c1.155,1.21-0.156,3.406,1.44,4.079c2.227,0.228,1.825-2.174,3.359-2.64
		c2.039,3.998-1.443,7.739-5.52,7.92c0.357,2.337,4.887,1.929,5.279-0.24c1.673,2.548-1.493,4.213-2.64,5.521
		c4.643,3.438,7.483,9.957,7.92,16.8c-0.24,0-0.479,0-0.72,0c-0.451-3.658-2.078-9.771-4.32-12.96
		c-1.307-1.859-4.385-3.833-6.479-1.92c-0.034,0.993,1.064,0.855,0.72,2.16c-0.396,1.044-1.747,1.133-2.88,1.439
		c-0.263,1.143,0.874,0.887,0.72,1.92c-0.25,1.11-2.001,0.719-2.64,1.44c0,0.88,0,1.76,0,2.64c-2.572,0.228-4.446,3.067-6.72,1.44
		c-0.421,0.46-0.283,1.478-1.2,1.439c-2.645-1.354-4.784,2.32-6.96,0c-0.729,2.606-2.755,0.521-4.8,0.721
		c-0.955,0.093-1.146,0.798-1.92,0.72c-0.935-0.095-1.461-0.837-2.16-0.96c-6.117,3.624-7.933-6.507-13.2-5.28
		c-0.626-1.714-1.578-2.35-2.88-3.6c0.632-1.734-1.312-2.331-0.96-3.84C28.111,94.615,24.655,107.433,24.294,113.39z M40.135,22.91
		c-0.813-0.146-0.385-1.535-1.44-1.44c-3.433,0.951-4.706,5.434-3.12,8.88c0.481,0.399,1.78-0.02,2.16,0.48
		c-0.146,0.813-1.535,0.385-1.44,1.44c-0.135,3.486,6.045,3.742,6.24,0.48c1.928,3.644,9.614-0.056,6.48-4.32
		c6.458,1.03,4.855-9.463-0.96-6.24c0.421-0.98,1.787-1.037,1.2-2.4C46.9,17.771,39.693,18.472,40.135,22.91z M44.935,35.15
		c0.055,1.415-0.604,2.116-1.44,2.64c-0.001,0.8,0.781,0.819,0.72,1.68c-0.323,0.876-0.878,1.521-1.68,1.92
		c0.773,0.427,0.792,1.608,0.72,2.88c-1.412,0.028-1.451,1.429-1.92,2.4c0.177,0.543,0.915,0.525,0.96,1.2
		c-0.419,0.221-0.529,0.75-0.48,1.44c0.485,0.475,1.03,0.89,1.44,1.44c-0.166,1.654-0.563,2.992,1.2,3.12
		c-1.14,0.86-1.286,2.714-2.88,3.12c-0.714-0.085-1.218-0.382-1.68-0.72c-0.105,0.825,0.095,1.345,0.24,1.92
		c2.358-0.3,3.406,2.413,1.92,3.84c0.292,0.668,1.474,0.446,2.4,0.48c0.228-1.438-0.659-1.929,0.24-2.4
		c3.022,6.658,5.097,14.263,10.56,18.48c0.919,0.201,1.801,0.439,1.92,1.439c-0.779,0.14-1.116-0.163-1.68-0.239
		c-0.51,4.718,0.182,9.153-1.68,12.479c-0.709-0.347-0.207-0.536-0.48-1.439c-2.821,1.658-5.821,3.139-9.12,4.319
		c1.071,0.889,1.566,2.345,0.48,3.601c2.975-0.53,4.744,0.208,4.8,3.6c1.814,0.135,1.89-1.47,4.08-0.96
		c0.334,0.946,0.259,2.301,1.2,2.64c2.366-2.205,4.195-0.229,6.48,0.721c-0.04-0.84,0.063-1.537,0.479-1.92
		c1.582-0.939,2.337,0.803,3.84,0.72c0.061-2.355,2.189-2.419,3.84-1.44c0.359-0.681,0.501-1.579,0.721-2.399
		c0.757,0.117,0.848-0.433,1.68-0.24c0.067-1.027-0.733-1.187-0.479-2.4c0.545-0.414,1.341-0.579,2.399-0.479
		c-3.071-2.529-7.467-3.733-10.8-6c0.039,0.784,0.556,1.552-0.48,1.68c-0.919-3.311-1.667-7.195-1.439-12.24
		c-0.368-0.381-2.468,0.461-3.12-0.239c8.335-1.772,8.794-13.426,12-21.12c0.679,0.971-0.149,2.506,0.24,3.359
		c0.563,0.077,0.9,0.38,1.68,0.24c0.532-0.842-0.179-1.444,0.24-2.399c0.434-0.446,1.212-0.549,1.92-0.721
		c0.315-0.993,0.636-1.756,0.24-2.88c-0.545-0.415-2.013,0.093-2.16-0.72c-0.504-2.277-0.636-5.271-0.48-6.72
		c-2.307,1.429-2.591,5.892-7.199,4.8c-3.948-0.936-4.347-6.62-2.641-10.08c0.776-1.574,3.438-2.132,5.04-1.92
		c0.7,0.093,2.027,1.49,2.64,0.24c-2.323-2.094-6.772-1.139-9.119-0.48c0.894-1.761,3.662-2.331,5.04-2.88
		c-0.958-1.133-2.046-1.927-3.601-1.2c-0.183-0.697-1.138-0.623-0.96-1.68c-0.994,0.046-0.813,1.268-1.68,1.44
		c-1.087-0.353-0.791-2.089-1.68-2.64c-0.187,1.547,0.354,2.366,0.48,3.6c-3.124,0.979-5.311-1.862-4.56-4.8
		C50.03,31.402,49.023,35.67,44.935,35.15z M61.975,48.35c2.268,0.223,6.278,0.292,7.68-2.16
		C69.137,39.817,60.067,42.196,61.975,48.35z M70.135,44.51c0.18,0.964,1.67,0.988,0.96,2.16c2.338-0.439-0.923-1.512,0-2.64
		C70.548,43.963,70.192,44.087,70.135,44.51z M66.534,50.75c-1.996,1.956-3.047-1.028-4.56-1.68c-0.287,5.263,7.907,4.19,7.439,0.24
		c-0.255-0.544-1.508-0.091-2.159-0.24C67.169,49.784,66.872,50.288,66.534,50.75z M41.334,70.43c-2.63-0.304-4.474-3.165-3.36-6.24
		c0.713-1.967,5.086-3.002,3.12-4.8c-0.343-0.094-0.405-0.288-0.72,0c-1.708,1.309-3.646,2.486-4.08,4.561
		c-1.541,7.366,7.886,10.562,10.56,4.319C44.914,68.836,44.126,70.752,41.334,70.43z M72.295,72.109
		c7.479-0.035,6.105-11.544,0.479-11.52c2.727,1.859,5.424,7.651,1.68,9.6c-2.699,1.405-4.779-0.488-6.72-1.439
		C67.063,70.909,70.517,72.118,72.295,72.109z M38.935,95.63c-0.817-0.223-1.408-0.673-2.64-0.48c0.073,0.728,0.926,0.675,0.96,1.44
		c-0.281,0.358-0.997,0.282-0.96,0.96c1.392,0.688,1.135,3.025,2.64,3.6c-0.102,0.458-0.686,0.435-0.48,1.2
		c0.936,1.06,2.195-0.24,2.88,0.72c0.517,1.32-1.127,1.203-0.48,1.92c1.201-0.031,1.283-0.292,2.64-0.479
		c0.331,0.31,0.237,1.042,0.24,1.68c2.584-0.023,2.209,2.911,4.32,3.36c0,0.32,0,0.64,0,0.96c2.443-0.035,3.907,1.414,5.52-0.24
		c0.797,0.402,1.395,1.005,2.4,1.2c0.746-0.214,1.118-0.802,1.92-0.96c1.31,1.428,3.51,0.376,4.56-0.48
		c2.165,2.038,4.22-1.438,6.48,0c0.445-0.675,0.795-1.444,1.68-1.68c0.153,0.487,1.122,0.158,1.2,0.72
		c1.451-0.388,2.132-1.548,4.08-1.439c0.504-1.073-0.452-1.516,0-2.641c0.734-0.466,1.415-0.984,2.4-1.199
		c0.091-0.892-0.973-0.628-0.721-1.681c0.735-0.864,1.811-1.389,3.12-1.68c0.11-1.23-1.154-1.086-0.96-2.4
		c0.671-0.369,1.861-0.218,1.92-1.199c-1.468-1.931-3.163-1.291-5.04-0.96c-0.526-0.674-1.003-1.397-2.399-1.2
		c-0.062,0.941,0.867,0.892,0.72,1.92c-0.458,0.821-1.189,1.371-2.64,1.2c0.098,1.021,1.223,1.017,1.199,2.159
		c-1.036,0.244-1.802,0.758-2.88,0.961c-0.099,0.916-0.009,2.052-1.439,2.159c-1.051,0.091-1.234-0.686-2.16-0.72
		c-0.273,0.526-0.619,0.98-0.48,1.92c-1.582,1.103-2.601-0.38-4.319-0.479c-0.113,1.007-0.313,1.927-1.2,2.159
		c-1.884-0.116-2.399-1.6-3.84-2.159c-1.479,1.58-4.805,1.662-4.56-1.44c-1.754,0.047-1.797,1.609-3.36,1.2
		c-1.506-0.396-1.303-2.539-1.68-3.84c-2.75,1.322-5.162-0.177-3.6-3.12c-1.381,0.019-1.137,0.257-2.64,0.24
		c-0.476-0.473-0.153-1.371,0-1.92C39.975,94.545,39.547,94.792,38.935,95.63z"/>
	<path fill-rule="evenodd" clip-rule="evenodd" fill="#918045" d="M79.975,78.35c0.221-0.884-1.266-0.437-1.44-0.24
		c-0.054,0.454,0.271,0.53,0.24,0.96c-0.505-0.298-1.104-1.226-0.72-1.68c0.598,0.202,1.285,0.314,2.16,0.24c0,0.08,0,0.16,0,0.24
		C80.161,78.056,80.208,78.343,79.975,78.35z"/>
	<path fill-rule="evenodd" clip-rule="evenodd" fill="#9A5A2D" d="M53.334,33.23c-0.751,2.938,1.437,5.779,4.56,4.8
		c-0.125-1.234-0.667-2.053-0.48-3.6c0.889,0.551,0.593,2.287,1.68,2.64c0.867-0.172,0.686-1.394,1.68-1.44
		c-0.178,1.058,0.777,0.983,0.96,1.68c1.555-0.728,2.643,0.067,3.601,1.2c-1.378,0.549-4.146,1.119-5.04,2.88
		c2.347-0.659,6.796-1.614,9.119,0.48c-0.612,1.25-1.939-0.147-2.64-0.24c-1.603-0.212-4.264,0.346-5.04,1.92
		c-1.706,3.46-1.308,9.145,2.641,10.08c4.608,1.092,4.893-3.371,7.199-4.8c-0.155,1.45-0.023,4.443,0.48,6.72
		c0.147,0.813,1.615,0.305,2.16,0.72c0.396,1.124,0.075,1.887-0.24,2.88c-0.708,0.172-1.486,0.274-1.92,0.721
		c-0.419,0.955,0.292,1.558-0.24,2.399c-0.779,0.14-1.116-0.163-1.68-0.24c-0.39-0.854,0.438-2.389-0.24-3.359
		c-3.206,7.694-3.665,19.348-12,21.12c0.652,0.7,2.752-0.142,3.12,0.239c-0.228,5.045,0.521,8.93,1.439,12.24
		c1.036-0.128,0.52-0.896,0.48-1.68c3.333,2.267,7.729,3.471,10.8,6c-1.059-0.1-1.854,0.065-2.399,0.479
		c-0.254,1.214,0.547,1.373,0.479,2.4c-0.832-0.192-0.923,0.357-1.68,0.24c-0.22,0.82-0.361,1.719-0.721,2.399
		c-1.65-0.979-3.779-0.915-3.84,1.44c-1.503,0.083-2.258-1.659-3.84-0.72c-0.416,0.383-0.52,1.08-0.479,1.92
		c-2.285-0.95-4.114-2.926-6.48-0.721c-0.941-0.339-0.866-1.693-1.2-2.64c-2.19-0.51-2.266,1.095-4.08,0.96
		c-0.056-3.392-1.825-4.13-4.8-3.6c1.085-1.256,0.59-2.712-0.48-3.601c3.299-1.181,6.299-2.661,9.12-4.319
		c0.273,0.903-0.229,1.093,0.48,1.439c1.862-3.326,1.17-7.762,1.68-12.479c0.563,0.076,0.901,0.379,1.68,0.239
		c-0.119-1-1.001-1.238-1.92-1.439c-5.462-4.218-7.538-11.822-10.56-18.48c-0.899,0.472-0.012,0.962-0.24,2.4
		c-0.926-0.034-2.107,0.188-2.4-0.48c1.486-1.427,0.438-4.14-1.92-3.84c-0.146-0.575-0.345-1.095-0.24-1.92
		c0.462,0.338,0.966,0.635,1.68,0.72c1.594-0.406,1.74-2.26,2.88-3.12c-1.763-0.128-1.366-1.466-1.2-3.12
		c-0.41-0.55-0.955-0.965-1.44-1.44c-0.049-0.689,0.061-1.219,0.48-1.44c-0.045-0.675-0.783-0.657-0.96-1.2
		c0.469-0.971,0.508-2.372,1.92-2.4c0.072-1.272,0.053-2.453-0.72-2.88c0.801-0.398,1.356-1.043,1.68-1.92
		c0.061-0.861-0.721-0.879-0.72-1.68c0.836-0.524,1.495-1.226,1.44-2.64C49.023,35.67,50.03,31.402,53.334,33.23z M44.455,40.43
		c1.097,1.181,1.771-0.49,3.12-0.72c2.72-0.463,5.788,1.491,7.44,0.72C51.805,38.105,46.932,36.463,44.455,40.43z M45.415,45.95
		c-0.842-0.278-1.026-1.213-2.16-1.2c-0.008,1.215,1.912,1.76,1.68,2.4c-1.061,0.07-1.743-1.143-2.4-0.72
		c-0.011,1.691,2.116,1.244,2.64,2.4c0.453,2.908,1.927,4.814,4.56,5.04c7.979,0.686,6.832-12.147,2.4-11.52
		c1.663,0.726,2.445,3.38,2.16,5.28c-3.45,1.347-5.779-1.745-7.68-1.2c0.334-1.595,2.026-2.97,3.12-3.84
		c0.198-0.158,1.86-0.379,0.72-0.96C47.959,42.255,46.644,44.06,45.415,45.95z M61.255,58.67c-1.132,0.869-1.626,2.374-3.6,2.399
		c-1.514-0.566-1.893-2.268-3.36-2.88C54.708,62.408,60.563,63.486,61.255,58.67z M64.375,64.67
		c-2.024,0.451-2.651,0.519-4.561,0.24c-0.847,0.193-0.615,1.465-1.68,1.439c-0.638-0.162-1.222-0.378-1.68-0.72
		c-1.258,1.302-3.474,1.646-4.8,2.88c2.892,1.295,3.963,3.971,7.2,4.08c3.405,0.115,4.888-3.263,6.24-6.48
		c0.678-0.198,0.621,0.339,1.2,0.24c-0.688-1.072-1.271-2.25-2.16-3.12C64.295,64.158,64.135,64.084,64.375,64.67z"/>
</g>
</svg>
