<?xml version="1.0" encoding="utf-8"?>
<!-- Generator: Adobe Illustrator 15.1.0, SVG Export Plug-In . SVG Version: 6.00 Build 0)  -->
<!DOCTYPE svg PUBLIC "-//W3C//DTD SVG 1.1//EN" "http://www.w3.org/Graphics/SVG/1.1/DTD/svg11.dtd">
<svg version="1.1" id="Ebene_1" xmlns="http://www.w3.org/2000/svg" xmlns:xlink="http://www.w3.org/1999/xlink" x="0px" y="0px"
	 width="113.39px" height="113.39px" viewBox="0 0 113.39 113.39" enable-background="new 0 0 113.39 113.39" xml:space="preserve">
<path fill-rule="evenodd" clip-rule="evenodd" fill="#503023" d="M76.494,28.91c-8.361-4.449-18.422-8.443-29.28-9.6
	c-0.055-2.303,1.681-2.96,4.32-2.88c5.49,0.167,14.604,3.775,19.919,6.48C74.223,24.318,77.906,25.344,76.494,28.91z"/>
<path fill-rule="evenodd" clip-rule="evenodd" fill="#503023" d="M43.854,39.95c0.146,0.014,0.284,0.036,0.24,0.24
	c0,0.08,0,0.16,0,0.24c-0.148,0.651,0.305,1.905-0.24,2.16C43.854,41.71,43.854,40.83,43.854,39.95z"/>
<path fill-rule="evenodd" clip-rule="evenodd" fill="#232223" d="M38.575,43.07c2.863,0.17,3.997,1.272,5.04,3.6
	c-0.447-0.033-0.802-0.158-0.96-0.48c-0.649-0.63-0.928-1.632-2.16-1.68c-0.397,0.259-0.397,2.141,0,2.4
	c-0.139,0.779,0.163,1.117,0.24,1.68c-0.2,1.228-0.7-0.72-1.2-0.72c-0.096-1.305-0.212-2.611-0.24-3.36
	c0.899-0.721-1.745-0.629-1.68,0C36.633,43.667,38.506,43.657,38.575,43.07z"/>
<path fill-rule="evenodd" clip-rule="evenodd" fill="#724E2C" d="M60.654,46.43c0.572,0.708,0.697,1.863,1.2,2.64
	c-1.058-0.302-1.072-1.648-1.44-2.64C60.494,46.43,60.574,46.43,60.654,46.43z"/>
<path fill-rule="evenodd" clip-rule="evenodd" fill="#A9852D" d="M37.134,54.11c0.436-1.01,1.23-2.376,2.64-1.68
	c0.315,1.355-0.952,1.128-0.96,2.16c-0.356,0.203-0.347,0.772-0.48,1.2c-0.722,0.906-0.271,2.624,0.72,3.12
	c0.537,0.164,1.202,0.721,1.68,0.239c1.271-0.169,1.625-1.254,2.64-1.68c-0.063,1.777-1.715,1.965-2.64,2.88c-0.08,0-0.16,0-0.24,0
	c-3.403,0.684-4.617-2.415-3.84-5.52C36.992,54.767,36.928,54.303,37.134,54.11z"/>
<path fill-rule="evenodd" clip-rule="evenodd" fill="#503023" d="M45.294,57.47c0.146,0.014,0.284,0.036,0.24,0.24
	c0,0.56,0,1.12,0,1.68c0,0.561,0,1.12,0,1.68C44.98,60.344,45.45,58.595,45.294,57.47z"/>
<path fill-rule="evenodd" clip-rule="evenodd" fill="#724E2C" d="M67.614,57.95c0,0.8,0,1.6,0,2.4c-0.08,0-0.16,0-0.24,0
	c-0.088-1.107-0.295-1.381,0-2.4C67.454,57.95,67.534,57.95,67.614,57.95z"/>
<path fill-rule="evenodd" clip-rule="evenodd" fill="#724E2C" d="M58.255,59.87c-0.077,0.563-0.743,0.537-0.96,0.96
	c-0.24,0-0.48,0-0.72,0c-0.059-0.261-0.477-0.163-0.48-0.48C57.19,60.565,57.455,59.95,58.255,59.87z"/>
<path fill-rule="evenodd" clip-rule="evenodd" fill="#503023" d="M56.094,67.79c0.568-0.553,2.154-0.086,3.121-0.24
	C58.646,68.102,57.061,67.636,56.094,67.79z"/>
<path fill-rule="evenodd" clip-rule="evenodd" fill="#A9852D" d="M64.734,92.029c0,0.32,0,0.641,0,0.96
	c-1.301,0.041-2.323-1.446-1.2-2.399c0.489,0.07,0.471,0.649,0.96,0.72C64.532,91.592,64.453,91.991,64.734,92.029z"/>
<path fill-rule="evenodd" clip-rule="evenodd" fill="#503023" d="M46.015,98.989c0.154-0.966-0.312-2.552,0.24-3.119
	C46.387,96.175,46.376,98.383,46.015,98.989z"/>
<path fill-rule="evenodd" clip-rule="evenodd" fill="#A9852D" d="M75.774,98.989c0.355-0.044,0.22-0.579,0.24-0.96
	c0.739,0.011,0.858,1.273,0.479,1.681c-0.33-0.011-0.526,0.112-0.72,0.239c-0.067,0.548,0.058,0.902,0.479,0.961
	c-0.124,0.354-0.354,0.604-0.479,0.96c-1.288,0.129,0.318,1.725-0.48,2.159c-0.586,0.153-0.036,1.122,0.24,1.2
	c-0.96,0.476-1.231,1.684-0.479,2.641c-0.24,0-0.48,0-0.721,0c-0.157,0.877,0.52,0.92,0.48,1.68c-1.062,0.253-0.295,1.086-0.72,1.68
	c-0.28,0.041-0.261,0.38-0.24,0.72c0.063,0.703-0.543,0.738-0.48,1.44c-0.159,0-0.319,0-0.479,0c0.137-1.469,0.193-1.324,0.24-3.36
	c0.386-0.813,0.491-1.908,0.479-3.119c0.379-0.501,0.498-1.263,0.48-2.16c0.257-0.623,0.583-1.178,0.479-2.16
	c0.38-0.66,0.825-1.255,0.72-2.4C75.65,99.985,75.811,99.586,75.774,98.989z"/>
<path fill-rule="evenodd" clip-rule="evenodd" fill="#503023" d="M46.015,99.229c0.553,0.647,0.085,2.315,0.24,3.36
	C45.701,101.942,46.169,100.274,46.015,99.229z"/>
<path fill-rule="evenodd" clip-rule="evenodd" fill="#503023" d="M38.814,104.75c0.608,2.432,0.469,5.61,0.48,8.64
	c-0.08,0-0.16,0-0.24,0C39.241,110.243,38.725,107.8,38.814,104.75z"/>
<path fill-rule="evenodd" clip-rule="evenodd" fill="#503023" d="M72.175,110.029c-0.081-1.68,0.313-2.886,0.479-4.319
	c0.08,0,0.16,0,0.24,0c-0.107,1.492-0.468,2.731-0.48,4.319C72.334,110.029,72.254,110.029,72.175,110.029z"/>
<path fill-rule="evenodd" clip-rule="evenodd" fill="#7A7A79" d="M82.254,99.71c0.632,0.568,1.447,0.953,1.681,1.92
	C83.35,101.015,82.631,100.532,82.254,99.71z"/>
<path fill-rule="evenodd" clip-rule="evenodd" fill="#7A7A79" d="M74.334,54.35c0.382-0.94,1.671-1.979,2.641-0.96
	C75.553,52.744,75.17,53.784,74.334,54.35z"/>
<path fill-rule="evenodd" clip-rule="evenodd" fill="#503023" d="M14.095,22.91c-0.398-0.807,1.004-1.869,1.44-2.64
	c0.388,0.067,0.413-0.227,0.72-0.24c0.934,0.667,1.548-0.586,2.64-0.96c1.976-0.676,5.549-0.941,7.44-0.96
	c11.969-0.121,24.841,4.559,36,8.16c5.807,1.874,11.518,3.969,16.561,6.24c5.269,2.373,10.794,5.209,14.88,8.4
	c1.705,1.332,5.047,4.723,5.52,6.24c0.387,1.239-0.393,3.263,0.24,4.08c-0.134,0.346-0.374,0.585-0.72,0.72
	c-0.722-0.222-1.678,0.688-2.641,1.2c-4.857,2.588-14.556,1.046-19.92-0.96c1.252-2.869,2.798-9.443-1.199-10.32
	c0.168-1.048-0.408-1.352-0.24-2.4c-4.649-5.538-19.035-8.951-27.36-9.36c-2.627-0.129-4.66,0.811-6.72,2.16
	c-0.999,2.133-2.737,4.391-1.44,7.44c-3.253,2.371-8.285-0.555-12.72-2.64c-5.606-2.636-11.939-6.685-12-14.64
	C14.361,22.536,14.146,22.641,14.095,22.91z"/>
<path fill-rule="evenodd" clip-rule="evenodd" fill="#FFFFFF" d="M14.095,22.91c0.353,12.048,12.382,14.497,21.36,18.72
	c-1.177,3.61-0.099,8.169,1.44,10.56c-1.827,2.876-2.872,9.233,2.4,9.12c0.054,0.306,0.716,0.314,0.72,0
	c1.319-0.239,2.586-1.513,3.84-0.479c1.107,0.912,0.551,2.928,0.96,5.279c0.668,3.844,2.998,11.023,4.08,13.681
	c1.283,1.196,1.955,3.005,3.36,4.08c0.275,0.729,0.157,1.119,0.24,2.399c-0.64,0.4,0.133,2.213-0.48,2.641
	c-1.736,0.059-2.966,0.305-4.56,0.96c-0.854,0.346-2.033,0.366-2.64,0.96c-0.24,0-0.48,0-0.72,0c-1.658,0.262-3.249,0.59-4.32,1.439
	c-1.678,0.162-2.665,1.016-4.32,1.2c-0.819-0.489-1.284,1.429-1.92,1.92c-1.581,2.664-4.484,4.239-5.76,7.44
	c-1.176,2.949-1.166,6.536-1.68,10.56c-4.4,0-8.8,0-13.2,0c0-34.239,0-68.48,0-102.72c29.28,0,58.561,0,87.84,0
	c0,34.24,0,68.48,0,102.72c-4.32,0-8.64,0-12.96,0c-0.831-4.369-2.083-8.317-3.84-11.76c-0.233-0.967-1.049-1.352-1.681-1.92
	c-1.937-0.783-3.458-1.982-4.56-3.601c-6.034-2.045-11.169-4.99-17.04-7.199c0-0.24,0-0.48,0-0.721c0-1.2,0-2.399,0-3.6
	c0.938-2.022,2.396-3.524,3.84-5.04c2.324-5.036,3.396-11.324,3.84-18.24c2.504-1.815,2.558-6.083,6-6.96
	c0.836-0.566,1.219-1.605,2.641-0.96c6.653,1.984,17.646,4.201,21.84-1.44c0.346-0.134,0.586-0.374,0.72-0.72
	c1.907-5.102-2.65-7.478-4.56-10.32c-5.348-3.933-11.842-6.719-17.76-10.08c-0.568-0.946,0.652-2.457,0.239-4.32
	c-0.755-3.413-9.747-6.192-12.96-7.44c-2.302-0.894-4.698-1.562-6.96-2.16c-2.524-0.667-5.827-1.999-8.4-1.2
	c-2.244,0.697-3.084,3.146-3.6,4.8c-8.271-1.917-20.874-5.627-29.28-0.48c-0.307,0.013-0.332,0.308-0.72,0.24
	C15.099,21.041,13.696,22.103,14.095,22.91z"/>
<path fill-rule="evenodd" clip-rule="evenodd" fill="#7A7A79" d="M44.814,90.83c0.607-0.594,1.786-0.614,2.64-0.96
	C46.935,90.55,45.704,90.52,44.814,90.83z"/>
<path fill-rule="evenodd" clip-rule="evenodd" fill="#7A7A79" d="M33.535,95.39c0.636-0.491,1.101-2.409,1.92-1.92
	C34.543,93.839,34.445,95.021,33.535,95.39z"/>
<path fill-rule="evenodd" clip-rule="evenodd" fill="#724E2C" d="M49.375,21.47c3.857,0.784,9.066,2.294,12.959,3.84
	C58.348,24.314,53.388,22.711,49.375,21.47z"/>
<path fill-rule="evenodd" clip-rule="evenodd" fill="#503023" d="M72.895,29.15c0.557,0.323,1.362,0.397,1.92,0.72
	c-0.051-0.989-1.494-0.586-1.68-1.44c0.975,0.625,2.333,0.866,2.88,1.92C74.646,30.279,73.586,29.898,72.895,29.15z"/>
<path fill-rule="evenodd" clip-rule="evenodd" fill="#724E2C" d="M49.134,21.47c-1.122,0.083-1.562-0.518-2.4-0.72
	c1.893-1.233,4.99,0.061,7.68,0.72c2.064,0.506,4.523,0.798,6,1.68c-4.871-0.979-7.509-2.102-12.479-2.64
	c-0.088,0.729,0.782,0.499,1.2,0.72C49.134,21.31,49.134,21.39,49.134,21.47z"/>
<path fill-rule="evenodd" clip-rule="evenodd" fill="#A9852D" d="M49.134,21.47c0-0.08,0-0.16,0-0.24
	c-0.418-0.222-1.288,0.008-1.2-0.72c4.971,0.539,7.608,1.661,12.479,2.64c0.007,0.233,0.294,0.186,0.48,0.24
	c2.124,0.947,3.689,1.613,6.24,2.64c0.176,0.224,0.436,0.364,0.72,0.48c0.103,0.674-0.895-0.602-0.96,0.24
	c-0.904-0.339-1.099-0.852-2.64-0.96c-0.534-0.187-0.937-0.504-1.681-0.48c-0.08,0-0.16,0-0.24,0
	c-3.894-1.546-9.103-3.057-12.959-3.84C49.294,21.47,49.214,21.47,49.134,21.47z"/>
<path fill-rule="evenodd" clip-rule="evenodd" fill="#503023" d="M64.255,25.79c1.541,0.108,1.735,0.621,2.64,0.96
	c0.214,0.106,0.429,0.21,0.479,0.48c-1.034-0.405-2.146-0.734-3.119-1.2C64.255,25.95,64.255,25.87,64.255,25.79z"/>
<path fill-rule="evenodd" clip-rule="evenodd" fill="#724E2C" d="M62.574,25.31c0.744-0.024,1.146,0.293,1.681,0.48
	c0,0.08,0,0.16,0,0.24c-0.547-0.174-1.227-0.214-1.681-0.48C62.574,25.47,62.574,25.39,62.574,25.31z"/>
<path fill-rule="evenodd" clip-rule="evenodd" fill="#232223" d="M14.095,22.91c0.051-0.269,0.266-0.374,0.48-0.48
	c0.061,7.955,6.394,12.004,12,14.64c4.435,2.085,9.467,5.011,12.72,2.64c-1.297-3.049,0.441-5.307,1.44-7.44
	c2.061-1.35,4.093-2.289,6.72-2.16c8.325,0.409,22.71,3.822,27.36,9.36c-0.168,1.048,0.408,1.352,0.24,2.4
	c3.997,0.877,2.451,7.452,1.199,10.32c5.364,2.006,15.063,3.548,19.92,0.96c0.963-0.513,1.919-1.422,2.641-1.2
	c-4.193,5.641-15.187,3.424-21.84,1.44c-0.97-1.019-2.259,0.02-2.641,0.96c-3.442,0.877-3.496,5.145-6,6.96
	c-0.444,6.916-1.516,13.204-3.84,18.24c-1.444,1.516-2.902,3.018-3.84,5.04c-0.398,0.649-0.398,2.95,0,3.6c0,0.24,0,0.48,0,0.721
	c5.871,2.209,11.006,5.154,17.04,7.199c1.102,1.618,2.623,2.817,4.56,3.601c0.377,0.822,1.096,1.305,1.681,1.92
	c1.757,3.442,3.009,7.391,3.84,11.76c-4.64,0-9.28,0-13.92,0c-0.193-0.844,1.1-1.033,0-1.44c-0.021-0.34-0.04-0.679,0.24-0.72
	c0.872,0.072,0.32-1.279,0.72-1.68c0.039-0.76-0.638-0.803-0.48-1.68c0.24,0,0.48,0,0.721,0c0.08,0,0.16,0,0.239,0
	c-1.048-1.362,0.405-1.873,0.24-2.641c-0.276-0.078-0.826-1.047-0.24-1.2c1.539-0.253-0.433-1.28,0.48-2.159
	c0.125-0.355,0.355-0.605,0.479-0.96c-0.422-0.059-0.547-0.413-0.479-0.961c0.193-0.127,0.39-0.25,0.72-0.239
	c0.362-1.059,1.068-2.035,0.721-3.36c-0.279-0.039-0.428,0.053-0.48,0.24c-0.233,0.007-0.187,0.294-0.24,0.479
	c-0.427,0.453-0.791,0.97-0.72,1.92c0.036,0.597-0.124,0.996-0.48,1.2c-0.292,0.747-0.737,1.343-0.72,2.4
	c0.104,0.982-0.223,1.537-0.479,2.16c-0.38,0.501-0.498,1.262-0.48,2.16c-0.521,0.606-0.739,2.497-0.479,3.119
	c-0.047,2.036-0.104,1.892-0.24,3.36c-0.32,0-0.641,0-0.96,0c0.229-1.045,0.522-2.911,0.24-3.12c0-0.08,0-0.16,0-0.24
	c0.079,0,0.159,0,0.239,0c0.013-1.588,0.373-2.827,0.48-4.319c0-0.08,0-0.16,0-0.24c0.468-2.332,1.193-4.406,1.92-6.48
	c-0.102-0.501,0.164-0.635,0.24-0.96c0.517-0.202,0.387-1.053,0.72-1.439c-0.353-0.854-2.118-1.553-2.64-1.44c-0.08,0-0.16,0-0.24,0
	c-0.661-0.779-1.795-1.085-2.88-1.439c-0.923-0.438-1.987-0.733-2.88-1.2c-0.388-0.275-0.761-0.942-1.2-0.48
	c-0.39-0.171-0.39,1.132,0,0.96c0.206,0.914,0.649,1.591,0.479,2.881c0.271,0.689,0.049,1.871,0.48,2.399
	c0.191,0.532,0.229,0.975,0.24,2.16c-0.566,4.073,0.08,9.36-0.96,12.96c-0.16,0-0.32,0-0.48,0c0-1.04,0-2.08,0-3.12
	c0-0.24,0-0.479,0-0.72c0.727-2.792,0.677-8.523,0-12c-0.429-0.771-0.14-2.261-0.479-3.12c0.024-0.985,0.039-1.959-0.48-2.4
	c-0.281-0.038-0.202-0.438-0.24-0.72c0.041-0.601-0.368-0.751-0.72-0.96c-0.853,0.027-0.966,0.794-0.96,1.68
	c0.076,0.915,1.92,0.966,1.2,1.92c-1.114,0.414-0.001,1.42,0.479,1.681c0,0.08,0,0.16,0,0.24c-2.432,0.576,0.978,2.719-0.96,3.6
	c0.098,0.702,0.628,0.973,0.96,1.44c0.175,0.654-0.477,0.482-0.479,0.96c-1.26,0.654,0.212,1.779,0.72,2.159
	c0.041,0.602-0.369,0.752-0.72,0.96c0.835,1.615-1.184,3.818,0.72,5.04c0,0.08,0,0.16,0,0.24c-0.804,0.261-1.328,1.087-0.24,1.44
	c0,0.08,0,0.16,0,0.239c-0.692,0.257-0.796,0.729-0.479,1.44c-4.561,0-9.12,0-13.68,0c0.688-2.185-1.428-3.331-0.24-4.8
	c-0.28-0.44-0.627-0.813-0.96-1.2c0.867-1.699-0.608-3.929-0.48-5.52c-0.01-0.411,0.179-0.622,0.48-0.721c0.08,0,0.16,0,0.24,0
	c-0.522-1.324-0.907-1.7,0.24-2.64c0.209-0.929-0.586-0.854-0.72-1.44c0.776-0.973,1.132-1.674,0.72-3.359
	c-0.01-0.411,0.179-0.622,0.48-0.721c0.816-0.453-0.411-0.841-0.24-1.439c-0.215-0.774,0.783-0.337,0.96-0.72
	c-2.725-3.383-3.816,3.584-3.6,6.96c0,1.52,0,3.04,0,4.56c0.15,0.729-0.307,2.067,0.24,2.4c0.362,2.997,1.157,5.563,1.44,8.64
	c-0.24,0-0.48,0-0.72,0c-0.69-1.55-0.496-3.984-1.2-5.52c0-0.16,0-0.32,0-0.48c-0.361-1.399-0.172-3.348-0.72-4.56
	c0-0.08,0-0.16,0-0.24c-0.155-1.045,0.313-2.713-0.24-3.36c0-0.08,0-0.16,0-0.24c0.362-0.606,0.373-2.814,0.24-3.119
	c0.002-0.638-0.091-1.371,0.24-1.681c0.365-0.835,0.433-1.967,0.48-3.12c-1.116,0.085-2.297,0.104-2.88,0.721
	c-0.556-0.077-0.921,0.038-1.2,0.239c-0.51-0.101-2.393,0.48-3.12,0.96c-0.08,0-0.16,0-0.24,0c-1.863-0.201-3.183,1.658-1.92,3.12
	c0.371,0.35,0.211,1.229,0.24,1.92c0.312,1.288,0.395,2.806,0.72,4.08c0.444,0.516,0.162,1.759,0.24,2.641
	c-0.09,3.05,0.426,5.493,0.24,8.64c-0.16,0-0.32,0-0.48,0c-0.572-1.988-0.2-4.921-0.72-6.96c0-0.16,0-0.32,0-0.48
	c-0.155-1.124,0.314-2.873-0.24-3.6c-0.254-1.168,0.054-1.123-0.24-1.92c-0.171-1.269-0.326-2.555-0.72-3.6
	c0.069-0.326-0.022-3.583-1.2-2.641c-1.417,2.779,0.687,7.019,0,10.561c-0.08,0-0.16,0-0.24,0c1.626,2.226-0.183,4.557,1.68,6.72
	c0,0.08,0,0.16,0,0.24c-0.537,0.104-0.097,1.183-0.24,1.68c-3.52,0-7.04,0-10.56,0c0.514-4.023,0.503-7.61,1.68-10.56
	c1.276-3.201,4.18-4.776,5.76-7.44c0.911-0.369,1.009-1.551,1.92-1.92c1.655-0.185,2.642-1.038,4.32-1.2
	c1.282-0.638,3.094-0.746,4.32-1.439c0.24,0,0.48,0,0.72,0c0.89-0.311,2.12-0.28,2.64-0.96c1.594-0.655,2.824-0.901,4.56-0.96
	c0.194-0.046,0.239-0.241,0.48-0.24c0-0.8,0-1.601,0-2.4c-0.083-1.28,0.035-1.67-0.24-2.399c-1.405-1.075-2.077-2.884-3.36-4.08
	c-1.083-2.657-3.412-9.837-4.08-13.681c-0.409-2.352,0.147-4.367-0.96-5.279c-1.253-1.033-2.521,0.24-3.84,0.479
	c-0.75-0.728,0.785-0.232,0.72-0.96c1.681-0.416,3.395-2.195,2.88-3.36c-1.255,0.105-1.215,1.505-2.4,1.68
	c-0.947,0.485-2.02,0.044-2.64-0.48c-0.067-0.813-0.382-1.378-0.24-2.399c0.133-0.428,0.124-0.997,0.48-1.2
	c0.692-0.428,1.14-1.1,1.44-1.92c-0.776-1.54-3.47-0.365-3.12,1.44c-0.206,0.193-0.143,0.657-0.48,0.72
	c-0.975,2.177-0.381,5.865,2.4,5.76c0.006,0.233,0.293,0.187,0.48,0.24c-0.046,0.194-0.241,0.239-0.24,0.479
	c-5.272,0.113-4.227-6.244-2.4-9.12c-1.539-2.391-2.617-6.95-1.44-10.56C26.477,37.407,14.448,34.958,14.095,22.91z M52.254,31.55
	c-1.764-0.398-4.564-0.763-6.48-0.24c-0.551,1.128-0.799,2.561-1.44,3.6c-0.499,1.833-0.403,2.786-0.48,5.04c0,0.88,0,1.76,0,2.64
	c-2.299-0.281-5.754-3.172-7.68-0.48c-1.029,1.438-0.685,5.226,0.48,7.68c0,0.08,0,0.16,0,0.24c0.215,0.505,0.373,1.067,0.72,1.44
	c1.095,0.215,1.36-0.399,2.16-0.48c2.369-0.226,0.405,3.833,2.16,3.12c0.56,0,1.12,0,1.68,0c-0.072-0.472,0.324-0.476,0.48-0.72
	c0.342-0.057,0.405-0.395,0.72-0.48c0.941,0.819,0.121,3.4,0.72,4.56c0.155,1.125-0.314,2.874,0.24,3.6
	c-0.373,0.869-0.139,1.243,0,2.16c-0.029,1.149-0.016,2.256,0.48,2.88c0,0.16,0,0.32,0,0.48c0.199,1.721,0.498,3.342,0.96,4.8
	c0,0.08,0,0.16,0,0.24c0.241,1.039,0.358,2.202,0.96,2.88c0.19,1.65,0.842,2.838,1.44,4.08c0.813,2.467,2.291,4.27,4.56,5.28
	c-1.132,0.228-0.602,2.117-0.72,3.359c-0.067,0.813-0.382,1.379-0.24,2.4c0,0.24,0,0.479,0,0.72c-0.396,0.004-0.134,0.666-0.48,0.72
	c-0.637,0.077,0.224-1.344-0.72-0.96c-0.194,0.696-1.159,1.867-0.48,2.641c-0.965,0.868-0.906,2.972,0.48,3.359
	c1.29,1.431,2.935,2.505,5.76,2.4c0.08,0,0.16,0,0.24,0c2.566,0.085,4.981-1.257,5.28-2.64c0-0.08,0-0.16,0-0.24
	c0.288-1.648-0.281-2.439-1.2-2.88c-0.221-1.012,0.964-2.539-0.48-2.641c-0.159,0-0.319,0-0.479,0
	c-0.174,0.349-0.062,2.017,0.24,2.641c-1.006,0.285-0.429-1.012-0.96-1.2c-0.512-2.722-0.321-3.82-0.48-6.48
	c0.794-1.284-2.011,0.056-1.68-1.199c1.354,0.153,1.878-0.522,2.64-0.96c1.02-1.142,2.147-2.173,2.88-3.601
	c-0.046-1.406,1.445-1.274,1.44-2.64c1.39-4.465,2.397-9.04,2.399-14.16c0.581-1.327,0.424-3.392,0.48-5.76
	c0.276-0.284,0.271-0.849,0.24-1.44c0.316-0.002,0.219-0.42,0.479-0.48c1.771,0.416,4.701,0.547,5.04-1.2c0.08,0,0.16,0,0.24,0
	c0.741-0.619,1.268-1.453,1.68-2.4c0.426-1.368,1.22-3.264,0.72-4.8c0.632-1.198-0.085-3.109-1.199-3.36
	c-1.096-0.728-3.238,0.868-4.32,0.72c-0.145-1.325,0.071-2.316-0.48-3.6c-0.116-1.803-0.185-3.655-1.68-4.08
	c-2.458-1.222-5.135-2.225-8.16-2.88c-1.131-0.708-2.769-0.911-4.32-1.2C54.501,31.725,53.729,31.443,52.254,31.55z M39.535,57.95
	c0.349-0.131,1.24,0.281,1.2-0.24c-0.922-0.118-0.369-1.711-1.2-1.92C39.396,56.664,39.205,56.896,39.535,57.95z"/>
<path fill-rule="evenodd" clip-rule="evenodd" fill="#503023" d="M66.414,95.87c0.52,0.44,0.506,1.414,0.48,2.399
	C66.463,97.741,66.685,96.56,66.414,95.87z"/>
<path fill-rule="evenodd" clip-rule="evenodd" fill="#503023" d="M67.135,100.43c-0.008,4.553,0.171,9.291-0.721,12.96
	c-0.08,0-0.16,0-0.239,0C67.215,109.79,66.568,104.503,67.135,100.43z"/>
<path fill-rule="evenodd" clip-rule="evenodd" fill="#724E2C" d="M64.734,92.029c0.52,0.441,0.505,1.415,0.48,2.4
	c-0.521,0.04-0.109-0.852-0.24-1.2c-0.771-0.211-0.329,0.791-0.96,0.72c0.72-0.954-1.124-1.005-1.2-1.92
	c-0.006-0.886,0.107-1.652,0.96-1.68c0.352,0.209,0.761,0.359,0.72,0.96c-0.489-0.07-0.471-0.649-0.96-0.72
	c-1.123,0.953-0.101,2.44,1.2,2.399C64.734,92.67,64.734,92.35,64.734,92.029z"/>
<path fill-rule="evenodd" clip-rule="evenodd" fill="#503023" d="M64.494,95.63c-0.48-0.261-1.594-1.267-0.479-1.681
	C63.227,94.832,65.033,95.145,64.494,95.63z"/>
<path fill-rule="evenodd" clip-rule="evenodd" fill="#503023" d="M64.015,101.87c-0.724,0.898,0.692,1.262,0.72,2.159
	C64.227,103.649,62.755,102.524,64.015,101.87z"/>
<path fill-rule="evenodd" clip-rule="evenodd" fill="#724E2C" d="M64.734,110.029c-1.903-1.222,0.115-3.425-0.72-5.04
	c0.057,0.743,0.668,0.933,0.96,1.44c-1.282,0.936-0.123,1.509-0.96,2.64c0.066,0.493,0.641,0.479,0.96,0.721
	C65.019,109.994,64.881,110.016,64.734,110.029z"/>
<path fill-rule="evenodd" clip-rule="evenodd" fill="#724E2C" d="M48.654,101.87c-0.128,1.591,1.347,3.82,0.48,5.52
	c0.333,0.388,0.68,0.76,0.96,1.2c-1.188,1.469,0.928,2.615,0.24,4.8c-0.08,0-0.16,0-0.24,0c0.643-1.616-1.798-3.527-0.24-4.56
	C48.842,106.958,48.532,103.827,48.654,101.87z"/>
<path fill-rule="evenodd" clip-rule="evenodd" fill="#724E2C" d="M49.134,101.149c0.114-0.753-0.646-0.634-0.72-1.2
	c0.662-0.871,1.03-2.107,0-2.88c0.248-0.631,0.952-0.808,1.2-1.439c-0.053-0.449-0.619-1.591,0-1.92
	c0.412,1.686,0.056,2.387-0.72,3.359c0.134,0.587,0.929,0.512,0.72,1.44c-1.147,0.939-0.762,1.315-0.24,2.64
	C49.294,101.149,49.214,101.149,49.134,101.149z"/>
<path fill-rule="evenodd" clip-rule="evenodd" fill="#724E2C" d="M50.094,92.989c-0.464-0.721-0.812-2.057,0.24-2.399
	c-2.971-1.4-2.425,4.738-3.12,7.2c-0.216-3.376,0.875-10.343,3.6-6.96c-0.177,0.383-1.175-0.055-0.96,0.72
	C49.684,92.148,50.911,92.536,50.094,92.989z"/>
<path fill-rule="evenodd" clip-rule="evenodd" fill="#503023" d="M46.975,107.87c0.704,1.535,0.51,3.97,1.2,5.52
	c-0.08,0-0.16,0-0.24,0C47.498,111.666,46.942,110.063,46.975,107.87z"/>
<path fill-rule="evenodd" clip-rule="evenodd" fill="#503023" d="M46.254,102.83c0.548,1.212,0.359,3.16,0.72,4.56
	C46.28,106.324,46.42,104.424,46.254,102.83z"/>
<path fill-rule="evenodd" clip-rule="evenodd" fill="#503023" d="M44.094,91.79c0.583-0.617,1.765-0.636,2.88-0.721
	c-0.047,1.153-0.115,2.285-0.48,3.12c-0.188-1.229,0.336-1.743,0.24-2.88C45.708,91.323,44.977,91.632,44.094,91.79z"/>
<path fill-rule="evenodd" clip-rule="evenodd" fill="#503023" d="M39.774,92.989c0.727-0.479,2.61-1.061,3.12-0.96
	C41.904,92.399,41.038,92.894,39.774,92.989z"/>
<path fill-rule="evenodd" clip-rule="evenodd" fill="#503023" d="M37.614,96.109c-1.263-1.462,0.057-3.321,1.92-3.12
	c-0.544,0.496-1.589,0.491-2.16,0.96C37.186,94.938,37.743,95.182,37.614,96.109z"/>
<path fill-rule="evenodd" clip-rule="evenodd" fill="#503023" d="M37.854,98.029c0.661,0.939,0.785,2.415,0.72,4.08
	C38.25,100.835,38.167,99.317,37.854,98.029z"/>
<path fill-rule="evenodd" clip-rule="evenodd" fill="#503023" d="M36.654,96.83c0.395,1.045,0.549,2.331,0.72,3.6
	c-0.08,0-0.16,0-0.24,0C36.916,99.288,36.589,98.255,36.654,96.83z"/>
<path fill-rule="evenodd" clip-rule="evenodd" fill="#724E2C" d="M36.895,111.47c-1.863-2.163-0.054-4.494-1.68-6.72
	c0.08,0,0.16,0,0.24,0c-0.181,0.9,0.917,0.522,0.96,1.199c0.027,0.967-1.018,1.372,0.24,1.681c-1.088,0.797,0.476,1.759-0.24,2.64
	C36.732,110.615,37.512,110.874,36.895,111.47z"/>
<path fill-rule="evenodd" clip-rule="evenodd" fill="#7A7A79" d="M39.774,92.27c1.071-0.85,2.662-1.178,4.32-1.439
	C42.869,91.523,41.057,91.632,39.774,92.27z"/>
<path fill-rule="evenodd" clip-rule="evenodd" fill="#7A7A79" d="M52.015,88.91c0.613-0.428-0.16-2.24,0.48-2.641
	c0,0.8,0,1.601,0,2.4C52.253,88.669,52.209,88.864,52.015,88.91z"/>
<path fill-rule="evenodd" clip-rule="evenodd" fill="#503023" d="M39.055,60.59c0.599,0.169,0.986,0.236,1.44-0.24
	c0.08,0,0.16,0,0.24,0c0.065,0.728-1.47,0.232-0.72,0.96c-0.004,0.314-0.666,0.306-0.72,0c-0.001-0.24,0.194-0.285,0.24-0.479
	C39.348,60.776,39.061,60.823,39.055,60.59z"/>
<path fill-rule="evenodd" clip-rule="evenodd" fill="#724E2C" d="M41.214,58.67c1.185-0.175,1.145-1.575,2.4-1.68
	c0.515,1.165-1.199,2.944-2.88,3.36c0.925-0.915,2.577-1.103,2.64-2.88c-1.015,0.425-1.37,1.511-2.64,1.68
	C40.794,58.889,41.211,58.987,41.214,58.67z"/>
<path fill-rule="evenodd" clip-rule="evenodd" fill="#503023" d="M38.575,58.189c0.62,0.524,1.692,0.966,2.64,0.48
	c-0.003,0.317-0.42,0.219-0.48,0.479c-0.478,0.481-1.143-0.075-1.68-0.239C38.97,58.595,38.632,58.532,38.575,58.189z"/>
<path fill-rule="evenodd" clip-rule="evenodd" fill="#724E2C" d="M36.654,54.83c-0.777,3.105,0.437,6.204,3.84,5.52
	c-0.454,0.477-0.841,0.409-1.44,0.24C36.273,60.694,35.68,57.007,36.654,54.83z"/>
<path fill-rule="evenodd" clip-rule="evenodd" fill="#724E2C" d="M60.895,23.39c2.739,0.476,6.006,2.029,8.64,3.36
	c-1.069,0.029-1.487-0.592-2.399-0.72C64.584,25.003,63.019,24.337,60.895,23.39z"/>
<path fill-rule="evenodd" clip-rule="evenodd" fill="#9E4F2A" d="M69.534,26.75c0.598-0.037,0.743,0.377,1.2,0.48
	c0.405,0.474,1.054,0.706,1.2,1.44c-0.431,0.03-0.507-0.294-0.96-0.24c-1.438-0.248-2.721-1.085-3.601-1.2
	c-0.051-0.27-0.266-0.374-0.479-0.48c0.065-0.842,1.063,0.434,0.96-0.24c-0.284-0.116-0.544-0.256-0.72-0.48
	C68.047,26.158,68.465,26.779,69.534,26.75z"/>
<path fill-rule="evenodd" clip-rule="evenodd" fill="#724E2C" d="M70.975,28.43c0.453-0.054,0.529,0.271,0.96,0.24
	c-0.146-0.734-0.795-0.966-1.2-1.44c0.992,0.208,1.408,0.992,2.4,1.2c0.186,0.854,1.629,0.451,1.68,1.44
	c-0.558-0.323-1.363-0.397-1.92-0.72C71.943,29.221,71.428,28.856,70.975,28.43z"/>
<path fill-rule="evenodd" clip-rule="evenodd" fill="#503023" d="M44.334,34.91c0.641-1.039,0.889-2.471,1.44-3.6
	c1.916-0.523,4.716-0.158,6.48,0.24c-2.529,0.094-3.1-0.376-5.76-0.24C45.127,31.863,45.536,34.191,44.334,34.91z"/>
<path fill-rule="evenodd" clip-rule="evenodd" fill="#503023" d="M36.654,50.03c0.616,0.024,0.386,0.895,0.72,1.2
	c1.095,0.215,1.36-0.4,2.16-0.48c0,0.08,0,0.16,0,0.24c-0.8,0.081-1.065,0.695-2.16,0.48C37.027,51.097,36.87,50.535,36.654,50.03z"
	/>
<path fill-rule="evenodd" clip-rule="evenodd" fill="#503023" d="M45.535,63.229c0.408,0.712,0.264,1.977,0.48,2.88
	C45.519,65.485,45.505,64.379,45.535,63.229z"/>
<path fill-rule="evenodd" clip-rule="evenodd" fill="#503023" d="M46.015,66.59c0.146,0.014,0.284,0.036,0.24,0.24
	c-0.018,0.418,0.054,0.746,0.24,0.96c-0.121,1.48,0.665,2.055,0.48,3.6C46.512,69.932,46.214,68.311,46.015,66.59z"/>
<path fill-rule="evenodd" clip-rule="evenodd" fill="#503023" d="M46.975,71.63c0.517,0.202,0.203,1.237,0.72,1.439
	c0,0.08,0,0.16,0,0.24c-0.198,0.679,0.338,0.622,0.24,1.2C47.333,73.832,47.215,72.669,46.975,71.63z"/>
<path fill-rule="evenodd" clip-rule="evenodd" fill="#724E2C" d="M49.375,78.59c-0.598-1.242-1.25-2.43-1.44-4.08
	c0.098-0.578-0.438-0.521-0.24-1.2c1.05,1.75,1.399,4.201,2.4,6C49.541,79.383,49.828,78.616,49.375,78.59z"/>
<path fill-rule="evenodd" clip-rule="evenodd" fill="#503023" d="M49.375,78.59c0.453,0.026,0.167,0.793,0.72,0.72
	c-0.169,1.21,0.885,1.195,0.96,2.16c0.783,1.939,4.231,1.662,5.04,2.88c-1.105,0.029-2.265-0.627-2.64,0.48
	c-0.151,0.729,0.307,2.066-0.24,2.399c0.118-1.242-0.412-3.132,0.72-3.359C51.665,82.859,50.187,81.057,49.375,78.59z"/>
<path fill-rule="evenodd" clip-rule="evenodd" fill="#503023" d="M52.975,90.35c0.17,0.89-0.41,1.03-0.24,1.92c0,0.08,0,0.16,0,0.24
	c-0.477,0.003-0.305,0.654-0.96,0.479c-0.053-0.772,0.424-1.015,0.24-1.92c-0.818-0.018-0.711,0.89-0.72,1.681
	c-0.679-0.773,0.286-1.944,0.48-2.641c0.944-0.384,0.083,1.037,0.72,0.96C52.84,91.016,52.578,90.354,52.975,90.35z"/>
<path fill-rule="evenodd" clip-rule="evenodd" fill="#503023" d="M51.774,96.109c0.08,0,0.16,0,0.24,0
	c0.252,0.708,1.085,0.835,1.68,1.2c0.773,0.427,1.426,0.974,2.64,0.96c0.349,0.132,1.24-0.28,1.2,0.24
	C54.709,98.614,53.064,97.54,51.774,96.109z"/>
<path fill-rule="evenodd" clip-rule="evenodd" fill="#503023" d="M58.975,98.27c1.602-0.317,2.78-1.06,3.84-1.92
	c0-0.08,0-0.16,0-0.24c0.204,0.045,0.227-0.094,0.24-0.239c-0.299,1.383-2.714,2.725-5.28,2.64
	C57.734,97.989,58.626,98.401,58.975,98.27z"/>
<path fill-rule="evenodd" clip-rule="evenodd" fill="#503023" d="M61.374,90.109c1.444,0.102,0.26,1.629,0.48,2.641
	c0.919,0.44,1.488,1.231,1.2,2.88c-0.355-2.112-1.796-3.064-1.44-5.28C61.468,90.336,61.33,90.313,61.374,90.109z"/>
<path fill-rule="evenodd" clip-rule="evenodd" fill="#503023" d="M60.175,91.55c0.531,0.188-0.046,1.485,0.96,1.2
	c0.355,0.044,0.22,0.58,0.239,0.96C60.571,93.393,60.161,92.683,60.175,91.55z"/>
<path fill-rule="evenodd" clip-rule="evenodd" fill="#503023" d="M58.015,83.87c-0.331,1.255,2.474-0.085,1.68,1.199
	c0.116-0.47-1.101-0.772-1.2-0.239c-0.08,0-0.16,0-0.239,0c-0.033-0.688-1.648,0.207-1.681-0.48
	C56.347,83.482,57.52,84.015,58.015,83.87z"/>
<path fill-rule="evenodd" clip-rule="evenodd" fill="#503023" d="M60.654,82.91c0.248-1.113,1.462-1.259,1.68-2.4
	c0.633-0.167,0.508-1.093,1.2-1.2C62.802,80.737,61.674,81.769,60.654,82.91z"/>
<path fill-rule="evenodd" clip-rule="evenodd" fill="#503023" d="M67.854,56.75c-0.057,2.368,0.101,4.433-0.48,5.76
	c0-0.24,0-0.479,0-0.72c0-0.48,0-0.96,0-1.44c0.08,0,0.16,0,0.24,0c0-0.8,0-1.6,0-2.4c0-0.16,0-0.32,0-0.48
	C67.594,57.129,67.575,56.79,67.854,56.75z"/>
<path fill-rule="evenodd" clip-rule="evenodd" fill="#503023" d="M68.095,55.31c-0.019-0.418,0.054-0.746,0.239-0.96
	c0.76-0.039,0.803,0.638,1.681,0.48c0.56,0,1.12,0,1.68,0c0.604-0.356,1.385-0.535,1.68-1.2c0.08,0,0.16,0,0.24,0
	c-0.339,1.747-3.27,1.616-5.04,1.2C68.313,54.889,68.411,55.307,68.095,55.31z"/>
<path fill-rule="evenodd" clip-rule="evenodd" fill="#503023" d="M73.854,53.63c0.099-1.021,1.223-1.017,1.2-2.16
	c0.194-0.045,0.239-0.241,0.479-0.24C75.122,52.177,74.596,53.011,73.854,53.63z"/>
<path fill-rule="evenodd" clip-rule="evenodd" fill="#503023" d="M75.055,43.07c1.114,0.251,1.831,2.162,1.199,3.36
	C76.417,44.748,75.879,43.765,75.055,43.07z"/>
<path fill-rule="evenodd" clip-rule="evenodd" fill="#503023" d="M68.574,36.11c1.495,0.425,1.563,2.277,1.68,4.08
	C69.702,38.822,69.896,36.708,68.574,36.11z"/>
<path fill-rule="evenodd" clip-rule="evenodd" fill="#503023" d="M58.975,32.99c-0.655-0.625-2.29-0.271-2.88-0.96
	c1.551,0.29,3.189,0.492,4.32,1.2c-0.678,0.198-0.621-0.338-1.199-0.24C59.135,32.99,59.055,32.99,58.975,32.99z"/>
<path fill-rule="evenodd" clip-rule="evenodd" fill="#724E2C" d="M44.334,34.91c1.201-0.719,0.793-3.046,2.16-3.6
	c2.66-0.136,3.231,0.333,5.76,0.24c1.475-0.107,2.247,0.175,3.84,0.48c0.591,0.689,2.225,0.335,2.88,0.96
	c-3.239-0.307-8.439-1.662-12.48-1.2c-2.01,2.213-1.756,5.895-2.4,8.4c0.044-0.204-0.093-0.227-0.24-0.24
	C43.931,37.696,43.835,36.742,44.334,34.91z"/>
<path fill-rule="evenodd" clip-rule="evenodd" fill="#724E2C" d="M59.215,32.99c0.578-0.098,0.521,0.438,1.199,0.24
	c3.025,0.655,5.702,1.658,8.16,2.88c1.321,0.599,1.128,2.712,1.68,4.08c0.552,1.284,0.336,2.275,0.48,3.6
	c1.082,0.147,3.225-1.448,4.32-0.72c0.824,0.695,1.362,1.678,1.199,3.36c0.5,1.537-0.294,3.433-0.72,4.8
	c-0.24-0.001-0.285,0.194-0.479,0.24c0.688-2.999,1.654-5.679,0-7.92c-2.514-0.14-2.68,0.658-4.561,0.96
	c-0.45-0.349-0.029-1.571-0.479-1.92c-0.423,0.217-0.396,0.883-0.96,0.96c0-0.16,0-0.32,0-0.48c0-0.08,0-0.16,0-0.24
	c1.447-0.534,0.28-2.01-0.721-2.16c0.833-0.192,0.923,0.357,1.681,0.24C70.131,34.554,62.918,35.526,59.215,32.99z"/>
<path fill-rule="evenodd" clip-rule="evenodd" fill="#724E2C" d="M68.095,40.67c-0.76,0.039-0.803-0.638-1.681-0.48
	c-1.585-0.082-2.718-0.245-5.279-0.24c-0.547,0.174-1.227,0.214-1.681,0.48c-0.04,0.841,0.845,0.756,1.2,1.2c0,0.08,0,0.16,0,0.24
	c-0.204-0.044-0.227,0.094-0.24,0.24c-0.08-0.879-1.427-0.493-1.199-1.68c1.818-1.596,6.945-1.131,8.88,0
	C68.095,40.51,68.095,40.59,68.095,40.67z"/>
<path fill-rule="evenodd" clip-rule="evenodd" fill="#97572C" d="M75.055,51.47c0.022,1.143-1.102,1.139-1.2,2.16
	c-0.08,0-0.16,0-0.24,0s-0.16,0-0.24,0c-0.649,0.31-1.482,0.437-1.68,1.2c-0.56,0-1.12,0-1.68,0c-0.319-0.48-1.065-0.535-1.681-0.72
	c-0.796,0.41-1.138,2.533-0.72,3.36c0,0.16,0,0.32,0,0.48c-0.08,0-0.16,0-0.24,0c-0.295,1.019-0.088,1.292,0,2.4
	c0,0.48,0,0.96,0,1.44c-0.633,2.26-0.762,7.47-1.68,11.279c-0.363,1.506-1.353,2.842-1.439,3.601c-0.047,0.401,0.604,0.054,0.72,0
	c0.005,1.365-1.486,1.233-1.44,2.64c-0.692,0.107-0.567,1.033-1.2,1.2c-1.682,3.751-8.511,3.76-11.28,0.96
	c-0.075-0.965-1.129-0.95-0.96-2.16c-1.001-1.799-1.35-4.25-2.4-6c0-0.08,0-0.16,0-0.24c-0.564-2.034-0.259-3.538-1.2-5.279
	c-0.187-0.214-0.258-0.542-0.24-0.96c-0.312-2.451-0.039-5.085-0.72-7.44c0-0.56,0-1.12,0-1.68c-0.016-1.216,0.303-3.822-0.96-5.28
	c-0.632-0.072-0.788,0.333-0.72,0.96c-0.156,0.244-0.552,0.249-0.48,0.72c-0.56,0-1.12,0-1.68,0c-0.05-1.634-0.784-3.851-2.16-3.36
	c-0.8,0.08-1.065,0.695-2.16,0.48c-0.334-0.306-0.104-1.176-0.72-1.2c0-0.08,0-0.16,0-0.24c-0.38-2.637-0.698-4.806-0.24-7.2
	c2.732-2.393,5.242,0.814,7.68,0.72c0.318-0.494,0.455-2.409,0-2.88c0-0.08,0-0.16,0-0.24c0.644-2.505,0.391-6.187,2.4-8.4
	c4.041-0.462,9.241,0.893,12.48,1.2c0.08,0,0.16,0,0.24,0c3.703,2.537,10.916,1.564,10.8,7.92c-0.758,0.118-0.848-0.432-1.681-0.24
	c-0.08,0-0.159,0-0.239,0c0-0.08,0-0.16,0-0.24c-1.935-1.131-7.062-1.596-8.88,0c-0.228,1.188,1.119,0.801,1.199,1.68
	c0.542,0.549-0.402,1.14,0.24,1.92c-0.288,0.315-0.094,0.377,0,0.72c-0.594,0.231,0.331,0.921,0,1.68c-0.08,0-0.16,0-0.24,0
	c0.368,0.992,0.383,2.338,1.44,2.64c0,0.08,0,0.16,0,0.24c0.678,3.697,6.537,0.804,5.76-0.96c-0.013-0.029-0.214,0.024-0.24,0
	c0.347-1.013,1.187-1.534,1.2-2.88c0.471-0.33,0.13-1.47,0.48-1.92c0.563-0.077,0.537-0.743,0.96-0.96
	c0.45,0.349,0.029,1.571,0.479,1.92c1.881-0.302,2.047-1.1,4.561-0.96C76.709,45.791,75.743,48.471,75.055,51.47z M37.614,43.31
	c-0.08,0-0.16,0-0.24,0c-0.443,0.564-1.168,0.846-0.72,1.68c1.191,0.183,1.28-0.734,2.16-0.24c0.05,2.473,0.563,4.668,2.16,5.04
	c0.279-0.041,0.26-0.379,0.24-0.72c0.244-0.732-0.803-2.231-0.48-3.84c1.193,0.407,1.32,1.88,2.88,1.92
	c-0.296-0.777,0.777-0.184,0.48-0.96c-0.722-1.924-3.784-4.786-5.76-3.12C38.028,43.083,38.002,43.377,37.614,43.31z M50.094,39.71
	c-0.427,0.133-0.997,0.123-1.2,0.48c-0.08,0-0.16,0-0.24,0c-1.395-0.115-2.256,0.304-2.88,0.96c0,0.08,0,0.16,0,0.24
	c-1.251,0.672,0.21,0.886,0.48,1.68c0.817,2.409,0.776,7.869,4.08,7.68c0.08,0,0.16,0,0.24,0c0.44,0.896,2.261-0.272,2.64-0.96
	c0.267-0.934,1.013-1.387,1.2-2.4c0-0.08,0-0.16,0-0.24c0.483-0.717,0.706-1.694,0.72-2.88c-0.331-1.84,2.459-3.906,0.24-4.32
	c-0.16,0-0.32,0-0.48,0c-0.502-0.523-0.685,0.12-1.44,0C53.079,38.873,51.133,39.452,50.094,39.71z M74.095,44.99
	c-2.448-0.208-3.147,1.333-4.08,2.64c-0.08,0-0.16,0-0.24,0c0.004,0.636-0.133,1.413,0.479,1.44c0.644-0.557,0.753-1.648,1.681-1.92
	c0.919,0.853,0.467,1.264,0.72,2.4c0.131,0.349-0.28,1.24,0.24,1.2c0.487-0.313,0.573-1.027,0.96-1.44
	c1.524-1.196-0.875-3.573,0.72-4.32c0.103-0.387-0.895-0.805-0.96-0.24C73.801,44.804,74.088,44.756,74.095,44.99z M61.135,55.07
	c0-0.16,0-0.32,0-0.48c-1.277-0.615-1.115,2.178-0.96,2.64c0,0.08,0,0.16,0,0.24c-0.692,0.748-0.949,1.932-1.92,2.4
	c-0.8,0.08-1.065,0.695-2.161,0.479c0-0.08,0-0.16,0-0.24c-0.543-0.576-0.893-1.347-1.68-1.68c-0.117-0.283-0.256-0.544-0.48-0.72
	c0.057-1.018-0.221-1.7-0.48-2.4c0-0.16,0-0.32,0-0.48c0-0.08,0-0.16,0-0.24c-0.32,0-0.64,0-0.96,0
	c-0.742,1.532,0.257,3.211,0.48,4.56c-0.361,0.36-0.718,0.723-0.96,1.2c-0.632,0.329-1.112,0.809-1.44,1.44
	c-2.133,1.551-3.645,8.611-0.72,9.6c1.387-4.604,6.772-2.843,10.32-3.6c0.08,0,0.159,0,0.239,0c1.634,0.926,2.312,2.809,3.841,3.84
	c1.925-1.272,1.451-5.492,0.239-7.44c0-0.08,0-0.16,0-0.239c-0.046-1.074-0.614-1.626-1.2-2.16c-0.24,0.001-0.285-0.194-0.479-0.24
	c0-0.08,0-0.16,0-0.24s0-0.16,0-0.24c-0.137-1.223-1.918-0.801-1.92-2.159c0.187-0.621,1.288-3.498,0.24-2.4
	C61.135,56.03,61.135,55.55,61.135,55.07z"/>
<path fill-rule="evenodd" clip-rule="evenodd" fill="#724E2C" d="M73.374,53.63c-0.295,0.665-1.076,0.844-1.68,1.2
	C71.892,54.067,72.725,53.94,73.374,53.63z"/>
<path fill-rule="evenodd" clip-rule="evenodd" fill="#724E2C" d="M70.015,54.83c-0.878,0.158-0.921-0.519-1.681-0.48
	c-0.186,0.214-0.258,0.542-0.239,0.96c0.031,0.592,0.036,1.157-0.24,1.44c-0.279,0.04-0.261,0.379-0.24,0.72
	c-0.418-0.827-0.076-2.95,0.72-3.36C68.949,54.295,69.695,54.349,70.015,54.83z"/>
<path fill-rule="evenodd" clip-rule="evenodd" fill="#724E2C" d="M64.975,76.67c-0.115,0.054-0.767,0.401-0.72,0
	c0.087-0.759,1.076-2.095,1.439-3.601c0.918-3.81,1.047-9.02,1.68-11.279c0,0.24,0,0.479,0,0.72
	C67.372,67.63,66.364,72.205,64.975,76.67z"/>
<path fill-rule="evenodd" clip-rule="evenodd" fill="#724E2C" d="M62.334,80.51c-0.218,1.142-1.432,1.287-1.68,2.4
	c-0.762,0.438-1.286,1.113-2.64,0.96c-0.495,0.145-1.667-0.388-1.44,0.479c0.033,0.688,1.647-0.207,1.681,0.48
	c-1.479,0.531-3.809-0.633-4.8,0c0.375-1.107,1.535-0.451,2.64-0.48c-0.809-1.218-4.257-0.94-5.04-2.88
	C53.823,84.27,60.652,84.261,62.334,80.51z"/>
<path fill-rule="evenodd" clip-rule="evenodd" fill="#724E2C" d="M46.495,67.79c0.94,1.741,0.635,3.245,1.2,5.279
	c-0.517-0.202-0.203-1.237-0.72-1.439c0-0.08,0-0.16,0-0.24C47.159,69.845,46.374,69.271,46.495,67.79z"/>
<path fill-rule="evenodd" clip-rule="evenodd" fill="#724E2C" d="M45.535,59.39c0.681,2.355,0.408,4.989,0.72,7.44
	c0.044-0.204-0.094-0.227-0.24-0.24c0-0.16,0-0.32,0-0.48c-0.216-0.903-0.072-2.168-0.48-2.88c-0.139-0.917-0.373-1.291,0-2.16
	C45.535,60.51,45.535,59.95,45.535,59.39z"/>
<path fill-rule="evenodd" clip-rule="evenodd" fill="#724E2C" d="M43.854,53.39c-0.068-0.627,0.087-1.032,0.72-0.96
	c1.263,1.458,0.945,4.064,0.96,5.28c0.044-0.204-0.094-0.227-0.24-0.24c-0.6-1.16,0.221-3.741-0.72-4.56
	C44.259,52.995,44.197,53.333,43.854,53.39z"/>
<path fill-rule="evenodd" clip-rule="evenodd" fill="#724E2C" d="M39.535,50.75c1.375-0.491,2.109,1.726,2.16,3.36
	c-1.754,0.712,0.209-3.346-2.16-3.12C39.535,50.91,39.535,50.83,39.535,50.75z"/>
<path fill-rule="evenodd" clip-rule="evenodd" fill="#724E2C" d="M37.614,43.31c-0.213,0.427-0.67,0.61-0.48,1.44
	c0.656,0,1.54-0.999,2.16-0.24c0.028,0.749,0.144,2.055,0.24,3.36c0.361,0.759,0.789,1.452,1.44,1.92
	c-1.597-0.372-2.11-2.567-2.16-5.04c-0.88-0.495-0.969,0.423-2.16,0.24c-0.448-0.834,0.277-1.115,0.72-1.68
	C37.455,43.31,37.535,43.31,37.614,43.31z"/>
<path fill-rule="evenodd" clip-rule="evenodd" fill="#724E2C" d="M36.654,49.79c-1.165-2.455-1.509-6.242-0.48-7.68
	c1.926-2.692,5.381,0.199,7.68,0.48c0.544-0.255,0.091-1.509,0.24-2.16c0.455,0.471,0.318,2.387,0,2.88
	c-2.438,0.094-4.947-3.113-7.68-0.72C35.957,44.984,36.274,47.153,36.654,49.79z"/>
<path fill-rule="evenodd" clip-rule="evenodd" fill="#503023" d="M69.055,42.83c1.581-1.744-1.747-1.865-2.641-2.64
	c0.878-0.158,0.921,0.519,1.681,0.48c0.08,0,0.159,0,0.239,0C69.335,40.82,70.502,42.296,69.055,42.83z"/>
<path fill-rule="evenodd" clip-rule="evenodd" fill="#724E2C" d="M46.495,42.83c0.385,1.375,0.442,3.078,0.96,4.32
	c0.355,1.805,1.637,2.683,2.88,3.6c-3.304,0.188-3.263-5.271-4.08-7.68c-0.27-0.794-1.731-1.008-0.48-1.68
	C45.09,42.103,46.212,42.362,46.495,42.83z"/>
<path fill-rule="evenodd" clip-rule="evenodd" fill="#724E2C" d="M52.254,50.27c0.355-0.125,0.605-0.355,0.96-0.48
	c-0.379,0.688-2.2,1.856-2.64,0.96c0.637-0.004,1.414,0.133,1.44-0.48C52.094,50.27,52.174,50.27,52.254,50.27z"/>
<path fill-rule="evenodd" clip-rule="evenodd" fill="#724E2C" d="M55.134,41.39c1.087,0.027,1.224-1.301,0.24-1.44
	c2.219,0.414-0.571,2.48-0.24,4.32c0-0.72,0-1.44,0-2.16C55.134,41.87,55.134,41.63,55.134,41.39z"/>
<path fill-rule="evenodd" clip-rule="evenodd" fill="#503023" d="M60.654,41.63c-0.355-0.444-1.24-0.359-1.2-1.2
	c0.454-0.266,1.134-0.306,1.681-0.48c-0.204,0.356-0.604,0.516-1.2,0.48C59.68,41.325,60.835,40.81,60.654,41.63z"/>
<path fill-rule="evenodd" clip-rule="evenodd" fill="#503023" d="M48.895,40.19c0.203-0.357,0.772-0.347,1.2-0.48
	c0.88,0,1.76,0,2.64,0C51.843,40.258,49.863,39.719,48.895,40.19z"/>
<path fill-rule="evenodd" clip-rule="evenodd" fill="#503023" d="M54.895,39.95c0.16,0,0.32,0,0.48,0
	c0.984,0.139,0.847,1.467-0.24,1.44c0.234-0.246,0.475-0.485,0.72-0.72C55.789,40.176,54.96,40.444,54.895,39.95z"/>
<path fill-rule="evenodd" clip-rule="evenodd" fill="#503023" d="M54.415,44.99c-0.221-1.603,0.743-3.253-0.72-3.84
	c0.601-0.739,1.081,0.663,1.44,0.96c0,0.72,0,1.44,0,2.16c-0.014,1.186-0.237,2.163-0.72,2.88c-0.336-0.954,0.951-2.377,0.24-2.16
	C54.574,44.99,54.495,44.99,54.415,44.99z"/>
<path fill-rule="evenodd" clip-rule="evenodd" fill="#503023" d="M54.415,47.39c-0.187,1.014-0.934,1.466-1.2,2.4
	c-0.355,0.125-0.605,0.355-0.96,0.48C53.203,49.538,53.608,48.264,54.415,47.39z"/>
<path fill-rule="evenodd" clip-rule="evenodd" fill="#503023" d="M47.455,47.15c0.9,1.524,2.029,4.017,4.56,3.12
	c-0.027,0.613-0.804,0.476-1.44,0.48c-0.08,0-0.16,0-0.24,0C49.092,49.833,47.81,48.955,47.455,47.15z"/>
<path fill-rule="evenodd" clip-rule="evenodd" fill="#503023" d="M45.774,41.39c0-0.08,0-0.16,0-0.24
	c0.454,0.054,0.53-0.271,0.96-0.24c-0.026,0.454-0.793,0.167-0.72,0.72c-0.179,0.739,0.659,0.461,0.48,1.2
	C46.212,42.362,45.09,42.103,45.774,41.39z"/>
<path fill-rule="evenodd" clip-rule="evenodd" fill="#724E2C" d="M48.654,40.19c-0.313,0.567-1.297,0.462-1.92,0.72
	c-0.43-0.03-0.506,0.294-0.96,0.24C46.398,40.494,47.26,40.075,48.654,40.19z"/>
<path fill-rule="evenodd" clip-rule="evenodd" fill="#503023" d="M69.055,43.07c0,0.16,0,0.32,0,0.48
	c-0.351,0.45-0.01,1.59-0.48,1.92C68.541,44.477,68.641,43.616,69.055,43.07z"/>
<path fill-rule="evenodd" clip-rule="evenodd" fill="#724E2C" d="M62.814,50.03c1.853,1.286,3.789,0.06,4.56-1.68
	c0.026,0.024,0.228-0.029,0.24,0c0.777,1.764-5.082,4.658-5.76,0.96C62.344,49.38,62.325,49.959,62.814,50.03z"/>
<path fill-rule="evenodd" clip-rule="evenodd" fill="#503023" d="M60.654,44.75c0.503,1.977,0.975,3.985,2.16,5.28
	c-0.489-0.071-0.471-0.649-0.96-0.72c0-0.08,0-0.16,0-0.24c-0.503-0.777-0.628-1.932-1.2-2.64
	C60.985,45.671,60.061,44.981,60.654,44.75z"/>
<path fill-rule="evenodd" clip-rule="evenodd" fill="#503023" d="M60.414,42.11c0.014-0.146,0.036-0.284,0.24-0.24
	c0.194,0.046,0.239,0.241,0.48,0.24c0,0.32,0,0.64,0,0.96c-0.723-0.242-0.426,0.535-0.48,0.96
	C60.012,43.25,60.956,42.659,60.414,42.11z"/>
<path fill-rule="evenodd" clip-rule="evenodd" fill="#724E2C" d="M65.215,43.07c-0.032-0.592-0.037-1.156,0.239-1.44
	c0.69-0.05,1.22,0.061,1.44,0.48c-0.615,0.26-1.145-0.729-1.44,0c0,0.32,0,0.64,0,0.96C65.374,43.07,65.294,43.07,65.215,43.07z"/>
<path fill-rule="evenodd" clip-rule="evenodd" fill="#503023" d="M64.734,44.27c-0.245,0.89-2.398,0.593-2.16-0.48
	C62.914,44.313,64.071,44.813,64.734,44.27z"/>
<path fill-rule="evenodd" clip-rule="evenodd" fill="#BEBDBB" d="M52.254,44.75c1.77-0.638,0.458-2.778,1.44-3.6
	c1.463,0.587,0.5,2.237,0.72,3.84c-0.986,6.057-6.318,5.227-6.72-0.24c0-0.48,0-0.96,0-1.44c0.326-0.075,0.199-0.601,0.24-0.96
	c1.135,0.332,1.578-0.751,2.16-0.24C49.795,43.854,50.804,45.554,52.254,44.75z"/>
<path fill-rule="evenodd" clip-rule="evenodd" fill="#7A7A79" d="M61.614,41.39c0.039-0.281,0.438-0.202,0.72-0.24
	c0,0.72,0,1.44,0,2.16C61.684,43.081,62.561,41.324,61.614,41.39z"/>
<path fill-rule="evenodd" clip-rule="evenodd" fill="#7A7A79" d="M47.694,42.35c0-0.08,0-0.16,0-0.24
	c1.119,0.159,1.542-0.378,2.4-0.48c0.408,1.352-0.035,3.555,2.16,3.12c-1.451,0.804-2.459-0.896-2.16-2.64
	c-0.582-0.512-1.025,0.571-2.16,0.24c-0.041,0.359,0.085,0.886-0.24,0.96C47.694,42.99,47.694,42.67,47.694,42.35z"/>
<path fill-rule="evenodd" clip-rule="evenodd" fill="#7A7A79" d="M62.334,43.55c0.204-0.044,0.227,0.094,0.24,0.24
	c-0.238,1.073,1.915,1.37,2.16,0.48c0.103-0.457,0.517-0.603,0.48-1.2c0.079,0,0.159,0,0.239,0
	C65.948,45.158,62.179,45.88,62.334,43.55z"/>
<path fill-rule="evenodd" clip-rule="evenodd" fill="#7A7A79" d="M65.454,42.11c0.296-0.729,0.825,0.26,1.44,0
	c0.214,0.187,0.542,0.258,0.96,0.24c0.078,2.239-0.215,4.105-1.2,5.28c0.444-1.396,1.09-2.59,0.96-4.56
	C67.367,42.277,66.344,42.261,65.454,42.11z"/>
<path fill-rule="evenodd" clip-rule="evenodd" fill="#BEBDBB" d="M66.654,47.63c-1.43,4.389-5.76,0.413-5.28-3.36
	c0.231-0.17-0.156-1.75,0-2.64c-0.044-0.204,0.094-0.227,0.24-0.24c0.946-0.066,0.069,1.691,0.72,1.92c0,0.08,0,0.16,0,0.24
	c-0.155,2.331,3.614,1.608,3.12-0.48c0-0.32,0-0.64,0-0.96c0.89,0.151,1.913,0.167,2.16,0.96
	C67.744,45.04,67.099,46.234,66.654,47.63z"/>
<path fill-rule="evenodd" clip-rule="evenodd" fill="#7A7A79" d="M61.135,42.11c-0.039-0.279,0.053-0.427,0.239-0.48
	c-0.156,0.891,0.231,2.47,0,2.64c-0.201-0.279-0.316-0.644-0.239-1.2C61.135,42.75,61.135,42.43,61.135,42.11z"/>
<path fill-rule="evenodd" clip-rule="evenodd" fill="#7A7A79" d="M63.294,41.39c1.201-0.455,1.338,1.65,0.24,1.44
	C63.258,42.546,63.263,41.981,63.294,41.39z"/>
<path fill-rule="evenodd" clip-rule="evenodd" fill="#724E2C" d="M42.654,46.19c0.158,0.322,0.513,0.447,0.96,0.48
	c-1.043-2.328-2.177-3.43-5.04-3.6c-0.08,0-0.16,0-0.24,0c1.976-1.666,5.038,1.196,5.76,3.12c0.297,0.776-0.776,0.183-0.48,0.96
	c-1.56-0.04-1.687-1.513-2.88-1.92c-0.323,1.609,0.724,3.108,0.48,3.84c-0.317-0.003-0.219-0.42-0.48-0.48
	c-0.077-0.563-0.379-0.901-0.24-1.68c0-0.72,0-1.44,0-2.16C41.63,44.814,41.846,45.798,42.654,46.19z"/>
<path fill-rule="evenodd" clip-rule="evenodd" fill="#503023" d="M40.495,46.91c-0.397-0.259-0.397-2.141,0-2.4
	c1.232,0.048,1.51,1.05,2.16,1.68c-0.809-0.392-1.024-1.376-2.16-1.44C40.495,45.47,40.495,46.19,40.495,46.91z"/>
<path fill-rule="evenodd" clip-rule="evenodd" fill="#503023" d="M40.975,49.79c-0.651-0.469-1.079-1.161-1.44-1.92
	c0.5,0,1,1.948,1.2,0.72c0.261,0.06,0.163,0.477,0.48,0.48C41.235,49.411,41.254,49.75,40.975,49.79z"/>
<path fill-rule="evenodd" clip-rule="evenodd" fill="#503023" d="M38.575,43.07c-0.069,0.587-1.942,0.597-0.96,1.44
	c-0.064-0.629,2.58-0.721,1.68,0c-0.62-0.758-1.504,0.24-2.16,0.24c-0.19-0.83,0.267-1.013,0.48-1.44
	c0.388,0.067,0.414-0.227,0.72-0.24C38.415,43.07,38.495,43.07,38.575,43.07z"/>
<path fill-rule="evenodd" clip-rule="evenodd" fill="#724E2C" d="M70.015,47.63c-0.011,0.331,0.112,0.527,0.239,0.72
	c0.434-0.527,0.937-0.983,1.2-1.68c1.98,0.177,1.564,1.494,1.44,2.88c-0.08,0-0.16,0-0.24,0c-0.253-1.136,0.199-1.547-0.72-2.4
	c-0.928,0.272-1.037,1.363-1.681,1.92c-0.612-0.027-0.476-0.804-0.479-1.44C69.854,47.63,69.935,47.63,70.015,47.63z"/>
<path fill-rule="evenodd" clip-rule="evenodd" fill="#724E2C" d="M73.854,49.31c0.54-1.634-0.376-2.256-0.72-3.6
	c0.324-0.076,0.458-0.342,0.96-0.24c0-0.16,0-0.32,0-0.48c-0.007-0.233-0.294-0.186-0.48-0.24c0.065-0.565,1.063-0.147,0.96,0.24
	C72.979,45.737,75.379,48.114,73.854,49.31z"/>
<path fill-rule="evenodd" clip-rule="evenodd" fill="#503023" d="M73.854,49.31c-0.387,0.413-0.473,1.127-0.96,1.44
	c-0.521,0.04-0.109-0.852-0.24-1.2c0.08,0,0.16,0,0.24,0C73.525,50.174,73.083,49.162,73.854,49.31z"/>
<path fill-rule="evenodd" clip-rule="evenodd" fill="#232223" d="M70.015,47.63c0.933-1.308,1.632-2.848,4.08-2.64
	c0,0.16,0,0.32,0,0.48c-0.502-0.102-0.636,0.165-0.96,0.24c0.344,1.344,1.26,1.966,0.72,3.6c-0.771-0.148-0.329,0.864-0.96,0.24
	c0.124-1.386,0.54-2.703-1.44-2.88c-0.264,0.696-0.767,1.153-1.2,1.68C70.127,48.157,70.004,47.96,70.015,47.63z"/>
<path fill-rule="evenodd" clip-rule="evenodd" fill="#724E2C" d="M37.134,54.11c-0.35-1.805,2.344-2.979,3.12-1.44
	c-0.3,0.82-0.748,1.492-1.44,1.92c0.008-1.032,1.275-0.805,0.96-2.16C38.364,51.733,37.57,53.1,37.134,54.11z"/>
<path fill-rule="evenodd" clip-rule="evenodd" fill="#724E2C" d="M38.334,55.79c-0.142,1.021,0.173,1.587,0.24,2.399
	c0.057,0.343,0.395,0.405,0.48,0.721C38.063,58.414,37.612,56.696,38.334,55.79z"/>
<path fill-rule="evenodd" clip-rule="evenodd" fill="#724E2C" d="M56.094,60.109c-1.011-0.108-1.067-1.173-1.68-1.68
	C55.202,58.763,55.551,59.533,56.094,60.109z"/>
<path fill-rule="evenodd" clip-rule="evenodd" fill="#724E2C" d="M53.455,54.83c-0.994-0.337-1.249,1.29-0.72,1.68
	c0.638,0.642,0.475,2.085,0.96,2.88c-0.622,0.259-0.892,0.868-1.68,0.96c0.242-0.478,0.599-0.84,0.96-1.2
	c-0.223-1.348-1.222-3.027-0.48-4.56c0.32,0,0.64,0,0.96,0C53.455,54.67,53.455,54.75,53.455,54.83z"/>
<path fill-rule="evenodd" clip-rule="evenodd" fill="#724E2C" d="M50.574,61.79c-0.31,0.649-1.066,0.853-0.96,1.92
	c-0.552,2.065-1.685,5.628,0,7.2c1.002-2.501,3.769-4.32,6.48-3.12c0.966-0.154,2.552,0.312,3.121-0.24c0.159,0,0.319,0,0.479,0
	c0.279-0.039,0.427,0.053,0.48,0.24c-3.548,0.757-8.934-1.005-10.32,3.6C46.93,70.401,48.441,63.341,50.574,61.79z"/>
<path fill-rule="evenodd" clip-rule="evenodd" fill="#724E2C" d="M63.294,61.79c0.586,0.534,1.154,1.086,1.2,2.16
	C64.193,63.131,63.573,62.631,63.294,61.79z"/>
<path fill-rule="evenodd" clip-rule="evenodd" fill="#503023" d="M62.814,61.55c0.194,0.046,0.239,0.241,0.479,0.24
	c0.279,0.841,0.899,1.341,1.2,2.16c0,0.079,0,0.159,0,0.239s0,0.16,0,0.24C63.94,63.464,63.436,62.448,62.814,61.55z"/>
<path fill-rule="evenodd" clip-rule="evenodd" fill="#724E2C" d="M61.135,56.51c1.048-1.098-0.054,1.779-0.24,2.4
	c0.002,1.358,1.783,0.937,1.92,2.159c-0.826-0.533-1.639-1.081-2.4-1.68c-0.054-0.454,0.271-0.529,0.24-0.96
	C60.452,57.427,61.121,57.296,61.135,56.51z"/>
<path fill-rule="evenodd" clip-rule="evenodd" fill="#724E2C" d="M60.175,57.23c-0.155-0.462-0.317-3.255,0.96-2.64
	c0,0.16,0,0.32,0,0.48C59.848,55.316,61.012,56.534,60.175,57.23z"/>
<path fill-rule="evenodd" clip-rule="evenodd" fill="#503023" d="M53.455,54.83c0,0.16,0,0.32,0,0.48
	c-0.343-0.093-0.405-0.288-0.72,0c-0.312,0.596,0.536,1.165,0,1.2C52.206,56.12,52.46,54.492,53.455,54.83z"/>
<path fill-rule="evenodd" clip-rule="evenodd" fill="#503023" d="M53.935,57.71c0.224,0.176,0.363,0.437,0.48,0.72
	c0.613,0.507,0.669,1.571,1.68,1.68c0,0.08,0,0.16,0,0.24c0.003,0.317,0.421,0.22,0.48,0.48
	C55.237,60.247,54.478,59.086,53.935,57.71z"/>
<path fill-rule="evenodd" clip-rule="evenodd" fill="#503023" d="M57.294,60.83c0.217-0.423,0.883-0.396,0.96-0.96
	c0.971-0.469,1.228-1.652,1.92-2.4C59.715,59.091,58.87,60.325,57.294,60.83z"/>
<path fill-rule="evenodd" clip-rule="evenodd" fill="#503023" d="M60.654,58.43c0.03,0.431-0.294,0.506-0.24,0.96
	c0.762,0.599,1.574,1.146,2.4,1.68c0,0.08,0,0.16,0,0.24C61.902,60.657,59.398,59.736,60.654,58.43z"/>
<path fill-rule="evenodd" clip-rule="evenodd" fill="#724E2C" d="M63.534,70.189c0.135,0.346,0.375,0.586,0.721,0.721
	c1.598-1.54,0.556-4.28,0.239-6.48c0-0.08,0-0.16,0-0.24c1.212,1.948,1.686,6.168-0.239,7.44c-1.529-1.031-2.207-2.914-3.841-3.84
	C61.638,68.406,62.952,68.932,63.534,70.189z"/>
<path fill-rule="evenodd" clip-rule="evenodd" fill="#503023" d="M59.694,67.55c1.168,0.036,3.615,0.862,3.84,2.64
	c-0.582-1.258-1.896-1.783-3.12-2.399c-0.08,0-0.159,0-0.239,0C60.121,67.603,59.974,67.511,59.694,67.55z"/>
<path fill-rule="evenodd" clip-rule="evenodd" fill="#503023" d="M49.614,63.71c-0.106-1.067,0.65-1.271,0.96-1.92
	c0.329-0.632,0.809-1.111,1.44-1.44c-0.794,1.047-1.832,1.849-2.16,3.36C49.774,63.71,49.694,63.71,49.614,63.71z"/>
<path fill-rule="evenodd" clip-rule="evenodd" fill="#7A7A79" d="M39.535,55.79c0.831,0.209,0.277,1.802,1.2,1.92
	c0.041,0.521-0.851,0.108-1.2,0.24C39.205,56.896,39.396,56.664,39.535,55.79z"/>
<path fill-rule="evenodd" clip-rule="evenodd" fill="#724E2C" d="M62.814,96.35c-1.06,0.86-2.238,1.603-3.84,1.92
	C59.949,97.324,61.443,96.898,62.814,96.35z"/>
<path fill-rule="evenodd" clip-rule="evenodd" fill="#97572C" d="M57.534,98.51c0.041-0.521-0.851-0.108-1.2-0.24
	c-0.567-0.48-2.247-1.103-2.64-0.96c-0.594-0.365-1.427-0.492-1.68-1.2c-1.588-1.446-0.317-2.414,0.72-3.6c0-0.08,0-0.16,0-0.24
	c0.468-0.892,0.65-2.069,0.72-3.359c-0.346,0.054-0.084,0.716-0.48,0.72c-0.142-1.021,0.172-1.588,0.24-2.4
	c0.547-0.333,0.089-1.67,0.24-2.399c0.992-0.633,3.321,0.531,4.8,0c0.079,0,0.159,0,0.239,0c0.055,0.306,0.717,0.314,0.721,0
	c0.263,2.688-0.097,6.432,1.439,9.359c1.045,0.343,1.104-0.82,1.68-0.24c-0.122,1.003,0.134,1.627,0.48,2.16c0,0.08,0,0.16,0,0.24
	c-1.371,0.549-2.865,0.975-3.84,1.92c-0.349,0.132-1.241-0.28-1.2,0.24C57.694,98.51,57.614,98.51,57.534,98.51z"/>
<path fill-rule="evenodd" clip-rule="evenodd" fill="#724E2C" d="M53.694,97.31c0.394-0.143,2.073,0.479,2.64,0.96
	C55.121,98.283,54.467,97.736,53.694,97.31z"/>
<path fill-rule="evenodd" clip-rule="evenodd" fill="#724E2C" d="M51.294,92.75c0.009-0.791-0.098-1.698,0.72-1.681
	c0.184,0.905-0.293,1.147-0.24,1.92c0.655,0.175,0.483-0.477,0.96-0.479c-1.037,1.186-2.308,2.153-0.72,3.6c-0.08,0-0.16,0-0.24,0
	C50.388,95.722,50.33,93.618,51.294,92.75z"/>
<path fill-rule="evenodd" clip-rule="evenodd" fill="#724E2C" d="M52.975,89.63c0.396-0.004,0.134-0.666,0.48-0.72
	c-0.07,1.29-0.252,2.468-0.72,3.359c-0.17-0.89,0.41-1.03,0.24-1.92C52.975,90.109,52.975,89.87,52.975,89.63z"/>
<path fill-rule="evenodd" clip-rule="evenodd" fill="#503023" d="M65.935,92.989c-0.39,0.172-0.39-1.131,0-0.96
	c0.439-0.462,0.813,0.205,1.2,0.48c-0.431,0.03-0.507-0.294-0.96-0.24C65.894,92.309,65.972,92.707,65.935,92.989z"/>
<path fill-rule="evenodd" clip-rule="evenodd" fill="#724E2C" d="M75.534,105.229c0.165,0.768-1.288,1.278-0.24,2.641
	c-0.079,0-0.159,0-0.239,0C74.303,106.913,74.574,105.705,75.534,105.229z"/>
<path fill-rule="evenodd" clip-rule="evenodd" fill="#724E2C" d="M75.294,104.029c0.799-0.435-0.808-2.03,0.48-2.159
	C74.861,102.749,76.833,103.776,75.294,104.029z"/>
<path fill-rule="evenodd" clip-rule="evenodd" fill="#503023" d="M75.294,100.189c0.105,1.146-0.34,1.74-0.72,2.4
	C74.557,101.532,75.002,100.937,75.294,100.189z"/>
<path fill-rule="evenodd" clip-rule="evenodd" fill="#503023" d="M73.614,106.91c0.012,1.211-0.094,2.306-0.479,3.119
	C72.875,109.407,73.093,107.517,73.614,106.91z"/>
<path fill-rule="evenodd" clip-rule="evenodd" fill="#503023" d="M71.694,113.39c0.524-0.676-0.101-2.501,0.48-3.12
	c0.282,0.209-0.012,2.075-0.24,3.12C71.854,113.39,71.774,113.39,71.694,113.39z"/>
<path fill-rule="evenodd" clip-rule="evenodd" fill="#503023" d="M72.895,105.47c0.101-2.699,0.944-4.656,1.92-6.48
	C74.088,101.063,73.362,103.138,72.895,105.47z"/>
<path fill-rule="evenodd" clip-rule="evenodd" fill="#503023" d="M75.055,98.029c0.079-0.561,0.288-0.991,0.479-1.439
	c-0.306-0.975-1.822-0.737-2.399-1.44c0.521-0.112,2.287,0.586,2.64,1.44C75.441,96.977,75.571,97.827,75.055,98.029z"/>
<path fill-rule="evenodd" clip-rule="evenodd" fill="#503023" d="M72.895,95.149c-1.026-0.413-2.033-0.847-2.88-1.439
	C71.1,94.064,72.233,94.37,72.895,95.149z"/>
<path fill-rule="evenodd" clip-rule="evenodd" fill="#B23823" d="M67.135,92.51c0.893,0.467,1.957,0.763,2.88,1.2
	c0.847,0.593,1.854,1.026,2.88,1.439c0.08,0,0.16,0,0.24,0c0.577,0.703,2.094,0.466,2.399,1.44c-0.191,0.448-0.4,0.879-0.479,1.439
	c-0.076,0.325-0.342,0.459-0.24,0.96c-0.976,1.824-1.819,3.781-1.92,6.48c0,0.08,0,0.16,0,0.24c-0.08,0-0.16,0-0.24,0
	c-0.166,1.434-0.561,2.64-0.479,4.319c0,0.08,0,0.16,0,0.24c-0.581,0.619,0.044,2.444-0.48,3.12c-1.76,0-3.52,0-5.28,0
	c0.892-3.669,0.713-8.407,0.721-12.96c-0.011-1.186-0.049-1.628-0.24-2.16c0.025-0.985,0.039-1.959-0.48-2.399
	c0.17-1.29-0.273-1.967-0.479-2.881c0.037-0.282-0.041-0.681,0.24-0.72C66.628,92.216,66.704,92.54,67.135,92.51z"/>
<path fill-rule="evenodd" clip-rule="evenodd" fill="#503023" d="M64.494,111.949c-0.074,0.562-0.47,0.992,0,1.44
	c-0.16,0-0.319,0-0.479,0C63.698,112.678,63.802,112.206,64.494,111.949z"/>
<path fill-rule="evenodd" clip-rule="evenodd" fill="#503023" d="M64.734,110.27c0.054,0.717-0.886,0.816-0.24,1.44
	C63.406,111.356,63.931,110.53,64.734,110.27z"/>
<path fill-rule="evenodd" clip-rule="evenodd" fill="#724E2C" d="M64.494,95.87c-0.07,0.489-0.649,0.47-0.72,0.96
	c-0.112,0.752,0.604,0.676,0.96,0.96c-0.006,0.708-0.438,0.972-0.96,1.68c0.163,0.558,0.613,0.827,0.96,1.2
	c0.114,0.754-0.299,0.98-0.72,1.2c0.003-0.478,0.654-0.306,0.479-0.96c-0.332-0.468-0.862-0.738-0.96-1.44
	C65.472,98.589,62.063,96.446,64.494,95.87z"/>
<path fill-rule="evenodd" clip-rule="evenodd" fill="#724E2C" d="M35.455,94.189c1.177-0.942,1.269,2.314,1.2,2.641
	C35.946,96.259,36.735,94.189,35.455,94.189z"/>
<path fill-rule="evenodd" clip-rule="evenodd" fill="#724E2C" d="M37.134,100.43c0.08,0,0.16,0,0.24,0
	c0.294,0.797-0.015,0.752,0.24,1.92c0,0.16,0,0.32,0,0.48C37.095,102.389,37.109,101.415,37.134,100.43z"/>
<path fill-rule="evenodd" clip-rule="evenodd" fill="#724E2C" d="M38.094,113.39c0.056-2.323-0.481-5.241-0.24-6.96
	c0.521,2.039,0.148,4.972,0.72,6.96C38.415,113.39,38.254,113.39,38.094,113.39z"/>
<path fill-rule="evenodd" clip-rule="evenodd" fill="#503023" d="M36.895,111.71c0.317,0.462-0.176,0.966,0.24,1.68
	c-0.16,0-0.32,0-0.48,0C36.797,112.893,36.358,111.813,36.895,111.71z"/>
<path fill-rule="evenodd" clip-rule="evenodd" fill="#724E2C" d="M76.734,96.59c0.053-0.188,0.201-0.279,0.48-0.24
	c0.348,1.325-0.358,2.302-0.721,3.36c0.379-0.407,0.26-1.67-0.479-1.681c-0.021,0.381,0.115,0.916-0.24,0.96
	c-0.071-0.95,0.293-1.467,0.72-1.92c0,0.24,0,0.48,0,0.721c0.193-0.127,0.39-0.251,0.721-0.24
	C77.281,97.003,77.156,96.647,76.734,96.59z"/>
<path fill-rule="evenodd" clip-rule="evenodd" fill="#724E2C" d="M74.095,111.229c0.425-0.594-0.342-1.427,0.72-1.68
	C74.415,109.95,74.967,111.302,74.095,111.229z"/>
<path fill-rule="evenodd" clip-rule="evenodd" fill="#724E2C" d="M73.854,111.949c1.1,0.407-0.193,0.597,0,1.44
	c-0.16,0-0.32,0-0.48,0C73.312,112.688,73.917,112.652,73.854,111.949z"/>
<path fill-rule="evenodd" clip-rule="evenodd" fill="#724E2C" d="M50.094,39.71c1.039-0.258,2.985-0.837,3.36,0.24
	c-0.331,0.011-0.527-0.113-0.72-0.24C51.854,39.71,50.975,39.71,50.094,39.71z"/>
<path fill-rule="evenodd" clip-rule="evenodd" fill="#232223" d="M53.455,39.95c0.755,0.12,0.938-0.523,1.44,0
	c0.066,0.494,0.894,0.226,0.96,0.72c-0.246,0.234-0.486,0.474-0.72,0.72c0,0.24,0,0.48,0,0.72c-0.359-0.297-0.839-1.699-1.44-0.96
	c-0.982,0.822,0.33,2.962-1.44,3.6c-2.195,0.435-1.752-1.769-2.16-3.12c-0.858,0.102-1.281,0.639-2.4,0.48c0,0.08,0,0.16,0,0.24
	c-0.08,0-0.16,0-0.24,0c0.15,0.729-0.308,2.067,0.24,2.4c0.402,5.466,5.734,6.296,6.72,0.24c0.08,0,0.16,0,0.24,0
	c0.711-0.217-0.576,1.206-0.24,2.16c0,0.08,0,0.16,0,0.24c-0.806,0.874-1.212,2.148-2.16,2.88c-0.08,0-0.16,0-0.24,0
	c-2.531,0.897-3.66-1.596-4.56-3.12c-0.518-1.242-0.575-2.945-0.96-4.32c0.179-0.739-0.659-0.461-0.48-1.2
	c-0.074-0.554,0.693-0.267,0.72-0.72c0.623-0.257,1.607-0.152,1.92-0.72c0.08,0,0.16,0,0.24,0c0.969-0.471,2.948,0.068,3.84-0.48
	C52.927,39.837,53.124,39.96,53.455,39.95z M51.774,41.39c-0.201,0.279-0.316,0.644-0.24,1.2c0.16,0,0.32,0,0.48,0
	C52.547,42.49,52.245,41.274,51.774,41.39z"/>
<path fill-rule="evenodd" clip-rule="evenodd" fill="#7A7A79" d="M52.015,42.59c-0.16,0-0.32,0-0.48,0
	c-0.077-0.557,0.039-0.921,0.24-1.2C52.245,41.274,52.547,42.49,52.015,42.59z"/>
<path fill-rule="evenodd" clip-rule="evenodd" fill="#503023" d="M47.694,44.75c-0.547-0.333-0.089-1.671-0.24-2.4
	c0.08,0,0.16,0,0.24,0c0,0.32,0,0.64,0,0.96C47.694,43.79,47.694,44.27,47.694,44.75z"/>
<path fill-rule="evenodd" clip-rule="evenodd" fill="#232223" d="M68.574,45.47c-0.014,1.346-0.854,1.867-1.2,2.88
	c-0.771,1.74-2.707,2.966-4.56,1.68c-1.186-1.295-1.657-3.303-2.16-5.28c-0.094-0.343-0.288-0.405,0-0.72
	c0.055-0.425-0.242-1.202,0.48-0.96c-0.077,0.557,0.038,0.921,0.239,1.2c-0.479,3.773,3.851,7.749,5.28,3.36
	c0.985-1.175,1.278-3.042,1.2-5.28c-0.418,0.018-0.746-0.053-0.96-0.24c-0.221-0.419-0.75-0.53-1.44-0.48
	c-0.276,0.284-0.271,0.848-0.239,1.44c0.036,0.597-0.378,0.743-0.48,1.2c-0.663,0.542-1.82,0.043-2.16-0.48
	c-0.014-0.146-0.036-0.284-0.24-0.24c0-0.08,0-0.16,0-0.24c0-0.72,0-1.44,0-2.16c-0.282,0.038-0.681-0.042-0.72,0.24
	c-0.146,0.014-0.284,0.036-0.24,0.24c-0.187,0.053-0.278,0.201-0.239,0.48c-0.241,0.001-0.286-0.194-0.48-0.24c0-0.08,0-0.16,0-0.24
	c0.181-0.82-0.975-0.305-0.72-1.2c0.596,0.036,0.996-0.124,1.2-0.48c2.562-0.004,3.694,0.159,5.279,0.24
	c0.894,0.775,4.222,0.896,2.641,2.64c0,0.08,0,0.16,0,0.24C68.641,43.616,68.541,44.477,68.574,45.47z M63.534,42.83
	c1.098,0.21,0.961-1.895-0.24-1.44C63.263,41.981,63.258,42.546,63.534,42.83z"/>
<path fill-rule="evenodd" clip-rule="evenodd" fill="#232223" d="M53.455,55.31c0.259,0.701,0.537,1.383,0.48,2.4
	c0.543,1.376,1.302,2.537,2.64,3.12c0.24,0,0.48,0,0.72,0c1.576-0.505,2.42-1.739,2.88-3.36c0-0.08,0-0.16,0-0.24
	c0.837-0.696-0.327-1.914,0.96-2.16c0,0.48,0,0.96,0,1.44c-0.014,0.787-0.683,0.917-0.48,1.92c-1.256,1.307,1.248,2.228,2.16,2.88
	c0,0.08,0,0.16,0,0.24c0.621,0.898,1.126,1.914,1.68,2.88c0.316,2.2,1.358,4.94-0.239,6.48c-0.346-0.135-0.586-0.375-0.721-0.721
	c-0.225-1.777-2.672-2.604-3.84-2.64c-0.16,0-0.32,0-0.479,0c-0.967,0.154-2.552-0.313-3.121,0.24c-2.711-1.2-5.478,0.619-6.48,3.12
	c-1.685-1.572-0.552-5.135,0-7.2c0.08,0,0.16,0,0.24,0c0.328-1.512,1.366-2.313,2.16-3.36c0.788-0.092,1.058-0.701,1.68-0.96
	c-0.485-0.795-0.322-2.238-0.96-2.88c0.536-0.035-0.312-0.604,0-1.2C53.05,55.022,53.112,55.216,53.455,55.31z"/>
<path fill-rule="evenodd" clip-rule="evenodd" fill="#A9852D" d="M76.494,97.069c0.054-0.186,0.007-0.473,0.24-0.479
	c0.422,0.058,0.547,0.413,0.48,0.96c-0.331-0.011-0.527,0.113-0.721,0.24C76.494,97.55,76.494,97.31,76.494,97.069z"/>
<path fill-rule="evenodd" clip-rule="evenodd" fill="#A9852D" d="M47.214,102.35c0-1.52,0-3.04,0-4.56
	c0.695-2.462,0.149-8.601,3.12-7.2c-1.052,0.343-0.705,1.679-0.24,2.399c-0.301,0.099-0.49,0.31-0.48,0.721
	c-0.619,0.329-0.053,1.471,0,1.92c-0.248,0.632-0.952,0.809-1.2,1.439c1.03,0.772,0.662,2.009,0,2.88
	c0.074,0.566,0.833,0.447,0.72,1.2c-0.301,0.099-0.49,0.31-0.48,0.721c-0.123,1.957,0.188,5.088,1.2,6.96
	c-1.559,1.032,0.883,2.943,0.24,4.56c-0.4,0-0.8,0-1.2,0c-0.283-3.077-1.078-5.643-1.44-8.64
	C47.304,104.021,47.762,102.683,47.214,102.35z"/>
<path fill-rule="evenodd" clip-rule="evenodd" fill="#724E2C" d="M47.214,102.35c0.547,0.333,0.089,1.671,0.24,2.4
	C46.907,104.417,47.365,103.079,47.214,102.35z"/>
<path fill-rule="evenodd" clip-rule="evenodd" fill="#A9852D" d="M64.015,104.989c0.351-0.208,0.761-0.358,0.72-0.96
	c-0.027-0.897-1.443-1.261-0.72-2.159c0.421-0.22,0.834-0.446,0.72-1.2c-0.347-0.373-0.797-0.643-0.96-1.2
	c0.521-0.708,0.954-0.972,0.96-1.68c-0.356-0.284-1.072-0.208-0.96-0.96c0.07-0.49,0.649-0.471,0.72-0.96c0-0.08,0-0.16,0-0.24
	c0.539-0.485-1.268-0.798-0.479-1.681c0.631,0.071,0.188-0.931,0.96-0.72c0.131,0.349-0.28,1.24,0.24,1.2
	c0.34,0.859,0.051,2.349,0.479,3.12c0.256,5.116,0.136,7.662,0,12c0,0.24,0,0.479,0,0.72c-0.552,0.568-0.086,2.154-0.24,3.12
	c-0.319,0-0.64,0-0.96,0c-0.47-0.448-0.074-0.879,0-1.44c0-0.079,0-0.159,0-0.239c-0.646-0.624,0.294-0.724,0.24-1.44
	c0-0.08,0-0.16,0-0.24c0.146-0.014,0.284-0.035,0.24-0.239c-0.319-0.241-0.894-0.228-0.96-0.721c0.837-1.131-0.322-1.704,0.96-2.64
	C64.683,105.922,64.071,105.732,64.015,104.989z"/>
<path fill-rule="evenodd" clip-rule="evenodd" fill="#503023" d="M37.854,105.949c-0.552-0.567-0.086-2.153-0.24-3.119
	c0-0.16,0-0.32,0-0.48C38.168,103.076,37.699,104.825,37.854,105.949z"/>
<path fill-rule="evenodd" clip-rule="evenodd" fill="#724E2C" d="M73.614,106.91c-0.018-0.898,0.101-1.659,0.48-2.16
	C74.112,105.647,73.993,106.409,73.614,106.91z"/>
<path fill-rule="evenodd" clip-rule="evenodd" fill="#A9852D" d="M37.854,105.949c0,0.16,0,0.32,0,0.48
	c-0.242,1.719,0.296,4.637,0.24,6.96c-0.32,0-0.64,0-0.96,0c-0.416-0.714,0.078-1.218-0.24-1.68c0-0.08,0-0.16,0-0.24
	c0.618-0.596-0.163-0.854-0.48-1.2c0.716-0.881-0.849-1.843,0.24-2.64c-1.258-0.309-0.212-0.714-0.24-1.681
	c-0.043-0.677-1.141-0.299-0.96-1.199c0.687-3.542-1.417-7.781,0-10.561c1.28,0,0.491,2.069,1.2,2.641
	c-0.065,1.425,0.262,2.458,0.48,3.6c-0.025,0.985-0.039,1.959,0.48,2.4C37.769,103.796,37.302,105.382,37.854,105.949z"/>
<path fill-rule="evenodd" clip-rule="evenodd" fill="#503023" d="M65.694,97.55c0.677,3.477,0.727,9.208,0,12
	C65.83,105.212,65.95,102.666,65.694,97.55z"/>
<path fill-rule="evenodd" clip-rule="evenodd" fill="#724E2C" d="M65.694,110.27c0,1.04,0,2.08,0,3.12c-0.08,0-0.16,0-0.24,0
	C65.608,112.424,65.143,110.838,65.694,110.27z"/>
<path fill-rule="evenodd" clip-rule="evenodd" fill="#B23823" d="M44.094,91.79c0.882-0.158,1.614-0.467,2.64-0.48
	c0.097,1.137-0.428,1.651-0.24,2.88c-0.331,0.31-0.238,1.043-0.24,1.681c-0.552,0.567-0.086,2.153-0.24,3.119c0,0.08,0,0.16,0,0.24
	c0.155,1.045-0.313,2.713,0.24,3.36c0,0.08,0,0.16,0,0.24c0.166,1.594,0.026,3.494,0.72,4.56c0,0.16,0,0.32,0,0.48
	c-0.033,2.192,0.523,3.796,0.96,5.52c-2.88,0-5.76,0-8.64,0c-0.011-3.029,0.128-6.208-0.48-8.64
	c-0.078-0.882,0.205-2.125-0.24-2.641c0.065-1.665-0.06-3.141-0.72-4.08c-0.029-0.691,0.131-1.57-0.24-1.92
	c0.128-0.928-0.428-1.171-0.24-2.16c0.571-0.469,1.616-0.464,2.16-0.96c0.08,0,0.16,0,0.24,0c1.264-0.096,2.13-0.59,3.12-0.96
	C43.173,91.828,43.538,91.713,44.094,91.79z"/>
<path fill-rule="evenodd" clip-rule="evenodd" fill="#724E2C" d="M59.694,85.069c0.159,2.66-0.031,3.759,0.48,6.48
	c-0.014,1.133,0.396,1.843,1.199,2.16c-0.02-0.38,0.116-0.916-0.239-0.96c-0.302-0.624-0.414-2.292-0.24-2.641
	c0.16,0,0.32,0,0.479,0c-0.044,0.204,0.094,0.227,0.24,0.24c-0.355,2.216,1.085,3.168,1.44,5.28c0,0.08,0,0.16,0,0.24
	c-0.014,0.146-0.036,0.284-0.24,0.239c-0.347-0.533-0.603-1.157-0.48-2.16c-0.576-0.58-0.635,0.583-1.68,0.24
	c-1.536-2.928-1.177-6.671-1.439-9.359c-0.004,0.314-0.666,0.306-0.721,0C58.594,84.297,59.811,84.6,59.694,85.069z"/>
<path fill-rule="evenodd" clip-rule="evenodd" fill="#232223" d="M16.254,20.03c8.406-5.147,21.01-1.438,29.28,0.48
	c0.516-1.653,1.356-4.103,3.6-4.8c2.573-0.799,5.876,0.532,8.4,1.2c2.262,0.599,4.658,1.266,6.96,2.16
	c3.213,1.248,12.205,4.027,12.96,7.44c0.413,1.864-0.808,3.375-0.239,4.32c5.918,3.361,12.412,6.147,17.76,10.08
	c1.909,2.842,6.467,5.219,4.56,10.32c-0.633-0.817,0.146-2.841-0.24-4.08c-0.473-1.517-3.814-4.908-5.52-6.24
	c-4.086-3.191-9.611-6.027-14.88-8.4c-5.043-2.271-10.754-4.366-16.561-6.24c-11.159-3.602-24.03-8.281-36-8.16
	c-1.891,0.019-5.464,0.284-7.44,0.96C17.802,19.444,17.188,20.697,16.254,20.03z M71.454,22.91
	c-5.315-2.705-14.429-6.313-19.919-6.48c-2.64-0.08-4.375,0.578-4.32,2.88c10.858,1.156,20.918,5.151,29.28,9.6
	C77.906,25.344,74.223,24.318,71.454,22.91z M60.414,23.15c-1.477-0.882-3.935-1.174-6-1.68c-2.69-0.659-5.787-1.953-7.68-0.72
	c0.838,0.202,1.278,0.802,2.4,0.72c0.08,0,0.16,0,0.24,0c4.014,1.242,8.973,2.844,12.959,3.84c0.08,0,0.16,0,0.24,0
	c0,0.08,0,0.16,0,0.24c0.454,0.266,1.134,0.306,1.681,0.48c0.974,0.466,2.085,0.795,3.119,1.2c0.88,0.114,2.163,0.952,3.601,1.2
	c0.453,0.427,0.969,0.791,1.92,0.72c0.691,0.749,1.751,1.129,3.12,1.2c-0.547-1.054-1.905-1.295-2.88-1.92
	c-0.992-0.208-1.408-0.992-2.4-1.2c-0.457-0.103-0.603-0.517-1.2-0.48c-2.634-1.332-5.9-2.885-8.64-3.36
	C60.708,23.336,60.421,23.383,60.414,23.15z"/>
<path fill-rule="evenodd" clip-rule="evenodd" fill="#7A7A79" d="M60.654,84.59c0,1.2,0,2.399,0,3.6
	C60.256,87.54,60.256,85.239,60.654,84.59z"/>
</svg>
