<?xml version="1.0" encoding="utf-8"?>
<!-- Generator: Adobe Illustrator 15.1.0, SVG Export Plug-In . SVG Version: 6.00 Build 0)  -->
<!DOCTYPE svg PUBLIC "-//W3C//DTD SVG 1.1//EN" "http://www.w3.org/Graphics/SVG/1.1/DTD/svg11.dtd">
<svg version="1.1" id="Ebene_1" xmlns="http://www.w3.org/2000/svg" xmlns:xlink="http://www.w3.org/1999/xlink" x="0px" y="0px"
	 width="113.39px" height="113.39px" viewBox="0 0 113.39 113.39" enable-background="new 0 0 113.39 113.39" xml:space="preserve">
<g>
	<path fill-rule="evenodd" clip-rule="evenodd" fill="#CDB171" d="M57.535,45.944c1.086,0.274,1.421,1.3,2.88,1.2
		c0.955-1.268-0.235-1.922,0.721-2.88c0.175,0.851,1.185,2.384,1.92,1.2c0.08,0,0.16,0,0.24,0c-0.147,0.214-0.29,0.429,0,0.48
		c0.395-0.684,1.302,0.115,1.68,0.24c0.845-0.942,2.54-0.519,4.08-0.72c0.08,0,0.16,0,0.24,0c-0.372,0.239,2.354,1.664,3.36,2.4
		c-0.158-0.116,0.148-0.558,0.24-0.48c-0.063,0.994,0.932,0.319,0.96,0.72c0.187,0.534,0.504,0.936,0.48,1.68
		c-0.116,1.919,0.896,1.934,0.239,3.601c-0.655,2.761-1.181,4.896-1.68,7.2c0.192,0.833-0.357,0.923-0.24,1.681
		c-0.422,0.697-0.547,1.693-0.72,2.64c-0.57,1.883-0.362,3.084-1.44,4.32c-0.511,0.85-0.693,2.027-1.2,2.881
		c-0.016,1.104-0.682,1.558-0.96,2.4c-1.415-0.665-2.391-1.77-3.601-2.641c-0.641-0.67,0.226-1.186,0.24-1.92
		c0.771-0.89-1.491-1.555-1.92-0.721c-1.664,0.552-4.99-0.974-6.241,0.48c0.021-0.341,0.04-0.68-0.24-0.72
		c-2.261,0.858-5.357,0.884-8.161,1.2c-0.195,0.045-0.239,0.24-0.48,0.239c1.526,2.621,3.598,4.105,6.721,5.521
		c1.523,0.383,2.677,0.58,4.081,0c0.689,0.05,1.219-0.061,1.44-0.479c0.646-0.154,0.674-0.927,1.439-0.96
		c1.191,0.089,1.2,1.36,2.4,1.439c2.326,1.299,0.723,2.666-0.72,3.841c-0.81,0.71-1.981,1.06-3.36,1.2
		c-0.942,0.324-2.747-0.583-2.641,0.24c-1.276,0.042-2.843,0.265-4.32-0.24c-0.452-0.669-1.693-0.548-2.4-0.96
		c-1.059-0.382-2.126-0.754-2.641-1.681c-1.616-1.424-3.059-3.021-4.56-4.561c-0.777-1.383-1.944-2.376-3.121-3.36
		c-2.633-3.175-4.538-5.665-5.76-10.32c0.226-0.949,0.187-1.392-0.24-2.16c0-0.24,0-0.48,0-0.72c0.219-0.988,0.667-3.005,0.48-3.601
		c-0.105-0.825,0.095-1.345,0.24-1.92c0.244-0.156,0.248-0.552,0.72-0.48c1.226,2.374,3.776,3.425,6,4.8
		c0.193-0.127,0.39-0.25,0.72-0.24c0.045,0.195,0.241,0.239,0.24,0.48c0.312,0.563-0.122,0.537,0.48,0.96
		c1.095-0.589,5.27,0.693,6.961-0.96c1.165-0.911,2.185-1.861,1.92-3.601c-0.704-3.212-6.251-4.701-8.881-4.08
		c-0.08,0-0.16,0-0.24,0c-0.395-0.301-2.057,0.173-2.4,0.72c-0.193,0.127-0.39,0.25-0.72,0.24c-0.82,0.098-0.305,0.648-1.2,0.24
		c-0.08,0-0.16,0-0.24,0c-0.054,0.107-0.989-0.047-1.44,0.24c-0.068,0.388,0.227,0.413,0.24,0.72c0,0.08,0,0.16,0,0.24
		c-0.655,0.175-0.483-0.477-0.96-0.48c0.344-0.698,0.184-0.27-0.48-0.24c-0.304-0.732,0.82-1.222,0.24-1.44
		c0.511-1.539,0.698-2.038,0.48-4.08c0.317-0.003,0.22-0.421,0.48-0.48c-0.044,0.848,1.016,1.314,0.48,1.92
		c0.42-0.066,1.197,0.676,1.44,0c0.601,0.03,0.751,0.458,0.96-0.24c0.039-0.281,0.438-0.202,0.72-0.24
		c1.036,0.198,4.277,0.35,4.081-0.24c0.08,0,0.16,0,0.24,0c0.583,0.698,2.504,0.37,3.601,0.24c0.08,0,0.16,0,0.24,0
		c2.989,0.341,5.618,0.151,8.641,0.96c0.046-0.194,0.241-0.239,0.24-0.48C57.535,46.104,57.535,46.024,57.535,45.944z
		 M73.616,51.225c0.488,0.073-0.049-0.693-0.239-0.72c-0.099,0.409-0.31-0.05-0.721,0c0.004-0.396,0.666-0.134,0.721-0.48
		c-0.28-0.041-0.261-0.379-0.24-0.72c-0.426,0.055-1.202-0.242-0.96,0.48c-0.311,0.243-1.164,1.293-0.96,0
		c0.709-1.273-0.164-0.5-0.961-0.72c-0.968-0.267-3.874-1.088-5.04-0.24c-2.688,1.087-5.857,2.653-5.521,6
		c0.261,0.699,0.98,0.94,1.68,1.2c-0.301,0.869,1.653-0.039,0.961,0.96c1.357-0.835,2.818,0.932,3.84-0.24
		c1.196-0.324,2.771-0.269,3.36-1.2c0.285-0.515,1.04-0.561,1.44-0.96c0.343-0.094,0.404-0.288,0.72,0
		c-0.304-0.732,0.82-1.222,0.24-1.44c0-0.08,0-0.16,0-0.24c0.08,0,0.16,0,0.24,0c-0.314-1.274,1.337-0.583,1.439-1.44
		C73.616,51.384,73.616,51.305,73.616,51.225z M42.414,68.746c0.29,0.051,0.147,0.267,0,0.479c0.092,0.278,1.166,0.278,0.48,0
		c-0.146-0.013-0.284-0.035-0.24-0.239c0.24,0,0.48,0,0.72,0c-0.038-0.283,0.041-0.682-0.24-0.721
		C43.13,68.662,42.468,68.4,42.414,68.746z"/>
	<path fill-rule="evenodd" clip-rule="evenodd" fill="#6A5D52" d="M43.854,38.744c0.571,0.829,0.343,1.051,0.48,2.4
		C43.75,40.801,43.664,39.108,43.854,38.744z"/>
	<path fill-rule="evenodd" clip-rule="evenodd" fill="#BA918D" d="M44.334,49.784c0.965-0.165,1.37,0.23,2.16,0.24
		c0,0.08,0,0.16,0,0.24c-0.4,0-0.8,0-1.2,0c-0.044-0.355-0.58-0.22-0.96-0.24C44.334,49.944,44.334,49.864,44.334,49.784z"/>
	<path fill-rule="evenodd" clip-rule="evenodd" fill="#D3C5A0" d="M41.694,52.905c0.255-0.545,1.509-0.091,2.16-0.24
		c0,0.32,0,0.64,0,0.96c-0.08,0-0.16,0-0.24,0C43.464,52.357,42.521,53.311,41.694,52.905z"/>
	<path fill-rule="evenodd" clip-rule="evenodd" fill="#6A5D52" d="M89.458,64.666c0.397,0.259,0.397,2.141,0,2.399
		C89.458,66.266,89.458,65.466,89.458,64.666z"/>
	<path fill-rule="evenodd" clip-rule="evenodd" fill="#272923" d="M43.134,83.867c-0.067-0.388,0.227-0.413,0.24-0.72
		c0.752-0.112,0.676,0.604,0.96,0.96C44.041,84.834,43.418,83.938,43.134,83.867z"/>
	<path fill-rule="evenodd" clip-rule="evenodd" fill="#272923" d="M44.094,84.827c1.167,0.809,0.773,4.109,1.2,5.521
		c-0.549,0.411-0.088,1.832-0.24,2.641c0.342,1.045-0.82,1.104-0.24,1.68c-0.224,0.176-0.364,0.437-0.48,0.721
		c-0.194-0.046-0.239-0.241-0.48-0.24c0.367-2.521,0.477-7.013,0-9.601c0-0.24,0-0.48,0-0.721
		C43.934,84.827,44.014,84.827,44.094,84.827z"/>
	<path fill-rule="evenodd" clip-rule="evenodd" fill="#272923" d="M46.014,84.827c0.501-0.102,0.636,0.165,0.96,0.24
		c-0.058,0.422-0.413,0.547-0.96,0.48C46.014,85.308,46.014,85.067,46.014,84.827z"/>
	<path fill-rule="evenodd" clip-rule="evenodd" fill="#6A5D52" d="M52.255,84.827c0.897-0.018,1.659,0.102,2.16,0.48
		c-0.618,0.756-1.145-0.6-2.16-0.24C52.255,84.987,52.255,84.907,52.255,84.827z"/>
	<path fill-rule="evenodd" clip-rule="evenodd" fill="#272923" d="M49.134,86.027c0.24,0,0.48,0,0.72,0
		c0.222,4.3,1.167,8.842,0,12.241C48.728,94.543,49.839,89.258,49.134,86.027z"/>
	<path fill-rule="evenodd" clip-rule="evenodd" fill="#272923" d="M46.494,86.508c1.783,3.103,0.617,6.891,0.48,10.561
		c-1.429-1.673-0.271-4.147-0.24-5.761C46.764,89.746,46.407,88.423,46.494,86.508z"/>
	<path fill-rule="evenodd" clip-rule="evenodd" fill="#272923" d="M52.735,87.708c-0.632,0.072-0.788-0.333-0.72-0.96
		C52.816,86.507,52.802,87.081,52.735,87.708z"/>
	<path fill-rule="evenodd" clip-rule="evenodd" fill="#272923" d="M61.375,95.868c-0.358-2.926-0.74-6.156-0.479-8.881
		c1.373,2.602-0.06,4.614,1.2,8.401c-0.097,0.637-0.031,2.22,0.479,2.64c0.096,0.466-1.093,0.351-0.72-0.24
		C61.604,97.239,61.703,96.341,61.375,95.868z"/>
	<path fill-rule="evenodd" clip-rule="evenodd" fill="#272923" d="M63.296,87.228c0.307-0.013,0.332-0.308,0.72-0.24
		c0.102,0.485-0.3,2.583,0.24,3.841c-0.911,2.751,1.699,5.01,0,6.48C63.733,95.1,63.17,90.581,63.296,87.228z"/>
	<path fill-rule="evenodd" clip-rule="evenodd" fill="#272923" d="M55.135,95.868c-0.053-4.111-0.512-5.288,0.24-8.641
		c0.838,3.362,0.296,8.061,0.72,12.241c-1.067-0.149-0.411-0.533-0.72-1.44C55.314,96.894,55.276,96.451,55.135,95.868z"/>
	<path fill-rule="evenodd" clip-rule="evenodd" fill="#272923" d="M58.255,95.389c0.052-3.613-1.072-5.083-0.239-8.161
		c0.846,1.253,0.299,3.115,0.479,5.28c0.187,2.229,1.627,5.118,0.72,6.721C58.428,98.416,58.776,96.468,58.255,95.389z"/>
	<path fill-rule="evenodd" clip-rule="evenodd" fill="#272923" d="M52.015,91.788c0.213-0.882-0.204-2.782,0.24-3.601
		c1.585,1.287,0.272,6.234,0.72,7.921c-0.625,0.606,0.513,1.907-0.24,2.641c-0.16,0-0.32,0-0.48,0
		c-0.302-1.354,0.486-2.383-0.24-3.841C52.413,94.416,52.413,92.28,52.015,91.788z"/>
	<path fill-rule="evenodd" clip-rule="evenodd" fill="#6A5D52" d="M66.416,88.188c0,0.88,0,1.761,0,2.641
		C66.019,90.492,66.019,88.523,66.416,88.188z"/>
	<path fill-rule="evenodd" clip-rule="evenodd" fill="#6A5D52" d="M65.216,88.668c0,0.96,0,1.92,0,2.88
		c-0.559-0.986-0.235-1.652-0.24-2.88C65.056,88.668,65.136,88.668,65.216,88.668z"/>
	<path fill-rule="evenodd" clip-rule="evenodd" fill="#6A5D52" d="M45.294,90.348c-0.152,0.809,0.31,2.229-0.24,2.641
		C45.206,92.18,44.745,90.759,45.294,90.348z"/>
	<path fill-rule="evenodd" clip-rule="evenodd" fill="#6A5D52" d="M52.015,91.788c0.398,0.492,0.398,2.628,0,3.12
		C52.015,93.868,52.015,92.828,52.015,91.788z"/>
	<path fill-rule="evenodd" clip-rule="evenodd" fill="#6A5D52" d="M75.297,97.788c1.099,0.262,2.005,0.716,2.64,1.44
		C77.079,98.727,76.088,98.357,75.297,97.788z"/>
	<path fill-rule="evenodd" clip-rule="evenodd" fill="#6A5D52" d="M68.096,95.389c1.598,0.309,2.75,0.695,3.601,1.2
		C71.215,96.584,69.239,96.041,68.096,95.389z"/>
	<path fill-rule="evenodd" clip-rule="evenodd" fill="#6A5D52" d="M67.136,83.627c0.643-1.377-0.749-2.707-2.16-3.36
		c0.472-0.93,1.824-3.298,2.641-1.68c-0.431,0.03-0.507-0.294-0.96-0.24c-0.423,0.618-1.044,1.036-1.44,1.681
		C66.516,80.732,68.306,82.522,67.136,83.627z"/>
	<path fill-rule="evenodd" clip-rule="evenodd" fill="#6A5D52" d="M67.856,78.827c2.859,0.594,3.7,4.441,6.72,4.08
		C72.392,84.389,70.366,79.904,67.856,78.827z"/>
	<path fill-rule="evenodd" clip-rule="evenodd" fill="#6A5D52" d="M90.898,62.025c0.251-0.949,0.913-1.486,1.68-1.92
		C92.114,60.841,91.382,61.31,90.898,62.025z"/>
	<path fill-rule="evenodd" clip-rule="evenodd" fill="#6A5D52" d="M89.938,56.265c1.027-0.813,2.631-1.05,4.081-1.44
		C93.239,55.36,91.507,55.856,89.938,56.265z"/>
	<path fill-rule="evenodd" clip-rule="evenodd" fill="#6A5D52" d="M92.338,48.344c-0.309,1.531-1.202,2.479-2.4,3.12
		C90.832,50.518,91.729,49.575,92.338,48.344z"/>
	<path fill-rule="evenodd" clip-rule="evenodd" fill="#6A5D52" d="M88.738,39.943c0.923,1.077,1.986,2.014,2.64,3.36
		C90.383,42.298,89.519,41.163,88.738,39.943z"/>
	<path fill-rule="evenodd" clip-rule="evenodd" fill="#6A5D52" d="M86.338,37.543c1.026,0.414,1.618,1.262,2.16,2.16
		C87.758,39.003,86.939,38.382,86.338,37.543z"/>
	<path fill-rule="evenodd" clip-rule="evenodd" fill="#6A5D52" d="M70.256,25.542c1.188,0.572,1.989,1.531,3.121,2.16
		C72.008,27.311,71.162,26.396,70.256,25.542z"/>
	<path fill-rule="evenodd" clip-rule="evenodd" fill="#272923" d="M55.135,16.662c3.139,1.022,4.853,3.468,7.921,4.56
		c-0.084-4.956,7.83-12.455,8.4-4.08c-0.239,0-0.479,0-0.72,0c-2.73,0.87-4.342,2.859-5.761,5.041c0.45,1.23,1.643,1.717,2.881,2.16
		c0.907,0.335,1.149,0.8,2.399,1.2c0.906,0.854,1.752,1.769,3.121,2.16c4.517,3.083,8.896,6.305,12.961,9.841
		c0.602,0.838,1.42,1.459,2.16,2.16c0.014,0.146,0.035,0.284,0.24,0.24c0.78,1.219,1.645,2.355,2.64,3.36
		c0.638,1.648,1.321,2.961,0.96,5.041c-0.609,1.23-1.506,2.174-2.4,3.12c-1.074,0.685-1.854,1.666-3.6,1.68
		c-0.231-0.594-0.922,0.331-1.681,0c-0.021,0.341-0.039,0.68,0.24,0.72c0.689,0.751,0.572,2.308,1.681,2.64
		c2.254-1.027,5.071-2.767,8.16-2.16c-0.241,0.382-0.227,0.966-0.72,0.48c-1.45,0.391-3.054,0.627-4.081,1.44
		c-2.063,0.977-4.493,1.587-5.521,3.6c4.453,4.992,1.466,12.479-4.08,14.881c-1.131,0.31-2.092,0.788-2.88,1.44
		c-1.044,0.076-1.519,0.722-2.4,0.96c0.004-0.716,0.624-0.815,0.72-1.439c-0.505,0.075-1.433,0.683-1.2-0.48
		c-0.079,0-0.159,0-0.239,0c-0.632-0.071-0.189,0.932-0.96,0.72c-1.153-0.079-1.438-0.138-2.881-0.239
		c-0.112,0.752,0.604,0.676,0.96,0.96c1.916,1.412,6.272,4.017,3.12,6.24c-3.02,0.361-3.86-3.486-6.72-4.08
		c-0.014-0.146-0.036-0.284-0.24-0.24c-0.816-1.618-2.169,0.75-2.641,1.68c1.411,0.653,2.803,1.983,2.16,3.36
		c0.069,1.884-0.55,3.625-0.72,4.561c-0.397,0.336-0.397,2.305,0,2.641c0.104,1.39,0.431,3.072,0.72,4.08
		c0.355,0.125,0.605,0.355,0.96,0.48c1.144,0.652,3.119,1.195,3.601,1.2c1.449,0.15,2.5,0.699,3.601,1.199
		c0.791,0.569,1.782,0.938,2.64,1.44c7.28,3.04,14.858,6.982,16.082,14.161c-0.32,0-0.641,0-0.96,0
		c-0.331-0.789-0.63-1.61-0.961-2.4c-0.43-0.93-0.938-1.78-1.68-2.399c-0.423-0.218-0.396-0.884-0.96-0.961
		c-0.375-0.744-1.02-1.221-1.681-1.68c-1.558-0.727-1.712-1.529-3.36-1.92c-0.891-0.873-2.558-2.237-3.6-2.16
		c-0.7-0.26-0.903-1.018-1.92-0.96c-0.325-0.636-1.346-0.575-1.921-0.961c-2.509-1.354-4.369-1.875-7.44-2.64
		c-1.271-0.729-3.124-0.876-3.84-2.16c-0.323-1.52,0.107-1.911-0.48-3.601c0-0.96,0-1.92,0-2.88c0.39-2.062,0.425-4.752,1.2-5.761
		c-0.602-0.998-1.372-1.828-2.641-2.16c-0.354,0.125-0.604,0.355-0.96,0.48c-0.038,0.918-0.143,1.903,0.721,1.92
		c-1.533,2.72-5.175,2.187-9.121,2.16c-0.501-0.379-1.263-0.498-2.16-0.48c-1.181-0.419-2.263-0.938-3.601-1.2
		c-0.615-0.745-1.762-0.958-2.16-1.92c0.029-0.721,1.456-0.677,0.72-1.44c0-0.239,0-0.479,0-0.72
		c-2.134,1.066-5.073,1.327-4.8,4.801c-0.014,1.054,0.096,1.983,0.48,2.64c-0.473,2.368,1.81,6.215-0.72,8.401
		c-0.855,0.738-2.697,1.68-3.84,2.16c-5.453,2.29-13.074,3.897-16.801,7.44c-2.306,2.191-4.06,4.152-5.041,8.4
		c-0.48,0-0.96,0-1.44,0c1.583-5.17,3.124-8.017,6.961-10.561c3.448-2.287,7.402-3.666,11.281-5.041
		c2.778-0.984,7.23-1.606,8.401-4.08c1.061-2.241-1.135-7.311-0.72-10.801c0.316-2.657,3.078-2.396,5.041-4.561
		c-1.164-1.59-3.635,0.039-4.8,0.24c-2.107-0.907-3.181-0.302-4.561-0.96c0.565,0.065,0.146,1.063-0.24,0.96
		c-1.272-1.377-0.939-0.241-2.64,0c-1.163,0.035-2.211-1.299-3.36-0.48c-1.851,0.331-2.006-1.033-2.88-1.68
		c-0.615-0.505-0.914-1.326-0.96-2.4c-0.214-0.985-0.782-1.617-0.96-2.64c-0.49,0.506,0.298,1.771,0,2.88
		c-0.014,0.146-0.036,0.284-0.24,0.24c-0.329-0.632-0.809-1.112-1.44-1.44c-0.054-0.187-0.006-0.474-0.24-0.48
		c-0.763-1.957-1.536-3.904-2.16-6c-0.854-5.25-0.744-12.245,0.72-18.242c0.701-0.991,0.384-1.524,0.96-2.64
		c0.369-2.729,1.409-5.256,2.88-7.441c0.582-0.864,2.383-2.386,2.4-2.88c0.033-0.928-1.941-1.568-1.92-2.641
		c-0.298-0.742-0.592-1.488-1.2-1.92c-0.356-0.204-0.516-0.604-0.48-1.2c-0.173-0.947-0.297-1.942-0.72-2.64c0-0.16,0-0.32,0-0.48
		c0.369-0.751,0.382-1.858,0.48-2.88c4.178-8.518,17.306-12.216,26.882-8.641C52.563,15.712,54.019,16.018,55.135,16.662z
		 M69.776,15.221c-1.972-2.097-3.586,1.229-4.32,2.641c-0.83,1.65-1.128,3.833-2.641,4.8c-6.893-4.756-14.05-8.861-22.802-7.681
		c-3.658,0.493-6.137,2.604-8.881,3.36c-2.022,1.961-5.544,3.554-5.76,7.44c-0.19,3.425,2.099,6.601,4.56,8.641
		c0.78-0.5,1.564-0.996,2.4-1.44c4.398-1.469,11.282-0.742,14.161,0.24c10.707,3.65,21.113,12.071,34.083,14.881
		c1.095,1.341,2.569,0.907,3.601,2.4c-0.32,0-0.641,0-0.96,0c-0.092,0.892,0.973,0.627,0.72,1.68
		c5.404-0.084,8.986-3.851,6.721-7.681c-0.7-0.74-0.9-1.979-1.92-2.4c-2.657-4.514-7.574-6.646-11.521-9.841
		c-0.587-0.475-0.835-1.233-1.44-1.68c-3.871-2.863-8.723-4.448-11.761-7.92c0.323-1.197,1.13-1.911,1.44-3.12
		c0.014-0.146,0.036-0.284,0.24-0.24c0.785-0.735,1.831-1.208,2.399-2.16c1.087-0.034,1.257-0.984,2.4-0.96
		C70.537,15.581,70.128,15.43,69.776,15.221z M40.734,36.823c-1.403,1.307-0.765,5.561,0.48,5.041
		C40.466,40.976,40.831,38.895,40.734,36.823z M44.334,41.144c-0.137-1.349,0.091-1.571-0.48-2.4
		C43.664,39.108,43.75,40.801,44.334,41.144z M36.413,43.784c0,0.32,0,0.64,0,0.96c0.218,2.042,0.031,2.541-0.48,4.08
		c-0.213,0.427-0.67,0.61-0.48,1.44c-0.344,0.295-0.455,0.825-0.48,1.44c-0.145,0.575-0.345,1.095-0.24,1.92
		c-0.664,0.845-0.593,2.637-0.48,3.601c0,0.24,0,0.48,0,0.72c-0.279,0.141-0.039,1.783,0.24,2.16
		c1.223,4.655,3.127,7.146,5.76,10.32c0.895,1.186,2.069,2.092,2.88,3.36c1.539,1.582,2.862,3.379,4.8,4.561
		c0.514,0.927,1.582,1.299,2.641,1.681c0.435,0.685,1.466,0.773,2.4,0.96c1.477,0.505,3.044,0.282,4.32,0.24
		c1.044,0.048,1.746,0.272,2.641-0.24c1.379-0.141,2.551-0.49,3.36-1.2c0.932-0.563,2.538-1.546,2.4-2.4
		c-0.388-0.818-2.677-3.079-4.081-2.88c-0.766,0.033-0.794,0.806-1.439,0.96c-0.662,0.218-1.686,0.074-2.16,0.479
		c-1.371-0.083-2.01-0.052-3.361-0.479c-1.564,0.412-2.605-1.928-3.84-2.881c-0.91-0.702-2.991-0.491-2.4-2.399
		c2.804-0.316,5.899-0.342,8.161-1.2c0.279,0.04,0.26,0.379,0.24,0.72c1.25-1.454,4.577,0.071,6.241-0.48
		c0.965-0.084,1.756,0.004,1.92,0.721c-0.421,0.369-1.625,1.878-0.24,1.92c1.21,0.871,2.186,1.976,3.601,2.641
		c0.278-0.843,0.944-1.296,0.96-2.4c0.664-0.696,1.166-1.555,1.2-2.881c1.078-1.236,0.87-2.438,1.44-4.32
		c0.471-0.649,0.647-1.592,0.72-2.64c-0.117-0.758,0.433-0.848,0.24-1.681c0.88-2.08,1.597-4.323,1.68-7.2
		c0.657-1.667-0.355-1.682-0.239-3.601c0.08,0,0.16,0,0.239,0c-0.165-1.03-0.09-1.586-0.239-2.16
		c-2.009-0.392-3.187-1.614-5.041-2.16c-0.08,0-0.16,0-0.24,0c-1.592-1.063-3.755,0.487-5.76-0.24c0,0.08,0,0.16,0,0.24
		c-0.08,0-0.16,0-0.24,0c0-0.08,0-0.16,0-0.24c-1.345,0.631-1.5-1.375-2.4-1.92c-0.265,0.727-0.455,2.431,0,3.121
		c-1.291,1.104-2.021-1.418-3.12-0.48c0,0.08,0,0.16,0,0.24c-2.9-0.403-6.941-1.064-8.881-0.48c-0.08,0-0.16,0-0.24,0
		c-1.029-0.453-2.532-0.446-3.601-0.24c-0.08,0-0.16,0-0.24,0c-1.188-0.167-2.884-0.219-4.081,0.24
		c-0.282,0.038-0.681-0.042-0.72,0.24c-0.319,0.036-0.724-0.976-0.96-0.24c0.776,0.276-0.645,0.271-0.96,0.24
		c-0.312-0.888-0.796-1.604-0.96-2.64c0.194,0.095,0.082-1.499-0.24-1.68C36.251,42.022,36.462,43.033,36.413,43.784z
		 M24.172,61.306c1.048-1.767,0.947-7.651,1.44-9.841C23.966,54.526,24.68,58.945,24.172,61.306z M26.572,65.626
		c0.006-2.407-0.125-5.297,0-8.401c-0.282,0.038-0.681-0.042-0.72,0.24C26.401,59.563,25.339,62.091,26.572,65.626z M33.293,62.985
		c0.32,0,0.64,0,0.96,0c-0.236-0.712-0.339-1.184-0.48-1.44c-0.051,0.29-0.266,0.148-0.48,0
		C33.293,62.025,33.293,62.506,33.293,62.985z M34.493,64.186c-0.48,0-0.96,0-1.44,0c-0.125,0.355-0.355,0.605-0.48,0.96
		c-0.279,0.041-0.26,0.38-0.24,0.721c-0.374,0.063-0.167,0.526,0,0.72c-0.333,0.239-0.006,1.898,0.72,2.4
		c0.926,0.27,1.109,0.567,2.16,0.239c0,0.08,0,0.16,0,0.24c0.897,0.018,1.375-0.386,1.68-0.96c0.447-1.437-1.444-2.971-1.68-3.84
		C35.115,64.364,34.904,64.175,34.493,64.186z M73.377,64.905c-0.687,0.048-0.878,1.825-0.721,1.921c0,0.08,0,0.16,0,0.239
		c0.363,0.597,1.069,0.852,2.16,0.721c0.104-0.457,0.518-0.604,0.48-1.2C75.82,65.269,74.539,64.144,73.377,64.905z M80.577,64.905
		c0.435,2.615-0.321,3.755,0.48,6.241C81.572,69.253,81.845,67.015,80.577,64.905z M82.978,70.906
		c0.867,0.228,0.335-0.945,0.479-1.44C82.59,69.238,83.123,70.411,82.978,70.906z M56.815,70.906c-1.955-1.743-4.8,0.69-7.201,0
		c2.149,2.511,8.92,5.956,11.041,2.16c-3.171-0.28-6.69,0.557-9.121-1.44c2.784-0.143,4.861,0.42,7.68,0.24
		c0.606-1.394,3.753-0.248,4.321-1.68C61.134,70.286,58.055,69.226,56.815,70.906z M64.016,72.586
		c-0.656-0.223-1.023-0.736-1.68-0.96c-0.036,0.525-0.605,0.516-1.2,0.48c-0.63,0.724,1.071,1.158,1.439,1.68
		c1.018,0.184,1.399,1.002,2.16,1.44c0.555,0.886,1.742,1.139,2.4,1.92c1.018,0.183,1.399,1.002,2.16,1.44
		c0.455,0.593,1.844,1.506,2.16,1.44c0.331,0.01,0.527-0.113,0.721-0.24c-0.162-2.575-4.082-3.426-5.761-5.28
		C65.861,73.62,64.675,73.368,64.016,72.586z M31.133,74.746c0.011-0.822-0.425-2.438-0.96-1.92
		C30.608,73.265,30.15,74.382,31.133,74.746z M73.137,79.547c-1.105,0.584-0.516,2.424,0.96,2.4c0.903-0.922,0.045-1.857-0.72-2.4
		C73.297,79.547,73.217,79.547,73.137,79.547z M53.215,82.427c-1.621-0.224-3.742-2.222-4.8-1.439c0.08,0,0.16,0,0.24,0
		c0,0.08,0,0.16,0,0.24c-0.355,0.044-0.22,0.579-0.24,0.96c0.515,0.445,1.278,0.642,2.16,0.72c1.874,0.804,3.436,1.352,5.76,1.2
		c0.259,0.397,2.142,0.397,2.4,0c0.678,0.217,2.062,0.086,2.64-0.48c0.747-0.053,0.406-1.194,0.48-1.92
		c-0.428,0.133-0.997,0.123-1.2,0.48c-0.809,0.07-1.64,0.12-2.16,0.479C57.254,82.526,55.694,82.601,53.215,82.427z"/>
	<path fill-rule="evenodd" clip-rule="evenodd" fill="#6A5D52" d="M51.535,14.981c1.352,0.409,2.718,0.802,3.6,1.68
		C54.019,16.018,52.563,15.712,51.535,14.981z"/>
	<path fill-rule="evenodd" clip-rule="evenodd" fill="#6A5D52" d="M23.212,45.704c-0.577,1.116-0.259,1.649-0.96,2.64
		C22.164,47.056,22.612,46.304,23.212,45.704z"/>
	<path fill-rule="evenodd" clip-rule="evenodd" fill="#6A5D52" d="M21.532,66.586c0.625,2.096,1.397,4.043,2.16,6
		C22.583,70.976,21.768,69.07,21.532,66.586z"/>
	<path fill-rule="evenodd" clip-rule="evenodd" fill="#6A5D52" d="M23.932,73.066c0.631,0.328,1.112,0.809,1.44,1.44
		C24.879,74.983,24.221,73.59,23.932,73.066z"/>
	<path fill-rule="evenodd" clip-rule="evenodd" fill="#6A5D52" d="M67.856,24.342c-1.238-0.443-2.431-0.93-2.881-2.16
		c1.419-2.182,3.03-4.17,5.761-5.041c-2.236,1.364-4.383,2.817-5.521,5.28C66.025,23.133,66.889,23.79,67.856,24.342z"/>
	<path fill-rule="evenodd" clip-rule="evenodd" fill="#6A5D52" d="M90.418,108.59c0.741,0.619,1.25,1.47,1.68,2.399
		C91.413,110.314,90.831,109.536,90.418,108.59z"/>
	<path fill-rule="evenodd" clip-rule="evenodd" fill="#6A5D52" d="M87.777,105.949c0.661,0.459,1.306,0.936,1.681,1.68
		C88.848,107.18,87.474,106.551,87.777,105.949z"/>
	<path fill-rule="evenodd" clip-rule="evenodd" fill="#6A5D52" d="M80.817,101.869c1.042-0.077,2.709,1.287,3.6,2.16
		C83.093,103.434,82.131,102.476,80.817,101.869z"/>
	<path fill-rule="evenodd" clip-rule="evenodd" fill="#6A5D52" d="M65.696,95.148c0.716,1.284,2.568,1.432,3.84,2.16
		C67.917,97.049,66.254,96.843,65.696,95.148z"/>
	<path fill-rule="evenodd" clip-rule="evenodd" fill="#6A5D52" d="M47.214,80.267c0.735,0.764-0.691,0.72-0.72,1.44
		c0.398,0.962,1.545,1.175,2.16,1.92c-1.385-0.215-1.862-1.338-2.64-2.16c-0.008-0.728,1.208-0.232,1.2-0.96
		C46.942,80.461,47.081,80.267,47.214,80.267z"/>
	<path fill-rule="evenodd" clip-rule="evenodd" fill="#6A5D52" d="M42.414,84.348c0.362,0.678,0.423,1.656,0.48,2.64
		C42.51,86.331,42.4,85.401,42.414,84.348z"/>
	<path fill-rule="evenodd" clip-rule="evenodd" fill="#6A5D52" d="M27.533,76.427c0.874,0.646,1.029,2.011,2.88,1.68
		C29.082,78.87,27.509,77.815,27.533,76.427z"/>
	<path fill-rule="evenodd" clip-rule="evenodd" fill="#BA918D" d="M25.373,30.823c0.608,0.432,0.902,1.178,1.2,1.92
		C25.877,32.398,25.583,31.652,25.373,30.823z"/>
	<path fill-rule="evenodd" clip-rule="evenodd" fill="#6A5D52" d="M24.172,26.982c0.422,0.698,0.547,1.693,0.72,2.64
		C24.125,28.748,24.271,28.451,24.172,26.982z"/>
	<path fill-rule="evenodd" clip-rule="evenodd" fill="#6A5D52" d="M65.456,17.862c0.734-1.411,2.349-4.738,4.32-2.641
		c-0.256,0.817-0.075-0.667-0.721-0.24c-0.422,0.138-1.41-0.29-1.439,0.24C66.538,15.743,66.446,17.252,65.456,17.862z"/>
	<path fill-rule="evenodd" clip-rule="evenodd" fill="#BA918D" d="M90.658,44.504c2.266,3.83-1.316,7.596-6.721,7.681
		c0.253-1.053-0.812-0.789-0.72-1.68c0.319,0,0.64,0,0.96,0c-1.031-1.493-2.506-1.06-3.601-2.4
		c-12.97-2.81-23.376-11.23-34.083-14.881c-2.879-0.982-9.763-1.709-14.161-0.24c-0.836,0.444-1.621,0.939-2.4,1.44
		c-2.461-2.04-4.75-5.215-4.56-8.641c0.216-3.886,3.738-5.479,5.76-7.44c2.744-0.757,5.223-2.867,8.881-3.36
		c8.751-1.181,15.909,2.924,22.802,7.681c1.513-0.968,1.811-3.15,2.641-4.8c0.99-0.609,1.082-2.119,2.16-2.641
		c0.544-0.015,1.857,0.64,1.439-0.24c0.646-0.428,0.465,1.057,0.721,0.24c0.352,0.209,0.761,0.359,0.72,0.96
		c-1.144-0.024-1.313,0.926-2.4,0.96c-0.571,0.388-1.058,0.862-1.68,1.2c-0.388,0.067-0.413-0.227-0.72-0.24
		c0.185,0.613-0.939,1.104-0.24,1.44c-0.311,1.209-1.117,1.923-1.44,3.12c3.038,3.473,7.89,5.058,11.761,7.92
		c0.605,0.447,0.854,1.205,1.44,1.68c3.947,3.194,8.864,5.327,11.521,9.841C89.52,42.762,89.68,44.042,90.658,44.504z"/>
	<path fill-rule="evenodd" clip-rule="evenodd" fill="#6A5D52" d="M88.738,42.104c1.02,0.421,1.22,1.661,1.92,2.4
		C89.68,44.042,89.52,42.762,88.738,42.104z"/>
	<path fill-rule="evenodd" clip-rule="evenodd" fill="#6A5D52" d="M65.696,19.302c0.07-0.489,0.649-0.471,0.72-0.96
		c0.622-0.338,1.108-0.813,1.68-1.2C67.527,18.093,66.481,18.567,65.696,19.302z"/>
	<path fill-rule="evenodd" clip-rule="evenodd" fill="#CDB171" d="M67.616,15.221c0.029-0.53,1.018-0.102,1.439-0.24
		C69.474,15.861,68.16,15.207,67.616,15.221z"/>
	<path fill-rule="evenodd" clip-rule="evenodd" fill="#BA918D" d="M40.253,70.426c1.177,0.984,2.344,1.978,3.121,3.36
		c-0.08,0-0.16,0-0.24,0C42.322,72.518,41.148,71.611,40.253,70.426z"/>
	<path fill-rule="evenodd" clip-rule="evenodd" fill="#6A5D52" d="M43.134,73.786c0.08,0,0.16,0,0.24,0
		c1.501,1.54,2.944,3.137,4.56,4.561C45.996,77.165,44.672,75.368,43.134,73.786z"/>
	<path fill-rule="evenodd" clip-rule="evenodd" fill="#6A5D52" d="M50.575,80.027c0.707,0.412,1.948,0.291,2.4,0.96
		C52.041,80.801,51.01,80.712,50.575,80.027z"/>
	<path fill-rule="evenodd" clip-rule="evenodd" fill="#BA918D" d="M57.295,81.228c-0.106-0.823,1.698,0.084,2.641-0.24
		C59.041,81.5,58.339,81.275,57.295,81.228z"/>
	<path fill-rule="evenodd" clip-rule="evenodd" fill="#BA918D" d="M63.296,79.787c1.442-1.175,3.046-2.542,0.72-3.841
		c0.526,0.515,1.333,0.747,1.681,1.44C65.834,78.241,64.228,79.224,63.296,79.787z"/>
	<path fill-rule="evenodd" clip-rule="evenodd" fill="#6A5D52" d="M65.696,77.387c-0.348-0.693-1.154-0.926-1.681-1.44
		c-1.2-0.079-1.209-1.351-2.4-1.439C63.02,74.308,65.309,76.568,65.696,77.387z"/>
	<path fill-rule="evenodd" clip-rule="evenodd" fill="#6A5D52" d="M64.976,69.946c-0.015,0.734-0.881,1.25-0.24,1.92
		C63.351,71.824,64.555,70.315,64.976,69.946z"/>
	<path fill-rule="evenodd" clip-rule="evenodd" fill="#6A5D52" d="M69.296,72.106c0.507-0.854,0.689-2.031,1.2-2.881
		C70.462,70.552,69.96,71.41,69.296,72.106z"/>
	<path fill-rule="evenodd" clip-rule="evenodd" fill="#6A5D52" d="M71.937,64.905c0.173-0.946,0.298-1.942,0.72-2.64
		C72.584,63.313,72.407,64.256,71.937,64.905z"/>
	<path fill-rule="evenodd" clip-rule="evenodd" fill="#6A5D52" d="M72.896,60.585c0.499-2.305,1.024-4.439,1.68-7.2
		C74.493,56.262,73.776,58.505,72.896,60.585z"/>
	<path fill-rule="evenodd" clip-rule="evenodd" fill="#6A5D52" d="M69.296,45.464c1.854,0.546,3.032,1.768,5.041,2.16
		c0.149,0.574,0.074,1.13,0.239,2.16c-0.079,0-0.159,0-0.239,0c0.023-0.744-0.294-1.146-0.48-1.68
		c-0.028-0.401-1.023,0.274-0.96-0.72c-0.092-0.078-0.398,0.364-0.24,0.48C71.649,47.127,68.924,45.703,69.296,45.464z"/>
	<path fill-rule="evenodd" clip-rule="evenodd" fill="#6A5D52" d="M63.296,45.464c0-0.08,0-0.16,0-0.24
		c2.005,0.727,4.168-0.823,5.76,0.24c-1.54,0.201-3.235-0.222-4.08,0.72c-0.378-0.125-1.285-0.924-1.68-0.24
		C63.006,45.893,63.148,45.678,63.296,45.464z"/>
	<path fill-rule="evenodd" clip-rule="evenodd" fill="#6A5D52" d="M57.535,45.944c1.1-0.938,1.829,1.585,3.12,0.48
		c-0.455-0.69-0.265-2.394,0-3.121c0.9,0.545,1.056,2.551,2.4,1.92c0,0.08,0,0.16,0,0.24c-0.735,1.184-1.745-0.349-1.92-1.2
		c-0.956,0.958,0.234,1.613-0.721,2.88C58.956,47.244,58.621,46.218,57.535,45.944z"/>
	<path fill-rule="evenodd" clip-rule="evenodd" fill="#6A5D52" d="M37.854,45.944c0.315,0.032,1.736,0.037,0.96-0.24
		c0.236-0.736,0.641,0.276,0.96,0.24c-0.208,0.698-0.359,0.27-0.96,0.24C38.455,46.143,37.928,46.27,37.854,45.944z"/>
	<path fill-rule="evenodd" clip-rule="evenodd" fill="#BA918D" d="M36.894,43.304c0.164,1.037,0.648,1.752,0.96,2.64
		c0.074,0.326,0.601,0.199,0.96,0.24c-0.243,0.676-1.02-0.066-1.44,0c0.536-0.606-0.524-1.072-0.48-1.92
		c-0.261,0.06-0.163,0.478-0.48,0.48c0-0.32,0-0.64,0-0.96C36.674,43.725,36.576,43.307,36.894,43.304z"/>
	<path fill-rule="evenodd" clip-rule="evenodd" fill="#BA918D" d="M72.656,50.504c0.411-0.05,0.622,0.409,0.721,0
		c0.19,0.027,0.728,0.793,0.239,0.72c0.041-0.521-0.851-0.109-1.2-0.24C72.08,50.9,72.396,50.562,72.656,50.504z"/>
	<path fill-rule="evenodd" clip-rule="evenodd" fill="#272923" d="M71.217,49.784c-0.204,1.293,0.649,0.243,0.96,0
		c0.307-0.013,0.332-0.308,0.72-0.24c-0.163,0.557-0.613,0.827-0.96,1.2c0.058,0.261,0.396,0.576,0.479,0.24
		c0.35,0.131,1.241-0.28,1.2,0.24c0,0.08,0,0.16,0,0.24c-0.454,0.266-1.134,0.306-1.68,0.48c0,0.32,0,0.64,0,0.96
		c0,0.08,0,0.16,0,0.24c-0.438,0.362-0.564,1.036-0.96,1.44c-0.4,0.399-1.155,0.445-1.44,0.96c-1.727,0.647-3.047,0.739-4.561,1.2
		c-1.433-0.464-2.028-0.335-3.601-0.72c-0.354-0.605-0.928-0.992-1.68-1.2c-0.337-3.348,2.833-4.914,5.521-6
		C67.705,48.708,70.449,48.888,71.217,49.784z M68.336,51.225c0.08,0,0.16,0,0.24,0c0.506-0.534,1.419-0.661,1.68-1.44
		c-1.285-0.469-2.819-0.618-3.84-0.24c-1.103,0.097-2.129,0.271-2.641,0.96c-1.29,0.39-2.034,1.326-2.64,2.4
		c1.344-0.45,2.614-0.658,4.32-1.2c1.201,0.162,1.857-0.222,2.88-0.24C68.336,51.384,68.336,51.305,68.336,51.225z M70.736,53.625
		c0.419-0.221,0.529-0.75,0.48-1.44c-0.814,0.114-3.238-0.788-3.601,0.72c-0.407,2.438-3.612,1.586-4.801,0.48
		c-0.196,0.604-1.266,0.334-1.68,0.72C63.365,56.764,67.698,55.271,70.736,53.625z"/>
	<path fill-rule="evenodd" clip-rule="evenodd" fill="#6A5D52" d="M59.695,54.825c0.752,0.208,1.325,0.595,1.68,1.2
		C60.676,55.765,59.956,55.524,59.695,54.825z"/>
	<path fill-rule="evenodd" clip-rule="evenodd" fill="#6A5D52" d="M64.976,56.745c1.514-0.461,2.834-0.553,4.561-1.2
		c-0.589,0.931-2.164,0.876-3.36,1.2C65.58,56.434,65.011,57.28,64.976,56.745z"/>
	<path fill-rule="evenodd" clip-rule="evenodd" fill="#BA918D" d="M71.937,53.145c0.58,0.218-0.544,0.708-0.24,1.44
		c-0.315-0.288-0.377-0.094-0.72,0C71.372,54.18,71.498,53.506,71.937,53.145z"/>
	<path fill-rule="evenodd" clip-rule="evenodd" fill="#6A5D52" d="M71.937,52.905c0-0.32,0-0.64,0-0.96
		c0.546-0.174,1.226-0.214,1.68-0.48c-0.103,0.857-1.754,0.167-1.439,1.44C72.097,52.905,72.017,52.905,71.937,52.905z"/>
	<path fill-rule="evenodd" clip-rule="evenodd" fill="#BA918D" d="M63.056,69.226c0.429-0.834,2.691-0.169,1.92,0.721
		C64.812,69.229,64.021,69.142,63.056,69.226z"/>
	<path fill-rule="evenodd" clip-rule="evenodd" fill="#272923" d="M54.655,75.946c-3.123-1.415-5.194-2.899-6.721-5.521
		c0.241,0.001,0.286-0.194,0.48-0.239c-0.591,1.908,1.49,1.697,2.4,2.399c1.235,0.953,2.276,3.293,3.84,2.881
		C54.655,75.627,54.655,75.787,54.655,75.946z"/>
	<path fill-rule="evenodd" clip-rule="evenodd" fill="#BA918D" d="M34.253,57.945c0.427,0.769,0.466,1.211,0.24,2.16
		C34.214,59.729,33.974,58.086,34.253,57.945z"/>
	<path fill-rule="evenodd" clip-rule="evenodd" fill="#CDB171" d="M42.654,56.265c2.922,0.824,4.906,0.709,7.441,0
		c-1.691,1.653-5.866,0.371-6.961,0.96C42.532,56.802,42.965,56.829,42.654,56.265z"/>
	<path fill-rule="evenodd" clip-rule="evenodd" fill="#6A5D52" d="M43.134,48.584c2.63-0.621,8.177,0.868,8.881,4.08
		C50.635,49.807,46.526,48.658,43.134,48.584z"/>
	<path fill-rule="evenodd" clip-rule="evenodd" fill="#6A5D52" d="M40.494,49.304c0.344-0.546,2.005-1.021,2.4-0.72
		C42.143,48.873,41.385,49.155,40.494,49.304z"/>
	<path fill-rule="evenodd" clip-rule="evenodd" fill="#BA918D" d="M35.933,48.824c0.581,0.218-0.544,0.708-0.24,1.44
		c0.664-0.03,0.824-0.458,0.48,0.24c-0.16,0-0.32,0-0.48,0c0.044-0.204-0.094-0.227-0.24-0.24
		C35.263,49.434,35.72,49.251,35.933,48.824z"/>
	<path fill-rule="evenodd" clip-rule="evenodd" fill="#6A5D52" d="M44.574,45.464c0.197,0.59-3.044,0.438-4.081,0.24
		C41.69,45.245,43.386,45.297,44.574,45.464z"/>
	<path fill-rule="evenodd" clip-rule="evenodd" fill="#6A5D52" d="M48.654,45.704c1.94-0.584,5.98,0.077,8.881,0.48
		c0.001,0.241-0.194,0.286-0.24,0.48C54.272,45.855,51.644,46.045,48.654,45.704z"/>
	<path fill-rule="evenodd" clip-rule="evenodd" fill="#6A5D52" d="M35.693,50.504c0.947,2.894,4.213,3.468,6,5.521
		c-2.225-1.375-4.774-2.426-6-4.8c-0.472-0.072-0.476,0.324-0.72,0.48c0.025-0.615,0.136-1.145,0.48-1.44
		C35.6,50.278,35.737,50.3,35.693,50.504z"/>
	<path fill-rule="evenodd" clip-rule="evenodd" fill="#6A5D52" d="M36.173,50.504c0.477,0.003,0.305,0.655,0.96,0.48
		c0-0.08,0-0.16,0-0.24c0.342,0.293,0.545,0.916,0.24,1.2C36.78,51.658,36.435,51.123,36.173,50.504z"/>
	<path fill-rule="evenodd" clip-rule="evenodd" fill="#6A5D52" d="M38.333,49.784c-0.091,0.812,0.416,1.024,0.72,1.44
		c-0.65,0.477-0.928-1.463-2.16-1.2C37.344,49.737,38.279,49.892,38.333,49.784z"/>
	<path fill-rule="evenodd" clip-rule="evenodd" fill="#6A5D52" d="M38.574,49.784c0.895,0.408,0.38-0.142,1.2-0.24
		c-0.127,0.193-0.25,0.39-0.24,0.72c1.001,0.041,1.184-0.736,2.16-0.72c0.066,0.992-2.294,0.411-1.44,1.44
		C39.543,50.734,39.083,50.234,38.574,49.784z"/>
	<path fill-rule="evenodd" clip-rule="evenodd" fill="#BA918D" d="M49.134,52.185c0.298-0.331,0.698-0.138,1.2,0.24
		c-0.101-0.86-1.395-0.525-1.44-1.44c0.557,0.643,1.838,0.562,1.92,1.68C50.07,52.689,49.668,52.371,49.134,52.185z"/>
	<path fill-rule="evenodd" clip-rule="evenodd" fill="#6A5D52" d="M72.177,49.784c-0.242-0.722,0.534-0.425,0.96-0.48
		c-0.021,0.341-0.04,0.68,0.24,0.72c-0.055,0.346-0.717,0.083-0.721,0.48c-0.261,0.058-0.576,0.396-0.24,0.48
		c-0.084,0.336-0.422,0.021-0.479-0.24c0.347-0.373,0.797-0.643,0.96-1.2C72.509,49.477,72.483,49.771,72.177,49.784z"/>
	<path fill-rule="evenodd" clip-rule="evenodd" fill="#CDB171" d="M61.375,56.025c1.572,0.385,2.168,0.256,3.601,0.72
		c0.035,0.535,0.604-0.312,1.2,0c-1.021,1.171-2.482-0.596-3.84,0.24C63.028,55.986,61.074,56.894,61.375,56.025z"/>
	<path fill-rule="evenodd" clip-rule="evenodd" fill="#BA918D" d="M66.416,49.544c1.021-0.378,2.555-0.229,3.84,0.24
		c-0.261,0.779-1.174,0.906-1.68,1.44c-0.08,0-0.16,0-0.24,0c0-0.08,0-0.16,0-0.24c0.425-0.216,0.701-0.579,1.2-0.72
		c-0.277-0.922-2.103-0.297-3.12-0.48C66.416,49.705,66.416,49.625,66.416,49.544z"/>
	<path fill-rule="evenodd" clip-rule="evenodd" fill="#BA918D" d="M42.894,50.745c0.08,0,0.16,0,0.24,0
		c0.163,0.185,0.798,0.365,0.96-0.24c0.244,0.156,0.249,0.552,0.72,0.48C43.804,51.098,43.888,51.863,42.894,50.745z"/>
	<path fill-rule="evenodd" clip-rule="evenodd" fill="#BA918D" d="M42.654,50.745c-0.076,0.564-1.138,0.142-0.96,0.96
		C40.551,50.952,41.974,50.726,42.654,50.745z"/>
	<path fill-rule="evenodd" clip-rule="evenodd" fill="#BA918D" d="M65.456,51.705c-1.186-0.011-1.628-0.049-2.16-0.24
		c0.906-0.723,0.619-0.866,2.16-1.2c-0.335-0.625-1.242,0.175-1.681,0.24c0.512-0.689,1.538-0.863,2.641-0.96c0,0.08,0,0.16,0,0.24
		c0.127,0.193,0.25,0.39,0.24,0.72c0.463-0.435,1.216,0.194,1.68,0.48c0,0.08,0,0.16,0,0.24s0,0.16,0,0.24
		C67.313,51.482,66.657,51.866,65.456,51.705z"/>
	<path fill-rule="evenodd" clip-rule="evenodd" fill="#BA918D" d="M68.336,50.984c-0.464-0.286-1.217-0.915-1.68-0.48
		c0.01-0.331-0.113-0.527-0.24-0.72c1.018,0.183,2.843-0.442,3.12,0.48C69.037,50.405,68.761,50.769,68.336,50.984z"/>
	<path fill-rule="evenodd" clip-rule="evenodd" fill="#BA918D" d="M43.134,50.745c-0.238-0.911,1.915-0.156,2.16-0.48
		c0.4,0,0.8,0,1.2,0c0.715,0.281,1.425,0.048,2.16,0.72c-0.08,0-0.16,0-0.24,0c-0.601,0.456-0.943-0.199-1.68,0.24
		c0.058,0.422,0.413,0.547,0.96,0.48c0.08,0,0.16,0,0.24,0c0,0.08,0,0.16,0,0.24c-3.275-1.032-5.126,1.13-7.681-0.96
		c-0.854-1.029,1.507-0.448,1.44-1.44c0.4,0,0.8,0,1.2,0c-0.45,0.457-0.026,0.603,0,1.2c0.994,1.118,0.91,0.353,1.92,0.24
		c-0.472,0.072-0.476-0.324-0.72-0.48C43.932,51.11,43.296,50.93,43.134,50.745z M41.694,51.705c-0.178-0.818,0.884-0.396,0.96-0.96
		C41.974,50.726,40.551,50.952,41.694,51.705z"/>
	<path fill-rule="evenodd" clip-rule="evenodd" fill="#BA918D" d="M63.775,50.504c0.438-0.065,1.346-0.864,1.681-0.24
		c-1.541,0.333-1.254,0.477-2.16,1.2c0.532,0.191,0.975,0.229,2.16,0.24c-1.706,0.542-2.977,0.75-4.32,1.2
		C61.741,51.831,62.485,50.894,63.775,50.504z"/>
	<path fill-rule="evenodd" clip-rule="evenodd" fill="#BA918D" d="M47.934,51.705c-0.08,0-0.16,0-0.24,0
		c-0.547,0.067-0.902-0.058-0.96-0.48c0.737-0.439,1.079,0.216,1.68-0.24c-0.088,0.408,0.187,0.453,0.48,0.48
		C48.829,52.306,47.832,51.031,47.934,51.705z"/>
	<path fill-rule="evenodd" clip-rule="evenodd" fill="#BA918D" d="M48.415,50.984c0.08,0,0.16,0,0.24,0s0.16,0,0.24,0
		c0.045,0.915,1.339,0.581,1.44,1.44c-0.502-0.378-0.902-0.571-1.2-0.24c-0.557,0.077-0.921-0.039-1.2-0.24c0-0.08,0-0.16,0-0.24
		c-0.103-0.674,0.895,0.602,0.96-0.24C48.602,51.438,48.326,51.393,48.415,50.984z"/>
	<path fill-rule="evenodd" clip-rule="evenodd" fill="#6A5D52" d="M25.612,51.464c-0.493,2.19-0.392,8.075-1.44,9.841
		C24.68,58.945,23.966,54.526,25.612,51.464z"/>
	<path fill-rule="evenodd" clip-rule="evenodd" fill="#D3C5A0" d="M67.616,52.905c0.522-0.757,2.153-0.406,3.36-0.48
		c0.198,0.678-0.339,0.622-0.24,1.2c-3.038,1.647-7.371,3.14-9.601,0.48c0.414-0.386,1.483-0.117,1.68-0.72
		C64.004,54.491,67.209,55.343,67.616,52.905z"/>
	<path fill-rule="evenodd" clip-rule="evenodd" fill="#D3C5A0" d="M67.616,52.905c0.362-1.508,2.786-0.606,3.601-0.72
		c0.049,0.69-0.062,1.219-0.48,1.44c-0.099-0.578,0.438-0.521,0.24-1.2C69.77,52.499,68.139,52.147,67.616,52.905z"/>
	<path fill-rule="evenodd" clip-rule="evenodd" fill="#D3C5A0" d="M49.854,55.065c0.298-0.502,0.698-0.902,1.2-1.2
		c-1.354-1.311-3.637-0.546-4.32,0.72c0.334-0.706,1.172-0.908,1.2-1.92c1.461,0.273,1.608,0.399,3.121,0.48
		C51.56,54.111,50.43,54.496,49.854,55.065z"/>
	<path fill-rule="evenodd" clip-rule="evenodd" fill="#D3C5A0" d="M43.614,53.625c0.08,0,0.16,0,0.24,0
		c0.481,0.399,0.889,0.871,1.68,0.96c0.006,0.233,0.294,0.186,0.48,0.24C45.204,55.385,44.002,54.284,43.614,53.625z"/>
	<path fill-rule="evenodd" clip-rule="evenodd" fill="#BA918D" d="M34.733,53.625c0.187,0.596-0.261,2.613-0.48,3.601
		C34.14,56.262,34.069,54.469,34.733,53.625z"/>
	<path fill-rule="evenodd" clip-rule="evenodd" fill="#6A5D52" d="M25.853,57.465c0.039-0.281,0.438-0.202,0.72-0.24
		c-0.125,3.104,0.006,5.994,0,8.401C25.339,62.091,26.401,59.563,25.853,57.465z"/>
	<path fill-rule="evenodd" clip-rule="evenodd" fill="#272923" d="M59.455,62.745c0.502-0.102,0.636,0.165,0.96,0.24
		c-0.435,1.806-2.271,2.209-3.84,2.881c-1.001-0.84-4.301-0.524-4.32-2.641c1.731,0.225,3.341,1.73,5.04,1.2
		C58.136,63.985,59.278,63.849,59.455,62.745z"/>
	<path fill-rule="evenodd" clip-rule="evenodd" fill="#6A5D52" d="M52.255,63.226c0.02,2.116,3.319,1.801,4.32,2.641
		c0,0.079,0,0.159,0,0.239c-1.892-0.107-2.73-1.27-4.561-1.439c-0.021-0.897-0.269-0.685,0-1.44
		C52.095,63.226,52.175,63.226,52.255,63.226z"/>
	<path fill-rule="evenodd" clip-rule="evenodd" fill="#BA918D" d="M33.053,68.986c-0.727-0.502-1.053-2.161-0.72-2.4
		c0.24,0,0.48,0,0.72,0c-0.541,0.434-0.565,1.212-0.24,1.92C32.858,68.7,33.054,68.745,33.053,68.986z"/>
	<path fill-rule="evenodd" clip-rule="evenodd" fill="#6A5D52" d="M35.213,64.666c0.236,0.869,2.127,2.403,1.68,3.84
		c-0.038-0.282,0.041-0.682-0.24-0.72c-0.184-0.856-0.619-1.462-1.2-1.92c0.039-0.279-0.053-0.428-0.24-0.48c0-0.16,0-0.32,0-0.48
		C35.213,64.825,35.213,64.746,35.213,64.666z"/>
	<path fill-rule="evenodd" clip-rule="evenodd" fill="#BA918D" d="M32.573,65.146c0.041,0.28,0.379,0.261,0.72,0.24
		c0.28-0.04,0.261-0.38,0.24-0.72c0.187,0.053,0.279,0.2,0.24,0.479c0.421-0.242,1.288-0.415,0.72-0.96
		c0.411-0.011,0.622,0.179,0.72,0.48c0,0.08,0,0.159,0,0.239c-0.502-0.102-0.636,0.165-0.96,0.24
		c-0.378,0.423-1.285,0.314-1.68,0.721c-0.08,0-0.16,0-0.24,0C32.313,65.525,32.293,65.187,32.573,65.146z"/>
	<path fill-rule="evenodd" clip-rule="evenodd" fill="#BA918D" d="M34.493,64.186c0.567,0.545-0.299,0.718-0.72,0.96
		c0.039-0.279-0.053-0.427-0.24-0.479c0.021,0.34,0.04,0.68-0.24,0.72c-0.341,0.021-0.68,0.04-0.72-0.24
		c0.125-0.354,0.355-0.604,0.48-0.96C33.533,64.186,34.013,64.186,34.493,64.186z"/>
	<path fill-rule="evenodd" clip-rule="evenodd" fill="#BA918D" d="M75.297,66.586c-0.673-0.235,0.349-0.641-0.24-0.96
		c-0.16-1.07-0.617-0.453-1.68-0.721C74.539,64.144,75.82,65.269,75.297,66.586z"/>
	<path fill-rule="evenodd" clip-rule="evenodd" fill="#BA918D" d="M34.253,65.146c0.325-0.075,0.458-0.342,0.96-0.24
		c0,0.16,0,0.32,0,0.48c-0.356,0.104,0.095,0.307,0,0.72c-0.261-0.059-0.163-0.477-0.48-0.479c-0.429-0.071-0.015,0.931,0.48,0.72
		c0.039,0.281,0.438,0.202,0.72,0.24c0.187,0.593,0.08,0.71,0.72,1.2c0.281,0.038,0.203,0.438,0.24,0.72
		c-0.193,0.127-0.39,0.251-0.72,0.24c0.088-0.408-0.187-0.453-0.48-0.48c-0.271-0.753,0.069-0.634-0.24-1.2
		c-0.144,0.359-1.208,1.002-0.72,1.2c0,0.08,0,0.16,0,0.24c-0.563,0.567-1.179-0.039-1.92,0c-0.325-0.708-0.3-1.486,0.24-1.92
		c-0.24,0-0.48,0-0.72,0c-0.167-0.193-0.374-0.657,0-0.72c0.08,0,0.16,0,0.24,0c0.463,0.444,0.19,0.439,0.96,0.239
		c0.044,0.204-0.094,0.227-0.24,0.24c-0.649,0.462,0.656,0.758-0.24,1.2c0.267,0.506,0.95-0.715,1.2,0.24
		c0.057-0.179,0.531-1.296-0.48-1.2C33.971,66.081,34.761,65.65,34.253,65.146z"/>
	<path fill-rule="evenodd" clip-rule="evenodd" fill="#BA918D" d="M72.656,66.826c-0.157-0.096,0.034-1.873,0.721-1.921
		c1.063,0.268,1.52-0.35,1.68,0.721c-0.657,0.272-1.722-0.002-0.72-0.24C73.544,64.688,72.965,66.244,72.656,66.826z"/>
	<path fill-rule="evenodd" clip-rule="evenodd" fill="#6A5D52" d="M81.058,71.146c-0.802-2.486-0.046-3.626-0.48-6.241
		C81.845,67.015,81.572,69.253,81.058,71.146z"/>
	<path fill-rule="evenodd" clip-rule="evenodd" fill="#BA918D" d="M32.573,65.866c0.395-0.406,1.302-0.298,1.68-0.721
		c0.508,0.505-0.282,0.936-0.48,1.44c1.011-0.096,0.537,1.021,0.48,1.2c-0.25-0.955-0.933,0.266-1.2-0.24
		c0.896-0.442-0.409-0.738,0.24-1.2c0.146-0.014,0.284-0.036,0.24-0.24C32.763,66.306,33.036,66.311,32.573,65.866z"/>
	<path fill-rule="evenodd" clip-rule="evenodd" fill="#BA918D" d="M72.656,66.826c0.309-0.582,0.888-2.139,1.681-1.44
		c-1.002,0.238,0.063,0.513,0.72,0.24c0.589,0.319-0.433,0.725,0.24,0.96c0.037,0.597-0.377,0.743-0.48,1.2
		c-1.091,0.131-1.797-0.124-2.16-0.721C72.656,66.986,72.656,66.906,72.656,66.826z"/>
	<path fill-rule="evenodd" clip-rule="evenodd" fill="#BA918D" d="M35.213,66.346c0.614,0.011,0.292-0.179,0.24-0.479
		c0.582,0.458,1.017,1.063,1.2,1.92c-0.641-0.49-0.533-0.607-0.72-1.2C35.651,66.548,35.252,66.627,35.213,66.346z"/>
	<path fill-rule="evenodd" clip-rule="evenodd" fill="#BA918D" d="M34.733,68.266c0.279,0.039,0.427-0.053,0.48-0.239
		c0.224,0.136,0.363,0.667,0.48,0.239c0.293,0.027,0.568,0.072,0.48,0.48c0.331,0.011,0.527-0.113,0.72-0.24
		c-0.306,0.574-0.783,0.978-1.68,0.96c0-0.08,0-0.16,0-0.24c0.324-0.075,0.458-0.341,0.96-0.239c-0.347-0.71-0.536-0.207-1.44-0.48
		C34.733,68.426,34.733,68.346,34.733,68.266z"/>
	<path fill-rule="evenodd" clip-rule="evenodd" fill="#BA918D" d="M33.053,68.986c0-0.241-0.195-0.286-0.24-0.48
		c0.741-0.039,1.357,0.567,1.92,0c0.904,0.273,1.093-0.229,1.44,0.48c-0.502-0.102-0.636,0.164-0.96,0.239
		C34.162,69.554,33.979,69.256,33.053,68.986z"/>
	<path fill-rule="evenodd" clip-rule="evenodd" fill="#D3C5A0" d="M43.134,68.266c0.281,0.039,0.203,0.438,0.24,0.721
		c-0.24,0-0.48,0-0.72,0c-0.044,0.204,0.094,0.227,0.24,0.239c0.686,0.278-0.388,0.278-0.48,0c0.147-0.213,0.29-0.429,0-0.479
		C42.468,68.4,43.13,68.662,43.134,68.266z"/>
	<path fill-rule="evenodd" clip-rule="evenodd" fill="#6A5D52" d="M63.536,70.187c-0.568,1.432-3.715,0.286-4.321,1.68
		c-2.819,0.18-4.896-0.383-7.68-0.24c2.431,1.997,5.95,1.16,9.121,1.44c-2.121,3.796-8.892,0.351-11.041-2.16
		c2.401,0.69,5.246-1.743,7.201,0C58.055,69.226,61.134,70.286,63.536,70.187z"/>
	<path fill-rule="evenodd" clip-rule="evenodd" fill="#6A5D52" d="M61.136,72.106c0.331,0.708,1.108,0.972,1.439,1.68
		C62.207,73.265,60.506,72.83,61.136,72.106z"/>
	<path fill-rule="evenodd" clip-rule="evenodd" fill="#272923" d="M64.735,75.227c0.913,0.527,1.911,0.97,2.4,1.92
		C66.478,76.365,65.29,76.112,64.735,75.227z"/>
	<path fill-rule="evenodd" clip-rule="evenodd" fill="#272923" d="M69.296,78.587c0.904,0.296,1.476,0.925,2.16,1.44
		C71.14,80.093,69.751,79.18,69.296,78.587z"/>
	<path fill-rule="evenodd" clip-rule="evenodd" fill="#6A5D52" d="M66.416,74.507c-0.904-0.536-2.001-0.88-2.4-1.921
		C64.675,73.368,65.861,73.62,66.416,74.507z"/>
	<path fill-rule="evenodd" clip-rule="evenodd" fill="#6A5D52" d="M30.173,72.826c0.535-0.519,0.971,1.098,0.96,1.92
		C30.15,74.382,30.608,73.265,30.173,72.826z"/>
	<path fill-rule="evenodd" clip-rule="evenodd" fill="#6A5D52" d="M73.137,79.547c-0.282,1.146-0.428,1.822,0.72,2.16
		c0.674-0.003-0.571-0.654,0.48-0.479c-0.111-0.77-0.914-0.847-0.96-1.681c0.765,0.543,1.623,1.479,0.72,2.4
		C72.621,81.971,72.031,80.131,73.137,79.547z"/>
	<path fill-rule="evenodd" clip-rule="evenodd" fill="#BA918D" d="M73.137,79.547c0.08,0,0.16,0,0.24,0
		c0.046,0.834,0.849,0.911,0.96,1.681c-1.052-0.175,0.193,0.477-0.48,0.479C72.709,81.369,72.854,80.693,73.137,79.547z"/>
	<path fill-rule="evenodd" clip-rule="evenodd" fill="#6A5D52" d="M76.977,99.948c0.575,0.386,1.596,0.325,1.921,0.961
		c-0.89,0.009-1.392-0.369-1.921-0.721C76.977,100.108,76.977,100.028,76.977,99.948z"/>
	<path fill-rule="evenodd" clip-rule="evenodd" fill="#6A5D52" d="M48.654,81.228c-0.455,1.654,1.436,0.964,1.92,1.68
		c-0.882-0.078-1.646-0.274-2.16-0.72C48.434,81.807,48.299,81.271,48.654,81.228z"/>
	<path fill-rule="evenodd" clip-rule="evenodd" fill="#BA918D" d="M53.215,82.427c2.479,0.174,4.039,0.1,5.28,0.24
		C56.573,83.248,54.956,83.242,53.215,82.427z"/>
	<path fill-rule="evenodd" clip-rule="evenodd" fill="#6A5D52" d="M53.215,82.427c-1.337,0.246-3.208-0.915-4.561-1.439
		c-0.08,0-0.16,0-0.24,0C49.473,80.205,51.594,82.203,53.215,82.427z"/>
	<path fill-rule="evenodd" clip-rule="evenodd" fill="#CDB171" d="M48.654,81.228c0-0.08,0-0.16,0-0.24
		c1.353,0.524,3.223,1.686,4.561,1.439c1.741,0.815,3.358,0.821,5.28,0.24c0.521-0.359,1.352-0.409,2.16-0.479
		c0.32,0,0.641,0,0.96,0c0.174,0.733-0.245,0.874-0.24,1.439c-0.578,0.566-1.962,0.697-2.64,0.48c-0.198-0.035-2.122-0.13-2.4,0
		c-2.325,0.151-3.886-0.396-5.76-1.2C50.09,82.191,48.2,82.882,48.654,81.228z"/>
	<path fill-rule="evenodd" clip-rule="evenodd" fill="#6A5D52" d="M61.375,83.627c-0.005-0.565,0.414-0.706,0.24-1.439
		c-0.319,0-0.64,0-0.96,0c0.203-0.357,0.772-0.348,1.2-0.48C61.781,82.433,62.122,83.574,61.375,83.627z"/>
	<path fill-rule="evenodd" clip-rule="evenodd" fill="#6A5D52" d="M56.335,84.107c0.278-0.13,2.202-0.035,2.4,0
		C58.477,84.505,56.594,84.505,56.335,84.107z"/>
	<path fill-rule="evenodd" clip-rule="evenodd" fill="#6A5D52" d="M43.134,83.867c0.284,0.07,0.907,0.967,1.2,0.24
		c0.695,0.135-0.368,0.374-0.24,0.72c-0.08,0-0.16,0-0.24,0c0,0.24,0,0.48,0,0.721c-0.454-0.347-0.055-1.546-0.96-1.44
		C42.85,83.903,42.987,83.881,43.134,83.867z"/>
	<path fill-rule="evenodd" clip-rule="evenodd" fill="#BA918D" d="M42.414,84.348c-0.273-3.474,2.666-3.734,4.8-4.801
		c0,0.24,0,0.48,0,0.72c-0.133,0-0.272,0.194,0,0.24c0.007,0.728-1.208,0.232-1.2,0.96c0.778,0.822,1.255,1.945,2.64,2.16
		c1.337,0.263,2.419,0.781,3.601,1.2c0,0.08,0,0.16,0,0.24c1.015-0.359,1.542,0.996,2.16,0.24c3.946,0.026,7.588,0.56,9.121-2.16
		c-0.863-0.017-0.759-1.002-0.721-1.92c0.355-0.125,0.605-0.355,0.96-0.48c1.269,0.332,2.039,1.162,2.641,2.16
		c-0.775,1.009-0.811,3.699-1.2,5.761c-0.08,0-0.16,0-0.24,0c0.005,1.228-0.318,1.894,0.24,2.88c0.588,1.689,0.157,2.081,0.48,3.601
		c0.558,1.694,2.221,1.9,3.84,2.16c3.071,0.765,4.932,1.286,7.44,2.64c0,0.08,0,0.16,0,0.24c0.529,0.352,1.031,0.729,1.921,0.721
		c1.017-0.058,1.22,0.7,1.92,0.96c1.313,0.606,2.275,1.564,3.6,2.16c1.648,0.391,1.803,1.193,3.36,1.92
		c-0.304,0.602,1.07,1.23,1.681,1.68c0.563,0.077,0.537,0.743,0.96,0.961c0.413,0.946,0.995,1.725,1.68,2.399
		c0.331,0.79,0.63,1.611,0.961,2.4c-25.522,0-51.045,0-76.567,0c0.981-4.248,2.735-6.209,5.041-8.4
		c3.727-3.543,11.348-5.15,16.801-7.44c1.144-0.48,2.985-1.422,3.84-2.16c2.53-2.187,0.248-6.033,0.72-8.401
		C42.837,86.004,42.776,85.025,42.414,84.348z M43.854,85.548c0.477,2.588,0.367,7.08,0,9.601c-0.776,0.189,1.088,0.938,0.96,0.479
		c-0.619-0.058,0.33-0.412,0-0.96c-0.58-0.576,0.583-0.635,0.24-1.68c0.549-0.411,0.088-1.832,0.24-2.641
		c-0.427-1.411-0.034-4.712-1.2-5.521c-0.128-0.346,0.936-0.585,0.24-0.72c-0.284-0.356-0.208-1.072-0.96-0.96
		c-0.013,0.307-0.308,0.332-0.24,0.72c-0.146,0.014-0.284,0.036-0.24,0.24C43.799,84.002,43.4,85.201,43.854,85.548z M46.014,85.548
		c0.547,0.066,0.902-0.059,0.96-0.48c-0.324-0.075-0.458-0.342-0.96-0.24C46.014,85.067,46.014,85.308,46.014,85.548z
		 M49.854,98.269c1.167-3.399,0.222-7.941,0-12.241c-0.24,0-0.48,0-0.72,0C49.839,89.258,48.728,94.543,49.854,98.269z
		 M64.256,90.828c0.111-1.69-0.169-3.604,0-4.801c-1.35-0.186-0.621,0.794-0.96,1.2c-0.126,3.354,0.438,7.872,0.96,10.081
		C65.955,95.838,63.345,93.579,64.256,90.828z M46.734,91.308c-0.031,1.613-1.189,4.088,0.24,5.761
		c0.137-3.67,1.303-7.458-0.48-10.561C46.407,88.423,46.764,89.746,46.734,91.308z M52.015,86.748
		c-0.068,0.627,0.088,1.032,0.72,0.96C52.802,87.081,52.816,86.507,52.015,86.748z M62.096,95.389c-1.26-3.787,0.173-5.8-1.2-8.401
		c-0.261,2.725,0.121,5.955,0.479,8.881c-0.24,0.133-0.237,1.539,0.48,1.92c-0.373,0.591,0.815,0.706,0.72,0.24
		C62.563,97.71,62.413,96.478,62.096,95.389z M55.375,98.028c0.31,0.907-0.347,1.291,0.72,1.44
		c-0.424-4.181,0.118-8.879-0.72-12.241c-0.752,3.353-0.293,4.529-0.24,8.641C54.603,96.263,55.163,97.584,55.375,98.028z
		 M59.215,99.229c0.907-1.603-0.533-4.492-0.72-6.721c-0.181-2.165,0.366-4.027-0.479-5.28c-0.833,3.078,0.291,4.548,0.239,8.161
		C58.155,95.979,58.365,99.589,59.215,99.229z M52.975,96.108c-0.447-1.687,0.865-6.634-0.72-7.921
		c-0.444,0.818-0.027,2.719-0.24,3.601c0,1.04,0,2.08,0,3.12c0.727,1.458-0.062,2.486,0.24,3.841c0.16,0,0.32,0,0.48,0
		C53.748,98.422,52.87,96.324,52.975,96.108z"/>
	<path fill-rule="evenodd" clip-rule="evenodd" fill="#6A5D52" d="M44.814,94.668c0.33,0.548-0.619,0.902,0,0.96
		c0.128,0.459-1.736-0.29-0.96-0.479c0.241-0.001,0.286,0.194,0.48,0.24C44.45,95.104,44.59,94.844,44.814,94.668z"/>
	<path fill-rule="evenodd" clip-rule="evenodd" fill="#6A5D52" d="M63.296,87.228c0.339-0.406-0.39-1.386,0.96-1.2
		c-0.169,1.197,0.111,3.11,0,4.801c-0.54-1.258-0.139-3.355-0.24-3.841C63.628,86.92,63.603,87.215,63.296,87.228z"/>
	<path fill-rule="evenodd" clip-rule="evenodd" fill="#6A5D52" d="M61.375,95.868c0.328,0.473,0.229,1.371,0.48,1.92
		C61.138,97.407,61.135,96.001,61.375,95.868z"/>
	<path fill-rule="evenodd" clip-rule="evenodd" fill="#6A5D52" d="M62.096,95.389c0.317,1.089,0.468,2.321,0.479,2.64
		C62.064,97.608,61.999,96.025,62.096,95.389z"/>
	<path fill-rule="evenodd" clip-rule="evenodd" fill="#6A5D52" d="M55.135,95.868c0.141,0.583,0.18,1.025,0.24,2.16
		C55.163,97.584,54.603,96.263,55.135,95.868z"/>
	<path fill-rule="evenodd" clip-rule="evenodd" fill="#6A5D52" d="M58.255,95.389c0.521,1.079,0.173,3.027,0.96,3.84
		C58.365,99.589,58.155,95.979,58.255,95.389z"/>
	<path fill-rule="evenodd" clip-rule="evenodd" fill="#6A5D52" d="M52.975,96.108c-0.105,0.216,0.773,2.313-0.24,2.641
		C53.487,98.016,52.349,96.715,52.975,96.108z"/>
	<path fill-rule="evenodd" clip-rule="evenodd" fill="#D3C5A0" d="M65.456,19.542c-0.699-0.337,0.425-0.827,0.24-1.44
		c0.307,0.013,0.332,0.308,0.72,0.24c-0.07,0.489-0.649,0.471-0.72,0.96C65.492,19.258,65.47,19.396,65.456,19.542z"/>
	<path fill-rule="evenodd" clip-rule="evenodd" fill="#6A5D52" d="M41.214,41.864c-1.245,0.521-1.883-3.733-0.48-5.041
		C40.831,38.895,40.466,40.976,41.214,41.864z"/>
	<path fill-rule="evenodd" clip-rule="evenodd" fill="#6A5D52" d="M36.413,43.784c0.049-0.751-0.162-1.762,0.24-2.16
		c0.322,0.181,0.434,1.775,0.24,1.68C36.576,43.307,36.674,43.725,36.413,43.784z"/>
	<path fill-rule="evenodd" clip-rule="evenodd" fill="#6A5D52" d="M48.415,45.704c-1.096,0.13-3.018,0.458-3.601-0.24
		C45.882,45.258,47.385,45.251,48.415,45.704z"/>
	<path fill-rule="evenodd" clip-rule="evenodd" fill="#BA918D" d="M42.894,49.544c0.733-0.173,0.875,0.245,1.44,0.24
		c0,0.08,0,0.16,0,0.24c0.38,0.02,0.916-0.115,0.96,0.24c-0.245,0.324-2.398-0.431-2.16,0.48c-0.08,0-0.16,0-0.24,0
		C42.868,50.147,42.444,50.001,42.894,49.544z"/>
	<path fill-rule="evenodd" clip-rule="evenodd" fill="#272923" d="M52.015,52.665c0.265,1.739-0.755,2.689-1.92,3.601
		c-2.535,0.709-4.519,0.824-7.441,0c0.001-0.241-0.194-0.286-0.24-0.48c-0.331-0.01-0.527,0.113-0.72,0.24
		c-1.788-2.053-5.054-2.627-6-5.521c0.16,0,0.32,0,0.48,0c0.262,0.619,0.606,1.154,1.2,1.44c0.305-0.284,0.102-0.906-0.24-1.2
		c-0.013-0.307-0.308-0.333-0.24-0.72c1.232-0.263,1.51,1.677,2.16,1.2c-0.304-0.416-0.812-0.629-0.72-1.44c0.08,0,0.16,0,0.24,0
		c0.51,0.45,0.97,0.95,1.68,1.2c2.555,2.09,4.405-0.072,7.681,0.96c0.279,0.202,0.644,0.317,1.2,0.24
		c0.534,0.187,0.936,0.504,1.68,0.48c-0.082-1.118-1.363-1.037-1.92-1.68c-0.08,0-0.16,0-0.24,0c-0.735-0.672-1.445-0.439-2.16-0.72
		c0-0.08,0-0.16,0-0.24c-0.79-0.01-1.195-0.405-2.16-0.24c-0.565,0.005-0.707-0.413-1.44-0.24c-0.4,0-0.8,0-1.2,0
		c-0.976-0.016-1.159,0.761-2.16,0.72c-0.011-0.331,0.113-0.527,0.24-0.72c0.331,0.01,0.527-0.113,0.72-0.24
		c0.891-0.149,1.649-0.431,2.4-0.72c0.08,0,0.16,0,0.24,0C46.526,48.658,50.635,49.807,52.015,52.665z M41.694,52.905
		c-0.875-0.074-1.562,0.038-2.16,0.24c2.215,2.14,6.719,3.159,10.321,1.92c0.576-0.569,1.705-0.954,1.2-1.92
		c-1.512-0.081-1.659-0.207-3.121-0.48c-0.028,1.012-0.866,1.214-1.2,1.92c-0.458-0.451-0.435,0.142-1.2,0
		c-0.791-0.089-1.199-0.561-1.68-0.96c0-0.32,0-0.64,0-0.96C43.203,52.813,41.949,52.36,41.694,52.905z"/>
	<path fill-rule="evenodd" clip-rule="evenodd" fill="#6A5D52" d="M84.897,53.865c-0.279-0.041-0.261-0.379-0.24-0.72
		c0.759,0.331,1.449-0.594,1.681,0c-0.243,0.397-1.02,0.261-1.44,0.48C84.897,53.705,84.897,53.785,84.897,53.865z"/>
	<path fill-rule="evenodd" clip-rule="evenodd" fill="#6A5D52" d="M33.293,61.545c0.214,0.148,0.429,0.29,0.48,0
		c0.141,0.257,0.244,0.729,0.48,1.44c-0.32,0-0.64,0-0.96,0C33.293,62.506,33.293,62.025,33.293,61.545z"/>
	<path fill-rule="evenodd" clip-rule="evenodd" fill="#BA918D" d="M35.453,65.866c0.053,0.301,0.374,0.49-0.24,0.479
		c-0.495,0.211-0.909-0.791-0.48-0.72c0.317,0.003,0.219,0.421,0.48,0.479c0.095-0.413-0.356-0.615,0-0.72
		C35.4,65.438,35.492,65.587,35.453,65.866z"/>
	<path fill-rule="evenodd" clip-rule="evenodd" fill="#BA918D" d="M35.693,68.266c-0.117,0.428-0.256-0.104-0.48-0.239
		c-0.053,0.187-0.201,0.278-0.48,0.239c-0.488-0.198,0.576-0.841,0.72-1.2C35.762,67.632,35.422,67.513,35.693,68.266z"/>
	<path fill-rule="evenodd" clip-rule="evenodd" fill="#6A5D52" d="M83.457,69.466c-0.145,0.495,0.388,1.668-0.479,1.44
		C83.123,70.411,82.59,69.238,83.457,69.466z"/>
	<path fill-rule="evenodd" clip-rule="evenodd" fill="#6A5D52" d="M25.612,74.267c0.298-1.109-0.49-2.374,0-2.88
		c0.178,1.022,0.746,1.654,0.96,2.64c-0.292-0.027-0.568-0.071-0.48-0.479C25.678,72.632,26.111,74.481,25.612,74.267z"/>
	<path fill-rule="evenodd" clip-rule="evenodd" fill="#6A5D52" d="M58.016,75.946c0.475-0.405,1.498-0.262,2.16-0.479
		c-0.222,0.419-0.751,0.529-1.44,0.479C58.495,75.946,58.255,75.946,58.016,75.946z"/>
	<path fill-rule="evenodd" clip-rule="evenodd" fill="#BA918D" d="M54.655,75.467c1.351,0.428,1.99,0.396,3.361,0.479
		c0.239,0,0.479,0,0.72,0c-1.404,0.58-2.558,0.383-4.081,0C54.655,75.787,54.655,75.627,54.655,75.467z"/>
	<path fill-rule="evenodd" clip-rule="evenodd" fill="#D3C5A0" d="M41.694,52.905c0.827,0.406,1.771-0.547,1.92,0.72
		c0.389,0.66,1.59,1.76,2.4,1.2c-0.186-0.054-0.474-0.006-0.48-0.24c0.766,0.142,0.742-0.451,1.2,0
		c0.683-1.266,2.966-2.031,4.32-0.72c-0.502,0.298-0.902,0.698-1.2,1.2c-3.602,1.238-8.105,0.219-10.321-1.92
		C40.132,52.943,40.819,52.831,41.694,52.905z"/>
	<path fill-rule="evenodd" clip-rule="evenodd" fill="#D3C5A0" d="M61.136,72.106c0.595,0.035,1.164,0.045,1.2-0.48
		c0.656,0.224,1.023,0.737,1.68,0.96c0.399,1.041,1.496,1.385,2.4,1.921c1.679,1.854,5.599,2.705,5.761,5.28
		c-0.193,0.127-0.39,0.25-0.721,0.24c-0.685-0.516-1.256-1.145-2.16-1.44c-0.761-0.438-1.143-1.258-2.16-1.44
		c-0.489-0.95-1.487-1.393-2.4-1.92c-0.761-0.438-1.143-1.257-2.16-1.44C62.244,73.078,61.467,72.814,61.136,72.106z"/>
	<path fill-rule="evenodd" clip-rule="evenodd" fill="#6A5D52" d="M24.652,23.622c-0.098,1.022-0.111,2.129-0.48,2.88
		C24.007,25.335,24.038,24.501,24.652,23.622z"/>
	<path fill-rule="evenodd" clip-rule="evenodd" fill="#6A5D52" d="M65.216,48.824c1.166-0.848,4.072-0.026,5.04,0.24
		c0.797,0.219,1.67-0.553,0.961,0.72C70.449,48.888,67.705,48.708,65.216,48.824z"/>
	<path fill-rule="evenodd" clip-rule="evenodd" fill="#272923" d="M89.458,64.666c-1.268-5.327,5.213-7.325,9.601-7.681
		c-1.573,1.626-4.516,1.885-6.48,3.121c-0.767,0.434-1.429,0.971-1.68,1.92c2.128,8.71-5.074,12.955-11.281,14.642
		c-1.435,0.166-2.406,0.794-3.841,0.96c0-0.08,0-0.16,0-0.24c0.257-0.623,1.424-0.337,1.681-0.96c1.03-0.17,2.009-0.392,2.64-0.96
		c4.083-1.838,8.497-3.345,9.361-8.401C89.855,66.807,89.855,64.925,89.458,64.666z"/>
</g>
</svg>
