<?xml version="1.0" encoding="utf-8"?>
<!-- Generator: Adobe Illustrator 15.1.0, SVG Export Plug-In . SVG Version: 6.00 Build 0)  -->
<!DOCTYPE svg PUBLIC "-//W3C//DTD SVG 1.1//EN" "http://www.w3.org/Graphics/SVG/1.1/DTD/svg11.dtd">
<svg version="1.1" id="Ebene_1" xmlns="http://www.w3.org/2000/svg" xmlns:xlink="http://www.w3.org/1999/xlink" x="0px" y="0px"
	 width="113.39px" height="113.39px" viewBox="0 0 113.39 113.39" enable-background="new 0 0 113.39 113.39" xml:space="preserve">
<g>
	<path fill-rule="evenodd" clip-rule="evenodd" fill="#2A2E28" d="M55.015,37.303c-0.187,0.214-0.258,0.542-0.24,0.96
		c-2.607-1.122-5.272,1.262-6.721,0.48C49.542,36.85,52.627,36.892,55.015,37.303z"/>
	<path fill-rule="evenodd" clip-rule="evenodd" fill="#2A2E28" d="M49.254,40.904c2.067,0.103,4.825-1.598,6.961-0.96
		c0,0.24,0,0.48,0,0.72c-0.185,1.046-0.665,0.405-1.44,0.96c1.191,4.78-1.844,12.046-7.681,9.601c-1.948-1.83-2.14-5.963-1.68-7.201
		c-0.206-0.594-1.67,0.07-1.92-0.48c0.499-1.713,2.052-0.982,3.12-1.92C47.451,41.341,48.814,41.584,49.254,40.904z M47.814,45.224
		c1.996-0.479,4.847,0.357,6.24,0c-0.097-1.023,0.232-2.473-0.24-3.121c-3.115-0.032-4.312,1.129-7.441,1.44
		c-0.093,0.342-0.288,0.405,0,0.72c-0.53,0.03-0.102,1.019-0.24,1.44C46.76,45.611,47.451,45.581,47.814,45.224z M50.214,47.144
		c0.327-0.306,0.371-1.176-0.24-1.2C49.647,46.25,49.604,47.12,50.214,47.144z M47.814,50.024c1.917,2.342,5.703-0.909,6-3.84
		c-0.56,0-1.12,0-1.68,0c0.327,2.919-4.198,2.875-3.36,0.24c-0.781,0.259-2.209-0.129-2.4,0.72
		C46.233,47.773,46.808,49.744,47.814,50.024z"/>
	<path fill-rule="evenodd" clip-rule="evenodd" fill="#2A2E28" d="M76.616,52.665c-0.23,1.265-1.031,3.052-2.16,2.64
		c0.673-0.425,1.03-2.257,0.96-3.36c-1.518,0.002-1.354,1.686-2.64,1.92c0.302-2.31,3.125-4.938,4.8-3.6
		c0.114,1.032-0.646,0.307-0.72,0.72c-0.24,0-0.48,0-0.72,0C76.402,51.438,76.442,52.119,76.616,52.665z"/>
	<path fill-rule="evenodd" clip-rule="evenodd" fill="#2A2E28" d="M56.215,61.785c-0.421,0.22-0.834,0.446-0.72,1.2
		c-1.458,0.074-3.03-0.098-4.081-0.72c-1.612-0.956-3.709-2.678-4.32-4.08c2.684,0.87,5.421,2.853,8.401,2.64
		C56.127,60.753,56.282,61.157,56.215,61.785z"/>
	<path fill-rule="evenodd" clip-rule="evenodd" fill="#2A2E28" d="M49.254,67.306c3.462,1.663,7.307,3.209,10.801,3.12
		c-0.226,0.986-1.988,0.779-2.88,0.721C54.197,70.951,50.317,69.234,49.254,67.306z"/>
	<path fill-rule="evenodd" clip-rule="evenodd" fill="#2A2E28" d="M64.136,77.387c0.102,0.502-0.165,0.636-0.24,0.96
		c-0.224-0.256-0.886-0.074-0.721-0.72C63.389,77.44,63.717,77.369,64.136,77.387z"/>
	<path fill-rule="evenodd" clip-rule="evenodd" fill="#2A2E28" d="M62.936,78.347c0.7,1.321-2.923,3.69-4.801,4.08
		c-3.887,0.809-8.207-1.532-9.121-4.32c1.885,0.818,3.262,2.957,5.76,3.36C58.207,82.021,61.042,80.449,62.936,78.347z"/>
	<path fill-rule="evenodd" clip-rule="evenodd" fill="#94AC87" d="M41.333,83.388c-0.502-0.523-0.685,0.119-1.44,0
		c0.085-0.635,1.223-0.218,1.44-0.721c0.146,0.014,0.284,0.036,0.24,0.24c0,0.16,0,0.32,0,0.48
		C41.493,83.388,41.413,83.388,41.333,83.388z"/>
	<path fill-rule="evenodd" clip-rule="evenodd" fill="#94AC87" d="M67.735,83.388c0,0.239,0,0.479,0,0.72
		c-0.187-0.053-0.278-0.201-0.24-0.48c-0.279,0.041-0.26,0.38-0.239,0.721c-0.24,0-0.48,0-0.721,0
		c0.054-0.188,0.201-0.279,0.48-0.24c-0.204-0.704-0.604,0.313-1.2,0c0.014-0.146,0.036-0.284,0.24-0.24
		c0.121-0.309,0.254-0.496,0.479-1.2c0.308,0.014,0.333,0.308,0.721,0.24c-0.099,0.302-0.31,0.49-0.721,0.48
		c0.36,0.793,0.587-0.499,1.2-0.24C67.735,83.228,67.735,83.308,67.735,83.388z"/>
	<path fill-rule="evenodd" clip-rule="evenodd" fill="#2A2E28" d="M43.733,92.508c0.502-0.102,0.636,0.165,0.96,0.24
		c-0.209,0.352-0.359,0.761-0.96,0.72C43.733,93.148,43.733,92.828,43.733,92.508z"/>
	<path fill-rule="evenodd" clip-rule="evenodd" fill="#2A2E28" d="M40.613,96.589c0.307-0.014,0.333-0.308,0.72-0.24
		c0.013,0.146,0.036,0.284,0.24,0.24c0,0.159,0,0.319,0,0.479c-0.146,0.014-0.284,0.036-0.24,0.24c-0.16,0-0.32,0-0.48,0
		C40.84,97.002,40.545,96.977,40.613,96.589z"/>
	<path fill-rule="evenodd" clip-rule="evenodd" fill="#94AC87" d="M46.854,97.309c1.02-0.046,0.272,1.504,0.24,1.92
		c-0.731-0.008,0.351-1.509-0.24-0.72C46.195,98.002,47.5,98.092,46.854,97.309z"/>
	<path fill-rule="evenodd" clip-rule="evenodd" fill="#2A2E28" d="M13.491,98.269c-0.624,3.479-0.879,9.781-0.72,14.161
		c-1.842-4.023-0.464-9.084-0.24-13.681C12.689,98.427,13.044,98.302,13.491,98.269z"/>
	<path fill-rule="evenodd" clip-rule="evenodd" fill="#727E6A" d="M55.734,101.389c0.396-0.004,0.134-0.666,0.48-0.72
		c0.165,0.892,0.116,0.627,0.24,1.68C56.13,102.113,55.975,101.709,55.734,101.389z"/>
	<path fill-rule="evenodd" clip-rule="evenodd" fill="#2A2E28" d="M99.658,113.39c0.515-5.544,1.235-8.017,0.721-12.001
		c1.533-0.066,1.346,3.023,1.199,5.041c-0.244,3.375-0.815,5.063-1.199,6.96C100.139,113.39,99.898,113.39,99.658,113.39z"/>
	<path fill-rule="evenodd" clip-rule="evenodd" fill="#727E6A" d="M5.09,109.55c0.135,0.465-0.095,2.617,0,3.84
		c-0.08,0-0.16,0-0.24,0C4.829,111.606,4.413,110.786,5.09,109.55z"/>
	<path fill-rule="evenodd" clip-rule="evenodd" fill="#727E6A" d="M37.253,25.062c0.892,0.708,1.65,1.55,2.4,2.4
		C38.558,26.958,37.979,25.936,37.253,25.062z"/>
	<path fill-rule="evenodd" clip-rule="evenodd" fill="#727E6A" d="M24.292,88.908c0.427-0.534,1.071-0.85,1.92-0.961
		C25.71,88.406,25.066,88.722,24.292,88.908z"/>
	<path fill-rule="evenodd" clip-rule="evenodd" fill="#727E6A" d="M21.652,89.868c0.196-0.604,1.265-0.335,1.68-0.721
		c-0.319,0.562-1.072,0.688-1.68,0.96C21.652,90.028,21.652,89.948,21.652,89.868z"/>
	<path fill-rule="evenodd" clip-rule="evenodd" fill="#727E6A" d="M80.457,47.864c-0.435,0.605-0.823,1.257-0.721,2.4
		c-0.668-0.685,0.143-1.926,0.48-2.4C80.297,47.864,80.377,47.864,80.457,47.864z"/>
	<path fill-rule="evenodd" clip-rule="evenodd" fill="#727E6A" d="M81.417,33.463c0.954,0.166,1.101,1.14,1.92,1.44
		C82.348,34.772,81.887,34.113,81.417,33.463z"/>
	<path fill-rule="evenodd" clip-rule="evenodd" fill="#727E6A" d="M73.736,23.622c0.938,0.663,1.507,1.693,2.16,2.64
		C74.986,25.572,74.328,24.63,73.736,23.622z"/>
	<path fill-rule="evenodd" clip-rule="evenodd" fill="#727E6A" d="M59.814,13.061c1.718,0.923,3.24,2.041,4.561,3.36
		C62.882,15.275,61.114,14.402,59.814,13.061z"/>
	<path fill-rule="evenodd" clip-rule="evenodd" fill="#2A2E28" d="M73.977,68.986c-0.396,1.757-0.635,4.885-1.681,8.16
		c-0.982,0.624,0.082,1.756,0.96,1.921c1.801,0.679,2.524,2.437,4.561,2.88c0.651,1.029,1.087,2.273,2.4,2.64
		c0.849,0.112,0.844,1.077,1.92,0.961c2.123,1.316,4.011,2.87,6.48,3.84c0.51,0.371,1.07,0.69,1.681,0.96
		c1.381,1.003,3.423,2.393,5.521,3.36c1.246,0.994,2.742,1.738,4.08,2.641c0.565,0.634,1.331,1.069,2.4,1.2c0.08,0,0.16,0,0.24,0
		c1.1,1.14,2.167,2.313,3.12,3.6c0.037,0.283-0.042,0.682,0.239,0.721c0.291,0.909,0.465,1.936,0.961,2.64
		c0.424,0.775,0.324,2.075,0.96,2.641c0.352,1.889,0.62,3.86,0.479,6.24c-0.16,0-0.319,0-0.479,0
		c-1.648-4.752-1.245-13.441-7.44-14.881c-6.171-4.791-13.436-8.487-20.402-12.481c0.621,5.325,5.341,11.241,0.24,15.602
		c3.39,3.811,7.553,6.849,9.841,11.761c-0.32,0-0.64,0-0.96,0c-4.413-5.418-7.76-11.518-15.842-12.721
		c-0.253,3.244-1.352,8.222-1.92,12.721c-0.4,0-0.8,0-1.2,0c0.094-1.122,0.146-0.797,0.24-1.92c-0.499-0.781-1.131-1.429-1.681-2.16
		c-0.729-0.712-1.218-1.662-2.16-2.16c0.068-0.388-0.227-0.413-0.239-0.72c-0.696,0.664-1.203,1.517-1.681,2.399
		c-1.557,1.646,1.254,2.989,1.92,4.561c-0.399,0-0.8,0-1.2,0c-0.45-0.83-1.194-1.365-1.439-2.4c-1.14,0.302-1.345,1.536-1.92,2.4
		c-1.36,0-2.721,0-4.081,0c-0.331-0.31-0.237-1.042-0.24-1.68c-0.612,0.617-0.89,1.036-0.96,1.68c-0.4,0-0.8,0-1.2,0
		c0.337-1.022,0.815-1.904,1.44-2.64c-0.669-0.931-1.541-1.659-2.4-2.4c-0.805,0.635-0.813,2.068-1.68,2.64
		c0.154,1.206,1.525,1.195,1.68,2.4c-0.48,0-0.96,0-1.44,0c-0.165-1.134-1.191-1.05-1.44,0c-0.4,0-0.8,0-1.2,0
		c0.557-0.807,0.438-1.197,0.96-1.68c-0.046-1.171-0.849-0.095-0.96-1.2c-0.335-0.944-1.373-1.188-1.92-1.92
		c-1.117,1.203-1.592,3.048-2.161,4.8c-0.4,0-0.8,0-1.2,0c0.496-2.258,1.216-3.399,2.16-5.521c-0.519-1.081-1.746-1.454-2.4-2.4
		c-0.702,0.658-1.313,1.408-1.44,2.641c-0.99,0.377-0.604,1.585-0.24,2.4c-0.102,0.502,0.165,0.636,0.24,0.96
		c0.567,0.85,0.214,1.193,0.72,1.92c-0.32,0-0.64,0-0.96,0c-1.067-3.827-2.488-6.825-3.36-12.001
		c-0.821,0.073-2.358,1.044-3.84,1.681c-1.496,1.664-3.738,2.515-5.521,4.08c-1.875,1.646-2.939,4.552-5.28,5.04
		c2.188-3.757,5.691-6.566,8.641-8.881c-1.344-1.696-2.701-3.379-4.56-4.56c1.32-3.895,1.646-8.089,3.36-12.481
		c-6.277,2.64-12.081,4.925-17.761,8.881c-5.61,0.058-8.223,10.017-8.881,15.602c0.707,0.332,0.025,0.878,0.48,1.68
		c-0.324,0.235-0.479,0.641-0.72,0.96c-0.24,0-0.48,0-0.72,0c-0.095-1.223,0.135-3.375,0-3.84c0.136-1.057,1.19-2.965,0.24-3.601
		c0.525-0.035,0.516-0.604,0.48-1.2c0.608-0.271,0.697-1.063,0.72-1.92c0.704-1.456,1.346-2.975,1.92-4.561
		c0.892-0.308,1.123-1.276,1.68-1.92c0.254-0.596,1.665-0.908,2.16-1.92c0.315-0.245,0.885-0.235,1.2-0.48
		c2.187-0.213,2.883-1.918,4.801-2.4c0.676-0.284,1.372-0.548,1.92-0.96c0.49-0.229,0.95-0.49,1.44-0.72c0,0.08,0,0.16,0,0.239
		c0.607-0.271,1.361-0.398,1.68-0.96c0.454,0.054,0.53-0.271,0.96-0.239c0.774-0.187,1.418-0.502,1.92-0.961
		c0.343-0.057,0.405-0.395,0.72-0.479c0.848-0.112,1.314-0.606,1.92-0.96c0.899-0.381,1.861-0.7,2.641-1.2
		c1.454-0.113,1.736-1.248,2.64-2.4c0.579-0.621,1.729-0.672,2.16-1.44c2.403-0.236,3.357-1.923,4.08-3.84
		c-1.112-1.448-1.406-3.715-3.12-4.561c-0.071,0.489-0.649,0.471-0.72,0.96c-1.058-0.178-0.983,0.777-1.68,0.96
		c-1.037-0.243-2.046-0.514-2.4-1.439c0.098-0.579-0.438-0.522-0.24-1.2c0.093-1.747,2.035-1.646,2.88-2.641
		c0.739,0.179,0.461-0.659,1.2-0.48c0-0.239,0-0.479,0-0.72c-0.467-4.236-0.564-7.544-1.92-11.041
		c-4.928-3.036-6.666-10.602-2.88-14.641c-1.131,0.091-2.061-0.02-1.92-1.2c0.536-0.984,1.817-1.223,2.64-1.92
		c-0.688-0.704-2.671-0.408-2.88-2.16c0.267-0.728,1.345-0.325,1.92-1.2c-0.591-0.125-1.571-0.042-1.68-1.2
		c1.377-1.495,4.603-1.905,7.201-1.44c0.524-2.517,2.324-3.757,3.12-6c-0.014-0.146-0.036-0.284-0.24-0.24
		c-0.75-0.85-1.509-1.692-2.4-2.4c-3.534-6.393,0.358-14.629,9.121-14.641c1.783-0.098,4.496,0.14,5.521,0
		c3.289,0.231,5.587,1.454,7.92,2.64c1.3,1.341,3.067,2.214,4.561,3.36c0.058,0.823,1.282,0.479,1.44,1.2
		c1.24-1.825,0.617-4.635,2.16-6.96c1.66,0.58,3.529,0.951,4.08,2.64c-0.594,2.846-2.567,4.313-3.84,6.48
		c1.702,1.418,3.788,2.453,5.521,3.84c0.592,1.008,1.25,1.95,2.16,2.64c1.525,2.715,3.071,5.41,5.521,7.201
		c0.47,0.65,0.931,1.309,1.92,1.44c2.843,2.134,7.521,4.127,6.721,8.161c-0.704,3.553-5.956,4.046-9.601,4.8c-0.08,0-0.16,0-0.24,0
		c-0.338,0.475-1.148,1.716-0.48,2.4c0.384,3.995-1.345,7.927-4.561,9.12c0.606,1.51-1.361,2.028-1.68,3.36
		c0.211,0.558,0.211,0.643,0,1.2C73.915,66.76,73.063,67.304,73.977,68.986z M46.374,28.663c-1.87-0.168-2.968-0.027-5.04-0.24
		c-1.458,1.342-2.577,3.023-3.121,5.281c1.585,1.458,2.626,3.177,2.16,6c0.177,0.543,0.915,0.525,0.96,1.2
		c-0.552,2.659,1.833,5.363,1.2,7.681c-0.354,1.299-1.557,1.284-2.16,2.4c-1.816-2.3-2.383-6.327-5.76-6.96
		c-7.057-1.325-3.168,11.856,0.24,12.481c1.97,0.345,3.172,0.137,4.321,1.44c-0.538,0.639-1.203-0.339-1.68,0.24
		c-0.476,3.231-0.646,6.975-0.24,9.841c3.383-1.658,6.06-4.021,9.121-6.001c-0.76-0.369-1.931-1.307-1.44-2.16
		c3.976,3,7.485,5.781,12.481,6.721c3.294,0.619,7.676-0.851,10.321-0.72c-5.741,3.511-13.737,1.485-19.201-1.681
		c-0.92,1.001-2.165,1.676-3.121,2.641c-0.688,0.671-1.655,1.064-2.16,1.92c-1.55,1.01-2.83,2.291-4.32,3.36
		c0.212,1.147,0.697,2.023,1.2,2.88c0.463,1.297,1.282,2.239,2.16,3.12c0.337,0.063,0.273,0.526,0.48,0.721
		c0.62,0.82,1.339,1.54,2.16,2.16c0.242,0.478,0.6,0.84,0.96,1.2c0.463,0.816,1.152,1.407,1.92,1.92
		c0.609,0.91,1.243,1.797,2.16,2.4c0.427,0.854,0.822,1.738,1.68,2.16c2.481,3.258,4.004,6.488,5.521,10.32
		c1.835-5.611,2.464-10.22,5.761-14.401c1.959-2.484,5.299-3.803,7.2-6.24c4.119-5.28,0.744-14.34,2.88-20.882
		c0.833,0.128,1.278,0.643,2.16,0.721c3.241-2.074,4.037-6.221,2.881-8.881c-2.35-1.637-4.332,1.4-6.721,2.4
		c1.077-2.665,0.121-6.925,0.72-8.881c-1.646-0.33-2.352-2.724-4.561-3.6c-2.848-1.13-6.308-0.314-8.641-0.48
		c0.245-1.436,1.78-1.58,2.881-2.161c0.896,0.058,1.374,0.361,1.68,0c0.307,0.333,1.134,0.147,1.44,0.48
		c-0.147-0.653-0.659-0.941-1.44-0.96c-0.861,0.199-1.161-0.541-1.68,0c-1.078-0.004-1.787,0.934-2.16-0.24
		c0.296-0.134-0.179-0.929,0.96-0.72c0.758,0.039,1.448,0.008,1.68-0.48c-0.324-0.076-0.458-0.342-0.96-0.24
		c-3.42-2.42-6.731-4.949-12.001-5.521C48.765,28.352,47.261,28.816,46.374,28.663z M44.454,64.186
		c-2.558,2.403-5.74,4.181-8.641,6.24c-0.02,0.9,0.879,0.882,0.96,1.681c4.288-2.354,7.671-5.61,11.041-8.881
		C46.571,61.934,45.962,64.272,44.454,64.186z M36.053,73.066c-0.13-0.99-0.614-1.626-1.2-2.16c-0.208,0.832-1.192,0.888-1.68,1.44
		c0.611,0.396,0.644,1.37,1.2,1.2c-0.146,0.013-0.284,0.035-0.24,0.239C35.402,74.176,34.884,72.777,36.053,73.066z M42.053,80.027
		c-0.016-0.704-0.548-0.892-0.96-1.2c-0.36,0.92-1.094,1.466-1.2,2.64c-0.118,0.842-0.358,1.563-0.24,2.641
		c0.914,0.114,1.498-0.102,1.68-0.72c0.08,0,0.16,0,0.24,0s0.16,0,0.24,0c1.226-1.057-0.694-1.646-1.44-2.16c0-0.16,0-0.32,0-0.48
		c0.32,0,0.64,0,0.96,0c1.28,0.612,1.86,1.711,3.12,1.44C43.1,82.021,43.216,80.384,42.053,80.027z M42.773,82.907
		c-0.335,0.162-1.248,1.77-1.2,2.16c0.972,0.229,1.499,0.902,2.16,1.44c0.16,0,0.32,0,0.48,0c0.033,0.47,1.071,1.139,1.44,0.479
		c0.342-0.093,0.405-0.288,0.72,0c0.001,0.241-0.194,0.286-0.24,0.48c-0.08,0-0.16,0-0.24,0c0.317,0.601-0.949,0.751-0.24,0.96
		c0.825-0.731,1.266,0.964,2.64,0.48c0.08,0,0.16,0,0.24,0c0.567,0.877,2.393,1.761,3.12,1.68c-0.771,0.211-0.329-0.791-0.96-0.72
		c0.013-0.413-0.185-0.615-0.48-0.721c-1.159-1.801-2.251-3.669-4.32-4.561c-0.241,0.001-0.286-0.194-0.48-0.239
		C44.593,83.809,44.058,82.983,42.773,82.907z M71.576,82.907c0.203-1.114-0.306-3.132-0.721-3.84
		c-0.579,1.1-1.814,1.545-2.64,2.399c-0.08,0-0.16,0-0.24,0c-0.021,0.379-0.612,0.188-0.48,0.721c1.169-0.129,1.124,0.957,1.921,1.2
		c0.423,0.217,0.396,0.883,0.96,0.96c0.346,0.134,0.586,0.374,0.72,0.72c0,0.08,0,0.16,0,0.24c-0.146,0.014-0.284,0.036-0.24,0.24
		c-0.159,0-0.319,0-0.479,0c-0.304,1.056-1.422,1.299-1.681,2.399c0.389,1.132,1.373,1.668,2.16,2.4
		c0.071-0.489,0.649-0.471,0.721-0.96c0.08,0,0.16,0,0.24,0c0.326,0.306,0.37,1.176-0.24,1.2c-0.175,0.655,0.477,0.483,0.479,0.96
		c-0.269,0.051-0.373,0.267-0.479,0.48c-0.08,0-0.16,0-0.24,0c-0.218-0.871-0.708-0.146-1.44-0.24c0-0.08,0-0.16,0-0.24
		c0.604-1.34-1.63-2.913-2.64-2.64c-0.335-0.307-0.104-1.176-0.721-1.2c-0.345-0.375-0.604-0.836-1.2-0.96
		c-0.093-0.787-1.015-0.746-1.439-1.2c-1.107,1.612-2.066,3.374-2.881,5.28c1.66-0.661,2.765-1.876,4.32-2.641
		c0.457,0.104,0.604,0.518,1.2,0.48c0.482,0.558,0.993,1.087,1.681,1.439c0.217,0.424,0.537,0.744,0.96,0.961
		c0.017,0.703,0.549,0.891,0.96,1.199c0.08,0,0.16,0,0.24,0c0.097,1.189,1.348,2.485,1.92,2.4c-0.032-1.766,0.345-1.666,0-3.12
		c0.299-0.084-0.197-1.384,0-2.16c0-0.4,0-0.8,0-1.2c0.001-0.24-0.194-0.285-0.24-0.479c0.563-0.062,0.139-1.055,0-1.2
		c0.374-0.063,0.167-0.526,0-0.721c-0.148-0.651,0.305-1.904-0.239-2.16c0.013,0.413-0.186,0.615-0.48,0.721
		c-0.279-0.041-0.261-0.38-0.24-0.721c0.624,0.144,0.864-0.096,0.721-0.72C71.736,82.907,71.656,82.907,71.576,82.907z
		 M73.496,99.469c2.603,0.494,4.072,1.148,6.001,1.92c0.777-1.383,1.342-2.979,2.16-4.32c-1.749-5.766-2.156-15.344-9.361-16.562
		C74.264,86.118,73.302,95.063,73.496,99.469z M34.373,84.107c-0.306,0.434,0.127,1.03,0,1.44c-0.769,2.485-2.359,6.31-2.88,8.16
		c0.641,0.622-0.867,2.849-0.72,4.32c1.498,1.383,2.421,3.34,4.32,4.32c1.516-0.724,2.848-1.632,4.561-2.16
		c-0.686-5.862-1.535-11.885-0.72-18.481C37.464,82.831,35.475,82.546,34.373,84.107z M67.735,83.147c0-0.08,0-0.16,0-0.24
		c-0.302-0.099-0.49-0.31-0.479-0.72c-1.249,0.271-1.597,1.443-2.4,2.16c-0.08,0-0.16,0-0.24,0c0.537,1.226,2.218,2.578,3.12,2.64
		c0.558-0.162,0.643-0.797,1.2-0.96c0.08,0,0.16,0,0.24,0c0.001-0.639,0.668-0.612,0.96-0.96c-0.845-0.516-1.341-1.38-2.4-1.68
		C67.735,83.308,67.735,83.228,67.735,83.147z M41.813,86.268c-0.058-0.343-0.396-0.405-0.48-0.72c-1.184,0.462-3.039,2.992-1.2,3.6
		c0.396,0.644,1.218,0.862,1.68,1.44c-0.099,0.302-0.31,0.49-0.72,0.48c-0.952,0.151-0.688-0.913-1.68-0.721
		c0.002,0.638-0.091,1.371,0.24,1.681c-0.251,0.775,0.162,2.689,0.24,3.36c-0.077,0.557,0.039,0.921,0.24,1.2
		c-0.501,0.362,0.125,1.619,0.24,2.16c0.177,1.197-0.094,1.359,0.48,2.16c-0.031-1.512,2.27-2.291,1.2-3.36
		c0.547,0.066,0.902-0.059,0.96-0.48c0.971-0.629,1.468-1.731,2.16-2.64c0.06-0.7-0.452-0.828-0.72-1.2
		c0.557-0.077,0.921,0.038,1.2,0.239c0.315,0.635,1.243-1.662,1.68-0.239c-0.352,0.208-0.761,0.359-0.72,0.96
		c-0.187,0.053-0.279,0.201-0.24,0.479c-0.776,0.344-1.225,1.016-1.44,1.921c-0.302,0.098-0.491,0.31-0.48,0.72
		c-0.317,0.003-0.219,0.421-0.48,0.479c0.483,1.197,1.637,1.724,2.88,2.16c0.115-1.455,2.381-1.868,1.68-3.359
		c-0.581-0.78-1.764-0.957-1.92-2.16c0.655-0.176,0.483,0.477,0.96,0.479c0.08,0,0.16,0,0.24,0s0.16,0,0.24,0c0,0.08,0,0.16,0,0.24
		c0.793,0.897,1.394,1.067,2.641,0.479c-0.295-1.094,0.841-0.758,0.96-1.439c0.506-0.214,0.417-1.023,1.2-0.96
		c0.067,0.547-0.058,0.902-0.48,0.96c-0.725,0.876-1.773,1.428-1.92,2.88c0.864,0.416,1.404,1.156,2.16,1.681
		c0.602-0.056,1.029-1.51,1.68-0.721c-0.618,0.182-0.834,0.767-0.72,1.681c0.94,0.34,1.234,1.326,2.16,1.68
		c0.241,0.32,0.396,0.725,0.72,0.96c-0.124-1.053-0.075-0.788-0.24-1.68c-0.051-1.47-0.825-2.216-1.2-3.36
		c-0.404-0.967,0.378-1.352-0.72-1.92c0-0.08,0-0.16,0-0.24c-0.08-0.56-0.246-1.034-0.72-1.2c0-0.08,0-0.16,0-0.24
		c-0.319-0.721-0.663-1.417-1.2-1.92c-0.204-0.704-0.604,0.313-1.2,0c0,0.08,0,0.16,0,0.24c-0.614-0.587-1.39-1.011-2.16-1.44
		c0.067,0.628-0.088,1.032-0.72,0.96c-0.013-0.307-0.308-0.332-0.24-0.72c0.24,0,0.48,0,0.72,0c-0.456-0.904-1.822-0.898-2.88-1.2
		c0,0.08,0,0.16,0,0.24c-0.704,0.016-0.891,0.548-1.2,0.96c-0.346,0.134-0.586,0.374-0.72,0.72c-1.418,0.982-2.228,2.573-3.36,3.841
		c-0.16,0-0.32,0-0.48,0c-0.173-0.733,0.245-0.875,0.24-1.44c0.474-0.646,0.811-1.43,1.2-2.16c0.493-0.067,0.479-0.642,0.72-0.96
		c0.364-0.436,0.773-0.827,0.96-1.44c0.72-0.319,0.812-1.269,1.44-1.68c-0.825-0.026-1.7-0.873-2.641-1.44
		C41.973,86.268,41.894,86.268,41.813,86.268z M66.056,90.107c0.001-0.24-0.194-0.285-0.24-0.479
		c-0.447,0.033-0.802,0.158-0.96,0.479c-0.703-0.063-0.737,0.543-1.44,0.48c-0.04,0.601,0.369,0.751,0.721,0.96
		c0.162-0.558,0.797-0.643,0.96-1.2c0.282,0.038,0.681-0.041,0.72,0.24c0.175,0.655-0.477,0.483-0.48,0.96
		c-0.054,0.187-0.006,0.474-0.239,0.48c0.324,1.116,1.464,1.416,1.92,2.4c0.834-0.047,0.911-0.85,1.68-0.961
		c0.275,0.995-0.505,0.936-0.479,1.681c0.298,0.502,0.698,0.902,1.2,1.2c0.213,0.507,0.73,0.709,0.72,1.439
		c0.655,0.175,0.483-0.477,0.96-0.479c0.187,0.054,0.474,0.007,0.48,0.24c-0.229,0.49-0.49,0.949-0.721,1.439
		c0.331-0.01,0.527,0.113,0.721,0.24c0.24-0.001,0.285,0.194,0.479,0.24c-0.003-0.964,0.618-2.345,0-3.601
		c-0.063,0.374-0.526,0.167-0.72,0c-0.146-0.014-0.284-0.036-0.24-0.24C69.909,93.295,67.884,91.8,66.056,90.107z M62.455,91.548
		c-0.447,0.033-0.802,0.158-0.96,0.48c-0.343-0.058-0.405-0.396-0.72-0.48c0.054,0.454-0.271,0.529-0.24,0.96
		c-0.28,0.041-0.261,0.38-0.24,0.721c-0.08,0-0.16,0-0.24,0c0.07,0.978,1.664,1.685,1.921,1.68c-0.502-0.286,0.759-0.821,0.72-1.44
		c0.134-0.586,0.929-0.511,0.72-1.439c-0.33,0.01-0.526-0.113-0.72-0.24C62.705,91.533,62.582,91.179,62.455,91.548z M65.815,94.429
		c-0.433-0.661-1.231-1.222-1.2-1.681c-0.07,0.489-0.649,0.471-0.72,0.96c0,0.08,0,0.16,0,0.24c-0.49,0.55-1.173,0.907-1.2,1.92
		c1.072,0.368,1.563,1.317,2.4,1.92c0.316-1.123,1.267-1.613,1.68-2.64C66.286,95.078,66.305,94.499,65.815,94.429z M59.814,94.908
		c-0.541,0.839-1.112,2.312-0.72,3.36c1.084-0.436,1.219-1.822,1.92-2.641C60.449,95.555,60.568,94.795,59.814,94.908z
		 M67.495,96.108c-0.735,0.625-1.401,1.318-1.68,2.4c0.966,0.714,1.274,2.085,2.641,2.4c0.441-0.839,1.066-1.494,1.439-2.4
		C69.146,97.657,68.468,96.736,67.495,96.108z M61.735,96.828c-0.626,0.655-1.297,1.265-1.44,2.4c0.505,0.855,1.472,1.249,2.16,1.92
		c0.884-0.476,1.225-1.496,1.681-2.399c0.079,0,0.159,0,0.239,0C63.998,97.761,62.694,96.437,61.735,96.828z M49.734,97.788
		c-0.858,0.423-1.253,1.308-1.68,2.16c-0.051,0.27-0.266,0.374-0.48,0.48c0.452,1.068,1.43,1.611,2.4,2.16
		c0.883-0.877,1.411-2.109,2.16-3.12C51.186,99.21,50.349,97.582,49.734,97.788z M41.573,102.829c0.099-0.302,0.31-0.49,0.72-0.48
		c0.517,0.604,1.346,0.895,1.92,1.44c0.804-0.637,1.228-1.653,1.68-2.641c-0.43-1.25-1.552-1.809-2.88-2.16
		c-0.108,0.853-0.81,1.11-0.96,1.921c-1.004,0.478-1.341,2.645-0.48,3.6c0,0.08,0,0.16,0,0.24c0.169,0.791,0.386,1.534,0.48,2.4
		c0.825-0.055,1.046-0.714,1.2-1.44c0.013-0.307,0.308-0.332,0.24-0.72C43.883,104.19,42.576,103.032,41.573,102.829z
		 M67.256,101.389c-0.251-0.949-1.605-0.795-1.681-1.92c-1.263,0.257-1.283,1.757-2.16,2.4c0.6,1.241,1.612,2.068,2.641,2.88
		c0.202-0.997,0.963-1.437,1.2-2.4C67.975,102.191,67.026,101.836,67.256,101.389z M70.136,103.309
		c0.63,0.183,1.116,1.749,1.681,1.2c-0.592-1.743,0.477-2.372,0.239-4.561c-0.896,0.257-0.684-0.596-1.439-0.479
		c-0.556,0.805-1.292,1.429-1.44,2.641c-0.103,0.53,1.442,0.601,0.72,0.96c-0.557,0.076-0.921-0.039-1.2-0.24
		c-0.899,0.22-0.98,1.259-1.439,1.92c-0.08,0-0.16,0-0.24,0c-0.783,1.283,0.788,2.02,1.44,2.641c0.445,1.154,1.526,1.674,2.16,2.64
		c0.396-1.54,0.293-2.217,0.72-3.84c-0.162-0.558-0.798-0.643-0.96-1.2c-0.163-0.558-0.798-0.643-0.96-1.2
		C69.829,103.802,70.031,103.604,70.136,103.309z M60.295,104.989c0.602-0.919,1.208-1.833,1.681-2.88
		c-1.008-0.594-1.376-1.825-2.641-2.161c-0.221,1.346-0.961-0.034-1.44,0.48c-0.284,1.712-0.053,1.901,0,3.601
		c0.187,0.054,0.474,0.007,0.48,0.24C58.825,104.653,59.845,106.084,60.295,104.989z M56.215,105.229
		c-0.558,0.562-0.685,1.555-1.2,2.16c0.944,0.576,1.456,1.584,2.4,2.16c-0.203-4.396-0.427-6.879-4.56-9.121
		c-0.983,0.697-1.328,2.033-1.92,3.12c0.267,0.613,0.733,1.027,1.44,1.2c0.495,0.553,1.425,1.925,1.92,1.681c0-0.08,0-0.16,0-0.24
		C54.995,106.124,55.794,103.29,56.215,105.229z M48.054,106.43c0.806-0.715,0.799-2.242,1.92-2.641
		c-1.313-0.446-1.794-1.727-3.12-2.16c-0.647,0.873-1.151,1.89-1.68,2.88c0.342,0.058,0.405,0.396,0.72,0.48
		C46.299,105.632,47.717,106.516,48.054,106.43z M63.896,107.629c0.784-0.255,0.721-1.358,1.439-1.68
		c-0.676-1.163-1.326-2.354-2.64-2.88c-0.587,1.253-1.581,2.1-1.92,3.6c1.298,0.638,1.077,1.434,2.399,2.16
		C63.596,108.61,64.009,108.383,63.896,107.629z M50.214,104.509c-0.453,0.987-0.824,2.057-1.44,2.881
		c1.095,0.905,1.998,2.002,3.12,2.88c0.912-0.688,1.335-1.865,1.92-2.88C52.428,106.616,51.57,105.313,50.214,104.509z
		 M58.375,105.469c-0.032,1.037-0.306,1.583,0.24,2.4c0.101-0.459,0.087-1.033,0.72-0.96
		C59.438,106.005,58.828,105.816,58.375,105.469z M60.775,113.149c0.938-0.821,1.217-2.303,1.92-3.359
		c-1.358-0.682-1.329-1.666-2.641-2.641C58.434,108.946,58.316,112.054,60.775,113.149z"/>
	<path fill-rule="evenodd" clip-rule="evenodd" fill="#727E6A" d="M90.058,113.39c-2.288-4.912-6.451-7.95-9.841-11.761
		c5.101-4.36,0.381-10.276-0.24-15.602c6.967,3.994,14.231,7.69,20.402,12.481c6.195,1.439,5.792,10.129,7.44,14.881
		c-2.48,0-4.961,0-7.44,0c0.384-1.897,0.955-3.585,1.199-6.96c0.146-2.018,0.334-5.107-1.199-5.041
		c0.515,3.984-0.206,6.457-0.721,12.001C96.458,113.39,93.258,113.39,90.058,113.39z"/>
	<path fill-rule="evenodd" clip-rule="evenodd" fill="#727E6A" d="M71.336,113.39c0.568-4.499,1.667-9.477,1.92-12.721
		c8.082,1.203,11.429,7.303,15.842,12.721C83.177,113.39,77.257,113.39,71.336,113.39z"/>
	<path fill-rule="evenodd" clip-rule="evenodd" fill="#727E6A" d="M70.376,111.47c-0.76-0.521-1.393-1.168-1.681-2.16
		C69.245,110.041,69.877,110.688,70.376,111.47z"/>
	<path fill-rule="evenodd" clip-rule="evenodd" fill="#727E6A" d="M66.535,107.149c-0.204,0.044-0.226-0.094-0.239-0.24
		c-0.916,0.284-0.765,1.636-1.681,1.92c0.478-0.883,0.984-1.735,1.681-2.399C66.309,106.736,66.604,106.762,66.535,107.149z"/>
	<path fill-rule="evenodd" clip-rule="evenodd" fill="#94AC87" d="M46.374,113.39c0.568-1.752,1.043-3.597,2.161-4.8
		c0.272,1.007,1.282,1.278,1.92,1.92c0.111,1.105,0.914,0.029,0.96,1.2c-0.521,0.482-0.403,0.873-0.96,1.68
		C49.094,113.39,47.734,113.39,46.374,113.39z"/>
	<path fill-rule="evenodd" clip-rule="evenodd" fill="#727E6A" d="M50.454,110.51c-0.638-0.642-1.647-0.913-1.92-1.92
		C49.082,109.322,50.119,109.565,50.454,110.51z"/>
	<path fill-rule="evenodd" clip-rule="evenodd" fill="#727E6A" d="M43.253,110.51c-0.364-0.815-0.75-2.023,0.24-2.4
		C42.581,108.908,43.896,110.012,43.253,110.51z"/>
	<path fill-rule="evenodd" clip-rule="evenodd" fill="#727E6A" d="M43.494,111.47c0.806-0.571,0.465,1.663,1.2,1.92
		c-0.16,0-0.32,0-0.48,0C43.708,112.663,44.061,112.319,43.494,111.47z"/>
	<path fill-rule="evenodd" clip-rule="evenodd" fill="#727E6A" d="M5.81,113.39c0.241-0.319,0.396-0.725,0.72-0.96
		c-0.455-0.802,0.227-1.348-0.48-1.68c0.658-5.585,3.271-15.544,8.881-15.602c5.68-3.956,11.484-6.241,17.761-8.881
		c-1.714,4.393-2.04,8.587-3.36,12.481c1.859,1.181,3.216,2.863,4.56,4.56c-2.95,2.314-6.453,5.124-8.641,8.881
		c2.341-0.488,3.406-3.394,5.28-5.04c1.782-1.565,4.024-2.416,5.521-4.08c1.482-0.637,3.019-1.607,3.84-1.681
		c0.873,5.176,2.293,8.174,3.36,12.001C30.772,113.39,18.292,113.39,5.81,113.39z M12.531,98.749
		c-0.224,4.597-1.602,9.657,0.24,13.681c-0.159-4.38,0.096-10.682,0.72-14.161C13.044,98.302,12.689,98.427,12.531,98.749z"/>
	<path fill-rule="evenodd" clip-rule="evenodd" fill="#727E6A" d="M9.411,96.828c0.342-0.058,0.405-0.395,0.72-0.479
		c-0.557,0.644-0.788,1.612-1.68,1.92C8.507,97.525,9.118,97.336,9.411,96.828z"/>
	<path fill-rule="evenodd" clip-rule="evenodd" fill="#727E6A" d="M20.211,90.588c-0.548,0.412-1.244,0.676-1.92,0.96
		c0-0.08,0-0.16,0-0.24C18.745,90.881,19.261,90.517,20.211,90.588z"/>
	<path fill-rule="evenodd" clip-rule="evenodd" fill="#D1B56C" d="M45.414,66.826c0.956-0.965,2.201-1.64,3.121-2.641
		c5.464,3.166,13.46,5.191,19.201,1.681c-2.645-0.131-7.026,1.339-10.321,0.72c-4.996-0.939-8.505-3.721-12.481-6.721
		c-0.491,0.854,0.68,1.791,1.44,2.16c-3.061,1.979-5.738,4.343-9.121,6.001c-0.405-2.866-0.236-6.609,0.24-9.841
		c0.478-0.58,1.143,0.398,1.68-0.24c-1.149-1.304-2.351-1.096-4.321-1.44c-3.408-0.625-7.296-13.806-0.24-12.481
		c3.377,0.634,3.944,4.661,5.76,6.96c0.604-1.116,1.806-1.101,2.16-2.4c0.633-2.317-1.752-5.022-1.2-7.681
		c-0.045-0.675-0.783-0.657-0.96-1.2c0.466-2.824-0.575-4.542-2.16-6c0.543-2.257,1.662-3.938,3.121-5.281
		c2.072,0.213,3.17,0.072,5.04,0.24c0.489,0.551,1.994,0.087,2.88,0.24c5.27,0.571,8.581,3.1,12.001,5.521
		c0.373,0.854-0.815,0.145-0.72,0.72c-1.139-0.208-0.664,0.586-0.96,0.72c0.373,1.174,1.082,0.235,2.16,0.24c0,0.16,0,0.32,0,0.48
		c-1.101,0.581-2.636,0.725-2.881,2.161c2.333,0.166,5.793-0.65,8.641,0.48c2.209,0.876,2.914,3.271,4.561,3.6
		c-0.599,1.956,0.357,6.216-0.72,8.881c2.389-1,4.371-4.038,6.721-2.4c1.156,2.661,0.36,6.807-2.881,8.881
		c-0.882-0.078-1.327-0.593-2.16-0.721c-2.136,6.542,1.239,15.602-2.88,20.882c-1.901,2.438-5.241,3.756-7.2,6.24
		c-3.297,4.182-3.926,8.79-5.761,14.401c-1.516-3.832-3.039-7.063-5.521-10.32c-0.558-0.723-1.067-1.493-1.68-2.16
		c-0.917-0.604-1.551-1.49-2.16-2.4c-0.443-0.838-1.206-1.354-1.92-1.92c-0.36-0.36-0.718-0.723-0.96-1.2
		c-0.62-0.821-1.247-1.633-2.16-2.16c-0.207-0.194-0.143-0.657-0.48-0.721c-0.554-1.205-1.455-2.064-2.16-3.12
		c-0.503-0.856-0.988-1.732-1.2-2.88c1.491-1.069,2.77-2.351,4.32-3.36C43.928,68.061,45.022,67.795,45.414,66.826z M76.856,50.984
		c0.074-0.413,0.834,0.312,0.72-0.72c-1.675-1.338-4.498,1.29-4.8,3.6c1.285-0.235,1.122-1.918,2.64-1.92
		c0.07,1.103-0.287,2.936-0.96,3.36c1.129,0.412,1.93-1.375,2.16-2.64C77.339,52.33,76.117,51.422,76.856,50.984z M48.054,38.744
		c1.449,0.782,4.113-1.603,6.721-0.48c-0.018-0.418,0.054-0.746,0.24-0.96C52.627,36.892,49.542,36.85,48.054,38.744z
		 M46.614,41.624c-1.068,0.938-2.622,0.207-3.12,1.92c0.25,0.55,1.714-0.114,1.92,0.48c-0.46,1.238-0.268,5.371,1.68,7.201
		c5.836,2.445,8.872-4.821,7.681-9.601c0.776-0.555,1.256,0.086,1.44-0.96c0-0.24,0-0.48,0-0.72
		c-2.136-0.637-4.894,1.063-6.961,0.96C48.207,40.976,47.263,41.153,46.614,41.624z M67.976,43.784
		c-0.841-2.408-4.564-4.347-6.24-1.92c2.976-1.188,5.944,1.844,6,4.32c-2.099-1.048-4.101-0.814-6.721-1.44
		c0.012-1.118,1.341-1.897,0.721-2.88c-3.989,2.623-0.323,11.149,3.84,10.561c2.045-0.29,3.644-2.357,3.36-6
		C68.929,45.777,69.011,44.328,67.976,43.784z M31.493,47.624c1.299-0.989,4.38-0.52,4.8,1.92c-2.479-0.727-3.373,4.94-0.72,5.521
		c-0.332-1.737-1.238-3.842,0.96-4.561c1.166-0.045,0.755,1.485,1.92,1.44C38.048,48.426,33.911,43.464,31.493,47.624z
		 M58.135,59.865c-4.118-0.047-5.428-4.285-3.6-7.681c-3.272,1.264-1.686,6.943,0.48,8.161c0.002,0.316,0.42,0.219,0.48,0.479
		c-2.98,0.213-5.717-1.77-8.401-2.64c0.611,1.402,2.708,3.124,4.32,4.08c1.05,0.622,2.623,0.794,4.081,0.72
		c-0.114-0.754,0.299-0.98,0.72-1.2c0.08,0,0.16,0,0.24,0c0.058-0.343,0.396-0.404,0.48-0.72c-0.073-0.487,0.693,0.049,0.72,0.24
		c-0.276,0.283-0.271,0.848-0.24,1.439c0.457,0.363,0.655,1.175,1.201,1.44c1.126,0.549,2.432-0.427,3.12-0.479
		c0.302-0.024,0.917,0.549,1.2,0.479c1.85-0.454,3.917-2.093,5.28-2.641c-1.048-1.336-2.038,0.897-3.36,0
		c-0.491,0.549-2.148-0.068-2.641,0.48c-1.498-0.206-2.928,0.202-3.84-0.96c2.078-0.126,4.223-1.712,4.561-4.32
		c0.421-0.283,0.444-2.189-0.24-2.16c-0.558-0.883-1.047-1.833-2.16-2.16c0.292,1.286,2.269,2.979,1.2,4.8
		C61.102,58.671,59.863,59.514,58.135,59.865z M57.175,71.146c0.892,0.059,2.654,0.266,2.88-0.721
		c-3.494,0.089-7.339-1.457-10.801-3.12C50.317,69.234,54.197,70.951,57.175,71.146z M63.175,77.627
		c-0.165,0.646,0.497,0.464,0.721,0.72c0.075-0.324,0.342-0.458,0.24-0.96C63.717,77.369,63.389,77.44,63.175,77.627z
		 M54.774,81.467c-2.499-0.403-3.875-2.542-5.76-3.36c0.914,2.788,5.234,5.129,9.121,4.32c1.878-0.39,5.501-2.759,4.801-4.08
		C61.042,80.449,58.207,82.021,54.774,81.467z"/>
	<path fill-rule="evenodd" clip-rule="evenodd" fill="#727E6A" d="M43.253,68.746c0.505-0.855,1.472-1.249,2.16-1.92
		C45.022,67.795,43.928,68.061,43.253,68.746z"/>
	<path fill-rule="evenodd" clip-rule="evenodd" fill="#727E6A" d="M40.133,74.986c0.705,1.056,1.606,1.915,2.16,3.12
		C41.415,77.226,40.597,76.283,40.133,74.986z"/>
	<path fill-rule="evenodd" clip-rule="evenodd" fill="#727E6A" d="M42.773,78.827c0.913,0.527,1.541,1.339,2.16,2.16
		C44.113,80.367,43.393,79.647,42.773,78.827z"/>
	<path fill-rule="evenodd" clip-rule="evenodd" fill="#727E6A" d="M45.894,82.188c0.715,0.565,1.478,1.082,1.92,1.92
		C47.046,83.595,46.357,83.004,45.894,82.188z"/>
	<path fill-rule="evenodd" clip-rule="evenodd" fill="#727E6A" d="M49.974,86.508c0.613,0.667,1.122,1.438,1.68,2.16
		C50.796,88.246,50.401,87.361,49.974,86.508z"/>
	<path fill-rule="evenodd" clip-rule="evenodd" fill="#D1B56C" d="M63.415,36.103c0.781,0.02,1.293,0.307,1.44,0.96
		c-0.307-0.333-1.134-0.147-1.44-0.48C63.415,36.423,63.415,36.263,63.415,36.103z"/>
	<path fill-rule="evenodd" clip-rule="evenodd" fill="#D1B56C" d="M61.255,34.423c0.502-0.102,0.636,0.165,0.96,0.24
		c-0.231,0.488-0.922,0.519-1.68,0.48C60.439,34.568,61.628,35.276,61.255,34.423z"/>
	<path fill-rule="evenodd" clip-rule="evenodd" fill="#727E6A" d="M67.976,43.784c1.035,0.544,0.953,1.993,0.96,2.641
		C68.487,45.279,68.595,44.899,67.976,43.784z"/>
	<path fill-rule="evenodd" clip-rule="evenodd" fill="#D1B56C" d="M46.614,41.624c0.649-0.47,1.593-0.647,2.64-0.72
		C48.814,41.584,47.451,41.341,46.614,41.624z"/>
	<path fill-rule="evenodd" clip-rule="evenodd" fill="#727E6A" d="M28.372,61.545c0.213,0.507,0.731,0.71,0.72,1.44
		c0,0.16,0,0.32,0,0.48C28.869,62.955,28.036,61.82,28.372,61.545z"/>
	<path fill-rule="evenodd" clip-rule="evenodd" fill="#727E6A" d="M14.691,45.704c0.137-0.991-0.001-3.512,1.2-2.64
		c-1.28-0.08-0.57,1.83-0.96,2.64C14.851,45.704,14.771,45.704,14.691,45.704z"/>
	<path fill-rule="evenodd" clip-rule="evenodd" fill="#727E6A" d="M21.892,52.185c0.277,1.083,0.731,1.989,1.44,2.64
		C22.329,54.555,21.601,52.975,21.892,52.185z"/>
	<path fill-rule="evenodd" clip-rule="evenodd" fill="#94AC87" d="M29.572,62.985c0.104,0.891,0.279,1.392,0.48,2.641
		c-0.567-0.429-0.487-1.184-0.96-2.16c0-0.16,0-0.32,0-0.48C29.252,62.985,29.412,62.985,29.572,62.985z"/>
	<path fill-rule="evenodd" clip-rule="evenodd" fill="#94AC87" d="M49.974,45.944c0.611,0.024,0.567,0.895,0.24,1.2
		C49.604,47.12,49.647,46.25,49.974,45.944z"/>
	<path fill-rule="evenodd" clip-rule="evenodd" fill="#B0C6AD" d="M62.695,46.184c-0.257,3.026,3.262,2.72,3.84,0.72
		c0.731-0.011,0.934,0.507,1.44,0.72c0.116,6.53-7.874,2.887-6.48-1.68C61.773,46.146,62.139,46.261,62.695,46.184z"/>
	<path fill-rule="evenodd" clip-rule="evenodd" fill="#727E6A" d="M46.374,47.144c0.401,1.04,0.685,2.196,1.44,2.88
		C46.808,49.744,46.233,47.773,46.374,47.144z"/>
	<path fill-rule="evenodd" clip-rule="evenodd" fill="#B0C6AD" d="M46.374,47.144c0.191-0.849,1.62-0.46,2.4-0.72
		c-0.837,2.635,3.687,2.679,3.36-0.24c0.56,0,1.12,0,1.68,0c-0.297,2.932-4.083,6.182-6,3.84
		C47.059,49.34,46.774,48.184,46.374,47.144z"/>
	<path fill-rule="evenodd" clip-rule="evenodd" fill="#727E6A" d="M76.616,52.665c-0.174-0.546-0.214-1.226-0.479-1.68
		c0.239,0,0.479,0,0.72,0C76.117,51.422,77.339,52.33,76.616,52.665z"/>
	<path fill-rule="evenodd" clip-rule="evenodd" fill="#727E6A" d="M55.015,60.346c0.754,0.125,1.339,0.421,1.92,0.72
		c-0.084,0.315-0.422,0.377-0.48,0.72c-0.08,0-0.16,0-0.24,0c0.067-0.628-0.088-1.032-0.72-0.96
		C55.435,60.564,55.017,60.662,55.015,60.346z"/>
	<path fill-rule="evenodd" clip-rule="evenodd" fill="#727E6A" d="M62.215,62.025c0.492-0.549,2.149,0.068,2.641-0.48
		C64.719,62.69,62.685,61.87,62.215,62.025z"/>
	<path fill-rule="evenodd" clip-rule="evenodd" fill="#727E6A" d="M61.735,57.225c-0.5,1.581-1.516,2.645-3.601,2.64
		C59.863,59.514,61.102,58.671,61.735,57.225z"/>
	<path fill-rule="evenodd" clip-rule="evenodd" fill="#727E6A" d="M62.936,56.745c0.074-0.875-0.038-1.562-0.24-2.16
		C63.38,54.556,63.356,56.462,62.936,56.745z"/>
	<path fill-rule="evenodd" clip-rule="evenodd" fill="#B0C6AD" d="M47.814,63.226c-3.37,3.271-6.753,6.527-11.041,8.881
		c-0.081-0.799-0.98-0.78-0.96-1.681c2.9-2.06,6.083-3.837,8.641-6.24C45.962,64.272,46.571,61.934,47.814,63.226z"/>
	<path fill-rule="evenodd" clip-rule="evenodd" fill="#AA3F3F" d="M34.133,73.786c-0.044-0.204,0.093-0.227,0.24-0.239
		c-0.556,0.17-0.588-0.804-1.2-1.2c0.488-0.553,1.472-0.608,1.68-1.44c0.586,0.534,1.07,1.17,1.2,2.16
		C34.884,72.777,35.402,74.176,34.133,73.786z"/>
	<path fill-rule="evenodd" clip-rule="evenodd" fill="#727E6A" d="M41.573,85.067c-0.047-0.391,0.865-1.998,1.2-2.16
		C42.787,84.041,41.851,84.226,41.573,85.067z"/>
	<path fill-rule="evenodd" clip-rule="evenodd" fill="#94AC87" d="M42.773,82.907c1.284,0.076,1.819,0.901,2.64,1.44
		c-0.856-0.277-1.648,0.727-1.92,0.239c-0.444,0.036-0.147,0.813-0.48,0.961c0.682,0.223,1.92,0.371,2.64-0.24
		c0.372,0.546,0.5,0.453,1.2,0.24c-0.117,0.764-1.041,0.72-1.2,1.439c-0.322-0.157-0.447-0.513-0.48-0.96
		c-0.547-0.067-0.902,0.058-0.96,0.48c-0.16,0-0.32,0-0.48,0c-0.662-0.538-1.188-1.212-2.16-1.44
		C41.851,84.226,42.787,84.041,42.773,82.907z"/>
	<path fill-rule="evenodd" clip-rule="evenodd" fill="#94AC87" d="M45.654,86.987c-0.369,0.659-1.407-0.01-1.44-0.479
		c0.058-0.423,0.413-0.548,0.96-0.48C45.207,86.475,45.332,86.83,45.654,86.987z"/>
	<path fill-rule="evenodd" clip-rule="evenodd" fill="#727E6A" d="M46.134,87.468c0,0.08,0,0.16,0,0.24
		c0.188,0.932,1.476,0.764,2.16,1.2c-1.375,0.483-1.815-1.212-2.64-0.48c-0.709-0.209,0.557-0.359,0.24-0.96
		C45.974,87.468,46.054,87.468,46.134,87.468z"/>
	<path fill-rule="evenodd" clip-rule="evenodd" fill="#727E6A" d="M48.534,88.908c0.579,0.311,1.729,1.297,2.16,0.96
		c0.631-0.071,0.188,0.931,0.96,0.72C50.927,90.669,49.102,89.785,48.534,88.908z"/>
	<path fill-rule="evenodd" clip-rule="evenodd" fill="#727E6A" d="M50.214,89.147c-0.983-0.356-2.184-3.863-2.64-2.399
		c-0.613,0.411-0.84-0.275-1.2,0.239c-0.315-0.288-0.377-0.093-0.72,0c0.16-0.72,1.083-0.676,1.2-1.439
		c0.438-0.187-0.144-0.259-0.48-0.24c-0.106-0.214-0.21-0.43-0.48-0.48c0-0.08,0-0.16,0-0.24
		C47.963,85.479,49.055,87.347,50.214,89.147z"/>
	<path fill-rule="evenodd" clip-rule="evenodd" fill="#94AC87" d="M68.216,81.467c0.825-0.854,2.061-1.3,2.64-2.399
		c0.415,0.708,0.924,2.726,0.721,3.84c-0.147,0.333-0.924,0.036-0.96,0.48c-0.151-0.134-0.726-0.976-0.96-0.24
		c0.573,0.048,0.568,0.58,0.72,1.2c-0.563-0.077-0.537-0.743-0.96-0.96c0-0.16,0-0.32,0-0.48c0.351-0.209,0.93-0.19,0.72-0.96
		c0.322,0.158,0.447,0.513,0.48,0.96c0.224-0.256,0.885-0.074,0.72-0.72c0.01-0.357-1.426-0.348-0.24-0.48
		c-0.035-0.58-2.463,0.505-1.2,0.48c-0.157,0.719-0.513-0.229-0.96,0c-0.128-0.346,0.936-0.586,0.24-0.721
		c0.607-0.162,1.236-0.751,1.2-0.239c1.072-0.017,0.306-0.549,0.72-0.961c-0.074-0.798-0.833,1.027-0.72-0.239
		C69.789,80.569,69.004,81.892,68.216,81.467z"/>
	<path fill-rule="evenodd" clip-rule="evenodd" fill="#727E6A" d="M69.896,91.548c0,0.08,0,0.16,0,0.24
		c0.732,0.094,1.223-0.631,1.44,0.24c-0.359-0.381-0.981-0.177-1.2,0.239c-0.411-0.309-0.943-0.496-0.96-1.199
		C69.42,91.224,69.424,91.62,69.896,91.548z"/>
	<path fill-rule="evenodd" clip-rule="evenodd" fill="#727E6A" d="M66.535,87.708c0.616,0.024,0.386,0.894,0.721,1.2
		c-0.063,0.783,0.931,0.509,0.96,1.199c-0.688-0.353-1.198-0.882-1.681-1.439C67.133,88.632,66.605,87.854,66.535,87.708z"/>
	<path fill-rule="evenodd" clip-rule="evenodd" fill="#727E6A" d="M70.376,92.268c0.317,0.003,0.22,0.421,0.479,0.48
		c0.088,0.712,0.416,1.185,0.961,1.44c0.051,0.269,0.266,0.373,0.479,0.479C71.724,94.753,70.473,93.457,70.376,92.268z"/>
	<path fill-rule="evenodd" clip-rule="evenodd" fill="#94AC87" d="M39.893,81.467c0.106-1.174,0.84-1.72,1.2-2.64
		c0.412,0.309,0.944,0.496,0.96,1.2c0.003,0.477,0.655,0.305,0.48,0.96c-0.558,0.075-0.352-1.048-1.2-0.24c-0.32,0-0.64,0-0.96,0
		c-0.08,0-0.16,0-0.24,0C40.154,81.088,40.173,81.427,39.893,81.467z"/>
	<path fill-rule="evenodd" clip-rule="evenodd" fill="#94AC87" d="M68.216,81.467c0.788,0.425,1.573-0.897,2.16-1.439
		c-0.113,1.267,0.646-0.559,0.72,0.239c-0.414,0.412,0.353,0.944-0.72,0.961c0.036-0.512-0.593,0.077-1.2,0.239
		c0.695,0.135-0.368,0.375-0.24,0.721c0.447-0.229,0.803,0.719,0.96,0c-1.263,0.024,1.165-1.061,1.2-0.48
		c-1.186,0.133,0.25,0.123,0.24,0.48c0.165,0.646-0.496,0.464-0.72,0.72c-0.033-0.447-0.158-0.802-0.48-0.96
		c0.21,0.77-0.369,0.751-0.72,0.96c0,0.16,0,0.32,0,0.48c-0.797-0.243-0.752-1.329-1.921-1.2c-0.132-0.532,0.459-0.342,0.48-0.721
		C68.056,81.467,68.136,81.467,68.216,81.467z"/>
	<path fill-rule="evenodd" clip-rule="evenodd" fill="#727E6A" d="M72.296,80.507c7.205,1.218,7.612,10.796,9.361,16.562
		c-0.818,1.342-1.383,2.938-2.16,4.32c-1.929-0.771-3.398-1.426-6.001-1.92C73.302,95.063,74.264,86.118,72.296,80.507z"/>
	<path fill-rule="evenodd" clip-rule="evenodd" fill="#94AC87" d="M41.333,80.747c0.848-0.808,0.642,0.315,1.2,0.24
		c0.175-0.655-0.477-0.483-0.48-0.96c1.163,0.356,1.047,1.993,2.4,2.16C43.193,82.458,42.613,81.359,41.333,80.747z"/>
	<path fill-rule="evenodd" clip-rule="evenodd" fill="#94AC87" d="M40.373,80.747c0,0.16,0,0.32,0,0.48
		c0.746,0.515,2.667,1.104,1.44,2.16c-0.08,0-0.16,0-0.24,0c0-0.16,0-0.32,0-0.48c0.044-0.204-0.094-0.227-0.24-0.24
		c-0.217,0.503-1.355,0.086-1.44,0.721c0.755,0.119,0.938-0.523,1.44,0c-0.182,0.618-0.766,0.834-1.68,0.72
		c-0.118-1.078,0.122-1.799,0.24-2.641c0.28-0.04,0.261-0.379,0.24-0.72C40.213,80.747,40.293,80.747,40.373,80.747z"/>
	<path fill-rule="evenodd" clip-rule="evenodd" fill="#94AC87" d="M70.376,84.348c-0.151-0.62-0.146-1.152-0.72-1.2
		c0.234-0.735,0.809,0.106,0.96,0.24c0.036-0.444,0.813-0.147,0.96-0.48c0.08,0,0.16,0,0.24,0c0.144,0.624-0.097,0.863-0.721,0.72
		c-0.021,0.341-0.039,0.68,0.24,0.721c0.021,0.341,0.04,0.68-0.24,0.72C70.962,84.722,70.722,84.481,70.376,84.348z"/>
	<path fill-rule="evenodd" clip-rule="evenodd" fill="#94AC87" d="M64.855,84.348c0.804-0.717,1.151-1.889,2.4-2.16
		c-0.011,0.41,0.178,0.621,0.479,0.72c0,0.08,0,0.16,0,0.24c-0.613-0.259-0.84,1.033-1.2,0.24c0.411,0.01,0.622-0.179,0.721-0.48
		c-0.388,0.067-0.413-0.227-0.721-0.24c-0.226,0.704-0.358,0.892-0.479,1.2c-0.204-0.044-0.227,0.094-0.24,0.24
		c0.596,0.313,0.996-0.704,1.2,0c-0.279-0.039-0.427,0.053-0.48,0.24c0.24,0,0.48,0,0.721,0c-0.021-0.341-0.04-0.68,0.239-0.721
		c-0.038,0.279,0.054,0.428,0.24,0.48c0-0.24,0-0.48,0-0.72c1.06,0.3,1.556,1.164,2.4,1.68c-0.292,0.348-0.959,0.321-0.96,0.96
		c-0.08,0-0.16,0-0.24,0c0.557-0.352-0.469-0.761,0.48-0.72c-1.298-0.726-2.443,1.053-2.641,0.96
		c-0.233-0.007-0.187-0.294-0.24-0.48c0.457-0.103,0.604-0.517,1.2-0.479c-0.426-0.487-0.977-0.158-0.24-0.721
		c-0.515-0.118-2.157,0.211-1.199,1.2C65.825,85.298,64.878,85.284,64.855,84.348z"/>
	<path fill-rule="evenodd" clip-rule="evenodd" fill="#727E6A" d="M64.855,84.348c0.022,0.937,0.97,0.95,1.44,1.439
		c0.08,0,0.159,0,0.239,0c0.054,0.187,0.007,0.474,0.24,0.48c0.235,0.324,0.641,0.479,0.96,0.72c-0.902-0.062-2.583-1.414-3.12-2.64
		C64.695,84.348,64.775,84.348,64.855,84.348z"/>
	<path fill-rule="evenodd" clip-rule="evenodd" fill="#94AC87" d="M66.775,86.268c0.197,0.093,1.343-1.686,2.641-0.96
		c-0.949-0.041,0.076,0.368-0.48,0.72c-0.558,0.163-0.643,0.798-1.2,0.96C67.416,86.747,67.011,86.592,66.775,86.268z"/>
	<path fill-rule="evenodd" clip-rule="evenodd" fill="#94AC87" d="M45.414,84.348c0.194,0.045,0.239,0.24,0.48,0.239
		c0,0.08,0,0.16,0,0.24c-0.561,0.079-0.991,0.289-1.44,0.48c0.127,0.417,1.156-0.261,1.68-0.24c-0.068,0.429,0.227,0.492,0.24,0.24
		c0.336-0.019,0.918,0.054,0.48,0.24c-0.7,0.213-0.828,0.306-1.2-0.24c-0.72,0.611-1.958,0.463-2.64,0.24
		c0.333-0.147,0.036-0.925,0.48-0.961C43.766,85.074,44.557,84.07,45.414,84.348z"/>
	<path fill-rule="evenodd" clip-rule="evenodd" fill="#94AC87" d="M46.374,85.308c-0.013,0.252-0.308,0.188-0.24-0.24
		c-0.524-0.021-1.553,0.657-1.68,0.24c0.449-0.191,0.879-0.401,1.44-0.48C46.163,84.878,46.268,85.094,46.374,85.308z"/>
	<path fill-rule="evenodd" clip-rule="evenodd" fill="#727E6A" d="M70.855,85.548c-0.044-0.204,0.094-0.227,0.24-0.24
		c0.036,0.443,0.813,0.147,0.96,0.479c0.167,0.194,0.374,0.658,0,0.721c-0.157-0.719-0.513,0.229-0.96,0
		C70.909,86.294,70.838,85.966,70.855,85.548z"/>
	<path fill-rule="evenodd" clip-rule="evenodd" fill="#94AC87" d="M40.133,89.147c-1.838-0.607,0.016-3.138,1.2-3.6
		c0.084,0.314,0.422,0.377,0.48,0.72c-0.246,0.234-0.486,0.475-0.72,0.72c-0.261-0.06-0.163-0.477-0.48-0.479
		c-0.194,0.045-0.239,0.24-0.48,0.24c0.242-0.105,0.6,0.753,0.96,0.239c0.322,0.158,0.447,0.514,0.48,0.96
		c-0.279-0.039-0.427,0.054-0.48,0.24c-0.224-0.176-0.364-0.437-0.48-0.72c-0.719,0.158,0.229,0.513,0,0.96
		c0.75-0.263,0.767-0.245,0.72,0.72c0.38-0.02,0.916,0.116,0.96-0.239c-0.105-0.356-0.307,0.095-0.72,0
		c-0.316-0.744,0.711-1.332,0-1.681c-0.044-0.204,0.094-0.227,0.24-0.24c0.204,0.044,0.226-0.094,0.24-0.239
		c0.674,0.003-0.571,0.654,0.48,0.479c0.65-0.217-0.548-0.537-0.48-0.96c0.94,0.567,1.816,1.414,2.641,1.44
		c-0.628,0.411-0.72,1.36-1.44,1.68c0.046-0.194,0.241-0.239,0.24-0.479c-0.632-0.073-0.788,0.332-0.72,0.96
		c-0.501-0.102-0.636,0.164-0.96,0.239C41.421,90.099,40.875,89.454,40.133,89.147z"/>
	<path fill-rule="evenodd" clip-rule="evenodd" fill="#727E6A" d="M40.133,89.147c0.742,0.307,1.288,0.951,1.68,0.96
		c0.206,0.194,0.143,0.658,0.48,0.721c-0.241,0.318-0.227,0.893-0.72,0.96c0.127-0.193,0.25-0.39,0.24-0.72
		c-0.194,0.166-0.658,0.373-0.72,0c0.411,0.01,0.622-0.179,0.72-0.48C41.351,90.01,40.53,89.791,40.133,89.147z"/>
	<path fill-rule="evenodd" clip-rule="evenodd" fill="#727E6A" d="M39.653,92.028c0.249,0.631,0.287,1.473,0.24,2.4
		c0.317-0.003,0.22-0.421,0.48-0.48c0.005,0.565-0.413,0.707-0.24,1.44c-0.08,0-0.16,0-0.24,0
		C39.815,94.718,39.402,92.804,39.653,92.028z"/>
	<path fill-rule="evenodd" clip-rule="evenodd" fill="#727E6A" d="M40.133,96.589c0.051,0.29,0.266,0.147,0.48,0
		c-0.068,0.388,0.227,0.413,0.24,0.72c-1.013-0.895-0.09,1.601-0.48,1.44C40.258,98.208,39.632,96.951,40.133,96.589z"/>
	<path fill-rule="evenodd" clip-rule="evenodd" fill="#727E6A" d="M43.014,97.068c0.698-0.902,1.168-2.031,2.16-2.64
		C44.482,95.337,43.985,96.439,43.014,97.068z"/>
	<path fill-rule="evenodd" clip-rule="evenodd" fill="#727E6A" d="M45.654,93.468c0.477-0.163,0.549-0.73,0.96-0.96
		c0.08,0,0.16,0,0.24,0c0.557,0.077,0.921-0.038,1.2-0.24c-0.084,0.315-0.422,0.378-0.48,0.721c-0.014,0.146-0.036,0.284-0.24,0.24
		C46.897,91.806,45.969,94.103,45.654,93.468z"/>
	<path fill-rule="evenodd" clip-rule="evenodd" fill="#727E6A" d="M48.054,96.589c-0.106-0.214-0.21-0.43-0.48-0.48
		c-0.178-0.701-1.295-0.465-1.2-1.44c-0.039-0.278,0.053-0.427,0.24-0.479c0.628-0.068,1.032,0.087,0.96,0.72
		c-0.477-0.003-0.305-0.655-0.96-0.479c0.156,1.203,1.34,1.38,1.92,2.16C48.374,96.589,48.214,96.589,48.054,96.589z"/>
	<path fill-rule="evenodd" clip-rule="evenodd" fill="#94AC87" d="M55.734,101.389c-0.926-0.354-1.22-1.34-2.16-1.68
		c-0.114-0.914,0.102-1.499,0.72-1.681c-0.651-0.789-1.079,0.665-1.68,0.721c-0.756-0.524-1.296-1.265-2.16-1.681
		c0.147-1.452,1.196-2.004,1.92-2.88c0.728,0.087,1.202,0.815,1.2-0.24c0.474,0.166,0.64,0.641,0.72,1.2
		c-0.194-0.046-0.239-0.241-0.48-0.24c-0.044,0.204,0.094,0.227,0.24,0.24c-0.156,0.407-0.552,0.149-0.48-0.24
		c-0.193,0.127-0.39,0.25-0.72,0.24c1.155,0.505-0.339,0.812,1.44,0.479c0.281,0.039,0.203,0.438,0.24,0.721
		c-0.409,0.088-0.453-0.188-0.48-0.48c-0.302,0.06-0.242,0.478,0,0.48c-0.295,0.344-0.825,0.454-1.44,0.479
		c0.158-0.322,0.513-0.446,0.96-0.479c-0.218-0.652-0.841,0.244-1.2,0.24c0.965,0.731,0.179,0.642,0.48,1.68
		c0.44-0.28,0.813-0.627,1.2-0.96c0.355,0.278,0.605,0.278,0.96,0c0.375,1.145,1.149,1.891,1.2,3.36
		C55.869,100.723,56.131,101.385,55.734,101.389z"/>
	<path fill-rule="evenodd" clip-rule="evenodd" fill="#727E6A" d="M54.054,97.309c-0.495-0.475,0.166-0.64,0.72-0.72
		c0.044-0.204-0.094-0.227-0.24-0.24c-0.038-0.282,0.041-0.682-0.24-0.721c0-0.08,0-0.159,0-0.239
		c1.098,0.568,0.316,0.953,0.72,1.92C54.659,97.587,54.41,97.587,54.054,97.309z"/>
	<path fill-rule="evenodd" clip-rule="evenodd" fill="#727E6A" d="M53.574,93.708c-0.581-0.459-1.017-1.063-1.2-1.92
		C52.912,92.291,53.255,92.987,53.574,93.708z"/>
	<path fill-rule="evenodd" clip-rule="evenodd" fill="#94AC87" d="M41.813,90.107c0.324-0.075,0.458-0.341,0.96-0.239
		c-0.068-0.628,0.088-1.033,0.72-0.96c0,0.24-0.194,0.285-0.24,0.479c-0.187,0.613-0.596,1.005-0.96,1.44
		C41.956,90.766,42.02,90.302,41.813,90.107z"/>
	<path fill-rule="evenodd" clip-rule="evenodd" fill="#94AC87" d="M71.576,89.388c-0.071,0.489-0.649,0.471-0.721,0.96
		c-0.787-0.732-1.771-1.269-2.16-2.4c0.259-1.101,1.377-1.344,1.681-2.399c0.16,0,0.32,0,0.479,0
		c-0.018,0.418,0.054,0.746,0.24,0.96c0.165,0.805-0.402,0.877-0.96,0.96c0.555,0.485,1.07-0.166,1.92,0.24
		c0.046,0.194,0.241,0.239,0.24,0.479c-0.344-0.716-1.251,0.631-1.2-0.479c-0.719,0.157,0.229,0.513,0,0.96
		c0.193-0.127,0.39-0.251,0.721-0.24C71.397,88.917,71.995,88.898,71.576,89.388z M70.376,89.388
		c0.147-0.333,0.924-0.036,0.96-0.479c-0.472,0.071-0.476-0.324-0.72-0.48c-0.725,0.518-0.725,0.202,0,0.72
		C70.36,89.138,70.006,89.261,70.376,89.388z"/>
	<path fill-rule="evenodd" clip-rule="evenodd" fill="#94AC87" d="M42.053,86.268c-0.068,0.423,1.13,0.743,0.48,0.96
		c-1.051,0.175,0.194-0.477-0.48-0.479c-0.014,0.146-0.036,0.283-0.24,0.239c-0.146,0.014-0.284,0.036-0.24,0.24
		c0.711,0.349-0.316,0.937,0,1.681c0.413,0.095,0.615-0.356,0.72,0c-0.044,0.355-0.58,0.22-0.96,0.239
		c0.047-0.965,0.03-0.982-0.72-0.72c0.229-0.447-0.719-0.802,0-0.96c0.116,0.283,0.256,0.544,0.48,0.72
		c0.053-0.187,0.201-0.279,0.48-0.24c-0.033-0.446-0.158-0.802-0.48-0.96c-0.36,0.514-0.718-0.345-0.96-0.239
		c0.241,0,0.286-0.195,0.48-0.24c0.317,0.003,0.219,0.42,0.48,0.479c0.234-0.245,0.475-0.485,0.72-0.72
		C41.894,86.268,41.973,86.268,42.053,86.268z"/>
	<path fill-rule="evenodd" clip-rule="evenodd" fill="#94AC87" d="M65.335,86.748c-0.778-0.14-1.116,0.163-1.68,0.239
		c0.026-0.453,0.794-0.166,0.72-0.72c-0.354,0.125-0.604,0.355-0.96,0.48c0.139,0.791,0.906,0.344,1.44,0.239
		c-0.011,0.256,0.113,0.609,0.24,0.24c0.842,0.066-0.603,0.895,0.239,0.96c-1.556,0.765-2.66,1.979-4.32,2.641
		c0.814-1.906,1.773-3.668,2.881-5.28C64.32,86.002,65.242,85.961,65.335,86.748z M64.615,87.468
		c-0.359,0.041-0.886-0.086-0.96,0.24c0.566,0.476-0.022,0.476-0.24,0c-0.003,0.316-0.421,0.219-0.479,0.479
		c0.472-0.071,0.476,0.324,0.72,0.48c0.308-0.623,1.143-0.108,1.2-0.48C64.212,88.001,63.897,88.108,64.615,87.468z"/>
	<path fill-rule="evenodd" clip-rule="evenodd" fill="#94AC87" d="M65.335,88.188c-0.842-0.065,0.603-0.894-0.239-0.96
		c-0.127,0.369-0.251,0.016-0.24-0.24c-0.534,0.104-1.302,0.552-1.44-0.239c0.355-0.125,0.605-0.355,0.96-0.48
		c0.074,0.554-0.693,0.267-0.72,0.72c0.563-0.076,0.901-0.379,1.68-0.239c0.596,0.124,0.855,0.585,1.2,0.96
		c0.07,0.146,0.598,0.924,0,0.96C65.938,88.705,65.792,88.291,65.335,88.188z"/>
	<path fill-rule="evenodd" clip-rule="evenodd" fill="#94AC87" d="M47.574,86.748c0.456-1.464,1.657,2.043,2.64,2.399
		c0.295,0.105,0.493,0.308,0.48,0.721c-0.432,0.337-1.581-0.649-2.16-0.96c-0.08,0-0.16,0-0.24,0c-0.685-0.437-1.972-0.269-2.16-1.2
		c0.241-0.001,0.286,0.194,0.48,0.239c-0.477-0.553,0.06-0.267,0.24-0.72c0.673,0.003-0.572,0.655,0.48,0.48
		c0.409-0.099-0.051-0.31,0-0.721c0.24,0,0.48,0,0.72,0C48.001,86.801,47.853,86.709,47.574,86.748z"/>
	<path fill-rule="evenodd" clip-rule="evenodd" fill="#94AC87" d="M46.134,87.708c0-0.08,0-0.16,0-0.24
		c0.045-0.194,0.241-0.239,0.24-0.48c0.36-0.515,0.587,0.172,1.2-0.239c0.279-0.039,0.427,0.053,0.48,0.239c-0.24,0-0.48,0-0.72,0
		c-0.051,0.411,0.409,0.622,0,0.721c-1.052,0.175,0.193-0.478-0.48-0.48c-0.18,0.453-0.717,0.167-0.24,0.72
		C46.419,87.902,46.375,87.707,46.134,87.708z"/>
	<path fill-rule="evenodd" clip-rule="evenodd" fill="#94AC87" d="M71.576,89.388c0.419-0.489-0.179-0.471,0.24-0.96
		c-0.331-0.011-0.527,0.113-0.721,0.24c0.229-0.447-0.719-0.803,0-0.96c-0.051,1.11,0.856-0.236,1.2,0.479c0,0.4,0,0.8,0,1.2
		c-0.16,0-0.32,0-0.479,0C71.736,89.388,71.656,89.388,71.576,89.388z"/>
	<path fill-rule="evenodd" clip-rule="evenodd" fill="#94AC87" d="M70.616,89.147c-0.725-0.518-0.725-0.202,0-0.72
		c0.244,0.156,0.248,0.552,0.72,0.48c-0.036,0.443-0.813,0.146-0.96,0.479C70.006,89.261,70.36,89.138,70.616,89.147z"/>
	<path fill-rule="evenodd" clip-rule="evenodd" fill="#94AC87" d="M71.096,86.508c0.447,0.229,0.803-0.719,0.96,0
		c0.139,0.146,0.563,1.139,0,1.2c-0.85-0.406-1.365,0.245-1.92-0.24C70.693,87.385,71.261,87.313,71.096,86.508z"/>
	<path fill-rule="evenodd" clip-rule="evenodd" fill="#94AC87" d="M64.855,88.188c-0.058,0.372-0.893-0.143-1.2,0.48
		c-0.244-0.156-0.248-0.552-0.72-0.48c0.059-0.261,0.477-0.163,0.479-0.479c0.218,0.476,0.807,0.476,0.24,0
		c0.074-0.326,0.601-0.199,0.96-0.24C63.897,88.108,64.212,88.001,64.855,88.188z"/>
	<path fill-rule="evenodd" clip-rule="evenodd" fill="#94AC87" d="M67.256,88.908c1.01-0.273,3.243,1.3,2.64,2.64
		c-0.472,0.072-0.476-0.324-0.72-0.479c-0.423-0.217-0.743-0.537-0.96-0.961C68.187,89.417,67.192,89.691,67.256,88.908z"/>
	<path fill-rule="evenodd" clip-rule="evenodd" fill="#727E6A" d="M65.096,90.348c0.044-0.204-0.094-0.227-0.24-0.24
		c0.158-0.321,0.513-0.446,0.96-0.479c0.046,0.194,0.241,0.239,0.24,0.479c-0.327,0.057,0.371,1.558-0.721,1.44
		c0.004-0.477,0.655-0.305,0.48-0.96C65.776,90.307,65.378,90.386,65.096,90.348z"/>
	<path fill-rule="evenodd" clip-rule="evenodd" fill="#727E6A" d="M68.695,93.468c0.146,0.014,0.284,0.036,0.24,0.24
		c0.174,0.734-0.414,0.706-0.24,1.44c-0.771,0.328,1.353,1.01,0.721,1.2c-0.502-0.298-0.902-0.698-1.2-1.2
		C68.19,94.403,68.971,94.463,68.695,93.468z"/>
	<path fill-rule="evenodd" clip-rule="evenodd" fill="#727E6A" d="M71.096,97.309c0.041-0.279,0.38-0.261,0.721-0.24
		c0.336,0.785-1.195,1.552,0,1.681c0,0.24-0.195,0.285-0.24,0.479c-0.193-0.127-0.39-0.25-0.721-0.24
		c0.23-0.49,0.491-0.949,0.721-1.439C71.569,97.315,71.282,97.362,71.096,97.309z"/>
	<path fill-rule="evenodd" clip-rule="evenodd" fill="#94AC87" d="M66.056,90.107c1.828,1.692,3.854,3.188,5.04,5.521
		c-0.358,0.281-0.981,0.299-1.2,0.721c0.469-0.356,2.041,0.748,1.44-0.48c0.193,0.167,0.657,0.374,0.72,0
		c0.618,1.256-0.003,2.637,0,3.601c-0.194-0.046-0.239-0.241-0.479-0.24c0.045-0.194,0.24-0.239,0.24-0.479
		c-1.195-0.129,0.336-0.896,0-1.681c-0.341-0.021-0.68-0.039-0.721,0.24c-0.477,0.003-0.305,0.654-0.96,0.479
		c0.011-0.73-0.507-0.933-0.72-1.439c0.632-0.19-1.491-0.872-0.721-1.2c0.046,0.194,0.241,0.239,0.24,0.479
		c0.575,0.096-0.133-1.093,0.721-0.72c-0.935-0.188-0.419-0.25-0.48-0.72c0.176-0.428,0.437-0.035,0.72,0
		c-0.058-0.423-0.413-0.548-0.96-0.48c0.044-0.204-0.094-0.227-0.24-0.24c-0.769,0.111-0.846,0.914-1.68,0.961
		c-0.456-0.984-1.596-1.284-1.92-2.4c0.233-0.007,0.186-0.294,0.239-0.48C66.427,91.665,65.729,90.164,66.056,90.107z
		 M67.016,92.268c-1.359-0.103-1.284,0.74-0.24,0.961C66.851,92.903,67.117,92.77,67.016,92.268z"/>
	<path fill-rule="evenodd" clip-rule="evenodd" fill="#94AC87" d="M48.054,90.828c-0.533-0.556-0.936,0.081-1.68,0
		c0.639-0.617-0.461-0.344-0.48-0.96c0-0.08,0-0.16,0-0.24c1.059,0.302,2.424,0.296,2.88,1.2
		C48.534,90.828,48.294,90.828,48.054,90.828z"/>
	<path fill-rule="evenodd" clip-rule="evenodd" fill="#94AC87" d="M46.614,92.508c0-0.16,0-0.319,0-0.479
		c-0.392-0.175-1.044,0.477-0.48,0.479c-0.158,0.322-0.513,0.447-0.96,0.48c0.672-0.277,0.395-1.135,0-0.24
		c-0.369-0.058-0.036-0.396,0.24-0.48c0.095-0.465-1.093-0.351-0.72,0.24c-0.625-1.168,1.426-0.336,2.16-0.72c0,0.24,0,0.479,0,0.72
		C46.774,92.508,46.694,92.508,46.614,92.508z"/>
	<path fill-rule="evenodd" clip-rule="evenodd" fill="#94AC87" d="M65.096,90.348c-0.163,0.558-0.798,0.643-0.96,1.2
		c-0.352-0.209-0.761-0.359-0.721-0.96c0.703,0.063,0.737-0.543,1.44-0.48C65.002,90.121,65.14,90.144,65.096,90.348z"/>
	<path fill-rule="evenodd" clip-rule="evenodd" fill="#94AC87" d="M39.653,92.028c-0.331-0.31-0.238-1.043-0.24-1.681
		c0.993-0.192,0.729,0.872,1.68,0.721c0.063,0.373,0.526,0.166,0.72,0c0.01,0.33-0.113,0.526-0.24,0.72
		c-0.389,0.73-0.726,1.514-1.2,2.16c-0.26,0.06-0.163,0.478-0.48,0.48C39.94,93.501,39.902,92.659,39.653,92.028z"/>
	<path fill-rule="evenodd" clip-rule="evenodd" fill="#94AC87" d="M43.974,91.548c0.134-0.346,0.375-0.586,0.72-0.72
		c0.474-0.496,0.64,0.165,0.72,0.72c-0.733-0.173-0.875,0.245-1.44,0.24C43.974,91.708,43.974,91.628,43.974,91.548z"/>
	<path fill-rule="evenodd" clip-rule="evenodd" fill="#94AC87" d="M66.775,93.229c-1.044-0.221-1.119-1.063,0.24-0.961
		C67.117,92.77,66.851,92.903,66.775,93.229z"/>
	<path fill-rule="evenodd" clip-rule="evenodd" fill="#94AC87" d="M48.054,92.268c-0.022-0.377,0.032-0.832-0.48-0.72
		c0.236-0.735,0.641,0.276,0.96,0.24c-0.038,0.282,0.041,0.682-0.24,0.72c0.058,0.619,0.413-0.329,0.96,0
		c-0.075,0.325-0.342,0.459-0.24,0.96c-0.321-0.303-0.472-0.721-0.96-0.239c0.395,0.188,0.672,0.15,0,0.72
		c-0.562-0.062-0.138-1.055,0-1.2c-0.241-0.001-0.286,0.194-0.48,0.24C47.631,92.646,47.969,92.583,48.054,92.268z"/>
	<path fill-rule="evenodd" clip-rule="evenodd" fill="#94AC87" d="M60.535,92.508c-0.03-0.431,0.294-0.506,0.24-0.96
		c0.314,0.085,0.377,0.423,0.72,0.48C61.65,91.671,60.196,94.099,60.535,92.508z"/>
	<path fill-rule="evenodd" clip-rule="evenodd" fill="#727E6A" d="M60.295,93.229c0.581,1.481,1.727,1.583,2.4,0.239
		c0.039,0.619-1.222,1.154-0.72,1.44c-0.257,0.005-1.851-0.702-1.921-1.68C60.135,93.229,60.215,93.229,60.295,93.229z"/>
	<path fill-rule="evenodd" clip-rule="evenodd" fill="#94AC87" d="M62.455,91.548c0.127-0.369,0.25-0.015,0.24,0.24
		c0.624,0.631-0.388,0.188-0.24,0.96c-0.779-0.783-0.169,1.049-1.2,0.72c0.531-0.558,0.212-0.643,0.48-1.2c0.24,0,0.479,0,0.72,0
		C62.455,92.028,62.455,91.788,62.455,91.548z"/>
	<path fill-rule="evenodd" clip-rule="evenodd" fill="#94AC87" d="M61.495,92.028c0.158-0.322,0.513-0.447,0.96-0.48
		c0,0.24,0,0.48,0,0.72c-0.24,0-0.479,0-0.72,0c-0.269,0.558,0.051,0.643-0.48,1.2c1.031,0.329,0.421-1.503,1.2-0.72
		c-0.147-0.771,0.864-0.329,0.24-0.96c0.193,0.127,0.39,0.25,0.72,0.24c0.209,0.929-0.586,0.854-0.72,1.439
		c-0.674,1.344-1.819,1.242-2.4-0.239c-0.021-0.341-0.04-0.68,0.24-0.721C60.196,94.099,61.65,91.671,61.495,92.028z"/>
	<path fill-rule="evenodd" clip-rule="evenodd" fill="#94AC87" d="M52.375,91.788c0.183,0.856,0.619,1.461,1.2,1.92
		c0,0.08,0,0.16,0,0.24c0.002,1.056-0.472,0.327-1.2,0.24c0.422-0.058,0.547-0.413,0.48-0.96c-0.783-0.063-0.694,0.746-1.2,0.96
		c-0.307,0.013-0.333,0.308-0.72,0.24c0.221-0.579,0.621-0.979,1.2-1.2c-0.097-0.598-1.099-0.184-0.72,0.479
		c-0.659-0.518,0.239-1.103-0.24-1.68c0-0.08,0-0.16,0-0.24C51.77,92.101,52.17,91.084,52.375,91.788z"/>
	<path fill-rule="evenodd" clip-rule="evenodd" fill="#94AC87" d="M49.254,92.988c0.233,0.007,0.187,0.294,0.24,0.479
		c0.565,0.006,0.707-0.413,1.44-0.239c0.153,0.873-0.497,0.942-1.2,0.96c0.158-0.322,0.513-0.447,0.96-0.48
		C50.502,93.154,49.085,94.321,49.254,92.988z"/>
	<path fill-rule="evenodd" clip-rule="evenodd" fill="#94AC87" d="M47.814,94.908c0.122-0.678,1.532-0.068,1.2-1.2
		c0.317,0.003,0.219,0.421,0.48,0.48c-0.104,0.377-0.755,0.205-0.48,0.96c-0.418,0.018-0.747-0.054-0.96-0.24
		C47.974,94.908,47.894,94.908,47.814,94.908z"/>
	<path fill-rule="evenodd" clip-rule="evenodd" fill="#94AC87" d="M71.576,92.028c0.343-0.058,0.404-0.396,0.72-0.48
		c0.345,1.454-0.032,1.354,0,3.12c-0.214-0.106-0.429-0.211-0.479-0.479c-0.126-0.49-0.388-0.981,0-1.681
		c-0.067-0.566-0.642,0.275-0.961,0.24c-0.26-0.06-0.162-0.478-0.479-0.48c-0.08,0-0.16,0-0.24,0c0.219-0.416,0.841-0.62,1.2-0.239
		C71.416,92.028,71.496,92.028,71.576,92.028z"/>
	<path fill-rule="evenodd" clip-rule="evenodd" fill="#94AC87" d="M70.855,92.748c0.319,0.035,0.894-0.807,0.961-0.24
		c-0.388,0.699-0.126,1.19,0,1.681C71.271,93.933,70.943,93.46,70.855,92.748z"/>
	<path fill-rule="evenodd" clip-rule="evenodd" fill="#727E6A" d="M65.335,94.188c-0.315-0.633-0.787-0.736-1.439-0.48
		c0.07-0.489,0.649-0.471,0.72-0.96c-0.031,0.459,0.768,1.02,1.2,1.681C65.621,94.383,65.576,94.188,65.335,94.188z"/>
	<path fill-rule="evenodd" clip-rule="evenodd" fill="#94AC87" d="M40.133,95.389c0.16,0,0.32,0,0.48,0
		c1.133-1.268,1.942-2.858,3.36-3.841c0,0.08,0,0.16,0,0.24c0.565,0.005,0.707-0.413,1.44-0.24c-0.08-0.555-0.246-1.216-0.72-0.72
		c0.309-0.412,0.496-0.944,1.2-0.96c0.019,0.616,1.119,0.343,0.48,0.96c0.745,0.081,1.147-0.556,1.68,0
		c-0.067,0.388,0.227,0.413,0.24,0.72c0.632,0.072,0.788-0.332,0.72-0.96c0.77,0.43,1.546,0.854,2.16,1.44
		c0.479,0.577-0.419,1.162,0.24,1.68c-0.379-0.663,0.624-1.077,0.72-0.479c-0.579,0.221-0.979,0.621-1.2,1.2
		c0.388,0.067,0.413-0.228,0.72-0.24c-0.119,0.682-1.255,0.346-0.96,1.439c-1.247,0.588-1.847,0.418-2.641-0.479
		c0-0.08,0-0.16,0-0.24c0.214,0.187,0.542,0.258,0.96,0.24c-0.275-0.755,0.376-0.583,0.48-0.96c-0.261-0.06-0.163-0.478-0.48-0.48
		c0.332,1.132-1.079,0.522-1.2,1.2c-0.08,0-0.16,0-0.24,0c0.072-0.633-0.332-0.788-0.96-0.72c-0.041-0.601,0.369-0.752,0.72-0.96
		c0.204,0.044,0.226-0.094,0.24-0.24c0.194-0.046,0.239-0.241,0.48-0.24c-0.138,0.146-0.562,1.139,0,1.2
		c0.672-0.569,0.395-0.532,0-0.72c0.489-0.481,0.64-0.063,0.96,0.239c-0.102-0.501,0.165-0.635,0.24-0.96
		c-0.547-0.329-0.902,0.619-0.96,0c0.281-0.038,0.203-0.438,0.24-0.72c-0.32,0.036-0.725-0.976-0.96-0.24
		c0.512-0.112,0.458,0.343,0.48,0.72c-0.278,0.202-0.643,0.317-1.2,0.24c0-0.24,0-0.479,0-0.72c-0.734,0.384-2.785-0.448-2.16,0.72
		c-0.374-0.591,0.815-0.705,0.72-0.24c-0.275,0.085-0.608,0.423-0.24,0.48c0.395-0.895,0.672-0.037,0,0.24
		c0.447-0.033,0.802-0.158,0.96-0.48c-0.564-0.003,0.088-0.654,0.48-0.479c0,0.16,0,0.319,0,0.479
		c-0.411,0.229-0.483,0.797-0.96,0.96c-0.279-0.201-0.644-0.316-1.2-0.239c0.268,0.372,0.78,0.5,0.72,1.2
		c-0.992,0.608-1.462,1.737-2.16,2.64c-0.058,0.422-0.413,0.547-0.96,0.48c1.07,1.069-1.23,1.849-1.2,3.36
		c-0.575-0.801-0.304-0.963-0.48-2.16c0.39,0.16-0.532-2.335,0.48-1.44c0.16,0,0.32,0,0.48,0c-0.044-0.204,0.093-0.227,0.24-0.24
		c0-0.16,0-0.32,0-0.479c-0.204,0.044-0.227-0.094-0.24-0.24c-0.388-0.067-0.414,0.227-0.72,0.24c-0.214,0.147-0.429,0.29-0.48,0
		c-0.202-0.279-0.317-0.644-0.24-1.2C39.973,95.389,40.053,95.389,40.133,95.389z M42.533,94.908c0.506,1.42,2.202,0.049,0.24,0.24
		c0.798,0.165,0.387-0.496,0.24-0.72c0.186-0.055,0.473-0.007,0.48-0.24C42.274,94.059,43.489,95.038,42.533,94.908z M43.733,93.468
		c0.601,0.041,0.751-0.368,0.96-0.72c-0.325-0.075-0.458-0.342-0.96-0.24C43.733,92.828,43.733,93.148,43.733,93.468z
		 M50.694,93.708c-0.447,0.033-0.802,0.158-0.96,0.48c0.703-0.018,1.354-0.087,1.2-0.96c-0.733-0.174-0.875,0.245-1.44,0.239
		c-0.054-0.186-0.007-0.473-0.24-0.479C49.085,94.321,50.502,93.154,50.694,93.708z"/>
	<path fill-rule="evenodd" clip-rule="evenodd" fill="#94AC87" d="M43.494,94.188c-0.007,0.233-0.294,0.186-0.48,0.24
		c0.146,0.224,0.558,0.885-0.24,0.72c1.961-0.191,0.266,1.18-0.24-0.24C43.489,95.038,42.274,94.059,43.494,94.188z"/>
	<path fill-rule="evenodd" clip-rule="evenodd" fill="#94AC87" d="M68.936,93.708c0.547-0.067,0.902,0.058,0.96,0.48
		c-0.283-0.035-0.544-0.428-0.72,0c0.062,0.47-0.454,0.531,0.48,0.72c-0.854-0.373-0.146,0.815-0.721,0.72
		c0.001-0.24-0.194-0.285-0.24-0.479C68.521,94.414,69.109,94.442,68.936,93.708z"/>
	<path fill-rule="evenodd" clip-rule="evenodd" fill="#94AC87" d="M63.896,93.948c0.037,0.282-0.041,0.682,0.24,0.72
		c-0.043-0.774,0.866-0.439,1.199-0.479c0.241-0.001,0.286,0.194,0.48,0.24c0.489,0.07,0.471,0.649,0.96,0.72
		c-0.413,1.026-1.363,1.517-1.68,2.64c-0.838-0.603-1.328-1.552-2.4-1.92C62.723,94.855,63.405,94.498,63.896,93.948z
		 M65.096,95.628c-0.054,0.188-0.201,0.279-0.48,0.24C64.969,98.553,65.194,96.33,65.096,95.628z"/>
	<path fill-rule="evenodd" clip-rule="evenodd" fill="#94AC87" d="M44.934,96.589c0.215-0.905,0.664-1.577,1.44-1.921
		c-0.095,0.976,1.022,0.739,1.2,1.44c-0.769-0.049-0.392,1.049-1.2,0.96c0.102,0.316,1.283-0.299,1.68-0.479c0.16,0,0.32,0,0.48,0
		c0.701,1.491-1.565,1.904-1.68,3.359c-1.244-0.437-2.397-0.963-2.88-2.16c0.261-0.059,0.163-0.477,0.48-0.479
		c0.615-0.025,1.144-0.136,1.44-0.48c-0.104-0.355-0.307,0.095-0.72,0c0.026-0.453,0.793-0.166,0.72-0.72
		C45.239,95.934,45.411,96.585,44.934,96.589z M46.854,98.509c0.591-0.789-0.492,0.712,0.24,0.72c0.033-0.416,0.78-1.966-0.24-1.92
		C47.5,98.092,46.195,98.002,46.854,98.509z"/>
	<path fill-rule="evenodd" clip-rule="evenodd" fill="#94AC87" d="M54.294,95.628c-1.779,0.332-0.285,0.025-1.44-0.479
		c0.33,0.01,0.527-0.113,0.72-0.24c-0.072,0.39,0.324,0.647,0.48,0.24c-0.146-0.014-0.284-0.036-0.24-0.24
		c0.241-0.001,0.286,0.194,0.48,0.24c0,0.08,0,0.16,0,0.24S54.294,95.548,54.294,95.628z"/>
	<path fill-rule="evenodd" clip-rule="evenodd" fill="#94AC87" d="M54.054,97.309c-0.387,0.333-0.76,0.68-1.2,0.96
		c-0.301-1.038,0.485-0.948-0.48-1.68c0.359,0.004,0.981-0.893,1.2-0.24c-0.447,0.033-0.802,0.157-0.96,0.479
		c0.615-0.025,1.145-0.136,1.44-0.479c-0.242-0.003-0.302-0.421,0-0.48c0.027,0.293,0.072,0.568,0.48,0.48
		c0.146,0.014,0.284,0.036,0.24,0.24C54.22,96.669,53.559,96.834,54.054,97.309z"/>
	<path fill-rule="evenodd" clip-rule="evenodd" fill="#94AC87" d="M64.615,95.868c0.279,0.039,0.427-0.053,0.48-0.24
		C65.194,96.33,64.969,98.553,64.615,95.868z"/>
	<path fill-rule="evenodd" clip-rule="evenodd" fill="#94AC87" d="M61.015,95.628c-0.701,0.818-0.836,2.205-1.92,2.641
		c-0.393-1.049,0.179-2.521,0.72-3.36C60.568,94.795,60.449,95.555,61.015,95.628z"/>
	<path fill-rule="evenodd" clip-rule="evenodd" fill="#94AC87" d="M47.574,96.108c0.27,0.051,0.374,0.267,0.48,0.48
		c-0.397,0.181-1.578,0.796-1.68,0.479C47.182,97.157,46.805,96.06,47.574,96.108z"/>
	<path fill-rule="evenodd" clip-rule="evenodd" fill="#94AC87" d="M44.934,96.589c0.477-0.004,0.305-0.655,0.96-0.48
		c0.074,0.554-0.693,0.267-0.72,0.72c0.413,0.095,0.615-0.355,0.72,0c-0.296,0.345-0.825,0.455-1.44,0.48
		C44.443,96.898,44.632,96.687,44.934,96.589z"/>
	<path fill-rule="evenodd" clip-rule="evenodd" fill="#94AC87" d="M69.896,98.509c-0.373,0.906-0.998,1.562-1.439,2.4
		c-1.366-0.315-1.675-1.687-2.641-2.4c0.278-1.082,0.944-1.775,1.68-2.4C68.468,96.736,69.146,97.657,69.896,98.509z"/>
	<path fill-rule="evenodd" clip-rule="evenodd" fill="#727E6A" d="M60.295,99.229c0.798,0.563,1.711,1.01,2.16,1.92
		C61.767,100.478,60.8,100.084,60.295,99.229z"/>
	<path fill-rule="evenodd" clip-rule="evenodd" fill="#727E6A" d="M61.735,96.828c0.959-0.392,2.263,0.933,2.64,1.921
		c-0.08,0-0.16,0-0.239,0c-0.232-0.568-0.422-1.18-1.44-0.961C63.092,97.396,62.48,96.784,61.735,96.828z"/>
	<path fill-rule="evenodd" clip-rule="evenodd" fill="#94AC87" d="M60.295,99.229c0.144-1.136,0.814-1.745,1.44-2.4
		c0.745-0.044,1.356,0.567,0.96,0.96c1.019-0.219,1.208,0.393,1.44,0.961c-0.456,0.903-0.797,1.924-1.681,2.399
		C62.006,100.238,61.093,99.791,60.295,99.229z"/>
	<path fill-rule="evenodd" clip-rule="evenodd" fill="#94AC87" d="M49.734,97.788c0.194,0.046,0.239,0.241,0.48,0.24
		c-0.006,0.233-0.293,0.187-0.48,0.24c0.256,0.224,0.075,0.886,0.72,0.72c0.073,0.554-0.693,0.267-0.72,0.721
		c-0.797-0.078,0.632-1.047-0.24-1.2c0.025,0.162-0.555,0.798-0.24,0.96c-0.515,0.39-0.735-0.595-1.2,0.479
		C48.48,99.096,48.876,98.211,49.734,97.788z"/>
	<path fill-rule="evenodd" clip-rule="evenodd" fill="#94AC87" d="M48.054,99.948c0.465-1.074,0.686-0.09,1.2-0.479
		c-0.315-0.162,0.265-0.798,0.24-0.96c0.872,0.153-0.557,1.122,0.24,1.2c0.027-0.454,0.793-0.167,0.72-0.721
		c-0.646,0.166-0.464-0.496-0.72-0.72c0.187-0.054,0.474-0.007,0.48-0.24c-0.241,0.001-0.286-0.194-0.48-0.24
		c0.615-0.206,1.452,1.422,2.4,1.681c-0.75,1.011-1.277,2.243-2.16,3.12c-0.971-0.549-1.949-1.092-2.4-2.16
		C47.788,100.322,48.003,100.218,48.054,99.948z"/>
	<path fill-rule="evenodd" clip-rule="evenodd" fill="#727E6A" d="M42.053,100.909c-1.081,1.063-0.5,2.96-0.48,3.6
		C40.712,103.554,41.049,101.387,42.053,100.909z"/>
	<path fill-rule="evenodd" clip-rule="evenodd" fill="#727E6A" d="M41.573,104.749c1.144,0.23,0.105,1.161,0.72,1.92
		c0.817,0.178,0.396-0.884,0.96-0.96c-0.154,0.727-0.375,1.386-1.2,1.44C41.959,106.283,41.743,105.54,41.573,104.749z"/>
	<path fill-rule="evenodd" clip-rule="evenodd" fill="#727E6A" d="M43.494,104.989c-0.241-1.12-1.32-1.4-1.92-2.16
		C42.576,103.032,43.883,104.19,43.494,104.989z"/>
	<path fill-rule="evenodd" clip-rule="evenodd" fill="#94AC87" d="M42.053,100.909c0.15-0.811,0.852-1.068,0.96-1.921
		c1.328,0.352,2.45,0.91,2.88,2.16c-0.453,0.987-0.876,2.004-1.68,2.641c-0.574-0.546-1.403-0.837-1.92-1.44
		c-0.411-0.01-0.622,0.179-0.72,0.48c0.6,0.76,1.68,1.04,1.92,2.16c0.067,0.388-0.227,0.413-0.24,0.72
		c-0.564,0.076-0.143,1.138-0.96,0.96c-0.615-0.759,0.424-1.689-0.72-1.92c0-0.08,0-0.16,0-0.24
		C41.553,103.869,40.972,101.972,42.053,100.909z M43.733,101.389c0.227-0.597-1.374-0.07-0.48,0c0.187,0.054,0.474,0.007,0.48,0.24
		c-0.743,0.313-0.932-0.189-1.44,0.48C44.154,101.95,47.009,100.251,43.733,101.389z"/>
	<path fill-rule="evenodd" clip-rule="evenodd" fill="#94AC87" d="M69.896,103.069c0.723-0.359-0.822-0.43-0.72-0.96
		c0.148-1.212,0.885-1.836,1.44-2.641c0.756-0.116,0.543,0.736,1.439,0.479c0.237,2.188-0.831,2.817-0.239,4.561
		c-0.564,0.549-1.051-1.018-1.681-1.2C69.932,103.354,69.909,103.216,69.896,103.069z"/>
	<path fill-rule="evenodd" clip-rule="evenodd" fill="#727E6A" d="M68.456,107.39c-0.652-0.621-2.224-1.357-1.44-2.641
		c0.08,0,0.16,0,0.24,0C66.493,105.942,68.061,106.584,68.456,107.39z"/>
	<path fill-rule="evenodd" clip-rule="evenodd" fill="#727E6A" d="M70.376,104.989c-0.423,0.068-0.743-1.13-0.96-0.48
		c-0.031-0.354-0.464-0.928-0.721-1.68c0.279,0.201,0.644,0.316,1.2,0.24c0.014,0.146,0.036,0.284,0.24,0.239
		c-0.104,0.296-0.307,0.493-0.72,0.48C69.578,104.347,70.213,104.432,70.376,104.989z"/>
	<path fill-rule="evenodd" clip-rule="evenodd" fill="#94AC87" d="M67.256,102.349c-0.237,0.964-0.998,1.403-1.2,2.4
		c-1.028-0.812-2.041-1.639-2.641-2.88c0.877-0.644,0.897-2.144,2.16-2.4c0.075,1.125,1.43,0.971,1.681,1.92
		c-0.315-0.085-0.378-0.423-0.721-0.479c0.074,0.561,0.47,0.991,0,1.439C66.775,102.349,67.016,102.349,67.256,102.349z"/>
	<path fill-rule="evenodd" clip-rule="evenodd" fill="#727E6A" d="M58.375,104.27c1.149-0.103,0.857,1.381,1.92,0.72
		C59.845,106.084,58.825,104.653,58.375,104.27z"/>
	<path fill-rule="evenodd" clip-rule="evenodd" fill="#94AC87" d="M58.375,104.27c-0.007-0.233-0.294-0.187-0.48-0.24
		c-0.053-1.699-0.284-1.889,0-3.601c0.479-0.515,1.22,0.865,1.44-0.48c1.265,0.336,1.633,1.567,2.641,2.161
		c-0.473,1.047-1.079,1.961-1.681,2.88C59.232,105.65,59.524,104.167,58.375,104.27z"/>
	<path fill-rule="evenodd" clip-rule="evenodd" fill="#727E6A" d="M52.375,104.749c0.796,0.403,1.251,1.148,1.92,1.681
		C53.799,106.674,52.87,105.302,52.375,104.749z"/>
	<path fill-rule="evenodd" clip-rule="evenodd" fill="#727E6A" d="M56.215,105.229c-0.42-1.939-1.22,0.895-1.92,0.96
		c0.443-0.837,0.986-1.574,1.68-2.16c0.356,0.204,0.516,0.604,0.48,1.2C56.375,105.229,56.294,105.229,56.215,105.229z"/>
	<path fill-rule="evenodd" clip-rule="evenodd" fill="#94AC87" d="M52.375,104.749c-0.707-0.173-1.173-0.587-1.44-1.2
		c0.593-1.087,0.938-2.423,1.92-3.12c4.133,2.242,4.357,4.725,4.56,9.121c-0.944-0.576-1.456-1.584-2.4-2.16
		c0.515-0.605,0.642-1.599,1.2-2.16c0.08,0,0.16,0,0.24,0c0.036-0.597-0.124-0.996-0.48-1.2c-0.694,0.586-1.237,1.323-1.68,2.16
		c0,0.08,0,0.16,0,0.24C53.626,105.897,53.171,105.152,52.375,104.749z M52.854,102.829c0.547,0.067,0.902-0.058,0.96-0.48
		c-0.29-0.051-0.147-0.266,0-0.479c-1.139,0.399-0.266-0.893-0.72-0.24C52.133,102.509,53.885,101.907,52.854,102.829z"/>
	<path fill-rule="evenodd" clip-rule="evenodd" fill="#94AC87" d="M42.293,102.109c0.508-0.67,0.697-0.167,1.44-0.48
		c-0.006-0.233-0.293-0.187-0.48-0.24c-0.894-0.07,0.707-0.597,0.48,0C47.009,100.251,44.154,101.95,42.293,102.109z"/>
	<path fill-rule="evenodd" clip-rule="evenodd" fill="#94AC87" d="M53.094,101.629c0.455-0.652-0.419,0.64,0.72,0.24
		c-0.147,0.214-0.29,0.429,0,0.479c-0.058,0.423-0.413,0.548-0.96,0.48C53.885,101.907,52.133,102.509,53.094,101.629z"/>
	<path fill-rule="evenodd" clip-rule="evenodd" fill="#94AC87" d="M67.256,102.349c-0.24,0-0.48,0-0.721,0
		c0.47-0.448,0.074-0.879,0-1.439c0.343,0.057,0.405,0.395,0.721,0.479C67.026,101.836,67.975,102.191,67.256,102.349z"/>
	<path fill-rule="evenodd" clip-rule="evenodd" fill="#727E6A" d="M45.894,104.989c0.63,0.57,1.659,0.742,2.16,1.44
		C47.717,106.516,46.299,105.632,45.894,104.989z"/>
	<path fill-rule="evenodd" clip-rule="evenodd" fill="#94AC87" d="M45.894,104.989c-0.315-0.085-0.377-0.423-0.72-0.48
		c0.529-0.99,1.033-2.007,1.68-2.88c1.326,0.434,1.807,1.714,3.12,2.16c-1.122,0.398-1.115,1.926-1.92,2.641
		C47.552,105.731,46.523,105.56,45.894,104.989z"/>
	<path fill-rule="evenodd" clip-rule="evenodd" fill="#94AC87" d="M67.256,104.749c0.459-0.661,0.54-1.7,1.439-1.92
		c0.257,0.752,0.689,1.325,0.721,1.68c0.217-0.649,0.537,0.549,0.96,0.48c0.162,0.558,0.798,0.643,0.96,1.2
		c-0.427,1.623-0.324,2.3-0.72,3.84c-0.634-0.966-1.715-1.485-2.16-2.64C68.061,106.584,66.493,105.942,67.256,104.749z"/>
	<path fill-rule="evenodd" clip-rule="evenodd" fill="#94AC87" d="M63.175,108.829c-1.322-0.727-1.102-1.522-2.399-2.16
		c0.339-1.5,1.333-2.347,1.92-3.6c1.313,0.526,1.964,1.717,2.64,2.88c-0.719,0.321-0.655,1.425-1.439,1.68c0-0.319,0-0.64,0-0.96
		C63.466,107.662,63.043,108.112,63.175,108.829z"/>
	<path fill-rule="evenodd" clip-rule="evenodd" fill="#94AC87" d="M63.175,108.829c-0.132-0.717,0.291-1.167,0.721-2.16
		c0,0.32,0,0.641,0,0.96C64.009,108.383,63.596,108.61,63.175,108.829z"/>
	<path fill-rule="evenodd" clip-rule="evenodd" fill="#94AC87" d="M53.814,107.39c-0.585,1.015-1.008,2.192-1.92,2.88
		c-1.122-0.878-2.025-1.975-3.12-2.88c0.616-0.824,0.987-1.894,1.44-2.881C51.57,105.313,52.428,106.616,53.814,107.39z"/>
	<path fill-rule="evenodd" clip-rule="evenodd" fill="#727E6A" d="M59.335,106.909c-0.633-0.073-0.619,0.501-0.72,0.96
		c-0.546-0.817-0.272-1.363-0.24-2.4C58.828,105.816,59.438,106.005,59.335,106.909z"/>
	<path fill-rule="evenodd" clip-rule="evenodd" fill="#94AC87" d="M43.494,108.109c0.127-1.232,0.738-1.982,1.44-2.641
		c0.654,0.946,1.882,1.319,2.4,2.4c-0.944,2.121-1.665,3.263-2.16,5.521c-0.16,0-0.32,0-0.48,0c-0.735-0.257-0.395-2.491-1.2-1.92
		c-0.076-0.324-0.342-0.458-0.24-0.96C43.896,110.012,42.581,108.908,43.494,108.109z"/>
	<path fill-rule="evenodd" clip-rule="evenodd" fill="#94AC87" d="M64.615,108.829c0.916-0.284,0.765-1.636,1.681-1.92
		c0.014,0.146,0.035,0.284,0.239,0.24c0.942,0.498,1.432,1.448,2.16,2.16c0.288,0.992,0.921,1.64,1.681,2.16
		c-0.094,1.123-0.146,0.798-0.24,1.92c-1.2,0-2.4,0-3.601,0C65.869,111.818,63.059,110.476,64.615,108.829z M66.296,111.229
		c0.831,0.854-0.318,0.948,0.479,1.44c-0.894,0.07,0.707,0.597,0.48,0c-0.242-0.003-0.302-0.421,0-0.48c0,0.16,0,0.32,0,0.48
		c0.446-0.033,0.802-0.158,0.96-0.48C67.3,112.913,66.645,110.972,66.296,111.229z"/>
	<path fill-rule="evenodd" clip-rule="evenodd" fill="#94AC87" d="M60.055,107.149c1.312,0.975,1.282,1.959,2.641,2.641
		c-0.703,1.057-0.981,2.538-1.92,3.359C58.316,112.054,58.434,108.946,60.055,107.149z"/>
	<path fill-rule="evenodd" clip-rule="evenodd" fill="#94AC87" d="M68.216,112.189c-0.158,0.322-0.514,0.447-0.96,0.48
		c0-0.16,0-0.32,0-0.48c-0.302,0.06-0.242,0.478,0,0.48c0.227,0.597-1.374,0.07-0.48,0c-0.798-0.492,0.352-0.587-0.479-1.44
		C66.645,110.972,67.3,112.913,68.216,112.189z"/>
	<path fill-rule="evenodd" clip-rule="evenodd" fill="#94AC87" d="M54.535,113.39c-0.155-1.205-1.526-1.194-1.68-2.4
		c0.868-0.571,0.875-2.005,1.68-2.64c0.859,0.741,1.73,1.47,2.4,2.4c-0.625,0.735-1.103,1.617-1.44,2.64
		C55.174,113.39,54.854,113.39,54.535,113.39z"/>
	<path fill-rule="evenodd" clip-rule="evenodd" fill="#94AC87" d="M61.976,113.39c0.575-0.864,0.78-2.099,1.92-2.4
		c0.245,1.035,0.989,1.57,1.439,2.4C64.215,113.39,63.095,113.39,61.976,113.39z"/>
	<path fill-rule="evenodd" clip-rule="evenodd" fill="#94AC87" d="M56.695,113.39c0.07-0.644,0.348-1.063,0.96-1.68
		c0.002,0.638-0.091,1.37,0.24,1.68C57.495,113.39,57.095,113.39,56.695,113.39z"/>
	<path fill-rule="evenodd" clip-rule="evenodd" fill="#D1B56C" d="M46.374,28.663c0.887,0.153,2.391-0.311,2.88,0.24
		C48.367,28.75,46.863,29.213,46.374,28.663z"/>
	<path fill-rule="evenodd" clip-rule="evenodd" fill="#D1B56C" d="M61.735,36.103c0.519-0.541,0.818,0.199,1.68,0
		c0,0.16,0,0.32,0,0.48c-0.306,0.361-0.783,0.058-1.68,0C61.735,36.423,61.735,36.263,61.735,36.103z"/>
	<path fill-rule="evenodd" clip-rule="evenodd" fill="#2A2E28" d="M29.572,62.985c-0.181-1.785-0.378-4.227-1.2-6
		c-2.772-1.171-5.885,0.245-7.44-2.64c-1.829-3.393-1.135-9.168-0.24-12.481c0.956,0.46,0.142,1.403,0.48,2.64
		c-0.541,0.179-0.094,1.346-0.24,1.92c0.225,2.015,0.391,4.089,0.96,5.76c-0.291,0.791,0.437,2.37,1.44,2.64
		c0.803,0.553,2.996-0.056,4.081,0.24c4.186,1.144,2.797,8.283,4.081,12.481c0.334,0.932,2.021,2.575,0.72,3.601
		c-1.29-1.236-2.342-2.998-3.36-5.041c-0.855-1.716-1.403-4.782-3.12-5.28c-3.17-0.919-4.485,2.964-7.92,1.2
		c-3.267-4.924-3.01-11.859-3.121-16.321c0.08,0,0.16,0,0.24,0c0.39-0.811-0.32-2.72,0.96-2.64
		c-0.374,6.985,0.164,12.442,2.4,17.521c3.883,0.711,8.033-3.619,10.081,0.96c-0.336,0.275,0.497,1.41,0.72,1.921
		c0.473,0.977,0.393,1.731,0.96,2.16C29.851,64.377,29.677,63.876,29.572,62.985z"/>
	<path fill-rule="evenodd" clip-rule="evenodd" fill="#727E6A" d="M21.171,44.504c0.355,0.383,0.055,1.465-0.24,1.92
		C21.078,45.85,20.63,44.683,21.171,44.504z"/>
	<path fill-rule="evenodd" clip-rule="evenodd" fill="#D1B56C" d="M46.374,44.264c-0.288-0.315-0.093-0.377,0-0.72
		c3.129-0.311,4.326-1.473,7.441-1.44c0.472,0.648,0.143,2.098,0.24,3.121c-1.393,0.357-4.244-0.479-6.24,0
		c-0.592,0.032-1.157,0.036-1.44-0.24C46.374,44.744,46.374,44.504,46.374,44.264z"/>
	<path fill-rule="evenodd" clip-rule="evenodd" fill="#D1B56C" d="M46.374,44.264c0,0.24,0,0.48,0,0.72
		c0.284,0.276,0.849,0.272,1.44,0.24c-0.363,0.356-1.054,0.387-1.68,0.48C46.272,45.282,45.844,44.294,46.374,44.264z"/>
	<path fill-rule="evenodd" clip-rule="evenodd" fill="#2A2E28" d="M68.936,46.424c0.283,3.643-1.315,5.711-3.36,6
		c-4.163,0.588-7.829-7.938-3.84-10.561c0.62,0.983-0.709,1.762-0.721,2.88c2.62,0.626,4.622,0.392,6.721,1.44
		c-0.056-2.476-3.024-5.509-6-4.32c1.676-2.427,5.399-0.488,6.24,1.92C68.595,44.899,68.487,45.279,68.936,46.424z M61.495,45.944
		c-1.394,4.567,6.597,8.21,6.48,1.68c-0.507-0.213-0.709-0.73-1.44-0.72c-0.578,2-4.097,2.306-3.84-0.72
		C62.139,46.261,61.773,46.146,61.495,45.944z M63.896,47.144c0.924,0.189,0.924-1.149,0-0.96
		C63.896,46.504,63.896,46.824,63.896,47.144z"/>
	<path fill-rule="evenodd" clip-rule="evenodd" fill="#94AC87" d="M63.896,46.184c0.924-0.189,0.924,1.149,0,0.96
		C63.896,46.824,63.896,46.504,63.896,46.184z"/>
	<path fill-rule="evenodd" clip-rule="evenodd" fill="#727E6A" d="M73.496,63.945c0.537,1.304,0.495,3.186,0.48,5.041
		C73.063,67.304,73.915,66.76,73.496,63.945z"/>
	<path fill-rule="evenodd" clip-rule="evenodd" fill="#727E6A" d="M36.293,68.506c0,0.24,0,0.48,0,0.72
		c-0.739-0.179-0.461,0.659-1.2,0.48C35.252,69.065,35.814,68.827,36.293,68.506z"/>
	<path fill-rule="evenodd" clip-rule="evenodd" fill="#94AC87" d="M71.096,85.067c0.28-0.04,0.261-0.379,0.24-0.72
		c0.295-0.105,0.493-0.308,0.48-0.721c0.544,0.256,0.091,1.509,0.239,2.16c-0.147-0.332-0.924-0.036-0.96-0.479
		C71.096,85.228,71.096,85.147,71.096,85.067z"/>
	<path fill-rule="evenodd" clip-rule="evenodd" fill="#727E6A" d="M72.296,89.388c-0.197,0.776,0.299,2.076,0,2.16
		c-0.315,0.085-0.377,0.423-0.72,0.48c0.106-0.214,0.211-0.43,0.479-0.48c-0.003-0.477-0.654-0.305-0.479-0.96
		c0.61-0.024,0.566-0.895,0.24-1.2C71.976,89.388,72.136,89.388,72.296,89.388z"/>
	<path fill-rule="evenodd" clip-rule="evenodd" fill="#727E6A" d="M38.933,81.707c-0.814,6.597,0.035,12.619,0.72,18.481
		c-1.712,0.528-3.044,1.437-4.561,2.16c-1.899-0.98-2.823-2.938-4.32-4.32c-0.146-1.472,1.361-3.698,0.72-4.32
		c0.521-1.851,2.111-5.675,2.88-8.16c0.127-0.41-0.306-1.007,0-1.44C35.475,82.546,37.464,82.831,38.933,81.707z"/>
	<path fill-rule="evenodd" clip-rule="evenodd" fill="#94AC87" d="M5.81,104.749c0.211-0.669,0.3-1.46,0.72-1.92
		C6.507,103.686,6.418,104.478,5.81,104.749z"/>
	<path fill-rule="evenodd" clip-rule="evenodd" fill="#727E6A" d="M51.654,113.39c0.249-1.05,1.275-1.134,1.44,0
		C52.614,113.39,52.134,113.39,51.654,113.39z"/>
	<path fill-rule="evenodd" clip-rule="evenodd" fill="#94AC87" d="M66.296,85.787c-0.958-0.989,0.685-1.318,1.199-1.2
		c-0.736,0.563-0.186,0.233,0.24,0.721c-0.597-0.037-0.743,0.377-1.2,0.479C66.455,85.787,66.376,85.787,66.296,85.787z"/>
	<path fill-rule="evenodd" clip-rule="evenodd" fill="#94AC87" d="M63.896,93.708c0.652-0.256,1.124-0.152,1.439,0.48
		c-0.333,0.04-1.242-0.295-1.199,0.479c-0.281-0.038-0.203-0.438-0.24-0.72C63.896,93.868,63.896,93.788,63.896,93.708z"/>
	<path fill-rule="evenodd" clip-rule="evenodd" fill="#94AC87" d="M71.336,95.868c0.601,1.229-0.972,0.124-1.44,0.48
		c0.219-0.422,0.842-0.439,1.2-0.721C71.052,95.832,71.189,95.854,71.336,95.868z"/>
	<path fill-rule="evenodd" clip-rule="evenodd" fill="#2A2E28" d="M38.453,51.944c-1.165,0.045-0.755-1.485-1.92-1.44
		c-2.198,0.718-1.292,2.824-0.96,4.561c-2.653-0.58-1.759-6.248,0.72-5.521c-0.42-2.44-3.501-2.909-4.8-1.92
		C33.911,43.464,38.048,48.426,38.453,51.944z"/>
	<path fill-rule="evenodd" clip-rule="evenodd" fill="#2A2E28" d="M55.015,60.346c-2.166-1.218-3.752-6.897-0.48-8.161
		c-1.828,3.396-0.518,7.634,3.6,7.681c2.085,0.005,3.101-1.06,3.601-2.64c1.068-1.821-0.908-3.514-1.2-4.8
		c1.113,0.327,1.603,1.277,2.16,2.16c0.202,0.598,0.314,1.286,0.24,2.16c-0.338,2.608-2.482,4.194-4.561,4.32
		c0.912,1.162,2.342,0.754,3.84,0.96c0.47-0.155,2.504,0.665,2.641-0.48c1.322,0.897,2.313-1.336,3.36,0
		c-1.363,0.548-3.431,2.187-5.28,2.641c-0.283,0.069-0.898-0.504-1.2-0.479c-0.688,0.053-1.994,1.028-3.12,0.479
		c-0.546-0.266-0.744-1.077-1.201-1.44c-0.031-0.592-0.036-1.156,0.24-1.439c-0.027-0.191-0.793-0.728-0.72-0.24
		C56.354,60.767,55.769,60.471,55.015,60.346z"/>
</g>
</svg>
