<?xml version="1.0" encoding="utf-8"?>
<!-- Generator: Adobe Illustrator 15.1.0, SVG Export Plug-In . SVG Version: 6.00 Build 0)  -->
<!DOCTYPE svg PUBLIC "-//W3C//DTD SVG 1.1//EN" "http://www.w3.org/Graphics/SVG/1.1/DTD/svg11.dtd">
<svg version="1.1" id="Ebene_1" xmlns="http://www.w3.org/2000/svg" xmlns:xlink="http://www.w3.org/1999/xlink" x="0px" y="0px"
	 width="113.39px" height="113.39px" viewBox="0 0 113.39 113.39" enable-background="new 0 0 113.39 113.39" xml:space="preserve">
<path fill-rule="evenodd" clip-rule="evenodd" fill="#232223" d="M43.615,31.069c3.374-0.834,2.794,5.039-0.48,4.08
	C41.063,34.543,41.688,31.546,43.615,31.069z M44.335,33.949c0.549-0.2,0.657-1.475,0.24-1.92c-0.32,0-0.64,0-0.96,0
	C43.231,32.533,43.076,34.346,44.335,33.949z"/>
<path fill-rule="evenodd" clip-rule="evenodd" fill="#904C3C" d="M43.615,32.029c0.32,0,0.64,0,0.96,0
	c0.417,0.445,0.31,1.72-0.24,1.92C43.076,34.346,43.231,32.533,43.615,32.029z"/>
<path fill-rule="evenodd" clip-rule="evenodd" fill="#232223" d="M60.655,38.509c-3.729-1.75-8.739-2.006-13.681-0.96
	C50.361,33.885,58.375,34.92,60.655,38.509z"/>
<path fill-rule="evenodd" clip-rule="evenodd" fill="#945A33" d="M39.535,42.35c-1.143-0.004-4.082,1.519-5.52,0
	C34.832,39.947,39.057,39.902,39.535,42.35z"/>
<path fill-rule="evenodd" clip-rule="evenodd" fill="#232223" d="M71.215,52.429c-0.053,1.433-1.596,0.052-1.92,0.96
	c0.428,1.474,0.655,3.301-0.72,3.84c-0.074-1.206,0.276-2.837-0.48-3.36c-0.969,0.391-1.893,0.827-2.88,1.2
	C66.416,53.275,69.117,51.228,71.215,52.429z"/>
<path fill-rule="evenodd" clip-rule="evenodd" fill="#232223" d="M46.015,56.989c-0.466,1.83-2.674-0.019-4.32,0.72
	C42.101,56.037,44.644,56.631,46.015,56.989z"/>
<path fill-rule="evenodd" clip-rule="evenodd" fill="#232223" d="M51.775,58.189c0.806,1.273,2.176,1.983,2.88,3.36
	c-0.755,0.114-0.938-0.342-1.44-0.48c-2.276,3.483-4.178,7.342-9.84,7.44c-2.042-1.879-4.247-3.594-5.76-6
	c1.292-0.486,3.866-1.228,4.8,0c2.994-1.98,7.654-0.019,9.84-2.16C52.282,59.459,51.14,58.944,51.775,58.189z M42.175,63.709
	c-0.959-0.627-1.58-1.224-3.12-0.72c2.769,2.162,6.502,1.042,9.84,0.96c-1.407,1.525-5.424,0.993-7.44,1.2
	c1.956,4.258,8.593,0.576,8.16-2.16c0.454,0.026,0.167,0.794,0.72,0.72c0.099-0.557,1.524-1.014,0.72-1.68
	C48.385,63.382,44.272,61.811,42.175,63.709z"/>
<path fill-rule="evenodd" clip-rule="evenodd" fill="#99882D" d="M65.455,58.189c1.033,1.242-0.94,4.719,1.439,5.28
	C64.6,64.972,63.904,59.779,65.455,58.189z"/>
<path fill-rule="evenodd" clip-rule="evenodd" fill="#933251" d="M51.055,62.029c0.804,0.666-0.621,1.123-0.72,1.68
	c-0.554,0.074-0.267-0.693-0.72-0.72c0.433,2.736-6.205,6.418-8.16,2.16c2.016-0.207,6.033,0.325,7.44-1.2
	c-3.337,0.082-7.071,1.202-9.84-0.96c1.54-0.504,2.161,0.093,3.12,0.72C44.272,61.811,48.385,63.382,51.055,62.029z"/>
<path fill-rule="evenodd" clip-rule="evenodd" fill="#904C3C" d="M60.655,82.189c2.121,0.618,4.232,2.46,4.319,4.32
	c-1.572-0.027-2.417-0.782-3.84-0.96C60.706,84.699,61.084,83.04,60.655,82.189z"/>
<path fill-rule="evenodd" clip-rule="evenodd" fill="#933251" d="M58.734,113.39c-3.439,0-6.879,0-10.32,0
	c-2.778-5.222-5.388-10.612-6-18c-1.934,6.212,2.483,13.208,5.04,18c-0.96,0-1.92,0-2.88,0c-1.735-3.864-3.608-7.592-4.56-12.24
	c-0.954,4.338,2.126,8.736,3.6,12.24c-6.56,0-13.12,0-19.68,0c0.168-2.936,1.129-4.894,1.68-8.16c0.63-3.733,2.545-6.741,4.8-9.12
	c1.676-1.768,3.611-2.124,5.76-3.6c0.731-0.502,1.435-1.779,2.4-2.16c2.063-0.814,4.708,0.115,6.48-1.68
	c0.083,1.214-0.859,3.379,0.24,4.08c1.003-4.517,2.033-9.007,6.48-10.08c0.841,2.241-0.313,4.457-1.68,5.279
	c-0.853,0.373-0.145-0.814-0.72-0.72c-1.122,1.181-1.128,3.566-0.96,5.28C49.266,101.172,54.752,107.494,58.734,113.39z
	 M41.935,95.149c0.993,0.251,1.209-1.651,0.48-1.68C42.149,93.924,42.108,94.604,41.935,95.149z M40.015,100.43
	c0-1.04,0-2.08,0-3.12c-0.24,0-0.48,0-0.72,0C39.524,98.36,38.704,100.461,40.015,100.43z"/>
<path fill-rule="evenodd" clip-rule="evenodd" fill="#232223" d="M42.415,93.47c0.729,0.028,0.513,1.931-0.48,1.68
	C42.108,94.604,42.149,93.924,42.415,93.47z"/>
<path fill-rule="evenodd" clip-rule="evenodd" fill="#232223" d="M48.415,113.39c-0.32,0-0.64,0-0.96,0
	c-2.557-4.792-6.974-11.788-5.04-18C43.027,102.777,45.636,108.168,48.415,113.39z"/>
<path fill-rule="evenodd" clip-rule="evenodd" fill="#232223" d="M39.295,97.31c0.24,0,0.48,0,0.72,0c0,1.04,0,2.08,0,3.12
	C38.704,100.461,39.524,98.36,39.295,97.31z"/>
<path fill-rule="evenodd" clip-rule="evenodd" fill="#232223" d="M44.575,113.39c-0.32,0-0.64,0-0.96,0
	c-1.474-3.504-4.554-7.902-3.6-12.24C40.967,105.798,42.839,109.525,44.575,113.39z"/>
<path fill-rule="evenodd" clip-rule="evenodd" fill="#BFBBB9" d="M35.215,48.35c-1.025-0.735-1.82-1.7-1.92-3.36
	c0.444-0.036,0.147-0.813,0.48-0.96c0.779,0.139,1.116-0.164,1.68-0.24c0.284,2.598,3.428,2.535,4.56,0.72
	c-0.03,0.431,0.294,0.506,0.24,0.96c0.102,0.502-0.165,0.636-0.24,0.96c-1.141,1.417-1.469,2.189-3.12,2.16
	C35.306,48.561,33.811,46.443,35.215,48.35z"/>
<path fill-rule="evenodd" clip-rule="evenodd" fill="#868584" d="M33.295,44.989c0-0.32,0-0.64,0-0.96
	c0.747-0.292,1.521-0.559,2.64-0.48c-0.077,1.117,0.745,1.335,0.96,2.16c1.763,0.163,2.417-0.783,2.64-2.16
	c0.995-0.034,0.729,1.19,0.96,1.92c-0.08,0-0.16,0-0.24,0c0.054-0.454-0.271-0.529-0.24-0.96c-1.132,1.815-4.276,1.878-4.56-0.72
	c-0.563,0.076-0.901,0.379-1.68,0.24C33.442,44.177,33.739,44.953,33.295,44.989z"/>
<path fill-rule="evenodd" clip-rule="evenodd" fill="#868584" d="M37.135,43.549c0.924-0.189,0.924,1.149,0,0.96
	C37.156,43.854,36.735,44.026,37.135,43.549z"/>
<path fill-rule="evenodd" clip-rule="evenodd" fill="#868584" d="M40.015,46.429c-0.052,2.098-3.045,3.03-4.8,1.92
	c-1.404-1.906,0.091,0.211,1.68,0.24C38.545,48.619,38.874,47.846,40.015,46.429z"/>
<path fill-rule="evenodd" clip-rule="evenodd" fill="#868584" d="M52.735,44.75c0.147-0.214,0.29-0.429,0-0.48
	c0.027-0.613,0.804-0.477,1.44-0.48C54.405,45.027,53.455,45.083,52.735,44.75z"/>
<path fill-rule="evenodd" clip-rule="evenodd" fill="#232223" d="M52.015,39.229c-1.246,1.313-3.515,1.605-4.08,3.6
	c2.167,0.355,7.579,0.795,9.36-0.72c-0.924-1.971-2.284-2.35-4.56-2.64c2.603-2.052,4.434,2.38,6.48,0.96
	c0.174,0.734-0.414,0.706-0.24,1.44c0.437,0.575,0.873-0.871,1.92-0.48c-0.125,0.355-0.354,0.605-0.479,0.96
	c0.387,0.702,1.237-0.383,1.439,0.24c-0.295,0.905-1.248,1.151-2.399,1.2c0.272,5.004-4.607,8.425-9.12,6.96
	C44.291,48.787,45.393,38.887,52.015,39.229z M56.095,44.75c-0.348,0.452-0.353,1.247-0.96,1.44c-0.773-0.053-1.016,0.424-1.92,0.24
	c-0.866-0.494-1.718-1.001-1.68-2.4c-1.514,0.006-3.135-0.095-4.32,0.24c-0.608,2.148,1.062,3.825,2.64,4.56
	c1.772,1.099,3.493,1.09,5.52,0.24c1.582-1.058,3.024-2.255,3.12-4.8c-0.586-0.277-2.072-0.449-2.4-0.24
	C56.095,44.27,56.095,44.509,56.095,44.75z M54.175,43.79c-0.636,0.003-1.413-0.133-1.44,0.48c0.29,0.051,0.147,0.266,0,0.48
	C53.455,45.083,54.405,45.027,54.175,43.79z"/>
<path fill-rule="evenodd" clip-rule="evenodd" fill="#868584" d="M55.135,46.189c-1.553,1.349-3.985-0.246-4.08-1.92
	c-0.925,0.168-2.609,0.022-3.84,0.48c0.034,2.206,1.693,2.787,2.64,4.08c-1.578-0.735-3.249-2.412-2.64-4.56
	c1.185-0.335,2.806-0.234,4.32-0.24c-0.038,1.398,0.814,1.906,1.68,2.4C54.119,46.614,54.362,46.137,55.135,46.189z"/>
<path fill-rule="evenodd" clip-rule="evenodd" fill="#BFBBB9" d="M55.135,46.189c0.607-0.193,0.612-0.988,0.96-1.44
	c0.261-0.06,0.163-0.478,0.48-0.48c0.861-0.142,1.161,0.279,1.68,0.48c-0.24,2.002-2.373,3.384-2.88,4.32
	c-2.027,0.851-3.748,0.859-5.52-0.24c-0.947-1.293-2.606-1.875-2.64-4.08c1.23-0.458,2.915-0.312,3.84-0.48
	C51.15,45.944,53.582,47.539,55.135,46.189z"/>
<path fill-rule="evenodd" clip-rule="evenodd" fill="#868584" d="M56.095,44.75c0-0.24,0-0.48,0-0.72
	c0.329-0.208,1.814-0.037,2.4,0.24c-0.096,2.544-1.538,3.742-3.12,4.8c0.507-0.936,2.64-2.318,2.88-4.32
	c-0.519-0.201-0.819-0.622-1.68-0.48C56.258,44.272,56.355,44.69,56.095,44.75z"/>
<path fill-rule="evenodd" clip-rule="evenodd" fill="#232223" d="M47.695,79.069c-6.277-0.88-7.716-7.094-10.8-12.24
	c-1.735-2.896-4.653-6.748-4.8-10.08c-0.178-4.055,2.549-8.124,0.48-12.48c-0.402-0.805-2.894-0.778-2.16-1.92
	c-0.106-1.437,0.614-0.556,1.68-0.72c-1.783-2.625-0.001-4.713,0.24-7.2c0.15-1.546-0.704-2.378-0.48-3.84
	c0.221-1.444,1.196-3.519,1.68-4.56c2.203-4.743,7.309-9.701,14.16-9.6c0.692,0.01,1.398,0.498,2.16,0.48
	c1.218-0.028,2.534-0.671,3.6-0.72c8.142-0.375,16.241,4.201,19.44,10.8c3.271,6.745,3.083,17.115,0.48,23.76
	c1.529,2.619,0.83,6.525-0.72,8.64c0.998,3.082,3.575,4.584,3.359,8.88c0,1.04,0,2.08,0,3.12c-1.46,6.612-8.121,10.245-15.6,8.64
	c2.009,2.471,5.487,3.474,6,7.44c12.197,4.608,22.541,11.784,24.479,25.92c-10.72,0-21.439,0-32.16,0
	c-3.982-5.896-9.469-12.218-10.32-20.88c-0.168-1.714-0.161-4.1,0.96-5.28c0.575-0.095-0.133,1.093,0.72,0.72
	c1.367-0.822,2.521-3.038,1.68-5.279c-4.447,1.073-5.477,5.563-6.48,10.08c-1.1-0.701-0.158-2.866-0.24-4.08
	c-1.772,1.795-4.417,0.865-6.48,1.68c-0.965,0.381-1.669,1.658-2.4,2.16c-2.149,1.476-4.084,1.832-5.76,3.6
	c-2.255,2.379-4.169,5.387-4.8,9.12c-0.551,3.267-1.512,5.225-1.68,8.16c-0.32,0-0.64,0-0.96,0c0-0.8,0-1.6,0-2.4
	c1.812-3.52,1.611-7.605,3.12-10.8c0.876-1.854,4.361-5.766,6.24-6.96c0.904-0.575,1.997-0.629,2.88-1.2
	c1.262-0.815,2.157-2.147,3.6-2.64c0.887-0.153,2.391,0.311,2.88-0.24c5.142-0.858,5.328-6.672,10.56-7.439
	c-0.317-0.918,0.233-1.995-0.48-2.881c-0.733-0.173-0.875,0.246-1.44,0.24C49.455,79.069,48.575,79.069,47.695,79.069z
	 M63.535,42.589c-0.475-2.734-1.999-6.595-3.36-8.88c-3.248-5.452-7.204-9.005-12.72-12.48c-7.813,1.193-12.793,7.173-14.64,15.12
	c2.718-0.826,5.919-0.462,6.48,1.44c-2.135-0.804-5.385-0.617-6.72,0.72c0.057,0.983,0.728,1.352,0.72,2.4
	c3.626-2.255,8.247-0.854,7.92,4.32c4.17,3.411-1.462,8.874-3.6,11.28c0.094,1.506,2.043,1.157,2.64,2.16
	c-1.45,0.866-3.755-0.636-3.84-1.919c-0.148-2.25,7.199-6.189,5.28-10.8c-0.871,2.798-3.878,5.112-7.2,3.36
	c0.166,2.107-1.463,4.84-1.2,7.44c0.448,4.424,3.476,7.293,5.52,11.04c2.902,5.322,3.065,9.591,8.4,10.32
	c2.938,0.402,5.618-0.716,7.2-1.92c-2.82,2.945,0.257,11.151-3.12,13.92c-0.556-0.533,0.082-0.936,0-1.68
	c-1.956-0.369-2.156,3.176-1.68,4.8c5.887,0.366,12.817-1.357,13.92-5.76c-0.559-0.401-1.293-0.627-2.16-0.72
	c-0.688,0.372,0.5,1.119-0.24,1.439c-2.464-5.414-2.14-11.789-2.4-18c-1.14-0.149-0.878,2.007-1.919,1.2
	c1.375-2.233,2.859-6.998,5.04-10.08c0.52-0.733,1.49-1.098,1.92-1.68c0.713-0.966,0.528-2.511,1.921-2.4
	c1.331,0.106,1.416,1.758,1.68,2.88c1.331,0.481,2.361-0.211,3.6-0.479c2.345-2.848,3.229-7.364,0-8.88
	c-1.952-0.917-3.854,0.637-6.479,1.2C63.014,49.3,64.014,45.351,63.535,42.589z M34.015,42.35c1.438,1.519,4.377-0.004,5.52,0
	C39.057,39.902,34.832,39.947,34.015,42.35z M40.255,45.469c0.08,0,0.16,0,0.24,0c-0.23-0.729,0.035-1.954-0.96-1.92
	c-0.223,1.377-0.877,2.323-2.64,2.16c-0.215-0.825-1.037-1.043-0.96-2.16c-1.119-0.079-1.893,0.188-2.64,0.48c0,0.32,0,0.64,0,0.96
	c0.1,1.66,0.895,2.625,1.92,3.36c1.755,1.109,4.748,0.177,4.8-1.92C40.09,46.105,40.356,45.971,40.255,45.469z M37.135,44.509
	c0.924,0.189,0.924-1.149,0-0.96C36.735,44.026,37.156,43.854,37.135,44.509z M66.895,63.47c-2.38-0.562-0.406-4.038-1.439-5.28
	C63.904,59.779,64.6,64.972,66.895,63.47z M61.135,85.55c1.423,0.178,2.268,0.933,3.84,0.96c-0.087-1.86-2.198-3.702-4.319-4.32
	C61.084,83.04,60.706,84.699,61.135,85.55z"/>
<path fill-rule="evenodd" clip-rule="evenodd" fill="#BFBBB9" d="M76.015,68.27c0.398,0.492,0.398,2.628,0,3.12
	C76.015,70.35,76.015,69.31,76.015,68.27z"/>
<path fill-rule="evenodd" clip-rule="evenodd" fill="#868584" d="M47.695,79.069c0.88,0,1.76,0,2.64,0
	C49.999,79.467,48.031,79.467,47.695,79.069z"/>
<path fill-rule="evenodd" clip-rule="evenodd" fill="#BFBBB9" d="M38.815,89.39c0.489-0.551,1.993-0.087,2.88-0.24
	C41.206,89.7,39.702,89.236,38.815,89.39z"/>
<path fill-rule="evenodd" clip-rule="evenodd" fill="#BFBBB9" d="M22.975,110.989c0,0.801,0,1.601,0,2.4
	C22.578,113.131,22.578,111.248,22.975,110.989z"/>
<path fill-rule="evenodd" clip-rule="evenodd" fill="#945A33" d="M64.495,51.949c2.625-0.563,4.527-2.117,6.479-1.2
	c3.229,1.517,2.345,6.032,0,8.88c-1.238,0.269-2.269,0.961-3.6,0.479c-0.264-1.122-0.349-2.774-1.68-2.88
	c-1.393-0.111-1.208,1.435-1.921,2.4c-0.43,0.582-1.4,0.946-1.92,1.68c-2.181,3.082-3.664,7.847-5.04,10.08
	c1.041,0.807,0.779-1.35,1.919-1.2c0.261,6.211-0.063,12.586,2.4,18c0.74-0.32-0.447-1.067,0.24-1.439
	c0.867,0.093,1.602,0.318,2.16,0.72c-1.104,4.402-8.033,6.126-13.92,5.76c-0.476-1.624-0.275-5.169,1.68-4.8
	c0.082,0.744-0.556,1.146,0,1.68c3.377-2.769,0.3-10.975,3.12-13.92c-1.583,1.204-4.263,2.322-7.2,1.92
	c-5.335-0.729-5.498-4.998-8.4-10.32c-2.044-3.746-5.072-6.615-5.52-11.04c-0.264-2.6,1.366-5.333,1.2-7.44
	c3.322,1.752,6.33-0.562,7.2-3.36c1.918,4.611-5.428,8.55-5.28,10.8c0.085,1.284,2.391,2.786,3.84,1.919
	c-0.597-1.003-2.546-0.653-2.64-2.16c2.138-2.406,7.771-7.869,3.6-11.28c0.327-5.175-4.294-6.575-7.92-4.32
	c0.008-1.048-0.663-1.417-0.72-2.4c1.335-1.336,4.585-1.523,6.72-0.72c-0.561-1.902-3.762-2.267-6.48-1.44
	c1.847-7.947,6.827-13.926,14.64-15.12c5.517,3.475,9.473,7.028,12.72,12.48c1.361,2.285,2.886,6.146,3.36,8.88
	C64.014,45.351,63.014,49.3,64.495,51.949z M43.135,35.149c3.274,0.958,3.854-4.915,0.48-4.08
	C41.688,31.546,41.063,34.543,43.135,35.149z M46.975,37.549c4.941-1.046,9.951-0.79,13.681,0.96
	C58.375,34.92,50.361,33.885,46.975,37.549z M50.335,50.75c4.513,1.465,9.393-1.956,9.12-6.96c1.151-0.049,2.104-0.295,2.399-1.2
	c-0.202-0.623-1.053,0.462-1.439-0.24c0.125-0.355,0.354-0.605,0.479-0.96c-1.047-0.391-1.483,1.055-1.92,0.48
	c-0.174-0.734,0.414-0.706,0.24-1.44c-2.046,1.42-3.877-3.012-6.48-0.96c2.276,0.291,3.636,0.669,4.56,2.64
	c-1.782,1.516-7.194,1.075-9.36,0.72c0.565-1.995,2.834-2.287,4.08-3.6C45.393,38.887,44.291,48.787,50.335,50.75z M65.215,55.069
	c0.987-0.373,1.911-0.809,2.88-1.2c0.757,0.523,0.406,2.154,0.48,3.36c1.375-0.539,1.147-2.366,0.72-3.84
	c0.324-0.909,1.867,0.473,1.92-0.96C69.117,51.228,66.416,53.275,65.215,55.069z M41.695,57.709c1.646-0.739,3.854,1.11,4.32-0.72
	C44.644,56.631,42.101,56.037,41.695,57.709z M52.255,60.35c-2.187,2.142-6.846,0.18-9.84,2.16c-0.934-1.228-3.508-0.486-4.8,0
	c1.513,2.406,3.719,4.121,5.76,6c5.662-0.099,7.563-3.957,9.84-7.44c0.502,0.139,0.685,0.595,1.44,0.48
	c-0.704-1.377-2.074-2.087-2.88-3.36C51.14,58.944,52.282,59.459,52.255,60.35z"/>
</svg>
