<?xml version="1.0" encoding="utf-8"?>
<!-- Generator: Adobe Illustrator 15.1.0, SVG Export Plug-In . SVG Version: 6.00 Build 0)  -->
<!DOCTYPE svg PUBLIC "-//W3C//DTD SVG 1.1//EN" "http://www.w3.org/Graphics/SVG/1.1/DTD/svg11.dtd">
<svg version="1.1" id="Ebene_1" xmlns="http://www.w3.org/2000/svg" xmlns:xlink="http://www.w3.org/1999/xlink" x="0px" y="0px"
	 width="113.39px" height="113.39px" viewBox="0 0 113.39 113.39" enable-background="new 0 0 113.39 113.39" xml:space="preserve">
<path fill-rule="evenodd" clip-rule="evenodd" fill="#2A2321" d="M39.895,23.629c2.69,0.589,3.605,2.955,5.76,4.08
	C43.422,27.621,41.029,25.616,39.895,23.629z"/>
<path fill-rule="evenodd" clip-rule="evenodd" fill="#2A2321" d="M41.335,26.989c1.415,0.986,3.065,1.734,5.04,2.16
	C44.433,30.153,42.144,28.81,41.335,26.989z"/>
<path fill-rule="evenodd" clip-rule="evenodd" fill="#2A2321" d="M51.895,41.389c1.109,1.451,3.723,1.398,4.32,3.36
	c-3.538-0.521-6.581-1.291-12-0.96C46.066,40.878,49.104,42.055,51.895,41.389z"/>
<path fill-rule="evenodd" clip-rule="evenodd" fill="#2A2321" d="M50.455,49.549c0.449-0.351,0.283-1.317,1.2-1.2
	c-0.018,0.418,0.053,0.747,0.24,0.96c0.693-0.107,0.567-1.032,1.2-1.2c1.149-0.029,1.44,0.8,1.44,1.92
	c-0.281,1.079-1.134,1.586-2.4,1.68c-0.955-0.245-1.306-1.095-1.68-1.92C50.455,49.709,50.455,49.629,50.455,49.549z"/>
<path fill-rule="evenodd" clip-rule="evenodd" fill="#2A2321" d="M37.495,50.75c0.028-0.691-0.131-1.571,0.24-1.92
	c0.722-0.242,0.425,0.535,0.48,0.96c0.755,0.035,0.825-0.615,0.96-1.2c1.988,0.261,1.608,2.638,0.24,3.36c-0.08,0-0.16,0-0.24,0
	c-0.876-0.003-1.078-0.682-1.68-0.96C37.495,50.909,37.495,50.829,37.495,50.75z"/>
<path fill-rule="evenodd" clip-rule="evenodd" fill="#995A2D" d="M72.055,54.349c3.297,5.134-5.281,17.993-10.08,12.96
	c-1.49-4.623-0.717-10.572,3.36-13.2C67.329,53.853,69.845,53.194,72.055,54.349z M63.655,61.789
	c0.828-1.731,1.316-3.803,3.359-4.32c1.513,0.716,0.639,2.541,0.48,4.081c1.602-0.656,1.929-3.991,0.48-5.041
	c1.086-0.75,2.512-0.099,2.88-1.2C67.355,54.152,62.201,58.737,63.655,61.789z"/>
<path fill-rule="evenodd" clip-rule="evenodd" fill="#A33C46" d="M35.815,54.829c0.592-0.031,1.156-0.036,1.44,0.24
	c-0.58,0.3-0.55,1.21-1.44,1.2C35.815,55.79,35.815,55.309,35.815,54.829z"/>
<path fill-rule="evenodd" clip-rule="evenodd" fill="#995A2D" d="M51.415,81.47c-2.081-0.717-2.197-3.288-2.64-5.04
	c-3.249,0.116-4.999,1.141-7.68-0.48c0-0.56,0-1.12,0-1.68c0.884,0.79,3.248,0.512,4.56,0c4.042-1.578,9.095-6.455,8.64-9.36
	c-3.059,4.227-8.326,10.982-14.88,7.92c-0.306-1.899,1.451-0.415,1.44-2.16c1.375,0.31,4.153,0.911,5.04-0.96
	c0.146,0.415,1.138-0.018,1.2,0.48c2.269-2.699,4.188-4.626,6.96-6.48c0.193,0.127,0.39,0.251,0.72,0.24
	c1.723,2.424-0.332,6.157-0.96,8.641C52.91,76.169,52.929,79.199,51.415,81.47z"/>
<path fill-rule="evenodd" clip-rule="evenodd" fill="#995A2D" d="M52.135,93.949c-1.169-0.792-1.193-2.455-0.96-4.08
	c1.48-0.76,2.9-1.579,4.08-2.64c0.95-2.49,2.761-4.12,3.12-7.2c1.429-0.855,0.656-3.626,1.92-4.08
	c-0.96,3.004,1.039,6.469,0.48,9.12c-0.56,2.657-3.771,2.738-6,4.08C54.45,91.305,54.931,94.265,52.135,93.949z"/>
<path fill-rule="evenodd" clip-rule="evenodd" fill="#2A2321" d="M52.375,98.029c0.477-0.163,0.549-0.73,0.96-0.96
	c0.744-0.024,1.146,0.294,1.68,0.48c-0.174,0.733,0.414,0.706,0.24,1.439c-0.648,0.712-0.927,1.793-2.4,1.681c-0.08,0-0.16,0-0.24,0
	c-0.341-0.707-0.725-1.515-0.24-2.4C52.375,98.189,52.375,98.109,52.375,98.029z M53.095,99.47c1.339,0.574,1.698-1.555,0.48-1.44
	C53.437,98.531,52.98,98.715,53.095,99.47z"/>
<path fill-rule="evenodd" clip-rule="evenodd" fill="#2A2321" d="M76.615,103.789c0.407-1.272,0.67-2.689,1.92-3.119
	c0.733,1.522-1.353,2.116-0.96,4.08c0,0.079,0,0.159,0,0.239c-0.458,1.142-0.51,2.69-0.48,4.32c-0.032,0.447-0.157,0.802-0.479,0.96
	c-1.011-0.029-0.238-1.842-0.48-2.64C76.264,106.318,76.486,105.101,76.615,103.789z"/>
<path fill-rule="evenodd" clip-rule="evenodd" fill="#7A7876" d="M49.255,101.39c-0.002,0.638,0.091,1.37-0.24,1.68
	c-0.726-0.363,0.199-1.053,0-1.68C49.095,101.39,49.175,101.39,49.255,101.39z"/>
<path fill-rule="evenodd" clip-rule="evenodd" fill="#2A2321" d="M34.135,104.029c0.229-0.172,0.198-1.394,1.2-1.439
	c0.013,0.307,0.308,0.332,0.24,0.72c-0.939,2.196-0.87,3.97-1.2,6.479c-0.549,0.411-0.088,1.832-0.24,2.641
	c0.044,0.204-0.093,0.227-0.24,0.24c-1.036-0.165-0.221-2.18-0.48-3.12C33.62,107.675,33.772,105.746,34.135,104.029z"/>
<path fill-rule="evenodd" clip-rule="evenodd" fill="#2A2321" d="M51.655,107.39c-1.167-0.713-0.747-3.02,0.48-3.36
	c2.242,0.079,1.357,3,0,3.36C51.975,107.39,51.815,107.39,51.655,107.39z M51.895,106.43c0.742,0.022,0.715-0.725,0.72-1.44
	c-0.24,0-0.48,0-0.72,0C51.895,105.47,51.895,105.949,51.895,106.43z"/>
<path fill-rule="evenodd" clip-rule="evenodd" fill="#7A7876" d="M51.895,104.989c0.24,0,0.48,0,0.72,0
	c-0.005,0.716,0.022,1.463-0.72,1.44C51.895,105.949,51.895,105.47,51.895,104.989z"/>
<path fill-rule="evenodd" clip-rule="evenodd" fill="#7A7876" d="M34.375,109.789c-0.152,0.809,0.309,2.229-0.24,2.641
	C34.287,111.621,33.826,110.2,34.375,109.789z"/>
<path fill-rule="evenodd" clip-rule="evenodd" fill="#7A7876" d="M92.936,111.71c0.398,0.049,0.964,1.781,0,1.68
	c-0.267-0.454-0.307-1.134-0.48-1.68c0.188,0.053,0.279,0.2,0.24,0.479C92.882,112.137,92.975,111.988,92.936,111.71z"/>
<path fill-rule="evenodd" clip-rule="evenodd" fill="#7A7876" d="M87.655,100.67c0.9,0.779,1.339,2.021,1.68,3.359
	C88.719,102.967,88.242,101.763,87.655,100.67z"/>
<path fill-rule="evenodd" clip-rule="evenodd" fill="#7A7876" d="M65.575,88.43c0.916,0.684,1.597,1.603,2.64,2.16
	C66.8,90.404,66.401,89.203,65.575,88.43z"/>
<path fill-rule="evenodd" clip-rule="evenodd" fill="#7A7876" d="M59.815,92.989c1.301-1.179,2.739-2.22,4.08-3.359
	c-0.893,1.508-2.61,2.189-3.841,3.359C59.975,92.989,59.896,92.989,59.815,92.989z"/>
<path fill-rule="evenodd" clip-rule="evenodd" fill="#7A7876" d="M58.615,92.51c0.01,0.33-0.113,0.526-0.24,0.72
	c0.099,0.409,0.31-0.051,0.72,0c-0.692,0.428-1.282,0.958-2.399,0.96c0.01-1.11,1.515-0.725,1.68-1.68
	C58.455,92.51,58.535,92.51,58.615,92.51z"/>
<path fill-rule="evenodd" clip-rule="evenodd" fill="#7A7876" d="M58.855,92.51c2.009-1.671,4.328-3.031,5.279-5.761
	c0.729,1.055-1.081,2.251-1.92,3.12C61.203,90.919,60.138,92.212,58.855,92.51z"/>
<path fill-rule="evenodd" clip-rule="evenodd" fill="#7A7876" d="M62.455,81.47c0.775,0.585,0.873,1.847,0.96,3.12
	C62.93,83.715,62.989,82.296,62.455,81.47z"/>
<path fill-rule="evenodd" clip-rule="evenodd" fill="#BDB2B1" d="M60.775,87.229c2.084-1.376,0.102-3.945,0.96-6.48
	c0.346,0.135,0.585,0.375,0.72,0.721c0.534,0.826,0.475,2.245,0.96,3.12c0.191,0.768,0.709,1.211,0.72,2.159
	c-0.951,2.729-3.271,4.09-5.279,5.761c-0.08,0-0.16,0-0.24,0s-0.16,0-0.24,0c-0.165,0.955-1.67,0.569-1.68,1.68
	c1.117-0.002,1.707-0.532,2.399-0.96c0.308-0.014,0.333-0.308,0.721-0.24c0.08,0,0.159,0,0.239,0c1.23-1.17,2.948-1.852,3.841-3.359
	c0.729-0.23,0.485-1.435,1.68-1.2c0.826,0.773,1.225,1.975,2.64,2.16c3.451,0.984,7.2,3.69,11.28,4.8
	c4.047,1.1,7.007,1.813,8.16,5.28c0.587,1.093,1.063,2.297,1.68,3.359c0.925,2.153,2.297,4.765,3.12,7.681
	c0.174,0.546,0.214,1.226,0.48,1.68c-22.32,0-44.641,0-66.96,0c0.448-3.313,0.882-6.638,2.4-8.88c0.756-0.524,0.747-1.813,1.44-2.4
	c0-0.08,0-0.16,0-0.24c0.78-0.659,1.334-1.546,2.16-2.159c3.708-1.733,7.616-3.264,12-4.32c2.982-0.458,3.917-2.963,5.04-5.28
	c1.689-0.048,0.572,1.007,0.72,1.92c-0.93,1.537,1.572,2.575,1.44,3.36c-1.036,2.06-1.167,4.053-1.92,6c-0.08,0-0.16,0-0.24,0
	c0.199,0.627-0.726,1.316,0,1.68c0,0.08,0,0.16,0,0.24c-0.457,0.865-0.388,3.261,0.24,3.84c0.85,2.029,1.128,1.13,0.96-0.479
	c-0.145-1.505,0.182-2.539,0.24-3.841c-0.086-1.205,0.147-2.092,0.48-2.88c0.527-0.833,0.642-2.078,0.96-3.12
	c0.198-1.962,2.095-2.225,3.6-2.88c0.194-0.045,0.239-0.24,0.48-0.239c0-1.12,0-2.24,0-3.36c0-0.16,0-0.32,0-0.48
	c0.755-0.364,1.44-0.8,2.4-0.96C59.512,88.687,60.037,87.852,60.775,87.229z M55.015,97.55c-0.423-1.126-2.632-0.81-2.64,0.479
	c0,0.08,0,0.16,0,0.24c-0.861,0.482-0.432,2.073,0.24,2.4c0.08,0,0.16,0,0.24,0c0.974,0.564,2.325-0.549,2.4-1.681
	C55.429,98.256,54.841,98.283,55.015,97.55z M78.535,100.67c-1.25,0.43-1.513,1.847-1.92,3.119c-0.45,0.836-0.827,3.005-0.48,3.841
	c0.242,0.798-0.53,2.61,0.48,2.64c0.322-0.158,0.447-0.513,0.479-0.96c0.381-1.22,0.352-2.849,0.48-4.32c0-0.08,0-0.16,0-0.239
	C77.534,103.232,79.706,101.763,78.535,100.67z M35.575,103.31c0.08,0,0.16,0,0.24,0c0.013-2.174-2.37,0.093-1.68,0.72
	c-0.363,1.717-0.515,3.646-0.72,5.521c-0.42,0.516-0.534,4.039,0.48,3.12c0.146-0.014,0.284-0.036,0.24-0.24
	c0.549-0.411,0.088-1.832,0.24-2.641C34.706,107.279,34.636,105.506,35.575,103.31z M52.135,107.39
	c1.099,0.283,2.627-2.787,0.72-3.601c-1.77-0.089-2.209,1.151-2.16,2.881c0.49,0.07,0.471,0.649,0.96,0.72
	C51.815,107.39,51.975,107.39,52.135,107.39z"/>
<path fill-rule="evenodd" clip-rule="evenodd" fill="#7A7876" d="M58.375,88.909c0.873-0.486,1.461-1.259,2.4-1.68
	C60.037,87.852,59.512,88.687,58.375,88.909z"/>
<path fill-rule="evenodd" clip-rule="evenodd" fill="#7A7876" d="M55.975,90.35c0,1.12,0,2.24,0,3.36
	c-0.241-0.001-0.286,0.194-0.48,0.239c0.491-0.788,0.129-2.43,0.24-3.6C55.815,90.35,55.895,90.35,55.975,90.35z"/>
<path fill-rule="evenodd" clip-rule="evenodd" fill="#7A7876" d="M51.895,96.829c-0.318,1.042-0.433,2.287-0.96,3.12
	C51.106,98.761,51.306,97.6,51.895,96.829z"/>
<path fill-rule="evenodd" clip-rule="evenodd" fill="#7A7876" d="M50.455,102.829c-0.059,1.302-0.385,2.336-0.24,3.841
	C49.658,105.704,50.031,103.611,50.455,102.829z"/>
<path fill-rule="evenodd" clip-rule="evenodd" fill="#7A7876" d="M49.015,103.31c-0.021,1.381-0.052,2.771,0.24,3.84
	C48.627,106.57,48.558,104.175,49.015,103.31z"/>
<path fill-rule="evenodd" clip-rule="evenodd" fill="#7A7876" d="M51.175,95.39c0.132-0.785-2.37-1.823-1.44-3.36
	C49.303,93.957,51.597,94.251,51.175,95.39z"/>
<path fill-rule="evenodd" clip-rule="evenodd" fill="#7A7876" d="M49.015,90.109c-1.123,2.317-2.058,4.822-5.04,5.28
	c1.117-0.991,2.475-0.969,3.36-2.16C48.061,92.253,47.587,90.586,49.015,90.109z"/>
<path fill-rule="evenodd" clip-rule="evenodd" fill="#7A7876" d="M29.815,101.869c0.561-0.879,1.102-1.778,2.16-2.159
	C31.149,100.323,30.595,101.21,29.815,101.869z"/>
<path fill-rule="evenodd" clip-rule="evenodd" fill="#7A7876" d="M28.375,104.51c0.421-0.858,0.551-2.01,1.44-2.4
	C29.122,102.696,29.131,103.985,28.375,104.51z"/>
<path fill-rule="evenodd" clip-rule="evenodd" fill="#995A2D" d="M40.855,37.069c0.57,0.15-0.037,1.477,0.48,1.68
	c1.063,0.343,0.628-0.812,1.44-0.72c0.02,0.38-0.115,0.916,0.24,0.96c0.702-0.098,0.779-0.821,1.2-1.2
	c6.826-1.53,12.272,4.23,16.32,8.4c0.584,7.171-2.278,11.782-3.84,17.76c-2.604-2.189-6.745-2.642-10.56-2.16
	c-0.27-1.011-0.417-2.143-1.44-2.399c-0.244,0.155-0.248,0.552-0.72,0.479c0.101,0.779,1.068,0.691,0.96,1.681
	c-2.701,2.631-7.435,5.614-11.76,5.04c-0.42-1.999,0.481-4.652,1.92-6.961c1.942-3.116,6.678-5.069,6.96-8.879
	c0.172-2.325-1.781-4.616-4.8-4.08c-1.326,0.235-1.347,1.485-3.12,1.68c0.934-3.606,4.571-1.841,7.44-3.12
	c-0.723-2.855-4.95-1.24-7.44-0.72c0.724-2.557,1.96-4.6,3.6-6.24c0.856-0.056,0.246,1.354,1.2,1.2
	C40.019,39.113,39.949,37.603,40.855,37.069z M44.215,43.789c5.419-0.331,8.462,0.438,12,0.96c-0.597-1.962-3.21-1.909-4.32-3.36
	C49.104,42.055,46.066,40.878,44.215,43.789z M46.135,52.909c2.345,7.101,13.944,1.717,10.08-5.04
	c-0.734-1.284-1.974-1.453-3.6-2.64C48.53,44.913,44.527,48.039,46.135,52.909z"/>
<path fill-rule="evenodd" clip-rule="evenodd" fill="#7A7876" d="M47.575,47.869c1.192-2,4.816-2.213,6.48-0.48
	C51.973,46.05,49.171,46.204,47.575,47.869z"/>
<path fill-rule="evenodd" clip-rule="evenodd" fill="#7A7876" d="M54.775,53.389c-1.86,3.283-8.977,1.395-7.92-2.88
	C46.168,54.183,52.241,56.313,54.775,53.389z"/>
<path fill-rule="evenodd" clip-rule="evenodd" fill="#7A7876" d="M55.255,49.069c0.661,0.567,0.661,2.553,0,3.12
	C55.545,51.171,55.545,50.087,55.255,49.069z"/>
<path fill-rule="evenodd" clip-rule="evenodd" fill="#BDB2B1" d="M54.055,47.389c0.661,0.299,1.164,0.756,1.2,1.68
	c0.291,1.018,0.291,2.102,0,3.12c0.206,0.766-0.377,0.742-0.48,1.2c-2.534,2.923-8.607,0.794-7.92-2.88
	c-0.187-1.307,0.369-1.872,0.72-2.64C49.171,46.204,51.973,46.05,54.055,47.389z M54.535,50.029c0.598-1.007-0.349-2.525-1.92-2.16
	c-0.033,0.447-0.158,0.802-0.48,0.96c-0.494-0.066-0.226-0.894-0.72-0.96c-0.295,0.438-1.456,1.246-0.96,1.68c0,0.08,0,0.16,0,0.24
	c-0.396,0.491,1.091,2.414,1.68,1.92C53.401,51.615,54.254,51.108,54.535,50.029z"/>
<path fill-rule="evenodd" clip-rule="evenodd" fill="#7A7876" d="M35.575,49.069c0.235-1.396,2.95-2.218,4.08-1.2
	c-1.402-0.5-3.472-0.082-3.84,1.2C35.735,49.069,35.655,49.069,35.575,49.069z"/>
<path fill-rule="evenodd" clip-rule="evenodd" fill="#BDB2B1" d="M35.335,51.949c-0.433-0.667-0.375-2.503,0.24-2.88
	c0.08,0,0.16,0,0.24,0c0.368-1.282,2.438-1.7,3.84-1.2c0.08,0,0.16,0,0.24,0c0.236,0.325,0.64,0.48,0.96,0.72
	c-1.238,0.21-4.292-0.737-3.36,2.16c0,0.08,0,0.16,0,0.24c-0.521,0.306,1.348,1.507,1.68,0.96c0.08,0,0.16,0,0.24,0
	c0.208,0.709,0.359-0.557,0.96-0.24c-0.443,0.837-1.232,1.328-1.68,2.16C37.171,53.633,36.122,52.922,35.335,51.949z"/>
<path fill-rule="evenodd" clip-rule="evenodd" fill="#7A7876" d="M35.335,51.949c0.787,0.973,1.836,1.684,3.36,1.92
	c0.448-0.832,1.237-1.323,1.68-2.16c-0.601-0.317-0.751,0.949-0.96,0.24c1.368-0.722,1.748-3.099-0.24-3.36
	c-0.135,0.584-0.205,1.234-0.96,1.2c-0.055-0.425,0.242-1.202-0.48-0.96c-0.371,0.349-0.211,1.229-0.24,1.92
	c-0.932-2.897,2.122-1.95,3.36-2.16c-0.32-0.24-0.724-0.396-0.96-0.72c2.869,1.404,0.072,5.236-1.2,6.24
	C37.151,53.813,35.793,53.331,35.335,51.949z"/>
<path fill-rule="evenodd" clip-rule="evenodd" fill="#7A7876" d="M37.495,50.989c0.602,0.278,0.804,0.957,1.68,0.96
	C38.843,52.497,36.974,51.295,37.495,50.989z"/>
<path fill-rule="evenodd" clip-rule="evenodd" fill="#7A7876" d="M50.455,49.789c0.375,0.826,0.725,1.675,1.68,1.92
	C51.546,52.203,50.06,50.28,50.455,49.789z"/>
<path fill-rule="evenodd" clip-rule="evenodd" fill="#7A7876" d="M50.455,49.549c-0.496-0.434,0.665-1.242,0.96-1.68
	c0.494,0.066,0.226,0.894,0.72,0.96c0.322-0.158,0.447-0.513,0.48-0.96c1.571-0.365,2.518,1.153,1.92,2.16
	c0-1.12-0.291-1.949-1.44-1.92c-0.633,0.167-0.507,1.093-1.2,1.2c-0.187-0.213-0.258-0.542-0.24-0.96
	C50.738,48.232,50.904,49.198,50.455,49.549z"/>
<path fill-rule="evenodd" clip-rule="evenodd" fill="#7A7876" d="M52.375,98.029c0.008-1.289,2.217-1.605,2.64-0.479
	c-0.534-0.187-0.936-0.505-1.68-0.48C52.924,97.299,52.852,97.866,52.375,98.029z"/>
<path fill-rule="evenodd" clip-rule="evenodd" fill="#7A7876" d="M52.375,98.27c-0.485,0.886-0.101,1.693,0.24,2.4
	C51.943,100.343,51.514,98.752,52.375,98.27z"/>
<path fill-rule="evenodd" clip-rule="evenodd" fill="#7A7876" d="M52.855,100.67c1.473,0.112,1.751-0.969,2.4-1.681
	C55.18,100.121,53.829,101.234,52.855,100.67z"/>
<path fill-rule="evenodd" clip-rule="evenodd" fill="#7A7876" d="M76.615,103.789c-0.129,1.312-0.352,2.529-0.48,3.841
	C75.788,106.794,76.165,104.625,76.615,103.789z"/>
<path fill-rule="evenodd" clip-rule="evenodd" fill="#7A7876" d="M77.575,104.989c-0.129,1.472-0.1,3.101-0.48,4.32
	C77.065,107.68,77.117,106.131,77.575,104.989z"/>
<path fill-rule="evenodd" clip-rule="evenodd" fill="#7A7876" d="M78.535,100.67c1.171,1.093-1.001,2.563-0.96,4.08
	C77.183,102.786,79.269,102.192,78.535,100.67z"/>
<path fill-rule="evenodd" clip-rule="evenodd" fill="#7A7876" d="M34.135,104.029c-0.69-0.627,1.693-2.894,1.68-0.72
	c-0.08,0-0.16,0-0.24,0c0.067-0.388-0.227-0.413-0.24-0.72C34.333,102.636,34.364,103.857,34.135,104.029z"/>
<path fill-rule="evenodd" clip-rule="evenodd" fill="#7A7876" d="M33.415,109.55c0.259,0.94-0.556,2.955,0.48,3.12
	C32.881,113.589,32.995,110.065,33.415,109.55z"/>
<path fill-rule="evenodd" clip-rule="evenodd" fill="#7A7876" d="M51.655,107.39c-0.49-0.07-0.471-0.649-0.96-0.72
	c-0.049-1.729,0.391-2.97,2.16-2.881c1.907,0.813,0.379,3.884-0.72,3.601c1.357-0.36,2.242-3.281,0-3.36
	C50.908,104.37,50.488,106.677,51.655,107.39z"/>
<path fill-rule="evenodd" clip-rule="evenodd" fill="#2A2321" d="M52.615,45.229c1.626,1.187,2.866,1.356,3.6,2.64
	c3.864,6.757-7.735,12.141-10.08,5.04C44.527,48.039,48.53,44.913,52.615,45.229z M54.055,47.389c-1.664-1.733-5.288-1.52-6.48,0.48
	c-0.352,0.769-0.907,1.333-0.72,2.64c-1.057,4.275,6.06,6.163,7.92,2.88c0.103-0.458,0.686-0.434,0.48-1.2
	c0.661-0.567,0.661-2.553,0-3.12C55.219,48.145,54.716,47.688,54.055,47.389z"/>
<path fill-rule="evenodd" clip-rule="evenodd" fill="#2A2321" d="M70.855,55.309c-0.368,1.101-1.794,0.451-2.88,1.2
	c1.448,1.05,1.121,4.384-0.48,5.041c0.158-1.54,1.032-3.364-0.48-4.081c-2.043,0.517-2.531,2.588-3.359,4.32
	C62.201,58.737,67.355,54.152,70.855,55.309z"/>
<path fill-rule="evenodd" clip-rule="evenodd" fill="#2A2321" d="M25.975,113.39c-0.24,0-0.48,0-0.72,0
	c0.48-10.64,5.835-16.405,15.6-17.76c2.325-1.493,6.755-1.967,6.48-5.28c-2.578-1.562-6.102-2.839-6.24-5.521
	c-0.135-2.606,3.172-6.99-0.96-8.64c-0.174-0.734,0.414-0.706,0.24-1.44c-1.487-0.592-1.706-2.453-3.6-2.64
	c-0.6-1.08-0.852-2.508-0.72-4.32c-2.292,0.426-3.336-0.298-4.32-1.68c-0.076-3.756,1.72-5.641,3.12-7.92
	c-0.019-3.496-0.075-4.565-0.72-8.16c-0.575-0.288-1.323-0.214-2.4,0c-1.381-0.779-2.783-1.537-4.08-2.4
	c-1.762-3.844-6.685-6.339-6.96-11.76c-0.066-1.306,0.548-2.405,0.48-3.36c-0.134-1.898-1.502-3.769-1.44-6.48s1.285-5.24,3.36-6.72
	c2.859-7.754,11.363-13.182,22.08-10.56c6.631,1.622,14.552,3.66,18,8.4c2.688,0.433,3.684,2.557,5.761,3.6
	c1.685,3.577,5.89,4.445,8.88,7.2c2.523,2.326,3.817,6.067,5.52,9.6c2.196,4.556,3.688,8.901,3.12,14.64
	c-0.694,7.021-5.626,12.209-12.24,14.4c-1.326-0.047-1.898,0.661-3.359,0.479c-3.031-0.726-4.773,3.709-8.16,1.92
	c-1.962,2.559-1.335,6.642-1.44,10.32c0.498,0.942,1.852,1.028,2.4,1.92c0.534,7.403,5.829,9.5,12,11.76
	c3.01,1.103,6.629,1.587,8.88,2.88c5.587,3.211,6.091,9.887,8.4,15.841c0.039,0.278-0.054,0.427-0.24,0.479
	c0.039-0.279-0.053-0.427-0.24-0.479c-0.823-2.916-2.195-5.527-3.12-7.681c-0.341-1.338-0.779-2.58-1.68-3.359
	c-1.153-3.468-4.113-4.181-8.16-5.28c-4.08-1.109-7.829-3.815-11.28-4.8c-1.043-0.558-1.724-1.477-2.64-2.16
	c-1.194-0.234-0.95,0.97-1.68,1.2c-1.341,1.14-2.779,2.181-4.08,3.359c-0.388-0.067-0.413,0.227-0.721,0.24
	c-0.41-0.051-0.621,0.409-0.72,0c0.127-0.193,0.25-0.39,0.24-0.72c0.08,0,0.16,0,0.24,0c1.282-0.298,2.348-1.591,3.359-2.641
	c0.839-0.869,2.649-2.065,1.92-3.12c-0.011-0.948-0.528-1.392-0.72-2.159c-0.087-1.273-0.185-2.535-0.96-3.12
	c-0.135-0.346-0.374-0.586-0.72-0.721c-0.858,2.535,1.124,5.104-0.96,6.48c-0.939,0.421-1.527,1.193-2.4,1.68
	c-0.96,0.16-1.645,0.596-2.4,0.96c0,0.16,0,0.32,0,0.48c-0.08,0-0.16,0-0.24,0c-0.11,1.17,0.251,2.812-0.24,3.6
	c-1.505,0.655-3.402,0.918-3.6,2.88c-0.589,0.771-0.789,1.932-0.96,3.12c-0.333,0.788-0.566,1.675-0.48,2.88
	c-0.424,0.782-0.797,2.875-0.24,3.841c0.168,1.609-0.11,2.509-0.96,0.479c-0.292-1.068-0.261-2.459-0.24-3.84c0-0.08,0-0.16,0-0.24
	c0.331-0.31,0.237-1.042,0.24-1.68c0.753-1.947,0.884-3.94,1.92-6c0.422-1.139-1.872-1.433-1.44-3.36
	c-0.147-0.913,0.969-1.968-0.72-1.92c-1.428,0.477-0.955,2.144-1.68,3.12c-0.885,1.191-2.243,1.169-3.36,2.16
	c-4.384,1.057-8.292,2.587-12,4.32c-1.059,0.381-1.599,1.28-2.16,2.159c0,0.08,0,0.16,0,0.24c-0.889,0.391-1.019,1.542-1.44,2.4
	C26.857,106.752,26.423,110.077,25.975,113.39z M65.335,54.109c-4.077,2.628-4.851,8.577-3.36,13.2
	c4.799,5.032,13.377-7.826,10.08-12.96C69.845,53.194,67.329,53.853,65.335,54.109z M83.335,39.949
	c-2.253-3.159-2.612-6.559-4.8-9.36c-1.566-2.006-3.712-2.801-6-4.32c-2.702-1.794-4.457-5.032-7.2-6.96
	c-0.658-0.462-1.616-0.464-2.399-0.96c-1.308-0.827-2.216-2.471-3.601-3.36c-3.929-2.523-10.349-4.205-15.36-5.28
	c-7.027-1.507-12.481,0.751-17.28,5.28c-0.507,1.252-1.413,2.107-1.92,3.36c4.191-0.099,8.154,0.747,11.28,2.4
	c1.284,0.68,2.677,1.637,3.36,2.64c-5.88-2.841-18-7.63-18.48,2.16c-0.099,2.014,0.976,3.709,1.2,5.28
	c0.252,1.763-0.367,3.566-0.24,5.28c0.24,3.248,1.923,5.292,4.08,6.96c-0.237-3.096,1.309-6.202,3.36-6.72
	c-3.421,3.424-3.181,12.357,3.36,12.24c-1.622-4.714,2.816-8.596,4.8-12c-0.839,0.209-2.427,0.922-3.36,0.24
	c13.101-5.762,26.905,4.454,30.96,16.32c1.946-0.653,3.011-0.788,5.761-0.72c-2.507-6.668-8.292-14.492-15.121-17.04
	c-3.079-1.149-7.11-0.664-10.32-0.96c0.919-0.717,1.975-0.22,2.88-1.2c-7.056-2.943-14.1-1.598-21.84,0.24
	c7.796-5.437,20.471-2.518,29.04,0.72c-1.67-2.81-6.786-2.175-8.64-4.8c3.601,0.032,4.588,1.426,7.44,1.92
	c-1.619-4.861-5.148-9.091-8.4-11.52c7.343,1.289,8.033,11.539,12,15.36c0.729,0.702,1.828,0.814,2.64,1.44
	c5.416,4.167,9.768,9.544,11.76,16.56c1.386,0.702,2.31,2.85,1.92,4.56c6.347-6.047-0.404-15.098-3.12-20.88
	c-1.468-3.126-2.736-6.038-4.319-8.64c-0.485-0.797-1.287-1.703-1.2-2.64c4.117,3.003,5.286,8.954,8.16,13.2
	c3.265,5.907,7.85,16.559,0.24,20.641c-0.328,2.57-2.444,4.571-2.641,6.479C82.937,65.549,88.606,51.063,83.335,39.949z
	 M38.935,39.469c-0.954,0.154-0.344-1.256-1.2-1.2c-1.64,1.64-2.876,3.684-3.6,6.24c2.491-0.52,6.718-2.135,7.44,0.72
	c-2.869,1.278-6.507-0.487-7.44,3.12c1.773-0.194,1.794-1.445,3.12-1.68c3.02-0.536,4.972,1.755,4.8,4.08
	c-0.282,3.811-5.018,5.764-6.96,8.879c-1.439,2.309-2.341,4.962-1.92,6.961c4.325,0.574,9.06-2.409,11.76-5.04
	c0.108-0.989-0.859-0.901-0.96-1.681c0.472,0.072,0.476-0.324,0.72-0.479c1.023,0.257,1.171,1.389,1.44,2.399
	c3.815-0.481,7.957-0.029,10.56,2.16c1.562-5.978,4.424-10.589,3.84-17.76c-4.048-4.17-9.494-9.93-16.32-8.4
	c-0.421,0.379-0.498,1.102-1.2,1.2c-0.355-0.044-0.22-0.58-0.24-0.96c-0.812-0.092-0.377,1.063-1.44,0.72
	c-0.517-0.203,0.09-1.53-0.48-1.68C39.949,37.603,40.019,39.113,38.935,39.469z M39.655,47.869c-1.129-1.018-3.845-0.196-4.08,1.2
	c-0.615,0.377-0.673,2.213-0.24,2.88c0.458,1.382,1.816,1.864,3.36,2.16c1.272-1.004,4.069-4.836,1.2-6.24
	C39.815,47.869,39.735,47.869,39.655,47.869z M35.815,56.27c0.89,0.01,0.86-0.9,1.44-1.2c-0.284-0.276-0.848-0.271-1.44-0.24
	C35.815,55.309,35.815,55.79,35.815,56.27z M53.815,72.59c0.628-2.483,2.683-6.217,0.96-8.641c-0.33,0.011-0.527-0.113-0.72-0.24
	c-2.772,1.854-4.691,3.781-6.96,6.48c-0.062-0.498-1.055-0.065-1.2-0.48c-0.887,1.871-3.665,1.27-5.04,0.96
	c0.011,1.745-1.746,0.261-1.44,2.16c6.554,3.063,11.821-3.693,14.88-7.92c0.455,2.905-4.598,7.782-8.64,9.36
	c-1.312,0.512-3.675,0.79-4.56,0c0,0.56,0,1.12,0,1.68c2.681,1.621,4.431,0.597,7.68,0.48c0.443,1.752,0.559,4.323,2.64,5.04
	C52.929,79.199,52.91,76.169,53.815,72.59z M54.775,89.149c2.23-1.342,5.441-1.423,6-4.08c0.559-2.651-1.44-6.116-0.48-9.12
	c-1.264,0.454-0.491,3.225-1.92,4.08c-0.359,3.08-2.17,4.71-3.12,7.2c-1.18,1.061-2.6,1.88-4.08,2.64
	c-0.233,1.625-0.209,3.288,0.96,4.08C54.931,94.265,54.45,91.305,54.775,89.149z"/>
<path fill-rule="evenodd" clip-rule="evenodd" fill="#7A7876" d="M53.575,98.029c1.218-0.114,0.859,2.015-0.48,1.44
	C52.98,98.715,53.437,98.531,53.575,98.029z"/>
<path fill-rule="evenodd" clip-rule="evenodd" fill="#AC3051" d="M71.335,65.869c0.196-1.908,2.313-3.909,2.641-6.479
	c7.609-4.082,3.024-14.734-0.24-20.641c-2.874-4.246-4.043-10.197-8.16-13.2c-0.087,0.937,0.715,1.842,1.2,2.64
	c1.583,2.603,2.852,5.514,4.319,8.64c2.716,5.783,9.467,14.833,3.12,20.88c0.39-1.71-0.534-3.858-1.92-4.56
	c-1.992-7.016-6.344-12.394-11.76-16.56c-0.813-0.625-1.911-0.738-2.64-1.44c-3.967-3.821-4.657-14.072-12-15.36
	c3.252,2.429,6.781,6.659,8.4,11.52c-2.852-0.494-3.839-1.888-7.44-1.92c1.854,2.625,6.97,1.99,8.64,4.8
	c-8.569-3.238-21.244-6.157-29.04-0.72c7.74-1.838,14.784-3.184,21.84-0.24c-0.905,0.98-1.961,0.483-2.88,1.2
	c3.21,0.296,7.241-0.189,10.32,0.96c6.829,2.548,12.614,10.372,15.121,17.04c-2.75-0.067-3.814,0.067-5.761,0.72
	c-4.055-11.866-17.859-22.083-30.96-16.32c0.933,0.682,2.521-0.031,3.36-0.24c-1.984,3.404-6.422,7.286-4.8,12
	c-6.541,0.117-6.781-8.816-3.36-12.24c-2.051,0.519-3.597,3.625-3.36,6.72c-2.157-1.667-3.84-3.712-4.08-6.96
	c-0.127-1.714,0.492-3.518,0.24-5.28c-0.224-1.571-1.298-3.266-1.2-5.28c0.479-9.79,12.6-5.001,18.48-2.16
	c-0.683-1.003-2.076-1.96-3.36-2.64c-3.126-1.653-7.089-2.499-11.28-2.4c0.507-1.252,1.413-2.107,1.92-3.36
	c4.799-4.529,10.253-6.788,17.28-5.28c5.011,1.075,11.431,2.757,15.36,5.28c1.385,0.889,2.293,2.533,3.601,3.36
	c0.783,0.496,1.741,0.498,2.399,0.96c2.743,1.928,4.498,5.166,7.2,6.96c2.288,1.52,4.434,2.314,6,4.32
	c2.188,2.801,2.547,6.201,4.8,9.36C88.606,51.063,82.937,65.549,71.335,65.869z M45.655,27.709c-2.154-1.125-3.069-3.49-5.76-4.08
	C41.029,25.616,43.422,27.621,45.655,27.709z M46.375,29.149c-1.975-0.426-3.625-1.174-5.04-2.16
	C42.144,28.81,44.433,30.153,46.375,29.149z"/>
</svg>
