<?xml version="1.0" encoding="utf-8"?>
<!-- Generator: Adobe Illustrator 15.1.0, SVG Export Plug-In  -->
<!DOCTYPE svg PUBLIC "-//W3C//DTD SVG 1.1 Tiny//EN" "http://www.w3.org/Graphics/SVG/1.1/DTD/svg11-tiny.dtd" [
	<!ENTITY ns_flows "http://ns.adobe.com/Flows/1.0/">
]>
<svg version="1.1" baseProfile="tiny"
	 xmlns="http://www.w3.org/2000/svg" xmlns:xlink="http://www.w3.org/1999/xlink" xmlns:a="http://ns.adobe.com/AdobeSVGViewerExtensions/3.0/"
	 x="0px" y="0px" width="113px" height="113px" viewBox="-31.236 -12.337 113 113" xml:space="preserve">
<defs>
</defs>
<path fill-rule="evenodd" fill="#697364" d="M50.645,25.443c0.08,0,0.16,0,0.24,0c0,0.08,0,0.159,0,0.239c0,0.88,0,1.761,0,2.64
	c-0.014,0.146-0.037,0.285-0.24,0.24C50.645,27.523,50.645,26.482,50.645,25.443z"/>
<path fill-rule="evenodd" fill="#252724" d="M5.28,53.045c1.377,0.18,3.82,0.84,4.32,2.641c-0.688,0.512-1.339-0.615-1.92-0.961
	c-0.749,1.078,0.169,2.545,0.24,3.602c-1.273-0.541-1.78-2.395-1.44-3.842c-0.325-0.867-1.083-0.039-1.68-0.479
	C4.926,53.65,5.155,53.4,5.28,53.045z"/>
<path fill-rule="evenodd" fill="#252724" d="M46.084,54.725c-0.004,0.797-1.357,0.244-1.68,0.721
	c0.324,1.373-0.174,3.117-0.961,4.08c-0.631-0.771,0.387-2.43,0.24-3.6c-0.957-0.238-0.723,0.717-1.68,0.48
	C42.322,54.867,45.076,53.359,46.084,54.725z"/>
<path fill-rule="evenodd" fill="#252724" d="M30.002,56.645c-2.084,2.98-6.846,3.24-8.4,0.24c1.716,0.543,5.961,2.348,7.441-0.479
	C29.473,56.375,29.549,56.699,30.002,56.645z"/>
<path fill-rule="evenodd" fill="#252724" d="M33.604,64.326c0.973,0.357-0.674,1.514-0.961,1.68
	c-2.17,1.262-6.029,1.881-8.641,1.441c-1.975-0.334-3.683-1.291-5.28-1.922c2.326-0.375,5.523,1.547,9.12,0.961
	C29.885,66.152,31.758,65.197,33.604,64.326z"/>
<path fill-rule="evenodd" fill="#CDA96B" d="M23.282,91.688c0.228,0.494,0.774,0.666,1.2,0.961c-0.596,0.313-1.165-0.535-1.2,0
	C22.563,92.49,23.512,92.135,23.282,91.688z"/>
<path fill-rule="evenodd" fill="#697364" d="M49.205,31.443c0.512,0.848,1.283,1.436,1.439,2.641
	C50.098,33.27,49.457,32.549,49.205,31.443z"/>
<path fill-rule="evenodd" fill="#697364" d="M50.404,39.844c0.193,0.046,0.238,0.241,0.48,0.24c0,0.24,0,0.48,0,0.721
	c0.113,0.914-0.102,1.498-0.721,1.68C50.742,42.136,50.854,40.468,50.404,39.844z"/>
<path fill-rule="evenodd" fill="#252724" d="M29.043,0c1.76,0,3.52,0,5.279,0c1.064,0.457,1.996,1.045,2.4,2.16
	c1.318-0.281,2.17,0.085,3.121,0.721c0.08,0,0.16,0,0.24,0c0.98,1.35,1.393,1.796,1.68,3.84c0.561,0.178,1.352,0.167,1.92-0.24
	c0.734,0.546,0.867,1.693,1.439,2.4c0.801,0,1.602,0,2.4,0c0.543,2.256,2.641,4.75,2.16,6.961c-0.273,1.259-2.066,1.877-1.439,3.36
	c-0.383,0.36,0.006,1.011,0.48,1.2c0.596,0.125,0.854,0.585,1.199,0.96c-0.043,0.204,0.094,0.227,0.24,0.24
	c0.713,0.864-0.449,2.153,0.24,2.88c-0.068,0.388,0.227,0.414,0.24,0.721c0,0.08,0,0.16,0,0.24c0,1.039,0,2.08,0,3.119
	c-0.188,0.214-0.258,0.543-0.24,0.961c-0.836,0.203-0.896,1.183-1.199,1.92c0.252,1.105,0.893,1.826,1.439,2.641
	c0,0.08,0,0.16,0,0.239c0.26,2.02-0.428,3.093-0.961,4.321c-0.113,0.753,0.646,0.633,0.721,1.199
	c0.449,0.624,0.338,2.292-0.24,2.641c0.523,1.688-0.6,3.039-2.16,3.359c0.406,0.715,1.027,1.214,1.201,2.161
	c-0.623,1.618-0.994,3.487-2.641,4.081c0.697,0.342,0.912,1.166,1.199,1.92c0,0.879,0,1.76,0,2.639
	c-0.127,0.193-0.25,0.391-0.24,0.721c-0.012,0.307-0.307,0.332-0.24,0.721c-0.289,1.471-1.145,2.373-1.92,3.359
	c0.004,0.477,0.656,0.307,0.48,0.961c0.045,0.193,0.24,0.238,0.24,0.48c0.158,1.838-0.27,3.09-1.201,3.84
	c-1.494-0.037-2.975,0.684-4.08,2.16c-0.203-0.045-0.227,0.094-0.24,0.24c-3.783,0.078-4.633,4.676-6.959,6.961
	c-0.502,0.297-0.902,0.697-1.201,1.199c-0.439,0.279-0.813,0.627-1.199,0.961c-0.064,1.711,0.123,2.232,0.24,3.359
	c0,0.4,0,0.801,0,1.201c0.373,0.346,0.934,0.504,1.439,0.719c1.918,0.139,0.986,2.488,2.16,2.881
	c-0.039,0.279,0.053,0.428,0.24,0.48c-0.068,0.387,0.227,0.412,0.24,0.719c0.189,1.33,1.996,1.045,2.641,1.92
	c0.213,0.188,0.541,0.26,0.959,0.24c0.445,0.836,1.594,0.967,2.4,1.441c0.08,0,0.16,0,0.24,0c0.391,0.568,1.408,0.51,1.92,0.959
	c0.908,0.211,0.994,1.246,2.4,0.961c0,0.16,0,0.32,0,0.48c0.537,0.262,1.203,0.396,1.68,0.719c-0.043,0.205,0.094,0.227,0.24,0.24
	c0.506,1.016,1.004,2.037,1.68,2.881c0,0.08,0,0.16,0,0.24c0.09,1.219,0.375,2.018,0.48,2.641c0,0.238,0,0.479,0,0.719
	c-14.801,0-29.603,0-44.403,0c-1.038-6.699,6.493-8.346,11.521-11.041c-0.054-2.613,2.555-2.564,2.881-4.801
	c0.826-0.453,1.169-1.391,2.16-1.68c0-0.4,0-0.799,0-1.199c0-0.08,0-0.16,0-0.24c0-0.721,0-1.439,0-2.16
	c-0.146-0.574,0.301-1.742-0.24-1.92c-0.08,0-0.16,0-0.24,0c-0.829-0.611-1.532-1.348-2.4-1.92c-0.106-0.215-0.21-0.43-0.479-0.48
	c-0.465-1.377-1.524-2.156-2.4-3.121c0.041-0.6-0.369-0.75-0.72-0.959c0.132-0.533-0.459-0.342-0.48-0.721
	c-0.221-0.898-0.979-1.262-1.2-2.16c-0.592-0.031-1.156-0.037-1.439,0.24c-0.714-0.256-1.807-1.383-2.4-0.961
	c-1.704-1.096-3.11-2.49-3.841-4.561c0.321-0.166-0.118-0.639,0.24-1.199c0.046-0.195,0.241-0.24,0.24-0.48
	c-1.28-0.65-2.309-2.508-3.12-3.359c0.302-0.061,0.241-0.479,0-0.48c-0.423-2.148-1.071-4.352-0.24-6.48
	c-0.805-2.004-1.931-2.856-0.96-5.521c-0.217-1.51-1.749-2.137-0.721-3.6c-0.671-0.93-1.798-1.401-1.92-2.881
	c0.193-0.926,0.873-1.367,1.44-1.92c-0.408-0.711-0.61-1.629-0.48-2.88c0.769-1.085,0.836-2.231,1.92-3.36
	c0.68-0.707,2.151-0.95,2.4-1.68c0.512-1.498-1.737-3.101-2.4-4.801c0-0.08,0-0.16,0-0.24c-0.226-1.346,0.697-1.543,0.721-2.641
	c-2.278-1.986,2.152-3.749,0-5.52c0.443-0.037,0.147-0.813,0.479-0.961c0.359-0.44,1.002-0.598,1.2-1.199
	c0.758,0.117,0.848-0.434,1.681-0.24c0.133-0.428,0.123-0.997,0.479-1.2c1.258-0.263,0.702-2.339,1.681-2.88
	c0.821-1.076,1.529-0.835,2.88-1.44c0.08,0,0.16,0,0.24,0c0,0.08,0,0.159,0,0.239c0.477,0.004,0.305,0.655,0.96,0.48
	c-0.064-0.864,0.443-1.156,0.48-1.92c0.491-1.374,1.536-3.117,3.36-2.4c1.247-1.891,2.347-3.576,4.56-3.36
	c1.024,0.101,1.594,1.446,2.641,1.44C26.414,2.869,27.275,0.13,29.043,0z M34.563,72.967c3.264-3.523,4.52-6.396,6.24-11.521
	c0.947-0.695,2.783-1.811,4.08-0.719c1.396-3.16,3.92-7.211-0.719-8.402c-0.85-0.129-0.59,0.852-1.441,0.721
	c-0.361-1.391-0.332-2.922,0.721-3.12c-0.594-0.286-0.938-0.821-1.199-1.44c1.086-0.585,0.916-1.259,0.479-2.4
	c0.844,0.043,0.791-0.811,1.441-0.959c-0.852-1.465-0.842-2.907-0.721-4.081c-1.734-1.534-2.604-2.903-3.359-5.04
	c0.332-0.557,1.008-2.477,0-2.881c0.002,1.043-0.355,1.726-1.201,1.92c-1.74-1.299-4.211-1.869-6-3.119
	c-2.32,1.758-4.934,3.691-7.921,3.359c-0.021-1.141,1.458-0.781,1.921-1.439c0.104-0.826-0.096-1.346-0.24-1.92
	c-2.757-0.018-6.82,1.756-7.681-1.921c-1.409,0.405-0.548,1.677-1.92,1.921c-0.507-0.242-1.416-2.275-1.681-1.201
	c-0.18,0.74,0.827,0.293,0.48,1.201c-0.354,0.605-0.929,0.991-1.681,1.199c0.17,3.678-4.286,3.783-4.32,6.48
	c-0.766-0.205-0.742,0.378-1.2,0.48c-1.041,3.775,0.707,8.779,0.96,12.24c-1.411-0.287-3.94-1.404-5.28-0.238
	c0.009,1.168-0.108,4.17,0.721,5.279c0.2,1.35,1.74,3.549,2.64,2.641c0.586-0.535,1.714-0.527,2.88-0.48
	c2.045,1.16,1.89,3.541,2.641,5.521c2.07,5.455,6.426,10.271,11.041,13.201c0.118,0.758-1.191,0.088-0.96,0.959
	c0.115,4.594,0.063,7.563-1.681,10.32c0.949,0.332,1.489,1.072,1.681,2.16c0.229,0.447-0.719,0.803,0,0.961
	c0.035-0.535,0.604,0.313,1.2,0c0.732,1.633,3.123,0.127,4.08,1.439c0.961-0.238,1.258-1.143,2.641-0.959
	c-0.445-1.654,0.01-2.242,0.959-3.84c-1.066-1.854-1.822-7.254-1.92-10.563c-0.359-0.041-0.885,0.086-0.959-0.24
	c1.01-0.748,2.252-1.266,2.879-2.398C33.074,75.158,34.021,74.266,34.563,72.967z M9.601,64.807
	c1.409-0.529,1.399-5.404-0.479-4.561C7.1,60.578,6.909,65.582,9.601,64.807z M42.484,61.205c-1.18,1.834,0.148,4.826,1.68,4.561
	C45.775,64.705,45.344,60.1,42.484,61.205z M31.922,84.248c-0.309,0.566,0.031,0.447-0.24,1.199c0.525,0.129,1.553,0.582,1.682-0.24
	C32.713,85.059,32.766,84.205,31.922,84.248z M21.842,86.408c-0.316-0.744,0.712-1.332,0-1.68
	C21.6,85.158,20.924,86.201,21.842,86.408z M32.643,88.328c0.014,0.307,0.309,0.332,0.24,0.721c0.48,0,0.961,0,1.439,0
	c0.479-1.744-1.186-3.41-2.16-2.16C32.354,87.336,32.564,87.768,32.643,88.328z M21.602,87.607c-1.506-0.984-3.458,0.58-2.399,2.16
	c0.744,0.025,0.685-0.754,1.68-0.479C21.033,88.717,21.028,88.23,21.602,87.607z M36.004,89.527
	c-0.309-0.012-0.334-0.307-0.721-0.238c0.004,0.715,0.623,0.814,0.721,1.439c0.277,0.355,0.277,0.605,0,0.959
	c0.902-0.203,0.818-1.35,0.479-2.16C36.432,89.818,36.217,89.676,36.004,89.527z M32.643,90.488
	c-0.625,1.125-0.209,3.016,1.201,2.881c0.686-0.516,1.324-1.076,1.199-2.4C34.555,90.363,33.576,89.982,32.643,90.488z
	 M18.962,93.848c-0.949-0.867-1.09-2.416-0.24-3.359c-0.32,0-0.64,0-0.96,0c-0.634,1.205,0.061,2.914,0.72,3.6
	c1.524,1.98,2.879,4.816,4.561,5.281c0.276,0.076,1.091-0.459,1.44-0.48c1.967-0.123,4.762,0.268,7.199,0.24
	c1.348-1.293,2.387-2.895,3.361-4.561c0.295-0.283,1.188-1.188,0.48-1.68c-0.217,0.424-0.58,0.701-0.721,1.199
	c-0.596-0.035-0.996,0.125-1.199,0.48c1.057,2.211-2.41,3.326-4.082,2.16c-0.494,2.086-3.666,1.674-4.799,0.24
	c-1.904,1.441-5.104-0.617-4.081-2.881C19.862,94.229,19.525,93.926,18.962,93.848z M22.082,91.928
	c-0.028-2.396-4.144-1.545-2.16,1.201C21.088,93.531,22.092,92.809,22.082,91.928z M22.563,93.848
	c-1.276,0.027-1.089,2.033-0.24,2.4c0.014,0.146,0.036,0.285,0.24,0.24c1.409,0.131,2.438-0.121,2.399-1.439
	C25.203,93.76,23.255,93.406,22.563,93.848z M30.242,94.088c-0.438,0.693-0.389,0.752-0.24,1.682
	c0.623,0.258,1.178,0.582,2.16,0.479c0.553-0.609,0.244-1.17,0.48-1.68C32.098,94.154,31.301,93.99,30.242,94.088z M26.643,96.729
	c0.482,0.871,1.658,0.217,1.92-0.48c0.287-2.535-4.028-1.584-2.16,0.24C26.416,96.635,26.438,96.773,26.643,96.729z"/>
<path fill-rule="evenodd" fill="#697364" d="M5.041,57.365c0.655,0.992,1.368,3.047,2.64,2.641
	C6.781,60.914,5.241,58.715,5.041,57.365z"/>
<path fill-rule="evenodd" fill="#CDA96B" d="M32.162,76.088c0.635-1.207,1.641-2.041,2.4-3.121
	C34.021,74.266,33.074,75.158,32.162,76.088z"/>
<path fill-rule="evenodd" fill="#CDA96B" d="M5.041,57.365c-0.829-1.109-0.712-4.111-0.721-5.279c1.34-1.166,3.869-0.049,5.28,0.238
	c-0.253-3.461-2.001-8.465-0.96-12.24c0.458-0.103,0.435-0.686,1.2-0.48c0.034-2.697,4.49-2.803,4.32-6.48
	c0.752-0.208,1.326-0.594,1.681-1.199c0.347-0.908-0.66-0.461-0.48-1.201c0.265-1.074,1.174,0.959,1.681,1.201
	c1.372-0.244,0.511-1.516,1.92-1.921c0.86,3.677,4.924,1.903,7.681,1.921c0.145,0.574,0.344,1.094,0.24,1.92
	c-0.463,0.658-1.942,0.299-1.921,1.439c2.987,0.332,5.601-1.602,7.921-3.359c1.789,1.25,4.26,1.82,6,3.119
	c0.846-0.194,1.203-0.877,1.201-1.92c1.008,0.404,0.332,2.324,0,2.881c0.756,2.137,1.625,3.506,3.359,5.04
	c-0.121,1.174-0.131,2.616,0.721,4.081c-0.65,0.148-0.598,1.002-1.441,0.959c0.438,1.142,0.607,1.815-0.479,2.4
	c0.262,0.619,0.605,1.154,1.199,1.44c-1.053,0.198-1.082,1.729-0.721,3.12c0.852,0.131,0.592-0.85,1.441-0.721
	c4.639,1.191,2.115,5.242,0.719,8.402c-1.297-1.092-3.133,0.023-4.08,0.719c-1.721,5.125-2.977,7.998-6.24,11.521
	c-0.76,1.08-1.766,1.914-2.4,3.121c-0.627,1.133-1.869,1.65-2.879,2.398c0.074,0.326,0.6,0.199,0.959,0.24
	c0.098,3.309,0.854,8.709,1.92,10.563c-0.949,1.598-1.404,2.186-0.959,3.84c-1.383-0.184-1.68,0.721-2.641,0.959
	c-0.957-1.313-3.348,0.193-4.08-1.439c-0.426-0.295-0.973-0.467-1.2-0.961c-0.191-1.088-0.731-1.828-1.681-2.16
	c1.744-2.758,1.796-5.727,1.681-10.32c-0.231-0.871,1.078-0.201,0.96-0.959c-4.615-2.93-8.971-7.746-11.041-13.201
	c-0.751-1.98-0.596-4.361-2.641-5.521c-1.166-0.047-2.294-0.055-2.88,0.48C6.409,60.412,5.696,58.357,5.041,57.365z M4.801,54.006
	c0.597,0.439,1.354-0.389,1.68,0.479c-0.34,1.447,0.167,3.301,1.44,3.842c-0.071-1.057-0.989-2.523-0.24-3.602
	c0.581,0.346,1.232,1.473,1.92,0.961c-0.5-1.801-2.943-2.461-4.32-2.641C5.155,53.4,4.926,53.65,4.801,54.006z M19.922,44.404
	c-2.154-1.496-5.465-2.306-7.2-0.721c-0.458-0.102-0.435-0.686-1.2-0.479c-0.259,0.613,1.033,0.841,0.239,1.2
	c-1.118-0.322-1.533-1.348-2.399-1.92c-0.627,0.86,0.767,1.361,0.96,2.16c-0.146-0.139-1.139-0.563-1.2,0
	c0.597,0.683,1.802,0.758,2.16,1.68c-1.63,5.271,12.204,7.818,10.561,0.721c-0.054,0.186-0.007,0.473-0.24,0.479
	c-0.098-0.578,0.438-0.521,0.24-1.2C21.467,45.42,20.827,44.779,19.922,44.404z M30.002,41.764c1.541,0.33,3.117-0.963,5.041-1.199
	c2.26-0.279,4.982,0.577,5.76-0.48C37.76,37.721,32.057,39.505,30.002,41.764z M9.841,40.564c3.177,0.204,9.001-0.451,12.001,2.16
	C20.981,38.084,12.891,38.813,9.841,40.564z M39.844,43.204c-0.598-0.037-0.744,0.378-1.201,0.479
	c-2.736-2.411-9.197,0.643-9.121,4.081c0.143,6.401,11.908,4.015,10.803-1.921c0.863-0.336,1.809-0.591,2.16-1.439
	c-0.256-0.57-1.105,0.515-1.441-0.24c0.553-0.182,1.607-1.096,0.961-1.68c-0.662,0.459-1.176,1.064-1.92,1.439
	C40.045,43.643,40.125,43.243,39.844,43.204z M42.004,56.406c0.957,0.236,0.723-0.719,1.68-0.48c0.146,1.17-0.871,2.828-0.24,3.6
	c0.787-0.963,1.285-2.707,0.961-4.08c0.322-0.477,1.676,0.076,1.68-0.721C45.076,53.359,42.322,54.867,42.004,56.406z
	 M29.043,56.406c-1.48,2.826-5.726,1.021-7.441,0.479c1.555,3,6.316,2.74,8.4-0.24C29.549,56.699,29.473,56.375,29.043,56.406z
	 M22.802,62.406c-2.226,1.471-4.849,1.436-6.721,1.68c2.067,2.613,5.086,5.549,8.881,6c5.772,0.688,9.892-2.695,11.28-7.439
	c-2.92,0.121-5.566,1.295-8.4-0.24c-0.936,0.584-1.148,1.893-2.4,2.16C24.534,63.875,24.172,62.637,22.802,62.406z M24.962,78.248
	c-0.024,1.275,4.091,0.836,3.36,0C27.402,78.477,26.406,78.225,24.962,78.248z"/>
<path fill-rule="evenodd" fill="#697364" d="M19.922,44.404c0.905,0.375,1.545,1.016,1.92,1.92
	C21.123,45.764,20.651,44.955,19.922,44.404z"/>
<path fill-rule="evenodd" fill="#697364" d="M39.844,43.204c0.281,0.039,0.201,0.438,0.24,0.72c0.744-0.375,1.258-0.98,1.92-1.439
	c-0.598,0.843-1.371,1.51-2.4,1.92C39.506,43.826,40.041,43.883,39.844,43.204z"/>
<path fill-rule="evenodd" fill="#697364" d="M16.802,46.084c0.07-0.146,0.597-0.924,0-0.959c0.667-0.729,0.344,1.562,1.68,0.959
	c-0.038-0.281-0.438-0.202-0.72-0.24c0.036-0.443,0.813-0.146,0.96-0.479c-0.834-0.652-1.112-0.903-2.16-0.72
	c0.074,0.561,0.47,0.991,0,1.439c-1.604-0.236-2.809-0.871-3.36-2.16c0.565,0.006,0.707-0.413,1.44-0.24
	c0.175,0.656-0.478,0.484-0.48,0.961c1.093-0.931,1.976,0.331,2.641-0.48c1.887,0.354,2.842,1.639,4.08,2.641
	C19.823,47.521,18.469,46.271,16.802,46.084z M18.962,46.564c0.359-0.797,1.002,0.949,1.2-0.24c-0.82-0.098-0.306-0.648-1.2-0.24
	c-0.153-0.523,0.68-0.764-0.24-0.72C18.853,45.713,18.441,46.605,18.962,46.564z M15.602,45.125
	c-0.413-0.014-0.615,0.184-0.72,0.479c0.731,0.012,1.222-0.218,1.439-0.72c-0.755,0.274-0.583-0.377-0.96-0.48
	C15.351,44.734,15.475,44.932,15.602,45.125z"/>
<path fill-rule="evenodd" fill="#697364" d="M14.642,43.684c1.354,0.02,1.128,0.138,2.16,0.48c-0.665,0.812-1.548-0.45-2.641,0.48
	C14.164,44.168,14.816,44.34,14.642,43.684z"/>
<path fill-rule="evenodd" fill="#697364" d="M36.004,43.684c0.08,0.482-0.051,0.752-0.48,0.721c0.098,0.811,0.93-0.639,0.719,0.48
	c-0.5-0.102-0.635,0.164-0.959,0.24c0.127,0.192,0.25,0.389,0.24,0.719c0,0.08,0,0.16,0,0.24c-0.68-0.197-0.623,0.339-1.201,0.24
	c-0.559-1.326-0.711-1.264-1.199-1.199c-0.373,0.268-0.5,0.779-1.201,0.719C32.908,44.75,34.381,44.143,36.004,43.684z
	 M34.322,44.645c0.742,0.588-0.689-0.264-0.479,0.24c0.42-0.067,0.438,1.434,0.719,0.72c-0.75-0.728,0.785-0.232,0.721-0.96
	C34.736,44.975,34.381,44.025,34.322,44.645z"/>
<path fill-rule="evenodd" fill="#697364" d="M31.922,46.805c0.5,0.128,0.51-0.936,0.24-0.24c-0.84-0.479,0.705-0.548,0.721-0.96
	c-0.063,0.931,0.018,0.437,0.961,0.72C33.162,46.301,32.256,47.275,31.922,46.805z"/>
<path fill-rule="evenodd" fill="#697364" d="M35.764,45.844c1.496-0.484,0.689-0.854,1.92-1.199c-0.127-0.193-0.25-0.39-0.24-0.721
	c-0.688-0.338-1.311,0.745-1.201-0.24c0.816,0.066,1.947-0.186,2.4,0.24C37.725,44.605,37.342,45.823,35.764,45.844z"/>
<path fill-rule="evenodd" fill="#697364" d="M36.004,43.684c0.078,0,0.158,0,0.238,0c-0.109,0.985,0.514-0.098,1.201,0.24
	c-0.01,0.331,0.113,0.527,0.24,0.721c-1.23,0.346-0.424,0.715-1.92,1.199c-0.08,0-0.16,0-0.24,0c0.01-0.33-0.113-0.526-0.24-0.719
	c0.324-0.076,0.459-0.342,0.959-0.24c0.211-1.119-0.621,0.33-0.719-0.48C35.953,44.436,36.084,44.166,36.004,43.684z"/>
<path fill-rule="evenodd" fill="#697364" d="M31.922,45.844c0.701,0.061,0.828-0.451,1.201-0.719
	c0.488-0.064,0.641-0.127,1.199,1.199c-0.16,0-0.32,0-0.479,0c-0.943-0.283-1.023,0.211-0.961-0.72
	c-0.016,0.412-1.561,0.481-0.721,0.96c0.27-0.695,0.26,0.368-0.24,0.24c-0.193,0.206-0.656,0.143-0.719,0.48
	C30.537,46.834,31.398,45.898,31.922,45.844z"/>
<path fill-rule="evenodd" fill="#697364" d="M35.283,44.645c0.064,0.728-1.471,0.232-0.721,0.96
	c-0.281,0.714-0.299-0.787-0.719-0.72c-0.211-0.504,1.221,0.348,0.479-0.24C34.381,44.025,34.736,44.975,35.283,44.645z"/>
<path fill-rule="evenodd" fill="#697364" d="M16.562,46.084c0.47-0.448,0.074-0.879,0-1.439c1.048-0.184,1.326,0.067,2.16,0.72
	c-0.147,0.333-0.924,0.036-0.96,0.479c0.282,0.038,0.682-0.041,0.72,0.24c-1.336,0.603-1.013-1.688-1.68-0.959
	c0.597,0.035,0.07,0.813,0,0.959C16.722,46.084,16.642,46.084,16.562,46.084z"/>
<path fill-rule="evenodd" fill="#697364" d="M15.361,44.404c0.377,0.104,0.205,0.755,0.96,0.48c-0.218,0.502-0.708,0.731-1.439,0.72
	c0.104-0.296,0.307-0.493,0.72-0.479C15.475,44.932,15.351,44.734,15.361,44.404z"/>
<path fill-rule="evenodd" fill="#252724" d="M21.842,46.324c0.198,0.679-0.338,0.622-0.24,1.2c0.233-0.007,0.187-0.294,0.24-0.479
	c1.644,7.098-12.19,4.551-10.561-0.721c-0.358-0.922-1.563-0.997-2.16-1.68c0.062-0.563,1.055-0.139,1.2,0
	c-0.193-0.799-1.587-1.3-0.96-2.16c0.866,0.572,1.281,1.598,2.399,1.92c0.794-0.359-0.498-0.587-0.239-1.2
	c0.766-0.206,0.742,0.378,1.2,0.479c1.735-1.585,5.046-0.775,7.2,0.721C20.651,44.955,21.123,45.764,21.842,46.324z M14.642,43.684
	c-0.733-0.173-0.875,0.246-1.44,0.24c0.552,1.289,1.757,1.924,3.36,2.16c0.08,0,0.16,0,0.24,0c1.667,0.188,3.021,1.438,4.08,0.721
	c-1.238-1.002-2.193-2.287-4.08-2.641C15.77,43.821,15.996,43.703,14.642,43.684z M21.122,48.005
	c-0.864,0.063-1.157-0.444-1.92-0.48c-0.674,0.446-0.793,1.448-1.681,1.681c-0.768,0.104-2.809-0.693-2.4-2.4
	c-0.835-0.053-2.684-1.355-3.12-0.24C11.934,50.435,20.115,52.279,21.122,48.005z M17.042,47.045c-0.32,0-0.641,0-0.961,0
	C15.893,47.969,17.23,47.969,17.042,47.045z"/>
<path fill-rule="evenodd" fill="#9ABAC7" d="M16.081,47.045c0.32,0,0.641,0,0.961,0C17.23,47.969,15.893,47.969,16.081,47.045z"/>
<path fill-rule="evenodd" fill="#697364" d="M9.121,60.246c1.879-0.844,1.889,4.031,0.479,4.561
	C6.909,65.582,7.1,60.578,9.121,60.246z"/>
<path fill-rule="evenodd" fill="#697364" d="M44.164,65.766c-1.531,0.266-2.859-2.727-1.68-4.561
	C45.344,60.1,45.775,64.705,44.164,65.766z M44.645,62.646c-0.16,0-0.32,0-0.48,0c-0.037-0.283,0.041-0.682-0.24-0.721
	c0.043,0.92-0.197,0.088-0.721,0.24C43.074,62.799,44.596,62.982,44.645,62.646z"/>
<path fill-rule="evenodd" fill="#697364" d="M43.203,62.166c0.523-0.152,0.764,0.68,0.721-0.24c0.281,0.039,0.203,0.438,0.24,0.721
	c0.16,0,0.32,0,0.48,0C44.596,62.982,43.074,62.799,43.203,62.166z"/>
<path fill-rule="evenodd" fill="#A5703C" d="M34.322,63.846c-1.186,6.613-13.336,6.98-16.32,0.961
	c2.113,0.113,3.325-0.676,4.8-1.201c1.519,1.939,4.415,2.547,5.521-0.24C30.404,64.201,32.225,64.521,34.322,63.846z M27.842,66.486
	c-3.597,0.586-6.794-1.336-9.12-0.961c1.598,0.631,3.306,1.588,5.28,1.922c2.611,0.439,6.471-0.18,8.641-1.441
	c0.287-0.166,1.934-1.322,0.961-1.68C31.758,65.197,29.885,66.152,27.842,66.486z"/>
<path fill-rule="evenodd" fill="#252724" d="M28.322,78.248c0.73,0.836-3.385,1.275-3.36,0
	C26.406,78.225,27.402,78.477,28.322,78.248z"/>
<path fill-rule="evenodd" fill="#A5703C" d="M21.842,84.729c0.712,0.348-0.316,0.936,0,1.68
	C20.924,86.201,21.6,85.158,21.842,84.729z"/>
<path fill-rule="evenodd" fill="#A5703C" d="M32.162,86.889c0.975-1.25,2.639,0.416,2.16,2.16c-0.479,0-0.959,0-1.439,0
	c0.068-0.389-0.227-0.414-0.24-0.721c0.463-0.445,0.189-0.439,0.961-0.24C32.961,87.85,32.797,87.133,32.162,86.889z"/>
<path fill-rule="evenodd" fill="#A5703C" d="M32.162,86.889c0.635,0.244,0.799,0.961,1.441,1.199
	c-0.771-0.199-0.498-0.205-0.961,0.24C32.564,87.768,32.354,87.336,32.162,86.889z"/>
<path fill-rule="evenodd" fill="#CDA96B" d="M36.004,89.527c0.213,0.148,0.428,0.291,0.479,0c0.34,0.811,0.424,1.957-0.479,2.16
	c0.277-0.354,0.277-0.604,0-0.959c0.158,0,0.318,0,0.479,0C36.689,89.963,36.105,89.986,36.004,89.527z"/>
<path fill-rule="evenodd" fill="#CDA96B" d="M36.004,90.729c-0.098-0.625-0.717-0.725-0.721-1.439
	c0.387-0.068,0.412,0.227,0.721,0.238c0.102,0.459,0.686,0.436,0.479,1.201C36.322,90.729,36.162,90.729,36.004,90.729z"/>
<path fill-rule="evenodd" fill="#A5703C" d="M35.043,90.969c0.125,1.324-0.514,1.885-1.199,2.4c-1.41,0.135-1.826-1.756-1.201-2.881
	C33.576,89.982,34.555,90.363,35.043,90.969z M33.363,90.729c1.021,0.244-1.262,0.234-0.24,0.48c0.615-0.516,1.359,0.221,1.68-0.24
	C34.527,90.795,32.736,90.287,33.363,90.729z M32.643,91.449c0.037,0.281-0.041,0.68,0.24,0.719c0.053-0.186,0.006-0.473,0.24-0.48
	c-0.52,0.969,1.689,1.059,0.959,0.721c-0.283-0.115-0.543-0.256-0.719-0.48c0.33-0.01,0.527,0.113,0.719,0.24
	C34.105,91.426,33.357,91.453,32.643,91.449z"/>
<path fill-rule="evenodd" fill="#A5703C" d="M34.803,90.969c-0.32,0.461-1.064-0.275-1.68,0.24c-1.021-0.246,1.262-0.236,0.24-0.48
	C32.736,90.287,34.527,90.795,34.803,90.969z"/>
<path fill-rule="evenodd" fill="#CDA96B" d="M34.803,94.088c0.141-0.498,0.504-0.775,0.721-1.199c0.707,0.492-0.186,1.396-0.48,1.68
	C34.988,94.383,35.037,94.096,34.803,94.088z"/>
<path fill-rule="evenodd" fill="#A5703C" d="M34.082,92.168c-0.191-0.127-0.389-0.25-0.719-0.24c0.176,0.225,0.436,0.365,0.719,0.48
	c0.73,0.338-1.479,0.248-0.959-0.721c-0.234,0.008-0.188,0.295-0.24,0.48c-0.281-0.039-0.203-0.438-0.24-0.719
	C33.357,91.453,34.105,91.426,34.082,92.168z"/>
<path fill-rule="evenodd" fill="#CDA96B" d="M18.962,93.848c0.563,0.078,0.9,0.381,1.68,0.24c-1.022,2.264,2.177,4.322,4.081,2.881
	c1.133,1.434,4.305,1.846,4.799-0.24c1.672,1.166,5.139,0.051,4.082-2.16c0.203-0.355,0.604-0.516,1.199-0.48
	c0.234,0.008,0.186,0.295,0.24,0.48c-0.975,1.666-2.014,3.268-3.361,4.561c-2.438,0.027-5.232-0.363-7.199-0.24
	c-0.35,0.021-1.164,0.557-1.44,0.48c-1.682-0.465-3.036-3.301-4.561-5.281C18.469,93.641,18.666,93.58,18.962,93.848z"/>
<path fill-rule="evenodd" fill="#A5703C" d="M22.563,96.488c-0.267-0.846,0.848-1.266,0.239-0.479
	c0.219,0.211,0.709,0.041,1.44,0.238c-0.596-0.416-0.393-0.619,0.24-0.238c-0.027-0.293-0.072-0.568-0.48-0.48
	c0.357-0.518,0.678,0.262,0.96-0.48C25,96.367,23.972,96.619,22.563,96.488z"/>
<path fill-rule="evenodd" fill="#A5703C" d="M22.563,93.848c0.692-0.441,2.641-0.088,2.399,1.201
	c-0.282,0.742-0.603-0.037-0.96,0.48c0.408-0.088,0.453,0.188,0.48,0.48c-0.633-0.381-0.836-0.178-0.24,0.238
	c-0.731-0.197-1.222-0.027-1.44-0.238c0.608-0.787-0.506-0.367-0.239,0.479c-0.204,0.045-0.227-0.094-0.24-0.24
	c0.105-0.533-0.741-1.301-0.24-1.439c0.92-0.043,0.087,0.197,0.24,0.721c0.377-0.104,0.205-0.756,0.96-0.48
	c-0.158-0.322-0.513-0.447-0.96-0.48c-0.745-0.309,0.681-0.309,0.72,0C23.114,94.098,22.718,94.092,22.563,93.848z"/>
<path fill-rule="evenodd" fill="#A5703C" d="M22.563,93.848c0.155,0.244,0.552,0.25,0.479,0.721c-0.039-0.309-1.465-0.309-0.72,0
	c0.447,0.033,0.802,0.158,0.96,0.48c-0.755-0.275-0.583,0.377-0.96,0.48c-0.153-0.523,0.68-0.764-0.24-0.721
	c-0.501,0.139,0.346,0.906,0.24,1.439C21.474,95.881,21.286,93.875,22.563,93.848z"/>
<path fill-rule="evenodd" fill="#A5703C" d="M32.643,94.568c-0.236,0.51,0.072,1.07-0.48,1.68c-0.982,0.104-1.537-0.221-2.16-0.479
	c-0.148-0.93-0.197-0.988,0.24-1.682C31.301,93.99,32.098,94.154,32.643,94.568z"/>
<path fill-rule="evenodd" fill="#A5703C" d="M26.402,96.488c-1.868-1.824,2.447-2.775,2.16-0.24c-0.262,0.697-1.438,1.352-1.92,0.48
	c0-0.16,0-0.32,0-0.48c0.232,0.008,0.186,0.295,0.24,0.48c0.355-0.203,0.348-0.771,0.479-1.199c-0.32,0.303-0.471,0.721-0.959,0.24
	C26.402,96.01,26.402,96.248,26.402,96.488z"/>
<path fill-rule="evenodd" fill="#A5703C" d="M26.402,96.488c0-0.24,0-0.479,0-0.719c0.488,0.48,0.639,0.063,0.959-0.24
	c-0.131,0.428-0.123,0.996-0.479,1.199c-0.055-0.186-0.008-0.473-0.24-0.48c0,0.16,0,0.32,0,0.48
	C26.438,96.773,26.416,96.635,26.402,96.488z"/>
<path fill-rule="evenodd" fill="#697364" d="M18.722,45.364c0.92-0.044,0.087,0.196,0.24,0.72c0.895-0.408,0.38,0.143,1.2,0.24
	c-0.198,1.189-0.841-0.557-1.2,0.24C18.441,46.605,18.853,45.713,18.722,45.364z"/>
<path fill-rule="evenodd" fill="#9ABAC7" d="M30.482,48.005c1.297-0.687,2.184,0.038,2.641-0.48c0.789-0.175,0.367,0.478,0,0.48
	c0.195,1.983,3.889,1.049,3.359-1.2c1.197-0.239,2.469-0.971,3.121-0.48C38.961,50.817,31.861,52.266,30.482,48.005z"/>
<path fill-rule="evenodd" fill="#9ABAC7" d="M34.563,47.524c-0.297-0.776,0.777-0.183,0.48-0.96c0.342,0.293,0.545,0.916,0.24,1.2
	C35.09,47.638,34.893,47.514,34.563,47.524z"/>
<path fill-rule="evenodd" fill="#A5703C" d="M20.882,89.289c-0.995-0.275-0.936,0.504-1.68,0.479
	c-1.059-1.58,0.894-3.145,2.399-2.16C21.028,88.23,21.033,88.717,20.882,89.289z"/>
<path fill-rule="evenodd" fill="#CDA96B" d="M18.481,94.088c-0.659-0.686-1.354-2.395-0.72-3.6c0.32,0,0.64,0,0.96,0
	c-0.85,0.943-0.709,2.492,0.24,3.359C18.666,93.58,18.469,93.641,18.481,94.088z"/>
<path fill-rule="evenodd" fill="#9ABAC7" d="M12.001,46.564c0.437-1.115,2.285,0.188,3.12,0.24c-0.408,1.707,1.633,2.505,2.4,2.4
	c0.888-0.232,1.007-1.234,1.681-1.681c0.763,0.036,1.056,0.544,1.92,0.48C20.115,52.279,11.934,50.435,12.001,46.564z"/>
<path fill-rule="evenodd" fill="#A5703C" d="M33.363,85.207c-0.129,0.822-1.156,0.369-1.682,0.24
	c0.271-0.752-0.068-0.633,0.24-1.199C32.766,84.205,32.713,85.059,33.363,85.207z"/>
<path fill-rule="evenodd" fill="#A5703C" d="M19.922,93.129c-1.983-2.746,2.132-3.598,2.16-1.201
	C22.092,92.809,21.088,93.531,19.922,93.129z"/>
<path fill-rule="evenodd" fill="#252724" d="M40.803,40.084c-0.777,1.058-3.5,0.201-5.76,0.48c-1.924,0.236-3.5,1.529-5.041,1.199
	C32.057,39.505,37.76,37.721,40.803,40.084z"/>
<path fill-rule="evenodd" fill="#252724" d="M21.842,42.725c-3-2.611-8.824-1.956-12.001-2.16
	C12.891,38.813,20.981,38.084,21.842,42.725z"/>
<path fill-rule="evenodd" fill="#252724" d="M42.004,42.484c0.646,0.584-0.408,1.498-0.961,1.68c0.336,0.755,1.186-0.33,1.441,0.24
	c-0.352,0.849-1.297,1.104-2.16,1.439c1.105,5.936-10.66,8.322-10.803,1.921c-0.076-3.438,6.385-6.492,9.121-4.081
	c0.457-0.102,0.604-0.517,1.201-0.479c0.197,0.679-0.338,0.622-0.24,1.2C40.633,43.994,41.406,43.327,42.004,42.484z M36.004,43.684
	c-1.623,0.459-3.096,1.066-4.082,2.16c-0.523,0.055-1.385,0.99-0.719,1.441c0.063-0.338,0.525-0.274,0.719-0.48
	c0.334,0.471,1.24-0.504,1.922-0.48c0.158,0,0.318,0,0.479,0c0.578,0.099,0.521-0.438,1.201-0.24c0-0.08,0-0.16,0-0.24
	c0.08,0,0.16,0,0.24,0c1.578-0.021,1.961-1.238,2.879-1.92c-0.453-0.426-1.584-0.174-2.4-0.24
	C36.162,43.684,36.082,43.684,36.004,43.684z M39.604,46.324c-0.652-0.49-1.924,0.241-3.121,0.48c0.529,2.249-3.164,3.184-3.359,1.2
	c0.367-0.003,0.789-0.655,0-0.48c-0.457,0.519-1.344-0.206-2.641,0.48C31.861,52.266,38.961,50.817,39.604,46.324z M35.283,47.765
	c0.305-0.284,0.102-0.907-0.24-1.2c0.297,0.777-0.777,0.184-0.48,0.96C34.893,47.514,35.09,47.638,35.283,47.765z"/>
<path fill-rule="evenodd" fill="#252724" d="M25.441,64.566c1.252-0.268,1.465-1.576,2.4-2.16c2.834,1.535,5.48,0.361,8.4,0.24
	c-1.389,4.744-5.508,8.127-11.28,7.439c-3.795-0.451-6.813-3.387-8.881-6c1.872-0.244,4.495-0.209,6.721-1.68
	C24.172,62.637,24.534,63.875,25.441,64.566z M28.322,63.365c-1.105,2.787-4.002,2.18-5.521,0.24
	c-1.475,0.525-2.687,1.314-4.8,1.201c2.984,6.02,15.135,5.652,16.32-0.961C32.225,64.521,30.404,64.201,28.322,63.365z"/>
</svg>
