<?xml version="1.0" encoding="utf-8"?>
<!-- Generator: Adobe Illustrator 15.1.0, SVG Export Plug-In . SVG Version: 6.00 Build 0)  -->
<!DOCTYPE svg PUBLIC "-//W3C//DTD SVG 1.1//EN" "http://www.w3.org/Graphics/SVG/1.1/DTD/svg11.dtd">
<svg version="1.1" id="Ebene_1" xmlns="http://www.w3.org/2000/svg" xmlns:xlink="http://www.w3.org/1999/xlink" x="0px" y="0px"
	 width="113.39px" height="113.39px" viewBox="0 0 113.39 113.39" enable-background="new 0 0 113.39 113.39" xml:space="preserve">
<g>
	<path fill-rule="evenodd" clip-rule="evenodd" fill="#4D4534" d="M53.805,18.267c-0.343,0.409-1.306,0.833-1.686,0.482
		C52.699,18.576,53.399,17.89,53.805,18.267z"/>
	<path fill-rule="evenodd" clip-rule="evenodd" fill="#4D4534" d="M46.099,19.23c0.099,0.58-0.44,0.523-0.241,1.204
		c-0.503,0.102-0.638-0.165-0.963-0.241C45.205,19.781,45.393,19.247,46.099,19.23z"/>
	<path fill-rule="evenodd" clip-rule="evenodd" fill="#4D4534" d="M42.487,22.361c0.917-0.18,0.521,1.56-0.241,1.204
		C42.047,22.885,42.585,22.941,42.487,22.361z"/>
	<path fill-rule="evenodd" clip-rule="evenodd" fill="#4D4534" d="M45.377,25.251c0.963-0.08,1.336,0.429,2.408,0.241
		C47.712,26.211,45.122,26.344,45.377,25.251z"/>
	<path fill-rule="evenodd" clip-rule="evenodd" fill="#4D4534" d="M49.711,25.732c0.831-0.304,2.299-0.264,3.372,0.241
		C52.449,26.355,50.564,25.931,49.711,25.732z"/>
	<path fill-rule="evenodd" clip-rule="evenodd" fill="#827651" d="M49.23,27.177c0.969,0.155,2.561-0.313,3.13,0.241
		C51.391,27.264,49.8,27.731,49.23,27.177z"/>
	<path fill-rule="evenodd" clip-rule="evenodd" fill="#D5D3CC" d="M30.928,30.308c1.609-0.401,4.893-0.401,6.502,0
		c-1.686,0-3.371,0-5.057,0C31.891,30.308,31.409,30.308,30.928,30.308z"/>
	<path fill-rule="evenodd" clip-rule="evenodd" fill="#4D4534" d="M24.185,30.549c0.963,0,1.926,0,2.89,0
		C26.659,30.948,24.6,30.948,24.185,30.549z"/>
	<path fill-rule="evenodd" clip-rule="evenodd" fill="#BEA466" d="M63.92,32.716c-0.399,1.339-1.912,0.136-3.131,0.722
		C61.021,31.625,62.709,32.66,63.92,32.716z"/>
	<path fill-rule="evenodd" clip-rule="evenodd" fill="#4D4534" d="M20.091,32.476c-0.021,0.342-0.04,0.682,0.241,0.722
		c-0.189,0.553-1.491,0.234-1.204-0.481C19.342,32.529,19.671,32.457,20.091,32.476z"/>
	<path fill-rule="evenodd" clip-rule="evenodd" fill="#BEA466" d="M62.475,33.92c0.556-0.074,0.268,0.696,0.723,0.722
		c-0.074,0.327-0.604,0.2-0.964,0.241C62.203,34.452,62.528,34.375,62.475,33.92z"/>
	<path fill-rule="evenodd" clip-rule="evenodd" fill="#4D4534" d="M29.724,35.847c0.711,0.361,0.385,1.205-0.481,1.204
		C29.063,36.31,29.903,36.588,29.724,35.847z"/>
	<path fill-rule="evenodd" clip-rule="evenodd" fill="#4D4534" d="M25.63,37.533c0.294-0.729,0.919,0.17,1.204,0.241
		C26.593,38.449,25.72,37.798,25.63,37.533z"/>
	<path fill-rule="evenodd" clip-rule="evenodd" fill="#4D4534" d="M51.397,38.737c1.056-0.253,0.791,0.814,1.686,0.722
		C52.886,40.335,51.302,39.62,51.397,38.737z"/>
	<path fill-rule="evenodd" clip-rule="evenodd" fill="#4D4534" d="M86.074,46.202c-0.575,0.629-0.985,1.423-1.926,1.686
		C84.042,46.577,85.137,46.468,86.074,46.202z"/>
	<path fill-rule="evenodd" clip-rule="evenodd" fill="#4D4534" d="M83.426,47.647c0.146,0.477-0.655,2.066-1.686,2.167
		C81.956,48.746,82.711,48.216,83.426,47.647z"/>
	<path fill-rule="evenodd" clip-rule="evenodd" fill="#4D4534" d="M70.181,83.528c-0.155,1.049,0.314,2.723-0.241,3.371
		C70.096,85.851,69.626,84.178,70.181,83.528z"/>
	<path fill-rule="evenodd" clip-rule="evenodd" fill="#2A2E29" d="M57.899,84.01c0.658-0.175,0.485,0.479,0.963,0.481
		c-0.061,1.156-0.992,1.365-1.686,0.723C57.063,84.458,57.477,84.23,57.899,84.01z"/>
	<path fill-rule="evenodd" clip-rule="evenodd" fill="#2A2E29" d="M56.213,85.214c0.526,0.036,0.517,0.607,0.481,1.204
		C56.206,86.242,55.712,85.693,56.213,85.214z"/>
	<path fill-rule="evenodd" clip-rule="evenodd" fill="#4D4534" d="M62.475,88.345c-0.778-0.185-1.26-0.666-1.445-1.445
		C61.683,86.423,62.343,87.547,62.475,88.345z"/>
	<path fill-rule="evenodd" clip-rule="evenodd" fill="#2A2E29" d="M57.899,86.899c0.752-0.109,0.77,0.515,0.723,1.204
		C57.84,88.182,57.339,87.456,57.899,86.899z"/>
	<path fill-rule="evenodd" clip-rule="evenodd" fill="#4D4534" d="M59.104,89.308c0.423,0.059,0.549,0.415,0.481,0.964
		c0.683-0.415,1.921-0.54,2.167-0.723c0.456,1.264-0.071,3.617-1.204,4.094c0.294-1.195-0.147-0.238-0.723-1.445
		c0.594,0.032,1.161,0.037,1.445-0.24c-0.074-0.563-0.472-0.995,0-1.445c-0.737,0.306-2.074,0.013-1.927,1.204
		C58.366,91.591,58.439,89.733,59.104,89.308z"/>
	<path fill-rule="evenodd" clip-rule="evenodd" fill="#4D4534" d="M59.585,93.401c-1.636,0.111-3.037-0.013-2.89-1.686
		C57.521,92.843,59.011,92.46,59.585,93.401z"/>
	<path fill-rule="evenodd" clip-rule="evenodd" fill="#4D4534" d="M61.029,96.051c-0.174-0.548-1.666,0.222-1.444-0.723
		C60.129,95.168,61.137,94.966,61.029,96.051z"/>
	<path fill-rule="evenodd" clip-rule="evenodd" fill="#4D4534" d="M58.381,97.978c-0.459,0.584-0.631,1.455-0.963,2.167
		C56.546,99.835,57.388,97.933,58.381,97.978z"/>
	<path fill-rule="evenodd" clip-rule="evenodd" fill="#4D4534" d="M57.177,101.349c0.099,0.58-0.44,0.523-0.241,1.204
		C55.895,102.483,56.25,101.278,57.177,101.349z"/>
	<path fill-rule="evenodd" clip-rule="evenodd" fill="#D5D3CC" d="M9.736,113.39c0-0.08,0-0.16,0-0.241c0.161,0,0.321,0,0.482,0
		c0.241,0,0.481,0,0.722,0c0.642,0,1.285,0,1.927,0c0.321,0,0.642,0,0.963,0c0.883,0,1.766,0,2.649,0c0,0.081,0,0.161,0,0.241
		C14.231,113.39,11.983,113.39,9.736,113.39z"/>
	<path fill-rule="evenodd" clip-rule="evenodd" fill="#FFFFFF" d="M16.479,113.39c0-0.08,0-0.16,0-0.241c0.803,0,1.605,0,2.408,0
		c0,0.081,0,0.161,0,0.241C18.084,113.39,17.282,113.39,16.479,113.39z"/>
	<path fill-rule="evenodd" clip-rule="evenodd" fill="#FFFFFF" d="M30.928,113.39c0.014-0.147,0.036-0.285,0.241-0.241
		c0.883,0,1.766,0,2.649,0c0,0.081,0,0.161,0,0.241C32.854,113.39,31.891,113.39,30.928,113.39z"/>
	<path fill-rule="evenodd" clip-rule="evenodd" fill="#D5D3CC" d="M75.238,36.087c0.654,1.111-0.306,3.838,0.963,4.335
		C74.532,40.326,75.492,37.599,75.238,36.087z"/>
	<path fill-rule="evenodd" clip-rule="evenodd" fill="#4D4534" d="M89.687,47.165c0.794,0.089,1.204,0.563,1.687,0.963
		c0.106,0.214,0.211,0.431,0.481,0.481C91.402,48.811,90.149,47.755,89.687,47.165z"/>
	<path fill-rule="evenodd" clip-rule="evenodd" fill="#4D4534" d="M74.034,79.676c1.217,0.468,1.832,1.539,2.648,2.407
		C75.368,81.712,74.906,80.488,74.034,79.676z"/>
	<path fill-rule="evenodd" clip-rule="evenodd" fill="#4D4534" d="M99.079,94.124c0.697,0.747,1.744,1.146,2.167,2.168
		c-0.932-0.434-1.642-1.088-2.167-1.927C99.079,94.285,99.079,94.204,99.079,94.124z"/>
	<path fill-rule="evenodd" clip-rule="evenodd" fill="#BEA466" d="M86.557,89.308c0.872,0.653,2.265,0.785,3.13,1.445
		c0.44,0.764,1.569,0.84,2.408,1.204c1.807,0.683,3.708,1.27,5.058,2.408c0.79,0.815,1.847,1.364,2.648,2.167
		c3.626,4.633,2.211,9.69,3.131,16.616c-0.642,0-1.284,0-1.927,0c-0.271-5.021-0.922-10.876-2.648-14.689
		c-0.35,2.033,0.389,4.717,0.723,7.225c0.345,2.596,0.611,5.196,1.204,7.465c0,0.081,0,0.161,0,0.241c-0.081,0-0.161,0-0.241,0
		c-1.929-0.561-4.896-0.082-7.225-0.241c-0.258-9.003-0.269-13.116-3.131-20.951c-0.665,2.404,1.37,6.514,1.204,10.597
		c0.188,1.245-0.009,1.724,0.482,2.89c0.238,2.49,0.232,5.226,0.722,7.465c-2.432-0.268-5.398,0.159-8.429,0
		c0.812-5.138-0.71-7.43,0-10.836c0.482-2.314,3.337-4.482,2.649-7.466c-0.957-0.452-2.324-0.156-2.89,0.481
		c-0.766-2.695-0.132-4.318-1.445-6.742c-0.919,0.863,0.721,5.313,0.241,7.224c-0.479-0.4-0.307,0.022-0.964,0
		c-1.781-2.679-1.865-6.244-2.89-9.392c1.415,0.271,2.303,1.069,3.854,1.204c0.16,0,0.321,0,0.481,0
		C83.523,88.647,85.031,88.987,86.557,89.308z"/>
	<path fill-rule="evenodd" clip-rule="evenodd" fill="#4D4534" d="M80.055,108.092c0.607-0.597,0.491-1.916,1.444-2.168
		C80.935,106.564,80.847,107.68,80.055,108.092z"/>
	<path fill-rule="evenodd" clip-rule="evenodd" fill="#BEA466" d="M72.589,112.908c0.653-3.762,0.926-9.426,1.445-14.208
		c1.013-0.05,1.011,0.915,1.926,0.963c2.555-1.86,5.73-3.101,9.151-4.094c-1.412,6.134-5.338,9.753-7.465,15.171
		c1.051,0.323,1.946-1.58,2.408-2.648c0.792-0.412,0.88-1.527,1.444-2.168c0.645-0.479,0.515-1.732,1.445-1.926
		c-0.321,2.991,0.022,4.213,0,9.15C79.565,112.996,75.569,113.46,72.589,112.908z M82.703,98.94
		C85.312,98.359,81.591,96.048,82.703,98.94L82.703,98.94z"/>
	<path fill-rule="evenodd" clip-rule="evenodd" fill="#4D4534" d="M51.879,104.961c-0.755-0.851-1.3-1.91-1.686-3.131
		C50.87,102.76,51.359,103.875,51.879,104.961z"/>
	<path fill-rule="evenodd" clip-rule="evenodd" fill="#827651" d="M24.185,90.994c0.291-0.833,1.477-0.771,2.167-1.204
		C25.882,90.443,24.875,90.561,24.185,90.994z"/>
	<path fill-rule="evenodd" clip-rule="evenodd" fill="#4D4534" d="M33.817,58.483c0.393-0.532,1.414,0.336,1.927,0.481
		c-0.39,0.509,0.956,2.325,1.926,1.445c0.04,0.484,0.468,1.617,0.241,2.167C36.826,60.934,35.435,59.596,33.817,58.483z"/>
	<path fill-rule="evenodd" clip-rule="evenodd" fill="#4D4534" d="M22.74,37.533c0.88,0.725,2.65,0.561,3.13,1.686
		C24.71,38.773,23.5,38.378,22.74,37.533z"/>
	<path fill-rule="evenodd" clip-rule="evenodd" fill="#827651" d="M19.609,35.365c1.021,0.505,1.908,1.142,2.649,1.926
		C20.894,37.131,20.307,36.192,19.609,35.365z"/>
	<path fill-rule="evenodd" clip-rule="evenodd" fill="#4D4534" d="M32.373,30.308c-0.366,0.745-1.912,0.265-2.649,0
		c0.401,0,0.803,0,1.204,0C31.409,30.308,31.891,30.308,32.373,30.308z"/>
	<path fill-rule="evenodd" clip-rule="evenodd" fill="#4D4534" d="M56.454,12.247c-0.236,1.129-1.436,1.294-1.926,2.167
		C54.384,13.86,55.518,12.521,56.454,12.247z"/>
	<path fill-rule="evenodd" clip-rule="evenodd" fill="#827651" d="M39.116,28.141c-0.121-1.485,0.11-2.619,0.722-3.372
		C39.576,25.872,39.534,27.195,39.116,28.141z"/>
	<path fill-rule="evenodd" clip-rule="evenodd" fill="#827651" d="M59.104,36.087c-0.957-0.408-2.194-0.535-2.89-1.204
		c0.093-0.231,1.576,0.174,1.686,0.723c0.717,0.012,1.222-0.708,1.686-0.241C59.5,35.682,59.161,35.744,59.104,36.087z"/>
	<path fill-rule="evenodd" clip-rule="evenodd" fill="#4D4534" d="M64.883,29.585c0.318-0.458,1.519,0.231,1.927,0.482
		C66.476,30.54,65.565,29.562,64.883,29.585z"/>
	<path fill-rule="evenodd" clip-rule="evenodd" fill="#4D4534" d="M59.344,28.141c0.391,0.493,1.777-0.011,2.168,0.481
		c0.044,0.205-0.095,0.228-0.241,0.241c-0.08,0-0.16,0-0.241,0C60.849,28.242,59.248,29.039,59.344,28.141z"/>
	<path fill-rule="evenodd" clip-rule="evenodd" fill="#BEA466" d="M56.213,34.883c-4.455-1.771-9.055-4.106-16.135-4.334
		c0.146-1.328,0.068-2.184,0.723-3.372c2.497,0.416,5.724-0.373,8.429,0c0.57,0.554,2.161,0.086,3.13,0.241
		c2.7,0.238,4.256,0.142,6.262,0.963c0.208,0.606,1.822,1.051,2.407,0.482c0.081,0,0.161,0,0.241,0
		c0.436,0.367,0.737,0.868,1.686,0.722c-0.1,0.542-1.32-0.036-1.204,0.723c0.286,0.597,1.476,0.29,1.204,1.445
		c-0.597,0.62-0.857-0.163-1.204-0.481c-1.415,0.39-0.885,1.229-1.444,2.408c-0.017,0.818,1.236,0.368,1.204,1.204
		c-0.759-0.27-0.546-0.021-1.445,0c-0.336,0.692,0.656,1.224,0,1.445c-0.432,0.03-0.508-0.295-0.963-0.241
		c0.058-0.343,0.396-0.406,0.481-0.722c-0.464-0.468-0.969,0.253-1.686,0.241C57.79,35.057,56.306,34.652,56.213,34.883z"/>
	<path fill-rule="evenodd" clip-rule="evenodd" fill="#827651" d="M58.622,28.381c0.135-0.544,0.375,0.292,0.722-0.241
		c-0.096,0.898,1.505,0.101,1.686,0.723C60.444,29.433,58.83,28.988,58.622,28.381z"/>
	<path fill-rule="evenodd" clip-rule="evenodd" fill="#827651" d="M61.512,28.622c0.979,0.737,1.696,0.424,3.371,0.963
		c0.683-0.024,1.593,0.955,1.927,0.482c2.62,1.124,4.575,1.425,7.465,2.649c-0.445,2.534-0.262,4.408-0.481,6.502
		c-4.905-1.931-8.693-2.306-13.727-2.89c0.656-0.222-0.336-0.753,0-1.445c0.899-0.021,0.687-0.27,1.445,0
		c0.032-0.835-1.221-0.385-1.204-1.204c0.56-1.179,0.029-2.018,1.444-2.408c0.347,0.318,0.607,1.101,1.204,0.481
		c0.271-1.155-0.918-0.848-1.204-1.445c-0.116-0.759,1.104-0.18,1.204-0.723c-0.948,0.146-1.25-0.355-1.686-0.722
		C61.417,28.85,61.556,28.827,61.512,28.622z M60.789,33.438c1.219-0.586,2.731,0.617,3.131-0.722
		C62.709,32.66,61.021,31.625,60.789,33.438z M62.233,34.883c0.36-0.041,0.89,0.086,0.964-0.241
		c-0.455-0.026-0.167-0.796-0.723-0.722C62.528,34.375,62.203,34.452,62.233,34.883z"/>
	<path fill-rule="evenodd" clip-rule="evenodd" fill="#4D4534" d="M28.76,31.753c-0.006,0.234-0.294,0.187-0.481,0.241
		c0.105,0.296,0.308,0.495,0.722,0.482c-1.084,0.302-2.651-0.024-3.371-0.482c0.256-0.546,1.514-0.092,2.167-0.241
		C27.827,32.881,28.147,31.491,28.76,31.753z"/>
	<path fill-rule="evenodd" clip-rule="evenodd" fill="#4D4534" d="M41.042,35.125c-0.107-0.364,2.983,0,3.131,0.963
		C42.994,35.902,42.221,35.31,41.042,35.125z"/>
	<path fill-rule="evenodd" clip-rule="evenodd" fill="#827651" d="M37.189,51.5c0.399,0.243,0.262,1.022,0.481,1.445
		c1.061,0.313,0.987-0.013,1.686-0.482c-0.31,0.413-0.498,0.947-1.204,0.963C37.593,53.17,36.809,51.896,37.189,51.5z"/>
	<path fill-rule="evenodd" clip-rule="evenodd" fill="#827651" d="M70.903,51.259c0.02-0.075,0.184-2.053,0.723-2.408
		C71.312,49.58,71.524,50.836,70.903,51.259z"/>
	<path fill-rule="evenodd" clip-rule="evenodd" fill="#4D4534" d="M62.716,50.777c-0.705-0.499-1.318-1.09-1.687-1.926
		C61.812,49.273,62.233,50.055,62.716,50.777z"/>
	<path fill-rule="evenodd" clip-rule="evenodd" fill="#827651" d="M53.083,41.386c0.352-0.336,1.644,0.431,2.167,0.722
		C54.885,42.457,53.805,41.479,53.083,41.386z"/>
	<path fill-rule="evenodd" clip-rule="evenodd" fill="#4D4534" d="M51.156,40.663c-0.984-0.3-1.931-0.638-2.649-1.204
		C48.839,39.458,50.634,40.054,51.156,40.663z"/>
	<path fill-rule="evenodd" clip-rule="evenodd" fill="#827651" d="M44.173,37.773c1.344,0.421,2.83,0.702,3.612,1.686
		C46.935,38.699,44.291,38.463,44.173,37.773z"/>
	<path fill-rule="evenodd" clip-rule="evenodd" fill="#827651" d="M56.695,42.831c-0.023-0.142,3.163,0.361,1.686,0.963
		C59.061,42.994,56.932,43.459,56.695,42.831z"/>
	<path fill-rule="evenodd" clip-rule="evenodd" fill="#4D4534" d="M49.23,75.341c0.13-0.853-0.853-0.593-0.723-1.445
		c0.756-0.114,0.984,0.301,1.204,0.723C49.504,74.813,49.568,75.277,49.23,75.341z"/>
	<path fill-rule="evenodd" clip-rule="evenodd" fill="#D8B26F" d="M39.356,52.463c-1.459-4.537-0.613-11.718,1.686-15.653
		c1.427-0.063,2.233,0.496,3.131,0.963c0.118,0.69,2.762,0.926,3.612,1.686c0.241,0,0.482,0,0.723,0
		c0.718,0.566,1.665,0.904,2.649,1.204c1.04-0.157,1.35,0.416,1.927,0.723c0.722,0.093,1.802,1.071,2.167,0.722
		c0.719,0.004,0.819,0.626,1.445,0.723c0.237,0.629,2.366,0.163,1.686,0.963c1.257,1.312,1.407,3.73,2.648,5.057
		c0.368,0.836,0.981,1.427,1.687,1.926c1.558,1.403,3.876,1.611,5.538,0.723c2.092-1.118,1.922-4.156,3.372-5.539
		c0.266,1.059,0.056,1.38,0,2.89c-0.539,0.354-0.703,2.333-0.723,2.408c0.527,0.501-0.212,0.778,0.24,1.204
		c1.777-1.289,3.554-4.392,5.78-2.649c2.462,1.928,1.24,9.247-3.854,8.911c-1.327,5.778-2.947,12.132-6.021,15.412
		c-0.514,0.112-0.458-0.344-0.481-0.723c-1.4,1.135-1.564,2.555-2.648,3.612c-4.399,4.289-10.736,0.939-14.208-2.408
		c-0.22-0.422-0.448-0.837-1.204-0.723c-0.13,0.853,0.853,0.593,0.723,1.445c-7.362-2.213-9.49-8.614-11.078-17.339
		c-3.618,1.326-8.537-5.028-6.502-9.392c2.539-1.339,5.166,0.551,5.539,2.89c-0.38,0.396,0.404,1.67,0.963,1.926
		C38.858,53.41,39.047,52.876,39.356,52.463z M55.25,43.071c-4.242-1.634-10.419-0.943-14.449,2.167
		c0.427,0.602,0.307,0.26,1.204,0.241c-0.638,2.408,2.372,9.178,7.225,6.502c0.798-0.084,1.044-0.721,1.445-1.204
		c1.864-1.427,2.826-3.756,3.371-6.502C55.279,44.72,56.344,43.486,55.25,43.071z M58.381,49.092
		c-0.478-0.165,0.15-1.435-0.723-1.204c0.132,0.35-0.281,1.245,0.241,1.204c0.917,7.927,1.44,9.771,0,17.579
		c-3.048-1.367-4.73-4.1-5.779-7.465c0-0.08,0-0.161,0-0.241c-0.542-0.1,0.036-1.32-0.723-1.204
		c-0.412,0.483-0.351,1.952,0.241,2.167c-0.058,1.262,0.586,1.822,0.723,2.89c-0.559-0.077-0.924,0.038-1.204,0.24
		c0-0.24,0-0.481,0-0.722c-3.295,0.09-3.583-1.444-6.021-1.445c1.545,2.633,5.517,4.48,9.392,5.539
		c0.55,0.333,1.275,0.49,1.926,0.723c0.053,0.188,0.202,0.279,0.482,0.24c0.193,0.916-1.139,0.307-1.686,0.481
		c-1.034,0.016-1.483-0.584-2.89-0.722c-0.783-0.502-1.639-0.93-2.649-1.204c-1.743-1.058-3.656-2.434-4.576-3.612
		c-0.989,0.055-0.913,1.174-0.963,2.167c0.758,0.116,0.545-0.739,1.445-0.481c4.95,5.97,17.757,6.882,21.915-1.204
		c-2.483,1.221-4.855,4.608-8.91,5.057c-0.011-0.331,0.113-0.528,0.24-0.722c2.689-1.947,6.303-2.988,7.706-6.743
		c-1.361-0.419-2.994,0.815-4.094,1.444c-0.422-1.041,0.958-3.65-0.723-4.093c-0.494,1.295,0.425,4.949-2.167,4.816
		C59.593,57.042,59.772,54.675,58.381,49.092z M35.021,51.259c-0.938-0.76-2.141-2.091-3.13-1.445
		c-0.025,1.068,1.338,0.75,1.686,1.445c0.029,0.694-0.131,1.577,0.241,1.927c0.025,1.099,0.069,2.179,1.204,2.167
		c0.207-0.769-0.379-0.745-0.481-1.204c0.345-0.585-0.395-2.246,0.481-1.686c0.163,0.477,0.8,1.059,0.963,0.241
		C35.493,52.394,35.731,51.353,35.021,51.259z M72.348,54.149c1.13-0.155,0.931-1.639,2.168-1.686c0.613,1.079,0.411,2.392,0,3.612
		c2.036-0.571,1.492-3.18,1.204-4.575c0.639-0.004,1.418,0.133,1.444-0.482C74.121,50.256,72.655,51.458,72.348,54.149z
		 M67.532,62.096c0.331-0.011,0.528,0.113,0.722,0.241c0.328-0.307,0.372-1.18-0.24-1.204
		C68.011,61.611,67.356,61.438,67.532,62.096z M62.475,70.283c0.726-0.317,1.486-0.601,1.686-1.444
		c-0.598-0.036-0.999,0.124-1.204,0.481c-1.891,1.306-6.484,1.702-9.151,0.723c-0.979,0.016-1.163-0.764-2.167-0.723
		c0.038,0.283-0.041,0.684,0.241,0.723C55.027,71.773,58.788,72.346,62.475,70.283z"/>
	<path fill-rule="evenodd" clip-rule="evenodd" fill="#827651" d="M55.25,43.071c1.094,0.415,0.029,1.648-1.204,1.204
		C54.478,43.9,56.154,44.046,55.25,43.071z"/>
	<path fill-rule="evenodd" clip-rule="evenodd" fill="#2A2E29" d="M49.23,51.981c-4.853,2.676-7.863-4.094-7.225-6.502
		c-0.897,0.019-0.777,0.361-1.204-0.241c4.03-3.11,10.207-3.802,14.449-2.167c0.904,0.975-0.772,0.829-1.204,1.204
		c-0.545,2.746-1.507,5.075-3.371,6.502C49.876,50.862,49.63,51.499,49.23,51.981z M52.842,44.516
		c-0.339-0.754-2.479-0.984-2.89-0.241c-0.479,1.045-0.413,2.638-1.686,2.89c-1.08-0.001-1.075,0.409-1.927,0
		c-0.736-0.468-0.969-1.439-0.963-2.649c-0.906,0.218-1.603,0.645-2.408,0.963c0.09,3.683,1.197,6.349,5.539,5.779
		C50.707,49.766,52.108,47.475,52.842,44.516z M47.063,45.961c-0.243-0.978,0.731-1.678-0.482-1.686
		C46.182,44.703,46.231,46.04,47.063,45.961z"/>
	<path fill-rule="evenodd" clip-rule="evenodd" fill="#4D4534" d="M50.675,50.777c-0.4,0.483-0.647,1.12-1.445,1.204
		C49.63,51.499,49.876,50.862,50.675,50.777z"/>
	<path fill-rule="evenodd" clip-rule="evenodd" fill="#BEA466" d="M49.952,44.275c0.41-0.744,2.551-0.513,2.89,0.241
		C51.944,44.354,51.119,44.067,49.952,44.275z"/>
	<path fill-rule="evenodd" clip-rule="evenodd" fill="#D5D3CC" d="M46.581,44.275c1.213,0.008,0.239,0.708,0.482,1.686
		C46.231,46.04,46.182,44.703,46.581,44.275z"/>
	<path fill-rule="evenodd" clip-rule="evenodd" fill="#827651" d="M61.271,47.647c0.889,0.556,1.143,1.747,1.927,2.408
		C62.293,49.515,61.768,48.594,61.271,47.647z"/>
	<path fill-rule="evenodd" clip-rule="evenodd" fill="#BEA466" d="M63.438,44.516c0.874,0.219,0.147,0.711,0.241,1.445
		C62.558,46.045,63.018,44.83,63.438,44.516z"/>
	<path fill-rule="evenodd" clip-rule="evenodd" fill="#827651" d="M69.699,45.72c-0.843,0.338-1.542-0.675-1.927,0
		c-0.234-0.006-0.187-0.295-0.24-0.481C68.433,45.221,69.196,45.34,69.699,45.72z"/>
	<path fill-rule="evenodd" clip-rule="evenodd" fill="#BEA466" d="M46.34,47.165c0.852,0.409,0.847-0.001,1.927,0
		C48.374,47.773,46.177,48.034,46.34,47.165z"/>
	<path fill-rule="evenodd" clip-rule="evenodd" fill="#4D4534" d="M51.638,59.929c-0.591-0.216-0.652-1.685-0.241-2.167
		c0.759-0.117,0.181,1.104,0.723,1.204c0,0.08,0,0.161,0,0.241C51.687,59.175,51.556,59.445,51.638,59.929z"/>
	<path fill-rule="evenodd" clip-rule="evenodd" fill="#4D4534" d="M56.936,67.394c0.533,0.504,1.604,0.188,1.926-0.24
		c-0.127,0.193-0.251,0.391-0.24,0.722c0,0.081,0,0.161,0,0.241c-1.049-0.155-2.723,0.314-3.372-0.241
		C55.797,67.7,57.129,68.31,56.936,67.394z"/>
	<path fill-rule="evenodd" clip-rule="evenodd" fill="#4D4534" d="M54.528,66.431c0.301-0.363,1.652,0.261,1.926,0.723
		C55.803,66.921,55.078,66.764,54.528,66.431z"/>
	<path fill-rule="evenodd" clip-rule="evenodd" fill="#4D4534" d="M33.817,53.186c0.639-0.077-0.225,1.349,0.723,0.963
		c0.103,0.459,0.688,0.436,0.481,1.204C33.886,55.365,33.843,54.284,33.817,53.186z"/>
	<path fill-rule="evenodd" clip-rule="evenodd" fill="#4D4534" d="M35.021,51.259c0.709,0.094,0.471,1.135,0.963,1.445
		c-0.163,0.818-0.8,0.236-0.963-0.241C35.943,53.11,35.265,51.56,35.021,51.259z"/>
	<path fill-rule="evenodd" clip-rule="evenodd" fill="#2A2E29" d="M33.817,53.186c-0.372-0.35-0.212-1.233-0.241-1.927
		c-0.348-0.695-1.71-0.376-1.686-1.445c0.989-0.646,2.192,0.685,3.13,1.445c0.244,0.301,0.922,1.851,0,1.204
		c-0.876-0.56-0.136,1.101-0.481,1.686C33.592,54.535,34.456,53.109,33.817,53.186z"/>
	<path fill-rule="evenodd" clip-rule="evenodd" fill="#2A2E29" d="M68.014,61.133c0.612,0.024,0.568,0.897,0.24,1.204
		c-0.193-0.128-0.391-0.252-0.722-0.241C67.356,61.438,68.011,61.611,68.014,61.133z"/>
	<path fill-rule="evenodd" clip-rule="evenodd" fill="#2A2E29" d="M58.622,67.875c4.055-0.448,6.427-3.836,8.91-5.057
		c-4.157,8.086-16.965,7.174-21.915,1.204c-0.9-0.258-0.687,0.598-1.445,0.481c0.05-0.993-0.026-2.112,0.963-2.167
		c0.919,1.179,2.833,2.555,4.576,3.612c0.733,0.551,1.586,0.981,2.649,1.204c1.406,0.138,1.856,0.737,2.89,0.722
		c0.649,0.556,2.323,0.086,3.372,0.241C58.622,68.036,58.622,67.956,58.622,67.875z"/>
	<path fill-rule="evenodd" clip-rule="evenodd" fill="#4D4534" d="M49.711,65.949c1.01,0.274,1.866,0.702,2.649,1.204
		C51.298,66.931,50.444,66.5,49.711,65.949z"/>
	<path fill-rule="evenodd" clip-rule="evenodd" fill="#827651" d="M51.879,70.043c-0.282-0.039-0.203-0.439-0.241-0.723
		c1.004-0.041,1.188,0.738,2.167,0.723c-0.343,0.559-1.306-0.28-1.686-0.482C51.932,69.614,51.839,69.763,51.879,70.043z"/>
	<path fill-rule="evenodd" clip-rule="evenodd" fill="#4D4534" d="M62.956,69.32c0.205-0.357,0.606-0.518,1.204-0.481
		c-0.199,0.844-0.96,1.127-1.686,1.444C62.547,70,63.75,69.679,62.956,69.32z"/>
	<path fill-rule="evenodd" clip-rule="evenodd" fill="#BEA466" d="M72.107,80.157c5.908,1.79,5.874,11.349,7.465,16.616
		c-1.716,0.13-2.563,1.129-4.094,1.444c-0.501-0.301-1.016-0.59-1.444-0.963c-0.287-6.056,0.204-10.868-1.445-15.412
		c-0.45,5.929,0.709,6.893,0.481,14.689c-1.613-0.987-2.411-1.388-4.094-2.167c0.295-3.229,1.4-5.054,0.963-7.466
		c0.556-0.648,0.086-2.322,0.241-3.371c0-2.079-0.418-2.615,0-4.094C71.174,79.178,71.838,80.488,72.107,80.157z"/>
	<path fill-rule="evenodd" clip-rule="evenodd" fill="#827651" d="M70.181,79.435c-0.08,0-0.16,0-0.241,0
		c0.204-1.017,1.829,0.31,2.168,0.723C71.838,80.488,71.174,79.178,70.181,79.435z"/>
	<path fill-rule="evenodd" clip-rule="evenodd" fill="#2A2E29" d="M39.838,24.769c1.125-2.888,2.995-5.032,5.057-6.983
		c2.36-0.957,4.534-2.152,6.984-3.853c2.223-1.543,4.018-4.172,6.502-4.576c4.53-0.735,7.608,2.704,12.041,3.372
		c2.77,6.622,4.336,14.448,4.816,23.359c0.254,1.512-0.706,4.238,0.963,4.335c5.13,1.613,9.321,4.165,13.485,6.743
		c0.463,0.59,1.716,1.646,2.168,1.445c-0.271-0.051-0.375-0.267-0.481-0.481c0.646,0.558,2.041,1.379,1.444,2.408
		c-0.338,0.385-0.829,0.615-1.444,0.722c-0.594-0.032-1.161-0.036-1.445,0.241c-0.78-0.365-2.279-0.481-2.408-0.241
		c-2.751-0.106-3.992-0.363-6.502-0.481c-0.436-0.786-0.884-0.063-1.927-0.241c-0.147,0.214-0.291,0.431,0,0.481
		c0.742,6.12-2.672,8.084-5.539,10.596c-0.701,2.911-1.223,5.854-2.408,8.429c-0.474,1.031-1.482,1.766-1.686,2.89
		c-0.246,1.368,0.313,2.775,0.481,4.335c1.065,1.103,2.969,1.366,4.095,2.408c0.872,0.813,1.334,2.036,2.648,2.407
		c0.725,0.641,0.736,1.993,1.445,2.649c7.284,2.829,14.438,5.791,20.951,9.392c0,0.08,0,0.161,0,0.241
		c0.525,0.839,1.235,1.493,2.167,1.927c1.133,2.56,2.582,4.803,2.408,8.669c-0.419,2.552,0.876,6.816-0.723,8.188
		c-0.92-6.926,0.495-11.983-3.131-16.616c-0.456-1.149-1.583-1.627-2.648-2.167c-1.35-1.139-3.251-1.726-5.058-2.408
		c-0.589-0.615-1.585-0.823-2.408-1.204c-0.865-0.66-2.258-0.792-3.13-1.445c-1.287-0.559-2.541-1.151-3.854-1.686
		c-0.16,0-0.321,0-0.481,0c-1.202-0.327-2.703-1.625-3.854-1.204c1.024,3.147,1.108,6.713,2.89,9.392c0.657,0.022,0.485-0.4,0.964,0
		c0.479-1.91-1.16-6.36-0.241-7.224c1.313,2.424,0.68,4.047,1.445,6.742c0.565-0.638,1.933-0.934,2.89-0.481
		c0.688,2.983-2.167,5.151-2.649,7.466c-0.71,3.406,0.812,5.698,0,10.836c-0.24,0-0.481,0-0.722,0c0.022-4.938-0.321-6.159,0-9.15
		c-0.931,0.193-0.801,1.446-1.445,1.926c-0.953,0.252-0.837,1.571-1.444,2.168c-0.462,1.068-1.357,2.972-2.408,2.648
		c2.127-5.418,6.053-9.037,7.465-15.171c-3.421,0.993-6.597,2.233-9.151,4.094c-0.915-0.048-0.913-1.013-1.926-0.963
		c-0.52,4.782-0.792,10.446-1.445,14.208c0.041,0.521-0.854,0.108-1.204,0.24c1.145-4.707,1.44-11.848,1.686-14.931
		c-0.953-1.294-2.749-1.745-4.094-2.648c-2.778,5.842-3.643,18.031-12.282,16.375c-2.651-1.282-3.378-4.488-4.816-6.983
		c-0.52-1.086-1.009-2.201-1.686-3.131c-1.516-1.775-2.052-4.53-3.13-6.742c-2.163,0.728-4.185,1.595-6.021,2.648
		c-0.513,3.373,0.756,11.498,1.445,15.412c-0.401,0-0.803,0-1.204,0c-0.595-6.118-1.154-8.675-1.204-14.448
		c-0.56-0.466-1.279,0.957-2.167,0.963c-2.658-2.177-6.104-3.123-9.151-4.094c1.222,5.679,5.584,10.323,7.465,15.171
		c-2.557-0.478-3.353-5.029-5.057-6.502c-0.222,3.206-0.011,4.962-0.241,8.67c-0.007,0.234-0.295,0.187-0.481,0.24
		c-1.25-3.34,0.374-7.583-0.241-10.836c-0.534-2.827-3.85-5.054-2.408-7.466c1.114-0.502,1.485-0.048,2.408,0.241
		c1.382-1.946,0.048-5.118,1.927-6.502c0.357,2.344-1.544,6.048,0.481,7.465c1.537-2.549,1.639-6.631,2.89-9.873
		c-3.236,1.018-6.206,2.303-9.151,3.612c-0.69,0.433-1.876,0.371-2.167,1.204c-3.064,1.337-5.963,1.91-8.669,4.094
		c-5.098,4.112-3.631,12.828-4.576,18.061c-0.241,0-0.481,0-0.722,0c-0.462-0.582-0.152-1.935-0.241-2.89c0-0.321,0-0.642,0-0.963
		c0.554-0.57,0.086-2.161,0.241-3.131c-0.292-6.631,2.264-10.53,6.02-13.004c5.429-3.575,14.037-5.866,19.506-8.67
		c1.429-3.387,3.841-5.791,7.947-6.502c2.254-4.73-2.938-6.569-4.094-10.114c0.05-2.377-1.527-3.129-1.686-5.298
		c0.227-0.55-0.202-1.683-0.241-2.167c-0.971,0.88-2.316-0.937-1.926-1.445c-0.513-0.146-1.534-1.013-1.927-0.481
		c-2.295-0.996-3.077-3.505-3.612-6.261c-0.157-1.368,0.317-3.367-0.241-4.334c-1.759-1.877-2.836-3.921-2.167-7.706
		c-0.655-0.309-1.174-0.752-1.927-0.963c-0.48-1.125-2.25-0.961-3.13-1.686c-0.187-0.054-0.475-0.007-0.482-0.241
		c-0.741-0.784-1.628-1.421-2.649-1.926c-2.983-1.138-1.329-5.061,1.927-4.576c0.993,0.03,1.508-0.418,2.649-0.241
		c0.415,0.399,2.474,0.399,2.89,0c0.342,0.021,0.682,0.04,0.723-0.241c0.642,0,1.284,0,1.926,0c0.737,0.265,2.283,0.745,2.649,0
		c1.686,0,3.372,0,5.057,0c0.423-0.139,1.415,0.291,1.445-0.241c-0.442-0.227,0.372-1.215,0.241-1.927
		C39.534,27.195,39.576,25.872,39.838,24.769z M40.801,84.01c0.112-0.851-0.394-2.32,0.722-2.167
		c-0.535,6.791-0.651,10.612-0.722,14.449c2.329-0.774,2.966-1.813,5.779-1.927c-1.223-4.672-3.869-9.251-2.89-14.689
		c-8.308,1.278-7.106,10.217-9.632,16.856c1.585,0.422,2.706,1.308,4.334,1.686c0.599-0.444,1.359-0.728,1.686-1.444
		c-0.499-2.058,0.064-4.187,0-7.706c0.575-0.485,0.499-1.766,0.241-1.927c-0.094-0.344-0.289-0.406,0-0.723
		C40.843,85.45,40.571,85.017,40.801,84.01z M54.528,14.414c0.491-0.874,1.69-1.039,1.926-2.167
		C55.518,12.521,54.384,13.86,54.528,14.414z M52.12,18.749c0.379,0.351,1.342-0.073,1.686-0.482
		C53.399,17.89,52.699,18.576,52.12,18.749z M44.895,20.194c0.326,0.076,0.46,0.343,0.963,0.241
		c-0.199-0.681,0.339-0.624,0.241-1.204C45.393,19.247,45.205,19.781,44.895,20.194z M42.246,23.565
		c0.762,0.356,1.158-1.383,0.241-1.204C42.585,22.941,42.047,22.885,42.246,23.565z M47.785,25.492
		c-1.071,0.188-1.445-0.321-2.408-0.241C45.122,26.344,47.712,26.211,47.785,25.492z M53.083,25.973
		c-1.072-0.505-2.541-0.544-3.372-0.241C50.564,25.931,52.449,26.355,53.083,25.973z M49.23,27.177
		c-2.705-0.373-5.932,0.416-8.429,0c-0.655,1.188-0.576,2.044-0.723,3.372c7.08,0.229,11.68,2.564,16.135,4.334
		c0.696,0.669,1.933,0.796,2.89,1.204c0.455-0.054,0.531,0.271,0.963,0.241c5.033,0.583,8.821,0.958,13.727,2.89
		c0.22-2.094,0.036-3.968,0.481-6.502c-2.89-1.224-4.845-1.525-7.465-2.649c-0.408-0.25-1.608-0.939-1.927-0.482
		c-1.675-0.539-2.393-0.226-3.371-0.963c-0.391-0.492-1.777,0.011-2.168-0.481c-0.347,0.533-0.587-0.303-0.722,0.241
		c-2.005-0.821-3.562-0.725-6.262-0.963C51.791,26.864,50.199,27.332,49.23,27.177z M27.797,31.753
		c-0.654,0.149-1.912-0.306-2.167,0.241c0.72,0.458,2.287,0.784,3.371,0.482c-0.414,0.013-0.617-0.186-0.722-0.482
		c0.187-0.054,0.475-0.006,0.481-0.241C28.147,31.491,27.827,32.881,27.797,31.753z M19.128,32.716
		c-0.287,0.716,1.015,1.034,1.204,0.481c-0.281-0.041-0.262-0.38-0.241-0.722C19.671,32.457,19.342,32.529,19.128,32.716z
		 M44.173,36.087c-0.147-0.962-3.238-1.327-3.131-0.963C42.221,35.31,42.994,35.902,44.173,36.087z M29.242,37.051
		c0.866,0.001,1.193-0.843,0.481-1.204C29.903,36.588,29.063,36.31,29.242,37.051z M44.173,37.773
		c-0.898-0.467-1.704-1.026-3.131-0.963c-2.299,3.935-3.145,11.116-1.686,15.653c-0.699,0.469-0.625,0.795-1.686,0.482
		c-0.22-0.422-0.083-1.202-0.481-1.445c-0.373-2.339-3-4.229-5.539-2.89c-2.035,4.364,2.884,10.718,6.502,9.392
		c1.588,8.725,3.715,15.126,11.078,17.339c0.338-0.063,0.274-0.528,0.481-0.723c3.472,3.348,9.809,6.697,14.208,2.408
		c1.084-1.058,1.248-2.478,2.648-3.612c0.023,0.379-0.032,0.835,0.481,0.723c3.073-3.28,4.693-9.634,6.021-15.412
		c5.094,0.336,6.315-6.983,3.854-8.911c-2.227-1.743-4.003,1.36-5.78,2.649c-0.452-0.426,0.287-0.703-0.24-1.204
		c0.621-0.422,0.408-1.679,0.723-2.408c0.056-1.51,0.266-1.832,0-2.89c-1.45,1.383-1.28,4.421-3.372,5.539
		c-1.662,0.888-3.98,0.68-5.538-0.723c-0.482-0.722-0.904-1.504-1.687-1.926c-1.241-1.327-1.392-3.745-2.648-5.057
		c1.477-0.602-1.709-1.105-1.686-0.963c-0.626-0.097-0.726-0.719-1.445-0.723c-0.523-0.291-1.815-1.059-2.167-0.722
		c-0.577-0.307-0.887-0.879-1.927-0.723c-0.522-0.609-2.317-1.205-2.649-1.204c-0.241,0-0.481,0-0.723,0
		C47.003,38.475,45.517,38.195,44.173,37.773z M26.834,37.773c-0.285-0.071-0.91-0.97-1.204-0.241
		C25.72,37.798,26.593,38.449,26.834,37.773z M53.083,39.459c-0.895,0.092-0.63-0.976-1.686-0.722
		C51.302,39.62,52.886,40.335,53.083,39.459z M62.233,47.165c-0.612-0.511-0.579-1.668-0.722-2.649
		c-0.424,0.139-1.415-0.291-1.445,0.241c0.404,0.96,0.915,1.814,1.204,2.89c0.497,0.947,1.022,1.868,1.927,2.408
		c3.213,2.105,7.064-0.366,6.502-4.335c-0.503-0.38-1.267-0.5-2.167-0.481c-0.581,0.099-0.523-0.44-1.204-0.241
		c0.275,0.998-0.507,0.938-0.482,1.686C65.2,47.551,63.451,47.53,62.233,47.165z M63.679,45.961
		c-0.094-0.734,0.633-1.226-0.241-1.445C63.018,44.83,62.558,46.045,63.679,45.961z M84.148,47.888
		c0.94-0.263,1.351-1.057,1.926-1.686C85.137,46.468,84.042,46.577,84.148,47.888z M81.74,49.814c1.03-0.101,1.831-1.69,1.686-2.167
		C82.711,48.216,81.956,48.746,81.74,49.814z M70.181,79.435c-0.418,1.479,0,2.015,0,4.094c-0.555,0.649-0.085,2.322-0.241,3.371
		c0.438,2.412-0.668,4.237-0.963,7.466c1.683,0.779,2.48,1.18,4.094,2.167c0.228-7.797-0.932-8.761-0.481-14.689
		c1.649,4.544,1.158,9.356,1.445,15.412c0.429,0.373,0.943,0.662,1.444,0.963c1.53-0.315,2.378-1.314,4.094-1.444
		c-1.591-5.268-1.557-14.826-7.465-16.616c-0.339-0.413-1.964-1.739-2.168-0.723C70.021,79.435,70.101,79.435,70.181,79.435z
		 M56.695,91.716c-0.147,1.673,1.254,1.797,2.89,1.686C59.011,92.46,57.521,92.843,56.695,91.716z M57.417,91.716
		c0.059-0.744,1.199-0.406,0.963-1.444c-0.756-0.122-0.984,0.567-1.204-0.241c0.349-0.453,0.354-1.251,0.963-1.444
		c1.411,0.521,1.281-0.225,2.408,0.722c-0.13-0.853,0.854-0.592,0.723-1.444c-0.669-0.667-1.575,0.402-1.927-0.481
		c-0.035-0.598-0.045-1.169,0.481-1.204c0.568,0.31,0.448-0.032,1.204,0.24c-0.037-0.509-2.761-4.229-3.853-4.094
		c0,0-3.116,3.573-3.131,3.612c-0.659,1.79,0.663,3.534,1.927,4.335c0.648-0.771-0.583-0.85,0-1.686
		c-0.536-0.188-1.306-0.14-1.445-0.723c0.209-0.353,0.36-0.764,0.963-0.723c1.065,0.379,1.055,1.834,1.445,2.89
		c-0.283,0.359-1.001,0.284-0.963,0.964C56.428,91.261,56.817,91.595,57.417,91.716z M61.029,86.899
		c0.186,0.779,0.667,1.261,1.445,1.445C62.343,87.547,61.683,86.423,61.029,86.899z M59.344,91.716
		c-0.147-1.191,1.189-0.898,1.927-1.204c-0.472,0.45-0.074,0.882,0,1.445c-0.284,0.277-0.852,0.272-1.445,0.24
		c0.575,1.207,1.017,0.25,0.723,1.445c1.133-0.477,1.66-2.83,1.204-4.094c-0.246,0.183-1.484,0.308-2.167,0.723
		c0.067-0.549-0.059-0.905-0.481-0.964C58.439,89.733,58.366,91.591,59.344,91.716z M59.585,95.328
		c-0.222,0.944,1.271,0.175,1.444,0.723C61.137,94.966,60.129,95.168,59.585,95.328z M57.417,100.145
		c0.332-0.712,0.504-1.583,0.963-2.167C57.388,97.933,56.546,99.835,57.417,100.145z M56.936,102.553
		c-0.199-0.681,0.339-0.624,0.241-1.204C56.25,101.278,55.895,102.483,56.936,102.553z"/>
	<path fill-rule="evenodd" clip-rule="evenodd" fill="#BEA466" d="M40.079,89.067c0.064,3.52-0.499,5.648,0,7.706
		c-0.327,0.717-1.087,1-1.686,1.444c-1.629-0.378-2.75-1.264-4.334-1.686c2.526-6.64,1.325-15.578,9.632-16.856
		c-0.979,5.438,1.667,10.018,2.89,14.689c-2.813,0.114-3.45,1.152-5.779,1.927c0.071-3.837,0.187-7.658,0.722-14.449
		c-1.116-0.153-0.61,1.316-0.722,2.167c-0.573,0.832-0.344,1.056-0.482,2.408c-0.289,0.316-0.094,0.379,0,0.723
		C40.129,87.697,40.118,87.938,40.079,89.067z"/>
	<path fill-rule="evenodd" clip-rule="evenodd" fill="#4D4534" d="M40.319,86.418c0.138-1.353-0.091-1.576,0.482-2.408
		C40.571,85.017,40.843,85.45,40.319,86.418z"/>
	<path fill-rule="evenodd" clip-rule="evenodd" fill="#4D4534" d="M40.079,89.067c0.039-1.129,0.05-1.37,0.241-1.927
		C40.578,87.302,40.653,88.582,40.079,89.067z"/>
	<path fill-rule="evenodd" clip-rule="evenodd" fill="#827651" d="M78.368,86.418c1.15-0.421,2.651,0.877,3.854,1.204
		C80.671,87.487,79.783,86.689,78.368,86.418z"/>
	<path fill-rule="evenodd" clip-rule="evenodd" fill="#2A2E29" d="M21.295,113.148c0.017-9.438,0.683-13.433,2.649-20.951
		c0.599,2.926-1.413,11.522-1.686,17.099c-0.086,1.762,0.48,2.24-0.241,3.853C21.777,113.148,21.536,113.148,21.295,113.148z"/>
	<path fill-rule="evenodd" clip-rule="evenodd" fill="#827651" d="M82.703,87.622c1.313,0.534,2.566,1.127,3.854,1.686
		C85.031,88.987,83.523,88.647,82.703,87.622z"/>
	<path fill-rule="evenodd" clip-rule="evenodd" fill="#827651" d="M89.687,90.753c0.823,0.381,1.819,0.589,2.408,1.204
		C91.256,91.593,90.127,91.517,89.687,90.753z"/>
	<path fill-rule="evenodd" clip-rule="evenodd" fill="#827651" d="M97.152,94.365c1.065,0.54,2.192,1.018,2.648,2.167
		C98.999,95.729,97.942,95.181,97.152,94.365z"/>
	<path fill-rule="evenodd" clip-rule="evenodd" fill="#2A2E29" d="M100.283,113.148c-0.593-2.269-0.859-4.869-1.204-7.465
		c-0.334-2.508-1.072-5.191-0.723-7.225c1.727,3.813,2.378,9.669,2.648,14.689C100.765,113.148,100.523,113.148,100.283,113.148z"/>
	<path fill-rule="evenodd" clip-rule="evenodd" fill="#827651" d="M90.891,102.794c0.536,1.036,0.379,1.345,0.482,2.89
		C90.882,104.518,91.079,104.039,90.891,102.794z"/>
	<path fill-rule="evenodd" clip-rule="evenodd" fill="#BEA466" d="M42.487,113.148c-0.689-3.914-1.958-12.039-1.445-15.412
		c1.836-1.054,3.858-1.921,6.021-2.648c1.079,2.212,1.615,4.967,3.13,6.742c0.386,1.221,0.931,2.28,1.686,3.131
		c1.438,2.495,2.165,5.701,4.816,6.983c8.639,1.656,9.503-10.533,12.282-16.375c1.345,0.903,3.141,1.354,4.094,2.648
		c-0.245,3.083-0.541,10.224-1.686,14.931C61.752,113.148,52.12,113.148,42.487,113.148z"/>
	<path fill-rule="evenodd" clip-rule="evenodd" fill="#BEA466" d="M30.928,112.908c0.23-3.708,0.019-5.464,0.241-8.67
		c1.704,1.473,2.5,6.024,5.057,6.502c-1.881-4.848-6.244-9.492-7.465-15.171c3.047,0.971,6.494,1.917,9.151,4.094
		c0.888-0.006,1.607-1.429,2.167-0.963c0.05,5.773,0.609,8.33,1.204,14.448c-2.488,0-4.977,0-7.465,0c-0.883,0-1.766,0-2.649,0
		C31.213,112.944,31.075,112.922,30.928,112.908z M30.928,97.255c-0.053,0.188-0.202,0.28-0.481,0.241
		c0.003,0.638-0.134,1.418,0.481,1.444C31.153,98.737,31.442,97.405,30.928,97.255z"/>
	<path fill-rule="evenodd" clip-rule="evenodd" fill="#2A2E29" d="M30.928,98.94c-0.615-0.026-0.478-0.807-0.481-1.444
		c0.28,0.039,0.428-0.054,0.481-0.241C31.442,97.405,31.153,98.737,30.928,98.94z"/>
	<path fill-rule="evenodd" clip-rule="evenodd" fill="#2A2E29" d="M82.703,98.94C81.591,96.048,85.312,98.359,82.703,98.94
		L82.703,98.94z"/>
	<path fill-rule="evenodd" clip-rule="evenodd" fill="#2A2E29" d="M12.867,113.148c0.727-4.953,0.297-10.517,3.13-14.689
		c-0.46,3.989-1.739,8.949-2.167,14.689C13.509,113.148,13.188,113.148,12.867,113.148z"/>
	<path fill-rule="evenodd" clip-rule="evenodd" fill="#D5D3CC" d="M30.446,113.148c0.187-0.054,0.475-0.006,0.481-0.24
		c0.147,0.014,0.285,0.036,0.241,0.24c-0.205-0.044-0.227,0.094-0.241,0.241c-4.014,0-8.027,0-12.041,0c0-0.08,0-0.16,0-0.241
		c0.803,0,1.605,0,2.408,0c0.241,0,0.482,0,0.723,0C24.827,113.148,27.637,113.148,30.446,113.148z"/>
	<path fill-rule="evenodd" clip-rule="evenodd" fill="#D5D3CC" d="M21.536,30.79c1.307-0.941,4.208-0.288,6.261-0.481
		c-0.041,0.28-0.381,0.261-0.723,0.241c-0.963,0-1.927,0-2.89,0C23.044,30.371,22.529,30.82,21.536,30.79z"/>
	<path fill-rule="evenodd" clip-rule="evenodd" fill="#D5D3CC" d="M61.271,47.647c-0.289-1.076-0.8-1.93-1.204-2.89
		c0.03-0.532,1.021-0.102,1.445-0.241c0.143,0.981,0.109,2.138,0.722,2.649c0.681,0.851,3.486,0.706,3.612-0.481
		c-0.024-0.748,0.758-0.688,0.482-1.686c0.681-0.199,0.623,0.339,1.204,0.241c0.054,0.187,0.006,0.475,0.24,0.481
		c0.385-0.675,1.084,0.338,1.927,0c0.563,3.969-3.289,6.44-6.502,4.335C62.413,49.394,62.159,48.203,61.271,47.647z"/>
	<path fill-rule="evenodd" clip-rule="evenodd" fill="#D5D3CC" d="M48.267,47.165c1.273-0.252,1.206-1.844,1.686-2.89
		c1.167-0.208,1.992,0.078,2.89,0.241c-0.733,2.959-2.135,5.25-4.334,6.743c-4.342,0.569-5.449-2.096-5.539-5.779
		c0.805-0.318,1.502-0.745,2.408-0.963c-0.006,1.21,0.227,2.181,0.963,2.649C46.177,48.034,48.374,47.773,48.267,47.165z"/>
	<path fill-rule="evenodd" clip-rule="evenodd" fill="#827651" d="M62.233,47.165c1.218,0.365,2.967,0.386,3.612-0.481
		C65.72,47.871,62.914,48.016,62.233,47.165z"/>
	<path fill-rule="evenodd" clip-rule="evenodd" fill="#4D4534" d="M57.899,49.092c-0.522,0.041-0.109-0.854-0.241-1.204
		c0.873-0.23,0.245,1.04,0.723,1.204C58.221,49.092,58.06,49.092,57.899,49.092z"/>
	<path fill-rule="evenodd" clip-rule="evenodd" fill="#827651" d="M29.964,47.888c0.558,0.968,0.083,2.967,0.241,4.334
		C29.648,51.254,30.122,49.255,29.964,47.888z"/>
	<path fill-rule="evenodd" clip-rule="evenodd" fill="#2A2E29" d="M58.381,49.092c1.392,5.583,1.212,7.95,1.204,13.485
		c2.592,0.133,1.673-3.521,2.167-4.816c1.681,0.443,0.301,3.052,0.723,4.093c1.1-0.629,2.732-1.863,4.094-1.444
		c-1.403,3.755-5.017,4.796-7.706,6.743c-0.322,0.429-1.394,0.744-1.926,0.24c-0.28,0.039-0.429-0.053-0.482-0.24
		c-0.274-0.462-1.625-1.086-1.926-0.723c-3.875-1.059-7.847-2.906-9.392-5.539c2.438,0.001,2.726,1.535,6.021,1.445
		c0,0.24,0,0.481,0,0.722c0.28-0.202,0.646-0.317,1.204-0.24c-0.136-1.067-0.78-1.628-0.723-2.89
		c-0.082-0.483,0.049-0.754,0.482-0.723c1.049,3.365,2.731,6.098,5.779,7.465c1.44-7.808,0.917-9.652,0-17.579
		C58.06,49.092,58.221,49.092,58.381,49.092z"/>
	<path fill-rule="evenodd" clip-rule="evenodd" fill="#827651" d="M79.091,51.018c-0.291-0.051-0.147-0.267,0-0.481
		c1.043,0.177,1.491-0.545,1.927,0.241C80.324,50.806,79.441,50.646,79.091,51.018z"/>
	<path fill-rule="evenodd" clip-rule="evenodd" fill="#827651" d="M88.242,51.5c-0.283-0.038-0.684,0.041-0.723-0.241
		c0.129-0.24,1.628-0.124,2.408,0.241C89.366,51.5,88.804,51.5,88.242,51.5z"/>
	<path fill-rule="evenodd" clip-rule="evenodd" fill="#D5D3CC" d="M89.928,51.5c0.284-0.277,0.852-0.273,1.445-0.241
		c-0.307,0.667-2.521,0.678-3.131,0.241C88.804,51.5,89.366,51.5,89.928,51.5z"/>
	<path fill-rule="evenodd" clip-rule="evenodd" fill="#D5D3CC" d="M103.895,104.961c0,2.81,0,5.619,0,8.429
		c-1.203,0-2.407,0-3.611,0c0-0.08,0-0.16,0-0.241c0.24,0,0.481,0,0.722,0c0.643,0,1.285,0,1.927,0
		c1.599-1.371,0.304-5.636,0.723-8.188C103.734,104.961,103.814,104.961,103.895,104.961z"/>
	<path fill-rule="evenodd" clip-rule="evenodd" fill="#BEA466" d="M10.218,106.165c-0.155,0.97,0.313,2.561-0.241,3.131
		C10.131,108.326,9.664,106.735,10.218,106.165z"/>
	<path fill-rule="evenodd" clip-rule="evenodd" fill="#827651" d="M9.977,110.259c0.089,0.955-0.221,2.308,0.241,2.89
		c-0.161,0-0.321,0-0.482,0C9.89,112.259,9.424,110.75,9.977,110.259z"/>
	<path fill-rule="evenodd" clip-rule="evenodd" fill="#D5D3CC" d="M33.817,113.148c2.489,0,4.977,0,7.465,0c0.401,0,0.803,0,1.204,0
		c9.633,0,19.265,0,28.898,0c0.35-0.132,1.245,0.281,1.204-0.24c2.98,0.552,6.977,0.088,10.355,0.24c0.24,0,0.481,0,0.722,0
		c3.03,0.159,5.997-0.268,8.429,0c0.241,0,0.481,0,0.723,0c2.329,0.159,5.296-0.319,7.225,0.241c-22.075,0-44.15,0-66.225,0
		C33.817,113.31,33.817,113.229,33.817,113.148z"/>
	<path fill-rule="evenodd" clip-rule="evenodd" fill="#BEA466" d="M26.352,89.79c2.946-1.31,5.915-2.595,9.151-3.612
		c-1.251,3.242-1.354,7.324-2.89,9.873c-2.026-1.417-0.124-5.121-0.481-7.465c-1.878,1.384-0.544,4.556-1.927,6.502
		c-0.923-0.289-1.293-0.743-2.408-0.241c-1.442,2.412,1.874,4.639,2.408,7.466c0.615,3.253-1.008,7.496,0.241,10.836
		c-2.81,0-5.619,0-8.429,0c0.721-1.612,0.155-2.091,0.241-3.853c0.272-5.576,2.284-14.173,1.686-17.099
		c-1.966,7.519-2.632,11.513-2.649,20.951c-0.803,0-1.605,0-2.408,0s-1.605,0-2.408,0c-0.883,0-1.766,0-2.649,0
		c0.428-5.74,1.707-10.7,2.167-14.689c-2.833,4.173-2.403,9.736-3.13,14.689c-0.642,0-1.285,0-1.927,0
		c0.945-5.232-0.522-13.948,4.576-18.061c2.706-2.184,5.605-2.757,8.669-4.094C24.875,90.561,25.882,90.443,26.352,89.79z"/>
	<path fill-rule="evenodd" clip-rule="evenodd" fill="#2A2E29" d="M77.164,51.018c-0.026,0.615-0.806,0.478-1.444,0.482
		c0.288,1.395,0.832,4.004-1.204,4.575c0.411-1.221,0.613-2.534,0-3.612c-1.237,0.047-1.038,1.531-2.168,1.686
		C72.655,51.458,74.121,50.256,77.164,51.018z"/>
	<path fill-rule="evenodd" clip-rule="evenodd" fill="#2A2E29" d="M53.805,70.043c2.667,0.979,7.26,0.583,9.151-0.723
		c0.794,0.358-0.409,0.68-0.481,0.963c-3.687,2.063-7.448,1.49-10.596-0.24c-0.04-0.28,0.053-0.429,0.241-0.482
		C52.499,69.763,53.462,70.602,53.805,70.043z"/>
	<path fill-rule="evenodd" clip-rule="evenodd" fill="#4D4534" d="M55.973,90.994c-0.038-0.68,0.681-0.604,0.963-0.964
		c-0.39-1.056-0.379-2.511-1.445-2.89c-0.603-0.041-0.754,0.37-0.963,0.723c0.139,0.583,0.909,0.535,1.445,0.723
		c-0.583,0.836,0.648,0.914,0,1.686c-1.264-0.801-2.585-2.545-1.927-4.335c0.015-0.039,3.131-3.612,3.131-3.612
		c1.092-0.136,3.815,3.585,3.853,4.094c-0.756-0.272-0.636,0.069-1.204-0.24c-0.526,0.035-0.517,0.606-0.481,1.204
		c0.352,0.884,1.258-0.186,1.927,0.481c0.131,0.853-0.853,0.592-0.723,1.444c-1.127-0.946-0.997-0.201-2.408-0.722
		c-0.609,0.193-0.614,0.991-0.963,1.444c0.22,0.809,0.448,0.119,1.204,0.241c0.235,1.038-0.905,0.7-0.963,1.444
		C56.817,91.595,56.428,91.261,55.973,90.994z M57.177,85.214c0.694,0.643,1.625,0.434,1.686-0.723
		c-0.479-0.003-0.306-0.656-0.963-0.481C57.477,84.23,57.063,84.458,57.177,85.214z M56.695,86.418
		c0.036-0.597,0.045-1.168-0.481-1.204C55.712,85.693,56.206,86.242,56.695,86.418z M58.622,88.104
		c0.047-0.689,0.029-1.313-0.723-1.204C57.339,87.456,57.84,88.182,58.622,88.104z"/>
	<path fill-rule="evenodd" clip-rule="evenodd" fill="#2A2E29" d="M90.891,102.794c0.166-4.083-1.869-8.192-1.204-10.597
		c2.862,7.835,2.873,11.948,3.131,20.951c-0.241,0-0.481,0-0.723,0c-0.489-2.239-0.483-4.975-0.722-7.465
		C91.27,104.139,91.427,103.83,90.891,102.794z"/>
</g>
</svg>
