<?xml version="1.0" encoding="utf-8"?>
<!-- Generator: Adobe Illustrator 15.1.0, SVG Export Plug-In . SVG Version: 6.00 Build 0)  -->
<!DOCTYPE svg PUBLIC "-//W3C//DTD SVG 1.1//EN" "http://www.w3.org/Graphics/SVG/1.1/DTD/svg11.dtd">
<svg version="1.1" id="Ebene_1" xmlns="http://www.w3.org/2000/svg" xmlns:xlink="http://www.w3.org/1999/xlink" x="0px" y="0px"
	 width="113.39px" height="113.39px" viewBox="0 0 113.39 113.39" enable-background="new 0 0 113.39 113.39" xml:space="preserve">
<path fill-rule="evenodd" clip-rule="evenodd" fill="#C3AA6C" d="M47.935,40.189c1.048-0.015,2.219-0.225,3.12-0.96
	c0.753,0.047,0.65,0.949,1.68,0.72c0.874-0.134,1.434-0.581,2.16-0.24c1.776,0.932,4.638-0.19,5.76,1.68
	c0.811,1.03,1.798,1.882,2.641,2.88c-0.206,0.766,0.377,0.742,0.479,1.2c0.033,1.007,0.438,1.643,0.96,2.16
	c-0.039,0.279,0.053,0.427,0.24,0.48c0.235,0.672,0.641-0.349,0.96,0.24c0,1.28,0,2.56,0,3.84c0.472,0.744,1.023-0.08,1.2,0.96
	c0,0.88,0,1.76,0,2.64c1.425-0.14,2.441-0.985,3.359-0.96c0.104,0.537,1.184,0.097,1.681,0.24c0.068,1.028-1.857,0.063-1.92,0.96
	c-0.754-0.113-0.635,0.646-1.2,0.72c-0.932,0.428-1.325,1.395-1.68,2.4c0,0.08,0,0.16,0,0.24c-0.326,0.074-0.199,0.601-0.24,0.96
	c0.601,0.04,0.751-0.369,0.96-0.72c0-0.08,0-0.16,0-0.24c0.588-0.372,0.776-1.144,1.439-1.44c0.504,0.457,1.267,0.654,1.2,1.681
	c0,0.56,0,1.119,0,1.68c0.611-0.029,0.931-0.35,0.96-0.96c-0.049-0.751,0.162-1.762-0.24-2.16c0.18-0.739-0.658-0.461-0.479-1.2
	c0.147-0.333,0.924-0.036,0.96-0.48c0.08,0,0.16,0,0.24,0c0.521,0.041,0.108-0.851,0.24-1.2c0.844,0.276,0.878,1.361,1.68,1.68
	c0,0.08,0,0.16,0,0.24c0,0.8,0,1.6,0,2.4c-0.134,0.586-0.929,0.511-0.72,1.439c-1.117,0.563-1.442,1.918-2.881,2.16
	c-0.079,0-0.159,0-0.239,0c-0.278-0.77-1.607-1.742-2.641-0.96c-1-0.12-1.151,0.607-1.199,1.439
	c-1.091,0.731,0.453,1.385,0.239,2.641c-1.4,2.786-2.2,5.782-2.16,8.399c0.049,1.381-0.355,2.065,0.24,3.12
	c-0.277,0.651-0.116,0.598,0,1.44c-2.199,0.44-3.479,1.802-5.04,2.88c-0.561,0.319-1.352,0.407-1.92,0.72c-0.08,0-0.16,0-0.24,0
	c-1.571,1.148-3.061,2.379-4.56,3.601c-1.504-0.189-2.556,0.648-3.12-0.48c0.243-0.397,1.02-0.261,1.44-0.479
	c1.833-0.567,3.207-1.594,4.56-2.641c0-0.08,0-0.16,0-0.24c1.492-0.428,1.859-1.98,2.88-2.88c0.204,0.045,0.227-0.094,0.24-0.239
	c0.935-0.506,1.278-1.602,1.92-2.4c0.368-0.831,1.21-1.19,1.2-2.4c0.782-0.177,0.722-1.197,0.96-1.92
	c-1.391-0.19-0.966,1.435-1.68,1.92c-0.825,1.016-1.496,2.186-2.16,3.36c-2.052,1.868-4.002,3.838-6.24,5.52
	c-0.728-0.156-2.103,0.871-3.36,0.961c-1.476,0.122-2.368-0.244-3.36,0c-0.213-0.187-0.542-0.259-0.96-0.24
	c-1.406-0.354-2.114-1.406-3.12-2.16c0.089-1.449-0.938-1.782-0.72-3.36c0-0.08,0-0.16,0-0.239c0.898-0.622,3.314,0.274,3.6-0.961
	c3.271-0.697,5.359-3.264,5.28-6c-3.553-0.539-6.313-5.305-10.08-2.64c-1.041-0.263-2.533-2.172-3.36-0.479c-0.16,0-0.32,0-0.48,0
	c-0.302-0.738-0.872-1.209-1.2-1.92c-1.523-1.907-2.471-5.434-2.16-8.4c0.723-0.797,1.127-1.913,1.92-2.64
	c0.976,0.096,0.738-1.021,1.44-1.2c1.9,1.212,4.269,2.911,5.76,0.24c0.193-0.127,0.39-0.25,0.72-0.24
	c-0.189,0.77-0.871,1.048-1.2,1.68c-1.333,2.027-4.744,1.977-5.52,4.561c0.788,1.451,1.637,2.843,3.36,3.359
	c0.278,0.201,0.644,0.316,1.2,0.24c-0.651-1.669-2.667-1.972-3.36-3.6c0.671-0.689,1.713-1.008,2.4-1.681
	c1.219-0.461,2.133-1.227,2.88-2.16c0.491-0.79,1.392-1.168,1.44-2.4c0.958-1.499-0.453-1.736-0.96-2.16
	c0.144-4.614-1.785-8.199-6.24-7.44c0.174-0.734-0.414-0.706-0.24-1.44c2.939-0.479,4.509,0.667,6.72,1.68
	c-0.195-1.44-0.382-1.813-1.92-2.16c-0.176-0.224-0.437-0.364-0.72-0.48c-0.211-0.771,0.792-0.329,0.72-0.96c0.08,0,0.16,0,0.24,0
	c1.116-0.324,2.655-0.225,3.36-0.96C45.55,41.433,47.705,41.384,47.935,40.189z M57.294,42.35c-2.655-1.397-6.951-1.062-8.16,2.16
	c2.822-1.775,7.793-1.861,10.319,0.24c0.188-0.053,0.279-0.201,0.24-0.48C59.179,43.345,58.365,42.719,57.294,42.35z M56.095,44.75
	c-0.633-0.563-1.637-0.041-2.4,0c-1.613,0.307-2.149,1.691-3.12,2.64c-3.559,3.573-2.251,13.046,4.08,9.6
	c0.708-0.651,1.609-1.11,1.92-2.16c0.247-0.553,0.826-0.774,0.72-1.68c0.807-0.553,0.725-1.995,1.44-2.64c0.08,0,0.16,0,0.24,0
	c0.712-0.488,1.148-1.252,1.2-2.4c-1.271,0.182-0.227-0.628-0.721-0.96c-0.678-0.198-0.621,0.338-1.199,0.24
	C57.833,46.211,57.519,44.925,56.095,44.75z M64.015,56.75c-0.183-0.856,0.743-1.648-0.24-1.92c-0.638,2.498-2.49,5.007-2.88,6.959
	c0.835,0.585,1.458-1.094,1.92-1.68c0-0.16,0-0.32,0-0.479C63.706,59.16,63.587,57.682,64.015,56.75z M42.415,62.029
	c0.729,0.391,1.183,1.058,2.4,0.96c0.209-1.89-1.697-1.662-3.36-1.68C39.977,61.479,41.335,62.362,42.415,62.029z"/>
<path fill-rule="evenodd" clip-rule="evenodd" fill="#C3AA6C" d="M37.375,45.709c2.158-0.398,2.932,0.588,3.84,1.44
	c0.011,0.949,0.528,1.392,0.72,2.16c0,0.32,0,0.64,0,0.96c-0.32,0-0.64,0-0.96,0c-1.625-0.694-3.321-1.319-4.32-2.64
	C36.452,46.547,37.216,46.431,37.375,45.709z"/>
<path fill-rule="evenodd" clip-rule="evenodd" fill="#C3AA6C" d="M52.495,46.669c1.025-0.495,1.84-1.2,3.6-0.96
	c0.08,0,0.16,0,0.24,0c0.444,0.917,1.229,1.49,0.96,3.12c-1.698,1.422-4.248,1.992-6.96,2.4c-0.221-0.314,0.435-1.795,0.72-2.4
	C51.323,47.898,52.226,47.601,52.495,46.669z"/>
<path fill-rule="evenodd" clip-rule="evenodd" fill="#4C5E56" d="M41.935,49.31c0.53,0.03,0.102,1.018,0.24,1.44
	c-0.428-0.133-0.997-0.124-1.2-0.48c0.32,0,0.64,0,0.96,0C41.935,49.949,41.935,49.629,41.935,49.31z"/>
<path fill-rule="evenodd" clip-rule="evenodd" fill="#4C5E56" d="M74.095,57.229c0.397,0.259,0.397,2.142,0,2.4
	C74.095,58.829,74.095,58.029,74.095,57.229z"/>
<path fill-rule="evenodd" clip-rule="evenodd" fill="#4C5E56" d="M67.375,59.39c0.04,0.279,0.379,0.261,0.72,0.24
	c-0.209,0.351-0.359,0.76-0.96,0.72C67.176,59.99,67.049,59.464,67.375,59.39z"/>
<path fill-rule="evenodd" clip-rule="evenodd" fill="#4C5E56" d="M70.734,59.63c0.355,0.044,0.22,0.579,0.24,0.96
	c0.33,0.01,0.527-0.113,0.72-0.24c-0.029,0.61-0.349,0.931-0.96,0.96C70.734,60.749,70.734,60.189,70.734,59.63z"/>
<path fill-rule="evenodd" clip-rule="evenodd" fill="#4C5E56" d="M41.455,61.31c-0.384,0.944,1.037,0.083,0.96,0.72
	C41.335,62.362,39.977,61.479,41.455,61.31z"/>
<path fill-rule="evenodd" clip-rule="evenodd" fill="#C3AA6C" d="M69.055,63.709c0.095,0.899-1.092,1.238-1.68,0.721
	C67.322,63.305,68.46,62.886,69.055,63.709z"/>
<path fill-rule="evenodd" clip-rule="evenodd" fill="#AB3027" d="M37.615,68.749c1.093,0.347,1.739,1.142,2.4,1.92
	c0.922-0.438,1.624-1.096,2.64-1.439c2.098,0.702,3.595,2.005,5.52,2.88c-3.486,0.572-8.292,0.613-11.04-0.48
	C37.008,70.383,37.451,69.706,37.615,68.749z"/>
<path fill-rule="evenodd" clip-rule="evenodd" fill="#AB3027" d="M48.655,73.55c-0.745,3.485-9.705,5.417-9.84,0
	C42.157,73.311,45.142,73.84,48.655,73.55z"/>
<path fill-rule="evenodd" clip-rule="evenodd" fill="#4C5E56" d="M100.975,113.39c-5.04,0-10.08,0-15.12,0
	c0.618-2.192,1.14-4.783,2.64-6.721c1.12-1.445,3.089-1.997,3.841-3.6c-4.458,0.348-7.051,5.902-7.44,10.32c-11.6,0-23.2,0-34.8,0
	c0.295-1.705,2.664-1.337,2.64-3.36c1.515,0.191,1.997-0.71,2.64-1.92c0.315,0.245,0.885,0.235,1.2,0.48
	c1.183-0.857,1.393-3,3.6-2.16c0.49-0.39-0.011-1.771,0.479-2.16c0.31-0.331,1.043-0.237,1.681-0.24
	c0.666-0.533,0.396-2.003,1.199-2.4c0.733-0.173,0.875,0.246,1.44,0.24c0.814-0.225,0.734-1.345,1.2-1.92
	c0.563,0.077,0.9,0.379,1.68,0.24c0.729-0.23,0.522-1.397,0.96-1.92c0.866-0.143,1.609-0.405,2.4,0
	c0.296-2.184,3.558-1.402,4.319-3.12c4.71-0.891,7.368,1.5,11.04,3.36c6.5,3.292,12.568,7.087,13.92,14.399
	C100.787,112.937,101.063,112.981,100.975,113.39z"/>
<path fill-rule="evenodd" clip-rule="evenodd" fill="#4C5E56" d="M32.575,113.39c-7.04,0-14.08,0-21.12,0
	c1.545-9.637,10.56-10.786,17.04-15.36c1.683,1.037,2.029,3.411,3.36,4.8C30.053,105.97,30.794,110.337,32.575,113.39z
	 M19.615,113.149c0.685-2.436,1.139-5.101,1.68-7.68c-0.33,0.01-0.527-0.113-0.72-0.24C19.428,106.658,17.86,111.184,19.615,113.149
	z"/>
<path fill-rule="evenodd" clip-rule="evenodd" fill="#322922" d="M85.854,113.39c-0.32,0-0.64,0-0.96,0
	c0.39-4.418,2.982-9.973,7.44-10.32c-0.752,1.603-2.721,2.154-3.841,3.6C86.994,108.606,86.473,111.197,85.854,113.39z"/>
<path fill-rule="evenodd" clip-rule="evenodd" fill="#322922" d="M20.575,105.229c0.193,0.127,0.39,0.25,0.72,0.24
	c-0.541,2.579-0.995,5.244-1.68,7.68C17.86,111.184,19.428,106.658,20.575,105.229z"/>
<path fill-rule="evenodd" clip-rule="evenodd" fill="#322922" d="M11.455,113.39c-0.279,0.039-0.427-0.054-0.48-0.24
	c0.547-10.653,11.3-11.1,17.28-16.32c0.202-2.105-0.518-5.126,1.68-6c0.139-0.779-0.164-1.116-0.24-1.68
	c3.626-3.453,4.172-8.902,10.8-9.6c0.017-3.057-2.98-3.101-2.64-6.48c-0.24-0.64-0.969-0.791-1.44-1.2
	c0.17-1.289-0.189-2.05-0.48-2.88c-2.783-2.623-5.63-8.543-3.12-12.48c0.852-1.336,2.38-1.796,3.36-3.12
	c-0.262-2.488-0.709-5.429-1.2-7.2c0.309-0.961,0.496,0.066,1.2,0c-0.385-1.303-0.247-2.939-0.72-4.08
	c-0.673-1.621-2.396-2.434-3.36-3.84c-1.245-1.815-1.339-4.162-1.92-6.48c-0.21-0.838-0.958-1.193-0.48-2.4
	c-0.257-0.543-0.545-1.056-0.96-1.44c0.502-0.934,0.671-2.244,0-3.12c0.568-0.899,0.066-2.036,0.24-2.88
	c0.937-4.554,4.07-6.754,7.68-8.88c2.364,0.109,4.273-0.426,6.24-1.44c1.096,1.206,3.367,0.677,4.08-0.48
	c1.749,0.766,3.347,0.812,4.8-0.24c1.305,1.452,3.461,0.75,5.28,0.24c0.819,0.22,0.93,1.15,1.92,1.2
	c1.218,0.097,1.401-0.838,2.16-1.2c3.401,2.191,10.387-0.656,12.24,3.6c4.837,1.163,6.347,5.653,9.6,8.4
	c1.128,7.236-1.458,13.261-4.56,18c0.782,2.373,0.684,6.338-0.721,7.92c-0.211,0.771,0.791,0.329,0.721,0.96
	c-2.315,3.668-2.213,8.455-4.801,12c7.453,1.518,11.394,10.141,5.761,15.36c-1.806,1.673-4.491,2.003-6.48,3.84
	c1.52,1.84,3.044,3.676,4.32,5.76c0.173,0.733-0.246,0.875-0.24,1.44c0.744,0.855,0.815,2.384,1.92,2.88
	c0.076,0.557-0.038,0.921-0.24,1.2c4.064,4.952,12.782,5.907,17.76,10.8c1.821,1.789,2.336,3.489,3.601,6
	c0.495,0.983,2.114,2.302,1.439,4.08c-0.159,0-0.319,0-0.479,0c0.088-0.408-0.188-0.453-0.48-0.48
	c-1.352-7.313-7.42-11.107-13.92-14.399c-3.672-1.86-6.33-4.251-11.04-3.36c-0.762,1.718-4.023,0.937-4.319,3.12
	c-0.791-0.405-1.534-0.143-2.4,0c-0.438,0.522-0.23,1.689-0.96,1.92c-0.779,0.139-1.116-0.163-1.68-0.24
	c-0.466,0.575-0.386,1.695-1.2,1.92c-0.565,0.006-0.707-0.413-1.44-0.24c-0.803,0.397-0.533,1.867-1.199,2.4
	c-0.638,0.003-1.371-0.091-1.681,0.24c-0.49,0.389,0.011,1.771-0.479,2.16c-2.207-0.84-2.417,1.303-3.6,2.16
	c-0.315-0.245-0.885-0.235-1.2-0.48c-0.643,1.21-1.125,2.111-2.64,1.92c0.024,2.023-2.345,1.655-2.64,3.36c-5.84,0-11.68,0-17.52,0
	c-1.78-3.053-2.522-7.42-0.72-10.561c-1.331-1.389-1.677-3.763-3.36-4.8C22.015,102.604,13,103.753,11.455,113.39z M34.975,55.549
	c-1.129,0.391-1.402,1.638-1.92,2.64c-0.311,2.967,0.637,6.493,2.16,8.4c0.232,0.834,1.061,2.994,1.68,1.92
	c0.827-1.692,2.319,0.217,3.36,0.479c3.767-2.665,6.527,2.101,10.08,2.64c0.079,2.736-2.009,5.303-5.28,6
	c-0.571,0.874-4.212-0.058-3.6,1.2c-0.218,1.578,0.809,1.911,0.72,3.36c0.601,1.003,2.105,2.369,3.12,2.16
	c0.418-0.019,0.747,0.054,0.96,0.24c0.533,0.189,2.389,0.494,3.36,0c1.257-0.09,2.632-1.117,3.36-0.961
	c2.463-1.456,4.403-3.436,6.24-5.52c0.664-1.175,1.335-2.345,2.16-3.36c0.342-0.093,0.404-0.288,0.72,0
	c0.01,1.21-0.832,1.569-1.2,2.4c-0.974,0.466-1.18,1.7-1.92,2.4c-0.014,0.146-0.036,0.284-0.24,0.239
	c-1.158,0.763-1.751,2.089-2.88,2.88c0,0.08,0,0.16,0,0.24c-1.625,0.775-3.067,1.732-4.56,2.641c-0.42,0.219-1.197,0.082-1.44,0.479
	c0.564,1.129,1.616,0.291,3.12,0.48c1.87-0.851,3.223-2.218,4.56-3.601c0.08,0,0.16,0,0.24,0c1.077,0.363,1.328-0.082,1.92-0.72
	c1.562-1.078,2.841-2.439,5.04-2.88c-0.116-0.843-0.277-0.789,0-1.44c-0.262-1.38,0.271-2.064-0.24-3.12
	c-0.04-2.617,0.76-5.613,2.16-8.399c0.791-0.808-0.717-1.352-0.239-2.641c0.048-0.832,0.199-1.56,1.199-1.439
	c1.489-0.289,1.977,0.424,2.641,0.96c0.08,0,0.16,0,0.239,0c1.05,0.323,2.151-1.365,2.881-2.16c-0.209-0.929,0.586-0.854,0.72-1.439
	c0.397-0.259,0.397-2.142,0-2.4c0-0.08,0-0.16,0-0.24c-0.768-1.152-1.363-2.477-3.601-2.16c-0.918-0.025-1.935,0.82-3.359,0.96
	c0-0.88,0-1.76,0-2.64c0.618-0.058-0.33-0.413,0-0.96c-0.601,0.03-0.752,0.458-0.96-0.24c-0.175-1.425,0.429-3.629-0.48-4.32
	c-0.098,0.302-0.31,0.491-0.72,0.48c-0.188-0.053-0.279-0.201-0.24-0.48c-0.214-0.826-0.584-1.496-0.96-2.16
	c-0.103-0.458-0.686-0.434-0.479-1.2c-0.655-1.185-1.572-2.108-2.641-2.88c-1.122-1.871-3.984-0.748-5.76-1.68c0-0.08,0-0.16,0-0.24
	c-0.759-0.357-1.641-0.049-2.16,0.48c-1.029,0.229-0.926-0.673-1.68-0.72c-0.901,0.735-2.072,0.945-3.12,0.96
	c-0.712,1.15-2.554,0.707-3.12-0.24c-0.232,1.288-2.51,0.53-3.12,1.44c-0.08,0-0.16,0-0.24,0c-0.474,0.389-1.747,0.772-2.4,0.24
	c0.067,1.133,1.607,0.792,2.4,1.2c1.538,0.347,1.725,0.719,1.92,2.16c-2.211-1.013-3.781-2.159-6.72-1.68
	c-0.174,0.734,0.414,0.706,0.24,1.44c4.455-0.759,6.384,2.826,6.24,7.44c-0.08,0-0.16,0-0.24,0c0,0.4,0,0.8,0,1.2
	c0.739,0.179,0.461-0.659,1.2-0.48c0,0.48,0,0.96,0,1.44c-0.048,1.232-0.949,1.61-1.44,2.4c-1.023,0.657-1.896,1.464-2.88,2.16
	c-0.687,0.673-1.729,0.991-2.4,1.681c0.692,1.628,2.709,1.931,3.36,3.6c-0.556,0.076-0.921-0.039-1.2-0.24
	c-1.524-0.716-2.333-2.146-3.36-3.359c0.776-2.584,4.188-2.533,5.52-4.561c0.65-0.469,1.309-0.931,1.44-1.92
	c-0.331,0.01-0.527-0.113-0.72-0.24c0.01,0.33-0.113,0.527-0.24,0.72c-1.492,2.671-3.86,0.973-5.76-0.24
	C35.713,54.528,35.95,55.645,34.975,55.549z M36.415,41.39c0,0.32,0,0.64,0,0.96c0.854,0.054,1.438-0.162,1.68-0.72
	C37.262,41.822,37.172,41.272,36.415,41.39z M37.375,45.709c-0.158,0.722-0.922,0.837-0.72,1.92c0.999,1.321,2.694,1.946,4.32,2.64
	c0.203,0.356,0.772,0.347,1.2,0.48c-0.138-0.422,0.29-1.41-0.24-1.44c-0.191-0.769-0.709-1.211-0.72-2.16
	C40.69,46.069,39.077,44.813,37.375,45.709z M41.695,53.39c0.225-0.203,0.512-1.53,0-1.68c-0.44,1.035-1.134,1.467-1.92,1.44
	c-2.11-0.071-1.273-3.528-3.36-3.6c0.558,2.323,0.578,5.182,3.36,5.28C40.319,55.202,41.805,54.469,41.695,53.39z M67.375,64.43
	c0.588,0.518,1.774,0.179,1.68-0.721C68.46,62.886,67.322,63.305,67.375,64.43z M37.135,71.629c2.748,1.094,7.554,1.053,11.04,0.48
	c-1.925-0.875-3.422-2.178-5.52-2.88c-1.017,0.344-1.718,1.002-2.64,1.439c-0.661-0.778-1.307-1.573-2.4-1.92
	C37.451,69.706,37.008,70.383,37.135,71.629z M38.814,73.55c0.135,5.417,9.096,3.485,9.84,0
	C45.142,73.84,42.157,73.311,38.814,73.55z"/>
<path fill-rule="evenodd" clip-rule="evenodd" fill="#C3AA6C" d="M33.055,58.189c0.518-1.002,0.791-2.249,1.92-2.64
	C34.182,56.277,33.777,57.392,33.055,58.189z"/>
<path fill-rule="evenodd" clip-rule="evenodd" fill="#4C5E56" d="M35.215,66.59c0.328,0.711,0.897,1.182,1.2,1.92
	c0.16,0,0.32,0,0.48,0C36.276,69.584,35.447,67.424,35.215,66.59z"/>
<path fill-rule="evenodd" clip-rule="evenodd" fill="#4C5E56" d="M41.455,78.829c-0.612-1.258,3.029-0.326,3.6-1.2
	c-0.286,1.235-2.702,0.339-3.6,0.961C41.455,78.669,41.455,78.749,41.455,78.829z"/>
<path fill-rule="evenodd" clip-rule="evenodd" fill="#4C5E56" d="M42.175,82.189c1.006,0.754,1.714,1.806,3.12,2.16
	C44.28,84.559,42.776,83.192,42.175,82.189z"/>
<path fill-rule="evenodd" clip-rule="evenodd" fill="#4C5E56" d="M46.254,84.59c0.992-0.244,1.884,0.122,3.36,0
	C48.644,85.084,46.788,84.779,46.254,84.59z"/>
<path fill-rule="evenodd" clip-rule="evenodd" fill="#4C5E56" d="M52.975,83.629c2.238-1.682,4.188-3.651,6.24-5.52
	C57.378,80.193,55.438,82.173,52.975,83.629z"/>
<path fill-rule="evenodd" clip-rule="evenodd" fill="#4C5E56" d="M61.375,74.749c0.714-0.485,0.289-2.11,1.68-1.92
	c-0.238,0.723-0.178,1.743-0.96,1.92C61.779,74.461,61.717,74.656,61.375,74.749z"/>
<path fill-rule="evenodd" clip-rule="evenodd" fill="#4C5E56" d="M58.975,79.55c0.74-0.7,0.946-1.935,1.92-2.4
	C60.253,77.948,59.909,79.044,58.975,79.55z"/>
<path fill-rule="evenodd" clip-rule="evenodd" fill="#4C5E56" d="M55.854,82.669c1.128-0.791,1.722-2.117,2.88-2.88
	C57.714,80.688,57.346,82.241,55.854,82.669z"/>
<path fill-rule="evenodd" clip-rule="evenodd" fill="#4C5E56" d="M51.294,85.55c1.493-0.908,2.936-1.865,4.56-2.641
	C54.501,83.956,53.127,84.982,51.294,85.55z"/>
<path fill-rule="evenodd" clip-rule="evenodd" fill="#4C5E56" d="M52.975,86.51c1.499-1.222,2.989-2.452,4.56-3.601
	C56.197,84.292,54.845,85.659,52.975,86.51z"/>
<path fill-rule="evenodd" clip-rule="evenodd" fill="#4C5E56" d="M57.774,82.909c0.568-0.313,1.359-0.4,1.92-0.72
	C59.103,82.827,58.852,83.272,57.774,82.909z"/>
<path fill-rule="evenodd" clip-rule="evenodd" fill="#4C5E56" d="M64.494,74.749c0.512,1.056-0.021,1.74,0.24,3.12
	C64.139,76.814,64.543,76.13,64.494,74.749z"/>
<path fill-rule="evenodd" clip-rule="evenodd" fill="#4C5E56" d="M66.415,63.709c-0.478,1.289,1.03,1.833,0.239,2.641
	C66.868,65.094,65.324,64.44,66.415,63.709z"/>
<path fill-rule="evenodd" clip-rule="evenodd" fill="#4C5E56" d="M67.614,62.27c1.033-0.782,2.362,0.19,2.641,0.96
	C69.591,62.693,69.104,61.98,67.614,62.27z"/>
<path fill-rule="evenodd" clip-rule="evenodd" fill="#4C5E56" d="M70.494,63.229c1.438-0.242,1.764-1.597,2.881-2.16
	C72.646,61.864,71.544,63.553,70.494,63.229z"/>
<path fill-rule="evenodd" clip-rule="evenodd" fill="#4C5E56" d="M70.494,54.83c2.237-0.317,2.833,1.008,3.601,2.16
	c-0.802-0.319-0.836-1.404-1.68-1.68c-0.132,0.349,0.28,1.24-0.24,1.2c0.297-1.305-1.453-0.561-1.92-0.48
	c0.063-0.897,1.988,0.068,1.92-0.96C71.678,54.927,70.598,55.366,70.494,54.83z"/>
<path fill-rule="evenodd" clip-rule="evenodd" fill="#4C5E56" d="M64.975,48.109c0.41,0.011,0.622-0.178,0.72-0.48
	c0.909,0.691,0.306,2.895,0.48,4.32c0.208,0.698,0.359,0.27,0.96,0.24c-0.33,0.547,0.618,0.902,0,0.96
	c-0.177-1.04-0.729-0.216-1.2-0.96c0-1.28,0-2.56,0-3.84C65.615,47.761,65.21,48.782,64.975,48.109z"/>
<path fill-rule="evenodd" clip-rule="evenodd" fill="#4C5E56" d="M63.774,45.469c0.376,0.664,0.746,1.334,0.96,2.16
	C64.212,47.112,63.808,46.477,63.774,45.469z"/>
<path fill-rule="evenodd" clip-rule="evenodd" fill="#4C5E56" d="M60.654,41.39c1.068,0.772,1.985,1.695,2.641,2.88
	C62.452,43.272,61.465,42.419,60.654,41.39z"/>
<path fill-rule="evenodd" clip-rule="evenodd" fill="#4C5E56" d="M54.895,39.709c-0.727-0.341-1.286,0.106-2.16,0.24
	c0.519-0.529,1.401-0.837,2.16-0.48C54.895,39.549,54.895,39.629,54.895,39.709z"/>
<path fill-rule="evenodd" clip-rule="evenodd" fill="#4C5E56" d="M41.695,41.39c0.61-0.91,2.888-0.152,3.12-1.44
	c0.566,0.947,2.408,1.391,3.12,0.24c-0.23,1.194-2.384,1.243-2.88,0.24C44.35,41.165,42.811,41.066,41.695,41.39z"/>
<path fill-rule="evenodd" clip-rule="evenodd" fill="#C3AA6C" d="M41.455,42.83c-0.792-0.408-2.333-0.067-2.4-1.2
	c0.653,0.533,1.926,0.149,2.4-0.24c0.071,0.631-0.931,0.188-0.72,0.96C41.018,42.466,41.279,42.605,41.455,42.83z"/>
<path fill-rule="evenodd" clip-rule="evenodd" fill="#4C5E56" d="M42.175,54.589c0.127-0.193,0.25-0.39,0.24-0.72
	c0.193,0.127,0.39,0.25,0.72,0.24c-0.131,0.989-0.79,1.451-1.44,1.92c0.329-0.631,1.01-0.91,1.2-1.68
	C42.564,54.339,42.368,54.462,42.175,54.589z"/>
<path fill-rule="evenodd" clip-rule="evenodd" fill="#4C5E56" d="M67.375,59.149c0.354-1.005,0.748-1.972,1.68-2.4
	C68.382,57.437,68.063,58.478,67.375,59.149z"/>
<path fill-rule="evenodd" clip-rule="evenodd" fill="#4C5E56" d="M69.534,57.949c-0.663,0.297-0.852,1.068-1.439,1.44
	c0.316-0.724,0.599-1.481,1.439-1.68C69.534,57.79,69.534,57.87,69.534,57.949z"/>
<path fill-rule="evenodd" clip-rule="evenodd" fill="#4C5E56" d="M71.935,56.509c-0.036,0.444-0.813,0.147-0.96,0.48
	c-0.179,0.739,0.659,0.461,0.479,1.2c-0.483-0.316-0.812-0.788-0.96-1.44C71.06,56.755,71.201,56.336,71.935,56.509z"/>
<path fill-rule="evenodd" clip-rule="evenodd" fill="#4C5E56" d="M36.175,60.59c1.026,1.213,1.835,2.644,3.36,3.359
	C37.812,63.433,36.963,62.041,36.175,60.59z"/>
<path fill-rule="evenodd" clip-rule="evenodd" fill="#C3AA6C" d="M39.774,58.909c0.984-0.695,1.857-1.502,2.88-2.16
	C41.907,57.682,40.994,58.448,39.774,58.909z"/>
<path fill-rule="evenodd" clip-rule="evenodd" fill="#322922" d="M38.095,41.629c-0.242,0.558-0.826,0.774-1.68,0.72
	c0-0.32,0-0.64,0-0.96C37.172,41.272,37.262,41.822,38.095,41.629z"/>
<path fill-rule="evenodd" clip-rule="evenodd" fill="#4C5E56" d="M57.294,42.35c1.071,0.369,1.884,0.996,2.4,1.92
	C58.919,43.605,58.122,42.962,57.294,42.35z"/>
<path fill-rule="evenodd" clip-rule="evenodd" fill="#322922" d="M59.694,44.27c0.039,0.279-0.053,0.427-0.24,0.48
	c-2.526-2.101-7.497-2.016-10.319-0.24c1.209-3.222,5.504-3.557,8.16-2.16C58.122,42.962,58.919,43.605,59.694,44.27z"/>
<path fill-rule="evenodd" clip-rule="evenodd" fill="#4C5E56" d="M50.575,47.39c0.971-0.949,1.507-2.333,3.12-2.64
	C52.323,45.297,51.787,46.681,50.575,47.39z"/>
<path fill-rule="evenodd" clip-rule="evenodd" fill="#4C5E56" d="M54.655,56.989c0.323-1.037,1.501-1.219,1.92-2.16
	C56.264,55.879,55.363,56.338,54.655,56.989z"/>
<path fill-rule="evenodd" clip-rule="evenodd" fill="#4C5E56" d="M58.734,50.509c-0.715,0.645-0.633,2.087-1.44,2.64
	C57.733,52.382,58.021,50.205,58.734,50.509z"/>
<path fill-rule="evenodd" clip-rule="evenodd" fill="#4C5E56" d="M58.975,50.509c0.501-0.899,0.401-0.993,0.96-1.92
	c-0.29-0.35-1.049-0.231-0.72-1.2c-0.776-0.297-0.184,0.776-0.96,0.48c-0.576-1.104-0.683-2.678-2.16-2.88c0-0.08,0-0.16,0-0.24
	c1.424,0.176,1.738,1.461,2.16,2.64c0.578,0.098,0.521-0.438,1.199-0.24c0.494,0.332-0.55,1.142,0.721,0.96
	C60.123,49.257,59.687,50.021,58.975,50.509z"/>
<path fill-rule="evenodd" clip-rule="evenodd" fill="#4C5E56" d="M37.375,45.709c1.702-0.897,3.316,0.36,3.84,1.44
	C40.306,46.298,39.532,45.312,37.375,45.709z"/>
<path fill-rule="evenodd" clip-rule="evenodd" fill="#4C5E56" d="M52.495,46.669c0.592-0.773,2.318-1.674,3.6-0.96
	C54.334,45.469,53.52,46.175,52.495,46.669z"/>
<path fill-rule="evenodd" clip-rule="evenodd" fill="#4C5E56" d="M50.334,51.229c-0.733,0.548,0.04-2.133,0.72-2.4
	C50.769,49.434,50.114,50.915,50.334,51.229z"/>
<path fill-rule="evenodd" clip-rule="evenodd" fill="#BDBDBB" d="M39.774,54.83c-2.782-0.098-2.802-2.958-3.36-5.28
	c2.086,0.072,1.25,3.529,3.36,3.6c0.787,0.027,1.48-0.405,1.92-1.44c0.512,0.15,0.225,1.477,0,1.68
	C41.313,54.128,40.778,54.713,39.774,54.83z"/>
<path fill-rule="evenodd" clip-rule="evenodd" fill="#C3AA6C" d="M41.695,53.39c0.11,1.08-1.376,1.812-1.92,1.44
	C40.778,54.713,41.313,54.128,41.695,53.39z"/>
<path fill-rule="evenodd" clip-rule="evenodd" fill="#4C5E56" d="M56.334,53.39c0.198-0.615,1.135-1.73,0.48-2.4
	C57.692,50.558,57.109,53.263,56.334,53.39z"/>
<path fill-rule="evenodd" clip-rule="evenodd" fill="#BDBDBB" d="M56.334,53.39c-0.706,4.257-8.355,4.222-6.48-0.96
	c0.422-0.138,1.41,0.291,1.44-0.24c0.482,0.638,0.958,1.282,1.68,1.68c2.047,0.446,2.236-2.18,3.84-2.88
	C57.469,51.66,56.532,52.775,56.334,53.39z"/>
<path fill-rule="evenodd" clip-rule="evenodd" fill="#4C5E56" d="M60.895,61.789c1.146-0.053,1.029-1.37,1.92-1.68
	C62.353,60.695,61.729,62.374,60.895,61.789z"/>
<path fill-rule="evenodd" clip-rule="evenodd" fill="#4C5E56" d="M64.015,56.75c-0.428,0.932-0.309,2.411-1.2,2.88
	C63.434,58.889,63.259,57.354,64.015,56.75z"/>
<path fill-rule="evenodd" clip-rule="evenodd" fill="#322922" d="M41.455,61.31c1.663,0.018,3.569-0.21,3.36,1.68
	c-1.217,0.098-1.67-0.569-2.4-0.96C42.491,61.393,41.07,62.254,41.455,61.31z"/>
<path fill-rule="evenodd" clip-rule="evenodd" fill="#C3AA6C" d="M44.095,54.35c0-0.48,0-0.96,0-1.44
	c-0.739-0.179-0.461,0.659-1.2,0.48c0-0.4,0-0.8,0-1.2c0.08,0,0.16,0,0.24,0C43.642,52.613,45.053,52.851,44.095,54.35z"/>
<path fill-rule="evenodd" clip-rule="evenodd" fill="#322922" d="M71.454,58.189c0.402,0.398,0.191,1.409,0.24,2.16
	c-0.192,0.127-0.39,0.25-0.72,0.24c-0.021-0.381,0.115-0.916-0.24-0.96c0.066-1.026-0.696-1.224-1.2-1.681c0-0.08,0-0.16,0-0.24
	c-0.841,0.199-1.123,0.957-1.439,1.68c0,0.08,0,0.16,0,0.24c-0.341,0.021-0.68,0.039-0.72-0.24c0-0.08,0-0.16,0-0.24
	c0.688-0.672,1.007-1.713,1.68-2.4c0.565-0.074,0.446-0.833,1.2-0.72c0.467-0.081,2.217-0.825,1.92,0.48c-0.08,0-0.16,0-0.24,0
	c-0.733-0.173-0.875,0.246-1.44,0.24C70.643,57.401,70.971,57.874,71.454,58.189z"/>
<path fill-rule="evenodd" clip-rule="evenodd" fill="#322922" d="M53.695,44.75c0.763-0.041,1.767-0.563,2.4,0c0,0.08,0,0.16,0,0.24
	c1.478,0.203,1.584,1.776,2.16,2.88c0.776,0.296,0.184-0.777,0.96-0.48c-0.329,0.969,0.43,0.85,0.72,1.2
	c-0.559,0.927-0.459,1.021-0.96,1.92c-0.08,0-0.16,0-0.24,0c-0.713-0.304-1.001,1.873-1.44,2.64c0.106,0.906-0.473,1.127-0.72,1.68
	c-0.419,0.941-1.597,1.123-1.92,2.16c-6.331,3.446-7.639-6.026-4.08-9.6C51.787,46.681,52.323,45.297,53.695,44.75z M56.095,45.709
	c-1.282-0.714-3.008,0.187-3.6,0.96c-0.269,0.932-1.172,1.229-1.44,2.16c-0.681,0.267-1.453,2.948-0.72,2.4
	c2.712-0.408,5.262-0.978,6.96-2.4c0.27-1.63-0.516-2.204-0.96-3.12C56.254,45.709,56.175,45.709,56.095,45.709z M56.814,50.989
	c-1.604,0.7-1.792,3.326-3.84,2.88c-0.722-0.398-1.198-1.042-1.68-1.68c-0.03,0.53-1.018,0.102-1.44,0.24
	c-1.875,5.183,5.774,5.217,6.48,0.96C57.109,53.263,57.692,50.558,56.814,50.989z"/>
<path fill-rule="evenodd" clip-rule="evenodd" fill="#322922" d="M60.895,61.789c0.39-1.952,2.242-4.462,2.88-6.959
	c0.983,0.272,0.058,1.063,0.24,1.92c-0.756,0.604-0.581,2.139-1.2,2.88c0,0.159,0,0.319,0,0.479
	C61.924,60.419,62.041,61.736,60.895,61.789z"/>
</svg>
