<?xml version="1.0" encoding="utf-8"?>
<!-- Generator: Adobe Illustrator 15.1.0, SVG Export Plug-In . SVG Version: 6.00 Build 0)  -->
<!DOCTYPE svg PUBLIC "-//W3C//DTD SVG 1.1//EN" "http://www.w3.org/Graphics/SVG/1.1/DTD/svg11.dtd">
<svg version="1.1" id="Ebene_1" xmlns="http://www.w3.org/2000/svg" xmlns:xlink="http://www.w3.org/1999/xlink" x="0px" y="0px"
	 width="113.39px" height="113.39px" viewBox="0 0 113.39 113.39" enable-background="new 0 0 113.39 113.39" xml:space="preserve">
<path fill-rule="evenodd" clip-rule="evenodd" fill="#302923" d="M80.215,22.91c1.02-0.139,1.113,0.647,1.44,1.2
	c0.113,0.753-0.646,0.634-0.721,1.2C80.126,24.975,79.795,23.791,80.215,22.91z"/>
<path fill-rule="evenodd" clip-rule="evenodd" fill="#302923" d="M76.135,24.59c0.411,0.309,0.943,0.496,0.96,1.2
	C76.321,26.621,75.471,25.196,76.135,24.59z"/>
<path fill-rule="evenodd" clip-rule="evenodd" fill="#402F26" d="M39.655,26.03c0.525,0.035,0.515,0.604,0.48,1.2
	c-0.501,0.102-0.635-0.164-0.96-0.24C39,26.335,39.652,26.506,39.655,26.03z"/>
<path fill-rule="evenodd" clip-rule="evenodd" fill="#302923" d="M76.615,28.43c0.568-0.808,1.715,0.631,0.96,1.2
	C76.569,29.916,77.146,28.618,76.615,28.43z"/>
<path fill-rule="evenodd" clip-rule="evenodd" fill="#402F26" d="M39.175,29.63c0.713-0.286,1.031,1.011,0.48,1.2
	C38.849,31.076,39.281,30.083,39.175,29.63z"/>
<path fill-rule="evenodd" clip-rule="evenodd" fill="#302923" d="M79.975,30.83c1.065,0.274-0.493,0.956,0.24,1.92
	c-0.804,0.597-1.797-0.402-2.16,0.72c-0.625-0.335-1.443-0.477-2.16-0.72c0.348-1.387,1.715-0.296,2.641-0.48
	c0.322-0.158,0.446-0.513,0.479-0.96C79.296,31.613,80.012,31.502,79.975,30.83z"/>
<path fill-rule="evenodd" clip-rule="evenodd" fill="#302923" d="M43.255,33.709c1.111,0.087,1.422,1.435,0.96,2.4
	c-0.739,0.168-0.461,0.168-1.2,0C42.548,35.523,42.72,34.038,43.255,33.709z"/>
<path fill-rule="evenodd" clip-rule="evenodd" fill="#302923" d="M76.854,35.15c1.256-0.393,1.846,0.674,1.2,1.44
	C77.282,36.482,76.661,36.223,76.854,35.15z"/>
<path fill-rule="evenodd" clip-rule="evenodd" fill="#302923" d="M73.255,37.55c1.366,0.059,0.315,1.25,0.24,1.92
	C73.2,39.014,72.9,37.933,73.255,37.55z"/>
<path fill-rule="evenodd" clip-rule="evenodd" fill="#302923" d="M78.535,38.51c1.738,0.707,0.633,5.143-1.44,5.04
	C76.768,41.902,77.555,39.617,78.535,38.51z"/>
<path fill-rule="evenodd" clip-rule="evenodd" fill="#302923" d="M72.774,39.709c-0.319,0-0.64,0-0.96,0
	C71.626,38.786,72.964,38.786,72.774,39.709z"/>
<path fill-rule="evenodd" clip-rule="evenodd" fill="#302923" d="M72.295,41.87c-0.558,0.529-1.363-0.047-1.92-0.24
	c0-0.24,0-0.48,0-0.72C71.085,40.375,72.564,40.674,72.295,41.87z"/>
<path fill-rule="evenodd" clip-rule="evenodd" fill="#C4A969" d="M42.775,41.87c3.622-0.097,6.304-0.19,10.56,0
	c0.904-0.092,1.815,1.048,2.64,0.24c0.793-0.555,2.11,0.862,3.12,0c0.187-0.054,0.474-0.007,0.48-0.24
	c1.845,1.718,4.039,0.834,6.479,1.92c0.036,0.444,0.813,0.147,0.96,0.48c0.009,0.872-0.135,1.895,0.48,2.16
	c-0.118,0.757,0.433,0.848,0.239,1.68c-0.219,1.621-0.657,3.022-1.439,4.08c0,0.16,0,0.32,0,0.48
	c-1.563,2.438,2.063,3.643,2.64,5.52c0,0.08,0,0.16,0,0.24c1.819,1.661,4.859-3.013,6.721-2.16c2.715,0.312,2.386,4.153,1.439,6.24
	c-1.05,0.95-1.953,2.047-3.12,2.88c-0.08,0-0.16,0-0.24,0c-2.123,0.3-1.817-0.692-3.6-0.96c0.203,1.717,1.894,1.946,3.36,2.4
	c0.24,3.36-0.293,5.947-0.721,8.64c-0.894,1.346-1.382,3.098-2.159,4.56c0,0.08,0,0.16,0,0.24c-1.246,1.475-2.207,3.233-3.36,4.8
	c-0.614,0.906-1.411,1.629-2.16,2.4c-1.206,1.674-3.023,2.736-4.32,4.32c-0.146,0.014-0.284,0.035-0.239,0.239
	c-1.701,1.099-3.482,2.118-5.041,3.36c-0.08,0-0.16,0-0.24,0c-1.497,0.576-2.222,0.943-4.08,1.44
	c-1.172-0.028-2.529,0.129-3.36-0.24c-1.055-0.785-2.108-1.572-3.12-2.4c-0.146-0.014-0.284-0.036-0.24-0.24
	c-0.292-0.828-1.437-0.802-1.2-2.159c1.166-0.314,4.495,0.425,6-0.24c0.49,0.37,1.591-0.186,2.16-0.48
	c2.599-0.694,5.238-2.582,6-4.319c-1.711,0.371-3.724,2.515-6,3.12c-0.08,0-0.16,0-0.24,0c-1.276,0.644-3.595,0.245-5.04,0.72
	c-1.352-0.414-1.726-0.463-3.36-0.72c-1.747-0.813-3.17-1.95-4.08-3.601c-0.133-0.427-0.124-0.996-0.48-1.2
	c-0.142-1.698-0.727-2.953-0.48-5.04c0.187-0.053,0.279-0.2,0.24-0.479c1.135-0.36,2.024,1.023,3.6,0.96c0.08,0,0.16,0,0.24,0
	c0.794,0.543,2.769,0.217,3.36-0.24c0.557,0.077,0.921-0.038,1.2-0.24c1.763-0.316,3.048-1.111,4.08-2.159
	c-1.304-0.763-3.789,1.368-5.52,1.439c-0.16,0-0.32,0-0.48,0c-0.953,0.141-2.658-0.205-2.88,0c-0.08,0-0.16,0-0.24,0
	c-0.223-0.737-1.503-0.417-1.92-0.96c-0.593-0.207-0.71-0.89-1.2-1.2c-0.512-0.934-0.989-2.617-0.48-3.84
	c0.737,0.063,1.079,0.521,1.68,0.72c0.97,0.929,2.453,0.582,3.36,0c2.517-0.807,4.276,1.023,6.48,0.721c0.08,0,0.16,0,0.24,0
	c0.342,0.353,2.081-0.2,2.16-0.24c1.104-0.016,1.558-0.683,2.4-0.96c0.653-0.387,1.508-0.572,1.44-1.68
	c-0.595-0.36-1.636,0.492-2.16,0.96c-4.454,2.163-8.167-2.026-12.24,0.479c-1.556-0.701-2.936-1.106-4.32-2.4
	c-0.098-0.578,0.438-0.521,0.24-1.199c0.473-0.407,0.644-1.116,0.72-1.92c0.213-0.587,0.559-1.041,0.48-1.92
	c0.655-0.022,0.483,0.399,0.96,0c0.25,0.253,1.714,0.495,1.92,0c0.08,0,0.16,0,0.24,0c0.622,0.121,2.658-0.149,3.12-0.96
	c0.08,0,0.16,0,0.24,0c1.122-0.319,2.091-0.79,2.4-1.921c0-0.079,0-0.159,0-0.239c1.446-1.526-1.042-3.457-2.64-2.641
	c0.025,1.096,1.824,0.416,1.68,1.681c0.317,1.356-0.888,1.191-1.2,1.92c-1.28,0.16-1.868,1.012-3.36,0.96c-0.8,0-1.6,0-2.4,0
	c-0.734,0.174-0.706-0.414-1.44-0.24c-0.864-0.576-1.52-1.36-1.92-2.4c0.306-3.214,3.24-3.8,6-4.56c1.95-0.133,3.834-1.603,3.12-3.6
	c0-0.08,0-0.16,0-0.24c0.727-0.293-0.17-0.916-0.24-1.2c0.238-0.254-0.323-1.745-0.96-1.92c0-0.08,0-0.16,0-0.24
	c-0.249-0.871-1.103-1.137-1.68-1.68c-0.08,0-0.16,0-0.24,0c-0.557-0.883-2.765-0.115-2.4-1.92c0.25-0.55,1.713,0.114,1.92-0.48
	c0.691,0.135,0.417,0.175,1.2,0.48c0.579-0.098,0.522,0.438,1.2,0.24c0.388,0.62,0.862,1.152,1.2,1.2
	c0.459-0.588,1.151-1.087,0.72-1.92c-0.195-2.047-2.954-2.803-4.32-2.88c-0.08,0-0.16,0-0.24,0c0.108-0.668-1.308,0.188-1.2-0.48
	C39.847,41.329,41.826,41.731,42.775,41.87z M54.295,44.03c-0.08,0-0.16,0-0.24,0c-0.927,1.008-2.401,0.108-3.36,1.2
	c-0.16,0-0.32,0-0.48,0c-1.054,0.237-3.388,2.415-1.92,4.56c0.871-0.009,1.895,0.135,2.16-0.48c0.601,0.041,0.751-0.369,0.96-0.72
	c1.239-0.121,1.958-0.763,2.88-1.2c1.385,0.5,2.455-0.011,3.84,0.24c0.735,0.392,2.473,1.038,2.64,1.2
	c0.146,0.415,1.139-0.019,1.2,0.48c1.128,1.108,1.446-2.626,0.72-2.64c-0.602-0.366-1.242-1.945-1.92-1.44
	c-0.373-0.347-0.935-0.504-1.439-0.72c-0.719,0.127-2.515-0.787-3.12,0C56.219,43.328,54.623,43.998,54.295,44.03z M55.735,49.31
	c-0.733-0.649-1.199-0.225-2.16,0c-1.11,0.33-1.785,1.095-2.4,1.92c0,0.08,0,0.16,0,0.24c-0.934,0.75-1.65,2.985-1.44,4.08
	c-0.588,2.192,1.572,4.73,3.6,4.32c0.262,0.551,1.178-0.239,1.44-0.48c1.2-0.32,1.952-1.088,2.4-2.16
	c1.175-0.984,1.238-3.082,2.4-4.08c-1.125,0.004-0.775-1.465-1.44-1.92c0-0.08,0-0.16,0-0.24
	C58.24,50.485,56.641,48.864,55.735,49.31z M73.975,60.59c-0.08,0-0.16,0-0.24,0c0.146,0.494-0.387,1.667,0.48,1.439
	c0.945-0.414,1-1.72,0.96-3.119c0.758-0.043,1.432-0.169,1.44-0.96c-0.196-0.506-1.266-0.659-1.681-0.24
	c-0.906-0.106-1.127,0.473-1.68,0.72c-0.08,0-0.16,0-0.24,0c-0.868,0.571-1.465,1.415-1.68,2.64c1.405,0.206,1.078-1.321,2.64-0.96
	C73.975,60.27,73.975,60.43,73.975,60.59z M53.335,65.39c-0.961-1.039-1.818-2.182-3.36-2.64c1.307,3.013,3.984,4.656,6.72,6.239
	c0.08,0,0.16,0,0.24,0c0.511,0.975,1.627,0.021,1.68,1.2c0,0.08,0,0.16,0,0.24c0,0.479,0,0.96,0,1.44c0,0.239,0,0.479,0,0.72
	c-0.08,0-0.16,0-0.24,0c0.177,0.879-0.59,1.333,0,1.92c0.744-0.056,0.749-0.852,0.96-1.44c0.461-1.668,0.977-3.379,0-4.8
	c-0.833,0.192-0.923-0.357-1.68-0.24c-0.771-0.908-2.301-1.059-3.12-1.92C53.969,66.035,54.088,65.276,53.335,65.39z M57.415,75.229
	c-0.168,0.831,0.841,0.861,1.2,0.48C58.783,74.879,57.773,74.849,57.415,75.229z"/>
<path fill-rule="evenodd" clip-rule="evenodd" fill="#C4A969" d="M39.415,50.99c0.552-0.568,0.376-1.863,1.68-1.68
	c1.319,0.762,2.145,2.016,2.64,3.6c0,0.08,0,0.16,0,0.24c-0.387,0.702-1.237-0.383-1.44,0.24c-0.427-0.213-0.61-0.67-1.44-0.48
	c-0.045-0.355-0.58-0.22-0.96-0.24c-0.08,0-0.16,0-0.24,0C39.324,52.36,39.417,51.627,39.415,50.99z"/>
<path fill-rule="evenodd" clip-rule="evenodd" fill="#C4A969" d="M53.335,50.51c1.48-0.529,3.127-1.072,3.84,0.48
	c0,0.08,0,0.16,0,0.24c-0.002,0.638,0.091,1.371-0.24,1.68c-1.009,0.224-1.291-0.068-2.16,0.48c-0.08,0-0.16,0-0.24,0
	c-1.181,0.019-1.929,0.471-2.88,0.72c-0.928-1.101,0.794-1.597,0.72-2.64C52.656,51.111,53.372,51.187,53.335,50.51z"/>
<path fill-rule="evenodd" clip-rule="evenodd" fill="#402F26" d="M76.135,50.51c0.996,0.283-0.026,1.19,0,1.92
	C75.191,52.199,75.953,51.032,76.135,50.51z"/>
<path fill-rule="evenodd" clip-rule="evenodd" fill="#505C52" d="M57.175,51.229c0.268,0.235,0.824,1.385,0.24,1.68
	c-0.16,0-0.32,0-0.48,0C57.266,52.601,57.172,51.867,57.175,51.229z"/>
<path fill-rule="evenodd" clip-rule="evenodd" fill="#402F26" d="M39.175,54.35c-0.544-0.255-0.091-1.509-0.24-2.16
	c0.378,0.022,0.188,0.612,0.72,0.48c0.08,0,0.16,0,0.24,0c0.092,0.813-1.063,0.378-0.72,1.44
	C39.175,54.189,39.175,54.27,39.175,54.35z"/>
<path fill-rule="evenodd" clip-rule="evenodd" fill="#505C52" d="M42.295,53.39c0.203-0.623,1.053,0.462,1.44-0.24
	c0.013,0.307,0.308,0.332,0.24,0.72C43.113,54.011,42.814,53.591,42.295,53.39z"/>
<path fill-rule="evenodd" clip-rule="evenodd" fill="#AAA9AA" d="M39.895,53.63c0.493,0.067,0.479,0.641,0.72,0.96
	c-0.09,1.13,1.272,0.807,1.44,1.68c-1.349,0.235-2.048,0.873-2.64-0.24c-0.252-1.026,0.06-1.224-0.24-1.68c0-0.08,0-0.16,0-0.24
	C39.553,54.088,39.363,53.498,39.895,53.63z"/>
<path fill-rule="evenodd" clip-rule="evenodd" fill="#AAA9AA" d="M54.535,56.03c1.769,0.329,1.166-1.714,2.4-1.92
	c0.916,1.432-1.263,3.83-2.64,4.56c-0.349,0.131-1.241-0.28-1.2,0.24c-0.324-0.076-0.458-0.342-0.96-0.24
	c-0.654-0.786-1.41-1.47-1.2-3.12c0.596,0.036,0.996-0.124,1.2-0.48c0.946-0.066,0.734,1.026,1.68,0.96
	C53.885,56.254,54.464,56.254,54.535,56.03z"/>
<path fill-rule="evenodd" clip-rule="evenodd" fill="#402F26" d="M66.535,54.83c1.451-0.248,1.942,2.534,3.12,3.36
	c1.027,0.148,0.979-0.781,1.92-0.72c-0.457,0.804-1.667,2.104-2.641,0.96c0-0.08,0-0.16,0-0.24
	C68.348,56.857,67.617,55.667,66.535,54.83z"/>
<path fill-rule="evenodd" clip-rule="evenodd" fill="#505C52" d="M53.095,58.91c-0.041-0.521,0.852-0.109,1.2-0.24
	c-0.013,0.413,0.185,0.615,0.48,0.72c-0.262,0.241-1.178,1.031-1.44,0.48c0.342-0.058,0.405-0.396,0.72-0.48
	C53.897,59.067,53.542,58.942,53.095,58.91z"/>
<path fill-rule="evenodd" clip-rule="evenodd" fill="#505C52" d="M39.175,64.67c0.8,0,1.6,0,2.4,0
	c-0.238,0.625-1.878,0.642-2.4,0.24C39.175,64.83,39.175,64.75,39.175,64.67z"/>
<path fill-rule="evenodd" clip-rule="evenodd" fill="#505C52" d="M58.615,70.43c0.672-0.021,0.672,1.461,0,1.44
	C58.615,71.39,58.615,70.909,58.615,70.43z"/>
<path fill-rule="evenodd" clip-rule="evenodd" fill="#505C52" d="M58.615,72.59c0.098,0.302,0.309,0.49,0.72,0.479
	c-0.211,0.589-0.216,1.385-0.96,1.44c-0.59-0.587,0.177-1.041,0-1.92C58.455,72.59,58.535,72.59,58.615,72.59z"/>
<path fill-rule="evenodd" clip-rule="evenodd" fill="#505C52" d="M58.615,75.71c-0.359,0.381-1.369,0.351-1.2-0.48
	C57.773,74.849,58.783,74.879,58.615,75.71z"/>
<path fill-rule="evenodd" clip-rule="evenodd" fill="#302923" d="M37.255,77.39c0.544-0.548,0.872,0.346,0.96,0.96
	c-0.186,0.054-0.474,0.007-0.48,0.24c-0.396-0.004-0.134-0.666-0.48-0.72C37.255,77.71,37.255,77.55,37.255,77.39z"/>
<path fill-rule="evenodd" clip-rule="evenodd" fill="#302923" d="M72.295,77.87c0.746,0.67,1.164,0.242,2.399,0.239
	c0.209,0.929-0.586,0.854-0.72,1.44c-1.662-1.208-1.877,0.911-2.88,1.68C70.621,80.188,72.323,79.264,72.295,77.87z"/>
<path fill-rule="evenodd" clip-rule="evenodd" fill="#505C52" d="M45.175,80.27c-0.591,0.457-2.566,0.783-3.36,0.24
	C43.385,80.822,44.092,79.736,45.175,80.27z"/>
<path fill-rule="evenodd" clip-rule="evenodd" fill="#302923" d="M70.375,81.71c0.554,0.491-0.269,1.638-0.96,1.68
	C69.419,82.514,70.097,82.312,70.375,81.71z"/>
<path fill-rule="evenodd" clip-rule="evenodd" fill="#302923" d="M67.734,85.31c0.206,0.766-0.377,0.742-0.479,1.2
	C66.364,86.331,66.966,85.214,67.734,85.31z"/>
<path fill-rule="evenodd" clip-rule="evenodd" fill="#302923" d="M65.095,88.909c-0.184,2.376-0.726,4.396-1.92,5.761
	c-0.86-1.111,0.264-2.289,0.72-2.88c0.13-0.851-0.85-0.591-0.72-1.44C63.986,90.041,63.923,88.857,65.095,88.909z"/>
<path fill-rule="evenodd" clip-rule="evenodd" fill="#302923" d="M30.295,91.55c0.913,0.006,0.874,1.25-0.24,0.96
	C29.953,92.008,30.219,91.874,30.295,91.55z"/>
<path fill-rule="evenodd" clip-rule="evenodd" fill="#AAA9AA" d="M60.295,93.71c0.661-0.265,1.259-1.446,1.92-0.96
	c0.36,1.32-0.718,1.202-0.96,1.92c0,0.08,0,0.16,0,0.239c-0.594,0.207,0.07,1.671-0.48,1.921c-1.03,0.985-2.63,2.08-1.92,4.079
	c-0.77-0.209-0.75,0.37-0.959,0.721c-0.628,0.332-0.363,1.557-0.96,1.92c-0.421,0.219-0.834,0.446-0.72,1.2
	c-1.135-0.385-1.308-1.732-2.16-2.4c-0.403-0.956-1.147-1.572-1.92-2.16c-0.319-0.801-1.089-1.15-1.68-1.68
	c0.085-0.635,1.223-0.217,1.44-0.72c0.879,0.079,1.333-0.267,1.92-0.48c2.455-0.824,4.744-1.816,6.24-3.6
	C60.135,93.71,60.215,93.71,60.295,93.71z"/>
<path fill-rule="evenodd" clip-rule="evenodd" fill="#AAA9AA" d="M41.095,93.949c0.337-0.063,0.274-0.526,0.48-0.72
	c0.85-0.13,0.59,0.85,1.44,0.72c0.479,1.282,1.729,1.792,2.64,2.641c0.271,0.608,1.181,0.578,1.2,1.439
	c-0.413-0.013-0.615,0.186-0.72,0.48c-0.08,0-0.16,0-0.24,0c-1.978,1.222-3.175,3.226-5.04,4.56
	c-0.521-0.499,0.029-0.775,0.24-1.199c0.035-0.284,0.427-0.545,0-0.721c-0.055-0.425,0.242-1.201-0.48-0.96
	c-0.054-0.453,0.271-0.529,0.24-0.96C40.696,97.091,41.688,96.459,41.095,93.949z"/>
<path fill-rule="evenodd" clip-rule="evenodd" fill="#505C52" d="M70.615,113.39c2.987-3.012,4.582-7.418,8.159-9.84
	c0.128-0.673,0.353-1.248,0.48-1.92c0.863-0.257,1.572-0.668,2.16-1.2c0.715-3.284,3.57-4.43,5.04-6.96
	c4.498,1.945,8.374,3.235,11.52,5.76c4.089,3.281,4.322,8.53,5.76,14.16c-5.84,0-11.68,0-17.52,0c0.619-2.993,1.801-6.663,2.16-9.12
	c-2.53,1.241-3.153,5.632-2.641,9.12C80.694,113.39,75.655,113.39,70.615,113.39z"/>
<path fill-rule="evenodd" clip-rule="evenodd" fill="#302923" d="M62.455,94.67c0.159,1.359-0.173,2.228-0.96,2.64
	C61.417,96.981,61.665,94.928,62.455,94.67z"/>
<path fill-rule="evenodd" clip-rule="evenodd" fill="#505C52" d="M28.855,113.39c-6.48,0-12.96,0-19.44,0
	c0.866-2.648,0.168-5.12,1.2-7.2c2.305-4.646,9.637-7.715,14.4-8.88c1.615,1.049,0.494,2.953,0.72,4.561
	c0.543,3.856,3.359,7.584,3.12,11.279C28.855,113.229,28.855,113.31,28.855,113.39z M12.775,111.71
	c0.848-1.712,0.25-4.869,0.96-6.721c-0.331,0.011-0.527-0.112-0.72-0.239C12.104,106.448,11.149,110.171,12.775,111.71z"/>
<path fill-rule="evenodd" clip-rule="evenodd" fill="#302923" d="M63.895,97.069c0.279-0.039,0.428,0.054,0.48,0.24
	c0.128,0.929-0.429,1.172-0.24,2.16c-1.018,1.063-1.93,2.229-1.92,4.32c-1.806,1.153-1.531,4.389-3.84,5.04
	C59.194,103.889,61.84,100.774,63.895,97.069z"/>
<path fill-rule="evenodd" clip-rule="evenodd" fill="#505C52" d="M46.375,105.949c-1.33-0.59-0.475-3.365-0.72-5.04
	c1.195-2.285,4.49-1.972,4.8,0.24C50.799,103.604,47.882,105.496,46.375,105.949z"/>
<path fill-rule="evenodd" clip-rule="evenodd" fill="#302923" d="M31.975,99.47c0.417,0.445,0.31,1.72-0.24,1.92
	c-0.24,0-0.48,0-0.72,0C30.48,100.68,30.779,99.2,31.975,99.47z"/>
<path fill-rule="evenodd" clip-rule="evenodd" fill="#402F26" d="M27.415,99.71c0.24,0,0.48,0,0.72,0
	c0.46,0.58,0.151,1.929,0.24,2.88C27.255,102.392,27.008,100.718,27.415,99.71z"/>
<path fill-rule="evenodd" clip-rule="evenodd" fill="#302923" d="M58.375,102.109c0.945-0.121,0.438,1.669-0.24,1.44
	C58.104,102.958,58.099,102.394,58.375,102.109z"/>
<path fill-rule="evenodd" clip-rule="evenodd" fill="#AAA9AA" d="M51.895,102.83c0.307-0.014,0.332-0.308,0.72-0.24
	c0.868,1.292,1.652,2.668,2.64,3.84c0,0.24,0,0.479,0,0.72c0,0.32,0,0.641,0,0.96c-0.704,0.479-1.58,1.407-0.72,2.16
	c0,0.08,0,0.16,0,0.24c-1.338,0.612-0.819,1.844-1.44,2.88c-0.72,0-1.44,0-2.16,0c-0.014-0.146-0.036-0.284-0.24-0.24
	c0.095-1.695-0.101-3.099-0.72-4.08c-0.39-0.772-0.114-1.3,0-2.16C50.416,105.351,51.459,104.395,51.895,102.83z"/>
<path fill-rule="evenodd" clip-rule="evenodd" fill="#AAA9AA" d="M42.775,103.069c0.146-0.014,0.284-0.035,0.24-0.239
	c1.256,1.109-0.154,3.404,0.96,4.56c0.028,1.628-1.213,1.986-1.2,3.6c-0.076,0.325-0.342,0.459-0.24,0.96
	c-0.673,0.583-0.003,1.118-0.72,1.44c-0.16,0-0.32,0-0.48,0c0.269-0.346,0.259-0.586-0.24-0.72c-0.298-1.041,1.199-1.662,0-2.16
	c0-0.08,0-0.16,0-0.24c0.074-0.565,0.833-0.446,0.72-1.2c-0.644-0.807-0.555-1.57-0.72-2.399c0-0.08,0-0.16,0-0.24
	C40.521,105.064,42.524,104.391,42.775,103.069z"/>
<path fill-rule="evenodd" clip-rule="evenodd" fill="#302923" d="M67.015,104.029c-0.678,0.198-0.621-0.338-1.2-0.239
	C65.836,103.075,67.246,103.147,67.015,104.029z"/>
<path fill-rule="evenodd" clip-rule="evenodd" fill="#302923" d="M36.295,103.55c1.195-0.27,1.495,1.21,0.96,1.92
	c-0.32,0-0.64,0-0.96,0C35.942,105.12,35.942,103.898,36.295,103.55z"/>
<path fill-rule="evenodd" clip-rule="evenodd" fill="#402F26" d="M28.375,104.029c0.937,0.344,0.796,1.764,1.2,2.641
	C28.183,106.781,28.431,105.254,28.375,104.029z"/>
<path fill-rule="evenodd" clip-rule="evenodd" fill="#402F26" d="M86.215,113.39c-0.16,0-0.32,0-0.48,0
	c-0.513-3.488,0.11-7.879,2.641-9.12C88.016,106.727,86.834,110.396,86.215,113.39z"/>
<path fill-rule="evenodd" clip-rule="evenodd" fill="#402F26" d="M13.015,104.75c0.193,0.127,0.39,0.25,0.72,0.239
	c-0.709,1.852-0.112,5.009-0.96,6.721C11.149,110.171,12.104,106.448,13.015,104.75z"/>
<path fill-rule="evenodd" clip-rule="evenodd" fill="#302923" d="M44.455,106.909c0.651,0.149,0.598,1.003,1.44,0.961
	c-0.244,0.636-1.11,0.649-1.44,1.199C43.975,108.805,44.747,107.781,44.455,106.909z"/>
<path fill-rule="evenodd" clip-rule="evenodd" fill="#505C52" d="M47.575,109.55c0.421,0.219,0.834,0.446,0.72,1.2
	C47.757,110.436,46.688,109.933,47.575,109.55z"/>
<path fill-rule="evenodd" clip-rule="evenodd" fill="#302923" d="M65.095,110.029c0.474,0.166,0.64,0.641,0.72,1.2
	c-0.527,0.762-2.101,0.354-2.159-0.72C64.27,110.484,64.799,110.374,65.095,110.029z"/>
<path fill-rule="evenodd" clip-rule="evenodd" fill="#505C52" d="M44.455,113.39c0.966-0.399,3.594-0.399,4.56,0
	C47.495,113.39,45.975,113.39,44.455,113.39z"/>
<path fill-rule="evenodd" clip-rule="evenodd" fill="#402F26" d="M42.295,14.51c0.023-0.617,0.937-0.343,0.96-0.96
	c0.08,0,0.16,0,0.24,0c-0.084,0.315-0.422,0.377-0.48,0.72c0.723-0.561,3.607-1.03,5.04-1.68c1.895,0.479,3.155,0.502,4.56-0.48
	c0.671,0.448,1.171,1.069,2.16,1.2c1.896-1.648,6.173,1.311,8.16-0.72c0.48,0,0.96,0,1.44,0c0.03,0.43-0.294,0.506-0.24,0.96
	c3.42-0.575,5.749,1.898,9.6,1.68c4.313,2.408,8.505,4.936,10.32,9.84c-0.629,3.691-1.87,6.77-2.16,10.8
	c-2.011,2.629-1.306,7.974-3.6,10.32c-3.859-2.781-9.75-3.53-15.36-4.56c0.707,1.543,2.785,0.585,3.12,2.16
	c-2.44-1.086-4.635-0.202-6.479-1.92c0.887-0.867,2.035,1.033,2.88,0.24c-0.873-0.487-1.461-1.26-2.4-1.68
	c-1.637,0.553-4.365,0.499-6-0.24c-3.999,0.353-10.82,0.578-14.16-0.48c0.385-1.789-0.285-2.632,0-3.84
	c0.375,0.824,0.2,2.2,1.68,1.92c0.69-4.788-0.794-9.296,0.48-13.2c-0.818-0.748-1.261,0.335-2.16,0.24
	c-1.291-1.377,0.404-3.331-0.72-5.04C39.746,17.561,41.716,16.731,42.295,14.51z M80.935,25.31c0.074-0.566,0.834-0.446,0.721-1.2
	c-0.327-0.553-0.421-1.339-1.44-1.2C79.795,23.791,80.126,24.975,80.935,25.31z M77.095,25.79c-0.017-0.704-0.549-0.891-0.96-1.2
	C75.471,25.196,76.321,26.621,77.095,25.79z M77.575,29.63c0.755-0.569-0.392-2.008-0.96-1.2
	C77.146,28.618,76.569,29.916,77.575,29.63z M79.015,31.31c-0.033,0.447-0.157,0.802-0.479,0.96
	c-0.926,0.184-2.293-0.907-2.641,0.48c0.717,0.244,1.535,0.385,2.16,0.72c0.363-1.123,1.356-0.124,2.16-0.72
	c-0.733-0.964,0.825-1.646-0.24-1.92C80.012,31.502,79.296,31.613,79.015,31.31z M43.015,36.11c0.739,0.168,0.461,0.168,1.2,0
	c0.462-0.965,0.151-2.313-0.96-2.4C42.72,34.038,42.548,35.523,43.015,36.11z M78.055,36.59c0.646-0.766,0.056-1.833-1.2-1.44
	C76.661,36.223,77.282,36.482,78.055,36.59z M73.495,39.47c0.075-0.67,1.126-1.861-0.24-1.92C72.9,37.933,73.2,39.014,73.495,39.47z
	 M77.095,43.55c2.073,0.103,3.179-4.333,1.44-5.04C77.555,39.617,76.768,41.902,77.095,43.55z M71.814,39.709c0.32,0,0.641,0,0.96,0
	C72.964,38.786,71.626,38.786,71.814,39.709z M70.375,40.91c0,0.24,0,0.48,0,0.72c0.557,0.192,1.362,0.769,1.92,0.24
	C72.564,40.674,71.085,40.375,70.375,40.91z"/>
<path fill-rule="evenodd" clip-rule="evenodd" fill="#402F26" d="M37.015,67.31c0-0.72,0-1.439,0-2.16
	c-3.499-1.859-1.872-7.066,1.68-7.68c1.455,0.238-0.042-0.986,0.72-1.44c0.592,1.112,1.291,0.475,2.64,0.24
	c0.936,0.056,1.245-0.516,1.92-0.72c-0.127-0.193-0.25-0.39-0.24-0.72c-0.87,0.17-1.027,1.053-2.4,0.72
	c-0.24-0.32-0.396-0.725-0.72-0.96c-0.241-0.319-0.227-0.893-0.72-0.96c0-0.16,0-0.32,0-0.48c0.213-0.187,0.542-0.258,0.96-0.24
	c0.83-0.19,1.013,0.267,1.44,0.48c0.519,0.201,0.818,0.622,1.68,0.48c0.068-0.388-0.227-0.413-0.24-0.72c0-0.08,0-0.16,0-0.24
	c-0.006-1.754-0.715-2.805-1.68-3.6c0.689-0.75,0.825,1.081,1.68,0.96c0,0.08,0,0.16,0,0.24c-0.246,0.262,0.893,1.175,0.96,1.92
	c0.07,0.284,0.967,0.907,0.24,1.2c-0.178-1.244-0.581,0.651-0.96,0.72c0.209,0.352,0.359,0.761,0.96,0.72
	c-0.512,1.328-1.828,1.852-3.12,2.4c-2.76,0.76-5.694,1.346-6,4.56c0.016,1.424,0.774,2.105,1.92,2.4
	c0.734-0.174,0.706,0.414,1.44,0.24c0,0.08,0,0.16,0,0.24c0.522,0.401,2.162,0.385,2.4-0.24c1.492,0.052,2.081-0.8,3.36-0.96
	c0.127,0.369,0.25,0.015,0.24-0.24c0.698,0.409-0.213,1.204-0.48,1.44c-0.08,0-0.16,0-0.24,0c-1.15,0.229-2.631,0.792-3.12,0.96
	c-0.08,0-0.16,0-0.24,0c-0.68-0.247-1.587-0.102-1.92,0c-0.477,0.399-0.305-0.022-0.96,0c0.079,0.879-0.267,1.333-0.48,1.92
	c-0.16,0-0.32,0-0.48,0C37.285,67.126,37.713,66.966,37.015,67.31z M41.095,53.15c-0.007,0.967,0.069,1.851,0.72,2.16
	c0.387-0.438,0.76,0.169,1.2-0.48C42.646,53.999,42.033,53.412,41.095,53.15z"/>
<path fill-rule="evenodd" clip-rule="evenodd" fill="#402F26" d="M33.175,84.59c0.631-0.729,1.121-1.599,1.92-2.16
	c0.08,0,0.16,0,0.24,0c2.244,1.036,2.011,4.549,3.6,6.24c0.973-0.614-1.715-1.807-0.24-2.16c0.336,1.104,1.268,1.611,1.92,2.399
	c-0.074,0.326-0.601,0.199-0.96,0.24c0.738,4.49-0.752,10.724-0.24,16.08c0.15,1.567,0.524,3.486,1.68,4.561
	c-0.147,0.213-0.29,0.429,0,0.479c0,0.08,0,0.16,0,0.24c-0.43,0.03-0.506-0.294-0.96-0.24c-0.287,0.673-0.264,1.656-0.24,2.64
	c0.1,0.533,1.316,0.23,1.2-0.239c0.499,0.134,0.509,0.374,0.24,0.72c-4.16,0-8.32,0-12.48,0c0-0.08,0-0.16,0-0.24
	c0.239-3.695-2.577-7.423-3.12-11.279c-0.227-1.607,0.895-3.512-0.72-4.561c-4.763,1.165-12.095,4.233-14.4,8.88
	c-1.031,2.08-0.333,4.552-1.2,7.2c-0.16,0-0.32,0-0.48,0c-1.226-10.482,7.938-14.363,16.08-17.04c0.046,0.272,0.241,0.134,0.24,0
	c1.098,1.954,1.254,6.993,2.16,9.84c0.808,2.541,2.47,4.012,1.68,6.96c1.7,0.42,0.69-1.869,0.96-2.88
	c1.307-0.026,0.543,2.017,1.92,1.92c1.607-4.371-2.752-8.082-1.92-12.479c-1.514-1.471-0.316-4.783-2.64-5.761
	c1.117-0.812,0.122-1.521,0.24-2.159c0.134-0.346,0.375-0.586,0.72-0.721c0.193,0.127,0.39,0.251,0.72,0.24
	c-0.139-0.779,0.164-1.116,0.24-1.68c0.106-0.214,0.21-0.43,0.48-0.48c0.458,0.821,1.6-1.238,0.48-1.2
	c0.217-0.423,0.537-0.743,0.96-0.96C32.185,88.316,33.309,85.903,33.175,84.59z M30.055,92.51c1.114,0.29,1.153-0.954,0.24-0.96
	C30.219,91.874,29.953,92.008,30.055,92.51z M31.015,101.39c0.24,0,0.48,0,0.72,0c0.549-0.2,0.657-1.475,0.24-1.92
	C30.779,99.2,30.48,100.68,31.015,101.39z M36.295,105.47c0.32,0,0.64,0,0.96,0c0.535-0.71,0.235-2.189-0.96-1.92
	C35.942,103.898,35.942,105.12,36.295,105.47z"/>
<path fill-rule="evenodd" clip-rule="evenodd" fill="#402F26" d="M73.975,75.229c-0.554,0.073-0.267-0.693-0.72-0.72
	c-0.654,0.221,0.335,0.75,0,1.439c3.549,0.052,4.44,2.76,6.479,4.32c0.233-0.007,0.187-0.294,0.24-0.479
	c0.204-0.045,0.227,0.093,0.24,0.239c-0.691,1.333,0.472,1.642,1.2,3.12c0.212,0.431,0,1.271,0.24,1.681
	c1.647,2.813,7.145,5.347,2.399,7.68c-0.185,2.535-1.774,3.665-3.6,4.56c-0.156,1.284-0.325,2.556-1.44,2.88
	c-0.155-1.915,1.193-2.326,1.68-3.6c-0.124-0.355-0.354-0.604-0.479-0.96c-3.649,1.79-4.47,6.41-7.2,9.12
	c-0.095,1.135,0.985,1.095,0.72,2.399c-0.278,0.202-0.643,0.317-1.199,0.24c0.104,0.825-0.095,1.346-0.24,1.92
	c-0.758-0.117-0.848,0.433-1.68,0.24c0.842,2.105-1.153,2.211-1.44,3.84c4.484-1.995,5.13-7.829,9.36-10.08
	c-0.14-0.939,0.206-1.394,0.479-1.92c0.558-0.322,1.363-0.397,1.92-0.72c0.986-3.733,3.759-5.681,6.24-7.92
	c5.554,3.887,13.513,5.367,15.6,12.72c-1.001-0.183-0.181,2.011,0.24,1.2c0.329,1.591,0.656,3.184,0.96,4.8
	c-0.233-0.007-0.187-0.294-0.24-0.479c-0.238,0.255-0.246,2.314,0.48,2.399c0.438,0.187-0.144,0.258-0.48,0.24
	c-1.438-5.63-1.671-10.879-5.76-14.16c-3.146-2.524-7.021-3.814-11.52-5.76c-1.47,2.53-4.325,3.676-5.04,6.96
	c-0.588,0.532-1.297,0.943-2.16,1.2c-0.128,0.672-0.353,1.247-0.48,1.92c-3.577,2.422-5.172,6.828-8.159,9.84
	c-5.841,0-11.681,0-17.521,0c0.621-1.036,0.102-2.268,1.44-2.88c0.557,0.553-0.444,0.773-0.24,1.68c0.305-0.895,1.23-1.17,1.2-2.399
	c-0.476-0.498-0.549,0.256-0.96,0.479c-0.859-0.753,0.016-1.681,0.72-2.16c-0.474,0.558-0.474,0.643,0,1.2
	c1.468-0.933,2.191-2.608,2.16-5.04c-0.841-0.04-0.756,0.845-1.2,1.2c-0.631,0.071-0.189-0.932-0.96-0.72
	c-0.655,0.561,1.253,1.973,0,2.399c0-0.24,0-0.479,0-0.72c-0.624-1.456-1.545-2.615-2.4-3.84c0.678,0.198,0.622-0.339,1.2-0.24
	c0.853,0.668,1.025,2.016,2.16,2.4c-0.114-0.754,0.299-0.981,0.72-1.2c0.24,0,0.48,0,0.72,0c-0.105-0.825,0.095-1.346,0.24-1.92
	c0.209-0.351,0.19-0.93,0.959-0.721c-0.71-1.999,0.89-3.094,1.92-4.079c0.676-0.333,0.774-1.24,0.48-1.921c0-0.079,0-0.159,0-0.239
	c1.435-0.406,1.34-2.34,2.4-3.12c-1.253-0.313-2.635,1.162-3.36,2.16c-0.08,0-0.16,0-0.24,0c-1.99,1.818-4.077,2.174-6.24,3.6
	c-0.586,0.214-1.041,0.56-1.92,0.48c-0.5-0.431-1.479,0.116-1.68,0.72c-0.597-0.036-0.07-0.813,0-0.96
	c-1.321,0.205-1.871-0.94-3.6-0.48c-0.477-0.003-0.305-0.654-0.96-0.479c-0.912-0.849-2.162-1.358-2.64-2.641
	c-0.291-0.589-1.118-0.642-1.2-1.439c-0.616,0.024-0.386,0.895-0.72,1.2c-0.687-1.546,1.619-3.124,0-4.32
	c0.878-0.158,0.921,0.52,1.68,0.48c1.634,0.257,2.008,0.306,3.36,0.72c1.878,0.141,4.228,0.208,5.04-0.72c0.08,0,0.16,0,0.24,0
	c1.024,0.649,2.058-1.442,3.36-0.961c-0.483,1.59-2.716,0.731-3.36,2.16c-0.569,0.295-1.67,0.851-2.16,0.48
	c-2.098-0.225-4.297,0.095-7.44-0.48c0.458,1.383,1.748,1.933,2.64,2.88c-0.044,0.204,0.094,0.227,0.24,0.24
	c0.734,1.632,1.543,1.707,3.12,2.4c0.831,0.369,2.188,0.212,3.36,0.24c2.021,0.079,2.75-0.458,4.08-1.44c0.08,0,0.16,0,0.24,0
	c1.796-1.004,3.612-1.988,5.041-3.36c-0.045-0.204,0.094-0.226,0.239-0.239c1.571-1.31,3.353-2.408,4.32-4.32
	c0.749-0.771,1.546-1.494,2.16-2.4c1.405-1.314,2.432-3.009,3.36-4.8c0-0.08,0-0.16,0-0.24c1.102-1.138,1.565-2.914,2.159-4.56
	c0.428-2.692,0.961-5.279,0.721-8.64c0.03-0.431-0.294-0.507-0.24-0.96c0.214-0.106,0.429-0.211,0.479-0.48c0.08,0,0.16,0,0.24,0
	c1.45-0.55,2.323-1.677,3.12-2.88c0.946-2.087,1.275-5.929-1.439-6.24c-1.217-0.569-2.688,0.668-3.841,0.96
	c0.993-0.768,1.99-1.679,3.12-1.68c2.296-0.002,3.025,2.644,3.84,2.64c0.537,0.104,0.098,1.183,0.24,1.681
	c-0.521,0.04-0.108-0.852-0.24-1.2c-0.47,0.409-0.076,1.684-0.72,1.92c0.039,0.281,0.438,0.202,0.72,0.24
	c0.036,0.595,0.045,1.164-0.479,1.199c-1.236,0.364-1.471,1.729-2.16,2.641c-0.347,0.693-1.154,0.926-1.68,1.439
	C74.858,69.569,73.767,72.76,73.975,75.229z M59.814,99.949c0.374-0.905,1.066-1.493,1.44-2.399c-0.56,0.358-1.034-0.081-1.2,0.24
	C61.14,98.583,58.687,99.113,59.814,99.949z M61.495,97.31c0.787-0.412,1.119-1.28,0.96-2.64
	C61.665,94.928,61.417,96.981,61.495,97.31z M63.175,90.35c-0.13,0.85,0.85,0.59,0.72,1.44c-0.456,0.591-1.58,1.769-0.72,2.88
	c1.194-1.365,1.736-3.385,1.92-5.761C63.923,88.857,63.986,90.041,63.175,90.35z M67.255,86.51c0.103-0.458,0.686-0.435,0.479-1.2
	C66.966,85.214,66.364,86.331,67.255,86.51z M69.415,83.39c0.691-0.042,1.514-1.188,0.96-1.68
	C70.097,82.312,69.419,82.514,69.415,83.39z M71.095,81.229c1.003-0.769,1.218-2.888,2.88-1.68c0.134-0.586,0.929-0.512,0.72-1.44
	c-1.235,0.003-1.653,0.431-2.399-0.239C72.323,79.264,70.621,80.188,71.095,81.229z M58.375,108.83
	c2.309-0.651,2.034-3.887,3.84-5.04c-0.01-2.091,0.902-3.258,1.92-4.32c-0.188-0.988,0.368-1.231,0.24-2.16
	c-0.053-0.187-0.201-0.279-0.48-0.24C61.84,100.774,59.194,103.889,58.375,108.83z M58.135,103.55
	c0.678,0.229,1.186-1.562,0.24-1.44C58.099,102.394,58.104,102.958,58.135,103.55z M65.814,103.79
	c0.579-0.099,0.522,0.438,1.2,0.239C67.246,103.147,65.836,103.075,65.814,103.79z M63.655,110.51
	c0.059,1.073,1.632,1.481,2.159,0.72c-0.08-0.56-0.246-1.034-0.72-1.2C64.799,110.374,64.27,110.484,63.655,110.51z"/>
<path fill-rule="evenodd" clip-rule="evenodd" fill="#302923" d="M78.295,62.029c-0.443,1.157-0.99,2.21-2.16,2.641
	C76.824,63.759,77.059,62.394,78.295,62.029z"/>
<path fill-rule="evenodd" clip-rule="evenodd" fill="#302923" d="M43.495,13.55c1.903-2.673,6.292-0.952,8.88-2.16
	c3.414,1.523,7.456,0.309,10.56,1.2c-1.986,2.031-6.264-0.929-8.16,0.72c-0.989-0.131-1.489-0.751-2.16-1.2
	c-1.405,0.982-2.666,0.959-4.56,0.48c-1.433,0.649-4.317,1.119-5.04,1.68C43.072,13.927,43.41,13.865,43.495,13.55z"/>
<path fill-rule="evenodd" clip-rule="evenodd" fill="#302923" d="M42.295,14.51c-0.579,2.221-2.549,3.051-3.12,5.28
	c1.125,1.709-0.57,3.663,0.72,5.04c0.899,0.095,1.341-0.988,2.16-0.24c-1.274,3.904,0.21,8.412-0.48,13.2
	c-1.479,0.28-1.304-1.096-1.68-1.92c-0.285,1.208,0.385,2.051,0,3.84c3.339,1.058,10.161,0.833,14.16,0.48
	c1.635,0.739,4.363,0.793,6,0.24c0.939,0.42,1.527,1.193,2.4,1.68c-0.845,0.793-1.993-1.107-2.88-0.24
	c-0.007,0.233-0.294,0.187-0.48,0.24c-0.85,0.032-2.698-1.168-3.12,0c-0.32,0-0.64,0-0.96,0c-1.514-1.665-3.173-0.479-5.04-1.2
	c-0.512-0.112-0.457,0.343-0.48,0.72c-3.156-0.469-8.01-1.368-9.6,0.24c0.044,0.204-0.094,0.227-0.24,0.24
	c-0.279,0.039-0.427-0.053-0.48-0.24c-1.528-7.784-0.863-14.029-0.96-22.08c0.735-1.825,2.497-2.624,2.64-5.04
	C41.42,14.755,41.562,14.336,42.295,14.51z M39.175,26.99c0.325,0.076,0.458,0.342,0.96,0.24c0.035-0.595,0.045-1.165-0.48-1.2
	C39.652,26.506,39,26.335,39.175,26.99z M39.655,30.83c0.551-0.188,0.233-1.486-0.48-1.2C39.281,30.083,38.849,31.076,39.655,30.83z
	"/>
<path fill-rule="evenodd" clip-rule="evenodd" fill="#302923" d="M64.375,12.59c0.279,0.039,0.427-0.053,0.479-0.24
	c3.579,0.507,5.22,1.842,8.88,1.92c2.208,0.984,2.776,2.159,5.521,2.64c0.191,0.449,0.401,0.879,0.479,1.44
	c3.279,0.801,3.898,4.262,5.761,6.48c0.009,2.834-2.127,4.85-1.44,8.16c0.093,0.893-1.155,0.444-1.2,1.2
	c1.838,1.757-1.737,3.112-0.239,5.04c-0.211,0.75-1.133,0.788-1.44,1.44c0.058,2.638-0.972,5.996-2.88,7.44
	c1.629,3.634-1.596,7.29,0.479,10.08c-0.814,0.004-1.544-2.642-3.84-2.64c-1.13,0.001-2.127,0.912-3.12,1.68
	c0.045,0.204-0.093,0.227-0.239,0.24c-0.941-0.062-0.893,0.868-1.92,0.72c-1.178-0.826-1.669-3.607-3.12-3.36
	c-0.204,0.044-0.227-0.094-0.24-0.24c0.186-2.916,3.438-5.364,1.2-8.4c-0.505-0.775,0.169-2.729-1.44-2.4
	c-0.335-1.574-2.413-0.616-3.12-2.16c5.61,1.03,11.501,1.779,15.36,4.56c2.294-2.346,1.589-7.691,3.6-10.32
	c0.29-4.03,1.531-7.109,2.16-10.8c-1.815-4.904-6.008-7.432-10.32-9.84c-3.851,0.218-6.18-2.254-9.6-1.68
	C64.081,13.096,64.405,13.02,64.375,12.59z M76.135,52.43c-0.026-0.73,0.996-1.637,0-1.92C75.953,51.032,75.191,52.199,76.135,52.43
	z"/>
<path fill-rule="evenodd" clip-rule="evenodd" fill="#402F26" d="M38.935,43.07c0.131-0.349-0.281-1.241,0.24-1.2
	c0.053,0.187,0.201,0.279,0.48,0.24c-0.035,0.595-0.044,1.165,0.48,1.2C39.775,44.103,39.548,42.811,38.935,43.07z"/>
<path fill-rule="evenodd" clip-rule="evenodd" fill="#402F26" d="M53.335,41.87c-4.256-0.19-6.938-0.097-10.56,0
	c-0.662-0.769-2.065-0.368-2.88,0c1.589-1.607,6.444-0.709,9.6-0.24c0.023-0.377-0.032-0.833,0.48-0.72
	c1.867,0.721,3.526-0.465,5.04,1.2C54.377,42.245,53.792,41.123,53.335,41.87z"/>
<path fill-rule="evenodd" clip-rule="evenodd" fill="#505C52" d="M42.775,41.87c-0.949-0.138-2.928-0.541-2.88,0.96
	c-0.108,0.668,1.308-0.188,1.2,0.48c-0.32,0-0.64,0-0.96,0c-0.524-0.035-0.515-0.604-0.48-1.2c0.146-0.014,0.284-0.036,0.24-0.24
	C40.709,41.501,42.113,41.101,42.775,41.87z"/>
<path fill-rule="evenodd" clip-rule="evenodd" fill="#505C52" d="M53.335,41.87c0.458-0.747,1.042,0.375,1.68,0.24
	c0.32,0,0.64,0,0.96,0C55.15,42.918,54.239,41.777,53.335,41.87z"/>
<path fill-rule="evenodd" clip-rule="evenodd" fill="#505C52" d="M66.055,43.79c1.609-0.329,0.936,1.625,1.44,2.4
	c0,0.08,0,0.16,0,0.24c-0.615-0.266-0.472-1.289-0.48-2.16C66.867,43.937,66.091,44.233,66.055,43.79z"/>
<path fill-rule="evenodd" clip-rule="evenodd" fill="#402F26" d="M67.734,48.11c0.193-0.833-0.357-0.923-0.239-1.68
	c0-0.08,0-0.16,0-0.24c2.238,3.036-1.015,5.484-1.2,8.4c-0.496-0.207-0.253-1.671,0-1.92c0-0.16,0-0.32,0-0.48
	C67.209,51.264,68.031,50.247,67.734,48.11z"/>
<path fill-rule="evenodd" clip-rule="evenodd" fill="#505C52" d="M67.734,48.11c0.297,2.137-0.525,3.154-1.439,4.08
	C67.077,51.132,67.516,49.73,67.734,48.11z"/>
<path fill-rule="evenodd" clip-rule="evenodd" fill="#505C52" d="M68.935,58.189c-0.577-1.877-4.202-3.082-2.64-5.52
	c-0.253,0.25-0.496,1.714,0,1.92c0.014,0.146,0.036,0.284,0.24,0.24C67.617,55.667,68.348,56.857,68.935,58.189z"/>
<path fill-rule="evenodd" clip-rule="evenodd" fill="#505C52" d="M68.935,58.43c0.974,1.144,2.184-0.156,2.641-0.96
	c0.146-0.014,0.284-0.036,0.239-0.24c1.153-0.292,2.624-1.529,3.841-0.96C73.794,55.417,70.754,60.091,68.935,58.43z"/>
<path fill-rule="evenodd" clip-rule="evenodd" fill="#505C52" d="M73.975,65.39c1.167-0.833,2.07-1.93,3.12-2.88
	C76.298,63.713,75.425,64.84,73.975,65.39z"/>
<path fill-rule="evenodd" clip-rule="evenodd" fill="#505C52" d="M72.774,75.47c-0.594,1.646-1.058,3.422-2.159,4.56
	C71.393,78.567,71.881,76.815,72.774,75.47z"/>
<path fill-rule="evenodd" clip-rule="evenodd" fill="#505C52" d="M67.255,85.069c1.153-1.566,2.114-3.325,3.36-4.8
	C69.687,82.061,68.66,83.755,67.255,85.069z"/>
<path fill-rule="evenodd" clip-rule="evenodd" fill="#505C52" d="M65.095,87.47c-0.968,1.912-2.749,3.011-4.32,4.32
	C62.071,90.206,63.889,89.144,65.095,87.47z"/>
<path fill-rule="evenodd" clip-rule="evenodd" fill="#505C52" d="M55.495,95.39c1.559-1.242,3.339-2.262,5.041-3.36
	C59.106,93.401,57.291,94.386,55.495,95.39z"/>
<path fill-rule="evenodd" clip-rule="evenodd" fill="#505C52" d="M51.175,96.83c1.858-0.497,2.583-0.864,4.08-1.44
	C53.925,96.372,53.196,96.909,51.175,96.83z"/>
<path fill-rule="evenodd" clip-rule="evenodd" fill="#505C52" d="M44.695,94.189c1.012,0.828,2.065,1.615,3.12,2.4
	C46.238,95.896,45.429,95.821,44.695,94.189z"/>
<path fill-rule="evenodd" clip-rule="evenodd" fill="#505C52" d="M49.255,91.55c-1.505,0.665-4.834-0.074-6,0.24
	c-0.237,1.357,0.908,1.331,1.2,2.159c-0.892-0.947-2.182-1.497-2.64-2.88C44.958,91.645,47.157,91.325,49.255,91.55z"/>
<path fill-rule="evenodd" clip-rule="evenodd" fill="#505C52" d="M51.415,89.87c2.276-0.605,4.289-2.749,6-3.12
	c-0.762,1.737-3.401,3.625-6,4.319c0.644-1.429,2.876-0.57,3.36-2.16C53.473,88.428,52.439,90.52,51.415,89.87z"/>
<path fill-rule="evenodd" clip-rule="evenodd" fill="#505C52" d="M46.135,90.59c1.445-0.475,3.764-0.076,5.04-0.72
	C50.363,90.798,48.013,90.73,46.135,90.59z"/>
<path fill-rule="evenodd" clip-rule="evenodd" fill="#505C52" d="M38.695,86.27c0.91,1.65,2.333,2.787,4.08,3.601
	c-0.759,0.039-0.802-0.639-1.68-0.48c-0.106-0.214-0.21-0.43-0.48-0.48c-0.652-0.788-1.583-1.296-1.92-2.399
	C38.695,86.43,38.695,86.35,38.695,86.27z"/>
<path fill-rule="evenodd" clip-rule="evenodd" fill="#505C52" d="M41.575,80.51c-1.576,0.063-2.465-1.32-3.6-0.96
	c0.039,0.279-0.053,0.427-0.24,0.479c-0.077-0.557,0.039-0.921,0.24-1.199C39.076,79.489,40.42,79.904,41.575,80.51z"/>
<path fill-rule="evenodd" clip-rule="evenodd" fill="#505C52" d="M44.935,79.31c1.73-0.071,4.215-2.202,5.52-1.439
	c-1.031,1.048-2.316,1.843-4.08,2.159c-0.068-0.388,0.227-0.413,0.24-0.72C45.62,79.245,45.68,79.625,44.935,79.31z"/>
<path fill-rule="evenodd" clip-rule="evenodd" fill="#505C52" d="M41.575,79.31c0.222-0.205,1.927,0.141,2.88,0
	C44.367,80.003,42.274,79.498,41.575,79.31z"/>
<path fill-rule="evenodd" clip-rule="evenodd" fill="#505C52" d="M39.415,78.35c0.417,0.543,1.697,0.223,1.92,0.96
	C40.507,79.142,39.888,79.284,39.415,78.35z"/>
<path fill-rule="evenodd" clip-rule="evenodd" fill="#505C52" d="M39.415,74.029c-0.601-0.199-0.943-0.657-1.68-0.72
	c-0.509,1.223-0.032,2.906,0.48,3.84c-0.493-0.066-0.479-0.641-0.72-0.96c0.193-0.832-0.357-0.922-0.24-1.68
	c-0.174-0.734,0.414-0.706,0.24-1.44C38.394,73.131,39.038,73.446,39.415,74.029z"/>
<path fill-rule="evenodd" clip-rule="evenodd" fill="#505C52" d="M49.255,74.75c-2.204,0.303-3.963-1.527-6.48-0.721
	C44.624,72.391,46.883,74.652,49.255,74.75z"/>
<path fill-rule="evenodd" clip-rule="evenodd" fill="#505C52" d="M51.655,74.51c-0.079,0.04-1.818,0.593-2.16,0.24
	c0.408,0.088,0.453-0.188,0.48-0.48C50.612,74.272,51.346,74.179,51.655,74.51z"/>
<path fill-rule="evenodd" clip-rule="evenodd" fill="#505C52" d="M53.335,72.83c0.523-0.468,1.565-1.32,2.16-0.96
	c0.068,1.107-0.787,1.293-1.44,1.68c0.102-0.502-0.165-0.636-0.24-0.96C53.621,72.636,53.576,72.83,53.335,72.83z M54.535,72.109
	c-0.03,0.601-0.458,0.752,0.24,0.96c0.377-0.502,0.57-0.901,0.24-1.199C54.962,72.057,54.814,72.148,54.535,72.109z"/>
<path fill-rule="evenodd" clip-rule="evenodd" fill="#505C52" d="M39.175,65.87c0.333-0.102,1.24-0.247,1.92,0
	C40.889,66.365,39.424,66.123,39.175,65.87z"/>
<path fill-rule="evenodd" clip-rule="evenodd" fill="#505C52" d="M41.335,65.87c0.488-0.168,1.969-0.73,3.12-0.96
	C43.993,65.721,41.957,65.991,41.335,65.87z"/>
<path fill-rule="evenodd" clip-rule="evenodd" fill="#505C52" d="M44.935,63.71c0.312-0.729,1.517-0.563,1.2-1.92
	c0.144-1.265-1.655-0.585-1.68-1.681c1.598-0.816,4.086,1.114,2.64,2.641c-0.537-0.178,0.638-2.049-0.48-2.16
	c-0.849,0.582,0.658,1.944-0.72,2.64c0.24,0.674,1.11,0.024,1.2-0.24c-0.309,1.131-1.278,1.602-2.4,1.921
	c0.267-0.236,1.178-1.031,0.48-1.44C45.185,63.725,45.062,64.079,44.935,63.71z"/>
<path fill-rule="evenodd" clip-rule="evenodd" fill="#505C52" d="M37.735,64.43c-1.146-0.295-1.904-0.977-1.92-2.4
	C36.215,63.069,36.871,63.854,37.735,64.43z"/>
<path fill-rule="evenodd" clip-rule="evenodd" fill="#505C52" d="M44.935,53.87c0.714,1.998-1.17,3.467-3.12,3.6
	c1.292-0.548,2.608-1.072,3.12-2.4C44.935,54.669,44.935,54.27,44.935,53.87z"/>
<path fill-rule="evenodd" clip-rule="evenodd" fill="#505C52" d="M43.735,50.51c0.637,0.175,1.198,1.666,0.96,1.92
	C44.628,51.685,43.489,50.772,43.735,50.51z"/>
<path fill-rule="evenodd" clip-rule="evenodd" fill="#505C52" d="M42.055,48.59c0.577,0.543,1.431,0.809,1.68,1.68
	c-0.855,0.121-0.991-1.71-1.68-0.96c0.965,0.795,1.674,1.846,1.68,3.6c-0.495-1.584-1.321-2.838-2.64-3.6
	C41.16,48.815,42.158,49.252,42.055,48.59z"/>
<path fill-rule="evenodd" clip-rule="evenodd" fill="#505C52" d="M41.335,46.189c-0.207,0.594-1.67-0.07-1.92,0.48
	c-0.365,1.805,1.843,1.037,2.4,1.92c-0.256,0.817-0.075-0.668-0.72-0.24c-1.364,0.244-1.647-0.593-1.92-1.44c0-0.08,0-0.16,0-0.24
	C39.562,46.176,40.378,46.113,41.335,46.189z"/>
<path fill-rule="evenodd" clip-rule="evenodd" fill="#505C52" d="M41.335,43.31c1.366,0.077,4.125,0.833,4.32,2.88
	c-0.288-0.912-1.173-1.227-1.68-1.92C43.531,43.514,41.716,44.128,41.335,43.31z"/>
<path fill-rule="evenodd" clip-rule="evenodd" fill="#402F26" d="M43.975,44.27c0.507,0.693,1.393,1.008,1.68,1.92
	c0.432,0.833-0.26,1.332-0.72,1.92c-0.338-0.048-0.813-0.58-1.2-1.2c0.448,0.47,0.879,0.074,1.44,0
	C45.746,45.211,43.579,44.995,43.975,44.27z"/>
<path fill-rule="evenodd" clip-rule="evenodd" fill="#402F26" d="M38.935,50.51c0.145-0.575,0.345-1.095,0.24-1.92
	c0.602,0.517,1.581,0.606,1.92-0.24c0.646-0.428,0.464,1.057,0.72,0.24c0.08,0,0.16,0,0.24,0c0.103,0.663-0.895,0.225-0.96,0.72
	c-1.303-0.183-1.128,1.112-1.68,1.68C39.309,50.776,39.204,50.561,38.935,50.51z"/>
<path fill-rule="evenodd" clip-rule="evenodd" fill="#505C52" d="M50.695,45.229c0.958-1.091,2.433-0.191,3.36-1.2
	c-0.647,1.31-1.97,0.454-3.12,1.2C50.855,45.229,50.775,45.229,50.695,45.229z"/>
<path fill-rule="evenodd" clip-rule="evenodd" fill="#505C52" d="M50.215,45.229c-1.19,0.898-2.751,2.577-1.68,4.32
	c1.123-0.094,0.797-0.146,1.92-0.24c-0.265,0.615-1.289,0.471-2.16,0.48C46.827,47.644,49.161,45.466,50.215,45.229z"/>
<path fill-rule="evenodd" clip-rule="evenodd" fill="#402F26" d="M51.415,48.59c-0.209,0.351-0.359,0.761-0.96,0.72
	c-1.123,0.094-0.797,0.146-1.92,0.24c-1.071-1.744,0.49-3.422,1.68-4.32c0.16,0,0.32,0,0.48,0c0.08,0,0.16,0,0.24,0
	c-1.054,0.832-3.224,2.127-1.92,3.84C50.35,49.479,50.73,48.08,51.415,48.59z"/>
<path fill-rule="evenodd" clip-rule="evenodd" fill="#505C52" d="M58.135,47.63c1.106,0.174,2.262,0.298,2.64,1.2
	C60.607,48.667,58.87,48.022,58.135,47.63z"/>
<path fill-rule="evenodd" clip-rule="evenodd" fill="#505C52" d="M62.694,46.669c0.727,0.014,0.408,3.749-0.72,2.64
	c0.315-0.288,0.378-0.093,0.72,0C62.445,48.197,63.137,47.232,62.694,46.669z"/>
<path fill-rule="evenodd" clip-rule="evenodd" fill="#402F26" d="M60.774,45.229c0.678-0.505,1.318,1.074,1.92,1.44
	c0.442,0.563-0.249,1.527,0,2.64c-0.342-0.093-0.404-0.288-0.72,0c-0.062-0.499-1.055-0.065-1.2-0.48
	c-0.378-0.901-1.533-1.026-2.64-1.2c-1.385-0.251-2.455,0.26-3.84-0.24c0.254-0.5,4.034-0.446,5.28,0
	c0.88,0.315,2.037,2.037,2.88,0.48C62.256,46.628,61.401,46.043,60.774,45.229z"/>
<path fill-rule="evenodd" clip-rule="evenodd" fill="#402F26" d="M54.295,44.03c0.328-0.032,1.924-0.702,1.92,0.48
	c0.605-0.787,2.401,0.127,3.12,0c0.106,0.213,0.211,0.429,0.479,0.48c-1.422,0.164-3.341-0.28-5.04-0.24
	C54.568,44.556,54.632,44.092,54.295,44.03z"/>
<path fill-rule="evenodd" clip-rule="evenodd" fill="#505C52" d="M51.175,51.229c0.615-0.825,1.29-1.59,2.4-1.92
	C52.747,49.922,51.951,50.565,51.175,51.229z"/>
<path fill-rule="evenodd" clip-rule="evenodd" fill="#505C52" d="M49.735,55.55c-0.21-1.095,0.506-3.33,1.44-4.08
	C50.562,52.697,50.027,54.002,49.735,55.55z"/>
<path fill-rule="evenodd" clip-rule="evenodd" fill="#505C52" d="M57.175,57.229c0.609-1.231,1.138-2.542,1.68-3.84
	c-0.425-0.982-0.749-1.135-0.72-2.16c0.665,0.456,0.315,1.925,1.44,1.92C58.413,54.147,58.35,56.245,57.175,57.229z"/>
<path fill-rule="evenodd" clip-rule="evenodd" fill="#505C52" d="M55.735,49.31c0.906-0.446,2.505,1.175,2.4,1.68
	c-0.164-0.75-0.731-0.404-0.96,0c-0.713-1.552-2.359-1.009-3.84-0.48C53.982,49.405,55.137,50.139,55.735,49.31z"/>
<path fill-rule="evenodd" clip-rule="evenodd" fill="#505C52" d="M52.375,51.47c0.074,1.043-1.648,1.54-0.72,2.64
	C50.481,54.688,51.468,51.708,52.375,51.47z"/>
<path fill-rule="evenodd" clip-rule="evenodd" fill="#302923" d="M54.535,53.39c0.08,0,0.16,0,0.24,0
	c1.022-0.143,0.747,1.013,1.2,1.44c-0.451,0.429-1.386,0.374-1.44,1.2c-0.07,0.224-0.649,0.224-0.72,0
	c-0.093-0.893,1.156-0.444,1.2-1.2C55.078,54.127,54.472,54.092,54.535,53.39z"/>
<path fill-rule="evenodd" clip-rule="evenodd" fill="#505C52" d="M52.135,58.67c-0.61-0.131-2.326-2.176-1.2-3.12
	C50.725,57.2,51.48,57.884,52.135,58.67z"/>
<path fill-rule="evenodd" clip-rule="evenodd" fill="#302923" d="M39.415,50.99c0.002,0.638-0.091,1.371,0.24,1.68
	c-0.532,0.132-0.342-0.458-0.72-0.48c0.148,0.651-0.305,1.905,0.24,2.16c0.3,0.457-0.012,0.654,0.24,1.68
	c-0.763,0.454,0.735,1.678-0.72,1.44c-0.537-1.992-0.84-5.311,0.24-6.96C39.204,50.561,39.309,50.776,39.415,50.99z"/>
<path fill-rule="evenodd" clip-rule="evenodd" fill="#AAA9AA" d="M40.615,54.59c0.324,0.235,0.48,0.64,0.72,0.96
	c1.373,0.333,1.53-0.55,2.4-0.72c-0.01,0.331,0.113,0.527,0.24,0.72c-0.675,0.204-0.984,0.775-1.92,0.72
	C41.887,55.397,40.524,55.72,40.615,54.59z"/>
<path fill-rule="evenodd" clip-rule="evenodd" fill="#505C52" d="M39.895,52.669c0.38,0.02,0.915-0.115,0.96,0.24
	c-0.418-0.018-0.747,0.054-0.96,0.24c0,0.16,0,0.32,0,0.48c-0.532-0.132-0.342,0.458-0.72,0.48
	C38.833,53.047,39.987,53.482,39.895,52.669z"/>
<path fill-rule="evenodd" clip-rule="evenodd" fill="#505C52" d="M74.935,57.709c0.415-0.418,1.484-0.266,1.681,0.24
	c-0.009,0.792-0.683,0.917-1.44,0.96c0.04,1.399-0.015,2.705-0.96,3.119c-0.867,0.228-0.335-0.945-0.48-1.439c0.08,0,0.16,0,0.24,0
	c-0.021,0.341-0.039,0.68,0.24,0.72c0.571-0.549,0.779-1.46,0.72-2.64c0.972,0.331,0.76-0.521,1.44-0.48
	C76.065,57.551,75.028,58.013,74.935,57.709z"/>
<path fill-rule="evenodd" clip-rule="evenodd" fill="#402F26" d="M73.255,58.43c0.553-0.247,0.773-0.826,1.68-0.72
	c0.094,0.303,1.131-0.159,1.44,0.48c-0.681-0.041-0.469,0.812-1.44,0.48c0.06,1.18-0.148,2.091-0.72,2.64
	c-0.279-0.04-0.261-0.379-0.24-0.72c0-0.16,0-0.32,0-0.48C74.277,59.004,72.3,59.455,73.255,58.43z"/>
<path fill-rule="evenodd" clip-rule="evenodd" fill="#505C52" d="M73.975,60.109c-1.562-0.361-1.234,1.166-2.64,0.96
	c0.215-1.225,0.812-2.068,1.68-2.64c0.08,0,0.16,0,0.24,0C72.3,59.455,74.277,59.004,73.975,60.109z"/>
<path fill-rule="evenodd" clip-rule="evenodd" fill="#505C52" d="M53.335,65.39c-0.409,0.623-0.561-1.021-1.2-0.96
	c-0.681,0.677,0.141,1.077,0.72,1.2c0.715,1.685,2.688,2.111,3.84,3.359c-2.736-1.583-5.414-3.227-6.72-6.239
	C51.517,63.208,52.374,64.351,53.335,65.39z"/>
<path fill-rule="evenodd" clip-rule="evenodd" fill="#505C52" d="M56.935,68.989c0.41-0.05,0.622,0.409,0.72,0
	c0.233,0.007,0.186,0.294,0.24,0.48c0.304-0.605,1.369,0.459,0.72,0.72C58.563,69.01,57.446,69.964,56.935,68.989z"/>
<path fill-rule="evenodd" clip-rule="evenodd" fill="#505C52" d="M54.535,66.109c0.819,0.861,2.349,1.012,3.12,1.92
	C56.436,67.569,55.06,67.265,54.535,66.109z"/>
<path fill-rule="evenodd" clip-rule="evenodd" fill="#402F26" d="M53.335,65.39c0.753-0.113,0.634,0.646,1.2,0.72
	c0.525,1.155,1.901,1.46,3.12,1.92c0.757-0.117,0.847,0.433,1.68,0.24c0.977,1.421,0.461,3.132,0,4.8
	c-0.411,0.011-0.622-0.178-0.72-0.479c0-0.24,0-0.48,0-0.72c0.672,0.021,0.672-1.462,0-1.44c0-0.08,0-0.16,0-0.24
	c0.648-0.261-0.416-1.325-0.72-0.72c-0.054-0.187-0.007-0.474-0.24-0.48c-0.098,0.409-0.31-0.05-0.72,0c-0.08,0-0.16,0-0.24,0
	c-1.151-1.248-3.125-1.675-3.84-3.359c-0.579-0.123-1.401-0.523-0.72-1.2C52.774,64.369,52.926,66.013,53.335,65.39z"/>
<path fill-rule="evenodd" clip-rule="evenodd" fill="#302923" d="M37.015,67.31c0.698-0.344,0.27-0.184,0.24,0.48
	c0.16,0,0.32,0,0.48,0c-0.076,0.804-0.247,1.513-0.72,1.92c0.21-1.119-0.622,0.33-0.72-0.48
	C36.325,68.38,36.689,67.864,37.015,67.31z"/>
<path fill-rule="evenodd" clip-rule="evenodd" fill="#505C52" d="M73.495,66.83c-1.467-0.454-3.157-0.684-3.36-2.4
	c1.782,0.268,1.477,1.26,3.6,0.96c-0.051,0.27-0.266,0.374-0.479,0.48C73.201,66.323,73.525,66.399,73.495,66.83z"/>
<path fill-rule="evenodd" clip-rule="evenodd" fill="#402F26" d="M36.295,69.229c0.098,0.811,0.93-0.639,0.72,0.48
	c0.199,0.678-0.338,0.621-0.24,1.199c1.384,1.294,2.764,1.699,4.32,2.4c4.073-2.506,7.786,1.684,12.24-0.479
	c0.241,0,0.286-0.194,0.48-0.24c0.075,0.324,0.341,0.458,0.24,0.96c-0.842,0.277-1.295,0.944-2.4,0.96
	c-0.309-0.331-1.042-0.237-1.68-0.24c-0.027,0.293-0.072,0.568-0.48,0.48c-0.08,0-0.16,0-0.24,0
	c-2.372-0.098-4.631-2.359-6.48-0.721c-0.907,0.582-2.39,0.929-3.36,0c-0.377-0.583-1.021-0.898-1.92-0.96
	c0.174,0.734-0.414,0.706-0.24,1.44c-0.193-0.127-0.39-0.25-0.72-0.24c0.688-1.258,0.082-3.056-0.96-3.36
	c-0.039-0.759,0.638-0.802,0.48-1.68C36.135,69.229,36.215,69.229,36.295,69.229z"/>
<path fill-rule="evenodd" clip-rule="evenodd" fill="#402F26" d="M55.015,71.87c0.331,0.298,0.138,0.697-0.24,1.199
	c-0.698-0.208-0.27-0.359-0.24-0.96C54.814,72.148,54.962,72.057,55.015,71.87z"/>
<path fill-rule="evenodd" clip-rule="evenodd" fill="#302923" d="M73.975,75.229c0.679-0.198,0.622,0.339,1.2,0.24
	c1.545,1.016,2.767,2.354,4.56,3.12c0.132,0.349-0.28,1.24,0.24,1.2c-0.054,0.186-0.007,0.473-0.24,0.479
	c-2.039-1.561-2.931-4.269-6.479-4.32c0.335-0.689-0.654-1.219,0-1.439C73.708,74.536,73.421,75.303,73.975,75.229z"/>
<path fill-rule="evenodd" clip-rule="evenodd" fill="#402F26" d="M75.175,75.47c0.452,0.281,1.568,1.134,2.16,0.479
	c0.337,0.879,1.703,1.48,2.399,2.641C77.941,77.823,76.72,76.485,75.175,75.47z"/>
<path fill-rule="evenodd" clip-rule="evenodd" fill="#302923" d="M80.215,80.029c0.924,1.477,2.506,2.294,2.4,4.801
	c1.432,0.647,1.823,2.336,3.359,2.88c-0.286,1.246,0.613,1.307,0.96,1.92c-0.135,0.863-0.603,2.415,0.24,2.88
	c-2.481,2.239-5.254,4.187-6.24,7.92c-0.557,0.322-1.362,0.397-1.92,0.72c-0.273,0.526-0.619,0.98-0.479,1.92
	c-4.23,2.251-4.876,8.085-9.36,10.08c0.287-1.629,2.282-1.734,1.44-3.84c0.832,0.192,0.922-0.357,1.68-0.24
	c0.146-0.574,0.345-1.095,0.24-1.92c0.557,0.077,0.921-0.038,1.199-0.24c0.266-1.305-0.814-1.265-0.72-2.399
	c2.73-2.71,3.551-7.33,7.2-9.12c0.125,0.355,0.355,0.604,0.479,0.96c-0.486,1.273-1.835,1.685-1.68,3.6
	c1.115-0.324,1.284-1.596,1.44-2.88c1.825-0.895,3.415-2.024,3.6-4.56c4.745-2.333-0.752-4.867-2.399-7.68
	c-0.24-0.409-0.028-1.25-0.24-1.681C80.687,81.671,79.523,81.362,80.215,80.029z"/>
<path fill-rule="evenodd" clip-rule="evenodd" fill="#302923" d="M54.535,110.27c0.411-0.224,0.484-0.978,0.96-0.479
	c0.03,1.229-0.895,1.505-1.2,2.399c-0.204-0.906,0.797-1.127,0.24-1.68C54.535,110.43,54.535,110.35,54.535,110.27z"/>
<path fill-rule="evenodd" clip-rule="evenodd" fill="#505C52" d="M57.895,101.63c-0.146,0.574-0.345,1.095-0.24,1.92
	c-0.24,0-0.48,0-0.72,0C57.532,103.187,57.267,101.962,57.895,101.63z"/>
<path fill-rule="evenodd" clip-rule="evenodd" fill="#302923" d="M60.055,97.79c0.166-0.321,0.641,0.118,1.2-0.24
	c-0.374,0.906-1.066,1.494-1.44,2.399C58.687,99.113,61.14,98.583,60.055,97.79z"/>
<path fill-rule="evenodd" clip-rule="evenodd" fill="#505C52" d="M60.295,93.71c0.726-0.998,2.107-2.473,3.36-2.16
	c-1.061,0.78-0.966,2.714-2.4,3.12c0.242-0.718,1.32-0.6,0.96-1.92C61.554,92.264,60.956,93.445,60.295,93.71z"/>
<path fill-rule="evenodd" clip-rule="evenodd" fill="#505C52" d="M53.815,97.31c2.163-1.426,4.25-1.781,6.24-3.6
	C58.559,95.493,56.27,96.485,53.815,97.31z"/>
<path fill-rule="evenodd" clip-rule="evenodd" fill="#402F26" d="M37.495,76.189c0.241,0.319,0.227,0.894,0.72,0.96
	c0.49,0.311,0.607,0.993,1.2,1.2c0.473,0.935,1.092,0.792,1.92,0.96c0.08,0,0.16,0,0.24,0c0.7,0.188,2.792,0.693,2.88,0
	c0.16,0,0.32,0,0.48,0c0.745,0.315,0.685-0.064,1.68,0c-0.013,0.307-0.308,0.332-0.24,0.72c-0.279,0.202-0.644,0.317-1.2,0.24
	c-1.083-0.533-1.79,0.553-3.36,0.24c-0.08,0-0.16,0-0.24,0c-1.154-0.605-2.499-1.021-3.6-1.68c-0.201,0.278-0.316,0.643-0.24,1.199
	c-0.247,2.087,0.338,3.342,0.48,5.04c-0.851-0.201-1.146-1.221-0.48-1.68c-0.41-0.23-0.526-0.754-0.72-1.2
	c-0.336-1.66,0.064-2.644,0.24-4.319c0.346,0.054,0.083,0.716,0.48,0.72c0.006-0.233,0.294-0.187,0.48-0.24
	c-0.088-0.614-0.416-1.508-0.96-0.96c-0.322-0.158-0.447-0.513-0.48-0.96C37.328,76.906,37.042,76.369,37.495,76.189z"/>
<path fill-rule="evenodd" clip-rule="evenodd" fill="#302923" d="M35.335,82.43c0.309-0.331,1.042-0.237,1.68-0.24
	c0.194,0.446,0.311,0.97,0.72,1.2c-0.666,0.459-0.371,1.479,0.48,1.68c0.356,0.204,0.347,0.773,0.48,1.2c0,0.08,0,0.16,0,0.24
	c-1.475,0.354,1.213,1.546,0.24,2.16C37.346,86.979,37.579,83.466,35.335,82.43z"/>
<path fill-rule="evenodd" clip-rule="evenodd" fill="#302923" d="M25.015,96.35c1.824-0.576,1.014-3.787,2.64-4.56
	c-0.118,0.639,0.877,1.348-0.24,2.159c2.323,0.978,1.125,4.29,2.64,5.761c-0.833,4.397,3.527,8.108,1.92,12.479
	c-1.376,0.097-0.613-1.946-1.92-1.92c-0.27,1.011,0.74,3.3-0.96,2.88c0.791-2.948-0.872-4.419-1.68-6.96
	c-0.906-2.847-1.063-7.886-2.16-9.84C25.255,96.483,25.061,96.622,25.015,96.35z M28.375,102.59c-0.089-0.951,0.22-2.3-0.24-2.88
	c-0.24,0-0.48,0-0.72,0C27.008,100.718,27.255,102.392,28.375,102.59z M29.575,106.67c-0.403-0.877-0.263-2.297-1.2-2.641
	C28.431,105.254,28.183,106.781,29.575,106.67z"/>
<path fill-rule="evenodd" clip-rule="evenodd" fill="#302923" d="M28.375,91.069c-0.096-0.896,0.191-1.408,0.96-1.439
	c-0.077,0.563-0.379,0.9-0.24,1.68C28.765,91.32,28.568,91.196,28.375,91.069z"/>
<path fill-rule="evenodd" clip-rule="evenodd" fill="#302923" d="M31.255,86.989c1.027-0.412,0.512-2.368,1.92-2.399
	C33.309,85.903,32.185,88.316,31.255,86.989z"/>
<path fill-rule="evenodd" clip-rule="evenodd" fill="#505C52" d="M41.095,106.67c0.166,0.829,0.077,1.593,0.72,2.399
	c0.113,0.754-0.646,0.635-0.72,1.2c-0.29-0.051-0.147-0.267,0-0.479C42.496,108.856,40.126,108.035,41.095,106.67z"/>
<path fill-rule="evenodd" clip-rule="evenodd" fill="#505C52" d="M45.655,96.59c0.655-0.175,0.483,0.477,0.96,0.479
	c0.106,0.214,0.211,0.43,0.48,0.48c0,0.16,0,0.32,0,0.479c-0.355,0.125-0.605,0.355-0.96,0.48c0.105-0.295,0.307-0.493,0.72-0.48
	C46.836,97.168,45.926,97.198,45.655,96.59z"/>
<path fill-rule="evenodd" clip-rule="evenodd" fill="#505C52" d="M41.095,93.71c0.334-0.306,0.104-1.176,0.72-1.2
	c0.082,0.798,0.909,0.851,1.2,1.439c-0.85,0.13-0.59-0.85-1.44-0.72c-0.206,0.193-0.143,0.657-0.48,0.72
	C41.095,93.87,41.095,93.79,41.095,93.71z"/>
<path fill-rule="evenodd" clip-rule="evenodd" fill="#505C52" d="M61.255,94.909c0.294,0.681,0.195,1.588-0.48,1.921
	C61.325,96.58,60.661,95.116,61.255,94.909z"/>
<path fill-rule="evenodd" clip-rule="evenodd" fill="#302923" d="M52.135,100.189c0.773,0.588,1.517,1.204,1.92,2.16
	c-0.578-0.099-0.521,0.438-1.2,0.24c-0.204,0.044-0.227-0.094-0.24-0.24c-0.074-0.326-0.601-0.199-0.96-0.24
	c-0.267-2.452-1.729-3.71-4.32-3.84c0.077-0.294-0.039-1.482-0.24-0.72c-0.269-0.051-0.374-0.267-0.48-0.48
	c1.729-0.46,2.279,0.686,3.6,0.48c-0.07,0.147-0.597,0.924,0,0.96C51.001,98.924,51.349,99.776,52.135,100.189z"/>
<path fill-rule="evenodd" clip-rule="evenodd" fill="#505C52" d="M52.135,100.189c-0.786-0.413-1.134-1.266-1.92-1.68
	c0.201-0.604,1.18-1.15,1.68-0.72c-0.217,0.503-1.355,0.085-1.44,0.72C51.046,99.039,51.816,99.389,52.135,100.189z"/>
<path fill-rule="evenodd" clip-rule="evenodd" fill="#505C52" d="M41.095,101.87c-0.21,0.424-0.761,0.7-0.24,1.199
	c1.865-1.334,3.062-3.338,5.04-4.56c-1.772,1.508-3.138,3.423-5.04,4.8c-0.106-0.214-0.211-0.429-0.48-0.479c0-0.16,0-0.32,0-0.48
	C40.69,102.265,40.752,101.927,41.095,101.87z"/>
<path fill-rule="evenodd" clip-rule="evenodd" fill="#402F26" d="M40.855,99.229c0.03,0.431-0.294,0.507-0.24,0.96
	c0.722-0.241,0.425,0.535,0.48,0.96c-0.8-0.16-1.303-0.617-1.2-1.68C40.108,99.283,40.437,99.212,40.855,99.229z"/>
<path fill-rule="evenodd" clip-rule="evenodd" fill="#505C52" d="M51.895,102.83c0.104-0.296,0.307-0.493,0.72-0.48
	c0.014,0.146,0.036,0.284,0.24,0.24c0.855,1.225,1.776,2.384,2.4,3.84c-0.988-1.172-1.772-2.548-2.64-3.84
	C52.227,102.522,52.202,102.816,51.895,102.83z"/>
<path fill-rule="evenodd" clip-rule="evenodd" fill="#505C52" d="M43.735,104.51c0.338,1.01-0.181,1.429,0.24,2.88
	c-1.114-1.155,0.296-3.45-0.96-4.56c0.044,0.204-0.093,0.226-0.24,0.239c0.045-0.194,0.241-0.239,0.24-0.479
	c0.193-0.127,0.39-0.251,0.72-0.24c0,0.24,0,0.48,0,0.72C43.735,103.55,43.735,104.029,43.735,104.51z"/>
<path fill-rule="evenodd" clip-rule="evenodd" fill="#302923" d="M49.975,106.909c-0.114,0.86-0.39,1.388,0,2.16
	c-0.295-0.268-0.493-0.209-0.48,0.24c-0.783-0.497-1.414-1.146-2.88-0.96C47.61,107.744,48.835,107.369,49.975,106.909z"/>
<path fill-rule="evenodd" clip-rule="evenodd" fill="#302923" d="M41.095,110.51c1.199,0.498-0.298,1.119,0,2.16
	c0.116,0.47-1.1,0.772-1.2,0.239c-0.024-0.983-0.047-1.967,0.24-2.64C40.589,110.216,40.665,110.54,41.095,110.51z"/>
<path fill-rule="evenodd" clip-rule="evenodd" fill="#302923" d="M55.255,107.149c1.253-0.427-0.655-1.839,0-2.399
	c0.771-0.212,0.329,0.791,0.96,0.72c0.444-0.355,0.359-1.24,1.2-1.2c0.031,2.432-0.692,4.107-2.16,5.04
	c-0.474-0.558-0.474-0.643,0-1.2C55.255,107.79,55.255,107.47,55.255,107.149z"/>
<path fill-rule="evenodd" clip-rule="evenodd" fill="#302923" d="M42.775,110.989c0.479-0.528,0.422-1.592,0.96-1.439
	c0.293,0.701-0.325,2.548-0.48,3.6c-0.87,0.23-0.244-1.036-0.72-1.2C42.433,111.448,42.699,111.314,42.775,110.989z"/>
<path fill-rule="evenodd" clip-rule="evenodd" fill="#402F26" d="M55.975,42.11c0.422-1.168,2.271,0.032,3.12,0
	C58.085,42.972,56.768,41.555,55.975,42.11z"/>
<path fill-rule="evenodd" clip-rule="evenodd" fill="#302923" d="M41.095,43.31c0.08,0,0.16,0,0.24,0
	c0.381,0.819,2.196,0.204,2.64,0.96c-0.396,0.726,1.771,0.941,1.2,2.64c-0.561,0.074-0.992,0.47-1.44,0
	c-0.678,0.198-0.622-0.338-1.2-0.24c-0.342-1.439-2.826-0.972-3.6-0.24c-0.039,0.279,0.053,0.427,0.24,0.48
	c0.273,0.847,0.556,1.684,1.92,1.44c-0.339,0.847-1.318,0.757-1.92,0.24c-0.656-1.265-1.627-2.213-2.4-3.36
	c-0.039-1.479,2.041-0.839,2.16-2.16c0.613-0.259,0.84,1.033,1.2,0.24C40.455,43.31,40.775,43.31,41.095,43.31z"/>
<path fill-rule="evenodd" clip-rule="evenodd" fill="#402F26" d="M39.175,46.91c-0.187-0.053-0.279-0.201-0.24-0.48
	c0.773-0.732,3.258-1.199,3.6,0.24c-0.783-0.305-0.509-0.345-1.2-0.48c-0.957-0.077-1.773-0.013-2.16,0.48
	C39.175,46.75,39.175,46.83,39.175,46.91z"/>
<path fill-rule="evenodd" clip-rule="evenodd" fill="#402F26" d="M53.575,49.31c0.961-0.225,1.427-0.649,2.16,0
	c-0.598,0.829-1.753,0.095-2.4,1.2c0.037,0.677-0.679,0.602-0.96,0.96c-0.907,0.238-1.894,3.218-0.72,2.64
	c0.951-0.25,1.699-0.701,2.88-0.72c-0.063,0.703,0.543,0.737,0.48,1.44c-0.044,0.756-1.292,0.308-1.2,1.2
	c-0.946,0.066-0.734-1.026-1.68-0.96c-0.204,0.356-0.604,0.516-1.2,0.48c-1.126,0.944,0.589,2.989,1.2,3.12
	c0.501-0.102,0.636,0.164,0.96,0.24c0.447,0.032,0.802,0.157,0.96,0.479c-0.315,0.085-0.377,0.423-0.72,0.48
	c-2.028,0.41-4.188-2.128-3.6-4.32c0.292-1.548,0.827-2.853,1.44-4.08c0-0.08,0-0.16,0-0.24
	C51.951,50.565,52.747,49.922,53.575,49.31z"/>
<path fill-rule="evenodd" clip-rule="evenodd" fill="#402F26" d="M58.135,51.229c-0.029,1.025,0.295,1.178,0.72,2.16
	c-0.542,1.298-1.071,2.609-1.68,3.84c-0.448,1.072-1.2,1.84-2.4,2.16c-0.295-0.104-0.493-0.307-0.48-0.72
	c1.377-0.73,3.556-3.128,2.64-4.56c-1.235,0.206-0.632,2.249-2.4,1.92c0.054-0.826,0.989-0.771,1.44-1.2
	c-0.453-0.427-0.177-1.583-1.2-1.44c0.869-0.548,1.151-0.256,2.16-0.48c0.16,0,0.32,0,0.48,0c0.584-0.295,0.027-1.445-0.24-1.68
	c0-0.08,0-0.16,0-0.24c0.229-0.404,0.796-0.75,0.96,0C58.135,51.07,58.135,51.15,58.135,51.229z"/>
<path fill-rule="evenodd" clip-rule="evenodd" fill="#302923" d="M43.015,54.83c-0.44,0.649-0.813,0.042-1.2,0.48
	c-0.651-0.309-0.728-1.193-0.72-2.16C42.033,53.412,42.646,53.999,43.015,54.83z"/>
<path fill-rule="evenodd" clip-rule="evenodd" fill="#302923" d="M44.935,53.87c0,0.4,0,0.8,0,1.2
	c-0.601,0.041-0.751-0.369-0.96-0.72c0.38-0.069,0.783-1.964,0.96-0.72C44.935,53.709,44.935,53.79,44.935,53.87z"/>
<path fill-rule="evenodd" clip-rule="evenodd" fill="#302923" d="M79.015,59.87c0.102,0.501-0.164,0.635-0.24,0.96
	c-0.282-0.038-0.681,0.041-0.72-0.24c0.644-0.236,0.25-1.511,0.72-1.92C78.906,59.019,78.494,59.91,79.015,59.87z"/>
<path fill-rule="evenodd" clip-rule="evenodd" fill="#402F26" d="M47.095,62.989c-0.09,0.265-0.96,0.914-1.2,0.24
	c1.377-0.695-0.129-2.058,0.72-2.64c1.118,0.111-0.057,1.982,0.48,2.16C47.095,62.83,47.095,62.91,47.095,62.989z"/>
<path fill-rule="evenodd" clip-rule="evenodd" fill="#302923" d="M37.255,74.51c-0.118,0.758,0.433,0.848,0.24,1.68
	c-0.453,0.18-0.167,0.717-0.72,0.24c-0.402-0.398-0.191-1.409-0.24-2.16C36.865,74.26,37.062,74.383,37.255,74.51z"/>
<path fill-rule="evenodd" clip-rule="evenodd" fill="#302923" d="M29.815,89.149c-0.206-0.766,0.377-0.742,0.48-1.2
	C31.415,87.911,30.272,89.971,29.815,89.149z"/>
<path fill-rule="evenodd" clip-rule="evenodd" fill="#302923" d="M41.095,93.949c0.593,2.51-0.399,3.142-0.24,5.28
	c-0.418-0.018-0.747,0.054-0.96,0.24c-0.103,1.063,0.4,1.52,1.2,1.68c0.427,0.176,0.035,0.437,0,0.721
	c-0.342,0.057-0.405,0.395-0.72,0.479c-0.085-0.336-0.423-0.021-0.48,0.24c0.007,0.953,0.934,0.985,1.68,1.2
	c0.181,1.141-0.605,1.314-0.96,1.92c-0.01,0.41,0.178,0.621,0.48,0.72c0,0.08,0,0.16,0,0.24c-0.968,1.365,1.401,2.187,0,3.12
	c-1.155-1.074-1.53-2.993-1.68-4.561c-0.513-5.356,0.978-11.59,0.24-16.08c0.359-0.041,0.886,0.086,0.96-0.24
	c0.27,0.051,0.374,0.267,0.48,0.48c1.619,1.196-0.687,2.774,0,4.32C41.095,93.79,41.095,93.87,41.095,93.949z"/>
<path fill-rule="evenodd" clip-rule="evenodd" fill="#402F26" d="M47.095,97.55c0.202-0.763,0.317,0.426,0.24,0.72
	c2.59,0.13,4.053,1.388,4.32,3.84c0.359,0.041,0.886-0.086,0.96,0.24c-0.413-0.013-0.615,0.185-0.72,0.48
	c-0.436,1.564-1.479,2.521-1.92,4.079c-1.14,0.46-2.365,0.835-3.36,1.44c1.466-0.187,2.097,0.463,2.88,0.96
	c-0.013-0.449,0.185-0.508,0.48-0.24c0.619,0.981,0.815,2.385,0.72,4.08c0.204-0.044,0.227,0.094,0.24,0.24c-0.64,0-1.28,0-1.92,0
	c-0.966-0.399-3.594-0.399-4.56,0c-0.88,0-1.76,0-2.64,0c0.717-0.322,0.046-0.857,0.72-1.44c0.476,0.164-0.149,1.431,0.72,1.2
	c0.155-1.052,0.773-2.898,0.48-3.6c-0.538-0.152-0.48,0.911-0.96,1.439c-0.014-1.613,1.228-1.972,1.2-3.6
	c-0.42-1.451,0.099-1.87-0.24-2.88c0.193,0.127,0.39,0.25,0.72,0.24c-0.188-1.926,0.716-2.683,0.24-4.32
	c-0.795,0.084-1.041,0.719-1.44,1.2c0.207,0.543,1.343,0.788,0.72,1.439c-0.08,0-0.16,0-0.24,0c0-0.239,0-0.479,0-0.72
	c-0.331-0.011-0.527,0.113-0.72,0.24c0.001,0.24-0.194,0.285-0.24,0.479c-0.251,1.321-2.254,1.995-1.68,3.36
	c-0.302-0.099-0.49-0.31-0.48-0.72c0.355-0.605,1.141-0.779,0.96-1.92c-0.746-0.215-1.673-0.247-1.68-1.2
	c0.057-0.261,0.395-0.576,0.48-0.24c0,0.16,0,0.32,0,0.48c0.269,0.051,0.374,0.266,0.48,0.479c1.902-1.377,3.268-3.292,5.04-4.8
	c0.08,0,0.16,0,0.24,0c0.355-0.125,0.605-0.355,0.96-0.48C47.095,97.87,47.095,97.71,47.095,97.55z M50.455,101.149
	c-0.31-2.212-3.605-2.525-4.8-0.24c0.246,1.675-0.609,4.45,0.72,5.04C47.882,105.496,50.799,103.604,50.455,101.149z
	 M44.455,109.069c0.331-0.55,1.197-0.563,1.44-1.199c-0.843,0.042-0.79-0.812-1.44-0.961
	C44.747,107.781,43.975,108.805,44.455,109.069z M48.295,110.75c0.114-0.754-0.299-0.981-0.72-1.2
	C46.688,109.933,47.757,110.436,48.295,110.75z"/>
<path fill-rule="evenodd" clip-rule="evenodd" fill="#302923" d="M43.735,104.51c0-0.48,0-0.96,0-1.44c0.08,0,0.16,0,0.24,0
	c0.623-0.651-0.513-0.896-0.72-1.439c0.399-0.481,0.645-1.116,1.44-1.2c0.476,1.638-0.429,2.395-0.24,4.32
	C44.125,104.76,43.928,104.637,43.735,104.51z"/>
<path fill-rule="evenodd" clip-rule="evenodd" fill="#302923" d="M102.774,105.229c-0.098,0.578,0.438,0.521,0.24,1.2
	C102.594,107.24,101.773,105.047,102.774,105.229z"/>
<path fill-rule="evenodd" clip-rule="evenodd" fill="#302923" d="M103.975,111.229c0.371,0.349,0.212,1.229,0.24,1.92
	c-0.727-0.085-0.719-2.145-0.48-2.399C103.788,110.936,103.741,111.223,103.975,111.229z"/>
<path fill-rule="evenodd" clip-rule="evenodd" fill="#302923" d="M54.295,44.03c0.337,0.063,0.273,0.526,0.48,0.72
	c1.698-0.04,3.618,0.404,5.04,0.24c-0.269-0.051-0.373-0.267-0.479-0.48c0.505,0.215,1.066,0.373,1.439,0.72
	c0.627,0.814,1.481,1.399,1.681,2.64c-0.843,1.557-2-0.165-2.88-0.48c-1.246-0.446-5.026-0.5-5.28,0
	c-0.922,0.438-1.641,1.079-2.88,1.2c-0.685-0.51-1.065,0.89-2.4,0.48c-1.304-1.713,0.866-3.008,1.92-3.84
	c1.15-0.746,2.473,0.11,3.12-1.2C54.135,44.03,54.215,44.03,54.295,44.03z"/>
</svg>
