<?xml version="1.0" encoding="utf-8"?>
<!-- Generator: Adobe Illustrator 15.1.0, SVG Export Plug-In . SVG Version: 6.00 Build 0)  -->
<!DOCTYPE svg PUBLIC "-//W3C//DTD SVG 1.1//EN" "http://www.w3.org/Graphics/SVG/1.1/DTD/svg11.dtd">
<svg version="1.1" id="Ebene_1" xmlns="http://www.w3.org/2000/svg" xmlns:xlink="http://www.w3.org/1999/xlink" x="0px" y="0px"
	 width="113.39px" height="113.39px" viewBox="0 0 113.39 113.39" enable-background="new 0 0 113.39 113.39" xml:space="preserve">
<g>
	<path fill-rule="evenodd" clip-rule="evenodd" fill="#437356" d="M43.253,22.182c0.96,0,1.92,0,2.88,0
		C45.72,22.58,43.667,22.58,43.253,22.182z"/>
	<path fill-rule="evenodd" clip-rule="evenodd" fill="#9E4A34" d="M34.133,28.663c0.766-0.339,0.606,1.436,0.24,1.44
		C34.096,29.819,34.101,29.254,34.133,28.663z"/>
	<path fill-rule="evenodd" clip-rule="evenodd" fill="#9E4A34" d="M38.693,61.065c1.455-0.255,1.634,0.766,2.4,1.2
		c0.733-0.227,0.752-1.168,1.68-1.2c0.469,0.187,2.083,0.617,3.6,0.479C44.583,63.137,39.881,63.285,38.693,61.065z"/>
	<path fill-rule="evenodd" clip-rule="evenodd" fill="#9E4A34" d="M40.613,63.226c1.378,0.383,5.013,0.46,6-0.96
		C47.504,63.808,41.456,66.69,40.613,63.226z"/>
	<path fill-rule="evenodd" clip-rule="evenodd" fill="#CBA34A" d="M65.096,63.226c1.069,0.51,0.271,2.447-0.48,2.64
		c-0.555-0.245-0.496-1.104-0.479-1.92C64.736,63.986,64.887,63.577,65.096,63.226z"/>
	<path fill-rule="evenodd" clip-rule="evenodd" fill="#CBA34A" d="M41.813,75.467c0.147-0.214,0.29-0.43,0-0.48
		c0.651-0.636,1.176,0.893,1.92,0.96c-0.127,0.193-0.25,0.39-0.24,0.721c0.678,0.198,0.622-0.339,1.2-0.24c0,0.399,0,0.8,0,1.2
		c-0.38,0.02-0.915-0.116-0.96,0.239c-0.16,0-0.32,0-0.48,0c-0.08,0-0.16,0-0.24,0C42.984,77.119,42.854,75.827,41.813,75.467z"/>
	<path fill-rule="evenodd" clip-rule="evenodd" fill="#437356" d="M80.696,75.706c0.397,0.259,0.397,2.142,0,2.4
		C80.696,77.307,80.696,76.507,80.696,75.706z"/>
	<path fill-rule="evenodd" clip-rule="evenodd" fill="#CBA34A" d="M44.213,79.307c-0.299,1.701-2.618,1.383-2.88,3.12
		c0.879,0.562,2.001-1.521,3.12-0.72c0.322,1.098-0.537,1.661-1.2,2.4c-1.616,4.944-3.159,9.962-7.92,11.761
		C36.674,89.646,35.849,78.809,44.213,79.307z"/>
	<path fill-rule="evenodd" clip-rule="evenodd" fill="#9E4A34" d="M36.293,83.147c-0.127,0.586-0.248,1.163-0.72,1.92
		c-0.278-0.201-0.644-0.316-1.2-0.24C34.941,84.195,35.326,83.38,36.293,83.147z"/>
	<path fill-rule="evenodd" clip-rule="evenodd" fill="#9E4A34" d="M49.254,83.627c-0.203,4.648-4.55,9.546-2.88,14.642
		c-2.163,0.675-5.978-0.962-8.4-2.16c3.43-3.051,5.246-7.715,6.96-12.481C46.374,82.802,47.62,83.44,49.254,83.627z"/>
	<path fill-rule="evenodd" clip-rule="evenodd" fill="#323022" d="M68.695,87.947c-0.016,0.646-0.548,1.154-0.96,0.721
		C67.662,88.034,68.236,88.049,68.695,87.947z"/>
	<path fill-rule="evenodd" clip-rule="evenodd" fill="#323022" d="M66.535,88.428c1.161,0.407-0.488,2.057-0.96,0.96
		C65.652,88.824,66.318,88.851,66.535,88.428z"/>
	<path fill-rule="evenodd" clip-rule="evenodd" fill="#437356" d="M94.138,113.39c-8.32,0-16.642,0-24.962,0
		c-0.325-3.973-1.275-10.68,0.72-14.642c-2.261,0.717-2.628,4.805-2.64,7.681c-0.011,2.622,0.635,4.955,1.2,6.961
		c-14.962,0-29.923,0-44.884,0c0.527-6.604,2.669-12.081,5.521-17.762c-2.709,1.142-3.306,4.738-4.32,7.921
		c-0.815,2.559-2.797,5.688-1.92,9.841c-1.2,0-2.4,0-3.6,0c0.387-4.255,0.674-7.205,2.4-10.081c0.798-1.33,2.124-2.282,2.641-3.6
		c0.877-2.24,0.712-6.172,2.88-7.201c2.601-1.234,4.952,1.502,7.201,2.16c-0.121,1.232-1.001,1.611-0.96,2.4
		c1.175,0.675,2.49-0.317,3.36-0.72c2.675,1.805,5.327,3.634,10.081,3.36c0.636,2.164,1.956,3.644,4.08,4.32
		c0.824-1.84,0.704-3.575,1.92-5.281c5.883,0.02,12.799-5.635,18.241-3.36c1.45-0.34,2.891-0.86,4.32-0.96
		c4.238-0.293,5.436,1.766,8.641,3.121c1.894,0.8,3.991,0.933,5.281,2.399c0.649,0.739,1.518,2.422,1.92,3.36
		c1.271,2.963,1.871,6.709,2.4,9.602c0.053,0.187,0.2,0.278,0.479,0.239C94.138,113.229,94.138,113.31,94.138,113.39z
		 M42.053,110.029c0.33-2.396,0.993-4.609,1.2-6.48c-0.331,0.011-0.527-0.113-0.72-0.24
		C41.441,104.934,40.998,108.044,42.053,110.029z"/>
	<path fill-rule="evenodd" clip-rule="evenodd" fill="#323022" d="M23.572,113.39c-0.24,0-0.48,0-0.72,0
		c-0.876-4.152,1.105-7.282,1.92-9.841c1.014-3.183,1.611-6.779,4.32-7.921C26.241,101.309,24.099,106.786,23.572,113.39z"/>
	<path fill-rule="evenodd" clip-rule="evenodd" fill="#323022" d="M69.176,113.39c-0.24,0-0.48,0-0.72,0
		c-0.565-2.006-1.211-4.339-1.2-6.961c0.012-2.876,0.379-6.964,2.64-7.681C67.9,102.71,68.851,109.417,69.176,113.39z"/>
	<path fill-rule="evenodd" clip-rule="evenodd" fill="#323022" d="M42.533,103.309c0.193,0.127,0.39,0.251,0.72,0.24
		c-0.208,1.871-0.871,4.085-1.2,6.48C40.998,108.044,41.441,104.934,42.533,103.309z"/>
	<path fill-rule="evenodd" clip-rule="evenodd" fill="#437356" d="M74.696,32.743c0.945,0.818,2.264,2.532,2.4,3.36
		C76.282,34.997,75.473,33.886,74.696,32.743z"/>
	<path fill-rule="evenodd" clip-rule="evenodd" fill="#437356" d="M69.416,26.502c0.905,0.615,1.588,1.452,2.16,2.4
		C70.667,28.291,70.17,27.268,69.416,26.502z"/>
	<path fill-rule="evenodd" clip-rule="evenodd" fill="#9E4A34" d="M36.053,23.382c0.041,0.681-0.812,0.468-0.48,1.44
		c-0.193,0.206-0.657,0.143-0.72,0.48c-0.08,0-0.16,0-0.24,0C35.128,24.697,35.209,23.658,36.053,23.382z"/>
	<path fill-rule="evenodd" clip-rule="evenodd" fill="#9E4A34" d="M34.613,30.583c2.005-1.312,1.833-3.316,4.08-4.32
		c-1.579,1.241-2.654,4.201-4.08,4.8C34.613,30.902,34.613,30.743,34.613,30.583z"/>
	<path fill-rule="evenodd" clip-rule="evenodd" fill="#437356" d="M35.333,39.223c0.701,0.259-0.222,2.142,0.48,2.4
		c0.006,0.233,0.293,0.186,0.48,0.24c-0.548,0.949,0.346-0.061,0.96,0c-0.336,0.383-0.827,0.613-1.44,0.72
		C35.299,41.817,35.284,40.552,35.333,39.223z"/>
	<path fill-rule="evenodd" clip-rule="evenodd" fill="#323022" d="M18.531,113.39c-0.328-3.607-0.032-6.692,1.68-10.081
		c0.733-1.452,2.267-2.547,2.88-4.08c0.539-1.348,0.494-2.778,0.96-4.08c0.824-2.304,2.7-3.986,2.88-6.48
		c2.433-2.848,6.549-4.013,8.881-6.961c1.669,0.074,4.14-2.36,5.76-3.841c-0.658-1.775-1.579-3.172-1.44-6.24
		c-2.395-3.07-4.386-8.335-4.561-13.201c-0.035-0.964-1.414-3.092-1.68-4.32c-0.754-3.477,1.712-6.462,0.72-9.841
		c0.144-0.541-1.661,0.689-1.44-0.48c1.104-0.66,0.281-0.515-0.24-1.2c0.025-0.995,1.507,0.422,1.68-0.72
		c-1.215-2.412,0.487-3.651-0.72-6.001c0.491-0.869,0.106-2.614,0.72-3.36c-4.764-4.213,0.473-14.524,8.641-10.321
		c0.414,0.398,2.466,0.398,2.88,0c8.184-1.478,18.882-1.16,23.282,4.321c0.754,0.766,1.251,1.788,2.16,2.4
		c0.891,1.43,2.613,2.027,3.12,3.84c0.776,1.144,1.586,2.254,2.4,3.36c3.067,3.824,4.501,10.907,5.28,15.602
		c0.154,0.966-0.313,2.552,0.24,3.12c0.282,8.891-1.261,20.125-0.24,28.083c-1.59,0.413-4.466,0.404-5.761-0.24
		c0.161,1.041,1.451,1.558,2.16,2.16c3.875,3.29,9.106,5.583,10.801,10.801c0.37,1.141,0.119,2.591,0.48,3.601
		c0.562,1.571,2.001,2.892,2.64,4.561c1.284,3.354,1.998,6.3,1.921,9.601c-0.16,0-0.32,0-0.48,0c0-0.08,0-0.16,0-0.24
		c-0.279,0.039-0.427-0.053-0.479-0.239c-0.529-2.893-1.13-6.639-2.4-9.602c-0.402-0.938-1.271-2.621-1.92-3.36
		c-1.29-1.467-3.388-1.6-5.281-2.399c-3.205-1.355-4.402-3.414-8.641-3.121c-1.43,0.1-2.87,0.62-4.32,0.96
		c-5.442-2.274-12.358,3.38-18.241,3.36c-1.217,1.706-1.097,3.441-1.92,5.281c-2.124-0.677-3.444-2.156-4.08-4.32
		c-4.754,0.273-7.406-1.556-10.081-3.36c-0.87,0.402-2.185,1.395-3.36,0.72c-0.041-0.789,0.839-1.168,0.96-2.4
		c-2.249-0.658-4.6-3.395-7.201-2.16c-2.167,1.029-2.002,4.961-2.88,7.201c-0.517,1.317-1.842,2.27-2.641,3.6
		c-1.726,2.876-2.013,5.826-2.4,10.081C19.011,113.39,18.771,113.39,18.531,113.39z M38.693,26.262
		c0.688-1.806,3.338-1.449,3.601-2.88c-2.326,0.034-4.142-1.017-6.241,0c-0.844,0.276-0.925,1.315-1.44,1.92
		c-0.336,0.877-0.578,1.771,0,2.4c-0.722-0.242-0.425,0.535-0.48,0.96c-0.032,0.591-0.037,1.156,0.24,1.44
		c0,0.241,0.194,0.286,0.24,0.48c0,0.16,0,0.32,0,0.48C36.039,30.463,37.114,27.503,38.693,26.262z M80.696,75.706
		c0.485-10.48,1.558-20.572-0.72-29.042c-0.383-1.423-0.31-2.897-0.72-4.081C76.91,35.82,71.413,31.33,67.495,25.782
		c-5.654-3.432-13.798-3.147-21.122-2.4c3.191,1.689,6.235,3.526,8.641,6c8.152,11.018,11.44,33.35,2.16,45.364
		c-1.309,1.694-3.243,2.585-4.081,4.561c2.285,0.602,2.887-1.73,5.281-1.2c-0.74,1.021-2.236,1.284-3.601,1.681
		c4.502,4.329,3.901,14.214-0.72,17.521c4.084-0.148,6.642-2.201,10.082-3.12c2.812-0.752,7.151-0.187,9.601-0.721
		c5.053-1.101,9.104,2.108,14.881,4.32c-0.718-6.378-7.092-11.605-15.602-10.561c-0.701,0.086-2.765,1.453-3.84,0.72
		c2.583-1.538,6.212-1.618,9.601-1.68c-3.288-3.825-9.183-3.828-14.641-2.4c2.337-1.771,5.044-1.754,8.641-1.92
		c-0.954-5.861-9.668-3.956-14.161-3.841c0-0.08,0-0.16,0-0.24c4.001-0.937,8.469-1.768,12.48-1.199
		c1.77,0.25,3.94,0.818,5.041,1.92c-1.471,0.75-2.297-0.751-3.841,0c1.366,3.223,6.088,3.437,8.641,3.12
		c-0.201-1.578-0.128-1.933-0.24-3.601C81.094,77.848,81.094,75.965,80.696,75.706z M35.813,41.624c2.741-4.223,7.324-0.29,6.48,4.8
		c-0.581,3.503-6.914,7.502-6.241,10.081c3.101-0.5,6.128-1.073,8.881-1.92c0.204-0.877-1.106-1.286,0-1.68
		c1.014,0.08,1.25,1.204,0.96,1.92c-2.576,2.344-5.929,1.839-9.361,2.88c0.864,6.897,4.779,19.978,13.681,18.962
		c1.425-0.163,2.792-2.428,4.561-1.681c-1.327,0.993-2.196,2.444-4.32,2.641c-0.179,0.738,0.659,0.461,0.48,1.2
		c3.55-2.291,6.665-5.017,7.681-9.841c-1.073-1.453-1.757-3.923-0.48-5.281c-0.611-0.414-0.931,0.366-0.96-0.479
		c0.244-1.116,1.458-1.263,1.44-2.641c-0.794-0.486-1.884-0.677-1.92-1.92c0.574-0.642,2.424-0.759,2.64-2.4
		c-1.522,0.564-3.628,0.026-3.36-1.2c1.57-0.19,2.044-1.476,3.12-2.16c2.21-6.36,1.145-11.566-1.44-16.801
		c-4.388-2.77-7.684-6.237-13.921-7.201c-0.186-0.534-0.139-1.301-0.72-1.44c0.036,0.596-0.124,0.996-0.48,1.2
		c-4.777,0.53-7.972,3.957-7.2,7.44c1.773-0.967,2.95-1.711,5.28-1.68c-0.162,1.21,1.044,1.195,0.48,2.16
		c-2.004,0.796-5.064,0.536-5.76,2.64c-0.049,1.329-0.034,2.594,0.48,3.36c0.613-0.107,1.104-0.336,1.44-0.72
		c0.731-0.069,1.638,0.038,1.68-0.72c-1.389-0.269-1.796,0.444-2.64,0.72C36.106,41.81,35.819,41.857,35.813,41.624z M37.013,43.304
		c-0.578-0.098-0.521,0.438-1.2,0.24c-0.5,3.461,1.167,4.754,4.08,4.801c0.753-0.692,1.415-2.739,0.72-4.081
		c-0.308,0.572-0.459,1.301-1.2,1.44C37.127,45.875,37.718,44.658,37.013,43.304z M35.813,48.344
		c-0.989,2.478-1.206,4.455-0.48,6.48c0.976-1.984,2.202-3.718,3.6-5.28C37.248,49.278,36.791,49.024,35.813,48.344z M44.693,76.427
		c-0.578-0.099-0.521,0.438-1.2,0.24c-0.011-0.331,0.113-0.527,0.24-0.721c-0.744-0.067-1.269-1.596-1.92-0.96
		c0.29,0.051,0.147,0.267,0,0.48c0.544,0.583,0.662,2.849,1.44,2.399c0.16,0,0.32,0,0.48,0c0.209,0.362,0.359-0.065,0.96,0.24
		C44.759,77.499,45.725,76.746,44.693,76.427z M47.094,77.627c-2.445,0.343-1.823,2.379-1.44,4.32
		c1.185-0.457,1.695,0.116,2.88,0.24c0.349-1.172,1.349-1.692,1.44-3.121c-0.347-0.453-0.536-1.063-1.44-0.96
		c-1.206,0.951-0.055,2.192-0.96,2.881c-0.16,0-0.32,0-0.48,0C46.505,79.784,46.678,78.866,47.094,77.627z M35.333,95.868
		c4.761-1.799,6.304-6.816,7.92-11.761c0.663-0.739,1.522-1.303,1.2-2.4c-1.119-0.802-2.241,1.281-3.12,0.72
		c0.262-1.737,2.581-1.419,2.88-3.12C35.849,78.809,36.674,89.646,35.333,95.868z M53.574,83.147
		c0.826,4.577-1.194,8.832-3.6,12.001c-0.597-3.141,5.785-10.424,0.24-13.682c-1.289,1.091,0.454,1.693,0.48,2.881
		c-0.721,3.606-2.777,6.147-3.121,9.36c-0.406,3.799,0.484,6.716,2.64,8.641c0.22-1.54,1.059-2.462,1.2-4.08
		c2.018-1.688,4.996-4.74,5.281-8.881c0.275-3.998-1.647-9.314-5.041-8.881c0.269,0.051,0.374,0.267,0.48,0.48
		C52.606,81.715,52.969,82.553,53.574,83.147z M34.373,84.827c0.557-0.076,0.922,0.039,1.2,0.24c0.473-0.757,0.593-1.334,0.72-1.92
		C35.326,83.38,34.941,84.195,34.373,84.827z M44.934,83.627c-1.714,4.767-3.531,9.431-6.96,12.481
		c2.423,1.198,6.237,2.835,8.4,2.16c-1.669-5.096,2.677-9.993,2.88-14.642C47.62,83.44,46.374,82.802,44.934,83.627z M27.652,91.548
		c1.573-0.754,4.679,0.777,6.96,1.92c0.188-2.794,1.026-6.686,0.48-8.16C31.157,85.679,27.28,88.444,27.652,91.548z"/>
	<path fill-rule="evenodd" clip-rule="evenodd" fill="#C9A763" d="M35.333,39.223c0.696-2.104,3.756-1.844,5.76-2.64
		c0.564-0.965-0.642-0.95-0.48-2.16c-2.33-0.031-3.507,0.713-5.28,1.68c-0.771-3.484,2.423-6.911,7.2-7.44
		c0.356-0.204,0.516-0.604,0.48-1.2c0.581,0.139,0.534,0.906,0.72,1.44c6.238,0.964,9.534,4.431,13.921,7.201
		c2.584,5.235,3.65,10.441,1.44,16.801c-1.076,0.684-1.55,1.97-3.12,2.16c-0.268,1.226,1.838,1.764,3.36,1.2
		c-0.216,1.641-2.066,1.759-2.64,2.4c0.037,1.243,1.126,1.434,1.92,1.92c0.018,1.378-1.197,1.524-1.44,2.641
		c0.029,0.846,0.349,0.065,0.96,0.479c-1.276,1.358-0.593,3.828,0.48,5.281c-1.016,4.824-4.131,7.55-7.681,9.841
		c0.179-0.739-0.659-0.462-0.48-1.2c2.124-0.196,2.993-1.647,4.32-2.641c-1.769-0.747-3.135,1.518-4.561,1.681
		c-8.902,1.016-12.817-12.064-13.681-18.962c3.432-1.041,6.785-0.537,9.361-2.88c0.29-0.717,0.054-1.84-0.96-1.92
		c-1.106,0.395,0.204,0.803,0,1.68c-2.753,0.848-5.78,1.421-8.881,1.92c-0.673-2.579,5.66-6.578,6.241-10.081
		c0.843-5.09-3.739-9.023-6.48-4.8C35.111,41.365,36.034,39.482,35.333,39.223z M46.614,34.183c-0.329,1.031-1.832,0.889-2.16,1.92
		c3.149,1.947,5.959,0.78,9.601,3.12C54.401,35.677,49.386,34.667,46.614,34.183z M49.494,49.544
		c4.396,0.59,6.913-3.293,5.521-6.481c0.718-0.322,1.617-0.462,1.68-1.44c-0.89-0.17-1.03,0.41-1.92,0.24
		c0.134-0.49,0.722-0.471,0.24-0.96c-0.579-0.098-0.522,0.438-1.2,0.24c-4.28-5.761-12.465,2.221-6.721,7.201c0,0.08,0,0.16,0,0.24
		C47.796,49.002,48.459,49.458,49.494,49.544z M40.853,61.065c-0.668-1.101-2.73-1.247-3.36,0c0.836,1.31,2.578,3.613,4.08,5.04
		c4.828,0.375,6.808-3.646,7.441-6C45.98,62.036,42.918,58.82,40.853,61.065z"/>
	<path fill-rule="evenodd" clip-rule="evenodd" fill="#323022" d="M69.896,35.143c0.478,0.775-0.535,1.766-1.92,1.44
		c1.075-1.122-0.063-1.196,0-2.16c0.055-0.834,1.283-1.937,1.68-2.88c0.268-0.635-0.503-1.52,0.721-1.44
		c0.572,1.216-0.267,2.06-0.96,3.12C68.358,33.604,69.242,35.01,69.896,35.143z"/>
	<path fill-rule="evenodd" clip-rule="evenodd" fill="#9E4A34" d="M69.416,33.223c0.044,0.204-0.094,0.227-0.24,0.24
		c-0.13,0.929,0.611,0.988,0.72,1.68C69.242,35.01,68.358,33.604,69.416,33.223z"/>
	<path fill-rule="evenodd" clip-rule="evenodd" fill="#323022" d="M72.296,34.423c2.896,0.986,0.448,2.612,1.2,4.32
		c0.211,0.172,0.964,0.222,1.68,0.48c0.486,0.775,1.206,2.565,0.24,3.36c1.563,1.46,2.898,4.182,1.44,5.521
		c1.319,0.822,1.668,3.004,0.96,4.561c0.575,0.79,0.708-0.874,1.681-0.48c0.231,1.715-1.799,2.188-2.641,1.44
		c-1.183,1.11-1.604,1.532-1.44,3.84c1.252-0.108,1.289-1.431,2.641-1.44c-0.382,1.584-2.02,1.803-2.881,2.88
		c-1.216,1.521-1.403,3.75-3.12,5.28c-0.04,0.521,0.852,0.108,1.2,0.24c-0.107,1.013-1.236,1.003-2.16,1.2
		c-0.483,0.477-0.784,1.135-1.44,1.439c0,0.32,0,0.641,0,0.96c-3.44,3.444-7.258,7.778-12,9.121c0.972-1.254,2.457-2.3,3.84-3.36
		c2.585-1.979,6.887-4.137,8.16-7.681c-0.627-0.772-2.005,0.611-2.399-0.479c0.439-1.216,1.538-0.357,3.12-0.961
		c1.411-1.389,2.303-3.297,3.36-5.04c-0.458-0.188-2.264,0.994-3.12,0.48c0.158-1.682,2.505-1.176,3.6-1.921
		c0.166-1.029,0.091-1.585,0.24-2.16c-0.252-0.491-1.231,1.115-1.92,0.24c0.09-0.95,0.756-1.324,1.68-1.44
		c-0.108-1.539-1.569-2.846-0.96-4.32c1.64,0.378,1.664,2.185,1.92,3.36c2.202-0.942,2.441-3.85,0.48-5.041
		c0.558-2.199,1.521-4.28-1.44-4.561c-0.29-0.946,0.187-2.513,0.721-3.36c-0.071-0.489-0.649-0.471-0.721-0.96
		c-2.354,1.277-3.217-2.549-1.439-3.36C73.03,35.466,71.592,35.248,72.296,34.423z"/>
	<path fill-rule="evenodd" clip-rule="evenodd" fill="#323022" d="M63.655,39.463c0.036,1.22-2.272,1.762-2.641,0.48
		c0.878-1.522,1.998-2.803,2.4-4.8c1.358,0.493-0.077,2.458-0.479,3.36C63.176,38.822,63.162,39.396,63.655,39.463z"/>
	<path fill-rule="evenodd" clip-rule="evenodd" fill="#323022" d="M64.136,44.744c-1.624-0.262-0.773-1.671-2.161-1.92
		c-0.132-0.532,0.459-0.342,0.48-0.72c0.422,0.058,0.547,0.413,0.48,0.96c1.771-0.788,2.198-2.921,3.36-4.32
		c0.539,1.187-0.54,2.816-1.44,3.36C65.509,42.953,65.148,44.293,64.136,44.744z"/>
	<path fill-rule="evenodd" clip-rule="evenodd" fill="#437356" d="M47.094,48.344c0.618,0.582,1.739,0.661,2.4,1.2
		c-1.035-0.086-1.698-0.542-2.4-0.96C47.094,48.504,47.094,48.424,47.094,48.344z"/>
	<path fill-rule="evenodd" clip-rule="evenodd" fill="#CBA34A" d="M36.293,41.864c0.844-0.276,1.251-0.989,2.64-0.72
		c-0.042,0.758-0.949,0.651-1.68,0.72C36.639,41.803,35.745,42.813,36.293,41.864z"/>
	<path fill-rule="evenodd" clip-rule="evenodd" fill="#437356" d="M62.936,68.025c0.315-0.483,0.788-0.812,1.439-0.96
		c0.044,0.204-0.094,0.227-0.239,0.24c-0.229,0.155-0.096,1.09-0.721,1.44C63.704,68.085,63.674,67.475,62.936,68.025z"/>
	<path fill-rule="evenodd" clip-rule="evenodd" fill="#9E4A34" d="M66.535,63.705c-0.536-0.104-0.097-1.183-0.239-1.68
		c0.643-0.157,0.912-0.688,1.439-0.96c-0.309,0.411-0.496,0.943-1.2,0.96C66.535,62.585,66.535,63.146,66.535,63.705z"/>
	<path fill-rule="evenodd" clip-rule="evenodd" fill="#437356" d="M37.013,43.304c0.706,1.354,0.115,2.571,2.4,2.4
		C37.981,46.489,36.662,45.1,37.013,43.304z"/>
	<path fill-rule="evenodd" clip-rule="evenodd" fill="#CBA34A" d="M38.933,49.544c-1.398,1.562-2.624,3.296-3.6,5.28
		c-0.726-2.025-0.509-4.002,0.48-6.48C36.791,49.024,37.248,49.278,38.933,49.544z"/>
	<path fill-rule="evenodd" clip-rule="evenodd" fill="#323022" d="M49.014,60.105c-0.633,2.354-2.613,6.375-7.441,6
		c-1.502-1.427-3.244-3.73-4.08-5.04c0.63-1.247,2.691-1.101,3.36,0C42.918,58.82,45.98,62.036,49.014,60.105z M46.374,61.545
		c-1.518,0.138-3.131-0.293-3.6-0.479c-0.928,0.032-0.947,0.974-1.68,1.2c-0.766-0.435-0.946-1.455-2.4-1.2
		C39.881,63.285,44.583,63.137,46.374,61.545z M46.614,62.266c-0.988,1.42-4.623,1.343-6,0.96
		C41.456,66.69,47.504,63.808,46.614,62.266z"/>
	<path fill-rule="evenodd" clip-rule="evenodd" fill="#323022" d="M77.816,68.266c-0.009,1.479,1.931,3.748-0.72,3.841
		c-1.036-2.686-0.163-5.788,2.4-6.241C79.798,67.527,78.645,67.733,77.816,68.266z"/>
	<path fill-rule="evenodd" clip-rule="evenodd" fill="#323022" d="M61.735,71.146c-0.431-0.031-0.507,0.293-0.96,0.239
		C59.866,70.223,61.948,69.308,61.735,71.146z"/>
	<path fill-rule="evenodd" clip-rule="evenodd" fill="#323022" d="M75.896,71.866c-0.333,1.049-0.242,1.854,0.24,2.641
		c-0.214,0.186-0.542,0.258-0.961,0.239C74.649,73.966,74.301,71.773,75.896,71.866z"/>
	<path fill-rule="evenodd" clip-rule="evenodd" fill="#9E4A34" d="M68.936,73.786c0.076-0.746,3.104-0.638,2.4,0
		C70.901,73.213,69.457,73.651,68.936,73.786z"/>
	<path fill-rule="evenodd" clip-rule="evenodd" fill="#9E4A34" d="M41.813,75.467c1.041,0.36,1.171,1.652,1.2,2.399
		c0.08,0,0.16,0,0.24,0C42.475,78.315,42.357,76.05,41.813,75.467z"/>
	<path fill-rule="evenodd" clip-rule="evenodd" fill="#9E4A34" d="M44.693,76.427c1.031,0.319,0.066,1.072,0,1.68
		c-0.601-0.306-0.751,0.122-0.96-0.24c0.045-0.355,0.58-0.22,0.96-0.239C44.693,77.227,44.693,76.826,44.693,76.427z"/>
	<path fill-rule="evenodd" clip-rule="evenodd" fill="#9E4A34" d="M52.134,80.987c0.79,0.41,1.083,1.317,1.44,2.16
		C52.969,82.553,52.606,81.715,52.134,80.987z"/>
	<path fill-rule="evenodd" clip-rule="evenodd" fill="#9E4A34" d="M35.093,85.308c0.546,1.475-0.292,5.366-0.48,8.16
		c-2.282-1.143-5.387-2.674-6.96-1.92C27.28,88.444,31.157,85.679,35.093,85.308z"/>
	<path fill-rule="evenodd" clip-rule="evenodd" fill="#CBA34A" d="M36.053,23.382c2.099-1.017,3.915,0.034,6.241,0
		c-0.263,1.432-2.913,1.074-3.601,2.88c-2.248,1.004-2.075,3.008-4.08,4.32c-0.046-0.194-0.241-0.239-0.24-0.48
		c0.367-0.004,0.526-1.779-0.24-1.44c0.055-0.426-0.242-1.202,0.48-0.96c-0.578-0.628-0.336-1.523,0-2.4c0.08,0,0.16,0,0.24,0
		c0.063-0.337,0.527-0.274,0.72-0.48C35.241,23.85,36.094,24.063,36.053,23.382z"/>
	<path fill-rule="evenodd" clip-rule="evenodd" fill="#323022" d="M57.175,26.742c-0.349,0.771-1.611,0.629-2.4,0.96
		c0.039-0.279-0.053-0.427-0.24-0.48C54.875,26.571,56.473,26.275,57.175,26.742z"/>
	<path fill-rule="evenodd" clip-rule="evenodd" fill="#323022" d="M66.056,29.623c0.716,0.564,1.148,1.412,1.2,2.64
		c-0.279,0.202-0.644,0.316-1.2,0.24c-0.69-1.38-0.766-4.52-0.721-6.481C66.658,25.986,66.456,28.734,66.056,29.623z"/>
	<path fill-rule="evenodd" clip-rule="evenodd" fill="#CBA34A" d="M58.375,78.106c-2.394-0.53-2.996,1.802-5.281,1.2
		c0.838-1.976,2.772-2.866,4.081-4.561c9.28-12.014,5.992-34.346-2.16-45.364c-2.406-2.475-5.45-4.311-8.641-6
		c7.324-0.747,15.467-1.031,21.122,2.4c3.918,5.547,9.415,10.038,11.762,16.801c0.41,1.183,0.337,2.658,0.72,4.081
		c2.277,8.47,1.205,18.562,0.72,29.042c0,0.801,0,1.601,0,2.4c0.112,1.668,0.039,2.022,0.24,3.601
		c-2.553,0.316-7.274,0.103-8.641-3.12c1.544-0.751,2.37,0.75,3.841,0c-1.101-1.102-3.271-1.67-5.041-1.92
		c-4.012-0.568-8.479,0.263-12.48,1.199C58.41,77.822,58.389,77.96,58.375,78.106z M55.254,24.102
		c1.838,1.181,4.877,1.968,4.321,4.8c3.142,2.218,4.916,5.805,7.681,8.401c0.525-0.5-0.211-0.776,0.239-1.2
		c-2.357-2.442-3.924-5.676-6.72-7.681c0.587-0.772,1.378-1.342,1.199-2.88c-0.427-0.213-0.609-0.67-1.439-0.48
		c-0.753,0.452,0.58,1.248,0,1.44C59.078,25.706,56.898,22.381,55.254,24.102z M65.335,26.022c-0.045,1.961,0.03,5.101,0.721,6.481
		c0.557,0.076,0.921-0.039,1.2-0.24c-0.052-1.229-0.484-2.076-1.2-2.64C66.456,28.734,66.658,25.986,65.335,26.022z M54.535,27.222
		c0.187,0.053,0.279,0.201,0.24,0.48c0.79-0.331,2.052-0.188,2.4-0.96C56.473,26.275,54.875,26.571,54.535,27.222z M69.416,33.223
		c0.693-1.06,1.532-1.904,0.96-3.12c-1.224-0.08-0.453,0.805-0.721,1.44c-0.396,0.944-1.625,2.046-1.68,2.88
		c-0.063,0.964,1.075,1.039,0,2.16c1.385,0.326,2.397-0.665,1.92-1.44c-0.108-0.692-0.85-0.751-0.72-1.68
		C69.322,33.449,69.46,33.427,69.416,33.223z M62.455,32.983c-1.728,0.768-2.49,2.074-2.4,3.6c0.48,0,0.96,0,1.44,0
		C61.474,34.92,61.876,33.745,62.455,32.983z M72.776,36.583c-1.777,0.812-0.914,4.637,1.439,3.36
		c0.071,0.489,0.649,0.471,0.721,0.96c-0.534,0.847-1.011,2.414-0.721,3.36c2.961,0.281,1.998,2.362,1.44,4.561
		c1.961,1.191,1.722,4.099-0.48,5.041c-0.256-1.175-0.28-2.982-1.92-3.36c-0.609,1.475,0.852,2.782,0.96,4.32
		c-0.924,0.116-1.59,0.49-1.68,1.44c0.688,0.875,1.668-0.73,1.92-0.24c-0.149,0.574-0.074,1.13-0.24,2.16
		c-1.095,0.745-3.441,0.239-3.6,1.921c0.856,0.514,2.662-0.669,3.12-0.48c-1.058,1.743-1.949,3.651-3.36,5.04
		c-1.582,0.604-2.681-0.255-3.12,0.961c0.395,1.091,1.772-0.293,2.399,0.479c-1.273,3.544-5.575,5.701-8.16,7.681
		c-1.384,1.061-2.868,2.106-3.84,3.36c4.743-1.343,8.56-5.677,12-9.121c0-0.319,0-0.64,0-0.96c0.656-0.305,0.957-0.963,1.44-1.439
		c0.924-0.197,2.053-0.188,2.16-1.2c-0.349-0.132-1.24,0.28-1.2-0.24c1.717-1.53,1.904-3.759,3.12-5.28
		c0.861-1.078,2.499-1.296,2.881-2.88c-1.352,0.009-1.389,1.332-2.641,1.44c-0.164-2.309,0.258-2.73,1.44-3.84
		c0.842,0.748,2.872,0.275,2.641-1.44c-0.973-0.394-1.105,1.27-1.681,0.48c0.708-1.556,0.359-3.739-0.96-4.561
		c1.458-1.339,0.122-4.06-1.44-5.521c0.966-0.795,0.246-2.585-0.24-3.36c-0.716-0.258-1.469-0.308-1.68-0.48
		c-0.752-1.708,1.695-3.334-1.2-4.32C71.592,35.248,73.03,35.466,72.776,36.583z M62.936,38.503c0.402-0.902,1.838-2.867,0.479-3.36
		c-0.402,1.997-1.522,3.278-2.4,4.8c0.368,1.282,2.677,0.74,2.641-0.48C63.162,39.396,63.176,38.822,62.936,38.503z M64.855,42.104
		c0.9-0.544,1.979-2.174,1.44-3.36c-1.162,1.399-1.589,3.532-3.36,4.32c0.066-0.547-0.059-0.902-0.48-0.96
		c-0.021,0.378-0.612,0.188-0.48,0.72c1.388,0.249,0.537,1.658,2.161,1.92C65.148,44.293,65.509,42.953,64.855,42.104z
		 M71.576,40.664c-0.016,2.353-1.625,3.052-0.96,5.041C71.532,44.485,74.081,40.341,71.576,40.664z M67.735,61.065
		c1.166-2.192,0.017-3.124-0.96-4.801c0.066-1.054,1.047-1.194,1.681-1.68c-0.236-0.959-0.236-1.44,0-2.4
		c-1.361-0.657-1.64-1.755-1.44-3.121c1.026,0.066,1.224-0.696,1.68-1.2c-0.732-1.268-2.132-1.869-2.399-3.601
		c0.137-1.063,1.883-0.517,1.92-1.68c-3.628-0.861-2.915,4.075-1.2,5.521c-2.436,1.333-0.359,3.587,0.24,6
		c-4.105,1.958,2.245,5.782-1.921,7.921c-1.214-1.044,0.195-2.145,0.48-3.12c-1.814-1.293,0.056-2.867,0-4.321
		c-0.041-1.073-1.718-2.203-0.72-4.56c-0.469-0.281-1.344-0.789-1.921-0.24c-0.188,0.989,1.149,0.451,0.961,1.44
		c-0.211,0.75-0.653,1.268-0.961,1.92c0.236,0.804,1.039,1.042,1.2,1.92c-1.813,0.808-0.549,3.132,0.24,4.081
		c-0.604,0.596-1.576,0.823-1.44,2.16c0.179,0.701,1.296,0.464,1.2,1.439c-0.904,0.375-1.545,1.016-1.92,1.92
		c0.843,0.178-0.112,1.198,0.48,1.921c-0.401,0.959-1.735,0.984-1.44,2.64c1.073,0.194,1.333-0.427,1.44-1.2
		c0.738-0.551,0.769,0.06,0.479,0.721c-0.32,0.604-1.106,1.598-0.72,2.16c2.354-0.933,1.412-4.174,3.84-5.521
		c0.132-0.958,0.132-0.723,0-1.681c0-0.56,0-1.12,0-1.68C67.239,62.009,67.427,61.477,67.735,61.065z M73.977,44.744
		c-2.651,0.79-1.881,5-3.841,6.48c-0.383-0.177,0.055-1.175-0.72-0.96c-0.835,0.329-0.427,0.988-0.721,1.44
		c0.574,0.386,1.131,0.79,2.16,0.72C71.354,49.839,73.863,47.031,73.977,44.744z M64.375,47.144c-0.319,0-0.64,0-0.96,0
		C63.104,48.375,64.59,48.261,64.375,47.144z M78.057,62.266c0.237-0.77,0.897-2.787-0.48-3.12c-0.361,3.031-1.668,5.41-3.12,7.92
		C75.918,66.322,77.533,63.962,78.057,62.266z M79.497,65.865c-2.563,0.453-3.437,3.556-2.4,6.241
		c2.65-0.093,0.711-2.362,0.72-3.841C78.645,67.733,79.798,67.527,79.497,65.865z M72.056,69.946c0.521-0.603,1.789-2.484,1.2-3.36
		c-0.718,1.096-1.435,2.22-2.4,3.12c-2.693,2.513-6.996,3.652-8.641,6.24C65.438,74.353,69.781,72.574,72.056,69.946z
		 M60.775,71.386c0.453,0.054,0.529-0.271,0.96-0.239C61.948,69.308,59.866,70.223,60.775,71.386z M75.176,74.746
		c0.419,0.019,0.747-0.054,0.961-0.239c-0.482-0.786-0.573-1.592-0.24-2.641C74.301,71.773,74.649,73.966,75.176,74.746z
		 M60.055,73.066c-0.806-0.104-1.417,0.507-0.96,0.96C59.847,74.138,60.166,73.817,60.055,73.066z M71.336,73.786
		c0.703-0.638-2.324-0.746-2.4,0c-1.304,0.376-2.938,0.423-3.12,1.92C66.971,75.339,69.508,74.281,71.336,73.786z M76.376,78.587
		c0.178,0.942,1.098,1.144,2.16,1.2c-0.04-0.359,0.086-0.886-0.239-0.96c-0.059,0.091-1.195,0.634-0.961-0.48
		C76.883,78.293,76.807,78.617,76.376,78.587z"/>
	<path fill-rule="evenodd" clip-rule="evenodd" fill="#323022" d="M61.495,36.583c-0.48,0-0.96,0-1.44,0
		c-0.09-1.526,0.673-2.832,2.4-3.6C61.876,33.745,61.474,34.92,61.495,36.583z"/>
	<path fill-rule="evenodd" clip-rule="evenodd" fill="#CBA34A" d="M46.614,41.624c0.677-1.89,4.229-1.688,5.521-0.48
		C50.889,41.301,48.879,41.101,46.614,41.624z"/>
	<path fill-rule="evenodd" clip-rule="evenodd" fill="#323022" d="M62.936,68.025c-0.107,0.773-0.367,1.395-1.44,1.2
		c-0.295-1.655,1.039-1.681,1.44-2.64c-0.593-0.723,0.362-1.743-0.48-1.921c0.375-0.904,1.016-1.545,1.92-1.92
		c0.096-0.976-1.021-0.738-1.2-1.439c-0.136-1.337,0.837-1.564,1.44-2.16c-0.789-0.949-2.054-3.273-0.24-4.081
		c-0.161-0.878-0.964-1.116-1.2-1.92c0.308-0.652,0.75-1.17,0.961-1.92c0.188-0.989-1.149-0.451-0.961-1.44
		c0.577-0.548,1.452-0.041,1.921,0.24c-0.998,2.357,0.679,3.487,0.72,4.56c0.056,1.454-1.814,3.027,0,4.321
		c-0.285,0.976-1.694,2.076-0.48,3.12c4.166-2.139-2.185-5.963,1.921-7.921c-0.6-2.414-2.676-4.667-0.24-6
		c-1.715-1.445-2.428-6.382,1.2-5.521c-0.037,1.163-1.783,0.617-1.92,1.68c0.268,1.732,1.667,2.333,2.399,3.601
		c-0.456,0.503-0.653,1.266-1.68,1.2c-0.199,1.365,0.079,2.463,1.44,3.121c-0.236,0.959-0.236,1.44,0,2.4
		c-0.634,0.486-1.614,0.626-1.681,1.68c0.977,1.677,2.126,2.608,0.96,4.801c-0.527,0.272-0.797,0.803-1.439,0.96
		c0.143,0.497-0.297,1.576,0.239,1.68c0.132,0.958,0.132,0.723,0,1.681c-2.428,1.347-1.486,4.588-3.84,5.521
		c-0.387-0.563,0.399-1.556,0.72-2.16c0.625-0.351,0.492-1.285,0.721-1.44c0.146-0.014,0.283-0.036,0.239-0.24
		C63.724,67.214,63.251,67.542,62.936,68.025z M64.136,63.945c-0.017,0.816-0.075,1.675,0.479,1.92c0.752-0.192,1.55-2.13,0.48-2.64
		C64.887,63.577,64.736,63.986,64.136,63.945z"/>
	<path fill-rule="evenodd" clip-rule="evenodd" fill="#CECEC6" d="M48.294,42.824c-0.376,4.286,4.271,2.896,4.32,0
		c4.017,1.237,0.193,7.473-4.32,5.28c-1.147-1.226-2.212-3.085-1.92-5.041C47.146,43.116,47.389,42.639,48.294,42.824z"/>
	<path fill-rule="evenodd" clip-rule="evenodd" fill="#323022" d="M70.855,52.424c-1.029,0.07-1.586-0.334-2.16-0.72
		c0.294-0.452-0.114-1.111,0.721-1.44c0.774-0.215,0.337,0.783,0.72,0.96c1.96-1.48,1.189-5.691,3.841-6.48
		C73.863,47.031,71.354,49.839,70.855,52.424z"/>
	<path fill-rule="evenodd" clip-rule="evenodd" fill="#323022" d="M63.415,47.144c0.32,0,0.641,0,0.96,0
		C64.59,48.261,63.104,48.375,63.415,47.144z"/>
	<path fill-rule="evenodd" clip-rule="evenodd" fill="#323022" d="M74.456,67.065c1.452-2.51,2.759-4.889,3.12-7.92
		c1.378,0.333,0.718,2.351,0.48,3.12C77.533,63.962,75.918,66.322,74.456,67.065z"/>
	<path fill-rule="evenodd" clip-rule="evenodd" fill="#323022" d="M62.215,75.946c1.645-2.588,5.947-3.728,8.641-6.24
		c0.966-0.9,1.683-2.024,2.4-3.12c0.589,0.876-0.679,2.758-1.2,3.36C69.781,72.574,65.438,74.353,62.215,75.946z"/>
	<path fill-rule="evenodd" clip-rule="evenodd" fill="#323022" d="M59.095,74.026c-0.457-0.453,0.154-1.064,0.96-0.96
		C60.166,73.817,59.847,74.138,59.095,74.026z"/>
	<path fill-rule="evenodd" clip-rule="evenodd" fill="#323022" d="M71.336,73.786c-1.828,0.495-4.365,1.553-5.521,1.92
		c0.183-1.497,1.816-1.544,3.12-1.92C69.457,73.651,70.901,73.213,71.336,73.786z"/>
	<path fill-rule="evenodd" clip-rule="evenodd" fill="#9E4A34" d="M58.615,77.866c0,0.08,0,0.16,0,0.24
		c4.493-0.115,13.207-2.021,14.161,3.841c-3.597,0.166-6.304,0.148-8.641,1.92c5.458-1.428,11.353-1.425,14.641,2.4
		c-3.389,0.062-7.018,0.142-9.601,1.68c1.075,0.733,3.139-0.634,3.84-0.72c8.51-1.045,14.884,4.183,15.602,10.561
		c-5.776-2.212-9.828-5.421-14.881-4.32c-2.449,0.534-6.789-0.031-9.601,0.721c-3.439,0.919-5.997,2.972-10.082,3.12
		c4.622-3.308,5.222-13.192,0.72-17.521c1.364-0.396,2.861-0.66,3.601-1.681C58.389,77.96,58.41,77.822,58.615,77.866z
		 M67.735,88.668c0.412,0.434,0.944-0.074,0.96-0.721C68.236,88.049,67.662,88.034,67.735,88.668z M65.575,89.388
		c0.472,1.097,2.121-0.553,0.96-0.96C66.318,88.851,65.652,88.824,65.575,89.388z"/>
	<path fill-rule="evenodd" clip-rule="evenodd" fill="#CBA34A" d="M47.094,80.987c0.16,0,0.32,0,0.48,0
		c0.905-0.688-0.246-1.93,0.96-2.881c0.904-0.104,1.093,0.507,1.44,0.96c-0.091,1.429-1.091,1.949-1.44,3.121
		c-1.185-0.124-1.695-0.697-2.88-0.24c-0.383-1.941-1.005-3.978,1.44-4.32C46.678,78.866,46.505,79.784,47.094,80.987z"/>
	<path fill-rule="evenodd" clip-rule="evenodd" fill="#323022" d="M60.535,26.502c0.58-0.193-0.753-0.988,0-1.44
		c0.83-0.19,1.013,0.267,1.439,0.48c0.179,1.539-0.612,2.108-1.199,2.88c2.796,2.004,4.362,5.238,6.72,7.681
		c-0.45,0.424,0.286,0.701-0.239,1.2c-2.765-2.596-4.539-6.183-7.681-8.401c0.557-2.833-2.482-3.619-4.321-4.8
		C56.898,22.381,59.078,25.706,60.535,26.502z"/>
	<path fill-rule="evenodd" clip-rule="evenodd" fill="#323022" d="M54.054,39.223c-3.642-2.34-6.451-1.173-9.601-3.12
		c0.329-1.031,1.831-0.889,2.16-1.92C49.386,34.667,54.401,35.677,54.054,39.223z"/>
	<path fill-rule="evenodd" clip-rule="evenodd" fill="#323022" d="M47.094,48.344c-5.745-4.979,2.441-12.962,6.721-7.201
		c0.678,0.198,0.622-0.338,1.2-0.24c0.482,0.49-0.106,0.471-0.24,0.96c0.89,0.17,1.03-0.41,1.92-0.24
		c-0.063,0.978-0.962,1.118-1.68,1.44c1.393,3.188-1.125,7.071-5.521,6.481C48.833,49.005,47.712,48.926,47.094,48.344z
		 M52.134,41.144c-1.292-1.208-4.843-1.41-5.521,0.48C48.879,41.101,50.889,41.301,52.134,41.144z M46.374,43.063
		c-0.292,1.956,0.773,3.815,1.92,5.041c4.514,2.193,8.337-4.043,4.32-5.28c-0.049,2.896-4.697,4.286-4.32,0
		C47.389,42.639,47.146,43.116,46.374,43.063z"/>
	<path fill-rule="evenodd" clip-rule="evenodd" fill="#323022" d="M70.616,45.704c-0.665-1.989,0.944-2.688,0.96-5.041
		C74.081,40.341,71.532,44.485,70.616,45.704z"/>
	<path fill-rule="evenodd" clip-rule="evenodd" fill="#323022" d="M77.336,78.347c-0.234,1.114,0.902,0.571,0.961,0.48
		c0.325,0.074,0.199,0.601,0.239,0.96c-1.063-0.057-1.982-0.258-2.16-1.2C76.807,78.617,76.883,78.293,77.336,78.347z"/>
	<path fill-rule="evenodd" clip-rule="evenodd" fill="#CBA34A" d="M52.134,80.987c-0.106-0.214-0.211-0.43-0.48-0.48
		c3.394-0.434,5.316,4.883,5.041,8.881c-0.285,4.141-3.263,7.192-5.281,8.881c-0.141,1.618-0.98,2.54-1.2,4.08
		c-2.156-1.925-3.046-4.842-2.64-8.641c0.344-3.213,2.4-5.754,3.121-9.36c-0.027-1.188-1.769-1.79-0.48-2.881
		c5.545,3.258-0.836,10.541-0.24,13.682c2.406-3.169,4.426-7.424,3.6-12.001C53.217,82.305,52.924,81.397,52.134,80.987z"/>
	<path fill-rule="evenodd" clip-rule="evenodd" fill="#437356" d="M82.377,51.705c0.552,0.568,0.086,2.154,0.24,3.12
		C82.064,54.257,82.531,52.67,82.377,51.705z"/>
	<path fill-rule="evenodd" clip-rule="evenodd" fill="#CECEC6" d="M39.413,45.704c0.741-0.14,0.893-0.868,1.2-1.44
		c0.695,1.342,0.033,3.389-0.72,4.081c-2.914-0.046-4.581-1.34-4.08-4.801c0.678,0.199,0.622-0.338,1.2-0.24
		C36.662,45.1,37.981,46.489,39.413,45.704z"/>
</g>
</svg>
