<?xml version="1.0" encoding="utf-8"?>
<!-- Generator: Adobe Illustrator 15.1.0, SVG Export Plug-In . SVG Version: 6.00 Build 0)  -->
<!DOCTYPE svg PUBLIC "-//W3C//DTD SVG 1.1//EN" "http://www.w3.org/Graphics/SVG/1.1/DTD/svg11.dtd">
<svg version="1.1" id="Ebene_1" xmlns="http://www.w3.org/2000/svg" xmlns:xlink="http://www.w3.org/1999/xlink" x="0px" y="0px"
	 width="113.39px" height="113.39px" viewBox="0 0 113.39 113.39" enable-background="new 0 0 113.39 113.39" xml:space="preserve">
<g>
	<path fill-rule="evenodd" clip-rule="evenodd" fill="#2F2F27" d="M52.614,12.341c5.546,1.93,10.987,3.092,16.321,2.88
		C64.788,16.562,55.798,15.581,52.614,12.341z"/>
	<path fill-rule="evenodd" clip-rule="evenodd" fill="#C9A763" d="M87.657,37.063c0,0.32,0,0.64,0,0.96
		c-0.874-0.074-1.562,0.038-2.16,0.24c0.606,1.043,1.899,0.458,2.881,0.72c-0.63,0.527,0.744,0.797,0,1.44
		c-1.066-0.134-1.769-0.632-2.641-0.96c-0.123,1.403,1.155,1.404,2.16,1.68c0.162,1.202-0.641,1.439-1.2,1.92
		c-1.237,0.037-1.516-1.893-2.64-1.2c0.5,0.78,1.44,1.12,1.68,2.16c-1.073,0.194-1.333-0.427-1.44-1.2
		c-0.754-0.399-0.98,0.893-1.2,0.24c0.59-1.73,1.882-2.759,1.681-5.28C85.614,37.419,86.172,36.778,87.657,37.063z"/>
	<path fill-rule="evenodd" clip-rule="evenodd" fill="#C9A763" d="M83.577,38.023c0.106,0.773,0.46,1.3,0.48,2.16
		c-0.956-0.78-0.486,1.469-1.681,1.2c-0.258-1.182-1.486-1.394-1.2-3.12C82.137,38.343,82.509,37.835,83.577,38.023z"/>
	<path fill-rule="evenodd" clip-rule="evenodd" fill="#C9A763" d="M38.933,50.504c-0.198-0.679,0.338-0.622,0.24-1.2
		c0.801,0.256,0.015,0.728,0.48,1.44C39.308,50.213,39.067,51.046,38.933,50.504z"/>
	<path fill-rule="evenodd" clip-rule="evenodd" fill="#C9A763" d="M42.534,69.466c0.643-0.146,2.231,0.363,2.88-0.48
		c0.579-0.098,0.522,0.438,1.2,0.24c-1.201,1.13-2.736,0.453-4.8,0.721C41.912,69.645,42.123,69.455,42.534,69.466z"/>
	<path fill-rule="evenodd" clip-rule="evenodd" fill="#4B5A7E" d="M48.774,85.308c0.399,0.887,0.399,3.433,0,4.32
		C48.774,88.188,48.774,86.747,48.774,85.308z"/>
	<path fill-rule="evenodd" clip-rule="evenodd" fill="#4B5A7E" d="M85.497,113.39c-5.761,0-11.521,0-17.281,0
		c0.73-4.471,2.965-7.436,5.521-10.081c-1.183-0.584-2.509,0.921-3.12,1.681c-1.86,2.309-2.999,5.087-3.601,8.4
		c-14.001,0-28.002,0-42.003,0c0.667-3.846,1.366-6.271,3.12-9.121c3.159-2.829,8.275-4.199,11.761-6
		c7.928,7.456,20.094,5.242,27.603-2.16C74.786,100.579,83.144,103.982,85.497,113.39z M33.893,111.47
		c0.367-3.442,0.948-5.196,2.4-7.44C33.682,104.479,32.082,109.139,33.893,111.47z"/>
	<path fill-rule="evenodd" clip-rule="evenodd" fill="#2F2F27" d="M68.216,113.39c-0.4,0-0.8,0-1.2,0
		c0.602-3.313,1.74-6.092,3.601-8.4c0.611-0.76,1.938-2.265,3.12-1.681C71.181,105.954,68.946,108.919,68.216,113.39z"/>
	<path fill-rule="evenodd" clip-rule="evenodd" fill="#2F2F27" d="M36.293,104.029c-1.452,2.244-2.034,3.998-2.4,7.44
		C32.082,109.139,33.682,104.479,36.293,104.029z"/>
	<path fill-rule="evenodd" clip-rule="evenodd" fill="#4B5A7E" d="M73.977,50.504c-0.684,1.129-0.231,1.68,0.479,2.4
		c-0.558-0.163-0.643-0.797-1.2-0.96C73.668,51.637,73.261,50.509,73.977,50.504z"/>
	<path fill-rule="evenodd" clip-rule="evenodd" fill="#4B5A7E" d="M78.057,31.063c0.507,1.488,0.21,2.784,0.48,3.6
		C77.915,34.219,78.103,32.13,78.057,31.063z"/>
	<path fill-rule="evenodd" clip-rule="evenodd" fill="#4B5A7E" d="M78.537,24.822c0.679,0.841,0.438,2.603,0.479,4.081
		C78.52,27.88,78.922,25.957,78.537,24.822z"/>
	<path fill-rule="evenodd" clip-rule="evenodd" fill="#4B5A7E" d="M77.097,18.102c0.556,0.804,0.695,2.025,0.96,3.12
		C77.534,20.538,77.093,18.514,77.097,18.102z"/>
	<path fill-rule="evenodd" clip-rule="evenodd" fill="#4B5A7E" d="M43.253,23.382c0.58-0.62,0.407-1.994,1.2-2.4
		C43.977,21.705,44.092,23.02,43.253,23.382z"/>
	<path fill-rule="evenodd" clip-rule="evenodd" fill="#CCCCC7" d="M38.933,69.466c0.24,0,0.48,0,0.72,0
		c-0.132,0.859-0.537,2.349,0,3.12C38.567,72.392,39.588,70.092,38.933,69.466z"/>
	<path fill-rule="evenodd" clip-rule="evenodd" fill="#4B5A7E" d="M53.814,65.146c1.386-0.665,0.035-1.313,1.2-1.92
		c-0.106,0.213-0.211,0.429-0.48,0.479c0.006,0.233,0.293,0.187,0.48,0.24C55.032,64.763,54.309,64.84,53.814,65.146z"/>
	<path fill-rule="evenodd" clip-rule="evenodd" fill="#C9A763" d="M55.015,63.226c0.562-0.062,0.138-1.055,0-1.2
		c-2.555,0.847-4.018,1.068-6.721,0.479c-0.953-0.877-0.397-3.056-2.4-3.36c-0.3,0.631,1.138,1.575,0.72,3.121
		c-0.803,1.68-2.257,0.836-3.84,1.199c-3.313,0.761-6.698,4.55-10.321,2.4c0.862-6.578,5.08-9.801,10.561-11.761
		c2.943-3.241,1.769-8.268-3.601-6c0.233-2.511,3.574-1.88,4.561-1.92c0.668,0.108-0.188-1.308,0.48-1.2
		c-0.979-1.239-2.396-1.374-3.84-0.72c-0.747-0.577-0.375-2.332-0.48-4.081c1.594-1.063,3.662-2.193,5.521-2.16
		c-0.238,0.723-0.849,1.071-0.72,2.16c2.623-0.904,4.958-2.918,8.401-2.64c2.244,0.181,4.199,1.482,6.241,1.2
		c1.792,2.053,1.318,6.297,0.72,8.401c0.828,0.708,1.122-0.655,1.92-0.72c-0.014,1.001-0.558,1.503-0.479,3.12
		c1.119,0.159,1.063-0.857,1.92-0.96c0.112,2.672-0.946,4.174-1.2,6.48c2.957,1.121,4.746-3.109,8.641-2.64
		c1.816,0.219,3.393,1.638,3.601,4.081c0.435,5.104-5.665,12.358-11.761,7.921c-0.286,0.87,0.317,1.141,0.96,1.92
		c-1.401,0.686-0.106,1.871-1.44,2.4c0.743,3.941-2.059,7.892-2.88,12.001c-0.484,2.42-0.232,5.087-0.48,7.681
		c-2.516,1.87-5.656,3.405-10.321,2.64c0.269-0.756,0.022-0.543,0-1.439c0.399-0.888,0.399-3.434,0-4.32
		c0.127-0.193,0.25-0.39,0.24-0.721c3.941-1.259,5.651-4.749,7.92-7.681c-2.419,0.442-4.788,6.254-8.4,6.961
		c-6.193,1.212-6.163-5.114-5.281-10.081c0.613-0.106,1.104-0.337,1.44-0.72c-1.581-0.579-4.248-0.072-4.32-2.16
		c5.765,0.955,13.298-1.413,15.841-6.48c-1.747,1.213-3.064,2.856-5.281,3.6c-0.152-1.433,1.565-0.995,2.4-1.439
		c0.038-1.02-0.465-1.209,0.48-1.44c0.494-0.306,1.217-0.383,1.2-1.2c-0.187-0.054-0.474-0.007-0.48-0.24
		C54.804,63.654,54.908,63.438,55.015,63.226z M45.174,44.504c0,0.64,0,1.28,0,1.92c4.07,0.064,7.238,1.874,10.561,2.64
		C53.78,45.876,49.623,43.096,45.174,44.504z M53.094,57.225c2.445-1.328,2.624-4.411,1.92-6.72
		c-3.547-1.266-5.969-2.91-9.601-2.641C45.181,52.857,47.302,57.467,53.094,57.225z M65.336,58.425
		c1.461-0.378,1.719-1.961,3.36-2.16c0.526,1.359,0.224,2.22,0.239,3.841c1.711-0.293,1.515-3.356,0.96-4.561
		c0.572-0.468,2.227,0.146,2.4-0.72C69.235,53.521,66.058,55.832,65.336,58.425z M44.934,73.307c0.628,0.067,1.033-0.088,0.96-0.721
		C45.266,72.519,44.861,72.674,44.934,73.307z"/>
	<path fill-rule="evenodd" clip-rule="evenodd" fill="#2F2F27" d="M45.414,47.864c3.632-0.27,6.054,1.375,9.601,2.641
		c0.703,2.31,0.525,5.392-1.92,6.72C47.302,57.467,45.181,52.857,45.414,47.864z M46.374,49.784c-0.104,1.053,0.735,0.788,0.24,1.68
		c1.053,2.879,2.708,5.283,6.241,5.041c1.716-0.953,1.608-3.888,1.2-5.521c-0.325-0.076-0.458-0.342-0.96-0.24
		c-0.207-0.673-1.25-0.51-1.68-0.96c-0.245,0.315-0.235,0.885-0.48,1.2c-0.202,1.601-2.825,1.363-3.6,0.48
		c-0.191-0.449-0.401-0.879-0.48-1.44c-0.043-0.782,0.564-1.155-0.48-1.2C46.374,49.144,46.374,49.464,46.374,49.784z"/>
	<path fill-rule="evenodd" clip-rule="evenodd" fill="#4B5A7E" d="M50.934,50.984c0.245-0.315,0.235-0.885,0.48-1.2
		c0.43,0.45,1.473,0.287,1.68,0.96c-0.387-0.333-1.237-0.203-1.44-0.72c-0.444,0.036-0.147,0.813-0.48,0.96
		C51.094,50.984,51.014,50.984,50.934,50.984z"/>
	<path fill-rule="evenodd" clip-rule="evenodd" fill="#CCCCC7" d="M46.374,49.784c0-0.32,0-0.64,0-0.96
		c1.044,0.045,0.437,0.417,0.48,1.2C46.613,50.025,46.568,49.83,46.374,49.784z"/>
	<path fill-rule="evenodd" clip-rule="evenodd" fill="#4B5A7E" d="M41.333,53.864c0.53-0.83,1.628-1.091,1.92-2.16
		C43.233,53.044,42.055,53.226,41.333,53.864z"/>
	<path fill-rule="evenodd" clip-rule="evenodd" fill="#C9A763" d="M46.614,51.464c0.496-0.892-0.344-0.627-0.24-1.68
		c0.194,0.045,0.239,0.241,0.48,0.24c0.079,0.561,0.289,0.992,0.48,1.44C47.094,51.464,46.854,51.464,46.614,51.464z"/>
	<path fill-rule="evenodd" clip-rule="evenodd" fill="#4B5A7E" d="M41.813,69.946c-0.204-0.045-0.227,0.093-0.24,0.239
		c-0.224-0.256-0.885-0.074-0.72-0.72c0.791,0.709,1.199-0.601,1.68,0C42.123,69.455,41.912,69.645,41.813,69.946z"/>
	<path fill-rule="evenodd" clip-rule="evenodd" fill="#C9A763" d="M47.334,68.506c0.204-0.044,0.227,0.094,0.24,0.24
		c1.042,0.051,1.529-1.356,2.64-0.48c-0.834,0.606-1.951,0.93-3.121,1.2C47.063,69.035,47.388,68.96,47.334,68.506z"/>
	<path fill-rule="evenodd" clip-rule="evenodd" fill="#C9A763" d="M62.215,91.548c1.741-0.059,3.46,1.979,4.801,3.12
		c-3.58,3.852-10.162,7.898-17.281,6.961c-3.608-0.476-7.064-1.99-9.361-4.561c1.303-1.844,2.665-2.25,4.8-3.36
		c-0.588,1.649-0.856,3.851,0.48,4.561c1.378,0.018,1.524-1.196,2.64-1.44c0.356,1.084,0.717,2.164,1.68,2.641
		c1.351-0.33,2.138-1.223,2.64-2.4c1.122,0.559,1.621,1.739,2.88,2.16c1.6-0.198,1.666-1.964,1.44-3.36
		c0.764,0.437,0.958,1.443,1.92,1.68c1.133-0.228,1.905-0.815,1.681-2.399C63.091,96.438,62.937,92.159,62.215,91.548z"/>
	<path fill-rule="evenodd" clip-rule="evenodd" fill="#2F2F27" d="M55.735,49.064c-3.323-0.767-6.491-2.576-10.561-2.64
		c0-0.64,0-1.28,0-1.92C49.623,43.096,53.78,45.876,55.735,49.064z"/>
	<path fill-rule="evenodd" clip-rule="evenodd" fill="#2F2F27" d="M45.894,72.586c0.072,0.633-0.333,0.788-0.96,0.721
		C44.861,72.674,45.266,72.519,45.894,72.586z"/>
	<path fill-rule="evenodd" clip-rule="evenodd" fill="#CCCCC7" d="M39.653,50.744c0.49,0.39,0.981,0.779,1.68,0.96
		c1.233-0.207,1.338-1.542,2.4-1.92c-0.251,0.549-0.152,1.448-0.48,1.92c-0.292,1.069-1.39,1.33-1.92,2.16
		c-0.818,0.142-1.261,0.659-2.16,0.72c-0.5-0.541-0.734-2.793-0.24-4.08C39.067,51.046,39.308,50.213,39.653,50.744z"/>
	<path fill-rule="evenodd" clip-rule="evenodd" fill="#CCCCC7" d="M50.934,50.984c0.08,0,0.16,0,0.24,0
		c0.333-0.147,0.036-0.924,0.48-0.96c0.203,0.518,1.053,0.388,1.44,0.72c0.502-0.102,0.636,0.165,0.96,0.24
		c0.408,1.632,0.516,4.567-1.2,5.521c-3.532,0.243-5.188-2.162-6.241-5.041c0.24,0,0.48,0,0.72,0
		C48.109,52.348,50.732,52.585,50.934,50.984z"/>
	<path fill-rule="evenodd" clip-rule="evenodd" fill="#2F2F27" d="M44.454,20.981c0.598-2.132,1.5-3.891,2.4-5.76
		c0.781-1.622,1.436-4.303,3.12-5.521c3.429-2.477,9.613-0.336,14.162,0.24c2.043,0.259,4.962,0.17,6.48,0.72
		c3.344,1.212,5.536,4.986,6.48,7.441c-0.004,0.412,0.438,2.436,0.96,3.12c-0.026,1.299,1.047,2.533,0.48,3.6
		c0.385,1.135-0.018,3.058,0.479,4.081c0.2,2.843-0.195,5.712,1.2,8.641c2.998,0.353,4.773-2.126,7.2-1.68
		c1.423,0.262,2.204,2.625,2.16,4.561c-0.066,2.973-3.372,5.366-6.24,4.8c-1.63-3.246-4.121-5.814-4.8-10.561
		c-0.271-0.816,0.026-2.112-0.48-3.6c-0.339-8.36-0.658-15.312-7.44-18.961c2.21,2.688,1.748,8.264,1.68,13.441
		c-0.051,3.911-0.469,7.675-0.72,11.041c4.888,2.4,4.714,9.052,2.4,13.921c-0.716,0.005-0.309,1.132-0.721,1.44
		c0.558,0.163,0.643,0.797,1.2,0.96c4.425,7.011-2.695,13.557-8.16,14.882c-3.272,3.748-5.819,12.6-6.241,18.241
		c3.882,0.416,3.636,3.393,5.281,5.761c0.667,0.96,2.193,1.645,3.12,2.64c0.575,0.618,0.687,1.441,1.2,1.921
		c1.572,1.469,3.707,1.589,5.521,2.64c0.7,0.406,1.409,1.402,2.16,1.92c4.509,3.108,7.524,6.709,9.36,12.241c0,0.08,0,0.16,0,0.24
		c-0.4,0-0.8,0-1.2,0c-2.354-9.407-10.711-12.811-18.001-17.281c-7.509,7.402-19.674,9.616-27.603,2.16
		c-3.486,1.801-8.603,3.171-11.761,6c-1.754,2.85-2.453,5.275-3.12,9.121c-0.48,0-0.96,0-1.44,0
		c1.061-4.338,2.031-8.522,5.761-11.281c2.697-1.994,6.022-2.817,9.361-4.32c-0.076-1.636,1.768-2.119,2.64-3.12
		c1.326-1.521,2.028-3.577,3.36-5.04c1.182-1.299,3.656-1.863,3.12-3.841c-1.178-1.206-3.02-0.636-4.32-1.68
		c-2.582-2.074-1.818-5.757-1.44-9.841c-0.509-0.853-1.765-0.956-2.4-1.681c-0.537-0.771-0.132-2.261,0-3.12c-0.24,0-0.48,0-0.72,0
		c-1.429-0.634,0.044-2.595-0.96-2.88c-2.153,1.043-5.736,2.167-6.721-0.48c-1.346-3.619,4.643-9.96,6.961-11.041
		c-1.095-2.336-0.784-4.94,0.48-6.24c-0.133-0.747-1.319-0.441-1.2-1.44c1.428-1.665,1.747-3.016,1.44-6.24
		c-0.848-0.674-1.884,1.782-2.88,0.96c-0.047-1.695,0.525-2.847,1.44-5.28c-1.965,0.357-3.422,2.496-5.041,2.4
		c1.512-4.089,4.861-6.34,8.401-8.401c0.334-1.832,1.56-4.779,2.4-7.44C44.092,23.02,43.977,21.705,44.454,20.981z M50.694,10.181
		c-3.593,6.088-6.428,12.934-8.641,20.402c6.624,4.922,17.661,9.27,28.322,6.48c0.282-7.702,1.665-16.602,0.72-22.322
		c-0.375-2.274-4.944-3.861-8.16-3.36c-0.835,0.399,0.149,1.374-1.2,1.44c-0.763-0.278-1.953-0.127-1.92-1.2
		c0.378-0.821,2.316-0.083,2.16-1.44C58.694,9.993,54.028,9.059,50.694,10.181z M84.777,37.783c0.201,2.521-1.091,3.55-1.681,5.28
		c0.22,0.653,0.446-0.639,1.2-0.24c0.107,0.773,0.367,1.394,1.44,1.2c-0.239-1.041-1.18-1.38-1.68-2.16
		c1.124-0.693,1.402,1.237,2.64,1.2c0.56-0.481,1.362-0.718,1.2-1.92c-1.005-0.276-2.283-0.277-2.16-1.68
		c0.872,0.328,1.574,0.826,2.641,0.96c0.744-0.643-0.63-0.913,0-1.44c-0.981-0.262-2.274,0.323-2.881-0.72
		c0.599-0.202,1.286-0.314,2.16-0.24c0-0.32,0-0.64,0-0.96C86.172,36.778,85.614,37.419,84.777,37.783z M81.177,38.263
		c-0.286,1.727,0.942,1.938,1.2,3.12c1.194,0.269,0.725-1.98,1.681-1.2c-0.021-0.86-0.374-1.387-0.48-2.16
		C82.509,37.835,82.137,38.343,81.177,38.263z M48.774,89.628c0.022,0.896,0.269,0.684,0,1.439c4.665,0.766,7.805-0.77,10.321-2.64
		c0.248-2.594-0.004-5.261,0.48-7.681c0.821-4.109,3.623-8.06,2.88-12.001c1.334-0.529,0.039-1.715,1.44-2.4
		c-0.643-0.779-1.246-1.05-0.96-1.92c6.096,4.438,12.195-2.816,11.761-7.921c-0.208-2.443-1.784-3.862-3.601-4.081
		c-3.895-0.469-5.684,3.761-8.641,2.64c0.254-2.306,1.313-3.808,1.2-6.48c-0.857,0.103-0.801,1.119-1.92,0.96
		c-0.078-1.617,0.466-2.119,0.479-3.12c-0.798,0.065-1.092,1.428-1.92,0.72c0.599-2.104,1.072-6.348-0.72-8.401
		c-2.042,0.282-3.997-1.019-6.241-1.2c-3.443-0.278-5.778,1.736-8.401,2.64c-0.129-1.089,0.482-1.438,0.72-2.16
		c-1.858-0.033-3.926,1.097-5.521,2.16c0.104,1.749-0.267,3.504,0.48,4.081c1.444-0.653,2.861-0.519,3.84,0.72
		c-0.668-0.108,0.188,1.308-0.48,1.2c-0.986,0.04-4.328-0.591-4.561,1.92c5.37-2.267,6.543,2.759,3.601,6
		c-5.481,1.959-9.699,5.183-10.561,11.761c3.623,2.149,7.008-1.64,10.321-2.4c1.583-0.363,3.038,0.48,3.84-1.199
		c0.418-1.546-1.02-2.49-0.72-3.121c2.003,0.305,1.447,2.483,2.4,3.36c2.703,0.589,4.166,0.367,6.721-0.479
		c0.138,0.146,0.562,1.139,0,1.2c-1.165,0.607,0.186,1.255-1.2,1.92c-0.945,0.231-0.442,0.421-0.48,1.44
		c-0.835,0.444-2.553,0.007-2.4,1.439c2.217-0.743,3.534-2.387,5.281-3.6c-2.543,5.067-10.076,7.436-15.841,6.48
		c0.072,2.088,2.739,1.581,4.32,2.16c-0.337,0.383-0.827,0.613-1.44,0.72c-0.882,4.967-0.912,11.293,5.281,10.081
		c3.612-0.707,5.981-6.519,8.4-6.961c-2.269,2.932-3.979,6.422-7.92,7.681c0.01,0.331-0.113,0.527-0.24,0.721
		C48.774,86.747,48.774,88.188,48.774,89.628z M43.253,51.704c0.328-0.472,0.229-1.371,0.48-1.92c-1.062,0.378-1.167,1.713-2.4,1.92
		c-0.699-0.181-1.19-0.57-1.68-0.96c-0.465-0.712,0.321-1.184-0.48-1.44c0.098,0.578-0.438,0.521-0.24,1.2
		c-0.494,1.287-0.259,3.539,0.24,4.08c0.899-0.061,1.342-0.579,2.16-0.72C42.055,53.226,43.233,53.044,43.253,51.704z
		 M47.094,69.466c1.169-0.271,2.287-0.594,3.121-1.2c-1.111-0.876-1.598,0.531-2.64,0.48c-0.014-0.146-0.036-0.284-0.24-0.24
		C47.388,68.96,47.063,69.035,47.094,69.466z M41.813,69.946c2.064-0.268,3.599,0.409,4.8-0.721c-0.678,0.198-0.622-0.338-1.2-0.24
		c-0.649,0.844-2.237,0.334-2.88,0.48c-0.481-0.601-0.889,0.709-1.68,0c-0.166,0.646,0.496,0.464,0.72,0.72
		C41.587,70.039,41.609,69.901,41.813,69.946z M60.295,87.468c0.302,0.098,0.49,0.31,0.48,0.72
		c-1.411,3.081-12.292,6.894-13.921,2.16c0.663-0.138,0.749-0.852,0.96-1.44c-1.326,0.146-3.497,2.72-3.6,4.081
		c0.228-0.606,2.463-0.822,2.64,0c-0.575,0.605-1.59,3.127-0.48,3.84c1.409-0.512,1.173-2.667,3.12-2.641
		c0.151,1.984-0.369,3.198,0.96,3.841c1.64-0.521,0.948-3.373,2.64-3.841c1.067,0.981,0.365,3.381,2.641,3.601
		c0.695-1.728-0.489-2.908,0-4.08c0.241,0.001,0.286-0.194,0.48-0.24c1.561,0.359,1.535,2.306,3.12,2.641
		c1.263-1.485-1.405-2.976,0-3.841c0.779,0.581,1.62,1.101,2.16,1.92c0.381-1.43-0.214-2.15-0.479-3.84
		c0.457-0.103,0.434-0.686,1.199-0.48c0.852-0.05,0.475,1.126,1.44,0.961C62.832,89.568,61.887,87.159,60.295,87.468z
		 M60.535,95.148c0.225,1.584-0.548,2.172-1.681,2.399c-0.962-0.236-1.156-1.243-1.92-1.68c0.226,1.396,0.16,3.162-1.44,3.36
		c-1.259-0.421-1.759-1.602-2.88-2.16c-0.502,1.178-1.29,2.07-2.64,2.4c-0.963-0.477-1.324-1.557-1.68-2.641
		c-1.116,0.244-1.262,1.458-2.64,1.44c-1.336-0.71-1.068-2.911-0.48-4.561c-2.136,1.11-3.498,1.517-4.8,3.36
		c2.297,2.57,5.753,4.085,9.361,4.561c7.119,0.938,13.701-3.109,17.281-6.961c-1.341-1.142-3.06-3.179-4.801-3.12
		C62.937,92.159,63.091,96.438,60.535,95.148z"/>
	<path fill-rule="evenodd" clip-rule="evenodd" fill="#2F2F27" d="M72.296,54.825c-0.174,0.866-1.828,0.251-2.4,0.72
		c0.555,1.205,0.751,4.268-0.96,4.561c-0.016-1.621,0.287-2.482-0.239-3.841c-1.642,0.199-1.899,1.782-3.36,2.16
		C66.058,55.832,69.235,53.521,72.296,54.825z"/>
	<path fill-rule="evenodd" clip-rule="evenodd" fill="#A24434" d="M61.976,10.181c0.156,1.356-1.782,0.619-2.16,1.44
		c-0.033,1.073,1.157,0.922,1.92,1.2c1.35-0.066,0.365-1.041,1.2-1.44c3.216-0.5,7.785,1.086,8.16,3.36
		c0.945,5.72-0.438,14.62-0.72,22.322c-10.661,2.789-21.698-1.559-28.322-6.48c2.213-7.468,5.047-14.314,8.641-20.402
		C54.028,9.059,58.694,9.993,61.976,10.181z M68.936,15.221c-5.334,0.211-10.775-0.95-16.321-2.88
		C55.798,15.581,64.788,16.562,68.936,15.221z"/>
	<path fill-rule="evenodd" clip-rule="evenodd" fill="#C9A763" d="M63.655,90.828c-0.966,0.165-0.589-1.011-1.44-0.961
		c-0.766-0.205-0.742,0.378-1.199,0.48c0.266,1.689,0.86,2.41,0.479,3.84c-0.54-0.819-1.381-1.339-2.16-1.92
		c-1.405,0.865,1.263,2.355,0,3.841c-1.585-0.335-1.56-2.281-3.12-2.641c-0.194,0.046-0.239,0.241-0.48,0.24
		c-0.489,1.172,0.695,2.353,0,4.08c-2.276-0.22-1.574-2.619-2.641-3.601c-1.692,0.468-1,3.32-2.64,3.841
		c-1.329-0.643-0.809-1.856-0.96-3.841c-1.947-0.026-1.711,2.129-3.12,2.641c-1.11-0.713-0.095-3.234,0.48-3.84
		c-0.177-0.822-2.412-0.606-2.64,0c0.104-1.361,2.274-3.935,3.6-4.081c-0.211,0.589-0.297,1.303-0.96,1.44
		c1.629,4.733,12.51,0.921,13.921-2.16c0.01-0.41-0.179-0.622-0.48-0.72C61.887,87.159,62.832,89.568,63.655,90.828z"/>
</g>
</svg>
