<?xml version="1.0" encoding="utf-8"?>
<!-- Generator: Adobe Illustrator 15.1.0, SVG Export Plug-In . SVG Version: 6.00 Build 0)  -->
<!DOCTYPE svg PUBLIC "-//W3C//DTD SVG 1.1//EN" "http://www.w3.org/Graphics/SVG/1.1/DTD/svg11.dtd">
<svg version="1.1" id="Ebene_1" xmlns="http://www.w3.org/2000/svg" xmlns:xlink="http://www.w3.org/1999/xlink" x="0px" y="0px"
	 width="113.39px" height="113.39px" viewBox="0 0 113.39 113.39" enable-background="new 0 0 113.39 113.39" xml:space="preserve">
<path fill-rule="evenodd" clip-rule="evenodd" fill="#C5A43B" d="M60.295,29.629c0.399,1.046,0.399,3.754,0,4.8
	C60.295,32.83,60.295,31.229,60.295,29.629z"/>
<path fill-rule="evenodd" clip-rule="evenodd" fill="#C5A43B" d="M70.375,43.79c0.729-0.399,3.111-0.399,3.84,0
	C72.935,43.79,71.655,43.79,70.375,43.79z"/>
<path fill-rule="evenodd" clip-rule="evenodd" fill="#893E4F" d="M73.975,44.989c-0.321,1.759-2.557,1.604-2.88,3.36
	c0.125,1.155,2.206,0.354,2.641,1.2c-0.456,1.785-2.371,2.109-3.12,3.6c-0.237,0.958,0.717,0.723,0.479,1.68
	c-3.577,5.938-17.44,13.02-23.52,3.84c-1.922,0.281-2.621,3.529-4.56,4.56c-6.536-2.184-13.072-4.368-16.32-9.84
	c0.48,0,0.96,0,1.44,0c-0.584-2.216-2.81-2.791-3.36-5.04c0.694-0.713,2.151,0.268,2.64-0.24c-0.661-1.659-2.507-2.132-2.88-4.08
	c5.771-0.739,10.776,1.545,14.88,3.84c2.538,1.419,5.935,4.714,7.92,4.8c2.534,0.11,6.652-3.261,9.36-4.32
	C62.264,46.172,67.52,44.671,73.975,44.989z M30.055,47.629c-1.337,5.945,6.253,14.062,11.52,13.68
	c2.188-0.158,4.374-1.999,4.32-4.32c-0.097-4.207-8.285-8.818-12.48-9.84c-0.766-0.187-1.916-0.314-2.88-0.24
	C30.233,47.008,30.044,47.219,30.055,47.629z M48.775,56.27c-1.069,4.058,5.584,6.93,9.84,5.76c4.992-1.372,9.948-7.513,8.16-13.92
	C61.421,48.873,49.778,52.46,48.775,56.27z"/>
<path fill-rule="evenodd" clip-rule="evenodd" fill="#2F2A25" d="M90.535,55.069c0.397,0.336,0.397,2.304,0,2.64
	C90.535,56.83,90.535,55.95,90.535,55.069z"/>
<path fill-rule="evenodd" clip-rule="evenodd" fill="#893E4F" d="M27.175,61.55c-0.397-0.336-0.397-2.304,0-2.641
	C27.175,59.789,27.175,60.67,27.175,61.55z"/>
<path fill-rule="evenodd" clip-rule="evenodd" fill="#869A8A" d="M67.735,69.47c-0.077-0.557,0.038-0.922,0.239-1.2
	c0.24,0,0.48,0,0.721,0C68.795,69.09,68.622,69.637,67.735,69.47z"/>
<path fill-rule="evenodd" clip-rule="evenodd" fill="#893E4F" d="M52.375,82.43c-2.302,0.48-7.847,1.497-7.92-1.68
	c1.802-1.095,3.609,0.3,5.28-0.24c3.18-1.027,1.679-5.137,0.24-7.44c-1.576-0.416-3.096-0.894-4.32-0.479
	C50.546,66.724,54.555,78.24,52.375,82.43z"/>
<path fill-rule="evenodd" clip-rule="evenodd" fill="#893E4F" d="M43.015,70.909c1.009,0.271,1.424,1.137,2.4,1.44
	c-0.427,0.613-1.31,0.771-2.16,0.96C42.774,72.69,42.238,71.449,43.015,70.909z"/>
<path fill-rule="evenodd" clip-rule="evenodd" fill="#869A8A" d="M68.695,70.909c0.082,0.781,1.148,1.371,0.72,1.92
	c-0.24,0-0.48,0-0.72,0c0.067-0.627-0.088-1.032-0.721-0.96C67.765,71.1,68.598,71.372,68.695,70.909z"/>
<path fill-rule="evenodd" clip-rule="evenodd" fill="#C2BDB5" d="M45.415,73.79c0.259-0.397,2.141-0.397,2.4,0
	C47.015,73.79,46.215,73.789,45.415,73.79z"/>
<path fill-rule="evenodd" clip-rule="evenodd" fill="#C4A369" d="M53.815,77.39c0.551,0.489,0.087,1.993,0.24,2.88
	C53.504,79.78,53.968,78.276,53.815,77.39z"/>
<path fill-rule="evenodd" clip-rule="evenodd" fill="#C4A369" d="M61.495,92.029c-0.397-0.259-0.397-2.141,0-2.399
	C61.495,90.43,61.495,91.229,61.495,92.029z"/>
<path fill-rule="evenodd" clip-rule="evenodd" fill="#869A8A" d="M62.935,96.35c0.557-0.076,0.922,0.038,1.2,0.24
	c0.19,0.83-0.267,1.013-0.479,1.439C63.037,97.848,62.821,97.264,62.935,96.35z"/>
<path fill-rule="evenodd" clip-rule="evenodd" fill="#869A8A" d="M52.375,97.55c0.581,0.142,1.062,0.143,1.44,0.96
	c0.014,1.113-1.696,1.182-2.16,0.479C51.95,98.564,51.83,97.725,52.375,97.55z"/>
<path fill-rule="evenodd" clip-rule="evenodd" fill="#869A8A" d="M66.295,99.229c0.116,0.916-0.068,1.532-0.48,1.92
	c-0.561-0.079-0.991-0.288-1.439-0.479C63.621,99.155,65.018,97.848,66.295,99.229z"/>
<path fill-rule="evenodd" clip-rule="evenodd" fill="#893E4F" d="M91.015,113.39c-20.239,0-40.48,0-60.72,0
	c0.888-8.872,10.768-8.752,17.76-11.521c-0.047,1.394-1.254,1.626-1.68,2.641c0.946,1.7-0.961,2.313-0.72,3.84
	c0.365,2.317,3.399,2.352,4.56,0.24c0.337-1.278-0.011-2.037,0.72-3.12c2.619,2.336,8.051,1.895,10.56-0.24
	c0.392,2.045-2.958,2.759-3.12,4.561c-0.312,3.452,5.236,3.354,4.8-0.24c1.027-0.173,1.661-0.738,2.16-1.44
	c-0.267-1.866,0.771-2.396,1.68-3.6c-0.465-2.305,0.735-2.945,0.721-4.8c6.156,3.183,13.226,1.067,17.52,4.56
	c2.695,2.192,3.79,6.173,5.76,8.88C91.015,113.229,91.015,113.31,91.015,113.39z"/>
<path fill-rule="evenodd" clip-rule="evenodd" fill="#869A8A" d="M51.655,101.149c0.187,1.387-1.266,2.144-2.4,1.44
	C48.616,100.64,50.802,100.163,51.655,101.149z"/>
<path fill-rule="evenodd" clip-rule="evenodd" fill="#869A8A" d="M65.814,102.83c0.043,1.482-0.511,2.369-2.159,2.159
	c-0.665-0.644-0.854-1.538-0.48-2.64C64.33,102.189,65.021,102.174,65.814,102.83z"/>
<path fill-rule="evenodd" clip-rule="evenodd" fill="#869A8A" d="M49.975,104.029c0.124,1.577-1.013,2.018-2.16,1.681
	C47.135,104.569,48.647,103.119,49.975,104.029z"/>
<path fill-rule="evenodd" clip-rule="evenodd" fill="#869A8A" d="M64.135,106.43c0.105,0.825-0.095,1.345-0.24,1.92
	c-0.64,0-1.279,0-1.92,0C61.221,106.648,62.495,105.946,64.135,106.43z"/>
<path fill-rule="evenodd" clip-rule="evenodd" fill="#869A8A" d="M49.255,107.149c0.185,1.145-0.339,1.581-0.96,1.92
	c-0.897,0.018-1.375-0.386-1.68-0.96C46.573,106.938,48.312,106.57,49.255,107.149z"/>
<path fill-rule="evenodd" clip-rule="evenodd" fill="#869A8A" d="M62.215,109.79c-0.043,1.346-1.709,1.848-2.64,0.96
	C58.886,108.37,61.766,108.461,62.215,109.79z"/>
<path fill-rule="evenodd" clip-rule="evenodd" fill="#C2BDB5" d="M69.175,21.949c0.03,0.99-0.417,1.503-0.24,2.64
	c-1.078,0.039-0.649-1.43-0.96-2.16C68.653,23.215,68.792,22.6,69.175,21.949z"/>
<path fill-rule="evenodd" clip-rule="evenodd" fill="#893E4F" d="M23.095,39.229c0.768,0.592,1.033,1.687,1.68,2.4
	C23.92,41.124,23.58,40.104,23.095,39.229z"/>
<path fill-rule="evenodd" clip-rule="evenodd" fill="#893E4F" d="M25.975,28.43c1.035,1.765,2.387,3.213,4.08,4.32
	C28.156,31.849,26.776,30.428,25.975,28.43z"/>
<path fill-rule="evenodd" clip-rule="evenodd" fill="#2F2A25" d="M63.655,38.75c0,0.4,0,0.8,0,1.2
	c0.499-0.141,0.775-0.504,1.199-0.72c-0.256,0.544-0.728,0.872-1.439,0.96C63.553,39.768,63.125,38.779,63.655,38.75z"/>
<path fill-rule="evenodd" clip-rule="evenodd" fill="#C5A43B" d="M76.375,62.029c0.008,1.049,0.089,2.169-0.48,2.641
	C76.211,63.945,75.919,62.613,76.375,62.029z"/>
<path fill-rule="evenodd" clip-rule="evenodd" fill="#893E4F" d="M86.695,37.79c-0.15,0.89-0.675,1.405-0.96,2.16
	C85.355,39.477,86.329,38.314,86.695,37.79z"/>
<path fill-rule="evenodd" clip-rule="evenodd" fill="#C5A43B" d="M90.535,57.709c-1.169,6.511-10.18,5.18-12.721,10.32
	c0.281,2.165,3.16,2.585,5.04,2.4c-1.335,1.544-3.494,2.265-6,2.64c-0.204,1.245,1.3,0.78,1.44,1.681
	c-1.692,0.607-4.119,1.285-6.24,0.72c-0.117-2.621-0.614-3.729-1.439-6c2.485-0.874,4.496-2.225,5.279-4.8
	c0.569-0.472,0.488-1.592,0.48-2.641c1.547,0.188,2.365-0.354,3.6-0.479c-0.84-1.418-2.93-0.555-4.319-0.721
	c-2.57-0.307-4.466-1.521-5.521-3.12c0.375-1.225,1.576-1.624,2.16-2.64c0.038-0.758,0.009-1.448-0.48-1.68
	c1.852-1.254,4.896-5.163,0.961-5.52c0.968-0.792,2.311-1.209,2.64-2.64c-0.262-0.618-0.606-1.153-1.2-1.44
	c-0.729-0.399-3.111-0.399-3.84,0c-2.117-0.143-2.609,0.777-5.04,0.72c-0.328-2.171,0.094-2.866,0.24-5.28c-0.24,0-0.48,0-0.721,0
	c-0.424,0.216-0.7,0.579-1.199,0.72c0-0.4,0-0.8,0-1.2s0-0.8,0-1.2c-1.908-0.068-2.08,1.601-3.841,1.68
	c-0.035-0.737,0.845-1.079,0.24-1.68c-4.632-2.508-9.87,1.354-12,4.56c-1.693,2.55-2.134,5.841-6.72,5.76
	c-4.315-2.772-9.69-4.647-14.64-5.52c-1.808-2.68-4.486-5.743-4.08-9.84c0.886,0.243,1.762,1.476,2.88,0.72
	c-0.003-1.526-1.171-4.242-0.24-6.24c0.517,0.203,0.387,1.053,0.72,1.44c0.802,1.998,2.181,3.419,4.08,4.32
	c0.68,0.393,1.869,0.76,2.4,0c0.15-1.357-1.661-2.01-1.2-2.88c1.644,1.798,6.563,1.97,8.16,0c-5.794-6.523,0.898-15.312,9.6-14.64
	c0.367-1.327-1.065-0.855-0.96-1.92c7.072-1.293,12.523,2.491,15.12,7.2c0.978,0.244,1.118-1.583,1.44-1.2
	c1.616,1.126,2.553,4.442,2.399,7.2c-0.064,1.16-1.206,2.629,0,3.12c2.027-0.853,2.319-3.441,3.12-5.52
	c1.336,2.716,1.113,5.872,0.24,8.88c3.804-0.572,10.368-3.747,15.12-1.2c1.262,1.255,1.809,3.548,1.2,6
	c-0.366,0.524-1.34,1.687-0.96,2.16c1.771,1.508,4.354,2.205,5.279,4.56c0.516,3.236-1.149,4.291-1.92,6.24
	c0.444,1.476,1.198,2.642,1.44,4.32C90.535,55.95,90.535,56.83,90.535,57.709z M58.615,28.43c-1.766-4.067-8.203-6.855-12.48-3.84
	c-2.89,2.037-1.695,6.155-3.12,9.6c-0.806,0.954-1.709,1.811-2.88,2.4c-0.32,0-0.64,0-0.96,0c-0.283-0.421-2.188-0.444-2.16,0.24
	c0.457,0.103,0.603,0.517,1.2,0.48c2.202,1.309,5.249-0.625,6.24-2.64c1.083-2.204,0.157-5.993,1.68-8.16
	c1.814-2.581,6.465-2.32,9.12-0.48c1.284,0.89,1.11,2.076,2.88,3.36c0.166,0.752,0.641,0.313,1.2,0.24c0,1.04,0,2.08,0,3.12
	c-0.411,1.173-0.079,3.307,0.96,1.68c0.399-1.046,0.399-3.754,0-4.8c0.088-0.99-0.094-3.295-1.2-3.84
	c-0.566,0.563,0.039,1.179,0,1.92C59.13,28.368,59.14,28.947,58.615,28.43z M59.335,24.35c0.376,0.744,0.667,1.573,1.44,1.92
	c0.667,1.973,1.665,3.614,2.159,5.76c-0.158,0.885,0.537,2.979,0.721,4.32c0.601,0.041,0.751-0.369,0.96-0.72
	c0.437-2.476,1.608-5.574-0.48-6.96c-0.111,0.955,0.558,2.129-0.24,2.64c-0.567-0.986-0.8-2.633-1.439-3.84
	C61.66,25.971,60.296,23.967,59.335,24.35z M44.455,40.43c2.359-1.911,5.669-3.777,8.64-4.32
	C49.348,34.775,45.747,37.712,44.455,40.43z M80.935,55.79c-1.757,1.434-4.242,1.416-5.76,2.64c4.678,0.977,8.375-3.13,9.601-7.2
	c-0.054-0.187-0.201-0.279-0.48-0.24C83.046,52.623,82.328,54.652,80.935,55.79z M83.335,60.829c-1.493,1.147-4.063,1.217-5.521,2.4
	c4.414,0.797,7.798-2.474,9.36-6c-0.775,0.184-1.256,0.664-1.439,1.44C84.958,59.413,83.872,59.847,83.335,60.829z"/>
<path fill-rule="evenodd" clip-rule="evenodd" fill="#C5A43B" d="M40.135,36.589c1.17-0.589,2.074-1.446,2.88-2.4
	C42.41,35.344,41.565,36.26,40.135,36.589z"/>
<path fill-rule="evenodd" clip-rule="evenodd" fill="#C5A43B" d="M38.215,37.31c-0.597,0.037-0.743-0.377-1.2-0.48
	c-0.028-0.685,1.877-0.661,2.16-0.24C37.557,36.502,36.857,36.628,38.215,37.31z"/>
<path fill-rule="evenodd" clip-rule="evenodd" fill="#C5A43B" d="M59.095,27.709c0.479,1.18,0.75,3.271,0.24,5.04
	c0-1.04,0-2.08,0-3.12c-0.56,0.073-1.034,0.512-1.2-0.24c0.919,0.649,1.07-0.396,0.48-0.96C59.14,28.947,59.13,28.368,59.095,27.709
	z"/>
<path fill-rule="evenodd" clip-rule="evenodd" fill="#2F2A25" d="M59.095,27.709c0.039-0.741-0.566-1.357,0-1.92
	c1.106,0.544,1.288,2.85,1.2,3.84c0,1.6,0,3.2,0,4.8c-1.039,1.626-1.371-0.507-0.96-1.68C59.845,30.981,59.573,28.889,59.095,27.709
	z"/>
<path fill-rule="evenodd" clip-rule="evenodd" fill="#C5A43B" d="M59.335,24.35c0.683,0.437,0.922,1.318,1.44,1.92
	C60.002,25.922,59.711,25.093,59.335,24.35z"/>
<path fill-rule="evenodd" clip-rule="evenodd" fill="#C5A43B" d="M62.935,32.029c0.324,1.277,0.817,2.383,0.721,4.08
	c0.654,0.175,0.482-0.477,0.96-0.48c-0.209,0.352-0.359,0.761-0.96,0.72C63.472,35.009,62.776,32.915,62.935,32.029z"/>
<path fill-rule="evenodd" clip-rule="evenodd" fill="#2F2A25" d="M59.335,24.35c0.961-0.382,2.325,1.622,3.12,3.12
	c0.64,1.207,0.872,2.854,1.439,3.84c0.798-0.511,0.129-1.685,0.24-2.64c2.089,1.386,0.917,4.484,0.48,6.96
	c-0.478,0.003-0.306,0.655-0.96,0.48c0.097-1.697-0.396-2.803-0.721-4.08c-0.494-2.146-1.492-3.787-2.159-5.76
	C60.257,25.668,60.018,24.787,59.335,24.35z"/>
<path fill-rule="evenodd" clip-rule="evenodd" fill="#893E4F" d="M45.415,50.509c0.739,0.461,1.206,1.195,2.4,1.2
	C47.004,52.269,45.803,51.169,45.415,50.509z"/>
<path fill-rule="evenodd" clip-rule="evenodd" fill="#C4A369" d="M62.935,42.35c0.105-0.295,0.308-0.493,0.721-0.48
	c0.371,0.349,0.211,1.229,0.239,1.92C63.335,43.545,64.042,41.313,62.935,42.35z"/>
<path fill-rule="evenodd" clip-rule="evenodd" fill="#C4A369" d="M58.854,40.91c0.54-0.66,1.698-0.702,2.4-1.2
	C60.816,40.471,59.691,40.546,58.854,40.91z"/>
<path fill-rule="evenodd" clip-rule="evenodd" fill="#2F2A25" d="M30.535,46.91c0.964-0.074,2.114,0.053,2.88,0.24
	c4.195,1.022,12.383,5.633,12.48,9.84c0.053,2.321-2.133,4.162-4.32,4.32c-5.267,0.382-12.857-7.735-11.52-13.68
	C30.044,47.219,30.233,47.008,30.535,46.91z M33.655,55.31c0.829,0.451,0.831,1.729,2.16,1.68c0.757-2.204,2.421-3.499,3.36-5.52
	c-0.686-0.595-1.464-1.096-2.4-1.44C35.813,51.868,34.505,53.36,33.655,55.31z M43.495,57.709c0.669-0.391,1.521-1.542,0.96-2.4
	c-0.739,0.221-0.959,0.96-1.44,1.44c-0.166,1.434-1.274,1.925-1.68,3.12C42.813,59.908,42.635,58.289,43.495,57.709z"/>
<path fill-rule="evenodd" clip-rule="evenodd" fill="#EEBD33" d="M60.055,54.109c-0.527,0.913-0.899,1.98-1.68,2.64
	C58.902,55.837,59.274,54.769,60.055,54.109z"/>
<path fill-rule="evenodd" clip-rule="evenodd" fill="#2F2A25" d="M84.295,50.99c0.279-0.039,0.427,0.053,0.48,0.24
	c-1.226,4.07-4.923,8.177-9.601,7.2c1.518-1.224,4.003-1.206,5.76-2.64C82.328,54.652,83.046,52.623,84.295,50.99z"/>
<path fill-rule="evenodd" clip-rule="evenodd" fill="#EEBD33" d="M50.935,56.51c0.387,0.067,0.413-0.227,0.72-0.24
	c-0.271,0.449-0.271,0.449-0.639,0.973c0.006,0.233-0.081,0-0.081,0.227c-0.256,0.224-0.075,0.885-0.72,0.72
	c0.4-0.477-0.021-0.305,0-0.96C50.769,57.303,50.481,56.536,50.935,56.51z"/>
<path fill-rule="evenodd" clip-rule="evenodd" fill="#EEBD33" d="M51.655,56.029c0.281-0.311,1.396-2.146,0.48-1.44
	c-0.08,0-0.16,0-0.24,0c0.309-0.411,0.496-0.943,1.2-0.96C52.776,54.59,52.474,55.569,51.655,56.029z"/>
<path fill-rule="evenodd" clip-rule="evenodd" fill="#EEBD33" d="M51.895,54.589c0.08,0,0.16,0,0.24,0
	c0.916-0.706-0.199,1.129-0.48,1.44c0,0.08,0,0.16,0,0.24c-0.307,0.013-0.333,0.308-0.72,0.24
	C50.983,55.598,51.944,55.599,51.895,54.589z"/>
<path fill-rule="evenodd" clip-rule="evenodd" fill="#EEBD33" d="M43.495,57.709c1.224-1.428,1.024-2.763-0.48-0.96
	c0.481-0.479,0.701-1.219,1.44-1.44C45.016,56.168,44.164,57.319,43.495,57.709z"/>
<path fill-rule="evenodd" clip-rule="evenodd" fill="#2F2A25" d="M83.335,60.829c0.537-0.982,1.623-1.416,2.4-2.159
	c-0.459,0.981-1.605,1.274-2.16,2.159C83.495,60.829,83.415,60.829,83.335,60.829z"/>
<path fill-rule="evenodd" clip-rule="evenodd" fill="#2F2A25" d="M85.735,58.67c0.184-0.776,0.664-1.256,1.439-1.44
	c-1.563,3.526-4.946,6.797-9.36,6c1.457-1.184,4.027-1.253,5.521-2.4c0.08,0,0.16,0,0.24,0C84.13,59.944,85.276,59.651,85.735,58.67
	z"/>
<path fill-rule="evenodd" clip-rule="evenodd" fill="#C4A369" d="M67.255,59.63c0.306-0.734,1.374-0.706,1.68-1.44
	c0.712,0.497-0.342,1.239-0.72,1.44C68.179,59.032,67.402,59.56,67.255,59.63z"/>
<path fill-rule="evenodd" clip-rule="evenodd" fill="#C4A369" d="M59.095,64.189c2.36-1.029,6.158-2.402,8.16-4.56
	c0.147-0.07,0.924-0.598,0.96,0c-0.288,0.314-0.094,0.377,0,0.72c0.992-0.455,1.882-1.011,2.64,0
	c0.229,1.094-2.168,1.464-2.159,3.12c1.146,0.107,1.052-1.027,1.92-1.2c0.637-0.462,1.415,0.539,1.199,1.68
	c-0.378,0.822-0.791,1.608-1.439,2.16c1.679,0.828,3.738-2.336,2.64-4.56c0.279,0.201,0.644,0.316,1.2,0.239
	c0.007,0.233,0.294,0.187,0.48,0.24c0.023,0.984,0.047,1.968-0.24,2.641c0,0.08,0,0.159,0,0.239
	c-0.558,1.043-1.477,1.725-2.16,2.641c-0.825,0.135-1.446,0.474-2.16,0.72c-0.669-1.43-2.681-1.31-3.6-0.24
	c-0.929,6.924-5.546,13.255-5.04,21.601c-0.397,0.259-0.397,2.141,0,2.399c-0.113,3.466,0.35,6.6,1.68,9.36
	c-1.224,0.137-1.303,1.417-1.68,2.4c-2.391,2.033-7.533,3.355-9.6,0.239c0.245-1.114,1.289-1.431,0.96-3.12
	c1.012-0.04,1.214-1.151,1.92-0.239c0.279,0.039,0.427-0.054,0.48-0.24c1.747-3.65,0.412-7.333,1.2-9.84
	c0.731-2.326,3.198-3.714,3.359-6.96c-2.3,1.379-2.482,4.877-4.8,6.239c-0.681,0.52-1.801,0.599-2.4,1.2
	c-1.095-0.121-1.36,0.417-2.16,0c-1.499,0.371-2.808-0.702-3.36-0.479c-4.303-1.712-3.149-7.726-5.52-11.04
	c-0.788-6.359-6.784-10.44-4.8-17.28c1.645,0.516,3.167,1.152,4.8,1.68c-0.056,0.904-0.904,1.017-0.96,1.92
	c0.046,0.194,0.241,0.239,0.24,0.48c0.431,1.169,1.516,1.684,2.88,1.92c0.388,0.067,0.413-0.227,0.72-0.24
	c-0.358-1.082-1.827-1.053-2.16-2.16c0.503-1.416,1.938-1.901,2.64-3.119c0.786-0.895,1.484-1.876,2.16-2.881
	c2.394,2.327,4.931,4.51,9.6,4.561C57.622,64.477,58.464,64.438,59.095,64.189z M53.815,77.39c-0.412-4.723-4.059-10.25-8.64-6.48
	c-1.416-0.791-2.844-1.241-3.84,0.24c0.334,3.894,3.67,3.76,3.6,7.68c-5.748,4.866,4.604,6.037,7.92,4.32
	c0.601-0.759,1.513-1.207,1.2-2.88C53.902,79.383,54.366,77.879,53.815,77.39z M44.695,66.59c1.822,0.042,2.438,1.141,3.6,0.72
	c0-0.32,0-0.64,0-0.96C47.323,65.901,45.094,64.973,44.695,66.59z M54.775,68.989c-0.613,0.027-0.477,0.804-0.48,1.44
	c0.565-0.006,0.707,0.413,1.44,0.24c0.138-0.146,0.562-1.139,0-1.2c0.001-0.241-0.194-0.286-0.24-0.48
	C55.255,68.989,55.015,68.989,54.775,68.989z"/>
<path fill-rule="evenodd" clip-rule="evenodd" fill="#C4A369" d="M42.295,65.869c-0.15-1.114,1.797-2.198,2.64-3.119
	C44.233,63.968,42.798,64.453,42.295,65.869z"/>
<path fill-rule="evenodd" clip-rule="evenodd" fill="#C4A369" d="M43.735,68.27c-1.364-0.236-2.449-0.751-2.88-1.92
	C41.489,67.315,42.692,67.713,43.735,68.27z"/>
<path fill-rule="evenodd" clip-rule="evenodd" fill="#C4A369" d="M52.615,91.069c0.599-0.602,1.719-0.681,2.4-1.2
	C54.561,90.616,53.544,90.799,52.615,91.069z"/>
<path fill-rule="evenodd" clip-rule="evenodd" fill="#893E4F" d="M53.095,100.67c0.306-0.574,0.783-0.978,1.68-0.96
	c-0.082,0.481,0.049,0.751,0.48,0.72c-0.053,0.187-0.201,0.279-0.48,0.24c-0.127-0.193-0.25-0.39-0.24-0.721
	C53.804,99.938,53.602,100.456,53.095,100.67z"/>
<path fill-rule="evenodd" clip-rule="evenodd" fill="#C4A369" d="M72.295,67.55c0.684-0.916,1.603-1.598,2.16-2.641
	C74.168,66.223,73.197,66.852,72.295,67.55z"/>
<path fill-rule="evenodd" clip-rule="evenodd" fill="#C4A369" d="M74.215,61.789c1.21-0.119,0.836,2.617,0.24,2.881
	c0.287-0.673,0.264-1.656,0.24-2.641C74.509,61.976,74.222,62.022,74.215,61.789z"/>
<path fill-rule="evenodd" clip-rule="evenodd" fill="#C4A369" d="M71.814,63.949c0.216-1.141-0.563-2.142-1.199-1.68
	C71.015,61.048,72.709,63.161,71.814,63.949z"/>
<path fill-rule="evenodd" clip-rule="evenodd" fill="#869A8A" d="M53.095,100.67c0.507-0.214,0.709-0.731,1.44-0.721
	c-0.01,0.331,0.113,0.527,0.24,0.721c-0.706-0.912-0.908,0.199-1.92,0.239C52.811,100.705,52.948,100.684,53.095,100.67z"/>
<path fill-rule="evenodd" clip-rule="evenodd" fill="#C4A369" d="M50.455,91.069c-0.981,0.651-2.688-0.025-3.36-0.479
	C47.647,90.367,48.957,91.44,50.455,91.069z"/>
<path fill-rule="evenodd" clip-rule="evenodd" fill="#C4A369" d="M56.695,64.43c0.431-0.303,2.227-0.475,2.4-0.24
	C58.464,64.438,57.622,64.477,56.695,64.43z"/>
<path fill-rule="evenodd" clip-rule="evenodd" fill="#2F2A25" d="M48.295,66.35c0,0.32,0,0.64,0,0.96
	c-1.162,0.421-1.778-0.678-3.6-0.72C45.094,64.973,47.323,65.901,48.295,66.35z"/>
<path fill-rule="evenodd" clip-rule="evenodd" fill="#C4A369" d="M55.735,69.47c0.562,0.062,0.138,1.055,0,1.2
	c-0.733,0.173-0.875-0.246-1.44-0.24c0.003-0.637-0.133-1.413,0.48-1.44c-0.445,0.474-0.357,1.768,0.72,1.44
	c0.281-0.039,0.202-0.438,0.24-0.72C55.735,69.63,55.735,69.55,55.735,69.47z"/>
<path fill-rule="evenodd" clip-rule="evenodd" fill="#C2BDB5" d="M46.135,78.109c-0.393-1.527-1.239-2.601-1.44-4.319
	c0.24,0,0.48,0,0.72,0c0.8-0.001,1.6,0,2.4,0c0.16,0,0.32,0,0.48,0c1.105,0.494,1.273,1.927,1.92,2.88c0,0.159,0,0.319,0,0.479
	c0,0.641,0,1.28,0,1.92c-0.146,0.415-1.138-0.019-1.2,0.48c-0.08,0-0.16,0-0.24,0c-0.598-0.202-1.286-0.314-2.16-0.24
	C46.651,78.714,46.491,78.313,46.135,78.109z"/>
<path fill-rule="evenodd" clip-rule="evenodd" fill="#C2BDB5" d="M48.775,79.55c-0.266,0.479-1.289-0.293-2.16,0
	c-0.191-0.448-0.401-0.879-0.48-1.44c0.356,0.204,0.516,0.604,0.48,1.2C47.489,79.235,48.177,79.348,48.775,79.55z"/>
<path fill-rule="evenodd" clip-rule="evenodd" fill="#C2BDB5" d="M48.295,73.79c1.24,0.359,1.749,1.451,1.92,2.88
	C49.568,75.717,49.4,74.284,48.295,73.79z"/>
<path fill-rule="evenodd" clip-rule="evenodd" fill="#C2BDB5" d="M50.215,77.149c0.542,0.179,0.094,1.347,0.24,1.92
	c-0.427,0.214-0.61,0.67-1.44,0.48c0.062-0.499,1.055-0.065,1.2-0.48C50.215,78.43,50.215,77.79,50.215,77.149z"/>
<path fill-rule="evenodd" clip-rule="evenodd" fill="#2F2A25" d="M66.775,48.109c1.788,6.407-3.168,12.548-8.16,13.92
	c-4.256,1.17-10.909-1.702-9.84-5.76C49.778,52.46,61.421,48.873,66.775,48.109z M60.055,54.109c0.334-1.506,1.271-2.409,1.681-3.84
	c-4.795,1.445-5.499,6.981-8.4,10.32c0.659,0.381,1.741,0.339,2.4,0.72c0.97-1.43,1.817-2.983,2.64-4.56
	C59.155,56.09,59.527,55.022,60.055,54.109z M51.655,56.029c0.819-0.46,1.121-1.439,1.44-2.4c-0.704,0.017-0.891,0.549-1.2,0.96
	c0.049,1.009-0.912,1.008-0.96,1.92c-0.454,0.026-0.167,0.793-0.72,0.72c-0.021,0.655,0.4,0.483,0,0.96
	c0.646,0.165,0.464-0.496,0.72-0.72c0-0.129,0.023,0,0.017-0.234c0.491-0.619,0.432-0.517,0.703-0.966
	C51.655,56.189,51.655,56.109,51.655,56.029z"/>
<path fill-rule="evenodd" clip-rule="evenodd" fill="#EEBD33" d="M58.375,56.75c-0.823,1.577-1.67,3.13-2.64,4.56
	c-0.659-0.381-1.741-0.339-2.4-0.72c2.901-3.339,3.605-8.875,8.4-10.32c-0.409,1.431-1.347,2.333-1.681,3.84
	C59.274,54.769,58.902,55.837,58.375,56.75z"/>
<path fill-rule="evenodd" clip-rule="evenodd" fill="#EEBD33" d="M43.015,56.75c1.504-1.803,1.704-0.468,0.48,0.96
	c-0.86,0.58-0.681,2.199-2.16,2.16C41.74,58.675,42.849,58.184,43.015,56.75z"/>
<path fill-rule="evenodd" clip-rule="evenodd" fill="#C5A43B" d="M35.575,61.55c-2.097,5.426,1.406,9.604,3.12,13.92
	c-0.951,0.489-1.872,1.008-3.36,0.96c-0.005-0.565,0.413-0.707,0.24-1.44c-1.296-0.624-3.489-0.351-4.56-1.199
	c-0.179-0.739,0.659-0.462,0.48-1.2c-1.056-1.107-3.477-2.119-3.6-3.36c1.467,0.036,4.108,0.846,4.8-0.479
	c-2.744-2.263-5.562-6.305-4.08-11.28C30.744,59.021,32.817,60.627,35.575,61.55z"/>
<path fill-rule="evenodd" clip-rule="evenodd" fill="#2F2A25" d="M54.775,68.989c0.24,0,0.48,0,0.72,0
	c0.045,0.194,0.241,0.239,0.24,0.48c0,0.08,0,0.16,0,0.24c-0.038,0.282,0.042,0.681-0.24,0.72
	C54.418,70.757,54.33,69.463,54.775,68.989z"/>
<path fill-rule="evenodd" clip-rule="evenodd" fill="#869A8A" d="M79.255,29.87c0.729-0.399,3.111-0.399,3.84,0
	C81.815,29.87,80.535,29.87,79.255,29.87z"/>
<path fill-rule="evenodd" clip-rule="evenodd" fill="#869A8A" d="M67.975,70.43c2.674-0.776,2.929,3.943,3.12,6.479
	c0.248,3.279,0.271,8.828-1.68,9.12C65.906,86.556,65.671,72.166,67.975,70.43z M67.975,71.869c0.633-0.072,0.788,0.333,0.721,0.96
	c0.239,0,0.479,0,0.72,0c0.429-0.549-0.638-1.139-0.72-1.92C68.598,71.372,67.765,71.1,67.975,71.869z"/>
<path fill-rule="evenodd" clip-rule="evenodd" fill="#2F2A25" d="M23.095,39.229c-1.205-1.652-2.979-7.019-0.48-8.64
	c0.668,0.211,0.569,1.191,1.44,1.2c-0.932-2.235-0.214-5.611,1.68-6.96c1.205,2.486,2.246,6.378,4.8,6.72
	c-0.168-1.286-2.219-3.105-0.48-4.08c1.722,1.477,4.052,3.36,7.44,2.4c-0.108-1.662-1.333-2.318-1.68-3.6
	c-1.593-5.898,4.149-10.929,9.84-11.76c0.354-0.651-0.075-1.352,0.96-1.68c6.382-2.749,13.342,0.853,15.84,5.04
	c0.81-0.151,0.589-1.332,1.439-1.44c2.101,1.26,2.936,3.784,4.08,6c0.311,0.73-0.118,2.199,0.96,2.16
	c-0.177-1.137,0.271-1.65,0.24-2.64c3.102-1.044,3.573,6.818,2.88,9.6c2.332-0.628,4.355-1.565,7.2-1.68c1.28,0,2.561,0,3.84,0
	c4.933-0.086,6.521,6.073,4.08,9.84c4.832,0.873,6.796,7.411,3.36,11.28c3.802,6.573-0.784,12.151-6,14.16
	c-1.823,0.702-5.402,0.47-5.04,3.601c1.258,1.354,4.12-0.301,5.28,0.239c-0.265,2.775-2.554,3.527-4.801,4.32
	c-0.18,0.82,0.976,0.305,0.721,1.2c-1.599,2.001-5.214,1.986-8.4,2.399c-0.457,4.279,0.382,10.65-3.6,10.32
	c-3.557-0.294-2.766-7.207-3.601-11.04c-1.877,5.094-3.143,12.044-2.399,18.96c2.047-0.047,2.474,1.525,3.359,2.641
	c6.023,4.164,14.779,1.571,19.681,5.52c2.764,2.227,4.48,6.567,6,10.08c-0.24,0-0.48,0-0.721,0c0-0.08,0-0.16,0-0.24
	c-1.97-2.707-3.064-6.688-5.76-8.88c-4.294-3.492-11.363-1.377-17.52-4.56c0.015,1.854-1.186,2.495-0.721,4.8
	c-0.908,1.203-1.946,1.733-1.68,3.6c-0.499,0.702-1.133,1.268-2.16,1.44c0.437,3.594-5.111,3.692-4.8,0.24
	c0.162-1.802,3.512-2.516,3.12-4.561c-2.509,2.135-7.941,2.576-10.56,0.24c-0.731,1.083-0.383,1.842-0.72,3.12
	c-1.161,2.111-4.195,2.077-4.56-0.24c-0.241-1.526,1.667-2.14,0.72-3.84c0.426-1.015,1.633-1.247,1.68-2.641
	c-6.992,2.769-16.872,2.648-17.76,11.521c-0.48,0-0.96,0-1.44,0c1.147-10.773,14.442-9.397,21.84-13.92
	c-0.267-1.627,0.693-2.027,1.44-2.64c1.542,0.262,2.07-0.49,3.12-0.721c0-1.6,0-3.2,0-4.8c-4.99,1.824-9.415,1.045-11.76-2.4
	c-2.285-3.355-1.921-8.799-4.08-12.239c-5.021,2.375-5.39-1.548-8.88-1.92c-0.459-3.142-4.074-3.126-4.32-6.48
	c1.578-0.058,3.029,0.011,4.32,0.24c-1.367-2.073-3.202-3.678-3.36-6.96c0-0.88,0-1.761,0-2.641
	c-0.169-1.209,0.431-1.649,0.72-2.399c-0.958-0.643-1.812-1.389-2.16-2.64c1.244-2.762-1.744-3.098-2.16-5.52
	c0.287-0.754,1.049-1.031,1.44-1.68c-0.507-0.933-1.639-1.241-1.44-2.88c-0.007-1.127,1.962-0.278,2.16-1.2
	c-0.356-0.283-1.072-0.208-0.96-0.96C24.128,40.916,23.863,39.822,23.095,39.229z M86.695,37.79c0.608-2.452,0.062-4.745-1.2-6
	c-4.752-2.547-11.316,0.628-15.12,1.2c0.873-3.008,1.096-6.164-0.24-8.88c-0.801,2.079-1.093,4.667-3.12,5.52
	c-1.206-0.491-0.064-1.96,0-3.12c0.153-2.758-0.783-6.073-2.399-7.2c-0.322-0.383-0.463,1.443-1.44,1.2
	c-2.597-4.708-8.048-8.493-15.12-7.2c-0.105,1.065,1.327,0.593,0.96,1.92c-8.702-0.672-15.394,8.117-9.6,14.64
	c-1.597,1.97-6.516,1.798-8.16,0c-0.461,0.87,1.35,1.523,1.2,2.88c-0.532,0.76-1.72,0.393-2.4,0c-1.693-1.106-3.045-2.555-4.08-4.32
	c-0.333-0.388-0.203-1.237-0.72-1.44c-0.931,1.999,0.236,4.714,0.24,6.24c-1.118,0.755-1.994-0.477-2.88-0.72
	c-0.406,4.097,2.272,7.16,4.08,9.84c4.95,0.873,10.325,2.748,14.64,5.52c4.586,0.081,5.026-3.21,6.72-5.76
	c2.13-3.207,7.368-7.068,12-4.56c0.604,0.601-0.275,0.943-0.24,1.68c1.761-0.08,1.933-1.748,3.841-1.68c0,0.4,0,0.8,0,1.2
	c-0.53,0.03-0.103,1.018-0.24,1.44c0.712-0.088,1.184-0.416,1.439-0.96c0.24,0,0.48,0,0.721,0c-0.146,2.414-0.568,3.109-0.24,5.28
	c2.431,0.057,2.923-0.862,5.04-0.72c1.28,0,2.56,0,3.84,0c0.594,0.287,0.938,0.822,1.2,1.44c-0.329,1.431-1.672,1.848-2.64,2.64
	c3.936,0.357,0.891,4.266-0.961,5.52c0.489,0.231,0.519,0.921,0.48,1.68c-0.584,1.016-1.785,1.415-2.16,2.64
	c1.055,1.598,2.95,2.813,5.521,3.12c1.39,0.166,3.479-0.697,4.319,0.721c-1.234,0.125-2.053,0.667-3.6,0.479
	c-0.456,0.584-0.164,1.916-0.48,2.641c-0.783,2.575-2.794,3.926-5.279,4.8c0.825,2.271,1.322,3.379,1.439,6
	c2.121,0.565,4.548-0.112,6.24-0.72c-0.141-0.9-1.645-0.436-1.44-1.681c2.506-0.375,4.665-1.096,6-2.64
	c-1.88,0.185-4.759-0.235-5.04-2.4c2.541-5.14,11.552-3.809,12.721-10.32c0.397-0.336,0.397-2.304,0-2.64
	c-0.242-1.678-0.996-2.844-1.44-4.32c0.771-1.95,2.436-3.004,1.92-6.24c-0.925-2.355-3.509-3.051-5.279-4.56
	C86.021,39.195,86.545,38.68,86.695,37.79z M58.854,40.91c-0.358-0.041-0.885,0.085-0.959-0.24c-0.195-1.314,0.801-1.438,0.72-2.64
	c-9.241-1.57-8.796,9.706-15.601,10.56c0.487,0.953,1.548,1.333,2.4,1.92c0.388,0.66,1.589,1.76,2.4,1.2
	c4.615-2.905,9.986-5.054,15.84-6.72c-0.077-0.556,0.038-0.921,0.239-1.2c-0.028-0.691,0.132-1.571-0.239-1.92
	c-0.413-0.013-0.615,0.185-0.721,0.48c-0.278,0.201-0.644,0.316-1.199,0.24c-0.573-1.122,0.345-1.998,0.479-3.12
	c-0.454-0.054-0.529,0.27-0.96,0.24C60.553,40.208,59.395,40.25,58.854,40.91z M56.695,48.35c-2.708,1.059-6.826,4.43-9.36,4.32
	c-1.985-0.086-5.382-3.381-7.92-4.8c-4.104-2.295-9.109-4.579-14.88-3.84c0.373,1.948,2.219,2.421,2.88,4.08
	c-0.489,0.508-1.946-0.473-2.64,0.24c0.55,2.25,2.776,2.824,3.36,5.04c-0.48,0-0.96,0-1.44,0c3.248,5.472,9.784,7.656,16.32,9.84
	c1.939-1.03,2.638-4.278,4.56-4.56c6.08,9.18,19.943,2.098,23.52-3.84c0.237-0.958-0.717-0.723-0.479-1.68
	c0.749-1.491,2.664-1.815,3.12-3.6c-0.435-0.846-2.516-0.044-2.641-1.2c0.323-1.757,2.559-1.602,2.88-3.36
	C67.52,44.671,62.264,46.172,56.695,48.35z M28.615,57.47c-1.481,4.976,1.336,9.018,4.08,11.28c-0.692,1.325-3.333,0.516-4.8,0.479
	c0.123,1.241,2.544,2.253,3.6,3.36c0.179,0.738-0.659,0.461-0.48,1.2c1.071,0.849,3.264,0.575,4.56,1.199
	c0.173,0.733-0.245,0.875-0.24,1.44c1.488,0.048,2.409-0.471,3.36-0.96c-1.714-4.315-5.217-8.494-3.12-13.92
	C32.817,60.627,30.744,59.021,28.615,57.47z M68.215,59.63c0.378-0.201,1.432-0.943,0.72-1.44c-0.306,0.734-1.374,0.706-1.68,1.44
	c-2.002,2.157-5.8,3.53-8.16,4.56c-0.173-0.234-1.969-0.063-2.4,0.24c-4.669-0.051-7.207-2.233-9.6-4.561
	c-0.676,1.005-1.374,1.986-2.16,2.881c-0.843,0.921-2.791,2.005-2.64,3.119c0.333,1.107,1.802,1.078,2.16,2.16
	c-0.307,0.014-0.333,0.308-0.72,0.24c-1.043-0.557-2.246-0.954-2.88-1.92c0-0.241-0.194-0.286-0.24-0.48
	c0.056-0.903,0.904-1.016,0.96-1.92c-1.632-0.527-3.155-1.164-4.8-1.68c-1.984,6.84,4.012,10.921,4.8,17.28
	c2.371,3.314,1.217,9.328,5.52,11.04c0.673,0.454,2.379,1.131,3.36,0.479c0.799,0.417,1.064-0.121,2.16,0
	c0.929-0.271,1.946-0.453,2.4-1.2c2.317-1.362,2.5-4.86,4.8-6.239c-0.161,3.246-2.628,4.634-3.359,6.96
	c-0.789,2.507,0.547,6.189-1.2,9.84c-0.431,0.031-0.562-0.238-0.48-0.72c-0.897-0.018-1.375,0.386-1.68,0.96
	c-0.146,0.014-0.284,0.035-0.24,0.239c0.329,1.689-0.715,2.006-0.96,3.12c2.067,3.116,7.209,1.794,9.6-0.239
	c0.377-0.983,0.456-2.264,1.68-2.4c-1.33-2.761-1.793-5.895-1.68-9.36c0-0.8,0-1.6,0-2.399c-0.506-8.346,4.111-14.677,5.04-21.601
	c0.919-1.069,2.931-1.189,3.6,0.24c0.714-0.246,1.335-0.585,2.16-0.72c0.902-0.698,1.873-1.327,2.16-2.641c0-0.08,0-0.159,0-0.239
	c0.596-0.264,0.97-3-0.24-2.881c-0.557,0.077-0.921-0.038-1.2-0.239c1.099,2.224-0.961,5.388-2.64,4.56
	c0.648-0.552,1.062-1.338,1.439-2.16c0.895-0.788-0.8-2.901-1.199-1.68c-0.868,0.173-0.773,1.308-1.92,1.2
	c-0.009-1.656,2.389-2.026,2.159-3.12c-0.758-1.011-1.647-0.455-2.64,0C68.121,60.007,67.927,59.944,68.215,59.63z M68.695,68.27
	c-0.24,0-0.48,0-0.721,0c-0.201,0.278-0.316,0.644-0.239,1.2C68.622,69.637,68.795,69.09,68.695,68.27z M69.415,86.029
	c1.95-0.292,1.928-5.841,1.68-9.12c-0.191-2.536-0.446-7.256-3.12-6.479C65.671,72.166,65.906,86.556,69.415,86.029z M63.655,98.029
	c0.213-0.427,0.67-0.609,0.479-1.439c-0.278-0.202-0.644-0.316-1.2-0.24C62.821,97.264,63.037,97.848,63.655,98.029z M51.655,98.989
	c0.464,0.702,2.174,0.634,2.16-0.479c-0.378-0.817-0.859-0.818-1.44-0.96C51.83,97.725,51.95,98.564,51.655,98.989z M64.375,100.67
	c0.448,0.191,0.879,0.4,1.439,0.479c0.412-0.388,0.597-1.004,0.48-1.92C65.018,97.848,63.621,99.155,64.375,100.67z M49.255,102.59
	c1.134,0.703,2.586-0.054,2.4-1.44C50.802,100.163,48.616,100.64,49.255,102.59z M63.175,102.35c-0.374,1.102-0.185,1.996,0.48,2.64
	c1.648,0.21,2.202-0.677,2.159-2.159C65.021,102.174,64.33,102.189,63.175,102.35z M47.815,105.71
	c1.147,0.337,2.284-0.104,2.16-1.681C48.647,103.119,47.135,104.569,47.815,105.71z M61.975,108.35c0.641,0,1.28,0,1.92,0
	c0.146-0.575,0.346-1.095,0.24-1.92C62.495,105.946,61.221,106.648,61.975,108.35z M46.615,108.109
	c0.306,0.574,0.783,0.978,1.68,0.96c0.621-0.339,1.145-0.775,0.96-1.92C48.312,106.57,46.573,106.938,46.615,108.109z
	 M59.575,110.75c0.931,0.888,2.597,0.386,2.64-0.96C61.766,108.461,58.886,108.37,59.575,110.75z"/>
<path fill-rule="evenodd" clip-rule="evenodd" fill="#2F2A25" d="M43.015,34.189c1.425-3.445,0.23-7.563,3.12-9.6
	c4.278-3.015,10.715-0.227,12.48,3.84c0.59,0.564,0.438,1.609-0.48,0.96c-1.77-1.285-1.596-2.47-2.88-3.36
	c-2.655-1.84-7.306-2.101-9.12,0.48c-1.523,2.167-0.597,5.956-1.68,8.16c-0.991,2.016-4.039,3.949-6.24,2.64
	c-1.357-0.681-0.658-0.807,0.96-0.72c0.32,0,0.64,0,0.96,0C41.565,36.26,42.41,35.344,43.015,34.189z"/>
<path fill-rule="evenodd" clip-rule="evenodd" fill="#2F2A25" d="M53.095,36.109c-2.97,0.543-6.28,2.41-8.64,4.32
	C45.747,37.712,49.348,34.775,53.095,36.109z"/>
<path fill-rule="evenodd" clip-rule="evenodd" fill="#2F2A25" d="M54.055,80.27c0.313,1.673-0.599,2.121-1.2,2.88
	c-3.316,1.717-13.667,0.546-7.92-4.32c0.07-3.92-3.266-3.786-3.6-7.68c0.996-1.481,2.424-1.031,3.84-0.24
	c4.581-3.77,8.229,1.758,8.64,6.48C53.968,78.276,53.504,79.78,54.055,80.27z M45.655,72.59c1.225-0.414,2.745,0.063,4.32,0.479
	c1.438,2.304,2.939,6.413-0.24,7.44c-1.67,0.54-3.478-0.854-5.28,0.24c0.073,3.177,5.618,2.16,7.92,1.68
	C54.555,78.24,50.546,66.724,45.655,72.59z M43.255,73.31c0.851-0.189,1.733-0.347,2.16-0.96c-0.976-0.304-1.392-1.169-2.4-1.44
	C42.238,71.449,42.774,72.69,43.255,73.31z M47.815,73.79c-0.259-0.397-2.141-0.397-2.4,0c-0.24,0-0.48,0-0.72,0
	c0.201,1.719,1.047,2.792,1.44,4.319c0.079,0.562,0.289,0.992,0.48,1.44c0.872-0.293,1.895,0.479,2.16,0c0.08,0,0.16,0,0.24,0
	c0.83,0.189,1.014-0.267,1.44-0.48c-0.146-0.573,0.301-1.741-0.24-1.92c0-0.16,0-0.32,0-0.479c-0.171-1.429-0.68-2.521-1.92-2.88
	C48.135,73.79,47.975,73.79,47.815,73.79z"/>
<path fill-rule="evenodd" clip-rule="evenodd" fill="#C4A369" d="M45.415,50.509c-0.853-0.587-1.913-0.967-2.4-1.92
	c6.805-0.854,6.36-12.13,15.601-10.56c0.081,1.202-0.915,1.326-0.72,2.64c0.074,0.326,0.601,0.199,0.959,0.24
	c0.837-0.363,1.962-0.438,2.4-1.2c0.431,0.03,0.506-0.294,0.96-0.24c-0.135,1.122-1.053,1.998-0.479,3.12
	c0.556,0.077,0.921-0.039,1.199-0.24c1.107-1.036,0.4,1.195,0.96,1.44c-0.201,0.278-0.316,0.644-0.239,1.2
	c-5.854,1.666-11.225,3.815-15.84,6.72C46.621,51.704,46.154,50.97,45.415,50.509z"/>
<path fill-rule="evenodd" clip-rule="evenodd" fill="#EEBD33" d="M36.775,50.029c0.936,0.344,1.714,0.846,2.4,1.44
	c-0.939,2.021-2.603,3.316-3.36,5.52c-1.33,0.049-1.331-1.229-2.16-1.68C34.505,53.36,35.813,51.868,36.775,50.029z"/>
</svg>
