<?xml version="1.0" encoding="utf-8"?>
<!-- Generator: Adobe Illustrator 15.1.0, SVG Export Plug-In . SVG Version: 6.00 Build 0)  -->
<!DOCTYPE svg PUBLIC "-//W3C//DTD SVG 1.1//EN" "http://www.w3.org/Graphics/SVG/1.1/DTD/svg11.dtd">
<svg version="1.1" id="Ebene_1" xmlns="http://www.w3.org/2000/svg" xmlns:xlink="http://www.w3.org/1999/xlink" x="0px" y="0px"
	 width="113.39px" height="113.39px" viewBox="0 0 113.39 113.39" enable-background="new 0 0 113.39 113.39" xml:space="preserve">
<path fill-rule="evenodd" clip-rule="evenodd" fill="#64746C" d="M61.135,11.389c-0.042-0.758-0.949-0.65-1.68-0.72
	c2.938-2.415,8.023-1.713,11.76,0.96c1.654,1.184,4.562,3.849,4.32,4.8c-0.79,3.103-4.143,5.749-3.12,10.08
	c-3.479,0.795-5.15,2.327-7.44,4.56c-1.071-0.781-1.679-1.557-3.12-1.44c0-0.8,0-1.6,0-2.4c-0.419-1.181-1.373-1.827-3.12-1.68
	c-1.629-1.499-1.508-6.566-5.28-5.04c-0.437-1.743-0.063-3.673-1.2-5.76c-0.948-1.741-3.613-3.628-0.48-5.76
	C56.069,8.154,57.182,12.108,61.135,11.389z M64.495,18.35c2.161,0.095,2.968,1.074,4.56,2.16c0.857-2.482-1.98-2.847-3.6-3.6
	c0.418-1.954,2.36-3.214,2.64-4.56C66.279,12.674,63.819,15.524,64.495,18.35z"/>
<path fill-rule="evenodd" clip-rule="evenodd" fill="#64746C" d="M76.015,62.27c0.448-1.739,2.534-3.825,1.92-6.72
	c-0.425-2.003-2.034-2.475-3.359-3.36c0.142-3.007-0.62-5.41-1.681-8.16c-5.23-2.986-14.837-6.087-23.04-5.28
	c-2.8,0.276-6.188,0.901-6.96,4.56c-2.41,0.776-7.042-0.812-7.92,1.92c-8.703-2.95-15.383-10.094-13.44-20.4
	c0.34,0.021,0.68,0.04,0.72-0.24c2.23,0.7,4.025,3.901,6.72,6c2.209,1.72,4.48,2.5,6.24,4.08c10.148,4.472,21.031,4.043,29.04-1.68
	c4.52-3.229,7.504-7.486,13.92-5.04c3.382,1.29,8.18,5.19,10.56,8.16c3.382,4.22,6.629,11.952,6.24,16.8
	C94.185,62.774,84.989,63.059,76.015,62.27z"/>
<path fill-rule="evenodd" clip-rule="evenodd" fill="#774727" d="M51.295,32.029c0.32,0,0.64,0,0.96,0
	c0.039,0.279-0.053,0.427-0.24,0.48c-0.241,0-0.286,0.194-0.48,0.24c-0.204,0.044-0.227-0.094-0.24-0.24
	C51.295,32.35,51.295,32.189,51.295,32.029z"/>
<path fill-rule="evenodd" clip-rule="evenodd" fill="#64746C" d="M77.935,63.47c0.729,0.15,2.067-0.308,2.4,0.24
	C79.605,63.559,78.268,64.017,77.935,63.47z"/>
<path fill-rule="evenodd" clip-rule="evenodd" fill="#2B2824" d="M60.415,69.229c1.073,0.008-0.526,0.706,0,1.68
	C59.365,70.926,60.137,69.4,60.415,69.229z"/>
<path fill-rule="evenodd" clip-rule="evenodd" fill="#B8BEBE" d="M45.295,70.67c0.303,0.576,1.892-0.133,2.16,0.479
	C46.791,70.934,45.202,71.643,45.295,70.67z"/>
<path fill-rule="evenodd" clip-rule="evenodd" fill="#64746C" d="M63.055,113.39c2.608-7.132,4.44-15.051,4.8-24.24
	c1.655,0.105,2.936,0.585,3.84,1.44c0.908,3.332,1.805,6.675,2.4,10.319c-2.092,1.188-4.176,2.385-5.76,4.08
	c1.787,3.413,5.502,4.898,7.2,8.4C71.375,113.39,67.215,113.39,63.055,113.39z"/>
<path fill-rule="evenodd" clip-rule="evenodd" fill="#64746C" d="M35.695,113.39c2.6-3.855,6.037-7.732,10.56-10.32
	c-0.813-1.267-1.961-2.199-2.64-3.6c1.361-3.438,3.485-6.115,5.76-8.641c0.349,0.371,1.229,0.212,1.92,0.24
	c-2.062,6.563-3.832,13.66-3.36,22.32C43.854,113.39,39.775,113.39,35.695,113.39z"/>
<path fill-rule="evenodd" clip-rule="evenodd" fill="#774727" d="M90.175,113.39c-4.4,0-8.8,0-13.2,0
	c-1.898-3.062-4.101-5.819-7.2-7.68c1.16-2.041,3.412-2.988,5.521-4.08c-0.292-2.902-1.213-7.055-2.16-10.08
	c7.923,2.294,13.761,6.027,20.4,9.12C91.352,103.739,89.869,108.612,90.175,113.39z"/>
<path fill-rule="evenodd" clip-rule="evenodd" fill="#774727" d="M34.255,113.39c-2.8,0-5.6,0-8.4,0
	c0.432-1.485,0.189-3.155,0.48-4.561c0.699-3.375,2.571-7.66,4.56-9.119c1.653-1.213,4.512-1.764,6.72-2.641
	c2.425-0.963,4.857-2.062,7.44-2.64c-0.947,1.613-1.933,3.187-2.88,4.8c0.572,1.429,1.711,2.289,2.4,3.6
	C40.345,105.561,36.813,108.988,34.255,113.39z"/>
<path fill-rule="evenodd" clip-rule="evenodd" fill="#64746C" d="M21.774,113.39c0.594-4.406,1.342-12.69,6.96-12.72
	c-2.776,3.946-3.732,8.97-3.6,12.72C24.015,113.39,22.895,113.39,21.774,113.39z"/>
<path fill-rule="evenodd" clip-rule="evenodd" fill="#64746C" d="M91.375,113.39c0.137-5.232,0.463-9.146,3.84-12.48
	c3.526,1.832,4.89,9.022,5.52,12.48C97.615,113.39,94.495,113.39,91.375,113.39z"/>
<path fill-rule="evenodd" clip-rule="evenodd" fill="#774727" d="M56.334,113.39c-0.24,0-0.48,0-0.72,0
	c0.372-0.491,0.372-2.148,0-2.64c-0.656,0.265-0.187,1.977-0.24,2.64c-0.32,0-0.64,0-0.96,0c0.25-3.544,0.428-6.845,0.72-11.28
	c0.896-0.021,0.684-0.269,1.44,0C56.475,106.821,56.681,110.047,56.334,113.39z"/>
<path fill-rule="evenodd" clip-rule="evenodd" fill="#64746C" d="M53.455,110.029c0,1.12,0,2.24,0,3.36c-0.08,0-0.16,0-0.24,0
	C53.37,112.345,52.902,110.677,53.455,110.029z"/>
<path fill-rule="evenodd" clip-rule="evenodd" fill="#2B2824" d="M55.615,113.39c-0.08,0-0.16,0-0.24,0
	c0.054-0.663-0.416-2.375,0.24-2.64C55.986,111.241,55.986,112.898,55.615,113.39z"/>
<path fill-rule="evenodd" clip-rule="evenodd" fill="#C1A160" d="M91.854,61.069c0.7-0.739,1.322-1.558,2.16-2.16
	C93.633,59.968,92.734,60.509,91.854,61.069z"/>
<path fill-rule="evenodd" clip-rule="evenodd" fill="#C1A160" d="M75.774,26.27c1.313-0.114,2.066,0.334,2.641,0.96
	C77.55,26.894,76.582,26.662,75.774,26.27z"/>
<path fill-rule="evenodd" clip-rule="evenodd" fill="#64746C" d="M73.854,12.589c0.98,0.78,1.86,1.66,2.641,2.64
	C75.515,14.45,74.635,13.57,73.854,12.589z"/>
<path fill-rule="evenodd" clip-rule="evenodd" fill="#C1A160" d="M23.215,38.029c-0.5-0.46-1-0.92-1.2-1.68
	C22.508,36.668,23.475,37.753,23.215,38.029z"/>
<path fill-rule="evenodd" clip-rule="evenodd" fill="#64746C" d="M63.535,108.59c-0.349,1.491-0.793,2.888-1.44,4.08
	C62.429,111.163,62.902,109.798,63.535,108.59z"/>
<path fill-rule="evenodd" clip-rule="evenodd" fill="#B8BEBE" d="M65.215,94.189c0.127-1.473,0.936-2.264,1.2-3.6
	c0.972,0.259-0.073,1.143,0.239,2.16c-0.26-0.06-0.162-0.478-0.479-0.48C65.786,92.841,65.7,93.716,65.215,94.189z"/>
<path fill-rule="evenodd" clip-rule="evenodd" fill="#B8BEBE" d="M63.535,97.31c0.217-0.742,0.598-1.322,0.96-1.92
	c0.079,0,0.159,0,0.239,0C64.296,95.991,64.235,96.97,63.535,97.31z"/>
<path fill-rule="evenodd" clip-rule="evenodd" fill="#B8BEBE" d="M57.775,101.39c0.66-0.46,0.815-1.426,1.44-1.92
	C58.93,100.305,58.775,101.271,57.775,101.39z"/>
<path fill-rule="evenodd" clip-rule="evenodd" fill="#B8BEBE" d="M50.095,100.67c0-0.24,0-0.48,0-0.721
	c0.425,0.532,1.347,0.7,1.44-0.239c0.619,0.058-0.33,0.412,0,0.96C50.705,100.864,50.521,100.222,50.095,100.67z"/>
<path fill-rule="evenodd" clip-rule="evenodd" fill="#64746C" d="M49.375,106.189c0.031,1.554-0.435,4.684-0.24,7.2
	c-0.08,0-0.16,0-0.24,0C48.906,110.841,48.766,108.141,49.375,106.189z"/>
<path fill-rule="evenodd" clip-rule="evenodd" fill="#64746C" d="M38.095,54.83c-0.239-0.961-1.688-0.712-1.68-1.92
	C36.913,53.611,37.943,53.781,38.095,54.83z"/>
<path fill-rule="evenodd" clip-rule="evenodd" fill="#2B2824" d="M45.775,36.35c0-0.4,0-0.8,0-1.2c0.28,0.36,0.693,0.587,0.72,1.2
	c-0.193,0.127-0.39,0.25-0.72,0.24C45.775,36.509,45.775,36.429,45.775,36.35z"/>
<path fill-rule="evenodd" clip-rule="evenodd" fill="#B8BEBE" d="M56.575,25.069c-0.032,2.474-1.319,3.651-2.16,6.24
	c-0.734,0.174-0.706-0.414-1.44-0.24c-0.053-0.773,0.425-1.016,0.24-1.92c-0.957-0.157-0.688,0.913-0.72,1.68
	c-0.716,0.287-0.816,0.066-1.44-0.24c-0.004-2.467,0.415-4.69,0.96-6.24c1.564,1.091,0.717,2.296,0.96,4.08
	c0.777,0.297,0.184-0.776,0.96-0.48C52.732,26.392,54.715,25.033,56.575,25.069z"/>
<path fill-rule="evenodd" clip-rule="evenodd" fill="#B8BEBE" d="M56.815,30.83c-0.938,0.103-0.659,1.421-1.92,1.2
	c0.125-1.554,0.977-2.383,1.44-3.6c0.876-0.156,1.278,0.162,1.68,0.48c-0.296,0.504-0.664,0.936-0.96,1.44
	C57.323,30.645,57.264,30.842,56.815,30.83z"/>
<path fill-rule="evenodd" clip-rule="evenodd" fill="#B8BEBE" d="M58.255,30.109c0.214-0.106,0.429-0.211,0.479-0.48
	c0.531,0.189,0.601,0.839,0.96,1.2c-0.748,1.411-1.936,2.384-3.6,2.88c-0.56-1.063,0.179-1.982,0.96-2.4
	C57.534,30.988,58.095,30.75,58.255,30.109z"/>
<path fill-rule="evenodd" clip-rule="evenodd" fill="#2B2824" d="M57.055,30.35c0.5,0.521,0.776-0.029,1.2-0.24
	c-0.16,0.641-0.721,0.879-1.2,1.2c-0.045-0.194-0.241-0.239-0.24-0.48C57.264,30.842,57.323,30.645,57.055,30.35z"/>
<path fill-rule="evenodd" clip-rule="evenodd" fill="#B8BEBE" d="M47.455,28.669c1.314,0.874,0.99,2.922,0.96,4.8
	C46.556,33.167,46.316,29.927,47.455,28.669z"/>
<path fill-rule="evenodd" clip-rule="evenodd" fill="#B8BEBE" d="M61.854,33.229c-1.787,0.559-3.653,2.23-5.52,1.92
	C57.816,34.305,61.094,29.636,61.854,33.229z"/>
<path fill-rule="evenodd" clip-rule="evenodd" fill="#774727" d="M51.295,32.029c0,0.16,0,0.32,0,0.48
	c-1.412,0.348-1.28,2.24-1.68,3.6c-0.356-0.204-0.516-0.604-0.48-1.2C49.601,35.242,48.951,32.205,51.295,32.029z"/>
<path fill-rule="evenodd" clip-rule="evenodd" fill="#774727" d="M52.015,32.509c-0.371,0.846,1.171,2.394,0.24,3.84
	c-0.679-0.199-0.622,0.338-1.2,0.24c-0.773-1.344,0.131-2.843,0.48-3.84C51.729,32.704,51.774,32.509,52.015,32.509z"/>
<path fill-rule="evenodd" clip-rule="evenodd" fill="#774727" d="M53.215,33.469c1.068,0.698,0.103,2.086,1.68,2.4
	c-0.03,0.53-1.018,0.102-1.44,0.24C53.376,35.228,53.66,33.985,53.215,33.469z"/>
<path fill-rule="evenodd" clip-rule="evenodd" fill="#774727" d="M53.215,33.469c-0.074-0.566-0.833-0.446-0.72-1.2
	c1.89-0.781,3.324,2.047,2.88,3.6c-0.16,0-0.32,0-0.48,0C53.317,35.555,54.283,34.167,53.215,33.469z"/>
<path fill-rule="evenodd" clip-rule="evenodd" fill="#2B2824" d="M47.215,35.87c0.24,0,0.48,0,0.72,0
	c0.295,0.104,0.493,0.307,0.48,0.72C47.855,36.509,47.381,36.343,47.215,35.87z"/>
<path fill-rule="evenodd" clip-rule="evenodd" fill="#B8BEBE" d="M47.215,35.87c-0.146-0.575-0.345-1.095-0.24-1.92
	c1.398,0.033,1.219,1.215,0.96,1.92C47.695,35.87,47.455,35.87,47.215,35.87z"/>
<path fill-rule="evenodd" clip-rule="evenodd" fill="#64746C" d="M65.215,46.669c0.669-0.292,0.909-1.011,1.2-1.68
	c-0.067,0.547,0.058,0.902,0.479,0.96C66.377,46.231,65.793,46.447,65.215,46.669z"/>
<path fill-rule="evenodd" clip-rule="evenodd" fill="#64746C" d="M58.975,44.029c0.504-0.565,1.896,0.01,2.4,0.24
	C60.326,44.438,60.022,43.861,58.975,44.029z"/>
<path fill-rule="evenodd" clip-rule="evenodd" fill="#EEBD34" d="M38.095,53.149c-3.346-1.022,3.344-8.399,5.04-8.88
	c0.861-0.245,1.841,0.212,2.16,0C42.794,47.129,40.45,50.145,38.095,53.149z"/>
<path fill-rule="evenodd" clip-rule="evenodd" fill="#64746C" d="M36.175,47.39c0.602,1.082,1.134-0.768,1.92-0.96
	c-0.569,0.631-0.953,1.447-1.92,1.68C36.175,47.87,36.175,47.629,36.175,47.39z"/>
<path fill-rule="evenodd" clip-rule="evenodd" fill="#774727" d="M54.655,50.989c0.788-0.812,1.143-2.057,2.16-2.64
	C56.027,49.162,55.671,50.406,54.655,50.989z"/>
<path fill-rule="evenodd" clip-rule="evenodd" fill="#EEBD34" d="M56.575,50.27c-1.38,1.58-1.978,3.942-3.84,5.04
	c-0.924-1.334,1.301-3,1.92-4.32c1.017-0.583,1.373-1.827,2.16-2.64c1.253-1.066,1.803-2.836,3.839-3.12
	c0.552,0.786-0.994,1.134-1.199,1.92C58.27,47.964,57.477,49.172,56.575,50.27z"/>
<path fill-rule="evenodd" clip-rule="evenodd" fill="#774727" d="M56.575,50.27c0.902-1.098,1.695-2.305,2.88-3.12
	C58.463,48.157,57.708,49.403,56.575,50.27z"/>
<path fill-rule="evenodd" clip-rule="evenodd" fill="#774727" d="M57.775,56.989c1.124-0.796,2.36-1.479,3.36-2.4
	C60.318,55.693,59.186,56.48,57.775,56.989z"/>
<path fill-rule="evenodd" clip-rule="evenodd" fill="#774727" d="M55.615,57.229c-1.325,0.044-2.186-0.374-2.88-0.96
	C53.634,56.65,54.695,56.869,55.615,57.229z"/>
<path fill-rule="evenodd" clip-rule="evenodd" fill="#C1A160" d="M46.495,62.27c0.702-0.431,3.842-1.679,3.36-0.96
	C48.754,61.649,47.654,61.989,46.495,62.27z"/>
<path fill-rule="evenodd" clip-rule="evenodd" fill="#774727" d="M47.455,81.229c1.008,0.365,1.555-0.317,2.4,0.48
	c-0.637,0.348-1.773-0.241-2.4,0.96C47.553,81.918,48.321,81.688,47.455,81.229z"/>
<path fill-rule="evenodd" clip-rule="evenodd" fill="#C1A160" d="M61.135,54.589c1.686-1.754,2.461-4.419,3.36-6.96
	c1.669-0.229,1.301,1.579,2.159,2.16c-0.838,1.015,0.19,2.852,0,4.8c-0.168,1.72-2.069,3.808,0.24,4.8
	c0.965-2.979,3.74-8.608,8.4-5.76c4.617,2.822-2.571,14.401-9.12,9.6c-0.686,9.946-3.141,23.802-11.28,26.64
	c-3.427,1.195-8.672-0.463-7.44-7.199c0.627-1.201,1.763-0.612,2.4-0.96c-0.845-0.798-1.392-0.115-2.4-0.48
	c-0.562,0.387-1.908-0.046-2.4-0.479c-0.095-2.681,2.296-1.278,3.36-1.2c10.997,0.802,12.411-6.414,14.88-15.601
	c0.423-0.212,0.396-1.064,0.96-0.479c-0.063-1.137-0.927-1.474-1.44-2.16c-0.569,0.15,0.037,1.478-0.479,1.68
	c-4.683,2.705-11.969,5.61-18,4.08c0.375-1.421,0.497-1.849,0.72-3.6c2.708-0.256,8.895-1.81,8.4-4.32
	c-0.292-1.48-2.577-1.471-4.08-1.2c0.472,0.888,2.352,0.369,2.88,1.2c-0.008,1.512-1.509,1.531-2.4,2.16
	c0.482-0.719-2.658,0.529-3.36,0.96c-0.08,0-0.16,0-0.24,0c-0.068-0.052-2.239-0.171-2.64,0.24c-2.63,0.23-6.611-0.03-7.44-1.92
	c-1.867-4.256,6.505-5.041,9.84-6c0.97-1.03,1.212-2.788,2.64-3.36c0.943,2.097,2.121,3.958,4.08,5.04
	c0.694,0.586,1.555,1.004,2.88,0.96c0.598-0.202,1.286-0.314,2.16-0.24C59.186,56.48,60.318,55.693,61.135,54.589z M74.814,55.069
	c-3.678-0.237-5.759,1.121-6.239,4.08c1.243-0.596,1.525-2.154,3.119-2.4c0.758,0.523,0.406,2.154,0.48,3.36
	c1.545-0.42,1.206-2.578,0.72-3.84c0.532-0.698,0.976-0.095,2.16-0.24C75.072,55.611,75.001,55.283,74.814,55.069z"/>
<path fill-rule="evenodd" clip-rule="evenodd" fill="#C1A160" d="M43.615,62.51c0.401-0.411,2.572-0.292,2.64-0.24
	C45.739,62.714,44.497,62.432,43.615,62.51z"/>
<path fill-rule="evenodd" clip-rule="evenodd" fill="#EEBD34" d="M62.814,49.069c-0.891,2.949-2.028,5.651-5.04,6.48
	C58.81,52.744,60.581,50.675,62.814,49.069z"/>
<path fill-rule="evenodd" clip-rule="evenodd" fill="#EEBD34" d="M45.295,51.709c0.657-1.023,1.743-1.617,2.4-2.64
	c0.676,0.243-0.066,1.02,0,1.44c-0.08,0-0.16,0-0.24,0c-0.045-0.194-0.241-0.239-0.24-0.48
	C46.428,50.443,46.081,51.296,45.295,51.709z"/>
<path fill-rule="evenodd" clip-rule="evenodd" fill="#EEBD34" d="M47.455,50.509c-0.805,1.835-1.822,3.458-4.08,3.84
	c0.313-1.208,1.367-1.673,1.92-2.64c0.786-0.414,1.133-1.266,1.92-1.68C47.214,50.27,47.409,50.315,47.455,50.509z"/>
<path fill-rule="evenodd" clip-rule="evenodd" fill="#2B2824" d="M15.294,53.629c0.821-1.419,1.941-2.539,3.36-3.36
	c-0.556,1.204-1.573,1.947-2.4,2.88c-0.481-0.082-0.75,0.049-0.72,0.48C15.455,53.629,15.375,53.629,15.294,53.629z"/>
<path fill-rule="evenodd" clip-rule="evenodd" fill="#2B2824" d="M13.615,70.189c-0.167,0.971,0.035,2.294,0.96,1.44
	c-0.024,0.61-0.895,0.566-1.2,0.239C13.518,71.372,13.078,70.293,13.615,70.189z"/>
<path fill-rule="evenodd" clip-rule="evenodd" fill="#2B2824" d="M18.415,66.59c0.875-1.445,2.693-1.947,2.88-4.08
	C21.841,64.419,19.383,65.396,18.415,66.59z"/>
<path fill-rule="evenodd" clip-rule="evenodd" fill="#2B2824" d="M24.175,52.189c0.106,0.349,0.21-0.024,0.48,0
	c-1.602,2.638-4.475,4.005-5.04,7.68c-0.014,1.134,0.876,1.364,1.44,1.92c0.281,0.039,0.202,0.438,0.24,0.721
	c-0.187,2.133-2.004,2.635-2.88,4.08c-1.196,1.764-2.875,3.045-3.84,5.04c-0.925,0.854-1.127-0.47-0.96-1.44
	c0.575-2.306,1.654-4.106,2.4-6.24c0.979-0.31-0.005-2.46-0.48-1.92c-0.697-0.583-1.54-1.02-2.4-1.439
	c-0.404-3.445,0.829-5.252,2.16-6.96c0.08,0,0.16,0,0.24,0c-0.031-0.431,0.238-0.562,0.72-0.48c-0.979,1.901-2.462,3.298-2.16,6.48
	c3.811,1.532,3.639,4.552,1.44,8.159c1.663-0.578,3.712-2.846,4.8-4.8c-0.169-1.431-1.489-1.71-1.92-2.88
	C19.401,56.536,21.773,54.348,24.175,52.189z"/>
<path fill-rule="evenodd" clip-rule="evenodd" fill="#2B2824" d="M24.175,52.189c0.361-1.274,1.902-0.732,0.48,0
	C24.385,52.165,24.281,52.539,24.175,52.189z"/>
<path fill-rule="evenodd" clip-rule="evenodd" fill="#2B2824" d="M19.615,59.869c0.314,0.806,1.204,1.036,1.44,1.92
	C20.491,61.233,19.601,61.003,19.615,59.869z"/>
<path fill-rule="evenodd" clip-rule="evenodd" fill="#B8BEBE" d="M60.654,64.67c0.801,0,0.819-0.781,1.681-0.721
	c-0.183,1.657-0.577,3.104-1.2,4.32c-0.989-0.593-0.451,0.521-1.44,0.479c0.006-0.564-0.413-0.706-0.239-1.439
	c-0.055-0.426,0.241-1.202-0.48-0.96C59.21,65.465,60.505,65.64,60.654,64.67z"/>
<path fill-rule="evenodd" clip-rule="evenodd" fill="#2B2824" d="M57.775,66.35c0.858-0.661,2.185-0.854,2.879-1.68
	c-0.149,0.97-1.444,0.795-1.68,1.68c0.722-0.242,0.426,0.534,0.48,0.96c-0.252-0.302-0.75-1.707-0.721-0.24c-0.08,0-0.16,0-0.239,0
	c0-0.24,0-0.479,0-0.72C58.255,66.35,58.015,66.35,57.775,66.35z"/>
<path fill-rule="evenodd" clip-rule="evenodd" fill="#2B2824" d="M51.535,73.069c2.265,0.897,1.784-1.936,2.16-3.6
	c0.08,1.76,0.092,3.452-0.72,4.319c-1.021-0.208-1.904,0.96-2.4,0.48c0.459-0.421,1.251-0.509,1.92-0.72
	C52.667,72.897,51.363,73.722,51.535,73.069z"/>
<path fill-rule="evenodd" clip-rule="evenodd" fill="#B8BEBE" d="M46.015,76.67c0-0.4,0-0.801,0-1.2
	c0.763-0.037,1.056-0.544,1.92-0.48C47.155,75.41,46.103,75.558,46.015,76.67z"/>
<path fill-rule="evenodd" clip-rule="evenodd" fill="#2B2824" d="M54.655,72.109c0.928,0.129,1.171-0.429,2.16-0.24
	c-0.246,0.955-1.095,1.306-1.92,1.681c0.042,0.849,0.781,2.244,0.24,2.88c-0.075-1.045-0.277-1.963-0.48-2.88
	c0.597-0.443,1.354-0.726,1.68-1.44C55.55,71.773,54.783,73.304,54.655,72.109z"/>
<path fill-rule="evenodd" clip-rule="evenodd" fill="#B8BEBE" d="M45.295,70.67c0-0.641,0-1.28,0-1.921
	c0.511-0.265,1.95-0.248,3.36-0.239c0.313,0.933-0.004,1.241,0,2.88c-0.678,0.198-0.622-0.339-1.2-0.24
	C47.187,70.537,45.598,71.246,45.295,70.67z"/>
<path fill-rule="evenodd" clip-rule="evenodd" fill="#B8BEBE" d="M15.055,78.59c-1.117-0.084-1.598-0.803-2.16-1.44
	C13.664,74.494,16.03,76.476,15.055,78.59z"/>
<path fill-rule="evenodd" clip-rule="evenodd" fill="#B8BEBE" d="M60.654,86.75c0.329-1.112,1.422-1.459,1.681-2.641
	c2.928,1.284,5.151,4.938,2.16,8.16c0.279,2.255-1.612,3.285-2.4,5.521c-1.976-1.586-2.595-4.394-5.04-6.001
	c0.362-0.438,0.255-1.345,0.72-1.68C58.194,88.449,60.067,88.242,60.654,86.75z"/>
<path fill-rule="evenodd" clip-rule="evenodd" fill="#B8BEBE" d="M57.775,90.109c0.199-1.88,1.971-2.188,2.879-3.359
	C60.067,88.242,58.194,88.449,57.775,90.109z"/>
<path fill-rule="evenodd" clip-rule="evenodd" fill="#B8BEBE" d="M51.055,96.109c0.796-1.659,0.653-6.365,4.08-5.28
	c-1.977,1.537-2.73,2.846-3.36,5.761C51.293,96.671,51.024,96.54,51.055,96.109z"/>
<path fill-rule="evenodd" clip-rule="evenodd" fill="#C1A160" d="M53.455,94.189c-0.331,1.022-0.059,2.553-0.24,3.12
	C52.822,96.414,52.919,94.853,53.455,94.189z"/>
<path fill-rule="evenodd" clip-rule="evenodd" fill="#C1A160" d="M53.215,97.55c0.515,0.765,0.665,1.896,1.2,2.64
	C53.667,99.657,53.374,98.671,53.215,97.55z"/>
<path fill-rule="evenodd" clip-rule="evenodd" fill="#EEBD34" d="M53.455,94.189c4.87-7.949,7.624,11.032,0.96,6
	c-0.535-0.744-0.685-1.875-1.2-2.64c0-0.08,0-0.16,0-0.24C53.396,96.742,53.124,95.212,53.455,94.189z"/>
<path fill-rule="evenodd" clip-rule="evenodd" fill="#C1A160" d="M51.535,16.429c0.799,1.284,0.592,4.845,0.24,6.48
	C51.784,20.66,51.845,18.359,51.535,16.429z"/>
<path fill-rule="evenodd" clip-rule="evenodd" fill="#C1A160" d="M20.095,26.75c0.397,0.685-0.128,0.98,0,2.4
	C19.697,28.891,19.697,27.008,20.095,26.75z"/>
<path fill-rule="evenodd" clip-rule="evenodd" fill="#64746C" d="M49.135,30.589c-0.301-0.317-0.63-2.698,0.24-2.64
	C48.93,28.465,49.213,29.708,49.135,30.589z"/>
<path fill-rule="evenodd" clip-rule="evenodd" fill="#B8BEBE" d="M95.694,54.589c0.116-1.626,0.408-3.021,0-4.56
	C96.514,50.95,96.239,53.593,95.694,54.589z"/>
<path fill-rule="evenodd" clip-rule="evenodd" fill="#2B2824" d="M36.415,52.91c-1.428-1.052-0.651-4.309-1.44-6
	c-4.524-2.356-9.129-4.631-11.76-8.88c0.26-0.276-0.707-1.361-1.2-1.68c-1.15-1.89-1.75-4.33-1.92-7.2
	c-0.128-1.419,0.397-1.715,0-2.4c1.804-8.825,8.153,2.697,11.04,4.32c2.813,1.027,5.021,2.659,7.92,3.6
	c0.453,0.427,0.969,0.791,1.92,0.72c1.72,0.2,2.72,1.12,4.8,0.96c0,0.08,0,0.16,0,0.24c0.33,0.01,0.527-0.113,0.72-0.24
	c-0.027-0.613-0.44-0.84-0.72-1.2c-0.618-3.298-0.544-8.936,2.4-10.32c1.006-0.474,1.926-0.077,3.12-0.72
	c0.524-0.035,0.515-0.604,0.48-1.2c0.352-1.635,0.559-5.196-0.24-6.48c-2.101-2.516-4.125-8.22,0.72-8.88
	c2.229-0.304,3.601,1.542,6,1.68c3.424,0.197,5.531-2.419,8.399-1.44c2.763,1.237,5.115,2.885,7.2,4.8
	c0.78,0.98,1.66,1.86,2.641,2.64c0.354,3.689-3.687,6.165-2.641,10.56c0.526,0.273,0.98,0.619,1.92,0.48
	c0.808,0.392,1.775,0.625,2.641,0.96c9.484,3.875,15.175,11.545,17.279,22.8c0.408,1.539,0.116,2.934,0,4.56
	c-0.154,0.885-0.246,1.834-0.72,2.4c-0.31,0.65-0.833,1.087-0.96,1.92c-0.838,0.603-1.46,1.421-2.16,2.16
	c-2.306,1.135-4.425,2.455-7.92,2.4c-0.887,0.153-2.391-0.311-2.88,0.24c-0.24,0-0.479,0-0.72,0c-0.333-0.548-1.671-0.09-2.4-0.24
	c-3.376-0.973-4.414,1.368-7.68,1.68c-0.443,2.065-2.934,1.729-3.84,3.6c-0.883,1.823-0.668,5.178-1.2,7.681
	c-0.562,2.64-1.496,4.684-2.16,6.72c1.659,1.381,3.09,2.99,4.32,4.8c1.661,0.179,2.826,0.854,4.319,1.2
	c0.86,0.181,1.018,1.063,1.681,1.44c8.572,1.929,14.444,7.766,22.56,9.359c3.689,2.791,4.861,8.099,6,13.44c-0.399,0-0.8,0-1.2,0
	c-0.63-3.458-1.993-10.648-5.52-12.48c-3.377,3.335-3.703,7.248-3.84,12.48c-0.4,0-0.8,0-1.2,0c-0.306-4.777,1.177-9.65,3.36-12.72
	c-6.64-3.093-12.478-6.826-20.4-9.12c0.947,3.025,1.868,7.178,2.16,10.08c-2.108,1.092-4.36,2.039-5.521,4.08
	c3.1,1.86,5.302,4.618,7.2,7.68c-0.479,0-0.96,0-1.439,0c-1.698-3.502-5.413-4.987-7.2-8.4c1.584-1.695,3.668-2.892,5.76-4.08
	c-0.596-3.645-1.492-6.987-2.4-10.319c-0.904-0.855-2.185-1.335-3.84-1.44c-0.359,9.189-2.191,17.108-4.8,24.24
	c-0.32,0-0.64,0-0.96,0c0-0.24,0-0.48,0-0.72c0.647-1.192,1.092-2.589,1.44-4.08c1.867-5.323,2.361-10.711,3.119-15.84
	c-0.313-1.018,0.732-1.901-0.239-2.16c-0.265,1.336-1.073,2.127-1.2,3.6c-0.103,0.458-0.686,0.435-0.48,1.2c-0.08,0-0.16,0-0.239,0
	c-0.362,0.598-0.743,1.178-0.96,1.92c-0.573,0.872-1.68,2.475-2.4,2.4c-0.666-0.922-0.61-1.929-1.44-3.12
	c0.265,0.68-0.419,1.363-0.479,2.88c-0.625,0.494-0.78,1.46-1.44,1.92c-0.242,3.668-0.112,7.188,0,12c-0.48,0-0.96,0-1.44,0
	c0.346-3.343,0.14-6.568,0.24-11.28c-0.756-0.269-0.543-0.021-1.44,0c-0.292,4.436-0.471,7.736-0.72,11.28c-0.32,0-0.64,0-0.96,0
	c0-1.12,0-2.24,0-3.36c0-3.865,1.747-8.928-1.2-12c-0.334,0.459-0.301,0.894-0.72,1.681c-0.093,0.939-1.015,0.771-1.44,0.239
	c0,0.24,0,0.48,0,0.721c-0.576,1.504-0.705,3.454-0.72,5.52c-0.609,1.951-0.469,4.651-0.48,7.2c-0.32,0-0.64,0-0.96,0
	c-0.471-8.66,1.298-15.757,3.36-22.32c-0.691-0.028-1.571,0.131-1.92-0.24c-2.274,2.525-4.398,5.202-5.76,8.641
	c0.679,1.4,1.827,2.333,2.64,3.6c-4.523,2.588-7.96,6.465-10.56,10.32c-0.48,0-0.96,0-1.44,0c2.559-4.401,6.09-7.829,10.32-10.561
	c-0.689-1.311-1.828-2.171-2.4-3.6c0.947-1.613,1.933-3.187,2.88-4.8c-2.583,0.578-5.015,1.677-7.44,2.64
	c-2.208,0.877-5.067,1.428-6.72,2.641c-1.989,1.459-3.861,5.744-4.56,9.119c-0.291,1.405-0.048,3.075-0.48,4.561
	c-0.24,0-0.48,0-0.72,0c-0.132-3.75,0.824-8.773,3.6-12.72c-5.618,0.029-6.367,8.313-6.96,12.72c-0.24,0-0.48,0-0.72,0
	c-0.138-5.731,1.077-10.626,4.8-12.96c1.269-0.795,2.625-0.708,4.08-1.2c1.428-0.482,2.97-1.317,4.56-1.92
	c5.237-1.983,11.084-3.391,14.16-6.96c-1.229-2.131-2.536-4.185-2.16-7.92c-0.521-0.839-2.115-0.604-2.16-1.92
	c0.325-1.469,1.586-2.897,0.72-4.8c-8.485,1.335-15.064,3.584-24.24,3.84c-1.84,0-3.68,0-5.52,0c-1.709-0.064-3.442-0.609-3.36-2.4
	c0.107-2.342,3.225-2.039,5.28-2.399c7.893-1.387,18.344-4.186,27.36-3.601c0.192-3.631-1.792-3.929-0.72-7.439
	c-3.499-0.192-8.119-0.413-8.88-3.12c-0.912-3.246,1.594-3.84,3.36-5.521c-0.146-0.014-0.284-0.036-0.24-0.24
	C37.943,53.781,36.913,53.611,36.415,52.91z M51.775,8.989c-3.133,2.132-0.468,4.02,0.48,5.76c1.137,2.086,0.763,4.017,1.2,5.76
	c3.771-1.526,3.651,3.542,5.28,5.04c1.747-0.146,2.701,0.499,3.12,1.68c0,0.8,0,1.6,0,2.4c1.441-0.117,2.049,0.659,3.12,1.44
	c2.29-2.233,3.962-3.765,7.44-4.56c-1.022-4.331,2.33-6.977,3.12-10.08c0.241-0.951-2.666-3.616-4.32-4.8
	c-3.736-2.673-8.822-3.375-11.76-0.96c0.73,0.069,1.638-0.038,1.68,0.72C57.182,12.108,56.069,8.154,51.775,8.989z M53.935,27.949
	c-0.776-0.296-0.183,0.777-0.96,0.48c-0.243-1.784,0.604-2.989-0.96-4.08c-0.545,1.549-0.964,3.773-0.96,6.24
	c0.624,0.306,0.724,0.527,1.44,0.24c0.033-0.768-0.236-1.837,0.72-1.68c0.185,0.904-0.293,1.147-0.24,1.92
	c0.734-0.174,0.706,0.414,1.44,0.24c0.841-2.589,2.128-3.767,2.16-6.24C54.715,25.033,52.732,26.392,53.935,27.949z M94.975,52.91
	c0.389-4.849-2.858-12.58-6.24-16.8c-2.38-2.97-7.178-6.87-10.56-8.16c-6.416-2.446-9.4,1.811-13.92,5.04
	c-8.009,5.724-18.892,6.152-29.04,1.68c-1.76-1.58-4.031-2.36-6.24-4.08c-2.695-2.099-4.49-5.3-6.72-6
	c-0.04,0.28-0.379,0.261-0.72,0.24c-1.943,10.306,4.737,17.45,13.44,20.4c0.878-2.732,5.51-1.144,7.92-1.92
	c0.772-3.659,4.16-4.284,6.96-4.56c8.203-0.808,17.81,2.294,23.04,5.28c1.061,2.75,1.822,5.153,1.681,8.16
	c1.325,0.885,2.935,1.356,3.359,3.36c0.614,2.895-1.472,4.981-1.92,6.72C84.989,63.059,94.185,62.774,94.975,52.91z M49.375,27.949
	c-0.87-0.058-0.541,2.323-0.24,2.64c-0.035,0.595-0.045,1.165,0.48,1.2c0.158-0.322,0.513-0.447,0.96-0.48
	c-0.176-1.178-0.373-2.239,0-3.36C50.175,27.949,49.775,27.949,49.375,27.949z M57.055,30.35c0.296-0.504,0.664-0.936,0.96-1.44
	c-0.402-0.318-0.804-0.636-1.68-0.48c-0.463,1.217-1.314,2.046-1.44,3.6c1.261,0.221,0.983-1.097,1.92-1.2
	c-0.001,0.241,0.194,0.286,0.24,0.48c-0.781,0.417-1.52,1.337-0.96,2.4c1.664-0.496,2.852-1.469,3.6-2.88
	c-0.359-0.361-0.429-1.011-0.96-1.2c-0.051,0.269-0.266,0.374-0.479,0.48C57.831,30.32,57.554,30.87,57.055,30.35z M48.415,33.469
	c0.03-1.877,0.354-3.926-0.96-4.8C46.316,29.927,46.556,33.167,48.415,33.469z M56.334,35.149c1.867,0.311,3.733-1.361,5.52-1.92
	C61.094,29.636,57.816,34.305,56.334,35.149z M51.295,32.029c-2.344,0.176-1.694,3.213-2.16,2.88c-0.036,0.596,0.124,0.996,0.48,1.2
	c0.4-1.36,0.268-3.252,1.68-3.6c0.013,0.146,0.036,0.284,0.24,0.24c-0.349,0.997-1.253,2.496-0.48,3.84
	c0.578,0.098,0.521-0.438,1.2-0.24c0.931-1.447-0.611-2.994-0.24-3.84c0.187-0.053,0.279-0.201,0.24-0.48
	C51.935,32.029,51.615,32.029,51.295,32.029z M54.895,35.87c0.16,0,0.32,0,0.48,0c0.444-1.553-0.99-4.381-2.88-3.6
	c-0.113,0.753,0.646,0.634,0.72,1.2c0.445,0.516,0.162,1.758,0.24,2.64C53.876,35.971,54.865,36.399,54.895,35.87z M47.935,35.87
	c0.259-0.706,0.438-1.887-0.96-1.92c-0.105,0.825,0.095,1.345,0.24,1.92c0.166,0.474,0.64,0.64,1.2,0.72
	C48.428,36.177,48.23,35.974,47.935,35.87z M66.415,44.989c0.424-0.21,0.7-0.761,1.199-0.24c-0.382-0.897-1.104-1.456-1.199-2.64
	c-4.154-0.855-7.543-2.745-10.32-2.16c-1.332,0.281-1.769,1.161-3.36,0.96c-0.904-0.114-1.684-1.074-2.64-1.2
	c-2.046,0.706-6.07,0.415-5.52,3.6c5.342,0.005,11.083-0.008,14.4,0.72c1.048-0.168,1.352,0.408,2.4,0.24
	c2.469,0.456,3.145,0.617,3.84,2.4c0.578-0.222,1.162-0.438,1.68-0.72C66.473,45.892,66.348,45.537,66.415,44.989z M45.295,44.27
	c-0.319,0.212-1.299-0.245-2.16,0c-1.696,0.481-8.386,7.858-5.04,8.88C40.45,50.145,42.794,47.129,45.295,44.27z M38.095,46.43
	c0.622-0.418,1.137-0.943,1.44-1.68c-0.96,0-1.92,0-2.88,0c-0.474,0.666-0.661,1.621-0.48,2.64c0,0.24,0,0.48,0,0.72
	C37.142,47.876,37.526,47.061,38.095,46.43z M59.455,47.149c0.205-0.786,1.751-1.134,1.199-1.92
	c-2.036,0.284-2.586,2.054-3.839,3.12c-1.017,0.583-1.373,1.828-2.16,2.64c-0.619,1.32-2.844,2.986-1.92,4.32
	c1.862-1.098,2.459-3.46,3.84-5.04C57.708,49.403,58.463,48.157,59.455,47.149z M47.455,82.67c-1.232,6.736,4.013,8.395,7.44,7.199
	c8.14-2.838,10.595-16.693,11.28-26.64c6.549,4.801,13.737-6.778,9.12-9.6c-4.66-2.848-7.436,2.782-8.4,5.76
	c-2.31-0.992-0.408-3.08-0.24-4.8c0.19-1.948-0.838-3.785,0-4.8c-0.858-0.581-0.49-2.39-2.159-2.16
	c-0.899,2.541-1.675,5.206-3.36,6.96c-1,0.92-2.236,1.604-3.36,2.4c-0.875-0.074-1.562,0.039-2.16,0.24
	c-0.919-0.361-1.981-0.579-2.88-0.96c-1.959-1.082-3.137-2.943-4.08-5.04c-1.428,0.572-1.67,2.33-2.64,3.36
	c-3.335,0.96-11.707,1.744-9.84,6c0.829,1.89,4.81,2.15,7.44,1.92c0.882-0.078,2.125,0.204,2.64-0.24c0.08,0,0.16,0,0.24,0
	c1.16-0.28,2.26-0.62,3.36-0.96c0.891-0.629,2.392-0.648,2.4-2.16c-0.529-0.831-2.409-0.312-2.88-1.2
	c1.503-0.271,3.789-0.281,4.08,1.2c0.495,2.511-5.692,4.064-8.4,4.32c-0.224,1.751-0.345,2.179-0.72,3.6
	c6.031,1.53,13.318-1.375,18-4.08c0.517-0.202-0.09-1.529,0.479-1.68c0.514,0.687,1.377,1.023,1.44,2.16
	c-0.563-0.585-0.537,0.268-0.96,0.479c-2.47,9.187-3.884,16.402-14.88,15.601c-1.063-0.078-3.455-1.48-3.36,1.2
	c0.492,0.434,1.838,0.866,2.4,0.479C48.321,81.688,47.553,81.918,47.455,82.67z M57.775,55.549c3.011-0.829,4.149-3.531,5.04-6.48
	C60.581,50.675,58.81,52.744,57.775,55.549z M47.455,50.509c0.08,0,0.16,0,0.24,0c-0.066-0.42,0.676-1.197,0-1.44
	c-0.657,1.023-1.743,1.617-2.4,2.64c-0.553,0.967-1.608,1.432-1.92,2.64C45.633,53.968,46.65,52.345,47.455,50.509z M59.455,67.31
	c-0.174,0.733,0.245,0.875,0.239,1.439c0.989,0.041,0.451-1.072,1.44-0.479c0.623-1.217,1.018-2.663,1.2-4.32
	c-0.861-0.061-0.88,0.721-1.681,0.721c-0.694,0.825-2.021,1.019-2.879,1.68c-3.575,1.317-4.96,1.348-8.4,2.399
	c0.507,1.173,0.025,3.335,0.72,4.32c0.843,0.116,0.789,0.277,1.44,0c-0.172,0.652,1.132-0.172,0.96,0.48
	c-0.668,0.211-1.46,0.299-1.92,0.72c-1.134,0.693-0.203,2.171-0.72,2.64c-0.307-0.013-0.332-0.308-0.72-0.239
	c0.614-0.643-0.145-1.266,0-2.16c-0.597-0.037-0.743,0.377-1.2,0.479c-0.864-0.063-1.157,0.443-1.92,0.48c0,0.399,0,0.8,0,1.2
	c0,0.399,0,0.8,0,1.199c2.054,0.615,4.139,1.029,6,0.96c4.622-0.172,6.834-3.931,8.16-7.68c-0.987,0.236-1.968,0.245-2.4,0.24
	c-0.267-1.307,1.313-0.767,1.2-1.92c-0.312-0.404-0.02-1.594-0.479-2.4c0.079,0,0.159,0,0.239,0
	C58.705,65.603,59.203,67.008,59.455,67.31z M60.415,70.909c-0.526-0.974,1.073-1.672,0-1.68
	C60.137,69.4,59.365,70.926,60.415,70.909z M47.455,71.149c0.578-0.099,0.522,0.438,1.2,0.24c-0.004-1.639,0.313-1.947,0-2.88
	c-1.41-0.009-2.849-0.025-3.36,0.239c0,0.641,0,1.28,0,1.921C45.202,71.643,46.791,70.934,47.455,71.149z M12.895,77.149
	c0.562,0.638,1.043,1.356,2.16,1.44C16.03,76.476,13.664,74.494,12.895,77.149z M57.775,90.109c-0.465,0.335-0.358,1.242-0.72,1.68
	c2.445,1.607,3.064,4.415,5.04,6.001c0.788-2.235,2.68-3.266,2.4-5.521c2.991-3.223,0.768-6.876-2.16-8.16
	c-0.259,1.182-1.352,1.528-1.681,2.641C59.746,87.921,57.974,88.229,57.775,90.109z M51.775,96.59
	c0.629-2.915,1.383-4.224,3.36-5.761c-3.427-1.085-3.284,3.621-4.08,5.28c-0.212,0.444-0.772,1.766-0.24,2.16
	C51.231,97.806,51.358,97.053,51.775,96.59z M54.415,100.189c6.664,5.032,3.91-13.949-0.96-6c-0.536,0.663-0.632,2.225-0.24,3.12
	c0,0.08,0,0.16,0,0.24C53.374,98.671,53.667,99.657,54.415,100.189z"/>
<path fill-rule="evenodd" clip-rule="evenodd" fill="#2B2824" d="M75.055,56.029c-1.185,0.146-1.628-0.458-2.16,0.24
	c0.486,1.262,0.825,3.42-0.72,3.84c-0.074-1.206,0.277-2.837-0.48-3.36c-1.594,0.246-1.876,1.804-3.119,2.4
	c0.48-2.959,2.562-4.317,6.239-4.08C75.001,55.283,75.072,55.611,75.055,56.029z"/>
<path fill-rule="evenodd" clip-rule="evenodd" fill="#64746C" d="M94.975,56.989c-0.061,0.899-0.377,1.544-0.96,1.92
	C94.142,58.076,94.665,57.64,94.975,56.989z"/>
<path fill-rule="evenodd" clip-rule="evenodd" fill="#2B2824" d="M15.535,62.029c0.475-0.54,1.459,1.61,0.48,1.92
	C16.131,63.033,15.946,62.418,15.535,62.029z"/>
<path fill-rule="evenodd" clip-rule="evenodd" fill="#64746C" d="M81.055,63.71c0.489-0.551,1.993-0.087,2.88-0.24
	C83.445,64.021,81.941,63.557,81.055,63.71z"/>
<path fill-rule="evenodd" clip-rule="evenodd" fill="#2B2824" d="M53.695,69.47c-0.175-0.655,0.477-0.483,0.48-0.96
	c1.452,0.975-0.3,2.136,0.48,3.6c0.128,1.194,0.895-0.336,1.68,0c-0.325,0.715-1.083,0.997-1.68,1.44
	c0.203,0.917,0.405,1.835,0.48,2.88c-0.454,0.054-0.53-0.271-0.96-0.24c0-0.64,0-1.28,0-1.92c-0.204-0.356-0.604-0.516-1.2-0.48
	C53.787,72.922,53.775,71.229,53.695,69.47z"/>
<path fill-rule="evenodd" clip-rule="evenodd" fill="#B8BEBE" d="M65.215,94.189c0.485-0.474,0.571-1.349,0.96-1.92
	c0.317,0.003,0.22,0.421,0.479,0.48c-0.758,5.129-1.252,10.517-3.119,15.84c-0.633,1.208-1.106,2.573-1.44,4.08
	c0,0.239,0,0.479,0,0.72c-1.44,0-2.88,0-4.32,0c-0.112-4.813-0.242-8.332,0-12c1-0.119,1.155-1.085,1.44-1.92
	c0.061-1.517,0.744-2.2,0.479-2.88c0.83,1.191,0.774,2.198,1.44,3.12c0.721,0.074,1.827-1.528,2.4-2.4
	c0.7-0.34,0.761-1.318,1.199-1.92C64.529,94.624,65.112,94.647,65.215,94.189z"/>
<path fill-rule="evenodd" clip-rule="evenodd" fill="#B8BEBE" d="M51.055,96.109c-0.031,0.431,0.238,0.562,0.72,0.48
	c-0.417,0.463-0.543,1.216-0.96,1.68C50.282,97.875,50.843,96.554,51.055,96.109z"/>
<path fill-rule="evenodd" clip-rule="evenodd" fill="#B8BEBE" d="M49.135,30.589c0.078-0.882-0.205-2.125,0.24-2.64
	c0.4,0,0.8,0,1.2,0c-0.373,1.121-0.176,2.183,0,3.36c-0.447,0.033-0.802,0.158-0.96,0.48C49.09,31.754,49.1,31.185,49.135,30.589z"
	/>
<path fill-rule="evenodd" clip-rule="evenodd" fill="#B8BEBE" d="M57.775,66.35c0.24,0,0.48,0,0.72,0c0,0.24,0,0.479,0,0.72
	c0.46,0.807,0.168,1.996,0.479,2.4c0.113,1.153-1.466,0.613-1.2,1.92c0.432,0.005,1.413-0.004,2.4-0.24
	c-1.326,3.749-3.538,7.508-8.16,7.68c-1.861,0.069-3.946-0.345-6-0.96c0-0.399,0-0.8,0-1.199c0.088-1.112,1.141-1.26,1.92-1.681
	c0.457-0.103,0.603-0.517,1.2-0.479c-0.145,0.895,0.614,1.518,0,2.16c0.388-0.068,0.413,0.227,0.72,0.239
	c0.517-0.469-0.414-1.946,0.72-2.64c0.496,0.479,1.379-0.688,2.4-0.48c0.596-0.035,0.996,0.124,1.2,0.48c0,0.64,0,1.28,0,1.92
	c0.43-0.03,0.506,0.294,0.96,0.24c0.541-0.636-0.198-2.031-0.24-2.88c0.826-0.375,1.675-0.726,1.92-1.681
	c-0.989-0.188-1.232,0.369-2.16,0.24c-0.78-1.464,0.972-2.625-0.48-3.6c-0.003,0.477-0.655,0.305-0.48,0.96
	c-0.376,1.664,0.104,4.497-2.16,3.6c-0.651,0.277-0.597,0.116-1.44,0c-0.695-0.985-0.213-3.147-0.72-4.32
	C52.815,67.697,54.2,67.667,57.775,66.35z"/>
<path fill-rule="evenodd" clip-rule="evenodd" fill="#B8BEBE" d="M51.535,99.71c0.419-0.787,0.386-1.222,0.72-1.681
	c2.946,3.072,1.2,8.135,1.2,12c-0.553,0.647-0.085,2.315-0.24,3.36c-1.36,0-2.72,0-4.08,0c-0.195-2.517,0.271-5.646,0.24-7.2
	c0.015-2.065,0.145-4.016,0.72-5.52c0.427-0.448,0.61,0.194,1.44,0C51.205,100.122,52.153,99.768,51.535,99.71z"/>
<path fill-rule="evenodd" clip-rule="evenodd" fill="#C1A160" d="M58.975,44.029c-3.317-0.728-9.058-0.715-14.4-0.72
	c-0.55-3.185,3.474-2.895,5.52-3.6c0.956,0.126,1.736,1.086,2.64,1.2c1.591,0.2,2.028-0.68,3.36-0.96
	c2.777-0.584,6.166,1.305,10.32,2.16c0.096,1.185,0.817,1.743,1.199,2.64c-0.499-0.521-0.775,0.029-1.199,0.24
	c-0.291,0.669-0.531,1.389-1.2,1.68c-0.695-1.783-1.371-1.944-3.84-2.4C60.871,44.039,59.479,43.464,58.975,44.029z"/>
<path fill-rule="evenodd" clip-rule="evenodd" fill="#EEBD34" d="M38.095,46.43c-0.786,0.192-1.318,2.042-1.92,0.96
	c-0.181-1.02,0.006-1.975,0.48-2.64c0.96,0,1.92,0,2.88,0C39.232,45.487,38.716,46.011,38.095,46.43z"/>
<path fill-rule="evenodd" clip-rule="evenodd" fill="#64746C" d="M15.294,79.55c1.84,0,3.68,0,5.52,0
	C19.53,79.949,16.579,79.949,15.294,79.55z"/>
<path fill-rule="evenodd" clip-rule="evenodd" fill="#2B2824" d="M68.095,12.35c-0.279,1.346-2.222,2.606-2.64,4.56
	c1.619,0.753,4.457,1.118,3.6,3.6c-1.592-1.085-2.398-2.064-4.56-2.16C63.819,15.524,66.279,12.674,68.095,12.35z"/>
</svg>
