<?xml version="1.0" encoding="utf-8"?>
<!-- Generator: Adobe Illustrator 15.1.0, SVG Export Plug-In  -->
<!DOCTYPE svg PUBLIC "-//W3C//DTD SVG 1.1//EN" "http://www.w3.org/Graphics/SVG/1.1/DTD/svg11.dtd" [
	<!ENTITY ns_flows "http://ns.adobe.com/Flows/1.0/">
]>
<svg version="1.1"
	 xmlns="http://www.w3.org/2000/svg" xmlns:xlink="http://www.w3.org/1999/xlink" xmlns:a="http://ns.adobe.com/AdobeSVGViewerExtensions/3.0/"
	 x="0px" y="0px" width="167px" height="258px" viewBox="0 0 167 258" enable-background="new 0 0 167 258" xml:space="preserve">
<defs>
	<symbol  id="AF" viewBox="-42.52 -42.519 85.039 85.038">
		<path fill="#FFFFFF" d="M-42.52,0.001h35.433v21.26h-29.729C-40.437,15.005-42.52,7.748-42.52,0.001z"/>
		<path fill="#FFFFFF" d="M7.087,0.001H42.52c0,7.747-2.083,15.004-5.703,21.26H7.087V0.001z"/>
		<path fill="#FCEE21" d="M36.817-21.259H7.087V-41.92C19.801-39.785,30.594-32.014,36.817-21.259z"/>
		<path fill="#FCEE21" d="M-7.087-41.92v20.661h-29.73C-30.594-32.014-19.801-39.785-7.087-41.92z"/>
		<path fill="#29ABE2" d="M36.816,21.261C30.593,32.015,19.8,39.786,7.087,41.92V21.261H36.816z"/>
		<path fill="#29ABE2" d="M-36.816,21.261h29.729V41.92C-19.8,39.786-30.593,32.015-36.816,21.261z"/>
		<polygon fill="#8CC63F" points="42.52,0 42.52,0.001 42.52,0.001 		"/>
		<path fill="#8CC63F" d="M7.087,0.001v-21.26h29.73C40.438-15.004,42.52-7.747,42.52,0v0.001H7.087z"/>
		<polygon fill="#8CC63F" points="-42.52,0.001 -42.52,0 -42.52,0.001 		"/>
		<path fill="#8CC63F" d="M-7.087-21.259v21.26H-42.52V0c0-7.747,2.082-15.004,5.702-21.259H-7.087z"/>
		<path fill="#ED1C24" d="M7.087-21.259v21.26v21.26V41.92c-2.306,0.388-4.671,0.6-7.087,0.6s-4.781-0.212-7.087-0.6V21.261V0.001
			v-21.26V-41.92c2.306-0.387,4.671-0.599,7.087-0.599s4.781,0.212,7.087,0.599V-21.259z"/>
		<path id="s_7_" fill="#FFDE00" d="M-16.394,33.418l-0.701-7.961l-4.112,6.854l7.354-3.128l-7.788-1.793L-16.394,33.418z"/>
	</symbol>
	<symbol  id="Rand" viewBox="5.377 -252.996 156.49 248.039">
		<g id="weiß_2_">
		</g>
		<path fill="#FFFFFF" d="M159.867-242.076c0,4.92-4,8.92-8.92,8.92c-4.921,0-8.921-4-8.921-8.92s4-8.92,8.921-8.92
			C155.867-250.996,159.867-246.996,159.867-242.076z M159.867-15.887c0,4.92-4,8.93-8.92,8.93c-4.921,0-8.921-4.01-8.921-8.93
			c0-4.91,4-8.92,8.921-8.92C155.867-24.807,159.867-20.797,159.867-15.887z M19.387-4.957h123.9h4.569h3.091
			c6.02,0,10.92-4.9,10.92-10.93v-9.52v-208.09v-8.58c0-6.021-4.9-10.92-10.92-10.92h-9.471c-37.63,0-75.85,0-125.17,0
			c-6.029,0-10.92,4.898-10.92,10.92c-0.01,72.18-0.01,141.83-0.01,211.35v14.84c0,6.029,4.9,10.93,10.92,10.93H19.387z
			 M25.227-15.887c0,4.92-4.01,8.93-8.93,8.93c-4.91,0-8.92-4.01-8.92-8.93c0-4.91,4.01-8.92,8.92-8.92
			C21.217-24.807,25.227-20.797,25.227-15.887z M16.307-250.996c4.92,0,8.92,4,8.92,8.92s-4,8.92-8.92,8.92s-8.92-4-8.92-8.92
			S11.387-250.996,16.307-250.996z M27.227-15.887c0-6.02-4.9-10.92-10.93-10.92c-3.68,0-6.939,1.83-8.92,4.629
			c0-71.199,0-142.398,0-213.609c1.98,2.801,5.24,4.631,8.93,4.631c6.02,0,10.92-4.9,10.92-10.92c0-3.682-1.83-6.941-4.63-8.92
			c40.69,0,81.37,0,122.061,0c-2.801,1.979-4.631,5.238-4.631,8.92c0,6.02,4.9,10.92,10.921,10.92c3.68,0,6.939-1.83,8.92-4.621
			c0,71.201,0,142.4,0,213.6c-1.98-2.799-5.24-4.629-8.92-4.629c-6.021,0-10.921,4.9-10.921,10.92c0,3.689,1.83,6.949,4.631,8.93
			c-40.69,0-81.38,0-122.061,0C25.396-8.938,27.227-12.197,27.227-15.887z"/>
	</symbol>
</defs>
<g>
	<path fill="#D8D29A" d="M167.244,240.944c0,9.354-7.653,17.008-17.008,17.008H17.008C7.653,257.952,0,250.299,0,240.944V17.008
		C0,7.653,7.653,0,17.008,0h133.229c9.354,0,17.008,7.653,17.008,17.008V240.944z"/>
</g>
<path fill="#503526" d="M87.222,23.922c-0.537,1.23-2.02,0.404-2.641-0.24c-3.229,1.943-6.486-1.632-10.08,0
	c0.568-1.491,2.266-0.42,3.6-1.2c1.422,1.538,4.289,1.666,6.48,0.72C85.548,23.435,85.935,24.707,87.222,23.922z"/>
<path fill="#503526" d="M74.021,23.442c-0.557,0.077-0.92-0.039-1.199-0.24C72.843,22.488,74.253,22.561,74.021,23.442z"/>
<path fill="#503526" d="M89.142,24.402c-0.584-0.296-1.559-0.202-1.68-0.96C88.45,23.168,89.009,23.305,89.142,24.402z"/>
<path fill="#503526" d="M91.78,23.922c0.555-0.073,0.268,0.693,0.721,0.72c-0.336,0.699-0.826-0.425-1.439-0.24
	C91.116,24.057,91.778,24.319,91.78,23.922z"/>
<path fill="#503526" d="M98.021,27.763c0.6-0.736,1.332,0.413,1.201,1.2C98.442,28.941,99.052,27.531,98.021,27.763z"/>
<path fill="#503526" d="M108.581,39.042c1.018-0.087,0.211,1.04,0.238,1.44C108.292,40.453,108.72,39.464,108.581,39.042z"/>
<path fill="#503526" d="M82.661,48.643c0.971,0.229,1.283,1.116,1.68,1.92C83.464,50.241,83.042,49.462,82.661,48.643z"/>
<path fill="#503526" d="M79.542,50.323c0.428-0.292,1.395-0.044,1.68-0.48c1.236,2.123,5.365,1.354,4.799,5.28
	c1.508,0.653,1.313,3.009,3.121,3.36c-0.139,3.628-0.404,6.237-0.721,10.08c0.504,0.537,1.063,1.017,1.68,1.44
	c2.199-0.699,3.332-1.665,5.76-0.72c2.621,3.451-0.27,9.77-3.6,10.08c0.043-0.678,1.141-0.299,0.961-1.199
	c0.174-0.734-0.414-0.706-0.24-1.439c-6.742-1.386-10.945,6.346-7.68,12c0.178,0.737-0.66,0.461-0.48,1.199
	c0.219,0.807,0.445,0.119,1.199,0.24c-0.922,4.466-0.896,9.813,0.48,14.159c0.832,0.112,0.139-1.302,0.721-1.439
	c6.156,3.453-9.895,9.927-13.201,6c0.461-1.7,1.734-2.586,2.881-3.601c0.77-0.21,0.498,0.623,0.959,0.721
	c1.953-2.777,1.646-6.345,1.682-11.04c0.867-0.651,2.084-0.956,2.639-1.92c-5.332,1.646-12.842,2.249-13.92-4.562
	c5.551-0.688,8.547-3.933,10.801-7.92c-0.215-0.773,0.783-0.336,0.959-0.72c-0.883-0.956-1.438-2.241-2.639-2.88
	c-0.756,0.334,0.33,1.186-0.24,1.439c-1.805,0.757-5.684,1.173-7.68,0.24c-1.035,0.004-0.885,1.194-1.92,1.199
	c-0.156-0.725-1.09-0.67-1.441-1.199c-0.891-0.093-0.627,0.973-1.68,0.719c-0.471-1.129-1.424-1.773-1.439-3.358
	c2.553,1.026,4.908-0.604,7.92-0.479c0.68-0.313,1.258-1.628,0.959-2.161c-0.832,0.128-0.791,1.13-1.439,1.44
	c-3.16-0.713-8.145,2.746-7.199-2.4c2.025-1.59,6.268-4.002,6.48-8.4c0.227-4.718-2.953-8.996-7.441-7.2
	c0.068-4.098,4.52-1.305,6.24-1.44c-0.498-2.496-3.787-2.249-5.52-2.88c-0.316-1.758,1.262-1.618,1.439-2.88
	c2.582,0.975,4.809,1.137,6.721,2.64C73.368,50.788,76.849,47.199,79.542,50.323z M73.542,54.883
	c1.605,0.376,2.697-1.356,4.559-1.44c1.957-0.088,3.693,1.562,5.521,1.2C81.923,51.562,74.845,51.053,73.542,54.883z M77.622,55.363
	c0,0.24,0,0.48,0,0.72c3.008-0.022,5.555,2.546,5.279,4.56c-0.361,2.649-6.023,3.233-8.881,3.12
	c-0.332-4.093,1.457-6.064,3.361-7.92c-8.467,1.856-3.516,19.382,4.08,14.88c2.17-1.287,2.973-4.137,3.119-7.92
	c0.32-0.88,1.889-0.511,1.68-1.92c-0.473-0.068-1.66,0.347-1.66,0.347C83.767,58.727,81.265,54.398,77.622,55.363z M90.821,73.123
	c0.834-0.047,0.91-0.85,1.682-0.96c1.008,0.271,0.381,2.179,1.438,2.399c0.865-0.792,0.33-2.417,0-3.36
	c0.664-0.137,1.348-0.254,1.201-1.199C92.999,70.206,90.583,71.329,90.821,73.123z"/>
<path fill="#503526" d="M62.021,49.843c0.535,0.448-0.834,2.496,0.24,3.84c-0.279,0.201-0.643,0.316-1.199,0.24
	C61.585,52.767,60.872,50.374,62.021,49.843z"/>
<path fill="#503526" d="M86.501,51.763c0.73,0.149,1.227,0.533,1.199,1.44C87.308,52.715,86.604,52.539,86.501,51.763z"/>
<path fill="#26221D" d="M83.622,54.643c-1.828,0.362-3.564-1.289-5.521-1.2c-1.861,0.084-2.953,1.816-4.559,1.44
	C74.845,51.053,81.923,51.562,83.622,54.643z"/>
<path fill="#503526" d="M65.86,57.283c1.529,1.512,3.188,2.894,2.881,6.24c-2.693,0.129-6.602,0.053-8.16-1.68
	C60.882,58.863,62.28,56.982,65.86,57.283z"/>
<path fill="#503526" d="M90.101,61.843c0.729-0.008,0.6,0.842,0.721,1.44C90.312,63.042,89.659,62.314,90.101,61.843z"/>
<path fill="#503526" d="M90.101,66.883c0.65,0.149,0.6,1.002,1.441,0.96C91.202,68.859,89.944,67.825,90.101,66.883z"/>
<path fill="#503526" d="M57.222,68.323c0.879,0.96,1.258,2.42,3.119,2.4c0,0.479,0,0.96,0,1.44
	C58.938,71.266,56.827,70.272,57.222,68.323z"/>
<path fill="#503526" d="M62.021,69.763c0.879-0.158,0.922,0.52,1.682,0.479c-0.154,1.206-1.527,1.194-1.682,2.4
	C61.481,72.088,61.829,70.382,62.021,69.763z"/>
<path fill="#26221D" d="M95.142,70.003c0.146,0.945-0.537,1.063-1.201,1.199c0.33,0.944,0.865,2.569,0,3.36
	c-1.059-0.222-0.43-2.129-1.438-2.399c-0.771,0.11-0.848,0.913-1.682,0.96C90.583,71.329,92.999,70.206,95.142,70.003z"/>
<path fill="#AD892A" d="M85.78,87.043c-1.758-4.792,1.238-9.152,5.762-9.841c0.053,0.188,0.199,0.278,0.479,0.239
	c-0.543,1.025-2.752,1.054-3.6,2.4c-1.789,1.409-1.715,5.223-0.24,6.96c0.57,0.708,1.287,1.272,2.16,1.681
	c0.447,0.19,0.879,0.4,1.438,0.479c0.5,0.265,2.027-0.103,2.643-0.479c0.08,0,0.16,0,0.24,0c1.541-0.541,2.91-2.524,3.117-3.601
	c0-0.08,0-0.159,0-0.239c0.549-0.334,0.092-1.672,0.24-2.4c-0.127-0.192-0.25-0.391-0.24-0.721c-0.564-1.032-0.953-2.244-2.158-2.64
	c0-0.159,0-0.319,0-0.479c1.406,0.272,2.039,1.32,2.881,2.16c0.666,1.332,1.092,2.906,0.959,5.039
	c-0.443,1.558-1.314,2.686-2.16,3.84c-0.543,0.658-1.439,0.961-2.16,1.44c-0.564,0.313-1.658,0.103-2.16,0.479
	c-0.146-0.237-1.615,0.224-2.16-0.239c-0.875-0.244-1.645-0.597-2.398-0.96c-0.559-0.163-0.643-0.798-1.199-0.96
	C86.579,88.646,86.097,87.928,85.78,87.043z"/>
<path fill="#AD892A" d="M58.181,83.441c0.139-3.221,1.375-5.344,4.08-6c-0.066,0.548,0.059,0.902,0.48,0.961c0,0.32,0,0.641,0,0.959
	c-1.865,1.414-2.736,4.326-1.439,6.48c-0.045,0.204,0.092,0.227,0.24,0.24c0.568,0.631,0.953,1.445,1.92,1.68
	c-0.045,0.204,0.094,0.228,0.24,0.24c1.041,0.496,2.648-0.064,3.359,0.239c0,0.561,0,1.12,0,1.681
	c-1.107,0.035-1.979,0.68-2.881,0.24c-0.891-0.148-1.508-0.572-2.398-0.721c-0.361-0.279-0.588-0.693-1.201-0.721
	c-0.459-0.66-1.064-1.175-1.439-1.92c-0.045-0.193-0.242-0.238-0.24-0.48C58.606,85.417,58.097,84.727,58.181,83.441z"/>
<path fill="#843127" d="M76.661,79.361c0.408-0.088,0.453,0.188,0.48,0.48c-2.754,2.133-6.225,3.504-9.6,1.92
	c-0.76,0.604-1.689-0.054-1.92,0.721c3.352,1.371,8.887,0.379,11.76-1.439c-0.715,4.164-10.953,9.635-12.48,3.359
	c-0.344-1.411,1.012-2.647-0.48-3.601c0.941-1.112,2.498-0.54,3.6,0C70.138,79.02,74.806,81.105,76.661,79.361z"/>
<path fill="#FFFFFF" d="M63.462,86.563c-1.84-0.807-2.127-4.277-0.721-5.761c0.355,0.125,0.605,0.355,0.961,0.479
	c0.521,1.951-0.119,4.136,1.439,5.521C64.806,87.427,63.899,86.628,63.462,86.563z"/>
<path fill="#FFFFFF" d="M96.341,81.764c2.262,3.375-2.148,7.48-6,5.52c0.15-0.569,1.479,0.037,1.68-0.479
	C92.64,84.301,95.356,83.898,96.341,81.764z"/>
<path fill="#26221D" d="M97.78,84.643c0.15-0.729-0.307-2.066,0.24-2.399C97.87,82.973,98.329,84.311,97.78,84.643z"/>
<path fill="#AD892A" d="M87.222,98.322c0.08,0,0.16,0,0.24,0c0.947,0.475,2.387,1.508,3.357,2.641
	c0.908,1.909,1.814,3.262,0.961,5.28c-0.924,0.676-1.451,1.747-2.398,2.399c-1.061,0.78-2.33,1.35-3.602,1.92
	c-1.881,0.6-4.043,0.916-5.76,1.681c-2.336,0.098-4.16-0.17-5.76,0.239c-1.66-0.607-2.83-1.808-4.08-3.359c0-0.08,0-0.16,0-0.24
	c-0.342-0.803-0.342-2.316,0-3.119c0.416-0.465,0.543-1.218,0.959-1.681c0.459-0.661,1.02-1.222,1.68-1.681
	c1.191-1.129,2.684-1.959,4.08-2.881c0.428,0.145,0.998-0.703,1.201,0c0.258,1.299-1.07,1.012-1.439,1.682
	c-0.559,0.322-1.078,0.682-1.441,1.199c-1.363,0.718-2.334,1.826-2.879,3.359c-0.205-0.044-0.229,0.094-0.24,0.24
	c-0.727,2.352,0.838,3.988,2.641,4.561c0.488,0.133,0.471,0.723,0.959,0.239c0.182,0.396,1.979,0.396,2.16,0
	c0.307,0.328,1.133,0.328,1.439,0c0.768,0.28,2.627-0.407,3.6-0.72c3.971-0.93,9.293-4.191,6.721-8.641
	c-0.395-1.207-2.049-1.152-2.881-1.92C86.847,99.068,86.415,98.076,87.222,98.322z"/>
<path fill="#26221D" d="M87.7,101.441c-0.523,0.045-0.764-0.195-0.721-0.719c0.24,0,0.48,0,0.721,0
	C87.868,100.916,88.075,101.38,87.7,101.441z"/>
<path fill="#AD892A" d="M75.462,103.361c0.975-0.383,1.281-1.438,2.639-1.438c-0.33,0.31-0.236,1.042-0.24,1.681
	c-0.445,0.033-0.801,0.158-0.959,0.479c-1.096,0.345-1.672,1.209-2.4,1.92c-0.422,0.218-0.742,0.536-0.959,0.96
	C73.013,105.549,74.765,104.352,75.462,103.361z"/>
<path fill="#AD892A" d="M92.981,106.003c0.373-1.922,1.494,0.365,1.682,1.438c0,0.802,0,1.602,0,2.4
	c-1.078,1.963-2.322,3.76-4.32,4.801c-0.205-0.045-0.227,0.094-0.24,0.239c-1.207,0.072-1.789,0.771-2.881,0.96
	c-1.193,0.691-2.063,0.381-3.119,0.96c-0.721,0-1.439,0-2.16,0c-0.654-0.021-0.482,0.399-0.961,0c-0.799,0-1.6,0-2.398,0
	c-2.824-0.776-5.316-1.884-6.721-4.079c0-0.16,0-0.32,0-0.479c2.51,0.688,3.156,3.243,6.24,3.358c1.412,0.381,2.73,0.147,3.6,0
	c1.213-0.354,3.68-0.123,4.801-1.199c0.08,0,0.16,0,0.238,0c1.236-0.443,2.242-0.305,3.119-1.439c1.168-0.271,2.018-0.863,2.4-1.92
	c0.557-0.645,0.945-1.456,0.961-2.641C93.364,108.32,93.284,106.434,92.981,106.003z"/>
<path fill="#503526" d="M91.78,108.402c0.264,1.941-0.951,2.408-1.439,3.601c-3.453,1.615-11.07,4.449-14.879,1.2
	C82.024,113.643,87.845,111.378,91.78,108.402z"/>
<path fill="#504E6D" d="M88.421,124.723c1.467-3.332,4.127-5.475,4.318-10.08c1.365-1.756,3.059-3.183,3.121-6.24
	c4.359,2.8,10.221,2.439,14.4,4.802c4.26,2.405,5.316,6.767,7.199,11.521C107.78,124.723,98.101,124.723,88.421,124.723z"/>
<path fill="#504E6D" d="M52.421,124.723c-0.512-9.361,10.861-10.248,16.801-14.64c2.404,2.054,2.17,5.63,3.6,8.399
	c1.105,2.144,2.934,4.721,4.08,6.24C68.741,124.723,60.581,124.723,52.421,124.723z"/>
<path fill="#26221D" d="M77.86,110.803c-0.182,0.396-1.977,0.396-2.158,0C76.815,110.943,77.149,110.475,77.86,110.803z"/>
<path fill="#503526" d="M86.981,124.723c-3.041,0-6.08,0-9.121,0c-1.623-2.938-3.629-5.49-4.799-8.88
	c4.725,3.585,13.307,2.294,18.24-0.239C90.813,119.596,88.472,121.732,86.981,124.723z"/>
<path fill="#26221D" d="M100.181,82.963c0.514,0.686,0.234,2.624,0,3.359C99.894,85.861,100.374,84.124,100.181,82.963z"/>
<path fill="#503526" d="M110.741,59.683c1.047-0.563,0.891-2.3,0.721-2.88C112.354,57.739,111.751,59.304,110.741,59.683z"/>
<path fill="#503526" d="M111.94,51.522c-0.166,1.386,1.969,2.298,0.24,3.12C113.604,53.669,111.069,52.593,111.94,51.522z"/>
<path fill="#503526" d="M103.78,30.643c1.199,0.08,1.848,0.712,2.16,1.68C105.778,31.359,103.755,30.999,103.78,30.643z"/>
<path fill="#503526" d="M100.421,28.002c0.367,1.313,1.271,2.087,2.641,2.4C102.093,30.801,99.983,29.009,100.421,28.002z"/>
<path fill="#503526" d="M85.542,22.002c0.613,0.844,1.594,0.267,2.398,0c-0.453,0.427-0.969,0.791-1.92,0.72
	c-0.105-0.214-0.211-0.429-0.479-0.48C85.542,22.163,85.542,22.083,85.542,22.002z"/>
<path fill="#503526" d="M63.94,26.803c-0.135,0.194-1.92,0.791-1.92,1.92C62.142,27.563,62.585,26.727,63.94,26.803z"/>
<path fill="#503526" d="M56.021,34.002c1.408-0.272,1.201-2.16,2.4-2.64c-0.928,0.991-1.131,2.708-2.639,3.12
	C55.827,34.288,56.022,34.243,56.021,34.002z"/>
<path fill="#503526" d="M53.86,35.922c0.219,1.499-0.563,1.996-1.199,2.64C53.19,37.813,53.634,36.975,53.86,35.922z"/>
<path fill="#503526" d="M49.782,43.843c0.045-1.074,0.613-1.626,1.199-2.16C52.282,40.313,49.999,43.037,49.782,43.843z"/>
<path fill="#503526" d="M50.021,54.643c1.377,0.864,2.029,2.453,3.121,3.6C51.765,57.379,51.151,55.752,50.021,54.643z"/>
<path fill="#26221D" d="M57.462,81.282c0.18-1.5,0.895-2.466,1.92-3.119C58.612,79.074,58.052,80.191,57.462,81.282z"/>
<path fill="#26221D" d="M76.181,99.043c0.531-0.83,2.137-0.584,2.16-1.92C79.097,98.288,76.976,98.631,76.181,99.043z"/>
<path fill="#503526" d="M55.782,35.922c0.172,1.029-0.895,2.742-0.721,3.6c-1.934,0.608-1.68,2.356-1.92,3.84
	c-0.32,0-0.641,0-0.961,0c-0.828,2.232-0.219,5.998-1.199,7.44c0.188,1.252,1.074,1.806,0.959,3.36
	c1.701,0.38,1.336,2.825,3.121,3.12c0.453,1.307,0.338,3.182,1.439,3.84c-0.65,2.623-0.033,4.739,0.961,6.96
	c-0.408-0.631-1.141-0.94-1.92-1.2c0.445-4.858-0.369-9.767-4.561-11.76c0.193-1.794-0.621-2.58-1.199-3.6
	c0.131-0.748,0.727-1.033,0.959-1.68c-1.537-2.622,0.996-4.326,0.24-6.96c1.244-0.036,1.496-1.064,1.439-2.4
	c1.229-1.25,2.516-2.445,2.641-4.8c0.744-0.522,1.527-0.636,2.16-0.72c0.432-2.367,3.01-2.589,4.08-4.32
	c0.756-0.118,0.846,0.433,1.68,0.24c0.898-0.509,0.223-1.662,0.24-2.64c0.545-0.415,1.34-0.579,2.4-0.48
	c1.678-1.865,3.529-5.768,6.719-4.56c-2.271,1.168-4.684,2.196-5.52,4.8c-1.314-0.194-1.438,0.802-2.641,0.72
	c0.34,1.792-0.752,2.276-0.719,3.12c-0.494,0.485-0.48-0.098-0.721-0.48c-2.09,1.401-4.682,2.208-4.561,4.8
	C57.796,35.634,56.728,36.141,55.782,35.922z"/>
<path fill="#503526" d="M67.062,48.883c0.061-0.7-0.453-0.828-0.721-1.2c-1.379,1.124-1.816-0.784-3.359,0
	c3.059-3.118,6.271,4.045,9.6,1.44c-0.02,0.861-0.93,0.831-1.199,1.44c-0.896-0.226-1.25-0.99-2.641-0.72
	C69.022,48.513,67.806,48.539,67.062,48.883z"/>
<path fill="#503526" d="M76.181,47.442c1.387-0.902,3.121,0.269,4.561,0.96C79.872,48.833,77.8,47.36,76.181,47.442z"/>
<path fill="#503526" d="M87.222,54.163c0.754,0.206,1.482,0.438,1.92,0.96C88.716,55.015,87.274,55.365,87.222,54.163z"/>
<path fill="#503526" d="M60.341,57.763c0.537,0.865-0.811,1.902-0.719,3.12c-1.238-0.119-1.91,0.33-1.92,1.44
	c-1.008-0.363,0.367-1.436,0.479-2.16c0.766-0.143,0.742,0.45,1.201,0C59.792,59.453,59.954,58.495,60.341,57.763z"/>
<path fill="#BCBBBA" d="M67.782,67.363c0.061-0.687,1.406-2.282,0.238-2.64C69.345,63.915,68.532,67.271,67.782,67.363z"/>
<path fill="#BCBBBA" d="M62.981,64.243c0.348,2.745,3.475,2.054,5.039,0.48c1.168,0.358-0.178,1.954-0.238,2.64
	c-0.521,0.359-0.561,1.201-1.441,1.2c-1.129,1.527-3.129,0.054-4.32-0.48c-0.986-1.203-1.451-2.067-1.439-3.84c0-0.08,0-0.16,0-0.24
	C61.54,63.923,61.913,64.431,62.981,64.243z"/>
<path fill="#BCBBBA" d="M60.581,64.243c-0.559-0.783,1.916-0.336,2.4,0c-1.068,0.188-1.439-0.32-2.4-0.24
	C60.581,64.083,60.581,64.163,60.581,64.243z"/>
<path fill="#26221D" d="M66.341,68.562c-0.775,1.881-3.479,0.408-4.32-0.48C63.212,68.617,65.212,70.09,66.341,68.562z"/>
<path fill="#26221D" d="M58.901,86.322c-0.684-0.364-1.252-2.098-0.721-2.881C58.097,84.727,58.606,85.417,58.901,86.322z"/>
<path fill="#26221D" d="M60.581,88.723c-0.832-0.136-1.566-1.621-1.439-1.92C59.517,87.548,60.122,88.063,60.581,88.723z"/>
<path fill="#AD892A" d="M61.782,89.441c0.891,0.148,1.508,0.572,2.398,0.722C63.55,90.7,62.271,89.844,61.782,89.441z"/>
<path fill="#AD892A" d="M63.702,88.003c0.545-0.455,2.275,0.411,3.119-0.239c0.41,0.244,0.828,1.709,0.24,2.159
	c0-0.562,0-1.12,0-1.681C66.351,87.938,64.743,88.499,63.702,88.003z"/>
<path fill="#AD892A" d="M61.542,86.083c0.605,0.594,1.455,0.942,1.92,1.681C62.495,87.529,62.11,86.714,61.542,86.083z"/>
<path fill="#AD892A" d="M62.741,79.361c-1.531,1.56-2.031,4.201-1.439,6.48C60.005,83.688,60.876,80.775,62.741,79.361z"/>
<path fill="#26221D" d="M87.222,89.203c1.203,1.727-2.092-1.484-1.441-2.16C86.097,87.928,86.579,88.646,87.222,89.203z"/>
<path fill="#26221D" d="M88.421,90.163c0.756,0.364,1.523,0.716,2.398,0.96C90.142,91.629,88.714,90.839,88.421,90.163z"/>
<path fill="#26221D" d="M95.142,90.883c-0.021,0.713-2.141,0.563-2.16,0.479C93.483,90.984,94.575,91.195,95.142,90.883z"/>
<path fill="#26221D" d="M97.302,89.441c0.844-1.154,1.717-2.282,2.16-3.84C99.583,86.77,98.444,88.742,97.302,89.441z"/>
<path fill="#AD892A" d="M95.622,78.402c1.041-0.315,2.52,0.996,2.879,2.16C97.661,79.723,97.028,78.676,95.622,78.402z"/>
<path fill="#AD892A" d="M95.622,78.883c1.203,0.396,1.594,1.606,2.158,2.641C97.038,80.666,96.409,79.693,95.622,78.883z"/>
<path fill="#26221D" d="M94.661,88.482c1.193-1.047,2.393-2.088,3.119-3.601C97.571,85.958,96.202,87.941,94.661,88.482z"/>
<path fill="#26221D" d="M94.421,88.482c-0.613,0.379-2.143,0.744-2.641,0.479C92.101,88.964,93.853,88.174,94.421,88.482z"/>
<path fill="#26221D" d="M88.181,86.803c0.816,0.465,1.637,0.924,2.16,1.68C89.468,88.075,88.753,87.512,88.181,86.803z"/>
<path fill="#AD892A" d="M88.421,79.843c0.848-1.348,3.059-1.375,3.6-2.399c-0.277,0.039-0.426-0.053-0.479-0.24
	c0.801-0.24,0.787,0.334,0.721,0.961C90.497,78.238,89.671,79.252,88.421,79.843z"/>
<path fill="#26221D" d="M63.462,86.563c-0.6,1.375-3.479-4.666-0.721-6c0.318,0.24,0.893,0.228,0.961,0.72
	c-0.355-0.124-0.605-0.354-0.961-0.479C61.333,82.285,61.622,85.757,63.462,86.563z"/>
<path fill="#26221D" d="M88.421,84.402c0.133,0.826,1.104,0.816,1.201,1.681C88.644,86.102,88.61,85.174,88.421,84.402z"/>
<path fill="#26221D" d="M87.222,98.322c-0.807-0.246-0.375,0.746-0.48,1.199c0.834,0.769,2.486,0.713,2.881,1.92
	c-0.729-0.313-1.07-1.008-1.92-1.198c-0.35,0.104,0.023,0.21,0,0.479c-0.24,0-0.48,0-0.721,0c-0.043,0.522,0.195,0.764,0.721,0.719
	c0.045,0.195,0.24,0.24,0.238,0.48c0.234-0.007,0.188-0.294,0.24-0.48c0.611,0.029,0.932,0.351,0.961,0.961
	c-1.229,0.107-1.313-0.926-2.4-0.961c0.58-0.769-1.193-2.726,0.48-3.358C87.222,98.163,87.222,98.242,87.222,98.322z"/>
<path fill="#26221D" d="M79.302,110.803c1.125-0.16,2.91-0.922,3.6-0.72C81.927,110.395,80.069,111.083,79.302,110.803z"/>
<path fill="#26221D" d="M72.101,106.003c-0.293,2.021,1.02,3.739,2.641,4.56C72.94,109.991,71.376,108.354,72.101,106.003z"/>
<path fill="#26221D" d="M75.222,102.402c-1.098,0.981-2.045,2.115-2.881,3.359C72.888,104.229,73.858,103.12,75.222,102.402z"/>
<path fill="#26221D" d="M76.661,101.203c0.371-0.67,1.697-0.383,1.439-1.682c-0.203-0.703-0.771,0.145-1.199,0
	c0.496-0.688,1.229-0.848,1.92-0.239C78.823,100.492,77.306,101.438,76.661,101.203z"/>
<path fill="#26221D" d="M71.142,104.083c-0.418-0.306,2.172-2.823,1.68-1.681C72.161,102.861,71.601,103.422,71.142,104.083z"/>
<path fill="#26221D" d="M70.181,105.764c-0.34,0.803-0.34,2.316,0,3.119C69.47,108.504,69.47,106.143,70.181,105.764z"/>
<path fill="#26221D" d="M84.101,116.803c-0.752,0.319-2.857,0.778-2.16,0C82.661,116.803,83.382,116.803,84.101,116.803z"/>
<path fill="#26221D" d="M90.101,114.883c-0.488,0.872-2.221,0.5-2.639,1.439c-0.234-0.006-0.188-0.293-0.24-0.479
	C88.312,115.654,88.894,114.955,90.101,114.883z"/>
<path fill="#AD892A" d="M90.341,114.643c2-1.041,3.242-2.836,4.32-4.8C93.95,112.014,92.06,114.279,90.341,114.643z"/>
<path fill="#AD892A" d="M92.981,106.003c-0.076-0.558,0.039-0.922,0.24-1.2c1.023,0.184,1.713,1.959,1.439,2.641
	C94.476,106.368,93.354,104.081,92.981,106.003z"/>
<path fill="#AD892A" d="M93.222,108.402c-0.016,1.185-0.404,1.996-0.961,2.641C92.597,110.178,92.829,109.21,93.222,108.402z"/>
<path fill="#AD892A" d="M86.741,114.402c0.764-0.758,2.326-0.713,3.119-1.439C88.983,114.1,87.978,113.959,86.741,114.402z"/>
<path fill="#AD892A" d="M86.501,114.402c-1.121,1.076-3.586,0.846-4.799,1.199C82.757,114.939,84.874,115.063,86.501,114.402z"/>
<path fill="#26221D" d="M74.261,112.482c-0.596,0.037-0.742-0.377-1.199-0.479c0.836,2.044,3.051,2.707,5.039,3.601
	c-3.084-0.115-3.729-2.67-6.24-3.359c0,0.158,0,0.318,0,0.479c0.066-1.664-1.053-2.115-1.68-3.6
	C71.431,110.676,72.603,111.875,74.261,112.482z"/>
<path fill="#26221D" d="M63.94,26.803c0.031-0.53,1.02-0.102,1.441-0.24c0.674-2.925,3.283-3.917,5.52-5.28
	c2.539,0.299,4.104-0.11,7.439-0.24c1.5,1.857,5.061,0.776,7.201,0.96c0,0.08,0,0.16,0,0.24c0.268,0.051,0.373,0.266,0.479,0.48
	c0.951,0.071,1.467-0.293,1.92-0.72c1.754,0.923,5.027-0.346,6,2.16c0.586,0.203,1.135-0.516,1.92-0.24
	c0.527,0.186,0.658,1.49,1.439,1.92c1.418,0.778,3.328-0.16,3.121,2.16c-0.439,1.007,1.672,2.799,2.639,2.4
	c0.342-0.021,0.68-0.04,0.721,0.24c-0.025,0.356,1.996,0.716,2.16,1.68c0.805,1.917,3.109,2.331,2.879,5.28
	c0.701,0.26,1.42,0.501,1.682,1.2c-0.791,1.305,0.623,2.195,0.961,3.36c0.131,0.458-0.334,1.095-0.24,1.68
	c0.125,0.781,0.893,1.314,0.959,1.92c0.211,1.884-0.123,4.08-0.24,5.76c-0.871,1.071,1.664,2.146,0.24,3.12
	c-0.955,0.005-0.709,1.21-0.719,2.16c0.17,0.58,0.326,2.316-0.723,2.88c-0.705,0.747-0.916,2.112-0.479,3.36
	c-2.342,1.203-1.514,4.092-3.84,5.28c-0.039,0.759,0.639,0.802,0.479,1.68c-0.453,0.826-1.471,1.089-2.16,1.68
	c0.115,0.859,0.393,1.387,0,2.16c-2.213,1.785-3.424,4.576-5.52,6.479c0.436,0.766,0.861,1.539,0.961,2.641
	c0.191,1.161-0.289,2.898,0,3.359c-0.982,5.164-8.438,7.859-13.201,4.32c-0.172,2.066-0.164,4.314-0.479,6.239
	c3.174,1.388,5.863,3.257,6.721,6.96c1.768,0.151,1.908,1.932,2.639,3.12c6.209,3.604,14.203,3.14,18.48,8.64
	c1.99,2.559,2.807,5.586,4.32,9.121c-0.4,0-0.801,0-1.199,0c-1.883-4.755-2.939-9.113-7.201-11.521
	c-4.18-2.361-10.041-2.002-14.4-4.802c-0.063,3.059-1.756,4.484-3.119,6.24c-0.193,4.605-2.854,6.748-4.318,10.08
	c-0.48,0-0.961,0-1.441,0c1.492-2.988,3.832-5.128,4.32-9.119c-4.934,2.533-13.516,3.824-18.24,0.239
	c1.172,3.39,3.178,5.942,4.801,8.88c-0.32,0-0.641,0-0.961,0c-1.146-1.52-2.975-4.097-4.08-6.24c-1.428-2.77-1.195-6.346-3.6-8.398
	c-5.938,4.393-17.313,5.277-16.799,14.641c-0.4,0-0.801,0-1.201,0c0.207-10.914,11.209-11.033,17.76-15.601
	c-0.219-1.282-0.451-2.896,0.24-3.841c0.57-0.79,0.992-1.729,1.68-2.399c1.195-1.845,3.119-2.961,5.281-3.84
	c0.793-0.412,2.916-0.755,2.16-1.92c-0.002-0.638,0.09-1.371-0.24-1.681c-2.342-0.604-4.668,0.375-7.201-1.2
	c-1.193-0.743-2.176-2.831-3.359-3.119c-0.854-0.209-2.055,0.292-2.879,0.239c-5.127-0.325-8.318-4.59-7.201-10.08
	c0.59-1.09,1.152-2.208,1.92-3.119c0.15-1.211,1.771-0.95,1.92-2.16c-0.109-0.852-0.533-1.387-0.48-2.4
	c-2.676-0.443-3.574-2.665-5.039-4.32c0.557-2.076-1.225-1.815-1.439-3.12c0.617-3.62-0.844-4.995-1.201-7.92
	c-1.092-1.147-1.744-2.736-3.119-3.6c0.281-1.881-1.344-1.856-1.439-3.36c1.041-1.089,0.734-3.345,0.238-4.8
	c0.291-0.839,1.75-1.488,0.961-2.64c0.217-0.806,2.502-3.53,1.199-2.16c-0.352-1.952,1.172-2.029,1.682-3.12
	c0.635-0.645,1.418-1.141,1.199-2.64c0.455-0.904,0.748-1.971,2.16-1.92c0,0.241-0.193,0.286-0.24,0.48
	c1.508-0.412,1.711-2.129,2.641-3.12c1.197-0.882,2.561-1.599,3.6-2.64C62.019,27.594,63.806,26.997,63.94,26.803z M78.101,115.604
	c-1.988-0.894-4.203-1.557-5.039-3.601c0.457,0.103,0.604,0.517,1.199,0.479c1.6-0.409,3.424-0.143,5.76-0.239
	c2.025-0.479,4.002-0.519,5.76-1.681c1.271-0.57,2.541-1.14,3.602-1.92c0.721,0.073,1.828-1.528,2.398-2.399
	c0.855-2.019-0.051-3.371-0.959-5.28c-0.627-1.39-2.223-2.486-3.359-2.641c-0.08,0-0.16,0-0.24,0c0-0.08,0-0.159,0-0.239
	c-1.674,0.634,0.1,2.591-0.479,3.358c1.086,0.035,1.172,1.068,2.398,0.961c-0.029-0.61-0.35-0.932-0.959-0.961
	c-0.055,0.188-0.008,0.475-0.24,0.48c0-0.24-0.193-0.285-0.24-0.48c0.375-0.063,0.168-0.525,0-0.719c0.023-0.271-0.35-0.375,0-0.479
	c0.85,0.19,1.193,0.887,1.922,1.198c2.572,4.449-2.752,7.711-6.721,8.642c-0.689-0.202-2.477,0.56-3.6,0.72
	c-0.307,0.328-1.133,0.328-1.441,0c-0.711-0.328-1.045,0.141-2.158,0c-0.49,0.482-0.473-0.105-0.961-0.24
	c-1.621-0.819-2.934-2.539-2.641-4.56c0.016-0.146,0.037-0.284,0.24-0.239c0.836-1.244,1.783-2.379,2.881-3.361
	c0.361-0.518,0.883-0.875,1.439-1.198c0.645,0.235,2.164-0.711,2.16-1.921c-0.691-0.607-1.424-0.449-1.92,0.24
	c-1.398,0.922-2.891,1.75-4.08,2.879c0.492-1.143-2.098,1.375-1.68,1.682c-0.418,0.463-0.543,1.216-0.961,1.68
	c-0.711,0.379-0.711,2.741,0,3.12c0,0.08,0,0.16,0,0.24c0.627,1.483,1.746,1.935,1.68,3.601c1.404,2.195,3.896,3.303,6.721,4.08
	c0.588,0.371,1.563,0.357,2.4,0.479c0-0.159,0-0.319,0-0.479c0.477,0.398,0.305-0.021,0.959,0c-0.697,0.777,1.408,0.318,2.16,0
	c1.059-0.58,1.928-0.27,3.121-0.961c0.053,0.188,0.006,0.475,0.24,0.479c0.418-0.939,2.15-0.567,2.639-1.439
	c0.016-0.146,0.037-0.284,0.24-0.239c1.719-0.363,3.609-2.629,4.32-4.801c0-0.8,0-1.6,0-2.4c0.271-0.682-0.416-2.457-1.439-2.639
	c-0.201,0.277-0.316,0.644-0.24,1.199c0.303,0.432,0.383,2.318,0.24,2.398c-0.393,0.809-0.625,1.775-0.961,2.642
	c-0.385,1.056-1.232,1.647-2.4,1.92c-0.791,0.728-2.355,0.683-3.119,1.438c-0.078,0-0.158,0-0.238,0
	c-1.627,0.66-3.746,0.537-4.801,1.201C80.831,115.75,79.513,115.982,78.101,115.604z M84.581,23.203
	c-2.191,0.945-5.059,0.817-6.48-0.72c-1.334,0.78-3.031-0.291-3.6,1.2c3.594-1.632,6.852,1.943,10.08,0
	c0.621,0.644,2.104,1.47,2.641,0.24C85.935,24.707,85.548,23.435,84.581,23.203z M58.181,36.163c-0.121-2.592,2.471-3.399,4.561-4.8
	c0.24,0.382,0.227,0.966,0.721,0.48c-0.033-0.844,1.059-1.328,0.719-3.12c1.203,0.082,1.326-0.915,2.641-0.72
	c0.836-2.604,3.248-3.632,5.52-4.8c-3.189-1.208-5.041,2.695-6.719,4.56c-1.061-0.099-1.855,0.065-2.4,0.48
	c-0.02,0.978,0.658,2.13-0.24,2.64c-0.834,0.193-0.922-0.357-1.68-0.24c-1.07,1.73-3.648,1.953-4.08,4.32
	c-0.633,0.084-1.416,0.198-2.16,0.72c-0.125,2.354-1.412,3.549-2.641,4.8c0.057,1.336-0.195,2.364-1.439,2.4
	c0.756,2.634-1.777,4.338-0.24,6.96c-0.232,0.647-0.828,0.932-0.959,1.68c0.578,1.02,1.393,1.806,1.199,3.6
	c4.191,1.994,5.006,6.902,4.561,11.76c0.779,0.26,1.512,0.568,1.92,1.2c-0.994-2.221-1.611-4.337-0.961-6.96
	c-1.102-0.658-0.986-2.533-1.439-3.84c-1.785-0.295-1.42-2.74-3.121-3.12c0.115-1.554-0.771-2.107-0.959-3.36
	c0.98-1.442,0.371-5.208,1.199-7.44c0.32,0,0.641,0,0.961,0c0.24-1.484-0.014-3.232,1.92-3.84c-0.174-0.858,0.893-2.571,0.721-3.6
	C56.728,36.141,57.796,35.634,58.181,36.163z M72.821,23.203c0.277,0.201,0.643,0.316,1.199,0.24
	C74.253,22.561,72.843,22.488,72.821,23.203z M87.462,23.442c0.121,0.758,1.096,0.664,1.68,0.96
	C89.009,23.305,88.45,23.168,87.462,23.442z M91.062,24.402c0.613-0.185,1.104,0.939,1.439,0.24
	c-0.453-0.027-0.166-0.793-0.721-0.72C91.778,24.319,91.116,24.057,91.062,24.402z M99.222,28.962
	c0.131-0.787-0.604-1.936-1.201-1.2C99.052,27.531,98.442,28.941,99.222,28.962z M108.821,40.482c-0.029-0.4,0.777-1.527-0.238-1.44
	C108.72,39.464,108.292,40.453,108.821,40.482z M68.741,49.843c1.391-0.271,1.744,0.494,2.641,0.72
	c0.27-0.609,1.18-0.579,1.199-1.44c-3.328,2.605-6.541-4.558-9.6-1.44c1.543-0.784,1.98,1.124,3.359,0
	c0.268,0.372,0.781,0.5,0.721,1.2C67.806,48.539,69.022,48.513,68.741,49.843z M80.741,48.402c-1.439-0.691-3.174-1.862-4.561-0.96
	C77.8,47.36,79.872,48.833,80.741,48.402z M84.341,50.562c-0.396-0.804-0.709-1.69-1.68-1.92
	C83.042,49.462,83.464,50.241,84.341,50.562z M71.142,52.243c-1.912-1.503-4.141-1.666-6.721-2.64
	c-0.178,1.262-1.756,1.122-1.439,2.88c1.732,0.632,5.021,0.385,5.52,2.88c-1.721,0.135-6.17-2.658-6.24,1.44
	c4.488-1.796,7.668,2.481,7.441,7.2c-0.213,4.398-4.455,6.81-6.48,8.4c-0.945,5.146,4.039,1.688,7.199,2.4
	c0.65-0.311,0.607-1.313,1.439-1.44c0.299,0.532-0.281,1.848-0.959,2.161c-3.012-0.125-5.367,1.506-7.92,0.479
	c0.016,1.585,0.969,2.229,1.439,3.358c1.053,0.254,0.789-0.812,1.68-0.719c0.352,0.529,1.285,0.476,1.441,1.199
	c1.035-0.005,0.885-1.195,1.92-1.199c1.998,0.933,5.875,0.517,7.68-0.24c0.57-0.256-0.516-1.105,0.24-1.439
	c1.201,0.639,1.756,1.924,2.639,2.88c-0.176,0.384-1.174-0.055-0.959,0.72c-2.254,3.987-5.25,7.231-10.801,7.92
	c1.078,6.811,8.588,6.207,13.92,4.562c-0.555,0.964-1.771,1.269-2.639,1.92c-0.035,4.695,0.271,8.263-1.682,11.04
	c-0.461-0.098-0.189-0.931-0.959-0.721c-1.146,1.015-2.42,1.9-2.881,3.601c3.307,3.927,19.357-2.547,13.201-6
	c-0.582,0.138,0.111,1.554-0.721,1.439c-1.379-4.349-1.402-9.693-0.48-14.159c-0.754-0.121-0.979,0.564-1.199-0.24
	c-0.18-0.738,0.658-0.462,0.48-1.199c-3.266-5.654,0.938-13.386,7.68-12c-0.174,0.733,0.414,0.705,0.24,1.439
	c0.18,0.9-0.918,0.521-0.961,1.199c3.33-0.311,6.221-6.629,3.6-10.08c-2.428-0.944-3.561,0.021-5.76,0.72
	c-0.617-0.424-1.176-0.903-1.68-1.44c0.316-3.843,0.582-6.452,0.721-10.08c-1.811-0.351-1.613-2.707-3.121-3.36
	c0.566-3.926-3.563-3.157-4.799-5.28c-0.285,0.436-1.252,0.188-1.68,0.48C76.849,47.199,73.368,50.788,71.142,52.243z
	 M61.062,53.922c0.557,0.077,0.92-0.039,1.199-0.24c-1.074-1.344,0.295-3.392-0.24-3.84C60.872,50.374,61.585,52.767,61.062,53.922z
	 M87.7,53.203c0.027-0.907-0.469-1.291-1.199-1.44C86.604,52.539,87.308,52.715,87.7,53.203z M89.142,55.123
	c-0.438-0.522-1.166-0.754-1.92-0.96C87.274,55.365,88.716,55.015,89.142,55.123z M60.581,61.843c1.561,1.733,5.467,1.809,8.16,1.68
	c0.307-3.346-1.352-4.728-2.881-6.24C62.28,56.982,60.882,58.863,60.581,61.843z M59.382,60.163c-0.459,0.45-0.436-0.143-1.201,0
	c-0.111,0.724-1.486,1.797-0.479,2.16c0.01-1.11,0.682-1.559,1.92-1.44c-0.092-1.218,1.256-2.255,0.719-3.12
	C59.954,58.495,59.792,59.453,59.382,60.163z M90.821,63.283c-0.121-0.598,0.008-1.448-0.721-1.44
	C89.659,62.314,90.312,63.042,90.821,63.283z M62.981,64.243c-0.484-0.336-2.959-0.783-2.4,0c-0.012,1.772,0.453,2.637,1.439,3.84
	c0.844,0.888,3.545,2.361,4.32,0.48c0.881,0.001,0.92-0.84,1.439-1.2c0.752-0.092,1.564-3.448,0.24-2.64
	C66.456,66.296,63.329,66.987,62.981,64.243z M91.542,67.843c-0.844,0.042-0.791-0.811-1.441-0.96
	C89.944,67.825,91.202,68.859,91.542,67.843z M60.341,72.163c0-0.48,0-0.961,0-1.44c-1.861,0.021-2.24-1.439-3.119-2.4
	C56.827,70.272,58.938,71.266,60.341,72.163z M62.021,72.643c0.154-1.206,1.527-1.194,1.682-2.4c-0.76,0.04-0.803-0.638-1.682-0.479
	C61.829,70.382,61.481,72.088,62.021,72.643z M62.741,79.361c0-0.318,0-0.639,0-0.959c-0.422-0.059-0.547-0.413-0.48-0.961
	c-2.705,0.656-3.941,2.779-4.08,6c-0.531,0.783,0.037,2.517,0.721,2.881c0,0.24,0.195,0.285,0.24,0.479
	c-0.127,0.298,0.605,1.784,1.439,1.921c0.613,0.025,0.84,0.439,1.201,0.719c0.488,0.401,1.768,1.259,2.398,0.722
	c0.902,0.438,1.771-0.205,2.881-0.24c0.588-0.45,0.17-1.915-0.24-2.159c-0.844,0.65-2.574-0.216-3.119,0.239
	c-0.146-0.014-0.285-0.036-0.24-0.239c-0.465-0.736-1.314-1.087-1.92-1.681c-0.146-0.015-0.285-0.036-0.24-0.24
	C60.71,83.563,61.21,80.921,62.741,79.361z M91.542,77.202c-4.523,0.688-7.52,5.049-5.762,9.841c-0.65,0.676,2.645,3.887,1.439,2.16
	c0.559,0.162,0.643,0.797,1.201,0.96c0.293,0.676,1.721,1.466,2.398,0.96c0.545,0.463,2.014,0.002,2.16,0.238
	c0.021,0.084,2.141,0.234,2.16-0.479c0.719-0.48,1.615-0.783,2.16-1.439c1.143-0.7,2.281-2.674,2.16-3.84
	c0.133-2.133-0.293-3.707-0.961-5.041c-0.359-1.164-1.838-2.476-2.879-2.16c0,0.16,0,0.32,0,0.48
	c0.787,0.811,1.416,1.783,2.158,2.641c-0.01,0.33,0.113,0.526,0.24,0.72c-0.547,0.333-0.09,1.671-0.24,2.399c0,0.08,0,0.16,0,0.24
	c-0.729,1.512-1.926,2.555-3.119,3.6c-0.08,0-0.16,0-0.24,0c-0.568-0.309-2.32,0.481-2.641,0.48c-0.561-0.079-0.99-0.289-1.439-0.48
	c-0.523-0.756-1.344-1.215-2.16-1.68c-1.475-1.738-1.547-5.551,0.24-6.96c1.25-0.591,2.076-1.604,3.84-1.68
	C92.329,77.536,92.343,76.962,91.542,77.202z M68.021,80.803c-1.102-0.541-2.658-1.111-3.6,0c1.492,0.952,0.137,2.188,0.48,3.6
	c1.529,6.275,11.768,0.806,12.48-3.358c-2.873,1.817-8.41,2.812-11.76,1.438c0.23-0.772,1.16-0.115,1.92-0.719
	c3.375,1.584,6.846,0.211,9.6-1.921c-0.027-0.293-0.072-0.567-0.48-0.479C74.806,81.105,70.138,79.02,68.021,80.803z M63.702,81.282
	c-0.068-0.492-0.643-0.479-0.961-0.72c-2.758,1.334,0.121,7.375,0.721,6c0.438,0.064,1.346,0.863,1.68,0.239
	C63.583,85.418,64.224,83.232,63.702,81.282z M92.021,86.803c-0.201,0.518-1.527-0.09-1.68,0.479c3.852,1.962,8.262-2.144,6-5.521
	C95.356,83.898,92.64,84.301,92.021,86.803z M89.622,86.083c-0.1-0.862-1.068-0.854-1.201-1.681
	C88.61,85.174,88.644,86.102,89.622,86.083z M78.101,101.923c0.186-0.932-2.287,0.627-2.639,1.438
	c-0.695,0.99-2.449,2.188-1.92,3.602c0.217-0.424,0.537-0.742,0.959-0.96c0.475-0.015,1.648-1.387,2.4-1.92
	c0.158-0.321,0.514-0.446,0.959-0.479C77.864,102.965,77.771,102.232,78.101,101.923z M75.462,113.203
	c3.811,3.249,11.426,0.415,14.879-1.2c0.488-1.192,1.703-1.657,1.439-3.601C87.845,111.378,82.024,113.643,75.462,113.203z"/>
<path fill="#AD892A" d="M80.021,112.243c1.717-0.765,3.879-1.081,5.76-1.681C84.022,111.725,82.046,111.766,80.021,112.243z"/>
<path fill="#26221D" d="M91.78,106.243c-0.572,0.871-1.68,2.474-2.398,2.399C90.329,107.99,90.858,106.919,91.78,106.243z"/>
<path fill="#AD892A" d="M87.462,98.322c1.137,0.152,2.73,1.251,3.357,2.641C89.849,99.83,88.409,98.797,87.462,98.322z"/>
<path fill="#26221D" d="M75.462,103.361c0.352-0.813,2.824-2.37,2.639-1.438C76.743,101.924,76.437,102.979,75.462,103.361z"/>
<path fill="#26221D" d="M74.501,106.003c0.729-0.711,1.307-1.575,2.4-1.92C76.149,104.616,74.974,105.988,74.501,106.003z"/>
<path fill="#26221D" d="M86.261,60.883c0.209,1.409-1.359,1.04-1.68,1.92c-0.146,3.783-0.949,6.633-3.119,7.92
	c-7.596,4.501-12.547-13.023-4.08-14.88c-1.904,1.855-3.693,3.827-3.361,7.92c2.857,0.113,8.52-0.471,8.881-3.12
	c0.275-2.014-2.271-4.582-5.279-4.56c0-0.24,0-0.48,0-0.72c3.516-1.105,6.258,3.319,6.979,5.867
	C84.601,61.229,85.646,60.794,86.261,60.883z M83.622,63.283c-0.861-0.088-0.879-0.645-1.682-0.24
	c0.244,2.163-1.094,2.746-2.879,2.88c-1.234-1.216-2.828-1.719-4.801-0.72C76.136,73.111,84.208,70.486,83.622,63.283z"/>
<path fill="#26221D" d="M78.581,116.803c0.801,0,1.6,0,2.4,0c0,0.16,0,0.32,0,0.479C80.144,117.161,79.169,117.175,78.581,116.803z"
	/>
<ellipse fill="#BCBBBA" cx="64.923" cy="64.755" rx="0.242" ry="0.261"/>
<ellipse fill="#BCBBBA" cx="79.614" cy="64.52" rx="0.256" ry="0.235"/>
<path fill="#BCBBBA" d="M74.261,65.203c0.916-0.62,3.373-0.762,3.4-0.729c0.535,0.674,0.969,1.328,1.672,1.344
	c1.707-0.209,2.797-0.672,2.607-2.775c0.801-0.404,0.818,0.152,1.68,0.24C84.208,70.486,76.136,73.111,74.261,65.203z"/>
<path fill="#503526" d="M80.022,231.196c0.537-1.229,2.02-0.404,2.641,0.24c3.229-1.943,6.486,1.632,10.08,0
	c-0.568,1.491-2.266,0.42-3.6,1.2c-1.422-1.538-4.289-1.666-6.48-0.721C81.696,231.684,81.31,230.411,80.022,231.196z"/>
<path fill="#503526" d="M93.224,231.677c0.557-0.077,0.92,0.039,1.199,0.239C94.401,232.631,92.991,232.558,93.224,231.677z"/>
<path fill="#503526" d="M78.103,230.717c0.584,0.296,1.559,0.201,1.68,0.96C78.794,231.95,78.235,231.813,78.103,230.717z"/>
<path fill="#503526" d="M75.464,231.196c-0.555,0.073-0.268-0.693-0.721-0.72c0.336-0.699,0.826,0.425,1.439,0.24
	C76.128,231.062,75.466,230.8,75.464,231.196z"/>
<path fill="#503526" d="M69.224,227.355c-0.6,0.736-1.332-0.413-1.201-1.2C68.802,226.178,68.192,227.587,69.224,227.355z"/>
<path fill="#503526" d="M58.663,216.076c-1.018,0.087-0.211-1.04-0.238-1.439C58.952,214.665,58.524,215.654,58.663,216.076z"/>
<path fill="#503526" d="M84.583,206.476c-0.971-0.229-1.283-1.116-1.68-1.92C83.78,204.877,84.202,205.656,84.583,206.476z"/>
<path fill="#503526" d="M87.702,204.795c-0.428,0.292-1.395,0.045-1.68,0.48c-1.236-2.123-5.365-1.354-4.799-5.28
	c-1.508-0.652-1.313-3.009-3.121-3.359c0.139-3.628,0.404-6.237,0.721-10.08c-0.504-0.537-1.063-1.018-1.68-1.44
	c-2.199,0.699-3.332,1.665-5.76,0.72c-2.621-3.45,0.27-9.77,3.6-10.08c-0.043,0.678-1.141,0.299-0.961,1.199
	c-0.174,0.734,0.414,0.706,0.24,1.439c6.742,1.386,10.945-6.346,7.68-12c-0.178-0.737,0.66-0.461,0.48-1.199
	c-0.219-0.807-0.445-0.119-1.199-0.24c0.922-4.466,0.896-9.813-0.48-14.159c-0.832-0.112-0.139,1.302-0.721,1.439
	c-6.156-3.453,9.895-9.927,13.201-6c-0.461,1.7-1.734,2.586-2.881,3.601c-0.77,0.21-0.498-0.623-0.959-0.721
	c-1.953,2.777-1.646,6.345-1.682,11.04c-0.867,0.651-2.084,0.956-2.639,1.92c5.332-1.646,12.842-2.249,13.92,4.562
	c-5.551,0.688-8.547,3.933-10.801,7.92c0.215,0.773-0.783,0.336-0.959,0.72c0.883,0.956,1.438,2.241,2.639,2.88
	c0.756-0.334-0.33-1.186,0.24-1.439c1.805-0.757,5.684-1.173,7.68-0.24c1.035-0.004,0.885-1.194,1.92-1.199
	c0.156,0.725,1.09,0.67,1.441,1.199c0.891,0.093,0.627-0.973,1.68-0.719c0.471,1.129,1.424,1.773,1.439,3.358
	c-2.553-1.026-4.908,0.604-7.92,0.479c-0.68,0.313-1.258,1.629-0.959,2.161c0.832-0.129,0.791-1.131,1.439-1.44
	c3.16,0.713,8.145-2.746,7.199,2.4c-2.025,1.59-6.268,4.002-6.48,8.399c-0.227,4.718,2.953,8.996,7.441,7.2
	c-0.068,4.098-4.52,1.305-6.24,1.44c0.498,2.495,3.787,2.249,5.52,2.88c0.316,1.758-1.262,1.617-1.439,2.88
	c-2.582-0.976-4.809-1.138-6.721-2.641C93.876,204.33,90.396,207.919,87.702,204.795z M93.702,200.235
	c-1.605-0.376-2.697,1.356-4.559,1.44c-1.957,0.088-3.693-1.563-5.521-1.2C85.321,203.557,92.399,204.065,93.702,200.235z
	 M89.622,199.756c0-0.24,0-0.48,0-0.721c-3.008,0.022-5.555-2.546-5.279-4.56c0.361-2.649,6.023-3.233,8.881-3.12
	c0.332,4.093-1.457,6.063-3.361,7.92c8.467-1.856,3.516-19.382-4.08-14.88c-2.17,1.287-2.973,4.137-3.119,7.92
	c-0.32,0.88-1.889,0.511-1.68,1.92c0.473,0.068,1.66-0.347,1.66-0.347C83.478,196.392,85.979,200.721,89.622,199.756z
	 M76.423,181.995c-0.834,0.047-0.91,0.851-1.682,0.96c-1.008-0.271-0.381-2.179-1.438-2.399c-0.865,0.792-0.33,2.417,0,3.36
	c-0.664,0.138-1.348,0.254-1.201,1.199C74.245,184.912,76.661,183.789,76.423,181.995z"/>
<path fill="#503526" d="M105.224,205.275c-0.535-0.448,0.834-2.496-0.24-3.84c0.279-0.201,0.643-0.316,1.199-0.24
	C105.659,202.352,106.372,204.744,105.224,205.275z"/>
<path fill="#503526" d="M80.743,203.355c-0.73-0.149-1.227-0.533-1.199-1.44C79.937,202.403,80.64,202.579,80.743,203.355z"/>
<path fill="#26221D" d="M83.622,200.476c1.828-0.362,3.564,1.289,5.521,1.2c1.861-0.084,2.953-1.816,4.559-1.44
	C92.399,204.065,85.321,203.557,83.622,200.476z"/>
<path fill="#503526" d="M101.384,197.835c-1.529-1.512-3.188-2.894-2.881-6.239c2.693-0.129,6.602-0.054,8.16,1.68
	C106.362,196.256,104.964,198.137,101.384,197.835z"/>
<path fill="#503526" d="M77.144,193.275c-0.729,0.008-0.6-0.842-0.721-1.44C76.933,192.076,77.585,192.805,77.144,193.275z"/>
<path fill="#503526" d="M77.144,188.235c-0.65-0.149-0.6-1.002-1.441-0.96C76.042,186.26,77.3,187.293,77.144,188.235z"/>
<path fill="#503526" d="M110.022,186.795c-0.879-0.96-1.258-2.42-3.119-2.399c0-0.479,0-0.96,0-1.44
	C108.306,183.853,110.417,184.847,110.022,186.795z"/>
<path fill="#503526" d="M105.224,185.355c-0.879,0.158-0.922-0.521-1.682-0.479c0.154-1.206,1.527-1.193,1.682-2.399
	C105.763,183.03,105.415,184.736,105.224,185.355z"/>
<path fill="#26221D" d="M72.103,185.115c-0.146-0.945,0.537-1.063,1.201-1.199c-0.33-0.943-0.865-2.568,0-3.36
	c1.059,0.222,0.43,2.13,1.438,2.399c0.771-0.109,0.848-0.913,1.682-0.96C76.661,183.789,74.245,184.912,72.103,185.115z"/>
<path fill="#AD892A" d="M81.464,168.075c1.758,4.792-1.238,9.152-5.762,9.841c-0.053-0.188-0.199-0.278-0.479-0.239
	c0.543-1.025,2.752-1.054,3.6-2.4c1.789-1.409,1.715-5.223,0.24-6.96c-0.57-0.708-1.287-1.272-2.16-1.681
	c-0.447-0.19-0.879-0.4-1.438-0.479c-0.5-0.265-2.027,0.103-2.643,0.479c-0.08,0-0.16,0-0.24,0c-1.541,0.541-2.91,2.524-3.117,3.601
	c0,0.08,0,0.159,0,0.239c-0.549,0.334-0.092,1.672-0.24,2.4c0.127,0.192,0.25,0.391,0.24,0.721c0.564,1.032,0.953,2.244,2.158,2.64
	c0,0.159,0,0.319,0,0.479c-1.406-0.272-2.039-1.32-2.881-2.16c-0.666-1.332-1.092-2.906-0.959-5.039
	c0.443-1.558,1.314-2.686,2.16-3.84c0.543-0.658,1.439-0.961,2.16-1.44c0.564-0.313,1.658-0.103,2.16-0.479
	c0.146,0.237,1.615-0.224,2.16,0.239c0.875,0.244,1.645,0.597,2.398,0.96c0.559,0.163,0.643,0.798,1.199,0.96
	C80.665,166.472,81.147,167.19,81.464,168.075z"/>
<path fill="#AD892A" d="M109.063,171.677c-0.139,3.221-1.375,5.344-4.08,6c0.066-0.548-0.059-0.902-0.48-0.961
	c0-0.32,0-0.641,0-0.959c1.865-1.414,2.736-4.326,1.439-6.48c0.045-0.204-0.092-0.227-0.24-0.24c-0.568-0.631-0.953-1.445-1.92-1.68
	c0.045-0.204-0.094-0.228-0.24-0.24c-1.041-0.496-2.648,0.064-3.359-0.239c0-0.561,0-1.12,0-1.681
	c1.107-0.035,1.979-0.68,2.881-0.24c0.891,0.148,1.508,0.572,2.398,0.721c0.361,0.279,0.588,0.693,1.201,0.721
	c0.459,0.66,1.064,1.175,1.439,1.92c0.045,0.193,0.242,0.238,0.24,0.48C108.638,169.701,109.147,170.392,109.063,171.677z"/>
<path fill="#843127" d="M90.583,175.757c-0.408,0.088-0.453-0.188-0.48-0.48c2.754-2.133,6.225-3.504,9.6-1.92
	c0.76-0.604,1.689,0.054,1.92-0.721c-3.352-1.371-8.887-0.379-11.76,1.439c0.715-4.164,10.953-9.635,12.48-3.359
	c0.344,1.411-1.012,2.647,0.48,3.601c-0.941,1.112-2.498,0.54-3.6,0C97.106,176.099,92.438,174.013,90.583,175.757z"/>
<path fill="#FFFFFF" d="M103.782,168.556c1.84,0.807,2.127,4.277,0.721,5.761c-0.355-0.125-0.605-0.355-0.961-0.479
	c-0.521-1.951,0.119-4.136-1.439-5.521C102.438,167.691,103.345,168.49,103.782,168.556z"/>
<path fill="#FFFFFF" d="M70.903,173.354c-2.262-3.375,2.148-7.48,6-5.52c-0.15,0.569-1.479-0.037-1.68,0.479
	C74.604,170.817,71.888,171.22,70.903,173.354z"/>
<path fill="#26221D" d="M69.464,170.476c-0.15,0.729,0.307,2.066-0.24,2.399C69.374,172.146,68.915,170.808,69.464,170.476z"/>
<path fill="#AD892A" d="M80.022,156.796c-0.08,0-0.16,0-0.24,0c-0.947-0.475-2.387-1.508-3.357-2.641
	c-0.908-1.909-1.814-3.262-0.961-5.28c0.924-0.676,1.451-1.747,2.398-2.399c1.061-0.78,2.33-1.35,3.602-1.92
	c1.881-0.6,4.043-0.916,5.76-1.681c2.336-0.098,4.16,0.17,5.76-0.239c1.66,0.607,2.83,1.808,4.08,3.359c0,0.08,0,0.16,0,0.24
	c0.342,0.803,0.342,2.316,0,3.119c-0.416,0.465-0.543,1.218-0.959,1.681c-0.459,0.661-1.02,1.222-1.68,1.681
	c-1.191,1.129-2.684,1.959-4.08,2.881c-0.428-0.145-0.998,0.703-1.201,0c-0.258-1.299,1.07-1.012,1.439-1.682
	c0.559-0.322,1.078-0.682,1.441-1.199c1.363-0.718,2.334-1.826,2.879-3.359c0.205,0.044,0.229-0.094,0.24-0.24
	c0.727-2.352-0.838-3.988-2.641-4.561c-0.488-0.133-0.471-0.723-0.959-0.239c-0.182-0.396-1.979-0.396-2.16,0
	c-0.307-0.328-1.133-0.328-1.439,0c-0.768-0.28-2.627,0.407-3.6,0.72c-3.971,0.93-9.293,4.191-6.721,8.641
	c0.395,1.207,2.049,1.152,2.881,1.92C80.397,156.05,80.829,157.042,80.022,156.796z"/>
<path fill="#26221D" d="M79.544,153.677c0.523-0.045,0.764,0.195,0.721,0.719c-0.24,0-0.48,0-0.721,0
	C79.376,154.202,79.169,153.738,79.544,153.677z"/>
<path fill="#AD892A" d="M91.782,151.757c-0.975,0.383-1.281,1.438-2.639,1.438c0.33-0.31,0.236-1.042,0.24-1.681
	c0.445-0.033,0.801-0.158,0.959-0.479c1.096-0.345,1.672-1.209,2.4-1.92c0.422-0.218,0.742-0.536,0.959-0.96
	C94.231,149.569,92.479,150.767,91.782,151.757z"/>
<path fill="#AD892A" d="M74.263,149.115c-0.373,1.922-1.494-0.365-1.682-1.438c0-0.802,0-1.602,0-2.4
	c1.078-1.963,2.322-3.76,4.32-4.801c0.205,0.045,0.227-0.094,0.24-0.239c1.207-0.072,1.789-0.771,2.881-0.96
	c1.193-0.691,2.063-0.381,3.119-0.96c0.721,0,1.439,0,2.16,0c0.654,0.021,0.482-0.399,0.961,0c0.799,0,1.6,0,2.398,0
	c2.824,0.776,5.316,1.884,6.721,4.079c0,0.16,0,0.32,0,0.479c-2.51-0.688-3.156-3.243-6.24-3.358c-1.412-0.381-2.73-0.147-3.6,0
	c-1.213,0.354-3.68,0.123-4.801,1.199c-0.08,0-0.16,0-0.238,0c-1.236,0.443-2.242,0.305-3.119,1.439
	c-1.168,0.271-2.018,0.863-2.4,1.92c-0.557,0.645-0.945,1.456-0.961,2.641C73.88,146.798,73.96,148.685,74.263,149.115z"/>
<path fill="#503526" d="M75.464,146.716c-0.264-1.941,0.951-2.408,1.439-3.601c3.453-1.615,11.07-4.449,14.879-1.2
	C85.22,141.476,79.399,143.74,75.464,146.716z"/>
<path fill="#504E6D" d="M78.823,130.396c-1.467,3.332-4.127,5.475-4.318,10.08c-1.365,1.756-3.059,3.183-3.121,6.24
	c-4.359-2.8-10.221-2.439-14.4-4.802c-4.26-2.405-5.316-6.767-7.199-11.521C59.464,130.396,69.144,130.396,78.823,130.396z"/>
<path fill="#504E6D" d="M114.823,130.396c0.512,9.361-10.861,10.248-16.801,14.64c-2.404-2.054-2.17-5.63-3.6-8.399
	c-1.105-2.144-2.934-4.721-4.08-6.24C98.503,130.396,106.663,130.396,114.823,130.396z"/>
<path fill="#26221D" d="M89.384,144.315c0.182-0.396,1.977-0.396,2.158,0C90.429,144.175,90.095,144.644,89.384,144.315z"/>
<path fill="#503526" d="M80.263,130.396c3.041,0,6.08,0,9.121,0c1.623,2.938,3.629,5.49,4.799,8.88
	c-4.725-3.585-13.307-2.294-18.24,0.239C76.431,135.522,78.772,133.386,80.263,130.396z"/>
<path fill="#26221D" d="M67.063,172.155c-0.514-0.686-0.234-2.624,0-3.359C67.351,169.257,66.87,170.994,67.063,172.155z"/>
<path fill="#503526" d="M56.503,195.436c-1.047,0.563-0.891,2.3-0.721,2.88C54.89,197.379,55.493,195.814,56.503,195.436z"/>
<path fill="#503526" d="M55.304,203.597c0.166-1.387-1.969-2.298-0.24-3.12C53.64,201.449,56.175,202.525,55.304,203.597z"/>
<path fill="#503526" d="M63.464,224.476c-1.199-0.08-1.848-0.712-2.16-1.681C61.466,223.76,63.489,224.119,63.464,224.476z"/>
<path fill="#503526" d="M66.823,227.116c-0.367-1.313-1.271-2.087-2.641-2.399C65.151,224.317,67.261,226.109,66.823,227.116z"/>
<path fill="#503526" d="M81.702,233.116c-0.613-0.844-1.594-0.267-2.398,0c0.453-0.427,0.969-0.791,1.92-0.72
	c0.105,0.214,0.211,0.429,0.479,0.479C81.702,232.955,81.702,233.035,81.702,233.116z"/>
<path fill="#503526" d="M103.304,228.315c0.135-0.194,1.92-0.791,1.92-1.92C105.103,227.556,104.659,228.392,103.304,228.315z"/>
<path fill="#503526" d="M111.224,221.116c-1.408,0.272-1.201,2.16-2.4,2.641c0.928-0.991,1.131-2.708,2.639-3.12
	C111.417,220.83,111.222,220.875,111.224,221.116z"/>
<path fill="#503526" d="M113.384,219.196c-0.219-1.499,0.563-1.996,1.199-2.64C114.054,217.306,113.61,218.144,113.384,219.196z"/>
<path fill="#503526" d="M117.462,211.275c-0.045,1.074-0.613,1.626-1.199,2.16C114.962,214.806,117.245,212.081,117.462,211.275z"/>
<path fill="#503526" d="M117.224,200.476c-1.377-0.864-2.029-2.453-3.121-3.601C115.479,197.739,116.093,199.366,117.224,200.476z"
	/>
<path fill="#26221D" d="M109.782,173.836c-0.18,1.5-0.895,2.466-1.92,3.119C108.632,176.044,109.192,174.927,109.782,173.836z"/>
<path fill="#26221D" d="M91.063,156.075c-0.531,0.83-2.137,0.584-2.16,1.92C88.147,156.83,90.269,156.487,91.063,156.075z"/>
<path fill="#503526" d="M111.462,219.196c-0.172-1.029,0.895-2.742,0.721-3.6c1.934-0.608,1.68-2.356,1.92-3.84
	c0.32,0,0.641,0,0.961,0c0.828-2.232,0.219-5.998,1.199-7.44c-0.188-1.252-1.074-1.806-0.959-3.36
	c-1.701-0.38-1.336-2.824-3.121-3.12c-0.453-1.307-0.338-3.182-1.439-3.84c0.65-2.623,0.033-4.738-0.961-6.96
	c0.408,0.631,1.141,0.94,1.92,1.2c-0.445,4.858,0.369,9.767,4.561,11.76c-0.193,1.794,0.621,2.58,1.199,3.601
	c-0.131,0.748-0.727,1.033-0.959,1.68c1.537,2.622-0.996,4.326-0.24,6.96c-1.244,0.036-1.496,1.064-1.439,2.4
	c-1.229,1.25-2.516,2.444-2.641,4.8c-0.744,0.521-1.527,0.636-2.16,0.72c-0.432,2.367-3.01,2.589-4.08,4.32
	c-0.756,0.118-0.846-0.434-1.68-0.24c-0.898,0.509-0.223,1.662-0.24,2.64c-0.545,0.415-1.34,0.579-2.4,0.48
	c-1.678,1.865-3.529,5.768-6.719,4.56c2.271-1.168,4.684-2.195,5.52-4.8c1.314,0.194,1.438-0.802,2.641-0.72
	c-0.34-1.792,0.752-2.276,0.719-3.12c0.494-0.485,0.48,0.098,0.721,0.48c2.09-1.401,4.682-2.208,4.561-4.801
	C109.448,219.484,110.517,218.978,111.462,219.196z"/>
<path fill="#503526" d="M100.183,206.235c-0.061,0.7,0.453,0.828,0.721,1.2c1.379-1.124,1.816,0.784,3.359,0
	c-3.059,3.118-6.271-4.045-9.6-1.44c0.02-0.86,0.93-0.831,1.199-1.439c0.896,0.226,1.25,0.989,2.641,0.72
	C98.222,206.605,99.438,206.579,100.183,206.235z"/>
<path fill="#503526" d="M91.063,207.677c-1.387,0.901-3.121-0.27-4.561-0.96C87.372,206.285,89.444,207.759,91.063,207.677z"/>
<path fill="#503526" d="M80.022,200.955c-0.754-0.206-1.482-0.438-1.92-0.96C78.528,200.104,79.97,199.753,80.022,200.955z"/>
<path fill="#503526" d="M106.903,197.355c-0.537-0.865,0.811-1.902,0.719-3.12c1.238,0.119,1.91-0.33,1.92-1.44
	c1.008,0.363-0.367,1.437-0.479,2.16c-0.766,0.144-0.742-0.449-1.201,0C107.452,195.665,107.29,196.623,106.903,197.355z"/>
<path fill="#BCBBBA" d="M99.462,187.756c-0.061,0.687-1.406,2.281-0.238,2.64C97.899,191.203,98.712,187.848,99.462,187.756z"/>
<path fill="#BCBBBA" d="M104.263,190.875c-0.348-2.744-3.475-2.054-5.039-0.479c-1.168-0.358,0.178-1.954,0.238-2.64
	c0.521-0.359,0.561-1.201,1.441-1.2c1.129-1.527,3.129-0.055,4.32,0.479c0.986,1.203,1.451,2.067,1.439,3.84c0,0.08,0,0.16,0,0.24
	C105.704,191.195,105.331,190.688,104.263,190.875z"/>
<path fill="#BCBBBA" d="M106.663,190.875c0.559,0.783-1.916,0.336-2.4,0c1.068-0.188,1.439,0.32,2.4,0.24
	C106.663,191.035,106.663,190.955,106.663,190.875z"/>
<path fill="#26221D" d="M100.903,186.557c0.775-1.881,3.479-0.408,4.32,0.479C104.032,186.501,102.032,185.028,100.903,186.557z"/>
<path fill="#26221D" d="M108.343,168.796c0.684,0.364,1.252,2.098,0.721,2.881C109.147,170.392,108.638,169.701,108.343,168.796z"/>
<path fill="#26221D" d="M106.663,166.396c0.832,0.136,1.566,1.621,1.439,1.92C107.728,167.57,107.122,167.056,106.663,166.396z"/>
<path fill="#AD892A" d="M105.462,165.677c-0.891-0.148-1.508-0.572-2.398-0.722C103.694,164.418,104.974,165.274,105.462,165.677z"
	/>
<path fill="#AD892A" d="M103.542,167.115c-0.545,0.455-2.275-0.411-3.119,0.239c-0.41-0.244-0.828-1.709-0.24-2.159
	c0,0.562,0,1.12,0,1.681C100.894,167.181,102.501,166.619,103.542,167.115z"/>
<path fill="#AD892A" d="M105.702,169.035c-0.605-0.594-1.455-0.942-1.92-1.681C104.749,167.589,105.134,168.404,105.702,169.035z"/>
<path fill="#AD892A" d="M104.503,175.757c1.531-1.56,2.031-4.201,1.439-6.48C107.239,171.431,106.368,174.343,104.503,175.757z"/>
<path fill="#26221D" d="M80.022,165.915c-1.203-1.727,2.092,1.484,1.441,2.16C81.147,167.19,80.665,166.472,80.022,165.915z"/>
<path fill="#26221D" d="M78.823,164.955c-0.756-0.364-1.523-0.716-2.398-0.96C77.103,163.489,78.53,164.279,78.823,164.955z"/>
<path fill="#26221D" d="M72.103,164.235c0.021-0.713,2.141-0.563,2.16-0.479C73.761,164.134,72.669,163.923,72.103,164.235z"/>
<path fill="#26221D" d="M69.942,165.677c-0.844,1.154-1.717,2.282-2.16,3.84C67.661,168.349,68.8,166.376,69.942,165.677z"/>
<path fill="#AD892A" d="M71.622,176.716c-1.041,0.315-2.52-0.996-2.879-2.16C69.583,175.396,70.216,176.442,71.622,176.716z"/>
<path fill="#AD892A" d="M71.622,176.235c-1.203-0.396-1.594-1.606-2.158-2.641C70.206,174.452,70.835,175.425,71.622,176.235z"/>
<path fill="#26221D" d="M72.583,166.636c-1.193,1.047-2.393,2.088-3.119,3.601C69.673,169.16,71.042,167.177,72.583,166.636z"/>
<path fill="#26221D" d="M72.823,166.636c0.613-0.379,2.143-0.744,2.641-0.479C75.144,166.154,73.392,166.944,72.823,166.636z"/>
<path fill="#26221D" d="M79.063,168.315c-0.816-0.465-1.637-0.924-2.16-1.68C77.776,167.043,78.491,167.606,79.063,168.315z"/>
<path fill="#AD892A" d="M78.823,175.275c-0.848,1.348-3.059,1.375-3.6,2.399c0.277-0.039,0.426,0.053,0.479,0.24
	c-0.801,0.24-0.787-0.334-0.721-0.961C76.747,176.88,77.573,175.866,78.823,175.275z"/>
<path fill="#26221D" d="M103.782,168.556c0.6-1.375,3.479,4.666,0.721,6c-0.318-0.24-0.893-0.228-0.961-0.72
	c0.355,0.124,0.605,0.354,0.961,0.479C105.911,172.833,105.622,169.361,103.782,168.556z"/>
<path fill="#26221D" d="M78.823,170.716c-0.133-0.826-1.104-0.816-1.201-1.681C78.601,169.017,78.634,169.944,78.823,170.716z"/>
<path fill="#26221D" d="M80.022,156.796c0.807,0.246,0.375-0.746,0.48-1.199c-0.834-0.769-2.486-0.713-2.881-1.92
	c0.729,0.313,1.07,1.008,1.92,1.198c0.35-0.104-0.023-0.21,0-0.479c0.24,0,0.48,0,0.721,0c0.043-0.522-0.195-0.764-0.721-0.719
	c-0.045-0.195-0.24-0.24-0.238-0.48c-0.234,0.007-0.188,0.294-0.24,0.48c-0.611-0.029-0.932-0.351-0.961-0.961
	c1.229-0.107,1.313,0.926,2.4,0.961c-0.58,0.769,1.193,2.726-0.48,3.358C80.022,156.955,80.022,156.876,80.022,156.796z"/>
<path fill="#26221D" d="M87.942,144.315c-1.125,0.16-2.91,0.922-3.6,0.72C85.317,144.724,87.175,144.035,87.942,144.315z"/>
<path fill="#26221D" d="M95.144,149.115c0.293-2.021-1.02-3.739-2.641-4.56C94.304,145.127,95.868,146.765,95.144,149.115z"/>
<path fill="#26221D" d="M92.022,152.716c1.098-0.981,2.045-2.115,2.881-3.359C94.356,150.89,93.386,151.998,92.022,152.716z"/>
<path fill="#26221D" d="M90.583,153.915c-0.371,0.67-1.697,0.383-1.439,1.682c0.203,0.703,0.771-0.145,1.199,0
	c-0.496,0.688-1.229,0.848-1.92,0.239C88.421,154.626,89.938,153.681,90.583,153.915z"/>
<path fill="#26221D" d="M96.103,151.035c0.418,0.306-2.172,2.823-1.68,1.681C95.083,152.257,95.644,151.696,96.103,151.035z"/>
<path fill="#26221D" d="M97.063,149.354c0.34-0.803,0.34-2.316,0-3.119C97.774,146.614,97.774,148.976,97.063,149.354z"/>
<path fill="#26221D" d="M83.144,138.315c0.752-0.319,2.857-0.778,2.16,0C84.583,138.315,83.862,138.315,83.144,138.315z"/>
<path fill="#26221D" d="M77.144,140.235c0.488-0.872,2.221-0.5,2.639-1.439c0.234,0.006,0.188,0.293,0.24,0.479
	C78.933,139.464,78.351,140.163,77.144,140.235z"/>
<path fill="#AD892A" d="M76.903,140.476c-2,1.041-3.242,2.836-4.32,4.8C73.294,143.104,75.185,140.839,76.903,140.476z"/>
<path fill="#AD892A" d="M74.263,149.115c0.076,0.558-0.039,0.922-0.24,1.2c-1.023-0.184-1.713-1.959-1.439-2.641
	C72.769,148.75,73.89,151.037,74.263,149.115z"/>
<path fill="#AD892A" d="M74.022,146.716c0.016-1.185,0.404-1.996,0.961-2.641C74.647,144.94,74.415,145.908,74.022,146.716z"/>
<path fill="#AD892A" d="M80.503,140.716c-0.764,0.758-2.326,0.713-3.119,1.439C78.261,141.019,79.267,141.159,80.503,140.716z"/>
<path fill="#AD892A" d="M80.743,140.716c1.121-1.076,3.586-0.846,4.799-1.199C84.487,140.179,82.37,140.056,80.743,140.716z"/>
<path fill="#26221D" d="M92.983,142.636c0.596-0.037,0.742,0.377,1.199,0.479c-0.836-2.044-3.051-2.707-5.039-3.601
	c3.084,0.115,3.729,2.67,6.24,3.359c0-0.158,0-0.318,0-0.479c-0.066,1.664,1.053,2.115,1.68,3.6
	C95.813,144.442,94.642,143.243,92.983,142.636z"/>
<path fill="#26221D" d="M103.304,228.315c-0.031,0.53-1.02,0.102-1.441,0.24c-0.674,2.925-3.283,3.917-5.52,5.279
	c-2.539-0.299-4.104,0.11-7.439,0.24c-1.5-1.856-5.061-0.775-7.201-0.96c0-0.08,0-0.16,0-0.24c-0.268-0.051-0.373-0.266-0.479-0.479
	c-0.951-0.071-1.467,0.293-1.92,0.72c-1.754-0.923-5.027,0.346-6-2.16c-0.586-0.203-1.135,0.517-1.92,0.24
	c-0.527-0.186-0.658-1.49-1.439-1.92c-1.418-0.778-3.328,0.16-3.121-2.16c0.439-1.007-1.672-2.799-2.639-2.399
	c-0.342,0.021-0.68,0.04-0.721-0.24c0.025-0.356-1.996-0.716-2.16-1.681c-0.805-1.917-3.109-2.33-2.879-5.279
	c-0.701-0.26-1.42-0.501-1.682-1.2c0.791-1.305-0.623-2.195-0.961-3.36c-0.131-0.458,0.334-1.095,0.24-1.68
	c-0.125-0.781-0.893-1.314-0.959-1.92c-0.211-1.884,0.123-4.08,0.24-5.76c0.871-1.071-1.664-2.146-0.24-3.12
	c0.955-0.005,0.709-1.21,0.719-2.16c-0.17-0.58-0.326-2.316,0.723-2.88c0.705-0.747,0.916-2.112,0.479-3.36
	c2.342-1.203,1.514-4.092,3.84-5.28c0.039-0.759-0.639-0.802-0.479-1.68c0.453-0.826,1.471-1.089,2.16-1.68
	c-0.115-0.859-0.393-1.387,0-2.16c2.213-1.785,3.424-4.576,5.52-6.479c-0.436-0.766-0.861-1.539-0.961-2.641
	c-0.191-1.161,0.289-2.898,0-3.359c0.982-5.164,8.438-7.859,13.201-4.32c0.172-2.066,0.164-4.314,0.479-6.239
	c-3.174-1.388-5.863-3.257-6.721-6.96c-1.768-0.151-1.908-1.932-2.639-3.12c-6.209-3.604-14.203-3.14-18.48-8.64
	c-1.99-2.559-2.807-5.586-4.32-9.121c0.4,0,0.801,0,1.199,0c1.883,4.755,2.939,9.113,7.201,11.521
	c4.18,2.361,10.041,2.002,14.4,4.802c0.063-3.059,1.756-4.484,3.119-6.24c0.193-4.605,2.854-6.748,4.318-10.08
	c0.48,0,0.961,0,1.441,0c-1.492,2.988-3.832,5.128-4.32,9.119c4.934-2.533,13.516-3.824,18.24-0.239
	c-1.172-3.39-3.178-5.942-4.801-8.88c0.32,0,0.641,0,0.961,0c1.146,1.52,2.975,4.097,4.08,6.24c1.428,2.77,1.195,6.346,3.6,8.398
	c5.938-4.393,17.313-5.277,16.799-14.641c0.4,0,0.801,0,1.201,0c-0.207,10.914-11.209,11.033-17.76,15.601
	c0.219,1.282,0.451,2.896-0.24,3.841c-0.57,0.79-0.992,1.729-1.68,2.399c-1.195,1.845-3.119,2.961-5.281,3.84
	c-0.793,0.412-2.916,0.755-2.16,1.92c0.002,0.638-0.09,1.371,0.24,1.681c2.342,0.604,4.668-0.375,7.201,1.2
	c1.193,0.743,2.176,2.831,3.359,3.119c0.854,0.209,2.055-0.292,2.879-0.239c5.127,0.325,8.318,4.59,7.201,10.08
	c-0.59,1.09-1.152,2.208-1.92,3.119c-0.15,1.211-1.771,0.95-1.92,2.16c0.109,0.852,0.533,1.387,0.48,2.4
	c2.676,0.442,3.574,2.665,5.039,4.319c-0.557,2.076,1.225,1.815,1.439,3.12c-0.617,3.62,0.844,4.995,1.201,7.92
	c1.092,1.147,1.744,2.736,3.119,3.601c-0.281,1.881,1.344,1.855,1.439,3.359c-1.041,1.09-0.734,3.346-0.238,4.801
	c-0.291,0.839-1.75,1.487-0.961,2.64c-0.217,0.806-2.502,3.53-1.199,2.16c0.352,1.952-1.172,2.029-1.682,3.12
	c-0.635,0.645-1.418,1.141-1.199,2.64c-0.455,0.904-0.748,1.971-2.16,1.92c0-0.241,0.193-0.286,0.24-0.479
	c-1.508,0.412-1.711,2.129-2.641,3.12c-1.197,0.882-2.561,1.599-3.6,2.64C105.226,227.524,103.438,228.121,103.304,228.315z
	 M89.144,139.515c1.988,0.894,4.203,1.557,5.039,3.601c-0.457-0.103-0.604-0.517-1.199-0.479c-1.6,0.409-3.424,0.143-5.76,0.239
	c-2.025,0.479-4.002,0.519-5.76,1.681c-1.271,0.57-2.541,1.14-3.602,1.92c-0.721-0.073-1.828,1.528-2.398,2.399
	c-0.855,2.019,0.051,3.371,0.959,5.28c0.627,1.39,2.223,2.486,3.359,2.641c0.08,0,0.16,0,0.24,0c0,0.08,0,0.159,0,0.239
	c1.674-0.634-0.1-2.591,0.479-3.358c-1.086-0.035-1.172-1.068-2.398-0.961c0.029,0.61,0.35,0.932,0.959,0.961
	c0.055-0.188,0.008-0.475,0.24-0.48c0,0.24,0.193,0.285,0.24,0.48c-0.375,0.063-0.168,0.525,0,0.719
	c-0.023,0.271,0.35,0.375,0,0.479c-0.85-0.19-1.193-0.887-1.922-1.198c-2.572-4.449,2.752-7.711,6.721-8.642
	c0.689,0.202,2.477-0.56,3.6-0.72c0.307-0.328,1.133-0.328,1.441,0c0.711,0.328,1.045-0.141,2.158,0
	c0.49-0.482,0.473,0.105,0.961,0.24c1.621,0.819,2.934,2.539,2.641,4.56c-0.016,0.146-0.037,0.284-0.24,0.239
	c-0.836,1.244-1.783,2.379-2.881,3.361c-0.361,0.518-0.883,0.875-1.439,1.198c-0.645-0.235-2.164,0.711-2.16,1.921
	c0.691,0.607,1.424,0.449,1.92-0.24c1.398-0.922,2.891-1.75,4.08-2.879c-0.492,1.143,2.098-1.375,1.68-1.682
	c0.418-0.463,0.543-1.216,0.961-1.68c0.711-0.379,0.711-2.741,0-3.12c0-0.08,0-0.16,0-0.24c-0.627-1.483-1.746-1.935-1.68-3.601
	c-1.404-2.195-3.896-3.303-6.721-4.08c-0.588-0.371-1.563-0.357-2.4-0.479c0,0.159,0,0.319,0,0.479
	c-0.477-0.398-0.305,0.021-0.959,0c0.697-0.777-1.408-0.318-2.16,0c-1.059,0.58-1.928,0.27-3.121,0.961
	c-0.053-0.188-0.006-0.475-0.24-0.479c-0.418,0.939-2.15,0.567-2.639,1.439c-0.016,0.146-0.037,0.284-0.24,0.239
	c-1.719,0.363-3.609,2.629-4.32,4.801c0,0.8,0,1.6,0,2.4c-0.271,0.682,0.416,2.457,1.439,2.639c0.201-0.277,0.316-0.644,0.24-1.199
	c-0.303-0.432-0.383-2.318-0.24-2.398c0.393-0.809,0.625-1.775,0.961-2.642c0.385-1.056,1.232-1.647,2.4-1.92
	c0.791-0.728,2.355-0.683,3.119-1.438c0.078,0,0.158,0,0.238,0c1.627-0.66,3.746-0.537,4.801-1.201
	C86.413,139.368,87.731,139.136,89.144,139.515z M82.663,231.915c2.191-0.944,5.059-0.816,6.48,0.721
	c1.334-0.78,3.031,0.291,3.6-1.2c-3.594,1.632-6.852-1.943-10.08,0c-0.621-0.645-2.104-1.47-2.641-0.24
	C81.31,230.411,81.696,231.684,82.663,231.915z M109.063,218.955c0.121,2.593-2.471,3.399-4.561,4.801
	c-0.24-0.383-0.227-0.967-0.721-0.48c0.033,0.844-1.059,1.328-0.719,3.12c-1.203-0.082-1.326,0.915-2.641,0.72
	c-0.836,2.604-3.248,3.632-5.52,4.8c3.189,1.208,5.041-2.694,6.719-4.56c1.061,0.099,1.855-0.065,2.4-0.48
	c0.02-0.978-0.658-2.13,0.24-2.64c0.834-0.193,0.922,0.357,1.68,0.24c1.07-1.73,3.648-1.953,4.08-4.32
	c0.633-0.084,1.416-0.198,2.16-0.72c0.125-2.354,1.412-3.549,2.641-4.8c-0.057-1.336,0.195-2.364,1.439-2.4
	c-0.756-2.634,1.777-4.338,0.24-6.96c0.232-0.647,0.828-0.932,0.959-1.68c-0.578-1.021-1.393-1.807-1.199-3.601
	c-4.191-1.994-5.006-6.901-4.561-11.76c-0.779-0.26-1.512-0.568-1.92-1.2c0.994,2.222,1.611,4.337,0.961,6.96
	c1.102,0.658,0.986,2.533,1.439,3.84c1.785,0.296,1.42,2.74,3.121,3.12c-0.115,1.555,0.771,2.107,0.959,3.36
	c-0.98,1.442-0.371,5.208-1.199,7.44c-0.32,0-0.641,0-0.961,0c-0.24,1.483,0.014,3.231-1.92,3.84c0.174,0.857-0.893,2.57-0.721,3.6
	C110.517,218.978,109.448,219.484,109.063,218.955z M94.423,231.915c-0.277-0.2-0.643-0.315-1.199-0.239
	C92.991,232.558,94.401,232.631,94.423,231.915z M79.782,231.677c-0.121-0.759-1.096-0.664-1.68-0.96
	C78.235,231.813,78.794,231.95,79.782,231.677z M76.183,230.717c-0.613,0.185-1.104-0.939-1.439-0.24
	c0.453,0.026,0.166,0.793,0.721,0.72C75.466,230.8,76.128,231.062,76.183,230.717z M68.022,226.156
	c-0.131,0.787,0.604,1.937,1.201,1.2C68.192,227.587,68.802,226.178,68.022,226.156z M58.423,214.637
	c0.029,0.399-0.777,1.526,0.238,1.439C58.524,215.654,58.952,214.665,58.423,214.637z M98.503,205.275
	c-1.391,0.271-1.744-0.494-2.641-0.72c-0.27,0.608-1.18,0.579-1.199,1.439c3.328-2.604,6.541,4.559,9.6,1.44
	c-1.543,0.784-1.98-1.124-3.359,0c-0.268-0.372-0.781-0.5-0.721-1.2C99.438,206.579,98.222,206.605,98.503,205.275z M86.503,206.717
	c1.439,0.69,3.174,1.861,4.561,0.96C89.444,207.759,87.372,206.285,86.503,206.717z M82.903,204.557
	c0.396,0.804,0.709,1.689,1.68,1.92C84.202,205.656,83.78,204.877,82.903,204.557z M96.103,202.875
	c1.912,1.503,4.141,1.666,6.721,2.641c0.178-1.263,1.756-1.122,1.439-2.88c-1.732-0.633-5.021-0.386-5.52-2.88
	c1.721-0.136,6.17,2.657,6.24-1.44c-4.488,1.796-7.668-2.481-7.441-7.2c0.213-4.397,4.455-6.81,6.48-8.399
	c0.945-5.146-4.039-1.688-7.199-2.4c-0.65,0.311-0.607,1.313-1.439,1.44c-0.299-0.532,0.281-1.849,0.959-2.161
	c3.012,0.125,5.367-1.506,7.92-0.479c-0.016-1.585-0.969-2.229-1.439-3.358c-1.053-0.254-0.789,0.812-1.68,0.719
	c-0.352-0.529-1.285-0.476-1.441-1.199c-1.035,0.005-0.885,1.195-1.92,1.199c-1.998-0.933-5.875-0.517-7.68,0.24
	c-0.57,0.256,0.516,1.105-0.24,1.439c-1.201-0.639-1.756-1.924-2.639-2.88c0.176-0.384,1.174,0.055,0.959-0.72
	c2.254-3.987,5.25-7.231,10.801-7.92c-1.078-6.811-8.588-6.207-13.92-4.562c0.555-0.964,1.771-1.269,2.639-1.92
	c0.035-4.695-0.271-8.263,1.682-11.04c0.461,0.098,0.189,0.931,0.959,0.721c1.146-1.015,2.42-1.9,2.881-3.601
	c-3.307-3.927-19.357,2.547-13.201,6c0.582-0.138-0.111-1.554,0.721-1.439c1.379,4.349,1.402,9.693,0.48,14.159
	c0.754,0.121,0.979-0.564,1.199,0.24c0.18,0.738-0.658,0.462-0.48,1.199c3.266,5.654-0.938,13.386-7.68,12
	c0.174-0.733-0.414-0.705-0.24-1.439c-0.18-0.9,0.918-0.521,0.961-1.199c-3.33,0.311-6.221,6.63-3.6,10.08
	c2.428,0.944,3.561-0.021,5.76-0.72c0.617,0.424,1.176,0.903,1.68,1.44c-0.316,3.843-0.582,6.452-0.721,10.08
	c1.811,0.351,1.613,2.707,3.121,3.359c-0.566,3.927,3.563,3.157,4.799,5.28c0.285-0.436,1.252-0.188,1.68-0.48
	C90.396,207.919,93.876,204.33,96.103,202.875z M106.183,201.196c-0.557-0.077-0.92,0.039-1.199,0.24
	c1.074,1.344-0.295,3.392,0.24,3.84C106.372,204.744,105.659,202.352,106.183,201.196z M79.544,201.915
	c-0.027,0.907,0.469,1.291,1.199,1.44C80.64,202.579,79.937,202.403,79.544,201.915z M78.103,199.995
	c0.438,0.522,1.166,0.754,1.92,0.96C79.97,199.753,78.528,200.104,78.103,199.995z M106.663,193.275
	c-1.561-1.733-5.467-1.809-8.16-1.68c-0.307,3.346,1.352,4.728,2.881,6.239C104.964,198.137,106.362,196.256,106.663,193.275z
	 M107.862,194.955c0.459-0.449,0.436,0.144,1.201,0c0.111-0.724,1.486-1.797,0.479-2.16c-0.01,1.11-0.682,1.56-1.92,1.44
	c0.092,1.218-1.256,2.255-0.719,3.12C107.29,196.623,107.452,195.665,107.862,194.955z M76.423,191.835
	c0.121,0.599-0.008,1.448,0.721,1.44C77.585,192.805,76.933,192.076,76.423,191.835z M104.263,190.875
	c0.484,0.336,2.959,0.783,2.4,0c0.012-1.771-0.453-2.637-1.439-3.84c-0.844-0.888-3.545-2.36-4.32-0.479
	c-0.881-0.001-0.92,0.84-1.439,1.2c-0.752,0.092-1.564,3.447-0.24,2.64C100.788,188.822,103.915,188.132,104.263,190.875z
	 M75.702,187.275c0.844-0.042,0.791,0.811,1.441,0.96C77.3,187.293,76.042,186.26,75.702,187.275z M106.903,182.955
	c0,0.48,0,0.961,0,1.44c1.861-0.021,2.24,1.438,3.119,2.399C110.417,184.847,108.306,183.853,106.903,182.955z M105.224,182.476
	c-0.154,1.206-1.527,1.193-1.682,2.399c0.76-0.04,0.803,0.639,1.682,0.479C105.415,184.736,105.763,183.03,105.224,182.476z
	 M104.503,175.757c0,0.318,0,0.639,0,0.959c0.422,0.059,0.547,0.413,0.48,0.961c2.705-0.656,3.941-2.779,4.08-6
	c0.531-0.783-0.037-2.517-0.721-2.881c0-0.24-0.195-0.285-0.24-0.479c0.127-0.298-0.605-1.784-1.439-1.921
	c-0.613-0.025-0.84-0.439-1.201-0.719c-0.488-0.401-1.768-1.259-2.398-0.722c-0.902-0.438-1.771,0.205-2.881,0.24
	c-0.588,0.45-0.17,1.915,0.24,2.159c0.844-0.65,2.574,0.216,3.119-0.239c0.146,0.014,0.285,0.036,0.24,0.239
	c0.465,0.736,1.314,1.087,1.92,1.681c0.146,0.015,0.285,0.036,0.24,0.24C106.534,171.556,106.034,174.197,104.503,175.757z
	 M75.702,177.916c4.523-0.688,7.52-5.049,5.762-9.841c0.65-0.676-2.645-3.887-1.439-2.16c-0.559-0.162-0.643-0.797-1.201-0.96
	c-0.293-0.676-1.721-1.466-2.398-0.96c-0.545-0.463-2.014-0.002-2.16-0.238c-0.021-0.084-2.141-0.234-2.16,0.479
	c-0.719,0.48-1.615,0.783-2.16,1.439c-1.143,0.7-2.281,2.674-2.16,3.84c-0.133,2.133,0.293,3.707,0.961,5.041
	c0.359,1.164,1.838,2.476,2.879,2.16c0-0.16,0-0.32,0-0.48c-0.787-0.811-1.416-1.783-2.158-2.641c0.01-0.33-0.113-0.526-0.24-0.72
	c0.547-0.333,0.09-1.671,0.24-2.399c0-0.08,0-0.16,0-0.24c0.729-1.512,1.926-2.555,3.119-3.6c0.08,0,0.16,0,0.24,0
	c0.568,0.309,2.32-0.481,2.641-0.48c0.561,0.079,0.99,0.289,1.439,0.48c0.523,0.756,1.344,1.215,2.16,1.68
	c1.475,1.738,1.547,5.551-0.24,6.96c-1.25,0.591-2.076,1.604-3.84,1.68C74.915,177.582,74.901,178.156,75.702,177.916z
	 M99.224,174.315c1.102,0.541,2.658,1.111,3.6,0c-1.492-0.952-0.137-2.188-0.48-3.6c-1.529-6.275-11.768-0.806-12.48,3.358
	c2.873-1.817,8.41-2.812,11.76-1.438c-0.23,0.772-1.16,0.115-1.92,0.719c-3.375-1.584-6.846-0.211-9.6,1.921
	c0.027,0.293,0.072,0.567,0.48,0.479C92.438,174.013,97.106,176.099,99.224,174.315z M103.542,173.836
	c0.068,0.492,0.643,0.479,0.961,0.72c2.758-1.334-0.121-7.375-0.721-6c-0.438-0.064-1.346-0.863-1.68-0.239
	C103.661,169.7,103.021,171.886,103.542,173.836z M75.224,168.315c0.201-0.518,1.527,0.09,1.68-0.479
	c-3.852-1.962-8.262,2.144-6,5.521C71.888,171.22,74.604,170.817,75.224,168.315z M77.622,169.035
	c0.1,0.862,1.068,0.854,1.201,1.681C78.634,169.944,78.601,169.017,77.622,169.035z M89.144,153.195
	c-0.186,0.932,2.287-0.627,2.639-1.438c0.695-0.99,2.449-2.188,1.92-3.602c-0.217,0.424-0.537,0.742-0.959,0.96
	c-0.475,0.015-1.648,1.387-2.4,1.92c-0.158,0.321-0.514,0.446-0.959,0.479C89.38,152.153,89.474,152.886,89.144,153.195z
	 M91.782,141.915c-3.811-3.249-11.426-0.415-14.879,1.2c-0.488,1.192-1.703,1.657-1.439,3.601
	C79.399,143.74,85.22,141.476,91.782,141.915z"/>
<path fill="#AD892A" d="M87.224,142.875c-1.717,0.765-3.879,1.081-5.76,1.681C83.222,143.394,85.198,143.353,87.224,142.875z"/>
<path fill="#26221D" d="M75.464,148.875c0.572-0.871,1.68-2.474,2.398-2.399C76.915,147.128,76.386,148.199,75.464,148.875z"/>
<path fill="#AD892A" d="M79.782,156.796c-1.137-0.152-2.73-1.251-3.357-2.641C77.396,155.288,78.835,156.321,79.782,156.796z"/>
<path fill="#26221D" d="M91.782,151.757c-0.352,0.813-2.824,2.37-2.639,1.438C90.501,153.194,90.808,152.14,91.782,151.757z"/>
<path fill="#26221D" d="M92.743,149.115c-0.729,0.711-1.307,1.575-2.4,1.92C91.095,150.502,92.271,149.13,92.743,149.115z"/>
<path fill="#26221D" d="M80.983,194.235c-0.209-1.409,1.359-1.04,1.68-1.92c0.146-3.783,0.949-6.633,3.119-7.92
	c7.596-4.502,12.547,13.022,4.08,14.88c1.904-1.855,3.693-3.827,3.361-7.92c-2.857-0.113-8.52,0.471-8.881,3.12
	c-0.275,2.014,2.271,4.582,5.279,4.56c0,0.24,0,0.48,0,0.721c-3.516,1.104-6.258-3.319-6.979-5.867
	C82.644,193.89,81.599,194.324,80.983,194.235z M83.622,191.835c0.861,0.089,0.879,0.646,1.682,0.24
	c-0.244-2.163,1.094-2.746,2.879-2.88c1.234,1.216,2.828,1.719,4.801,0.72C91.108,182.008,83.036,184.633,83.622,191.835z"/>
<path fill="#26221D" d="M88.663,138.315c-0.801,0-1.6,0-2.4,0c0-0.16,0-0.32,0-0.479C87.101,137.957,88.075,137.943,88.663,138.315z
	"/>
<ellipse fill="#BCBBBA" cx="102.321" cy="190.363" rx="0.242" ry="0.261"/>
<ellipse fill="#BCBBBA" cx="87.63" cy="190.598" rx="0.256" ry="0.235"/>
<path fill="#BCBBBA" d="M92.983,189.915c-0.916,0.62-3.373,0.763-3.4,0.729c-0.535-0.674-0.969-1.328-1.672-1.344
	c-1.707,0.209-2.797,0.672-2.607,2.774c-0.801,0.404-0.818-0.151-1.68-0.24C83.036,184.633,91.108,182.008,92.983,189.915z"/>
<use xlink:href="#AF"  width="85.039" height="85.038" x="-42.52" y="-42.519" transform="matrix(0.2333 0 0 -0.2333 150.8008 242.0752)" overflow="visible"/>
<use xlink:href="#AF"  width="85.039" height="85.038" x="-42.52" y="-42.519" transform="matrix(0.2333 0 0 -0.2333 150.7998 15.8809)" overflow="visible"/>
<use xlink:href="#AF"  width="85.039" height="85.038" x="-42.52" y="-42.519" transform="matrix(0.2333 0 0 -0.2333 16.2979 242.0752)" overflow="visible"/>
<use xlink:href="#AF"  width="85.039" height="85.038" x="-42.52" y="-42.519" transform="matrix(0.2333 0 0 -0.2333 16.2979 15.8809)" overflow="visible"/>
<use xlink:href="#Rand"  width="156.49" height="248.039" x="5.377" y="-252.996" transform="matrix(1 0 0 -1 0.002 0.0029)" overflow="visible"/>
</svg>
