<?xml version="1.0" encoding="utf-8"?>
<!-- Generator: Adobe Illustrator 15.1.0, SVG Export Plug-In  -->
<!DOCTYPE svg PUBLIC "-//W3C//DTD SVG 1.1//EN" "http://www.w3.org/Graphics/SVG/1.1/DTD/svg11.dtd" [
	<!ENTITY ns_flows "http://ns.adobe.com/Flows/1.0/">
]>
<svg version="1.1"
	 xmlns="http://www.w3.org/2000/svg" xmlns:xlink="http://www.w3.org/1999/xlink" xmlns:a="http://ns.adobe.com/AdobeSVGViewerExtensions/3.0/"
	 x="0px" y="0px" width="167px" height="258px" viewBox="0.002 0.004 167 258" enable-background="new 0.002 0.004 167 258"
	 xml:space="preserve">
<defs>
	<symbol  id="AF" viewBox="-42.52 -42.519 85.039 85.038">
		<path fill="#FFFFFF" d="M-42.52,0.001h35.433v21.26h-29.729C-40.437,15.005-42.52,7.748-42.52,0.001z"/>
		<path fill="#FFFFFF" d="M7.087,0.001H42.52c0,7.747-2.083,15.004-5.703,21.26H7.087V0.001z"/>
		<path fill="#FCEE21" d="M36.817-21.259H7.087V-41.92C19.801-39.785,30.594-32.014,36.817-21.259z"/>
		<path fill="#FCEE21" d="M-7.087-41.92v20.661h-29.73C-30.594-32.014-19.801-39.785-7.087-41.92z"/>
		<path fill="#29ABE2" d="M36.816,21.261C30.593,32.015,19.8,39.786,7.087,41.92V21.261H36.816z"/>
		<path fill="#29ABE2" d="M-36.816,21.261h29.729V41.92C-19.8,39.786-30.593,32.015-36.816,21.261z"/>
		<polygon fill="#8CC63F" points="42.52,0 42.52,0.001 42.52,0.001 		"/>
		<path fill="#8CC63F" d="M7.087,0.001v-21.26h29.73C40.438-15.004,42.52-7.747,42.52,0v0.001H7.087z"/>
		<polygon fill="#8CC63F" points="-42.52,0.001 -42.52,0 -42.52,0.001 		"/>
		<path fill="#8CC63F" d="M-7.087-21.259v21.26H-42.52V0c0-7.747,2.082-15.004,5.702-21.259H-7.087z"/>
		<path fill="#ED1C24" d="M7.087-21.259v21.26v21.26V41.92c-2.306,0.388-4.671,0.6-7.087,0.6s-4.781-0.212-7.087-0.6V21.261V0.001
			v-21.26V-41.92c2.306-0.387,4.671-0.599,7.087-0.599s4.781,0.212,7.087,0.599V-21.259z"/>
		<path id="s_7_" fill="#FFDE00" d="M-16.394,33.418l-0.701-7.961l-4.112,6.854l7.354-3.128l-7.788-1.793L-16.394,33.418z"/>
	</symbol>
	<symbol  id="Rand" viewBox="5.377 -252.996 156.49 248.039">
		<g id="weiß_2_">
		</g>
		<path fill="#FFFFFF" d="M159.867-242.076c0,4.92-4,8.92-8.92,8.92c-4.921,0-8.921-4-8.921-8.92s4-8.92,8.921-8.92
			C155.867-250.996,159.867-246.996,159.867-242.076z M159.867-15.887c0,4.92-4,8.93-8.92,8.93c-4.921,0-8.921-4.01-8.921-8.93
			c0-4.91,4-8.92,8.921-8.92C155.867-24.807,159.867-20.797,159.867-15.887z M19.387-4.957h123.9h4.569h3.091
			c6.02,0,10.92-4.9,10.92-10.93v-9.52v-208.09v-8.58c0-6.021-4.9-10.92-10.92-10.92h-9.471c-37.63,0-75.85,0-125.17,0
			c-6.029,0-10.92,4.898-10.92,10.92c-0.01,72.18-0.01,141.83-0.01,211.35v14.84c0,6.029,4.9,10.93,10.92,10.93H19.387z
			 M25.227-15.887c0,4.92-4.01,8.93-8.93,8.93c-4.91,0-8.92-4.01-8.92-8.93c0-4.91,4.01-8.92,8.92-8.92
			C21.217-24.807,25.227-20.797,25.227-15.887z M16.307-250.996c4.92,0,8.92,4,8.92,8.92s-4,8.92-8.92,8.92s-8.92-4-8.92-8.92
			S11.387-250.996,16.307-250.996z M27.227-15.887c0-6.02-4.9-10.92-10.93-10.92c-3.68,0-6.939,1.83-8.92,4.629
			c0-71.199,0-142.398,0-213.609c1.98,2.801,5.24,4.631,8.93,4.631c6.02,0,10.92-4.9,10.92-10.92c0-3.682-1.83-6.941-4.63-8.92
			c40.69,0,81.37,0,122.061,0c-2.801,1.979-4.631,5.238-4.631,8.92c0,6.02,4.9,10.92,10.921,10.92c3.68,0,6.939-1.83,8.92-4.621
			c0,71.201,0,142.4,0,213.6c-1.98-2.799-5.24-4.629-8.92-4.629c-6.021,0-10.921,4.9-10.921,10.92c0,3.689,1.83,6.949,4.631,8.93
			c-40.69,0-81.38,0-122.061,0C25.396-8.938,27.227-12.197,27.227-15.887z"/>
	</symbol>
	<symbol  id="Stühle" viewBox="20.226 -210.972 126.867 163.99">
		<g id="weiß_4_">
		</g>
		<path fill="#FFFFFF" d="M140.767-178.387c8.141-11.621,8.13-11.609,1.17-16.49c-6.2-4.34-12.39-8.67-18.58-13.01
			c-6.989-4.891-6.97-4.871-15.1,6.74c-4.55,6.5-4.99,17.26,6.5,25.309C126.337-167.736,136.267-171.957,140.767-178.387z"/>
		<path fill="#FFFFFF" d="M52.486-175.838c11.5-8.049,11.061-18.809,6.5-25.309c-8.129-11.611-8.109-11.631-15.09-6.74
			c-6.199,4.34-12.39,8.67-18.58,13.01c-6.97,4.881-6.97,4.869,1.16,16.49C30.986-171.957,40.917-167.736,52.486-175.838z"/>
		<path fill="#FFFFFF" d="M142.007-63.098c6.96-4.869,6.97-4.869-1.17-16.479c-4.5-6.441-14.43-10.66-26.01-2.551
			c-11.49,8.051-11.051,18.811-6.49,25.311c8.13,11.609,8.1,11.619,15.09,6.73C129.617-54.416,135.807-58.756,142.007-63.098z"/>
		<path fill="#FFFFFF" d="M58.986-56.807c4.561-6.5,5-17.26-6.5-25.311c-11.569-8.1-21.5-3.879-26.01,2.551
			c-8.13,11.619-8.13,11.609-1.16,16.49c6.19,4.33,12.381,8.67,18.58,13.01C50.877-45.178,50.857-45.197,58.986-56.807z"/>
		<path fill="#FFFFFF" d="M83.622-172.996c-24.272,0-44.02,19.746-44.02,44.02s19.747,44.02,44.02,44.02s44.02-19.746,44.02-44.02
			S107.895-172.996,83.622-172.996z M83.622-87.957c-22.618,0-41.02-18.4-41.02-41.02s18.401-41.02,41.02-41.02
			s41.02,18.4,41.02,41.02S106.24-87.957,83.622-87.957z"/>
	</symbol>
</defs>
<g>
	<path fill="#0057A3" d="M167.244,240.945c0,9.355-7.653,17.008-17.008,17.008H17.008C7.653,257.953,0,250.301,0,240.945V17.008
		C0,7.654,7.653,0,17.008,0h133.229c9.354,0,17.008,7.654,17.008,17.008V240.945z"/>
</g>
<use xlink:href="#AF"  width="85.039" height="85.038" x="-42.52" y="-42.519" transform="matrix(0.2333 0 0 -0.2333 150.8008 242.0762)" overflow="visible"/>
<use xlink:href="#AF"  width="85.039" height="85.038" x="-42.52" y="-42.519" transform="matrix(0.2333 0 0 -0.2333 150.7998 15.8809)" overflow="visible"/>
<use xlink:href="#AF"  width="85.039" height="85.038" x="-42.52" y="-42.519" transform="matrix(0.2333 0 0 -0.2333 16.2979 242.0762)" overflow="visible"/>
<use xlink:href="#AF"  width="85.039" height="85.038" x="-42.52" y="-42.519" transform="matrix(0.2333 0 0 -0.2333 16.2979 15.8809)" overflow="visible"/>
<use xlink:href="#AF"  width="85.039" height="85.038" id="XMLID_19_" x="-42.52" y="-42.519" transform="matrix(1 0 0 -1 83.6221 128.9785)" overflow="visible"/>
<use xlink:href="#Rand"  width="156.49" height="248.039" x="5.377" y="-252.996" transform="matrix(1 0 0 -1 0.002 0.0039)" overflow="visible"/>
<use xlink:href="#Stühle"  width="126.867" height="163.99" x="20.226" y="-210.972" transform="matrix(1 0 0 -1 0.002 0.0039)" overflow="visible"/>
</svg>
