<?xml version="1.0" encoding="utf-8"?>
<!-- Generator: Adobe Illustrator 15.1.0, SVG Export Plug-In  -->
<!DOCTYPE svg PUBLIC "-//W3C//DTD SVG 1.1//EN" "http://www.w3.org/Graphics/SVG/1.1/DTD/svg11.dtd" [
	<!ENTITY ns_flows "http://ns.adobe.com/Flows/1.0/">
]>
<svg version="1.1"
	 xmlns="http://www.w3.org/2000/svg" xmlns:xlink="http://www.w3.org/1999/xlink" xmlns:a="http://ns.adobe.com/AdobeSVGViewerExtensions/3.0/"
	 x="0px" y="0px" width="167px" height="258px" viewBox="0.006 0.004 167 258" enable-background="new 0.006 0.004 167 258"
	 xml:space="preserve">
<defs>
	<symbol  id="CU" viewBox="-42.52 -42.521 85.039 85.039">
		<g>
			<path fill="none" d="M0,42.518c-0.026,0-0.052-0.002-0.077-0.002h0.154C0.052,42.516,0.026,42.518,0,42.518z"/>
			<path fill="none" d="M0-42.521c0.013,0,0.025,0.001,0.039,0.001h-0.078C-0.025-42.521-0.013-42.521,0-42.521z"/>
			<path fill="#002690" d="M14.983,8.5l14.729-8.504L14.988-8.505h26.68c0.558,2.747,0.852,5.591,0.852,8.503
				S42.226,5.753,41.668,8.5H14.983z"/>
			<path fill="#FFFFFF" d="M14.983,8.5h26.685c-1.275,6.283-3.937,12.063-7.649,17.007h-48.492L14.983,8.5z"/>
			<path fill="#002690" d="M-14.474,25.507h48.492c-7.743,10.31-20.062,16.984-33.941,17.009h-0.154
				c-10.258-0.019-19.663-3.668-26.998-9.733L-14.474,25.507z"/>
			<path fill="#FFFFFF" d="M-14.469-25.512h48.487c3.713,4.944,6.374,10.724,7.649,17.007h-26.68L-14.469-25.512z"/>
			<path fill="#002690" d="M-27.073-32.789c7.345-6.071,16.764-9.723,27.034-9.731h0.078c13.896,0.013,26.229,6.69,33.979,17.009
				h-48.487L-27.073-32.789z"/>
			<path fill="#D00C27" d="M-14.469-25.512L14.988-8.505l14.725,8.501L14.983,8.5l-29.457,17.007l-12.602,7.275
				C-36.508,24.983-42.52,13.193-42.52-0.002c0-13.197,6.013-24.988,15.446-32.787L-14.469-25.512z M-24.103-1.437l-7.414,5.475
				l9.216,0.072l2.916,8.742l2.916-8.742l9.216-0.072l-7.414-5.475l2.78-8.786l-7.498,5.358l-7.498-5.358L-24.103-1.437z"/>
			<polygon fill="#FFFFFF" points="-19.385,-4.864 -11.887,-10.223 -14.667,-1.437 -7.253,4.038 -16.469,4.11 -19.385,12.853 
				-22.301,4.11 -31.517,4.038 -24.103,-1.437 -26.883,-10.223 			"/>
		</g>
	</symbol>
	<symbol  id="IN" viewBox="-42.52 -42.519 85.038 85.038">
		<path fill="none" d="M0,42.52c-0.007,0-0.013,0-0.02,0H0.02C0.013,42.519,0.007,42.52,0,42.52z"/>
		<path fill="#FF9933" d="M0.02,42.519H-0.02c-18.504-0.008-34.235-11.839-40.071-28.346H40.09
			C34.253,30.68,18.521,42.511,0.02,42.519z"/>
		<path fill="#FFFFFF" d="M42.519,0c0,4.971-0.861,9.739-2.429,14.173h-80.181C-41.658,9.739-42.52,4.971-42.52,0
			s0.861-9.739,2.429-14.173H40.09C41.657-9.739,42.519-4.971,42.519,0z"/>
		<path fill="#138808" d="M40.09-14.173h-80.181C-34.253-30.686-18.512-42.519,0-42.519C18.511-42.519,34.251-30.686,40.09-14.173z"
			/>
		<g>
			<path fill="#000088" d="M0,13.89c-7.671,0-13.89-6.218-13.89-13.89c0-7.671,6.219-13.89,13.89-13.89S13.89-7.671,13.89,0
				C13.89,7.671,7.671,13.89,0,13.89z"/>
			<path fill="#FFFFFF" d="M0,12.154c-6.712,0-12.153-5.441-12.153-12.154c0-6.712,5.441-12.153,12.153-12.153
				S12.153-6.712,12.153,0C12.153,6.712,6.712,12.154,0,12.154z"/>
			<path fill="#000088" d="M0,2.431c1.343,0,2.431-1.088,2.431-2.431c0-1.342-1.088-2.431-2.431-2.431S-2.431-1.342-2.431,0
				C-2.431,1.343-1.343,2.431,0,2.431z"/>
			<g>
				<g>
					<g id="b_36_">
						<g id="a_72_">
							<path fill="#000088" d="M12.129-0.984c0.333-0.043,0.567-0.349,0.523-0.682c-0.044-0.333-0.35-0.567-0.682-0.523
								c-0.333,0.043-0.567,0.349-0.523,0.682C11.491-1.174,11.796-0.94,12.129-0.984z"/>
							<path fill="#000088" d="M0-12.153l0.417,7.292L0-1.389l-0.417-3.473L0-12.153z"/>
						</g>
						<g transform="rotate(15)">
							<g id="a_47_">
								<path fill="#000088" d="M11.461-4.089c0.311-0.128,0.457-0.484,0.329-0.794c-0.129-0.31-0.484-0.458-0.794-0.329
									c-0.311,0.128-0.457,0.484-0.329,0.794C10.796-4.108,11.151-3.961,11.461-4.089z"/>
								<path fill="#000088" d="M-3.146-11.739l2.29,6.936l0.496,3.462l-1.302-3.247L-3.146-11.739z"/>
							</g>
						</g>
					</g>
					<g id="c_18_">
						<g id="b_23_">
							<g id="a_46_">
								<path fill="#000088" d="M10.012-6.917c0.267-0.204,0.316-0.585,0.112-0.852C9.92-8.035,9.538-8.085,9.272-7.88
									C9.006-7.676,8.956-7.295,9.16-7.028C9.364-6.762,9.746-6.712,10.012-6.917z"/>
								<path fill="#000088" d="M-6.077-10.525l4.008,6.107l1.375,3.216l-2.098-2.799L-6.077-10.525z"/>
							</g>
							<g transform="rotate(30)">
								<g id="a_45_">
									<path fill="#000088" d="M7.881-9.272c0.204-0.266,0.154-0.648-0.112-0.852s-0.647-0.154-0.852,0.112
										C6.712-9.746,6.763-9.364,7.028-9.16C7.295-8.956,7.677-9.006,7.881-9.272z"/>
									<path fill="#000088" d="M-8.594-8.594l5.451,4.862l2.16,2.75l-2.75-2.161L-8.594-8.594z"/>
								</g>
							</g>
						</g>
					</g>
					<g>
						<g id="d_9_">
							<g id="b_22_">
								<g id="a_44_">
									<path fill="#000088" d="M5.212-10.996c0.129-0.31-0.019-0.666-0.328-0.794c-0.311-0.128-0.666,0.019-0.794,0.329
										c-0.129,0.31,0.019,0.666,0.329,0.794C4.729-10.539,5.084-10.686,5.212-10.996z"/>
									<path fill="#000088" d="M-10.525-6.077l6.523,3.285l2.799,2.097L-4.418-2.07L-10.525-6.077z"/>
								</g>
								<g transform="rotate(15)">
									<g id="a_43_">
										<path fill="#000088" d="M2.188-11.97c0.044-0.333-0.19-0.638-0.522-0.682c-0.333-0.044-0.639,0.19-0.683,0.523
											c-0.043,0.333,0.191,0.638,0.523,0.682C1.84-11.403,2.146-11.637,2.188-11.97z"/>
										<path fill="#000088" d="M-11.739-3.146l7.151,1.485l3.246,1.301l-3.462-0.496L-11.739-3.146z"/>
									</g>
								</g>
							</g>
							<g id="c_11_">
								<g id="b_21_">
									<g id="a_42_">
										<path fill="#000088" d="M-0.983-12.129c-0.044-0.333-0.35-0.567-0.683-0.523c-0.332,0.044-0.566,0.349-0.522,0.682
											c0.044,0.333,0.349,0.567,0.682,0.523C-1.174-11.491-0.94-11.796-0.983-12.129z"/>
										<path fill="#000088" d="M-12.153,0l7.292-0.417L-1.389,0l-3.473,0.417L-12.153,0z"/>
									</g>
									<g transform="rotate(60)">
										<g id="a_41_">
											<path fill="#000088" d="M-4.09-11.461c-0.128-0.31-0.483-0.457-0.794-0.329c-0.31,0.128-0.457,0.484-0.328,0.794
												c0.128,0.31,0.483,0.457,0.794,0.329C-4.108-10.795-3.961-11.151-4.09-11.461z"/>
											<path fill="#000088" d="M-11.739,3.146l6.936-2.29l3.462-0.497l-3.246,1.301L-11.739,3.146z"/>
										</g>
									</g>
								</g>
							</g>
						</g>
						<g>
							<g>
								<g>
									<g id="b_20_">
										<g id="a_40_">
											<path fill="#000088" d="M-6.916-10.012c-0.205-0.267-0.586-0.316-0.853-0.112s-0.316,0.586-0.112,0.852
												s0.586,0.316,0.853,0.112C-6.763-9.364-6.712-9.746-6.916-10.012z"/>
											<path fill="#000088" d="M-10.525,6.077l6.107-4.007l3.215-1.375l-2.799,2.097L-10.525,6.077z"/>
										</g>
										<g transform="rotate(15)">
											<g id="a_39_">
												<path fill="#000088" d="M-9.272-7.88c-0.266-0.205-0.647-0.154-0.852,0.112c-0.204,0.267-0.154,0.648,0.112,0.852
													c0.266,0.205,0.647,0.154,0.852-0.112C-8.956-7.295-9.006-7.676-9.272-7.88z"/>
												<path fill="#000088" d="M-8.594,8.594l4.861-5.451l2.75-2.161l-2.16,2.75L-8.594,8.594z"/>
											</g>
										</g>
									</g>
									<g id="c_10_">
										<g id="b_19_">
											<g id="a_38_">
												<path fill="#000088" d="M-10.996-5.212c-0.31-0.128-0.665,0.019-0.794,0.329c-0.128,0.31,0.02,0.666,0.329,0.794
													s0.666-0.019,0.794-0.329C-10.538-4.729-10.686-5.084-10.996-5.212z"/>
												<path fill="#000088" d="M-6.077,10.525l3.285-6.523l2.098-2.799l-1.375,3.215L-6.077,10.525z"/>
											</g>
											<g transform="rotate(30)">
												<g id="a_37_">
													<path fill="#000088" d="M-11.97-2.188c-0.333-0.044-0.639,0.19-0.683,0.523c-0.044,0.333,0.19,0.638,0.523,0.682
														c0.333,0.044,0.638-0.19,0.682-0.523C-11.403-1.84-11.638-2.145-11.97-2.188z"/>
													<path fill="#000088" d="M-3.146,11.74l1.484-7.152l1.302-3.246l-0.496,3.462L-3.146,11.74z"/>
												</g>
											</g>
										</g>
									</g>
									<g>
										<g id="d_5_">
											<g id="b_18_">
												<g id="a_36_">
													<path fill="#000088" d="M-12.129,0.984c-0.333,0.044-0.567,0.349-0.523,0.682c0.044,0.333,0.35,0.567,0.683,0.523
														c0.332-0.044,0.566-0.349,0.522-0.682C-11.491,1.174-11.796,0.94-12.129,0.984z"/>
													<path fill="#000088" d="M0,12.154l-0.417-7.292L0,1.389l0.417,3.472L0,12.154z"/>
												</g>
												<g transform="rotate(15)">
													<g id="a_35_">
														<path fill="#000088" d="M-11.461,4.09c-0.31,0.128-0.457,0.484-0.329,0.794c0.129,0.31,0.484,0.457,0.794,0.329
															c0.311-0.128,0.458-0.484,0.329-0.794C-10.795,4.108-11.151,3.961-11.461,4.09z"/>
														<path fill="#000088" d="M3.146,11.74l-2.29-6.936L0.359,1.342l1.302,3.246L3.146,11.74z"/>
													</g>
												</g>
											</g>
											<g id="c_9_">
												<g id="b_17_">
													<g id="a_34_">
														<path fill="#000088" d="M-10.012,6.917c-0.267,0.205-0.316,0.586-0.112,0.852c0.204,0.267,0.586,0.316,0.852,0.112
															c0.267-0.204,0.316-0.586,0.112-0.852S-9.746,6.712-10.012,6.917z"/>
														<path fill="#000088" d="M6.077,10.525L2.07,4.418L0.694,1.203l2.098,2.799L6.077,10.525z"/>
													</g>
													<g transform="rotate(120)">
														<g id="a_33_">
															<path fill="#000088" d="M-7.881,9.272c-0.204,0.266-0.154,0.647,0.112,0.852c0.267,0.204,0.647,0.154,0.853-0.112
																c0.204-0.267,0.153-0.648-0.112-0.852C-7.295,8.956-7.677,9.006-7.881,9.272z"/>
															<path fill="#000088" d="M8.594,8.594L3.143,3.732l-2.16-2.75l2.75,2.161L8.594,8.594z"/>
														</g>
													</g>
												</g>
											</g>
										</g>
										<g>
											<g>
												<g>
													<g id="b_16_">
														<g id="a_32_">
															<path fill="#000088" d="M-5.212,10.996c-0.129,0.31,0.019,0.666,0.328,0.794c0.311,0.128,0.666-0.019,0.794-0.329
																c0.129-0.31-0.019-0.666-0.328-0.794C-4.729,10.539-5.084,10.686-5.212,10.996z"/>
															<path fill="#000088" d="M10.525,6.077L4.002,2.792L1.203,0.695L4.419,2.07L10.525,6.077z"/>
														</g>
														<g transform="rotate(15)">
															<g id="a_31_">
																<path fill="#000088" d="M-2.188,11.97c-0.044,0.333,0.19,0.638,0.522,0.682c0.333,0.043,0.639-0.19,0.683-0.523
																	c0.043-0.333-0.19-0.638-0.523-0.682S-2.145,11.638-2.188,11.97z"/>
																<path fill="#000088" d="M11.739,3.146L4.588,1.661L1.342,0.359l3.462,0.497L11.739,3.146z"/>
															</g>
														</g>
													</g>
													<g id="c_8_">
														<g id="b_15_">
															<g id="a_30_">
																<path fill="#000088" d="M0.983,12.129c0.044,0.333,0.35,0.567,0.683,0.523c0.332-0.044,0.566-0.349,0.522-0.682
																	c-0.043-0.333-0.349-0.567-0.682-0.523C1.175,11.491,0.94,11.796,0.983,12.129z"/>
																<path fill="#000088" d="M12.153,0L4.861,0.417L1.389,0l3.473-0.417L12.153,0z"/>
															</g>
															<g transform="rotate(30)">
																<g id="a_29_">
																	<path fill="#000088" d="M4.09,11.461c0.128,0.31,0.483,0.458,0.794,0.329c0.31-0.128,0.457-0.484,0.328-0.794
																		c-0.128-0.31-0.483-0.458-0.793-0.329C4.108,10.795,3.961,11.151,4.09,11.461z"/>
																	<path fill="#000088" d="M11.739-3.146l-6.936,2.29L1.342-0.359l3.246-1.301L11.739-3.146z"/>
																</g>
															</g>
														</g>
													</g>
													<g>
														<g id="d_4_">
															<g id="b_14_">
																<g id="a_28_">
																	<path fill="#000088" d="M6.917,10.012c0.204,0.266,0.585,0.316,0.852,0.112C8.035,9.92,8.085,9.539,7.881,9.272
																		C7.677,9.006,7.295,8.956,7.028,9.16C6.763,9.364,6.712,9.746,6.917,10.012z"/>
																	<path fill="#000088" d="M10.525-6.077L4.419-2.07L1.203-0.694l2.799-2.097L10.525-6.077z"/>
																</g>
																<g transform="rotate(15)">
																	<g id="a_27_">
																		<path fill="#000088" d="M9.272,7.881c0.266,0.204,0.647,0.154,0.852-0.112c0.204-0.266,0.154-0.647-0.112-0.852
																			C9.746,6.712,9.364,6.763,9.16,7.029S9.006,7.677,9.272,7.881z"/>
																		<path fill="#000088" d="M8.594-8.594L3.732-3.143l-2.75,2.161l2.16-2.75L8.594-8.594z"/>
																	</g>
																</g>
															</g>
															<g id="c_7_">
																<g id="b_13_">
																	<g id="a_26_">
																		<path fill="#000088" d="M10.996,5.212c0.31,0.128,0.665-0.019,0.794-0.329c0.128-0.31-0.019-0.666-0.329-0.794
																			c-0.31-0.128-0.665,0.019-0.794,0.329C10.539,4.729,10.686,5.084,10.996,5.212z"/>
																		<path fill="#000088" d="M6.077-10.525L2.792-4.001L0.694-1.203L2.07-4.418L6.077-10.525z"/>
																	</g>
																	<g transform="rotate(-120)">
																		<g id="a_25_">
																			<path fill="#000088" d="M11.971,2.189c0.332,0.044,0.638-0.19,0.682-0.523c0.044-0.333-0.19-0.638-0.523-0.682
																				c-0.333-0.043-0.638,0.19-0.682,0.523C11.403,1.84,11.638,2.145,11.971,2.189z"/>
																			<path fill="#000088" d="M3.146-11.739L1.661-4.588L0.359-1.341l0.496-3.462L3.146-11.739z"/>
																		</g>
																	</g>
																</g>
															</g>
														</g>
													</g>
												</g>
											</g>
										</g>
									</g>
								</g>
							</g>
						</g>
					</g>
				</g>
			</g>
		</g>
	</symbol>
	<symbol  id="Rand" viewBox="5.377 -252.996 156.49 248.039">
		<g id="weiß_2_">
		</g>
		<path fill="#FFFFFF" d="M159.867-242.076c0,4.92-4,8.92-8.92,8.92c-4.921,0-8.921-4-8.921-8.92s4-8.92,8.921-8.92
			C155.867-250.996,159.867-246.996,159.867-242.076z M159.867-15.887c0,4.92-4,8.93-8.92,8.93c-4.921,0-8.921-4.01-8.921-8.93
			c0-4.91,4-8.92,8.921-8.92C155.867-24.807,159.867-20.797,159.867-15.887z M19.387-4.957h123.9h4.569h3.091
			c6.02,0,10.92-4.9,10.92-10.93v-9.52v-208.09v-8.58c0-6.021-4.9-10.92-10.92-10.92h-9.471c-37.63,0-75.85,0-125.17,0
			c-6.029,0-10.92,4.898-10.92,10.92c-0.01,72.18-0.01,141.83-0.01,211.35v14.84c0,6.029,4.9,10.93,10.92,10.93H19.387z
			 M25.227-15.887c0,4.92-4.01,8.93-8.93,8.93c-4.91,0-8.92-4.01-8.92-8.93c0-4.91,4.01-8.92,8.92-8.92
			C21.217-24.807,25.227-20.797,25.227-15.887z M16.307-250.996c4.92,0,8.92,4,8.92,8.92s-4,8.92-8.92,8.92s-8.92-4-8.92-8.92
			S11.387-250.996,16.307-250.996z M27.227-15.887c0-6.02-4.9-10.92-10.93-10.92c-3.68,0-6.939,1.83-8.92,4.629
			c0-71.199,0-142.398,0-213.609c1.98,2.801,5.24,4.631,8.93,4.631c6.02,0,10.92-4.9,10.92-10.92c0-3.682-1.83-6.941-4.63-8.92
			c40.69,0,81.37,0,122.061,0c-2.801,1.979-4.631,5.238-4.631,8.92c0,6.02,4.9,10.92,10.921,10.92c3.68,0,6.939-1.83,8.92-4.621
			c0,71.201,0,142.4,0,213.6c-1.98-2.799-5.24-4.629-8.92-4.629c-6.021,0-10.921,4.9-10.921,10.92c0,3.689,1.83,6.949,4.631,8.93
			c-40.69,0-81.38,0-122.061,0C25.396-8.938,27.227-12.197,27.227-15.887z"/>
	</symbol>
</defs>
<g>
	<path fill="#D28F38" d="M167.25,240.948c0,9.355-7.653,17.008-17.008,17.008H17.014c-9.354,0-17.008-7.652-17.008-17.008V17.011
		c0-9.354,7.653-17.008,17.008-17.008h133.229c9.354,0,17.008,7.653,17.008,17.008V240.948z"/>
</g>
<g>
	<path fill="#BF4545" d="M167.244,240.946c0,9.354-7.653,17.008-17.008,17.008H17.008C7.653,257.954,0,250.3,0,240.946V17.008
		C0,7.653,7.653,0,17.008,0h133.229c9.354,0,17.008,7.653,17.008,17.008V240.946z"/>
</g>
<use xlink:href="#IN"  width="85.038" height="85.038" x="-42.52" y="-42.519" transform="matrix(0.2333 0 0 -0.2333 150.8066 242.0791)" overflow="visible"/>
<use xlink:href="#IN"  width="85.038" height="85.038" x="-42.52" y="-42.519" transform="matrix(0.2333 0 0 -0.2333 150.8057 15.8838)" overflow="visible"/>
<use xlink:href="#IN"  width="85.038" height="85.038" x="-42.52" y="-42.519" transform="matrix(0.2333 0 0 -0.2333 16.3037 242.0791)" overflow="visible"/>
<use xlink:href="#IN"  width="85.038" height="85.038" x="-42.52" y="-42.519" transform="matrix(0.2333 0 0 -0.2333 16.3037 15.8838)" overflow="visible"/>
<use xlink:href="#CU"  width="85.039" height="85.039" x="-42.52" y="-42.521" transform="matrix(0.2333 0 0 -0.2333 150.8008 242.0752)" overflow="visible"/>
<use xlink:href="#CU"  width="85.039" height="85.039" x="-42.52" y="-42.521" transform="matrix(0.2333 0 0 -0.2333 150.7998 15.8809)" overflow="visible"/>
<use xlink:href="#CU"  width="85.039" height="85.039" x="-42.52" y="-42.521" transform="matrix(0.2333 0 0 -0.2333 16.2979 242.0752)" overflow="visible"/>
<use xlink:href="#CU"  width="85.039" height="85.039" x="-42.52" y="-42.521" transform="matrix(0.2333 0 0 -0.2333 16.2979 15.8809)" overflow="visible"/>
<path fill="#524627" d="M98.414,35.209c-0.243,1.757-0.759,2.504-0.721,4.08c-6.164-0.431-9.806-2.031-16.079-3.12
	c-0.825,1.346,0.585,3.454-0.24,4.8c-6.503-0.537-11.808-2.273-19.2-1.92c0.025-2.007-0.893-6.487,0.48-8.88
	c2.026-0.895,5.605,0.975,7.199,1.439c3.627,1.059,7.744-0.75,12.48-0.479C88.102,31.457,93.32,34.393,98.414,35.209z
	 M64.335,32.808c-0.499,1.043-0.895,3.855,0,4.8c2.54-0.466,4.86,0.522,6.479,0c0.688-1.413,0.089-2.076,0.48-4.08
	C69.369,32.602,66.605,32.139,64.335,32.808z"/>
<path fill="#20201E" d="M82.575,30.407c-1.381-0.021-2.772-0.052-3.841,0.24c0-0.08,0-0.16,0-0.24
	C79.599,30.145,81.751,29.915,82.575,30.407z"/>
<path fill="#20201E" d="M71.295,33.527c-0.392,2.004,0.207,2.667-0.48,4.08c-1.619,0.522-3.939-0.466-6.479,0
	c-0.895-0.944-0.499-3.757,0-4.8C66.605,32.139,69.369,32.602,71.295,33.527z M65.535,33.527c-0.861-0.878-1.52,3.938,0.479,3.12
	c-0.444-1.221-0.171-2.37,0.48-3.12c-0.413,0.096-0.615-0.355-0.72,0C65.694,33.527,65.614,33.527,65.535,33.527z M69.375,36.648
	c0.044,0.355,0.58,0.22,0.96,0.24c0-0.96,0-1.92,0-2.88c-0.562-0.079-0.992-0.289-1.44-0.48c-0.408,0.405,0.141,1.079,0.48,1.44
	c0.158,0.899-1.264,1.597-0.24,1.92C69.147,36.741,69.171,36.604,69.375,36.648z M66.495,35.688c0.32,0.428,1.389,0.742,1.92,0.24
	C69.063,33.89,66.05,33.664,66.495,35.688z"/>
<path fill="#A6A5A5" d="M65.775,33.527c0.559,0.653-0.709,1.522-0.24,2.88c-0.85-0.039-0.678-2.808,0-2.88
	C65.614,33.527,65.694,33.527,65.775,33.527z"/>
<path fill="#B8A12E" d="M68.174,34.729c0,0.4,0,0.8,0,1.2c-0.4,0-0.8,0-1.2,0c0.099-0.578-0.438-0.521-0.239-1.2
	C67.042,34.399,67.868,34.399,68.174,34.729z"/>
<path fill="#524627" d="M82.575,37.367c4.84,0.728,10.444,3.266,16.319,2.881c-1.291,3.016-3.172,6.222-2.399,10.56
	c-2.374-1.182-4.808-1.596-6.96-3.36c-0.689-0.05-1.22,0.062-1.439,0.48c-4.925-1.881-12.042,0.063-18.72-0.24
	c-4.581-0.208-9.006-0.994-12.48-1.2c-1.468-0.087-4.13,1.167-3.6-1.92c2.695-0.029,5.72,0.118,7.44-0.24
	c0.18-1.436-0.058-2.083,0-3.84c5.502-1.451,12.982,0.979,21.359,1.44C83.197,40.543,82.364,38.671,82.575,37.367z"/>
<path fill="#C09760" d="M61.214,48.888c0.029,0.69-0.131,1.571,0.24,1.92C60.69,50.648,60.646,49.068,61.214,48.888z"/>
<path fill="#365E81" d="M63.854,53.209c-3.189-1.037-6.931-0.5-10.8-0.48c-1.63,3.953,0.521,9.66,5.28,10.08
	c-5.426,0.889-7.263-6.438-6.48-10.32C55.295,51.941,61.4,50.619,63.854,53.209z"/>
<path fill="#365E81" d="M62.415,60.648c0.022,0.988-1.32,2.676-3.36,2.4C59.77,61.844,61.777,61.932,62.415,60.648z"/>
<path fill="#20201E" d="M61.935,67.608c1.199,0.427,2.632,0.778,3.12-0.479c0.815,0.753-0.421,1.484-0.72,1.92
	c-0.98-0.247-1.916-1.298-2.4-0.721c-0.159,0-0.319,0-0.479,0c-0.068-0.388,0.227-0.413,0.24-0.72
	C61.775,67.608,61.854,67.608,61.935,67.608z"/>
<path fill="#20201E" d="M61.694,67.608c-0.014,0.308-0.309,0.333-0.24,0.721c-0.315,0.308-0.885,0.308-1.2,0
	C60.671,68.024,60.883,67.517,61.694,67.608z"/>
<path fill="#BB3228" d="M68.415,74.809c-1.758,2.301-5.644-1.365-6.96,0.96c-0.896-0.152-1.177-1.062-2.16-0.479
	c-0.174-0.733,0.414-0.706,0.24-1.439c0.928-0.209,0.854,0.586,1.439,0.72C62.943,71.15,65.396,74.164,68.415,74.809z"/>
<path fill="#BB3228" d="M59.535,76.009c0.758-0.82,1.257,0.647,1.92,0.72c2.109-1.589,5.799,0.577,8.88-0.96
	C68.668,79.249,60.525,81.63,59.535,76.009z"/>
<path fill="#C09760" d="M78.734,83.688c0.239,0,0.479,0,0.72,0c0.102,0.502-0.165,0.636-0.24,0.96
	C78.793,84.591,78.668,84.234,78.734,83.688z"/>
<path fill="#C09760" d="M78.495,84.407c-0.039,0.279,0.053,0.428,0.239,0.48C78.252,86.053,77.077,84.401,78.495,84.407z"/>
<path fill="#20201E" d="M69.854,87.288c1.04,0,2.08,0,3.12,0C72.482,87.687,70.347,87.687,69.854,87.288z"/>
<path fill="#524627" d="M90.255,94.248c-2.043,4.444-0.316,11.495-0.96,14.641c-4.623-0.381-4.32-10.025-9.601-6
	c1.487-4.112,4.969-6.231,7.199-9.601C87.975,93.505,89.415,93.286,90.255,94.248z"/>
<path fill="#524627" d="M65.055,124.729c-3.6,0-7.2,0-10.8,0c-0.981-8.313,6.711-11.103,8.16-18.479
	c-2.521,1.33-3.369,6.384-6.24,8.159c-2.354-8.22,5.445-10.157,9.36-13.68c0.569,1.455-1.5,2.336-1.44,4.08
	c2.095-0.089,3.17-3.213,5.76-3.601c-0.347-1.677-1.715,0.066-2.64,0c1.148-3.411,2.856-6.265,6.24-7.439
	c-0.919,2.491-2.768,3.749-3.12,6.479c-0.491,3.799,0.798,8.652,1.2,11.279C68.572,115.126,66.138,119.252,65.055,124.729z"/>
<path fill="#524627" d="M115.935,124.729c-4.399,0-8.8,0-13.2,0c-0.828-6.141-0.668-14.876,1.681-19.92
	c-4.438,5.49-3.34,12.811-2.64,19.92c-11.841,0-23.681,0-35.521,0c1.323-10.277,9.464-13.735,13.2-21.6
	c0.925,1.361,1.699-0.149,3.12-0.24c1.947,2.932,2.863,6.896,7.439,7.2c2.277-4.116-1.313-10.078,0.96-13.92
	c3.479,2.192,7.294,4.375,11.76,6c1.442,0.523,3.486,0.919,4.562,1.68c1.226,0.868,3.397,4.488,4.319,6.479
	C113.838,115.129,115.432,120.215,115.935,124.729z"/>
<path fill="#20201E" d="M71.535,100.248c0,0.881,0,1.761,0,2.641C71.137,102.553,71.137,100.585,71.535,100.248z"/>
<path fill="#20201E" d="M102.734,124.729c-0.32,0-0.641,0-0.961,0c-0.699-7.109-1.799-14.43,2.641-19.92
	C102.065,109.853,101.905,118.588,102.734,124.729z"/>
<path fill="#20201E" d="M92.895,32.808c1.704,0.296,3.342,0.659,4.801,1.2C95.685,34.019,94.377,33.325,92.895,32.808z"/>
<path fill="#20201E" d="M61.935,29.447c0.08,0,0.16,0,0.24,0c-1.976,1.783-0.844,7.131-1.2,9.841
	C60.693,36.157,60.184,31.286,61.935,29.447z"/>
<path fill="#20201E" d="M52.335,46.008c0.324,0.796,1.08,1.16,1.92,1.439C53.048,47.534,52.45,47.013,52.335,46.008z"/>
<path fill="#20201E" d="M55.935,50.809c1.502-0.136,1.875-3.687-0.479-3.12c0-0.08,0-0.16,0-0.24c0.675-0.646,0.983,0.427,1.92,0.24
	c-0.013,1.107,0.105,2.346-0.24,3.12c-0.678-0.199-0.622,0.338-1.2,0.24C55.935,50.968,55.935,50.888,55.935,50.809z"/>
<path fill="#524627" d="M71.055,93.288c0.658-0.541,0.875-1.524,2.16-1.439c-0.082,1.118-1.363,1.037-1.92,1.68
	C71.338,93.323,71.201,93.302,71.055,93.288z"/>
<path fill="#A6A5A5" d="M65.775,33.527c0.104-0.355,0.307,0.096,0.72,0c-0.651,0.75-0.925,1.899-0.48,3.12
	c-1.999,0.817-1.341-3.999-0.479-3.12c-0.678,0.072-0.85,2.841,0,2.88C65.066,35.05,66.333,34.181,65.775,33.527z"/>
<path fill="#A6A5A5" d="M69.375,36.648c0.16,0,0.32,0,0.479,0c1.211-1.043-0.954-4.182-0.479-1.68
	c-0.34-0.361-0.889-1.035-0.48-1.44c0.448,0.191,0.879,0.401,1.44,0.48c0,0.96,0,1.92,0,2.88
	C69.955,36.867,69.419,37.004,69.375,36.648z"/>
<path fill="#A6A5A5" d="M69.375,36.648c-0.204-0.044-0.228,0.093-0.24,0.24c-1.022-0.323,0.398-1.021,0.24-1.92
	c-0.475-2.501,1.69,0.637,0.479,1.68C69.694,36.648,69.535,36.648,69.375,36.648z"/>
<path fill="#B8A12E" d="M68.415,35.928c-0.531,0.502-1.6,0.188-1.92-0.24C66.05,33.664,69.063,33.89,68.415,35.928z M66.734,34.729
	c-0.198,0.678,0.338,0.622,0.239,1.2c0.4,0,0.8,0,1.2,0c0-0.4,0-0.8,0-1.2C67.868,34.399,67.042,34.399,66.734,34.729z"/>
<path fill="#C09760" d="M61.214,48.648c4.767-0.46,13.025,0.384,18.72-0.479C74.533,49.528,66.213,48.611,61.214,48.648z"/>
<path fill="#C09760" d="M68.654,50.809c0.728-0.372,2.015-0.494,2.159-0.24C70.417,50.97,69.405,50.759,68.654,50.809z"/>
<path fill="#C09760" d="M74.654,50.327c1.261-0.454,3.539,0.138,4.8,0.48C77.602,50.9,76.46,50.282,74.654,50.327z"/>
<path fill="#C09760" d="M81.854,51.289c-1.014,0.054-1.55-0.37-2.399-0.48c-1.262-0.343-3.539-0.936-4.8-0.479
	c-1.4-0.04-2.302,0.419-3.841,0.239c-0.146-0.254-1.433-0.132-2.159,0.24c-1.659,0.021-2.281,1.079-3.36,1.68
	c-1.227-1.128-2.028-1.419-3.84-1.68c-0.371-0.349-0.211-1.229-0.24-1.92c0-0.08,0-0.16,0-0.24
	c4.999-0.037,13.318,0.881,18.72-0.479c0.24,0,0.48,0,0.721,0c0.438,0.175,1.647,0.056,3.12,0.239
	c0.157,0.878-0.52,0.922-0.48,1.681c0,0.08,0,0.16,0,0.24c-0.521-0.04-0.109,0.852-0.24,1.199
	C82.476,51.627,82.533,51.09,81.854,51.289z"/>
<path fill="#C09760" d="M81.854,51.289c0.679-0.199,0.622,0.338,1.2,0.239c0.131-0.349-0.281-1.239,0.24-1.199
	c0,0.479,0,0.96,0,1.439C82.68,51.742,82.15,51.632,81.854,51.289z"/>
<path fill="#20201E" d="M80.654,48.169c1.082-0.672,2.626,0.248,3.84,0.239c-0.258,0.622-0.867,0.894-0.959,1.681
	c-0.08,0-0.16,0-0.24,0c-0.039-0.759,0.638-0.803,0.48-1.681C82.303,48.224,81.093,48.343,80.654,48.169z"/>
<path fill="#365E81" d="M81.614,53.447c-4.551-1.239-10.375-1.176-14.88,0c-0.113,6.514,2.009,10.791,8.399,10.801
	c-4.646,1.356-8.099-2.615-8.88-6.721c-0.881-0.313-1.645-0.03-2.16-0.239c0-1.28,0-2.561,0-3.841c1.087,0.373,1.563,0.131,2.4,0
	c0.399-0.319,0.373-1.066,0.72-1.439c2.502-0.146,6.758-0.879,10.8-0.48c3.51,0.348,8.852,1.438,7.439,4.32
	c-0.906,0.672-1.354-0.773-2.641-0.48c-0.907,2.943-2.604,7.623-4.8,7.681C80.292,61.061,82.4,57.708,81.614,53.447z"/>
<path fill="#A6A5A5" d="M56.895,57.527c-0.183,1.178-1.114,1.605-1.68,2.4c-1.916-1.472,0.921-2.827,1.44-4.08
	c1.124-0.556,1.1-2.26,3.12-1.92C58.982,55.297,57.884,56.357,56.895,57.527z"/>
<path fill="#A6A5A5" d="M56.895,57.527c0.989-1.171,2.088-2.231,2.881-3.6c-2.021-0.34-1.997,1.364-3.12,1.92
	c0.805-1.036,1.177-2.502,3.359-2.16C59.313,55.308,58.182,56.496,56.895,57.527z"/>
<path fill="#A6A5A5" d="M67.694,55.608c0-0.399,0-0.8,0-1.2c0.283-0.295,1.519-0.854,1.68-0.479
	c-0.308,0.333-1.133,0.146-1.44,0.479C67.803,54.757,68.215,55.648,67.694,55.608z"/>
<path fill="#A6A5A5" d="M68.654,56.089c-0.225,0.176-0.363,0.437-0.48,0.72c-0.523-0.036-0.515-0.604-0.479-1.2
	c0.521,0.041,0.108-0.851,0.239-1.2c0.308-0.333,1.133-0.146,1.44-0.479c0.08,0,0.16,0,0.24,0c0.239,0,0.479,0,0.72,0
	C69.881,54.755,68.944,55.098,68.654,56.089z"/>
<path fill="#A6A5A5" d="M69.614,53.928c0.074-0.326,0.601-0.199,0.96-0.24c-0.33,1.11-1.096,1.785-1.92,2.4
	c0.29-0.991,1.227-1.333,1.68-2.16C70.094,53.928,69.854,53.928,69.614,53.928z"/>
<path fill="#A6A5A5" d="M69.375,60.169c0.484-2.478,3.086-4.913,5.28-6.48C73.123,56.076,71.083,57.957,69.375,60.169z"/>
<path fill="#A6A5A5" d="M62.895,54.407c-1.398,2.682-3.438,4.722-5.279,6.96c-0.155-0.84,1.222-2.395,2.16-3.6
	C60.762,56.501,61.79,55.108,62.895,54.407z"/>
<path fill="#A6A5A5" d="M79.935,58.487c-0.067-0.388,0.228-0.413,0.24-0.72c-0.821-0.102-0.721,0.719-1.2,0.96
	c0.277-0.923,0.757-1.644,1.681-1.92C80.661,57.614,80.324,58.077,79.935,58.487z"/>
<path fill="#A6A5A5" d="M78.015,61.367c-0.266,1.096-1.512,1.208-2.16,1.921c0.061-1.544,1.823-3.455,3.12-4.561
	c0.479-0.241,0.378-1.062,1.2-0.96c-0.013,0.307-0.308,0.332-0.24,0.72c0,0.08,0,0.16,0,0.24
	C79.215,59.528,78.722,60.556,78.015,61.367z"/>
<path fill="#A6A5A5" d="M78.015,61.367c0.707-0.813,1.2-1.839,1.92-2.64C79.689,60.004,78.799,60.633,78.015,61.367z"/>
<path fill="#20201E" d="M84.734,57.289c-1.354-0.628-1.441,0.369-1.921,1.199c-0.157-0.878,0.521-0.92,0.48-1.68
	C83.909,56.834,84.438,56.943,84.734,57.289z"/>
<path fill="#C09760" d="M82.814,58.729c-1.211,3.465-3.448,6.522-6.96,7.2c-5.677,1.096-8.736-3.365-11.04-6.72
	c0.797-1.184,2.516,4.082,4.08,4.8C74.533,67.89,81.206,64.173,82.814,58.729z"/>
<path fill="#C09760" d="M63.854,61.367c-2.081,3.039-5.365,4.875-9.6,5.761c0.023,0.616,0.937,0.343,0.96,0.96
	c-2.43-0.904-0.037-1.313,1.68-1.92C59.458,65.263,62.915,62.664,63.854,61.367z"/>
<path fill="#20201E" d="M55.455,68.089c2.581,0.778,4.873,1.847,5.04,5.04c1.108-0.019,1.479-2.03,2.399-1.439
	c-0.894,0.308-1.239,1.16-1.92,1.68c-1.283,0.085-0.798-1.602-1.199-2.398C58.887,69.456,56.801,69.142,55.455,68.089z"/>
<path fill="#20201E" d="M63.134,71.688c1.611-0.328,2.738,1.899,4.561,2.16C66.176,74.084,64.802,72.104,63.134,71.688z"/>
<path fill="#20201E" d="M67.935,73.849c2.263-0.26,4.236,0.494,4.08-1.92C73.568,73.894,69.144,74.645,67.935,73.849z"/>
<path fill="#C09760" d="M72.015,71.688c-0.598-0.098-0.015-0.931,0.48-0.72c0.424,1.734,1.996,2.323,2.64,3.84
	c-0.698,0.672-1.793-0.82-2.64,0c-0.034-1.273,1.39-0.457,1.92-0.24C73.732,73.766,72.482,71.119,72.015,71.688z"/>
<path fill="#C09760" d="M69.614,87.288c-2.704-0.204-5.574-3.509-5.28-6.721c3.896-0.663,6.05-3.068,8.16-5.52
	c-1.646,3.186-5.5,5.229-8.16,6C65.057,84.166,66.711,86.352,69.614,87.288z"/>
<path fill="#20201E" d="M73.935,90.407c-0.394-0.653-0.389-1.85-0.239-2.398c1.528-0.313,2.835-0.846,3.359-2.16
	c-0.256-0.546-0.728,0.689-1.439,0.479c0.48-0.398,0.889-0.87,1.68-0.96c0.279,1.447-1.618,2.667-3.36,2.881
	C73.576,88.636,74.142,89.451,73.935,90.407z"/>
<path fill="#C09760" d="M74.174,91.849c0.543,1.622,1.17,6.309-0.479,7.2c-0.288-0.315-0.094-0.378,0-0.722
	C74.995,96.716,74.175,94.527,74.174,91.849z"/>
<path fill="#C09760" d="M73.694,98.089c-0.43-0.299,0.187-0.698-0.24-1.2c-1.174,0.026-0.757,1.644-1.681,1.92
	c0.562-0.96,0.693-2.347,1.92-2.64C73.837,96.913,73.921,97.428,73.694,98.089z"/>
<path fill="#20201E" d="M72.255,108.648c0.532,0.188-0.046,1.485,0.96,1.2C72.734,111.027,72.104,109.54,72.255,108.648z"/>
<path fill="#20201E" d="M73.455,109.849c2.485-2.233,3.681-5.759,5.76-8.4C77.558,104.512,76.155,107.828,73.455,109.849z"/>
<path fill="#C09760" d="M84.975,94.009c-2.021,2.298-4.105,4.534-5.76,7.199C80.548,98.222,82.743,96.097,84.975,94.009z"/>
<path fill="#20201E" d="M83.055,82.009c1.146,0.786-0.224,1.613-0.479,2.398c0.268,2.308,0.331,3.617,0.96,5.761
	c0.771,0.897,2.807,2.311,1.68,3.601c-0.08,0-0.16,0-0.24,0c0.206-0.193,0.144-0.657,0.479-0.72
	c-2.006-1.925-4.425-7.156-2.16-10.32C83.168,82.534,83.044,82.339,83.055,82.009z"/>
<path fill="#C09760" d="M82.335,73.608c-0.265,0.981-0.41,2.022,0.479,2.4c-0.496,1.021-0.947,2.092-0.72,3.84
	c0.265,0.598,1.673,0.847,0.96,1.68c-0.596-0.344-2.221-3.799-0.479-5.04C81.937,75.742,81.458,73.979,82.335,73.608z"/>
<path fill="#C09760" d="M83.295,63.769c-0.002,1.597-1.244,1.956-1.2,3.6c-0.01,0.892,0.9,0.86,1.2,1.44
	c-1.85,1.433,0.492,3.524-0.96,4.56c0.709-1.056-1.058-3.165,0.72-4.319c-0.518-0.362-0.877-0.883-1.2-1.44
	C81.83,65.823,82.78,65.014,83.295,63.769z"/>
<path fill="#C09760" d="M84.255,60.648c0.356,0.203,0.347,0.772,0.479,1.2c-0.647,0.392-1.143,0.938-1.44,1.68
	c-0.489-0.583,0.963-1.266,1.2-1.92C84.308,61.395,84.236,61.066,84.255,60.648z"/>
<path fill="#C09760" d="M84.255,60.407c-0.401-1.712,2.026-1.946,0.72-3.119C86.672,57.943,84.282,59.243,84.255,60.407z"/>
<path fill="#20201E" d="M61.935,68.329c0.484-0.578,1.419,0.473,2.4,0.72c0.299-0.436,1.535-1.167,0.72-1.92
	c-0.488,1.258-1.921,0.906-3.12,0.479c0.196-0.485,1.266,0.152,1.681,0.24c0.82,0.101,0.721-0.719,1.199-0.96
	C66.762,68.728,63.234,70.093,61.935,68.329z"/>
<path fill="#20201E" d="M61.935,29.447c0.729-0.398,3.111-0.398,3.841,0c-1.2,0-2.4,0-3.601,0
	C62.094,29.447,62.015,29.447,61.935,29.447z"/>
<path fill="#20201E" d="M65.775,29.447c3.433,1.014,8.063,2.271,12.959,0.96c0,0.08,0,0.16,0,0.24
	c1.068-0.292,2.46-0.261,3.841-0.24c3.899,0.341,7.235,1.245,10.319,2.4c1.482,0.518,2.79,1.21,4.801,1.2
	c0.919,0.201,1.675,0.564,1.92,1.439c-0.979,0.98-0.652,2.485-0.479,3.601c0.418-0.019,0.746,0.054,0.96,0.24
	c0.225,2.146-1.664,4.255-2.16,6.479c-0.549,1.181-1.326,4.553,0.479,5.04c0.188,0.469,1.085,1.454,1.681,0.72
	c1.211-0.437,2.28,0.768,2.641,1.92c-0.019,0.418,0.054,0.747,0.239,0.96c0.809-0.151,1.23-0.688,2.4-0.479
	c0.729-0.011,0.933,0.507,1.438,0.72c0.611,0.749,1.308,1.413,1.681,2.4c0,0.24,0,0.479,0,0.72c0.182,2.421-0.994,3.485-1.92,4.8
	c-0.608,0.877,0.292,1.771-0.479,2.4c0.453-0.054,0.529,0.271,0.96,0.24c0,0.08,0,0.159,0,0.239c0.692,0.587,0.685,1.876,1.439,2.4
	c1.461,0.22,1.903,1.456,1.92,3.12c0.375,1.653-0.878,1.682-0.96,2.88c0.253,0.707,1.086,0.834,1.681,1.2
	c-0.039,0.277,0.053,0.427,0.24,0.479c-0.188,0.214-0.259,0.542-0.24,0.96c-0.89,0.715-1.065,3.408-1.439,3.84
	c0.015,0.896-0.242,1.52-0.479,2.16c-1.55,1.65-1.835,4.565-4.32,5.28c-1.931-1.359-2.834,1.305-4.56,0
	c-2.046,3.354-6.86,2.643-9.841,4.8c1.353,4.299,5.785,5.768,10.08,7.681c3.251,1.447,6.609,1.874,8.641,4.319
	c4.15,5.001,6.181,12.591,7.68,20.16c-0.319,0-0.64,0-0.96,0c-0.503-4.514-2.097-9.6-4.319-14.4c-0.922-1.99-3.095-5.61-4.319-6.479
	c-1.074-0.761-3.118-1.155-4.561-1.68c-4.467-1.625-8.282-3.808-11.761-6c-2.271,3.842,1.317,9.804-0.96,13.92
	c-4.575-0.306-5.491-4.27-7.439-7.2c-1.421,0.091-2.195,1.603-3.12,0.24c-3.736,7.863-11.877,11.321-13.2,21.6c-0.4,0-0.8,0-1.2,0
	c1.083-5.477,3.518-9.603,6.48-13.2c-0.402-2.627-1.691-7.48-1.2-11.279c0.353-2.73,2.201-3.988,3.12-6.479
	c-3.384,1.176-5.092,4.028-6.24,7.439c0.925,0.066,2.293-1.677,2.64,0c-2.59,0.388-3.665,3.512-5.76,3.601
	c-0.06-1.744,2.01-2.625,1.44-4.08c-3.916,3.521-11.715,5.46-9.36,13.68c2.872-1.775,3.72-6.829,6.24-8.159
	c-1.449,7.378-9.142,10.166-8.16,18.479c-0.4,0-0.8,0-1.2,0c-0.624-2.641,0.225-6.21,1.92-7.92c-0.563-4.374-0.789-8.457,1.92-11.28
	c2.718-2.832,7.767-4.448,10.801-7.68c1.393-1.483,2.093-3.117,3.6-4.32c0.557-0.643,1.838-0.562,1.92-1.68
	c-1.284-0.085-1.501,0.898-2.16,1.439c-0.278-0.039-0.427,0.054-0.479,0.239c-1.599-1.418-3.506-1.422-5.521-0.239
	c-3.306-2.743-9.461-0.1-10.319-6c-2.087-0.394-3.335-1.624-3.841-3.601c-0.335-1.186-0.233-2.806-0.239-4.32
	c0.338-1.816-1.503-6.759,1.92-6.72c-0.193-1.437-0.193-2.144,0.239-3.359c0.046-0.194,0.241-0.239,0.24-0.48
	c1.076-0.489-0.682-1.444,0.24-2.4c0.382-0.577,1.125-0.795,1.44-1.439c0.488-0.231,0.519-0.921,0.479-1.68
	c-2.062-1.22-3.158-3.402-4.08-5.761c-0.608-0.554-0.345-1.069-0.24-1.92c0.028-1.172-0.129-2.528,0.24-3.359
	c-0.066-0.389,0.228-0.414,0.24-0.721c1.388-0.373,2.625-0.895,4.56-0.72c0,0.08,0,0.16,0,0.24c0.578,0.098,0.521-0.438,1.2-0.24
	c0.348-0.774,0.228-2.013,0.24-3.12c-0.936,0.187-1.245-0.887-1.92-0.24c-0.4,0-0.8,0-1.2,0c-0.84-0.279-1.596-0.644-1.92-1.439
	c-0.204,0.044-0.228-0.094-0.24-0.24c-0.023-0.744,0.293-1.146,0.48-1.68c1.261-0.579,3.188-0.492,5.04-0.48
	c1.021,0.143,1.587-0.173,2.399-0.24c-0.104-1.703,0.05-3.148,0.721-4.079c0.079,0,0.159,0,0.239,0
	c0.355-2.709-0.775-8.058,1.2-9.841C63.375,29.447,64.574,29.447,65.775,29.447z M82.335,31.129
	c-4.736-0.271-8.854,1.538-12.48,0.479c-1.594-0.465-5.173-2.333-7.199-1.439c-1.373,2.393-0.455,6.873-0.48,8.88
	c7.394-0.354,12.697,1.383,19.2,1.92c0.825-1.346-0.585-3.454,0.24-4.8c6.273,1.089,9.915,2.689,16.08,3.12
	c-0.039-1.576,0.477-2.323,0.72-4.08C93.32,34.393,88.102,31.457,82.335,31.129z M82.095,41.928
	c-8.377-0.46-15.857-2.892-21.36-1.44c-0.057,1.757,0.181,2.404,0,3.84c-1.72,0.358-4.744,0.211-7.439,0.24
	c-0.53,3.087,2.132,1.833,3.6,1.92c3.475,0.206,7.899,0.992,12.48,1.2c6.679,0.303,13.795-1.641,18.72,0.24
	c0.221-0.419,0.75-0.53,1.439-0.48c2.152,1.765,4.586,2.18,6.96,3.36c-0.771-4.338,1.108-7.544,2.399-10.56
	c-5.875,0.385-11.479-2.153-16.319-2.881C82.364,38.671,83.197,40.543,82.095,41.928z M79.935,48.169
	c-5.694,0.863-13.954,0.02-18.72,0.479c0,0.08,0,0.16,0,0.24c-0.569,0.181-0.524,1.761,0.24,1.92c1.812,0.26,2.613,0.552,3.84,1.68
	c1.079-0.601,1.701-1.658,3.36-1.68c0.751-0.049,1.762,0.162,2.159-0.24c1.539,0.18,2.44-0.279,3.841-0.24
	c1.806-0.045,2.947,0.573,4.8,0.48c0.85,0.11,1.386,0.534,2.399,0.48c0.296,0.344,0.825,0.454,1.44,0.479c0-0.479,0-0.96,0-1.44
	c0-0.079,0-0.159,0-0.239c0.08,0,0.16,0,0.24,0c0.092-0.788,0.702-1.059,0.959-1.681c-1.214,0.009-2.758-0.911-3.84-0.239
	C80.415,48.169,80.174,48.169,79.935,48.169z M78.015,63.048c2.196-0.058,3.893-4.737,4.8-7.681c1.285-0.293,1.733,1.152,2.641,0.48
	c1.411-2.882-3.93-3.973-7.439-4.32c-4.042-0.398-8.298,0.335-10.8,0.48c-0.347,0.373-0.32,1.12-0.72,1.439
	c-0.839,0.131-1.313,0.373-2.4,0c0,1.28,0,2.561,0,3.841c0.516,0.208,1.279-0.074,2.16,0.239c0.781,4.105,4.234,8.077,8.88,6.721
	c-6.391-0.01-8.513-4.288-8.399-10.801c4.505-1.176,10.329-1.239,14.88,0C82.4,57.708,80.292,61.061,78.015,63.048z M51.854,52.487
	c-0.782,3.884,1.055,11.209,6.48,10.32c-4.761-0.42-6.91-6.127-5.28-10.08c3.87-0.02,7.61-0.557,10.8,0.48
	C61.4,50.619,55.295,51.941,51.854,52.487z M56.895,57.527c1.287-1.033,2.419-2.221,3.12-3.84c-2.183-0.343-2.556,1.124-3.359,2.16
	c-0.52,1.253-3.356,2.608-1.44,4.08C55.78,59.134,56.712,58.706,56.895,57.527z M69.375,53.928c-0.161-0.375-1.396,0.185-1.68,0.479
	c0,0.4,0,0.801,0,1.2c-0.035,0.595-0.045,1.165,0.479,1.2c0.117-0.284,0.256-0.544,0.48-0.72c0.824-0.615,1.59-1.29,1.92-2.4
	c-0.359,0.041-0.886-0.086-0.96,0.24C69.535,53.928,69.455,53.928,69.375,53.928z M74.654,53.688
	c-2.193,1.567-4.795,4.003-5.28,6.48C71.083,57.957,73.123,56.076,74.654,53.688z M59.775,57.769c-0.938,1.205-2.315,2.76-2.16,3.6
	c1.841-2.238,3.881-4.278,5.279-6.96C61.79,55.108,60.762,56.501,59.775,57.769z M79.935,58.487c0.391-0.41,0.728-0.874,0.721-1.68
	c-0.924,0.276-1.402,0.997-1.681,1.92c-1.297,1.105-3.06,3.017-3.12,4.561c0.648-0.713,1.896-0.826,2.16-1.921
	c0.785-0.734,1.675-1.363,1.92-2.64C79.935,58.648,79.935,58.567,79.935,58.487z M84.734,57.289c-0.297-0.345-0.825-0.455-1.44-0.48
	c0.04,0.759-0.638,0.802-0.48,1.68c0,0.08,0,0.16,0,0.24c-1.607,5.444-8.28,9.162-13.92,5.28c-1.564-0.718-3.284-5.982-4.08-4.8
	c-0.171,0.868-0.837,1.242-0.96,2.159c-0.939,1.296-4.396,3.896-6.96,4.801c-1.717,0.605-4.109,1.016-1.68,1.92
	c0.08,0,0.16,0,0.24,0c1.346,1.054,3.433,1.368,4.319,2.88c0.402,0.798-0.083,2.482,1.2,2.398c0.681-0.52,1.026-1.373,1.92-1.68
	c0.08,0,0.16,0,0.24,0c1.667,0.415,3.042,2.396,4.561,2.16c0.079,0,0.159,0,0.239,0c1.209,0.796,5.633,0.045,4.08-1.92
	c0-0.08,0-0.16,0-0.24c0.468-0.568,1.718,2.077,2.4,2.88c-0.53-0.217-1.954-1.033-1.92,0.24c0,0.08,0,0.16,0,0.24
	c-2.11,2.45-4.265,4.855-8.16,5.52c-0.294,3.212,2.576,6.517,5.28,6.721c0.08,0,0.159,0,0.239,0c0.492,0.397,2.628,0.397,3.12,0
	c0.658,0.295,2.107-0.363,2.641-0.961c0.712,0.211,1.184-1.024,1.439-0.479c-0.524,1.314-1.832,1.849-3.359,2.16
	c-0.148,0.55-0.153,1.745,0.239,2.398c-0.031,0.593-0.037,1.156,0.24,1.44c0,2.68,0.821,4.867-0.479,6.479c0-0.079,0-0.158,0-0.238
	c0.227-0.661,0.143-1.176,0-1.92c-1.228,0.293-1.359,1.68-1.921,2.64c-0.275,0.283-0.271,0.849-0.239,1.439
	c-0.398,0.337-0.398,2.305,0,2.641c-0.168,1.413,0.129,4.317,0.72,5.76c-0.15,0.893,0.48,2.38,0.96,1.2c0.08,0,0.16,0,0.24,0
	c2.7-2.02,4.104-5.337,5.76-8.4c0-0.08,0-0.159,0-0.239c1.654-2.665,3.738-4.901,5.76-7.199c0-0.08,0-0.16,0-0.24
	c0.08,0,0.16,0,0.24,0c1.127-1.29-0.909-2.702-1.68-3.601c-0.629-2.144-0.692-3.453-0.96-5.761c0.256-0.785,1.625-1.612,0.479-2.398
	c0-0.16,0-0.32,0-0.48c0.713-0.833-0.694-1.082-0.96-1.68c-0.228-1.748,0.223-2.817,0.72-3.84c-0.89-0.378-0.744-1.419-0.479-2.4
	c0-0.08,0-0.16,0-0.24c1.452-1.034-0.89-3.127,0.96-4.56c-0.3-0.58-1.21-0.55-1.2-1.44c-0.044-1.644,1.197-2.002,1.2-3.6
	c0-0.08,0-0.16,0-0.24c0.298-0.741,0.792-1.288,1.44-1.68c-0.134-0.428-0.123-0.997-0.479-1.2c0-0.08,0-0.16,0-0.24
	c0.027-1.163,2.417-2.464,0.72-3.119C84.895,57.289,84.814,57.289,84.734,57.289z M59.054,63.048c2.04,0.275,3.383-1.412,3.36-2.4
	C61.777,61.932,59.77,61.844,59.054,63.048z M60.975,74.567c-0.586-0.134-0.512-0.929-1.439-0.72
	c0.174,0.733-0.415,0.706-0.24,1.438c0.983-0.58,1.265,0.328,2.16,0.48c1.316-2.325,5.202,1.341,6.96-0.96
	C65.396,74.164,62.943,71.15,60.975,74.567z M70.335,75.769c-3.081,1.537-6.771-0.629-8.88,0.96c-0.663-0.071-1.162-1.54-1.92-0.72
	C60.525,81.63,68.668,79.249,70.335,75.769z M86.895,93.288c-2.23,3.368-5.712,5.487-7.199,9.601c5.279-4.025,4.978,5.619,9.601,6
	c0.644-3.146-1.083-10.195,0.96-14.641C89.415,93.286,87.975,93.505,86.895,93.288z"/>
<path fill="#C09760" d="M50.654,79.367c0.006,1.516-0.096,3.136,0.239,4.32c-0.993-1.167-0.25-4.07-0.479-6
	C51.158,78.122,50.543,78.424,50.654,79.367z"/>
<path fill="#C09760" d="M72.255,108.648c-0.591-1.441-0.888-4.347-0.72-5.76c0-0.88,0-1.76,0-2.641
	c-0.032-0.592-0.037-1.156,0.24-1.439c0.923-0.276,0.506-1.894,1.68-1.92c0.426,0.502-0.189,0.901,0.24,1.2c0,0.08,0,0.159,0,0.238
	c-0.094,0.344-0.288,0.405,0,0.722c1.649-0.893,1.022-5.578,0.479-7.2c-0.276-0.284-0.271-0.849-0.24-1.44
	c0.207-0.956-0.357-1.771,0-2.159c1.742-0.214,3.64-1.434,3.36-2.881c-0.791,0.09-1.199,0.562-1.68,0.96
	c-0.532,0.598-1.982,1.256-2.641,0.961c-1.04,0-2.08,0-3.12,0c-0.079,0-0.159,0-0.239,0c-2.903-0.938-4.558-3.122-5.28-6.239
	c2.66-0.771,6.514-2.814,8.16-6c0-0.08,0-0.16,0-0.24c0.846-0.82,1.94,0.672,2.64,0c-0.644-1.517-2.215-2.104-2.64-3.84
	c-0.495-0.211-1.078,0.622-0.48,0.72c0,0.08,0,0.16,0,0.24c0.156,2.414-1.817,1.66-4.08,1.92c-0.08,0-0.159,0-0.239,0
	c-1.822-0.261-2.949-2.488-4.561-2.16c-0.08,0-0.16,0-0.24,0c-0.92-0.591-1.291,1.422-2.399,1.439
	c-0.167-3.192-2.459-4.262-5.04-5.04c-0.08,0-0.16,0-0.24,0c-0.023-0.617-0.937-0.344-0.96-0.96c4.234-0.887,7.519-2.722,9.6-5.761
	c0.123-0.917,0.789-1.291,0.96-2.159c2.304,3.354,5.363,7.815,11.04,6.72c3.512-0.678,5.749-3.734,6.96-7.2c0-0.08,0-0.16,0-0.24
	c0.479-0.83,0.565-1.827,1.92-1.199c0.08,0,0.16,0,0.24,0c1.308,1.172-1.121,1.406-0.72,3.119c0,0.08,0,0.16,0,0.24
	c-0.019,0.418,0.053,0.747,0.239,0.96c-0.236,0.654-1.688,1.337-1.2,1.92c0,0.08,0,0.16,0,0.24c-0.514,1.246-1.464,2.056-1.44,3.84
	c0.323,0.558,0.683,1.078,1.2,1.44c-1.778,1.154-0.011,3.264-0.72,4.319c0,0.08,0,0.16,0,0.24c-0.877,0.37-0.397,2.135,0.24,2.88
	c-1.741,1.241-0.116,4.696,0.479,5.04c0,0.16,0,0.32,0,0.48c-0.011,0.33,0.113,0.525,0.24,0.72c-2.265,3.164,0.153,8.396,2.16,10.32
	c-0.337,0.063-0.273,0.525-0.479,0.72c0,0.08,0,0.16,0,0.24c-2.231,2.088-4.427,4.213-5.76,7.199c0,0.08,0,0.159,0,0.239
	c-2.079,2.643-3.273,6.167-5.76,8.4c-0.08,0-0.16,0-0.24,0C72.209,110.134,72.786,108.837,72.255,108.648z M61.935,68.329
	c1.3,1.764,4.828,0.398,2.88-1.44c-0.479,0.241-0.379,1.062-1.199,0.96c-0.415-0.088-1.483-0.726-1.681-0.24
	c-0.08,0-0.159,0-0.239,0c-0.812-0.091-1.024,0.416-1.44,0.721c0.315,0.308,0.885,0.308,1.2,0
	C61.614,68.329,61.775,68.329,61.935,68.329z M79.214,84.648c0.076-0.324,0.342-0.458,0.24-0.96c-0.24,0-0.48,0-0.72,0
	C78.668,84.234,78.793,84.591,79.214,84.648z M78.734,84.889c-0.188-0.054-0.279-0.201-0.24-0.48
	C77.077,84.401,78.252,86.053,78.734,84.889z"/>
<path fill="#524627" d="M68.842,219.917c0.243-1.758,0.759-2.504,0.721-4.08c6.164,0.43,9.806,2.031,16.079,3.119
	c0.825-1.346-0.585-3.453,0.24-4.799c6.503,0.537,11.808,2.273,19.2,1.92c-0.025,2.006,0.893,6.486-0.48,8.879
	c-2.026,0.895-5.605-0.975-7.199-1.439c-3.627-1.059-7.744,0.75-12.48,0.48C79.154,223.669,73.936,220.733,68.842,219.917z
	 M102.921,222.317c0.499-1.043,0.895-3.855,0-4.799c-2.54,0.465-4.86-0.523-6.479,0c-0.688,1.412-0.089,2.076-0.48,4.08
	C97.887,222.524,100.65,222.987,102.921,222.317z"/>
<path fill="#20201E" d="M84.681,224.718c1.381,0.021,2.772,0.053,3.841-0.24c0,0.08,0,0.16,0,0.24
	C87.657,224.981,85.505,225.21,84.681,224.718z"/>
<path fill="#20201E" d="M95.961,221.599c0.392-2.004-0.207-2.668,0.48-4.08c1.619-0.523,3.939,0.465,6.479,0
	c0.895,0.943,0.499,3.756,0,4.799C100.65,222.987,97.887,222.524,95.961,221.599z M101.721,221.599
	c0.861,0.877,1.52-3.939-0.479-3.121c0.444,1.221,0.171,2.371-0.48,3.121c0.413-0.096,0.615,0.355,0.72,0
	C101.562,221.599,101.642,221.599,101.721,221.599z M97.881,218.478c-0.044-0.355-0.58-0.221-0.96-0.24c0,0.959,0,1.92,0,2.879
	c0.562,0.08,0.992,0.289,1.44,0.48c0.408-0.404-0.141-1.078-0.48-1.439c-0.158-0.9,1.264-1.598,0.24-1.92
	C98.108,218.384,98.085,218.522,97.881,218.478z M100.761,219.437c-0.32-0.428-1.389-0.742-1.92-0.24
	C98.192,221.235,101.206,221.462,100.761,219.437z"/>
<path fill="#A6A5A5" d="M101.48,221.599c-0.559-0.654,0.709-1.523,0.24-2.881c0.85,0.039,0.678,2.809,0,2.881
	C101.642,221.599,101.562,221.599,101.48,221.599z"/>
<path fill="#B8A12E" d="M99.082,220.397c0-0.4,0-0.801,0-1.201c0.4,0,0.8,0,1.2,0c-0.099,0.578,0.438,0.521,0.239,1.201
	C100.214,220.726,99.388,220.726,99.082,220.397z"/>
<path fill="#524627" d="M84.681,217.759c-4.84-0.729-10.444-3.266-16.319-2.881c1.291-3.016,3.172-6.223,2.399-10.561
	c2.374,1.182,4.808,1.596,6.96,3.361c0.689,0.049,1.22-0.063,1.439-0.48c4.925,1.881,12.042-0.063,18.72,0.24
	c4.581,0.207,9.006,0.994,12.48,1.199c1.468,0.088,4.13-1.166,3.6,1.92c-2.695,0.029-5.72-0.117-7.44,0.24
	c-0.18,1.436,0.058,2.084,0,3.84c-5.502,1.451-12.982-0.979-21.359-1.439C84.059,214.583,84.892,216.454,84.681,217.759z"/>
<path fill="#C09760" d="M106.042,206.237c-0.029-0.689,0.131-1.57-0.24-1.92C106.565,204.478,106.61,206.058,106.042,206.237z"/>
<path fill="#365E81" d="M103.401,201.917c3.189,1.037,6.931,0.5,10.8,0.48c1.63-3.953-0.521-9.66-5.28-10.08
	c5.426-0.889,7.263,6.438,6.48,10.32C111.961,203.185,105.855,204.507,103.401,201.917z"/>
<path fill="#365E81" d="M104.841,194.478c-0.022-0.988,1.32-2.676,3.36-2.4C107.486,193.282,105.479,193.194,104.841,194.478z"/>
<path fill="#20201E" d="M105.321,187.517c-1.199-0.426-2.632-0.777-3.12,0.48c-0.815-0.754,0.421-1.484,0.72-1.92
	c0.98,0.246,1.916,1.297,2.4,0.721c0.159,0,0.319,0,0.479,0c0.068,0.387-0.227,0.412-0.24,0.719
	C105.48,187.517,105.401,187.517,105.321,187.517z"/>
<path fill="#20201E" d="M105.562,187.517c0.014-0.307,0.309-0.332,0.24-0.721c0.315-0.307,0.885-0.307,1.2,0
	C106.585,187.101,106.373,187.608,105.562,187.517z"/>
<path fill="#BB3228" d="M98.841,180.317c1.758-2.301,5.644,1.365,6.96-0.961c0.896,0.152,1.177,1.063,2.16,0.48
	c0.174,0.732-0.414,0.705-0.24,1.439c-0.928,0.209-0.854-0.586-1.439-0.721C104.313,183.976,101.86,180.962,98.841,180.317z"/>
<path fill="#BB3228" d="M107.721,179.116c-0.758,0.82-1.257-0.646-1.92-0.719c-2.109,1.588-5.799-0.578-8.88,0.959
	C98.588,175.876,106.73,173.495,107.721,179.116z"/>
<path fill="#C09760" d="M88.521,171.437c-0.239,0-0.479,0-0.72,0c-0.102-0.502,0.165-0.635,0.24-0.959
	C88.463,170.534,88.588,170.892,88.521,171.437z"/>
<path fill="#C09760" d="M88.761,170.718c0.039-0.279-0.053-0.428-0.239-0.48C89.004,169.073,90.179,170.724,88.761,170.718z"/>
<path fill="#20201E" d="M97.401,167.837c-1.04,0-2.08,0-3.12,0C94.773,167.438,96.909,167.438,97.401,167.837z"/>
<path fill="#524627" d="M77.001,160.878c2.043-4.445,0.316-11.496,0.96-14.641c4.623,0.381,4.32,10.025,9.601,6
	c-1.487,4.111-4.969,6.23-7.199,9.6C79.281,161.62,77.841,161.839,77.001,160.878z"/>
<path fill="#524627" d="M102.201,130.397c3.6,0,7.2,0,10.8,0c0.981,8.313-6.711,11.102-8.16,18.479
	c2.521-1.33,3.369-6.383,6.24-8.158c2.354,8.219-5.445,10.156-9.36,13.68c-0.569-1.455,1.5-2.336,1.44-4.08
	c-2.095,0.088-3.17,3.213-5.76,3.6c0.347,1.678,1.715-0.066,2.64,0c-1.148,3.412-2.856,6.266-6.24,7.439
	c0.919-2.49,2.768-3.748,3.12-6.479c0.491-3.799-0.798-8.652-1.2-11.279C98.684,139.999,101.118,135.874,102.201,130.397z"/>
<path fill="#524627" d="M51.321,130.397c4.399,0,8.8,0,13.2,0c0.828,6.141,0.668,14.875-1.681,19.92
	c4.438-5.49,3.34-12.811,2.64-19.92c11.841,0,23.681,0,35.521,0c-1.323,10.278-9.464,13.735-13.2,21.6
	c-0.925-1.361-1.699,0.148-3.12,0.24c-1.947-2.932-2.863-6.896-7.439-7.201c-2.277,4.117,1.313,10.078-0.96,13.92
	c-3.479-2.191-7.294-4.375-11.76-6c-1.442-0.523-3.486-0.918-4.562-1.68c-1.226-0.867-3.397-4.488-4.319-6.479
	C53.418,139.997,51.824,134.911,51.321,130.397z"/>
<path fill="#20201E" d="M95.721,154.878c0-0.881,0-1.762,0-2.641C96.119,152.573,96.119,154.54,95.721,154.878z"/>
<path fill="#20201E" d="M64.521,130.397c0.32,0,0.641,0,0.961,0c0.699,7.11,1.799,14.43-2.641,19.92
	C65.19,145.272,65.351,136.538,64.521,130.397z"/>
<path fill="#20201E" d="M74.361,222.317c-1.704-0.295-3.342-0.658-4.801-1.199C71.571,221.106,72.879,221.8,74.361,222.317z"/>
<path fill="#20201E" d="M105.321,225.679c-0.08,0-0.16,0-0.24,0c1.976-1.783,0.844-7.131,1.2-9.842
	C106.563,218.968,107.072,223.839,105.321,225.679z"/>
<path fill="#20201E" d="M114.921,209.118c-0.324-0.797-1.08-1.16-1.92-1.439C114.208,207.591,114.806,208.112,114.921,209.118z"/>
<path fill="#20201E" d="M111.321,204.317c-1.502,0.135-1.875,3.686,0.479,3.119c0,0.08,0,0.16,0,0.24
	c-0.675,0.646-0.983-0.426-1.92-0.24c0.013-1.107-0.105-2.346,0.24-3.119c0.678,0.199,0.622-0.338,1.2-0.24
	C111.321,204.157,111.321,204.237,111.321,204.317z"/>
<path fill="#524627" d="M96.201,161.837c-0.658,0.541-0.875,1.525-2.16,1.439c0.082-1.117,1.363-1.037,1.92-1.68
	C95.918,161.802,96.055,161.823,96.201,161.837z"/>
<path fill="#A6A5A5" d="M101.48,221.599c-0.104,0.355-0.307-0.096-0.72,0c0.651-0.75,0.925-1.9,0.48-3.121
	c1.999-0.816,1.341,4,0.479,3.121c0.678-0.072,0.85-2.842,0-2.881C102.189,220.075,100.923,220.944,101.48,221.599z"/>
<path fill="#A6A5A5" d="M97.881,218.478c-0.16,0-0.32,0-0.479,0c-1.211,1.043,0.954,4.182,0.479,1.68
	c0.34,0.361,0.889,1.035,0.48,1.439c-0.448-0.191-0.879-0.4-1.44-0.48c0-0.959,0-1.92,0-2.879
	C97.301,218.259,97.837,218.122,97.881,218.478z"/>
<path fill="#A6A5A5" d="M97.881,218.478c0.204,0.043,0.228-0.094,0.24-0.24c1.022,0.322-0.398,1.02-0.24,1.92
	c0.475,2.5-1.69-0.637-0.479-1.68C97.562,218.478,97.721,218.478,97.881,218.478z"/>
<path fill="#B8A12E" d="M98.841,219.198c0.531-0.502,1.6-0.188,1.92,0.24C101.206,221.462,98.192,221.235,98.841,219.198z
	 M100.521,220.397c0.198-0.678-0.338-0.623-0.239-1.201c-0.4,0-0.8,0-1.2,0c0,0.4,0,0.801,0,1.201
	C99.388,220.726,100.214,220.726,100.521,220.397z"/>
<path fill="#C09760" d="M106.042,206.478c-4.767,0.459-13.025-0.385-18.72,0.479C92.723,205.597,101.043,206.515,106.042,206.478z"
	/>
<path fill="#C09760" d="M98.602,204.317c-0.728,0.371-2.015,0.494-2.159,0.24C96.839,204.155,97.851,204.366,98.602,204.317z"/>
<path fill="#C09760" d="M92.602,204.798c-1.261,0.455-3.539-0.137-4.8-0.48C89.654,204.226,90.796,204.843,92.602,204.798z"/>
<path fill="#C09760" d="M85.401,203.837c1.014-0.055,1.55,0.369,2.399,0.48c1.262,0.342,3.539,0.936,4.8,0.479
	c1.4,0.041,2.302-0.418,3.841-0.238c0.146,0.254,1.433,0.131,2.159-0.24c1.659-0.021,2.281-1.08,3.36-1.68
	c1.227,1.127,2.028,1.418,3.84,1.68c0.371,0.348,0.211,1.229,0.24,1.92c0,0.08,0,0.16,0,0.24c-4.999,0.037-13.318-0.881-18.72,0.479
	c-0.24,0-0.48,0-0.721,0c-0.438-0.174-1.647-0.055-3.12-0.238c-0.157-0.879,0.52-0.922,0.48-1.682c0-0.08,0-0.16,0-0.24
	c0.521,0.041,0.109-0.852,0.24-1.199C84.78,203.499,84.723,204.036,85.401,203.837z"/>
<path fill="#C09760" d="M85.401,203.837c-0.679,0.199-0.622-0.338-1.2-0.24c-0.131,0.35,0.281,1.24-0.24,1.199
	c0-0.479,0-0.959,0-1.439C84.576,203.384,85.105,203.493,85.401,203.837z"/>
<path fill="#20201E" d="M86.602,206.956c-1.082,0.672-2.626-0.248-3.84-0.238c0.258-0.623,0.867-0.895,0.959-1.682
	c0.08,0,0.16,0,0.24,0c0.039,0.76-0.638,0.803-0.48,1.682C84.953,206.901,86.163,206.782,86.602,206.956z"/>
<path fill="#365E81" d="M85.642,201.679c4.551,1.238,10.375,1.176,14.88,0c0.113-6.514-2.009-10.791-8.399-10.801
	c4.646-1.357,8.099,2.615,8.88,6.721c0.881,0.313,1.645,0.029,2.16,0.238c0,1.281,0,2.561,0,3.842c-1.087-0.373-1.563-0.131-2.4,0
	c-0.399,0.318-0.373,1.066-0.72,1.439c-2.502,0.145-6.758,0.879-10.8,0.48c-3.51-0.348-8.852-1.439-7.439-4.32
	c0.906-0.672,1.354,0.773,2.641,0.48c0.907-2.943,2.604-7.623,4.8-7.682C86.964,194.065,84.855,197.417,85.642,201.679z"/>
<path fill="#A6A5A5" d="M110.361,197.599c0.183-1.178,1.114-1.605,1.68-2.4c1.916,1.471-0.921,2.826-1.44,4.08
	c-1.124,0.555-1.1,2.26-3.12,1.92C108.273,199.829,109.372,198.769,110.361,197.599z"/>
<path fill="#A6A5A5" d="M110.361,197.599c-0.989,1.17-2.088,2.23-2.881,3.6c2.021,0.34,1.997-1.365,3.12-1.92
	c-0.805,1.035-1.177,2.502-3.359,2.16C107.942,199.817,109.074,198.63,110.361,197.599z"/>
<path fill="#A6A5A5" d="M99.562,199.517c0,0.4,0,0.801,0,1.201c-0.283,0.295-1.519,0.854-1.68,0.479
	c0.308-0.332,1.133-0.146,1.44-0.479C99.453,200.368,99.041,199.478,99.562,199.517z"/>
<path fill="#A6A5A5" d="M98.602,199.036c0.225-0.176,0.363-0.436,0.48-0.719c0.523,0.035,0.515,0.604,0.479,1.199
	c-0.521-0.041-0.108,0.852-0.239,1.201c-0.308,0.332-1.133,0.145-1.44,0.479c-0.08,0-0.16,0-0.24,0c-0.239,0-0.479,0-0.72,0
	C97.375,200.37,98.312,200.028,98.602,199.036z"/>
<path fill="#A6A5A5" d="M97.642,201.198c-0.074,0.326-0.601,0.199-0.96,0.24c0.33-1.111,1.096-1.785,1.92-2.4
	c-0.29,0.99-1.227,1.332-1.68,2.16C97.162,201.198,97.401,201.198,97.642,201.198z"/>
<path fill="#A6A5A5" d="M97.881,194.956c-0.484,2.479-3.086,4.914-5.28,6.48C94.133,199.05,96.173,197.169,97.881,194.956z"/>
<path fill="#A6A5A5" d="M104.361,200.718c1.398-2.682,3.438-4.721,5.279-6.959c0.155,0.84-1.222,2.395-2.16,3.6
	C106.494,198.624,105.466,200.017,104.361,200.718z"/>
<path fill="#A6A5A5" d="M87.321,196.638c0.067,0.389-0.228,0.414-0.24,0.721c0.821,0.102,0.721-0.719,1.2-0.961
	c-0.277,0.924-0.757,1.645-1.681,1.92C86.595,197.511,86.932,197.048,87.321,196.638z"/>
<path fill="#A6A5A5" d="M89.241,193.759c0.266-1.096,1.512-1.209,2.16-1.922c-0.061,1.545-1.823,3.455-3.12,4.561
	c-0.479,0.242-0.378,1.063-1.2,0.961c0.013-0.307,0.308-0.332,0.24-0.721c0-0.08,0-0.16,0-0.24
	C88.041,195.597,88.534,194.569,89.241,193.759z"/>
<path fill="#A6A5A5" d="M89.241,193.759c-0.707,0.813-1.2,1.838-1.92,2.639C87.566,195.122,88.457,194.493,89.241,193.759z"/>
<path fill="#20201E" d="M82.521,197.837c1.354,0.627,1.441-0.369,1.921-1.199c0.157,0.877-0.521,0.92-0.48,1.68
	C83.347,198.292,82.817,198.183,82.521,197.837z"/>
<path fill="#C09760" d="M84.441,196.397c1.211-3.465,3.448-6.523,6.96-7.201c5.677-1.096,8.736,3.365,11.04,6.721
	c-0.797,1.184-2.516-4.082-4.08-4.801C92.723,187.235,86.05,190.952,84.441,196.397z"/>
<path fill="#C09760" d="M103.401,193.759c2.081-3.039,5.365-4.875,9.6-5.762c-0.023-0.615-0.937-0.342-0.96-0.959
	c2.43,0.904,0.037,1.313-1.68,1.92C107.798,189.862,104.341,192.462,103.401,193.759z"/>
<path fill="#20201E" d="M111.801,187.036c-2.581-0.777-4.873-1.846-5.04-5.039c-1.108,0.018-1.479,2.029-2.399,1.439
	c0.894-0.309,1.239-1.16,1.92-1.68c1.283-0.086,0.798,1.602,1.199,2.398C108.369,185.669,110.455,185.983,111.801,187.036z"/>
<path fill="#20201E" d="M104.122,183.437c-1.611,0.328-2.738-1.898-4.561-2.16C101.08,181.042,102.454,183.022,104.122,183.437z"/>
<path fill="#20201E" d="M99.321,181.276c-2.263,0.26-4.236-0.494-4.08,1.92C93.688,181.231,98.112,180.481,99.321,181.276z"/>
<path fill="#C09760" d="M95.241,183.437c0.598,0.098,0.015,0.932-0.48,0.721c-0.424-1.734-1.996-2.324-2.64-3.84
	c0.698-0.672,1.793,0.82,2.64,0c0.034,1.273-1.39,0.457-1.92,0.24C93.523,181.36,94.773,184.007,95.241,183.437z"/>
<path fill="#C09760" d="M97.642,167.837c2.704,0.205,5.574,3.51,5.28,6.721c-3.896,0.664-6.05,3.068-8.16,5.52
	c1.646-3.186,5.5-5.229,8.16-6C102.199,170.96,100.545,168.774,97.642,167.837z"/>
<path fill="#20201E" d="M93.321,164.718c0.394,0.654,0.389,1.85,0.239,2.398c-1.528,0.313-2.835,0.846-3.359,2.16
	c0.256,0.547,0.728-0.689,1.439-0.479c-0.48,0.398-0.889,0.871-1.68,0.961c-0.279-1.447,1.618-2.668,3.36-2.881
	C93.68,166.489,93.114,165.675,93.321,164.718z"/>
<path fill="#C09760" d="M93.082,163.276c-0.543-1.621-1.17-6.309,0.479-7.199c0.288,0.314,0.094,0.377,0,0.721
	C92.261,158.409,93.081,160.599,93.082,163.276z"/>
<path fill="#C09760" d="M93.562,157.036c0.43,0.299-0.187,0.699,0.24,1.201c1.174-0.027,0.757-1.645,1.681-1.92
	c-0.562,0.959-0.693,2.346-1.92,2.639C93.419,158.212,93.335,157.698,93.562,157.036z"/>
<path fill="#20201E" d="M95.001,146.478c-0.532-0.189,0.046-1.486-0.96-1.201C94.521,144.099,95.151,145.585,95.001,146.478z"/>
<path fill="#20201E" d="M93.801,145.276c-2.485,2.234-3.681,5.76-5.76,8.4C89.698,150.614,91.101,147.298,93.801,145.276z"/>
<path fill="#C09760" d="M82.281,161.116c2.021-2.297,4.105-4.533,5.76-7.199C86.708,156.903,84.513,159.028,82.281,161.116z"/>
<path fill="#20201E" d="M84.201,173.116c-1.146-0.785,0.224-1.613,0.479-2.398c-0.268-2.307-0.331-3.617-0.96-5.76
	c-0.771-0.898-2.807-2.311-1.68-3.602c0.08,0,0.16,0,0.24,0c-0.206,0.193-0.144,0.658-0.479,0.721
	c2.006,1.924,4.425,7.156,2.16,10.32C84.088,172.591,84.212,172.786,84.201,173.116z"/>
<path fill="#C09760" d="M84.921,181.517c0.265-0.98,0.41-2.021-0.479-2.4c0.496-1.021,0.947-2.092,0.72-3.84
	c-0.265-0.598-1.673-0.846-0.96-1.68c0.596,0.344,2.221,3.799,0.479,5.041C85.319,179.384,85.798,181.147,84.921,181.517z"/>
<path fill="#C09760" d="M83.961,191.356c0.002-1.596,1.244-1.955,1.2-3.6c0.01-0.891-0.9-0.859-1.2-1.439
	c1.85-1.434-0.492-3.525,0.96-4.561c-0.709,1.057,1.058,3.166-0.72,4.32c0.518,0.361,0.877,0.883,1.2,1.439
	C85.426,189.302,84.476,190.112,83.961,191.356z"/>
<path fill="#C09760" d="M83.001,194.478c-0.356-0.203-0.347-0.773-0.479-1.201c0.647-0.391,1.143-0.938,1.44-1.68
	c0.489,0.584-0.963,1.266-1.2,1.92C82.948,193.731,83.02,194.06,83.001,194.478z"/>
<path fill="#C09760" d="M83.001,194.718c0.401,1.713-2.026,1.947-0.72,3.119C80.584,197.183,82.974,195.882,83.001,194.718z"/>
<path fill="#20201E" d="M105.321,186.796c-0.484,0.578-1.419-0.473-2.4-0.719c-0.299,0.436-1.535,1.166-0.72,1.92
	c0.488-1.258,1.921-0.906,3.12-0.48c-0.196,0.486-1.266-0.152-1.681-0.24c-0.82-0.1-0.721,0.719-1.199,0.961
	C100.494,186.397,104.021,185.032,105.321,186.796z"/>
<path fill="#20201E" d="M105.321,225.679c-0.729,0.398-3.111,0.398-3.841,0c1.2,0,2.4,0,3.601,0
	C105.162,225.679,105.241,225.679,105.321,225.679z"/>
<path fill="#20201E" d="M101.48,225.679c-3.433-1.014-8.063-2.271-12.959-0.961c0-0.08,0-0.16,0-0.24
	c-1.068,0.293-2.46,0.262-3.841,0.24c-3.899-0.34-7.235-1.244-10.319-2.4c-1.482-0.518-2.79-1.209-4.801-1.199
	c-0.919-0.201-1.675-0.564-1.92-1.439c0.979-0.98,0.652-2.486,0.479-3.602c-0.418,0.02-0.746-0.053-0.96-0.24
	c-0.225-2.145,1.664-4.254,2.16-6.479c0.549-1.182,1.326-4.553-0.479-5.041c-0.188-0.469-1.085-1.453-1.681-0.719
	c-1.211,0.436-2.28-0.768-2.641-1.92c0.019-0.418-0.054-0.748-0.239-0.961c-0.809,0.152-1.23,0.689-2.4,0.48
	c-0.729,0.01-0.933-0.508-1.438-0.721c-0.611-0.748-1.308-1.412-1.681-2.4c0-0.24,0-0.479,0-0.719
	c-0.182-2.422,0.994-3.486,1.92-4.801c0.608-0.877-0.292-1.771,0.479-2.4c-0.453,0.055-0.529-0.27-0.96-0.24c0-0.08,0-0.158,0-0.238
	c-0.692-0.588-0.685-1.877-1.439-2.4c-1.461-0.221-1.903-1.457-1.92-3.121c-0.375-1.652,0.878-1.682,0.96-2.879
	c-0.253-0.707-1.086-0.834-1.681-1.201c0.039-0.277-0.053-0.426-0.24-0.479c0.188-0.213,0.259-0.541,0.24-0.959
	c0.89-0.715,1.065-3.408,1.439-3.84c-0.015-0.896,0.242-1.52,0.479-2.16c1.55-1.65,1.835-4.566,4.32-5.281
	c1.931,1.359,2.834-1.305,4.56,0c2.046-3.354,6.86-2.643,9.841-4.799c-1.353-4.299-5.785-5.768-10.08-7.682
	c-3.251-1.447-6.609-1.873-8.641-4.318c-4.15-5.002-6.181-12.592-7.68-20.161c0.319,0,0.64,0,0.96,0
	c0.503,4.514,2.097,9.6,4.319,14.401c0.922,1.99,3.095,5.609,4.319,6.479c1.074,0.76,3.118,1.154,4.561,1.68
	c4.467,1.625,8.282,3.807,11.761,6c2.271-3.842-1.317-9.805,0.96-13.92c4.575,0.305,5.491,4.27,7.439,7.199
	c1.421-0.09,2.195-1.602,3.12-0.24c3.736-7.863,11.877-11.32,13.2-21.6c0.4,0,0.8,0,1.2,0c-1.083,5.477-3.518,9.604-6.48,13.202
	c0.402,2.627,1.691,7.48,1.2,11.279c-0.353,2.73-2.201,3.988-3.12,6.479c3.384-1.176,5.092-4.027,6.24-7.439
	c-0.925-0.066-2.293,1.678-2.64,0c2.59-0.387,3.665-3.512,5.76-3.6c0.06,1.744-2.01,2.625-1.44,4.08
	c3.916-3.521,11.715-5.461,9.36-13.68c-2.872,1.775-3.72,6.828-6.24,8.158c1.449-7.377,9.142-10.166,8.16-18.479c0.4,0,0.8,0,1.2,0
	c0.624,2.641-0.225,6.209-1.92,7.92c0.563,4.373,0.789,8.457-1.92,11.279c-2.718,2.832-7.767,4.449-10.801,7.68
	c-1.393,1.484-2.093,3.117-3.6,4.32c-0.557,0.643-1.838,0.563-1.92,1.68c1.284,0.086,1.501-0.898,2.16-1.439
	c0.278,0.039,0.427-0.053,0.479-0.238c1.599,1.418,3.506,1.422,5.521,0.238c3.306,2.744,9.461,0.1,10.319,6
	c2.087,0.395,3.335,1.625,3.841,3.602c0.335,1.186,0.233,2.805,0.239,4.32c-0.338,1.816,1.503,6.758-1.92,6.719
	c0.193,1.438,0.193,2.145-0.239,3.359c-0.046,0.195-0.241,0.24-0.24,0.48c-1.076,0.49,0.682,1.445-0.24,2.4
	c-0.382,0.578-1.125,0.795-1.44,1.439c-0.488,0.232-0.519,0.922-0.479,1.68c2.062,1.221,3.158,3.402,4.08,5.762
	c0.608,0.553,0.345,1.068,0.24,1.92c-0.028,1.172,0.129,2.527-0.24,3.359c0.066,0.389-0.228,0.414-0.24,0.721
	c-1.388,0.373-2.625,0.895-4.56,0.719c0-0.08,0-0.16,0-0.24c-0.578-0.098-0.521,0.439-1.2,0.24c-0.348,0.775-0.228,2.014-0.24,3.121
	c0.936-0.188,1.245,0.887,1.92,0.24c0.4,0,0.8,0,1.2,0c0.84,0.279,1.596,0.643,1.92,1.439c0.204-0.045,0.228,0.094,0.24,0.24
	c0.023,0.744-0.293,1.146-0.48,1.68c-1.261,0.578-3.188,0.492-5.04,0.48c-1.021-0.143-1.587,0.172-2.399,0.24
	c0.104,1.703-0.05,3.148-0.721,4.078c-0.079,0-0.159,0-0.239,0c-0.355,2.709,0.775,8.059-1.2,9.842
	C103.881,225.679,102.682,225.679,101.48,225.679z M84.921,223.997c4.736,0.27,8.854-1.539,12.48-0.48
	c1.594,0.465,5.173,2.334,7.199,1.439c1.373-2.393,0.455-6.873,0.48-8.879c-7.394,0.354-12.697-1.383-19.2-1.92
	c-0.825,1.346,0.585,3.453-0.24,4.799c-6.273-1.088-9.915-2.689-16.08-3.119c0.039,1.576-0.477,2.322-0.72,4.08
	C73.936,220.733,79.154,223.669,84.921,223.997z M85.161,213.198c8.377,0.459,15.857,2.891,21.36,1.439
	c0.057-1.756-0.181-2.404,0-3.84c1.72-0.357,4.744-0.211,7.439-0.24c0.53-3.086-2.132-1.832-3.6-1.92
	c-3.475-0.205-7.899-0.992-12.48-1.199c-6.679-0.303-13.795,1.641-18.72-0.24c-0.221,0.418-0.75,0.529-1.439,0.48
	c-2.152-1.766-4.586-2.18-6.96-3.361c0.771,4.338-1.108,7.545-2.399,10.561c5.875-0.385,11.479,2.152,16.319,2.881
	C84.892,216.454,84.059,214.583,85.161,213.198z M87.321,206.956c5.694-0.863,13.954-0.02,18.72-0.479c0-0.08,0-0.16,0-0.24
	c0.569-0.182,0.524-1.762-0.24-1.92c-1.812-0.26-2.613-0.553-3.84-1.68c-1.079,0.6-1.701,1.658-3.36,1.68
	c-0.751,0.049-1.762-0.162-2.159,0.24c-1.539-0.18-2.44,0.279-3.841,0.24c-1.806,0.045-2.947-0.574-4.8-0.48
	c-0.85-0.111-1.386-0.535-2.399-0.48c-0.296-0.344-0.825-0.455-1.44-0.48c0,0.48,0,0.961,0,1.441c0,0.078,0,0.158,0,0.238
	c-0.08,0-0.16,0-0.24,0c-0.092,0.789-0.702,1.059-0.959,1.682c1.214-0.01,2.758,0.91,3.84,0.238
	C86.841,206.956,87.082,206.956,87.321,206.956z M89.241,192.077c-2.196,0.059-3.893,4.738-4.8,7.682
	c-1.285,0.293-1.733-1.152-2.641-0.48c-1.411,2.881,3.93,3.973,7.439,4.32c4.042,0.398,8.298-0.336,10.8-0.48
	c0.347-0.373,0.32-1.121,0.72-1.439c0.839-0.131,1.313-0.373,2.4,0c0-1.281,0-2.561,0-3.842c-0.516-0.207-1.279,0.074-2.16-0.238
	c-0.781-4.105-4.234-8.078-8.88-6.721c6.391,0.01,8.513,4.287,8.399,10.801c-4.505,1.176-10.329,1.238-14.88,0
	C84.855,197.417,86.964,194.065,89.241,192.077z M115.401,202.638c0.782-3.883-1.055-11.209-6.48-10.32
	c4.761,0.42,6.91,6.127,5.28,10.08c-3.87,0.02-7.61,0.557-10.8-0.48C105.855,204.507,111.961,203.185,115.401,202.638z
	 M110.361,197.599c-1.287,1.033-2.419,2.221-3.12,3.84c2.183,0.342,2.556-1.125,3.359-2.16c0.52-1.254,3.356-2.609,1.44-4.08
	C111.476,195.991,110.544,196.419,110.361,197.599z M97.881,201.198c0.161,0.375,1.396-0.186,1.68-0.48c0-0.4,0-0.801,0-1.199
	c0.035-0.596,0.045-1.166-0.479-1.201c-0.117,0.285-0.256,0.545-0.48,0.721c-0.824,0.615-1.59,1.289-1.92,2.4
	c0.359-0.041,0.886,0.086,0.96-0.24C97.721,201.198,97.801,201.198,97.881,201.198z M92.602,201.437
	c2.193-1.566,4.795-4.002,5.28-6.48C96.173,197.169,94.133,199.05,92.602,201.437z M107.48,197.356c0.938-1.205,2.315-2.76,2.16-3.6
	c-1.841,2.238-3.881,4.279-5.279,6.961C105.466,200.017,106.494,198.624,107.48,197.356z M87.321,196.638
	c-0.391,0.41-0.728,0.875-0.721,1.68c0.924-0.275,1.402-0.996,1.681-1.92c1.297-1.105,3.06-3.016,3.12-4.561
	c-0.648,0.713-1.896,0.826-2.16,1.922c-0.785,0.734-1.675,1.363-1.92,2.639C87.321,196.478,87.321,196.558,87.321,196.638z
	 M82.521,197.837c0.297,0.344,0.825,0.455,1.44,0.48c-0.04-0.76,0.638-0.803,0.48-1.68c0-0.08,0-0.16,0-0.24
	c1.607-5.445,8.28-9.162,13.92-5.281c1.564,0.719,3.284,5.982,4.08,4.801c0.171-0.869,0.837-1.242,0.96-2.16
	c0.939-1.295,4.396-3.895,6.96-4.801c1.717-0.605,4.109-1.016,1.68-1.92c-0.08,0-0.16,0-0.24,0
	c-1.346-1.053-3.433-1.367-4.319-2.879c-0.402-0.799,0.083-2.482-1.2-2.398c-0.681,0.52-1.026,1.373-1.92,1.68
	c-0.08,0-0.16,0-0.24,0c-1.667-0.416-3.042-2.396-4.561-2.16c-0.079,0-0.159,0-0.239,0c-1.209-0.797-5.633-0.045-4.08,1.92
	c0,0.08,0,0.16,0,0.24c-0.468,0.568-1.718-2.078-2.4-2.881c0.53,0.217,1.954,1.033,1.92-0.24c0-0.08,0-0.16,0-0.24
	c2.11-2.449,4.265-4.855,8.16-5.52c0.294-3.211-2.576-6.516-5.28-6.721c-0.08,0-0.159,0-0.239,0c-0.492-0.396-2.628-0.396-3.12,0
	c-0.658-0.295-2.107,0.363-2.641,0.961c-0.712-0.211-1.184,1.025-1.439,0.479c0.524-1.314,1.832-1.848,3.359-2.16
	c0.148-0.549,0.153-1.744-0.239-2.398c0.031-0.592,0.037-1.156-0.24-1.439c0-2.68-0.821-4.867,0.479-6.479c0,0.078,0,0.158,0,0.238
	c-0.227,0.66-0.143,1.176,0,1.92c1.228-0.293,1.359-1.68,1.921-2.641c0.275-0.283,0.271-0.848,0.239-1.439
	c0.398-0.336,0.398-2.305,0-2.641c0.168-1.412-0.129-4.316-0.72-5.76c0.15-0.893-0.48-2.379-0.96-1.199c-0.08,0-0.16,0-0.24,0
	c-2.7,2.02-4.104,5.336-5.76,8.4c0,0.08,0,0.158,0,0.238c-1.654,2.666-3.738,4.902-5.76,7.199c0,0.08,0,0.16,0,0.24
	c-0.08,0-0.16,0-0.24,0c-1.127,1.291,0.909,2.703,1.68,3.602c0.629,2.143,0.692,3.453,0.96,5.76
	c-0.256,0.785-1.625,1.613-0.479,2.398c0,0.16,0,0.32,0,0.48c-0.713,0.834,0.694,1.082,0.96,1.68c0.228,1.748-0.223,2.818-0.72,3.84
	c0.89,0.379,0.744,1.42,0.479,2.4c0,0.08,0,0.16,0,0.24c-1.452,1.035,0.89,3.127-0.96,4.561c0.3,0.58,1.21,0.549,1.2,1.439
	c0.044,1.645-1.197,2.002-1.2,3.6c0,0.08,0,0.16,0,0.24c-0.298,0.742-0.792,1.289-1.44,1.68c0.134,0.428,0.123,0.998,0.479,1.201
	c0,0.08,0,0.16,0,0.24c-0.027,1.162-2.417,2.463-0.72,3.119C82.361,197.837,82.441,197.837,82.521,197.837z M108.202,192.077
	c-2.04-0.275-3.383,1.412-3.36,2.4C105.479,193.194,107.486,193.282,108.202,192.077z M106.281,180.558
	c0.586,0.135,0.512,0.93,1.439,0.721c-0.174-0.734,0.415-0.707,0.24-1.439c-0.983,0.58-1.265-0.328-2.16-0.48
	c-1.316,2.326-5.202-1.34-6.96,0.961C101.86,180.962,104.313,183.976,106.281,180.558z M96.921,179.356
	c3.081-1.537,6.771,0.629,8.88-0.959c0.663,0.07,1.162,1.539,1.92,0.719C106.73,173.495,98.588,175.876,96.921,179.356z
	 M80.361,161.837c2.23-3.367,5.712-5.486,7.199-9.6c-5.279,4.025-4.978-5.619-9.601-6c-0.644,3.145,1.083,10.195-0.96,14.641
	C77.841,161.839,79.281,161.62,80.361,161.837z"/>
<path fill="#C09760" d="M116.602,175.759c-0.006-1.516,0.096-3.137-0.239-4.32c0.993,1.166,0.25,4.07,0.479,6
	C116.098,177.003,116.713,176.702,116.602,175.759z"/>
<path fill="#C09760" d="M95.001,146.478c0.591,1.441,0.888,4.346,0.72,5.76c0,0.879,0,1.76,0,2.641
	c0.032,0.592,0.037,1.156-0.24,1.439c-0.923,0.275-0.506,1.893-1.68,1.92c-0.426-0.502,0.189-0.902-0.24-1.201
	c0-0.08,0-0.158,0-0.238c0.094-0.344,0.288-0.404,0-0.721c-1.649,0.893-1.022,5.578-0.479,7.199c0.276,0.285,0.271,0.85,0.24,1.441
	c-0.207,0.955,0.357,1.771,0,2.158c-1.742,0.215-3.64,1.434-3.36,2.881c0.791-0.09,1.199-0.561,1.68-0.959
	c0.532-0.598,1.982-1.256,2.641-0.961c1.04,0,2.08,0,3.12,0c0.079,0,0.159,0,0.239,0c2.903,0.938,4.558,3.121,5.28,6.238
	c-2.66,0.771-6.514,2.814-8.16,6c0,0.08,0,0.16,0,0.24c-0.846,0.82-1.94-0.672-2.64,0c0.644,1.518,2.215,2.104,2.64,3.84
	c0.495,0.211,1.078-0.621,0.48-0.719c0-0.08,0-0.16,0-0.24c-0.156-2.414,1.817-1.66,4.08-1.92c0.08,0,0.159,0,0.239,0
	c1.822,0.26,2.949,2.488,4.561,2.16c0.08,0,0.16,0,0.24,0c0.92,0.59,1.291-1.422,2.399-1.439c0.167,3.191,2.459,4.262,5.04,5.039
	c0.08,0,0.16,0,0.24,0c0.023,0.617,0.937,0.344,0.96,0.961c-4.234,0.887-7.519,2.721-9.6,5.76c-0.123,0.918-0.789,1.291-0.96,2.16
	c-2.304-3.355-5.363-7.816-11.04-6.721c-3.512,0.678-5.749,3.734-6.96,7.201c0,0.08,0,0.16,0,0.24
	c-0.479,0.83-0.565,1.826-1.92,1.199c-0.08,0-0.16,0-0.24,0c-1.308-1.172,1.121-1.406,0.72-3.119c0-0.08,0-0.16,0-0.24
	c0.019-0.418-0.053-0.748-0.239-0.961c0.236-0.654,1.688-1.336,1.2-1.92c0-0.08,0-0.16,0-0.24c0.514-1.246,1.464-2.055,1.44-3.84
	c-0.323-0.557-0.683-1.078-1.2-1.439c1.778-1.154,0.011-3.264,0.72-4.32c0-0.08,0-0.16,0-0.24c0.877-0.369,0.397-2.135-0.24-2.879
	c1.741-1.242,0.116-4.697-0.479-5.041c0-0.16,0-0.32,0-0.48c0.011-0.33-0.113-0.525-0.24-0.719c2.265-3.164-0.153-8.396-2.16-10.32
	c0.337-0.063,0.273-0.525,0.479-0.721c0-0.08,0-0.16,0-0.24c2.231-2.088,4.427-4.213,5.76-7.199c0-0.08,0-0.158,0-0.238
	c2.079-2.643,3.273-6.168,5.76-8.4c0.08,0,0.16,0,0.24,0C95.047,144.991,94.47,146.288,95.001,146.478z M105.321,186.796
	c-1.3-1.764-4.828-0.398-2.88,1.441c0.479-0.242,0.379-1.063,1.199-0.961c0.415,0.088,1.483,0.727,1.681,0.24
	c0.08,0,0.159,0,0.239,0c0.812,0.092,1.024-0.416,1.44-0.721c-0.315-0.307-0.885-0.307-1.2,0
	C105.642,186.796,105.48,186.796,105.321,186.796z M88.042,170.478c-0.076,0.324-0.342,0.457-0.24,0.959c0.24,0,0.48,0,0.72,0
	C88.588,170.892,88.463,170.534,88.042,170.478z M88.521,170.237c0.188,0.053,0.279,0.201,0.24,0.48
	C90.179,170.724,89.004,169.073,88.521,170.237z"/>
<use xlink:href="#Rand"  width="156.49" height="248.039" x="5.377" y="-252.996" transform="matrix(1 0 0 -1 0.0078 0.0059)" overflow="visible"/>
<use xlink:href="#Rand"  width="156.49" height="248.039" x="5.377" y="-252.996" transform="matrix(1 0 0 -1 0.002 0.0029)" overflow="visible"/>
</svg>
