<?xml version="1.0" encoding="utf-8"?>
<!-- Generator: Adobe Illustrator 15.1.0, SVG Export Plug-In  -->
<!DOCTYPE svg PUBLIC "-//W3C//DTD SVG 1.1//EN" "http://www.w3.org/Graphics/SVG/1.1/DTD/svg11.dtd" [
	<!ENTITY ns_flows "http://ns.adobe.com/Flows/1.0/">
]>
<svg version="1.1"
	 xmlns="http://www.w3.org/2000/svg" xmlns:xlink="http://www.w3.org/1999/xlink" xmlns:a="http://ns.adobe.com/AdobeSVGViewerExtensions/3.0/"
	 x="0px" y="0px" width="167px" height="258px" viewBox="0.006 0.003 167 258" enable-background="new 0.006 0.003 167 258"
	 xml:space="preserve">
<defs>
	<symbol  id="CU" viewBox="-42.52 -42.521 85.039 85.039">
		<g>
			<path fill="none" d="M0,42.518c-0.026,0-0.052-0.002-0.077-0.002h0.154C0.052,42.516,0.026,42.518,0,42.518z"/>
			<path fill="none" d="M0-42.521c0.013,0,0.025,0.001,0.039,0.001h-0.078C-0.025-42.521-0.013-42.521,0-42.521z"/>
			<path fill="#002690" d="M14.983,8.5l14.729-8.504L14.988-8.505h26.68c0.558,2.747,0.852,5.591,0.852,8.503
				S42.226,5.753,41.668,8.5H14.983z"/>
			<path fill="#FFFFFF" d="M14.983,8.5h26.685c-1.275,6.283-3.937,12.063-7.649,17.007h-48.492L14.983,8.5z"/>
			<path fill="#002690" d="M-14.474,25.507h48.492c-7.743,10.31-20.062,16.984-33.941,17.009h-0.154
				c-10.258-0.019-19.663-3.668-26.998-9.733L-14.474,25.507z"/>
			<path fill="#FFFFFF" d="M-14.469-25.512h48.487c3.713,4.944,6.374,10.724,7.649,17.007h-26.68L-14.469-25.512z"/>
			<path fill="#002690" d="M-27.073-32.789c7.345-6.071,16.764-9.723,27.034-9.731h0.078c13.896,0.013,26.229,6.69,33.979,17.009
				h-48.487L-27.073-32.789z"/>
			<path fill="#D00C27" d="M-14.469-25.512L14.988-8.505l14.725,8.501L14.983,8.5l-29.457,17.007l-12.602,7.275
				C-36.508,24.983-42.52,13.193-42.52-0.002c0-13.197,6.013-24.988,15.446-32.787L-14.469-25.512z M-24.103-1.437l-7.414,5.475
				l9.216,0.072l2.916,8.742l2.916-8.742l9.216-0.072l-7.414-5.475l2.78-8.786l-7.498,5.358l-7.498-5.358L-24.103-1.437z"/>
			<polygon fill="#FFFFFF" points="-19.385,-4.864 -11.887,-10.223 -14.667,-1.437 -7.253,4.038 -16.469,4.11 -19.385,12.853 
				-22.301,4.11 -31.517,4.038 -24.103,-1.437 -26.883,-10.223 			"/>
		</g>
	</symbol>
	<symbol  id="IN" viewBox="-42.52 -42.519 85.038 85.038">
		<path fill="none" d="M0,42.52c-0.007,0-0.013,0-0.02,0H0.02C0.013,42.519,0.007,42.52,0,42.52z"/>
		<path fill="#FF9933" d="M0.02,42.519H-0.02c-18.504-0.008-34.235-11.839-40.071-28.346H40.09
			C34.253,30.68,18.521,42.511,0.02,42.519z"/>
		<path fill="#FFFFFF" d="M42.519,0c0,4.971-0.861,9.739-2.429,14.173h-80.181C-41.658,9.739-42.52,4.971-42.52,0
			s0.861-9.739,2.429-14.173H40.09C41.657-9.739,42.519-4.971,42.519,0z"/>
		<path fill="#138808" d="M40.09-14.173h-80.181C-34.253-30.686-18.512-42.519,0-42.519C18.511-42.519,34.251-30.686,40.09-14.173z"
			/>
		<g>
			<path fill="#000088" d="M0,13.89c-7.671,0-13.89-6.218-13.89-13.89c0-7.671,6.219-13.89,13.89-13.89S13.89-7.671,13.89,0
				C13.89,7.671,7.671,13.89,0,13.89z"/>
			<path fill="#FFFFFF" d="M0,12.154c-6.712,0-12.153-5.441-12.153-12.154c0-6.712,5.441-12.153,12.153-12.153
				S12.153-6.712,12.153,0C12.153,6.712,6.712,12.154,0,12.154z"/>
			<path fill="#000088" d="M0,2.431c1.343,0,2.431-1.088,2.431-2.431c0-1.342-1.088-2.431-2.431-2.431S-2.431-1.342-2.431,0
				C-2.431,1.343-1.343,2.431,0,2.431z"/>
			<g>
				<g>
					<g id="b_36_">
						<g id="a_72_">
							<path fill="#000088" d="M12.129-0.984c0.333-0.043,0.567-0.349,0.523-0.682c-0.044-0.333-0.35-0.567-0.682-0.523
								c-0.333,0.043-0.567,0.349-0.523,0.682C11.491-1.174,11.796-0.94,12.129-0.984z"/>
							<path fill="#000088" d="M0-12.153l0.417,7.292L0-1.389l-0.417-3.473L0-12.153z"/>
						</g>
						<g transform="rotate(15)">
							<g id="a_47_">
								<path fill="#000088" d="M11.461-4.089c0.311-0.128,0.457-0.484,0.329-0.794c-0.129-0.31-0.484-0.458-0.794-0.329
									c-0.311,0.128-0.457,0.484-0.329,0.794C10.796-4.108,11.151-3.961,11.461-4.089z"/>
								<path fill="#000088" d="M-3.146-11.739l2.29,6.936l0.496,3.462l-1.302-3.247L-3.146-11.739z"/>
							</g>
						</g>
					</g>
					<g id="c_18_">
						<g id="b_23_">
							<g id="a_46_">
								<path fill="#000088" d="M10.012-6.917c0.267-0.204,0.316-0.585,0.112-0.852C9.92-8.035,9.538-8.085,9.272-7.88
									C9.006-7.676,8.956-7.295,9.16-7.028C9.364-6.762,9.746-6.712,10.012-6.917z"/>
								<path fill="#000088" d="M-6.077-10.525l4.008,6.107l1.375,3.216l-2.098-2.799L-6.077-10.525z"/>
							</g>
							<g transform="rotate(30)">
								<g id="a_45_">
									<path fill="#000088" d="M7.881-9.272c0.204-0.266,0.154-0.648-0.112-0.852s-0.647-0.154-0.852,0.112
										C6.712-9.746,6.763-9.364,7.028-9.16C7.295-8.956,7.677-9.006,7.881-9.272z"/>
									<path fill="#000088" d="M-8.594-8.594l5.451,4.862l2.16,2.75l-2.75-2.161L-8.594-8.594z"/>
								</g>
							</g>
						</g>
					</g>
					<g>
						<g id="d_9_">
							<g id="b_22_">
								<g id="a_44_">
									<path fill="#000088" d="M5.212-10.996c0.129-0.31-0.019-0.666-0.328-0.794c-0.311-0.128-0.666,0.019-0.794,0.329
										c-0.129,0.31,0.019,0.666,0.329,0.794C4.729-10.539,5.084-10.686,5.212-10.996z"/>
									<path fill="#000088" d="M-10.525-6.077l6.523,3.285l2.799,2.097L-4.418-2.07L-10.525-6.077z"/>
								</g>
								<g transform="rotate(15)">
									<g id="a_43_">
										<path fill="#000088" d="M2.188-11.97c0.044-0.333-0.19-0.638-0.522-0.682c-0.333-0.044-0.639,0.19-0.683,0.523
											c-0.043,0.333,0.191,0.638,0.523,0.682C1.84-11.403,2.146-11.637,2.188-11.97z"/>
										<path fill="#000088" d="M-11.739-3.146l7.151,1.485l3.246,1.301l-3.462-0.496L-11.739-3.146z"/>
									</g>
								</g>
							</g>
							<g id="c_11_">
								<g id="b_21_">
									<g id="a_42_">
										<path fill="#000088" d="M-0.983-12.129c-0.044-0.333-0.35-0.567-0.683-0.523c-0.332,0.044-0.566,0.349-0.522,0.682
											c0.044,0.333,0.349,0.567,0.682,0.523C-1.174-11.491-0.94-11.796-0.983-12.129z"/>
										<path fill="#000088" d="M-12.153,0l7.292-0.417L-1.389,0l-3.473,0.417L-12.153,0z"/>
									</g>
									<g transform="rotate(60)">
										<g id="a_41_">
											<path fill="#000088" d="M-4.09-11.461c-0.128-0.31-0.483-0.457-0.794-0.329c-0.31,0.128-0.457,0.484-0.328,0.794
												c0.128,0.31,0.483,0.457,0.794,0.329C-4.108-10.795-3.961-11.151-4.09-11.461z"/>
											<path fill="#000088" d="M-11.739,3.146l6.936-2.29l3.462-0.497l-3.246,1.301L-11.739,3.146z"/>
										</g>
									</g>
								</g>
							</g>
						</g>
						<g>
							<g>
								<g>
									<g id="b_20_">
										<g id="a_40_">
											<path fill="#000088" d="M-6.916-10.012c-0.205-0.267-0.586-0.316-0.853-0.112s-0.316,0.586-0.112,0.852
												s0.586,0.316,0.853,0.112C-6.763-9.364-6.712-9.746-6.916-10.012z"/>
											<path fill="#000088" d="M-10.525,6.077l6.107-4.007l3.215-1.375l-2.799,2.097L-10.525,6.077z"/>
										</g>
										<g transform="rotate(15)">
											<g id="a_39_">
												<path fill="#000088" d="M-9.272-7.88c-0.266-0.205-0.647-0.154-0.852,0.112c-0.204,0.267-0.154,0.648,0.112,0.852
													c0.266,0.205,0.647,0.154,0.852-0.112C-8.956-7.295-9.006-7.676-9.272-7.88z"/>
												<path fill="#000088" d="M-8.594,8.594l4.861-5.451l2.75-2.161l-2.16,2.75L-8.594,8.594z"/>
											</g>
										</g>
									</g>
									<g id="c_10_">
										<g id="b_19_">
											<g id="a_38_">
												<path fill="#000088" d="M-10.996-5.212c-0.31-0.128-0.665,0.019-0.794,0.329c-0.128,0.31,0.02,0.666,0.329,0.794
													s0.666-0.019,0.794-0.329C-10.538-4.729-10.686-5.084-10.996-5.212z"/>
												<path fill="#000088" d="M-6.077,10.525l3.285-6.523l2.098-2.799l-1.375,3.215L-6.077,10.525z"/>
											</g>
											<g transform="rotate(30)">
												<g id="a_37_">
													<path fill="#000088" d="M-11.97-2.188c-0.333-0.044-0.639,0.19-0.683,0.523c-0.044,0.333,0.19,0.638,0.523,0.682
														c0.333,0.044,0.638-0.19,0.682-0.523C-11.403-1.84-11.638-2.145-11.97-2.188z"/>
													<path fill="#000088" d="M-3.146,11.74l1.484-7.152l1.302-3.246l-0.496,3.462L-3.146,11.74z"/>
												</g>
											</g>
										</g>
									</g>
									<g>
										<g id="d_5_">
											<g id="b_18_">
												<g id="a_36_">
													<path fill="#000088" d="M-12.129,0.984c-0.333,0.044-0.567,0.349-0.523,0.682c0.044,0.333,0.35,0.567,0.683,0.523
														c0.332-0.044,0.566-0.349,0.522-0.682C-11.491,1.174-11.796,0.94-12.129,0.984z"/>
													<path fill="#000088" d="M0,12.154l-0.417-7.292L0,1.389l0.417,3.472L0,12.154z"/>
												</g>
												<g transform="rotate(15)">
													<g id="a_35_">
														<path fill="#000088" d="M-11.461,4.09c-0.31,0.128-0.457,0.484-0.329,0.794c0.129,0.31,0.484,0.457,0.794,0.329
															c0.311-0.128,0.458-0.484,0.329-0.794C-10.795,4.108-11.151,3.961-11.461,4.09z"/>
														<path fill="#000088" d="M3.146,11.74l-2.29-6.936L0.359,1.342l1.302,3.246L3.146,11.74z"/>
													</g>
												</g>
											</g>
											<g id="c_9_">
												<g id="b_17_">
													<g id="a_34_">
														<path fill="#000088" d="M-10.012,6.917c-0.267,0.205-0.316,0.586-0.112,0.852c0.204,0.267,0.586,0.316,0.852,0.112
															c0.267-0.204,0.316-0.586,0.112-0.852S-9.746,6.712-10.012,6.917z"/>
														<path fill="#000088" d="M6.077,10.525L2.07,4.418L0.694,1.203l2.098,2.799L6.077,10.525z"/>
													</g>
													<g transform="rotate(120)">
														<g id="a_33_">
															<path fill="#000088" d="M-7.881,9.272c-0.204,0.266-0.154,0.647,0.112,0.852c0.267,0.204,0.647,0.154,0.853-0.112
																c0.204-0.267,0.153-0.648-0.112-0.852C-7.295,8.956-7.677,9.006-7.881,9.272z"/>
															<path fill="#000088" d="M8.594,8.594L3.143,3.732l-2.16-2.75l2.75,2.161L8.594,8.594z"/>
														</g>
													</g>
												</g>
											</g>
										</g>
										<g>
											<g>
												<g>
													<g id="b_16_">
														<g id="a_32_">
															<path fill="#000088" d="M-5.212,10.996c-0.129,0.31,0.019,0.666,0.328,0.794c0.311,0.128,0.666-0.019,0.794-0.329
																c0.129-0.31-0.019-0.666-0.328-0.794C-4.729,10.539-5.084,10.686-5.212,10.996z"/>
															<path fill="#000088" d="M10.525,6.077L4.002,2.792L1.203,0.695L4.419,2.07L10.525,6.077z"/>
														</g>
														<g transform="rotate(15)">
															<g id="a_31_">
																<path fill="#000088" d="M-2.188,11.97c-0.044,0.333,0.19,0.638,0.522,0.682c0.333,0.043,0.639-0.19,0.683-0.523
																	c0.043-0.333-0.19-0.638-0.523-0.682S-2.145,11.638-2.188,11.97z"/>
																<path fill="#000088" d="M11.739,3.146L4.588,1.661L1.342,0.359l3.462,0.497L11.739,3.146z"/>
															</g>
														</g>
													</g>
													<g id="c_8_">
														<g id="b_15_">
															<g id="a_30_">
																<path fill="#000088" d="M0.983,12.129c0.044,0.333,0.35,0.567,0.683,0.523c0.332-0.044,0.566-0.349,0.522-0.682
																	c-0.043-0.333-0.349-0.567-0.682-0.523C1.175,11.491,0.94,11.796,0.983,12.129z"/>
																<path fill="#000088" d="M12.153,0L4.861,0.417L1.389,0l3.473-0.417L12.153,0z"/>
															</g>
															<g transform="rotate(30)">
																<g id="a_29_">
																	<path fill="#000088" d="M4.09,11.461c0.128,0.31,0.483,0.458,0.794,0.329c0.31-0.128,0.457-0.484,0.328-0.794
																		c-0.128-0.31-0.483-0.458-0.793-0.329C4.108,10.795,3.961,11.151,4.09,11.461z"/>
																	<path fill="#000088" d="M11.739-3.146l-6.936,2.29L1.342-0.359l3.246-1.301L11.739-3.146z"/>
																</g>
															</g>
														</g>
													</g>
													<g>
														<g id="d_4_">
															<g id="b_14_">
																<g id="a_28_">
																	<path fill="#000088" d="M6.917,10.012c0.204,0.266,0.585,0.316,0.852,0.112C8.035,9.92,8.085,9.539,7.881,9.272
																		C7.677,9.006,7.295,8.956,7.028,9.16C6.763,9.364,6.712,9.746,6.917,10.012z"/>
																	<path fill="#000088" d="M10.525-6.077L4.419-2.07L1.203-0.694l2.799-2.097L10.525-6.077z"/>
																</g>
																<g transform="rotate(15)">
																	<g id="a_27_">
																		<path fill="#000088" d="M9.272,7.881c0.266,0.204,0.647,0.154,0.852-0.112c0.204-0.266,0.154-0.647-0.112-0.852
																			C9.746,6.712,9.364,6.763,9.16,7.029S9.006,7.677,9.272,7.881z"/>
																		<path fill="#000088" d="M8.594-8.594L3.732-3.143l-2.75,2.161l2.16-2.75L8.594-8.594z"/>
																	</g>
																</g>
															</g>
															<g id="c_7_">
																<g id="b_13_">
																	<g id="a_26_">
																		<path fill="#000088" d="M10.996,5.212c0.31,0.128,0.665-0.019,0.794-0.329c0.128-0.31-0.019-0.666-0.329-0.794
																			c-0.31-0.128-0.665,0.019-0.794,0.329C10.539,4.729,10.686,5.084,10.996,5.212z"/>
																		<path fill="#000088" d="M6.077-10.525L2.792-4.001L0.694-1.203L2.07-4.418L6.077-10.525z"/>
																	</g>
																	<g transform="rotate(-120)">
																		<g id="a_25_">
																			<path fill="#000088" d="M11.971,2.189c0.332,0.044,0.638-0.19,0.682-0.523c0.044-0.333-0.19-0.638-0.523-0.682
																				c-0.333-0.043-0.638,0.19-0.682,0.523C11.403,1.84,11.638,2.145,11.971,2.189z"/>
																			<path fill="#000088" d="M3.146-11.739L1.661-4.588L0.359-1.341l0.496-3.462L3.146-11.739z"/>
																		</g>
																	</g>
																</g>
															</g>
														</g>
													</g>
												</g>
											</g>
										</g>
									</g>
								</g>
							</g>
						</g>
					</g>
				</g>
			</g>
		</g>
	</symbol>
	<symbol  id="Rand" viewBox="5.377 -252.996 156.49 248.039">
		<g id="weiß_2_">
		</g>
		<path fill="#FFFFFF" d="M159.867-242.076c0,4.92-4,8.92-8.92,8.92c-4.921,0-8.921-4-8.921-8.92s4-8.92,8.921-8.92
			C155.867-250.996,159.867-246.996,159.867-242.076z M159.867-15.887c0,4.92-4,8.93-8.92,8.93c-4.921,0-8.921-4.01-8.921-8.93
			c0-4.91,4-8.92,8.921-8.92C155.867-24.807,159.867-20.797,159.867-15.887z M19.387-4.957h123.9h4.569h3.091
			c6.02,0,10.92-4.9,10.92-10.93v-9.52v-208.09v-8.58c0-6.021-4.9-10.92-10.92-10.92h-9.471c-37.63,0-75.85,0-125.17,0
			c-6.029,0-10.92,4.898-10.92,10.92c-0.01,72.18-0.01,141.83-0.01,211.35v14.84c0,6.029,4.9,10.93,10.92,10.93H19.387z
			 M25.227-15.887c0,4.92-4.01,8.93-8.93,8.93c-4.91,0-8.92-4.01-8.92-8.93c0-4.91,4.01-8.92,8.92-8.92
			C21.217-24.807,25.227-20.797,25.227-15.887z M16.307-250.996c4.92,0,8.92,4,8.92,8.92s-4,8.92-8.92,8.92s-8.92-4-8.92-8.92
			S11.387-250.996,16.307-250.996z M27.227-15.887c0-6.02-4.9-10.92-10.93-10.92c-3.68,0-6.939,1.83-8.92,4.629
			c0-71.199,0-142.398,0-213.609c1.98,2.801,5.24,4.631,8.93,4.631c6.02,0,10.92-4.9,10.92-10.92c0-3.682-1.83-6.941-4.63-8.92
			c40.69,0,81.37,0,122.061,0c-2.801,1.979-4.631,5.238-4.631,8.92c0,6.02,4.9,10.92,10.921,10.92c3.68,0,6.939-1.83,8.92-4.621
			c0,71.201,0,142.4,0,213.6c-1.98-2.799-5.24-4.629-8.92-4.629c-6.021,0-10.921,4.9-10.921,10.92c0,3.689,1.83,6.949,4.631,8.93
			c-40.69,0-81.38,0-122.061,0C25.396-8.938,27.227-12.197,27.227-15.887z"/>
	</symbol>
</defs>
<g>
	<path fill="#D28F38" d="M167.25,240.949c0,9.355-7.653,17.008-17.008,17.008H17.014c-9.354,0-17.008-7.652-17.008-17.008V17.011
		c0-9.354,7.653-17.008,17.008-17.008h133.229c9.354,0,17.008,7.653,17.008,17.008V240.949z"/>
</g>
<g>
	<path fill="#BF4545" d="M167.244,240.947c0,9.354-7.653,17.008-17.008,17.008H17.008C7.653,257.955,0,250.301,0,240.947V17.008
		C0,7.653,7.653,0,17.008,0h133.229c9.354,0,17.008,7.653,17.008,17.008V240.947z"/>
</g>
<use xlink:href="#IN"  width="85.038" height="85.038" x="-42.52" y="-42.519" transform="matrix(0.2333 0 0 -0.2333 150.8066 242.0801)" overflow="visible"/>
<use xlink:href="#IN"  width="85.038" height="85.038" x="-42.52" y="-42.519" transform="matrix(0.2333 0 0 -0.2333 150.8057 15.8838)" overflow="visible"/>
<use xlink:href="#IN"  width="85.038" height="85.038" x="-42.52" y="-42.519" transform="matrix(0.2333 0 0 -0.2333 16.3037 242.0801)" overflow="visible"/>
<use xlink:href="#IN"  width="85.038" height="85.038" x="-42.52" y="-42.519" transform="matrix(0.2333 0 0 -0.2333 16.3037 15.8838)" overflow="visible"/>
<use xlink:href="#CU"  width="85.039" height="85.039" x="-42.52" y="-42.521" transform="matrix(0.2333 0 0 -0.2333 150.8008 242.0762)" overflow="visible"/>
<use xlink:href="#CU"  width="85.039" height="85.039" x="-42.52" y="-42.521" transform="matrix(0.2333 0 0 -0.2333 150.7998 15.8809)" overflow="visible"/>
<use xlink:href="#CU"  width="85.039" height="85.039" x="-42.52" y="-42.521" transform="matrix(0.2333 0 0 -0.2333 16.2979 242.0762)" overflow="visible"/>
<use xlink:href="#CU"  width="85.039" height="85.039" x="-42.52" y="-42.521" transform="matrix(0.2333 0 0 -0.2333 16.2979 15.8809)" overflow="visible"/>
<path fill="#544929" d="M105.22,39.767c-5.871-1.521-9.202-3.958-14.881-4.801c-0.87,1.449-0.234,4.405-1.681,5.28
	c-5.978-0.074-10.234-0.113-15.359-1.439c0.506-2.23,0.523-6.983,1.439-9.601c10.516-0.072,21.023,2.723,30.72,6
	c-0.038,0.279,0.055,0.427,0.24,0.48C106.405,37.035,105.593,38.719,105.22,39.767z M75.22,31.607
	c-0.298,1.272-1.038,3.211-0.48,4.56c2.316,0.494,3.993,0.156,6.24,0.72c0.069-1.729,1.13-3.495,0.24-4.8
	C78.866,31.578,76.708,31.286,75.22,31.607z"/>
<path fill="#21201D" d="M81.22,32.087c0.891,1.305-0.17,3.07-0.24,4.8c-2.247-0.563-3.924-0.226-6.24-0.72
	c-0.558-1.349,0.183-3.287,0.48-4.56C76.708,31.286,78.866,31.578,81.22,32.087z M76.42,33.046c0.408-2.367-2.536,2.592,0,2.4
	c0.174-0.734-0.414-0.706-0.24-1.44C76.254,33.683,76.521,33.548,76.42,33.046z M78.1,34.966c0.799-0.063,0.953-1.567,0.479-2.159
	C76.918,32.322,76.631,35.025,78.1,34.966z M80.26,34.966c0.421-0.282,0.443-2.188-0.24-2.159c0.139,0.778-0.164,1.116-0.24,1.68
	c-0.141,0.5-0.504,0.774-0.72,1.2c0.278,0.201,0.644,0.316,1.2,0.239C80.237,35.272,80.659,35.443,80.26,34.966z"/>
<path fill="#BF972E" d="M78.579,33.046c0.114,0.994,0.001,1.762-0.96,1.681C77.068,34.055,77.487,32.817,78.579,33.046z"/>
<path fill="#544929" d="M91.06,36.406c5.664-0.146,10.404,4.813,15.358,4.56c-0.758,3.679-2.212,6.098-2.398,9.841
	c-13.251-6.512-33.706-1.063-45.84-8.641c-0.356-0.532,0.317-1.636,0.479-2.399c1.616,1.055,5.352,2.443,8.4,2.64
	c2.267,0.146,5.519,0.554,5.04-2.64c2.824,0.739,6.292,1.187,10.32,1.439C87.29,41.513,91.513,42.212,91.06,36.406z"/>
<path fill="#B7935F" d="M73.779,47.446c1.125,0.155,2.874-0.314,3.6,0.24c-1.691-0.042-2.182,0.175-3.6,0
	C73.779,47.607,73.779,47.526,73.779,47.446z"/>
<path fill="#B7935F" d="M77.619,47.688c0.411-0.159,3.6-0.043,5.04,0.239C81.699,48.081,78.873,48.037,77.619,47.688z"/>
<path fill="#355D81" d="M74.26,52.006c0.067,1.62-0.4,2.392-0.24,3.84c1.139,10.338,15.372,8.875,15.12-2.159
	c-3.698-1.653-9.261-1.559-14.4-2.16c0.893-1.276,3.043-0.833,4.561-0.72c3.773,0.278,7.891,1.28,10.8,1.68
	c-0.174,0.732,0.245,0.875,0.238,1.439c1.444,0.415,5.375-0.276,6,1.681c-1.527,1.479-4.07-0.033-5.52,0.239
	c-2.135,4.831-6.678,10.743-13.92,7.2c-1.287-1.754-3.214-2.866-3.6-5.52c-0.955-0.175-0.966-0.175-1.92,0
	c0.393-2.239,0.653-4.188-0.24-6c-3.281-0.034-6.488-0.279-10.08,0.24c-0.267,1.646,0.008,2.472,0,4.56
	c-0.953-0.887-0.277-3.403-0.48-5.04c3.975-0.952,6.335-0.477,9.601-0.72C71.474,51.112,71.977,52.449,74.26,52.006z"/>
<path fill="#355D81" d="M61.06,56.566c0.613,0.026,0.477,0.804,0.479,1.439C60.927,57.98,61.063,57.203,61.06,56.566z"/>
<path fill="#A6A6A6" d="M80.02,58.486c0.434,0.411-0.074,0.943-0.72,0.96C79.4,58.987,79.387,58.413,80.02,58.486z"/>
<path fill="#21201D" d="M99.939,62.566c0.001-0.241-0.194-0.286-0.24-0.48c-0.901,0.618-1.5,1.54-1.92,2.641
	c-0.554-1.736,1.778-4.577,4.08-5.04c0.076,0.956-1.11,0.649-1.2,1.439c-0.076,0.558,0.039,0.921,0.24,1.2
	c-0.443,0.019,0.683,2.659-0.479,2.64c-0.139-0.422,0.289-1.409-0.239-1.439C100.281,63.025,100.015,62.892,99.939,62.566z"/>
<path fill="#B7935F" d="M69.459,74.086c-0.188,0.552-1.485,0.233-1.199-0.479C68.737,73.107,69.1,73.783,69.459,74.086z"/>
<path fill="#422F21" d="M49.539,74.566c-3.657,1.987-5.49,7.934-9.84,7.68c-0.493-1.247,1.536-0.259,2.4-0.72
	c0.271-0.733-0.06-1.917-0.721-2.4c0.6-2.28,3.021-2.738,4.08-4.56C47.195,74.467,47.862,74.358,49.539,74.566z M43.3,79.126
	c-0.027-0.292-0.072-0.566-0.48-0.479c-0.126,0.612-0.318,0.84,0.24,1.2c-0.068-0.425,1.13-0.743,0.479-0.961
	C43.525,79.033,43.504,79.171,43.3,79.126z"/>
<path fill="#BA3028" d="M56.739,77.446c-1.066,1.703-1.162,2.908-0.96,5.76c-0.833-0.191-0.922,0.357-1.68,0.24
	c-0.473-0.647-0.144-2.097-0.24-3.12c-0.424-0.775-1.646-0.753-1.92-1.68c-0.201-1.4,0.46-1.94,1.439-2.16
	c-0.236-0.563-0.421-1.179-0.479-1.92C55.115,73.672,55.566,76.509,56.739,77.446z M53.14,78.647c1.345,1.413,3.333-0.575,1.92-1.92
	C53.624,76.571,52.86,77.088,53.14,78.647z"/>
<path fill="#422F21" d="M43.06,74.808c-0.796,0.884-1.499,1.86-2.64,2.398c-0.034-0.926-0.812-1.107-0.721-2.16
	C40.663,74.812,41.806,74.752,43.06,74.808z"/>
<path fill="#DAD5D5" d="M35.379,78.166c0.355-1.164,1.423-1.617,1.681-2.88c1.478-0.131,1.434,2.315,1.439,2.88c0,0.4,0,0.801,0,1.2
	c-0.544,0.496-0.673,1.406-0.96,2.16c-0.779,0.06-0.562-0.878-0.96-1.2C36.357,79.429,35.601,79.066,35.379,78.166z"/>
<path fill="#422F21" d="M62.739,76.007c-1.314,1.244-2.056,3.063-4.56,3.119c-0.322,0.158-0.447,0.515-0.48,0.96
	c0.209,0.709,0.359-0.557,0.96-0.238c-0.864,0.414-0.636,1.924-1.68,2.159c-0.607-2.406,1.406-3.479,0.96-5.521
	C58.856,75.494,61.334,75.162,62.739,76.007z"/>
<path fill="#422F21" d="M64.18,78.647c-0.818-0.02-0.71,0.89-0.721,1.68c-0.578-0.098-0.521,0.438-1.199,0.24
	c-0.056-0.426,0.241-1.202-0.48-0.96c0.397-1.203,1.771-1.43,2.16-2.641c1.063-0.104,1.52,0.399,1.68,1.199
	c-1.054,0.066-1.193,1.047-1.68,1.681C63.213,79.553,64.108,78.932,64.18,78.647z"/>
<path fill="#422F21" d="M41.379,79.126c0.14,0.779-0.163,1.117-0.239,1.682c-0.32,0-0.641,0-0.96,0
	C39.974,80.426,40.3,78.974,41.379,79.126z"/>
<path fill="#422F21" d="M61.3,79.607c0.85,0.025-0.511,0.793,0.239,0.72c-0.203,0.356-0.771,0.348-1.199,0.48
	C60.517,80.265,61.254,80.281,61.3,79.607z"/>
<path fill="#422F21" d="M52.42,80.566c0.547,0.333,0.089,1.671,0.239,2.399c-0.663,0.104-0.225-0.896-0.72-0.96
	c-0.903-0.184-0.166,1.273-1.2,0.96C50.723,81.59,52.188,81.695,52.42,80.566z"/>
<path fill="#422F21" d="M44.499,81.526c0.354,0.606,1.539,0.381,1.681,1.2c-0.977-0.221-1.159-0.519-2.16-0.24
	C43.845,81.832,44.496,82.003,44.499,81.526z"/>
<path fill="#422F21" d="M59.14,81.526c0.239,0,0.479,0,0.72,0c-0.526,0.499,0.21,0.774-0.24,1.2c-0.24,0-0.479,0-0.72,0
	C58.701,82.048,59.237,82.105,59.14,81.526z"/>
<path fill="#21201D" d="M44.02,83.927c0.501-0.716,1.263,0.318,2.16,0c0,0.08,0,0.159,0,0.239
	C45.429,84.117,44.417,84.328,44.02,83.927z"/>
<path fill="#544929" d="M95.619,85.126c1.19,2.57,1.852,5.67,3.84,7.44c-2.99,4.769-6.199,9.318-6.479,16.8
	c-5.008-0.753-5.724-5.796-11.28-6C87.883,98.83,93.163,93.392,95.619,85.126z"/>
<path fill="#21201D" d="M115.3,104.086c0.295,0.105,0.491,0.309,0.479,0.722c-2.64,1.826-2.735,5.311-3.84,8.398
	c-1.301,3.637-4.112,7.424-5.04,11.28c-1.188-3.703,2.082-7.261,3.6-10.8C112.037,110.103,112.058,105.948,115.3,104.086z"/>
<path fill="#21201D" d="M52.18,107.927c-0.892,2.287-1.252,4.575-1.92,6.96c-0.3,1.068-1.141,2.042-1.44,3.12
	c-0.592,2.125,0.055,4.582-1.44,6.479c-1.113-0.447-0.565-2.126-0.479-2.88c0.522-4.562,2.929-9.729,4.56-13.681
	C51.699,107.927,51.939,107.927,52.18,107.927z"/>
<path fill="#544929" d="M42.579,123.768c-0.01,0.409,0.18,0.62,0.48,0.719c1.057-0.942,1.113-2.604,1.439-3.839
	c1.137-4.292,2.594-10.466,6.24-13.2c4.893-3.668,11.854-3.801,17.28-7.439c-0.187,2.534-1.238,4.202-1.44,6.721
	c2.58-0.556,4.978-3.333,7.681-4.562c-2.788-0.919-3.776,1.963-6,2.4c0.263-2.377,1.231-4.048,1.199-6.72
	c1.413,0.053,2.132-0.59,3.12-0.961c0.591,1.81,1.459,3.342,2.4,4.801c-0.237,2.444-0.59,4.596-0.24,6.96
	c0.16,1.08,1.001,2.058,0.96,3.12c-0.063,1.653-2.042,5.083-2.399,7.438c-0.275,1.815-0.342,3.549,0.239,5.28
	c1.42-0.725,0.629-2.433,0.721-3.36c0.234-2.391,0.736-5.345,1.68-7.438c0.868-1.928,3.006-2.991,3.84-4.801
	c0.732-1.588,0.288-3.544,1.2-5.039c5.389,0.521,7.063,6.212,12.72,7.199c1.346-1.482,0.853-4.226,1.2-6.479
	c0.643-4.153,2.932-7.615,4.8-10.32c5.672,5.404,15.937,7.127,22.8,12c2.456,5.384,3.214,12.348,4.562,18.239
	c-0.204-0.043-0.228,0.094-0.24,0.24c-28,0-56,0-84,0c-0.003-0.477-0.655-0.306-0.479-0.959
	C42.42,123.768,42.499,123.768,42.579,123.768z M51.459,107.927c-1.631,3.952-4.037,9.119-4.56,13.681
	c-0.086,0.754-0.634,2.433,0.479,2.879c1.495-1.896,0.849-4.354,1.44-6.479c0.3-1.078,1.141-2.052,1.44-3.12
	c0.667-2.385,1.028-4.673,1.92-6.96C51.939,107.927,51.699,107.927,51.459,107.927z M110.499,113.688
	c-1.518,3.539-4.786,7.097-3.6,10.799c0.928-3.855,3.739-7.644,5.04-11.279c1.104-3.089,1.2-6.572,3.84-8.398
	c0.013-0.413-0.185-0.615-0.479-0.722C112.058,105.948,112.037,110.103,110.499,113.688z"/>
<path fill="#21201D" d="M72.819,33.286c0.275-2.047,0.167-5.75,2.4-5.04C72.743,28.251,73.802,31.789,72.819,33.286z"/>
<path fill="#21201D" d="M35.379,74.326c1.94-1.518,4.25,0.545,7.2-0.479C40.107,75.368,37.398,73.358,35.379,74.326z"/>
<path fill="#A6A6A6" d="M76.18,34.006c-0.174,0.734,0.414,0.706,0.24,1.44c-2.536,0.191,0.408-4.768,0-2.4
	c-0.129-1.56-1.14,1.732-0.48,0.96C76.02,34.006,76.1,34.006,76.18,34.006z"/>
<path fill="#BF972E" d="M78.579,32.807c0.474,0.592,0.319,2.097-0.479,2.159C76.631,35.025,76.918,32.322,78.579,32.807z
	 M77.619,34.727c0.961,0.081,1.074-0.687,0.96-1.681C77.487,32.817,77.068,34.055,77.619,34.727z"/>
<path fill="#A6A6A6" d="M80.26,34.966c0.399,0.478-0.021,0.306,0,0.96c-0.558,0.077-0.921-0.039-1.2-0.239
	c0.216-0.425,0.58-0.7,0.72-1.2C80.188,34.398,80.232,34.673,80.26,34.966z"/>
<path fill="#A6A6A6" d="M79.779,34.486c0.077-0.563,0.379-0.901,0.24-1.68c0.684-0.028,0.661,1.877,0.24,2.159
	C80.232,34.673,80.188,34.398,79.779,34.486z"/>
<path fill="#B7935F" d="M69.459,48.886c0.086-0.714,0.383-1.218,0.721-1.68c1.354,0.379,1.954,0.087,3.6,0.24c0,0.08,0,0.16,0,0.24
	c1.418,0.175,1.908-0.042,3.6,0c0.08,0,0.16,0,0.24,0c1.254,0.35,4.08,0.395,5.04,0.239c0.08,0,0.16,0,0.24,0
	c2.603,0.415,4.449,0.464,7.439,0.721c1.421-0.142,2.324,0.234,3.359,0.479c1.138,0.521,1.962,0.407,3.36,0.96c0,0.48,0,0.96,0,1.44
	c-0.081,0.8-0.695,1.063-0.48,2.16c-0.479,0-0.96,0-1.438,0c-1.033-0.534-1.341-0.377-2.88-0.48c-0.4,0-0.802,0-1.2,0
	c0-0.32,0-0.64,0-0.96c-0.476-0.805-1.659-0.901-2.88-0.96c-0.592,0.032-1.156,0.037-1.44-0.24c-0.692-0.586-2.026-0.531-3.12-0.72
	c-0.69-0.028-1.57,0.131-1.92-0.24c-0.67-0.378-3.002-0.347-3.359-0.24c-0.655-0.021-0.483,0.4-0.961,0
	c-1.508-1.084-3.243,0.838-5.039,0.961c-0.08,0-0.16,0-0.24,0C72.396,48.991,69.492,50.373,69.459,48.886z"/>
<path fill="#21201D" d="M69.459,48.886c0.033,1.487,2.937,0.104,2.641,1.921c-0.493-0.067-0.479-0.642-0.721-0.961
	c-0.75-0.049-1.762,0.162-2.159-0.239c0-0.24,0-0.48,0-0.721C69.3,48.886,69.379,48.886,69.459,48.886z"/>
<path fill="#B7935F" d="M72.34,50.807c1.796-0.123,3.531-2.045,5.039-0.961c-1.911-0.558-3.102,1.054-5.039,1.2
	C72.34,50.966,72.34,50.886,72.34,50.807z"/>
<path fill="#B7935F" d="M78.34,49.846c0.356-0.105,2.688-0.138,3.359,0.24C81.182,50.241,79.199,50.115,78.34,49.846z"/>
<path fill="#B7935F" d="M83.619,50.326c1.094,0.188,2.428,0.134,3.12,0.72C85.722,50.784,84.359,50.866,83.619,50.326z"/>
<path fill="#B7935F" d="M88.18,51.286c1.221,0.059,2.404,0.155,2.88,0.96C90.263,51.763,89.028,51.717,88.18,51.286z"/>
<path fill="#B7935F" d="M92.26,53.207c1.539,0.104,1.847-0.054,2.88,0.48C93.898,53.499,93.422,53.695,92.26,53.207z"/>
<path fill="#21201D" d="M93.699,49.127c1.547-0.059,1.947,0.481,3.602,0.721c-0.145,0.497,0.296,1.576-0.24,1.68
	c0-0.48,0-0.96,0-1.44C95.661,49.533,94.838,49.646,93.699,49.127z"/>
<path fill="#21201D" d="M82.899,47.926c2.765-0.045,5.297,0.144,7.439,0.721C87.349,48.391,85.502,48.341,82.899,47.926z"/>
<path fill="#21201D" d="M42.579,50.087c0.953,0.6-1.353,2.791-2.159,2.4C41.06,51.606,41.905,50.934,42.579,50.087z"/>
<path fill="#A6A6A6" d="M67.06,52.486c-1.649,1.471-2.819,3.421-4.561,4.8C63.574,55.241,64.606,53.153,67.06,52.486z"/>
<path fill="#A6A6A6" d="M67.3,53.688c0.48-0.561,0.718-1.362,1.92-1.2c-0.017,0.704-0.548,0.892-0.96,1.2
	c0.07-0.49,0.648-0.472,0.72-0.96C67.922,52.549,67.996,53.503,67.3,53.688z"/>
<path fill="#A6A6A6" d="M68.26,53.688c-1.705,1.574-3.092,3.469-4.08,5.76c-2.231-0.612,2.057-5.465,3.12-5.76
	c0.696-0.185,0.623-1.139,1.68-0.96C68.908,53.216,68.33,53.197,68.26,53.688z"/>
<path fill="#21201D" d="M39.699,53.926c-0.567,2.05-2.835,3.737-2.16,6c0.486,1.631,2.704,1.147,3.36,2.881
	c0.275,3.075-1.577,4.022-2.16,6.239c0.627,0.067,1.032-0.088,0.96-0.72c1.46-1.26,2.82-2.62,4.08-4.08
	c0.825-1.765-1.159-2.637-1.92-3.6c0.546-1.614,1.505-2.815,2.4-4.08c0.649-0.149,0.597-1.003,1.439-0.96
	c-0.417,1.263-1.243,2.117-1.92,3.12c-1.311,0.63-0.691,3.119,0.72,3.119c0.367,0.496,1.114,1.407,0.48,2.16
	c-2.898,2.621-5.264,5.776-7.68,8.88c-0.596-2.542,0.946-4.953,1.92-6.72c0.333-0.948,0.913-1.646,0.72-3.12
	c-1.591-1.108-4.702-2.781-2.88-5.76c0.966-1.514,1.891-3.069,3.12-4.32C40.829,53.184,39.631,53.503,39.699,53.926z"/>
<path fill="#21201D" d="M39.699,53.926c-0.068-0.423,1.13-0.742,0.48-0.96c-1.229,1.251-2.154,2.807-3.12,4.32
	c0.672-1.968,1.711-3.568,3.36-4.56c0.579,0.558-0.375,0.643-0.48,1.199C39.859,53.926,39.779,53.926,39.699,53.926z"/>
<path fill="#A6A6A6" d="M75.699,57.046c0.778-1.222,1.521-2.479,2.641-3.359c-0.626,1.374-1.983,2.017-2.4,3.6
	C75.735,57.331,75.713,57.193,75.699,57.046z"/>
<path fill="#A6A6A6" d="M75.699,57.046c-0.241-1.844,1.385-3.893,3.36-4.319c-0.102,0.459-0.087,1.032-0.72,0.96
	C77.221,54.567,76.478,55.824,75.699,57.046z"/>
<path fill="#21201D" d="M44.499,61.846c-1.411,0-2.029-2.489-0.72-3.119c-0.624,1.032-0.647,2.638,0.72,2.88
	C44.499,61.688,44.499,61.767,44.499,61.846z"/>
<path fill="#A6A6A6" d="M78.819,58.966c1.844-1.756,2.769-4.432,5.521-5.279c-0.622,1.298-1.757,2.083-2.641,3.12
	c0.326-0.875,1.214-1.187,1.44-2.16C81.106,55.493,80.637,57.904,78.819,58.966z"/>
<path fill="#21201D" d="M78.819,61.366c-0.067,0.567-0.641-0.275-0.96-0.24c-0.017-0.896,0.386-1.375,0.96-1.68
	c-0.213,0.507-0.729,0.709-0.72,1.439C78.275,61.11,78.535,61.25,78.819,61.366z"/>
<path fill="#A6A6A6" d="M80.02,59.446c-0.147,0.894-0.455,1.625-1.2,1.92c-0.284-0.116-0.544-0.256-0.72-0.48
	c-0.01-0.729,0.507-0.933,0.72-1.439c0-0.16,0-0.32,0-0.48c1.817-1.063,2.287-3.473,4.32-4.319c-0.228,0.974-1.115,1.285-1.44,2.16
	c0,0.079,0,0.159,0,0.239C80.769,57.476,80.7,58.769,80.02,59.446z M79.3,59.446c0.646-0.017,1.153-0.549,0.72-0.96
	C79.387,58.413,79.4,58.987,79.3,59.446z"/>
<path fill="#21201D" d="M80.02,59.446c0.681-0.679,0.749-1.971,1.68-2.4C81.138,57.845,80.882,58.949,80.02,59.446z"/>
<path fill="#B7935F" d="M91.06,57.526c-1.645,4.254-5.206,8.292-10.561,7.92c-4.148-0.288-6.03-3.375-8.159-6.24
	c-0.474,0.654-1.933,1.579-2.4,1.44c1.037-0.483,1.758-1.282,2.64-1.92C76.697,68.153,87.263,66.492,91.06,57.526z"/>
<path fill="#B7935F" d="M64.18,62.087c1.606-1,4.181-0.735,5.52-1.439C68.501,61.769,65.866,61.454,64.18,62.087z"/>
<path fill="#B7935F" d="M60.34,64.486c0.58-1.5,2.094-2.066,3.84-2.4c1.688-0.633,4.321-0.317,5.52-1.439c0.08,0,0.16,0,0.24,0
	c0.468,0.139,1.927-0.786,2.4-1.44c2.129,2.865,4.011,5.952,8.159,6.24c5.354,0.372,8.917-3.666,10.561-7.92c0-0.08,0-0.16,0-0.24
	c0.803-0.253,2.254,0.089,3.358,0.24c-0.642,0.958-2.214,0.985-2.158,2.64c0,0.08,0,0.16,0,0.24
	c-1.168,2.273-2.165,5.994-2.642,8.16c0,0.08,0,0.16,0,0.24c-0.463,0.417-1.217,0.543-1.68,0.96c0,0.159,0,0.318,0,0.479
	s0,0.32,0,0.48c-0.011,0.948-0.528,1.392-0.72,2.159c0,0.08,0,0.159,0,0.239c-2.72,0.236-2.74-3.497-5.28-2.64
	c-0.383-0.497-0.521-1.239-1.2-1.44c-0.708,0.172-1.486,0.274-1.92,0.721c-0.797-0.563-2.148-0.571-1.92-2.16
	c-2.073-1.029-2.892-3.612-5.52-2.88c0.022,1.256,2.01,0.55,2.159,1.68c-0.58,2.792-4.419,2.511-6,3.36c-0.08,0-0.159,0-0.239,0
	c-1.459,0.064-4.494-0.065-5.761-0.961c-0.08,0-0.159,0-0.239,0C60.295,67.652,59.483,66.343,60.34,64.486z"/>
<path fill="#21201D" d="M60.34,64.486c-0.856,1.856-0.045,3.166,0.96,4.32C59.777,67.915,59.097,65.778,60.34,64.486z"/>
<path fill="#B7935F" d="M61.539,68.807c1.268,0.895,4.302,1.025,5.761,0.96C65.477,70.269,62.349,70.108,61.539,68.807z"/>
<path fill="#B7935F" d="M87.22,73.126c-2.525,0.947-2.902-3.42-5.521-2.398c-0.143-1.78-2.323-1.527-3.12-0.48
	c-2.118-1.621-3.393-4.892-6-5.28c0.114,0.768,1.231,0.529,1.2,1.44c-0.674,2.526-3.365,3.035-6.24,3.36
	c1.581-0.851,5.42-0.569,6-3.36c-0.149-1.13-2.136-0.423-2.159-1.68c2.628-0.732,3.446,1.851,5.52,2.88
	c-0.229,1.589,1.123,1.597,1.92,2.16c0.434-0.446,1.212-0.549,1.92-0.721c0.679,0.201,0.817,0.943,1.2,1.44
	C84.479,69.629,84.501,73.362,87.22,73.126z"/>
<path fill="#21201D" d="M87.939,70.728c0.624,0.64-0.299,1.77-0.72,2.159C87.411,72.118,87.929,71.676,87.939,70.728z"/>
<path fill="#21201D" d="M89.619,68.807c-0.115,0.925-1.401,0.677-1.68,1.439c0-0.16,0-0.319,0-0.479
	C88.402,69.351,89.156,69.224,89.619,68.807z"/>
<path fill="#21201D" d="M92.26,60.406c0.78,0.72-0.365,1.542-0.96,1.68c0.047,2.769-0.931,4.512-1.682,6.48
	C90.095,66.4,91.092,62.68,92.26,60.406z"/>
<path fill="#21201D" d="M91.06,57.286c0.5-0.956,2.482,0.049,3.6,0c-0.304,1.456-2.099,1.421-2.398,2.88
	c-0.056-1.654,1.518-1.683,2.159-2.64C93.313,57.376,91.862,57.033,91.06,57.286z"/>
<path fill="#B7935F" d="M103.06,61.846c-0.066-0.827,0.009-2.763-0.721-3.6c-2.275,0.376-3.255,0.743-4.561,1.44
	c1.287-1.305,2.571-1.373,4.561-1.681C103.063,58.649,103.673,60.666,103.06,61.846z"/>
<path fill="#B7935F" d="M97.3,60.167c-0.421,0.86-0.857,1.703-1.44,2.4c0.245,1.577,0.797,1.927-0.24,2.88
	c0.585,1.975,1.021,3.122,0.721,5.521c2.296-0.265,3.354-1.768,5.039-2.641c-1.229,1.571-3.211,2.389-5.278,3.12
	C96.46,67.569,94.187,62.875,97.3,60.167z"/>
<path fill="#21201D" d="M102.819,64.728c-0.1,1.02-0.42,1.819-0.96,2.399C102.16,66.308,102.375,65.402,102.819,64.728z"/>
<path fill="#B7935F" d="M99.939,62.566c-1.799,0.041-1.243,2.437-2.88,2.64c0.452-2.921,2.428-5.553,5.04-5.52
	c0.182,1.062-0.937,0.824-1.2,1.439c-0.08,0-0.16,0-0.24,0c0.09-0.79,1.276-0.483,1.2-1.439c-2.302,0.463-4.634,3.304-4.08,5.04
	c0.42-1.102,1.019-2.022,1.92-2.641C99.745,62.281,99.94,62.326,99.939,62.566z"/>
<path fill="#21201D" d="M100.18,63.526c0.528,0.03,0.102,1.018,0.238,1.439c1.163,0.02,0.037-2.622,0.48-2.64
	c0.455,0.689,0.265,2.394,0,3.12C100.184,65.283,100.095,64.491,100.18,63.526z"/>
<path fill="#B7935F" d="M67.3,77.927c-1.479-1.32-3.031-2.569-5.28-3.119c1.039-2.255,4.326-0.926,5.76-0.24
	c0.539-0.102,0.006-1.273,0.48-1.44c1.513,0.167,1.654,1.705,2.88,2.16c0.729-0.188,1.227-0.896,1.2,0.48
	c-0.659-0.598-1.918-0.224-2.641-1.2c-0.326,0.074-0.199,0.601-0.24,0.96c-1.94-0.543-5.104-2.87-7.199-0.96
	C64.174,75.452,66.371,76.054,67.3,77.927z M68.26,73.607c-0.286,0.713,1.012,1.03,1.199,0.479
	C69.1,73.783,68.737,73.107,68.26,73.607z"/>
<path fill="#B7935F" d="M65.379,84.647c-0.635,0.367-2.396,0.103-3.119-0.721c1.425-0.94,3.739-1.251,5.04-2.881
	c-0.997,1.404-2.432,2.37-4.561,2.642C63.039,85.133,65.139,84.115,65.379,84.647z"/>
<path fill="#21201D" d="M72.819,33.286c0.982-1.498-0.076-5.036,2.4-5.04c1.266,0.204,2.344-0.1,4.08,0
	c0.41,0.549,1.832,0.088,2.64,0.24c1.976,0.185,4.178,0.143,5.76,0.72c1.046,0.396,2.003,0.878,3.36,0.96
	c3.636,0.043,6.11,1.249,8.64,2.4c0.874,0.726,2.259,0.94,3.84,0.96c4.431-0.063,2.879,4.919,4.32,7.439
	c-0.934,2.746-1.763,5.598-2.64,8.4c-0.399,0.808-0.399,3.271,0,4.08c0.668,1.011,1.999,1.361,2.64,2.399
	c-0.111,1.757,0.061,3.694-1.2,4.801c-0.549,0.411-0.088,1.832-0.239,2.64c-0.564,0.956,0.069,3.11-0.721,3.84
	c-0.08,0-0.16,0-0.24,0c0.019,0.978-0.782,1.137-0.479,2.4c0.011,0.41-0.179,0.622-0.48,0.72c-1.474-0.033-0.955,1.925-2.159,2.16
	c-0.624,2.37-4.467,3.075-6.239,5.04c-1.936,6.744,2.663,10.581,4.318,15.84c2.098,1.723,4.013,3.49,6.722,4.8
	c6.515,3.149,15.112,3.942,17.76,10.801c0.848,2.196,1.457,5.368,1.92,8.16c0.419,2.522,1.083,5.221,0.72,7.439
	c-0.158,0-0.318,0-0.479,0c-1.348-5.894-2.104-12.856-4.562-18.24c-6.863-4.873-17.128-6.596-22.8-12
	c-1.868,2.705-4.156,6.167-4.8,10.32c-0.349,2.255,0.146,4.997-1.2,6.479c-5.654-0.987-7.331-6.679-12.72-7.2
	c-0.912,1.496-0.468,3.452-1.2,5.04c-0.834,1.81-2.972,2.873-3.84,4.801c-0.943,2.095-1.445,5.049-1.68,7.438
	c-0.092,0.929,0.699,2.637-0.721,3.359c-0.58-1.73-0.515-3.464-0.239-5.279c0.357-2.355,2.336-5.785,2.399-7.438
	c0.041-1.063-0.8-2.04-0.96-3.12c-0.35-2.364,0.003-4.516,0.24-6.96c-0.941-1.459-1.81-2.991-2.4-4.801
	c-0.987,0.371-1.707,1.014-3.12,0.96c0.032,2.673-0.937,4.344-1.199,6.721c2.224-0.438,3.212-3.319,6-2.4
	c-2.704,1.229-5.101,4.006-7.681,4.562c0.203-2.519,1.255-4.187,1.44-6.721c-5.426,3.64-12.388,3.771-17.28,7.439
	c-3.646,2.734-5.104,8.908-6.24,13.2c-0.326,1.235-0.383,2.896-1.439,3.84c-0.301-0.1-0.49-0.311-0.48-0.72
	c1.064-7.977,3.671-14.409,8.88-18.24c5.997-2.083,12.175-3.986,16.801-7.44c-0.428-1.013-1.532-1.348-1.92-2.398
	c-1.287-0.233-2.683-0.358-2.641-1.92c-1.094-0.294-0.94,0.657-1.92,0.479c-0.298-0.502-0.698-0.901-1.2-1.2
	c0.665-1.025-0.104-2.221,0.24-3.6c0.623-2.501,3.101-3.88,0.24-5.521c-2.115,0.125-3.869,0.61-6.24,0.479
	c-2.296,0.069-4.071-0.284-6.96-0.24c-0.878,0.053-0.921,0.33-1.68,0c0-0.08,0-0.159,0-0.239c-0.897,0.318-1.659-0.716-2.16,0
	c-2.357-0.05-4.473-1.216-6.48-0.239c-1.658-1.302-2.601-3.318-3.6-5.28c0.307-1.533,1.444-2.236,1.44-4.08
	c2.019-0.969,4.729,1.042,7.199-0.479c-0.041-0.521,0.853-0.109,1.2-0.24c0.709,0.368,0.705-0.041,1.92,0c0.8,0,1.601,0,2.4,0
	c0.96,0,1.92,0,2.88,0c0.4,0,0.8,0,1.2,0c2.335,0.465,5.476,0.124,7.68,0.72c1.861-0.059,1.882-1.958,3.84-1.92
	c1.16-2.098-1.062-1.887-2.399-2.64c-1.775-0.999-2.245-1.774-2.641-4.08c0.018-2.385,1.865-2.937,3.12-4.08
	c-0.096-2.225-2.104-2.535-1.92-5.04c-0.208-2.038-0.376-3.659,0-5.76c0.218-0.502,0.708-0.731,1.44-0.721
	c1.521-0.157,3.676,0.316,4.8-0.239c1.84,0.239,2.241-0.96,2.4-2.4c-2.518-1.243-5.87-1.65-8.16-3.12
	c-0.643-0.318-1.192-0.728-1.92-0.96c-2.386-0.429-1.06-3.568-0.24-4.8c1.056,0.704,2.613,0.906,3.6,1.68
	c0.536,0.664,1.883,0.518,2.88,0.72c1.954,0.188,3.232,0.281,5.761,0.24C71.536,38.883,72.854,36.76,72.819,33.286z M65.619,84.647
	c0.934,0.365,2.113-1.081,3.12-1.44c-1.081,2.455,1.959,1.315,3.12,2.4c0.527-0.272,0.797-0.804,1.44-0.96c0.079,0,0.159,0,0.239,0
	c0.558,0.076,0.922-0.039,1.2-0.24c-0.48-0.939-0.743-2.105,0.48-2.399c-0.009-1.031-1.275-0.806-0.96-2.159c0-0.08,0-0.16,0-0.24
	c-0.237-0.957,0.717-0.724,0.479-1.681c-0.964-0.476-1.355-1.523-2.399-1.92c0-0.08,0-0.159,0-0.239
	c0.026-1.377-0.471-0.669-1.2-0.48c-1.226-0.455-1.367-1.993-2.88-2.16c-0.475,0.167,0.059,1.34-0.48,1.44
	c-1.434-0.686-4.722-2.015-5.76,0.24c2.25,0.55,3.801,1.799,5.28,3.119c0.133,1.48,0.62,1.869,0,3.119
	c-1.301,1.63-3.615,1.939-5.04,2.881c0.724,0.822,2.484,1.088,3.119,0.721C65.459,84.647,65.539,84.647,65.619,84.647z
	 M105.699,35.687c-0.187-0.054-0.279-0.201-0.24-0.48c-9.695-3.277-20.205-6.072-30.72-6c-0.916,2.617-0.934,7.37-1.439,9.601
	c5.125,1.326,9.382,1.365,15.359,1.439c1.445-0.875,0.811-3.831,1.681-5.28c5.679,0.843,9.01,3.279,14.881,4.801
	C105.593,38.719,106.405,37.035,105.699,35.687z M82.42,41.206c-4.028-0.253-7.497-0.7-10.32-1.439
	c0.479,3.193-2.773,2.785-5.04,2.64c-3.049-0.196-6.784-1.585-8.4-2.64c-0.162,0.764-0.836,1.868-0.479,2.399
	c12.134,7.578,32.589,2.128,45.84,8.641c0.188-3.743,1.642-6.162,2.398-9.841c-4.954,0.253-9.694-4.706-15.358-4.56
	C91.513,42.212,87.29,41.513,82.42,41.206z M73.779,47.446c-1.646-0.153-2.247,0.139-3.6-0.24c-0.337,0.462-0.635,0.966-0.721,1.68
	c-0.08,0-0.159,0-0.239,0c0,0.24,0,0.48,0,0.721c0.397,0.401,1.409,0.19,2.159,0.239c0.241,0.319,0.228,0.894,0.721,0.961
	c0.08,0,0.16,0,0.24,0c0,0.079,0,0.159,0,0.239c1.938-0.146,3.128-1.758,5.039-1.2c0.478,0.4,0.306-0.021,0.961,0
	c0.859,0.27,2.842,0.396,3.359,0.24c0.35,0.371,1.229,0.211,1.92,0.24c0.74,0.54,2.104,0.458,3.12,0.72
	c0.284,0.276,0.85,0.271,1.44,0.24c0.849,0.431,2.083,0.477,2.88,0.96c0,0.32,0,0.64,0,0.96c0.398,0,0.8,0,1.2,0
	c1.162,0.489,1.639,0.292,2.88,0.48c0.479,0,0.96,0,1.438,0c-0.215-1.097,0.399-1.36,0.48-2.16c0.536-0.104,0.097-1.184,0.24-1.681
	c-1.653-0.238-2.055-0.778-3.602-0.72c-1.035-0.245-1.938-0.621-3.359-0.479c-2.144-0.578-4.676-0.766-7.439-0.721
	c-0.08,0-0.16,0-0.24,0c-1.44-0.282-4.629-0.398-5.04-0.239c-0.08,0-0.16,0-0.239,0C76.653,47.132,74.903,47.603,73.779,47.446z
	 M70.18,50.566c-3.266,0.243-5.626-0.232-9.601,0.72c0.203,1.637-0.473,4.153,0.48,5.04c0.008-2.088-0.267-2.914,0-4.56
	c3.592-0.52,6.799-0.274,10.08-0.24c0.895,1.812,0.633,3.761,0.239,6c0.955-0.175,0.966-0.175,1.921,0
	c0.386,2.653,2.313,3.766,3.6,5.52c7.242,3.542,11.785-2.37,13.92-7.2c1.448-0.271,3.991,1.239,5.521-0.239
	c-0.625-1.958-4.557-1.266-6-1.681c0.006-0.564-0.413-0.707-0.239-1.439c-2.909-0.399-7.026-1.401-10.8-1.68
	c-1.518-0.112-3.668-0.557-4.561,0.72c5.139,0.603,10.702,0.507,14.4,2.16c0.252,11.034-13.981,12.497-15.12,2.159
	c-0.16-1.448,0.308-2.22,0.24-3.84C71.977,52.449,71.474,51.112,70.18,50.566z M62.499,57.286c1.741-1.379,2.91-3.329,4.561-4.8
	C64.606,53.153,63.574,55.241,62.499,57.286z M68.26,53.688c0.412-0.31,0.943-0.497,0.96-1.2c-1.202-0.162-1.439,0.641-1.92,1.2
	c-1.063,0.294-5.353,5.146-3.12,5.76C65.168,57.155,66.555,55.262,68.26,53.688z M78.34,53.688c0.633,0.072,0.618-0.501,0.72-0.96
	c-1.976,0.427-3.602,2.477-3.36,4.319c0.015,0.146,0.036,0.284,0.24,0.24C76.356,55.703,77.714,55.062,78.34,53.688z M81.699,56.807
	c0.884-1.036,2.019-1.822,2.641-3.12c-2.752,0.848-3.677,3.522-5.521,5.279c0,0.16,0,0.32,0,0.48
	c-0.574,0.306-0.977,0.783-0.96,1.68c0.319-0.035,0.893,0.808,0.96,0.24c0.745-0.294,1.053-1.026,1.2-1.92
	c0.862-0.498,1.118-1.603,1.68-2.4C81.699,56.966,81.699,56.886,81.699,56.807z M61.539,58.006
	c-0.003-0.636,0.134-1.413-0.479-1.439C61.063,57.203,60.927,57.98,61.539,58.006z M91.06,57.286c0,0.08,0,0.16,0,0.24
	c-3.797,8.965-14.362,10.626-18.48,1.2c-0.882,0.638-1.603,1.437-2.64,1.92c-0.08,0-0.16,0-0.24,0
	c-1.339,0.704-3.913,0.438-5.52,1.439c-1.746,0.334-3.26,0.9-3.84,2.4c-1.243,1.292-0.563,3.429,0.96,4.32c0.079,0,0.159,0,0.239,0
	c0.811,1.302,3.938,1.461,5.761,0.96c0.079,0,0.159,0,0.239,0c2.875-0.325,5.566-0.834,6.24-3.36c0.031-0.911-1.086-0.673-1.2-1.44
	c2.607,0.389,3.882,3.659,6,5.28c0.797-1.047,2.979-1.3,3.12,0.48c2.618-1.021,2.995,3.347,5.521,2.398c0-0.08,0-0.159,0-0.239
	c0.421-0.391,1.344-1.521,0.72-2.159c0-0.16,0-0.32,0-0.48c0.277-0.763,1.563-0.515,1.68-1.439c0-0.08,0-0.16,0-0.24
	c0.751-1.97,1.729-3.712,1.682-6.48c0.595-0.139,1.74-0.96,0.96-1.68c0-0.08,0-0.16,0-0.24c0.301-1.459,2.096-1.424,2.398-2.88
	C93.543,57.336,91.56,56.33,91.06,57.286z M103.06,61.846c0.613-1.18,0.003-3.197-0.721-3.84c-1.988,0.309-3.272,0.376-4.561,1.681
	c-0.293,0.026-0.567,0.071-0.479,0.479c-3.113,2.708-0.841,7.403-1.2,11.28c2.067-0.731,4.051-1.549,5.279-3.12
	c0.104-0.457,0.518-0.603,0.479-1.2c0.54-0.58,0.86-1.38,0.96-2.399C103.239,63.531,103.323,62.74,103.06,61.846z M40.18,80.808
	c0.319,0,0.64,0,0.96,0c0.077-0.563,0.379-0.901,0.239-1.682C40.3,78.974,39.974,80.426,40.18,80.808z M45.459,74.566
	c-1.059,1.82-3.48,2.278-4.08,4.56c0.661,0.483,0.992,1.667,0.721,2.4c-0.864,0.461-2.894-0.527-2.4,0.72
	c4.35,0.254,6.183-5.691,9.84-7.68C47.862,74.358,47.195,74.467,45.459,74.566z M52.899,74.566c0.059,0.741,0.243,1.355,0.479,1.92
	c-0.979,0.22-1.641,0.76-1.439,2.16c0.273,0.927,1.496,0.903,1.92,1.68c0.097,1.023-0.232,2.473,0.24,3.12
	c0.758,0.117,0.848-0.434,1.68-0.24c-0.202-2.852-0.106-4.057,0.96-5.76C55.566,76.509,55.115,73.672,52.899,74.566z M38.499,75.768
	c0-0.08,0-0.16,0-0.24c-0.709-0.251-0.704-1.215-1.92-0.96c-0.44,0.339,0.376,1.166-0.239,1.68c-0.16,0-0.32,0-0.48,0
	c-0.332,0.549-0.489,1.271-0.72,1.92c0.839,1.563,1.186,3.614,2.64,4.562c0.903-1.712,0.736-3.527,1.44-5.04
	C39.098,76.928,38.513,76.633,38.499,75.768z M39.699,75.046c-0.091,1.053,0.687,1.234,0.721,2.16
	c1.141-0.538,1.844-1.516,2.64-2.398C41.806,74.752,40.663,74.812,39.699,75.046z M50.02,80.566c2.229-0.896-0.503-3.911,1.92-5.28
	c-2.442,0.692-4.752,3.558-6.72,5.521c1.965,0.124,1.697-1.391,3.359-0.24c0.18-0.739-0.659-0.461-0.479-1.2
	c0.853,0.373,0.145-0.815,0.72-0.72c0.39,0.409,1.347,0.253,1.44,0.96c-0.413,0.095-0.615-0.356-0.721,0
	C49.982,79.644,49.687,80.419,50.02,80.566z M57.939,76.486c0.446,2.04-1.567,3.113-0.96,5.521c1.044-0.235,0.815-1.745,1.68-2.16
	c-0.601-0.316-0.751,0.948-0.96,0.239c0.033-0.445,0.158-0.802,0.48-0.96c2.504-0.056,3.245-1.875,4.56-3.119
	C61.334,75.162,58.856,75.494,57.939,76.486z M63.939,79.848c0.486-0.635,0.626-1.614,1.68-1.682c-0.16-0.8-0.617-1.303-1.68-1.199
	c-0.389,1.211-1.763,1.438-2.16,2.641c0.722-0.242,0.425,0.534,0.48,0.96c0.678,0.198,0.622-0.338,1.199-0.24
	c0.01-0.79-0.098-1.698,0.721-1.68C64.108,78.932,63.213,79.553,63.939,79.848z M60.34,80.808c0.427-0.134,0.996-0.124,1.199-0.48
	c-0.75,0.073,0.61-0.693-0.239-0.72C61.254,80.281,60.517,80.265,60.34,80.808z M64.659,81.526c0.068-0.744,1.948-0.916,1.2-1.681
	C65.795,80.594,64.071,80.923,64.659,81.526z M50.739,82.967c1.034,0.313,0.297-1.144,1.2-0.96c0.495,0.064,0.057,1.063,0.72,0.96
	c-0.149-0.729,0.308-2.066-0.239-2.399C52.188,81.695,50.723,81.59,50.739,82.967z M44.02,82.486c1.001-0.277,1.184,0.021,2.16,0.24
	c-0.142-0.819-1.328-0.594-1.681-1.2C44.496,82.003,43.845,81.832,44.02,82.486z M47.619,82.486c-0.255-0.011-0.608,0.113-0.24,0.24
	c0.618-0.422,1.153,0.249,1.44-0.721c-0.752-0.297-1.106,0.512-1.68-0.479C46.965,82.183,47.616,82.01,47.619,82.486z
	 M58.899,82.728c0.24,0,0.479,0,0.72,0c0.451-0.426-0.286-0.701,0.24-1.2c-0.24,0-0.48,0-0.72,0
	C59.237,82.105,58.701,82.048,58.899,82.728z M94.18,84.887c0.37-0.465,0.526-2.758-0.24-2.88c-0.462,0.737-0.03,2.369-0.72,2.88
	c-0.015,0.146-0.036,0.284-0.24,0.239c-1.399-0.199-1.228,1.175-1.2,2.4c0,0.08,0,0.16,0,0.24c-0.359,0.92-1.229,1.328-1.92,1.92
	c-0.08,0-0.16,0-0.24,0c-1.146,1.573-1.789,4.104-4.318,3.6c-1.023,2.199-1.794,5.71-5.28,3.601
	c-0.307-0.014-0.333-0.308-0.72-0.239c-0.303,0.099-0.491,0.31-0.48,0.72c-1.529,1.805-3.545-0.922-4.8-0.72
	c0.044,3.109,3.034,4.33,1.92,7.199c-0.231,0.633-0.464,2.057,0,2.641c-0.133-0.001-0.272,0.194,0,0.24
	c-0.011,1.69-0.062,3.421,0.96,4.08c0.432-0.769,1.309-1.092,1.44-2.16c0.546-0.654,0.686-1.714,0.72-2.88
	c1.118-4.884,6.603-5.397,8.88-9.12c0-0.08,0-0.16,0-0.24c1.611-1.349,2.691-3.229,3.84-5.04c0-0.08,0-0.16,0-0.24
	c1.152-1.646,1.895-3.706,2.4-6C94.18,85.046,94.18,84.967,94.18,84.887z M81.699,103.366c5.558,0.204,6.272,5.247,11.28,6
	c0.279-7.48,3.488-12.031,6.479-16.8c-1.988-1.771-2.648-4.87-3.84-7.44C93.163,93.392,87.883,98.83,81.699,103.366z"/>
<path fill="#B7935F" d="M73.3,84.647c-0.644,0.156-0.913,0.688-1.44,0.96c-1.161-1.085-4.201,0.055-3.12-2.4
	c-1.007,0.359-2.187,1.808-3.12,1.44c1.188-0.572,2.396-1.125,3.12-2.16c0.727,0.363-0.199,1.054,0,1.68
	c0.085,0.315,0.422,0.378,0.48,0.721c0.612-0.847,1.717,0.03,2.399,0.479C72.379,85.471,72.84,84.048,73.3,84.647z"/>
<path fill="#B7935F" d="M74.26,79.848c-0.315,1.354,0.951,1.128,0.96,2.159c-1.224,0.294-0.961,1.46-0.48,2.399
	c-0.278,0.201-0.644,0.316-1.2,0.24c1.828-0.107-0.622-2.319,1.44-2.641c-0.193-0.848-1.318-0.763-0.96-2.16
	C74.1,79.848,74.18,79.848,74.26,79.848z"/>
<path fill="#B7935F" d="M72.34,76.007c1.043,0.396,1.436,1.444,2.399,1.92c0.237,0.957-0.717,0.724-0.479,1.681
	c-0.425,0.076-0.429-1.346,0.239-0.96c-0.284-1.235-1.386-1.654-2.159-2.4C72.34,76.166,72.34,76.086,72.34,76.007z"/>
<path fill="#DAD5D5" d="M36.34,76.246c0.615-0.514-0.201-1.341,0.239-1.68c1.216-0.255,1.21,0.709,1.92,0.96c0,0.08,0,0.16,0,0.24
	c-0.622-0.26-0.892-0.868-1.68-0.96C36.401,74.785,37.309,76.269,36.34,76.246z"/>
<path fill="#DAD5D5" d="M35.14,78.166c0.08,0,0.16,0,0.239,0c0.222,0.899,0.979,1.263,1.2,2.16c-0.023,1.064,0.285,1.796,1.2,1.92
	c0.046-1.002,0.885-2.464,0.72-2.88c0-0.399,0-0.8,0-1.2c0.344-0.058,0.405-0.395,0.721-0.479c-0.704,1.513-0.537,3.328-1.44,5.04
	C36.325,81.78,35.979,79.729,35.14,78.166z"/>
<path fill="#DAD5D5" d="M36.34,76.246c0.969,0.021,0.063-1.461,0.479-1.438c0.788,0.092,1.058,0.7,1.68,0.96
	c0.015,0.865,0.6,1.16,0.721,1.92c-0.315,0.085-0.377,0.422-0.721,0.479c-0.006-0.563,0.038-3.011-1.439-2.88
	c-0.257,1.263-1.325,1.716-1.681,2.88c-0.079,0-0.159,0-0.239,0c0.23-0.647,0.388-1.371,0.72-1.92
	C36.02,76.246,36.18,76.246,36.34,76.246z"/>
<path fill="#422F21" d="M49.539,79.607c0.105-0.356,0.308,0.095,0.721,0c-0.094-0.707-1.051-0.551-1.44-0.96
	c-0.575-0.097,0.133,1.093-0.72,0.72c-0.18,0.739,0.659,0.461,0.479,1.2c-1.662-1.149-1.395,0.364-3.359,0.24
	c1.968-1.964,4.277-4.828,6.72-5.521c-2.424,1.369,0.309,4.384-1.92,5.28C49.687,80.419,49.982,79.644,49.539,79.607z"/>
<path fill="#DAD5D5" d="M38.499,79.366c0.165,0.416-0.674,1.878-0.72,2.88c-0.916-0.124-1.224-0.854-1.2-1.92
	c0.398,0.322,0.181,1.26,0.96,1.2C37.825,80.773,37.955,79.862,38.499,79.366z"/>
<path fill="#21201D" d="M43.539,78.887c0.65,0.218-0.548,0.536-0.479,0.961c-0.559-0.36-0.366-0.588-0.24-1.2
	c0.408-0.088,0.453,0.188,0.48,0.479C43.504,79.171,43.525,79.033,43.539,78.887z"/>
<path fill="#422F21" d="M65.859,79.848c0.748,0.764-1.132,0.936-1.2,1.68C64.071,80.923,65.795,80.594,65.859,79.848z"/>
<path fill="#422F21" d="M47.14,81.526c0.573,0.991,0.928,0.184,1.68,0.479c-0.287,0.97-0.822,0.3-1.44,0.721
	c-0.369-0.127-0.016-0.251,0.24-0.24C47.616,82.01,46.965,82.183,47.14,81.526z"/>
<path fill="#B7935F" d="M94.18,84.887c0-0.239,0-0.479,0-0.721c-0.771-0.211-0.329,0.791-0.96,0.721
	c0.688-0.511,0.258-2.143,0.72-2.88C94.707,82.129,94.55,84.422,94.18,84.887z"/>
<path fill="#B7935F" d="M91.779,87.526c-0.025-1.227-0.199-2.601,1.2-2.4c-0.965,0.155-1.106,1.134-0.96,2.4
	C91.939,87.526,91.859,87.526,91.779,87.526z"/>
<path fill="#B7935F" d="M89.859,89.688c0.689-0.592,1.561-1,1.92-1.92C91.953,88.271,90.928,89.628,89.859,89.688z"/>
<path fill="#B7935F" d="M89.619,89.688c-0.655,1.997-1.893,4.101-4.08,3.84c-1.033,1.503-1.403,4.587-3.84,4.319
	c-0.184-0.021-1.632-0.739-1.68-0.96c3.486,2.109,4.257-1.4,5.28-3.601C87.83,93.79,88.473,91.261,89.619,89.688z"/>
<path fill="#B7935F" d="M75.939,103.848c1.114-2.87-1.875-4.091-1.92-7.2c1.255-0.202,3.271,2.523,4.8,0.72
	c-0.95,1.91-3.238,0.249-4.32-0.479c-0.582,1.705,1.123,3.193,1.921,4.319C76.521,102.348,76.07,102.938,75.939,103.848z"/>
<path fill="#B7935F" d="M75.939,106.486c0.416,1.185,0.179,3.021,0.72,4.08c0.668-0.532,1.063-1.337,1.681-1.92
	c-0.132,1.068-1.009,1.393-1.44,2.16c-1.021-0.659-0.971-2.39-0.96-4.08C75.667,106.682,75.807,106.485,75.939,106.486z"/>
<path fill="#B7935F" d="M79.06,105.768c-0.034,1.166-0.173,2.226-0.72,2.88c-0.617,0.583-1.013,1.388-1.681,1.92
	c-0.541-1.06-0.304-2.896-0.72-4.08c-0.464-0.584-0.231-2.008,0-2.641c0.131-0.908,0.581-1.5,0.48-2.641
	c-0.798-1.126-2.502-2.614-1.921-4.319c1.082,0.729,3.37,2.391,4.32,0.479c-0.011-0.41,0.178-0.621,0.48-0.72
	c0.388-0.067,0.413,0.227,0.72,0.239c0.048,0.221,1.496,0.939,1.68,0.96c2.437,0.268,2.807-2.816,3.84-4.319
	c2.188,0.261,3.425-1.843,4.08-3.84c0.08,0,0.16,0,0.24,0c1.068-0.06,2.094-1.417,1.92-1.92c0-0.08,0-0.16,0-0.24
	c0.08,0,0.16,0,0.24,0c-0.146-1.268-0.005-2.245,0.96-2.4c0.204,0.045,0.227-0.093,0.24-0.239c0.631,0.07,0.188-0.932,0.96-0.721
	c0,0.24,0,0.48,0,0.721c0,0.08,0,0.159,0,0.239c-0.838,1.963-1.492,4.108-2.4,6c0,0.08,0,0.16,0,0.24
	c-1.363,1.598-2.525,3.394-3.84,5.04c0,0.08,0,0.16,0,0.24C85.327,100.034,79.899,100.607,79.06,105.768z"/>
<path fill="#B7935F" d="M87.939,96.647c-2.277,3.723-7.762,4.236-8.88,9.12C79.899,100.607,85.327,100.034,87.939,96.647z"/>
<path fill="#B7935F" d="M87.939,96.406c1.313-1.646,2.477-3.442,3.84-5.04C90.631,93.178,89.551,95.059,87.939,96.406z"/>
<path fill="#B7935F" d="M94.18,85.126c-0.507,2.294-1.248,4.354-2.4,6C92.688,89.234,93.342,87.089,94.18,85.126z"/>
<path fill="#21201D" d="M99.699,32.566c1.466,0.134,2.576,0.624,3.84,0.96C101.958,33.508,100.573,33.292,99.699,32.566z"/>
<path fill="#A6A6A6" d="M76.42,33.046c0.102,0.501-0.166,0.636-0.24,0.96c-0.08,0-0.16,0-0.24,0
	C75.28,34.779,76.291,31.487,76.42,33.046z"/>
<path fill="#B7935F" d="M103.06,61.846c0.264,0.895,0.18,1.686-0.24,2.881c-0.444,0.676-0.659,1.581-0.96,2.399
	c0.037,0.598-0.377,0.743-0.48,1.2c-1.687,0.873-2.743,2.376-5.039,2.641c0.3-2.398-0.136-3.546-0.721-5.521
	c1.037-0.953,0.485-1.303,0.24-2.88c0.583-0.697,1.02-1.54,1.44-2.4c-0.089-0.408,0.187-0.453,0.479-0.479
	c1.306-0.697,2.284-1.064,4.56-1.44C103.068,59.083,102.993,61.019,103.06,61.846z M100.659,61.127c0.08,0,0.16,0,0.24,0
	c0.265-0.615,1.382-0.378,1.2-1.439c-2.612-0.033-4.588,2.599-5.04,5.52c1.637-0.204,1.081-2.6,2.88-2.64
	c0.075,0.324,0.342,0.458,0.24,0.96c-0.085,0.964,0.004,1.756,0.72,1.92c0.265-0.728,0.455-2.431,0-3.12
	C100.698,62.048,100.583,61.684,100.659,61.127z"/>
<path fill="#21201D" d="M54.579,73.607c1.997,0.004,4.016-0.016,5.28,0.72c-2.204-0.596-5.345-0.255-7.68-0.72
	C52.979,73.607,53.779,73.607,54.579,73.607z"/>
<path fill="#B7935F" d="M67.3,81.046c0.62-1.25,0.133-1.639,0-3.119c-0.929-1.873-3.125-2.475-5.04-3.359
	c2.095-1.91,5.259,0.417,7.199,0.96c0.041-0.359-0.086-0.886,0.24-0.96c0.723,0.978,1.981,0.604,2.641,1.2c0,0.079,0,0.159,0,0.239
	c0,0.079,0,0.159,0,0.239c0.773,0.746,1.875,1.165,2.159,2.4c-0.668-0.386-0.664,1.036-0.239,0.96c0,0.08,0,0.16,0,0.239
	c-0.08,0-0.16,0-0.24,0c-0.358,1.397,0.767,1.313,0.96,2.16c-2.063,0.32,0.388,2.532-1.44,2.641c-0.08,0-0.16,0-0.239,0
	c-0.46-0.6-0.921,0.823-1.681,0.72c-0.683-0.449-1.787-1.326-2.399-0.479c-0.059-0.343-0.396-0.404-0.48-0.721
	c-0.199-0.626,0.727-1.315,0-1.68c-0.725,1.035-1.932,1.588-3.12,2.16c-0.08,0-0.16,0-0.24,0c-0.24-0.531-2.34,0.485-2.64-0.96
	C64.868,83.416,66.303,82.45,67.3,81.046z"/>
<path fill="#21201D" d="M61.3,50.087c1.079-0.444,4.069-0.244,4.8-0.24C64.976,50.403,62.821,49.929,61.3,50.087z"/>
<path fill="#21201D" d="M55.06,76.728c1.413,1.345-0.575,3.333-1.92,1.92C52.86,77.088,53.624,76.571,55.06,76.728z"/>
<path fill="#544929" d="M62.036,215.357c5.871,1.521,9.202,3.959,14.881,4.801c0.87-1.449,0.234-4.406,1.681-5.281
	c5.978,0.074,10.234,0.113,15.359,1.441c-0.506,2.23-0.523,6.982-1.439,9.6c-10.516,0.072-21.023-2.723-30.72-6
	c0.038-0.279-0.055-0.428-0.24-0.48C60.851,218.09,61.663,216.404,62.036,215.357z M92.036,223.518
	c0.298-1.273,1.038-3.211,0.48-4.561c-2.316-0.494-3.993-0.156-6.24-0.721c-0.069,1.73-1.13,3.496-0.24,4.801
	C88.39,223.545,90.548,223.838,92.036,223.518z"/>
<path fill="#21201D" d="M86.036,223.037c-0.891-1.305,0.17-3.07,0.24-4.801c2.247,0.564,3.924,0.227,6.24,0.721
	c0.558,1.35-0.183,3.287-0.48,4.561C90.548,223.838,88.39,223.545,86.036,223.037z M90.836,222.078c-0.408,2.367,2.536-2.592,0-2.4
	c-0.174,0.734,0.414,0.707,0.24,1.439C91.002,221.441,90.734,221.576,90.836,222.078z M89.156,220.158
	c-0.799,0.063-0.953,1.568-0.479,2.16C90.338,222.803,90.625,220.1,89.156,220.158z M86.996,220.158
	c-0.421,0.283-0.443,2.188,0.24,2.16c-0.139-0.779,0.164-1.117,0.24-1.68c0.141-0.5,0.504-0.775,0.72-1.201
	c-0.278-0.201-0.644-0.316-1.2-0.24C87.019,219.852,86.597,219.682,86.996,220.158z"/>
<path fill="#BF972E" d="M88.677,222.078c-0.114-0.994-0.001-1.762,0.96-1.68C90.188,221.068,89.769,222.307,88.677,222.078z"/>
<path fill="#544929" d="M76.196,218.719c-5.664,0.145-10.404-4.814-15.358-4.561c0.758-3.678,2.212-6.098,2.398-9.84
	c13.251,6.51,33.706,1.061,45.84,8.639c0.356,0.533-0.317,1.637-0.479,2.4c-1.616-1.055-5.352-2.443-8.4-2.639
	c-2.267-0.146-5.519-0.555-5.04,2.639c-2.824-0.74-6.292-1.188-10.32-1.439C79.966,213.611,75.743,212.912,76.196,218.719z"/>
<path fill="#B7935F" d="M93.477,207.678c-1.125-0.154-2.874,0.314-3.6-0.24c1.691,0.043,2.182-0.174,3.6,0
	C93.477,207.518,93.477,207.598,93.477,207.678z"/>
<path fill="#B7935F" d="M89.637,207.438c-0.411,0.158-3.6,0.043-5.04-0.24C85.557,207.043,88.383,207.086,89.637,207.438z"/>
<path fill="#355D81" d="M92.996,203.117c-0.067-1.619,0.4-2.391,0.24-3.84c-1.139-10.336-15.372-8.875-15.12,2.16
	c3.698,1.654,9.261,1.559,14.4,2.16c-0.893,1.275-3.043,0.834-4.561,0.721c-3.773-0.279-7.891-1.281-10.8-1.68
	c0.174-0.734-0.245-0.875-0.238-1.441c-1.444-0.414-5.375,0.277-6-1.68c1.527-1.479,4.07,0.033,5.52-0.24
	c2.135-4.83,6.678-10.742,13.92-7.199c1.287,1.754,3.214,2.865,3.6,5.52c0.955,0.176,0.966,0.176,1.92,0
	c-0.393,2.238-0.653,4.188,0.24,6c3.281,0.035,6.488,0.279,10.08-0.24c0.267-1.646-0.008-2.471,0-4.559
	c0.953,0.887,0.277,3.402,0.48,5.039c-3.975,0.951-6.335,0.477-9.601,0.721C95.782,204.012,95.279,202.676,92.996,203.117z"/>
<path fill="#355D81" d="M106.196,198.559c-0.613-0.027-0.477-0.805-0.479-1.441C106.329,197.145,106.192,197.92,106.196,198.559z"/>
<path fill="#A6A6A6" d="M87.236,196.639c-0.434-0.412,0.074-0.945,0.72-0.961C87.855,196.137,87.869,196.711,87.236,196.639z"/>
<path fill="#21201D" d="M67.316,192.559c-0.001,0.24,0.194,0.285,0.24,0.479c0.901-0.617,1.5-1.539,1.92-2.639
	c0.554,1.736-1.778,4.576-4.08,5.039c-0.076-0.955,1.11-0.65,1.2-1.439c0.076-0.557-0.039-0.922-0.24-1.199
	c0.443-0.02-0.683-2.66,0.479-2.641c0.139,0.422-0.289,1.41,0.239,1.439C66.975,192.1,67.241,192.232,67.316,192.559z"/>
<path fill="#B7935F" d="M97.797,181.037c0.188-0.551,1.485-0.232,1.199,0.48C98.519,182.018,98.156,181.342,97.797,181.037z"/>
<path fill="#422F21" d="M117.717,180.559c3.657-1.988,5.49-7.936,9.84-7.682c0.493,1.248-1.536,0.26-2.4,0.721
	c-0.271,0.732,0.06,1.918,0.721,2.4c-0.6,2.279-3.021,2.738-4.08,4.561C120.061,180.656,119.394,180.766,117.717,180.559z
	 M123.956,175.998c0.027,0.291,0.072,0.566,0.48,0.479c0.126-0.613,0.318-0.84-0.24-1.199c0.068,0.424-1.13,0.742-0.479,0.959
	C123.73,176.092,123.752,175.953,123.956,175.998z"/>
<path fill="#BA3028" d="M110.517,177.678c1.066-1.703,1.162-2.908,0.96-5.76c0.833,0.191,0.922-0.357,1.68-0.24
	c0.473,0.646,0.144,2.098,0.24,3.121c0.424,0.773,1.646,0.752,1.92,1.68c0.201,1.398-0.46,1.939-1.439,2.16
	c0.236,0.563,0.421,1.178,0.479,1.92C112.141,181.451,111.689,178.615,110.517,177.678z M114.116,176.477
	c-1.345-1.412-3.333,0.576-1.92,1.92C113.632,178.553,114.396,178.035,114.116,176.477z"/>
<path fill="#422F21" d="M124.196,180.316c0.796-0.883,1.499-1.861,2.64-2.398c0.034,0.926,0.812,1.107,0.721,2.16
	C126.593,180.313,125.45,180.371,124.196,180.316z"/>
<path fill="#DAD5D5" d="M131.877,176.957c-0.355,1.164-1.423,1.617-1.681,2.881c-1.478,0.131-1.434-2.314-1.439-2.881
	c0-0.398,0-0.801,0-1.199c0.544-0.496,0.673-1.406,0.96-2.16c0.779-0.061,0.562,0.879,0.96,1.201
	C130.898,175.695,131.655,176.059,131.877,176.957z"/>
<path fill="#422F21" d="M104.517,179.117c1.314-1.244,2.056-3.063,4.56-3.119c0.322-0.158,0.447-0.514,0.48-0.961
	c-0.209-0.709-0.359,0.559-0.96,0.24c0.864-0.416,0.636-1.924,1.68-2.16c0.607,2.406-1.406,3.48-0.96,5.521
	C108.399,179.629,105.922,179.961,104.517,179.117z"/>
<path fill="#422F21" d="M103.076,176.477c0.818,0.02,0.71-0.891,0.721-1.68c0.578,0.098,0.521-0.438,1.199-0.24
	c0.056,0.426-0.241,1.203,0.48,0.961c-0.397,1.203-1.771,1.428-2.16,2.639c-1.063,0.105-1.52-0.398-1.68-1.199
	c1.054-0.064,1.193-1.047,1.68-1.68C104.043,175.57,103.147,176.193,103.076,176.477z"/>
<path fill="#422F21" d="M125.877,175.998c-0.14-0.779,0.163-1.117,0.239-1.682c0.32,0,0.641,0,0.96,0
	C127.282,174.697,126.956,176.15,125.877,175.998z"/>
<path fill="#422F21" d="M105.956,175.518c-0.85-0.027,0.511-0.793-0.239-0.721c0.203-0.355,0.771-0.348,1.199-0.48
	C106.739,174.859,106.002,174.844,105.956,175.518z"/>
<path fill="#422F21" d="M114.836,174.559c-0.547-0.334-0.089-1.672-0.239-2.4c0.663-0.104,0.225,0.896,0.72,0.959
	c0.903,0.186,0.166-1.271,1.2-0.959C116.533,173.533,115.067,173.43,114.836,174.559z"/>
<path fill="#422F21" d="M122.757,173.598c-0.354-0.607-1.539-0.381-1.681-1.199c0.977,0.219,1.159,0.518,2.16,0.24
	C123.411,173.291,122.76,173.121,122.757,173.598z"/>
<path fill="#422F21" d="M108.116,173.598c-0.239,0-0.479,0-0.72,0c0.526-0.498-0.21-0.775,0.24-1.199c0.24,0,0.479,0,0.72,0
	C108.555,173.076,108.019,173.02,108.116,173.598z"/>
<path fill="#21201D" d="M123.236,171.197c-0.501,0.715-1.263-0.318-2.16,0c0-0.08,0-0.16,0-0.24
	C121.827,171.008,122.839,170.795,123.236,171.197z"/>
<path fill="#544929" d="M71.637,169.998c-1.19-2.57-1.852-5.67-3.84-7.439c2.99-4.77,6.199-9.318,6.479-16.801
	c5.008,0.754,5.724,5.797,11.28,6C79.373,156.295,74.093,161.732,71.637,169.998z"/>
<path fill="#21201D" d="M51.956,151.039c-0.295-0.105-0.491-0.309-0.479-0.723c2.64-1.826,2.735-5.311,3.84-8.398
	c1.301-3.637,4.112-7.424,5.04-11.279c1.188,3.703-2.082,7.26-3.6,10.799C55.219,145.021,55.198,149.176,51.956,151.039z"/>
<path fill="#21201D" d="M115.076,147.197c0.892-2.287,1.252-4.574,1.92-6.959c0.3-1.068,1.141-2.043,1.44-3.121
	c0.592-2.125-0.055-4.582,1.44-6.479c1.113,0.447,0.565,2.125,0.479,2.879c-0.522,4.563-2.929,9.729-4.56,13.682
	C115.557,147.197,115.316,147.197,115.076,147.197z"/>
<path fill="#544929" d="M124.677,131.357c0.01-0.41-0.18-0.621-0.48-0.721c-1.057,0.943-1.113,2.605-1.439,3.84
	c-1.137,4.293-2.594,10.467-6.24,13.201c-4.893,3.668-11.854,3.801-17.28,7.439c0.187-2.535,1.238-4.203,1.44-6.721
	c-2.58,0.555-4.978,3.332-7.681,4.561c2.788,0.92,3.776-1.963,6-2.4c-0.263,2.377-1.231,4.049-1.199,6.721
	c-1.413-0.053-2.132,0.59-3.12,0.961c-0.591-1.811-1.459-3.342-2.4-4.801c0.237-2.445,0.59-4.596,0.24-6.961
	c-0.16-1.08-1.001-2.057-0.96-3.119c0.063-1.654,2.042-5.084,2.399-7.439c0.275-1.814,0.342-3.549-0.239-5.279
	c-1.42,0.725-0.629,2.432-0.721,3.359c-0.234,2.391-0.736,5.346-1.68,7.439c-0.868,1.928-3.006,2.99-3.84,4.801
	c-0.732,1.588-0.288,3.543-1.2,5.039c-5.389-0.521-7.063-6.213-12.72-7.199c-1.346,1.482-0.853,4.225-1.2,6.479
	c-0.643,4.154-2.932,7.615-4.8,10.32c-5.672-5.404-15.937-7.127-22.8-12c-2.456-5.383-3.214-12.348-4.562-18.24
	c0.204,0.045,0.228-0.094,0.24-0.24c28,0,56,0,84,0c0.003,0.479,0.655,0.307,0.479,0.961
	C124.836,131.357,124.757,131.357,124.677,131.357z M115.797,147.197c1.631-3.951,4.037-9.119,4.56-13.68
	c0.086-0.754,0.634-2.434-0.479-2.881c-1.495,1.898-0.849,4.355-1.44,6.48c-0.3,1.078-1.141,2.051-1.44,3.119
	c-0.667,2.385-1.028,4.674-1.92,6.961C115.316,147.197,115.557,147.197,115.797,147.197z M56.757,141.438
	c1.518-3.539,4.786-7.098,3.6-10.801c-0.928,3.857-3.739,7.645-5.04,11.281c-1.104,3.088-1.2,6.572-3.84,8.398
	c-0.013,0.412,0.185,0.615,0.479,0.721C55.198,149.176,55.219,145.021,56.757,141.438z"/>
<path fill="#21201D" d="M94.437,221.838c-0.275,2.047-0.167,5.75-2.4,5.039C94.513,226.873,93.454,223.334,94.437,221.838z"/>
<path fill="#21201D" d="M131.877,180.799c-1.94,1.518-4.25-0.547-7.2,0.479C127.148,179.756,129.857,181.766,131.877,180.799z"/>
<path fill="#A6A6A6" d="M91.076,221.117c0.174-0.732-0.414-0.705-0.24-1.439c2.536-0.191-0.408,4.768,0,2.4
	c0.129,1.561,1.14-1.732,0.48-0.961C91.236,221.117,91.156,221.117,91.076,221.117z"/>
<path fill="#BF972E" d="M88.677,222.318c-0.474-0.592-0.319-2.098,0.479-2.16C90.625,220.1,90.338,222.803,88.677,222.318z
	 M89.637,220.398c-0.961-0.082-1.074,0.686-0.96,1.68C89.769,222.307,90.188,221.068,89.637,220.398z"/>
<path fill="#A6A6A6" d="M86.996,220.158c-0.399-0.477,0.021-0.305,0-0.961c0.558-0.076,0.921,0.039,1.2,0.24
	c-0.216,0.424-0.58,0.701-0.72,1.201C87.068,220.727,87.023,220.451,86.996,220.158z"/>
<path fill="#A6A6A6" d="M87.477,220.639c-0.077,0.563-0.379,0.9-0.24,1.68c-0.684,0.027-0.661-1.877-0.24-2.16
	C87.023,220.451,87.068,220.727,87.477,220.639z"/>
<path fill="#B7935F" d="M97.797,206.238c-0.086,0.713-0.383,1.217-0.721,1.68c-1.354-0.379-1.954-0.088-3.6-0.24
	c0-0.08,0-0.16,0-0.24c-1.418-0.174-1.908,0.043-3.6,0c-0.08,0-0.16,0-0.24,0c-1.254-0.35-4.08-0.395-5.04-0.24
	c-0.08,0-0.16,0-0.24,0c-2.603-0.414-4.449-0.463-7.439-0.719c-1.421,0.141-2.324-0.236-3.359-0.48
	c-1.138-0.52-1.962-0.406-3.36-0.961c0-0.479,0-0.959,0-1.439c0.081-0.799,0.695-1.064,0.48-2.16c0.479,0,0.96,0,1.438,0
	c1.033,0.535,1.341,0.377,2.88,0.48c0.4,0,0.802,0,1.2,0c0,0.32,0,0.641,0,0.959c0.476,0.807,1.659,0.902,2.88,0.961
	c0.592-0.031,1.156-0.037,1.44,0.24c0.692,0.586,2.026,0.531,3.12,0.721c0.69,0.027,1.57-0.133,1.92,0.238
	c0.67,0.379,3.002,0.348,3.359,0.24c0.655,0.021,0.483-0.4,0.961,0c1.508,1.084,3.243-0.836,5.039-0.959c0.08,0,0.16,0,0.24,0
	C94.86,206.133,97.764,204.75,97.797,206.238z"/>
<path fill="#21201D" d="M97.797,206.238c-0.033-1.488-2.937-0.104-2.641-1.92c0.493,0.066,0.479,0.641,0.721,0.959
	c0.75,0.049,1.762-0.162,2.159,0.24c0,0.24,0,0.48,0,0.721C97.956,206.238,97.877,206.238,97.797,206.238z"/>
<path fill="#B7935F" d="M94.916,204.318c-1.796,0.123-3.531,2.043-5.039,0.959c1.911,0.559,3.102-1.053,5.039-1.199
	C94.916,204.158,94.916,204.238,94.916,204.318z"/>
<path fill="#B7935F" d="M88.916,205.277c-0.356,0.107-2.688,0.139-3.359-0.24C86.074,204.883,88.057,205.01,88.916,205.277z"/>
<path fill="#B7935F" d="M83.637,204.799c-1.094-0.189-2.428-0.135-3.12-0.721C81.534,204.34,82.896,204.258,83.637,204.799z"/>
<path fill="#B7935F" d="M79.076,203.838c-1.221-0.059-2.404-0.154-2.88-0.961C76.993,203.361,78.228,203.406,79.076,203.838z"/>
<path fill="#B7935F" d="M74.996,201.916c-1.539-0.102-1.847,0.055-2.88-0.479C73.357,201.625,73.834,201.43,74.996,201.916z"/>
<path fill="#21201D" d="M73.557,205.996c-1.547,0.061-1.947-0.48-3.602-0.719c0.145-0.498-0.296-1.578,0.24-1.68
	c0,0.479,0,0.959,0,1.439C71.595,205.592,72.418,205.479,73.557,205.996z"/>
<path fill="#21201D" d="M84.356,207.197c-2.765,0.045-5.297-0.143-7.439-0.719C79.907,206.734,81.754,206.783,84.356,207.197z"/>
<path fill="#21201D" d="M124.677,205.037c-0.953-0.6,1.353-2.791,2.159-2.4C126.196,203.518,125.351,204.191,124.677,205.037z"/>
<path fill="#A6A6A6" d="M100.196,202.639c1.649-1.473,2.819-3.422,4.561-4.801C103.682,199.883,102.649,201.971,100.196,202.639z"/>
<path fill="#A6A6A6" d="M99.956,201.438c-0.48,0.559-0.718,1.361-1.92,1.199c0.017-0.703,0.548-0.893,0.96-1.199
	c-0.07,0.49-0.648,0.471-0.72,0.959C99.334,202.574,99.26,201.621,99.956,201.438z"/>
<path fill="#A6A6A6" d="M98.996,201.438c1.705-1.576,3.092-3.469,4.08-5.76c2.231,0.611-2.057,5.465-3.12,5.76
	c-0.696,0.184-0.623,1.137-1.68,0.959C98.348,201.908,98.926,201.928,98.996,201.438z"/>
<path fill="#21201D" d="M127.557,201.197c0.567-2.049,2.835-3.736,2.16-6c-0.486-1.629-2.704-1.146-3.36-2.879
	c-0.275-3.076,1.577-4.023,2.16-6.24c-0.627-0.066-1.032,0.088-0.96,0.721c-1.46,1.26-2.82,2.619-4.08,4.078
	c-0.825,1.766,1.159,2.639,1.92,3.602c-0.546,1.613-1.505,2.814-2.4,4.08c-0.649,0.148-0.597,1.002-1.439,0.959
	c0.417-1.264,1.243-2.117,1.92-3.119c1.311-0.631,0.691-3.121-0.72-3.121c-0.367-0.496-1.114-1.406-0.48-2.16
	c2.898-2.621,5.264-5.775,7.68-8.879c0.596,2.541-0.946,4.953-1.92,6.719c-0.333,0.949-0.913,1.648-0.72,3.121
	c1.591,1.109,4.702,2.781,2.88,5.76c-0.966,1.514-1.891,3.068-3.12,4.32C126.427,201.941,127.625,201.621,127.557,201.197z"/>
<path fill="#21201D" d="M127.557,201.197c0.068,0.424-1.13,0.744-0.48,0.961c1.229-1.252,2.154-2.807,3.12-4.32
	c-0.672,1.969-1.711,3.568-3.36,4.561c-0.579-0.559,0.375-0.645,0.48-1.201C127.396,201.197,127.477,201.197,127.557,201.197z"/>
<path fill="#A6A6A6" d="M91.557,198.078c-0.778,1.223-1.521,2.479-2.641,3.359c0.626-1.373,1.983-2.018,2.4-3.6
	C91.521,197.793,91.543,197.932,91.557,198.078z"/>
<path fill="#A6A6A6" d="M91.557,198.078c0.241,1.844-1.385,3.893-3.36,4.32c0.102-0.459,0.087-1.033,0.72-0.961
	C90.035,200.557,90.778,199.301,91.557,198.078z"/>
<path fill="#21201D" d="M122.757,193.277c1.411,0,2.029,2.49,0.72,3.121c0.624-1.033,0.647-2.639-0.72-2.881
	C122.757,193.438,122.757,193.357,122.757,193.277z"/>
<path fill="#A6A6A6" d="M88.437,196.158c-1.844,1.756-2.769,4.432-5.521,5.279c0.622-1.297,1.757-2.082,2.641-3.119
	c-0.326,0.875-1.214,1.186-1.44,2.16C86.149,199.631,86.619,197.221,88.437,196.158z"/>
<path fill="#21201D" d="M88.437,193.758c0.067-0.566,0.641,0.275,0.96,0.24c0.017,0.896-0.386,1.375-0.96,1.68
	c0.213-0.508,0.729-0.709,0.72-1.439C88.98,194.014,88.721,193.873,88.437,193.758z"/>
<path fill="#A6A6A6" d="M87.236,195.678c0.147-0.895,0.455-1.625,1.2-1.92c0.284,0.115,0.544,0.256,0.72,0.48
	c0.01,0.73-0.507,0.932-0.72,1.439c0,0.16,0,0.32,0,0.48c-1.817,1.063-2.287,3.473-4.32,4.32c0.228-0.975,1.115-1.285,1.44-2.16
	c0-0.08,0-0.16,0-0.24C86.487,197.648,86.556,196.355,87.236,195.678z M87.956,195.678c-0.646,0.016-1.153,0.549-0.72,0.961
	C87.869,196.711,87.855,196.137,87.956,195.678z"/>
<path fill="#21201D" d="M87.236,195.678c-0.681,0.68-0.749,1.971-1.68,2.4C86.118,197.279,86.374,196.176,87.236,195.678z"/>
<path fill="#B7935F" d="M76.196,197.598c1.645-4.254,5.206-8.291,10.561-7.92c4.148,0.289,6.03,3.375,8.159,6.24
	c0.474-0.654,1.933-1.578,2.4-1.439c-1.037,0.482-1.758,1.281-2.64,1.92C90.559,186.971,79.993,188.633,76.196,197.598z"/>
<path fill="#B7935F" d="M103.076,193.037c-1.606,1-4.181,0.736-5.52,1.439C98.755,193.355,101.39,193.67,103.076,193.037z"/>
<path fill="#B7935F" d="M106.916,190.639c-0.58,1.5-2.094,2.064-3.84,2.398c-1.688,0.633-4.321,0.318-5.52,1.441
	c-0.08,0-0.16,0-0.24,0c-0.468-0.139-1.927,0.785-2.4,1.439c-2.129-2.865-4.011-5.951-8.159-6.24
	c-5.354-0.371-8.917,3.666-10.561,7.92c0,0.08,0,0.16,0,0.24c-0.803,0.254-2.254-0.09-3.358-0.24
	c0.642-0.957,2.214-0.986,2.158-2.641c0-0.08,0-0.158,0-0.238c1.168-2.275,2.165-5.994,2.642-8.16c0-0.08,0-0.16,0-0.24
	c0.463-0.418,1.217-0.543,1.68-0.961c0-0.16,0-0.318,0-0.479s0-0.32,0-0.48c0.011-0.949,0.528-1.391,0.72-2.16
	c0-0.08,0-0.158,0-0.238c2.72-0.236,2.74,3.496,5.28,2.641c0.383,0.496,0.521,1.238,1.2,1.439c0.708-0.172,1.486-0.273,1.92-0.721
	c0.797,0.564,2.148,0.572,1.92,2.16c2.073,1.029,2.892,3.613,5.52,2.881c-0.022-1.256-2.01-0.551-2.159-1.68
	c0.58-2.793,4.419-2.512,6-3.361c0.08,0,0.159,0,0.239,0c1.459-0.064,4.494,0.066,5.761,0.961c0.08,0,0.159,0,0.239,0
	C106.961,187.473,107.772,188.781,106.916,190.639z"/>
<path fill="#21201D" d="M106.916,190.639c0.856-1.857,0.045-3.166-0.96-4.32C107.479,187.209,108.159,189.346,106.916,190.639z"/>
<path fill="#B7935F" d="M105.717,186.318c-1.268-0.895-4.302-1.027-5.761-0.961C101.779,184.855,104.907,185.016,105.717,186.318z"
	/>
<path fill="#B7935F" d="M80.036,181.998c2.525-0.947,2.902,3.42,5.521,2.398c0.143,1.781,2.323,1.527,3.12,0.48
	c2.118,1.621,3.393,4.893,6,5.279c-0.114-0.766-1.231-0.529-1.2-1.439c0.674-2.525,3.365-3.035,6.24-3.359
	c-1.581,0.85-5.42,0.568-6,3.359c0.149,1.131,2.136,0.424,2.159,1.68c-2.628,0.732-3.446-1.852-5.52-2.879
	c0.229-1.59-1.123-1.598-1.92-2.16c-0.434,0.445-1.212,0.547-1.92,0.719c-0.679-0.201-0.817-0.941-1.2-1.439
	C82.776,185.494,82.755,181.762,80.036,181.998z"/>
<path fill="#21201D" d="M79.316,184.396c-0.624-0.639,0.299-1.77,0.72-2.16C79.845,183.006,79.327,183.447,79.316,184.396z"/>
<path fill="#21201D" d="M77.637,186.318c0.115-0.926,1.401-0.678,1.68-1.441c0,0.16,0,0.32,0,0.48
	C78.854,185.773,78.1,185.9,77.637,186.318z"/>
<path fill="#21201D" d="M74.996,194.719c-0.78-0.721,0.365-1.543,0.96-1.682c-0.047-2.768,0.931-4.51,1.682-6.479
	C77.161,188.725,76.164,192.443,74.996,194.719z"/>
<path fill="#21201D" d="M76.196,197.838c-0.5,0.955-2.482-0.049-3.6,0c0.304-1.455,2.099-1.422,2.398-2.881
	c0.056,1.654-1.518,1.684-2.159,2.641C73.942,197.748,75.394,198.092,76.196,197.838z"/>
<path fill="#B7935F" d="M64.196,193.277c0.066,0.828-0.009,2.764,0.721,3.6c2.275-0.375,3.255-0.742,4.561-1.439
	c-1.287,1.305-2.571,1.373-4.561,1.68C64.193,196.475,63.583,194.457,64.196,193.277z"/>
<path fill="#B7935F" d="M69.956,194.957c0.421-0.859,0.857-1.703,1.44-2.4c-0.245-1.576-0.797-1.928,0.24-2.879
	c-0.585-1.977-1.021-3.123-0.721-5.521c-2.296,0.264-3.354,1.768-5.039,2.641c1.229-1.57,3.211-2.389,5.278-3.119
	C70.796,187.555,73.069,192.248,69.956,194.957z"/>
<path fill="#21201D" d="M64.437,190.396c0.1-1.02,0.42-1.82,0.96-2.4C65.096,188.816,64.881,189.723,64.437,190.396z"/>
<path fill="#B7935F" d="M67.316,192.559c1.799-0.041,1.243-2.438,2.88-2.641c-0.452,2.922-2.428,5.553-5.04,5.52
	c-0.182-1.063,0.937-0.824,1.2-1.439c0.08,0,0.16,0,0.24,0c-0.09,0.789-1.276,0.484-1.2,1.439c2.302-0.463,4.634-3.303,4.08-5.039
	c-0.42,1.1-1.019,2.021-1.92,2.639C67.511,192.844,67.315,192.799,67.316,192.559z"/>
<path fill="#21201D" d="M67.076,191.598c-0.528-0.029-0.102-1.018-0.238-1.439c-1.163-0.02-0.037,2.621-0.48,2.641
	c-0.455-0.689-0.265-2.395,0-3.121C67.072,189.842,67.161,190.633,67.076,191.598z"/>
<path fill="#B7935F" d="M99.956,177.197c1.479,1.32,3.031,2.57,5.28,3.119c-1.039,2.254-4.326,0.926-5.76,0.24
	c-0.539,0.102-0.006,1.273-0.48,1.439c-1.513-0.166-1.654-1.705-2.88-2.16c-0.729,0.189-1.227,0.896-1.2-0.479
	c0.659,0.596,1.918,0.223,2.641,1.199c0.326-0.074,0.199-0.602,0.24-0.959c1.94,0.543,5.104,2.869,7.199,0.959
	C103.082,179.672,100.885,179.07,99.956,177.197z M98.996,181.518c0.286-0.713-1.012-1.031-1.199-0.48
	C98.156,181.342,98.519,182.018,98.996,181.518z"/>
<path fill="#B7935F" d="M101.877,170.477c0.635-0.367,2.396-0.104,3.119,0.721c-1.425,0.941-3.739,1.25-5.04,2.881
	c0.997-1.404,2.432-2.371,4.561-2.641C104.217,169.99,102.117,171.01,101.877,170.477z"/>
<path fill="#21201D" d="M94.437,221.838c-0.982,1.498,0.076,5.035-2.4,5.039c-1.266-0.203-2.344,0.102-4.08,0
	c-0.41-0.549-1.832-0.088-2.64-0.238c-1.976-0.186-4.178-0.145-5.76-0.721c-1.046-0.395-2.003-0.879-3.36-0.961
	c-3.636-0.043-6.11-1.248-8.64-2.398c-0.874-0.727-2.259-0.941-3.84-0.961c-4.431,0.063-2.879-4.918-4.32-7.439
	c0.934-2.746,1.763-5.598,2.64-8.4c0.399-0.809,0.399-3.271,0-4.08c-0.668-1.012-1.999-1.361-2.64-2.4
	c0.111-1.756-0.061-3.693,1.2-4.799c0.549-0.412,0.088-1.832,0.239-2.641c0.564-0.955-0.069-3.109,0.721-3.84c0.08,0,0.16,0,0.24,0
	c-0.019-0.977,0.782-1.137,0.479-2.4c-0.011-0.41,0.179-0.621,0.48-0.721c1.474,0.033,0.955-1.924,2.159-2.158
	c0.624-2.371,4.467-3.076,6.239-5.041c1.936-6.744-2.663-10.58-4.318-15.84c-2.098-1.723-4.013-3.49-6.722-4.799
	c-6.515-3.15-15.112-3.943-17.76-10.801c-0.848-2.197-1.457-5.369-1.92-8.16c-0.419-2.523-1.083-5.221-0.72-7.439
	c0.158,0,0.318,0,0.479,0c1.348,5.893,2.104,12.855,4.562,18.24c6.863,4.873,17.128,6.596,22.8,11.998
	c1.868-2.703,4.156-6.166,4.8-10.318c0.349-2.256-0.146-4.998,1.2-6.48c5.654,0.988,7.331,6.68,12.72,7.201
	c0.912-1.496,0.468-3.453,1.2-5.041c0.834-1.809,2.972-2.873,3.84-4.801c0.943-2.094,1.445-5.049,1.68-7.438
	c0.092-0.93-0.699-2.637,0.721-3.361c0.58,1.732,0.515,3.465,0.239,5.281c-0.357,2.355-2.336,5.785-2.399,7.438
	c-0.041,1.064,0.8,2.041,0.96,3.121c0.35,2.363-0.003,4.516-0.24,6.959c0.941,1.459,1.81,2.992,2.4,4.801
	c0.987-0.371,1.707-1.014,3.12-0.959c-0.032-2.674,0.937-4.344,1.199-6.721c-2.224,0.438-3.212,3.318-6,2.4
	c2.704-1.229,5.101-4.006,7.681-4.563c-0.203,2.52-1.255,4.188-1.44,6.721c5.426-3.639,12.388-3.771,17.28-7.439
	c3.646-2.734,5.104-8.908,6.24-13.199c0.326-1.236,0.383-2.896,1.439-3.84c0.301,0.1,0.49,0.311,0.48,0.719
	c-1.064,7.977-3.671,14.41-8.88,18.24c-5.997,2.084-12.175,3.986-16.801,7.441c0.428,1.012,1.532,1.348,1.92,2.398
	c1.287,0.232,2.683,0.357,2.641,1.92c1.094,0.293,0.94-0.658,1.92-0.48c0.298,0.502,0.698,0.902,1.2,1.201
	c-0.665,1.025,0.104,2.221-0.24,3.6c-0.623,2.502-3.101,3.881-0.24,5.52c2.115-0.125,3.869-0.609,6.24-0.479
	c2.296-0.068,4.071,0.283,6.96,0.24c0.878-0.053,0.921-0.33,1.68,0c0,0.08,0,0.158,0,0.238c0.897-0.318,1.659,0.717,2.16,0
	c2.357,0.051,4.473,1.217,6.48,0.24c1.658,1.301,2.601,3.318,3.6,5.281c-0.307,1.531-1.444,2.234-1.44,4.08
	c-2.019,0.969-4.729-1.043-7.199,0.479c0.041,0.521-0.853,0.109-1.2,0.24c-0.709-0.369-0.705,0.041-1.92,0c-0.8,0-1.601,0-2.4,0
	c-0.96,0-1.92,0-2.88,0c-0.4,0-0.8,0-1.2,0c-2.335-0.465-5.476-0.125-7.68-0.721c-1.861,0.059-1.882,1.957-3.84,1.92
	c-1.16,2.098,1.062,1.887,2.399,2.641c1.775,0.998,2.245,1.773,2.641,4.08c-0.018,2.383-1.865,2.936-3.12,4.08
	c0.096,2.223,2.104,2.535,1.92,5.039c0.208,2.039,0.376,3.66,0,5.76c-0.218,0.502-0.708,0.732-1.44,0.721
	c-1.521,0.156-3.676-0.316-4.8,0.24c-1.84-0.24-2.241,0.959-2.4,2.4c2.518,1.242,5.87,1.648,8.16,3.119
	c0.643,0.318,1.192,0.729,1.92,0.961c2.386,0.428,1.06,3.566,0.24,4.799c-1.056-0.703-2.613-0.906-3.6-1.68
	c-0.536-0.664-1.883-0.518-2.88-0.721c-1.954-0.188-3.232-0.281-5.761-0.24C95.72,216.24,94.402,218.363,94.437,221.838z
	 M101.637,170.477c-0.934-0.365-2.113,1.082-3.12,1.439c1.081-2.455-1.959-1.314-3.12-2.398c-0.527,0.271-0.797,0.803-1.44,0.959
	c-0.079,0-0.159,0-0.239,0c-0.558-0.076-0.922,0.039-1.2,0.24c0.48,0.939,0.743,2.105-0.48,2.398c0.009,1.033,1.275,0.807,0.96,2.16
	c0,0.08,0,0.16,0,0.24c0.237,0.957-0.717,0.723-0.479,1.68c0.964,0.477,1.355,1.525,2.399,1.92c0,0.08,0,0.16,0,0.24
	c-0.026,1.377,0.471,0.67,1.2,0.48c1.226,0.455,1.367,1.992,2.88,2.16c0.475-0.168-0.059-1.34,0.48-1.439
	c1.434,0.684,4.722,2.014,5.76-0.24c-2.25-0.551-3.801-1.799-5.28-3.121c-0.133-1.479-0.62-1.869,0-3.119
	c1.301-1.629,3.615-1.938,5.04-2.881c-0.724-0.822-2.484-1.086-3.119-0.719C101.797,170.477,101.717,170.477,101.637,170.477z
	 M61.557,219.438c0.187,0.053,0.279,0.201,0.24,0.48c9.695,3.277,20.205,6.072,30.72,6c0.916-2.617,0.934-7.369,1.439-9.6
	c-5.125-1.328-9.382-1.367-15.359-1.441c-1.445,0.875-0.811,3.832-1.681,5.281c-5.679-0.842-9.01-3.279-14.881-4.801
	C61.663,216.404,60.851,218.09,61.557,219.438z M84.836,213.918c4.028,0.252,7.497,0.699,10.32,1.439
	c-0.479-3.193,2.773-2.785,5.04-2.639c3.049,0.195,6.784,1.584,8.4,2.639c0.162-0.764,0.836-1.869,0.479-2.4
	c-12.134-7.578-32.589-2.127-45.84-8.639c-0.188,3.742-1.642,6.162-2.398,9.84c4.954-0.254,9.694,4.705,15.358,4.561
	C75.743,212.912,79.966,213.611,84.836,213.918z M93.477,207.678c1.646,0.152,2.247-0.139,3.6,0.24
	c0.337-0.463,0.635-0.967,0.721-1.68c0.08,0,0.159,0,0.239,0c0-0.24,0-0.48,0-0.721c-0.397-0.402-1.409-0.191-2.159-0.24
	c-0.241-0.318-0.228-0.893-0.721-0.959c-0.08,0-0.16,0-0.24,0c0-0.08,0-0.16,0-0.24c-1.938,0.146-3.128,1.758-5.039,1.199
	c-0.478-0.4-0.306,0.021-0.961,0c-0.859-0.268-2.842-0.395-3.359-0.24c-0.35-0.371-1.229-0.211-1.92-0.238
	c-0.74-0.541-2.104-0.459-3.12-0.721c-0.284-0.275-0.85-0.271-1.44-0.24c-0.849-0.432-2.083-0.477-2.88-0.961
	c0-0.318,0-0.639,0-0.959c-0.398,0-0.8,0-1.2,0c-1.162-0.488-1.639-0.293-2.88-0.48c-0.479,0-0.96,0-1.438,0
	c0.215,1.096-0.399,1.361-0.48,2.16c-0.536,0.104-0.097,1.184-0.24,1.68c1.653,0.24,2.055,0.779,3.602,0.721
	c1.035,0.244,1.938,0.621,3.359,0.48c2.144,0.578,4.676,0.764,7.439,0.719c0.08,0,0.16,0,0.24,0c1.44,0.283,4.629,0.4,5.04,0.24
	c0.08,0,0.16,0,0.239,0C90.603,207.992,92.353,207.521,93.477,207.678z M97.076,204.559c3.266-0.244,5.626,0.23,9.601-0.721
	c-0.203-1.637,0.473-4.152-0.48-5.039c-0.008,2.088,0.267,2.912,0,4.559c-3.592,0.52-6.799,0.275-10.08,0.24
	c-0.895-1.813-0.633-3.762-0.239-6c-0.955,0.176-0.966,0.176-1.921,0c-0.386-2.654-2.313-3.766-3.6-5.52
	c-7.242-3.543-11.785,2.369-13.92,7.199c-1.448,0.273-3.991-1.238-5.521,0.24c0.625,1.959,4.557,1.266,6,1.68
	c-0.006,0.566,0.413,0.707,0.239,1.441c2.909,0.398,7.026,1.4,10.8,1.68c1.518,0.111,3.668,0.555,4.561-0.721
	c-5.139-0.604-10.702-0.506-14.4-2.16c-0.252-11.035,13.981-12.496,15.12-2.16c0.16,1.449-0.308,2.221-0.24,3.84
	C95.279,202.676,95.782,204.012,97.076,204.559z M104.757,197.838c-1.741,1.379-2.91,3.328-4.561,4.801
	C102.649,201.971,103.682,199.883,104.757,197.838z M98.996,201.438c-0.412,0.309-0.943,0.496-0.96,1.199
	c1.202,0.162,1.439-0.641,1.92-1.199c1.063-0.295,5.353-5.148,3.12-5.76C102.088,197.969,100.701,199.861,98.996,201.438z
	 M88.916,201.438c-0.633-0.074-0.618,0.5-0.72,0.959c1.976-0.426,3.602-2.477,3.36-4.32c-0.015-0.145-0.036-0.283-0.24-0.24
	C90.899,199.42,89.542,200.063,88.916,201.438z M85.557,198.318c-0.884,1.035-2.019,1.822-2.641,3.119
	c2.752-0.848,3.677-3.523,5.521-5.279c0-0.16,0-0.32,0-0.48c0.574-0.307,0.977-0.783,0.96-1.68c-0.319,0.035-0.893-0.807-0.96-0.24
	c-0.745,0.295-1.053,1.025-1.2,1.92c-0.862,0.498-1.118,1.602-1.68,2.4C85.557,198.158,85.557,198.238,85.557,198.318z
	 M105.717,197.117c0.003,0.637-0.134,1.414,0.479,1.441C106.192,197.92,106.329,197.145,105.717,197.117z M76.196,197.838
	c0-0.08,0-0.16,0-0.24c3.797-8.965,14.362-10.625,18.48-1.199c0.882-0.639,1.603-1.438,2.64-1.92c0.08,0,0.16,0,0.24,0
	c1.339-0.705,3.913-0.439,5.52-1.441c1.746-0.334,3.26-0.898,3.84-2.398c1.243-1.293,0.563-3.43-0.96-4.32c-0.079,0-0.159,0-0.239,0
	c-0.811-1.303-3.938-1.461-5.761-0.961c-0.079,0-0.159,0-0.239,0c-2.875,0.326-5.566,0.834-6.24,3.361
	c-0.031,0.91,1.086,0.672,1.2,1.439c-2.607-0.389-3.882-3.66-6-5.281c-0.797,1.049-2.979,1.301-3.12-0.479
	c-2.618,1.02-2.995-3.348-5.521-2.4c0,0.08,0,0.16,0,0.24c-0.421,0.391-1.344,1.521-0.72,2.16c0,0.16,0,0.32,0,0.479
	c-0.277,0.764-1.563,0.516-1.68,1.441c0,0.08,0,0.16,0,0.24c-0.751,1.969-1.729,3.711-1.682,6.479
	c-0.595,0.141-1.74,0.961-0.96,1.682c0,0.08,0,0.158,0,0.238c-0.301,1.459-2.096,1.426-2.398,2.881
	C73.713,197.787,75.696,198.793,76.196,197.838z M64.196,193.277c-0.613,1.18-0.003,3.199,0.721,3.84
	c1.988-0.307,3.272-0.375,4.561-1.68c0.293-0.027,0.567-0.072,0.479-0.48c3.113-2.707,0.841-7.402,1.2-11.279
	c-2.067,0.73-4.051,1.549-5.279,3.121c-0.104,0.455-0.518,0.602-0.479,1.199c-0.54,0.58-0.86,1.379-0.96,2.4
	C64.017,191.594,63.933,192.385,64.196,193.277z M127.076,174.316c-0.319,0-0.64,0-0.96,0c-0.077,0.563-0.379,0.902-0.239,1.682
	C126.956,176.15,127.282,174.697,127.076,174.316z M121.797,180.559c1.059-1.822,3.48-2.279,4.08-4.561
	c-0.661-0.482-0.992-1.668-0.721-2.4c0.864-0.461,2.894,0.527,2.4-0.721c-4.35-0.254-6.183,5.691-9.84,7.682
	C119.394,180.766,120.061,180.656,121.797,180.559z M114.356,180.559c-0.059-0.742-0.243-1.357-0.479-1.92
	c0.979-0.221,1.641-0.762,1.439-2.16c-0.273-0.928-1.496-0.904-1.92-1.68c-0.097-1.023,0.232-2.475-0.24-3.121
	c-0.758-0.117-0.848,0.434-1.68,0.24c0.202,2.852,0.106,4.057-0.96,5.76C111.689,178.615,112.141,181.451,114.356,180.559z
	 M128.757,179.357c0,0.08,0,0.16,0,0.24c0.709,0.25,0.704,1.215,1.92,0.959c0.44-0.338-0.376-1.166,0.239-1.68c0.16,0,0.32,0,0.48,0
	c0.332-0.549,0.489-1.271,0.72-1.92c-0.839-1.563-1.186-3.613-2.64-4.561c-0.903,1.711-0.736,3.527-1.44,5.039
	C128.158,178.195,128.743,178.49,128.757,179.357z M127.557,180.078c0.091-1.053-0.687-1.234-0.721-2.16
	c-1.141,0.537-1.844,1.516-2.64,2.398C125.45,180.371,126.593,180.313,127.557,180.078z M117.236,174.559
	c-2.229,0.895,0.503,3.91-1.92,5.279c2.442-0.691,4.752-3.559,6.72-5.521c-1.965-0.123-1.697,1.391-3.359,0.24
	c-0.18,0.738,0.659,0.461,0.479,1.201c-0.853-0.373-0.145,0.814-0.72,0.719c-0.39-0.408-1.347-0.252-1.44-0.959
	c0.413-0.096,0.615,0.355,0.721,0C117.273,175.48,117.569,174.705,117.236,174.559z M109.316,178.639
	c-0.446-2.041,1.567-3.113,0.96-5.521c-1.044,0.236-0.815,1.744-1.68,2.16c0.601,0.316,0.751-0.949,0.96-0.24
	c-0.033,0.447-0.158,0.803-0.48,0.961c-2.504,0.057-3.245,1.875-4.56,3.119C105.922,179.961,108.399,179.629,109.316,178.639z
	 M103.316,175.277c-0.486,0.633-0.626,1.613-1.68,1.68c0.16,0.801,0.617,1.305,1.68,1.199c0.389-1.211,1.763-1.436,2.16-2.639
	c-0.722,0.242-0.425-0.535-0.48-0.961c-0.678-0.197-0.622,0.338-1.199,0.24c-0.01,0.789,0.098,1.697-0.721,1.68
	C103.147,176.193,104.043,175.57,103.316,175.277z M106.916,174.316c-0.427,0.133-0.996,0.125-1.199,0.48
	c0.75-0.072-0.61,0.693,0.239,0.721C106.002,174.844,106.739,174.859,106.916,174.316z M102.597,173.598
	c-0.068,0.744-1.948,0.916-1.2,1.68C101.461,174.529,103.185,174.201,102.597,173.598z M116.517,172.156
	c-1.034-0.313-0.297,1.145-1.2,0.961c-0.495-0.064-0.057-1.063-0.72-0.961c0.149,0.73-0.308,2.068,0.239,2.4
	C115.067,173.43,116.533,173.533,116.517,172.156z M123.236,172.639c-1.001,0.275-1.184-0.021-2.16-0.24
	c0.142,0.818,1.328,0.592,1.681,1.199C122.76,173.121,123.411,173.291,123.236,172.639z M119.637,172.639
	c0.255,0.01,0.608-0.113,0.24-0.24c-0.618,0.42-1.153-0.25-1.44,0.719c0.752,0.297,1.106-0.51,1.68,0.48
	C120.291,172.941,119.64,173.113,119.637,172.639z M108.356,172.396c-0.24,0-0.479,0-0.72,0c-0.451,0.426,0.286,0.701-0.24,1.201
	c0.24,0,0.48,0,0.72,0C108.019,173.02,108.555,173.076,108.356,172.396z M73.076,170.236c-0.37,0.465-0.526,2.758,0.24,2.881
	c0.462-0.738,0.03-2.369,0.72-2.881c0.015-0.145,0.036-0.283,0.24-0.238c1.399,0.199,1.228-1.176,1.2-2.4c0-0.08,0-0.16,0-0.24
	c0.359-0.92,1.229-1.328,1.92-1.92c0.08,0,0.16,0,0.24,0c1.146-1.574,1.789-4.104,4.318-3.6c1.023-2.199,1.794-5.709,5.28-3.6
	c0.307,0.014,0.333,0.307,0.72,0.238c0.303-0.098,0.491-0.309,0.48-0.719c1.529-1.805,3.545,0.922,4.8,0.719
	c-0.044-3.109-3.034-4.33-1.92-7.199c0.231-0.633,0.464-2.057,0-2.641c0.133,0.002,0.272-0.193,0-0.24
	c0.011-1.689,0.062-3.42-0.96-4.08c-0.432,0.77-1.309,1.092-1.44,2.16c-0.546,0.654-0.686,1.715-0.72,2.881
	c-1.118,4.883-6.603,5.396-8.88,9.119c0,0.08,0,0.16,0,0.24c-1.611,1.35-2.691,3.229-3.84,5.041c0,0.078,0,0.158,0,0.238
	c-1.152,1.648-1.895,3.707-2.4,6C73.076,170.078,73.076,170.156,73.076,170.236z M85.557,151.758c-5.558-0.203-6.272-5.246-11.28-6
	c-0.279,7.48-3.488,12.031-6.479,16.801c1.988,1.77,2.648,4.869,3.84,7.439C74.093,161.732,79.373,156.295,85.557,151.758z"/>
<path fill="#B7935F" d="M93.956,170.477c0.644-0.156,0.913-0.688,1.44-0.959c1.161,1.084,4.201-0.057,3.12,2.398
	c1.007-0.357,2.187-1.807,3.12-1.439c-1.188,0.572-2.396,1.125-3.12,2.16c-0.727-0.363,0.199-1.055,0-1.68
	c-0.085-0.314-0.422-0.379-0.48-0.721c-0.612,0.846-1.717-0.031-2.399-0.479C94.877,169.652,94.416,171.076,93.956,170.477z"/>
<path fill="#B7935F" d="M92.996,175.277c0.315-1.354-0.951-1.129-0.96-2.16c1.224-0.295,0.961-1.461,0.48-2.398
	c0.278-0.201,0.644-0.316,1.2-0.24c-1.828,0.105,0.622,2.318-1.44,2.639c0.193,0.85,1.318,0.764,0.96,2.16
	C93.156,175.277,93.076,175.277,92.996,175.277z"/>
<path fill="#B7935F" d="M94.916,179.117c-1.043-0.396-1.436-1.443-2.399-1.92c-0.237-0.957,0.717-0.723,0.479-1.68
	c0.425-0.076,0.429,1.344-0.239,0.959c0.284,1.234,1.386,1.654,2.159,2.4C94.916,178.957,94.916,179.037,94.916,179.117z"/>
<path fill="#DAD5D5" d="M130.916,178.877c-0.615,0.516,0.201,1.342-0.239,1.682c-1.216,0.254-1.21-0.709-1.92-0.961
	c0-0.08,0-0.16,0-0.24c0.622,0.26,0.892,0.869,1.68,0.961C130.854,180.34,129.947,178.855,130.916,178.877z"/>
<path fill="#DAD5D5" d="M132.116,176.957c-0.08,0-0.16,0-0.239,0c-0.222-0.898-0.979-1.262-1.2-2.158
	c0.023-1.064-0.285-1.797-1.2-1.922c-0.046,1.002-0.885,2.465-0.72,2.881c0,0.398,0,0.801,0,1.199
	c-0.344,0.059-0.405,0.396-0.721,0.48c0.704-1.514,0.537-3.328,1.44-5.041C130.931,173.344,131.277,175.396,132.116,176.957z"/>
<path fill="#DAD5D5" d="M130.916,178.877c-0.969-0.02-0.063,1.463-0.479,1.439c-0.788-0.092-1.058-0.701-1.68-0.959
	c-0.015-0.867-0.6-1.162-0.721-1.92c0.315-0.086,0.377-0.422,0.721-0.48c0.006,0.564-0.038,3.012,1.439,2.881
	c0.257-1.264,1.325-1.717,1.681-2.881c0.079,0,0.159,0,0.239,0c-0.23,0.648-0.388,1.371-0.72,1.92
	C131.236,178.877,131.076,178.877,130.916,178.877z"/>
<path fill="#422F21" d="M117.717,175.518c-0.105,0.355-0.308-0.096-0.721,0c0.094,0.707,1.051,0.551,1.44,0.959
	c0.575,0.096-0.133-1.092,0.72-0.719c0.18-0.74-0.659-0.463-0.479-1.201c1.662,1.148,1.395-0.363,3.359-0.24
	c-1.968,1.963-4.277,4.828-6.72,5.521c2.424-1.369-0.309-4.385,1.92-5.279C117.569,174.705,117.273,175.48,117.717,175.518z"/>
<path fill="#DAD5D5" d="M128.757,175.758c-0.165-0.416,0.674-1.879,0.72-2.881c0.916,0.125,1.224,0.855,1.2,1.922
	c-0.398-0.322-0.181-1.262-0.96-1.201C129.431,174.352,129.301,175.262,128.757,175.758z"/>
<path fill="#21201D" d="M123.717,176.236c-0.65-0.217,0.548-0.535,0.479-0.959c0.559,0.359,0.366,0.586,0.24,1.199
	c-0.408,0.088-0.453-0.188-0.48-0.479C123.752,175.953,123.73,176.092,123.717,176.236z"/>
<path fill="#422F21" d="M101.396,175.277c-0.748-0.764,1.132-0.936,1.2-1.68C103.185,174.201,101.461,174.529,101.396,175.277z"/>
<path fill="#422F21" d="M120.116,173.598c-0.573-0.99-0.928-0.184-1.68-0.48c0.287-0.969,0.822-0.299,1.44-0.719
	c0.369,0.127,0.016,0.25-0.24,0.24C119.64,173.113,120.291,172.941,120.116,173.598z"/>
<path fill="#B7935F" d="M73.076,170.236c0,0.24,0,0.48,0,0.721c0.771,0.211,0.329-0.791,0.96-0.721
	c-0.688,0.512-0.258,2.143-0.72,2.881C72.549,172.994,72.706,170.701,73.076,170.236z"/>
<path fill="#B7935F" d="M75.477,167.598c0.025,1.227,0.199,2.6-1.2,2.4c0.965-0.154,1.106-1.135,0.96-2.4
	C75.316,167.598,75.396,167.598,75.477,167.598z"/>
<path fill="#B7935F" d="M77.396,165.438c-0.689,0.59-1.561,1-1.92,1.92C75.303,166.854,76.328,165.496,77.396,165.438z"/>
<path fill="#B7935F" d="M77.637,165.438c0.655-1.998,1.893-4.102,4.08-3.84c1.033-1.504,1.403-4.588,3.84-4.32
	c0.184,0.021,1.632,0.74,1.68,0.961c-3.486-2.109-4.257,1.4-5.28,3.6C79.426,161.334,78.783,163.863,77.637,165.438z"/>
<path fill="#B7935F" d="M91.316,151.277c-1.114,2.869,1.875,4.09,1.92,7.199c-1.255,0.203-3.271-2.523-4.8-0.719
	c0.95-1.91,3.238-0.25,4.32,0.479c0.582-1.705-1.123-3.193-1.921-4.318C90.735,152.777,91.186,152.186,91.316,151.277z"/>
<path fill="#B7935F" d="M91.316,148.639c-0.416-1.186-0.179-3.021-0.72-4.08c-0.668,0.531-1.063,1.336-1.681,1.92
	c0.132-1.068,1.009-1.393,1.44-2.16c1.021,0.658,0.971,2.389,0.96,4.08C91.589,148.443,91.449,148.639,91.316,148.639z"/>
<path fill="#B7935F" d="M88.196,149.357c0.034-1.166,0.173-2.227,0.72-2.881c0.617-0.582,1.013-1.387,1.681-1.92
	c0.541,1.061,0.304,2.896,0.72,4.08c0.464,0.584,0.231,2.008,0,2.641c-0.131,0.908-0.581,1.5-0.48,2.641
	c0.798,1.127,2.502,2.615,1.921,4.32c-1.082-0.73-3.37-2.391-4.32-0.48c0.011,0.41-0.178,0.621-0.48,0.721
	c-0.388,0.066-0.413-0.227-0.72-0.24c-0.048-0.221-1.496-0.939-1.68-0.959c-2.437-0.268-2.807,2.816-3.84,4.318
	c-2.188-0.262-3.425,1.844-4.08,3.84c-0.08,0-0.16,0-0.24,0c-1.068,0.059-2.094,1.418-1.92,1.92c0,0.08,0,0.16,0,0.24
	c-0.08,0-0.16,0-0.24,0c0.146,1.268,0.005,2.246-0.96,2.4c-0.204-0.045-0.227,0.094-0.24,0.238c-0.631-0.07-0.188,0.932-0.96,0.721
	c0-0.238,0-0.479,0-0.721c0-0.08,0-0.158,0-0.238c0.838-1.963,1.492-4.107,2.4-6c0-0.08,0-0.16,0-0.24
	c1.363-1.598,2.525-3.395,3.84-5.039c0-0.08,0-0.16,0-0.24C81.929,155.09,87.356,154.518,88.196,149.357z"/>
<path fill="#B7935F" d="M79.316,158.477c2.277-3.723,7.762-4.236,8.88-9.119C87.356,154.518,81.929,155.09,79.316,158.477z"/>
<path fill="#B7935F" d="M79.316,158.719c-1.313,1.645-2.477,3.441-3.84,5.039C76.625,161.945,77.705,160.066,79.316,158.719z"/>
<path fill="#B7935F" d="M73.076,169.998c0.507-2.295,1.248-4.354,2.4-6C74.568,165.891,73.914,168.035,73.076,169.998z"/>
<path fill="#21201D" d="M67.557,222.559c-1.466-0.135-2.576-0.625-3.84-0.961C65.298,221.615,66.683,221.832,67.557,222.559z"/>
<path fill="#A6A6A6" d="M90.836,222.078c-0.102-0.502,0.166-0.635,0.24-0.961c0.08,0,0.16,0,0.24,0
	C91.976,220.346,90.965,223.637,90.836,222.078z"/>
<path fill="#B7935F" d="M64.196,193.277c-0.264-0.893-0.18-1.684,0.24-2.879c0.444-0.676,0.659-1.582,0.96-2.4
	c-0.037-0.598,0.377-0.744,0.48-1.199c1.687-0.873,2.743-2.377,5.039-2.643c-0.3,2.4,0.136,3.547,0.721,5.521
	c-1.037,0.953-0.485,1.303-0.24,2.881c-0.583,0.695-1.02,1.539-1.44,2.398c0.089,0.408-0.187,0.453-0.479,0.48
	c-1.306,0.697-2.284,1.064-4.56,1.439C64.188,196.041,64.263,194.105,64.196,193.277z M66.597,193.996c-0.08,0-0.16,0-0.24,0
	c-0.265,0.615-1.382,0.379-1.2,1.441c2.612,0.033,4.588-2.6,5.04-5.521c-1.637,0.205-1.081,2.602-2.88,2.641
	c-0.075-0.324-0.342-0.457-0.24-0.959c0.085-0.965-0.004-1.756-0.72-1.92c-0.265,0.727-0.455,2.43,0,3.119
	C66.558,193.076,66.673,193.441,66.597,193.996z"/>
<path fill="#21201D" d="M112.677,181.518c-1.997-0.004-4.016,0.014-5.28-0.721c2.204,0.596,5.345,0.256,7.68,0.721
	C114.276,181.518,113.477,181.518,112.677,181.518z"/>
<path fill="#B7935F" d="M99.956,174.078c-0.62,1.25-0.133,1.639,0,3.119c0.929,1.873,3.125,2.475,5.04,3.359
	c-2.095,1.91-5.259-0.416-7.199-0.959c-0.041,0.357,0.086,0.885-0.24,0.959c-0.723-0.979-1.981-0.604-2.641-1.199
	c0-0.08,0-0.16,0-0.24s0-0.16,0-0.24c-0.773-0.744-1.875-1.164-2.159-2.398c0.668,0.385,0.664-1.037,0.239-0.961
	c0-0.08,0-0.16,0-0.24c0.08,0,0.16,0,0.24,0c0.358-1.396-0.767-1.313-0.96-2.16c2.063-0.318-0.388-2.531,1.44-2.639
	c0.08,0,0.16,0,0.239,0c0.46,0.598,0.921-0.824,1.681-0.721c0.683,0.449,1.787,1.326,2.399,0.479
	c0.059,0.344,0.396,0.406,0.48,0.721c0.199,0.627-0.727,1.316,0,1.682c0.725-1.035,1.932-1.588,3.12-2.16c0.08,0,0.16,0,0.24,0
	c0.24,0.531,2.34-0.486,2.64,0.959C102.388,171.707,100.953,172.674,99.956,174.078z"/>
<path fill="#21201D" d="M105.956,205.037c-1.079,0.445-4.069,0.244-4.8,0.24C102.28,204.721,104.435,205.195,105.956,205.037z"/>
<path fill="#21201D" d="M112.196,178.396c-1.413-1.344,0.575-3.332,1.92-1.92C114.396,178.035,113.632,178.553,112.196,178.396z"/>
<use xlink:href="#Rand"  width="156.49" height="248.039" x="5.377" y="-252.996" transform="matrix(1 0 0 -1 0.0078 0.0059)" overflow="visible"/>
<use xlink:href="#Rand"  width="156.49" height="248.039" x="5.377" y="-252.996" transform="matrix(1 0 0 -1 0.002 0.0029)" overflow="visible"/>
</svg>
