<?xml version="1.0" encoding="utf-8"?>
<!-- Generator: Adobe Illustrator 15.1.0, SVG Export Plug-In  -->
<!DOCTYPE svg PUBLIC "-//W3C//DTD SVG 1.1//EN" "http://www.w3.org/Graphics/SVG/1.1/DTD/svg11.dtd" [
	<!ENTITY ns_flows "http://ns.adobe.com/Flows/1.0/">
]>
<svg version="1.1"
	 xmlns="http://www.w3.org/2000/svg" xmlns:xlink="http://www.w3.org/1999/xlink" xmlns:a="http://ns.adobe.com/AdobeSVGViewerExtensions/3.0/"
	 x="0px" y="0px" width="167px" height="258px" viewBox="0.002 0.004 167 258" enable-background="new 0.002 0.004 167 258"
	 xml:space="preserve">
<defs>
	<symbol  id="CN_1_" viewBox="-42.52 -42.52 85.039 85.038">
		<path fill="#DE2910" d="M42.52-0.001C42.52-23.483,23.483-42.52,0-42.52S-42.52-23.483-42.52-0.001S-23.483,42.519,0,42.519
			S42.52,23.481,42.52-0.001z"/>
		<path id="s_22_" fill="#FFDE00" d="M-17.08,24.793l7.408-22.801l-19.395,14.092h23.973L-24.488,1.992L-17.08,24.793z"/>
		<path id="s_16_" fill="#FFDE00" d="M5.569,28.659l-0.701-7.961l-4.112,6.854l7.354-3.128l-7.788-1.793L5.569,28.659z"/>
		<path id="s_15_" fill="#FFDE00" d="M15.343,19.315l-3.735-7.064l-1.131,7.911l5.565-5.735l-7.873,1.369L15.343,19.315z"/>
		<path id="s_14_" fill="#FFDE00" d="M16.274,5.227L9.981,0.302l2.196,7.685l2.739-7.508L8.288,4.941L16.274,5.227z"/>
		<path id="s_13_" fill="#FFDE00" d="M5.407-0.684L5.036-8.666L0.645-1.99l7.478-2.82L0.416-6.924L5.407-0.684z"/>
	</symbol>
	<symbol  id="CU" viewBox="-42.52 -42.521 85.039 85.039">
		<g>
			<path fill="none" d="M0,42.518c-0.026,0-0.052-0.002-0.077-0.002h0.154C0.052,42.516,0.026,42.518,0,42.518z"/>
			<path fill="none" d="M0-42.521c0.013,0,0.025,0.001,0.039,0.001h-0.078C-0.025-42.521-0.013-42.521,0-42.521z"/>
			<path fill="#002690" d="M14.983,8.5l14.729-8.504L14.988-8.505h26.68c0.558,2.747,0.852,5.591,0.852,8.503
				S42.226,5.753,41.668,8.5H14.983z"/>
			<path fill="#FFFFFF" d="M14.983,8.5h26.685c-1.275,6.283-3.937,12.063-7.649,17.007h-48.492L14.983,8.5z"/>
			<path fill="#002690" d="M-14.474,25.507h48.492c-7.743,10.31-20.062,16.984-33.941,17.009h-0.154
				c-10.258-0.019-19.663-3.668-26.998-9.733L-14.474,25.507z"/>
			<path fill="#FFFFFF" d="M-14.469-25.512h48.487c3.713,4.944,6.374,10.724,7.649,17.007h-26.68L-14.469-25.512z"/>
			<path fill="#002690" d="M-27.073-32.789c7.345-6.071,16.764-9.723,27.034-9.731h0.078c13.896,0.013,26.229,6.69,33.979,17.009
				h-48.487L-27.073-32.789z"/>
			<path fill="#D00C27" d="M-14.469-25.512L14.988-8.505l14.725,8.501L14.983,8.5l-29.457,17.007l-12.602,7.275
				C-36.508,24.983-42.52,13.193-42.52-0.002c0-13.197,6.013-24.988,15.446-32.787L-14.469-25.512z M-24.103-1.437l-7.414,5.475
				l9.216,0.072l2.916,8.742l2.916-8.742l9.216-0.072l-7.414-5.475l2.78-8.786l-7.498,5.358l-7.498-5.358L-24.103-1.437z"/>
			<polygon fill="#FFFFFF" points="-19.385,-4.864 -11.887,-10.223 -14.667,-1.437 -7.253,4.038 -16.469,4.11 -19.385,12.853 
				-22.301,4.11 -31.517,4.038 -24.103,-1.437 -26.883,-10.223 			"/>
		</g>
	</symbol>
	<symbol  id="Rand" viewBox="5.377 -252.996 156.49 248.039">
		<g id="weiß_2_">
		</g>
		<path fill="#FFFFFF" d="M159.867-242.076c0,4.92-4,8.92-8.92,8.92c-4.921,0-8.921-4-8.921-8.92s4-8.92,8.921-8.92
			C155.867-250.996,159.867-246.996,159.867-242.076z M159.867-15.887c0,4.92-4,8.93-8.92,8.93c-4.921,0-8.921-4.01-8.921-8.93
			c0-4.91,4-8.92,8.921-8.92C155.867-24.807,159.867-20.797,159.867-15.887z M19.387-4.957h123.9h4.569h3.091
			c6.02,0,10.92-4.9,10.92-10.93v-9.52v-208.09v-8.58c0-6.021-4.9-10.92-10.92-10.92h-9.471c-37.63,0-75.85,0-125.17,0
			c-6.029,0-10.92,4.898-10.92,10.92c-0.01,72.18-0.01,141.83-0.01,211.35v14.84c0,6.029,4.9,10.93,10.92,10.93H19.387z
			 M25.227-15.887c0,4.92-4.01,8.93-8.93,8.93c-4.91,0-8.92-4.01-8.92-8.93c0-4.91,4.01-8.92,8.92-8.92
			C21.217-24.807,25.227-20.797,25.227-15.887z M16.307-250.996c4.92,0,8.92,4,8.92,8.92s-4,8.92-8.92,8.92s-8.92-4-8.92-8.92
			S11.387-250.996,16.307-250.996z M27.227-15.887c0-6.02-4.9-10.92-10.93-10.92c-3.68,0-6.939,1.83-8.92,4.629
			c0-71.199,0-142.398,0-213.609c1.98,2.801,5.24,4.631,8.93,4.631c6.02,0,10.92-4.9,10.92-10.92c0-3.682-1.83-6.941-4.63-8.92
			c40.69,0,81.37,0,122.061,0c-2.801,1.979-4.631,5.238-4.631,8.92c0,6.02,4.9,10.92,10.921,10.92c3.68,0,6.939-1.83,8.92-4.621
			c0,71.201,0,142.4,0,213.6c-1.98-2.799-5.24-4.629-8.92-4.629c-6.021,0-10.921,4.9-10.921,10.92c0,3.689,1.83,6.949,4.631,8.93
			c-40.69,0-81.38,0-122.061,0C25.396-8.938,27.227-12.197,27.227-15.887z"/>
	</symbol>
	<symbol  id="Stühle" viewBox="20.226 -210.972 126.867 163.99">
		<g id="weiß_4_">
		</g>
		<path fill="#FFFFFF" d="M140.767-178.387c8.141-11.621,8.13-11.609,1.17-16.49c-6.2-4.34-12.39-8.67-18.58-13.01
			c-6.989-4.891-6.97-4.871-15.1,6.74c-4.55,6.5-4.99,17.26,6.5,25.309C126.337-167.736,136.267-171.957,140.767-178.387z"/>
		<path fill="#FFFFFF" d="M52.486-175.838c11.5-8.049,11.061-18.809,6.5-25.309c-8.129-11.611-8.109-11.631-15.09-6.74
			c-6.199,4.34-12.39,8.67-18.58,13.01c-6.97,4.881-6.97,4.869,1.16,16.49C30.986-171.957,40.917-167.736,52.486-175.838z"/>
		<path fill="#FFFFFF" d="M142.007-63.098c6.96-4.869,6.97-4.869-1.17-16.479c-4.5-6.441-14.43-10.66-26.01-2.551
			c-11.49,8.051-11.051,18.811-6.49,25.311c8.13,11.609,8.1,11.619,15.09,6.73C129.617-54.416,135.807-58.756,142.007-63.098z"/>
		<path fill="#FFFFFF" d="M58.986-56.807c4.561-6.5,5-17.26-6.5-25.311c-11.569-8.1-21.5-3.879-26.01,2.551
			c-8.13,11.619-8.13,11.609-1.16,16.49c6.19,4.33,12.381,8.67,18.58,13.01C50.877-45.178,50.857-45.197,58.986-56.807z"/>
		<path fill="#FFFFFF" d="M83.622-172.996c-24.272,0-44.02,19.746-44.02,44.02s19.747,44.02,44.02,44.02s44.02-19.746,44.02-44.02
			S107.895-172.996,83.622-172.996z M83.622-87.957c-22.618,0-41.02-18.4-41.02-41.02s18.401-41.02,41.02-41.02
			s41.02,18.4,41.02,41.02S106.24-87.957,83.622-87.957z"/>
	</symbol>
</defs>
<g>
	<path fill="#0057A3" d="M167.244,240.945c0,9.355-7.653,17.008-17.008,17.008H17.008C7.653,257.953,0,250.301,0,240.945V17.008
		C0,7.654,7.653,0,17.008,0h133.229c9.354,0,17.008,7.654,17.008,17.008V240.945z"/>
</g>
<use xlink:href="#CN_1_"  width="85.039" height="85.038" x="-42.52" y="-42.52" transform="matrix(0.2333 0 0 -0.2333 150.8008 242.0762)" overflow="visible"/>
<use xlink:href="#CN_1_"  width="85.039" height="85.038" x="-42.52" y="-42.52" transform="matrix(0.2333 0 0 -0.2333 150.7998 15.8809)" overflow="visible"/>
<use xlink:href="#CN_1_"  width="85.039" height="85.038" x="-42.52" y="-42.52" transform="matrix(0.2333 0 0 -0.2333 16.2979 242.0762)" overflow="visible"/>
<use xlink:href="#CN_1_"  width="85.039" height="85.038" x="-42.52" y="-42.52" transform="matrix(0.2333 0 0 -0.2333 16.2979 15.8809)" overflow="visible"/>
<use xlink:href="#CU"  width="85.039" height="85.039" id="XMLID_19_" x="-42.52" y="-42.521" transform="matrix(1 0 0 -1 83.6221 128.9785)" overflow="visible"/>
<use xlink:href="#Rand"  width="156.49" height="248.039" x="5.377" y="-252.996" transform="matrix(1 0 0 -1 0.002 0.0039)" overflow="visible"/>
<use xlink:href="#Stühle"  width="126.867" height="163.99" x="20.226" y="-210.972" transform="matrix(1 0 0 -1 0.002 0.0039)" overflow="visible"/>
</svg>
