<?xml version="1.0" encoding="utf-8"?>
<!-- Generator: Adobe Illustrator 15.1.0, SVG Export Plug-In  -->
<!DOCTYPE svg PUBLIC "-//W3C//DTD SVG 1.1//EN" "http://www.w3.org/Graphics/SVG/1.1/DTD/svg11.dtd" [
	<!ENTITY ns_flows "http://ns.adobe.com/Flows/1.0/">
]>
<svg version="1.1"
	 xmlns="http://www.w3.org/2000/svg" xmlns:xlink="http://www.w3.org/1999/xlink" xmlns:a="http://ns.adobe.com/AdobeSVGViewerExtensions/3.0/"
	 x="0px" y="0px" width="167px" height="258px" viewBox="0.002 0.003 167 258" enable-background="new 0.002 0.003 167 258"
	 xml:space="preserve">
<defs>
	<symbol  id="DE" viewBox="-42.519 -42.52 85.038 85.038">
		<path fill="none" d="M0,42.519c-0.006,0-0.013,0-0.02,0H0.02C0.013,42.519,0.007,42.519,0,42.519z"/>
		<path d="M-40.09,14.173h80.18C34.254,30.68,18.522,42.51,0.02,42.519h-0.039C-18.522,42.51-34.254,30.68-40.09,14.173z"/>
		<path fill="#FF0000" d="M-42.519,0c0-4.971,0.861-9.739,2.429-14.173h80.18C41.658-9.74,42.52-4.972,42.52,0
			s-0.861,9.739-2.429,14.173h-80.18C-41.658,9.739-42.519,4.971-42.519,0z"/>
		<path fill="#FFCC00" d="M40.09-14.174h-80.18C-34.252-30.686-18.511-42.52,0-42.52C18.512-42.52,34.252-30.686,40.09-14.174z"/>
	</symbol>
	<symbol  id="Rand" viewBox="5.377 -252.996 156.49 248.039">
		<g id="weiß_2_">
		</g>
		<path fill="#FFFFFF" d="M159.867-242.076c0,4.92-4,8.92-8.92,8.92c-4.921,0-8.921-4-8.921-8.92s4-8.92,8.921-8.92
			C155.867-250.996,159.867-246.996,159.867-242.076z M159.867-15.887c0,4.92-4,8.93-8.92,8.93c-4.921,0-8.921-4.01-8.921-8.93
			c0-4.91,4-8.92,8.921-8.92C155.867-24.807,159.867-20.797,159.867-15.887z M19.387-4.957h123.9h4.569h3.091
			c6.02,0,10.92-4.9,10.92-10.93v-9.52v-208.09v-8.58c0-6.021-4.9-10.92-10.92-10.92h-9.471c-37.63,0-75.85,0-125.17,0
			c-6.029,0-10.92,4.898-10.92,10.92c-0.01,72.18-0.01,141.83-0.01,211.35v14.84c0,6.029,4.9,10.93,10.92,10.93H19.387z
			 M25.227-15.887c0,4.92-4.01,8.93-8.93,8.93c-4.91,0-8.92-4.01-8.92-8.93c0-4.91,4.01-8.92,8.92-8.92
			C21.217-24.807,25.227-20.797,25.227-15.887z M16.307-250.996c4.92,0,8.92,4,8.92,8.92s-4,8.92-8.92,8.92s-8.92-4-8.92-8.92
			S11.387-250.996,16.307-250.996z M27.227-15.887c0-6.02-4.9-10.92-10.93-10.92c-3.68,0-6.939,1.83-8.92,4.629
			c0-71.199,0-142.398,0-213.609c1.98,2.801,5.24,4.631,8.93,4.631c6.02,0,10.92-4.9,10.92-10.92c0-3.682-1.83-6.941-4.63-8.92
			c40.69,0,81.37,0,122.061,0c-2.801,1.979-4.631,5.238-4.631,8.92c0,6.02,4.9,10.92,10.921,10.92c3.68,0,6.939-1.83,8.92-4.621
			c0,71.201,0,142.4,0,213.6c-1.98-2.799-5.24-4.629-8.92-4.629c-6.021,0-10.921,4.9-10.921,10.92c0,3.689,1.83,6.949,4.631,8.93
			c-40.69,0-81.38,0-122.061,0C25.396-8.938,27.227-12.197,27.227-15.887z"/>
	</symbol>
</defs>
<g>
	<path fill="#9B91AC" d="M167.244,240.945c0,9.354-7.653,17.008-17.008,17.008H17.008C7.653,257.953,0,250.3,0,240.945V17.008
		C0,7.653,7.653,0,17.008,0h133.229c9.354,0,17.008,7.653,17.008,17.008V240.945z"/>
</g>
<use xlink:href="#DE"  width="85.038" height="85.038" x="-42.519" y="-42.52" transform="matrix(0.2333 0 0 -0.2333 150.8008 242.0752)" overflow="visible"/>
<use xlink:href="#DE"  width="85.038" height="85.038" x="-42.519" y="-42.52" transform="matrix(0.2333 0 0 -0.2333 150.7998 15.8809)" overflow="visible"/>
<use xlink:href="#DE"  width="85.038" height="85.038" x="-42.519" y="-42.52" transform="matrix(0.2333 0 0 -0.2333 16.2979 242.0752)" overflow="visible"/>
<use xlink:href="#DE"  width="85.038" height="85.038" x="-42.519" y="-42.52" transform="matrix(0.2333 0 0 -0.2333 16.2979 15.8809)" overflow="visible"/>
<path fill="#CAB278" d="M92.591,38.533c-0.492,1.508-1.098,2.903-2.881,3.12c0.395-1.207,0.599-2.603,1.199-3.602
	C91.789,37.896,91.83,38.571,92.591,38.533z"/>
<path fill="#333731" d="M92.351,62.056c0.319,0,0.64,0,0.96,0c-0.617,1.357-0.867,1.656-1.2,3.119
	C90.373,64.485,92.467,63.292,92.351,62.056z"/>
<path fill="#333731" d="M95.23,63.735c0.315,0.084,0.378,0.422,0.72,0.479c-0.022,0.611-0.894,0.567-1.198,0.24
	C94.835,64.14,95.173,64.078,95.23,63.735z"/>
<path fill="#CAB278" d="M90.67,80.057c0.239,0,0.479,0,0.721,0c0,0.48,0,0.961,0,1.44C91.086,81.081,90.58,80.868,90.67,80.057z"/>
<path fill="#333731" d="M82.27,81.257c2.188,1.382-1.423,1.397-0.72,2.88C79.697,83.492,81.832,81.869,82.27,81.257z"/>
<path fill="#333731" d="M60.428,84.857C58.001,85.096,60.455,82.641,60.428,84.857L60.428,84.857z"/>
<path fill="#333731" d="M62.588,84.137c0.266,0.454,0.306,1.135,0.479,1.682c0.929,0.129,0.988-0.612,1.681-0.721
	c0.59,0.369,1.631,0.289,1.68,1.199c-1.118,0.336-2.18-0.117-3.36,0.48c-0.867-0.233-1.829-1.049-0.96-1.682
	c-0.349-0.131-1.241,0.281-1.2-0.238C60.89,84.039,61.797,84.146,62.588,84.137z"/>
<path fill="#333731" d="M67.147,85.098c0.315,0.084,0.378,0.422,0.72,0.479c-0.023,0.61-0.895,0.567-1.199,0.239
	C66.753,85.502,67.091,85.439,67.147,85.098z"/>
<path fill="#333731" d="M69.549,85.816c0.168,0.832-0.842,0.86-1.2,0.479C68.522,85.811,69.07,85.316,69.549,85.816z"/>
<path fill="#333731" d="M54.667,92.059c-0.852-0.896-2.061-3.352,0.239-3.602c-0.563,1.457-0.016,2.771,1.2,3.12
	c-0.004,0.717-0.625,0.815-0.72,1.44c0.157,1.203,1.469,1.25,2.16,1.92c-0.24,0.319-0.396,0.725-0.721,0.961
	c0.168,1.271,1.166,1.713,2.4,1.92c-0.041,1.121-0.618,0.797-0.24,1.92c0.521,0.839,2.116,0.604,2.16,1.92
	c-1.825-0.393-3.5-0.365-3.6-2.881c-0.98-0.516-2.215-1.868-1.681-3.119C55.597,95.123,53.207,93.746,54.667,92.059z"/>
<path fill="#333731" d="M59.228,93.258c-0.16,1.12,0.866,1.055,1.2,1.68c-1.125,0.797-2.354-0.358-2.4-1.438
	C58.307,93.296,58.671,93.182,59.228,93.258z"/>
<path fill="#5F8B9A" d="M91.871,99.979c0.718,0.644,1.631,1.09,1.92,2.16c-0.389,1.133-1.372,1.668-2.16,2.4
	c-1.171-0.27-1.244-1.637-2.16-2.16C90.228,101.536,91.257,100.966,91.871,99.979z"/>
<path fill="#5F8B9A" d="M95.95,101.18c1.56,0.762,2.334,2.307,3.842,3.119c0.436,0.555-0.495,1.282-1.2,1.439
	C97.967,104.096,95.159,103.447,95.95,101.18z"/>
<path fill="#333731" d="M73.629,103.339c-0.524,0.043-0.765-0.196-0.721-0.721c1.376,0.417,0.905-1.015,1.92-0.96
	C75.42,102.425,74.642,103.426,73.629,103.339z"/>
<path fill="#5F8B9A" d="M84.189,106.219c1.4,0.76,2.205,2.116,3.36,3.12c-0.598,1.163-1.453,2.067-2.16,3.12
	c-1.138-1.262-2.36-2.439-3.36-3.84C82.568,107.639,83.33,106.88,84.189,106.219z"/>
<path fill="#5F8B9A" d="M92.11,106.459c0.539,1.631-0.835,3.287-0.96,5.04C88.123,110.23,89.589,107.541,92.11,106.459z"/>
<path fill="#5F8B9A" d="M70.509,107.419c1.186,0.896,1.968,2.192,3.121,3.12c-0.913,0.688-1.846,1.355-2.4,2.4
	C69.164,112.468,68.623,108.563,70.509,107.419z"/>
<path fill="#5F8B9A" d="M98.83,107.659c0.215,0.106,0.43,0.211,0.479,0.479c-0.628,0.971-0.758,2.442-1.92,2.881
	c0.179-0.74-0.659-0.463-0.479-1.201C97.789,109.336,97.928,108.115,98.83,107.659z"/>
<path fill="#5F8B9A" d="M93.07,108.379c1.322-0.042,1.433,1.129,2.16,1.682c-0.78,1.299-1.392,2.769-2.88,3.359
	C91.558,111.959,93.378,109.717,93.07,108.379z"/>
<path fill="#5F8B9A" d="M106.991,108.859c1.413,0.906,2.488,2.152,3.602,3.359c-0.651,1.188-1.771,1.908-2.4,3.12
	c-1.213-0.708-2.043-1.797-2.88-2.881C106.187,111.111,106.297,110.438,106.991,108.859z"/>
<path fill="#5F8B9A" d="M60.907,111.26c-1.161,0.918-1.497,2.663-2.64,3.6c-0.273-0.123-3.195-2.227-3.121-2.879
	C55.307,110.588,60.055,109.242,60.907,111.26z"/>
<path fill="#5F8B9A" d="M113.472,110.061c2.271,1.918,6.363,4.748,2.161,6.719c-0.508-1.524-2.844-2.391-2.4-4.079
	c-0.306-0.612-1.176,0.223-1.2-0.24C112.064,111.212,113.166,111.033,113.472,110.061z"/>
<path fill="#5F8B9A" d="M53.707,111.499c-0.22,0.985-1.452,3.024-2.881,3.601c-0.428-0.451-0.648-1.111-1.199-1.439
	C50.517,112.469,52.23,112.104,53.707,111.499z"/>
<path fill="#5F8B9A" d="M119.953,113.18c1.604,0.641,2.525,3.231,2.641,4.561c-1.152-1.008-2.1-2.223-3.36-3.12
	C119.236,113.902,119.856,113.805,119.953,113.18z"/>
<path fill="#5F8B9A" d="M85.39,114.141c1.586,1.484,5.521,3.95,1.92,5.279c-0.723-2.204-1.558-2.884-2.399-5.04
	C85.188,114.419,85.337,114.326,85.39,114.141z"/>
<path fill="#5F8B9A" d="M73.629,117.5c-0.648,1.191-1.783,1.896-2.4,3.12c-0.636-1.083-2.571-1.415-2.64-2.399
	c-0.073-1.035,2.067-1.807,2.399-3.121C72.5,115.27,72.496,116.952,73.629,117.5z"/>
<path fill="#5F8B9A" d="M94.03,120.38c-1.547,0.606-1.914-1.883-3.359-2.159c0.257-1.345,1.276-1.925,1.921-2.881
	C95.293,115.802,94.417,118.831,94.03,120.38z"/>
<path fill="#5F8B9A" d="M83.71,115.818c1.079,1.644,2.762,3.287,2.64,5.762c-1.688-0.873-2.576-2.544-4.08-3.602
	C82.666,117.176,83.351,116.66,83.71,115.818z"/>
<path fill="#5F8B9A" d="M79.869,116.779c0.424,0.218,0.743,0.537,0.961,0.961c-0.77,1.212-1.974,4.246-3.36,2.64
	C77.974,118.884,78.993,117.904,79.869,116.779z"/>
<path fill="#5F8B9A" d="M51.066,117.02c1.039,0.883,1.712,2.129,2.88,2.881c-0.453,1.308-1.497,2.023-2.159,3.121
	c-1.383-0.459-1.83-1.853-2.881-2.642C48.784,119.318,50.446,118.123,51.066,117.02z"/>
<path fill="#5F8B9A" d="M65.948,117.02c0.559,0.164,0.643,0.799,1.2,0.961c-0.81,1.431-1.533,2.946-3.12,3.601
	c-0.094-0.731,0.631-1.222-0.239-1.44C64.832,119.424,65.205,118.036,65.948,117.02z"/>
<path fill="#5F8B9A" d="M108.191,117.26c2.26,0.766,1.953,4.167,1.44,6.002c-1.393-0.85-2.156-2.324-3.602-3.121
	C106.431,118.859,107.326,118.074,108.191,117.26z"/>
<path fill="#5F8B9A" d="M56.827,117.98c0.215,0.105,0.43,0.211,0.48,0.479c-0.362,1.132-0.745,1.612-0.72,2.642
	c-0.478-0.164-0.549-0.731-0.96-0.961C55.766,119.158,56.732,119.005,56.827,117.98z"/>
<path fill="#5F8B9A" d="M116.112,118.221c1.253,1.227,2.062,2.898,3.602,3.84c-0.305,1.457-1.493,2.027-2.16,3.121
	c-0.949-1.181-3.974-2.384-4.081-3.602C113.397,120.736,115.787,119.098,116.112,118.221z"/>
<path fill="#5F8B9A" d="M46.026,118.46c0,0.959,0.877,1.043,1.2,1.681c-0.684,0.756-1.056,1.824-1.92,2.399
	C42.666,122.081,43.521,118.71,46.026,118.46z"/>
<path fill="#5F8B9A" d="M102.912,118.46c0.92,0.04,1.052,0.868,1.681,1.2c-0.796,1.205-1.523,2.479-2.881,3.119
	c0.097-1.283,0.887-2.537,0.479-3.6C102.715,119.225,102.955,118.982,102.912,118.46z"/>
<path fill="#5F8B9A" d="M122.593,120.38c0.239,0,0.479,0,0.721,0c0.465,1.478,0.624,3.271,0.72,4.562
	c-1.186-0.576-1.723-1.799-2.641-2.642C121.565,121.434,122.7,121.527,122.593,120.38z"/>
<path fill="#5F8B9A" d="M111.312,120.859c0.353,0.209,0.761,0.359,0.721,0.961c-0.993-0.063-0.318,0.932-0.721,0.959
	C110.478,122.729,111.423,121.186,111.312,120.859z"/>
<path fill="#5F8B9A" d="M74.349,126.141c-1.92,0-3.84,0-5.76,0c-0.278-1.369,1.854-2.268,2.399-3.601
	c1.387,0.854,2.193,2.287,3.36,3.36C74.349,125.98,74.349,126.061,74.349,126.141z"/>
<path fill="#5F8B9A" d="M81.31,126.141c-1.76,0-3.521,0-5.281,0c0.664-1.176,1.475-2.205,2.4-3.119
	C79.532,123.917,80.668,124.781,81.31,126.141z"/>
<path fill="#5F8B9A" d="M66.668,126.141c-1.44,0-2.881,0-4.32,0c0.528-0.912,1.275-1.604,1.92-2.4c1.08,0.441,1.582,1.46,2.4,2.16
	C66.668,125.98,66.668,126.061,66.668,126.141z"/>
<path fill="#5F8B9A" d="M88.51,126.141c-1.601,0-3.2,0-4.8,0c0.582-0.938,1.458-1.582,2.161-2.4c1.255,0.346,1.581,1.619,2.64,2.16
	C88.51,125.98,88.51,126.061,88.51,126.141z"/>
<path fill="#5F8B9A" d="M46.507,126.141c-0.88,0-1.761,0-2.641,0c0.78-1.477,1.66-1.519,2.641-0.24
	C46.507,125.98,46.507,126.061,46.507,126.141z"/>
<path fill="#5F8B9A" d="M103.151,126.141c-0.641,0-1.28,0-1.92,0c0.062-1.502,1.569-1.302,1.92-0.24
	C103.151,125.98,103.151,126.061,103.151,126.141z"/>
<path fill="#5F8B9A" d="M52.507,126.141c-0.641,0-1.28,0-1.92,0c0.347-0.453,0.536-1.063,1.439-0.959
	c-0.013,0.412,0.186,0.614,0.48,0.719C52.507,125.98,52.507,126.061,52.507,126.141z"/>
<path fill="#D2D4D0" d="M118.032,126.141c0.999-0.92,1.507-2.334,2.882-2.879c0.511,1.248,1.803,1.717,2.399,2.879
	C121.553,126.141,119.793,126.141,118.032,126.141z"/>
<path fill="#D2D4D0" d="M104.592,126.141c-0.464-0.978-1.655-1.226-1.921-2.4c1.046-0.795,1.659-2.02,2.399-3.119
	c1.867,0.934,2.495,3.105,4.32,4.08c0.13,0.851-0.85,0.591-0.72,1.439C107.312,126.141,105.951,126.141,104.592,126.141z"/>
<path fill="#5F8B9A" d="M89.23,122.061c0.369-0.83,0.557-1.844,0.96-2.641c0.446,0.033,0.802,0.158,0.96,0.48
	C89.616,119.021,90.232,121.682,89.23,122.061z"/>
<path fill="#5F8B9A" d="M87.789,123.021c1.047,0.326,0.868-0.572,1.44-0.722c0.128,0.991-1.739,0.781-0.961,1.681
	c-0.295-0.104-0.492-0.308-0.479-0.72C87.789,123.182,87.789,123.102,87.789,123.021z"/>
<path fill="#CAB278" d="M87.789,123.262c-0.463-0.287-1.311-0.822-0.72-1.441c0.615,0.025,0.386,0.896,0.72,1.201
	C87.789,123.102,87.789,123.182,87.789,123.262z"/>
<path fill="#D2D4D0" d="M40.985,126.141c0.609-1.367,1.618-2.589,1.681-3.841c2.539,0.69,1.032,2.9-0.24,3.841
	C41.945,126.141,41.466,126.141,40.985,126.141z"/>
<path fill="#CAB278" d="M71.469,63.976c0.193,0.045,0.238,0.24,0.479,0.239c-0.189,1.3,0.124,2.32-0.239,2.88
	c-0.194,0.045-0.239,0.241-0.48,0.24C71.33,66.237,71.594,65.3,71.469,63.976z"/>
<path fill="#5F8B9A" d="M79.149,72.616c0.435-0.928,1.044-1.676,1.681-2.4C80.521,71.269,79.798,71.903,79.149,72.616z"/>
<path fill="#5F8B9A" d="M61.388,79.337c-0.502-0.219-0.732-0.709-0.72-1.44c-0.315,0.086-0.377,0.424-0.721,0.479
	c0.208-0.351,0.359-0.761,0.96-0.72C60.767,78.518,61.187,78.816,61.388,79.337z"/>
<path fill="#5F8B9A" d="M102.432,65.416c-1.377-0.462-0.333-2.062,0.239-2.642C102.478,63.714,101.373,64.592,102.432,65.416z"/>
<path fill="#D2D4D0" d="M61.388,79.337c2.886,4.129,11.811,3.14,13.201-1.681c0.564,0.006,0.707-0.413,1.439-0.24
	c1.536,1.271,5.944,2.544,6.722,0.48c2.566-0.287,3.877-0.385,5.041-1.92c0.01-0.733-0.452-0.753-0.721-1.682
	c0.392-0.108,1.658-1.289,0.479-1.438c0.148-0.651,1.003-0.599,0.96-1.44c-0.084-0.796-0.719-1.042-1.2-1.44
	c0.166-0.793,0.824-1.096,1.44-1.439c0.443-0.424-0.063-0.743-0.48-0.96c0.326-0.714,1.084-0.997,1.681-1.44
	c-0.04-1-1.154-0.924-1.439-1.68c0.249-3.666,3.602-7.273,7.201-5.28c1.313-0.934,4.168-2.155,4.319,0.72
	c1.618-0.527,4.27,0.989,2.641,2.881c-0.572,0.578-1.616,2.178-0.239,2.641c0.733,0.174,0.705-0.415,1.438-0.24
	c-0.36,1.039-0.471,0.924-0.959,1.92c0.104,0.537,1.183,0.098,1.681,0.24c-0.409,1.191-1.572,1.628-2.4,2.4
	c-0.083,0.937,0.661,1.746-0.479,1.92c-0.872-7.006-8.631-6.648-10.801-0.721c-0.533,1.457,0.317,2.515-1.2,3.601
	c1.286,1.117-0.326,2.723,0.72,4.08c-0.115,0.925-1.153,0.927-1.439,1.681c0.838,1.198,2.582,3.13,0.721,4.32
	c0.106,0.612,0.337,1.104,0.72,1.438c-0.493,0.707-1.085,1.315-1.439,2.161c0.068,1.132,0.981,1.419,1.2,2.399
	c-0.013,1.428-1.08,1.801-1.681,2.641c-0.005,0.564,0.414,0.707,0.24,1.439c-0.83,0.888-1.454,0.705-2.4,1.201
	c1.693,1.021,0.806,3.809-1.438,3.6c-0.176,0.734,0.413,0.706,0.238,1.439c-0.604,0.916-2.632,0.408-3.359,1.201
	c1.146,2.432-1.553,3.614-3.121,3.359c-0.567,1.656-3.037,1.167-4.32,0.479c-0.854,0.188-1.202,0.879-1.68,1.44
	c-1.499,0.06-1.671-1.209-3.12-1.2c-1.115,0.006-1.188,1.053-1.92,1.44c-1.433-0.125-3.152-1.509-4.562-2.4
	c-1.539,0.908-2.445,0.427-4.081,0.24c-0.323-0.558-0.396-1.363-0.72-1.92c-0.708-0.384-0.972,0.233-1.68-0.479
	c0.079-0.563,0.288-0.992,0.479-1.441c-0.577-0.6-0.636-0.227-1.68-0.239c-0.014-2.71-1.871-2.474-3.36-3.358
	c0.417-1.013,0.408-1.302,0.96-2.4c-0.396-0.645-1.018-1.063-1.439-1.682c0.262-0.617,0.605-1.152,1.2-1.438
	c-0.344-0.537-0.771-0.99-1.2-1.44c-0.202-1.322,0.502-1.738,1.2-2.16c-0.946-1.631-0.836-2.892,1.68-3.119
	c0.174-0.771-0.473-1.43,0.72-1.922c0.979,1.043,2.415,0.56,3.84,0.722c-0.146-0.214-0.29-0.431,0-0.479
	c-0.366-0.755-1.84-0.4-2.88-0.479c0-0.722,0-1.44,0-2.16c-0.348-0.533-1.429-0.332-1.92-0.722c0.814-2.121,4.359-0.57,5.761-2.399
	c0.343-0.058,0.405-0.396,0.721-0.479C60.655,78.628,60.886,79.118,61.388,79.337z M60.428,84.857
	C60.455,82.641,58.001,85.096,60.428,84.857L60.428,84.857z M60.907,84.857c-0.041,0.521,0.852,0.107,1.2,0.238
	c-0.869,0.633,0.093,1.447,0.96,1.682c1.181-0.598,2.242-0.146,3.36-0.48c-0.049-0.911-1.09-0.83-1.68-1.199
	c-0.692,0.107-0.752,0.85-1.681,0.721c-0.174-0.547-0.214-1.228-0.479-1.682C61.797,84.146,60.89,84.039,60.907,84.857z
	 M66.668,85.816c0.306,0.328,1.176,0.371,1.199-0.239c-0.342-0.058-0.404-0.396-0.72-0.479
	C67.091,85.439,66.753,85.502,66.668,85.816z M83.47,81.497c1.248,0.368,0.222-1.538,1.68-0.96c-0.185-0.936,0.706-1.303,1.2-2.161
	c-0.058-0.422-0.413-0.547-0.96-0.479C84.585,78.932,84.063,80.249,83.47,81.497z M92.11,65.175c0.333-1.463,0.583-1.762,1.2-3.119
	c-0.32,0-0.641,0-0.96,0C92.467,63.292,90.373,64.485,92.11,65.175z M94.751,64.455c0.306,0.327,1.176,0.371,1.198-0.24
	c-0.342-0.058-0.403-0.396-0.72-0.479C95.173,64.078,94.835,64.14,94.751,64.455z M81.55,84.137c-0.703-1.48,2.907-1.498,0.72-2.88
	C81.832,81.869,79.697,83.492,81.55,84.137z M74.108,86.537c2.714,1.988,4.074-1.04,6.72-1.68c-1.229-2-3.059,0.908-4.319,1.199
	c-1.904-1.3-4.351,0.439-6.48-0.961c0.199,1.241,1.466,1.416,2.16,2.16C72.832,87.02,73.278,86.587,74.108,86.537z M68.349,86.297
	c0.358,0.381,1.369,0.352,1.2-0.479C69.07,85.316,68.522,85.811,68.349,86.297z M55.867,95.658c-0.535,1.251,0.7,2.604,1.681,3.119
	c0.1,2.516,1.774,2.488,3.6,2.881c-0.044-1.315-1.639-1.081-2.16-1.92c-0.377-1.123,0.199-0.799,0.24-1.92
	c-1.234-0.207-2.231-0.648-2.4-1.92c0.325-0.236,0.48-0.642,0.721-0.961c-0.691-0.67-2.003-0.717-2.16-1.92
	c0.096-0.625,0.716-0.725,0.72-1.44c-1.216-0.349-1.763-1.663-1.2-3.12c-2.3,0.25-1.091,2.706-0.239,3.602
	C53.179,93.253,54.553,95.195,55.867,95.658z M84.43,91.098c0.749,0.113,1.162-0.3,0.72-0.72c-2.604-0.198-1.104,4.192-3.12,5.28
	c0.681,0.505,1.869-0.086,2.4-0.48C84.36,93.313,85.328,92.583,84.43,91.098z M58.027,93.498c0.047,1.08,1.275,2.234,2.4,1.439
	c-0.334-0.625-1.36-0.561-1.2-1.681C58.671,93.182,58.307,93.296,58.027,93.498z M65.948,101.418
	c-0.599-0.201-1.286-0.313-2.159-0.238c-0.541-0.422-0.074-1.848-0.961-1.922c-0.873,0.174-0.409,1.829-0.239,2.4
	c1.893,0.139,3.92,3.781,5.521,1.199C66.691,103.075,66.069,102.497,65.948,101.418z M74.828,101.658
	c-1.015-0.055-0.543,1.377-1.92,0.96c-0.043,0.524,0.196,0.764,0.721,0.721c0.679,0.584,1.721-0.509,1.68-1.44
	C75.067,101.898,75.023,101.704,74.828,101.658z"/>
<path fill="#333731" d="M85.39,77.896c0.547-0.066,0.902,0.059,0.96,0.479c-0.494,0.858-1.385,1.228-1.2,2.161
	c-1.458-0.578-0.432,1.328-1.68,0.96C84.063,80.249,84.585,78.932,85.39,77.896z"/>
<path fill="#333731" d="M76.509,67.815c-1.439-1.598-0.847-5.287,0.479-6c2.529-1.361,3.431,4.521,1.92,5.761
	C77.762,67.795,77.393,68.248,76.509,67.815z M77.47,64.935c0.322-0.351,0.491-1.9-0.24-1.92
	C76.906,63.366,76.738,64.916,77.47,64.935z"/>
<path fill="#5F8B9A" d="M67.629,62.295c0.537,0.104,0.097,1.183,0.239,1.681C66.792,63.866,67.175,62.886,67.629,62.295z"/>
<path fill="#5F8B9A" d="M77.229,63.015c0.731,0.02,0.563,1.569,0.24,1.92C76.738,64.916,76.906,63.366,77.229,63.015z"/>
<path fill="#333731" d="M97.391,70.456c0.839,1.316,0.901,1.934,0,3.361c-0.368-1.231-0.854-2.35-1.92-2.881
	c-1.655,0.449-2.151,2.426-2.641,3.359c-1.676-2.663,2.981-6.536,6-4.32C98.804,70.589,98.027,70.452,97.391,70.456z"/>
<path fill="#CAB278" d="M64.508,71.416c0.628-0.067,1.033,0.088,0.96,0.72c-0.597,0.026-0.743,0.45-1.2,0
	C64.395,71.942,64.518,71.746,64.508,71.416z"/>
<path fill="#CAB278" d="M90.91,89.656c-0.825-0.487-1.013-2.191,0-2.639c0.385,0.655,0.494,1.586,0.48,2.639
	C91.23,89.656,91.07,89.656,90.91,89.656z"/>
<path fill="#5F8B9A" d="M90.91,89.656c0.16,0,0.32,0,0.48,0c0.126,0.26,0.249,1.144,0.239,2.16c-0.295-0.268-0.492-0.209-0.479,0.24
	c-0.08,0-0.16,0-0.24,0C91.287,91.143,91.412,90.615,90.91,89.656z"/>
<path fill="#5F8B9A" d="M54.667,92.059c-1.46,1.688,0.93,3.064,1.199,3.601C54.553,95.195,53.179,93.253,54.667,92.059z"/>
<path fill="#CAB278" d="M91.63,91.816c0.018,3.416,1.351,5.767-0.96,8.162c-2.418,2.508-7.211,4.94-9.36,7.199
	c-1.521,4.325-1.429,9.821-5.281,12.241c-2.42-4.09,1.343-8.655-1.2-12.241c2.11,0.256,1.857,2.276,2.881,3.12
	c0.857,0.124,0.549-2.151,0.239-2.399c1.373-1.907,5.178-1.383,5.041-4.801c2.003-0.152,3.374-1.687,3.36-3.119
	c1.651,0,2.265-1.875,1.681-3.36c2.396-0.599,1.156-3.576,2.88-4.562c0.08,0,0.16,0,0.24,0C91.138,91.607,91.335,91.55,91.63,91.816
	z"/>
<path fill="#D2D4D0" d="M94.271,101.18c-0.72-0.711-0.567-1.144-1.68-1.682c0.14-0.9,0.481-1.598,1.198-1.92
	c-0.223-0.576-0.964-0.637-0.72-1.68C94.605,96.423,96.916,100.159,94.271,101.18z"/>
<path fill="#5F8B9A" d="M73.629,103.339c1.013,0.087,1.791-0.914,1.199-1.681c0.195,0.046,0.239,0.24,0.48,0.24
	C75.351,102.83,74.308,103.923,73.629,103.339z"/>
<path fill="#D2D4D0" d="M88.27,108.619c-1.191-0.729-1.933-1.908-2.88-2.881c0.832-1.248,2.115-2.045,3.36-2.881
	c0.489,1.109,1.385,1.816,2.159,2.642C90.178,106.688,89.303,107.732,88.27,108.619z"/>
<path fill="#D2D4D0" d="M94.99,103.339c1.793,0.367,1.772,2.548,3.36,3.12c-1.063,0.775-1.09,2.591-2.64,2.88
	c-0.491-1.108-1.814-1.386-2.16-2.64C94.582,105.617,94.246,104.652,94.99,103.339z"/>
<path fill="#5F8B9A" d="M74.349,109.339c-0.665-0.084-1.413-0.719-0.96-1.2C73.918,108.33,74.348,108.621,74.349,109.339z"/>
<path fill="#5F8B9A" d="M82.51,110.779c0.587,0.908,2.622,1.463,1.92,2.88c-0.802-0.878-1.532-1.828-2.16-2.88
	C82.35,110.779,82.43,110.779,82.51,110.779z"/>
<path fill="#D2D4D0" d="M82.27,110.779c-0.632,0.072-0.788-0.332-0.72-0.961c0.61,0.029,0.931,0.351,0.96,0.961
	C82.43,110.779,82.35,110.779,82.27,110.779z"/>
<path fill="#D2D4D0" d="M90.67,112.939c-0.294,1.74-0.748,2.422-0.96,3.84c-1.326-0.993-2.232-2.407-3.602-3.359
	c0.488-1.193,1.366-1.995,2.16-2.881C89.373,111.038,89.89,112.12,90.67,112.939z"/>
<path fill="#5F8B9A" d="M93.789,113.898c0.021,1.15,1.199,2.144,1.922,1.201C95.398,116.803,93.051,114.669,93.789,113.898z"/>
<path fill="#D2D4D0" d="M93.789,113.898c0.355-1.323,1.785-1.574,2.16-2.879c0.504,0.297,0.902,0.697,1.2,1.199
	c-1.24,1.039-0.895,1.858-1.438,2.881C94.989,116.042,93.811,115.05,93.789,113.898z"/>
<path fill="#D2D4D0" d="M74.349,111.98c-0.595,1.063-0.126,2.242-0.48,3.84c-1.085-0.114-1.304-1.096-1.92-1.68
	C72.527,113.197,72.764,111.914,74.349,111.98z"/>
<path fill="#D2D4D0" d="M83.47,114.619c-0.405,0.771-1.153,2.365-1.681,2.4c-2.412,0.158-0.347-3.67-0.239-5.041
	C82.537,112.512,82.639,113.932,83.47,114.619z"/>
<path fill="#CAB278" d="M67.389,113.659c-0.106-0.214-0.211-0.429-0.48-0.479c0.059-0.423,0.413-0.547,0.96-0.479
	c-0.288,0.315-0.094,0.378,0,0.721C67.674,113.465,67.629,113.66,67.389,113.659z"/>
<path fill="#D2D4D0" d="M67.868,113.42c-0.181,1.01,0.024,1.941-0.239,3.6c-0.679-0.683-1.503-1.217-1.44-2.64
	c0.754,0.113,0.981-0.3,1.2-0.721C67.629,113.66,67.674,113.465,67.868,113.42z"/>
<path fill="#D2D4D0" d="M57.308,115.818c-0.644,1.197-1.451,2.23-2.4,3.121c-1.527-0.313-1.881-1.799-2.88-2.641
	c0.112-1.808,1.958-1.882,2.16-3.602C55.683,113.284,56.18,114.867,57.308,115.818z"/>
<path fill="#D2D4D0" d="M111.312,112.939c1.385,1.559-0.735,3.084-0.72,4.801c-0.883-0.158-1.195-0.887-1.68-1.44
	C109.487,114.955,110.466,114.014,111.312,112.939z"/>
<path fill="#D2D4D0" d="M69.068,112.939c0.675,0.045,1.022,0.418,0.96,1.199c-0.411-0.011-0.622,0.18-0.72,0.479
	C68.923,114.266,69.385,113.691,69.068,112.939z"/>
<path fill="#D2D4D0" d="M104.352,113.659c1.664,0.096,1.89,1.631,2.88,2.399c-0.213,1.389-1.156,2.045-1.92,2.881
	c-0.904-0.297-1.476-0.924-2.16-1.439C103.434,116.021,104.205,115.422,104.352,113.659z"/>
<path fill="#D2D4D0" d="M50.347,116.061c-0.56,1.359-1.748,2.092-2.4,3.359c-0.81-0.631-1.476-1.404-1.92-2.4
	c1.017-0.664,1.57-1.789,2.4-2.64C49.394,114.613,49.778,115.428,50.347,116.061z"/>
<path fill="#D2D4D0" d="M115.393,117.5c-1.232,0.544-1.521,3.07-2.641,3.12c-2.101,0.092-1.096-4.028,0-5.761
	C113.83,115.54,114.555,116.577,115.393,117.5z"/>
<path fill="#D2D4D0" d="M122.353,119.18c-0.359,1.002-1.199,1.521-1.68,2.4c-1.367-1.229-2.655-2.217-3.841-4.08
	c0.457-0.904,0.851-1.87,1.921-2.16C119.838,116.734,121.078,117.975,122.353,119.18z"/>
<path fill="#5F8B9A" d="M84.43,121.82c-0.825-0.695-1.432-1.61-2.16-2.4C83.11,120.1,83.964,120.766,84.43,121.82z"/>
<path fill="#D2D4D0" d="M84.43,121.82c0.554-0.073,0.267,0.693,0.72,0.72c-0.396,1.362-1.665,1.854-2.16,3.12
	c-1.608-0.951-2.557-2.563-3.84-3.84c1.093-0.907,1.502-2.498,2.88-3.12c0.127,0.192,0.25,0.39,0.24,0.72
	C82.998,120.21,83.604,121.125,84.43,121.82z"/>
<path fill="#5F8B9A" d="M72.908,122.54c0.773,0.588,1.518,1.204,1.92,2.16C74.144,124.025,73.468,123.342,72.908,122.54z"/>
<path fill="#D2D4D0" d="M72.908,122.54c-0.066-0.493-0.641-0.479-0.96-0.72c0.316-1.284,1.188-2.014,1.92-2.881
	c0.875,1.365,2.33,2.149,3.841,2.881c-0.52,1.4-1.866,1.975-2.4,3.359c-0.214-0.105-0.43-0.211-0.48-0.479
	C74.426,123.744,73.682,123.128,72.908,122.54z"/>
<path fill="#D2D4D0" d="M70.269,121.102c-0.269,1.971-2.181,2.299-2.64,4.08c-0.741-0.859-1.471-1.731-2.4-2.4
	c0.627-1.452,1.741-2.42,2.64-3.602C68.988,119.5,69.043,120.887,70.269,121.102z"/>
<path fill="#D2D4D0" d="M97.15,26.772c0.75,1.17,2.034,1.806,3.602,2.16c-0.289,1.408,0.475,1.766,1.439,1.92
	c0,0.399,0,0.799,0,1.199c-1.477,0.377-1.967,1.27-3.841,0.721c0.241-1.121-0.418-1.342-1.438-1.201
	c0.03-0.592,0.035-1.155-0.24-1.439c-0.878-0.158-0.921,0.52-1.682,0.48c0.036-0.596-0.124-0.996-0.479-1.2
	c-0.948-0.308-0.581,0.698-1.2,0.72c-0.77-0.189-0.506-1.415-1.92-0.96c0.313-1.188-0.354-1.178-0.24-2.642
	C93.164,25.665,94.996,26.905,97.15,26.772z"/>
<path fill="#CAB278" d="M71.469,63.976c0.158-1.576-0.432-2.442,0-3.121c-1.809-0.244-3.609-2.604-6.001-2.16
	c0.188-0.771,0.33-1.59,0.72-2.159c7.143-0.513,12.143-7.072,17.761-3.601c0.435-1.42-0.934-0.953-1.68-1.92
	c5.308-2.584,14.449-1.131,13.921,6.959c-4.609-2.195-10.2,3.696-8.16,8.161c-0.416,1.537-2.914,4.351-0.721,5.521
	c-1.396,1.269-0.993,3.242-0.96,4.321c-2.492,1.305-3.735-0.086-5.28,2.16c-1.481-0.599-3.408-0.754-4.561-1.682
	c-3.254,1.4-3.478-1.472-6.24-0.721c0.496,1.024,2.184,0.856,2.64,1.92c0.175,0.734-0.414,0.707-0.239,1.441
	c-1.869,1.91-9.082,2.87-10.562-0.24c-3.006-6.325,6.21-4.489,8.4-7.2c1.073-1.33,0.775-3.229,0.72-4.321
	c0.241,0.001,0.286-0.194,0.48-0.24c-0.231,3.722,3.51,9.029,7.44,5.521c0.648-0.713,1.372-1.348,1.68-2.399
	c2.358-5.696,0.229-13.817-4.8-12.001c-2.262,0.816-3.336,3.049-4.08,6C71.707,64.216,71.664,64.021,71.469,63.976z M71.948,58.455
	c2.025,0.47,3.414-1.414,5.28-1.92c1.884-0.511,3.397,0.399,5.521,0C82.312,50.638,73.449,54.342,71.948,58.455z"/>
<path fill="#D2D4D0" d="M69.789,64.694c0.175-0.545-0.434-1.873,0.479-1.68c0,0.48,0,0.961,0,1.44
	C70.074,64.501,70.029,64.696,69.789,64.694z"/>
<path fill="#CAB278" d="M91.63,76.456c0.695-1.354-0.461-1.003-0.479-2.16c-0.047-2.855,4.807-10.082,7.921-5.521
	C102.174,73.319,96.313,79.41,91.63,76.456z M98.83,69.976c-3.019-2.215-7.676,1.657-6,4.32c0.488-0.936,0.984-2.91,2.641-3.359
	c1.066,0.531,1.552,1.648,1.92,2.881c0.901-1.428,0.839-2.045,0-3.361C98.027,70.452,98.804,70.589,98.83,69.976z"/>
<path fill="#333731" d="M72.188,87.257c-0.694-0.745-1.961-0.919-2.16-2.159c2.13,1.399,4.577-0.34,6.48,0.959
	c1.262-0.291,3.091-3.199,4.319-1.199c-2.646,0.641-4.006,3.668-6.72,1.681C73.278,86.587,72.832,87.02,72.188,87.257z"/>
<path fill="#333731" d="M84.43,95.178c-0.531,0.395-1.72,0.985-2.4,0.48c2.018-1.088,0.517-5.479,3.12-5.28
	c0.442,0.42,0.029,0.833-0.72,0.72C85.328,92.583,84.36,93.313,84.43,95.178z"/>
<path fill="#333731" d="M68.108,102.857c-1.601,2.582-3.628-1.062-5.521-1.199c-0.17-0.571-0.635-2.227,0.239-2.4
	c0.888,0.074,0.421,1.5,0.96,1.922c0.875-0.074,1.563,0.037,2.16,0.238C66.069,102.497,66.691,103.075,68.108,102.857z"/>
<path fill="#CAB278" d="M100.751,105.738c0.11,0.752-0.209,1.072-0.96,0.961C100.074,106.343,99.998,105.627,100.751,105.738z"/>
<path fill="#D2D4D0" d="M112.992,108.859c-0.214,1.306-1.018,2.021-1.92,2.64c-0.972-1.429-2.848-1.953-3.12-4.08
	C110.062,107.471,111.539,108.15,112.992,108.859z"/>
<path fill="#D2D4D0" d="M91.15,119.9c0.651,0.867,1.125,1.914,2.4,2.16c-0.764,0.996-0.633,2.887-1.2,4.08c-0.801,0-1.601,0-2.4,0
	c-0.22-1.062-1.354-1.207-1.681-2.16c-0.778-0.899,1.089-0.689,0.961-1.682c0-0.078,0-0.158,0-0.238
	C90.232,121.682,89.616,119.021,91.15,119.9z"/>
<path fill="#333731" d="M108.672,126.141c-0.13-0.85,0.85-0.59,0.72-1.439c-1.825-0.975-2.453-3.146-4.32-4.08
	c-0.739,1.102-1.354,2.324-2.399,3.119c0.266,1.176,1.457,1.424,1.921,2.4c-0.48,0-0.961,0-1.44,0c0-0.08,0-0.16,0-0.24
	c-0.351-1.062-1.858-1.262-1.92,0.24c-2.961,0-5.921,0-8.881,0c0.567-1.193,0.438-3.082,1.2-4.08c-1.275-0.246-1.749-1.291-2.4-2.16
	c-0.158-0.321-0.514-0.446-0.96-0.479c-0.404,0.797-0.591,1.81-0.96,2.642c0,0.08,0,0.16,0,0.238
	c-0.572,0.148-0.395,1.047-1.439,0.721c-0.335-0.306-0.104-1.176-0.721-1.199c-0.591,0.617,0.257,1.152,0.721,1.439
	c-0.014,0.412,0.185,0.615,0.479,0.721c0.327,0.953,1.461,1.1,1.681,2.16c-0.479,0-0.96,0-1.439,0c0-0.08,0-0.16,0-0.24
	c-1.059-0.543-1.385-1.815-2.641-2.16c-0.702,0.816-1.578,1.461-2.16,2.4c-0.801,0-1.601,0-2.4,0
	c-0.642-1.358-1.777-2.225-2.88-3.121c-0.926,0.914-1.736,1.944-2.4,3.121c-0.56,0-1.12,0-1.68,0c0-0.08,0-0.16,0-0.24
	c-1.167-1.073-1.975-2.506-3.36-3.36c-0.546,1.333-2.678,2.231-2.399,3.601c-0.641,0-1.28,0-1.92,0c0-0.08,0-0.16,0-0.24
	c-0.818-0.7-1.32-1.719-2.4-2.159c-0.645,0.795-1.392,1.487-1.92,2.399c-2.32,0-4.64,0-6.96,0c0.059-0.957,0.238-2.23,0.72-3.601
	c-0.383-0.577-0.655-1.265-1.439-1.438c-0.826,0.773-1.563,1.637-2.16,2.64c0.156,1.125,1.057,1.503,1.439,2.399
	c-0.479,0-0.96,0-1.439,0c0-0.08,0-0.16,0-0.24c-0.295-0.104-0.493-0.307-0.48-0.719c-0.903-0.104-1.093,0.506-1.439,0.959
	c-0.4,0-0.8,0-1.2,0c0.459-0.66,0.98-1.259,1.439-1.92c-0.978-1.103-1.87-2.289-3.119-3.119c-0.472,0.89-1.11,1.608-1.681,2.398
	c0.44,1.16,1.572,1.628,2.16,2.641c-0.56,0-1.12,0-1.68,0c0-0.08,0-0.16,0-0.24c-0.98-1.277-1.86-1.235-2.64,0.24
	c-0.48,0-0.961,0-1.44,0c1.272-0.939,2.779-3.148,0.24-3.841c-0.063,1.253-1.071,2.474-1.681,3.841c-0.399,0-0.8,0-1.199,0
	c1.289-3.846,5.27-11.136,9.36-13.92c4.47-3.043,10.466-1.9,14.401-5.521c-1.146-0.848-3.67,0.283-5.28-0.24
	c-0.322-2.064-2.95-2.044-2.641-4.08c-0.85,0.129-1.236-0.204-1.44-0.721c-0.328-0.473-0.229-1.371-0.479-1.92
	c-0.48,0-0.96,0-1.44,0c-1.738-2.389-0.616-6.114-1.92-9.121c0.057-0.982,0.815-1.266,0.96-2.16c-0.883-3.146,2.91-3.634,3.36-6.24
	c-0.557-0.564-1.62-0.619-1.681-1.68c0.899-3.492,7.292-0.516,7.682-4.801c0.146-0.014,0.284-0.036,0.239-0.24
	c0.354-1.485,1.299-2.382,2.641-2.88c0.627-3.051-0.708-6.979-0.24-11.281c-3.626,1.331-2.937-1.916,0.24-2.641
	c-2.958-0.883-6.252-1.428-7.921-3.6c2.448-2.912,7.36-3.359,10.081-6c0.169-2.082,0.585-2.787,1.199-4.08
	c0.134,0,0.272-0.195,0-0.24c1.565-3.315,4.769-4.994,5.761-8.881c-0.797-1.979-1.226-2.666-0.48-4.561
	c0.738-0.063,1.08-0.521,1.681-0.721c0,0.134,0.193,0.273,0.239,0c3.182,1.072,7.149,1.216,10.321,0
	c-0.001,0.134,0.194,0.273,0.24,0c5.505-0.588,2.873,5.656,4.8,7.682c1.929-3.58,1.195-7.861,0.721-11.761
	c0.513-0.767,1.079-1.481,1.92-1.921c0.32,0.24,0.473,0.65,0.96,0.721c-0.037-0.678,0.68-0.602,0.96-0.96
	c0.566,1.44,2.303,0.526,3.602,1.44c-0.001,0.133,0.194,0.271,0.24,0c2.299,1.678,5.135,3.354,5.76,6
	c-4.091,2.869-8.462,5.459-11.28,9.601c7.998-2.001,11.557,4.625,8.4,10.081c-1.315,2.273-4.549,2.746-3.36,5.521
	c1.846-0.531,2.886,0.656,3.841,1.68c0.07,0.224,0.649,0.224,0.721,0c3.181,0.334,2.307,4.328,1.199,5.521
	c0.896,0.257,0.685-0.596,1.44-0.479c0.057,0.342,0.395,0.404,0.479,0.72c-0.036,0.923-0.53,1.39-0.96,1.92
	c1.002,0.583,1.177-0.647,1.92,0c0.006,1.776-2.21,2.64-2.88,4.08c0.155-0.334,0.232,1.008,0.24,0.96
	c-0.19,1.163-1.608,0.732-2.641,1.92c-0.46,0.53-0.35,1.471-0.721,1.92c-1.707,2.067-4.788,3.291-7.439,3.12
	c-0.366,4.342-0.039,6.838-0.24,9.842c0.361,0.77,0,3.084,0.479,3.84c0,0.801,0,1.602,0,2.4c2.861,0.932,4.03,3.604,3.841,5.762
	c1.452,1.026,2.723,2.236,4.08,3.359c-0.001,0.133,0.193,0.271,0.239,0c2.189,1.365,6.697-0.295,7.682,2.641
	c8.706,1.528,13.978,5.055,15.841,13.2c0.488,2.136,0.324,4.642,1.44,6.722c-0.881,0-1.761,0-2.641,0
	c-0.598-1.164-1.89-1.631-2.399-2.881c-1.375,0.545-1.883,1.959-2.882,2.881c-0.56,0-1.119,0-1.68,0
	c-0.691-1.709-2.43-2.371-3.359-3.842c-1.058,0.465-1.129,1.913-2.16,2.4c0.134,0.666,0.826,0.773,0.96,1.439
	C110.752,126.141,109.712,126.141,108.672,126.141z M91.15,26.532c-0.115,1.463,0.555,1.451,0.24,2.641
	c1.414-0.455,1.15,0.77,1.92,0.96c0.619-0.021,0.252-1.028,1.2-0.72c0.354,0.204,0.516,0.604,0.479,1.199
	c0.761,0.041,0.804-0.637,1.682-0.479c0.275,0.284,0.271,0.849,0.239,1.44c1.021-0.143,1.682,0.08,1.439,1.199
	c1.874,0.549,2.364-0.344,3.841-0.719c0-0.4,0-0.801,0-1.201c-0.966-0.154-1.729-0.511-1.439-1.92
	c-1.566-0.354-2.852-0.99-3.602-2.16C94.996,26.905,93.164,25.665,91.15,26.532z M90.91,38.054c-0.602,0.998-0.806,2.395-1.199,3.6
	c1.783-0.215,2.389-1.611,2.881-3.119C91.83,38.571,91.789,37.896,90.91,38.054z M71.229,67.335c0.056,1.091,0.354,2.991-0.72,4.32
	c-2.19,2.712-11.407,0.877-8.4,7.2c1.479,3.111,8.691,2.151,10.562,0.24c-0.174-0.734,0.414-0.705,0.239-1.439
	c-0.457-1.063-2.145-0.896-2.64-1.92c2.764-0.751,2.986,2.121,6.24,0.72c1.152,0.928,3.078,1.083,4.561,1.681
	c1.545-2.244,2.789-0.854,5.28-2.16c-0.033-1.077-0.437-3.053,0.96-4.319c-2.193-1.17,0.305-3.984,0.721-5.521
	c-2.04-4.464,3.551-10.355,8.16-8.16c0.528-8.092-8.613-9.543-13.921-6.961c0.746,0.967,2.113,0.5,1.68,1.92
	c-5.618-3.472-10.618,3.088-17.761,3.602c-0.391,0.568-0.532,1.388-0.72,2.16c2.392-0.444,4.192,1.914,6.001,2.16
	c-0.432,0.678,0.158,1.543,0,3.119C71.594,65.3,71.33,66.237,71.229,67.335z M102.671,62.774c1.629-1.891-1.021-3.407-2.641-2.879
	c-0.151-2.875-3.006-1.654-4.319-0.721c-3.601-1.992-6.952,1.614-7.201,5.28c0.285,0.756,1.399,0.68,1.439,1.68
	c-0.597,0.443-1.354,0.726-1.681,1.44c0.419,0.217,0.925,0.537,0.479,0.96c-0.615,0.344-1.273,0.646-1.439,1.44
	c0.48,0.398,1.116,0.645,1.2,1.439c0.043,0.843-0.812,0.789-0.96,1.439c1.179,0.15-0.089,1.332-0.479,1.439
	c0.269,0.928,0.729,0.947,0.72,1.681c-1.162,1.536-2.474,1.635-5.041,1.92c-0.775,2.063-5.185,0.791-6.721-0.479
	c-0.732-0.173-0.875,0.246-1.439,0.239c-1.391,4.82-10.315,5.811-13.201,1.682c-0.201-0.52-0.622-0.818-0.48-1.682
	c-0.601-0.041-0.751,0.369-0.96,0.721c-1.401,1.829-4.946,0.277-5.761,2.4c0.492,0.389,1.573,0.188,1.92,0.721
	c0,0.72,0,1.439,0,2.16c1.04,0.08,2.514-0.274,2.88,0.479c-0.29,0.051-0.146,0.268,0,0.48c-1.425-0.162-2.86,0.322-3.84-0.721
	c-1.192,0.491-0.546,1.149-0.72,1.92c-2.517,0.229-2.626,1.488-1.68,3.121c-0.698,0.422-1.402,0.838-1.2,2.16
	c0.429,0.449,0.856,0.902,1.2,1.439c-0.595,0.285-0.938,0.82-1.2,1.439c0.422,0.617,1.044,1.035,1.439,1.68
	c-0.552,1.101-0.542,1.39-0.96,2.4c1.489,0.887,3.346,0.649,3.36,3.359c1.044,0.013,1.104-0.359,1.68,0.24
	c-0.192,0.449-0.401,0.879-0.479,1.439c0.708,0.715,0.972,0.098,1.68,0.48c0.323,0.557,0.396,1.361,0.72,1.92
	c1.634,0.186,2.542,0.668,4.081-0.24c1.408,0.893,3.129,2.275,4.562,2.4c0.731-0.389,0.805-1.437,1.92-1.44
	c1.448-0.009,1.622,1.259,3.12,1.2c0.478-0.563,0.825-1.254,1.68-1.439c1.283,0.688,3.753,1.178,4.32-0.479
	c1.567,0.255,4.267-0.929,3.121-3.36c0.728-0.792,2.756-0.283,3.359-1.199c0.175-0.734-0.414-0.707-0.239-1.44
	c2.245,0.209,3.134-2.579,1.439-3.601c0.946-0.494,1.57-0.313,2.399-1.199c0.175-0.733-0.244-0.875-0.239-1.44
	c0.601-0.84,1.668-1.213,1.681-2.642c-0.219-0.979-1.132-1.268-1.2-2.398c0.354-0.846,0.946-1.455,1.439-2.16
	c-0.383-0.337-0.612-0.826-0.72-1.439c1.861-1.19,0.117-3.122-0.721-4.32c0.286-0.754,1.324-0.756,1.439-1.682
	c-1.046-1.356,0.565-2.961-0.721-4.079c1.52-1.086,0.668-2.143,1.2-3.602c2.171-5.927,9.93-6.283,10.802,0.721
	c1.142-0.174,0.396-0.982,0.479-1.92c0.828-0.771,1.991-1.209,2.4-2.399c-0.498-0.144-1.577,0.297-1.682-0.24
	c0.489-0.997,0.6-0.881,0.96-1.92c-0.733-0.174-0.705,0.414-1.438,0.24C101.373,64.592,102.478,63.714,102.671,62.774z
	 M69.789,64.694c-0.358,1.353-0.364,1.908-1.2,2.4c-2.677,1.573-2.997-3.205-2.641-5.761c-0.479,0-0.96,0-1.439,0
	c-0.615,3.462-0.634,9.926,3.121,10.562c3.223-1.145,2.225-3.763,2.64-7.44c0-0.479,0-0.96,0-1.44
	C69.355,62.823,69.964,64.149,69.789,64.694z M67.868,63.976c-0.143-0.498,0.298-1.578-0.239-1.681
	C67.175,62.886,66.792,63.866,67.868,63.976z M99.071,68.774c-3.114-4.562-7.968,2.664-7.921,5.521
	c0.02,1.157,1.176,0.807,0.479,2.16C96.313,79.41,102.174,73.319,99.071,68.774z M64.268,72.136c0.457,0.45,0.604,0.026,1.2,0
	c0.073-0.632-0.332-0.787-0.96-0.72C64.518,71.746,64.395,71.942,64.268,72.136z M91.391,81.497c0-0.479,0-0.96,0-1.44
	c-0.24,0-0.48,0-0.721,0C90.58,80.868,91.086,81.081,91.391,81.497z M91.391,89.656c0.014-1.053-0.097-1.982-0.48-2.639
	c-1.013,0.446-0.825,2.15,0,2.639c0.502,0.959,0.377,1.484,0,2.4c-1.724,0.984-0.482,3.963-2.88,4.562
	c0.584,1.485-0.028,3.36-1.681,3.36c0.014,1.434-1.356,2.967-3.36,3.119c0.138,3.418-3.668,2.893-5.041,4.801
	c0.31,0.248,0.618,2.523-0.239,2.399c-1.023-0.844-0.771-2.864-2.881-3.12c2.543,3.586-1.22,8.151,1.2,12.241
	c3.853-2.42,3.761-7.916,5.281-12.241c2.149-2.259,6.942-4.691,9.36-7.199c2.311-2.396,0.978-4.746,0.96-8.162
	C91.64,90.8,91.517,89.916,91.391,89.656z M93.07,95.898c-0.244,1.043,0.497,1.104,0.721,1.68c-0.718,0.322-1.061,1.02-1.199,1.92
	c1.111,0.538,0.96,0.971,1.68,1.682C96.916,100.159,94.605,96.423,93.07,95.898z M89.47,102.379c0.916,0.523,0.989,1.891,2.16,2.16
	c0.788-0.732,1.771-1.27,2.159-2.4c-0.288-1.07-1.201-1.518-1.92-2.16C91.257,100.966,90.228,101.536,89.47,102.379z
	 M98.591,105.738c0.705-0.157,1.636-0.885,1.2-1.439c-1.508-0.813-2.282-2.357-3.842-3.119
	C95.159,103.447,97.967,104.096,98.591,105.738z M90.91,105.499c-0.774-0.824-1.67-1.531-2.159-2.642
	c-1.245,0.836-2.528,1.633-3.36,2.881c0.947,0.973,1.688,2.152,2.88,2.881C89.303,107.732,90.178,106.688,90.91,105.499z
	 M93.551,106.699c0.346,1.254,1.669,1.529,2.16,2.64c1.55-0.289,1.574-2.104,2.64-2.88c-1.588-0.572-1.567-2.753-3.36-3.12
	C94.246,104.652,94.582,105.617,93.551,106.699z M99.791,106.699c0.751,0.111,1.07-0.209,0.96-0.961
	C99.998,105.627,100.074,106.343,99.791,106.699z M82.029,108.619c1,1.398,2.224,2.578,3.36,3.84c0.707-1.053,1.563-1.957,2.16-3.12
	c-1.155-1.004-1.96-2.36-3.36-3.12C83.33,106.88,82.568,107.639,82.029,108.619z M91.15,111.499c0.125-1.753,1.499-3.409,0.96-5.04
	C89.589,107.541,88.123,110.23,91.15,111.499z M71.229,112.939c0.555-1.045,1.487-1.713,2.4-2.4
	c-1.152-0.928-1.936-2.227-3.121-3.12C68.623,108.563,69.164,112.468,71.229,112.939z M107.952,107.419
	c0.272,2.127,2.148,2.651,3.12,4.08c0.902-0.617,1.706-1.334,1.92-2.64C111.539,108.15,110.062,107.471,107.952,107.419z
	 M96.912,109.818c-0.181,0.738,0.657,0.461,0.479,1.201c1.162-0.438,1.292-1.91,1.92-2.881c-0.051-0.27-0.266-0.373-0.479-0.479
	C97.928,108.115,97.789,109.336,96.912,109.818z M73.389,108.139c-0.453,0.481,0.295,1.116,0.96,1.2
	C74.348,108.621,73.918,108.33,73.389,108.139z M92.351,113.42c1.488-0.592,2.1-2.063,2.88-3.359
	c-0.729-0.553-0.838-1.724-2.16-1.682C93.378,109.717,91.558,111.959,92.351,113.42z M105.312,112.459
	c0.837,1.084,1.667,2.173,2.88,2.881c0.629-1.212,1.749-1.934,2.4-3.119c-1.112-1.209-2.188-2.453-3.602-3.361
	C106.297,110.438,106.187,111.111,105.312,112.459z M119.713,112.459c-0.824-1.283-3.41-3.273-4.801-2.398
	C116.712,110.945,117.848,115.129,119.713,112.459z M82.51,110.779c-0.029-0.61-0.35-0.932-0.96-0.961
	c-0.067,0.629,0.088,1.033,0.72,0.961c0.628,1.052,1.358,2.002,2.16,2.88C85.131,112.242,83.097,111.689,82.51,110.779z
	 M55.146,111.98c-0.075,0.652,2.848,2.756,3.121,2.879c1.145-0.937,1.479-2.682,2.64-3.6
	C60.055,109.242,55.307,110.588,55.146,111.98z M112.032,112.459c0.024,0.463,0.896-0.372,1.2,0.24
	c-0.443,1.688,1.894,2.555,2.4,4.08c4.202-1.973,0.11-4.803-2.161-6.721C113.166,111.033,112.064,111.212,112.032,112.459z
	 M88.27,110.539c-0.794,0.886-1.672,1.688-2.16,2.881c1.368,0.952,2.274,2.366,3.602,3.359c0.212-1.418,0.666-2.1,0.96-3.84
	C89.89,112.12,89.373,111.038,88.27,110.539z M95.711,115.1c0.545-1.021,0.198-1.841,1.438-2.879
	c-0.298-0.503-0.696-0.902-1.2-1.201c-0.375,1.306-1.805,1.557-2.16,2.881C93.051,114.669,95.398,116.803,95.711,115.1z
	 M49.627,113.659c0.551,0.329,0.771,0.987,1.199,1.44c1.429-0.576,2.662-2.615,2.881-3.602
	C52.23,112.104,50.517,112.469,49.627,113.659z M71.948,114.141c0.616,0.584,0.834,1.564,1.92,1.68
	c0.354-1.598-0.114-2.777,0.48-3.84C72.764,111.914,72.527,113.197,71.948,114.141z M81.55,111.98
	c-0.107,1.371-2.173,5.199,0.239,5.039c0.527-0.033,1.275-1.629,1.681-2.399C82.639,113.932,82.537,112.512,81.55,111.98z
	 M67.868,113.42c-0.094-0.343-0.288-0.404,0-0.721c-0.547-0.066-0.901,0.058-0.96,0.48c0.27,0.051,0.374,0.266,0.48,0.479
	c-0.219,0.421-0.446,0.834-1.2,0.721c-0.063,1.423,0.763,1.957,1.44,2.641C67.893,115.361,67.687,114.43,67.868,113.42z
	 M54.187,112.699c-0.202,1.719-2.048,1.793-2.16,3.601c0.999,0.841,1.354,2.328,2.88,2.642c0.949-0.892,1.756-1.926,2.4-3.121
	C56.18,114.867,55.683,113.284,54.187,112.699z M69.309,114.619c0.099-0.301,0.31-0.49,0.72-0.479
	c0.063-0.783-0.285-1.156-0.96-1.201C69.385,113.691,68.923,114.266,69.309,114.619z M108.912,116.3
	c0.484,0.556,0.798,1.282,1.681,1.44c-0.017-1.717,2.104-3.242,0.72-4.801C110.466,114.014,109.487,114.955,108.912,116.3z
	 M119.232,114.619c1.262,0.898,2.208,2.113,3.36,3.121c-0.114-1.329-1.037-3.922-2.641-4.561
	C119.856,113.805,119.236,113.902,119.232,114.619z M103.151,117.5c0.686,0.516,1.256,1.145,2.16,1.439
	c0.764-0.836,1.707-1.492,1.92-2.881c-0.99-0.77-1.216-2.305-2.88-2.399C104.205,115.422,103.434,116.021,103.151,117.5z
	 M48.427,114.38c-0.83,0.851-1.384,1.976-2.4,2.64c0.444,0.996,1.11,1.771,1.92,2.4c0.652-1.268,1.841-2,2.4-3.359
	C49.778,115.428,49.394,114.613,48.427,114.38z M84.91,114.38c0.843,2.156,1.678,2.836,2.399,5.04
	c3.603-1.329-0.334-3.795-1.92-5.279C85.337,114.326,85.188,114.419,84.91,114.38z M112.752,114.859
	c-1.096,1.731-2.101,5.853,0,5.761c1.119-0.05,1.407-2.576,2.641-3.12C114.555,116.577,113.83,115.54,112.752,114.859z
	 M70.988,115.1c-0.332,1.314-2.473,2.086-2.399,3.121c0.068,0.984,2.004,1.316,2.64,2.399c0.618-1.224,1.752-1.929,2.4-3.12
	C72.496,116.952,72.5,115.27,70.988,115.1z M92.591,115.34c-0.645,0.956-1.664,1.536-1.921,2.881
	c1.445,0.276,1.813,2.768,3.359,2.159C94.417,118.831,95.293,115.802,92.591,115.34z M118.753,115.34
	c-1.07,0.29-1.464,1.256-1.921,2.16c1.186,1.863,2.474,2.854,3.841,4.08c0.479-0.88,1.319-1.398,1.68-2.4
	C121.078,117.975,119.838,116.734,118.753,115.34z M82.27,117.98c1.504,1.057,2.395,2.728,4.08,3.601
	c0.122-2.476-1.561-4.118-2.64-5.761C83.351,116.66,82.666,117.176,82.27,117.98z M77.47,120.38c1.387,1.606,2.591-1.428,3.36-2.64
	c-0.218-0.424-0.537-0.743-0.961-0.961C78.993,117.904,77.974,118.884,77.47,120.38z M48.906,120.38
	c1.051,0.789,1.498,2.183,2.881,2.642c0.663-1.098,1.707-1.813,2.159-3.121c-1.168-0.752-1.841-1.998-2.88-2.881
	C50.446,118.123,48.784,119.318,48.906,120.38z M63.789,120.141c0.87,0.219,0.146,0.709,0.239,1.439
	c1.587-0.653,2.312-2.17,3.12-3.602c-0.558-0.162-0.642-0.797-1.2-0.959C65.205,118.036,64.832,119.424,63.789,120.141z
	 M106.031,120.141c1.444,0.797,2.209,2.271,3.602,3.121c0.513-1.835,0.818-5.236-1.44-6.002
	C107.326,118.074,106.431,118.859,106.031,120.141z M55.627,120.141c0.41,0.229,0.483,0.797,0.96,0.961
	c-0.025-1.027,0.357-1.51,0.72-2.642c-0.051-0.271-0.266-0.374-0.48-0.479C56.732,119.005,55.766,119.158,55.627,120.141z
	 M113.472,121.58c0.108,1.218,3.132,2.421,4.081,3.602c0.667-1.094,1.855-1.664,2.16-3.121c-1.54-0.94-2.349-2.613-3.602-3.84
	C115.787,119.098,113.397,120.736,113.472,121.58z M45.307,122.54c0.864-0.575,1.236-1.644,1.92-2.399
	c-0.323-0.638-1.2-0.722-1.2-1.681C43.521,118.71,42.666,122.081,45.307,122.54z M102.191,119.18
	c0.406,1.063-0.384,2.316-0.479,3.602c1.356-0.643,2.085-1.916,2.881-3.12c-0.629-0.332-0.761-1.16-1.681-1.2
	C102.955,118.982,102.715,119.225,102.191,119.18z M82.27,119.42c0.01-0.33-0.113-0.527-0.24-0.72
	c-1.377,0.622-1.787,2.213-2.88,3.12c1.284,1.275,2.231,2.889,3.84,3.84c0.495-1.266,1.763-1.758,2.16-3.12
	c-0.453-0.026-0.166-0.793-0.72-0.72C83.964,120.766,83.11,120.1,82.27,119.42z M74.828,124.7c0.052,0.271,0.268,0.374,0.48,0.479
	c0.534-1.386,1.881-1.959,2.4-3.359c-1.511-0.73-2.966-1.516-3.841-2.881c-0.732,0.867-1.604,1.597-1.92,2.881
	c0.319,0.24,0.894,0.227,0.96,0.72C73.468,123.342,74.144,124.025,74.828,124.7z M67.868,119.18
	c-0.898,1.182-2.013,2.148-2.64,3.602c0.931,0.669,1.659,1.541,2.4,2.4c0.459-1.781,2.372-2.109,2.64-4.08
	C69.043,120.887,68.988,119.5,67.868,119.18z M121.393,122.3c0.918,0.843,1.455,2.065,2.641,2.642
	c-0.096-1.289-0.255-3.084-0.72-4.562c-0.24,0-0.479,0-0.721,0C122.7,121.527,121.565,121.434,121.393,122.3z M111.312,122.779
	c0.401-0.027-0.272-1.022,0.721-0.959c0.04-0.602-0.368-0.752-0.721-0.961C111.423,121.186,110.478,122.729,111.312,122.779z"/>
<path fill="#D2D4D0" d="M76.028,59.415c6.708-1.986,5.388,13.234,0.48,13.441c-1.299,0.054-2.896-1.726-3.36-2.881
	C72.277,67.806,72.139,60.565,76.028,59.415z M78.909,67.576c1.511-1.238,0.608-7.122-1.92-5.761c-1.325,0.713-1.919,4.402-0.479,6
	C77.393,68.248,77.762,67.795,78.909,67.576z"/>
<path fill="#D2D4D0" d="M70.269,64.455c-0.416,3.679,0.583,6.297-2.64,7.44c-3.754-0.636-3.735-7.1-3.121-10.562
	c0.479,0,0.96,0,1.439,0c-0.356,2.556-0.035,7.334,2.641,5.761c0.836-0.492,0.842-1.048,1.199-2.4
	C70.029,64.696,70.074,64.501,70.269,64.455z"/>
<path fill="#D2D4D0" d="M114.912,110.061c1.392-0.875,3.978,1.115,4.802,2.398C117.848,115.129,116.712,110.945,114.912,110.061z"/>
<path fill="#D2D4D0" d="M48.187,126.141c-0.588-1.013-1.72-1.479-2.16-2.641c0.57-0.79,1.209-1.51,1.681-2.398
	c1.25,0.83,2.142,2.018,3.119,3.119c-0.459,0.661-0.98,1.26-1.439,1.92C48.986,126.141,48.587,126.141,48.187,126.141z"/>
<path fill="#D2D4D0" d="M53.946,126.141c-0.383-0.896-1.284-1.275-1.439-2.4c0.597-1.002,1.334-1.864,2.16-2.639
	c0.784,0.174,1.058,0.861,1.439,1.438c-0.481,1.369-0.662,2.644-0.72,3.601C54.907,126.141,54.428,126.141,53.946,126.141z"/>
<path fill="#D2D4D0" d="M111.792,126.141c-0.135-0.666-0.826-0.773-0.96-1.439c1.031-0.487,1.104-1.936,2.159-2.4
	c0.932,1.471,2.668,2.133,3.36,3.842C114.832,126.141,113.313,126.141,111.792,126.141z"/>
<path fill="#333731" d="M82.75,56.535c-2.124,0.399-3.637-0.511-5.521,0c-1.866,0.506-3.255,2.39-5.28,1.92
	C73.449,54.342,82.312,50.638,82.75,56.535z"/>
<path fill="#333731" d="M71.948,64.215c0.744-2.952,1.818-5.185,4.08-6c5.03-1.815,7.158,6.304,4.8,12.001
	c-0.635,0.725-1.246,1.475-1.68,2.4c-3.931,3.509-7.672-1.801-7.441-5.521C72.072,66.536,71.759,65.517,71.948,64.215z
	 M73.148,69.976c0.464,1.156,2.062,2.936,3.36,2.881c4.907-0.207,6.228-15.426-0.48-13.44
	C72.139,60.565,72.277,67.806,73.148,69.976z"/>
<path fill="#CAB278" d="M73.157,219.425c0.492-1.508,1.098-2.903,2.881-3.119c-0.395,1.206-0.599,2.602-1.199,3.601
	C73.959,220.063,73.918,219.387,73.157,219.425z"/>
<path fill="#333731" d="M73.397,195.903c-0.319,0-0.64,0-0.96,0c0.617-1.358,0.867-1.657,1.2-3.12
	C75.375,193.473,73.281,194.666,73.397,195.903z"/>
<path fill="#333731" d="M70.518,194.224c-0.315-0.084-0.378-0.422-0.72-0.48c0.022-0.611,0.894-0.566,1.198-0.24
	C70.913,193.818,70.575,193.88,70.518,194.224z"/>
<path fill="#CAB278" d="M75.078,177.901c-0.239,0-0.479,0-0.721,0c0-0.48,0-0.961,0-1.44
	C74.662,176.877,75.168,177.09,75.078,177.901z"/>
<path fill="#333731" d="M83.479,176.701c-2.188-1.382,1.423-1.397,0.72-2.88C86.051,174.466,83.916,176.089,83.479,176.701z"/>
<path fill="#333731" d="M105.32,173.101C107.747,172.862,105.293,175.317,105.32,173.101L105.32,173.101z"/>
<path fill="#333731" d="M103.16,173.821c-0.266-0.454-0.306-1.135-0.479-1.682c-0.929-0.129-0.988,0.612-1.681,0.721
	c-0.59-0.369-1.631-0.289-1.68-1.199c1.118-0.336,2.18,0.117,3.36-0.48c0.867,0.233,1.829,1.049,0.96,1.682
	c0.349,0.131,1.241-0.281,1.2,0.238C104.858,173.919,103.951,173.812,103.16,173.821z"/>
<path fill="#333731" d="M98.601,172.86c-0.315-0.084-0.378-0.422-0.72-0.479c0.023-0.61,0.895-0.567,1.199-0.239
	C98.995,172.456,98.657,172.519,98.601,172.86z"/>
<path fill="#333731" d="M96.199,172.142c-0.168-0.832,0.842-0.86,1.2-0.479C97.226,172.147,96.678,172.642,96.199,172.142z"/>
<path fill="#333731" d="M111.081,165.899c0.852,0.896,2.061,3.352-0.239,3.602c0.563-1.457,0.016-2.771-1.2-3.12
	c0.004-0.717,0.625-0.815,0.72-1.44c-0.157-1.203-1.469-1.25-2.16-1.92c0.24-0.319,0.396-0.725,0.721-0.961
	c-0.168-1.271-1.166-1.713-2.4-1.92c0.041-1.121,0.618-0.797,0.24-1.92c-0.521-0.839-2.116-0.604-2.16-1.92
	c1.825,0.393,3.5,0.365,3.6,2.881c0.98,0.516,2.215,1.868,1.681,3.119C110.151,162.835,112.541,164.212,111.081,165.899z"/>
<path fill="#333731" d="M106.521,164.7c0.16-1.12-0.866-1.055-1.2-1.68c1.125-0.797,2.354,0.358,2.4,1.438
	C107.441,164.662,107.077,164.776,106.521,164.7z"/>
<path fill="#5F8B9A" d="M73.877,157.979c-0.718-0.644-1.631-1.09-1.92-2.16c0.389-1.133,1.372-1.668,2.16-2.4
	c1.171,0.27,1.244,1.637,2.16,2.16C75.521,156.422,74.491,156.992,73.877,157.979z"/>
<path fill="#5F8B9A" d="M69.798,156.778c-1.56-0.762-2.334-2.307-3.842-3.119c-0.436-0.555,0.495-1.282,1.2-1.439
	C67.781,153.862,70.589,154.511,69.798,156.778z"/>
<path fill="#333731" d="M92.119,154.619c0.524-0.043,0.765,0.196,0.721,0.721c-1.376-0.417-0.905,1.015-1.92,0.96
	C90.328,155.533,91.106,154.532,92.119,154.619z"/>
<path fill="#5F8B9A" d="M81.559,151.739c-1.4-0.76-2.205-2.116-3.36-3.12c0.598-1.163,1.453-2.067,2.16-3.12
	c1.138,1.262,2.36,2.439,3.36,3.84C83.18,150.319,82.418,151.078,81.559,151.739z"/>
<path fill="#5F8B9A" d="M73.638,151.499c-0.539-1.631,0.835-3.287,0.96-5.04C77.625,147.728,76.159,150.417,73.638,151.499z"/>
<path fill="#5F8B9A" d="M95.239,150.539c-1.186-0.896-1.968-2.192-3.121-3.12c0.913-0.688,1.846-1.355,2.4-2.4
	C96.584,145.49,97.125,149.396,95.239,150.539z"/>
<path fill="#5F8B9A" d="M66.918,150.299c-0.215-0.106-0.43-0.211-0.479-0.479c0.628-0.971,0.758-2.442,1.92-2.881
	c-0.179,0.74,0.659,0.463,0.479,1.201C67.959,148.622,67.82,149.843,66.918,150.299z"/>
<path fill="#5F8B9A" d="M72.678,149.579c-1.322,0.042-1.433-1.129-2.16-1.682c0.78-1.299,1.392-2.769,2.88-3.359
	C74.19,145.999,72.37,148.241,72.678,149.579z"/>
<path fill="#5F8B9A" d="M58.757,149.099c-1.413-0.906-2.488-2.152-3.602-3.359c0.651-1.188,1.771-1.908,2.4-3.12
	c1.213,0.708,2.043,1.797,2.88,2.881C59.562,146.847,59.451,147.521,58.757,149.099z"/>
<path fill="#5F8B9A" d="M104.841,146.698c1.161-0.918,1.497-2.663,2.64-3.6c0.273,0.123,3.195,2.227,3.121,2.879
	C110.441,147.37,105.693,148.716,104.841,146.698z"/>
<path fill="#5F8B9A" d="M52.276,147.897c-2.271-1.918-6.363-4.748-2.161-6.719c0.508,1.524,2.844,2.391,2.4,4.079
	c0.306,0.612,1.176-0.223,1.2,0.24C53.684,146.746,52.582,146.925,52.276,147.897z"/>
<path fill="#5F8B9A" d="M112.041,146.459c0.22-0.985,1.452-3.024,2.881-3.601c0.428,0.451,0.648,1.111,1.199,1.439
	C115.231,145.489,113.518,145.854,112.041,146.459z"/>
<path fill="#5F8B9A" d="M45.795,144.778c-1.604-0.641-2.525-3.231-2.641-4.561c1.152,1.008,2.1,2.223,3.36,3.12
	C46.512,144.056,45.892,144.153,45.795,144.778z"/>
<path fill="#5F8B9A" d="M80.358,143.817c-1.586-1.484-5.521-3.95-1.92-5.279c0.723,2.204,1.558,2.884,2.399,5.04
	C80.56,143.539,80.411,143.632,80.358,143.817z"/>
<path fill="#5F8B9A" d="M92.119,140.458c0.648-1.191,1.783-1.896,2.4-3.12c0.636,1.083,2.571,1.415,2.64,2.399
	c0.073,1.035-2.067,1.807-2.399,3.121C93.248,142.688,93.252,141.006,92.119,140.458z"/>
<path fill="#5F8B9A" d="M71.718,137.578c1.547-0.606,1.914,1.883,3.359,2.159c-0.257,1.345-1.276,1.925-1.921,2.881
	C70.455,142.156,71.331,139.127,71.718,137.578z"/>
<path fill="#5F8B9A" d="M82.038,142.14c-1.079-1.644-2.762-3.287-2.64-5.762c1.688,0.873,2.576,2.544,4.08,3.602
	C83.082,140.782,82.397,141.298,82.038,142.14z"/>
<path fill="#5F8B9A" d="M85.879,141.179c-0.424-0.218-0.743-0.537-0.961-0.961c0.77-1.212,1.974-4.246,3.36-2.64
	C87.774,139.074,86.755,140.054,85.879,141.179z"/>
<path fill="#5F8B9A" d="M114.682,140.938c-1.039-0.883-1.712-2.129-2.88-2.881c0.453-1.308,1.497-2.023,2.159-3.121
	c1.383,0.459,1.83,1.853,2.881,2.642C116.964,138.64,115.302,139.835,114.682,140.938z"/>
<path fill="#5F8B9A" d="M99.8,140.938c-0.559-0.164-0.643-0.799-1.2-0.961c0.81-1.431,1.533-2.946,3.12-3.601
	c0.094,0.731-0.631,1.222,0.239,1.44C100.916,138.534,100.543,139.922,99.8,140.938z"/>
<path fill="#5F8B9A" d="M57.557,140.698c-2.26-0.766-1.953-4.167-1.44-6.002c1.393,0.85,2.156,2.324,3.602,3.121
	C59.317,139.099,58.422,139.884,57.557,140.698z"/>
<path fill="#5F8B9A" d="M108.921,139.978c-0.215-0.105-0.43-0.211-0.48-0.479c0.362-1.132,0.745-1.612,0.72-2.642
	c0.478,0.164,0.549,0.731,0.96,0.961C109.982,138.8,109.016,138.953,108.921,139.978z"/>
<path fill="#5F8B9A" d="M49.636,139.737c-1.253-1.227-2.062-2.898-3.602-3.84c0.305-1.457,1.493-2.027,2.16-3.121
	c0.949,1.181,3.974,2.384,4.081,3.602C52.351,137.222,49.961,138.86,49.636,139.737z"/>
<path fill="#5F8B9A" d="M119.722,139.498c0-0.959-0.877-1.043-1.2-1.681c0.684-0.756,1.056-1.824,1.92-2.399
	C123.082,135.877,122.227,139.248,119.722,139.498z"/>
<path fill="#5F8B9A" d="M62.836,139.498c-0.92-0.04-1.052-0.868-1.681-1.2c0.796-1.205,1.523-2.479,2.881-3.119
	c-0.097,1.283-0.887,2.537-0.479,3.6C63.033,138.733,62.793,138.976,62.836,139.498z"/>
<path fill="#5F8B9A" d="M43.155,137.578c-0.239,0-0.479,0-0.721,0c-0.465-1.478-0.624-3.271-0.72-4.562
	c1.186,0.576,1.723,1.799,2.641,2.642C44.183,136.524,43.048,136.431,43.155,137.578z"/>
<path fill="#5F8B9A" d="M54.437,137.099c-0.353-0.209-0.761-0.359-0.721-0.961c0.993,0.063,0.318-0.932,0.721-0.959
	C55.271,135.229,54.325,136.772,54.437,137.099z"/>
<path fill="#5F8B9A" d="M91.399,131.817c1.92,0,3.84,0,5.76,0c0.278,1.369-1.854,2.268-2.399,3.601
	c-1.387-0.854-2.193-2.287-3.36-3.36C91.399,131.978,91.399,131.897,91.399,131.817z"/>
<path fill="#5F8B9A" d="M84.438,131.817c1.76,0,3.521,0,5.281,0c-0.664,1.176-1.475,2.205-2.4,3.119
	C86.216,134.041,85.08,133.177,84.438,131.817z"/>
<path fill="#5F8B9A" d="M99.08,131.817c1.44,0,2.881,0,4.32,0c-0.528,0.912-1.275,1.604-1.92,2.4c-1.08-0.441-1.582-1.46-2.4-2.16
	C99.08,131.978,99.08,131.897,99.08,131.817z"/>
<path fill="#5F8B9A" d="M77.238,131.817c1.601,0,3.2,0,4.8,0c-0.582,0.938-1.458,1.582-2.161,2.4
	c-1.255-0.346-1.581-1.619-2.64-2.16C77.238,131.978,77.238,131.897,77.238,131.817z"/>
<path fill="#5F8B9A" d="M119.241,131.817c0.88,0,1.761,0,2.641,0c-0.78,1.477-1.66,1.519-2.641,0.24
	C119.241,131.978,119.241,131.897,119.241,131.817z"/>
<path fill="#5F8B9A" d="M62.597,131.817c0.641,0,1.28,0,1.92,0c-0.062,1.502-1.569,1.302-1.92,0.24
	C62.597,131.978,62.597,131.897,62.597,131.817z"/>
<path fill="#5F8B9A" d="M113.241,131.817c0.641,0,1.28,0,1.92,0c-0.347,0.453-0.536,1.063-1.439,0.959
	c0.013-0.412-0.186-0.614-0.48-0.719C113.241,131.978,113.241,131.897,113.241,131.817z"/>
<path fill="#D2D4D0" d="M47.716,131.817c-0.999,0.92-1.507,2.334-2.882,2.879c-0.511-1.248-1.803-1.717-2.399-2.879
	C44.195,131.817,45.955,131.817,47.716,131.817z"/>
<path fill="#D2D4D0" d="M61.156,131.817c0.464,0.978,1.655,1.226,1.921,2.4c-1.046,0.795-1.659,2.02-2.399,3.119
	c-1.867-0.934-2.495-3.105-4.32-4.08c-0.13-0.851,0.85-0.591,0.72-1.439C58.437,131.817,59.797,131.817,61.156,131.817z"/>
<path fill="#5F8B9A" d="M76.518,135.897c-0.369,0.83-0.557,1.844-0.96,2.641c-0.446-0.033-0.802-0.158-0.96-0.48
	C76.132,138.937,75.516,136.276,76.518,135.897z"/>
<path fill="#5F8B9A" d="M77.959,134.937c-1.047-0.326-0.868,0.572-1.44,0.722c-0.128-0.991,1.739-0.781,0.961-1.681
	c0.295,0.104,0.492,0.308,0.479,0.72C77.959,134.776,77.959,134.856,77.959,134.937z"/>
<path fill="#CAB278" d="M77.959,134.696c0.463,0.287,1.311,0.822,0.72,1.441c-0.615-0.025-0.386-0.896-0.72-1.201
	C77.959,134.856,77.959,134.776,77.959,134.696z"/>
<path fill="#D2D4D0" d="M124.763,131.817c-0.609,1.367-1.618,2.589-1.681,3.841c-2.539-0.69-1.032-2.9,0.24-3.841
	C123.803,131.817,124.282,131.817,124.763,131.817z"/>
<path fill="#CAB278" d="M94.279,193.983c-0.193-0.046-0.238-0.241-0.479-0.24c0.189-1.3-0.124-2.32,0.239-2.88
	c0.194-0.045,0.239-0.241,0.48-0.24C94.418,191.721,94.154,192.658,94.279,193.983z"/>
<path fill="#5F8B9A" d="M86.599,185.342c-0.435,0.928-1.044,1.677-1.681,2.4C85.227,186.69,85.95,186.056,86.599,185.342z"/>
<path fill="#5F8B9A" d="M104.36,178.621c0.502,0.219,0.732,0.709,0.72,1.44c0.315-0.086,0.377-0.424,0.721-0.479
	c-0.208,0.351-0.359,0.761-0.96,0.72C104.981,179.44,104.562,179.142,104.36,178.621z"/>
<path fill="#5F8B9A" d="M63.316,192.542c1.377,0.462,0.333,2.063-0.239,2.642C63.271,194.244,64.375,193.366,63.316,192.542z"/>
<path fill="#D2D4D0" d="M104.36,178.621c-2.886-4.129-11.811-3.14-13.201,1.681c-0.564-0.006-0.707,0.413-1.439,0.24
	c-1.536-1.271-5.944-2.544-6.722-0.48c-2.566,0.287-3.877,0.385-5.041,1.92c-0.01,0.733,0.452,0.754,0.721,1.682
	c-0.392,0.108-1.658,1.289-0.479,1.439c-0.148,0.65-1.003,0.598-0.96,1.439c0.084,0.796,0.719,1.042,1.2,1.44
	c-0.166,0.794-0.824,1.096-1.44,1.439c-0.443,0.424,0.063,0.743,0.48,0.96c-0.326,0.715-1.084,0.997-1.681,1.44
	c0.04,1,1.154,0.924,1.439,1.68c-0.249,3.666-3.602,7.273-7.201,5.28c-1.313,0.934-4.168,2.155-4.319-0.72
	c-1.618,0.527-4.27-0.989-2.641-2.88c0.572-0.579,1.616-2.179,0.239-2.642c-0.733-0.174-0.705,0.415-1.438,0.24
	c0.36-1.039,0.471-0.923,0.959-1.92c-0.104-0.537-1.183-0.097-1.681-0.24c0.409-1.19,1.572-1.628,2.4-2.399
	c0.083-0.938-0.661-1.747,0.479-1.92c0.872,7.005,8.631,6.647,10.801,0.721c0.533-1.458-0.317-2.516,1.2-3.602
	c-1.286-1.117,0.326-2.723-0.72-4.08c0.115-0.925,1.153-0.927,1.439-1.681c-0.838-1.198-2.582-3.13-0.721-4.32
	c-0.106-0.612-0.337-1.104-0.72-1.438c0.493-0.707,1.085-1.315,1.439-2.161c-0.068-1.132-0.981-1.419-1.2-2.399
	c0.013-1.428,1.08-1.801,1.681-2.641c0.005-0.564-0.414-0.707-0.24-1.439c0.83-0.888,1.454-0.705,2.4-1.201
	c-1.693-1.021-0.806-3.809,1.438-3.6c0.176-0.734-0.413-0.706-0.238-1.439c0.604-0.916,2.632-0.408,3.359-1.201
	c-1.146-2.432,1.553-3.614,3.121-3.359c0.567-1.656,3.037-1.167,4.32-0.479c0.854-0.188,1.202-0.879,1.68-1.44
	c1.499-0.06,1.671,1.209,3.12,1.2c1.115-0.006,1.188-1.053,1.92-1.44c1.433,0.125,3.152,1.509,4.562,2.4
	c1.539-0.908,2.445-0.427,4.081-0.24c0.323,0.558,0.396,1.363,0.72,1.92c0.708,0.384,0.972-0.233,1.68,0.479
	c-0.079,0.563-0.288,0.992-0.479,1.441c0.577,0.6,0.636,0.227,1.68,0.239c0.014,2.71,1.871,2.474,3.36,3.358
	c-0.417,1.013-0.408,1.302-0.96,2.4c0.396,0.645,1.018,1.063,1.439,1.682c-0.262,0.617-0.605,1.152-1.2,1.438
	c0.344,0.537,0.771,0.99,1.2,1.44c0.202,1.322-0.502,1.738-1.2,2.16c0.946,1.631,0.836,2.892-1.68,3.119
	c-0.174,0.771,0.473,1.43-0.72,1.922c-0.979-1.043-2.415-0.56-3.84-0.722c0.146,0.214,0.29,0.431,0,0.479
	c0.366,0.755,1.84,0.4,2.88,0.479c0,0.722,0,1.44,0,2.16c0.348,0.533,1.429,0.332,1.92,0.722c-0.814,2.121-4.359,0.57-5.761,2.399
	c-0.343,0.058-0.405,0.396-0.721,0.479C105.093,179.33,104.862,178.84,104.36,178.621z M105.32,173.101
	C105.293,175.317,107.747,172.862,105.32,173.101L105.32,173.101z M104.841,173.101c0.041-0.521-0.852-0.107-1.2-0.238
	c0.869-0.633-0.093-1.447-0.96-1.682c-1.181,0.598-2.242,0.146-3.36,0.48c0.049,0.911,1.09,0.83,1.68,1.199
	c0.692-0.107,0.752-0.85,1.681-0.721c0.174,0.547,0.214,1.228,0.479,1.682C103.951,173.812,104.858,173.919,104.841,173.101z
	 M99.08,172.142c-0.306-0.328-1.176-0.371-1.199,0.239c0.342,0.058,0.404,0.396,0.72,0.479
	C98.657,172.519,98.995,172.456,99.08,172.142z M82.278,176.461c-1.248-0.368-0.222,1.538-1.68,0.96
	c0.185,0.936-0.706,1.303-1.2,2.161c0.058,0.422,0.413,0.547,0.96,0.479C81.163,179.026,81.686,177.709,82.278,176.461z
	 M73.638,192.783c-0.333,1.463-0.583,1.762-1.2,3.12c0.32,0,0.641,0,0.96,0C73.281,194.666,75.375,193.473,73.638,192.783z
	 M70.997,193.503c-0.306-0.326-1.176-0.371-1.198,0.24c0.342,0.059,0.403,0.396,0.72,0.48
	C70.575,193.88,70.913,193.818,70.997,193.503z M84.198,173.821c0.703,1.48-2.907,1.498-0.72,2.88
	C83.916,176.089,86.051,174.466,84.198,173.821z M91.64,171.421c-2.714-1.988-4.074,1.04-6.72,1.68c1.229,2,3.059-0.908,4.319-1.199
	c1.904,1.3,4.351-0.439,6.48,0.961c-0.199-1.241-1.466-1.416-2.16-2.16C92.916,170.938,92.47,171.371,91.64,171.421z
	 M97.399,171.661c-0.358-0.381-1.369-0.352-1.2,0.479C96.678,172.642,97.226,172.147,97.399,171.661z M109.881,162.3
	c0.535-1.251-0.7-2.604-1.681-3.119c-0.1-2.516-1.774-2.488-3.6-2.881c0.044,1.315,1.639,1.081,2.16,1.92
	c0.377,1.123-0.199,0.799-0.24,1.92c1.234,0.207,2.231,0.648,2.4,1.92c-0.325,0.236-0.48,0.642-0.721,0.961
	c0.691,0.67,2.003,0.717,2.16,1.92c-0.096,0.625-0.716,0.725-0.72,1.44c1.216,0.349,1.763,1.663,1.2,3.12
	c2.3-0.25,1.091-2.706,0.239-3.602C112.569,164.705,111.195,162.763,109.881,162.3z M81.318,166.86
	c-0.749-0.113-1.162,0.3-0.72,0.72c2.604,0.198,1.104-4.192,3.12-5.28c-0.681-0.505-1.869,0.086-2.4,0.48
	C81.388,164.646,80.42,165.375,81.318,166.86z M107.721,164.46c-0.047-1.08-1.275-2.234-2.4-1.439c0.334,0.625,1.36,0.561,1.2,1.681
	C107.077,164.776,107.441,164.662,107.721,164.46z M99.8,156.54c0.599,0.201,1.286,0.313,2.159,0.238
	c0.541,0.422,0.074,1.848,0.961,1.922c0.873-0.174,0.409-1.829,0.239-2.4c-1.893-0.139-3.92-3.781-5.521-1.199
	C99.057,154.883,99.679,155.461,99.8,156.54z M90.92,156.3c1.015,0.055,0.543-1.377,1.92-0.96c0.043-0.524-0.196-0.764-0.721-0.721
	c-0.679-0.584-1.721,0.509-1.68,1.44C90.681,156.06,90.725,156.254,90.92,156.3z"/>
<path fill="#333731" d="M80.358,180.062c-0.547,0.066-0.902-0.059-0.96-0.479c0.494-0.858,1.385-1.228,1.2-2.161
	c1.458,0.578,0.432-1.328,1.68-0.96C81.686,177.709,81.163,179.026,80.358,180.062z"/>
<path fill="#333731" d="M89.239,190.144c1.439,1.597,0.847,5.286-0.479,6c-2.529,1.36-3.431-4.522-1.92-5.762
	C87.986,190.163,88.355,189.71,89.239,190.144z M88.278,193.023c-0.322,0.351-0.491,1.9,0.24,1.92
	C88.842,194.592,89.01,193.042,88.278,193.023z"/>
<path fill="#5F8B9A" d="M98.119,195.663c-0.537-0.104-0.097-1.183-0.239-1.68C98.956,194.092,98.573,195.072,98.119,195.663z"/>
<path fill="#5F8B9A" d="M88.52,194.943c-0.731-0.02-0.563-1.569-0.24-1.92C89.01,193.042,88.842,194.592,88.52,194.943z"/>
<path fill="#333731" d="M68.357,187.502c-0.839-1.315-0.901-1.934,0-3.36c0.368,1.23,0.854,2.349,1.92,2.881
	c1.655-0.45,2.151-2.426,2.641-3.36c1.676,2.663-2.981,6.536-6,4.32C66.944,187.369,67.721,187.506,68.357,187.502z"/>
<path fill="#CAB278" d="M101.24,186.542c-0.628,0.067-1.033-0.088-0.96-0.72c0.597-0.026,0.743-0.45,1.2,0
	C101.354,186.017,101.23,186.212,101.24,186.542z"/>
<path fill="#CAB278" d="M74.838,168.302c0.825,0.487,1.013,2.191,0,2.639c-0.385-0.655-0.494-1.586-0.48-2.639
	C74.518,168.302,74.678,168.302,74.838,168.302z"/>
<path fill="#5F8B9A" d="M74.838,168.302c-0.16,0-0.32,0-0.48,0c-0.126-0.26-0.249-1.144-0.239-2.16
	c0.295,0.268,0.492,0.209,0.479-0.24c0.08,0,0.16,0,0.24,0C74.461,166.815,74.336,167.343,74.838,168.302z"/>
<path fill="#5F8B9A" d="M111.081,165.899c1.46-1.688-0.93-3.064-1.199-3.601C111.195,162.763,112.569,164.705,111.081,165.899z"/>
<path fill="#CAB278" d="M74.118,166.142c-0.018-3.416-1.351-5.767,0.96-8.162c2.418-2.508,7.211-4.94,9.36-7.199
	c1.521-4.325,1.429-9.821,5.281-12.241c2.42,4.09-1.343,8.655,1.2,12.241c-2.11-0.256-1.857-2.276-2.881-3.12
	c-0.857-0.124-0.549,2.151-0.239,2.399c-1.373,1.907-5.178,1.383-5.041,4.801c-2.003,0.152-3.374,1.687-3.36,3.119
	c-1.651,0-2.265,1.875-1.681,3.36c-2.396,0.599-1.156,3.576-2.88,4.562c-0.08,0-0.16,0-0.24,0
	C74.61,166.351,74.413,166.408,74.118,166.142z"/>
<path fill="#D2D4D0" d="M71.478,156.778c0.72,0.711,0.567,1.144,1.68,1.682c-0.14,0.9-0.481,1.598-1.198,1.92
	c0.223,0.576,0.964,0.637,0.72,1.68C71.143,161.535,68.832,157.799,71.478,156.778z"/>
<path fill="#5F8B9A" d="M92.119,154.619c-1.013-0.087-1.791,0.914-1.199,1.681c-0.195-0.046-0.239-0.24-0.48-0.24
	C90.397,155.128,91.44,154.035,92.119,154.619z"/>
<path fill="#D2D4D0" d="M77.479,149.339c1.191,0.729,1.933,1.908,2.88,2.881c-0.832,1.248-2.115,2.045-3.36,2.881
	c-0.489-1.109-1.385-1.816-2.159-2.642C75.57,151.271,76.445,150.226,77.479,149.339z"/>
<path fill="#D2D4D0" d="M70.758,154.619c-1.793-0.367-1.772-2.548-3.36-3.12c1.063-0.775,1.09-2.591,2.64-2.88
	c0.491,1.108,1.814,1.386,2.16,2.64C71.166,152.341,71.502,153.306,70.758,154.619z"/>
<path fill="#5F8B9A" d="M91.399,148.619c0.665,0.084,1.413,0.719,0.96,1.2C91.83,149.628,91.4,149.337,91.399,148.619z"/>
<path fill="#5F8B9A" d="M83.238,147.179c-0.587-0.908-2.622-1.463-1.92-2.88c0.802,0.878,1.532,1.828,2.16,2.88
	C83.398,147.179,83.318,147.179,83.238,147.179z"/>
<path fill="#D2D4D0" d="M83.479,147.179c0.632-0.072,0.788,0.332,0.72,0.961c-0.61-0.029-0.931-0.351-0.96-0.961
	C83.318,147.179,83.398,147.179,83.479,147.179z"/>
<path fill="#D2D4D0" d="M75.078,145.019c0.294-1.74,0.748-2.422,0.96-3.84c1.326,0.993,2.232,2.407,3.602,3.359
	c-0.488,1.193-1.366,1.995-2.16,2.881C76.375,146.92,75.858,145.838,75.078,145.019z"/>
<path fill="#5F8B9A" d="M71.959,144.06c-0.021-1.15-1.199-2.144-1.922-1.201C70.35,141.155,72.697,143.289,71.959,144.06z"/>
<path fill="#D2D4D0" d="M71.959,144.06c-0.355,1.323-1.785,1.574-2.16,2.879c-0.504-0.297-0.902-0.697-1.2-1.199
	c1.24-1.039,0.895-1.858,1.438-2.881C70.759,141.916,71.938,142.908,71.959,144.06z"/>
<path fill="#D2D4D0" d="M91.399,145.978c0.595-1.063,0.126-2.242,0.48-3.84c1.085,0.114,1.304,1.096,1.92,1.68
	C93.221,144.761,92.984,146.044,91.399,145.978z"/>
<path fill="#D2D4D0" d="M82.278,143.339c0.405-0.771,1.153-2.365,1.681-2.4c2.412-0.158,0.347,3.67,0.239,5.041
	C83.211,145.446,83.109,144.026,82.278,143.339z"/>
<path fill="#CAB278" d="M98.359,144.299c0.106,0.214,0.211,0.429,0.48,0.479c-0.059,0.423-0.413,0.547-0.96,0.479
	c0.288-0.315,0.094-0.378,0-0.721C98.074,144.493,98.119,144.298,98.359,144.299z"/>
<path fill="#D2D4D0" d="M97.88,144.538c0.181-1.01-0.024-1.941,0.239-3.6c0.679,0.683,1.503,1.217,1.44,2.64
	c-0.754-0.113-0.981,0.3-1.2,0.721C98.119,144.298,98.074,144.493,97.88,144.538z"/>
<path fill="#D2D4D0" d="M108.44,142.14c0.644-1.197,1.451-2.23,2.4-3.121c1.527,0.313,1.881,1.799,2.88,2.641
	c-0.112,1.808-1.958,1.882-2.16,3.602C110.065,144.674,109.568,143.091,108.44,142.14z"/>
<path fill="#D2D4D0" d="M54.437,145.019c-1.385-1.559,0.735-3.084,0.72-4.801c0.883,0.158,1.195,0.887,1.68,1.44
	C56.261,143.003,55.282,143.944,54.437,145.019z"/>
<path fill="#D2D4D0" d="M96.68,145.019c-0.675-0.045-1.022-0.418-0.96-1.199c0.411,0.011,0.622-0.18,0.72-0.479
	C96.825,143.692,96.363,144.267,96.68,145.019z"/>
<path fill="#D2D4D0" d="M61.396,144.299c-1.664-0.096-1.89-1.631-2.88-2.399c0.213-1.389,1.156-2.045,1.92-2.881
	c0.904,0.297,1.476,0.924,2.16,1.439C62.314,141.937,61.543,142.536,61.396,144.299z"/>
<path fill="#D2D4D0" d="M115.401,141.897c0.56-1.359,1.748-2.092,2.4-3.359c0.81,0.631,1.476,1.404,1.92,2.4
	c-1.017,0.664-1.57,1.789-2.4,2.64C116.354,143.345,115.97,142.53,115.401,141.897z"/>
<path fill="#D2D4D0" d="M50.355,140.458c1.232-0.544,1.521-3.07,2.641-3.12c2.101-0.092,1.096,4.028,0,5.761
	C51.918,142.418,51.193,141.381,50.355,140.458z"/>
<path fill="#D2D4D0" d="M43.396,138.778c0.359-1.002,1.199-1.521,1.68-2.4c1.367,1.229,2.655,2.217,3.841,4.08
	c-0.457,0.904-0.851,1.87-1.921,2.16C45.91,141.224,44.67,139.983,43.396,138.778z"/>
<path fill="#5F8B9A" d="M81.318,136.138c0.825,0.695,1.432,1.61,2.16,2.4C82.638,137.858,81.784,137.192,81.318,136.138z"/>
<path fill="#D2D4D0" d="M81.318,136.138c-0.554,0.073-0.267-0.693-0.72-0.72c0.396-1.362,1.665-1.854,2.16-3.12
	c1.608,0.951,2.557,2.563,3.84,3.84c-1.093,0.907-1.502,2.498-2.88,3.12c-0.127-0.192-0.25-0.39-0.24-0.72
	C82.75,137.748,82.144,136.833,81.318,136.138z"/>
<path fill="#5F8B9A" d="M92.84,135.418c-0.773-0.588-1.518-1.204-1.92-2.16C91.604,133.933,92.28,134.616,92.84,135.418z"/>
<path fill="#D2D4D0" d="M92.84,135.418c0.066,0.493,0.641,0.479,0.96,0.72c-0.316,1.284-1.188,2.014-1.92,2.881
	c-0.875-1.365-2.33-2.149-3.841-2.881c0.52-1.4,1.866-1.975,2.4-3.359c0.214,0.105,0.43,0.211,0.48,0.479
	C91.322,134.214,92.066,134.83,92.84,135.418z"/>
<path fill="#D2D4D0" d="M95.479,136.856c0.269-1.971,2.181-2.299,2.64-4.08c0.741,0.859,1.471,1.731,2.4,2.4
	c-0.627,1.452-1.741,2.42-2.64,3.602C96.76,138.458,96.705,137.071,95.479,136.856z"/>
<path fill="#D2D4D0" d="M68.598,231.187c-0.75-1.17-2.034-1.807-3.602-2.16c0.289-1.409-0.475-1.766-1.439-1.92c0-0.4,0-0.8,0-1.2
	c1.477-0.376,1.967-1.27,3.841-0.72c-0.241,1.121,0.418,1.342,1.438,1.2c-0.03,0.592-0.035,1.155,0.24,1.439
	c0.878,0.158,0.921-0.52,1.682-0.479c-0.036,0.596,0.124,0.996,0.479,1.199c0.948,0.309,0.581-0.698,1.2-0.72
	c0.77,0.19,0.506,1.415,1.92,0.96c-0.313,1.188,0.354,1.178,0.24,2.642C72.584,232.293,70.752,231.054,68.598,231.187z"/>
<path fill="#CAB278" d="M94.279,193.983c-0.158,1.576,0.432,2.441,0,3.12c1.809,0.245,3.609,2.604,6.001,2.16
	c-0.188,0.771-0.33,1.591-0.72,2.159c-7.143,0.514-12.143,7.072-17.761,3.602c-0.435,1.42,0.934,0.953,1.68,1.92
	c-5.308,2.583-14.449,1.13-13.921-6.96c4.609,2.195,10.2-3.696,8.16-8.161c0.416-1.537,2.914-4.351,0.721-5.521
	c1.396-1.269,0.993-3.242,0.96-4.321c2.492-1.305,3.735,0.086,5.28-2.16c1.481,0.599,3.408,0.754,4.561,1.682
	c3.254-1.4,3.478,1.472,6.24,0.721c-0.496-1.024-2.184-0.856-2.64-1.92c-0.175-0.734,0.414-0.707,0.239-1.441
	c1.869-1.91,9.082-2.87,10.562,0.24c3.006,6.325-6.21,4.489-8.4,7.201c-1.073,1.329-0.775,3.229-0.72,4.32
	c-0.241-0.001-0.286,0.194-0.48,0.24c0.231-3.721-3.51-9.029-7.44-5.521c-0.648,0.713-1.372,1.349-1.68,2.399
	c-2.358,5.697-0.229,13.817,4.8,12.001c2.262-0.815,3.336-3.048,4.08-6C94.041,193.742,94.084,193.938,94.279,193.983z
	 M93.8,199.503c-2.025-0.47-3.414,1.414-5.28,1.92c-1.884,0.512-3.397-0.398-5.521,0C83.437,207.321,92.299,203.616,93.8,199.503z"
	/>
<path fill="#D2D4D0" d="M95.959,193.264c-0.175,0.545,0.434,1.873-0.479,1.68c0-0.48,0-0.96,0-1.44
	C95.674,193.457,95.719,193.263,95.959,193.264z"/>
<path fill="#CAB278" d="M74.118,181.502c-0.695,1.354,0.461,1.003,0.479,2.16c0.047,2.856-4.807,10.082-7.921,5.521
	C63.574,184.64,69.436,178.548,74.118,181.502z M66.918,187.982c3.019,2.215,7.676-1.657,6-4.32c-0.488,0.936-0.984,2.91-2.641,3.36
	c-1.066-0.532-1.552-1.649-1.92-2.881c-0.901,1.427-0.839,2.045,0,3.36C67.721,187.506,66.944,187.369,66.918,187.982z"/>
<path fill="#333731" d="M93.56,170.701c0.694,0.745,1.961,0.919,2.16,2.159c-2.13-1.399-4.577,0.34-6.48-0.959
	c-1.262,0.291-3.091,3.199-4.319,1.199c2.646-0.641,4.006-3.668,6.72-1.681C92.47,171.371,92.916,170.938,93.56,170.701z"/>
<path fill="#333731" d="M81.318,162.78c0.531-0.395,1.72-0.985,2.4-0.48c-2.018,1.088-0.517,5.479-3.12,5.28
	c-0.442-0.42-0.029-0.833,0.72-0.72C80.42,165.375,81.388,164.646,81.318,162.78z"/>
<path fill="#333731" d="M97.64,155.101c1.601-2.582,3.628,1.062,5.521,1.199c0.17,0.571,0.635,2.227-0.239,2.4
	c-0.888-0.074-0.421-1.5-0.96-1.922c-0.875,0.074-1.563-0.037-2.16-0.238C99.679,155.461,99.057,154.883,97.64,155.101z"/>
<path fill="#CAB278" d="M64.997,152.22c-0.11-0.752,0.209-1.072,0.96-0.961C65.674,151.615,65.75,152.331,64.997,152.22z"/>
<path fill="#D2D4D0" d="M52.756,149.099c0.214-1.306,1.018-2.021,1.92-2.64c0.972,1.429,2.848,1.953,3.12,4.08
	C55.687,150.487,54.209,149.808,52.756,149.099z"/>
<path fill="#D2D4D0" d="M74.598,138.058c-0.651-0.867-1.125-1.914-2.4-2.16c0.764-0.996,0.633-2.887,1.2-4.08c0.801,0,1.601,0,2.4,0
	c0.22,1.062,1.354,1.207,1.681,2.16c0.778,0.899-1.089,0.689-0.961,1.682c0,0.078,0,0.158,0,0.238
	C75.516,136.276,76.132,138.937,74.598,138.058z"/>
<path fill="#333731" d="M57.076,131.817c0.13,0.85-0.85,0.59-0.72,1.439c1.825,0.975,2.453,3.146,4.32,4.08
	c0.739-1.102,1.354-2.324,2.399-3.119c-0.266-1.176-1.457-1.424-1.921-2.4c0.48,0,0.961,0,1.44,0c0,0.08,0,0.16,0,0.24
	c0.351,1.062,1.858,1.262,1.92-0.24c2.961,0,5.921,0,8.881,0c-0.567,1.193-0.438,3.082-1.2,4.08c1.275,0.246,1.749,1.291,2.4,2.16
	c0.158,0.321,0.514,0.446,0.96,0.479c0.404-0.797,0.591-1.81,0.96-2.642c0-0.08,0-0.16,0-0.238c0.572-0.148,0.395-1.047,1.439-0.721
	c0.335,0.306,0.104,1.176,0.721,1.199c0.591-0.617-0.257-1.152-0.721-1.439c0.014-0.412-0.185-0.615-0.479-0.721
	c-0.327-0.953-1.461-1.1-1.681-2.16c0.479,0,0.96,0,1.439,0c0,0.08,0,0.16,0,0.24c1.059,0.543,1.385,1.815,2.641,2.16
	c0.702-0.816,1.578-1.461,2.16-2.4c0.801,0,1.601,0,2.4,0c0.642,1.358,1.777,2.225,2.88,3.121c0.926-0.914,1.736-1.944,2.4-3.121
	c0.56,0,1.12,0,1.68,0c0,0.08,0,0.16,0,0.24c1.167,1.073,1.975,2.506,3.36,3.36c0.546-1.333,2.678-2.231,2.399-3.601
	c0.641,0,1.28,0,1.92,0c0,0.08,0,0.16,0,0.24c0.818,0.7,1.32,1.719,2.4,2.159c0.645-0.795,1.392-1.487,1.92-2.399
	c2.32,0,4.64,0,6.96,0c-0.059,0.957-0.238,2.23-0.72,3.601c0.383,0.577,0.655,1.265,1.439,1.438c0.826-0.773,1.563-1.637,2.16-2.64
	c-0.156-1.125-1.057-1.503-1.439-2.399c0.479,0,0.96,0,1.439,0c0,0.08,0,0.16,0,0.24c0.295,0.104,0.493,0.307,0.48,0.719
	c0.903,0.104,1.093-0.506,1.439-0.959c0.4,0,0.8,0,1.2,0c-0.459,0.66-0.98,1.259-1.439,1.92c0.978,1.103,1.87,2.289,3.119,3.119
	c0.472-0.89,1.11-1.608,1.681-2.398c-0.44-1.16-1.572-1.628-2.16-2.641c0.56,0,1.12,0,1.68,0c0,0.08,0,0.16,0,0.24
	c0.98,1.277,1.86,1.235,2.64-0.24c0.48,0,0.961,0,1.44,0c-1.272,0.939-2.779,3.148-0.24,3.841c0.063-1.253,1.071-2.474,1.681-3.841
	c0.399,0,0.8,0,1.199,0c-1.289,3.846-5.27,11.136-9.36,13.92c-4.47,3.043-10.466,1.9-14.401,5.521c1.146,0.848,3.67-0.283,5.28,0.24
	c0.322,2.064,2.95,2.044,2.641,4.08c0.85-0.129,1.236,0.204,1.44,0.721c0.328,0.473,0.229,1.371,0.479,1.92c0.48,0,0.96,0,1.44,0
	c1.738,2.389,0.616,6.114,1.92,9.121c-0.057,0.982-0.815,1.266-0.96,2.16c0.883,3.146-2.91,3.634-3.36,6.24
	c0.557,0.564,1.62,0.619,1.681,1.68c-0.899,3.492-7.292,0.516-7.682,4.801c-0.146,0.014-0.284,0.036-0.239,0.24
	c-0.354,1.485-1.299,2.383-2.641,2.88c-0.627,3.051,0.708,6.979,0.24,11.281c3.626-1.331,2.937,1.916-0.24,2.641
	c2.958,0.883,6.252,1.429,7.921,3.601c-2.448,2.911-7.36,3.359-10.081,6c-0.169,2.081-0.585,2.786-1.199,4.08
	c-0.134,0-0.272,0.194,0,0.24c-1.565,3.314-4.769,4.993-5.761,8.881c0.797,1.979,1.226,2.665,0.48,4.56
	c-0.738,0.063-1.08,0.521-1.681,0.721c0-0.134-0.193-0.272-0.239,0c-3.182-1.072-7.149-1.216-10.321,0
	c0.001-0.134-0.194-0.272-0.24,0c-5.505,0.589-2.873-5.655-4.8-7.682c-1.929,3.58-1.195,7.861-0.721,11.761
	c-0.513,0.768-1.079,1.481-1.92,1.921c-0.32-0.239-0.473-0.649-0.96-0.721c0.037,0.679-0.68,0.603-0.96,0.96
	c-0.566-1.439-2.303-0.526-3.602-1.439c0.001-0.133-0.194-0.272-0.24,0c-2.299-1.679-5.135-3.354-5.76-6
	c4.091-2.869,8.462-5.459,11.28-9.602c-7.998,2.001-11.557-4.625-8.4-10.081c1.315-2.273,4.549-2.746,3.36-5.521
	c-1.846,0.531-2.886-0.657-3.841-1.68c-0.07-0.225-0.649-0.225-0.721,0c-3.181-0.335-2.307-4.328-1.199-5.521
	c-0.896-0.256-0.685,0.596-1.44,0.48c-0.057-0.343-0.395-0.405-0.479-0.721c0.036-0.923,0.53-1.389,0.96-1.92
	c-1.002-0.583-1.177,0.647-1.92,0c-0.006-1.776,2.21-2.639,2.88-4.08c-0.155,0.334-0.232-1.008-0.24-0.96
	c0.19-1.163,1.608-0.731,2.641-1.92c0.46-0.53,0.35-1.471,0.721-1.92c1.707-2.067,4.788-3.291,7.439-3.12
	c0.366-4.342,0.039-6.838,0.24-9.842c-0.361-0.77,0-3.084-0.479-3.84c0-0.801,0-1.602,0-2.4c-2.861-0.932-4.03-3.604-3.841-5.762
	c-1.452-1.026-2.723-2.236-4.08-3.359c0.001-0.133-0.193-0.271-0.239,0c-2.189-1.365-6.697,0.295-7.682-2.641
	c-8.706-1.528-13.978-5.055-15.841-13.2c-0.488-2.136-0.324-4.642-1.44-6.722c0.881,0,1.761,0,2.641,0
	c0.598,1.164,1.89,1.631,2.399,2.881c1.375-0.545,1.883-1.959,2.882-2.881c0.56,0,1.119,0,1.68,0
	c0.691,1.709,2.43,2.371,3.359,3.842c1.058-0.465,1.129-1.913,2.16-2.4c-0.134-0.666-0.826-0.773-0.96-1.439
	C54.996,131.817,56.036,131.817,57.076,131.817z M74.598,231.427c0.115-1.464-0.555-1.452-0.24-2.642
	c-1.414,0.455-1.15-0.77-1.92-0.96c-0.619,0.021-0.252,1.028-1.2,0.72c-0.354-0.204-0.516-0.604-0.479-1.199
	c-0.761-0.04-0.804,0.638-1.682,0.479c-0.275-0.284-0.271-0.848-0.239-1.439c-1.021,0.142-1.682-0.08-1.439-1.2
	c-1.874-0.549-2.364,0.344-3.841,0.72c0,0.4,0,0.8,0,1.2c0.966,0.155,1.729,0.511,1.439,1.92c1.566,0.354,2.852,0.99,3.602,2.16
	C70.752,231.054,72.584,232.293,74.598,231.427z M74.838,219.905c0.602-0.999,0.806-2.395,1.199-3.601
	c-1.783,0.216-2.389,1.611-2.881,3.119C73.918,219.387,73.959,220.063,74.838,219.905z M94.52,190.623
	c-0.056-1.091-0.354-2.991,0.72-4.32c2.19-2.712,11.407-0.876,8.4-7.2c-1.479-3.111-8.691-2.151-10.562-0.24
	c0.174,0.734-0.414,0.705-0.239,1.439c0.457,1.063,2.145,0.896,2.64,1.92c-2.764,0.752-2.986-2.121-6.24-0.72
	c-1.152-0.928-3.078-1.083-4.561-1.681c-1.545,2.244-2.789,0.854-5.28,2.16c0.033,1.078,0.437,3.053-0.96,4.32
	c2.193,1.17-0.305,3.983-0.721,5.521c2.04,4.464-3.551,10.355-8.16,8.161c-0.528,8.091,8.613,9.543,13.921,6.96
	c-0.746-0.967-2.113-0.5-1.68-1.92c5.618,3.472,10.618-3.087,17.761-3.602c0.391-0.568,0.532-1.388,0.72-2.159
	c-2.392,0.443-4.192-1.915-6.001-2.16c0.432-0.679-0.158-1.544,0-3.12C94.154,192.658,94.418,191.721,94.52,190.623z
	 M63.077,195.184c-1.629,1.891,1.021,3.407,2.641,2.88c0.151,2.875,3.006,1.654,4.319,0.72c3.601,1.993,6.952-1.614,7.201-5.28
	c-0.285-0.756-1.399-0.68-1.439-1.68c0.597-0.443,1.354-0.726,1.681-1.44c-0.419-0.217-0.925-0.536-0.479-0.96
	c0.615-0.344,1.273-0.646,1.439-1.439c-0.48-0.399-1.116-0.646-1.2-1.44c-0.043-0.843,0.812-0.789,0.96-1.439
	c-1.179-0.15,0.089-1.331,0.479-1.439c-0.269-0.928-0.729-0.946-0.72-1.681c1.162-1.536,2.474-1.635,5.041-1.92
	c0.775-2.063,5.185-0.791,6.721,0.479c0.732,0.173,0.875-0.246,1.439-0.239c1.391-4.82,10.315-5.811,13.201-1.682
	c0.201,0.52,0.622,0.818,0.48,1.682c0.601,0.041,0.751-0.369,0.96-0.721c1.401-1.829,4.946-0.277,5.761-2.4
	c-0.492-0.389-1.573-0.188-1.92-0.721c0-0.72,0-1.439,0-2.16c-1.04-0.08-2.514,0.274-2.88-0.479c0.29-0.051,0.146-0.268,0-0.48
	c1.425,0.162,2.86-0.322,3.84,0.721c1.192-0.491,0.546-1.149,0.72-1.92c2.517-0.229,2.626-1.488,1.68-3.121
	c0.698-0.422,1.402-0.838,1.2-2.16c-0.429-0.449-0.856-0.902-1.2-1.439c0.595-0.285,0.938-0.82,1.2-1.439
	c-0.422-0.617-1.044-1.035-1.439-1.68c0.552-1.101,0.542-1.39,0.96-2.4c-1.489-0.887-3.346-0.649-3.36-3.359
	c-1.044-0.013-1.104,0.359-1.68-0.24c0.192-0.449,0.401-0.879,0.479-1.439c-0.708-0.715-0.972-0.098-1.68-0.48
	c-0.323-0.557-0.396-1.361-0.72-1.92c-1.634-0.186-2.542-0.668-4.081,0.24c-1.408-0.893-3.129-2.275-4.562-2.4
	c-0.731,0.389-0.805,1.437-1.92,1.44c-1.448,0.009-1.622-1.259-3.12-1.2c-0.478,0.563-0.825,1.254-1.68,1.439
	c-1.283-0.688-3.753-1.178-4.32,0.479c-1.567-0.255-4.267,0.929-3.121,3.36c-0.728,0.792-2.756,0.283-3.359,1.199
	c-0.175,0.734,0.414,0.707,0.239,1.44c-2.245-0.209-3.134,2.579-1.439,3.601c-0.946,0.494-1.57,0.313-2.399,1.199
	c-0.175,0.733,0.244,0.875,0.239,1.44c-0.601,0.84-1.668,1.213-1.681,2.642c0.219,0.979,1.132,1.268,1.2,2.398
	c-0.354,0.846-0.946,1.455-1.439,2.16c0.383,0.337,0.612,0.826,0.72,1.439c-1.861,1.19-0.117,3.122,0.721,4.32
	c-0.286,0.754-1.324,0.756-1.439,1.682c1.046,1.356-0.565,2.961,0.721,4.079c-1.52,1.087-0.668,2.144-1.2,3.602
	c-2.171,5.927-9.93,6.284-10.802-0.721c-1.142,0.174-0.396,0.982-0.479,1.92c-0.828,0.771-1.991,1.209-2.4,2.399
	c0.498,0.144,1.577-0.297,1.682,0.24c-0.489,0.998-0.6,0.881-0.96,1.92c0.733,0.174,0.705-0.414,1.438-0.24
	C64.375,193.366,63.271,194.244,63.077,195.184z M95.959,193.264c0.358-1.353,0.364-1.908,1.2-2.4
	c2.677-1.573,2.997,3.205,2.641,5.761c0.479,0,0.96,0,1.439,0c0.615-3.462,0.634-9.926-3.121-10.561
	c-3.223,1.144-2.225,3.762-2.64,7.439c0,0.48,0,0.96,0,1.44C96.393,195.136,95.784,193.809,95.959,193.264z M97.88,193.983
	c0.143,0.497-0.298,1.577,0.239,1.68C98.573,195.072,98.956,194.092,97.88,193.983z M66.677,189.184
	c3.114,4.562,7.968-2.664,7.921-5.521c-0.02-1.157-1.176-0.807-0.479-2.16C69.436,178.548,63.574,184.64,66.677,189.184z
	 M101.48,185.822c-0.457-0.45-0.604-0.026-1.2,0c-0.073,0.632,0.332,0.787,0.96,0.72C101.23,186.212,101.354,186.017,101.48,185.822
	z M74.357,176.461c0,0.479,0,0.96,0,1.44c0.24,0,0.48,0,0.721,0C75.168,177.09,74.662,176.877,74.357,176.461z M74.357,168.302
	c-0.014,1.053,0.097,1.982,0.48,2.639c1.013-0.446,0.825-2.15,0-2.639c-0.502-0.959-0.377-1.484,0-2.4
	c1.724-0.984,0.482-3.963,2.88-4.562c-0.584-1.485,0.028-3.36,1.681-3.36c-0.014-1.434,1.356-2.967,3.36-3.119
	c-0.138-3.418,3.668-2.893,5.041-4.801c-0.31-0.248-0.618-2.523,0.239-2.399c1.023,0.844,0.771,2.864,2.881,3.12
	c-2.543-3.586,1.22-8.151-1.2-12.241c-3.853,2.42-3.761,7.916-5.281,12.241c-2.149,2.259-6.942,4.691-9.36,7.199
	c-2.311,2.396-0.978,4.746-0.96,8.162C74.108,167.158,74.231,168.042,74.357,168.302z M72.678,162.06
	c0.244-1.043-0.497-1.104-0.721-1.68c0.718-0.322,1.061-1.02,1.199-1.92c-1.111-0.538-0.96-0.971-1.68-1.682
	C68.832,157.799,71.143,161.535,72.678,162.06z M76.278,155.579c-0.916-0.523-0.989-1.891-2.16-2.16
	c-0.788,0.732-1.771,1.27-2.159,2.4c0.288,1.07,1.201,1.518,1.92,2.16C74.491,156.992,75.521,156.422,76.278,155.579z
	 M67.157,152.22c-0.705,0.157-1.636,0.885-1.2,1.439c1.508,0.813,2.282,2.357,3.842,3.119
	C70.589,154.511,67.781,153.862,67.157,152.22z M74.838,152.459c0.774,0.824,1.67,1.531,2.159,2.642
	c1.245-0.836,2.528-1.633,3.36-2.881c-0.947-0.973-1.688-2.152-2.88-2.881C76.445,150.226,75.57,151.271,74.838,152.459z
	 M72.197,151.259c-0.346-1.254-1.669-1.529-2.16-2.64c-1.55,0.289-1.574,2.104-2.64,2.88c1.588,0.572,1.567,2.753,3.36,3.12
	C71.502,153.306,71.166,152.341,72.197,151.259z M65.957,151.259c-0.751-0.111-1.07,0.209-0.96,0.961
	C65.75,152.331,65.674,151.615,65.957,151.259z M83.719,149.339c-1-1.398-2.224-2.578-3.36-3.84c-0.707,1.053-1.563,1.957-2.16,3.12
	c1.155,1.004,1.96,2.36,3.36,3.12C82.418,151.078,83.18,150.319,83.719,149.339z M74.598,146.459
	c-0.125,1.753-1.499,3.409-0.96,5.04C76.159,150.417,77.625,147.728,74.598,146.459z M94.52,145.019
	c-0.555,1.045-1.487,1.713-2.4,2.4c1.152,0.928,1.936,2.227,3.121,3.12C97.125,149.396,96.584,145.49,94.52,145.019z
	 M57.796,150.539c-0.272-2.127-2.148-2.651-3.12-4.08c-0.902,0.617-1.706,1.334-1.92,2.64
	C54.209,149.808,55.687,150.487,57.796,150.539z M68.836,148.14c0.181-0.738-0.657-0.461-0.479-1.201
	c-1.162,0.438-1.292,1.91-1.92,2.881c0.051,0.27,0.266,0.373,0.479,0.479C67.82,149.843,67.959,148.622,68.836,148.14z
	 M92.359,149.819c0.453-0.481-0.295-1.116-0.96-1.2C91.4,149.337,91.83,149.628,92.359,149.819z M73.397,144.538
	c-1.488,0.592-2.1,2.063-2.88,3.359c0.729,0.553,0.838,1.724,2.16,1.682C72.37,148.241,74.19,145.999,73.397,144.538z
	 M60.437,145.499c-0.837-1.084-1.667-2.173-2.88-2.881c-0.629,1.212-1.749,1.934-2.4,3.119c1.112,1.209,2.188,2.453,3.602,3.361
	C59.451,147.521,59.562,146.847,60.437,145.499z M46.035,145.499c0.824,1.283,3.41,3.273,4.801,2.398
	C49.036,147.013,47.9,142.829,46.035,145.499z M83.238,147.179c0.029,0.61,0.35,0.932,0.96,0.961
	c0.067-0.629-0.088-1.033-0.72-0.961c-0.628-1.052-1.358-2.002-2.16-2.88C80.617,145.716,82.651,146.269,83.238,147.179z
	 M110.602,145.978c0.075-0.652-2.848-2.756-3.121-2.879c-1.145,0.937-1.479,2.682-2.64,3.6
	C105.693,148.716,110.441,147.37,110.602,145.978z M53.716,145.499c-0.024-0.463-0.896,0.372-1.2-0.24
	c0.443-1.688-1.894-2.555-2.4-4.08c-4.202,1.973-0.11,4.803,2.161,6.721C52.582,146.925,53.684,146.746,53.716,145.499z
	 M77.479,147.419c0.794-0.886,1.672-1.688,2.16-2.881c-1.368-0.952-2.274-2.366-3.602-3.359c-0.212,1.418-0.666,2.1-0.96,3.84
	C75.858,145.838,76.375,146.92,77.479,147.419z M70.037,142.858c-0.545,1.021-0.198,1.841-1.438,2.879
	c0.298,0.503,0.696,0.902,1.2,1.201c0.375-1.306,1.805-1.557,2.16-2.881C72.697,143.289,70.35,141.155,70.037,142.858z
	 M116.121,144.299c-0.551-0.329-0.771-0.987-1.199-1.44c-1.429,0.576-2.662,2.615-2.881,3.602
	C113.518,145.854,115.231,145.489,116.121,144.299z M93.8,143.817c-0.616-0.584-0.834-1.564-1.92-1.68
	c-0.354,1.598,0.114,2.777-0.48,3.84C92.984,146.044,93.221,144.761,93.8,143.817z M84.198,145.978
	c0.107-1.371,2.173-5.199-0.239-5.039c-0.527,0.033-1.275,1.629-1.681,2.399C83.109,144.026,83.211,145.446,84.198,145.978z
	 M97.88,144.538c0.094,0.343,0.288,0.404,0,0.721c0.547,0.066,0.901-0.058,0.96-0.48c-0.27-0.051-0.374-0.266-0.48-0.479
	c0.219-0.421,0.446-0.834,1.2-0.721c0.063-1.423-0.763-1.957-1.44-2.641C97.855,142.597,98.062,143.528,97.88,144.538z
	 M111.562,145.259c0.202-1.719,2.048-1.793,2.16-3.601c-0.999-0.841-1.354-2.328-2.88-2.642c-0.949,0.892-1.756,1.926-2.4,3.121
	C109.568,143.091,110.065,144.674,111.562,145.259z M96.439,143.339c-0.099,0.301-0.31,0.49-0.72,0.479
	c-0.063,0.783,0.285,1.156,0.96,1.201C96.363,144.267,96.825,143.692,96.439,143.339z M56.836,141.658
	c-0.484-0.556-0.798-1.282-1.681-1.44c0.017,1.717-2.104,3.242-0.72,4.801C55.282,143.944,56.261,143.003,56.836,141.658z
	 M46.516,143.339c-1.262-0.898-2.208-2.113-3.36-3.121c0.114,1.329,1.037,3.922,2.641,4.561
	C45.892,144.153,46.512,144.056,46.516,143.339z M62.597,140.458c-0.686-0.516-1.256-1.145-2.16-1.439
	c-0.764,0.836-1.707,1.492-1.92,2.881c0.99,0.77,1.216,2.305,2.88,2.399C61.543,142.536,62.314,141.937,62.597,140.458z
	 M117.321,143.578c0.83-0.851,1.384-1.976,2.4-2.64c-0.444-0.996-1.11-1.771-1.92-2.4c-0.652,1.268-1.841,2-2.4,3.359
	C115.97,142.53,116.354,143.345,117.321,143.578z M80.838,143.578c-0.843-2.156-1.678-2.836-2.399-5.04
	c-3.603,1.329,0.334,3.795,1.92,5.279C80.411,143.632,80.56,143.539,80.838,143.578z M52.996,143.099
	c1.096-1.731,2.101-5.853,0-5.761c-1.119,0.05-1.407,2.576-2.641,3.12C51.193,141.381,51.918,142.418,52.996,143.099z
	 M94.76,142.858c0.332-1.314,2.473-2.086,2.399-3.121c-0.068-0.984-2.004-1.316-2.64-2.399c-0.618,1.224-1.752,1.929-2.4,3.12
	C93.252,141.006,93.248,142.688,94.76,142.858z M73.157,142.618c0.645-0.956,1.664-1.536,1.921-2.881
	c-1.445-0.276-1.813-2.768-3.359-2.159C71.331,139.127,70.455,142.156,73.157,142.618z M46.995,142.618
	c1.07-0.29,1.464-1.256,1.921-2.16c-1.186-1.863-2.474-2.854-3.841-4.08c-0.479,0.88-1.319,1.398-1.68,2.4
	C44.67,139.983,45.91,141.224,46.995,142.618z M83.479,139.978c-1.504-1.057-2.395-2.728-4.08-3.601
	c-0.122,2.476,1.561,4.118,2.64,5.761C82.397,141.298,83.082,140.782,83.479,139.978z M88.278,137.578
	c-1.387-1.606-2.591,1.428-3.36,2.64c0.218,0.424,0.537,0.743,0.961,0.961C86.755,140.054,87.774,139.074,88.278,137.578z
	 M116.842,137.578c-1.051-0.789-1.498-2.183-2.881-2.642c-0.663,1.098-1.707,1.813-2.159,3.121c1.168,0.752,1.841,1.998,2.88,2.881
	C115.302,139.835,116.964,138.64,116.842,137.578z M101.959,137.817c-0.87-0.219-0.146-0.709-0.239-1.439
	c-1.587,0.653-2.312,2.17-3.12,3.602c0.558,0.162,0.642,0.797,1.2,0.959C100.543,139.922,100.916,138.534,101.959,137.817z
	 M59.717,137.817c-1.444-0.797-2.209-2.271-3.602-3.121c-0.513,1.835-0.818,5.236,1.44,6.002
	C58.422,139.884,59.317,139.099,59.717,137.817z M110.121,137.817c-0.41-0.229-0.483-0.797-0.96-0.961
	c0.025,1.027-0.357,1.51-0.72,2.642c0.051,0.271,0.266,0.374,0.48,0.479C109.016,138.953,109.982,138.8,110.121,137.817z
	 M52.276,136.378c-0.108-1.218-3.132-2.421-4.081-3.602c-0.667,1.094-1.855,1.664-2.16,3.121c1.54,0.94,2.349,2.613,3.602,3.84
	C49.961,138.86,52.351,137.222,52.276,136.378z M120.441,135.418c-0.864,0.575-1.236,1.644-1.92,2.399
	c0.323,0.638,1.2,0.722,1.2,1.681C122.227,139.248,123.082,135.877,120.441,135.418z M63.557,138.778
	c-0.406-1.063,0.384-2.316,0.479-3.602c-1.356,0.643-2.085,1.916-2.881,3.12c0.629,0.332,0.761,1.16,1.681,1.2
	C62.793,138.976,63.033,138.733,63.557,138.778z M83.479,138.538c-0.01,0.33,0.113,0.527,0.24,0.72
	c1.377-0.622,1.787-2.213,2.88-3.12c-1.284-1.275-2.231-2.889-3.84-3.84c-0.495,1.266-1.763,1.758-2.16,3.12
	c0.453,0.026,0.166,0.793,0.72,0.72C81.784,137.192,82.638,137.858,83.479,138.538z M90.92,133.258
	c-0.052-0.271-0.268-0.374-0.48-0.479c-0.534,1.386-1.881,1.959-2.4,3.359c1.511,0.73,2.966,1.516,3.841,2.881
	c0.732-0.867,1.604-1.597,1.92-2.881c-0.319-0.24-0.894-0.227-0.96-0.72C92.28,134.616,91.604,133.933,90.92,133.258z
	 M97.88,138.778c0.898-1.182,2.013-2.148,2.64-3.602c-0.931-0.669-1.659-1.541-2.4-2.4c-0.459,1.781-2.372,2.109-2.64,4.08
	C96.705,137.071,96.76,138.458,97.88,138.778z M44.355,135.658c-0.918-0.843-1.455-2.065-2.641-2.642
	c0.096,1.289,0.255,3.084,0.72,4.562c0.24,0,0.479,0,0.721,0C43.048,136.431,44.183,136.524,44.355,135.658z M54.437,135.179
	c-0.401,0.027,0.272,1.022-0.721,0.959c-0.04,0.602,0.368,0.752,0.721,0.961C54.325,136.772,55.271,135.229,54.437,135.179z"/>
<path fill="#D2D4D0" d="M89.72,198.543c-6.708,1.986-5.388-13.233-0.48-13.44c1.299-0.055,2.896,1.725,3.36,2.881
	C93.471,190.153,93.609,197.393,89.72,198.543z M86.839,190.382c-1.511,1.238-0.608,7.122,1.92,5.762
	c1.325-0.714,1.919-4.403,0.479-6C88.355,189.71,87.986,190.163,86.839,190.382z"/>
<path fill="#D2D4D0" d="M95.479,193.503c0.416-3.679-0.583-6.297,2.64-7.439c3.754,0.635,3.735,7.099,3.121,10.561
	c-0.479,0-0.96,0-1.439,0c0.356-2.556,0.035-7.334-2.641-5.761c-0.836,0.492-0.842,1.048-1.199,2.4
	C95.719,193.263,95.674,193.457,95.479,193.503z"/>
<path fill="#D2D4D0" d="M50.836,147.897c-1.392,0.875-3.978-1.115-4.802-2.398C47.9,142.829,49.036,147.013,50.836,147.897z"/>
<path fill="#D2D4D0" d="M117.562,131.817c0.588,1.013,1.72,1.479,2.16,2.641c-0.57,0.79-1.209,1.51-1.681,2.398
	c-1.25-0.83-2.142-2.018-3.119-3.119c0.459-0.661,0.98-1.26,1.439-1.92C116.762,131.817,117.161,131.817,117.562,131.817z"/>
<path fill="#D2D4D0" d="M111.802,131.817c0.383,0.896,1.284,1.275,1.439,2.4c-0.597,1.002-1.334,1.864-2.16,2.639
	c-0.784-0.174-1.058-0.861-1.439-1.438c0.481-1.369,0.662-2.644,0.72-3.601C110.841,131.817,111.32,131.817,111.802,131.817z"/>
<path fill="#D2D4D0" d="M53.956,131.817c0.135,0.666,0.826,0.773,0.96,1.439c-1.031,0.487-1.104,1.936-2.159,2.4
	c-0.932-1.471-2.668-2.133-3.36-3.842C50.916,131.817,52.436,131.817,53.956,131.817z"/>
<path fill="#333731" d="M82.998,201.423c2.124-0.398,3.637,0.512,5.521,0c1.866-0.506,3.255-2.39,5.28-1.92
	C92.299,203.616,83.437,207.321,82.998,201.423z"/>
<path fill="#333731" d="M93.8,193.743c-0.744,2.953-1.818,5.185-4.08,6c-5.03,1.816-7.158-6.304-4.8-12.001
	c0.635-0.725,1.246-1.474,1.68-2.4c3.931-3.509,7.672,1.801,7.441,5.521C93.676,191.422,93.989,192.442,93.8,193.743z M92.6,187.982
	c-0.464-1.156-2.062-2.936-3.36-2.881c-4.907,0.207-6.228,15.427,0.48,13.44C93.609,197.393,93.471,190.153,92.6,187.982z"/>
<use xlink:href="#Rand"  width="156.49" height="248.039" x="5.377" y="-252.996" transform="matrix(1 0 0 -1 0.002 0.0029)" overflow="visible"/>
</svg>
