<?xml version="1.0" encoding="utf-8"?>
<!-- Generator: Adobe Illustrator 15.1.0, SVG Export Plug-In  -->
<!DOCTYPE svg PUBLIC "-//W3C//DTD SVG 1.1 Tiny//EN" "http://www.w3.org/Graphics/SVG/1.1/DTD/svg11-tiny.dtd" [
	<!ENTITY ns_flows "http://ns.adobe.com/Flows/1.0/">
]>
<svg version="1.1" baseProfile="tiny"
	 xmlns="http://www.w3.org/2000/svg" xmlns:xlink="http://www.w3.org/1999/xlink" xmlns:a="http://ns.adobe.com/AdobeSVGViewerExtensions/3.0/"
	 x="0px" y="0px" width="167px" height="258px" viewBox="0.239 0.003 167 258" xml:space="preserve">
<defs>
</defs>
<g id="XMLID_8_">
	<path fill="#0057A3" d="M167.481,240.945c0,9.354-7.653,17.008-17.008,17.008H17.245c-9.354,0-17.008-7.653-17.008-17.008V17.008
		C0.237,7.653,7.891,0,17.245,0h133.229c9.354,0,17.008,7.653,17.008,17.008V240.945z"/>
	<path fill="#FFFFFF" stroke="#FFFFFF" stroke-miterlimit="10" d="M142.167,194.877c6.966-4.878,6.971-4.87-1.163-16.487
		c-4.505-6.435-14.435-10.655-26.009-2.551c-11.498,8.05-11.053,18.81-6.499,25.313c8.13,11.609,8.107,11.625,15.096,6.731
		L142.167,194.877z"/>
	<path fill="#FFFFFF" stroke="#FFFFFF" stroke-miterlimit="10" d="M25.551,194.877c-6.965-4.878-6.97-4.87,1.163-16.487
		c4.506-6.435,14.436-10.655,26.009-2.551c11.499,8.05,11.054,18.81,6.5,25.313c-8.13,11.609-8.107,11.625-15.096,6.731
		L25.551,194.877z"/>
	<path fill="#FFFFFF" stroke="#FFFFFF" stroke-miterlimit="10" d="M142.237,63.092c6.966,4.878,6.971,4.871-1.162,16.487
		c-4.506,6.435-14.436,10.656-26.01,2.552c-11.498-8.05-11.053-18.81-6.499-25.313c8.13-11.609,8.108-11.625,15.095-6.732
		L142.237,63.092z"/>
	<path fill="#FFFFFF" stroke="#FFFFFF" stroke-miterlimit="10" d="M25.551,63.078c-6.965,4.878-6.97,4.871,1.163,16.487
		c4.506,6.435,14.436,10.656,26.009,2.552c11.499-8.05,11.054-18.811,6.5-25.313c-8.13-11.609-8.107-11.625-15.096-6.731
		L25.551,63.078z"/>
	<path fill="none" stroke="#FFFFFF" stroke-width="2" stroke-miterlimit="10" d="M161.104,239.24
		c0,7.047-5.822,12.756-13.008,12.756H19.623c-7.186,0-13.008-5.709-13.008-12.756V18.722c0-7.046,5.822-12.762,13.008-12.762
		h128.473c7.186,0,13.008,5.716,13.008,12.762V239.24z"/>
</g>
<g>
	<path d="M151.038,232.154c-4.318,0-7.981,2.764-9.346,6.614h18.69C159.02,234.918,155.356,232.154,151.038,232.154z"/>
	<path fill="#FF0000" d="M160.959,242.075c0-1.161-0.21-2.271-0.576-3.307h-18.69c-0.366,1.035-0.576,2.146-0.576,3.307
		c0,1.162,0.21,2.271,0.577,3.308h18.688C160.749,244.347,160.959,243.237,160.959,242.075z"/>
	<path fill="#FFCC00" d="M160.382,245.383h-18.688c1.363,3.851,5.027,6.613,9.345,6.613S159.019,249.233,160.382,245.383z"/>
</g>
<g>
	<path d="M151.047,5.96h-0.02c-4.313,0.004-7.973,2.766-9.336,6.614h18.689C159.02,8.726,155.36,5.964,151.047,5.96z"/>
	<path fill="#FF0000" d="M160.958,15.881c0-1.162-0.21-2.271-0.577-3.307h-18.689c-0.366,1.036-0.576,2.146-0.576,3.307
		s0.21,2.271,0.576,3.307h18.689C160.748,18.152,160.958,17.042,160.958,15.881z"/>
	<path fill="#FFCC00" d="M160.381,19.188h-18.689c1.364,3.851,5.027,6.614,9.346,6.614S159.019,23.039,160.381,19.188z"/>
</g>
<circle fill="none" stroke="#FFFFFF" stroke-width="2" stroke-miterlimit="10" cx="151.182" cy="15.882" r="9.921"/>
<g>
	<path d="M16.535,232.154c-4.318,0-7.982,2.764-9.346,6.614h18.69C24.517,234.918,20.854,232.154,16.535,232.154z"/>
	<path fill="#FF0000" d="M26.456,242.075c0-1.161-0.21-2.271-0.576-3.307H7.189c-0.366,1.035-0.576,2.146-0.576,3.307
		c0,1.162,0.21,2.271,0.577,3.308h18.688C26.246,244.347,26.456,243.237,26.456,242.075z"/>
	<path fill="#FFCC00" d="M25.879,245.383H7.19c1.363,3.851,5.026,6.613,9.345,6.613S24.516,249.233,25.879,245.383z"/>
</g>
<circle fill="none" stroke="#FFFFFF" stroke-width="2" stroke-miterlimit="10" cx="151.182" cy="242.075" r="9.921"/>
<g>
	<path d="M16.545,5.96h-0.02c-4.313,0.004-7.973,2.766-9.335,6.614H25.88C24.518,8.726,20.858,5.964,16.545,5.96z"/>
	<path fill="#FF0000" d="M26.456,15.881c0-1.162-0.21-2.271-0.576-3.307H7.19c-0.367,1.036-0.577,2.146-0.577,3.307
		s0.21,2.271,0.577,3.307H25.88C26.246,18.152,26.456,17.042,26.456,15.881z"/>
	<path fill="#FFCC00" d="M25.88,19.188H7.19c1.363,3.851,5.026,6.614,9.345,6.614S24.517,23.039,25.88,19.188z"/>
</g>
<circle fill="none" stroke="#FFFFFF" stroke-width="2" stroke-miterlimit="10" cx="16.538" cy="242.075" r="9.921"/>
<circle fill="none" stroke="#FFFFFF" stroke-width="2" stroke-miterlimit="10" cx="16.536" cy="15.881" r="9.921"/>
<g>
	<path d="M83.877,86.458h-0.039c-18.503,0.008-34.234,11.839-40.071,28.346h80.181C118.111,98.297,102.38,86.466,83.877,86.458z"/>
	<path fill="#FF0000" d="M126.377,128.977c0-4.971-0.861-9.739-2.43-14.173H43.767c-1.567,4.434-2.429,9.202-2.429,14.173
		c0,4.971,0.861,9.739,2.429,14.173h80.182C125.516,138.716,126.377,133.947,126.377,128.977z"/>
	<path fill="#FFCC00" d="M123.948,143.149H43.767c5.838,16.513,21.579,28.346,40.091,28.346S118.11,159.662,123.948,143.149z"/>
</g>
<circle fill="none" stroke="#FFFFFF" stroke-width="3" stroke-miterlimit="10" cx="83.856" cy="128.979" r="42.52"/>
</svg>
