<?xml version="1.0" encoding="utf-8"?>
<!-- Generator: Adobe Illustrator 15.1.0, SVG Export Plug-In  -->
<!DOCTYPE svg PUBLIC "-//W3C//DTD SVG 1.1//EN" "http://www.w3.org/Graphics/SVG/1.1/DTD/svg11.dtd" [
	<!ENTITY ns_flows "http://ns.adobe.com/Flows/1.0/">
]>
<svg version="1.1"
	 xmlns="http://www.w3.org/2000/svg" xmlns:xlink="http://www.w3.org/1999/xlink" xmlns:a="http://ns.adobe.com/AdobeSVGViewerExtensions/3.0/"
	 x="0px" y="0px" width="167px" height="258px" viewBox="0 0 167 258" enable-background="new 0 0 167 258" xml:space="preserve">
<defs>
	<symbol  id="Rand" viewBox="5.377 -252.996 156.49 248.039">
		<g id="weiß_2_">
		</g>
		<path fill="#FFFFFF" d="M159.867-242.076c0,4.92-4,8.92-8.92,8.92c-4.921,0-8.921-4-8.921-8.92s4-8.92,8.921-8.92
			C155.867-250.996,159.867-246.996,159.867-242.076z M159.867-15.887c0,4.92-4,8.93-8.92,8.93c-4.921,0-8.921-4.01-8.921-8.93
			c0-4.91,4-8.92,8.921-8.92C155.867-24.807,159.867-20.797,159.867-15.887z M19.387-4.957h123.9h4.569h3.091
			c6.02,0,10.92-4.9,10.92-10.93v-9.52v-208.09v-8.58c0-6.021-4.9-10.92-10.92-10.92h-9.471c-37.63,0-75.85,0-125.17,0
			c-6.029,0-10.92,4.898-10.92,10.92c-0.01,72.18-0.01,141.83-0.01,211.35v14.84c0,6.029,4.9,10.93,10.92,10.93H19.387z
			 M25.227-15.887c0,4.92-4.01,8.93-8.93,8.93c-4.91,0-8.92-4.01-8.92-8.93c0-4.91,4.01-8.92,8.92-8.92
			C21.217-24.807,25.227-20.797,25.227-15.887z M16.307-250.996c4.92,0,8.92,4,8.92,8.92s-4,8.92-8.92,8.92s-8.92-4-8.92-8.92
			S11.387-250.996,16.307-250.996z M27.227-15.887c0-6.02-4.9-10.92-10.93-10.92c-3.68,0-6.939,1.83-8.92,4.629
			c0-71.199,0-142.398,0-213.609c1.98,2.801,5.24,4.631,8.93,4.631c6.02,0,10.92-4.9,10.92-10.92c0-3.682-1.83-6.941-4.63-8.92
			c40.69,0,81.37,0,122.061,0c-2.801,1.979-4.631,5.238-4.631,8.92c0,6.02,4.9,10.92,10.921,10.92c3.68,0,6.939-1.83,8.92-4.621
			c0,71.201,0,142.4,0,213.6c-1.98-2.799-5.24-4.629-8.92-4.629c-6.021,0-10.921,4.9-10.921,10.92c0,3.689,1.83,6.949,4.631,8.93
			c-40.69,0-81.38,0-122.061,0C25.396-8.938,27.227-12.197,27.227-15.887z"/>
	</symbol>
	<symbol  id="UK" viewBox="-42.52 -42.519 85.039 85.039">
		<path fill="#FFFFFF" d="M-30.405,9.923h-10.938c-0.441-1.848-0.771-3.737-0.964-5.67h21.723L-30.405,9.923z"/>
		<path fill="#FFFFFF" d="M-13.194,4.253h8.942v38.056c-1.932-0.192-3.822-0.522-5.669-0.964V9.923L-13.194,4.253z"/>
		<path fill="#FFFFFF" d="M30.405-9.919h10.938c0.441,1.847,0.771,3.736,0.964,5.667H20.59L30.405-9.919z"/>
		<path fill="#FFFFFF" d="M-20.59-4.252h-21.718c0.192-1.931,0.522-3.82,0.964-5.667h10.938L-20.59-4.252z"/>
		<path fill="#FFFFFF" d="M13.192-4.252h-8.94v-38.055c1.932,0.192,3.822,0.522,5.669,0.964v31.424L13.192-4.252z"/>
		<path fill="#FFFFFF" d="M13.194,4.253l-3.273,5.67v31.422c-1.847,0.441-3.737,0.771-5.669,0.964V4.253H13.194z"/>
		<path fill="#FFFFFF" d="M-13.192-4.252l3.271-5.667v-31.424c1.847-0.441,3.737-0.771,5.669-0.964v38.055H-13.192z"/>
		<path fill="#FFFFFF" d="M0.039,42.52c-0.014,0-0.026,0.001-0.039,0.001s-0.025-0.001-0.039-0.001H0.039z"/>
		<path fill="#FFFFFF" d="M20.585,4.253h21.723c-0.192,1.933-0.522,3.822-0.964,5.67H30.405L20.585,4.253z"/>
		<path fill="#012169" d="M-9.921,41.345c-10.265-2.455-19.078-8.627-24.945-17.02L-9.921,9.923V41.345z"/>
		<path fill="#012169" d="M-39.681,15.277c-0.667-1.733-1.224-3.521-1.663-5.354h10.938L-39.681,15.277z"/>
		<path fill="#012169" d="M34.866,24.325C29,32.718,20.186,38.891,9.921,41.345V9.923L34.866,24.325z"/>
		<path fill="#012169" d="M41.344,9.923c-0.438,1.834-0.995,3.621-1.663,5.354l-9.275-5.354H41.344z"/>
		<path fill="#012169" d="M39.682-15.274c0.667,1.733,1.224,3.521,1.662,5.355H30.405L39.682-15.274z"/>
		<path fill="#012169" d="M9.921-41.343c10.266,2.454,19.08,8.627,24.946,17.021L9.921-9.919V-41.343z"/>
		<path fill="#012169" d="M-34.867-24.322c5.866-8.394,14.681-14.566,24.946-17.021v31.424L-34.867-24.322z"/>
		<path fill="#012169" d="M-41.344-9.919c0.438-1.834,0.995-3.622,1.663-5.355l9.275,5.355H-41.344z"/>
		<path fill="#FFFFFF" d="M-20.585,4.253h7.391l3.273,5.67l-24.945,14.402c-0.892-1.276-1.723-2.599-2.473-3.973l18.065-10.43
			h-8.505l-11.415,6.591c-0.172-0.407-0.327-0.822-0.487-1.236l9.275-5.354L-20.585,4.253z"/>
		<path fill="#FFFFFF" d="M13.194,4.253h7.391l9.82,5.67l9.275,5.354c-0.554,1.438-1.184,2.836-1.885,4.193L21.26,9.923h-8.505
			L35.66,23.147c-0.259,0.396-0.523,0.79-0.794,1.178L9.921,9.923L13.194,4.253z"/>
		<path fill="#FFFFFF" d="M20.59-4.252h-7.397L9.921-9.919l24.946-14.403c0.893,1.276,1.723,2.599,2.473,3.973L19.272-9.919h8.503
			l11.418-6.592c0.172,0.407,0.328,0.822,0.488,1.236l-9.276,5.355L20.59-4.252z"/>
		<path fill="#FFFFFF" d="M-13.192-4.252h-7.397l-9.815-5.667l-9.275-5.355c0.553-1.438,1.183-2.836,1.884-4.192l16.537,9.548h8.505
			l-22.906-13.225c0.259-0.397,0.522-0.79,0.794-1.179L-9.921-9.919L-13.192-4.252z"/>
		<path fill="#C8102E" d="M13.194,4.253H4.252v-8.505h8.94h7.397h21.718c0.139,1.399,0.212,2.817,0.212,4.253
			s-0.073,2.854-0.212,4.252H20.585H13.194z"/>
		<path fill="#C8102E" d="M-13.192-4.252h8.94v8.505h-8.942h-7.391h-21.723c-0.139-1.398-0.212-2.816-0.212-4.252
			s0.073-2.854,0.212-4.253h21.718H-13.192z"/>
		<path fill="#C8102E" d="M-4.252,42.309V4.253v-8.505v-38.055c1.398-0.139,2.816-0.212,4.252-0.212s2.854,0.073,4.252,0.212v38.055
			v8.505v38.056c-1.386,0.138-2.791,0.21-4.213,0.211h-0.078C-1.461,42.519-2.866,42.446-4.252,42.309z"/>
		<path fill="#C8102E" d="M21.26,9.923l16.536,9.548c-0.652,1.264-1.364,2.49-2.136,3.677L12.755,9.923H21.26z"/>
		<path fill="#C8102E" d="M-21.26-9.919l-16.537-9.548c0.652-1.265,1.364-2.491,2.136-3.677l22.906,13.225H-21.26z"/>
		<path fill="#C8102E" d="M19.272-9.919L37.34-20.35c0.68,1.243,1.299,2.523,1.854,3.839L27.775-9.919H19.272z"/>
		<path fill="#C8102E" d="M-19.273,9.923l-18.065,10.43c-0.68-1.243-1.3-2.524-1.854-3.839l11.415-6.591H-19.273z"/>
	</symbol>
</defs>
<g>
	<path fill="#9BC4D1" d="M167.244,240.945c0,9.354-7.653,17.008-17.008,17.008H17.008C7.653,257.953,0,250.3,0,240.945V17.008
		C0,7.654,7.653,0,17.008,0h133.229c9.354,0,17.008,7.654,17.008,17.008V240.945z"/>
</g>
<path fill="#35422D" d="M46.118,50.083c0.046-0.272,0.241-0.133,0.24,0c9.06-9.228,20.465-11.915,32.64-12.721
	c-0.046,0.194-0.241,0.239-0.24,0.48c5.393-1.299,13.582,1.311,17.761,2.64c6.463,2.058,8.736,5.297,12,10.561
	c-0.204,0.355-0.604,0.516-1.199,0.479c0.203,0.704,0.771-0.144,1.199,0c1.107,2.456,1.379,8.04-1.199,10.561
	c-0.68,0.197-0.622-0.338-1.2-0.24c0.169-1.873-1.72-4.162-3.84-5.28c-5.886-3.103-18.27-5.502-24.96-6
	c-5.478-0.408-12.678-0.231-18,0.48c-0.319,0.241-0.894,0.227-0.96,0.72c-1.837,0.159-3.598,0.383-5.04,0.96
	c-0.349,0.139-1.184,0.112-0.96,0.96c0.205,0.268,1.723-0.183,2.159-0.479c-1.273,1.215,1.389,3.66-0.959,5.04
	c-2.305-0.111-7.013-0.289-9.12-2.881C43.648,52.411,46.276,51.604,46.118,50.083z M50.198,54.401
	c0.833,0.192,0.923-0.356,1.68-0.239C51.987,53.217,50.016,53.037,50.198,54.401z"/>
<path fill="#C1A165" d="M70.598,51.042c0.967,0.153,2.553-0.313,3.12,0.239C72.752,51.128,71.166,51.594,70.598,51.042z"/>
<path fill="#683928" d="M59.318,60.163c-0.017,1.178-0.55-0.543-0.96,0.239c0.365,1.154,1.572,1.468,2.399,2.16
	c0.187,4.367-1.867,7.276-0.479,11.28c-0.352,1.089-1.276,1.604-1.681,2.64c0.425,1.524,1.717,2.817,2.88,2.88
	c0.11,0.852,0.534,1.388,0.48,2.4c-0.944,0.517-1.452-0.335-1.68-1.2c-0.93-0.266-0.854,0.85-1.44,0.24
	c-0.47-0.448-0.074-0.879,0-1.44c-0.457-0.874-0.653-0.516-1.68-0.72c-0.174-0.733,0.414-0.706,0.24-1.439
	c-2.264,0.144-0.26-2.688-2.16-2.641c0.149-1.529,0.772-2.587,1.439-3.6c-0.239-0.924-0.969-0.446-1.439-0.721
	c-0.237-0.563-0.421-1.18-0.48-1.921c0.754,0.114,0.981-0.299,1.2-0.72c0.112-0.833-1.303-0.138-1.439-0.72
	c-0.505-1.075,1.902-1.07,1.92-2.4c-0.386-0.975-0.694-2.025-1.681-2.399c0.576-0.863,0.464-1.573-0.239-2.16
	c-0.237-2.316,1.645-2.516,2.159-4.08c-0.296-0.344-0.825-0.455-1.439-0.48c-0.249-3.277,2.434-2.592,4.56-3.119
	C59.055,54.141,58.741,57.743,59.318,60.163z"/>
<path fill="#262920" d="M51.878,54.163c-0.757-0.118-0.848,0.432-1.68,0.239C50.016,53.037,51.987,53.217,51.878,54.163z"/>
<path fill="#C1A165" d="M60.038,58.002c0.15-0.729-0.308-2.067,0.24-2.4C60.127,56.332,60.585,57.67,60.038,58.002z"/>
<path fill="#C1A165" d="M65.558,62.083c-1.604,0.012-1.552-0.314-3.359-0.24c0.438-3.288,5.826-3.973,5.76,0.24
	C67.158,62.083,66.358,62.083,65.558,62.083z"/>
<path fill="#C1A165" d="M68.918,63.521c0-0.8,0-1.6,0-2.399C69.315,61.381,69.315,63.264,68.918,63.521z"/>
<path fill="#262920" d="M67.958,62.083c-0.259,0.396-2.141,0.396-2.4,0C66.358,62.083,67.158,62.083,67.958,62.083z"/>
<path fill="#BDBBBA" d="M78.278,66.643c0-1.12,0-2.24,0-3.359C78.712,64.902,78.934,65.463,78.278,66.643z"/>
<path fill="#C1A165" d="M61.238,68.803c1.146,0.293,1.387,1.492,2.88,1.439c-0.639,1.12-1.201,2.318-2.641,2.641
	C61.011,71.549,61.035,70.302,61.238,68.803z"/>
<path fill="#C1A165" d="M63.158,79.361c3.577,0.443,6.646-1.661,8.399-3.84c1.275,1.846,2.879,3.361,3.36,6
	c-2.652,2.084-6.817,3.634-10.56,2.641c-0.635-0.646-0.799-1.763-1.2-2.641C63.156,80.774,62.59,79.959,63.158,79.361z"/>
<path fill="#C1A165" d="M89.318,77.923c1.718,0.041,1.253,2.267,2.88,2.398c-0.219,1.884-1.944,1.253-3.12,0.722
	C89.175,80.02,88.846,78.569,89.318,77.923z"/>
<path fill="#683928" d="M88.598,82.242c0.352,0.21,0.931,0.19,0.722,0.96c-0.24,0-0.48,0-0.722,0
	C88.598,82.883,88.598,82.562,88.598,82.242z"/>
<path fill="#C1A165" d="M70.118,109.843c0.694,0.104,1.094,0.506,1.2,1.2C70.372,111.188,70.255,110.506,70.118,109.843z"/>
<path fill="#C1A165" d="M90.519,111.282c0.266-0.614,1.288-0.472,2.159-0.479c0.038,0.758,0.01,1.448-0.479,1.68
	c-0.563,0.567-1.181-0.039-1.92,0C90.201,111.926,90.316,111.562,90.519,111.282z"/>
<path fill="#C1A165" d="M70.118,114.162c-0.318-0.401-0.636-0.805-0.48-1.681c0.279-0.201,0.645-0.315,1.2-0.239
	c0.194,0.046,0.239,0.24,0.48,0.239c0,0.4,0,0.801,0,1.2C71.002,113.928,70.433,113.918,70.118,114.162z"/>
<path fill="#C1A165" d="M90.758,114.162c0.661,0.688-0.136,1.273-0.239,1.921c-0.598,0.036-0.742-0.378-1.199-0.48
	C89.132,114.456,89.819,114.184,90.758,114.162z"/>
<path fill="#C1A165" d="M70.598,118.003c-0.595-0.285-0.89-0.87-0.72-1.92c0.284-0.276,0.848-0.272,1.44-0.24
	c0.193,0.046,0.238,0.24,0.479,0.24C71.822,117.146,71.514,117.878,70.598,118.003z"/>
<path fill="#C1A165" d="M88.358,116.803c0.43-0.03,0.506,0.294,0.96,0.24c0.143,0.862-0.087,1.354-0.722,1.438
	c-0.418,0.02-0.746-0.054-0.96-0.239C87.392,117.275,88.012,117.177,88.358,116.803z"/>
<path fill="#262920" d="M60.998,123.282c-1.534-0.613-0.834-3.097-0.96-4.08C62.137,117.734,61.208,121.42,60.998,123.282z"/>
<path fill="#C1A165" d="M85.478,120.162c0.652-1.017,1.216-0.345,1.92-0.239c-0.456,0.503-0.653,1.266-1.681,1.2
	c-0.054-0.188-0.007-0.475-0.239-0.48C85.478,120.481,85.478,120.321,85.478,120.162z"/>
<path fill="#35422D" d="M89.798,28.481c0.983,0.537,1.836,1.204,2.641,1.92C91.913,30.359,90.43,29.216,89.798,28.481z"/>
<path fill="#35422D" d="M80.438,25.123c1.302-0.263,1.595,0.483,2.64,0.479c0,0.08,0,0.16,0,0.24
	C82.131,25.669,81.22,25.461,80.438,25.123z"/>
<path fill="#35422D" d="M70.118,25.361c1.363-0.396,2.695-0.824,4.56-0.72C73.205,24.929,71.786,25.271,70.118,25.361z"/>
<path fill="#35422D" d="M63.158,29.922c0.78-0.98,1.66-1.86,2.64-2.641C65.019,28.263,64.138,29.143,63.158,29.922z"/>
<path fill="#35422D" d="M44.678,51.042c0.7-1.141,1.411-2.27,2.4-3.12C46.313,48.997,45.614,50.139,44.678,51.042z"/>
<path fill="#35422D" d="M54.278,73.843c-0.336,0.836,0.647,2.3,0.72,1.2c0.597,0.036,0.07,0.813,0,0.96
	C54.637,75.552,53.483,74.652,54.278,73.843z"/>
<path fill="#35422D" d="M63.638,111.043c0.315-0.085,0.377-0.423,0.721-0.48c-0.003,0.478-0.655,0.307-0.48,0.96
	c1.408-0.114,4.275-2.121,4.8-3.12c1.101-0.372-0.646,2.373,0.48,2.881c-0.971,0.7-1.533,3.268,0,3.841
	c-1.007,0.896-1.073,3.764,0.72,3.84c-0.311,0.696-0.311,1.703,0,2.398c0.394,1.193,2.516,0.289,2.4,1.44
	c0.368-0.993,1.328-1.392,1.68-2.4c-0.096-1.022-0.408-1.832-1.439-1.92c0.589-1.359,0.531-2.925-0.721-3.6
	c0.257-0.543,0.544-1.056,0.96-1.44c-0.186-0.532-0.139-1.301-0.72-1.438c3.013,1.177,4.504,7.365,2.64,9.358
	c0.936,0.865,0.16,1.948,0.48,3.36c-7.44,0-14.88,0-22.32,0c0.645-7.276,5.852-9.989,10.8-12.96
	C63.638,111.521,63.638,111.282,63.638,111.043z M60.038,119.202c0.125,0.983-0.574,3.467,0.96,4.08
	C61.208,121.42,62.137,117.734,60.038,119.202z"/>
<path fill="#35422D" d="M74.918,24.643c1.474-0.589,3.669,0.167,5.28,0.24C78.853,25.342,76.662,24.582,74.918,24.643z"/>
<path fill="#262920" d="M74.678,24.643c0.08,0,0.16,0,0.24,0c1.744-0.061,3.935,0.7,5.28,0.24c0.204-0.044,0.227,0.094,0.24,0.24
	c0.781,0.338,1.692,0.547,2.64,0.72c2.666,0.454,4.771,1.467,6.72,2.64c0.632,0.734,2.115,1.877,2.641,1.92
	c3.723,2.038,2.151,9.368,7.199,10.08c0.674,0.693,2.468,1.526,2.881,1.681c0.203-0.044,0.227,0.093,0.239,0.239
	c0.806,0.875,1.756,1.604,2.642,2.4c4.384,3.383,7.117,12.965,2.88,18.24c-0.174,0.732,0.245,0.875,0.239,1.439
	c-0.848,2.434-2.638,3.923-3.601,6.24c0.319,0.801,1.488,0.752,1.68,1.68c-0.795,3.524-3.243,5.396-6,6.96
	c0.186,0.904-0.293,1.147-0.238,1.921c-1.473,0.825-3.484,3.206-5.762,1.681c-1.74,1.938-4.322,0.237-6.479,1.438
	c-1.15,3.605,1.125,4.3,2.64,6.48c2.255,3.248,4.749,8.858,5.76,13.438c7.168,4.965,17.288,5.003,20.16,14.4
	c0.258,0.841-0.021,1.497,0.722,2.16c-0.318,1.838,0.524,2.515,0.72,3.84c-0.24,0-0.48,0-0.72,0c-1.265-3.163-2.343-6.551-3.36-8.64
	c-1.188-2.437-2.885-2.937-4.8-4.802c-0.931,0.774-0.41,0.025-1.2-0.479c-1.618-1.035-7.498-2.548-8.641-3.601
	c-0.569-0.524-2.416-1.005-3.359-1.681c-1.336,0.321-1.031,1.338-2.641,1.681c0.236,1.666-0.485,2.821,0.479,4.319
	c-0.417,0.863-0.557,2.004-1.68,2.16c0.281,3.557-3.33,4.664-4.08,7.92c-0.862-0.085-1.298,0.901-2.642,0.96
	c-1.808-0.723-1.707-3.549,0.48-3.84c-0.157-1.553,0.253-2.519,1.92-2.64c-0.102-0.996,0.584-2.172,1.44-2.881
	c-0.937-0.674,0.047-2.778,0.72-3.359c-5.321,1.992-8.931,4.211-13.2,7.2c-0.113,2.784-0.608,5.732-0.24,7.68
	c-0.479,0-0.96,0-1.439,0c-0.32-1.412,0.455-2.495-0.48-3.36c1.864-1.993,0.374-8.183-2.64-9.358
	c0.581,0.139,0.534,0.906,0.72,1.438c-0.416,0.386-0.703,0.897-0.96,1.44c1.252,0.675,1.311,2.239,0.721,3.6
	c1.031,0.088,1.344,0.896,1.439,1.92c-0.352,1.01-1.313,1.407-1.68,2.4c0.115-1.151-2.007-0.247-2.4-1.44
	c-0.311-0.695-0.311-1.702,0-2.398c-1.793-0.076-1.728-2.942-0.72-3.84c-1.533-0.573-0.972-3.141,0-3.842
	c-1.127-0.507,0.62-3.252-0.48-2.88c-0.524,0.999-3.392,3.005-4.8,3.12c-0.175-0.653,0.478-0.482,0.48-0.96
	c1.309-0.931,2.924-1.556,3.84-2.88c-3.396-3.594,0.423-8.242,1.68-12c-1.382-1.498-2.621-3.14-3.12-5.521
	c-1.261-1.618-2.955-2.806-3.12-5.521c-0.453-0.427-1.063-0.697-0.96-1.68c-3.851-0.549-5.686-3.114-7.68-5.521
	c0-0.479,0-0.96,0-1.438c0.07-0.147,0.597-0.924,0-0.96c-0.072,1.1-1.057-0.364-0.72-1.2c0.254-3.206-0.56-4.892-1.2-7.44
	c0.276-0.844,0.717-1.522,1.92-1.439c-0.702-2.309-1.655-2.991-1.68-5.76c0-0.16,0-0.32,0-0.48c-0.079,0.084-1.818,0.174-2.16,0.24
	c-5.423,0.431-9.967-3.673-6.48-7.92c0.938-0.904,1.636-2.045,2.4-3.12c3.667-3.453,7.926-6.314,13.2-8.16
	c0.153-3.399,1.151-7.295,2.88-9.84c0.979-0.779,1.86-1.66,2.64-2.641c1.299-0.78,2.608-1.552,4.32-1.92
	C71.786,25.271,73.205,24.929,74.678,24.643z M90.038,30.401c0.082,0.059,0.365-0.125,0.24-0.239
	c-0.976-0.895-1.728-0.503-2.642-0.96c-0.105-0.055-0.09-0.63-0.239-0.721c-5.262-3.18-12.98-3.181-17.521-1.92
	c-5.387,1.497-7.907,6.532-8.16,12.72c6.629-2.56,15.925-2.872,22.562-3.119c4.012,1.274,7.526,1.244,10.56,2.399
	C94.688,34.331,92.599,32.187,90.038,30.401z M44.438,55.361c2.107,2.592,6.815,2.77,9.119,2.881c2.349-1.38-0.313-3.825,0.961-5.04
	c-0.438,0.297-1.955,0.747-2.16,0.479c-0.224-0.848,0.611-0.821,0.96-0.96c1.442-0.577,3.203-0.801,5.04-0.96
	c0.066-0.493,0.641-0.479,0.96-0.72c5.322-0.712,12.522-0.889,18-0.48c6.691,0.498,19.075,2.897,24.96,6
	c2.12,1.118,4.009,3.407,3.84,5.28c0.578-0.098,0.521,0.438,1.2,0.24c2.578-2.521,2.308-8.104,1.198-10.561
	c-0.427-0.144-0.995,0.704-1.198,0c0.596,0.036,0.995-0.124,1.198-0.479c-3.263-5.264-5.536-8.503-12-10.561
	c-4.178-1.33-12.367-3.938-17.76-2.64c0-0.241,0.194-0.286,0.24-0.48c-12.175,0.807-23.58,3.493-32.64,12.721
	c0-0.133-0.194-0.272-0.24,0C46.276,51.604,43.648,52.411,44.438,55.361z M70.598,51.042c-3.321,0.54-5.66,0.317-9.6,0.96
	c-0.108,1.332-0.666,2.215-0.72,3.6c-0.547,0.333-0.089,1.67-0.24,2.4c0.291,1.021,0.837,3.137,1.92,1.92
	c0.566-0.233,0.917-0.684,1.44-0.96c-0.65-0.217,0.549-0.537,0.479-0.96c2.348-1.076,5.091,0.34,5.04,3.12c0,0.8,0,1.6,0,2.399
	c-0.623,6.817-6.038,8.842-8.88,13.44c0.496,0.203,0.784,1.005,1.2,1.199c3.958,1.854,8.636-2.627,11.52-4.561
	c0.048,3.449,4.058,6.142,3.601,10.08c-0.759,0.118-0.09-1.191-0.96-0.96c-1.853,2.774-4.662,5.647-9.12,5.04
	c1.593,3.362,5.365-0.612,7.199-0.48c-1.179,1.622-2.897,2.702-5.279,3.12c0.141,2.865,2.433,4.705,4.56,4.801
	c-0.675,0.308,2.065,0.463,2.16,0c0.83,0.348,1.131-0.269,1.68,0.239c-0.148,0.731-1.291,0.47-1.439,1.2
	c2.063,2.817,3.185,7.854,4.56,10.561c0.813-0.787,1.298-1.901,1.92-2.881c0.465-3.049,4.289-4.238,5.04-7.438
	c0.495-2.107-0.366-4.791-0.239-7.2c0.215-4.07,0.868-7.813,1.439-10.8c-0.584-1.576-2.09-2.23-2.4-4.08
	c0.489-0.632,1.946-0.294,2.642-0.721c0.88-2.474-0.386-6.901,2.399-8.399c-1.223-1.535,0.756-2.327,1.199-3.6
	c-1.053-0.707-1.269-2.251-2.64-2.641c0.558-4.327-5.343-3.601-6-7.439c-3.98-0.179-6.12-0.726-9.36-0.721
	C73.15,50.729,71.564,51.195,70.598,51.042z M59.798,52.243c-2.126,0.527-4.809-0.159-4.56,3.119
	c0.614,0.025,1.144,0.137,1.439,0.48c-0.515,1.565-2.396,1.764-2.159,4.08c0.703,0.587,0.814,1.297,0.239,2.16
	c0.986,0.374,1.295,1.425,1.681,2.399c-0.018,1.33-2.425,1.325-1.92,2.4c0.137,0.583,1.552-0.112,1.439,0.72
	c-0.219,0.42-0.446,0.834-1.2,0.72c0.06,0.741,0.243,1.356,0.48,1.921c0.471,0.273,1.2-0.203,1.439,0.721
	c-0.667,1.013-1.29,2.069-1.439,3.6c1.9-0.049-0.104,2.783,2.16,2.641c0.174,0.733-0.414,0.706-0.24,1.439
	c1.025,0.204,1.224-0.153,1.68,0.72c-0.074,0.563-0.47,0.992,0,1.44c0.586,0.608,0.511-0.506,1.44-0.24
	c0.228,0.865,0.735,1.717,1.68,1.2c0.054-1.014-0.37-1.55-0.48-2.4c-1.163-0.063-2.456-1.354-2.88-2.88
	c0.404-1.036,1.33-1.551,1.681-2.64c-1.388-4.004,0.666-6.914,0.479-11.28c-0.827-0.692-2.034-1.006-2.399-2.16
	c0.41-0.782,0.943,0.938,0.96-0.239C58.741,57.743,59.055,54.141,59.798,52.243z M88.118,53.922c0.073,0.727,0.742,0.856,0.479,1.92
	c0.834,0.127,1.271,0.65,1.92,0.96c0.18,0.979-0.772,0.827-0.479,1.92c0.239,0.562,1.309,0.292,1.68,0.72
	c-0.082,1.604,1.045,1.996,1.2,3.36c-0.428,0.693-1.544,0.696-1.68,1.68c-0.079,1.039,1.329,0.591,1.198,1.681
	c-0.959,0.079-1.426,0.652-2.158,0.96c0.076,0.563,0.379,0.9,0.238,1.68c-0.452-0.054-0.528,0.27-0.96,0.24
	c-0.014,2.468,0.747,6.499-2.398,6.479c0.438,0.602,0.813,1.268,1.438,1.681c0.814-0.146,0.451-1.47,1.44-1.439
	c0.584,1.096,1.638,1.723,1.92,3.12c1.631-0.063,3.125,0.259,3.84,2.16c-1.427,0.275-1.326-0.159-2.399-0.722
	c0.035,1.558-1.312,1.729-1.92,2.642c1.666,0.892,2.145-0.903,2.881-1.681c1.209,2.087,3.348,0.621,4.8-0.239
	c0.253-0.979-0.067-1.139,0-2.4c1.233,0.274,0.716-1.204,1.2-1.68c0.49,0.721,1.838,0.511,2.398,0c0.253-0.894-0.81-0.471-0.96-0.96
	c0.241-0.319,0.229-0.895,0.72-0.96c0.534,0.187,0.938,0.504,1.682,0.479c0.143-1.217,1.271-1.447,1.2-2.88
	c-1.768-0.32-4.884,0.656-4.08-1.92c0.601-0.042,0.582,0.537,0.96,0.72c2.633-0.649,1.07-3.795,3.84-4.08
	c0.237-0.957-0.718-0.723-0.48-1.68c0.803,0.053,1.669-0.338,1.44-1.92c-0.488-0.632-1.593-0.647-2.4-0.96
	c1.236-2.87-1.988-3.266-2.64-5.04c-4.145-1.559-11.547-4.571-17.28-5.28C84.714,54.127,86.541,53.898,88.118,53.922z
	 M67.958,62.083c0.065-4.213-5.323-3.528-5.76-0.24c1.809-0.074,1.755,0.252,3.359,0.24C65.817,62.479,67.699,62.479,67.958,62.083z
	 M62.438,63.042c-1.347,1.021-0.825,6.819,2.399,5.76c0.054,0.186,0.006,0.473,0.24,0.479c1.235-0.926,2.053-1.663,1.92-2.399
	c0.178-1.002,1.899-2.818,0.479-3.84c-0.452,1.228-0.745,2.614-2.399,2.64c-0.217-0.423-0.883-0.396-0.96-0.96
	c0.882,0.729-0.231-1.302-0.24-1.92C63.456,62.939,62.468,62.512,62.438,63.042z M61.478,72.883c1.439-0.321,2-1.521,2.641-2.641
	c-1.493,0.053-1.733-1.146-2.88-1.439C61.035,70.302,61.011,71.549,61.478,72.883z M63.158,81.521
	c0.401,0.878,0.565,1.994,1.2,2.641c3.742,0.993,7.907-0.557,10.56-2.641c-0.48-2.639-2.085-4.154-3.36-6
	c-1.753,2.179-4.822,4.283-8.399,3.84C62.139,79.399,62.831,81.293,63.158,81.521z M89.078,81.043
	c1.176,0.531,2.901,1.162,3.12-0.722c-1.627-0.133-1.162-2.357-2.88-2.398C88.846,78.569,89.175,80.02,89.078,81.043z
	 M88.598,83.202c0.24,0,0.48,0,0.722,0c0.209-0.77-0.37-0.75-0.722-0.96C88.598,82.562,88.598,82.883,88.598,83.202z M69.878,86.083
	c0.093-0.344,0.288-0.405,0-0.722c-1.021,0.019-1.679,0.401-2.88,0.24c0.055,0.425-0.242,1.202,0.479,0.96
	C68.022,87.091,69.873,86.889,69.878,86.083z M64.598,85.361c-0.114,0.756,0.343,0.938,0.48,1.44c0.754-0.271,0.634,0.068,1.2-0.24
	c0-0.319,0-0.64,0-0.96C65.233,85.517,65.174,85.565,64.598,85.361z M70.598,85.603c0.53,0.41,1.5-0.276,1.681-0.96
	C71.493,84.736,70.726,84.851,70.598,85.603z M78.998,109.123c0.055-0.951-1.923-2.905-1.44-4.32
	c-0.346-0.531-0.586,0.302-0.72-0.24c0.104-2.49-2.131-5.395-2.88-8.16c-1.542-0.056-2.07-0.055-3.12-0.239
	c-0.87,3.226-4.06,6.152-2.64,9.601c0.897,2.181,5.496,3.642,5.52,6.24c1.832,0.328,1.442,2.878,3.12,3.358
	c1.715-0.771,5.03-4.102,7.2-3.6c0.033-0.447,0.157-0.802,0.479-0.96c3.863-1.497,6.888-3.834,10.32-5.76
	c0.4-5.449-3.417-10.752-6.96-15.36c-0.628,2.873,0.914,8.297-0.72,8.4c-2.137,2.972-3.708,6.089-5.76,9.119
	c-0.079,0.116-0.429-0.299-0.48-0.239c-1.236,1.396-1.712,5.3-2.88,5.04c0.061,1.154-0.213,2.24-1.2,1.68
	C77.29,112.776,78.924,110.389,78.998,109.123z M90.519,111.282c-0.524,0.035-0.516,0.604-0.479,1.199
	c0.527,0.214,1.891,0.971,2.16,0c0.488-0.23,0.518-0.922,0.479-1.68C91.807,110.812,90.783,110.668,90.519,111.282z M70.838,112.242
	c-0.334-0.696-1.185,0.067-1.439,0.239c-0.114,0.914,0.102,1.498,0.72,1.681c0.314-0.244,0.885-0.234,1.2-0.479c0-0.399,0-0.8,0-1.2
	C71.077,112.482,71.032,112.288,70.838,112.242z M89.318,115.603c0.457,0.104,0.603,0.518,1.198,0.48
	c0.104-0.646,0.901-1.231,0.24-1.921C89.819,114.184,89.132,114.456,89.318,115.603z M71.318,115.843
	c-0.372-0.661-1.44-0.023-1.681,0.24c-0.104,0.824,0.096,1.345,0.24,1.92c0.24,0,0.48,0,0.72,0c0.916-0.125,1.225-0.856,1.2-1.92
	C71.557,116.083,71.512,115.889,71.318,115.843z M88.358,116.803c-0.873,0.008-1.056,0.705-0.961,1.68
	c0.428-0.144,0.996,0.704,1.199,0c0.635-0.086,0.863-0.575,0.722-1.438C88.864,117.097,88.788,116.771,88.358,116.803z
	 M72.278,120.883c1.247,0.061,0.57-1.505,0.24-1.92c-0.359,0.041-0.887-0.086-0.961,0.239c-0.755-0.034-0.824,0.615-0.96,1.199
	C70.999,120.721,71.402,121.038,72.278,120.883z M85.478,120.643c2.541,2.391,2.013-3.776,0-0.479
	C85.478,120.321,85.478,120.481,85.478,120.643z M71.318,111.043c-0.106-0.694-0.506-1.096-1.2-1.2
	C70.255,110.506,70.372,111.188,71.318,111.043z"/>
<path fill="#35422D" d="M93.397,50.083c0.004-0.368,0.654-0.789,0.479,0c0.233-0.007,0.188-0.294,0.24-0.48
	c0.564,0.203-0.2,1.053-0.24,1.44C93.15,51.803,94.582,49.777,93.397,50.083z"/>
<path fill="#262920" d="M63.878,58.002c0.069,0.423-1.13,0.743-0.479,0.96c-0.523,0.276-0.874,0.727-1.44,0.96
	c0.135-1.064,1.237-1.163,1.68-1.92C63.718,58.002,63.798,58.002,63.878,58.002z"/>
<path fill="#C1A165" d="M81.638,104.321c-0.622,0.979-1.107,2.094-1.92,2.881c0.422-1.099,1.199-1.842,1.681-2.881
	C81.478,104.321,81.558,104.321,81.638,104.321z"/>
<path fill="#C1A165" d="M61.718,55.842c0.785-1.15,2.806-2.881,3.84-1.68C64.205,53.459,62.808,54.929,61.718,55.842z"/>
<path fill="#262920" d="M77.558,56.802c-1.676-0.404-2.504-1.656-4.319-1.92c0-0.32,0-0.64,0-0.96
	C75.36,53.271,77.583,55.345,77.558,56.802z"/>
<path fill="#C1A165" d="M60.278,55.603c0.055-1.385,0.611-2.268,0.72-3.6c3.939-0.643,6.278-0.42,9.6-0.96
	c0.568,0.552,2.154,0.086,3.12,0.24c3.24-0.006,5.38,0.542,9.36,0.72c0.657,3.839,6.558,3.113,6,7.439
	c1.371,0.39,1.587,1.934,2.64,2.641c-0.443,1.272-2.422,2.064-1.199,3.6c-2.785,1.498-1.521,5.927-2.399,8.399
	c-0.694,0.427-2.151,0.089-2.642,0.721c0.312,1.85,1.816,2.504,2.4,4.08c-0.571,2.987-1.226,6.729-1.439,10.8
	c-0.127,2.409,0.734,5.093,0.239,7.2c-0.751,3.2-4.575,4.391-5.04,7.438c-0.08,0-0.16,0-0.239,0
	c-0.481,1.039-1.259,1.782-1.681,2.881c-1.375-2.705-2.497-7.742-4.56-10.561c0.148-0.73,1.291-0.469,1.439-1.2
	c-0.549-0.508-0.85,0.107-1.68-0.239c-0.534-0.506-1.157,0.253-2.16,0c-2.127-0.096-4.419-1.936-4.56-4.801
	c2.382-0.418,4.102-1.498,5.279-3.119c-1.834-0.133-5.606,3.843-7.199,0.479c4.458,0.607,7.269-2.266,9.12-5.04
	c0.87-0.23,0.201,1.078,0.96,0.96c0.457-3.938-3.553-6.631-3.601-10.08c-2.884,1.934-7.563,6.415-11.52,4.561
	c-0.416-0.194-0.704-0.996-1.2-1.199c2.842-4.6,8.257-6.623,8.88-13.44c0.397-0.259,0.397-2.141,0-2.399
	c0.051-2.78-2.692-4.196-5.04-3.12c-0.08,0-0.16,0-0.24,0c-0.441,0.757-1.544,0.854-1.68,1.92c-1.083,1.217-1.629-0.899-1.92-1.92
	C60.585,57.67,60.127,56.332,60.278,55.603z M65.558,54.163c-1.035-1.201-3.056,0.529-3.84,1.68c-0.074,0.325-0.341,0.458-0.24,0.96
	C62.896,56.108,65.451,55.377,65.558,54.163z M73.238,53.922c0,0.32,0,0.64,0,0.96c1.815,0.264,2.644,1.516,4.319,1.92
	C77.583,55.345,75.36,53.271,73.238,53.922z M76.838,58.481c-0.889-1.019-2.475-1.025-3.6-0.239c0,0.079,0,0.159,0,0.239
	c-0.917,0.204-1.155,1.085-1.44,1.92c-0.802,1.186-0.641,4.689,0,5.28c0.106,1.253,0.632,2.088,1.44,2.64
	c0.229,0.651,0.862,0.897,1.2,1.44c5.473,0.676,5.205-3.749,4.8-7.92c1.051,0.011,1.48-0.599,2.16-0.96c0.079,0,0.159,0,0.239,0
	c0.074-0.566,0.834-0.446,0.721-1.2c-0.432,0.031-0.563-0.238-0.479-0.72c-1.604-0.004-1.756,1.443-3.36,1.439
	C78.269,59.451,77.562,58.959,76.838,58.481z"/>
<path fill="#262920" d="M71.798,65.683c0.478,0.883,0.79,1.93,1.44,2.64C72.43,67.771,71.904,66.936,71.798,65.683z"/>
<path fill="#262920" d="M81.398,60.882c0.134-0.346,0.375-0.585,0.72-0.72c-0.104-0.377-0.755-0.205-0.48-0.96
	c-1.359,0.158-1.608,1.43-3.119,1.439c-0.291-0.991-1.228-1.333-1.681-2.16c0.725,0.478,1.433,0.97,1.681,1.92
	c1.604,0.004,1.755-1.443,3.359-1.439c-0.082,0.481,0.049,0.751,0.479,0.72c0.113,0.753-0.646,0.634-0.721,1.2
	C81.558,60.882,81.478,60.882,81.398,60.882z"/>
<path fill="#262920" d="M71.798,60.401c0.285-0.835,0.523-1.716,1.44-1.92c-0.051,0.271-0.267,0.374-0.48,0.48
	c0.022,0.378,0.612,0.188,0.48,0.72c-0.479-0.482-1.041,0.178-1.2,0.72C71.958,60.401,71.878,60.401,71.798,60.401z"/>
<path fill="#262920" d="M72.519,61.603c0.842,0.607,2.125-0.002,3.119,0C75.162,61.943,72.813,62.645,72.519,61.603z"/>
<path fill="#BDBBBA" d="M73.718,63.521c0.52,3.931,3.742,1.71,3.84-1.2c0.774-0.214,0.338,0.783,0.721,0.96c0,1.12,0,2.24,0,3.36
	c-0.199,0.602-0.657,0.942-0.721,1.68c-1.841,0.771-3.47,0.374-4.08-1.68c-0.207-1.073-0.582-1.977-0.479-3.36
	C73.386,63.215,73.411,63.509,73.718,63.521z"/>
<path fill="#BDBBBA" d="M72.998,63.283c-0.103,1.383,0.272,2.286,0.479,3.359c-0.55-0.41-0.567-1.353-0.72-2.16
	C72.889,64.134,72.478,63.242,72.998,63.283z"/>
<path fill="#262920" d="M72.758,64.481c-0.53-0.029-0.102-1.018-0.239-1.439c0.595-0.035,1.164-0.045,1.199,0.479
	c-0.307-0.013-0.332-0.308-0.72-0.24C72.478,63.242,72.889,64.134,72.758,64.481z"/>
<path fill="#262920" d="M64.838,68.803c1.374,0.014,1.423-1.297,2.16-1.92c0.132,0.736-0.685,1.475-1.92,2.4
	C64.844,69.275,64.892,68.988,64.838,68.803z"/>
<path fill="#262920" d="M62.438,63.042c0.029-0.53,1.018-0.103,1.439-0.24c0.008,0.618,1.122,2.648,0.24,1.92
	C63.781,63.938,64.03,62.57,62.438,63.042z"/>
<path fill="#BDBBBA" d="M62.438,63.042c1.592-0.473,1.343,0.896,1.68,1.68c0.077,0.563,0.743,0.537,0.96,0.96
	c1.655-0.025,1.948-1.413,2.399-2.64c1.42,1.021-0.302,2.837-0.479,3.84c-0.737,0.623-0.786,1.934-2.16,1.92
	C61.613,69.861,61.092,64.063,62.438,63.042z"/>
<path fill="#262920" d="M99.878,75.043c0.438,1.709-1.925,1.653-2.88,1.199c0.333-0.147,0.036-0.925,0.479-0.961
	C98.353,75.096,98.781,75.588,99.878,75.043z"/>
<path fill="#C1A165" d="M63.158,79.361c-0.567,0.598-0.002,1.413,0,2.16C62.831,81.293,62.139,79.399,63.158,79.361z"/>
<path fill="#BDBBBA" d="M72.278,84.643c-0.181,0.684-1.15,1.37-1.681,0.96C70.726,84.851,71.493,84.736,72.278,84.643z"/>
<path fill="#BDBBBA" d="M67.478,86.562c1,0.04,2.004,0.083,2.4-0.479C69.873,86.889,68.022,87.091,67.478,86.562z"/>
<path fill="#C1A165" d="M92.198,112.481c-0.271,0.971-1.633,0.214-2.16,0c-0.035-0.595-0.045-1.164,0.479-1.199
	c-0.2,0.278-0.315,0.644-0.238,1.199C91.019,112.442,91.635,113.05,92.198,112.481z"/>
<path fill="#C1A165" d="M70.118,114.162c-0.618-0.183-0.833-0.767-0.72-1.681c0.255-0.172,1.104-0.937,1.439-0.239
	c-0.557-0.076-0.921,0.038-1.2,0.239C69.482,113.357,69.8,113.761,70.118,114.162z"/>
<path fill="#35422D" d="M76.598,124.723c-0.368-1.946,0.127-4.896,0.24-7.68c4.271-2.989,7.879-5.208,13.2-7.2
	c-0.673,0.581-1.655,2.687-0.72,3.359c-0.856,0.709-1.542,1.885-1.44,2.881c-1.667,0.121-2.077,1.087-1.92,2.64
	c-2.188,0.291-2.288,3.117-0.48,3.84c1.344-0.059,1.778-1.045,2.642-0.96c0.75-3.256,4.361-4.363,4.08-7.92
	c1.123-0.156,1.263-1.297,1.68-2.16c-0.966-1.498-0.243-2.653-0.479-4.319c1.608-0.343,1.305-1.358,2.641-1.681
	c0.943,0.677,2.79,1.155,3.359,1.681c1.143,1.053,7.021,2.564,8.641,3.601c0.79,0.505,0.271,1.254,1.2,0.479
	c1.915,1.864,3.612,2.364,4.8,4.801c1.019,2.089,2.097,5.477,3.36,8.64C103.798,124.723,90.198,124.723,76.598,124.723z"/>
<path fill="#C1A165" d="M70.598,118.003c-0.239,0-0.479,0-0.72,0c-0.145-0.575-0.345-1.096-0.24-1.92
	c0.24-0.265,1.31-0.901,1.681-0.24c-0.593-0.032-1.156-0.036-1.44,0.24C69.708,117.133,70.003,117.718,70.598,118.003z"/>
<path fill="#C1A165" d="M88.598,118.481c-0.202,0.704-0.771-0.144-1.199,0c-0.095-0.975,0.088-1.672,0.961-1.68
	c-0.348,0.374-0.968,0.474-0.722,1.439C87.853,118.429,88.18,118.501,88.598,118.481z"/>
<path fill="#C1A165" d="M71.558,119.202c0.074-0.325,0.602-0.198,0.961-0.239c0.33,0.415,1.006,1.979-0.24,1.92
	c0.678-0.271,0.467-1.057,0.24-1.681C72.198,119.202,71.878,119.202,71.558,119.202z"/>
<path fill="#C1A165" d="M85.478,120.162c2.013-3.297,2.541,2.87,0,0.479c0.232,0.007,0.187,0.294,0.239,0.48
	c1.026,0.064,1.225-0.697,1.681-1.2C86.693,119.817,86.131,119.146,85.478,120.162z"/>
<path fill="#683928" d="M84.758,52.481c5.733,0.709,13.138,3.723,17.28,5.28c0.65,1.774,3.876,2.17,2.64,5.04
	c0.809,0.313,1.912,0.329,2.4,0.96c0.229,1.582-0.639,1.973-1.44,1.92c-0.236,0.957,0.719,0.723,0.48,1.68
	c-2.77,0.285-1.207,3.431-3.84,4.08c-0.378-0.183-0.359-0.762-0.96-0.72c-0.804,2.576,2.313,1.6,4.08,1.92
	c0.07,1.432-1.059,1.663-1.2,2.88c-0.744,0.024-1.146-0.293-1.682-0.479c-0.491,0.065-0.479,0.641-0.72,0.96
	c0.15,0.489,1.213,0.066,0.96,0.96c-0.562,0.511-1.908,0.721-2.398,0c-0.484,0.476,0.033,1.954-1.2,1.68
	c-0.067,1.263,0.253,1.423,0,2.4c-1.452,0.86-3.591,2.326-4.8,0.238c-0.736,0.777-1.215,2.572-2.881,1.682
	c0.608-0.911,1.955-1.084,1.92-2.642c1.073,0.563,0.974,0.997,2.399,0.722c-0.715-1.901-2.209-2.224-3.84-2.16
	c-0.282-1.397-1.336-2.024-1.92-3.12c-0.989-0.029-0.626,1.294-1.44,1.439c-0.627-0.413-1.001-1.079-1.438-1.681
	c3.146,0.02,2.386-4.012,2.398-6.479c0.432,0.029,0.508-0.294,0.96-0.24c0.141-0.779-0.162-1.117-0.238-1.68
	c0.732-0.308,1.199-0.882,2.159-0.96c0.13-1.09-1.278-0.642-1.199-1.681c0.136-0.983,1.252-0.986,1.68-1.68
	c-0.155-1.364-1.282-1.757-1.2-3.36c-0.371-0.428-1.439-0.158-1.68-0.72c-0.294-1.094,0.658-0.942,0.479-1.92
	c-0.648-0.31-1.086-0.833-1.92-0.96c0.264-1.063-0.405-1.193-0.479-1.92C86.541,53.898,84.714,54.127,84.758,52.481z M90.998,74.082
	c0.802,1.118,2.178,1.663,2.16,3.601c0.786,0.014,0.917,0.684,1.92,0.479c-0.011-0.33,0.113-0.526,0.24-0.721
	c-0.716-0.73-1.794-1.813-1.44-2.88c-1.429-0.109-1.34-1.245-1.92-1.68C91.43,73.074,91,73.363,90.998,74.082z M97.478,75.281
	c-0.443,0.036-0.146,0.813-0.479,0.961c0.955,0.454,3.316,0.51,2.88-1.199C98.781,75.588,98.353,75.096,97.478,75.281z"/>
<path fill="#262920" d="M91.958,72.883c0.58,0.435,0.491,1.569,1.92,1.68c-0.354,1.067,0.727,2.148,1.44,2.88
	c-0.127,0.193-0.251,0.391-0.24,0.721c-1.003,0.203-1.134-0.467-1.92-0.479c0.018-1.938-1.358-2.481-2.16-3.601
	C91,73.363,91.43,73.074,91.958,72.883z"/>
<path fill="#35422D" d="M94.838,38.562c-3.032-1.155-6.548-1.125-10.56-2.399c-6.637,0.247-15.933,0.56-22.562,3.119
	c0.253-6.188,2.773-11.223,8.16-12.72c4.539-1.261,12.259-1.26,17.521,1.92c0.149,0.091,0.134,0.667,0.239,0.721
	c0.914,0.457,1.666,0.065,2.642,0.96c0.125,0.113-0.158,0.297-0.24,0.239C92.599,32.187,94.688,34.331,94.838,38.562z"/>
<path fill="#262920" d="M61.718,55.842c1.09-0.913,2.487-2.383,3.84-1.68c-0.106,1.215-2.662,1.946-4.08,2.64
	C61.376,56.301,61.644,56.167,61.718,55.842z"/>
<path fill="#262920" d="M76.838,58.481c0.454,0.827,1.392,1.169,1.681,2.16c1.51-0.01,1.759-1.281,3.119-1.439
	c-0.274,0.755,0.377,0.583,0.48,0.96c-0.346,0.134-0.586,0.374-0.72,0.72c-0.68,0.361-1.109,0.971-2.16,0.96
	c0.405,4.172,0.673,8.596-4.8,7.92c-0.338-0.543-0.972-0.789-1.2-1.44c-0.65-0.709-0.963-1.756-1.44-2.64
	c-0.641-0.591-0.802-4.095,0-5.28c0.08,0,0.16,0,0.24,0c0.159-0.542,0.721-1.202,1.2-0.72c0.132-0.532-0.458-0.342-0.48-0.72
	c0.214-0.106,0.43-0.21,0.48-0.48c0-0.08,0-0.16,0-0.239C74.363,57.456,75.949,57.464,76.838,58.481z M72.519,61.603
	c0.295,1.042,2.644,0.342,3.119,0c0.563-0.077,0.901-0.379,1.681-0.24C76.997,58.184,72.646,58.491,72.519,61.603z M73.718,63.521
	c-0.035-0.524-0.604-0.515-1.199-0.479c0.138,0.422-0.291,1.41,0.239,1.439c0.152,0.809,0.17,1.75,0.72,2.16
	c0.61,2.054,2.239,2.451,4.08,1.68c0.063-0.736,0.521-1.078,0.721-1.68c0.656-1.179,0.434-1.74,0-3.36
	c-0.383-0.177,0.055-1.175-0.721-0.96C77.459,65.231,74.236,67.453,73.718,63.521z"/>
<path fill="#35422D" d="M76.838,113.683c0.987,0.562,1.261-0.524,1.2-1.68c1.167,0.26,1.644-3.644,2.88-5.04
	c0.052-0.06,0.401,0.355,0.48,0.239c2.052-3.03,3.624-6.147,5.76-9.119c1.634-0.104,0.092-5.527,0.72-8.4
	c3.543,4.608,7.36,9.911,6.96,15.36c-3.434,1.926-6.457,4.263-10.319,5.76c-0.322,0.158-0.446,0.513-0.479,0.96
	c-2.17-0.502-5.485,2.827-7.2,3.6c-1.678-0.48-1.288-3.03-3.12-3.358c-0.023-2.6-4.622-4.061-5.52-6.24
	c-1.419-3.447,1.77-6.375,2.64-9.601c1.05,0.186,1.578,0.185,3.12,0.239c0.749,2.767,2.982,5.67,2.88,8.16
	c0.134,0.542,0.375-0.291,0.721,0.24c-0.483,1.415,1.494,3.369,1.439,4.32C78.924,110.389,77.29,112.776,76.838,113.683z"/>
<path fill="#262920" d="M52.358,124.723c-0.379-8.699,5.958-10.683,11.279-13.68c0,0.239,0,0.479,0,0.72
	c-4.948,2.971-10.155,5.684-10.8,12.96C52.678,124.723,52.519,124.723,52.358,124.723z"/>
<path fill="#C1A165" d="M74.918,95.202c-0.095,0.463-2.835,0.308-2.16,0C73.761,95.455,74.384,94.696,74.918,95.202z"/>
<path fill="#C1A165" d="M72.519,61.603c0.128-3.111,4.479-3.418,4.8-0.24c-0.779-0.139-1.117,0.164-1.681,0.24
	C74.644,61.601,73.36,62.21,72.519,61.603z"/>
<path fill="#BDBBBA" d="M66.278,85.603c0,0.32,0,0.641,0,0.96c-0.566,0.31-0.446-0.03-1.2,0.24c-0.138-0.502-0.595-0.686-0.48-1.44
	C65.174,85.565,65.233,85.517,66.278,85.603z"/>
<path fill="#BDBBBA" d="M67.478,86.562c-0.722,0.242-0.425-0.535-0.479-0.96c1.201,0.161,1.857-0.223,2.88-0.24
	c0.288,0.315,0.093,0.378,0,0.722C69.481,86.646,68.478,86.603,67.478,86.562z"/>
<path fill="#C1A165" d="M72.278,120.883c-0.876,0.155-1.278-0.162-1.681-0.48c0.137-0.584,0.206-1.233,0.96-1.199
	c0.32,0,0.641,0,0.961,0C72.745,119.826,72.956,120.611,72.278,120.883z"/>
<path fill="#35422D" d="M121.126,205.034c-0.046,0.272-0.241,0.133-0.24,0c-9.06,9.228-20.465,11.915-32.64,12.721
	c0.046-0.194,0.241-0.239,0.24-0.48c-5.393,1.299-13.582-1.311-17.761-2.64c-6.463-2.058-8.736-5.297-12-10.561
	c0.204-0.355,0.604-0.516,1.199-0.479c-0.203-0.704-0.771,0.144-1.199,0c-1.107-2.456-1.379-8.04,1.199-10.561
	c0.68-0.197,0.622,0.338,1.2,0.24c-0.169,1.873,1.72,4.162,3.84,5.28c5.886,3.103,18.27,5.502,24.96,6
	c5.478,0.408,12.678,0.231,18-0.48c0.319-0.241,0.894-0.227,0.96-0.72c1.837-0.159,3.598-0.383,5.04-0.96
	c0.349-0.139,1.184-0.112,0.96-0.96c-0.205-0.268-1.723,0.183-2.159,0.479c1.273-1.215-1.389-3.66,0.959-5.04
	c2.305,0.111,7.013,0.289,9.12,2.881C123.596,202.706,120.968,203.514,121.126,205.034z M117.046,200.716
	c-0.833-0.192-0.923,0.356-1.68,0.239C115.257,201.9,117.229,202.08,117.046,200.716z"/>
<path fill="#C1A165" d="M96.646,204.075c-0.967-0.153-2.553,0.313-3.12-0.239C94.492,203.989,96.078,203.523,96.646,204.075z"/>
<path fill="#683928" d="M107.926,194.954c0.017-1.178,0.55,0.543,0.96-0.239c-0.365-1.154-1.572-1.468-2.399-2.16
	c-0.187-4.367,1.867-7.276,0.479-11.28c0.352-1.089,1.276-1.604,1.681-2.64c-0.425-1.524-1.717-2.817-2.88-2.88
	c-0.11-0.852-0.534-1.388-0.48-2.4c0.944-0.517,1.452,0.335,1.68,1.2c0.93,0.266,0.854-0.85,1.44-0.24
	c0.47,0.448,0.074,0.879,0,1.44c0.457,0.874,0.653,0.516,1.68,0.72c0.174,0.733-0.414,0.706-0.24,1.439
	c2.264-0.144,0.26,2.688,2.16,2.641c-0.149,1.529-0.772,2.587-1.439,3.6c0.239,0.924,0.969,0.446,1.439,0.721
	c0.237,0.563,0.421,1.18,0.48,1.921c-0.754-0.114-0.981,0.299-1.2,0.72c-0.112,0.833,1.303,0.138,1.439,0.72
	c0.505,1.075-1.902,1.07-1.92,2.4c0.386,0.975,0.694,2.025,1.681,2.399c-0.576,0.863-0.464,1.573,0.239,2.16
	c0.237,2.316-1.645,2.516-2.159,4.08c0.296,0.344,0.825,0.455,1.439,0.48c0.249,3.277-2.434,2.592-4.56,3.119
	C108.189,200.977,108.503,197.374,107.926,194.954z"/>
<path fill="#262920" d="M115.366,200.954c0.757,0.118,0.848-0.432,1.68-0.239C117.229,202.08,115.257,201.9,115.366,200.954z"/>
<path fill="#C1A165" d="M107.206,197.115c-0.15,0.729,0.308,2.067-0.24,2.4C107.117,198.785,106.659,197.447,107.206,197.115z"/>
<path fill="#C1A165" d="M101.687,193.034c1.604-0.012,1.552,0.314,3.359,0.24c-0.438,3.288-5.826,3.973-5.76-0.24
	C100.086,193.034,100.886,193.034,101.687,193.034z"/>
<path fill="#C1A165" d="M98.326,191.596c0,0.8,0,1.6,0,2.399C97.929,193.736,97.929,191.854,98.326,191.596z"/>
<path fill="#262920" d="M99.286,193.034c0.259-0.396,2.141-0.396,2.4,0C100.886,193.034,100.086,193.034,99.286,193.034z"/>
<path fill="#BDBBBA" d="M88.966,188.475c0,1.12,0,2.24,0,3.359C88.532,190.215,88.311,189.654,88.966,188.475z"/>
<path fill="#C1A165" d="M106.006,186.314c-1.146-0.293-1.387-1.492-2.88-1.439c0.639-1.12,1.201-2.318,2.641-2.641
	C106.233,183.568,106.209,184.815,106.006,186.314z"/>
<path fill="#C1A165" d="M104.086,175.756c-3.577-0.443-6.646,1.661-8.399,3.84c-1.275-1.846-2.879-3.361-3.36-6
	c2.652-2.084,6.817-3.634,10.56-2.641c0.635,0.646,0.799,1.763,1.2,2.641C104.088,174.343,104.654,175.158,104.086,175.756z"/>
<path fill="#C1A165" d="M77.926,177.194c-1.718-0.041-1.253-2.267-2.88-2.398c0.219-1.884,1.944-1.253,3.12-0.722
	C78.069,175.098,78.398,176.548,77.926,177.194z"/>
<path fill="#683928" d="M78.646,172.875c-0.352-0.21-0.931-0.19-0.722-0.96c0.24,0,0.48,0,0.722,0
	C78.646,172.234,78.646,172.556,78.646,172.875z"/>
<path fill="#C1A165" d="M97.126,145.274c-0.694-0.104-1.094-0.506-1.2-1.2C96.872,143.93,96.989,144.611,97.126,145.274z"/>
<path fill="#C1A165" d="M76.726,143.835c-0.266,0.614-1.288,0.472-2.159,0.479c-0.038-0.758-0.01-1.448,0.479-1.68
	c0.563-0.567,1.181,0.039,1.92,0C77.043,143.191,76.928,143.556,76.726,143.835z"/>
<path fill="#C1A165" d="M97.126,140.955c0.318,0.401,0.636,0.805,0.48,1.681c-0.279,0.201-0.645,0.315-1.2,0.239
	c-0.194-0.046-0.239-0.24-0.48-0.239c0-0.4,0-0.801,0-1.2C96.242,141.189,96.812,141.199,97.126,140.955z"/>
<path fill="#C1A165" d="M76.486,140.955c-0.661-0.688,0.136-1.273,0.239-1.921c0.598-0.036,0.742,0.378,1.199,0.48
	C78.112,140.661,77.425,140.934,76.486,140.955z"/>
<path fill="#C1A165" d="M96.646,137.114c0.595,0.285,0.89,0.87,0.72,1.92c-0.284,0.276-0.848,0.272-1.44,0.24
	c-0.193-0.046-0.238-0.24-0.479-0.24C95.422,137.972,95.73,137.239,96.646,137.114z"/>
<path fill="#C1A165" d="M78.886,138.314c-0.43,0.03-0.506-0.294-0.96-0.24c-0.143-0.862,0.087-1.354,0.722-1.438
	c0.418-0.02,0.746,0.054,0.96,0.239C79.853,137.842,79.232,137.94,78.886,138.314z"/>
<path fill="#262920" d="M106.246,131.835c1.534,0.613,0.834,3.097,0.96,4.08C105.107,137.383,106.036,133.697,106.246,131.835z"/>
<path fill="#C1A165" d="M81.767,134.955c-0.652,1.017-1.216,0.345-1.92,0.239c0.456-0.503,0.653-1.266,1.681-1.2
	c0.054,0.188,0.007,0.475,0.239,0.48C81.767,134.636,81.767,134.796,81.767,134.955z"/>
<path fill="#35422D" d="M77.446,226.636c-0.983-0.537-1.836-1.204-2.641-1.92C75.331,224.758,76.814,225.901,77.446,226.636z"/>
<path fill="#35422D" d="M86.806,229.994c-1.302,0.263-1.595-0.483-2.64-0.479c0-0.08,0-0.16,0-0.24
	C85.113,229.448,86.024,229.656,86.806,229.994z"/>
<path fill="#35422D" d="M97.126,229.756c-1.363,0.396-2.695,0.824-4.56,0.72C94.039,230.188,95.458,229.847,97.126,229.756z"/>
<path fill="#35422D" d="M104.086,225.195c-0.78,0.98-1.66,1.86-2.64,2.641C102.226,226.854,103.106,225.975,104.086,225.195z"/>
<path fill="#35422D" d="M122.566,204.075c-0.7,1.141-1.411,2.27-2.4,3.12C120.932,206.12,121.63,204.979,122.566,204.075z"/>
<path fill="#35422D" d="M112.966,181.274c0.336-0.836-0.647-2.3-0.72-1.2c-0.597-0.036-0.07-0.813,0-0.96
	C112.607,179.565,113.761,180.465,112.966,181.274z"/>
<path fill="#35422D" d="M103.606,144.074c-0.315,0.085-0.377,0.423-0.721,0.48c0.003-0.478,0.655-0.307,0.48-0.96
	c-1.408,0.114-4.275,2.121-4.8,3.12c-1.101,0.372,0.646-2.373-0.48-2.881c0.971-0.7,1.533-3.268,0-3.841
	c1.007-0.896,1.073-3.764-0.72-3.84c0.311-0.696,0.311-1.703,0-2.398c-0.394-1.193-2.516-0.289-2.4-1.44
	c-0.368,0.993-1.328,1.392-1.68,2.4c0.096,1.022,0.408,1.832,1.439,1.92c-0.589,1.359-0.531,2.925,0.721,3.6
	c-0.257,0.543-0.544,1.056-0.96,1.44c0.186,0.532,0.139,1.301,0.72,1.438c-3.013-1.177-4.504-7.365-2.64-9.358
	c-0.936-0.865-0.16-1.948-0.48-3.36c7.44,0,14.88,0,22.32,0c-0.645,7.276-5.852,9.989-10.8,12.96
	C103.606,143.596,103.606,143.835,103.606,144.074z M107.206,135.915c-0.125-0.983,0.574-3.467-0.96-4.08
	C106.036,133.697,105.107,137.383,107.206,135.915z"/>
<path fill="#35422D" d="M92.326,230.475c-1.474,0.589-3.669-0.167-5.28-0.24C88.392,229.775,90.582,230.535,92.326,230.475z"/>
<path fill="#262920" d="M92.566,230.475c-0.08,0-0.16,0-0.24,0c-1.744,0.061-3.935-0.7-5.28-0.24
	c-0.204,0.044-0.227-0.094-0.24-0.24c-0.781-0.338-1.692-0.547-2.64-0.72c-2.666-0.454-4.771-1.467-6.72-2.64
	c-0.632-0.734-2.115-1.877-2.641-1.92c-3.723-2.038-2.151-9.368-7.199-10.08c-0.674-0.693-2.468-1.526-2.881-1.681
	c-0.203,0.044-0.227-0.093-0.239-0.239c-0.806-0.875-1.756-1.604-2.642-2.4c-4.384-3.383-7.117-12.965-2.88-18.24
	c0.174-0.732-0.245-0.875-0.239-1.439c0.848-2.434,2.638-3.923,3.601-6.24c-0.319-0.801-1.488-0.752-1.68-1.68
	c0.795-3.524,3.243-5.396,6-6.96c-0.186-0.904,0.293-1.147,0.238-1.921c1.473-0.825,3.484-3.206,5.762-1.681
	c1.74-1.938,4.322-0.237,6.479-1.438c1.15-3.605-1.125-4.3-2.64-6.48c-2.255-3.248-4.749-8.858-5.76-13.438
	c-7.168-4.965-17.288-5.003-20.16-14.4c-0.258-0.841,0.021-1.497-0.722-2.16c0.318-1.838-0.524-2.515-0.72-3.84
	c0.24,0,0.48,0,0.72,0c1.265,3.163,2.343,6.551,3.36,8.64c1.188,2.437,2.885,2.937,4.8,4.802c0.931-0.774,0.41-0.025,1.2,0.479
	c1.618,1.035,7.498,2.548,8.641,3.601c0.569,0.524,2.416,1.005,3.359,1.681c1.336-0.321,1.031-1.338,2.641-1.681
	c-0.236-1.666,0.485-2.821-0.479-4.319c0.417-0.863,0.557-2.004,1.68-2.16c-0.281-3.557,3.33-4.664,4.08-7.92
	c0.862,0.085,1.298-0.901,2.642-0.96c1.808,0.723,1.707,3.549-0.48,3.84c0.157,1.553-0.253,2.519-1.92,2.64
	c0.102,0.996-0.584,2.172-1.44,2.881c0.937,0.674-0.047,2.778-0.72,3.359c5.321-1.992,8.931-4.211,13.2-7.2
	c0.113-2.784,0.608-5.732,0.24-7.68c0.479,0,0.96,0,1.439,0c0.32,1.412-0.455,2.495,0.48,3.36c-1.864,1.993-0.374,8.183,2.64,9.358
	c-0.581-0.139-0.534-0.906-0.72-1.438c0.416-0.386,0.703-0.897,0.96-1.44c-1.252-0.675-1.311-2.239-0.721-3.6
	c-1.031-0.088-1.344-0.896-1.439-1.92c0.352-1.01,1.313-1.407,1.68-2.4c-0.115,1.151,2.007,0.247,2.4,1.44
	c0.311,0.695,0.311,1.702,0,2.398c1.793,0.076,1.728,2.942,0.72,3.84c1.533,0.573,0.972,3.141,0,3.842
	c1.127,0.507-0.62,3.252,0.48,2.88c0.524-0.999,3.392-3.005,4.8-3.12c0.175,0.653-0.478,0.482-0.48,0.96
	c-1.309,0.931-2.924,1.556-3.84,2.88c3.396,3.594-0.423,8.242-1.68,12c1.382,1.498,2.621,3.14,3.12,5.521
	c1.261,1.618,2.955,2.806,3.12,5.521c0.453,0.427,1.063,0.697,0.96,1.68c3.851,0.549,5.686,3.114,7.68,5.521c0,0.479,0,0.96,0,1.438
	c-0.07,0.147-0.597,0.924,0,0.96c0.072-1.1,1.057,0.364,0.72,1.2c-0.254,3.206,0.56,4.892,1.2,7.44
	c-0.276,0.844-0.717,1.522-1.92,1.439c0.702,2.309,1.655,2.991,1.68,5.76c0,0.16,0,0.32,0,0.48c0.079-0.084,1.818-0.174,2.16-0.24
	c5.423-0.431,9.967,3.673,6.48,7.92c-0.938,0.904-1.636,2.045-2.4,3.12c-3.667,3.453-7.926,6.314-13.2,8.16
	c-0.153,3.399-1.151,7.295-2.88,9.84c-0.979,0.779-1.86,1.66-2.64,2.641c-1.299,0.78-2.608,1.552-4.32,1.92
	C95.458,229.847,94.039,230.188,92.566,230.475z M77.206,224.716c-0.082-0.059-0.365,0.125-0.24,0.239
	c0.976,0.895,1.728,0.503,2.642,0.96c0.105,0.055,0.09,0.63,0.239,0.721c5.262,3.18,12.98,3.181,17.521,1.92
	c5.387-1.497,7.907-6.532,8.16-12.72c-6.629,2.56-15.925,2.872-22.562,3.119c-4.012-1.274-7.526-1.244-10.56-2.399
	C72.557,220.786,74.646,222.931,77.206,224.716z M122.806,199.756c-2.107-2.592-6.815-2.77-9.119-2.881
	c-2.349,1.38,0.313,3.825-0.961,5.04c0.438-0.297,1.955-0.747,2.16-0.479c0.224,0.848-0.611,0.821-0.96,0.96
	c-1.442,0.577-3.203,0.801-5.04,0.96c-0.066,0.493-0.641,0.479-0.96,0.72c-5.322,0.712-12.522,0.889-18,0.48
	c-6.691-0.498-19.075-2.897-24.96-6c-2.12-1.118-4.009-3.407-3.84-5.28c-0.578,0.098-0.521-0.438-1.2-0.24
	c-2.578,2.521-2.308,8.104-1.198,10.561c0.427,0.144,0.995-0.704,1.198,0c-0.596-0.036-0.995,0.124-1.198,0.479
	c3.263,5.264,5.536,8.503,12,10.561c4.178,1.33,12.367,3.938,17.76,2.64c0,0.241-0.194,0.286-0.24,0.48
	c12.175-0.807,23.58-3.493,32.64-12.721c0,0.133,0.194,0.272,0.24,0C120.968,203.514,123.596,202.706,122.806,199.756z
	 M96.646,204.075c3.321-0.54,5.66-0.317,9.6-0.96c0.108-1.332,0.666-2.215,0.72-3.6c0.547-0.333,0.089-1.67,0.24-2.4
	c-0.291-1.021-0.837-3.137-1.92-1.92c-0.566,0.233-0.917,0.684-1.44,0.96c0.65,0.217-0.549,0.537-0.479,0.96
	c-2.348,1.076-5.091-0.34-5.04-3.12c0-0.8,0-1.6,0-2.399c0.623-6.817,6.038-8.842,8.88-13.44c-0.496-0.203-0.784-1.005-1.2-1.199
	c-3.958-1.854-8.636,2.627-11.52,4.561c-0.048-3.449-4.058-6.142-3.601-10.08c0.759-0.118,0.09,1.191,0.96,0.96
	c1.853-2.774,4.662-5.647,9.12-5.04c-1.593-3.362-5.365,0.612-7.199,0.48c1.179-1.622,2.897-2.702,5.279-3.12
	c-0.141-2.865-2.433-4.705-4.56-4.801c0.675-0.308-2.065-0.463-2.16,0c-0.83-0.348-1.131,0.269-1.68-0.239
	c0.148-0.731,1.291-0.47,1.439-1.2c-2.063-2.817-3.185-7.854-4.56-10.561c-0.813,0.787-1.298,1.901-1.92,2.881
	c-0.465,3.049-4.289,4.238-5.04,7.438c-0.495,2.107,0.366,4.791,0.239,7.2c-0.215,4.07-0.868,7.813-1.439,10.8
	c0.584,1.576,2.09,2.23,2.4,4.08c-0.489,0.632-1.946,0.294-2.642,0.721c-0.88,2.474,0.386,6.901-2.399,8.399
	c1.223,1.535-0.756,2.327-1.199,3.6c1.053,0.707,1.269,2.251,2.64,2.641c-0.558,4.327,5.343,3.601,6,7.439
	c3.98,0.179,6.12,0.726,9.36,0.721C94.094,204.388,95.68,203.922,96.646,204.075z M107.446,202.874
	c2.126-0.527,4.809,0.159,4.56-3.119c-0.614-0.025-1.144-0.137-1.439-0.48c0.515-1.565,2.396-1.764,2.159-4.08
	c-0.703-0.587-0.814-1.297-0.239-2.16c-0.986-0.374-1.295-1.425-1.681-2.399c0.018-1.33,2.425-1.325,1.92-2.4
	c-0.137-0.583-1.552,0.112-1.439-0.72c0.219-0.42,0.446-0.834,1.2-0.72c-0.06-0.741-0.243-1.356-0.48-1.921
	c-0.471-0.273-1.2,0.203-1.439-0.721c0.667-1.013,1.29-2.069,1.439-3.6c-1.9,0.049,0.104-2.783-2.16-2.641
	c-0.174-0.733,0.414-0.706,0.24-1.439c-1.025-0.204-1.224,0.153-1.68-0.72c0.074-0.563,0.47-0.992,0-1.44
	c-0.586-0.608-0.511,0.506-1.44,0.24c-0.228-0.865-0.735-1.717-1.68-1.2c-0.054,1.014,0.37,1.55,0.48,2.4
	c1.163,0.063,2.456,1.354,2.88,2.88c-0.404,1.036-1.33,1.551-1.681,2.64c1.388,4.004-0.666,6.914-0.479,11.28
	c0.827,0.692,2.034,1.006,2.399,2.16c-0.41,0.782-0.943-0.938-0.96,0.239C108.503,197.374,108.189,200.977,107.446,202.874z
	 M79.126,201.195c-0.073-0.727-0.742-0.856-0.479-1.92c-0.834-0.127-1.271-0.65-1.92-0.96c-0.18-0.979,0.772-0.827,0.479-1.92
	c-0.239-0.562-1.309-0.292-1.68-0.72c0.082-1.604-1.045-1.996-1.2-3.36c0.428-0.693,1.544-0.696,1.68-1.68
	c0.079-1.039-1.329-0.591-1.198-1.681c0.959-0.079,1.426-0.652,2.158-0.96c-0.076-0.563-0.379-0.9-0.238-1.68
	c0.452,0.054,0.528-0.27,0.96-0.24c0.014-2.468-0.747-6.499,2.398-6.479c-0.438-0.602-0.813-1.268-1.438-1.681
	c-0.814,0.146-0.451,1.47-1.44,1.439c-0.584-1.096-1.638-1.723-1.92-3.12c-1.631,0.063-3.125-0.259-3.84-2.16
	c1.427-0.275,1.326,0.159,2.399,0.722c-0.035-1.558,1.312-1.729,1.92-2.642c-1.666-0.892-2.145,0.903-2.881,1.681
	c-1.209-2.087-3.348-0.621-4.8,0.239c-0.253,0.979,0.067,1.139,0,2.4c-1.233-0.274-0.716,1.204-1.2,1.68
	c-0.49-0.721-1.838-0.511-2.398,0c-0.253,0.894,0.81,0.471,0.96,0.96c-0.241,0.319-0.229,0.895-0.72,0.96
	c-0.534-0.187-0.938-0.504-1.682-0.479c-0.143,1.217-1.271,1.447-1.2,2.88c1.768,0.32,4.884-0.656,4.08,1.92
	c-0.601,0.042-0.582-0.537-0.96-0.72c-2.633,0.649-1.07,3.795-3.84,4.08c-0.237,0.957,0.718,0.723,0.48,1.68
	c-0.803-0.053-1.669,0.338-1.44,1.92c0.488,0.632,1.593,0.647,2.4,0.96c-1.236,2.87,1.988,3.266,2.64,5.04
	c4.145,1.559,11.547,4.571,17.28,5.28C82.53,200.99,80.703,201.219,79.126,201.195z M99.286,193.034
	c-0.065,4.213,5.323,3.528,5.76,0.24c-1.809,0.074-1.755-0.252-3.359-0.24C101.427,192.639,99.545,192.639,99.286,193.034z
	 M104.806,192.075c1.347-1.021,0.825-6.819-2.399-5.76c-0.054-0.186-0.006-0.473-0.24-0.479c-1.235,0.926-2.053,1.663-1.92,2.399
	c-0.178,1.002-1.899,2.818-0.479,3.84c0.452-1.228,0.745-2.614,2.399-2.64c0.217,0.423,0.883,0.396,0.96,0.96
	c-0.882-0.729,0.231,1.302,0.24,1.92C103.788,192.178,104.776,192.605,104.806,192.075z M105.767,182.234
	c-1.439,0.321-2,1.521-2.641,2.641c1.493-0.053,1.733,1.146,2.88,1.439C106.209,184.815,106.233,183.568,105.767,182.234z
	 M104.086,173.596c-0.401-0.878-0.565-1.994-1.2-2.641c-3.742-0.993-7.907,0.557-10.56,2.641c0.48,2.639,2.085,4.154,3.36,6
	c1.753-2.179,4.822-4.283,8.399-3.84C105.105,175.718,104.413,173.824,104.086,173.596z M78.166,174.074
	c-1.176-0.531-2.901-1.162-3.12,0.722c1.627,0.133,1.162,2.357,2.88,2.398C78.398,176.548,78.069,175.098,78.166,174.074z
	 M78.646,171.915c-0.24,0-0.48,0-0.722,0c-0.209,0.77,0.37,0.75,0.722,0.96C78.646,172.556,78.646,172.234,78.646,171.915z
	 M97.366,169.034c-0.093,0.344-0.288,0.405,0,0.722c1.021-0.019,1.679-0.401,2.88-0.24c-0.055-0.425,0.242-1.202-0.479-0.96
	C99.222,168.026,97.371,168.229,97.366,169.034z M102.646,169.756c0.114-0.756-0.343-0.938-0.48-1.44
	c-0.754,0.271-0.634-0.068-1.2,0.24c0,0.319,0,0.64,0,0.96C102.011,169.601,102.07,169.552,102.646,169.756z M96.646,169.515
	c-0.53-0.41-1.5,0.276-1.681,0.96C95.751,170.381,96.519,170.267,96.646,169.515z M88.246,145.994
	c-0.055,0.951,1.923,2.905,1.44,4.32c0.346,0.531,0.586-0.302,0.72,0.24c-0.104,2.49,2.131,5.395,2.88,8.16
	c1.542,0.056,2.07,0.055,3.12,0.239c0.87-3.226,4.06-6.152,2.64-9.601c-0.897-2.181-5.496-3.642-5.52-6.24
	c-1.832-0.328-1.442-2.878-3.12-3.358c-1.715,0.771-5.03,4.102-7.2,3.6c-0.033,0.447-0.157,0.802-0.479,0.96
	c-3.863,1.497-6.888,3.834-10.32,5.76c-0.4,5.449,3.417,10.752,6.96,15.36c0.628-2.873-0.914-8.297,0.72-8.4
	c2.137-2.972,3.708-6.089,5.76-9.119c0.079-0.116,0.429,0.299,0.48,0.239c1.236-1.396,1.712-5.3,2.88-5.04
	c-0.061-1.154,0.213-2.24,1.2-1.68C89.954,142.341,88.32,144.729,88.246,145.994z M76.726,143.835
	c0.524-0.035,0.516-0.604,0.479-1.199c-0.527-0.214-1.891-0.971-2.16,0c-0.488,0.23-0.518,0.922-0.479,1.68
	C75.438,144.306,76.461,144.449,76.726,143.835z M96.406,142.875c0.334,0.696,1.185-0.067,1.439-0.239
	c0.114-0.914-0.102-1.498-0.72-1.681c-0.314,0.244-0.885,0.234-1.2,0.479c0,0.399,0,0.8,0,1.2
	C96.167,142.635,96.212,142.829,96.406,142.875z M77.926,139.515c-0.457-0.104-0.603-0.518-1.198-0.48
	c-0.104,0.646-0.901,1.231-0.24,1.921C77.425,140.934,78.112,140.661,77.926,139.515z M95.926,139.274
	c0.372,0.661,1.44,0.023,1.681-0.24c0.104-0.824-0.096-1.345-0.24-1.92c-0.24,0-0.48,0-0.72,0c-0.916,0.125-1.225,0.856-1.2,1.92
	C95.688,139.034,95.732,139.229,95.926,139.274z M78.886,138.314c0.873-0.008,1.056-0.705,0.961-1.68
	c-0.428,0.144-0.996-0.704-1.199,0c-0.635,0.086-0.863,0.575-0.722,1.438C78.38,138.021,78.456,138.346,78.886,138.314z
	 M94.966,134.234c-1.247-0.061-0.57,1.505-0.24,1.92c0.359-0.041,0.887,0.086,0.961-0.239c0.755,0.034,0.824-0.615,0.96-1.199
	C96.245,134.396,95.842,134.079,94.966,134.234z M81.767,134.475c-2.541-2.391-2.013,3.776,0,0.479
	C81.767,134.796,81.767,134.636,81.767,134.475z M95.926,144.074c0.106,0.694,0.506,1.096,1.2,1.2
	C96.989,144.611,96.872,143.93,95.926,144.074z"/>
<path fill="#35422D" d="M73.847,205.034c-0.004,0.368-0.654,0.789-0.479,0c-0.233,0.007-0.188,0.294-0.24,0.48
	c-0.564-0.203,0.2-1.053,0.24-1.44C74.094,203.314,72.662,205.34,73.847,205.034z"/>
<path fill="#262920" d="M103.366,197.115c-0.069-0.423,1.13-0.743,0.479-0.96c0.523-0.276,0.874-0.727,1.44-0.96
	c-0.135,1.064-1.237,1.163-1.68,1.92C103.526,197.115,103.446,197.115,103.366,197.115z"/>
<path fill="#C1A165" d="M85.606,150.796c0.622-0.979,1.107-2.094,1.92-2.881c-0.422,1.099-1.199,1.842-1.681,2.881
	C85.767,150.796,85.687,150.796,85.606,150.796z"/>
<path fill="#C1A165" d="M105.526,199.275c-0.785,1.15-2.806,2.881-3.84,1.68C103.039,201.658,104.437,200.188,105.526,199.275z"/>
<path fill="#262920" d="M89.687,198.315c1.676,0.404,2.504,1.656,4.319,1.92c0,0.32,0,0.64,0,0.96
	C91.884,201.847,89.661,199.772,89.687,198.315z"/>
<path fill="#C1A165" d="M106.966,199.515c-0.055,1.385-0.611,2.268-0.72,3.6c-3.939,0.643-6.278,0.42-9.6,0.96
	c-0.568-0.552-2.154-0.086-3.12-0.24c-3.24,0.006-5.38-0.542-9.36-0.72c-0.657-3.839-6.558-3.113-6-7.439
	c-1.371-0.39-1.587-1.934-2.64-2.641c0.443-1.272,2.422-2.064,1.199-3.6c2.785-1.498,1.521-5.927,2.399-8.399
	c0.694-0.427,2.151-0.089,2.642-0.721c-0.312-1.85-1.816-2.504-2.4-4.08c0.571-2.987,1.226-6.729,1.439-10.8
	c0.127-2.409-0.734-5.093-0.239-7.2c0.751-3.2,4.575-4.391,5.04-7.438c0.08,0,0.16,0,0.239,0c0.481-1.039,1.259-1.782,1.681-2.881
	c1.375,2.705,2.497,7.742,4.56,10.561c-0.148,0.73-1.291,0.469-1.439,1.2c0.549,0.508,0.85-0.107,1.68,0.239
	c0.534,0.506,1.157-0.253,2.16,0c2.127,0.096,4.419,1.936,4.56,4.801c-2.382,0.418-4.102,1.498-5.279,3.119
	c1.834,0.133,5.606-3.843,7.199-0.479c-4.458-0.607-7.269,2.266-9.12,5.04c-0.87,0.23-0.201-1.078-0.96-0.96
	c-0.457,3.938,3.553,6.631,3.601,10.08c2.884-1.934,7.563-6.415,11.52-4.561c0.416,0.194,0.704,0.996,1.2,1.199
	c-2.842,4.6-8.257,6.623-8.88,13.44c-0.397,0.259-0.397,2.141,0,2.399c-0.051,2.78,2.692,4.196,5.04,3.12c0.08,0,0.16,0,0.24,0
	c0.441-0.757,1.544-0.854,1.68-1.92c1.083-1.217,1.629,0.899,1.92,1.92C106.659,197.447,107.117,198.785,106.966,199.515z
	 M101.687,200.954c1.035,1.201,3.056-0.529,3.84-1.68c0.074-0.325,0.341-0.458,0.24-0.96
	C104.349,199.009,101.793,199.74,101.687,200.954z M94.006,201.195c0-0.32,0-0.64,0-0.96c-1.815-0.264-2.644-1.516-4.319-1.92
	C89.661,199.772,91.884,201.847,94.006,201.195z M90.406,196.636c0.889,1.019,2.475,1.025,3.6,0.239c0-0.079,0-0.159,0-0.239
	c0.917-0.204,1.155-1.085,1.44-1.92c0.802-1.186,0.641-4.689,0-5.28c-0.106-1.253-0.632-2.088-1.44-2.64
	c-0.229-0.651-0.862-0.897-1.2-1.44c-5.473-0.676-5.205,3.749-4.8,7.92c-1.051-0.011-1.48,0.599-2.16,0.96c-0.079,0-0.159,0-0.239,0
	c-0.074,0.566-0.834,0.446-0.721,1.2c0.432-0.031,0.563,0.238,0.479,0.72c1.604,0.004,1.756-1.443,3.36-1.439
	C88.976,195.666,89.683,196.158,90.406,196.636z"/>
<path fill="#262920" d="M95.446,189.435c-0.478-0.883-0.79-1.93-1.44-2.64C94.814,187.347,95.34,188.182,95.446,189.435z"/>
<path fill="#262920" d="M85.846,194.235c-0.134,0.346-0.375,0.585-0.72,0.72c0.104,0.377,0.755,0.205,0.48,0.96
	c1.359-0.158,1.608-1.43,3.119-1.439c0.291,0.991,1.228,1.333,1.681,2.16c-0.725-0.478-1.433-0.97-1.681-1.92
	c-1.604-0.004-1.755,1.443-3.359,1.439c0.082-0.481-0.049-0.751-0.479-0.72c-0.113-0.753,0.646-0.634,0.721-1.2
	C85.687,194.235,85.767,194.235,85.846,194.235z"/>
<path fill="#262920" d="M95.446,194.716c-0.285,0.835-0.523,1.716-1.44,1.92c0.051-0.271,0.267-0.374,0.48-0.48
	c-0.022-0.378-0.612-0.188-0.48-0.72c0.479,0.482,1.041-0.178,1.2-0.72C95.286,194.716,95.366,194.716,95.446,194.716z"/>
<path fill="#262920" d="M94.726,193.515c-0.842-0.607-2.125,0.002-3.119,0C92.082,193.174,94.431,192.473,94.726,193.515z"/>
<path fill="#BDBBBA" d="M93.526,191.596c-0.52-3.931-3.742-1.71-3.84,1.2c-0.774,0.214-0.338-0.783-0.721-0.96c0-1.12,0-2.24,0-3.36
	c0.199-0.602,0.657-0.942,0.721-1.68c1.841-0.771,3.47-0.374,4.08,1.68c0.207,1.073,0.582,1.977,0.479,3.36
	C93.858,191.902,93.833,191.608,93.526,191.596z"/>
<path fill="#BDBBBA" d="M94.246,191.834c0.103-1.383-0.272-2.286-0.479-3.359c0.55,0.41,0.567,1.353,0.72,2.16
	C94.355,190.983,94.767,191.875,94.246,191.834z"/>
<path fill="#262920" d="M94.486,190.636c0.53,0.029,0.102,1.018,0.239,1.439c-0.595,0.035-1.164,0.045-1.199-0.479
	c0.307,0.013,0.332,0.308,0.72,0.24C94.767,191.875,94.355,190.983,94.486,190.636z"/>
<path fill="#262920" d="M102.406,186.314c-1.374-0.014-1.423,1.297-2.16,1.92c-0.132-0.736,0.685-1.475,1.92-2.4
	C102.4,185.842,102.353,186.129,102.406,186.314z"/>
<path fill="#262920" d="M104.806,192.075c-0.029,0.53-1.018,0.103-1.439,0.24c-0.008-0.618-1.122-2.648-0.24-1.92
	C103.463,191.179,103.214,192.547,104.806,192.075z"/>
<path fill="#BDBBBA" d="M104.806,192.075c-1.592,0.473-1.343-0.896-1.68-1.68c-0.077-0.563-0.743-0.537-0.96-0.96
	c-1.655,0.025-1.948,1.413-2.399,2.64c-1.42-1.021,0.302-2.837,0.479-3.84c0.737-0.623,0.786-1.934,2.16-1.92
	C105.631,185.256,106.152,191.055,104.806,192.075z"/>
<path fill="#262920" d="M67.366,180.074c-0.438-1.709,1.925-1.653,2.88-1.199c-0.333,0.147-0.036,0.925-0.479,0.961
	C68.892,180.021,68.463,179.529,67.366,180.074z"/>
<path fill="#C1A165" d="M104.086,175.756c0.567-0.598,0.002-1.413,0-2.16C104.413,173.824,105.105,175.718,104.086,175.756z"/>
<path fill="#BDBBBA" d="M94.966,170.475c0.181-0.684,1.15-1.37,1.681-0.96C96.519,170.267,95.751,170.381,94.966,170.475z"/>
<path fill="#BDBBBA" d="M99.767,168.556c-1-0.04-2.004-0.083-2.4,0.479C97.371,168.229,99.222,168.026,99.767,168.556z"/>
<path fill="#C1A165" d="M75.046,142.636c0.271-0.971,1.633-0.214,2.16,0c0.035,0.595,0.045,1.164-0.479,1.199
	c0.2-0.278,0.315-0.644,0.238-1.199C76.226,142.675,75.609,142.067,75.046,142.636z"/>
<path fill="#C1A165" d="M97.126,140.955c0.618,0.183,0.833,0.767,0.72,1.681c-0.255,0.172-1.104,0.937-1.439,0.239
	c0.557,0.076,0.921-0.038,1.2-0.239C97.762,141.76,97.444,141.356,97.126,140.955z"/>
<path fill="#35422D" d="M90.646,130.395c0.368,1.946-0.127,4.896-0.24,7.68c-4.271,2.989-7.879,5.208-13.2,7.2
	c0.673-0.581,1.655-2.687,0.72-3.359c0.856-0.709,1.542-1.885,1.44-2.881c1.667-0.121,2.077-1.087,1.92-2.64
	c2.188-0.291,2.288-3.117,0.48-3.84c-1.344,0.059-1.778,1.045-2.642,0.96c-0.75,3.256-4.361,4.363-4.08,7.92
	c-1.123,0.156-1.263,1.297-1.68,2.16c0.966,1.498,0.243,2.653,0.479,4.319c-1.608,0.343-1.305,1.358-2.641,1.681
	c-0.943-0.677-2.79-1.155-3.359-1.681c-1.143-1.053-7.021-2.564-8.641-3.601c-0.79-0.505-0.271-1.254-1.2-0.479
	c-1.915-1.864-3.612-2.364-4.8-4.801c-1.019-2.089-2.097-5.477-3.36-8.64C63.446,130.395,77.046,130.395,90.646,130.395z"/>
<path fill="#C1A165" d="M96.646,137.114c0.239,0,0.479,0,0.72,0c0.145,0.575,0.345,1.096,0.24,1.92
	c-0.24,0.265-1.31,0.901-1.681,0.24c0.593,0.032,1.156,0.036,1.44-0.24C97.536,137.984,97.241,137.399,96.646,137.114z"/>
<path fill="#C1A165" d="M78.646,136.636c0.202-0.704,0.771,0.144,1.199,0c0.095,0.975-0.088,1.672-0.961,1.68
	c0.348-0.374,0.968-0.474,0.722-1.439C79.392,136.688,79.064,136.616,78.646,136.636z"/>
<path fill="#C1A165" d="M95.687,135.915c-0.074,0.325-0.602,0.198-0.961,0.239c-0.33-0.415-1.006-1.979,0.24-1.92
	c-0.678,0.271-0.467,1.057-0.24,1.681C95.046,135.915,95.366,135.915,95.687,135.915z"/>
<path fill="#C1A165" d="M81.767,134.955c-2.013,3.297-2.541-2.87,0-0.479c-0.232-0.007-0.187-0.294-0.239-0.48
	c-1.026-0.064-1.225,0.697-1.681,1.2C80.551,135.3,81.113,135.972,81.767,134.955z"/>
<path fill="#683928" d="M82.486,202.636c-5.733-0.709-13.138-3.723-17.28-5.28c-0.65-1.774-3.876-2.17-2.64-5.04
	c-0.809-0.313-1.912-0.329-2.4-0.96c-0.229-1.582,0.639-1.973,1.44-1.92c0.236-0.957-0.719-0.723-0.48-1.68
	c2.77-0.285,1.207-3.431,3.84-4.08c0.378,0.183,0.359,0.762,0.96,0.72c0.804-2.576-2.313-1.6-4.08-1.92
	c-0.07-1.432,1.059-1.663,1.2-2.88c0.744-0.024,1.146,0.293,1.682,0.479c0.491-0.065,0.479-0.641,0.72-0.96
	c-0.15-0.489-1.213-0.066-0.96-0.96c0.562-0.511,1.908-0.721,2.398,0c0.484-0.476-0.033-1.954,1.2-1.68
	c0.067-1.263-0.253-1.423,0-2.4c1.452-0.86,3.591-2.326,4.8-0.238c0.736-0.777,1.215-2.572,2.881-1.682
	c-0.608,0.911-1.955,1.084-1.92,2.642c-1.073-0.563-0.974-0.997-2.399-0.722c0.715,1.901,2.209,2.224,3.84,2.16
	c0.282,1.397,1.336,2.024,1.92,3.12c0.989,0.029,0.626-1.294,1.44-1.439c0.627,0.413,1.001,1.079,1.438,1.681
	c-3.146-0.02-2.386,4.012-2.398,6.479c-0.432-0.029-0.508,0.294-0.96,0.24c-0.141,0.779,0.162,1.117,0.238,1.68
	c-0.732,0.308-1.199,0.882-2.159,0.96c-0.13,1.09,1.278,0.642,1.199,1.681c-0.136,0.983-1.252,0.986-1.68,1.68
	c0.155,1.364,1.282,1.757,1.2,3.36c0.371,0.428,1.439,0.158,1.68,0.72c0.294,1.094-0.658,0.942-0.479,1.92
	c0.648,0.31,1.086,0.833,1.92,0.96c-0.264,1.063,0.405,1.193,0.479,1.92C80.703,201.219,82.53,200.99,82.486,202.636z
	 M76.246,181.035c-0.802-1.118-2.178-1.663-2.16-3.601c-0.786-0.014-0.917-0.684-1.92-0.479c0.011,0.33-0.113,0.526-0.24,0.721
	c0.716,0.73,1.794,1.813,1.44,2.88c1.429,0.109,1.34,1.245,1.92,1.68C75.814,182.043,76.244,181.754,76.246,181.035z
	 M69.767,179.836c0.443-0.036,0.146-0.813,0.479-0.961c-0.955-0.454-3.316-0.51-2.88,1.199
	C68.463,179.529,68.892,180.021,69.767,179.836z"/>
<path fill="#262920" d="M75.286,182.234c-0.58-0.435-0.491-1.569-1.92-1.68c0.354-1.067-0.727-2.148-1.44-2.88
	c0.127-0.193,0.251-0.391,0.24-0.721c1.003-0.203,1.134,0.467,1.92,0.479c-0.018,1.938,1.358,2.481,2.16,3.601
	C76.244,181.754,75.814,182.043,75.286,182.234z"/>
<path fill="#35422D" d="M72.406,216.556c3.032,1.155,6.548,1.125,10.56,2.399c6.637-0.247,15.933-0.56,22.562-3.119
	c-0.253,6.188-2.773,11.223-8.16,12.72c-4.539,1.261-12.259,1.26-17.521-1.92c-0.149-0.091-0.134-0.667-0.239-0.721
	c-0.914-0.457-1.666-0.065-2.642-0.96c-0.125-0.113,0.158-0.297,0.24-0.239C74.646,222.931,72.557,220.786,72.406,216.556z"/>
<path fill="#262920" d="M105.526,199.275c-1.09,0.913-2.487,2.383-3.84,1.68c0.106-1.215,2.662-1.946,4.08-2.64
	C105.868,198.816,105.601,198.95,105.526,199.275z"/>
<path fill="#262920" d="M90.406,196.636c-0.454-0.827-1.392-1.169-1.681-2.16c-1.51,0.01-1.759,1.281-3.119,1.439
	c0.274-0.755-0.377-0.583-0.48-0.96c0.346-0.134,0.586-0.374,0.72-0.72c0.68-0.361,1.109-0.971,2.16-0.96
	c-0.405-4.172-0.673-8.596,4.8-7.92c0.338,0.543,0.972,0.789,1.2,1.44c0.65,0.709,0.963,1.756,1.44,2.64
	c0.641,0.591,0.802,4.095,0,5.28c-0.08,0-0.16,0-0.24,0c-0.159,0.542-0.721,1.202-1.2,0.72c-0.132,0.532,0.458,0.342,0.48,0.72
	c-0.214,0.106-0.43,0.21-0.48,0.48c0,0.08,0,0.16,0,0.239C92.881,197.661,91.295,197.653,90.406,196.636z M94.726,193.515
	c-0.295-1.042-2.644-0.342-3.119,0c-0.563,0.077-0.901,0.379-1.681,0.24C90.247,196.934,94.598,196.626,94.726,193.515z
	 M93.526,191.596c0.035,0.524,0.604,0.515,1.199,0.479c-0.138-0.422,0.291-1.41-0.239-1.439c-0.152-0.809-0.17-1.75-0.72-2.16
	c-0.61-2.054-2.239-2.451-4.08-1.68c-0.063,0.736-0.521,1.078-0.721,1.68c-0.656,1.179-0.434,1.74,0,3.36
	c0.383,0.177-0.055,1.175,0.721,0.96C89.785,189.886,93.008,187.664,93.526,191.596z"/>
<path fill="#35422D" d="M90.406,141.435c-0.987-0.562-1.261,0.524-1.2,1.68c-1.167-0.26-1.644,3.644-2.88,5.04
	c-0.052,0.06-0.401-0.355-0.48-0.239c-2.052,3.03-3.624,6.147-5.76,9.119c-1.634,0.104-0.092,5.527-0.72,8.4
	c-3.543-4.608-7.36-9.911-6.96-15.36c3.434-1.926,6.457-4.263,10.319-5.76c0.322-0.158,0.446-0.513,0.479-0.96
	c2.17,0.502,5.485-2.827,7.2-3.6c1.678,0.48,1.288,3.03,3.12,3.358c0.023,2.6,4.622,4.061,5.52,6.24
	c1.419,3.447-1.77,6.375-2.64,9.601c-1.05-0.186-1.578-0.185-3.12-0.239c-0.749-2.767-2.982-5.67-2.88-8.16
	c-0.134-0.542-0.375,0.291-0.721-0.24c0.483-1.415-1.494-3.369-1.439-4.32C88.32,144.729,89.954,142.341,90.406,141.435z"/>
<path fill="#262920" d="M114.886,130.395c0.379,8.699-5.958,10.683-11.279,13.68c0-0.239,0-0.479,0-0.72
	c4.948-2.971,10.155-5.684,10.8-12.96C114.566,130.395,114.726,130.395,114.886,130.395z"/>
<path fill="#C1A165" d="M92.326,159.915c0.095-0.463,2.835-0.308,2.16,0C93.483,159.662,92.86,160.421,92.326,159.915z"/>
<path fill="#C1A165" d="M94.726,193.515c-0.128,3.111-4.479,3.418-4.8,0.24c0.779,0.139,1.117-0.164,1.681-0.24
	C92.601,193.517,93.884,192.907,94.726,193.515z"/>
<path fill="#BDBBBA" d="M100.966,169.515c0-0.32,0-0.641,0-0.96c0.566-0.31,0.446,0.03,1.2-0.24c0.138,0.502,0.595,0.686,0.48,1.44
	C102.07,169.552,102.011,169.601,100.966,169.515z"/>
<path fill="#BDBBBA" d="M99.767,168.556c0.722-0.242,0.425,0.535,0.479,0.96c-1.201-0.161-1.857,0.223-2.88,0.24
	c-0.288-0.315-0.093-0.378,0-0.722C97.763,168.472,98.767,168.515,99.767,168.556z"/>
<path fill="#C1A165" d="M94.966,134.234c0.876-0.155,1.278,0.162,1.681,0.48c-0.137,0.584-0.206,1.233-0.96,1.199
	c-0.32,0-0.641,0-0.961,0C94.499,135.291,94.288,134.506,94.966,134.234z"/>
<use xlink:href="#UK"  width="85.039" height="85.039" x="-42.52" y="-42.519" transform="matrix(0.2333 0 0 -0.2333 150.8008 242.0752)" overflow="visible"/>
<use xlink:href="#UK"  width="85.039" height="85.039" x="-42.52" y="-42.519" transform="matrix(0.2333 0 0 -0.2333 150.7998 15.8809)" overflow="visible"/>
<use xlink:href="#UK"  width="85.039" height="85.039" x="-42.52" y="-42.519" transform="matrix(0.2333 0 0 -0.2333 16.2979 242.0752)" overflow="visible"/>
<use xlink:href="#UK"  width="85.039" height="85.039" x="-42.52" y="-42.519" transform="matrix(0.2333 0 0 -0.2333 16.2979 15.8809)" overflow="visible"/>
<use xlink:href="#Rand"  width="156.49" height="248.039" x="5.377" y="-252.996" transform="matrix(1 0 0 -1 0.002 0.0029)" overflow="visible"/>
</svg>
