<?xml version="1.0" encoding="utf-8"?>
<!-- Generator: Adobe Illustrator 15.1.0, SVG Export Plug-In  -->
<!DOCTYPE svg PUBLIC "-//W3C//DTD SVG 1.1//EN" "http://www.w3.org/Graphics/SVG/1.1/DTD/svg11.dtd" [
	<!ENTITY ns_flows "http://ns.adobe.com/Flows/1.0/">
]>
<svg version="1.1"
	 xmlns="http://www.w3.org/2000/svg" xmlns:xlink="http://www.w3.org/1999/xlink" xmlns:a="http://ns.adobe.com/AdobeSVGViewerExtensions/3.0/"
	 x="0px" y="0px" width="167px" height="258px" viewBox="0 0 167 258" enable-background="new 0 0 167 258" xml:space="preserve">
<defs>
	<symbol  id="Rand" viewBox="5.377 -252.996 156.49 248.039">
		<g id="weiß_2_">
		</g>
		<path fill="#FFFFFF" d="M159.867-242.076c0,4.92-4,8.92-8.92,8.92c-4.921,0-8.921-4-8.921-8.92s4-8.92,8.921-8.92
			C155.867-250.996,159.867-246.996,159.867-242.076z M159.867-15.887c0,4.92-4,8.93-8.92,8.93c-4.921,0-8.921-4.01-8.921-8.93
			c0-4.91,4-8.92,8.921-8.92C155.867-24.807,159.867-20.797,159.867-15.887z M19.387-4.957h123.9h4.569h3.091
			c6.02,0,10.92-4.9,10.92-10.93v-9.52v-208.09v-8.58c0-6.021-4.9-10.92-10.92-10.92h-9.471c-37.63,0-75.85,0-125.17,0
			c-6.029,0-10.92,4.898-10.92,10.92c-0.01,72.18-0.01,141.83-0.01,211.35v14.84c0,6.029,4.9,10.93,10.92,10.93H19.387z
			 M25.227-15.887c0,4.92-4.01,8.93-8.93,8.93c-4.91,0-8.92-4.01-8.92-8.93c0-4.91,4.01-8.92,8.92-8.92
			C21.217-24.807,25.227-20.797,25.227-15.887z M16.307-250.996c4.92,0,8.92,4,8.92,8.92s-4,8.92-8.92,8.92s-8.92-4-8.92-8.92
			S11.387-250.996,16.307-250.996z M27.227-15.887c0-6.02-4.9-10.92-10.93-10.92c-3.68,0-6.939,1.83-8.92,4.629
			c0-71.199,0-142.398,0-213.609c1.98,2.801,5.24,4.631,8.93,4.631c6.02,0,10.92-4.9,10.92-10.92c0-3.682-1.83-6.941-4.63-8.92
			c40.69,0,81.37,0,122.061,0c-2.801,1.979-4.631,5.238-4.631,8.92c0,6.02,4.9,10.92,10.921,10.92c3.68,0,6.939-1.83,8.92-4.621
			c0,71.201,0,142.4,0,213.6c-1.98-2.799-5.24-4.629-8.92-4.629c-6.021,0-10.921,4.9-10.921,10.92c0,3.689,1.83,6.949,4.631,8.93
			c-40.69,0-81.38,0-122.061,0C25.396-8.938,27.227-12.197,27.227-15.887z"/>
	</symbol>
	<symbol  id="UK" viewBox="-42.52 -42.519 85.039 85.039">
		<path fill="#FFFFFF" d="M-30.405,9.923h-10.938c-0.441-1.848-0.771-3.737-0.964-5.67h21.723L-30.405,9.923z"/>
		<path fill="#FFFFFF" d="M-13.194,4.253h8.942v38.056c-1.932-0.192-3.822-0.522-5.669-0.964V9.923L-13.194,4.253z"/>
		<path fill="#FFFFFF" d="M30.405-9.919h10.938c0.441,1.847,0.771,3.736,0.964,5.667H20.59L30.405-9.919z"/>
		<path fill="#FFFFFF" d="M-20.59-4.252h-21.718c0.192-1.931,0.522-3.82,0.964-5.667h10.938L-20.59-4.252z"/>
		<path fill="#FFFFFF" d="M13.192-4.252h-8.94v-38.055c1.932,0.192,3.822,0.522,5.669,0.964v31.424L13.192-4.252z"/>
		<path fill="#FFFFFF" d="M13.194,4.253l-3.273,5.67v31.422c-1.847,0.441-3.737,0.771-5.669,0.964V4.253H13.194z"/>
		<path fill="#FFFFFF" d="M-13.192-4.252l3.271-5.667v-31.424c1.847-0.441,3.737-0.771,5.669-0.964v38.055H-13.192z"/>
		<path fill="#FFFFFF" d="M0.039,42.52c-0.014,0-0.026,0.001-0.039,0.001s-0.025-0.001-0.039-0.001H0.039z"/>
		<path fill="#FFFFFF" d="M20.585,4.253h21.723c-0.192,1.933-0.522,3.822-0.964,5.67H30.405L20.585,4.253z"/>
		<path fill="#012169" d="M-9.921,41.345c-10.265-2.455-19.078-8.627-24.945-17.02L-9.921,9.923V41.345z"/>
		<path fill="#012169" d="M-39.681,15.277c-0.667-1.733-1.224-3.521-1.663-5.354h10.938L-39.681,15.277z"/>
		<path fill="#012169" d="M34.866,24.325C29,32.718,20.186,38.891,9.921,41.345V9.923L34.866,24.325z"/>
		<path fill="#012169" d="M41.344,9.923c-0.438,1.834-0.995,3.621-1.663,5.354l-9.275-5.354H41.344z"/>
		<path fill="#012169" d="M39.682-15.274c0.667,1.733,1.224,3.521,1.662,5.355H30.405L39.682-15.274z"/>
		<path fill="#012169" d="M9.921-41.343c10.266,2.454,19.08,8.627,24.946,17.021L9.921-9.919V-41.343z"/>
		<path fill="#012169" d="M-34.867-24.322c5.866-8.394,14.681-14.566,24.946-17.021v31.424L-34.867-24.322z"/>
		<path fill="#012169" d="M-41.344-9.919c0.438-1.834,0.995-3.622,1.663-5.355l9.275,5.355H-41.344z"/>
		<path fill="#FFFFFF" d="M-20.585,4.253h7.391l3.273,5.67l-24.945,14.402c-0.892-1.276-1.723-2.599-2.473-3.973l18.065-10.43
			h-8.505l-11.415,6.591c-0.172-0.407-0.327-0.822-0.487-1.236l9.275-5.354L-20.585,4.253z"/>
		<path fill="#FFFFFF" d="M13.194,4.253h7.391l9.82,5.67l9.275,5.354c-0.554,1.438-1.184,2.836-1.885,4.193L21.26,9.923h-8.505
			L35.66,23.147c-0.259,0.396-0.523,0.79-0.794,1.178L9.921,9.923L13.194,4.253z"/>
		<path fill="#FFFFFF" d="M20.59-4.252h-7.397L9.921-9.919l24.946-14.403c0.893,1.276,1.723,2.599,2.473,3.973L19.272-9.919h8.503
			l11.418-6.592c0.172,0.407,0.328,0.822,0.488,1.236l-9.276,5.355L20.59-4.252z"/>
		<path fill="#FFFFFF" d="M-13.192-4.252h-7.397l-9.815-5.667l-9.275-5.355c0.553-1.438,1.183-2.836,1.884-4.192l16.537,9.548h8.505
			l-22.906-13.225c0.259-0.397,0.522-0.79,0.794-1.179L-9.921-9.919L-13.192-4.252z"/>
		<path fill="#C8102E" d="M13.194,4.253H4.252v-8.505h8.94h7.397h21.718c0.139,1.399,0.212,2.817,0.212,4.253
			s-0.073,2.854-0.212,4.252H20.585H13.194z"/>
		<path fill="#C8102E" d="M-13.192-4.252h8.94v8.505h-8.942h-7.391h-21.723c-0.139-1.398-0.212-2.816-0.212-4.252
			s0.073-2.854,0.212-4.253h21.718H-13.192z"/>
		<path fill="#C8102E" d="M-4.252,42.309V4.253v-8.505v-38.055c1.398-0.139,2.816-0.212,4.252-0.212s2.854,0.073,4.252,0.212v38.055
			v8.505v38.056c-1.386,0.138-2.791,0.21-4.213,0.211h-0.078C-1.461,42.519-2.866,42.446-4.252,42.309z"/>
		<path fill="#C8102E" d="M21.26,9.923l16.536,9.548c-0.652,1.264-1.364,2.49-2.136,3.677L12.755,9.923H21.26z"/>
		<path fill="#C8102E" d="M-21.26-9.919l-16.537-9.548c0.652-1.265,1.364-2.491,2.136-3.677l22.906,13.225H-21.26z"/>
		<path fill="#C8102E" d="M19.272-9.919L37.34-20.35c0.68,1.243,1.299,2.523,1.854,3.839L27.775-9.919H19.272z"/>
		<path fill="#C8102E" d="M-19.273,9.923l-18.065,10.43c-0.68-1.243-1.3-2.524-1.854-3.839l11.415-6.591H-19.273z"/>
	</symbol>
</defs>
<g>
	<path fill="#9BC4D1" d="M167.244,240.945c0,9.354-7.653,17.008-17.008,17.008H17.008C7.653,257.953,0,250.3,0,240.945V17.008
		C0,7.654,7.653,0,17.008,0h133.229c9.354,0,17.008,7.654,17.008,17.008V240.945z"/>
</g>
<path fill="#B89B65" d="M72.937,48.642c1.255,0.105,2.888-0.167,3.36,0.72c-1.306-0.026-2.49,0.07-3.36,0.48
	C72.233,49.639,73.08,49.069,72.937,48.642z"/>
<path fill="#C3A165" d="M77.257,57.042c-1.862,0.48-3.787,0.61-6,1.2C70.288,52.54,77.822,50.205,77.257,57.042z"/>
<path fill="#222121" d="M47.257,70.481c7.258-1.738,4.044,6.996,5.52,11.04c0.578-3.822,1.636-7.165,2.16-11.04
	c-0.512-1.089-2.588-0.611-2.88-1.92c0.678-5.163,2.12-9.561,4.8-12.72c-1.047,4.073-3.229,8.02-3.6,12
	c0.278,1.082,2.247,0.473,2.64,1.44c-0.144,5.643-1.725,10.998-2.88,17.04c-2.112-3.327-1.447-9.433-2.16-14.16
	c-1.507-0.413-3.741-0.099-4.8-0.96c-2.275-5.534,0.513-11.986,2.16-16.32C48.771,59.12,44.521,66.045,47.257,70.481z"/>
<path fill="#C3A165" d="M101.737,62.083c-2.063-1.354-3.997,0.744-5.279,1.68c0.873-1.135,0.612-1.678,0.479-3.12
	C98.393,59.436,101.844,58.969,101.737,62.083z"/>
<path fill="#C3A165" d="M97.417,70.242c-1.487-1.915-0.74-3.434-0.72-6c1.093,0.293,0.94-0.658,1.92-0.48
	c0.296,2.376-0.813,3.349-1.44,4.8c1.418,0.26,2.894-3.046,2.88-5.76c0.813,0.114,1.262-0.638,1.92-0.24
	C101.909,65.564,100.271,68.729,97.417,70.242z"/>
<path fill="#C3A165" d="M71.017,64.001c0.355,0.125,0.605,0.355,0.96,0.48c-0.322,0.478-0.457,1.143-0.72,1.68
	C70.712,65.906,71.166,64.653,71.017,64.001z"/>
<path fill="#C3A165" d="M64.057,82.242c0.214,0.106,0.429,0.211,0.48,0.48c-0.465,1.055-0.803,2.238-2.16,2.399
	C62.214,83.438,63.554,83.258,64.057,82.242z"/>
<path fill="#BEBDBD" d="M84.217,114.882c-0.155,1.124,0.313,2.873-0.24,3.6C84.132,117.356,83.663,115.607,84.217,114.882z"/>
<path fill="#222121" d="M76.057,115.122c0.168,1.049-0.408,1.353-0.24,2.4c-0.08,0-0.16,0-0.239,0
	c-0.188-1.068,0.319-1.44,0.239-2.4C75.896,115.122,75.977,115.122,76.057,115.122z"/>
<path fill="#BEBDBD" d="M83.977,120.401c-0.154,1.045,0.313,2.713-0.24,3.36C83.892,122.716,83.424,121.049,83.977,120.401z"/>
<path fill="#BEBDBD" d="M75.816,121.603c-0.017,0.943-0.115,1.804-0.479,2.399c-0.219-0.563,0.208-1.746,0.24-2.399
	C75.656,121.603,75.736,121.603,75.816,121.603z"/>
<path fill="#BEBDBD" d="M86.377,121.122c-0.026,1.255-0.249,2.312-0.721,3.12C85.402,123.299,85.936,121.663,86.377,121.122z"/>
<path fill="#BEBDBD" d="M84.697,109.843c0.42-0.709,1.097-2.415,1.681-2.16C85.634,108.219,85.432,109.297,84.697,109.843z"/>
<path fill="#222121" d="M77.017,117.042c-0.293,0.987-0.407,2.153-0.96,2.881C76.298,118.883,76.415,117.721,77.017,117.042z"/>
<path fill="#BEBDBD" d="M79.417,111.763c-0.641,0.96-0.815,2.385-1.681,3.12C78.378,113.922,78.412,112.356,79.417,111.763z"/>
<path fill="#BEBDBD" d="M76.297,113.922c-0.03-2.593,0.81-5.588,2.64-5.521C76.666,108.852,77.017,111.922,76.297,113.922z"/>
<path fill="#BEBDBD" d="M91.656,48.881c-1.753,1.657,1.237,3.183,0.961,4.08C91.941,52.131,89.722,50.056,91.656,48.881z"/>
<path fill="#BEBDBD" d="M92.617,54.162c-0.789,1.749-0.395,3.304,0.72,4.32c-0.046,1.074-0.614,1.625-1.2,2.16
	c0.206-0.754,0.907-1.013,0.96-1.92C92.039,57.718,91.374,55.562,92.617,54.162z"/>
<path fill="#BEBDBD" d="M92.137,60.881c0.608,0.657,2.021,2.575,0.72,3.6C93.982,62.956,91.875,61.525,92.137,60.881z"/>
<path fill="#BEBDBD" d="M92.377,65.441c0,0.24,0,0.48,0,0.72c0.252,0.25,1.275,0.933,0.72,1.2c-0.209-0.351-0.359-0.761-0.96-0.72
	C92.269,66.292,91.856,65.401,92.377,65.441z"/>
<path fill="#BEBDBD" d="M96.217,71.921c0.313,2.167-5.622,0.911-3.36-1.439c0.08,0,0.16,0,0.24,0
	c-0.577,0.553-0.366,0.773-0.24,1.68c0.773,0.733,2.601,0.964,3.36,0C95.944,72.117,96.084,71.921,96.217,71.921z"/>
<path fill="#BEBDBD" d="M95.257,65.682c-0.231,1.74,1.154,2.076,0.479,3.6c-0.08,0-0.159,0-0.239,0
	C96.278,67.919,94.376,67.016,95.257,65.682z"/>
<path fill="#BEBDBD" d="M95.257,59.921c-0.096,0.742,1.373,2.77,0,3.6c-0.08,0-0.16,0-0.24,0
	C96.544,62.622,94.511,60.438,95.257,59.921z"/>
<path fill="#BEBDBD" d="M94.776,58.722c0.319-0.035,0.895,0.807,0.961,0.24c0.321,0.158,0.446,0.513,0.479,0.96
	c-0.502,0.102-0.636-0.165-0.96-0.24C95.895,59.064,94.795,59.338,94.776,58.722z"/>
<path fill="#BEBDBD" d="M94.297,53.441c0.232,0.006,0.187,0.293,0.24,0.48c0.234,0.42,1.968,0.57,1.438,0.96
	C95.306,54.513,94.067,54.71,94.297,53.441z"/>
<path fill="#BEBDBD" d="M95.977,57.521c0.724,0.679,1.291,1.533,2.642,0.96c0.102-0.502-0.165-0.636-0.24-0.96
	c0.403,0.557,2.149-0.23,1.92,0.96c-2.031,0.406-3.087,0.3-4.32,0C95.977,58.162,95.977,57.841,95.977,57.521z"/>
<path fill="#BEBDBD" d="M97.656,55.122c0.038-0.281,0.438-0.202,0.721-0.24c0.295,1.285,4.813,3.367,4.8,0.48
	c-0.177,3.42-4.366,0.98-5.28-0.24C97.816,55.122,97.737,55.122,97.656,55.122z"/>
<path fill="#BEBDBD" d="M103.177,57.762c0.483-0.876,0.811-1.909,0.72-3.36c-0.623-0.144-0.862,0.096-0.72,0.72
	c-0.652-0.562,0.313-1.526,0.96-0.96C104.092,55.637,104.208,57.272,103.177,57.762z"/>
<path fill="#BEBDBD" d="M102.457,58.481c-0.679,1.041,1.212,1.259,0.72,2.88c-0.232-1.368-1.089-2.111-1.92-2.88
	C101.656,58.481,102.057,58.481,102.457,58.481z"/>
<path fill="#BEBDBD" d="M102.217,67.361c-0.482-0.489,0.105-0.471,0.24-0.96c0.16,0,0.318,0,0.479,0
	C103.004,67.028,103.018,67.604,102.217,67.361z"/>
<path fill="#BEBDBD" d="M102.697,65.921c0.465,0.37,1.195-1.034,1.681-1.44c-0.002,1.358-1.688,1.033-1.2,2.88
	c-1.154-0.01-1.338,1.32-1.439,1.68c-1.032-0.051,0.109-1.494,0.479-1.68c0.801,0.241,0.787-0.333,0.72-0.96
	c-0.16,0-0.318,0-0.479,0C102.418,66.123,102.51,65.975,102.697,65.921z"/>
<path fill="#BEBDBD" d="M105.816,59.682c0.523,0.461-0.777,1.127-0.96,1.68c0.257,0.623,0.954,1.743-0.238,1.92
	c0.105-0.213,0.21-0.429,0.479-0.479c0.037-0.597-0.377-0.743-0.479-1.2C104.714,60.659,105.672,60.577,105.816,59.682z"/>
<path fill="#BEBDBD" d="M105.816,55.603c1.535,1.151-1.099,2.414,0,3.84C104.27,58.35,106.834,56.962,105.816,55.603z"/>
<path fill="#BEBDBD" d="M105.097,53.202c0.355,0.125,0.605,0.355,0.96,0.48c-0.143,0.498,0.297,1.577-0.24,1.68
	c-0.46-0.027,0.282-0.804,0-1.44c-0.176-0.224-0.436-0.364-0.72-0.48C105.097,53.361,105.097,53.281,105.097,53.202z"/>
<path fill="#BEBDBD" d="M101.257,47.202c0.24,0,0.479,0,0.72,0c0.519,0.602,0.606,1.581-0.238,1.92
	C102.417,48.391,102.184,47.487,101.257,47.202z"/>
<path fill="#C3A165" d="M86.377,49.361c0.492-0.196,2.955-0.525,3.358-0.24c-0.974,2.222,0.728,3.502,1.682,4.56
	c-0.256,1.836-1.533,4.402,0.479,5.28c-0.484,1.068-1.482,3.821,0.24,4.32c-0.368,0.912-0.967,1.593-1.2,2.64
	c1.566,2.108-1.551,7.44,2.4,7.92C92.56,84.33,90.441,91.028,88.536,100c-1.443,0.931-2.985,2.312-4.08,2.881
	c-1.514-2.092-3.333-3.123-2.88-6.721c0.636-0.003,1.414,0.134,1.439-0.479c-1.48-1.194-3.118-0.197-4.56-1.2
	c-2.036-1.416-1.42-4.982-2.4-7.68c-0.373-0.854,0.815-0.146,0.72-0.721c-1.052-1.137-4.442-1.116-3.84-3.12
	c2.808,0.778,5.019,1.134,7.68,1.681c0.39,0.172,0.39-1.132,0-0.96c0.981-0.938,4.014,0.173,3.601-2.16
	c3.124-0.486,2.852-2.898,5.04-4.32c-0.992-1.256-0.203-1.852-0.48-3.359c-3.896,1.229-6.396,0.045-9.119,0
	c-0.037-1.157,1.032-1.208,0.72-2.641c-0.174-0.866-1.007-1.072-2.16-0.96c-0.313,1.034,0.681,0.759,0.96,1.2
	c-1.398,3.002-3.524,5.276-7.92,5.28c-0.74-4.052-0.107-9.557,2.16-12c1.999-2.154,4.554-2.197,5.04-5.28
	c0.549-3.485-0.329-7.244-2.641-7.92c-1.134-0.332-2.844,1.154-3.6-0.24c2.481-1.727,4.886-0.222,7.2-0.24
	c0.42-1.541-1.415-0.826-1.44-1.92c1.008,0.776,5.044-1.247,3.84,1.44c1.637,0.028,4.73-0.143,6.24,0.72
	C88.268,49.872,86.829,50.109,86.377,49.361z M81.577,64.242c9.712,6.206,9.377-16.183,1.439-12.24
	c0.702,0.784,1.366,0.114,2.4,0.48c1.364,0.935,2.741,4.215,1.92,5.76c-0.611-1.02-3.845-0.754-5.76-1.68
	c-0.034-1.603,0.713-3.091,1.199-4.8C79.659,53.62,79.265,60.604,81.577,64.242z"/>
<path fill="#BEBDBD" d="M81.816,61.603c-0.181-1.019-0.56-1.84-0.479-3.12c0.349-0.371,1.229-0.211,1.92-0.24
	c-0.106,1.867,0.276,3.244,2.16,3.12c1.172-0.028,1.033-1.367,1.438-2.16c1.741-0.182,0.574,2.063,0.48,2.88
	c-0.627,0.733-1.215,1.505-2.4,1.68c-0.08,0-0.16,0-0.239,0C83.274,63.504,82.361,62.737,81.816,61.603z"/>
<path fill="#222121" d="M81.816,61.603c0.545,1.135,1.458,1.902,2.881,2.16C83.438,64.293,82.089,62.854,81.816,61.603z"/>
<path fill="#222121" d="M84.937,63.762c1.187-0.174,1.773-0.947,2.4-1.68C86.865,62.882,86.112,64.438,84.937,63.762z"/>
<path fill="#BEBDBD" d="M85.417,61.361c0.97-0.229,0.677-1.723,1.438-2.16C86.45,59.995,86.589,61.333,85.417,61.361z"/>
<path fill="#BEBDBD" d="M76.537,59.682c0.362-0.694-0.352-1.094,0.72-1.2c0,0.48,0,0.96,0,1.44c-0.08,0-0.16,0-0.24,0
	C77.01,59.688,76.723,59.735,76.537,59.682z"/>
<path fill="#BEBDBD" d="M71.017,61.361c0-0.64,0-1.28,0-1.92c0.701-0.259,1.383-0.538,2.4-0.48c-0.109,1.149,0.26,1.819,0.96,2.16
	c1.308,0.108,1.811-0.589,2.16-1.44c0.187,0.054,0.474,0.007,0.479,0.24c0,0.16,0,0.32,0,0.48c-0.346,1.334-2.148,1.211-2.64,2.4
	c-0.08,0-0.16,0-0.24,0c-0.613,0.027-0.84,0.44-1.2,0.72C71.983,63.116,71.414,62.326,71.017,61.361z"/>
<path fill="#BEBDBD" d="M71.017,61.361c0.397,0.963,0.967,1.753,1.92,2.16c0.36-0.28,0.586-0.693,1.2-0.72
	c-0.48,0.399-0.889,0.871-1.68,0.96C72.044,62.896,70.941,62.716,71.017,61.361z"/>
<path fill="#BEBDBD" d="M74.377,62.802c0.491-1.189,2.294-1.066,2.64-2.4C76.992,62.057,75.19,61.937,74.377,62.802z"/>
<path fill="#BEBDBD" d="M76.537,76.481c0.444-0.675,1.142-1.099,1.68-1.68c0.08,0,0.16,0,0.24,0
	C77.965,75.51,77.39,76.136,76.537,76.481z"/>
<path fill="#BEBDBD" d="M68.617,76.242c0.054-0.346,0.716-0.084,0.72-0.479c1.104,2.919,4.901,2.141,6.96,0.72
	c-1.856,1.617-5.784,2.806-6.72-0.48C69.363,76.188,69.035,76.261,68.617,76.242z"/>
<path fill="#BEBDBD" d="M67.177,76.481c-0.333,0.547-1.67,0.09-2.4,0.24c0.339,0.857,0.875,0.801,0.48,1.92
	c-0.703-0.063-0.737,0.542-1.44,0.479c-0.168,0.889,1.026,0.414,1.2,0.96c-0.906,0.106-1.126-0.473-1.68-0.72
	c0.395-0.725,1.665-0.575,1.92-1.44c-0.165-0.955-1.67-0.569-1.68-1.68C64.366,76.732,66.008,76.372,67.177,76.481z"/>
<path fill="#BEBDBD" d="M66.457,80.803c0.719,0.157-0.229,0.513,0,0.96c1.223,0.103,2.828-1.58,3.359,0
	c-1.041-1.091-2.331,0.567-4.08,0.239C65.557,81.183,66.712,81.696,66.457,80.803z"/>
<path fill="#BEBDBD" d="M71.497,82.723c-0.588,0.372-1.563,0.357-2.4,0.479c-0.113-0.753,0.646-0.634,0.72-1.2
	c0.708,0.209-0.557,0.359-0.239,0.96C70.285,82.92,71.063,82.315,71.497,82.723z"/>
<path fill="#BEBDBD" d="M71.736,82.481c0.618-1.633,3.063-0.308,4.08-1.2c0.867,0.253,1.329,0.911,1.92,1.44
	c0.539-0.102,0.007-1.273,0.48-1.44c1.564-0.185,2.334,1.09,3.6,0.48c-0.125-0.355-0.354-0.605-0.479-0.96
	c0.42,0.329,1.144,0.988,0.72,1.439c-1.729,0.291-2.267-0.612-3.6-0.72c-0.646,0.283,0,1.251,0,1.68
	c-1.419-0.102-1.6-1.441-2.88-1.68c-0.807,0.219-0.119,0.446-0.24,1.2C74.281,81.437,72.979,81.695,71.736,82.481z"/>
<path fill="#BEBDBD" d="M83.497,79.122c0.379,0.422,1.102,0.498,1.2,1.2c-1.521,0.427-2.16-0.473-3.36-0.96
	c-0.563,0.062-0.138,1.055,0,1.2c-0.658-0.005-0.57-1.133-0.24-1.44c1.168,0.032,1.346,1.055,2.88,0.721
	C83.822,79.599,83.425,79.594,83.497,79.122z"/>
<path fill="#BEBDBD" d="M83.497,78.882c-0.233-0.007-0.188-0.294-0.24-0.48c0.679-0.602,2.682,0.121,3.36-0.48
	c-0.071-0.889-1.813-0.107-1.682-1.199c0.67,0.53,1.622,0.777,2.88,0.72C87.409,78.954,84.306,77.771,83.497,78.882z"/>
<path fill="#BEBDBD" d="M84.457,75.763c0.523-0.341,1.235,0.128,2.16-0.24c0.008,0.728-0.844,0.598-1.44,0.72
	C85.218,75.293,84.809,76.318,84.457,75.763z"/>
<path fill="#BEBDBD" d="M81.097,75.281c1.732-0.076,2.277,0.469,2.88,0.48C83.337,76.154,82.331,75.507,81.097,75.281z"/>
<path fill="#BEBDBD" d="M87.577,102.162c0.714-0.565,1.478-1.082,1.92-1.92c3.09,2.242,0.378,6.454-0.24,8.88
	c-1.234-1.726-2.387-3.533-3.601-5.279C86.51,103.496,87.085,102.87,87.577,102.162z"/>
<path fill="#BEBDBD" d="M89.257,109.122c-0.046,0.194-0.241,0.239-0.24,0.48c0.375-1.463-3.832-4.272-3.84-5.28
	c-0.004-0.542,1.685-1.565,2.4-2.16c-0.492,0.708-1.067,1.334-1.921,1.681C86.87,105.588,88.022,107.396,89.257,109.122z"/>
<path fill="#BEBDBD" d="M77.977,105.763c-0.021,0.654,0.4,0.482,0,0.96c0.528-0.272,0.797-0.803,1.44-0.96
	c-0.55,0.49-0.907,1.173-1.92,1.199c0.202-0.278,0.316-0.643,0.239-1.199C77.816,105.763,77.896,105.763,77.977,105.763z"/>
<path fill="#BEBDBD" d="M79.656,105.763c0.834-0.928,2.176-1.345,3.12-2.16c-0.264-1.336-0.979-2.221-1.919-2.88
	c-1.629,0.611-2.019,2.461-2.64,4.08c0.094-2.146,1.187-3.294,2.4-4.32c1.299,0.461,1.93,1.59,2.399,2.88
	C82.406,104.67,80.781,104.968,79.656,105.763z"/>
<path fill="#BEBDBD" d="M78.217,104.803c0.621-1.619,1.011-3.469,2.64-4.08c0.94,0.659,1.656,1.544,1.919,2.88
	c-0.943,0.815-2.287,1.232-3.119,2.16c-0.08,0-0.16,0-0.24,0c-0.644,0.157-0.913,0.688-1.44,0.96c0.4-0.478-0.021-0.306,0-0.96
	C77.875,105.261,78.141,105.126,78.217,104.803z"/>
<path fill="#BEBDBD" d="M78.457,74.803c1.22,0.088,2.018,0.374,2.64,0.479c1.234,0.226,2.24,0.873,2.88,0.48c0.16,0,0.32,0,0.48,0
	c0.352,0.557,0.761-0.469,0.72,0.479c-0.046,0.194-0.241,0.239-0.24,0.48c-0.132,1.092,1.609,0.311,1.682,1.199
	c-0.68,0.602-2.683-0.121-3.36,0.48c0.054,0.187,0.007,0.474,0.24,0.48c0,0.079,0,0.159,0,0.239
	c-0.072,0.472,0.324,0.477,0.479,0.721c-1.534,0.334-1.712-0.688-2.88-0.721c-0.33,0.308-0.417,1.436,0.24,1.44
	c0,0.08,0,0.16,0,0.24c0.125,0.354,0.354,0.604,0.479,0.96c-1.265,0.609-2.034-0.665-3.6-0.48c-0.474,0.167,0.059,1.339-0.48,1.44
	c-0.591-0.529-1.053-1.188-1.92-1.44c-1.017,0.893-3.462-0.433-4.08,1.2c-0.204-0.044-0.227,0.094-0.239,0.24
	c-0.435-0.406-1.212,0.198-1.92,0.239c-0.317-0.601,0.948-0.751,0.239-0.96c0-0.08,0-0.159,0-0.239c-0.532-1.58-2.137,0.103-3.359,0
	c-0.229-0.447,0.719-0.803,0-0.96c-0.203-0.518-1.054-0.388-1.44-0.721c-0.174-0.546-1.368-0.071-1.2-0.96
	c0.703,0.063,0.737-0.542,1.44-0.479c0.396-1.119-0.143-1.063-0.48-1.92c0.729-0.15,2.067,0.307,2.4-0.24
	c0.565,0.005,0.707-0.413,1.44-0.24c0.418,0.019,0.747-0.054,0.96-0.24c0.936,3.286,4.863,2.098,6.72,0.48c0.08,0,0.16,0,0.24,0
	C77.39,76.136,77.965,75.51,78.457,74.803z"/>
<path fill="#BEBDBD" d="M86.377,107.683c3.473,3.584,0.864,8.594,0,13.439c-0.441,0.541-0.976,2.178-0.721,3.12
	c0,0.16,0,0.32,0,0.48c-0.721,0-1.439,0-2.159,0c-0.103-0.502,0.164-0.636,0.238-0.96c0.555-0.647,0.087-2.315,0.24-3.36
	c-0.476-0.473-0.151-1.371,0-1.92c0.554-0.727,0.085-2.476,0.24-3.6c-0.253-1.831-0.429-3.149,0.479-5.04
	C85.432,109.297,85.634,108.219,86.377,107.683z"/>
<path fill="#BEBDBD" d="M78.937,108.401c0.381,1.205,0.897,2.316,0.48,3.36c-1.005,0.595-1.04,2.16-1.681,3.12
	c-0.269,1.217-0.245,1.401-0.72,2.159c-0.602,0.679-0.719,1.842-0.96,2.881c0.464,0.77-0.304,1.048-0.24,1.68
	c-0.08,0-0.16,0-0.239,0c-0.031,0.653-0.458,1.837-0.24,2.399c0,0.24,0,0.48,0,0.721c-0.4,0-0.8,0-1.2,0
	c0.621-2.789,0.811-4.64,1.44-7.2c0.079,0,0.159,0,0.239,0c-0.168-1.048,0.408-1.352,0.24-2.4c-0.076-0.557,0.039-0.921,0.24-1.199
	C77.017,111.922,76.666,108.852,78.937,108.401z"/>
<path fill="#BEBDBD" d="M91.656,48.881c2.986-0.626,6.416-2.048,9.601-1.68c0.927,0.286,1.16,1.188,0.479,1.92
	c-0.141,0.889,0.882,1.126,1.92,1.44c0.473,0.888,0.321,2.398,1.439,2.64c0,0.08,0,0.16,0,0.24c0.284,0.116,0.544,0.256,0.72,0.48
	c0.282,0.636-0.46,1.413,0,1.44c0,0.08,0,0.16,0,0.24c1.019,1.361-1.547,2.748,0,3.84c0,0.08,0,0.16,0,0.24
	c-0.145,0.895-1.103,0.977-1.198,1.92c0.103,0.457,0.517,0.603,0.479,1.2c-0.27,0.051-0.373,0.267-0.479,0.479
	c0.075,0.557-0.039,0.921-0.24,1.2c-0.484,0.406-1.216,1.81-1.68,1.44c0.09-1.59,0.639-2.721,0.479-4.56
	c0.492-1.621-1.397-1.839-0.72-2.88c0.346-0.134,0.585-0.375,0.72-0.72c1.031-0.489,0.915-2.125,0.96-3.6
	c-0.647-0.566-1.612,0.398-0.96,0.96c0,0.08,0,0.16,0,0.24c0.014,2.887-4.505,0.805-4.8-0.48c-0.282,0.038-0.683-0.042-0.72,0.24
	c-0.489,0.724,0.09,2.038,0.72,2.4c0.075,0.324,0.342,0.458,0.24,0.96c-1.351,0.573-1.919-0.281-2.642-0.96
	c-0.025-0.613-0.438-0.84-0.72-1.2c0.113-0.632,0.188-0.808,0.72-1.44c0.528-0.39-1.204-0.54-1.438-0.96
	c-0.055-0.187-0.008-0.474-0.24-0.48c-0.435-0.687,0.062-1.44,0-2.88c-2.148,2.2,0.39,5.211,0.479,8.16
	c0.02,0.617,1.118,0.343,0.48,0.96c0,0.08,0,0.16,0,0.24c-0.746,0.516,1.287,2.7-0.24,3.6c0.183,0.623,0.742,1.587,0.24,2.16
	c-0.881,1.333,1.021,2.238,0.24,3.6c-0.188,1.307,0.493,1.745,0.72,2.64c-0.133,0-0.272,0.195,0,0.24
	c-0.761,0.964-2.587,0.733-3.36,0c-0.126-0.906-0.337-1.127,0.24-1.68c0.211-0.771-0.622-0.498-0.72-0.96
	c-0.129-1.089,0.481-1.438,0.72-2.16c0.557-0.267-0.468-0.95-0.72-1.2c0-0.24,0-0.48,0-0.72c0.125-0.355,0.354-0.605,0.479-0.96
	c1.301-1.025-0.11-2.943-0.72-3.6c0-0.08,0-0.16,0-0.24c0.586-0.534,1.154-1.086,1.2-2.16c-1.113-1.017-1.509-2.572-0.721-4.32
	c0-0.4,0-0.8,0-1.2C92.895,52.064,89.904,50.54,91.656,48.881z"/>
<path fill="#222121" d="M54.217,124.723c0.279-4.36,0.84-8.44,3.36-10.561c0.813-0.067,1.378-0.382,2.399-0.239
	c3.071-2.289,6.218-4.503,10.08-6c2-2.561,4.68-4.44,7.68-6c1.254-1.86,3.252-2.268,2.4-5.761c-4.42-0.619-4.573-5.507-5.28-9.84
	c-1.335-0.585-2.229-1.61-3.359-2.4c-0.831,0.37-2.188,0.213-3.36,0.24c-1.363-0.054-0.146-1.259-1.439-1.2
	c-6.732,3.17-0.807,15.117-6.48,19.681c-3.854,3.099-8.233,0.896-10.32-2.4c-1.115-1.761-3.637-7.381-3.12-10.08
	c0.775-4.051,9.88-4.188,12.721-2.64c1.287-2.394,2.202-5.158,5.04-6c-0.174-1.347-2.111-0.929-2.16-2.4
	c-0.75-0.73,1.384-1.035,0.479-1.92c-0.548-0.525-0.89-1.738-0.239-2.16c2.572,0.513,5.251,0.253,6.96-0.479
	c1.392-7.598-1.688-14.845,1.92-20.88c-0.851-2.038-0.071-3.679,0.239-5.76c-2.76-1.16-5.735-2.104-6.72-5.04
	c1.128-2.059,4.23-0.006,6,0.24c0.436-12.191,4.17-22.151,16.32-21.12c7.934,0.673,11.487,7.844,11.28,17.04
	c5.974-0.867,8.177,4.388,4.08,7.2c0.729,0.945,0.797,1.67,0.479,2.88c2.907,2.629,5.055,5.756,3.84,10.8
	c-0.104,0.437-0.87,0.933-0.96,1.44c-0.09,0.509,0.361,1.198,0.24,1.68c-0.979,3.894-4.405,6.847-6.24,8.64
	c-0.819-0.061-1.153-0.607-2.16-0.48c-0.101,1.841-2.261,2.428-3.12,3.84c-0.666,1.096-0.572,3.434-0.96,5.28
	c-1.313,6.279-2.489,12.841-4.08,18c0.603,1.479,2.058,2.104,2.4,3.84c3.171-0.008,4.737,2.219,6.96,4.08
	c1.369,1.147,3.614,2.142,5.521,3.36c1.853,1.185,3.719,3.013,5.278,3.84c0.862,0.456,2.096,0.358,2.88,0.96
	c2.655,2.032,2.662,6.761,3.602,10.32c-10.24,0-20.48,0-30.721,0c0-0.16,0-0.32,0-0.48c0.472-0.809,0.693-1.865,0.721-3.12
	c0.863-4.846,3.473-9.855,0-13.439c-0.584-0.255-1.262,1.451-1.68,2.16c-0.909,1.891-0.733,3.209-0.48,5.04
	c-0.554,0.726-0.085,2.475-0.24,3.6c-0.151,0.549-0.476,1.447,0,1.92c-0.553,0.647-0.085,2.314-0.24,3.36
	c-0.074,0.324-0.341,0.458-0.238,0.96c-2.721,0-5.44,0-8.16,0c0-0.24,0-0.48,0-0.721c0.364-0.596,0.463-1.456,0.479-2.399
	c-0.063-0.632,0.704-0.91,0.24-1.68c0.553-0.728,0.667-1.894,0.96-2.881c0.475-0.758,0.452-0.942,0.72-2.159
	c0.865-0.735,1.04-2.16,1.681-3.12c0.417-1.044-0.1-2.155-0.48-3.36c-1.83-0.067-2.67,2.928-2.64,5.521
	c-0.202,0.278-0.316,0.643-0.24,1.199c-0.08,0-0.16,0-0.24,0c0.08,0.96-0.428,1.332-0.239,2.4c-0.631,2.561-0.819,4.411-1.44,7.2
	C67.497,124.723,60.856,124.723,54.217,124.723z M101.257,47.202c-3.185-0.368-6.613,1.054-9.601,1.68
	c-1.936,1.174,0.284,3.25,0.961,4.08c0,0.4,0,0.8,0,1.2c-1.243,1.4-0.578,3.556,0.479,4.56c-0.053,0.907-0.754,1.166-0.96,1.92
	c0,0.08,0,0.16,0,0.24c-0.262,0.644,1.846,2.073,0.72,3.6c-0.125,0.355-0.354,0.605-0.479,0.96c-0.521-0.041-0.108,0.851-0.24,1.2
	c0.602-0.041,0.751,0.369,0.96,0.72c-0.237,0.722-0.849,1.071-0.72,2.16c0.098,0.462,0.931,0.189,0.72,0.96c-0.08,0-0.16,0-0.24,0
	c-2.262,2.351,3.675,3.606,3.36,1.439c-0.226-0.895-0.906-1.333-0.72-2.64c0.08,0,0.159,0,0.239,0c0.675-1.524-0.712-1.86-0.479-3.6
	c0.502-0.572-0.06-1.537-0.24-2.16c0.08,0,0.16,0,0.24,0c1.373-0.83-0.096-2.858,0-3.6c0-0.08,0-0.16,0-0.24
	c0.324,0.076,0.458,0.342,0.96,0.24c-0.033-0.447-0.158-0.802-0.479-0.96c-0.067,0.567-0.643-0.275-0.962-0.24
	c-0.09-2.949-2.628-5.96-0.479-8.16c0.062,1.439-0.435,2.193,0,2.88c-0.229,1.269,1.009,1.071,1.68,1.44
	c-0.53,0.632-0.605,0.808-0.72,1.44c0.28,0.36,0.693,0.587,0.72,1.2c0,0.32,0,0.64,0,0.96c1.233,0.3,2.289,0.406,4.32,0
	c0.229-1.19-1.517-0.403-1.92-0.96c-0.63-0.362-1.209-1.677-0.72-2.4c0.08,0,0.158,0,0.238,0c0.914,1.221,5.104,3.661,5.28,0.24
	c0-0.08,0-0.16,0-0.24c-0.144-0.624,0.097-0.863,0.72-0.72c0.092,1.451-0.235,2.484-0.72,3.36c-0.135,0.346-0.374,0.586-0.72,0.72
	c-0.4,0-0.801,0-1.2,0c0.831,0.769,1.688,1.512,1.92,2.88c0.159,1.839-0.39,2.97-0.479,4.56c-0.188,0.053-0.278,0.201-0.239,0.48
	c-0.134,0.489-0.724,0.471-0.24,0.96c-0.37,0.186-1.513,1.629-0.479,1.68c0.103-0.36,0.285-1.69,1.439-1.68
	c-0.486-1.847,1.198-1.522,1.2-2.88c0.201-0.279,0.315-0.644,0.24-1.2c1.192-0.177,0.495-1.297,0.238-1.92
	c0.183-0.553,1.483-1.219,0.96-1.68c0-0.08,0-0.16,0-0.24c-1.099-1.426,1.535-2.689,0-3.84c0-0.08,0-0.16,0-0.24
	c0.537-0.104,0.099-1.183,0.24-1.68c-0.354-0.125-0.604-0.355-0.96-0.48c-1.118-0.241-0.968-1.751-1.438-2.64
	c-1.039-0.314-2.062-0.552-1.92-1.44c0.846-0.339,0.757-1.318,0.238-1.92C101.737,47.202,101.497,47.202,101.257,47.202z
	 M72.937,49.841c0.87-0.41,2.055-0.506,3.36-0.48c-0.473-0.887-2.105-0.615-3.36-0.72C73.08,49.069,72.233,49.639,72.937,49.841z
	 M88.057,51.281c-1.51-0.863-4.604-0.691-6.24-0.72c1.204-2.688-2.832-0.665-3.84-1.44c0.026,1.095,1.861,0.38,1.44,1.92
	c-2.314,0.018-4.72-1.487-7.2,0.24c0.756,1.396,2.466-0.092,3.6,0.24c2.313,0.676,3.189,4.435,2.641,7.92
	c-0.486,3.083-3.041,3.125-5.04,5.28c-2.269,2.444-2.9,7.949-2.16,12c4.396-0.004,6.521-2.278,7.92-5.28
	c-0.279-0.441-1.273-0.166-0.96-1.2c1.153-0.112,1.986,0.094,2.16,0.96c0.313,1.433-0.757,1.483-0.721,2.641
	c2.725,0.045,5.224,1.229,9.12,0c0.277,1.508-0.512,2.104,0.48,3.359c-2.188,1.422-1.916,3.834-5.04,4.32
	c0.413,2.333-2.619,1.222-3.6,2.16c0.389-0.172,0.389,1.132,0,0.96c-2.662-0.547-4.873-0.902-7.681-1.681
	c-0.604,2.004,2.788,1.983,3.84,3.12c0.096,0.575-1.093-0.133-0.72,0.721c0.98,2.697,0.364,6.264,2.4,7.68
	c1.44,1.003,3.079,0.006,4.56,1.2c-0.026,0.613-0.804,0.477-1.439,0.479c-0.453,3.598,1.367,4.629,2.88,6.721
	c1.095-0.569,2.637-1.95,4.08-2.881c1.905-8.973,4.022-15.671,4.8-26.159c-3.951-0.48-0.834-5.813-2.4-7.92
	c0.233-1.047,0.832-1.728,1.2-2.64c-1.724-0.499-0.726-3.251-0.24-4.32c-2.013-0.878-0.734-3.444-0.479-5.28
	c-0.954-1.058-2.654-2.338-1.682-4.56c-0.403-0.285-2.866,0.044-3.358,0.24C86.829,50.109,88.268,49.872,88.057,51.281z
	 M71.257,58.242c2.213-0.589,4.138-0.72,6-1.2C77.822,50.205,70.288,52.54,71.257,58.242z M77.017,59.921c0.08,0,0.16,0,0.24,0
	c0-0.48,0-0.96,0-1.44c-1.071,0.106-0.357,0.506-0.72,1.2c-0.35,0.851-0.853,1.548-2.16,1.44c-0.7-0.34-1.069-1.011-0.96-2.16
	c-1.019-0.058-1.7,0.221-2.4,0.48c0,0.64,0,1.28,0,1.92c-0.075,1.355,1.027,1.534,1.44,2.4c0.791-0.089,1.199-0.561,1.68-0.96
	c0.08,0,0.16,0,0.24,0c0.813-0.866,2.615-0.745,2.64-2.4C77.017,60.242,77.017,60.083,77.017,59.921z M96.937,60.642
	c0.134,1.442,0.395,1.985-0.479,3.12c1.282-0.936,3.218-3.033,5.28-1.68C101.844,58.969,98.393,59.436,96.937,60.642z
	 M101.977,62.562c-0.658-0.398-1.106,0.354-1.92,0.24c0.014,2.714-1.462,6.021-2.88,5.76c0.629-1.452,1.736-2.424,1.44-4.8
	c-0.979-0.178-0.827,0.773-1.92,0.48c-0.021,2.566-0.769,4.085,0.72,6C100.271,68.729,101.909,65.564,101.977,62.562z
	 M71.257,66.162c0.263-0.537,0.396-1.202,0.72-1.68c-0.354-0.125-0.604-0.355-0.96-0.48C71.166,64.653,70.712,65.906,71.257,66.162z
	 M78.457,74.803c-0.08,0-0.16,0-0.24,0c-0.539,0.581-1.235,1.005-1.68,1.68c-0.08,0-0.16,0-0.24,0
	c-2.059,1.421-5.854,2.199-6.96-0.72c-0.004,0.396-0.666,0.134-0.72,0.479c-0.733-0.173-0.875,0.245-1.44,0.24
	c-1.169-0.11-2.812,0.251-3.6-0.24c0.01,1.11,1.515,0.725,1.68,1.68c-0.255,0.865-1.525,0.716-1.92,1.44
	c0.553,0.247,0.773,0.826,1.68,0.72c0.387,0.333,1.237,0.203,1.44,0.721c0.255,0.895-0.9,0.38-0.721,1.199
	c1.75,0.328,3.039-1.33,4.08-0.239c0,0.08,0,0.159,0,0.239c-0.073,0.566-0.833,0.447-0.72,1.2c0.838-0.122,1.813-0.107,2.4-0.479
	c0.014-0.146,0.036-0.284,0.239-0.24c1.243-0.786,2.545-1.046,3.601,0.24c0.121-0.754-0.566-0.981,0.24-1.2
	c1.28,0.238,1.461,1.578,2.88,1.68c0-0.429-0.646-1.396,0-1.68c1.333,0.107,1.869,1.011,3.6,0.72c0.424-0.451-0.299-1.11-0.72-1.439
	c0-0.08,0-0.16,0-0.24c-0.138-0.146-0.563-1.139,0-1.2c1.2,0.487,1.84,1.387,3.36,0.96c-0.1-0.702-0.821-0.778-1.2-1.2
	c0-0.08,0-0.16,0-0.239c0.809-1.111,3.912,0.071,4.318-1.44c-1.258,0.058-2.21-0.189-2.88-0.72c-0.001-0.241,0.194-0.286,0.24-0.48
	c0.598-0.122,1.448,0.008,1.44-0.72c-0.925,0.368-1.637-0.101-2.16,0.24c-0.16,0-0.32,0-0.48,0c-0.603-0.012-1.146-0.557-2.88-0.48
	C80.475,75.177,79.677,74.891,78.457,74.803z M62.377,85.122c1.357-0.161,1.693-1.345,2.16-2.399c-0.052-0.27-0.267-0.374-0.48-0.48
	C63.554,83.258,62.214,83.438,62.377,85.122z M89.257,109.122c0.618-2.426,3.33-6.638,0.24-8.88c-0.442,0.838-1.206,1.354-1.92,1.92
	c-0.717,0.595-2.404,1.618-2.4,2.16c0.008,1.008,4.215,3.817,3.84,5.28C89.016,109.36,89.211,109.315,89.257,109.122z
	 M79.656,105.763c1.125-0.795,2.75-1.092,3.36-2.4c-0.47-1.29-1.101-2.419-2.399-2.88c-1.214,1.026-2.307,2.174-2.4,4.32
	c-0.076,0.324-0.342,0.458-0.24,0.96c-0.08,0-0.16,0-0.24,0c0.077,0.557-0.039,0.921-0.239,1.199
	c1.013-0.026,1.371-0.709,1.92-1.199C79.497,105.763,79.577,105.763,79.656,105.763z"/>
<path fill="#222121" d="M82.776,51.762c-0.485,1.709-1.233,3.198-1.199,4.8c1.916,0.926,5.148,0.66,5.76,1.68
	c0.821-1.544-0.556-4.825-1.92-5.76c-1.034-0.366-1.698,0.304-2.4-0.48c7.938-3.943,8.272,18.446-1.439,12.24
	C79.265,60.604,79.659,53.62,82.776,51.762z M85.417,61.361c-1.884,0.124-2.268-1.253-2.16-3.12c-0.691,0.029-1.571-0.131-1.92,0.24
	c-0.081,1.28,0.298,2.101,0.479,3.12c0.272,1.252,1.622,2.691,2.882,2.16c0.078,0,0.158,0,0.238,0c1.176,0.676,1.93-0.879,2.4-1.68
	c0.094-0.817,1.261-3.062-0.48-2.88C86.094,59.64,86.387,61.132,85.417,61.361z"/>
<path fill="#B89B65" d="M94.308,206.477c-1.255-0.105-2.888,0.167-3.36-0.72c1.306,0.026,2.49-0.07,3.36-0.48
	C95.011,205.479,94.164,206.049,94.308,206.477z"/>
<path fill="#C3A165" d="M89.987,198.077c1.862-0.48,3.787-0.61,6-1.2C96.956,202.579,89.422,204.914,89.987,198.077z"/>
<path fill="#222121" d="M119.987,184.637c-7.258,1.738-4.044-6.996-5.52-11.04c-0.578,3.822-1.636,7.165-2.16,11.04
	c0.512,1.089,2.588,0.611,2.88,1.92c-0.678,5.163-2.12,9.561-4.8,12.72c1.047-4.073,3.229-8.02,3.6-12
	c-0.278-1.082-2.247-0.473-2.64-1.44c0.144-5.643,1.725-10.998,2.88-17.04c2.112,3.327,1.447,9.433,2.16,14.16
	c1.507,0.413,3.741,0.099,4.8,0.96c2.275,5.534-0.513,11.986-2.16,16.32C118.474,195.999,122.724,189.073,119.987,184.637z"/>
<path fill="#C3A165" d="M65.507,193.036c2.063,1.354,3.997-0.744,5.279-1.68c-0.873,1.135-0.612,1.678-0.479,3.12
	C68.852,195.683,65.4,196.149,65.507,193.036z"/>
<path fill="#C3A165" d="M69.827,184.876c1.487,1.915,0.74,3.434,0.72,6c-1.093-0.293-0.94,0.658-1.92,0.48
	c-0.296-2.376,0.813-3.349,1.44-4.8c-1.418-0.26-2.894,3.046-2.88,5.76c-0.813-0.114-1.262,0.638-1.92,0.24
	C65.335,189.554,66.973,186.389,69.827,184.876z"/>
<path fill="#C3A165" d="M96.228,191.117c-0.355-0.125-0.605-0.355-0.96-0.48c0.322-0.478,0.457-1.143,0.72-1.68
	C96.532,189.212,96.078,190.465,96.228,191.117z"/>
<path fill="#C3A165" d="M103.188,172.876c-0.214-0.106-0.429-0.211-0.48-0.48c0.465-1.055,0.803-2.238,2.16-2.399
	C105.03,171.68,103.69,171.86,103.188,172.876z"/>
<path fill="#BEBDBD" d="M83.027,140.236c0.155-1.124-0.313-2.873,0.24-3.6C83.112,137.762,83.581,139.511,83.027,140.236z"/>
<path fill="#222121" d="M91.188,139.997c-0.168-1.049,0.408-1.353,0.24-2.4c0.08,0,0.16,0,0.239,0c0.188,1.068-0.319,1.44-0.239,2.4
	C91.348,139.997,91.268,139.997,91.188,139.997z"/>
<path fill="#BEBDBD" d="M83.268,134.717c0.154-1.045-0.313-2.713,0.24-3.36C83.353,132.402,83.82,134.069,83.268,134.717z"/>
<path fill="#BEBDBD" d="M91.428,133.516c0.017-0.943,0.115-1.804,0.479-2.399c0.219,0.563-0.208,1.746-0.24,2.399
	C91.588,133.516,91.508,133.516,91.428,133.516z"/>
<path fill="#BEBDBD" d="M80.867,133.997c0.026-1.255,0.249-2.312,0.721-3.12C81.842,131.819,81.309,133.456,80.867,133.997z"/>
<path fill="#BEBDBD" d="M82.547,145.275c-0.42,0.709-1.097,2.415-1.681,2.16C81.61,146.899,81.813,145.821,82.547,145.275z"/>
<path fill="#222121" d="M90.228,138.077c0.293-0.987,0.407-2.153,0.96-2.881C90.946,136.235,90.829,137.397,90.228,138.077z"/>
<path fill="#BEBDBD" d="M87.827,143.355c0.641-0.96,0.815-2.385,1.681-3.12C88.866,141.196,88.832,142.762,87.827,143.355z"/>
<path fill="#BEBDBD" d="M90.947,141.196c0.03,2.593-0.81,5.588-2.64,5.521C90.578,146.267,90.228,143.196,90.947,141.196z"/>
<path fill="#BEBDBD" d="M75.588,206.237c1.753-1.657-1.237-3.183-0.961-4.08C75.303,202.987,77.522,205.063,75.588,206.237z"/>
<path fill="#BEBDBD" d="M74.627,200.957c0.789-1.749,0.395-3.304-0.72-4.32c0.046-1.074,0.614-1.625,1.2-2.16
	c-0.206,0.754-0.907,1.013-0.96,1.92C75.205,197.4,75.87,199.557,74.627,200.957z"/>
<path fill="#BEBDBD" d="M75.107,194.237c-0.608-0.657-2.021-2.575-0.72-3.6C73.262,192.163,75.369,193.593,75.107,194.237z"/>
<path fill="#BEBDBD" d="M74.867,189.677c0-0.24,0-0.48,0-0.72c-0.252-0.25-1.275-0.933-0.72-1.2c0.209,0.351,0.359,0.761,0.96,0.72
	C74.976,188.826,75.388,189.717,74.867,189.677z"/>
<path fill="#BEBDBD" d="M71.027,183.197c-0.313-2.167,5.622-0.911,3.36,1.439c-0.08,0-0.16,0-0.24,0
	c0.577-0.553,0.366-0.773,0.24-1.68c-0.773-0.733-2.601-0.964-3.36,0C71.3,183.001,71.16,183.197,71.027,183.197z"/>
<path fill="#BEBDBD" d="M71.987,189.437c0.231-1.74-1.154-2.076-0.479-3.6c0.08,0,0.159,0,0.239,0
	C70.966,187.199,72.868,188.103,71.987,189.437z"/>
<path fill="#BEBDBD" d="M71.987,195.197c0.096-0.742-1.373-2.77,0-3.6c0.08,0,0.16,0,0.24,0
	C70.7,192.497,72.733,194.681,71.987,195.197z"/>
<path fill="#BEBDBD" d="M72.468,196.396c-0.319,0.035-0.895-0.807-0.961-0.24c-0.321-0.158-0.446-0.513-0.479-0.96
	c0.502-0.102,0.636,0.165,0.96,0.24C71.35,196.054,72.449,195.78,72.468,196.396z"/>
<path fill="#BEBDBD" d="M72.947,201.677c-0.232-0.006-0.187-0.293-0.24-0.48c-0.234-0.42-1.968-0.57-1.438-0.96
	C71.938,200.605,73.177,200.408,72.947,201.677z"/>
<path fill="#BEBDBD" d="M71.268,197.597c-0.724-0.679-1.291-1.533-2.642-0.96c-0.102,0.502,0.165,0.636,0.24,0.96
	c-0.403-0.557-2.149,0.23-1.92-0.96c2.031-0.406,3.087-0.3,4.32,0C71.268,196.957,71.268,197.277,71.268,197.597z"/>
<path fill="#BEBDBD" d="M69.588,199.997c-0.038,0.281-0.438,0.202-0.721,0.24c-0.295-1.285-4.813-3.367-4.8-0.48
	c0.177-3.42,4.366-0.98,5.28,0.24C69.428,199.997,69.507,199.997,69.588,199.997z"/>
<path fill="#BEBDBD" d="M64.067,197.356c-0.483,0.876-0.811,1.909-0.72,3.36c0.623,0.144,0.862-0.096,0.72-0.72
	c0.652,0.562-0.313,1.526-0.96,0.96C63.152,199.481,63.036,197.846,64.067,197.356z"/>
<path fill="#BEBDBD" d="M64.787,196.637c0.679-1.041-1.212-1.259-0.72-2.88c0.232,1.368,1.089,2.111,1.92,2.88
	C65.588,196.637,65.188,196.637,64.787,196.637z"/>
<path fill="#BEBDBD" d="M65.027,187.757c0.482,0.489-0.105,0.471-0.24,0.96c-0.16,0-0.318,0-0.479,0
	C64.24,188.09,64.227,187.515,65.027,187.757z"/>
<path fill="#BEBDBD" d="M64.547,189.197c-0.465-0.37-1.195,1.034-1.681,1.44c0.002-1.358,1.688-1.033,1.2-2.88
	c1.154,0.01,1.338-1.32,1.439-1.68c1.032,0.051-0.109,1.494-0.479,1.68c-0.801-0.241-0.787,0.333-0.72,0.96c0.16,0,0.318,0,0.479,0
	C64.826,188.996,64.734,189.144,64.547,189.197z"/>
<path fill="#BEBDBD" d="M61.428,195.437c-0.523-0.461,0.777-1.127,0.96-1.68c-0.257-0.623-0.954-1.743,0.238-1.92
	c-0.105,0.213-0.21,0.429-0.479,0.479c-0.037,0.597,0.377,0.743,0.479,1.2C62.53,194.459,61.572,194.542,61.428,195.437z"/>
<path fill="#BEBDBD" d="M61.428,199.516c-1.535-1.151,1.099-2.414,0-3.84C62.975,196.769,60.41,198.156,61.428,199.516z"/>
<path fill="#BEBDBD" d="M62.147,201.917c-0.355-0.125-0.605-0.355-0.96-0.48c0.143-0.498-0.297-1.577,0.24-1.68
	c0.46,0.027-0.282,0.804,0,1.44c0.176,0.224,0.436,0.364,0.72,0.48C62.147,201.757,62.147,201.837,62.147,201.917z"/>
<path fill="#BEBDBD" d="M65.987,207.917c-0.24,0-0.479,0-0.72,0c-0.519-0.602-0.606-1.581,0.238-1.92
	C64.827,206.728,65.061,207.631,65.987,207.917z"/>
<path fill="#C3A165" d="M80.867,205.757c-0.492,0.196-2.955,0.525-3.358,0.24c0.974-2.222-0.728-3.502-1.682-4.56
	c0.256-1.836,1.533-4.402-0.479-5.28c0.484-1.068,1.482-3.821-0.24-4.32c0.368-0.912,0.967-1.593,1.2-2.64
	c-1.566-2.108,1.551-7.44-2.4-7.92c0.776-10.488,2.895-17.187,4.8-26.159c1.443-0.931,2.985-2.312,4.08-2.881
	c1.514,2.092,3.333,3.123,2.88,6.721c-0.636,0.003-1.414-0.134-1.439,0.479c1.48,1.194,3.118,0.197,4.56,1.2
	c2.036,1.416,1.42,4.982,2.4,7.68c0.373,0.854-0.815,0.146-0.72,0.721c1.052,1.137,4.442,1.116,3.84,3.12
	c-2.808-0.778-5.019-1.134-7.68-1.681c-0.39-0.172-0.39,1.132,0,0.96c-0.981,0.938-4.014-0.173-3.601,2.16
	c-3.124,0.486-2.852,2.898-5.04,4.32c0.992,1.256,0.203,1.852,0.48,3.359c3.896-1.229,6.396-0.045,9.119,0
	c0.037,1.157-1.032,1.208-0.72,2.641c0.174,0.866,1.007,1.072,2.16,0.96c0.313-1.034-0.681-0.759-0.96-1.2
	c1.398-3.002,3.524-5.276,7.92-5.28c0.74,4.052,0.107,9.557-2.16,12c-1.999,2.154-4.554,2.197-5.04,5.28
	c-0.549,3.485,0.329,7.244,2.641,7.92c1.134,0.332,2.844-1.154,3.6,0.24c-2.481,1.727-4.886,0.222-7.2,0.24
	c-0.42,1.541,1.415,0.826,1.44,1.92c-1.008-0.776-5.044,1.247-3.84-1.44c-1.637-0.028-4.73,0.143-6.24-0.72
	C78.977,205.247,80.415,205.009,80.867,205.757z M85.667,190.876c-9.712-6.206-9.377,16.183-1.439,12.24
	c-0.702-0.784-1.366-0.114-2.4-0.48c-1.364-0.935-2.741-4.215-1.92-5.76c0.611,1.02,3.845,0.754,5.76,1.68
	c0.034,1.603-0.713,3.091-1.199,4.8C87.585,201.499,87.979,194.514,85.667,190.876z"/>
<path fill="#BEBDBD" d="M85.428,193.516c0.181,1.019,0.56,1.84,0.479,3.12c-0.349,0.371-1.229,0.211-1.92,0.24
	c0.106-1.867-0.276-3.244-2.16-3.12c-1.172,0.028-1.033,1.367-1.438,2.16c-1.741,0.182-0.574-2.063-0.48-2.88
	c0.627-0.733,1.215-1.505,2.4-1.68c0.08,0,0.16,0,0.239,0C83.97,191.614,84.883,192.381,85.428,193.516z"/>
<path fill="#222121" d="M85.428,193.516c-0.545-1.135-1.458-1.902-2.881-2.16C83.806,190.825,85.155,192.265,85.428,193.516z"/>
<path fill="#222121" d="M82.308,191.356c-1.187,0.174-1.773,0.947-2.4,1.68C80.379,192.236,81.132,190.681,82.308,191.356z"/>
<path fill="#BEBDBD" d="M81.827,193.757c-0.97,0.229-0.677,1.723-1.438,2.16C80.794,195.124,80.655,193.785,81.827,193.757z"/>
<path fill="#BEBDBD" d="M90.707,195.437c-0.362,0.694,0.352,1.094-0.72,1.2c0-0.48,0-0.96,0-1.44c0.08,0,0.16,0,0.24,0
	C90.234,195.43,90.521,195.383,90.707,195.437z"/>
<path fill="#BEBDBD" d="M96.228,193.757c0,0.64,0,1.28,0,1.92c-0.701,0.259-1.383,0.538-2.4,0.48c0.109-1.149-0.26-1.819-0.96-2.16
	c-1.308-0.108-1.811,0.589-2.16,1.44c-0.187-0.054-0.474-0.007-0.479-0.24c0-0.16,0-0.32,0-0.48c0.346-1.334,2.148-1.211,2.64-2.4
	c0.08,0,0.16,0,0.24,0c0.613-0.027,0.84-0.44,1.2-0.72C95.261,192.002,95.83,192.792,96.228,193.757z"/>
<path fill="#BEBDBD" d="M96.228,193.757c-0.397-0.963-0.967-1.753-1.92-2.16c-0.36,0.28-0.586,0.693-1.2,0.72
	c0.48-0.399,0.889-0.871,1.68-0.96C95.2,192.223,96.303,192.402,96.228,193.757z"/>
<path fill="#BEBDBD" d="M92.867,192.316c-0.491,1.189-2.294,1.066-2.64,2.4C90.252,193.062,92.054,193.182,92.867,192.316z"/>
<path fill="#BEBDBD" d="M90.707,178.637c-0.444,0.675-1.142,1.099-1.68,1.68c-0.08,0-0.16,0-0.24,0
	C89.279,179.608,89.854,178.982,90.707,178.637z"/>
<path fill="#BEBDBD" d="M98.627,178.876c-0.054,0.346-0.716,0.084-0.72,0.479c-1.104-2.919-4.901-2.141-6.96-0.72
	c1.856-1.617,5.784-2.806,6.72,0.48C97.881,178.931,98.209,178.857,98.627,178.876z"/>
<path fill="#BEBDBD" d="M100.067,178.637c0.333-0.547,1.67-0.09,2.4-0.24c-0.339-0.857-0.875-0.801-0.48-1.92
	c0.703,0.063,0.737-0.542,1.44-0.479c0.168-0.889-1.026-0.414-1.2-0.96c0.906-0.106,1.126,0.473,1.68,0.72
	c-0.395,0.725-1.665,0.575-1.92,1.44c0.165,0.955,1.67,0.569,1.68,1.68C102.878,178.386,101.236,178.747,100.067,178.637z"/>
<path fill="#BEBDBD" d="M100.787,174.315c-0.719-0.157,0.229-0.513,0-0.96c-1.223-0.103-2.828,1.58-3.359,0
	c1.041,1.091,2.331-0.567,4.08-0.239C101.688,173.936,100.532,173.422,100.787,174.315z"/>
<path fill="#BEBDBD" d="M95.747,172.396c0.588-0.372,1.563-0.357,2.4-0.479c0.113,0.753-0.646,0.634-0.72,1.2
	c-0.708-0.209,0.557-0.359,0.239-0.96C96.959,172.198,96.182,172.803,95.747,172.396z"/>
<path fill="#BEBDBD" d="M95.508,172.637c-0.618,1.633-3.063,0.308-4.08,1.2c-0.867-0.253-1.329-0.911-1.92-1.44
	c-0.539,0.102-0.007,1.273-0.48,1.44c-1.564,0.185-2.334-1.09-3.6-0.48c0.125,0.355,0.354,0.605,0.479,0.96
	c-0.42-0.329-1.144-0.988-0.72-1.439c1.729-0.291,2.267,0.612,3.6,0.72c0.646-0.283,0-1.251,0-1.68c1.419,0.102,1.6,1.441,2.88,1.68
	c0.807-0.219,0.119-0.446,0.24-1.2C92.963,173.682,94.265,173.423,95.508,172.637z"/>
<path fill="#BEBDBD" d="M83.747,175.997c-0.379-0.422-1.102-0.498-1.2-1.2c1.521-0.427,2.16,0.473,3.36,0.96
	c0.563-0.062,0.138-1.055,0-1.2c0.658,0.005,0.57,1.133,0.24,1.44c-1.168-0.032-1.346-1.055-2.88-0.721
	C83.422,175.52,83.819,175.524,83.747,175.997z"/>
<path fill="#BEBDBD" d="M83.747,176.236c0.233,0.007,0.188,0.294,0.24,0.48c-0.679,0.602-2.682-0.121-3.36,0.48
	c0.071,0.889,1.813,0.107,1.682,1.199c-0.67-0.53-1.622-0.777-2.88-0.72C79.835,176.165,82.938,177.348,83.747,176.236z"/>
<path fill="#BEBDBD" d="M82.787,179.355c-0.523,0.341-1.235-0.128-2.16,0.24c-0.008-0.728,0.844-0.598,1.44-0.72
	C82.026,179.825,82.436,178.8,82.787,179.355z"/>
<path fill="#BEBDBD" d="M86.147,179.837c-1.732,0.076-2.277-0.469-2.88-0.48C83.907,178.964,84.913,179.611,86.147,179.837z"/>
<path fill="#BEBDBD" d="M79.667,152.957c-0.714,0.565-1.478,1.082-1.92,1.92c-3.09-2.242-0.378-6.454,0.24-8.88
	c1.234,1.726,2.387,3.533,3.601,5.279C80.734,151.623,80.159,152.249,79.667,152.957z"/>
<path fill="#BEBDBD" d="M77.987,145.997c0.046-0.194,0.241-0.239,0.24-0.48c-0.375,1.463,3.832,4.272,3.84,5.28
	c0.004,0.542-1.685,1.565-2.4,2.16c0.492-0.708,1.067-1.334,1.921-1.681C80.374,149.53,79.222,147.723,77.987,145.997z"/>
<path fill="#BEBDBD" d="M89.268,149.355c0.021-0.654-0.4-0.482,0-0.96c-0.528,0.272-0.797,0.803-1.44,0.96
	c0.55-0.49,0.907-1.173,1.92-1.199c-0.202,0.278-0.316,0.643-0.239,1.199C89.428,149.355,89.348,149.355,89.268,149.355z"/>
<path fill="#BEBDBD" d="M87.588,149.355c-0.834,0.928-2.176,1.345-3.12,2.16c0.264,1.336,0.979,2.221,1.919,2.88
	c1.629-0.611,2.019-2.461,2.64-4.08c-0.094,2.146-1.187,3.294-2.4,4.32c-1.299-0.461-1.93-1.59-2.399-2.88
	C84.838,150.448,86.463,150.15,87.588,149.355z"/>
<path fill="#BEBDBD" d="M89.027,150.315c-0.621,1.619-1.011,3.469-2.64,4.08c-0.94-0.659-1.656-1.544-1.919-2.88
	c0.943-0.815,2.287-1.232,3.119-2.16c0.08,0,0.16,0,0.24,0c0.644-0.157,0.913-0.688,1.44-0.96c-0.4,0.478,0.021,0.306,0,0.96
	C89.369,149.857,89.104,149.992,89.027,150.315z"/>
<path fill="#BEBDBD" d="M88.787,180.315c-1.22-0.088-2.018-0.374-2.64-0.479c-1.234-0.226-2.24-0.873-2.88-0.48
	c-0.16,0-0.32,0-0.48,0c-0.352-0.557-0.761,0.469-0.72-0.479c0.046-0.194,0.241-0.239,0.24-0.48
	c0.132-1.092-1.609-0.311-1.682-1.199c0.68-0.602,2.683,0.121,3.36-0.48c-0.054-0.187-0.007-0.474-0.24-0.48
	c0-0.079,0-0.159,0-0.239c0.072-0.472-0.324-0.477-0.479-0.721c1.534-0.334,1.712,0.688,2.88,0.721
	c0.33-0.308,0.417-1.436-0.24-1.44c0-0.08,0-0.16,0-0.24c-0.125-0.354-0.354-0.604-0.479-0.96c1.265-0.609,2.034,0.665,3.6,0.48
	c0.474-0.167-0.059-1.339,0.48-1.44c0.591,0.529,1.053,1.188,1.92,1.44c1.017-0.893,3.462,0.433,4.08-1.2
	c0.204,0.044,0.227-0.094,0.239-0.24c0.435,0.406,1.212-0.198,1.92-0.239c0.317,0.601-0.948,0.751-0.239,0.96
	c0,0.08,0,0.159,0,0.239c0.532,1.58,2.137-0.103,3.359,0c0.229,0.447-0.719,0.803,0,0.96c0.203,0.518,1.054,0.388,1.44,0.721
	c0.174,0.546,1.368,0.071,1.2,0.96c-0.703-0.063-0.737,0.542-1.44,0.479c-0.396,1.119,0.143,1.063,0.48,1.92
	c-0.729,0.15-2.067-0.307-2.4,0.24c-0.565-0.005-0.707,0.413-1.44,0.24c-0.418-0.019-0.747,0.054-0.96,0.24
	c-0.936-3.286-4.863-2.098-6.72-0.48c-0.08,0-0.16,0-0.24,0C89.854,178.982,89.279,179.608,88.787,180.315z"/>
<path fill="#BEBDBD" d="M80.867,147.436c-3.473-3.584-0.864-8.594,0-13.439c0.441-0.541,0.976-2.178,0.721-3.12
	c0-0.16,0-0.32,0-0.48c0.721,0,1.439,0,2.159,0c0.103,0.502-0.164,0.636-0.238,0.96c-0.555,0.647-0.087,2.315-0.24,3.36
	c0.476,0.473,0.151,1.371,0,1.92c-0.554,0.727-0.085,2.476-0.24,3.6c0.253,1.831,0.429,3.149-0.479,5.04
	C81.813,145.821,81.61,146.899,80.867,147.436z"/>
<path fill="#BEBDBD" d="M88.308,146.717c-0.381-1.205-0.897-2.316-0.48-3.36c1.005-0.595,1.04-2.16,1.681-3.12
	c0.269-1.217,0.245-1.401,0.72-2.159c0.602-0.679,0.719-1.842,0.96-2.881c-0.464-0.77,0.304-1.048,0.24-1.68c0.08,0,0.16,0,0.239,0
	c0.031-0.653,0.458-1.837,0.24-2.399c0-0.24,0-0.48,0-0.721c0.4,0,0.8,0,1.2,0c-0.621,2.789-0.811,4.64-1.44,7.2
	c-0.079,0-0.159,0-0.239,0c0.168,1.048-0.408,1.352-0.24,2.4c0.076,0.557-0.039,0.921-0.24,1.199
	C90.228,143.196,90.578,146.267,88.308,146.717z"/>
<path fill="#BEBDBD" d="M75.588,206.237c-2.986,0.626-6.416,2.048-9.601,1.68c-0.927-0.286-1.16-1.188-0.479-1.92
	c0.141-0.889-0.882-1.126-1.92-1.44c-0.473-0.888-0.321-2.398-1.439-2.64c0-0.08,0-0.16,0-0.24c-0.284-0.116-0.544-0.256-0.72-0.48
	c-0.282-0.636,0.46-1.413,0-1.44c0-0.08,0-0.16,0-0.24c-1.019-1.361,1.547-2.748,0-3.84c0-0.08,0-0.16,0-0.24
	c0.145-0.895,1.103-0.977,1.198-1.92c-0.103-0.457-0.517-0.603-0.479-1.2c0.27-0.051,0.373-0.267,0.479-0.479
	c-0.075-0.557,0.039-0.921,0.24-1.2c0.484-0.406,1.216-1.81,1.68-1.44c-0.09,1.59-0.639,2.721-0.479,4.56
	c-0.492,1.621,1.397,1.839,0.72,2.88c-0.346,0.134-0.585,0.375-0.72,0.72c-1.031,0.489-0.915,2.125-0.96,3.6
	c0.647,0.566,1.612-0.398,0.96-0.96c0-0.08,0-0.16,0-0.24c-0.014-2.887,4.505-0.805,4.8,0.48c0.282-0.038,0.683,0.042,0.72-0.24
	c0.489-0.724-0.09-2.038-0.72-2.4c-0.075-0.324-0.342-0.458-0.24-0.96c1.351-0.573,1.919,0.281,2.642,0.96
	c0.025,0.613,0.438,0.84,0.72,1.2c-0.113,0.632-0.188,0.808-0.72,1.44c-0.528,0.39,1.204,0.54,1.438,0.96
	c0.055,0.187,0.008,0.474,0.24,0.48c0.435,0.687-0.062,1.44,0,2.88c2.148-2.2-0.39-5.211-0.479-8.16
	c-0.02-0.617-1.118-0.343-0.48-0.96c0-0.08,0-0.16,0-0.24c0.746-0.516-1.287-2.7,0.24-3.6c-0.183-0.623-0.742-1.587-0.24-2.16
	c0.881-1.333-1.021-2.238-0.24-3.6c0.188-1.307-0.493-1.745-0.72-2.64c0.133,0,0.272-0.195,0-0.24c0.761-0.964,2.587-0.733,3.36,0
	c0.126,0.906,0.337,1.127-0.24,1.68c-0.211,0.771,0.622,0.498,0.72,0.96c0.129,1.089-0.481,1.438-0.72,2.16
	c-0.557,0.267,0.468,0.95,0.72,1.2c0,0.24,0,0.48,0,0.72c-0.125,0.355-0.354,0.605-0.479,0.96c-1.301,1.025,0.11,2.943,0.72,3.6
	c0,0.08,0,0.16,0,0.24c-0.586,0.534-1.154,1.086-1.2,2.16c1.113,1.017,1.509,2.572,0.721,4.32c0,0.4,0,0.8,0,1.2
	C74.35,203.054,77.34,204.579,75.588,206.237z"/>
<path fill="#222121" d="M113.027,130.396c-0.279,4.36-0.84,8.44-3.36,10.561c-0.813,0.067-1.378,0.382-2.399,0.239
	c-3.071,2.289-6.218,4.503-10.08,6c-2,2.561-4.68,4.44-7.68,6c-1.254,1.86-3.252,2.268-2.4,5.761c4.42,0.619,4.573,5.507,5.28,9.84
	c1.335,0.585,2.229,1.61,3.359,2.4c0.831-0.37,2.188-0.213,3.36-0.24c1.363,0.054,0.146,1.259,1.439,1.2
	c6.732-3.17,0.807-15.117,6.48-19.681c3.854-3.099,8.233-0.896,10.32,2.4c1.115,1.761,3.637,7.381,3.12,10.08
	c-0.775,4.051-9.88,4.188-12.721,2.64c-1.287,2.394-2.202,5.158-5.04,6c0.174,1.347,2.111,0.929,2.16,2.4
	c0.75,0.73-1.384,1.035-0.479,1.92c0.548,0.525,0.89,1.738,0.239,2.16c-2.572-0.513-5.251-0.253-6.96,0.479
	c-1.392,7.598,1.688,14.845-1.92,20.88c0.851,2.038,0.071,3.679-0.239,5.76c2.76,1.16,5.735,2.104,6.72,5.04
	c-1.128,2.059-4.23,0.006-6-0.24c-0.436,12.191-4.17,22.151-16.32,21.12c-7.934-0.673-11.487-7.844-11.28-17.04
	c-5.974,0.867-8.177-4.388-4.08-7.2c-0.729-0.945-0.797-1.67-0.479-2.88c-2.907-2.629-5.055-5.756-3.84-10.8
	c0.104-0.437,0.87-0.933,0.96-1.44c0.09-0.509-0.361-1.198-0.24-1.68c0.979-3.894,4.405-6.847,6.24-8.64
	c0.819,0.061,1.153,0.607,2.16,0.48c0.101-1.841,2.261-2.428,3.12-3.84c0.666-1.096,0.572-3.434,0.96-5.28
	c1.313-6.279,2.489-12.841,4.08-18c-0.603-1.479-2.058-2.104-2.4-3.84c-3.171,0.008-4.737-2.219-6.96-4.08
	c-1.369-1.147-3.614-2.142-5.521-3.36c-1.853-1.185-3.719-3.013-5.278-3.84c-0.862-0.456-2.096-0.358-2.88-0.96
	c-2.655-2.032-2.662-6.761-3.602-10.32c10.24,0,20.48,0,30.721,0c0,0.16,0,0.32,0,0.48c-0.472,0.809-0.693,1.865-0.721,3.12
	c-0.863,4.846-3.473,9.855,0,13.439c0.584,0.255,1.262-1.451,1.68-2.16c0.909-1.891,0.733-3.209,0.48-5.04
	c0.554-0.726,0.085-2.475,0.24-3.6c0.151-0.549,0.476-1.447,0-1.92c0.553-0.647,0.085-2.314,0.24-3.36
	c0.074-0.324,0.341-0.458,0.238-0.96c2.721,0,5.44,0,8.16,0c0,0.24,0,0.48,0,0.721c-0.364,0.596-0.463,1.456-0.479,2.399
	c0.063,0.632-0.704,0.91-0.24,1.68c-0.553,0.728-0.667,1.894-0.96,2.881c-0.475,0.758-0.452,0.942-0.72,2.159
	c-0.865,0.735-1.04,2.16-1.681,3.12c-0.417,1.044,0.1,2.155,0.48,3.36c1.83,0.067,2.67-2.928,2.64-5.521
	c0.202-0.278,0.316-0.643,0.24-1.199c0.08,0,0.16,0,0.24,0c-0.08-0.96,0.428-1.332,0.239-2.4c0.631-2.561,0.819-4.411,1.44-7.2
	C99.747,130.396,106.388,130.396,113.027,130.396z M65.987,207.917c3.185,0.368,6.613-1.054,9.601-1.68
	c1.936-1.174-0.284-3.25-0.961-4.08c0-0.4,0-0.8,0-1.2c1.243-1.4,0.578-3.556-0.479-4.56c0.053-0.907,0.754-1.166,0.96-1.92
	c0-0.08,0-0.16,0-0.24c0.262-0.644-1.846-2.073-0.72-3.6c0.125-0.355,0.354-0.605,0.479-0.96c0.521,0.041,0.108-0.851,0.24-1.2
	c-0.602,0.041-0.751-0.369-0.96-0.72c0.237-0.722,0.849-1.071,0.72-2.16c-0.098-0.462-0.931-0.189-0.72-0.96c0.08,0,0.16,0,0.24,0
	c2.262-2.351-3.675-3.606-3.36-1.439c0.226,0.895,0.906,1.333,0.72,2.64c-0.08,0-0.159,0-0.239,0c-0.675,1.524,0.712,1.86,0.479,3.6
	c-0.502,0.572,0.06,1.537,0.24,2.16c-0.08,0-0.16,0-0.24,0c-1.373,0.83,0.096,2.858,0,3.6c0,0.08,0,0.16,0,0.24
	c-0.324-0.076-0.458-0.342-0.96-0.24c0.033,0.447,0.158,0.802,0.479,0.96c0.067-0.567,0.643,0.275,0.962,0.24
	c0.09,2.949,2.628,5.96,0.479,8.16c-0.062-1.439,0.435-2.193,0-2.88c0.229-1.269-1.009-1.071-1.68-1.44
	c0.53-0.632,0.605-0.808,0.72-1.44c-0.28-0.36-0.693-0.587-0.72-1.2c0-0.32,0-0.64,0-0.96c-1.233-0.3-2.289-0.406-4.32,0
	c-0.229,1.19,1.517,0.403,1.92,0.96c0.63,0.362,1.209,1.677,0.72,2.4c-0.08,0-0.158,0-0.238,0c-0.914-1.221-5.104-3.661-5.28-0.24
	c0,0.08,0,0.16,0,0.24c0.144,0.624-0.097,0.863-0.72,0.72c-0.092-1.451,0.235-2.484,0.72-3.36c0.135-0.346,0.374-0.586,0.72-0.72
	c0.4,0,0.801,0,1.2,0c-0.831-0.769-1.688-1.512-1.92-2.88c-0.159-1.839,0.39-2.97,0.479-4.56c0.188-0.053,0.278-0.201,0.239-0.48
	c0.134-0.489,0.724-0.471,0.24-0.96c0.37-0.186,1.513-1.629,0.479-1.68c-0.103,0.36-0.285,1.69-1.439,1.68
	c0.486,1.847-1.198,1.522-1.2,2.88c-0.201,0.279-0.315,0.644-0.24,1.2c-1.192,0.177-0.495,1.297-0.238,1.92
	c-0.183,0.553-1.483,1.219-0.96,1.68c0,0.08,0,0.16,0,0.24c1.099,1.426-1.535,2.689,0,3.84c0,0.08,0,0.16,0,0.24
	c-0.537,0.104-0.099,1.183-0.24,1.68c0.354,0.125,0.604,0.355,0.96,0.48c1.118,0.241,0.968,1.751,1.438,2.64
	c1.039,0.314,2.062,0.552,1.92,1.44c-0.846,0.339-0.757,1.318-0.238,1.92C65.507,207.917,65.747,207.917,65.987,207.917z
	 M94.308,205.277c-0.87,0.41-2.055,0.506-3.36,0.48c0.473,0.887,2.105,0.615,3.36,0.72
	C94.164,206.049,95.011,205.479,94.308,205.277z M79.188,203.837c1.51,0.863,4.604,0.691,6.24,0.72
	c-1.204,2.688,2.832,0.665,3.84,1.44c-0.026-1.095-1.861-0.38-1.44-1.92c2.314-0.018,4.72,1.487,7.2-0.24
	c-0.756-1.396-2.466,0.092-3.6-0.24c-2.313-0.676-3.189-4.435-2.641-7.92c0.486-3.083,3.041-3.125,5.04-5.28
	c2.269-2.444,2.9-7.949,2.16-12c-4.396,0.004-6.521,2.278-7.92,5.28c0.279,0.441,1.273,0.166,0.96,1.2
	c-1.153,0.112-1.986-0.094-2.16-0.96c-0.313-1.433,0.757-1.483,0.721-2.641c-2.725-0.045-5.224-1.229-9.12,0
	c-0.277-1.508,0.512-2.104-0.48-3.359c2.188-1.422,1.916-3.834,5.04-4.32c-0.413-2.333,2.619-1.222,3.6-2.16
	c-0.389,0.172-0.389-1.132,0-0.96c2.662,0.547,4.873,0.902,7.681,1.681c0.604-2.004-2.788-1.983-3.84-3.12
	c-0.096-0.575,1.093,0.133,0.72-0.721c-0.98-2.697-0.364-6.264-2.4-7.68c-1.44-1.003-3.079-0.006-4.56-1.2
	c0.026-0.613,0.804-0.477,1.439-0.479c0.453-3.598-1.367-4.629-2.88-6.721c-1.095,0.569-2.637,1.95-4.08,2.881
	c-1.905,8.973-4.022,15.671-4.8,26.159c3.951,0.48,0.834,5.813,2.4,7.92c-0.233,1.047-0.832,1.728-1.2,2.64
	c1.724,0.499,0.726,3.251,0.24,4.32c2.013,0.878,0.734,3.444,0.479,5.28c0.954,1.058,2.654,2.338,1.682,4.56
	c0.403,0.285,2.866-0.044,3.358-0.24C80.415,205.009,78.977,205.247,79.188,203.837z M95.987,196.876c-2.213,0.589-4.138,0.72-6,1.2
	C89.422,204.914,96.956,202.579,95.987,196.876z M90.228,195.197c-0.08,0-0.16,0-0.24,0c0,0.48,0,0.96,0,1.44
	c1.071-0.106,0.357-0.506,0.72-1.2c0.35-0.851,0.853-1.548,2.16-1.44c0.7,0.34,1.069,1.011,0.96,2.16
	c1.019,0.058,1.7-0.221,2.4-0.48c0-0.64,0-1.28,0-1.92c0.075-1.355-1.027-1.534-1.44-2.4c-0.791,0.089-1.199,0.561-1.68,0.96
	c-0.08,0-0.16,0-0.24,0c-0.813,0.866-2.615,0.745-2.64,2.4C90.228,194.876,90.228,195.036,90.228,195.197z M70.308,194.477
	c-0.134-1.442-0.395-1.985,0.479-3.12c-1.282,0.936-3.218,3.033-5.28,1.68C65.4,196.149,68.852,195.683,70.308,194.477z
	 M65.268,192.557c0.658,0.398,1.106-0.354,1.92-0.24c-0.014-2.714,1.462-6.021,2.88-5.76c-0.629,1.452-1.736,2.424-1.44,4.8
	c0.979,0.178,0.827-0.773,1.92-0.48c0.021-2.566,0.769-4.085-0.72-6C66.973,186.389,65.335,189.554,65.268,192.557z M95.987,188.957
	c-0.263,0.537-0.396,1.202-0.72,1.68c0.354,0.125,0.604,0.355,0.96,0.48C96.078,190.465,96.532,189.212,95.987,188.957z
	 M88.787,180.315c0.08,0,0.16,0,0.24,0c0.539-0.581,1.235-1.005,1.68-1.68c0.08,0,0.16,0,0.24,0c2.059-1.421,5.854-2.199,6.96,0.72
	c0.004-0.396,0.666-0.134,0.72-0.479c0.733,0.173,0.875-0.245,1.44-0.24c1.169,0.11,2.812-0.251,3.6,0.24
	c-0.01-1.11-1.515-0.725-1.68-1.68c0.255-0.865,1.525-0.716,1.92-1.44c-0.553-0.247-0.773-0.826-1.68-0.72
	c-0.387-0.333-1.237-0.203-1.44-0.721c-0.255-0.895,0.9-0.38,0.721-1.199c-1.75-0.328-3.039,1.33-4.08,0.239c0-0.08,0-0.159,0-0.239
	c0.073-0.566,0.833-0.447,0.72-1.2c-0.838,0.122-1.813,0.107-2.4,0.479c-0.014,0.146-0.036,0.284-0.239,0.24
	c-1.243,0.786-2.545,1.046-3.601-0.24c-0.121,0.754,0.566,0.981-0.24,1.2c-1.28-0.238-1.461-1.578-2.88-1.68
	c0,0.429,0.646,1.396,0,1.68c-1.333-0.107-1.869-1.011-3.6-0.72c-0.424,0.451,0.299,1.11,0.72,1.439c0,0.08,0,0.16,0,0.24
	c0.138,0.146,0.563,1.139,0,1.2c-1.2-0.487-1.84-1.387-3.36-0.96c0.1,0.702,0.821,0.778,1.2,1.2c0,0.08,0,0.16,0,0.239
	c-0.809,1.111-3.912-0.071-4.318,1.44c1.258-0.058,2.21,0.189,2.88,0.72c0.001,0.241-0.194,0.286-0.24,0.48
	c-0.598,0.122-1.448-0.008-1.44,0.72c0.925-0.368,1.637,0.101,2.16-0.24c0.16,0,0.32,0,0.48,0c0.603,0.012,1.146,0.557,2.88,0.48
	C86.77,179.941,87.567,180.228,88.787,180.315z M104.867,169.997c-1.357,0.161-1.693,1.345-2.16,2.399
	c0.052,0.27,0.267,0.374,0.48,0.48C103.69,171.86,105.03,171.68,104.867,169.997z M77.987,145.997
	c-0.618,2.426-3.33,6.638-0.24,8.88c0.442-0.838,1.206-1.354,1.92-1.92c0.717-0.595,2.404-1.618,2.4-2.16
	c-0.008-1.008-4.215-3.817-3.84-5.28C78.229,145.758,78.033,145.803,77.987,145.997z M87.588,149.355
	c-1.125,0.795-2.75,1.092-3.36,2.4c0.47,1.29,1.101,2.419,2.399,2.88c1.214-1.026,2.307-2.174,2.4-4.32
	c0.076-0.324,0.342-0.458,0.24-0.96c0.08,0,0.16,0,0.24,0c-0.077-0.557,0.039-0.921,0.239-1.199
	c-1.013,0.026-1.371,0.709-1.92,1.199C87.747,149.355,87.667,149.355,87.588,149.355z"/>
<path fill="#222121" d="M84.468,203.356c0.485-1.709,1.233-3.198,1.199-4.8c-1.916-0.926-5.148-0.66-5.76-1.68
	c-0.821,1.544,0.556,4.825,1.92,5.76c1.034,0.366,1.698-0.304,2.4,0.48c-7.938,3.943-8.272-18.446,1.439-12.24
	C87.979,194.514,87.585,201.499,84.468,203.356z M81.827,193.757c1.884-0.124,2.268,1.253,2.16,3.12
	c0.691-0.029,1.571,0.131,1.92-0.24c0.081-1.28-0.298-2.101-0.479-3.12c-0.272-1.252-1.622-2.691-2.882-2.16
	c-0.078,0-0.158,0-0.238,0c-1.176-0.676-1.93,0.879-2.4,1.68c-0.094,0.817-1.261,3.062,0.48,2.88
	C81.15,195.479,80.857,193.986,81.827,193.757z"/>
<use xlink:href="#UK"  width="85.039" height="85.039" x="-42.52" y="-42.519" transform="matrix(0.2333 0 0 -0.2333 150.8008 242.0752)" overflow="visible"/>
<use xlink:href="#UK"  width="85.039" height="85.039" x="-42.52" y="-42.519" transform="matrix(0.2333 0 0 -0.2333 150.7998 15.8809)" overflow="visible"/>
<use xlink:href="#UK"  width="85.039" height="85.039" x="-42.52" y="-42.519" transform="matrix(0.2333 0 0 -0.2333 16.2979 242.0752)" overflow="visible"/>
<use xlink:href="#UK"  width="85.039" height="85.039" x="-42.52" y="-42.519" transform="matrix(0.2333 0 0 -0.2333 16.2979 15.8809)" overflow="visible"/>
<use xlink:href="#Rand"  width="156.49" height="248.039" x="5.377" y="-252.996" transform="matrix(1 0 0 -1 0.002 0.0029)" overflow="visible"/>
</svg>
