<?xml version="1.0" encoding="utf-8"?>
<!-- Generator: Adobe Illustrator 15.1.0, SVG Export Plug-In  -->
<!DOCTYPE svg PUBLIC "-//W3C//DTD SVG 1.1//EN" "http://www.w3.org/Graphics/SVG/1.1/DTD/svg11.dtd" [
	<!ENTITY ns_flows "http://ns.adobe.com/Flows/1.0/">
]>
<svg version="1.1"
	 xmlns="http://www.w3.org/2000/svg" xmlns:xlink="http://www.w3.org/1999/xlink" xmlns:a="http://ns.adobe.com/AdobeSVGViewerExtensions/3.0/"
	 x="0px" y="0px" width="167px" height="258px" viewBox="0.002 0.003 167 258" enable-background="new 0.002 0.003 167 258"
	 xml:space="preserve">
<defs>
	<symbol  id="ES" viewBox="-42.52 -42.52 85.039 85.04">
		<path fill="none" d="M0,42.52c-0.013,0-0.026-0.001-0.039-0.001h0.077C0.026,42.519,0.013,42.52,0,42.52z"/>
		<path fill="none" d="M-2.938-42.407C-1.966-42.474-0.989-42.52,0-42.52c0.988,0,1.966,0.046,2.938,0.112H-2.938z"/>
		<path fill="#C60B1E" d="M0.039,42.519h-0.077c-15.724-0.014-29.44-8.569-36.785-21.27h73.647
			C29.479,33.95,15.762,42.505,0.039,42.519z"/>
		<path fill="#C60B1E" d="M36.822-21.25h-73.645c6.89-11.912,19.385-20.167,33.885-21.157h5.875
			C17.437-41.417,29.933-33.162,36.822-21.25z"/>
		<path fill="#FFC400" d="M42.52,0c0,7.743-2.08,14.996-5.696,21.249h-73.647C-40.44,14.996-42.52,7.743-42.52,0
			c0-7.744,2.08-14.997,5.697-21.25h73.645C40.439-14.996,42.52-7.743,42.52,0z"/>
	</symbol>
	<symbol  id="Rand" viewBox="5.377 -252.996 156.49 248.039">
		<g id="weiß_2_">
		</g>
		<path fill="#FFFFFF" d="M159.867-242.076c0,4.92-4,8.92-8.92,8.92c-4.921,0-8.921-4-8.921-8.92s4-8.92,8.921-8.92
			C155.867-250.996,159.867-246.996,159.867-242.076z M159.867-15.887c0,4.92-4,8.93-8.92,8.93c-4.921,0-8.921-4.01-8.921-8.93
			c0-4.91,4-8.92,8.921-8.92C155.867-24.807,159.867-20.797,159.867-15.887z M19.387-4.957h123.9h4.569h3.091
			c6.02,0,10.92-4.9,10.92-10.93v-9.52v-208.09v-8.58c0-6.021-4.9-10.92-10.92-10.92h-9.471c-37.63,0-75.85,0-125.17,0
			c-6.029,0-10.92,4.898-10.92,10.92c-0.01,72.18-0.01,141.83-0.01,211.35v14.84c0,6.029,4.9,10.93,10.92,10.93H19.387z
			 M25.227-15.887c0,4.92-4.01,8.93-8.93,8.93c-4.91,0-8.92-4.01-8.92-8.93c0-4.91,4.01-8.92,8.92-8.92
			C21.217-24.807,25.227-20.797,25.227-15.887z M16.307-250.996c4.92,0,8.92,4,8.92,8.92s-4,8.92-8.92,8.92s-8.92-4-8.92-8.92
			S11.387-250.996,16.307-250.996z M27.227-15.887c0-6.02-4.9-10.92-10.93-10.92c-3.68,0-6.939,1.83-8.92,4.629
			c0-71.199,0-142.398,0-213.609c1.98,2.801,5.24,4.631,8.93,4.631c6.02,0,10.92-4.9,10.92-10.92c0-3.682-1.83-6.941-4.63-8.92
			c40.69,0,81.37,0,122.061,0c-2.801,1.979-4.631,5.238-4.631,8.92c0,6.02,4.9,10.92,10.921,10.92c3.68,0,6.939-1.83,8.92-4.621
			c0,71.201,0,142.4,0,213.6c-1.98-2.799-5.24-4.629-8.92-4.629c-6.021,0-10.921,4.9-10.921,10.92c0,3.689,1.83,6.949,4.631,8.93
			c-40.69,0-81.38,0-122.061,0C25.396-8.938,27.227-12.197,27.227-15.887z"/>
	</symbol>
</defs>
<g>
	<path fill="#9FB8A3" d="M167.244,240.945c0,9.354-7.653,17.008-17.008,17.008H17.008C7.653,257.953,0,250.3,0,240.945V17.008
		C0,7.653,7.653,0,17.008,0h133.229c9.354,0,17.008,7.653,17.008,17.008V240.945z"/>
</g>
<use xlink:href="#ES"  width="85.039" height="85.04" x="-42.52" y="-42.52" transform="matrix(0.2333 0 0 -0.2333 150.8008 242.0752)" overflow="visible"/>
<use xlink:href="#ES"  width="85.039" height="85.04" x="-42.52" y="-42.52" transform="matrix(0.2333 0 0 -0.2333 150.7998 15.8809)" overflow="visible"/>
<use xlink:href="#ES"  width="85.039" height="85.04" x="-42.52" y="-42.52" transform="matrix(0.2333 0 0 -0.2333 16.2979 242.0752)" overflow="visible"/>
<use xlink:href="#ES"  width="85.039" height="85.04" x="-42.52" y="-42.52" transform="matrix(0.2333 0 0 -0.2333 16.2979 15.8809)" overflow="visible"/>
<path fill="#C9482A" d="M75.033,32.542c0.587,1.363-0.778,1.419-1.2,2.4c5.815-3.223,7.418,7.27,0.96,6.24
	c3.135,4.265-4.552,7.964-6.479,4.32c-0.195,3.262-6.375,3.006-6.24-0.48c-0.095-1.055,1.293-0.627,1.44-1.44
	c-0.38-0.5-1.68-0.081-2.16-0.48c-1.586-3.446-0.313-7.929,3.12-8.88c1.055-0.095,0.626,1.293,1.439,1.44
	C65.473,31.225,72.68,30.523,75.033,32.542z M74.554,41.183c2.587-7.475-9.155-6.571-10.561-1.92
	c-0.199,3.159,0.927,4.993,3.36,5.521c-0.66-1.85-2.599-2.353-2.16-4.8c0.69-3.869,9.871-5.42,8.64-0.24
	c-0.203,0.854-0.837,1.222-2.16,1.68c0.42,2.34-1.764,2.076-2.64,3.12C71.73,45.91,72.448,41.92,74.554,41.183z M68.314,41.663
	c0.039-0.759-0.638-0.802-0.48-1.68c0.902-1.257,2.996-1.324,4.32-2.16C69.884,36.179,64.035,40.319,68.314,41.663z M69.754,41.183
	c1.093,0.229,1.512-1.009,0.96-1.68C69.887,39.539,69.271,40.579,69.754,41.183z"/>
<path fill="#1E1D1D" d="M69.033,44.542c0.876-1.044,3.062-0.78,2.64-3.12c1.323-0.458,1.957-0.826,2.16-1.68
	c1.231-5.18-7.949-3.628-8.64,0.24c-0.438,2.448,1.5,2.95,2.16,4.8c-2.434-0.527-3.56-2.361-3.36-5.521
	c1.405-4.651,13.147-5.555,10.561,1.92C72.448,41.92,71.73,45.91,69.033,44.542z"/>
<path fill="#1E1D1D" d="M72.154,37.822c-1.324,0.836-3.417,0.903-4.32,2.16c-0.157,0.878,0.52,0.92,0.48,1.68
	C64.035,40.319,69.884,36.179,72.154,37.822z"/>
<path fill="#1E1D1D" d="M70.714,39.502c0.552,0.671,0.133,1.909-0.96,1.68C69.271,40.579,69.887,39.539,70.714,39.502z"/>
<path fill="#1E1D1D" d="M80.794,53.183c-1.651,0.771-4.72-1.183-7.439-0.72c-1.351,0.23-2.023,1.9-3.12,0.72
	C72.711,49.215,77.584,50.857,80.794,53.183z"/>
<path fill="#9A5A2D" d="M95.434,58.942c-1.401,2.452-5.412,2.382-7.681,2.16C85.847,54.948,94.916,52.569,95.434,58.942z"/>
<path fill="#A1482A" d="M96.874,56.783c-0.923,1.128,2.338,2.201,0,2.64c0.71-1.172-0.779-1.196-0.96-2.16
	C95.972,56.839,96.327,56.715,96.874,56.783z"/>
<path fill="#1E1D1D" d="M80.073,70.941c1.468,0.612,1.847,2.313,3.36,2.88c1.974-0.025,2.468-1.53,3.6-2.399
	C86.343,76.238,80.487,75.161,80.073,70.941z"/>
<path fill="#1E1D1D" d="M89.914,75.981c0.891,0.87,1.474,2.048,2.16,3.12c-0.579,0.099-0.521-0.438-1.2-0.24
	c-1.353,3.218-2.835,6.596-6.24,6.48c-3.236-0.109-4.308-2.785-7.199-4.08c1.326-1.234,3.542-1.578,4.8-2.88
	c0.458,0.342,1.042,0.558,1.68,0.72c1.064,0.025,0.833-1.246,1.681-1.439c1.908,0.278,2.535,0.211,4.561-0.24
	C89.914,76.836,90.074,76.911,89.914,75.981z M84.154,80.302c-0.601-0.199-0.943-0.657-1.681-0.72
	c-0.787,0.333-1.616,0.624-1.92,1.439c3.042,1.081,6.761-0.125,8.399-2.399C86.271,78.274,85.919,79.409,84.154,80.302z
	 M80.554,81.981c1.373,3.676,8.459,2,7.92-1.439C86.873,82.217,83.442,82.964,80.554,81.981z"/>
<path fill="#A1482A" d="M88.954,78.623c-1.64,2.274-5.358,3.48-8.399,2.399c0.304-0.815,1.133-1.106,1.92-1.439
	c0.737,0.063,1.08,0.521,1.681,0.72C85.919,79.409,86.271,78.274,88.954,78.623z"/>
<path fill="#A1482A" d="M88.474,80.542c0.539,3.439-6.547,5.115-7.92,1.439C83.442,82.964,86.873,82.217,88.474,80.542z"/>
<path fill="#C9482A" d="M67.113,107.663c-0.153,0.549-0.476,1.447,0,1.92c1.503,0.017,1.259-0.222,2.64-0.24
	c-1.562,2.943,0.851,4.442,3.601,3.12c0.376,1.301,0.173,3.444,1.68,3.84c1.563,0.409,1.606-1.153,3.36-1.2
	c-0.245,3.103,3.081,3.021,4.56,1.44c1.441,0.56,1.957,2.043,3.84,2.159c0.888-0.232,1.087-1.152,1.2-2.159
	c1.719,0.1,2.737,1.582,4.319,0.479c-0.14-0.939,0.207-1.394,0.479-1.92c0.927,0.034,1.109,0.811,2.16,0.72
	c1.432-0.107,1.341-1.243,1.439-2.159c1.078-0.203,1.844-0.717,2.88-0.961c0.022-1.143-1.103-1.138-1.199-2.159
	c1.45,0.171,2.182-0.379,2.64-1.2c0.147-1.028-0.78-0.979-0.72-1.92c1.396-0.197,1.873,0.526,2.399,1.2
	c1.877-0.331,3.571-0.971,5.04,0.96c-0.06,0.981-1.249,0.83-1.92,1.199c-0.194,1.314,1.069,1.17,0.96,2.4
	c-1.311,0.291-2.386,0.815-3.12,1.68c-0.252,1.053,0.812,0.789,0.721,1.681c-0.985,0.215-1.666,0.733-2.4,1.199
	c-0.451,1.125,0.505,1.567,0,2.641c-1.947-0.108-2.629,1.052-4.079,1.439c-0.078-0.562-1.048-0.232-1.2-0.72
	c-0.886,0.235-1.234,1.005-1.681,1.68c-2.261-1.438-4.314,2.038-6.479,0c-1.05,0.856-3.25,1.908-4.561,0.48
	c-0.802,0.158-1.174,0.746-1.92,0.96c-1.005-0.195-1.603-0.798-2.399-1.2c-1.613,1.654-3.077,0.205-5.521,0.24c0-0.32,0-0.64,0-0.96
	c-2.11-0.449-1.735-3.384-4.319-3.36c-0.002-0.638,0.091-1.37-0.24-1.68c-1.357,0.188-1.439,0.448-2.641,0.479
	c-0.646-0.717,0.997-0.6,0.48-1.92c-0.685-0.96-1.944,0.34-2.88-0.72c-0.206-0.766,0.378-0.742,0.479-1.2
	c-1.505-0.574-1.249-2.911-2.64-3.6c-0.037-0.678,0.679-0.602,0.96-0.96c-0.034-0.766-0.887-0.713-0.96-1.44
	c1.232-0.192,1.823,0.258,2.64,0.48C65.326,107.544,65.754,107.297,67.113,107.663z M71.435,117.022c-2.095-2.466-4.66-4.46-6-7.68
	c-0.598-0.026-0.743-0.45-1.2,0c1.097,4.023,4.581,5.659,6.72,8.64c0.877,0.158,0.92-0.52,1.68-0.479
	c0.486,1.461,0.983,3.55,3.12,2.64c1.063,2.155,3.103,1.056,5.04,1.68c0.115-0.755-0.342-0.938-0.479-1.439
	c-1.28-0.24-1.67,0.409-2.4,0.72c-0.487-0.632-0.825-1.415-1.2-2.16c-2.292,0.692-2.757-0.411-3.359-1.92
	C72.714,117.022,72.073,117.022,71.435,117.022z M103.354,110.781c0.076-0.324,0.342-0.458,0.239-0.96c-0.319,0-0.64,0-0.959,0
	C102.566,110.45,102.722,110.854,103.354,110.781z M101.193,113.183c1.01,0.608,1.15-0.441,2.16-0.48
	c-0.106-0.453,0.327-1.446-0.479-1.199C102.188,111.937,101.05,111.918,101.193,113.183z M99.034,118.462
	c-0.225-1.185,0.256-1.664,1.439-1.44c0.672-1.021,0.178-1.729,0.72-2.88c-0.239,0-0.479,0-0.72,0
	C100.848,116.188,96.816,116.881,99.034,118.462z M94.474,119.901c1.083-0.65,1.772-0.233,3.359-0.24
	c0.217-0.424,0.579-0.7,0.721-1.199C97.247,118.529,94.412,117.527,94.474,119.901z M92.794,120.382c0.32,0,0.641,0,0.96,0
	C94.065,119.151,92.579,119.266,92.794,120.382z M88.233,121.103c-0.52-0.201-0.818-0.621-1.68-0.479
	c-0.164,0.636-1.331,0.269-1.2,1.199c1.547-0.311,1.574,0.188,2.88,0.48c0.928-1.073,2.166-1.099,3.601-1.2
	C91.492,118.877,89.063,120.44,88.233,121.103z M81.514,121.103c-0.072,0.633,0.333,0.788,0.96,0.72c0-0.319,0-0.64,0-0.96
	C82.056,120.844,81.728,120.916,81.514,121.103z M83.914,121.821c0.075-0.324,0.342-0.458,0.24-0.96c-0.24,0-0.479,0-0.72,0
	C83.366,121.409,83.491,121.765,83.914,121.821z"/>
<path fill="#1E1D1D" d="M73.354,117.022c0.603,1.509,1.067,2.612,3.359,1.92c0.375,0.745,0.713,1.528,1.2,2.16
	c0.729-0.311,1.12-0.96,2.4-0.72c0.138,0.502,0.595,0.685,0.479,1.439c-1.938-0.624-3.978,0.476-5.04-1.68
	c-2.137,0.91-2.634-1.179-3.12-2.64c-0.759-0.04-0.802,0.638-1.68,0.479c-2.139-2.98-5.624-4.616-6.72-8.64
	c0.457-0.45,0.603-0.026,1.2,0c1.34,3.22,3.905,5.214,6,7.68C72.073,117.022,72.714,117.022,73.354,117.022z"/>
<path fill="#1E1D1D" d="M102.634,109.821c0.319,0,0.64,0,0.959,0c0.103,0.502-0.163,0.636-0.239,0.96
	C102.722,110.854,102.566,110.45,102.634,109.821z"/>
<path fill="#C9482A" d="M117.754,126.143c-22.561,0-45.12,0-67.68,0c0.361-5.957,3.816-18.774,12-14.64
	c-0.352,1.509,1.592,2.105,0.96,3.84c1.302,1.25,2.254,1.886,2.88,3.6c5.268-1.227,7.083,8.904,13.2,5.28
	c0.699,0.123,1.225,0.865,2.16,0.96c0.772,0.078,0.965-0.627,1.92-0.72c2.045-0.199,4.072,1.886,4.8-0.721
	c2.176,2.32,4.315-1.354,6.96,0c0.917,0.038,0.779-0.979,1.2-1.439c2.273,1.627,4.147-1.213,6.72-1.44c0-0.88,0-1.76,0-2.64
	c0.64-0.722,2.391-0.33,2.641-1.44c0.153-1.033-0.982-0.777-0.721-1.92c1.134-0.307,2.484-0.396,2.881-1.439
	c0.345-1.305-0.755-1.167-0.721-2.16c2.096-1.913,5.173,0.061,6.479,1.92C115.675,116.372,117.303,122.483,117.754,126.143z"/>
<path fill="#1E1D1D" d="M102.874,111.502c0.808-0.247,0.373,0.746,0.479,1.199c-1.011,0.039-1.15,1.089-2.16,0.48
	C101.05,111.918,102.188,111.937,102.874,111.502z"/>
<path fill="#1E1D1D" d="M100.474,114.143c0.239,0,0.479,0,0.72,0c-0.542,1.15-0.048,1.859-0.72,2.88
	c-1.185-0.224-1.664,0.256-1.439,1.44C96.816,116.881,100.848,116.188,100.474,114.143z"/>
<path fill="#1E1D1D" d="M98.554,118.462c-0.142,0.499-0.504,0.775-0.721,1.199c-1.587,0.007-2.276-0.41-3.359,0.24
	C94.412,117.527,97.247,118.529,98.554,118.462z"/>
<path fill="#1E1D1D" d="M93.754,120.382c-0.319,0-0.64,0-0.96,0C92.579,119.266,94.065,119.151,93.754,120.382z"/>
<path fill="#1E1D1D" d="M91.834,121.103c-1.435,0.102-2.673,0.127-3.601,1.2c-1.306-0.293-1.333-0.791-2.88-0.48
	c-0.131-0.931,1.036-0.563,1.2-1.199c0.86-0.142,1.16,0.278,1.68,0.479C89.063,120.44,91.492,118.877,91.834,121.103z"/>
<path fill="#1E1D1D" d="M82.474,120.861c0,0.32,0,0.641,0,0.96c-0.627,0.068-1.032-0.087-0.96-0.72
	C81.728,120.916,82.056,120.844,82.474,120.861z"/>
<path fill="#1E1D1D" d="M83.435,120.861c0.24,0,0.479,0,0.72,0c0.102,0.502-0.165,0.636-0.24,0.96
	C83.491,121.765,83.366,121.409,83.435,120.861z"/>
<path fill="#B6B5B4" d="M105.754,91.103c0.034,0.755-0.614,0.824-1.199,0.96c0-0.08,0-0.16,0-0.24c0.029-0.43-0.294-0.506-0.24-0.96
	C104.488,90.666,105.975,90.218,105.754,91.103z"/>
<path fill="#918045" d="M78.154,65.183c0.539-0.741,1.179-1.381,1.92-1.92C79.562,64.029,78.994,64.744,78.154,65.183z"/>
<path fill="#B6B5B4" d="M76.474,63.502c2.52,0.727,2.568-1.914,3.359-2.16c1.161,0.095-0.056,1.176,0.24,1.92
	c-0.741,0.539-1.381,1.179-1.92,1.92c-3.177,0.971-6.449-0.088-6.24-3.84c0.477,0.48,2.971-0.659,3.12,0.24
	C75.175,62.562,75.645,63.211,76.474,63.502z"/>
<path fill="#918045" d="M75.033,61.583c0.315,0.806,0.994,1.246,1.44,1.92C75.645,63.211,75.175,62.562,75.033,61.583z"/>
<path fill="#918045" d="M95.193,62.063c-1.958-0.519-2.077,0.803-2.88,1.44c0.338-0.462,0.635-0.966,0.721-1.68
	C93.686,61.97,94.938,61.518,95.193,62.063z"/>
<path fill="#B6B5B4" d="M95.193,62.063c0.468,3.95-7.728,5.023-7.439-0.24c1.514,0.652,2.563,3.636,4.561,1.68
	C93.116,62.864,93.235,61.543,95.193,62.063z"/>
<path fill="#918045" d="M72.634,81.022c-2.675,6.242-12.102,3.047-10.561-4.319c0.434-2.074,2.373-3.252,4.08-4.561
	c0.315-0.288,0.377-0.094,0.72,0c1.966,1.798-2.407,2.833-3.12,4.8c-1.113,3.075,0.73,5.937,3.36,6.24
	C69.905,83.504,70.693,81.588,72.634,81.022z"/>
<path fill="#918045" d="M93.514,81.502c1.939,0.951,4.021,2.845,6.72,1.439c3.744-1.948,1.047-7.74-1.68-9.6
	c5.626-0.024,6.999,11.484-0.479,11.52C96.296,84.871,92.843,83.662,93.514,81.502z"/>
<path fill="#1E1D1D" d="M76.234,54.382c1.14,0.581-0.522,0.802-0.72,0.96c-1.094,0.87-2.786,2.245-3.12,3.84
	c1.9-0.545,4.229,2.547,7.68,1.2c0.285-1.9-0.497-4.554-2.16-5.28c4.432-0.627,5.579,12.206-2.399,11.52
	c-2.633-0.226-4.107-2.132-4.561-5.04c-0.523-1.156-2.65-0.708-2.64-2.4c0.657-0.422,1.339,0.79,2.399,0.72
	c0.231-0.64-1.688-1.185-1.68-2.4c1.134-0.014,1.318,0.922,2.16,1.2C72.423,56.813,73.738,55.007,76.234,54.382z M75.033,61.583
	c-0.149-0.899-2.644,0.241-3.12-0.24c-0.209,3.751,3.063,4.811,6.24,3.84c0.841-0.439,1.407-1.153,1.92-1.92
	c-0.295-0.744,0.921-1.825-0.24-1.92c-0.792,0.246-0.841,2.887-3.359,2.16C76.028,62.829,75.349,62.387,75.033,61.583z"/>
<path fill="#1E1D1D" d="M50.073,126.143c-1.563-4.397,1.928-13.699,5.521-15.36c-0.989-1.476-3.845-2.146-3.36-4.319
	c3.021-0.259,6.104-0.455,6.96-2.88c-0.698-0.535-1.693,0.299-2.64-0.24c-0.206-0.755-0.907-1.013-0.96-1.92
	c-2.301,0.534-4.548-0.613-4.561-3.12c-2.645-0.102-3.708-3.594-2.16-5.76c-0.782-0.417-1.479-0.922-1.92-1.681
	c0.068-3.204,1.804-4.944-0.479-6.96c0.345-1.255,0.736-2.462,1.439-3.359c-3.722-3.269-1.62-7.977,1.681-10.32
	c-0.691-1.372-1.529-3.467,0-4.56c-4.321-1.966-3.321-9.339,0.96-10.8c-0.032-1.167-1.009-1.392-1.2-2.4
	c0.332-1.748,1.464-2.696,2.399-3.84c-1.294-4.638,2.73-9.553,7.92-9.12c-0.231-3.558,2.724-4.648,5.28-6
	c2.374-1.256,4.842-3.752,8.641-2.88c0.937-2.732,4.329-4.788,7.92-3.36c1.28-0.958,2.359-2.12,4.319-2.4
	c0.803,0.398,1.599,0.802,2.399,1.2c2.651-1.824,5.319-0.284,6.721,1.68c4.341-0.978,7.238,1.124,8.16,4.32
	c3.892-1.496,6.815,1.871,5.039,5.28c0.572,1.508,1.963,2.198,2.4,3.84c-0.08,0.96-0.993,1.087-0.96,2.16
	c1.599,1.239,3.938,2.784,2.64,5.52c2.628,1.076,6.272,4.402,3.36,7.44c0.42,1.18,1.434,1.767,1.92,2.88
	c-0.581,1.179-1.187,2.334-2.16,3.12c1.523,2.917-0.902,4.659-2.88,5.52c1.109,1.145,3.165,4.864-0.721,5.28
	c0.483,2.103-0.084,3.898-2.64,3.601c0.572,2.268-1.705,3.289-2.4,5.04c0.049,0.751,0.619,0.98,0.96,1.439
	c1.298,0.337,1.271-0.648,2.16-0.72c0.194,2.572-1.847,4.831-4.8,5.04c-0.177,1.536,1.932,0.788,1.92,2.16
	c-0.178,0.383-1.175-0.056-0.96,0.72c-0.875,0.074-1.563-0.038-2.16-0.24c-0.384,0.454,0.215,1.382,0.721,1.68c0,0.08,0,0.16,0,0.24
	c0.585-0.136,1.233-0.205,1.199-0.96c0.233-0.007,0.188-0.294,0.24-0.479c2.614-1.98,5.039,2.549,2.64,4.08
	c1.155,1.21-0.155,3.406,1.44,4.079c2.228,0.228,1.825-2.174,3.359-2.64c2.039,3.998-1.443,7.739-5.521,7.92
	c0.357,2.337,4.887,1.929,5.279-0.24c1.673,2.548-1.493,4.213-2.641,5.521c4.644,3.438,7.483,9.957,7.921,16.8
	c-0.24,0-0.479,0-0.721,0c-0.45-3.658-2.078-9.771-4.319-12.96c-1.308-1.859-4.386-3.833-6.479-1.92
	c-0.034,0.993,1.064,0.855,0.72,2.16c-0.396,1.044-1.746,1.133-2.88,1.439c-0.263,1.143,0.874,0.887,0.721,1.92
	c-0.25,1.11-2.001,0.719-2.641,1.44c0,0.88,0,1.76,0,2.64c-2.571,0.228-4.446,3.067-6.72,1.44c-0.421,0.46-0.283,1.479-1.2,1.439
	c-2.645-1.354-4.784,2.32-6.96,0c-0.729,2.606-2.755,0.521-4.8,0.721c-0.955,0.093-1.146,0.798-1.92,0.72
	c-0.936-0.095-1.461-0.837-2.16-0.96c-6.117,3.624-7.933-6.507-13.2-5.28c-0.626-1.714-1.578-2.35-2.88-3.6
	c0.632-1.734-1.312-2.331-0.96-3.84C53.891,107.368,50.435,120.186,50.073,126.143z M65.914,35.663
	c-0.813-0.146-0.385-1.535-1.439-1.44c-3.434,0.951-4.706,5.434-3.12,8.88c0.48,0.399,1.779-0.02,2.16,0.48
	c-0.146,0.813-1.535,0.385-1.44,1.44c-0.135,3.486,6.045,3.742,6.24,0.48c1.928,3.644,9.614-0.056,6.479-4.32
	c6.458,1.03,4.855-9.463-0.96-6.24c0.421-0.98,1.787-1.037,1.2-2.4C72.68,30.523,65.473,31.225,65.914,35.663z M70.714,47.902
	c0.056,1.415-0.604,2.116-1.439,2.64c-0.001,0.8,0.781,0.819,0.72,1.68c-0.323,0.876-0.878,1.521-1.68,1.92
	c0.772,0.427,0.792,1.608,0.72,2.88c-1.412,0.028-1.451,1.429-1.92,2.4c0.177,0.543,0.915,0.525,0.96,1.2
	c-0.419,0.221-0.529,0.75-0.479,1.44c0.484,0.475,1.029,0.89,1.439,1.44c-0.166,1.654-0.563,2.992,1.2,3.12
	c-1.14,0.86-1.286,2.714-2.88,3.12c-0.714-0.085-1.218-0.382-1.68-0.72c-0.105,0.825,0.095,1.345,0.239,1.92
	c2.358-0.3,3.406,2.413,1.92,3.84c0.292,0.668,1.475,0.446,2.4,0.48c0.228-1.438-0.659-1.929,0.24-2.4
	c3.021,6.658,5.097,14.263,10.56,18.48c0.919,0.201,1.801,0.439,1.92,1.439c-0.779,0.14-1.116-0.163-1.68-0.239
	c-0.51,4.718,0.182,9.153-1.68,12.479c-0.709-0.347-0.207-0.536-0.48-1.439c-2.821,1.658-5.821,3.139-9.12,4.319
	c1.071,0.889,1.566,2.345,0.48,3.601c2.975-0.53,4.744,0.208,4.8,3.6c1.813,0.135,1.89-1.47,4.08-0.96
	c0.334,0.946,0.259,2.301,1.2,2.64c2.365-2.205,4.194-0.229,6.479,0.721c-0.04-0.84,0.063-1.537,0.479-1.92
	c1.582-0.939,2.337,0.803,3.84,0.72c0.061-2.355,2.188-2.419,3.84-1.44c0.359-0.681,0.501-1.579,0.721-2.399
	c0.757,0.117,0.849-0.433,1.681-0.24c0.066-1.027-0.733-1.187-0.479-2.4c0.545-0.414,1.341-0.579,2.399-0.479
	c-3.071-2.529-7.468-3.733-10.801-6c0.039,0.784,0.557,1.552-0.479,1.68c-0.919-3.311-1.667-7.195-1.439-12.24
	c-0.367-0.381-2.468,0.461-3.12-0.239c8.336-1.772,8.795-13.426,12-21.12c0.68,0.971-0.148,2.506,0.24,3.359
	c0.563,0.077,0.9,0.38,1.681,0.24c0.531-0.842-0.18-1.444,0.239-2.399c0.435-0.446,1.212-0.549,1.92-0.721
	c0.315-0.993,0.637-1.756,0.24-2.88c-0.545-0.415-2.013,0.093-2.16-0.72c-0.504-2.277-0.636-5.271-0.479-6.72
	c-2.308,1.429-2.591,5.892-7.199,4.8c-3.948-0.936-4.347-6.62-2.641-10.08c0.775-1.574,3.438-2.132,5.04-1.92
	c0.699,0.093,2.026,1.49,2.64,0.24c-2.323-2.094-6.772-1.139-9.119-0.48c0.895-1.761,3.662-2.331,5.04-2.88
	c-0.958-1.133-2.046-1.927-3.601-1.2c-0.184-0.697-1.139-0.623-0.96-1.68c-0.994,0.046-0.813,1.268-1.681,1.44
	c-1.087-0.354-0.791-2.089-1.68-2.64c-0.187,1.547,0.354,2.366,0.479,3.6c-3.123,0.979-5.311-1.862-4.56-4.8
	C75.81,44.154,74.803,48.422,70.714,47.902z M87.754,61.103c2.269,0.223,6.278,0.292,7.681-2.16
	C94.916,52.569,85.847,54.948,87.754,61.103z M95.914,57.262c0.181,0.964,1.67,0.988,0.96,2.16c2.338-0.439-0.923-1.512,0-2.64
	C96.327,56.715,95.972,56.839,95.914,57.262z M92.313,63.502c-1.996,1.956-3.047-1.028-4.561-1.68
	c-0.287,5.263,7.907,4.19,7.439,0.24c-0.255-0.544-1.508-0.091-2.159-0.24C92.948,62.537,92.651,63.041,92.313,63.502z
	 M67.113,83.183c-2.63-0.304-4.474-3.165-3.36-6.24c0.713-1.967,5.086-3.002,3.12-4.8c-0.343-0.094-0.404-0.288-0.72,0
	c-1.708,1.309-3.646,2.486-4.08,4.561c-1.541,7.366,7.886,10.562,10.561,4.319C70.693,81.588,69.905,83.504,67.113,83.183z
	 M98.074,84.861c7.479-0.035,6.105-11.544,0.479-11.52c2.727,1.859,5.424,7.651,1.68,9.6c-2.699,1.405-4.779-0.488-6.72-1.439
	C92.843,83.662,96.296,84.871,98.074,84.861z M64.714,108.382c-0.816-0.223-1.407-0.673-2.64-0.48
	c0.073,0.728,0.926,0.675,0.96,1.44c-0.281,0.358-0.997,0.282-0.96,0.96c1.392,0.688,1.135,3.025,2.64,3.6
	c-0.102,0.458-0.686,0.435-0.479,1.2c0.936,1.06,2.195-0.24,2.88,0.72c0.517,1.32-1.127,1.203-0.48,1.92
	c1.201-0.031,1.283-0.292,2.641-0.479c0.331,0.31,0.237,1.042,0.24,1.68c2.584-0.023,2.209,2.911,4.319,3.36c0,0.32,0,0.64,0,0.96
	c2.443-0.035,3.907,1.414,5.521-0.24c0.797,0.402,1.395,1.005,2.399,1.2c0.746-0.214,1.118-0.802,1.921-0.96
	c1.31,1.428,3.51,0.376,4.56-0.479c2.165,2.038,4.22-1.438,6.479,0c0.445-0.675,0.795-1.444,1.681-1.68
	c0.152,0.487,1.122,0.158,1.2,0.72c1.45-0.388,2.132-1.548,4.08-1.439c0.504-1.073-0.452-1.516,0-2.641
	c0.733-0.466,1.414-0.984,2.399-1.199c0.091-0.892-0.973-0.628-0.721-1.681c0.734-0.864,1.811-1.389,3.12-1.68
	c0.109-1.23-1.154-1.086-0.96-2.4c0.671-0.369,1.86-0.218,1.92-1.199c-1.468-1.931-3.163-1.291-5.04-0.96
	c-0.526-0.674-1.003-1.397-2.399-1.2c-0.062,0.941,0.867,0.892,0.72,1.92c-0.458,0.821-1.188,1.371-2.64,1.2
	c0.098,1.021,1.223,1.017,1.199,2.159c-1.036,0.244-1.802,0.758-2.88,0.961c-0.1,0.916-0.01,2.052-1.439,2.159
	c-1.051,0.091-1.233-0.686-2.16-0.72c-0.272,0.526-0.619,0.98-0.479,1.92c-1.582,1.103-2.602-0.38-4.319-0.479
	c-0.113,1.007-0.313,1.927-1.2,2.159c-1.884-0.116-2.398-1.6-3.84-2.159c-1.479,1.58-4.805,1.662-4.56-1.44
	c-1.754,0.047-1.797,1.609-3.36,1.2c-1.506-0.396-1.303-2.539-1.68-3.84c-2.75,1.322-5.162-0.177-3.601-3.12
	c-1.381,0.019-1.137,0.257-2.64,0.24c-0.476-0.473-0.153-1.371,0-1.92C65.754,107.297,65.326,107.544,64.714,108.382z"/>
<path fill="#918045" d="M105.754,91.103c0.222-0.884-1.266-0.437-1.439-0.24c-0.054,0.454,0.271,0.53,0.24,0.96
	c-0.505-0.298-1.104-1.226-0.721-1.68c0.599,0.202,1.285,0.314,2.16,0.24c0,0.08,0,0.16,0,0.24
	C105.94,90.809,105.987,91.095,105.754,91.103z"/>
<path fill="#9A5A2D" d="M79.113,45.982c-0.751,2.938,1.437,5.779,4.56,4.8c-0.125-1.234-0.667-2.053-0.479-3.6
	c0.889,0.551,0.593,2.287,1.68,2.64c0.867-0.172,0.687-1.394,1.681-1.44c-0.179,1.058,0.776,0.983,0.96,1.68
	c1.555-0.728,2.643,0.067,3.601,1.2c-1.378,0.549-4.146,1.119-5.04,2.88c2.347-0.659,6.796-1.614,9.119,0.48
	c-0.612,1.25-1.939-0.147-2.64-0.24c-1.604-0.212-4.265,0.346-5.04,1.92c-1.706,3.46-1.309,9.145,2.641,10.08
	c4.608,1.092,4.893-3.371,7.199-4.8c-0.155,1.45-0.023,4.443,0.479,6.72c0.147,0.813,1.615,0.305,2.16,0.72
	c0.396,1.124,0.075,1.887-0.24,2.88c-0.708,0.172-1.485,0.274-1.92,0.721c-0.419,0.955,0.292,1.558-0.239,2.399
	c-0.779,0.14-1.116-0.163-1.681-0.24c-0.39-0.854,0.438-2.389-0.24-3.359c-3.205,7.694-3.664,19.348-12,21.12
	c0.652,0.7,2.752-0.142,3.12,0.239c-0.228,5.045,0.521,8.93,1.439,12.24c1.036-0.128,0.52-0.896,0.479-1.68
	c3.333,2.267,7.729,3.471,10.801,6c-1.06-0.1-1.854,0.065-2.399,0.479c-0.254,1.214,0.547,1.373,0.479,2.4
	c-0.832-0.192-0.924,0.357-1.681,0.24c-0.22,0.82-0.36,1.719-0.721,2.399c-1.65-0.979-3.779-0.915-3.84,1.44
	c-1.503,0.083-2.258-1.659-3.84-0.72c-0.416,0.383-0.521,1.08-0.479,1.92c-2.285-0.95-4.114-2.926-6.479-0.721
	c-0.941-0.339-0.866-1.693-1.2-2.64c-2.19-0.51-2.267,1.095-4.08,0.96c-0.057-3.392-1.825-4.13-4.8-3.6
	c1.085-1.256,0.59-2.712-0.48-3.601c3.299-1.181,6.299-2.661,9.12-4.319c0.273,0.903-0.229,1.093,0.48,1.439
	c1.861-3.326,1.17-7.762,1.68-12.479c0.563,0.076,0.9,0.379,1.68,0.239c-0.119-1-1.001-1.238-1.92-1.439
	c-5.462-4.218-7.538-11.822-10.56-18.48c-0.899,0.472-0.013,0.962-0.24,2.4c-0.926-0.034-2.107,0.188-2.4-0.48
	c1.486-1.427,0.438-4.14-1.92-3.84c-0.146-0.575-0.345-1.095-0.24-1.92c0.462,0.338,0.967,0.635,1.681,0.72
	c1.594-0.406,1.74-2.26,2.88-3.12c-1.763-0.128-1.366-1.466-1.2-3.12c-0.41-0.55-0.955-0.965-1.439-1.44
	c-0.05-0.689,0.061-1.219,0.479-1.44c-0.045-0.675-0.783-0.657-0.96-1.2c0.469-0.971,0.508-2.372,1.92-2.4
	c0.072-1.272,0.053-2.453-0.72-2.88c0.801-0.398,1.355-1.043,1.68-1.92c0.062-0.861-0.721-0.879-0.72-1.68
	c0.836-0.524,1.495-1.226,1.439-2.64C74.803,48.422,75.81,44.154,79.113,45.982z M70.234,53.183c1.097,1.181,1.771-0.49,3.12-0.72
	c2.72-0.463,5.788,1.491,7.439,0.72C77.584,50.857,72.711,49.215,70.234,53.183z M71.194,58.703c-0.842-0.278-1.026-1.213-2.16-1.2
	c-0.008,1.215,1.912,1.76,1.68,2.4c-1.061,0.07-1.742-1.143-2.399-0.72c-0.011,1.691,2.116,1.244,2.64,2.4
	c0.453,2.908,1.927,4.814,4.561,5.04c7.979,0.686,6.832-12.147,2.399-11.52c1.663,0.726,2.445,3.38,2.16,5.28
	c-3.45,1.347-5.779-1.745-7.68-1.2c0.334-1.595,2.025-2.97,3.12-3.84c0.197-0.158,1.859-0.379,0.72-0.96
	C73.738,55.007,72.423,56.813,71.194,58.703z M87.034,71.422c-1.132,0.869-1.626,2.374-3.6,2.399
	c-1.515-0.566-1.894-2.268-3.36-2.88C80.487,75.161,86.343,76.238,87.034,71.422z M90.154,77.422
	c-2.024,0.451-2.651,0.519-4.561,0.24c-0.848,0.193-0.615,1.465-1.681,1.439c-0.638-0.162-1.222-0.378-1.68-0.72
	c-1.258,1.302-3.475,1.646-4.8,2.88c2.892,1.295,3.963,3.971,7.2,4.08c3.404,0.115,4.888-3.263,6.239-6.48
	c0.679-0.198,0.621,0.339,1.2,0.24c-0.688-1.072-1.271-2.25-2.16-3.12C90.074,76.911,89.914,76.836,90.154,77.422z"/>
<path fill="#C9482A" d="M92.211,225.416c-0.587-1.363,0.778-1.419,1.2-2.4c-5.815,3.223-7.418-7.27-0.96-6.24
	c-3.135-4.265,4.552-7.964,6.479-4.32c0.195-3.262,6.375-3.006,6.24,0.48c0.095,1.055-1.293,0.627-1.44,1.44
	c0.38,0.5,1.68,0.081,2.16,0.48c1.586,3.446,0.313,7.929-3.12,8.88c-1.055,0.095-0.626-1.293-1.439-1.44
	C101.771,226.734,94.564,227.435,92.211,225.416z M92.69,216.776c-2.587,7.475,9.155,6.571,10.561,1.92
	c0.199-3.159-0.927-4.993-3.36-5.521c0.66,1.85,2.599,2.353,2.16,4.8c-0.69,3.869-9.871,5.42-8.64,0.24
	c0.203-0.854,0.837-1.222,2.16-1.68c-0.42-2.34,1.764-2.076,2.64-3.12C95.514,212.049,94.796,216.038,92.69,216.776z M98.93,216.296
	c-0.039,0.759,0.638,0.802,0.48,1.68c-0.902,1.257-2.996,1.324-4.32,2.16C97.36,221.779,103.209,217.639,98.93,216.296z
	 M97.49,216.776c-1.093-0.229-1.512,1.009-0.96,1.68C97.357,218.42,97.974,217.38,97.49,216.776z"/>
<path fill="#1E1D1D" d="M98.211,213.416c-0.876,1.044-3.062,0.78-2.64,3.12c-1.323,0.458-1.957,0.826-2.16,1.68
	c-1.231,5.18,7.949,3.628,8.64-0.24c0.438-2.448-1.5-2.95-2.16-4.8c2.434,0.527,3.56,2.361,3.36,5.521
	c-1.405,4.651-13.147,5.555-10.561-1.92C94.796,216.038,95.514,212.049,98.211,213.416z"/>
<path fill="#1E1D1D" d="M95.09,220.136c1.324-0.836,3.417-0.903,4.32-2.16c0.157-0.878-0.52-0.92-0.48-1.68
	C103.209,217.639,97.36,221.779,95.09,220.136z"/>
<path fill="#1E1D1D" d="M96.53,218.456c-0.552-0.671-0.133-1.909,0.96-1.68C97.974,217.38,97.357,218.42,96.53,218.456z"/>
<path fill="#1E1D1D" d="M86.45,204.776c1.651-0.771,4.72,1.183,7.439,0.72c1.351-0.23,2.023-1.9,3.12-0.72
	C94.533,208.743,89.66,207.101,86.45,204.776z"/>
<path fill="#9A5A2D" d="M71.811,199.016c1.401-2.452,5.412-2.382,7.681-2.16C81.397,203.01,72.328,205.389,71.811,199.016z"/>
<path fill="#A1482A" d="M70.37,201.176c0.923-1.128-2.338-2.201,0-2.64c-0.71,1.172,0.779,1.196,0.96,2.16
	C71.272,201.119,70.917,201.243,70.37,201.176z"/>
<path fill="#1E1D1D" d="M87.171,187.017c-1.468-0.612-1.847-2.313-3.36-2.88c-1.974,0.025-2.468,1.53-3.6,2.399
	C80.901,181.72,86.757,182.798,87.171,187.017z"/>
<path fill="#1E1D1D" d="M77.33,181.977c-0.891-0.87-1.474-2.048-2.16-3.12c0.579-0.099,0.521,0.438,1.2,0.24
	c1.353-3.218,2.835-6.596,6.24-6.48c3.236,0.109,4.308,2.785,7.199,4.08c-1.326,1.234-3.542,1.578-4.8,2.88
	c-0.458-0.342-1.042-0.558-1.68-0.72c-1.064-0.025-0.833,1.246-1.681,1.439c-1.908-0.278-2.535-0.211-4.561,0.24
	C77.33,181.122,77.17,181.048,77.33,181.977z M83.09,177.656c0.601,0.199,0.943,0.657,1.681,0.72
	c0.787-0.333,1.616-0.624,1.92-1.439c-3.042-1.081-6.761,0.125-8.399,2.399C80.973,179.684,81.325,178.55,83.09,177.656z
	 M86.69,175.977c-1.373-3.676-8.459-2-7.92,1.439C80.371,175.741,83.802,174.994,86.69,175.977z"/>
<path fill="#A1482A" d="M78.29,179.336c1.64-2.274,5.358-3.48,8.399-2.399c-0.304,0.815-1.133,1.106-1.92,1.439
	c-0.737-0.063-1.08-0.521-1.681-0.72C81.325,178.55,80.973,179.684,78.29,179.336z"/>
<path fill="#A1482A" d="M78.771,177.416c-0.539-3.439,6.547-5.115,7.92-1.439C83.802,174.994,80.371,175.741,78.771,177.416z"/>
<path fill="#C9482A" d="M100.131,150.296c0.153-0.549,0.476-1.447,0-1.92c-1.503-0.017-1.259,0.222-2.64,0.24
	c1.562-2.943-0.851-4.442-3.601-3.12c-0.376-1.301-0.173-3.444-1.68-3.84c-1.563-0.409-1.606,1.153-3.36,1.2
	c0.245-3.103-3.081-3.021-4.56-1.44c-1.441-0.56-1.957-2.043-3.84-2.159c-0.888,0.232-1.087,1.152-1.2,2.159
	c-1.719-0.1-2.737-1.582-4.319-0.479c0.14,0.939-0.207,1.394-0.479,1.92c-0.927-0.034-1.109-0.811-2.16-0.72
	c-1.432,0.107-1.341,1.243-1.439,2.159c-1.078,0.203-1.844,0.717-2.88,0.961c-0.022,1.143,1.103,1.138,1.199,2.159
	c-1.45-0.171-2.182,0.379-2.64,1.2c-0.147,1.028,0.78,0.979,0.72,1.92c-1.396,0.197-1.873-0.526-2.399-1.2
	c-1.877,0.331-3.571,0.971-5.04-0.96c0.06-0.981,1.249-0.83,1.92-1.199c0.194-1.314-1.069-1.17-0.96-2.4
	c1.311-0.291,2.386-0.815,3.12-1.68c0.252-1.053-0.812-0.789-0.721-1.681c0.985-0.215,1.666-0.733,2.4-1.199
	c0.451-1.125-0.505-1.567,0-2.641c1.947,0.108,2.629-1.052,4.079-1.439c0.078,0.562,1.048,0.232,1.2,0.72
	c0.886-0.235,1.234-1.005,1.681-1.68c2.261,1.438,4.314-2.038,6.479,0c1.05-0.856,3.25-1.908,4.561-0.48
	c0.802-0.158,1.174-0.746,1.92-0.96c1.005,0.195,1.603,0.798,2.399,1.2c1.613-1.654,3.077-0.205,5.521-0.24c0,0.32,0,0.64,0,0.96
	c2.11,0.449,1.735,3.384,4.319,3.36c0.002,0.638-0.091,1.37,0.24,1.68c1.357-0.188,1.439-0.448,2.641-0.479
	c0.646,0.717-0.997,0.6-0.48,1.92c0.685,0.96,1.944-0.34,2.88,0.72c0.206,0.766-0.378,0.742-0.479,1.2
	c1.505,0.574,1.249,2.911,2.64,3.6c0.037,0.678-0.679,0.602-0.96,0.96c0.034,0.766,0.887,0.713,0.96,1.44
	c-1.232,0.192-1.823-0.258-2.64-0.48C101.918,150.414,101.49,150.661,100.131,150.296z M95.81,140.936c2.095,2.466,4.66,4.46,6,7.68
	c0.598,0.026,0.743,0.45,1.2,0c-1.097-4.023-4.581-5.659-6.72-8.64c-0.877-0.158-0.92,0.52-1.68,0.479
	c-0.486-1.461-0.983-3.55-3.12-2.64c-1.063-2.155-3.103-1.056-5.04-1.68c-0.115,0.755,0.342,0.938,0.479,1.439
	c1.28,0.24,1.67-0.409,2.4-0.72c0.487,0.632,0.825,1.415,1.2,2.16c2.292-0.692,2.757,0.411,3.359,1.92
	C94.53,140.936,95.171,140.936,95.81,140.936z M63.891,147.177c-0.076,0.324-0.342,0.458-0.239,0.96c0.319,0,0.64,0,0.959,0
	C64.678,147.509,64.522,147.104,63.891,147.177z M66.051,144.776c-1.01-0.608-1.15,0.441-2.16,0.48
	c0.106,0.453-0.327,1.446,0.479,1.199C65.057,146.022,66.194,146.04,66.051,144.776z M68.21,139.496
	c0.225,1.185-0.256,1.664-1.439,1.44c-0.672,1.021-0.178,1.729-0.72,2.88c0.239,0,0.479,0,0.72,0
	C66.396,141.77,70.428,141.077,68.21,139.496z M72.771,138.057c-1.083,0.65-1.772,0.233-3.359,0.24
	c-0.217,0.424-0.579,0.7-0.721,1.199C69.997,139.429,72.832,140.431,72.771,138.057z M74.45,137.576c-0.32,0-0.641,0-0.96,0
	C73.179,138.807,74.665,138.693,74.45,137.576z M79.011,136.856c0.52,0.201,0.818,0.621,1.68,0.479
	c0.164-0.636,1.331-0.269,1.2-1.199c-1.547,0.311-1.574-0.188-2.88-0.48c-0.928,1.073-2.166,1.099-3.601,1.2
	C75.752,139.081,78.182,137.518,79.011,136.856z M85.73,136.856c0.072-0.633-0.333-0.788-0.96-0.72c0,0.319,0,0.64,0,0.96
	C85.188,137.114,85.517,137.043,85.73,136.856z M83.33,136.137c-0.075,0.324-0.342,0.458-0.24,0.96c0.24,0,0.479,0,0.72,0
	C83.878,136.55,83.753,136.194,83.33,136.137z"/>
<path fill="#1E1D1D" d="M93.89,140.936c-0.603-1.509-1.067-2.612-3.359-1.92c-0.375-0.745-0.713-1.528-1.2-2.16
	c-0.729,0.311-1.12,0.96-2.4,0.72c-0.138-0.502-0.595-0.685-0.479-1.439c1.938,0.624,3.978-0.476,5.04,1.68
	c2.137-0.91,2.634,1.179,3.12,2.64c0.759,0.04,0.802-0.638,1.68-0.479c2.139,2.98,5.624,4.616,6.72,8.64
	c-0.457,0.45-0.603,0.026-1.2,0c-1.34-3.22-3.905-5.214-6-7.68C95.171,140.936,94.53,140.936,93.89,140.936z"/>
<path fill="#1E1D1D" d="M64.61,148.137c-0.319,0-0.64,0-0.959,0c-0.103-0.502,0.163-0.636,0.239-0.96
	C64.522,147.104,64.678,147.509,64.61,148.137z"/>
<path fill="#C9482A" d="M49.49,131.816c22.561,0,45.12,0,67.68,0c-0.361,5.957-3.816,18.774-12,14.64
	c0.352-1.509-1.592-2.105-0.96-3.84c-1.302-1.25-2.254-1.886-2.88-3.6c-5.268,1.227-7.083-8.904-13.2-5.28
	c-0.699-0.123-1.225-0.865-2.16-0.96c-0.772-0.078-0.965,0.627-1.92,0.72c-2.045,0.199-4.072-1.886-4.8,0.721
	c-2.176-2.32-4.315,1.354-6.96,0c-0.917-0.038-0.779,0.979-1.2,1.439c-2.273-1.627-4.147,1.213-6.72,1.44c0,0.88,0,1.76,0,2.64
	c-0.64,0.722-2.391,0.33-2.641,1.44c-0.153,1.033,0.982,0.777,0.721,1.92c-1.134,0.307-2.484,0.396-2.881,1.439
	c-0.345,1.305,0.755,1.167,0.721,2.16c-2.096,1.913-5.173-0.061-6.479-1.92C51.569,141.587,49.941,135.475,49.49,131.816z"/>
<path fill="#1E1D1D" d="M64.37,146.456c-0.808,0.247-0.373-0.746-0.479-1.199c1.011-0.039,1.15-1.089,2.16-0.48
	C66.194,146.04,65.057,146.022,64.37,146.456z"/>
<path fill="#1E1D1D" d="M66.771,143.816c-0.239,0-0.479,0-0.72,0c0.542-1.15,0.048-1.859,0.72-2.88
	c1.185,0.224,1.664-0.256,1.439-1.44C70.428,141.077,66.396,141.77,66.771,143.816z"/>
<path fill="#1E1D1D" d="M68.69,139.496c0.142-0.499,0.504-0.775,0.721-1.199c1.587-0.007,2.276,0.41,3.359-0.24
	C72.832,140.431,69.997,139.429,68.69,139.496z"/>
<path fill="#1E1D1D" d="M73.49,137.576c0.319,0,0.64,0,0.96,0C74.665,138.693,73.179,138.807,73.49,137.576z"/>
<path fill="#1E1D1D" d="M75.41,136.856c1.435-0.102,2.673-0.127,3.601-1.2c1.306,0.293,1.333,0.791,2.88,0.48
	c0.131,0.931-1.036,0.563-1.2,1.199c-0.86,0.142-1.16-0.278-1.68-0.479C78.182,137.518,75.752,139.081,75.41,136.856z"/>
<path fill="#1E1D1D" d="M84.771,137.097c0-0.32,0-0.641,0-0.96c0.627-0.068,1.032,0.087,0.96,0.72
	C85.517,137.043,85.188,137.114,84.771,137.097z"/>
<path fill="#1E1D1D" d="M83.81,137.097c-0.24,0-0.479,0-0.72,0c-0.102-0.502,0.165-0.636,0.24-0.96
	C83.753,136.194,83.878,136.55,83.81,137.097z"/>
<path fill="#B6B5B4" d="M61.49,166.856c-0.034-0.755,0.614-0.824,1.199-0.96c0,0.08,0,0.16,0,0.24
	c-0.029,0.43,0.294,0.506,0.24,0.96C62.756,167.293,61.27,167.74,61.49,166.856z"/>
<path fill="#918045" d="M89.09,192.776c-0.539,0.741-1.179,1.381-1.92,1.92C87.683,193.929,88.25,193.215,89.09,192.776z"/>
<path fill="#B6B5B4" d="M90.771,194.456c-2.52-0.727-2.568,1.914-3.359,2.16c-1.161-0.095,0.056-1.176-0.24-1.92
	c0.741-0.539,1.381-1.179,1.92-1.92c3.177-0.971,6.449,0.088,6.24,3.84c-0.477-0.48-2.971,0.659-3.12-0.24
	C92.069,195.397,91.6,194.747,90.771,194.456z"/>
<path fill="#918045" d="M92.211,196.376c-0.315-0.806-0.994-1.246-1.44-1.92C91.6,194.747,92.069,195.397,92.211,196.376z"/>
<path fill="#918045" d="M72.051,195.896c1.958,0.519,2.077-0.803,2.88-1.44c-0.338,0.462-0.635,0.966-0.721,1.68
	C73.559,195.988,72.306,196.441,72.051,195.896z"/>
<path fill="#B6B5B4" d="M72.051,195.896c-0.468-3.95,7.728-5.023,7.439,0.24c-1.514-0.652-2.563-3.636-4.561-1.68
	C74.128,195.094,74.009,196.415,72.051,195.896z"/>
<path fill="#918045" d="M94.61,176.936c2.675-6.242,12.102-3.047,10.561,4.319c-0.434,2.074-2.373,3.252-4.08,4.561
	c-0.315,0.288-0.377,0.094-0.72,0c-1.966-1.798,2.407-2.833,3.12-4.8c1.113-3.075-0.73-5.937-3.36-6.24
	C97.339,174.454,96.551,176.37,94.61,176.936z"/>
<path fill="#918045" d="M73.73,176.456c-1.939-0.951-4.021-2.845-6.72-1.439c-3.744,1.948-1.047,7.74,1.68,9.6
	c-5.626,0.024-6.999-11.484,0.479-11.52C70.948,173.088,74.401,174.297,73.73,176.456z"/>
<path fill="#1E1D1D" d="M91.01,203.576c-1.14-0.581,0.522-0.802,0.72-0.96c1.094-0.87,2.786-2.245,3.12-3.84
	c-1.9,0.545-4.229-2.547-7.68-1.2c-0.285,1.9,0.497,4.554,2.16,5.28c-4.432,0.627-5.579-12.206,2.399-11.52
	c2.633,0.226,4.107,2.132,4.561,5.04c0.523,1.156,2.65,0.708,2.64,2.4c-0.657,0.422-1.339-0.79-2.399-0.72
	c-0.231,0.64,1.688,1.185,1.68,2.4c-1.134,0.014-1.318-0.922-2.16-1.2C94.821,201.146,93.506,202.951,91.01,203.576z
	 M92.211,196.376c0.149,0.899,2.644-0.241,3.12,0.24c0.209-3.751-3.063-4.811-6.24-3.84c-0.841,0.439-1.407,1.153-1.92,1.92
	c0.295,0.744-0.921,1.825,0.24,1.92c0.792-0.246,0.841-2.887,3.359-2.16C91.216,195.13,91.896,195.571,92.211,196.376z"/>
<path fill="#1E1D1D" d="M117.171,131.816c1.563,4.397-1.928,13.699-5.521,15.36c0.989,1.476,3.845,2.146,3.36,4.319
	c-3.021,0.259-6.104,0.455-6.96,2.88c0.698,0.535,1.693-0.299,2.64,0.24c0.206,0.755,0.907,1.013,0.96,1.92
	c2.301-0.534,4.548,0.613,4.561,3.12c2.645,0.102,3.708,3.594,2.16,5.76c0.782,0.417,1.479,0.922,1.92,1.681
	c-0.068,3.204-1.804,4.944,0.479,6.96c-0.345,1.255-0.736,2.462-1.439,3.359c3.722,3.269,1.62,7.977-1.681,10.32
	c0.691,1.372,1.529,3.467,0,4.56c4.321,1.966,3.321,9.339-0.96,10.8c0.032,1.167,1.009,1.392,1.2,2.4
	c-0.332,1.748-1.464,2.696-2.399,3.84c1.294,4.638-2.73,9.553-7.92,9.12c0.231,3.558-2.724,4.648-5.28,6
	c-2.374,1.256-4.842,3.752-8.641,2.88c-0.937,2.732-4.329,4.788-7.92,3.36c-1.28,0.958-2.359,2.12-4.319,2.4
	c-0.803-0.398-1.599-0.802-2.399-1.2c-2.651,1.824-5.319,0.284-6.721-1.68c-4.341,0.978-7.238-1.124-8.16-4.32
	c-3.892,1.496-6.815-1.871-5.039-5.28c-0.572-1.508-1.963-2.198-2.4-3.84c0.08-0.96,0.993-1.087,0.96-2.16
	c-1.599-1.239-3.938-2.784-2.64-5.52c-2.628-1.076-6.272-4.402-3.36-7.44c-0.42-1.18-1.434-1.767-1.92-2.88
	c0.581-1.179,1.187-2.334,2.16-3.12c-1.523-2.917,0.902-4.659,2.88-5.52c-1.109-1.145-3.165-4.864,0.721-5.28
	c-0.483-2.103,0.084-3.898,2.64-3.601c-0.572-2.268,1.705-3.289,2.4-5.04c-0.049-0.751-0.619-0.98-0.96-1.439
	c-1.298-0.337-1.271,0.648-2.16,0.72c-0.194-2.572,1.847-4.831,4.8-5.04c0.177-1.536-1.932-0.788-1.92-2.16
	c0.178-0.383,1.175,0.056,0.96-0.72c0.875-0.074,1.563,0.038,2.16,0.24c0.384-0.454-0.215-1.382-0.721-1.68c0-0.08,0-0.16,0-0.24
	c-0.585,0.136-1.233,0.205-1.199,0.96c-0.233,0.007-0.188,0.294-0.24,0.479c-2.614,1.98-5.039-2.549-2.64-4.08
	c-1.155-1.21,0.155-3.406-1.44-4.079c-2.228-0.228-1.825,2.174-3.359,2.64c-2.039-3.998,1.443-7.739,5.521-7.92
	c-0.357-2.337-4.887-1.929-5.279,0.24c-1.673-2.548,1.493-4.213,2.641-5.521c-4.644-3.438-7.483-9.957-7.921-16.8
	c0.24,0,0.479,0,0.721,0c0.45,3.658,2.078,9.771,4.319,12.96c1.308,1.859,4.386,3.833,6.479,1.92c0.034-0.993-1.064-0.855-0.72-2.16
	c0.396-1.044,1.746-1.133,2.88-1.439c0.263-1.143-0.874-0.887-0.721-1.92c0.25-1.11,2.001-0.719,2.641-1.44c0-0.88,0-1.76,0-2.64
	c2.571-0.228,4.446-3.067,6.72-1.44c0.421-0.46,0.283-1.479,1.2-1.439c2.645,1.354,4.784-2.32,6.96,0
	c0.729-2.606,2.755-0.521,4.8-0.721c0.955-0.093,1.146-0.798,1.92-0.72c0.936,0.095,1.461,0.837,2.16,0.96
	c6.117-3.624,7.933,6.507,13.2,5.28c0.626,1.714,1.578,2.35,2.88,3.6c-0.632,1.734,1.312,2.331,0.96,3.84
	C113.354,150.591,116.81,137.773,117.171,131.816z M101.33,222.296c0.813,0.146,0.385,1.535,1.439,1.44
	c3.434-0.951,4.706-5.434,3.12-8.88c-0.48-0.399-1.779,0.02-2.16-0.48c0.146-0.813,1.535-0.385,1.44-1.44
	c0.135-3.486-6.045-3.742-6.24-0.48c-1.928-3.644-9.614,0.056-6.479,4.32c-6.458-1.03-4.855,9.463,0.96,6.24
	c-0.421,0.98-1.787,1.037-1.2,2.4C94.564,227.435,101.771,226.734,101.33,222.296z M96.53,210.056
	c-0.056-1.415,0.604-2.116,1.439-2.64c0.001-0.8-0.781-0.819-0.72-1.68c0.323-0.876,0.878-1.521,1.68-1.92
	c-0.772-0.427-0.792-1.608-0.72-2.88c1.412-0.028,1.451-1.429,1.92-2.4c-0.177-0.543-0.915-0.525-0.96-1.2
	c0.419-0.221,0.529-0.75,0.479-1.44c-0.484-0.475-1.029-0.89-1.439-1.44c0.166-1.654,0.563-2.992-1.2-3.12
	c1.14-0.86,1.286-2.714,2.88-3.12c0.714,0.085,1.218,0.382,1.68,0.72c0.105-0.825-0.095-1.345-0.239-1.92
	c-2.358,0.3-3.406-2.413-1.92-3.84c-0.292-0.668-1.475-0.446-2.4-0.48c-0.228,1.438,0.659,1.929-0.24,2.4
	c-3.021-6.658-5.097-14.263-10.56-18.48c-0.919-0.201-1.801-0.439-1.92-1.439c0.779-0.14,1.116,0.163,1.68,0.239
	c0.51-4.718-0.182-9.153,1.68-12.479c0.709,0.347,0.207,0.536,0.48,1.439c2.821-1.658,5.821-3.139,9.12-4.319
	c-1.071-0.889-1.566-2.345-0.48-3.601c-2.975,0.53-4.744-0.208-4.8-3.6c-1.813-0.135-1.89,1.47-4.08,0.96
	c-0.334-0.946-0.259-2.301-1.2-2.64c-2.365,2.205-4.194,0.229-6.479-0.721c0.04,0.84-0.063,1.537-0.479,1.92
	c-1.582,0.939-2.337-0.803-3.84-0.72c-0.061,2.355-2.188,2.419-3.84,1.44c-0.359,0.681-0.501,1.579-0.721,2.399
	c-0.757-0.117-0.849,0.433-1.681,0.24c-0.066,1.027,0.733,1.187,0.479,2.4c-0.545,0.414-1.341,0.579-2.399,0.479
	c3.071,2.529,7.468,3.733,10.801,6c-0.039-0.784-0.557-1.552,0.479-1.68c0.919,3.311,1.667,7.195,1.439,12.24
	c0.367,0.381,2.468-0.461,3.12,0.239c-8.336,1.772-8.795,13.426-12,21.12c-0.68-0.971,0.148-2.506-0.24-3.359
	c-0.563-0.077-0.9-0.38-1.681-0.24c-0.531,0.842,0.18,1.444-0.239,2.399c-0.435,0.446-1.212,0.549-1.92,0.721
	c-0.315,0.993-0.637,1.756-0.24,2.88c0.545,0.415,2.013-0.093,2.16,0.72c0.504,2.277,0.636,5.271,0.479,6.72
	c2.308-1.429,2.591-5.892,7.199-4.8c3.948,0.936,4.347,6.62,2.641,10.08c-0.775,1.574-3.438,2.132-5.04,1.92
	c-0.699-0.093-2.026-1.49-2.64-0.24c2.323,2.094,6.772,1.139,9.119,0.48c-0.895,1.761-3.662,2.331-5.04,2.88
	c0.958,1.133,2.046,1.927,3.601,1.2c0.184,0.697,1.139,0.623,0.96,1.68c0.994-0.046,0.813-1.268,1.681-1.44
	c1.087,0.354,0.791,2.089,1.68,2.64c0.187-1.547-0.354-2.366-0.479-3.6c3.123-0.979,5.311,1.862,4.56,4.8
	C91.435,213.804,92.441,209.536,96.53,210.056z M79.49,196.856c-2.269-0.223-6.278-0.292-7.681,2.16
	C72.328,205.389,81.397,203.01,79.49,196.856z M71.33,200.696c-0.181-0.964-1.67-0.988-0.96-2.16c-2.338,0.439,0.923,1.512,0,2.64
	C70.917,201.243,71.272,201.119,71.33,200.696z M74.931,194.456c1.996-1.956,3.047,1.028,4.561,1.68
	c0.287-5.263-7.907-4.19-7.439-0.24c0.255,0.544,1.508,0.091,2.159,0.24C74.296,195.422,74.593,194.918,74.931,194.456z
	 M100.131,174.776c2.63,0.304,4.474,3.165,3.36,6.24c-0.713,1.967-5.086,3.002-3.12,4.8c0.343,0.094,0.404,0.288,0.72,0
	c1.708-1.309,3.646-2.486,4.08-4.561c1.541-7.366-7.886-10.562-10.561-4.319C96.551,176.37,97.339,174.454,100.131,174.776z
	 M69.17,173.097c-7.479,0.035-6.105,11.544-0.479,11.52c-2.727-1.859-5.424-7.651-1.68-9.6c2.699-1.405,4.779,0.488,6.72,1.439
	C74.401,174.297,70.948,173.088,69.17,173.097z M102.53,149.576c0.816,0.223,1.407,0.673,2.64,0.48
	c-0.073-0.728-0.926-0.675-0.96-1.44c0.281-0.358,0.997-0.282,0.96-0.96c-1.392-0.688-1.135-3.025-2.64-3.6
	c0.102-0.458,0.686-0.435,0.479-1.2c-0.936-1.06-2.195,0.24-2.88-0.72c-0.517-1.32,1.127-1.203,0.48-1.92
	c-1.201,0.031-1.283,0.292-2.641,0.479c-0.331-0.31-0.237-1.042-0.24-1.68c-2.584,0.023-2.209-2.911-4.319-3.36
	c0-0.32,0-0.64,0-0.96c-2.443,0.035-3.907-1.414-5.521,0.24c-0.797-0.402-1.395-1.005-2.399-1.2
	c-0.746,0.214-1.118,0.802-1.921,0.96c-1.31-1.428-3.51-0.376-4.56,0.479c-2.165-2.038-4.22,1.438-6.479,0
	c-0.445,0.675-0.795,1.444-1.681,1.68c-0.152-0.487-1.122-0.158-1.2-0.72c-1.45,0.388-2.132,1.548-4.08,1.439
	c-0.504,1.073,0.452,1.516,0,2.641c-0.733,0.466-1.414,0.984-2.399,1.199c-0.091,0.892,0.973,0.628,0.721,1.681
	c-0.734,0.864-1.811,1.389-3.12,1.68c-0.109,1.23,1.154,1.086,0.96,2.4c-0.671,0.369-1.86,0.218-1.92,1.199
	c1.468,1.931,3.163,1.291,5.04,0.96c0.526,0.674,1.003,1.397,2.399,1.2c0.062-0.941-0.867-0.892-0.72-1.92
	c0.458-0.821,1.188-1.371,2.64-1.2c-0.098-1.021-1.223-1.017-1.199-2.159c1.036-0.244,1.802-0.758,2.88-0.961
	c0.1-0.916,0.01-2.052,1.439-2.159c1.051-0.091,1.233,0.686,2.16,0.72c0.272-0.526,0.619-0.98,0.479-1.92
	c1.582-1.103,2.602,0.38,4.319,0.479c0.113-1.007,0.313-1.927,1.2-2.159c1.884,0.116,2.398,1.6,3.84,2.159
	c1.479-1.58,4.805-1.662,4.56,1.44c1.754-0.047,1.797-1.609,3.36-1.2c1.506,0.396,1.303,2.539,1.68,3.84
	c2.75-1.322,5.162,0.177,3.601,3.12c1.381-0.019,1.137-0.257,2.64-0.24c0.476,0.473,0.153,1.371,0,1.92
	C101.49,150.661,101.918,150.414,102.53,149.576z"/>
<path fill="#918045" d="M61.49,166.856c-0.222,0.884,1.266,0.437,1.439,0.24c0.054-0.454-0.271-0.53-0.24-0.96
	c0.505,0.298,1.104,1.226,0.721,1.68c-0.599-0.202-1.285-0.314-2.16-0.24c0-0.08,0-0.16,0-0.24
	C61.304,167.15,61.257,166.863,61.49,166.856z"/>
<path fill="#9A5A2D" d="M88.131,211.976c0.751-2.938-1.437-5.779-4.56-4.8c0.125,1.234,0.667,2.053,0.479,3.6
	c-0.889-0.551-0.593-2.287-1.68-2.64c-0.867,0.172-0.687,1.394-1.681,1.44c0.179-1.058-0.776-0.983-0.96-1.68
	c-1.555,0.728-2.643-0.067-3.601-1.2c1.378-0.549,4.146-1.119,5.04-2.88c-2.347,0.659-6.796,1.614-9.119-0.48
	c0.612-1.25,1.939,0.147,2.64,0.24c1.604,0.212,4.265-0.346,5.04-1.92c1.706-3.46,1.309-9.145-2.641-10.08
	c-4.608-1.092-4.893,3.371-7.199,4.8c0.155-1.45,0.023-4.443-0.479-6.72c-0.147-0.813-1.615-0.305-2.16-0.72
	c-0.396-1.124-0.075-1.887,0.24-2.88c0.708-0.172,1.485-0.274,1.92-0.721c0.419-0.955-0.292-1.558,0.239-2.399
	c0.779-0.14,1.116,0.163,1.681,0.24c0.39,0.854-0.438,2.389,0.24,3.359c3.205-7.694,3.664-19.348,12-21.12
	c-0.652-0.7-2.752,0.142-3.12-0.239c0.228-5.045-0.521-8.93-1.439-12.24c-1.036,0.128-0.52,0.896-0.479,1.68
	c-3.333-2.267-7.729-3.471-10.801-6c1.06,0.1,1.854-0.065,2.399-0.479c0.254-1.214-0.547-1.373-0.479-2.4
	c0.832,0.192,0.924-0.357,1.681-0.24c0.22-0.82,0.36-1.719,0.721-2.399c1.65,0.979,3.779,0.915,3.84-1.44
	c1.503-0.083,2.258,1.659,3.84,0.72c0.416-0.383,0.521-1.08,0.479-1.92c2.285,0.95,4.114,2.926,6.479,0.721
	c0.941,0.339,0.866,1.693,1.2,2.64c2.19,0.51,2.267-1.095,4.08-0.96c0.057,3.392,1.825,4.13,4.8,3.6
	c-1.085,1.256-0.59,2.712,0.48,3.601c-3.299,1.181-6.299,2.661-9.12,4.319c-0.273-0.903,0.229-1.093-0.48-1.439
	c-1.861,3.326-1.17,7.762-1.68,12.479c-0.563-0.076-0.9-0.379-1.68-0.239c0.119,1,1.001,1.238,1.92,1.439
	c5.462,4.218,7.538,11.822,10.56,18.48c0.899-0.472,0.013-0.962,0.24-2.4c0.926,0.034,2.107-0.188,2.4,0.48
	c-1.486,1.427-0.438,4.14,1.92,3.84c0.146,0.575,0.345,1.095,0.24,1.92c-0.462-0.338-0.967-0.635-1.681-0.72
	c-1.594,0.406-1.74,2.26-2.88,3.12c1.763,0.128,1.366,1.466,1.2,3.12c0.41,0.55,0.955,0.965,1.439,1.44
	c0.05,0.689-0.061,1.219-0.479,1.44c0.045,0.675,0.783,0.657,0.96,1.2c-0.469,0.971-0.508,2.372-1.92,2.4
	c-0.072,1.272-0.053,2.453,0.72,2.88c-0.801,0.398-1.355,1.043-1.68,1.92c-0.062,0.861,0.721,0.879,0.72,1.68
	c-0.836,0.524-1.495,1.226-1.439,2.64C92.441,209.536,91.435,213.804,88.131,211.976z M97.01,204.776
	c-1.097-1.181-1.771,0.49-3.12,0.72c-2.72,0.463-5.788-1.491-7.439-0.72C89.66,207.101,94.533,208.743,97.01,204.776z
	 M96.05,199.256c0.842,0.278,1.026,1.213,2.16,1.2c0.008-1.215-1.912-1.76-1.68-2.4c1.061-0.07,1.742,1.143,2.399,0.72
	c0.011-1.691-2.116-1.244-2.64-2.4c-0.453-2.908-1.927-4.814-4.561-5.04c-7.979-0.686-6.832,12.147-2.399,11.52
	c-1.663-0.726-2.445-3.38-2.16-5.28c3.45-1.347,5.779,1.745,7.68,1.2c-0.334,1.595-2.025,2.97-3.12,3.84
	c-0.197,0.158-1.859,0.379-0.72,0.96C93.506,202.951,94.821,201.146,96.05,199.256z M80.21,186.536
	c1.132-0.869,1.626-2.374,3.6-2.399c1.515,0.566,1.894,2.268,3.36,2.88C86.757,182.798,80.901,181.72,80.21,186.536z M77.09,180.536
	c2.024-0.451,2.651-0.519,4.561-0.24c0.848-0.193,0.615-1.465,1.681-1.439c0.638,0.162,1.222,0.378,1.68,0.72
	c1.258-1.302,3.475-1.646,4.8-2.88c-2.892-1.295-3.963-3.971-7.2-4.08c-3.404-0.115-4.888,3.263-6.239,6.48
	c-0.679,0.198-0.621-0.339-1.2-0.24c0.688,1.072,1.271,2.25,2.16,3.12C77.17,181.048,77.33,181.122,77.09,180.536z"/>
<use xlink:href="#Rand"  width="156.49" height="248.039" x="5.377" y="-252.996" transform="matrix(1 0 0 -1 0.002 0.0029)" overflow="visible"/>
</svg>
