<?xml version="1.0" encoding="utf-8"?>
<!-- Generator: Adobe Illustrator 15.1.0, SVG Export Plug-In  -->
<!DOCTYPE svg PUBLIC "-//W3C//DTD SVG 1.1 Tiny//EN" "http://www.w3.org/Graphics/SVG/1.1/DTD/svg11-tiny.dtd" [
	<!ENTITY ns_flows "http://ns.adobe.com/Flows/1.0/">
]>
<svg version="1.1" baseProfile="tiny"
	 xmlns="http://www.w3.org/2000/svg" xmlns:xlink="http://www.w3.org/1999/xlink" xmlns:a="http://ns.adobe.com/AdobeSVGViewerExtensions/3.0/"
	 x="0px" y="0px" width="167px" height="258px" viewBox="0.002 0.003 167 258" xml:space="preserve">
<defs>
</defs>
<path fill="#00B3F2" d="M167.244,240.945c0,9.354-7.653,17.008-17.008,17.008H17.008C7.653,257.953,0,250.3,0,240.945V17.008
	C0,7.653,7.653,0,17.008,0h133.229c9.354,0,17.008,7.653,17.008,17.008V240.945z"/>
<path fill="none" stroke="#FFFFFF" stroke-width="2" stroke-miterlimit="10" d="M160.866,239.24c0,7.047-5.822,12.756-13.008,12.756
	H19.386c-7.186,0-13.008-5.709-13.008-12.756V18.722c0-7.046,5.822-12.762,13.008-12.762h128.473
	c7.186,0,13.008,5.716,13.008,12.762V239.24z"/>
<path fill="#C5C6C1" d="M167.244,240.945c0,9.354-7.653,17.008-17.008,17.008H17.008C7.653,257.953,0,250.3,0,240.945V17.008
	C0,7.653,7.653,0,17.008,0h133.229c9.354,0,17.008,7.653,17.008,17.008V240.945z"/>
<path fill="none" stroke="#FFFFFF" stroke-width="2" stroke-miterlimit="10" d="M160.866,239.24c0,7.047-5.822,12.756-13.008,12.756
	H19.386c-7.186,0-13.008-5.709-13.008-12.756V18.722c0-7.046,5.822-12.762,13.008-12.762h128.473
	c7.186,0,13.008,5.716,13.008,12.762V239.24z"/>
<line fill="none" stroke="#FFFFFF" stroke-width="2" stroke-miterlimit="10" x1="20.551" y1="128.978" x2="146.693" y2="128.978"/>
<g>
	<path fill="#FFFFFF" d="M155.43,233.305c-1.383-0.731-2.956-1.149-4.629-1.149s-3.246,0.418-4.629,1.149v17.541
		c1.383,0.731,2.956,1.149,4.629,1.149s3.246-0.418,4.629-1.149V233.305z"/>
	<path fill="#0055A4" d="M140.881,242.075c0,3.806,2.146,7.107,5.291,8.771v-17.541C143.026,234.968,140.881,238.27,140.881,242.075
		z"/>
	<path fill="#EF4531" d="M160.72,242.075c0-3.806-2.146-7.106-5.29-8.771v17.541C158.574,249.182,160.72,245.881,160.72,242.075z"/>
</g>
<g>
	<path fill="#FFFFFF" d="M155.429,7.111c-1.383-0.731-2.956-1.15-4.629-1.15s-3.246,0.418-4.629,1.149v17.541
		c1.383,0.731,2.956,1.149,4.629,1.149s3.246-0.418,4.629-1.15V7.111z"/>
	<path fill="#0055A4" d="M140.88,15.881c0,3.806,2.146,7.107,5.291,8.771V7.11C143.025,8.774,140.88,12.075,140.88,15.881z"/>
	<path fill="#EF4531" d="M160.719,15.881c0-3.806-2.146-7.106-5.29-8.77v17.54C158.573,22.987,160.719,19.687,160.719,15.881z"/>
</g>
<circle fill="none" stroke="#FFFFFF" stroke-width="2" stroke-miterlimit="10" cx="150.945" cy="15.882" r="9.921"/>
<g>
	<path fill="#FFFFFF" d="M20.927,233.305c-1.383-0.731-2.956-1.149-4.629-1.149s-3.246,0.418-4.629,1.149v17.541
		c1.383,0.731,2.956,1.149,4.629,1.149s3.246-0.418,4.629-1.149V233.305z"/>
	<path fill="#0055A4" d="M6.378,242.075c0,3.806,2.146,7.107,5.291,8.771v-17.541C8.523,234.968,6.378,238.27,6.378,242.075z"/>
	<path fill="#EF4531" d="M26.217,242.075c0-3.806-2.146-7.106-5.29-8.771v17.541C24.071,249.182,26.217,245.881,26.217,242.075z"/>
</g>
<circle fill="none" stroke="#FFFFFF" stroke-width="2" stroke-miterlimit="10" cx="150.945" cy="242.075" r="9.921"/>
<g>
	<path fill="#FFFFFF" d="M20.927,7.111c-1.383-0.731-2.956-1.15-4.629-1.15s-3.246,0.418-4.629,1.149v17.541
		c1.383,0.731,2.956,1.149,4.629,1.149s3.246-0.418,4.629-1.15V7.111z"/>
	<path fill="#0055A4" d="M6.378,15.881c0,3.806,2.146,7.107,5.291,8.771V7.11C8.523,8.774,6.378,12.075,6.378,15.881z"/>
	<path fill="#EF4531" d="M26.217,15.881c0-3.806-2.146-7.106-5.29-8.77v17.54C24.071,22.987,26.217,19.687,26.217,15.881z"/>
</g>
<circle fill="none" stroke="#FFFFFF" stroke-width="2" stroke-miterlimit="10" cx="16.3" cy="242.075" r="9.921"/>
<circle fill="none" stroke="#FFFFFF" stroke-width="2" stroke-miterlimit="10" cx="16.298" cy="15.881" r="9.921"/>
<path fill="#CDB171" d="M86.451,58.698c1.086,0.274,1.421,1.3,2.88,1.2c0.955-1.268-0.235-1.922,0.721-2.88
	c0.176,0.851,1.186,2.384,1.92,1.2c0.08,0,0.16,0,0.24,0c-0.146,0.214-0.29,0.429,0,0.48c0.396-0.684,1.302,0.115,1.68,0.24
	c0.846-0.942,2.54-0.519,4.08-0.72c0.08,0,0.16,0,0.24,0c-0.372,0.239,2.354,1.664,3.36,2.4c-0.158-0.116,0.147-0.558,0.239-0.48
	c-0.063,0.994,0.933,0.319,0.961,0.72c0.187,0.534,0.504,0.936,0.479,1.68c-0.116,1.919,0.896,1.934,0.239,3.601
	c-0.655,2.761-1.182,4.896-1.68,7.2c0.191,0.833-0.357,0.923-0.24,1.681c-0.422,0.697-0.547,1.693-0.721,2.64
	c-0.569,1.884-0.361,3.085-1.439,4.32c-0.511,0.851-0.693,2.027-1.2,2.881c-0.016,1.104-0.682,1.559-0.96,2.4
	c-1.415-0.665-2.391-1.771-3.601-2.641c-0.642-0.671,0.226-1.187,0.239-1.921c0.771-0.89-1.49-1.555-1.92-0.721
	c-1.664,0.552-4.99-0.974-6.24,0.48c0.021-0.342,0.039-0.681-0.24-0.721c-2.262,0.858-5.357,0.885-8.161,1.2
	c-0.195,0.045-0.239,0.24-0.48,0.239c1.526,2.621,3.599,4.104,6.722,5.521c1.522,0.384,2.677,0.58,4.081,0
	c0.688,0.051,1.219-0.061,1.439-0.479c0.646-0.154,0.674-0.927,1.439-0.96c1.19,0.089,1.2,1.36,2.399,1.438
	c2.326,1.3,0.724,2.666-0.72,3.842c-0.81,0.71-1.981,1.06-3.36,1.199c-0.941,0.324-2.746-0.583-2.641,0.24
	c-1.276,0.042-2.843,0.266-4.32-0.24c-0.451-0.669-1.692-0.548-2.399-0.96c-1.06-0.382-2.126-0.754-2.642-1.681
	c-1.615-1.424-3.059-3.021-4.56-4.561c-0.777-1.384-1.944-2.376-3.121-3.36c-2.633-3.175-4.538-5.665-5.76-10.32
	c0.226-0.949,0.187-1.392-0.24-2.16c0-0.24,0-0.48,0-0.72c0.219-0.988,0.667-3.005,0.479-3.601c-0.104-0.825,0.096-1.345,0.24-1.92
	c0.244-0.156,0.248-0.552,0.721-0.48c1.226,2.374,3.775,3.425,6,4.8c0.192-0.127,0.39-0.25,0.72-0.24
	c0.045,0.195,0.241,0.239,0.24,0.48c0.312,0.563-0.122,0.537,0.479,0.96c1.095-0.589,5.271,0.693,6.961-0.96
	c1.165-0.911,2.186-1.861,1.92-3.601c-0.704-3.212-6.251-4.701-8.881-4.08c-0.08,0-0.16,0-0.24,0
	c-0.395-0.301-2.057,0.173-2.399,0.72c-0.193,0.127-0.391,0.25-0.72,0.24c-0.82,0.098-0.306,0.648-1.2,0.24c-0.08,0-0.16,0-0.24,0
	c-0.054,0.107-0.989-0.047-1.44,0.24c-0.067,0.388,0.228,0.413,0.24,0.72c0,0.08,0,0.16,0,0.24c-0.655,0.175-0.482-0.477-0.96-0.48
	c0.344-0.698,0.185-0.27-0.479-0.24c-0.305-0.732,0.819-1.222,0.239-1.44c0.512-1.539,0.698-2.038,0.48-4.08
	c0.317-0.003,0.22-0.421,0.479-0.48c-0.044,0.848,1.017,1.314,0.48,1.92c0.42-0.066,1.197,0.676,1.439,0
	c0.602,0.03,0.752,0.458,0.961-0.24c0.038-0.281,0.438-0.202,0.72-0.24c1.036,0.198,4.276,0.35,4.081-0.24c0.08,0,0.16,0,0.24,0
	c0.582,0.698,2.504,0.37,3.601,0.24c0.08,0,0.16,0,0.24,0c2.988,0.341,5.618,0.151,8.641,0.96c0.046-0.194,0.241-0.239,0.24-0.48
	C86.451,58.858,86.451,58.778,86.451,58.698z M102.532,63.979c0.488,0.073-0.049-0.693-0.239-0.72c-0.099,0.409-0.31-0.05-0.721,0
	c0.004-0.396,0.666-0.134,0.721-0.48c-0.28-0.041-0.261-0.379-0.24-0.72c-0.426,0.055-1.202-0.242-0.96,0.48
	c-0.311,0.243-1.164,1.293-0.96,0c0.709-1.273-0.164-0.5-0.961-0.72c-0.968-0.267-3.874-1.088-5.04-0.24
	c-2.688,1.087-5.856,2.653-5.521,6c0.261,0.699,0.979,0.94,1.68,1.2c-0.301,0.869,1.653-0.039,0.961,0.96
	c1.357-0.835,2.818,0.932,3.84-0.24c1.196-0.324,2.771-0.269,3.36-1.2c0.285-0.515,1.04-0.561,1.439-0.96
	c0.344-0.094,0.404-0.288,0.721,0c-0.305-0.732,0.819-1.222,0.24-1.44c0-0.08,0-0.16,0-0.24c0.079,0,0.159,0,0.239,0
	c-0.313-1.274,1.337-0.583,1.439-1.44C102.532,64.138,102.532,64.06,102.532,63.979z M71.33,81.501c0.29,0.051,0.147,0.267,0,0.479
	c0.092,0.278,1.166,0.278,0.479,0c-0.146-0.013-0.283-0.035-0.239-0.239c0.239,0,0.479,0,0.72,0
	c-0.038-0.282,0.041-0.682-0.24-0.721C72.046,81.417,71.384,81.154,71.33,81.501z"/>
<path fill="#6A5D52" d="M72.771,51.499c0.57,0.829,0.343,1.051,0.479,2.4C72.666,53.555,72.58,51.862,72.771,51.499z"/>
<path fill="#BA918D" d="M73.25,62.539c0.965-0.165,1.37,0.23,2.16,0.24c0,0.08,0,0.16,0,0.24c-0.4,0-0.8,0-1.2,0
	c-0.044-0.355-0.58-0.22-0.96-0.24C73.25,62.698,73.25,62.618,73.25,62.539z"/>
<path fill="#D3C5A0" d="M70.61,65.659c0.255-0.545,1.509-0.091,2.16-0.24c0,0.32,0,0.64,0,0.96c-0.08,0-0.16,0-0.24,0
	C72.38,65.111,71.437,66.065,70.61,65.659z"/>
<path fill="#6A5D52" d="M118.374,77.421c0.396,0.259,0.396,2.141,0,2.398C118.374,79.021,118.374,78.221,118.374,77.421z"/>
<path fill="#272923" d="M72.05,96.622c-0.066-0.389,0.228-0.413,0.24-0.721c0.752-0.111,0.676,0.604,0.96,0.96
	C72.957,97.589,72.334,96.692,72.05,96.622z"/>
<path fill="#272923" d="M73.01,97.582c1.167,0.809,0.773,4.108,1.2,5.521c-0.549,0.411-0.088,1.832-0.24,2.641
	c0.342,1.046-0.819,1.104-0.24,1.681c-0.224,0.176-0.363,0.437-0.479,0.721c-0.194-0.046-0.239-0.241-0.479-0.24
	c0.366-2.521,0.477-7.013,0-9.601c0-0.24,0-0.48,0-0.721C72.85,97.582,72.93,97.582,73.01,97.582z"/>
<path fill="#272923" d="M74.93,97.582c0.501-0.103,0.637,0.165,0.96,0.239c-0.058,0.422-0.412,0.547-0.96,0.48
	C74.93,98.063,74.93,97.821,74.93,97.582z"/>
<path fill="#6A5D52" d="M81.171,97.582c0.897-0.019,1.659,0.102,2.16,0.479c-0.618,0.756-1.145-0.6-2.16-0.24
	C81.171,97.741,81.171,97.662,81.171,97.582z"/>
<path fill="#272923" d="M78.05,98.781c0.24,0,0.48,0,0.721,0c0.222,4.301,1.166,8.843,0,12.241
	C77.644,107.298,78.755,102.013,78.05,98.781z"/>
<path fill="#272923" d="M75.41,99.263c1.783,3.103,0.617,6.891,0.479,10.561c-1.429-1.673-0.271-4.146-0.239-5.761
	C75.68,102.501,75.323,101.178,75.41,99.263z"/>
<path fill="#272923" d="M81.651,100.463c-0.633,0.071-0.788-0.333-0.721-0.96C81.732,99.262,81.718,99.836,81.651,100.463z"/>
<path fill="#272923" d="M90.291,108.623c-0.358-2.927-0.74-6.156-0.479-8.882c1.373,2.603-0.06,4.614,1.2,8.401
	c-0.097,0.637-0.03,2.22,0.479,2.64c0.096,0.467-1.093,0.352-0.721-0.239C90.521,109.993,90.619,109.096,90.291,108.623z"/>
<path fill="#272923" d="M92.212,99.982c0.307-0.013,0.332-0.308,0.72-0.24c0.103,0.485-0.3,2.583,0.24,3.842
	c-0.911,2.751,1.699,5.01,0,6.479C92.649,107.854,92.086,103.336,92.212,99.982z"/>
<path fill="#272923" d="M84.051,108.623c-0.053-4.111-0.512-5.288,0.24-8.642c0.838,3.362,0.296,8.062,0.72,12.241
	c-1.066-0.149-0.411-0.533-0.72-1.44C84.229,109.648,84.192,109.206,84.051,108.623z"/>
<path fill="#272923" d="M87.171,108.144c0.052-3.613-1.072-5.083-0.239-8.161c0.847,1.253,0.3,3.115,0.479,5.28
	c0.187,2.229,1.627,5.118,0.72,6.721C87.344,111.171,87.692,109.223,87.171,108.144z"/>
<path fill="#272923" d="M80.931,104.543c0.213-0.883-0.203-2.782,0.24-3.602c1.585,1.287,0.272,6.234,0.72,7.921
	c-0.625,0.606,0.514,1.907-0.239,2.642c-0.16,0-0.32,0-0.48,0c-0.302-1.354,0.486-2.383-0.24-3.841
	C81.329,107.171,81.329,105.034,80.931,104.543z"/>
<path fill="#6A5D52" d="M95.332,100.942c0,0.88,0,1.762,0,2.642C94.935,103.247,94.935,101.277,95.332,100.942z"/>
<path fill="#6A5D52" d="M94.132,101.423c0,0.96,0,1.92,0,2.88c-0.559-0.986-0.234-1.652-0.24-2.88
	C93.972,101.423,94.052,101.423,94.132,101.423z"/>
<path fill="#6A5D52" d="M74.21,103.103c-0.152,0.81,0.311,2.229-0.24,2.641C74.122,104.935,73.661,103.514,74.21,103.103z"/>
<path fill="#6A5D52" d="M80.931,104.543c0.398,0.491,0.398,2.628,0,3.12C80.931,106.623,80.931,105.583,80.931,104.543z"/>
<path fill="#6A5D52" d="M104.213,110.543c1.099,0.262,2.005,0.716,2.64,1.439C105.995,111.481,105.004,111.111,104.213,110.543z"/>
<path fill="#6A5D52" d="M97.012,108.144c1.599,0.309,2.75,0.695,3.602,1.2C100.131,109.339,98.155,108.796,97.012,108.144z"/>
<path fill="#6A5D52" d="M96.052,96.382c0.644-1.377-0.749-2.707-2.16-3.36c0.473-0.93,1.824-3.298,2.642-1.68
	c-0.431,0.03-0.507-0.294-0.96-0.24c-0.423,0.618-1.044,1.036-1.44,1.681C95.432,93.486,97.222,95.276,96.052,96.382z"/>
<path fill="#6A5D52" d="M96.772,91.582c2.858,0.594,3.699,4.44,6.72,4.08C101.308,97.144,99.282,92.658,96.772,91.582z"/>
<path fill="#6A5D52" d="M119.813,74.779c0.252-0.949,0.914-1.486,1.681-1.92C121.03,73.595,120.298,74.064,119.813,74.779z"/>
<path fill="#6A5D52" d="M118.854,69.02c1.026-0.813,2.631-1.05,4.08-1.44C122.155,68.114,120.423,68.61,118.854,69.02z"/>
<path fill="#6A5D52" d="M121.254,61.099c-0.309,1.531-1.202,2.479-2.399,3.12C119.748,63.272,120.646,62.33,121.254,61.099z"/>
<path fill="#6A5D52" d="M117.654,52.697c0.923,1.077,1.985,2.014,2.64,3.36C119.299,55.052,118.435,53.917,117.654,52.697z"/>
<path fill="#6A5D52" d="M115.254,50.297c1.026,0.414,1.618,1.262,2.16,2.16C116.674,51.757,115.854,51.136,115.254,50.297z"/>
<path fill="#6A5D52" d="M99.172,38.296c1.188,0.572,1.989,1.531,3.121,2.16C100.924,40.065,100.078,39.15,99.172,38.296z"/>
<path fill="#272923" d="M84.051,29.417c3.14,1.022,4.854,3.468,7.921,4.56c-0.084-4.956,7.83-12.455,8.4-4.08
	c-0.239,0-0.479,0-0.72,0c-2.73,0.87-4.343,2.859-5.762,5.041c0.45,1.23,1.644,1.717,2.882,2.16c0.906,0.335,1.148,0.8,2.398,1.2
	c0.906,0.854,1.752,1.769,3.121,2.16c4.517,3.083,8.896,6.305,12.961,9.841c0.602,0.838,1.42,1.459,2.16,2.16
	c0.014,0.146,0.035,0.284,0.24,0.24c0.779,1.219,1.645,2.355,2.64,3.36c0.638,1.648,1.321,2.961,0.96,5.041
	c-0.609,1.23-1.506,2.174-2.4,3.12c-1.073,0.685-1.854,1.666-3.6,1.68c-0.23-0.594-0.922,0.331-1.681,0
	c-0.021,0.341-0.039,0.68,0.239,0.72c0.689,0.751,0.572,2.308,1.682,2.64c2.254-1.027,5.07-2.767,8.16-2.16
	c-0.241,0.382-0.228,0.966-0.721,0.48c-1.449,0.391-3.054,0.627-4.08,1.44c-2.063,0.977-4.493,1.587-5.521,3.6
	c4.453,4.992,1.466,12.479-4.08,14.882c-1.131,0.31-2.092,0.788-2.88,1.439c-1.044,0.076-1.519,0.723-2.4,0.96
	c0.004-0.716,0.624-0.814,0.721-1.438c-0.505,0.074-1.434,0.683-1.2-0.48c-0.079,0-0.159,0-0.239,0
	c-0.632-0.071-0.188,0.933-0.96,0.72c-1.153-0.078-1.438-0.138-2.881-0.238c-0.112,0.752,0.604,0.676,0.96,0.96
	c1.916,1.412,6.272,4.017,3.12,6.24c-3.021,0.36-3.86-3.486-6.721-4.08c-0.014-0.146-0.035-0.284-0.239-0.24
	c-0.816-1.618-2.169,0.75-2.642,1.68c1.411,0.653,2.804,1.983,2.16,3.36c0.069,1.884-0.55,3.625-0.72,4.561
	c-0.397,0.336-0.397,2.306,0,2.642c0.104,1.39,0.431,3.071,0.72,4.08c0.355,0.125,0.605,0.354,0.96,0.479
	c1.145,0.652,3.119,1.195,3.602,1.2c1.448,0.149,2.5,0.699,3.601,1.199c0.791,0.568,1.782,0.938,2.641,1.439
	c7.279,3.04,14.857,6.982,16.082,14.161c-0.32,0-0.642,0-0.961,0c-0.33-0.789-0.63-1.61-0.961-2.4
	c-0.43-0.93-0.938-1.779-1.68-2.398c-0.423-0.218-0.396-0.884-0.96-0.961c-0.375-0.744-1.021-1.221-1.681-1.68
	c-1.559-0.728-1.713-1.529-3.36-1.921c-0.891-0.873-2.558-2.236-3.6-2.159c-0.7-0.261-0.903-1.019-1.921-0.96
	c-0.324-0.637-1.346-0.575-1.921-0.961c-2.509-1.354-4.368-1.875-7.439-2.641c-1.271-0.729-3.124-0.876-3.84-2.16
	c-0.323-1.52,0.106-1.911-0.48-3.601c0-0.96,0-1.92,0-2.88c0.39-2.063,0.425-4.752,1.2-5.762c-0.602-0.997-1.372-1.827-2.641-2.159
	c-0.354,0.125-0.604,0.354-0.961,0.479c-0.037,0.918-0.143,1.903,0.722,1.92c-1.533,2.721-5.175,2.188-9.121,2.16
	c-0.501-0.379-1.263-0.498-2.16-0.479c-1.181-0.419-2.263-0.938-3.601-1.2c-0.615-0.745-1.763-0.958-2.16-1.92
	c0.029-0.722,1.456-0.678,0.72-1.44c0-0.239,0-0.479,0-0.72c-2.134,1.065-5.073,1.327-4.8,4.801c-0.014,1.054,0.096,1.983,0.48,2.64
	c-0.474,2.368,1.81,6.216-0.721,8.401c-0.854,0.738-2.697,1.68-3.84,2.16c-5.453,2.29-13.074,3.896-16.801,7.439
	c-2.307,2.191-4.061,4.152-5.041,8.4c-0.48,0-0.96,0-1.44,0c1.583-5.17,3.124-8.017,6.961-10.561
	c3.448-2.287,7.402-3.666,11.281-5.041c2.778-0.984,7.229-1.606,8.401-4.08c1.061-2.241-1.136-7.312-0.721-10.802
	c0.316-2.656,3.078-2.396,5.041-4.561c-1.164-1.59-3.635,0.039-4.8,0.24c-2.106-0.907-3.181-0.302-4.561-0.96
	c0.564,0.064,0.146,1.063-0.24,0.96c-1.272-1.377-0.939-0.241-2.64,0c-1.163,0.035-2.211-1.299-3.36-0.48
	c-1.851,0.331-2.006-1.033-2.88-1.68c-0.615-0.505-0.914-1.326-0.96-2.4c-0.214-0.984-0.782-1.616-0.96-2.64
	c-0.49,0.506,0.298,1.771,0,2.88c-0.015,0.146-0.036,0.284-0.24,0.24c-0.329-0.632-0.809-1.112-1.44-1.44
	c-0.054-0.187-0.006-0.474-0.239-0.479c-0.764-1.957-1.536-3.904-2.16-6c-0.854-5.25-0.744-12.246,0.72-18.243
	c0.701-0.991,0.384-1.524,0.96-2.64c0.369-2.729,1.409-5.256,2.88-7.441c0.582-0.864,2.384-2.386,2.4-2.88
	c0.033-0.928-1.941-1.568-1.92-2.641c-0.298-0.742-0.592-1.488-1.2-1.92c-0.356-0.204-0.516-0.604-0.48-1.2
	c-0.173-0.947-0.297-1.942-0.72-2.64c0-0.16,0-0.32,0-0.48c0.369-0.751,0.382-1.858,0.48-2.88
	c4.178-8.518,17.306-12.216,26.882-8.641C81.479,28.466,82.935,28.772,84.051,29.417z M98.692,27.976
	c-1.973-2.097-3.586,1.229-4.32,2.641c-0.83,1.65-1.128,3.833-2.641,4.8c-6.894-4.756-14.051-8.861-22.803-7.681
	c-3.658,0.493-6.137,2.604-8.881,3.36c-2.021,1.961-5.544,3.554-5.76,7.44c-0.19,3.425,2.099,6.601,4.56,8.641
	c0.78-0.5,1.564-0.996,2.4-1.44c4.397-1.469,11.282-0.742,14.161,0.24c10.707,3.65,21.113,12.071,34.083,14.881
	c1.095,1.341,2.569,0.907,3.601,2.4c-0.319,0-0.641,0-0.96,0c-0.092,0.892,0.974,0.627,0.72,1.68
	c5.404-0.084,8.986-3.851,6.722-7.681c-0.7-0.74-0.9-1.979-1.92-2.4c-2.657-4.514-7.574-6.646-11.521-9.841
	c-0.587-0.475-0.835-1.233-1.439-1.68c-3.871-2.863-8.724-4.448-11.762-7.92c0.323-1.197,1.13-1.911,1.44-3.12
	c0.014-0.146,0.036-0.284,0.24-0.24c0.785-0.735,1.831-1.208,2.398-2.16c1.087-0.034,1.258-0.984,2.4-0.96
	C99.453,28.335,99.044,28.185,98.692,27.976z M69.65,49.577c-1.403,1.307-0.766,5.561,0.479,5.041
	C69.382,53.73,69.747,51.649,69.65,49.577z M73.25,53.898c-0.137-1.349,0.091-1.571-0.479-2.4
	C72.58,51.862,72.666,53.555,73.25,53.898z M65.329,56.539c0,0.32,0,0.64,0,0.96c0.218,2.042,0.031,2.541-0.48,4.08
	c-0.213,0.427-0.67,0.61-0.479,1.44c-0.344,0.295-0.455,0.825-0.48,1.44c-0.145,0.575-0.345,1.095-0.239,1.92
	c-0.664,0.845-0.594,2.637-0.48,3.601c0,0.24,0,0.48,0,0.72c-0.279,0.141-0.039,1.783,0.24,2.16c1.223,4.655,3.127,7.146,5.76,10.32
	c0.895,1.186,2.069,2.092,2.88,3.36c1.539,1.582,2.862,3.379,4.8,4.561c0.515,0.927,1.582,1.299,2.642,1.681
	c0.435,0.686,1.466,0.773,2.399,0.96c1.478,0.506,3.044,0.282,4.32,0.24c1.044,0.048,1.746,0.272,2.641-0.24
	c1.379-0.141,2.552-0.489,3.36-1.199c0.933-0.563,2.538-1.546,2.4-2.4c-0.389-0.818-2.678-3.079-4.081-2.88
	c-0.767,0.033-0.794,0.806-1.439,0.96c-0.662,0.218-1.686,0.074-2.16,0.479c-1.371-0.083-2.01-0.052-3.36-0.479
	c-1.564,0.412-2.605-1.928-3.841-2.881c-0.909-0.702-2.99-0.491-2.399-2.399c2.804-0.315,5.899-0.342,8.161-1.2
	c0.279,0.04,0.26,0.38,0.24,0.721c1.25-1.454,4.576,0.07,6.24-0.48c0.965-0.084,1.756,0.004,1.92,0.721
	c-0.421,0.369-1.625,1.879-0.239,1.921c1.21,0.87,2.186,1.976,3.601,2.641c0.278-0.843,0.944-1.296,0.96-2.4
	c0.664-0.695,1.166-1.555,1.2-2.881c1.078-1.235,0.87-2.438,1.439-4.319c0.472-0.649,0.647-1.593,0.721-2.641
	c-0.117-0.758,0.433-0.848,0.24-1.681c0.88-2.08,1.597-4.323,1.68-7.2c0.657-1.667-0.355-1.682-0.239-3.601c0.08,0,0.16,0,0.239,0
	c-0.165-1.03-0.09-1.586-0.239-2.16c-2.009-0.392-3.187-1.614-5.041-2.16c-0.08,0-0.16,0-0.24,0c-1.592-1.063-3.755,0.487-5.76-0.24
	c0,0.08,0,0.16,0,0.24c-0.08,0-0.16,0-0.24,0c0-0.08,0-0.16,0-0.24c-1.345,0.631-1.5-1.375-2.399-1.92
	c-0.266,0.727-0.455,2.431,0,3.121c-1.291,1.104-2.021-1.418-3.12-0.48c0,0.08,0,0.16,0,0.24c-2.9-0.403-6.941-1.064-8.881-0.48
	c-0.08,0-0.16,0-0.24,0c-1.029-0.453-2.532-0.446-3.601-0.24c-0.08,0-0.16,0-0.24,0c-1.188-0.167-2.884-0.219-4.081,0.24
	c-0.282,0.038-0.681-0.042-0.72,0.24c-0.319,0.036-0.725-0.976-0.961-0.24c0.776,0.276-0.645,0.271-0.959,0.24
	c-0.313-0.888-0.797-1.604-0.961-2.64c0.194,0.095,0.082-1.499-0.239-1.68C65.167,54.776,65.378,55.788,65.329,56.539z
	 M53.088,74.061c1.048-1.767,0.947-7.651,1.44-9.841C52.882,67.28,53.596,71.699,53.088,74.061z M55.488,78.381
	c0.006-2.407-0.125-5.297,0-8.401c-0.282,0.038-0.682-0.042-0.72,0.24C55.317,72.317,54.255,74.845,55.488,78.381z M62.209,75.739
	c0.32,0,0.64,0,0.96,0c-0.236-0.712-0.339-1.184-0.48-1.44c-0.051,0.29-0.266,0.148-0.479,0
	C62.209,74.779,62.209,75.26,62.209,75.739z M63.409,76.94c-0.48,0-0.96,0-1.44,0c-0.125,0.355-0.354,0.605-0.479,0.96
	c-0.279,0.041-0.26,0.38-0.24,0.722c-0.374,0.063-0.167,0.525,0,0.72c-0.333,0.239-0.006,1.897,0.72,2.399
	c0.927,0.271,1.109,0.567,2.16,0.239c0,0.08,0,0.16,0,0.24c0.897,0.018,1.375-0.386,1.68-0.96c0.447-1.438-1.443-2.971-1.68-3.84
	C64.031,77.118,63.82,76.93,63.409,76.94z M102.293,77.659c-0.687,0.049-0.878,1.825-0.721,1.922c0,0.079,0,0.159,0,0.238
	c0.362,0.598,1.068,0.853,2.16,0.722c0.104-0.457,0.518-0.604,0.479-1.2C104.736,78.023,103.455,76.898,102.293,77.659z
	 M109.493,77.659c0.435,2.615-0.321,3.756,0.479,6.241C110.488,82.008,110.761,79.77,109.493,77.659z M111.894,83.66
	c0.867,0.229,0.336-0.944,0.479-1.439C111.506,81.992,112.039,83.166,111.894,83.66z M85.731,83.66c-1.955-1.742-4.801,0.69-7.201,0
	c2.148,2.512,8.92,5.956,11.041,2.16c-3.171-0.279-6.69,0.558-9.121-1.439c2.784-0.144,4.861,0.42,7.68,0.24
	c0.606-1.395,3.753-0.248,4.321-1.681C90.05,83.041,86.971,81.98,85.731,83.66z M92.932,85.341c-0.655-0.224-1.022-0.736-1.68-0.96
	c-0.036,0.524-0.604,0.516-1.2,0.479c-0.63,0.725,1.071,1.158,1.439,1.681c1.018,0.184,1.398,1.002,2.16,1.439
	c0.555,0.886,1.742,1.14,2.399,1.92c1.019,0.184,1.399,1.002,2.16,1.44c0.455,0.593,1.844,1.506,2.16,1.439
	c0.331,0.011,0.527-0.112,0.721-0.239c-0.162-2.575-4.082-3.427-5.761-5.28C94.777,86.375,93.591,86.123,92.932,85.341z
	 M60.049,87.501c0.011-0.822-0.425-2.438-0.96-1.92C59.524,86.02,59.066,87.137,60.049,87.501z M102.053,92.302
	c-1.104,0.584-0.516,2.424,0.96,2.399c0.903-0.922,0.045-1.856-0.72-2.399C102.213,92.302,102.133,92.302,102.053,92.302z
	 M82.131,95.182c-1.621-0.224-3.742-2.222-4.8-1.439c0.08,0,0.16,0,0.24,0c0,0.08,0,0.16,0,0.24c-0.355,0.044-0.221,0.579-0.24,0.96
	c0.515,0.445,1.278,0.643,2.16,0.721c1.874,0.804,3.436,1.352,5.76,1.199c0.259,0.397,2.143,0.397,2.4,0
	c0.678,0.218,2.062,0.086,2.64-0.479c0.747-0.053,0.406-1.194,0.479-1.92c-0.428,0.133-0.996,0.123-1.199,0.479
	c-0.81,0.07-1.641,0.12-2.16,0.479C86.17,95.28,84.61,95.355,82.131,95.182z"/>
<path fill="#6A5D52" d="M80.451,27.735c1.352,0.409,2.718,0.802,3.6,1.68C82.935,28.772,81.479,28.466,80.451,27.735z"/>
<path fill="#6A5D52" d="M52.128,58.458c-0.577,1.116-0.259,1.649-0.96,2.64C51.08,59.811,51.528,59.059,52.128,58.458z"/>
<path fill="#6A5D52" d="M50.448,79.341c0.625,2.096,1.396,4.043,2.16,6C51.499,83.73,50.684,81.824,50.448,79.341z"/>
<path fill="#6A5D52" d="M52.848,85.82c0.632,0.328,1.112,0.81,1.44,1.44C53.795,87.737,53.137,86.345,52.848,85.82z"/>
<path fill="#6A5D52" d="M96.772,37.096c-1.238-0.443-2.432-0.93-2.882-2.16c1.419-2.182,3.03-4.17,5.762-5.041
	c-2.236,1.364-4.384,2.817-5.521,5.28C94.941,35.887,95.805,36.544,96.772,37.096z"/>
<path fill="#6A5D52" d="M119.334,121.345c0.741,0.619,1.25,1.47,1.68,2.398C120.329,123.068,119.747,122.291,119.334,121.345z"/>
<path fill="#6A5D52" d="M116.693,118.704c0.661,0.459,1.306,0.936,1.681,1.68C117.764,119.935,116.39,119.306,116.693,118.704z"/>
<path fill="#6A5D52" d="M109.733,114.624c1.042-0.077,2.709,1.286,3.6,2.159C112.009,116.188,111.047,115.23,109.733,114.624z"/>
<path fill="#6A5D52" d="M94.612,107.902c0.716,1.284,2.567,1.433,3.84,2.16C96.833,109.804,95.17,109.598,94.612,107.902z"/>
<path fill="#6A5D52" d="M76.13,93.021c0.735,0.764-0.691,0.72-0.72,1.44c0.397,0.962,1.545,1.175,2.16,1.92
	c-1.386-0.215-1.862-1.338-2.641-2.16c-0.008-0.729,1.208-0.232,1.2-0.96C75.858,93.216,75.997,93.021,76.13,93.021z"/>
<path fill="#6A5D52" d="M71.33,97.103c0.362,0.678,0.423,1.656,0.479,2.64C71.426,99.086,71.316,98.155,71.33,97.103z"/>
<path fill="#6A5D52" d="M56.449,89.182c0.874,0.646,1.028,2.011,2.88,1.68C57.998,91.625,56.425,90.569,56.449,89.182z"/>
<path fill="#BA918D" d="M54.289,43.577c0.608,0.432,0.902,1.178,1.2,1.92C54.793,45.152,54.499,44.406,54.289,43.577z"/>
<path fill="#6A5D52" d="M53.088,39.736c0.422,0.698,0.547,1.693,0.72,2.64C53.041,41.502,53.187,41.206,53.088,39.736z"/>
<path fill="#6A5D52" d="M94.372,30.616c0.734-1.411,2.349-4.738,4.32-2.641c-0.256,0.817-0.075-0.667-0.722-0.24
	c-0.422,0.138-1.409-0.29-1.438,0.24C95.454,28.498,95.362,30.006,94.372,30.616z"/>
<path fill="#BA918D" d="M119.574,57.258c2.266,3.83-1.316,7.596-6.722,7.681c0.254-1.053-0.812-0.789-0.72-1.68
	c0.319,0,0.64,0,0.96,0c-1.031-1.493-2.506-1.06-3.601-2.4c-12.97-2.81-23.376-11.23-34.083-14.881
	c-2.879-0.982-9.764-1.709-14.161-0.24c-0.836,0.444-1.621,0.939-2.4,1.44c-2.461-2.04-4.75-5.215-4.56-8.641
	c0.216-3.886,3.738-5.479,5.76-7.44c2.744-0.757,5.223-2.867,8.881-3.36c8.751-1.181,15.909,2.924,22.803,7.681
	c1.513-0.968,1.811-3.15,2.641-4.8c0.99-0.609,1.082-2.119,2.16-2.641c0.544-0.015,1.856,0.64,1.438-0.24
	c0.646-0.428,0.466,1.057,0.722,0.24c0.352,0.209,0.761,0.359,0.72,0.96c-1.144-0.024-1.313,0.926-2.4,0.96
	c-0.57,0.388-1.058,0.862-1.68,1.2c-0.388,0.067-0.413-0.227-0.72-0.24c0.185,0.613-0.939,1.104-0.24,1.44
	c-0.311,1.209-1.117,1.923-1.44,3.12c3.038,3.473,7.891,5.058,11.762,7.92c0.604,0.447,0.854,1.205,1.439,1.68
	c3.947,3.194,8.864,5.327,11.521,9.841C118.437,55.517,118.596,56.796,119.574,57.258z"/>
<path fill="#6A5D52" d="M117.654,54.858c1.02,0.421,1.22,1.661,1.92,2.4C118.596,56.796,118.437,55.517,117.654,54.858z"/>
<path fill="#6A5D52" d="M94.612,32.057c0.069-0.489,0.648-0.471,0.72-0.96c0.622-0.338,1.108-0.813,1.68-1.2
	C96.443,30.847,95.397,31.321,94.612,32.057z"/>
<path fill="#CDB171" d="M96.532,27.976c0.029-0.53,1.018-0.102,1.438-0.24C98.39,28.615,97.076,27.961,96.532,27.976z"/>
<path fill="#BA918D" d="M69.169,83.181c1.177,0.984,2.344,1.978,3.121,3.36c-0.08,0-0.16,0-0.24,0
	C71.238,85.272,70.063,84.365,69.169,83.181z"/>
<path fill="#6A5D52" d="M72.05,86.541c0.08,0,0.16,0,0.24,0c1.501,1.54,2.944,3.137,4.56,4.561
	C74.912,89.92,73.588,88.123,72.05,86.541z"/>
<path fill="#6A5D52" d="M79.491,92.781c0.707,0.412,1.947,0.291,2.399,0.96C80.957,93.556,79.926,93.467,79.491,92.781z"/>
<path fill="#BA918D" d="M86.211,93.982c-0.106-0.823,1.698,0.084,2.642-0.24C87.957,94.255,87.255,94.029,86.211,93.982z"/>
<path fill="#BA918D" d="M92.212,92.542c1.442-1.176,3.046-2.542,0.72-3.842c0.526,0.516,1.333,0.747,1.682,1.44
	C94.75,90.996,93.144,91.979,92.212,92.542z"/>
<path fill="#6A5D52" d="M94.612,90.142c-0.349-0.693-1.154-0.926-1.682-1.44c-1.199-0.078-1.209-1.351-2.399-1.438
	C91.937,87.063,94.225,89.322,94.612,90.142z"/>
<path fill="#6A5D52" d="M93.892,82.7c-0.015,0.734-0.881,1.25-0.239,1.921C92.267,84.579,93.471,83.069,93.892,82.7z"/>
<path fill="#6A5D52" d="M98.212,84.86c0.507-0.854,0.689-2.03,1.2-2.881C99.378,83.307,98.876,84.165,98.212,84.86z"/>
<path fill="#6A5D52" d="M100.853,77.659c0.174-0.945,0.299-1.942,0.721-2.64C101.5,76.067,101.323,77.011,100.853,77.659z"/>
<path fill="#6A5D52" d="M101.812,73.339c0.5-2.305,1.024-4.439,1.681-7.2C103.409,69.017,102.692,71.259,101.812,73.339z"/>
<path fill="#6A5D52" d="M98.212,58.218c1.854,0.546,3.032,1.768,5.041,2.16c0.149,0.574,0.074,1.13,0.239,2.16
	c-0.079,0-0.159,0-0.239,0c0.023-0.744-0.294-1.146-0.48-1.68c-0.027-0.401-1.022,0.274-0.959-0.72
	c-0.093-0.078-0.398,0.364-0.24,0.48C100.565,59.881,97.84,58.458,98.212,58.218z"/>
<path fill="#6A5D52" d="M92.212,58.218c0-0.08,0-0.16,0-0.24c2.005,0.727,4.168-0.823,5.76,0.24c-1.54,0.201-3.234-0.222-4.08,0.72
	c-0.378-0.125-1.284-0.924-1.68-0.24C91.922,58.647,92.063,58.433,92.212,58.218z"/>
<path fill="#6A5D52" d="M86.451,58.698c1.1-0.938,1.829,1.585,3.12,0.48c-0.455-0.69-0.266-2.394,0-3.121
	c0.899,0.545,1.056,2.551,2.399,1.92c0,0.08,0,0.16,0,0.24c-0.734,1.184-1.745-0.349-1.92-1.2c-0.956,0.958,0.234,1.613-0.721,2.88
	C87.872,59.999,87.537,58.972,86.451,58.698z"/>
<path fill="#6A5D52" d="M66.771,58.698c0.314,0.032,1.735,0.037,0.959-0.24c0.236-0.736,0.642,0.276,0.961,0.24
	c-0.208,0.698-0.359,0.27-0.961,0.24C67.371,58.897,66.844,59.024,66.771,58.698z"/>
<path fill="#BA918D" d="M65.81,56.059c0.164,1.037,0.648,1.752,0.961,2.64c0.073,0.326,0.601,0.199,0.959,0.24
	c-0.242,0.676-1.02-0.066-1.439,0c0.536-0.606-0.524-1.072-0.48-1.92c-0.261,0.06-0.162,0.478-0.479,0.48c0-0.32,0-0.64,0-0.96
	C65.59,56.479,65.492,56.062,65.81,56.059z"/>
<path fill="#BA918D" d="M101.572,63.258c0.411-0.05,0.622,0.409,0.721,0c0.19,0.027,0.728,0.793,0.239,0.72
	c0.041-0.521-0.852-0.109-1.2-0.24C100.996,63.654,101.312,63.316,101.572,63.258z"/>
<path fill="#272923" d="M100.133,62.539c-0.204,1.293,0.649,0.243,0.96,0c0.308-0.013,0.332-0.308,0.721-0.24
	c-0.163,0.557-0.613,0.827-0.961,1.2c0.059,0.261,0.396,0.576,0.479,0.24c0.35,0.131,1.241-0.28,1.2,0.24c0,0.08,0,0.16,0,0.24
	c-0.454,0.266-1.135,0.306-1.68,0.48c0,0.32,0,0.64,0,0.96c0,0.08,0,0.16,0,0.24c-0.438,0.362-0.564,1.036-0.961,1.44
	c-0.399,0.399-1.154,0.445-1.439,0.96c-1.728,0.647-3.047,0.739-4.562,1.2c-1.433-0.464-2.027-0.335-3.601-0.72
	c-0.354-0.605-0.928-0.992-1.68-1.2c-0.338-3.348,2.833-4.914,5.521-6C96.621,61.462,99.365,61.643,100.133,62.539z M97.252,63.979
	c0.08,0,0.16,0,0.24,0c0.506-0.534,1.419-0.661,1.68-1.44c-1.285-0.469-2.819-0.618-3.84-0.24c-1.103,0.097-2.129,0.271-2.641,0.96
	c-1.29,0.39-2.034,1.326-2.641,2.4c1.345-0.45,2.614-0.658,4.32-1.2c1.201,0.162,1.856-0.222,2.88-0.24
	C97.252,64.138,97.252,64.06,97.252,63.979z M99.652,66.379c0.419-0.221,0.528-0.75,0.479-1.44c-0.813,0.114-3.238-0.788-3.601,0.72
	c-0.407,2.438-3.612,1.586-4.802,0.48c-0.195,0.604-1.266,0.334-1.68,0.72C92.281,69.519,96.614,68.025,99.652,66.379z"/>
<path fill="#6A5D52" d="M88.611,67.58c0.752,0.208,1.325,0.595,1.68,1.2C89.592,68.52,88.872,68.278,88.611,67.58z"/>
<path fill="#6A5D52" d="M93.892,69.5c1.515-0.461,2.834-0.553,4.562-1.2c-0.589,0.931-2.164,0.876-3.36,1.2
	C94.496,69.188,93.927,70.034,93.892,69.5z"/>
<path fill="#BA918D" d="M100.853,65.899c0.58,0.218-0.544,0.708-0.239,1.44c-0.315-0.288-0.377-0.094-0.72,0
	C100.288,66.935,100.414,66.26,100.853,65.899z"/>
<path fill="#6A5D52" d="M100.853,65.659c0-0.32,0-0.64,0-0.96c0.547-0.174,1.227-0.214,1.681-0.48
	c-0.104,0.857-1.754,0.167-1.439,1.44C101.013,65.659,100.933,65.659,100.853,65.659z"/>
<path fill="#BA918D" d="M91.972,81.98c0.43-0.834,2.691-0.169,1.92,0.721C93.728,81.983,92.937,81.896,91.972,81.98z"/>
<path fill="#272923" d="M83.571,88.7c-3.123-1.415-5.194-2.898-6.722-5.521c0.241,0.001,0.286-0.194,0.48-0.239
	c-0.591,1.908,1.49,1.697,2.399,2.399c1.235,0.953,2.276,3.293,3.841,2.881C83.571,88.382,83.571,88.542,83.571,88.7z"/>
<path fill="#BA918D" d="M63.169,70.699c0.427,0.769,0.466,1.211,0.24,2.16C63.13,72.483,62.89,70.84,63.169,70.699z"/>
<path fill="#CDB171" d="M71.57,69.02c2.922,0.824,4.905,0.709,7.44,0c-1.69,1.653-5.865,0.371-6.961,0.96
	C71.448,69.557,71.881,69.583,71.57,69.02z"/>
<path fill="#6A5D52" d="M72.05,61.338c2.63-0.621,8.178,0.868,8.881,4.08C79.551,62.562,75.442,61.413,72.05,61.338z"/>
<path fill="#6A5D52" d="M69.41,62.059c0.344-0.546,2.005-1.021,2.399-0.72C71.059,61.627,70.301,61.909,69.41,62.059z"/>
<path fill="#BA918D" d="M64.849,61.579c0.581,0.218-0.544,0.708-0.239,1.44c0.664-0.03,0.823-0.458,0.479,0.24
	c-0.16,0-0.32,0-0.479,0c0.044-0.204-0.095-0.227-0.24-0.24C64.179,62.188,64.636,62.005,64.849,61.579z"/>
<path fill="#6A5D52" d="M73.49,58.218c0.196,0.59-3.044,0.438-4.081,0.24C70.606,58,72.302,58.051,73.49,58.218z"/>
<path fill="#6A5D52" d="M77.57,58.458c1.939-0.584,5.979,0.077,8.881,0.48c0.001,0.241-0.194,0.286-0.24,0.48
	C83.188,58.609,80.56,58.799,77.57,58.458z"/>
<path fill="#6A5D52" d="M64.609,63.258c0.946,2.894,4.213,3.468,6,5.521c-2.226-1.375-4.774-2.426-6-4.8
	c-0.473-0.072-0.477,0.324-0.721,0.48c0.025-0.615,0.137-1.145,0.48-1.44C64.516,63.032,64.653,63.054,64.609,63.258z"/>
<path fill="#6A5D52" d="M65.089,63.258c0.478,0.003,0.305,0.655,0.96,0.48c0-0.08,0-0.16,0-0.24c0.342,0.293,0.545,0.916,0.24,1.2
	C65.696,64.413,65.351,63.877,65.089,63.258z"/>
<path fill="#6A5D52" d="M67.249,62.539c-0.091,0.812,0.416,1.024,0.72,1.44c-0.649,0.477-0.928-1.463-2.16-1.2
	C66.26,62.491,67.195,62.646,67.249,62.539z"/>
<path fill="#6A5D52" d="M67.49,62.539c0.895,0.408,0.38-0.142,1.2-0.24c-0.127,0.193-0.25,0.39-0.24,0.72
	c1.001,0.041,1.184-0.736,2.16-0.72c0.065,0.992-2.294,0.411-1.44,1.44C68.459,63.488,67.999,62.988,67.49,62.539z"/>
<path fill="#BA918D" d="M78.05,64.939c0.298-0.331,0.698-0.138,1.2,0.24c-0.101-0.86-1.396-0.525-1.44-1.44
	c0.558,0.643,1.839,0.562,1.92,1.68C78.986,65.443,78.584,65.125,78.05,64.939z"/>
<path fill="#6A5D52" d="M101.093,62.539c-0.242-0.722,0.534-0.425,0.96-0.48c-0.021,0.341-0.04,0.68,0.24,0.72
	c-0.055,0.346-0.717,0.083-0.721,0.48c-0.261,0.058-0.576,0.396-0.24,0.48c-0.084,0.336-0.422,0.021-0.479-0.24
	c0.348-0.373,0.798-0.643,0.961-1.2C101.425,62.231,101.399,62.525,101.093,62.539z"/>
<path fill="#CDB171" d="M90.291,68.779c1.572,0.385,2.168,0.256,3.601,0.72c0.035,0.535,0.604-0.312,1.2,0
	c-1.021,1.171-2.481-0.596-3.84,0.24C91.944,68.74,89.99,69.648,90.291,68.779z"/>
<path fill="#BA918D" d="M95.332,62.298c1.021-0.378,2.555-0.229,3.84,0.24c-0.261,0.779-1.174,0.906-1.68,1.44
	c-0.08,0-0.16,0-0.24,0c0-0.08,0-0.16,0-0.24c0.425-0.216,0.701-0.579,1.2-0.72c-0.277-0.922-2.104-0.297-3.12-0.48
	C95.332,62.459,95.332,62.379,95.332,62.298z"/>
<path fill="#BA918D" d="M71.81,63.5c0.08,0,0.16,0,0.24,0c0.163,0.185,0.798,0.365,0.96-0.24c0.244,0.156,0.249,0.552,0.72,0.48
	C72.72,63.853,72.804,64.617,71.81,63.5z"/>
<path fill="#BA918D" d="M71.57,63.5c-0.076,0.564-1.139,0.142-0.96,0.96C69.467,63.707,70.89,63.48,71.57,63.5z"/>
<path fill="#BA918D" d="M94.372,64.459c-1.186-0.011-1.628-0.049-2.16-0.24c0.906-0.723,0.619-0.866,2.16-1.2
	c-0.335-0.625-1.242,0.175-1.681,0.24c0.512-0.689,1.538-0.863,2.641-0.96c0,0.08,0,0.16,0,0.24c0.127,0.193,0.25,0.39,0.24,0.72
	c0.463-0.435,1.216,0.194,1.68,0.48c0,0.08,0,0.16,0,0.24s0,0.16,0,0.24C96.229,64.236,95.573,64.621,94.372,64.459z"/>
<path fill="#BA918D" d="M97.252,63.738c-0.464-0.286-1.217-0.915-1.68-0.48c0.01-0.331-0.113-0.527-0.24-0.72
	c1.018,0.183,2.843-0.442,3.12,0.48C97.953,63.159,97.677,63.523,97.252,63.738z"/>
<path fill="#BA918D" d="M72.05,63.5c-0.238-0.911,1.915-0.156,2.16-0.48c0.4,0,0.8,0,1.2,0c0.715,0.281,1.425,0.048,2.16,0.72
	c-0.08,0-0.16,0-0.24,0c-0.601,0.456-0.943-0.199-1.68,0.24c0.058,0.422,0.413,0.547,0.96,0.48c0.08,0,0.16,0,0.239,0
	c0,0.08,0,0.16,0,0.24c-3.274-1.032-5.126,1.13-7.681-0.96c-0.854-1.029,1.507-0.448,1.44-1.44c0.399,0,0.8,0,1.199,0
	c-0.449,0.457-0.025,0.603,0,1.2c0.994,1.118,0.91,0.353,1.921,0.24c-0.473,0.072-0.477-0.324-0.721-0.48
	C72.848,63.864,72.212,63.685,72.05,63.5z M70.61,64.459c-0.179-0.818,0.884-0.396,0.96-0.96
	C70.89,63.48,69.467,63.707,70.61,64.459z"/>
<path fill="#BA918D" d="M92.691,63.258c0.438-0.065,1.346-0.864,1.681-0.24c-1.541,0.333-1.254,0.477-2.16,1.2
	c0.532,0.191,0.975,0.229,2.16,0.24c-1.706,0.542-2.977,0.75-4.32,1.2C90.657,64.585,91.401,63.648,92.691,63.258z"/>
<path fill="#BA918D" d="M76.85,64.459c-0.079,0-0.159,0-0.239,0c-0.547,0.067-0.902-0.058-0.96-0.48
	c0.736-0.439,1.079,0.216,1.68-0.24c-0.088,0.408,0.187,0.453,0.479,0.48C77.745,65.061,76.748,63.785,76.85,64.459z"/>
<path fill="#BA918D" d="M77.331,63.738c0.08,0,0.16,0,0.24,0s0.16,0,0.24,0c0.045,0.915,1.339,0.581,1.439,1.44
	c-0.502-0.378-0.902-0.571-1.2-0.24c-0.557,0.077-0.921-0.039-1.2-0.24c0-0.08,0-0.16,0-0.24c-0.103-0.674,0.896,0.602,0.961-0.24
	C77.519,64.192,77.242,64.147,77.331,63.738z"/>
<path fill="#6A5D52" d="M54.528,64.218c-0.493,2.19-0.393,8.075-1.44,9.841C53.596,71.699,52.882,67.28,54.528,64.218z"/>
<path fill="#D3C5A0" d="M96.532,65.659c0.521-0.757,2.152-0.406,3.359-0.48c0.198,0.678-0.339,0.622-0.239,1.2
	c-3.038,1.647-7.371,3.14-9.602,0.48c0.414-0.386,1.483-0.117,1.681-0.72C92.92,67.246,96.125,68.097,96.532,65.659z"/>
<path fill="#D3C5A0" d="M96.532,65.659c0.361-1.508,2.786-0.606,3.601-0.72c0.049,0.69-0.062,1.219-0.479,1.44
	c-0.1-0.578,0.438-0.521,0.24-1.2C98.687,65.253,97.055,64.901,96.532,65.659z"/>
<path fill="#D3C5A0" d="M78.771,67.819c0.298-0.502,0.697-0.902,1.199-1.2c-1.354-1.311-3.637-0.546-4.319,0.72
	c0.334-0.706,1.172-0.908,1.199-1.92c1.462,0.273,1.608,0.399,3.121,0.48C80.476,66.865,79.346,67.25,78.771,67.819z"/>
<path fill="#D3C5A0" d="M72.53,66.379c0.08,0,0.16,0,0.24,0c0.48,0.399,0.889,0.871,1.68,0.96c0.006,0.233,0.294,0.186,0.479,0.24
	C74.12,68.139,72.918,67.039,72.53,66.379z"/>
<path fill="#BA918D" d="M63.649,66.379c0.187,0.596-0.262,2.613-0.48,3.601C63.056,69.017,62.985,67.224,63.649,66.379z"/>
<path fill="#6A5D52" d="M54.769,70.219c0.039-0.281,0.438-0.202,0.721-0.24c-0.125,3.104,0.006,5.994,0,8.401
	C54.255,74.845,55.317,72.317,54.769,70.219z"/>
<path fill="#272923" d="M88.371,75.5c0.502-0.102,0.636,0.165,0.96,0.24c-0.436,1.807-2.271,2.209-3.84,2.882
	c-1.001-0.841-4.301-0.524-4.32-2.642c1.731,0.226,3.341,1.73,5.04,1.2C87.052,76.739,88.194,76.604,88.371,75.5z"/>
<path fill="#6A5D52" d="M81.171,75.98c0.021,2.116,3.319,1.801,4.32,2.642c0,0.078,0,0.158,0,0.238
	c-1.893-0.106-2.73-1.27-4.562-1.438c-0.021-0.897-0.269-0.686,0-1.44C81.011,75.98,81.091,75.98,81.171,75.98z"/>
<path fill="#BA918D" d="M61.969,81.74c-0.727-0.502-1.053-2.16-0.72-2.399c0.24,0,0.48,0,0.72,0
	c-0.541,0.434-0.564,1.212-0.239,1.92C61.774,81.455,61.97,81.5,61.969,81.74z"/>
<path fill="#6A5D52" d="M64.129,77.421c0.236,0.869,2.127,2.402,1.68,3.84c-0.038-0.282,0.041-0.682-0.239-0.72
	c-0.185-0.856-0.619-1.462-1.2-1.92c0.039-0.279-0.053-0.429-0.24-0.48c0-0.16,0-0.32,0-0.48
	C64.129,77.58,64.129,77.501,64.129,77.421z"/>
<path fill="#BA918D" d="M61.489,77.9c0.041,0.28,0.379,0.262,0.72,0.24c0.28-0.04,0.261-0.38,0.24-0.72
	c0.187,0.053,0.278,0.2,0.239,0.479c0.422-0.242,1.289-0.415,0.721-0.96c0.411-0.011,0.622,0.179,0.72,0.48c0,0.08,0,0.159,0,0.238
	c-0.502-0.102-0.636,0.165-0.96,0.24c-0.378,0.423-1.285,0.314-1.68,0.721c-0.08,0-0.16,0-0.24,0
	C61.229,78.279,61.209,77.941,61.489,77.9z"/>
<path fill="#BA918D" d="M63.409,76.94c0.566,0.545-0.299,0.718-0.721,0.96c0.039-0.278-0.053-0.427-0.239-0.479
	c0.021,0.34,0.04,0.68-0.24,0.72c-0.341,0.021-0.68,0.04-0.72-0.24c0.125-0.354,0.354-0.604,0.479-0.96
	C62.449,76.94,62.929,76.94,63.409,76.94z"/>
<path fill="#BA918D" d="M104.213,79.341c-0.673-0.235,0.349-0.642-0.24-0.96c-0.159-1.07-0.616-0.453-1.68-0.722
	C103.455,76.898,104.736,78.023,104.213,79.341z"/>
<path fill="#BA918D" d="M63.169,77.9c0.325-0.075,0.458-0.342,0.96-0.24c0,0.16,0,0.32,0,0.48c-0.355,0.104,0.095,0.307,0,0.72
	c-0.261-0.059-0.163-0.477-0.479-0.479c-0.43-0.071-0.016,0.931,0.479,0.72c0.039,0.281,0.438,0.202,0.72,0.24
	c0.188,0.593,0.08,0.71,0.721,1.2c0.28,0.038,0.203,0.438,0.239,0.72c-0.192,0.127-0.39,0.251-0.72,0.24
	c0.088-0.408-0.187-0.453-0.479-0.48c-0.271-0.753,0.068-0.634-0.24-1.2c-0.145,0.359-1.208,1.002-0.72,1.2c0,0.08,0,0.16,0,0.24
	c-0.563,0.567-1.18-0.039-1.92,0c-0.325-0.708-0.301-1.486,0.239-1.92c-0.239,0-0.479,0-0.72,0c-0.167-0.193-0.374-0.657,0-0.72
	c0.08,0,0.16,0,0.24,0c0.463,0.443,0.189,0.438,0.96,0.238c0.044,0.204-0.095,0.228-0.24,0.24c-0.649,0.462,0.656,0.758-0.24,1.2
	c0.268,0.506,0.95-0.715,1.2,0.24c0.057-0.18,0.531-1.297-0.48-1.2C62.887,78.836,63.677,78.404,63.169,77.9z"/>
<path fill="#BA918D" d="M101.572,79.581c-0.157-0.097,0.034-1.873,0.721-1.922c1.063,0.269,1.521-0.35,1.68,0.722
	c-0.656,0.271-1.722-0.002-0.72-0.24C102.46,77.442,101.881,78.999,101.572,79.581z"/>
<path fill="#6A5D52" d="M109.974,83.9c-0.802-2.485-0.046-3.626-0.479-6.241C110.761,79.77,110.488,82.008,109.974,83.9z"/>
<path fill="#BA918D" d="M61.489,78.621c0.395-0.406,1.302-0.299,1.68-0.722c0.508,0.505-0.282,0.937-0.48,1.44
	c1.012-0.097,0.537,1.021,0.48,1.2c-0.25-0.955-0.933,0.266-1.2-0.24c0.896-0.442-0.409-0.738,0.24-1.2
	c0.146-0.014,0.284-0.036,0.24-0.24C61.679,79.061,61.952,79.065,61.489,78.621z"/>
<path fill="#BA918D" d="M101.572,79.581c0.309-0.582,0.888-2.14,1.681-1.44c-1.002,0.238,0.063,0.513,0.72,0.24
	c0.589,0.318-0.433,0.725,0.24,0.96c0.037,0.597-0.377,0.743-0.479,1.2c-1.092,0.131-1.797-0.124-2.16-0.722
	C101.572,79.74,101.572,79.66,101.572,79.581z"/>
<path fill="#BA918D" d="M64.129,79.101c0.614,0.011,0.292-0.179,0.24-0.479c0.582,0.458,1.017,1.063,1.2,1.92
	c-0.642-0.49-0.533-0.607-0.721-1.2C64.567,79.303,64.168,79.382,64.129,79.101z"/>
<path fill="#BA918D" d="M63.649,81.021c0.278,0.039,0.427-0.053,0.479-0.239c0.224,0.137,0.363,0.667,0.48,0.239
	c0.293,0.027,0.567,0.072,0.479,0.48c0.331,0.011,0.527-0.113,0.72-0.24c-0.306,0.574-0.782,0.978-1.68,0.96c0-0.08,0-0.16,0-0.24
	c0.324-0.075,0.458-0.341,0.96-0.239c-0.347-0.71-0.536-0.207-1.439-0.479C63.649,81.181,63.649,81.101,63.649,81.021z"/>
<path fill="#BA918D" d="M61.969,81.74c0-0.24-0.194-0.285-0.239-0.479c0.74-0.039,1.356,0.566,1.92,0
	c0.903,0.272,1.093-0.229,1.439,0.479c-0.502-0.102-0.636,0.164-0.96,0.239C63.078,82.309,62.896,82.011,61.969,81.74z"/>
<path fill="#D3C5A0" d="M72.05,81.021c0.281,0.039,0.203,0.438,0.24,0.721c-0.24,0-0.48,0-0.72,0
	c-0.044,0.204,0.094,0.228,0.239,0.239c0.687,0.278-0.388,0.278-0.479,0c0.147-0.213,0.29-0.429,0-0.479
	C71.384,81.154,72.046,81.417,72.05,81.021z"/>
<path fill="#6A5D52" d="M92.452,82.941c-0.568,1.433-3.715,0.286-4.321,1.681c-2.819,0.18-4.896-0.384-7.68-0.24
	c2.431,1.997,5.95,1.16,9.121,1.439c-2.121,3.796-8.893,0.352-11.041-2.159c2.4,0.689,5.246-1.743,7.201,0
	C86.971,81.98,90.05,83.041,92.452,82.941z"/>
<path fill="#6A5D52" d="M90.052,84.86c0.331,0.708,1.108,0.973,1.439,1.681C91.123,86.02,89.422,85.585,90.052,84.86z"/>
<path fill="#272923" d="M93.651,87.981c0.912,0.527,1.91,0.97,2.399,1.92C95.394,89.119,94.206,88.866,93.651,87.981z"/>
<path fill="#272923" d="M98.212,91.342c0.904,0.296,1.477,0.925,2.16,1.439C100.056,92.848,98.667,91.935,98.212,91.342z"/>
<path fill="#6A5D52" d="M95.332,87.262c-0.904-0.536-2.001-0.88-2.4-1.921C93.591,86.123,94.777,86.375,95.332,87.262z"/>
<path fill="#6A5D52" d="M59.089,85.581c0.535-0.52,0.971,1.098,0.96,1.92C59.066,87.137,59.524,86.02,59.089,85.581z"/>
<path fill="#6A5D52" d="M102.053,92.302c-0.282,1.146-0.428,1.822,0.721,2.16c0.674-0.003-0.571-0.654,0.479-0.479
	c-0.111-0.77-0.914-0.847-0.96-1.681c0.765,0.543,1.623,1.479,0.72,2.399C101.537,94.726,100.947,92.886,102.053,92.302z"/>
<path fill="#BA918D" d="M102.053,92.302c0.08,0,0.16,0,0.24,0c0.046,0.834,0.849,0.911,0.96,1.681
	c-1.052-0.175,0.193,0.478-0.48,0.479C101.625,94.124,101.771,93.447,102.053,92.302z"/>
<path fill="#6A5D52" d="M105.894,112.702c0.574,0.387,1.596,0.325,1.92,0.962c-0.89,0.009-1.392-0.369-1.92-0.722
	C105.894,112.862,105.894,112.782,105.894,112.702z"/>
<path fill="#6A5D52" d="M77.57,93.982c-0.455,1.654,1.436,0.964,1.92,1.681c-0.882-0.078-1.646-0.274-2.16-0.721
	C77.35,94.562,77.215,94.025,77.57,93.982z"/>
<path fill="#BA918D" d="M82.131,95.182c2.479,0.174,4.039,0.1,5.28,0.24C85.489,96.003,83.872,95.997,82.131,95.182z"/>
<path fill="#6A5D52" d="M82.131,95.182c-1.337,0.246-3.208-0.915-4.561-1.439c-0.08,0-0.16,0-0.24,0
	C78.389,92.96,80.51,94.958,82.131,95.182z"/>
<path fill="#CDB171" d="M77.57,93.982c0-0.08,0-0.16,0-0.24c1.353,0.524,3.223,1.687,4.561,1.439c1.741,0.815,3.358,0.821,5.28,0.24
	c0.521-0.359,1.352-0.409,2.16-0.479c0.319,0,0.641,0,0.96,0c0.174,0.733-0.245,0.874-0.24,1.439
	c-0.578,0.565-1.962,0.697-2.64,0.479c-0.198-0.035-2.122-0.13-2.4,0c-2.325,0.151-3.886-0.396-5.76-1.199
	C79.006,94.945,77.116,95.637,77.57,93.982z"/>
<path fill="#6A5D52" d="M90.291,96.382c-0.005-0.565,0.414-0.706,0.24-1.439c-0.319,0-0.641,0-0.96,0
	c0.203-0.356,0.771-0.348,1.199-0.479C90.697,95.188,91.038,96.329,90.291,96.382z"/>
<path fill="#6A5D52" d="M85.251,96.861c0.278-0.13,2.202-0.035,2.4,0C87.394,97.26,85.51,97.26,85.251,96.861z"/>
<path fill="#6A5D52" d="M72.05,96.622c0.284,0.069,0.907,0.967,1.2,0.239c0.695,0.136-0.368,0.374-0.24,0.721
	c-0.08,0-0.16,0-0.239,0c0,0.239,0,0.479,0,0.721c-0.454-0.347-0.056-1.546-0.961-1.44C71.766,96.657,71.903,96.636,72.05,96.622z"
	/>
<path fill="#BA918D" d="M71.33,97.103c-0.273-3.474,2.666-3.734,4.8-4.801c0,0.24,0,0.479,0,0.72c-0.133,0-0.271,0.194,0,0.24
	c0.007,0.728-1.208,0.231-1.2,0.96c0.778,0.822,1.255,1.945,2.641,2.16c1.337,0.263,2.419,0.781,3.601,1.2c0,0.08,0,0.159,0,0.239
	c1.016-0.358,1.542,0.996,2.16,0.24c3.946,0.026,7.588,0.561,9.121-2.16c-0.863-0.017-0.759-1.002-0.721-1.92
	c0.354-0.125,0.604-0.354,0.96-0.479c1.269,0.332,2.038,1.162,2.641,2.159c-0.775,1.01-0.812,3.699-1.2,5.762c-0.08,0-0.16,0-0.24,0
	c0.006,1.228-0.317,1.894,0.24,2.88c0.588,1.688,0.157,2.081,0.48,3.601c0.558,1.694,2.221,1.9,3.84,2.16
	c3.071,0.766,4.932,1.286,7.439,2.641c0,0.079,0,0.159,0,0.239c0.529,0.353,1.031,0.729,1.922,0.722
	c1.017-0.059,1.22,0.699,1.92,0.96c1.313,0.605,2.274,1.563,3.6,2.159c1.648,0.392,1.803,1.193,3.36,1.921
	c-0.305,0.602,1.069,1.229,1.681,1.68c0.563,0.077,0.537,0.743,0.96,0.961c0.413,0.946,0.995,1.725,1.68,2.398
	c0.331,0.79,0.63,1.611,0.961,2.4c-25.521,0-51.045,0-76.566,0c0.98-4.248,2.735-6.209,5.041-8.4
	c3.727-3.543,11.348-5.149,16.801-7.439c1.144-0.48,2.985-1.422,3.84-2.16c2.53-2.187,0.248-6.033,0.72-8.401
	C71.753,98.759,71.692,97.779,71.33,97.103z M72.771,98.303c0.477,2.588,0.366,7.08,0,9.601c-0.776,0.189,1.088,0.938,0.959,0.479
	c-0.618-0.059,0.33-0.412,0-0.96c-0.579-0.576,0.584-0.635,0.24-1.681c0.549-0.41,0.088-1.832,0.24-2.641
	c-0.427-1.411-0.034-4.712-1.2-5.521c-0.128-0.347,0.937-0.585,0.24-0.721c-0.284-0.355-0.208-1.071-0.96-0.96
	c-0.013,0.308-0.308,0.332-0.24,0.721c-0.146,0.014-0.284,0.035-0.24,0.239C72.715,96.757,72.316,97.956,72.771,98.303z
	 M74.93,98.303c0.548,0.065,0.902-0.06,0.96-0.48c-0.323-0.074-0.458-0.342-0.96-0.239C74.93,97.821,74.93,98.063,74.93,98.303z
	 M78.771,111.023c1.166-3.398,0.222-7.94,0-12.241c-0.24,0-0.48,0-0.721,0C78.755,102.013,77.644,107.298,78.771,111.023z
	 M93.172,103.583c0.111-1.69-0.169-3.604,0-4.802c-1.35-0.186-0.621,0.794-0.96,1.2c-0.126,3.354,0.438,7.872,0.96,10.081
	C94.871,108.593,92.261,106.334,93.172,103.583z M75.65,104.063c-0.031,1.613-1.189,4.088,0.239,5.761
	c0.138-3.67,1.304-7.458-0.479-10.561C75.323,101.178,75.68,102.501,75.65,104.063z M80.931,99.503
	c-0.067,0.627,0.088,1.031,0.721,0.96C81.718,99.836,81.732,99.262,80.931,99.503z M91.012,108.144c-1.26-3.787,0.173-5.8-1.2-8.401
	c-0.261,2.726,0.121,5.955,0.479,8.882c-0.24,0.133-0.237,1.539,0.479,1.92c-0.372,0.591,0.815,0.706,0.721,0.239
	C91.479,110.465,91.329,109.232,91.012,108.144z M84.291,110.782c0.31,0.907-0.347,1.291,0.72,1.44
	c-0.424-4.181,0.118-8.879-0.72-12.241c-0.752,3.354-0.293,4.529-0.24,8.642C83.519,109.018,84.079,110.339,84.291,110.782z
	 M88.131,111.983c0.907-1.603-0.533-4.492-0.72-6.721c-0.182-2.165,0.366-4.027-0.479-5.28c-0.833,3.078,0.291,4.548,0.239,8.161
	C87.071,108.733,87.281,112.344,88.131,111.983z M81.891,108.862c-0.446-1.687,0.865-6.634-0.72-7.921
	c-0.443,0.818-0.027,2.719-0.24,3.602c0,1.04,0,2.08,0,3.12c0.728,1.458-0.062,2.485,0.24,3.841c0.16,0,0.32,0,0.48,0
	C82.664,111.177,81.786,109.079,81.891,108.862z"/>
<path fill="#6A5D52" d="M73.729,107.423c0.33,0.548-0.618,0.901,0,0.96c0.129,0.459-1.735-0.29-0.959-0.479
	c0.24-0.001,0.285,0.194,0.479,0.24C73.366,107.858,73.506,107.599,73.729,107.423z"/>
<path fill="#6A5D52" d="M92.212,99.982c0.339-0.406-0.39-1.386,0.96-1.2c-0.169,1.197,0.111,3.11,0,4.802
	c-0.54-1.259-0.139-3.355-0.24-3.842C92.544,99.675,92.519,99.97,92.212,99.982z"/>
<path fill="#6A5D52" d="M90.291,108.623c0.328,0.473,0.229,1.37,0.479,1.92C90.054,110.162,90.051,108.756,90.291,108.623z"/>
<path fill="#6A5D52" d="M91.012,108.144c0.317,1.089,0.468,2.321,0.479,2.64C90.979,110.362,90.915,108.779,91.012,108.144z"/>
<path fill="#6A5D52" d="M84.051,108.623c0.142,0.583,0.181,1.024,0.24,2.159C84.079,110.339,83.519,109.018,84.051,108.623z"/>
<path fill="#6A5D52" d="M87.171,108.144c0.521,1.079,0.173,3.027,0.96,3.84C87.281,112.344,87.071,108.733,87.171,108.144z"/>
<path fill="#6A5D52" d="M81.891,108.862c-0.104,0.217,0.773,2.313-0.239,2.642C82.403,110.771,81.265,109.47,81.891,108.862z"/>
<path fill="#D3C5A0" d="M94.372,32.296c-0.699-0.337,0.425-0.827,0.24-1.44c0.307,0.013,0.332,0.308,0.72,0.24
	c-0.07,0.489-0.649,0.471-0.72,0.96C94.408,32.012,94.386,32.15,94.372,32.296z"/>
<path fill="#6A5D52" d="M70.13,54.618c-1.245,0.521-1.883-3.733-0.479-5.041C69.747,51.649,69.382,53.73,70.13,54.618z"/>
<path fill="#6A5D52" d="M65.329,56.539c0.049-0.751-0.162-1.762,0.24-2.16c0.321,0.181,0.434,1.775,0.239,1.68
	C65.492,56.062,65.59,56.479,65.329,56.539z"/>
<path fill="#6A5D52" d="M77.331,58.458c-1.096,0.13-3.018,0.458-3.602-0.24C74.798,58.012,76.301,58.005,77.331,58.458z"/>
<path fill="#BA918D" d="M71.81,62.298c0.733-0.173,0.875,0.245,1.44,0.24c0,0.08,0,0.16,0,0.24c0.38,0.02,0.916-0.115,0.96,0.24
	c-0.245,0.324-2.398-0.431-2.16,0.48c-0.08,0-0.16,0-0.24,0C71.784,62.901,71.36,62.755,71.81,62.298z"/>
<path fill="#272923" d="M80.931,65.419c0.266,1.739-0.755,2.689-1.92,3.601c-2.535,0.709-4.519,0.824-7.44,0
	c0.001-0.241-0.194-0.286-0.24-0.48c-0.331-0.01-0.527,0.113-0.72,0.24c-1.788-2.053-5.055-2.627-6-5.521c0.16,0,0.319,0,0.479,0
	c0.263,0.619,0.606,1.154,1.2,1.44c0.305-0.284,0.102-0.906-0.24-1.2c-0.013-0.307-0.308-0.333-0.24-0.72
	c1.232-0.263,1.511,1.677,2.16,1.2c-0.304-0.416-0.812-0.629-0.72-1.44c0.08,0,0.16,0,0.24,0c0.51,0.45,0.97,0.95,1.68,1.2
	c2.555,2.09,4.405-0.072,7.681,0.96c0.279,0.202,0.645,0.317,1.2,0.24c0.534,0.187,0.937,0.504,1.681,0.48
	c-0.082-1.118-1.363-1.037-1.92-1.68c-0.08,0-0.16,0-0.24,0c-0.735-0.672-1.445-0.439-2.16-0.72c0-0.08,0-0.16,0-0.24
	c-0.79-0.01-1.195-0.405-2.16-0.24c-0.564,0.005-0.707-0.413-1.439-0.24c-0.4,0-0.801,0-1.2,0c-0.977-0.016-1.159,0.761-2.16,0.72
	c-0.011-0.331,0.112-0.527,0.24-0.72c0.331,0.01,0.526-0.113,0.72-0.24c0.891-0.149,1.648-0.431,2.4-0.72c0.079,0,0.159,0,0.239,0
	C75.442,61.413,79.551,62.562,80.931,65.419z M70.61,65.659c-0.875-0.074-1.563,0.038-2.16,0.24c2.215,2.14,6.719,3.159,10.32,1.92
	c0.576-0.569,1.705-0.954,1.2-1.92c-1.512-0.081-1.659-0.207-3.121-0.48c-0.027,1.012-0.865,1.214-1.199,1.92
	c-0.458-0.451-0.436,0.142-1.2,0c-0.791-0.089-1.199-0.561-1.68-0.96c0-0.32,0-0.64,0-0.96
	C72.119,65.567,70.865,65.114,70.61,65.659z"/>
<path fill="#6A5D52" d="M113.813,66.62c-0.279-0.041-0.262-0.379-0.24-0.72c0.759,0.331,1.449-0.594,1.681,0
	c-0.243,0.397-1.02,0.261-1.44,0.48C113.813,66.459,113.813,66.54,113.813,66.62z"/>
<path fill="#6A5D52" d="M62.209,74.299c0.214,0.148,0.429,0.29,0.479,0c0.142,0.257,0.244,0.729,0.48,1.44c-0.32,0-0.64,0-0.96,0
	C62.209,75.26,62.209,74.779,62.209,74.299z"/>
<path fill="#BA918D" d="M64.369,78.621c0.053,0.301,0.374,0.489-0.24,0.479c-0.495,0.211-0.909-0.791-0.479-0.72
	c0.316,0.003,0.219,0.421,0.479,0.479c0.095-0.413-0.355-0.615,0-0.72C64.316,78.192,64.408,78.342,64.369,78.621z"/>
<path fill="#BA918D" d="M64.609,81.021c-0.117,0.428-0.257-0.104-0.48-0.239c-0.053,0.188-0.201,0.278-0.479,0.239
	c-0.488-0.198,0.575-0.841,0.72-1.2C64.678,80.387,64.338,80.268,64.609,81.021z"/>
<path fill="#6A5D52" d="M112.373,82.221c-0.146,0.495,0.388,1.668-0.479,1.439C112.039,83.166,111.506,81.992,112.373,82.221z"/>
<path fill="#6A5D52" d="M54.528,87.021c0.298-1.108-0.49-2.374,0-2.88c0.178,1.022,0.746,1.654,0.96,2.64
	c-0.292-0.026-0.568-0.07-0.48-0.479C54.594,85.387,55.027,87.235,54.528,87.021z"/>
<path fill="#6A5D52" d="M86.932,88.7c0.476-0.404,1.498-0.262,2.16-0.479c-0.222,0.419-0.751,0.529-1.439,0.479
	C87.411,88.7,87.171,88.7,86.932,88.7z"/>
<path fill="#BA918D" d="M83.571,88.222c1.351,0.428,1.99,0.396,3.36,0.479c0.239,0,0.479,0,0.721,0c-1.404,0.58-2.559,0.384-4.081,0
	C83.571,88.542,83.571,88.382,83.571,88.222z"/>
<path fill="#D3C5A0" d="M70.61,65.659c0.826,0.406,1.771-0.547,1.92,0.72c0.389,0.66,1.59,1.76,2.399,1.2
	c-0.186-0.054-0.474-0.006-0.479-0.24c0.766,0.142,0.742-0.451,1.2,0c0.683-1.266,2.966-2.031,4.319-0.72
	c-0.502,0.298-0.901,0.698-1.199,1.2c-3.603,1.238-8.105,0.219-10.321-1.92C69.048,65.697,69.735,65.585,70.61,65.659z"/>
<path fill="#D3C5A0" d="M90.052,84.86c0.596,0.035,1.164,0.045,1.2-0.479c0.656,0.224,1.023,0.736,1.68,0.96
	c0.399,1.041,1.496,1.385,2.4,1.921c1.679,1.854,5.599,2.705,5.761,5.28c-0.192,0.127-0.39,0.25-0.721,0.239
	c-0.686-0.516-1.256-1.145-2.16-1.439c-0.761-0.438-1.143-1.258-2.16-1.44c-0.488-0.95-1.486-1.393-2.399-1.92
	c-0.762-0.438-1.144-1.257-2.16-1.439C91.16,85.833,90.383,85.568,90.052,84.86z"/>
<path fill="#6A5D52" d="M53.568,36.376c-0.099,1.022-0.111,2.129-0.48,2.88C52.923,38.089,52.954,37.255,53.568,36.376z"/>
<path fill="#6A5D52" d="M94.132,61.579c1.166-0.848,4.072-0.026,5.04,0.24c0.797,0.219,1.67-0.553,0.961,0.72
	C99.365,61.643,96.621,61.462,94.132,61.579z"/>
<path fill="#272923" d="M118.374,77.421c-1.268-5.328,5.213-7.326,9.601-7.682c-1.572,1.626-4.516,1.885-6.479,3.121
	c-0.768,0.434-1.429,0.971-1.68,1.92c2.128,8.71-5.074,12.955-11.281,14.643c-1.436,0.166-2.406,0.794-3.841,0.96
	c0-0.08,0-0.16,0-0.24c0.257-0.623,1.424-0.337,1.681-0.96c1.03-0.17,2.009-0.392,2.64-0.96c4.083-1.838,8.497-3.345,9.361-8.401
	C118.771,79.562,118.771,77.68,118.374,77.421z"/>
<path fill="#CDB171" d="M80.308,199.26c-1.086-0.274-1.421-1.301-2.88-1.2c-0.955,1.268,0.235,1.922-0.721,2.88
	c-0.176-0.852-1.186-2.384-1.92-1.2c-0.08,0-0.16,0-0.24,0c0.146-0.214,0.29-0.429,0-0.479c-0.396,0.684-1.302-0.115-1.68-0.24
	c-0.846,0.941-2.54,0.519-4.08,0.72c-0.08,0-0.16,0-0.24,0c0.372-0.239-2.354-1.664-3.36-2.399c0.158,0.115-0.147,0.558-0.239,0.479
	c0.063-0.994-0.933-0.319-0.961-0.72c-0.187-0.534-0.504-0.937-0.479-1.681c0.116-1.919-0.896-1.934-0.239-3.601
	c0.655-2.761,1.182-4.896,1.68-7.2c-0.191-0.833,0.357-0.923,0.24-1.681c0.422-0.697,0.547-1.693,0.721-2.64
	c0.569-1.884,0.361-3.085,1.439-4.32c0.511-0.851,0.693-2.027,1.2-2.881c0.016-1.104,0.682-1.559,0.96-2.4
	c1.415,0.665,2.391,1.771,3.601,2.641c0.642,0.671-0.226,1.187-0.239,1.921c-0.771,0.89,1.49,1.555,1.92,0.721
	c1.664-0.552,4.99,0.974,6.24-0.48c-0.021,0.342-0.039,0.681,0.24,0.721c2.262-0.858,5.357-0.885,8.161-1.2
	c0.195-0.045,0.239-0.24,0.48-0.239c-1.526-2.621-3.599-4.104-6.722-5.521c-1.522-0.384-2.677-0.58-4.081,0
	c-0.688-0.051-1.219,0.061-1.439,0.479c-0.646,0.154-0.674,0.927-1.439,0.96c-1.19-0.089-1.2-1.36-2.399-1.438
	c-2.326-1.3-0.724-2.666,0.72-3.842c0.81-0.71,1.981-1.06,3.36-1.199c0.941-0.324,2.746,0.583,2.641-0.24
	c1.276-0.042,2.843-0.266,4.32,0.24c0.451,0.669,1.692,0.548,2.399,0.96c1.06,0.382,2.126,0.754,2.642,1.681
	c1.615,1.424,3.059,3.021,4.56,4.561c0.777,1.384,1.944,2.376,3.121,3.36c2.633,3.175,4.538,5.665,5.76,10.32
	c-0.226,0.949-0.187,1.392,0.24,2.16c0,0.239,0,0.479,0,0.72c-0.219,0.988-0.667,3.005-0.479,3.601
	c0.104,0.825-0.096,1.346-0.24,1.92c-0.244,0.156-0.248,0.553-0.721,0.48c-1.226-2.374-3.775-3.425-6-4.8
	c-0.192,0.127-0.39,0.25-0.72,0.239c-0.045-0.194-0.241-0.238-0.24-0.479c-0.312-0.563,0.122-0.537-0.479-0.96
	c-1.095,0.589-5.271-0.693-6.961,0.96c-1.165,0.911-2.186,1.861-1.92,3.601c0.704,3.212,6.251,4.701,8.881,4.08
	c0.08,0,0.16,0,0.24,0c0.395,0.301,2.057-0.173,2.399-0.72c0.193-0.127,0.391-0.25,0.72-0.24c0.82-0.098,0.306-0.647,1.2-0.24
	c0.08,0,0.16,0,0.24,0c0.054-0.106,0.989,0.048,1.44-0.239c0.067-0.389-0.228-0.413-0.24-0.721c0-0.079,0-0.159,0-0.239
	c0.655-0.176,0.482,0.477,0.96,0.479c-0.344,0.698-0.185,0.271,0.479,0.24c0.305,0.732-0.819,1.222-0.239,1.44
	c-0.512,1.538-0.698,2.037-0.48,4.079c-0.317,0.003-0.22,0.422-0.479,0.48c0.044-0.848-1.017-1.314-0.48-1.92
	c-0.42,0.065-1.197-0.676-1.439,0c-0.602-0.03-0.752-0.458-0.961,0.24c-0.038,0.28-0.438,0.201-0.72,0.239
	c-1.036-0.197-4.276-0.35-4.081,0.24c-0.08,0-0.16,0-0.24,0c-0.582-0.698-2.504-0.37-3.601-0.24c-0.08,0-0.16,0-0.24,0
	c-2.988-0.341-5.618-0.15-8.641-0.96c-0.046,0.194-0.241,0.239-0.24,0.48C80.308,199.1,80.308,199.18,80.308,199.26z
	 M64.227,193.979c-0.488-0.073,0.049,0.692,0.239,0.72c0.099-0.409,0.31,0.05,0.721,0c-0.004,0.396-0.666,0.134-0.721,0.48
	c0.28,0.041,0.261,0.379,0.24,0.72c0.426-0.055,1.202,0.242,0.96-0.48c0.311-0.242,1.164-1.293,0.96,0
	c-0.709,1.273,0.164,0.5,0.961,0.721c0.968,0.267,3.874,1.088,5.04,0.239c2.688-1.087,5.856-2.652,5.521-6
	c-0.261-0.698-0.979-0.939-1.68-1.199c0.301-0.869-1.653,0.039-0.961-0.96c-1.357,0.835-2.818-0.933-3.84,0.239
	c-1.196,0.324-2.771,0.27-3.36,1.2c-0.285,0.516-1.04,0.562-1.439,0.96c-0.344,0.094-0.404,0.288-0.721,0
	c0.305,0.732-0.819,1.223-0.24,1.44c0,0.08,0,0.16,0,0.24c-0.079,0-0.159,0-0.239,0c0.313,1.273-1.337,0.583-1.439,1.439
	C64.227,193.819,64.227,193.898,64.227,193.979z M95.429,176.457c-0.29-0.051-0.147-0.267,0-0.479c-0.092-0.278-1.166-0.278-0.479,0
	c0.146,0.013,0.283,0.035,0.239,0.239c-0.239,0-0.479,0-0.72,0c0.038,0.282-0.041,0.682,0.24,0.721
	C94.713,176.541,95.375,176.804,95.429,176.457z"/>
<path fill="#6A5D52" d="M93.988,206.459c-0.57-0.828-0.343-1.051-0.479-2.399C94.093,204.402,94.179,206.096,93.988,206.459z"/>
<path fill="#BA918D" d="M93.509,195.419c-0.965,0.165-1.37-0.229-2.16-0.239c0-0.08,0-0.16,0-0.24c0.4,0,0.8,0,1.2,0
	c0.044,0.354,0.58,0.22,0.96,0.24C93.509,195.26,93.509,195.34,93.509,195.419z"/>
<path fill="#D3C5A0" d="M96.148,192.299c-0.255,0.545-1.509,0.091-2.16,0.239c0-0.319,0-0.64,0-0.96c0.08,0,0.16,0,0.24,0
	C94.379,192.847,95.322,191.893,96.148,192.299z"/>
<path fill="#6A5D52" d="M48.385,180.537c-0.396-0.259-0.396-2.141,0-2.398C48.385,178.938,48.385,179.737,48.385,180.537z"/>
<path fill="#272923" d="M94.709,161.336c0.066,0.389-0.228,0.413-0.24,0.721c-0.752,0.111-0.676-0.604-0.96-0.96
	C93.802,160.369,94.425,161.266,94.709,161.336z"/>
<path fill="#272923" d="M93.749,160.376c-1.167-0.809-0.773-4.108-1.2-5.521c0.549-0.411,0.088-1.832,0.24-2.641
	c-0.342-1.046,0.819-1.104,0.24-1.681c0.224-0.176,0.363-0.437,0.479-0.721c0.194,0.046,0.239,0.241,0.479,0.24
	c-0.366,2.521-0.477,7.013,0,9.601c0,0.24,0,0.48,0,0.721C93.909,160.376,93.829,160.376,93.749,160.376z"/>
<path fill="#272923" d="M91.829,160.376c-0.501,0.103-0.637-0.165-0.96-0.239c0.058-0.422,0.412-0.547,0.96-0.48
	C91.829,159.896,91.829,160.137,91.829,160.376z"/>
<path fill="#6A5D52" d="M85.588,160.376c-0.897,0.019-1.659-0.102-2.16-0.479c0.618-0.756,1.145,0.6,2.16,0.24
	C85.588,160.217,85.588,160.296,85.588,160.376z"/>
<path fill="#272923" d="M88.709,159.177c-0.24,0-0.48,0-0.721,0c-0.222-4.301-1.166-8.843,0-12.241
	C89.115,150.66,88.004,155.945,88.709,159.177z"/>
<path fill="#272923" d="M91.349,158.695c-1.783-3.103-0.617-6.891-0.479-10.561c1.429,1.673,0.271,4.146,0.239,5.761
	C91.079,155.457,91.436,156.78,91.349,158.695z"/>
<path fill="#272923" d="M85.107,157.495c0.633-0.071,0.788,0.333,0.721,0.96C85.026,158.696,85.041,158.122,85.107,157.495z"/>
<path fill="#272923" d="M76.468,149.335c0.358,2.927,0.74,6.156,0.479,8.882c-1.373-2.603,0.06-4.614-1.2-8.401
	c0.097-0.637,0.03-2.22-0.479-2.64c-0.096-0.467,1.093-0.352,0.721,0.239C76.238,147.965,76.14,148.862,76.468,149.335z"/>
<path fill="#272923" d="M74.547,157.976c-0.307,0.013-0.332,0.308-0.72,0.24c-0.103-0.485,0.3-2.583-0.24-3.842
	c0.911-2.751-1.699-5.01,0-6.479C74.109,150.104,74.673,154.622,74.547,157.976z"/>
<path fill="#272923" d="M82.708,149.335c0.053,4.111,0.512,5.288-0.24,8.642c-0.838-3.362-0.296-8.062-0.72-12.241
	c1.066,0.149,0.411,0.533,0.72,1.44C82.529,148.31,82.566,148.752,82.708,149.335z"/>
<path fill="#272923" d="M79.588,149.814c-0.052,3.613,1.072,5.083,0.239,8.161c-0.847-1.253-0.3-3.115-0.479-5.28
	c-0.187-2.229-1.627-5.118-0.72-6.721C79.415,146.787,79.066,148.735,79.588,149.814z"/>
<path fill="#272923" d="M85.828,153.415c-0.213,0.883,0.203,2.782-0.24,3.602c-1.585-1.287-0.272-6.234-0.72-7.921
	c0.625-0.606-0.514-1.907,0.239-2.642c0.16,0,0.32,0,0.48,0c0.302,1.354-0.486,2.383,0.24,3.841
	C85.43,150.787,85.43,152.924,85.828,153.415z"/>
<path fill="#6A5D52" d="M71.427,157.016c0-0.88,0-1.762,0-2.642C71.824,154.711,71.824,156.681,71.427,157.016z"/>
<path fill="#6A5D52" d="M72.627,156.535c0-0.96,0-1.92,0-2.88c0.559,0.986,0.234,1.652,0.24,2.88
	C72.787,156.535,72.707,156.535,72.627,156.535z"/>
<path fill="#6A5D52" d="M92.549,154.855c0.152-0.81-0.311-2.229,0.24-2.641C92.637,153.023,93.098,154.444,92.549,154.855z"/>
<path fill="#6A5D52" d="M85.828,153.415c-0.398-0.491-0.398-2.628,0-3.12C85.828,151.335,85.828,152.375,85.828,153.415z"/>
<path fill="#6A5D52" d="M62.546,147.415c-1.099-0.262-2.005-0.716-2.64-1.439C60.764,146.477,61.755,146.847,62.546,147.415z"/>
<path fill="#6A5D52" d="M69.747,149.814c-1.599-0.309-2.75-0.695-3.602-1.2C66.628,148.619,68.604,149.162,69.747,149.814z"/>
<path fill="#6A5D52" d="M70.707,161.576c-0.644,1.377,0.749,2.707,2.16,3.36c-0.473,0.93-1.824,3.298-2.642,1.68
	c0.431-0.03,0.507,0.294,0.96,0.24c0.423-0.618,1.044-1.036,1.44-1.681C71.327,164.472,69.537,162.682,70.707,161.576z"/>
<path fill="#6A5D52" d="M69.986,166.376c-2.858-0.594-3.699-4.44-6.72-4.08C65.451,160.814,67.477,165.3,69.986,166.376z"/>
<path fill="#6A5D52" d="M46.945,183.179c-0.252,0.948-0.914,1.485-1.681,1.92C45.729,184.362,46.461,183.894,46.945,183.179z"/>
<path fill="#6A5D52" d="M47.904,188.938c-1.026,0.813-2.631,1.05-4.08,1.439C44.604,189.844,46.336,189.348,47.904,188.938z"/>
<path fill="#6A5D52" d="M45.505,196.859c0.309-1.531,1.202-2.479,2.399-3.12C47.011,194.686,46.113,195.628,45.505,196.859z"/>
<path fill="#6A5D52" d="M49.104,205.261c-0.923-1.077-1.985-2.015-2.64-3.36C47.46,202.905,48.324,204.04,49.104,205.261z"/>
<path fill="#6A5D52" d="M51.505,207.66c-1.026-0.414-1.618-1.262-2.16-2.16C50.085,206.2,50.904,206.821,51.505,207.66z"/>
<path fill="#6A5D52" d="M67.587,219.661c-1.188-0.571-1.989-1.53-3.121-2.16C65.835,217.893,66.681,218.808,67.587,219.661z"/>
<path fill="#272923" d="M82.708,228.541c-3.14-1.021-4.854-3.468-7.921-4.56c0.084,4.956-7.83,12.455-8.4,4.08
	c0.239,0,0.479,0,0.72,0c2.73-0.87,4.343-2.859,5.762-5.041c-0.45-1.23-1.644-1.717-2.882-2.16c-0.906-0.335-1.148-0.8-2.398-1.2
	c-0.906-0.854-1.752-1.769-3.121-2.16c-4.517-3.083-8.896-6.305-12.961-9.841c-0.602-0.838-1.42-1.459-2.16-2.16
	c-0.014-0.146-0.035-0.283-0.24-0.239c-0.779-1.22-1.645-2.355-2.64-3.36c-0.638-1.648-1.321-2.961-0.96-5.041
	c0.609-1.23,1.506-2.174,2.4-3.12c1.073-0.685,1.854-1.666,3.6-1.68c0.23,0.594,0.922-0.331,1.681,0
	c0.021-0.341,0.039-0.681-0.239-0.721c-0.689-0.751-0.572-2.308-1.682-2.64c-2.254,1.027-5.07,2.768-8.16,2.16
	c0.241-0.382,0.228-0.966,0.721-0.48c1.449-0.391,3.054-0.627,4.08-1.439c2.063-0.978,4.493-1.587,5.521-3.6
	c-4.453-4.992-1.466-12.479,4.08-14.882c1.131-0.31,2.092-0.788,2.88-1.439c1.044-0.076,1.519-0.723,2.4-0.96
	c-0.004,0.716-0.624,0.814-0.721,1.438c0.505-0.074,1.434-0.683,1.2,0.48c0.079,0,0.159,0,0.239,0
	c0.632,0.071,0.188-0.933,0.96-0.72c1.153,0.078,1.438,0.138,2.881,0.238c0.112-0.752-0.604-0.676-0.96-0.96
	c-1.916-1.412-6.272-4.017-3.12-6.24c3.021-0.36,3.86,3.486,6.721,4.08c0.014,0.146,0.035,0.284,0.239,0.24
	c0.816,1.618,2.169-0.75,2.642-1.68c-1.411-0.653-2.804-1.983-2.16-3.36c-0.069-1.884,0.55-3.625,0.72-4.561
	c0.397-0.336,0.397-2.306,0-2.642c-0.104-1.39-0.431-3.071-0.72-4.08c-0.355-0.125-0.605-0.354-0.96-0.479
	c-1.145-0.652-3.119-1.195-3.602-1.2c-1.448-0.149-2.5-0.699-3.601-1.199c-0.791-0.568-1.782-0.938-2.641-1.439
	c-7.279-3.04-14.857-6.982-16.082-14.161c0.32,0,0.642,0,0.961,0c0.33,0.789,0.63,1.61,0.961,2.4c0.43,0.93,0.938,1.779,1.68,2.398
	c0.423,0.218,0.396,0.884,0.96,0.961c0.375,0.744,1.021,1.221,1.681,1.68c1.559,0.728,1.713,1.529,3.36,1.921
	c0.891,0.873,2.558,2.236,3.6,2.159c0.7,0.261,0.903,1.019,1.921,0.96c0.324,0.637,1.346,0.575,1.921,0.961
	c2.509,1.354,4.368,1.875,7.439,2.641c1.271,0.729,3.124,0.876,3.84,2.16c0.323,1.52-0.106,1.911,0.48,3.601c0,0.96,0,1.92,0,2.88
	c-0.39,2.063-0.425,4.752-1.2,5.762c0.602,0.997,1.372,1.827,2.641,2.159c0.354-0.125,0.604-0.354,0.961-0.479
	c0.037-0.918,0.143-1.903-0.722-1.92c1.533-2.721,5.175-2.188,9.121-2.16c0.501,0.379,1.263,0.498,2.16,0.479
	c1.181,0.419,2.263,0.938,3.601,1.2c0.615,0.745,1.763,0.958,2.16,1.92c-0.029,0.722-1.456,0.678-0.72,1.44c0,0.239,0,0.479,0,0.72
	c2.134-1.065,5.073-1.327,4.8-4.801c0.014-1.054-0.096-1.983-0.48-2.64c0.474-2.368-1.81-6.216,0.721-8.401
	c0.854-0.738,2.697-1.68,3.84-2.16c5.453-2.29,13.074-3.896,16.801-7.439c2.307-2.191,4.061-4.152,5.041-8.4c0.48,0,0.96,0,1.44,0
	c-1.583,5.17-3.124,8.017-6.961,10.561c-3.448,2.287-7.402,3.666-11.281,5.041c-2.778,0.984-7.229,1.606-8.401,4.08
	c-1.061,2.241,1.136,7.312,0.721,10.802c-0.316,2.656-3.078,2.396-5.041,4.561c1.164,1.59,3.635-0.039,4.8-0.24
	c2.106,0.907,3.181,0.302,4.561,0.96c-0.564-0.064-0.146-1.063,0.24-0.96c1.272,1.377,0.939,0.241,2.64,0
	c1.163-0.035,2.211,1.299,3.36,0.48c1.851-0.331,2.006,1.033,2.88,1.68c0.615,0.505,0.914,1.326,0.96,2.4
	c0.214,0.984,0.782,1.616,0.96,2.64c0.49-0.506-0.298-1.771,0-2.88c0.015-0.146,0.036-0.284,0.24-0.24
	c0.329,0.632,0.809,1.112,1.44,1.44c0.054,0.187,0.006,0.474,0.239,0.479c0.764,1.957,1.536,3.904,2.16,6
	c0.854,5.25,0.744,12.245-0.72,18.242c-0.701,0.991-0.384,1.524-0.96,2.64c-0.369,2.729-1.409,5.257-2.88,7.441
	c-0.582,0.864-2.384,2.386-2.4,2.88c-0.033,0.928,1.941,1.568,1.92,2.641c0.298,0.742,0.592,1.488,1.2,1.921
	c0.356,0.203,0.516,0.604,0.48,1.199c0.173,0.947,0.297,1.942,0.72,2.641c0,0.16,0,0.319,0,0.479
	c-0.369,0.751-0.382,1.858-0.48,2.88c-4.178,8.519-17.306,12.217-26.882,8.642C85.279,229.491,83.824,229.186,82.708,228.541z
	 M68.066,229.982c1.973,2.097,3.586-1.229,4.32-2.641c0.83-1.65,1.128-3.833,2.641-4.801c6.894,4.757,14.051,8.861,22.803,7.682
	c3.658-0.493,6.137-2.604,8.881-3.36c2.021-1.961,5.544-3.554,5.76-7.439c0.19-3.426-2.099-6.602-4.56-8.642
	c-0.78,0.5-1.564,0.996-2.4,1.44c-4.397,1.469-11.282,0.742-14.161-0.24c-10.707-3.65-21.113-12.071-34.083-14.881
	c-1.095-1.341-2.569-0.907-3.601-2.4c0.319,0,0.641,0,0.96,0c0.092-0.892-0.974-0.627-0.72-1.68
	c-5.404,0.084-8.986,3.851-6.722,7.681c0.7,0.74,0.9,1.979,1.92,2.4c2.657,4.514,7.574,6.646,11.521,9.841
	c0.587,0.475,0.835,1.233,1.439,1.68c3.871,2.863,8.724,4.448,11.762,7.92c-0.323,1.197-1.13,1.911-1.44,3.12
	c-0.014,0.146-0.036,0.284-0.24,0.24c-0.785,0.735-1.831,1.208-2.398,2.16c-1.087,0.034-1.258,0.983-2.4,0.96
	C67.306,229.622,67.715,229.773,68.066,229.982z M97.108,208.381c1.403-1.308,0.766-5.562-0.479-5.041
	C97.377,204.228,97.012,206.309,97.108,208.381z M93.509,204.06c0.137,1.349-0.091,1.571,0.479,2.399
	C94.179,206.096,94.093,204.402,93.509,204.06z M101.43,201.419c0-0.319,0-0.64,0-0.96c-0.218-2.042-0.031-2.541,0.48-4.08
	c0.213-0.427,0.67-0.609,0.479-1.439c0.344-0.295,0.455-0.825,0.48-1.44c0.145-0.574,0.345-1.095,0.239-1.92
	c0.664-0.845,0.594-2.637,0.48-3.601c0-0.24,0-0.48,0-0.72c0.279-0.142,0.039-1.783-0.24-2.16c-1.223-4.655-3.127-7.146-5.76-10.32
	c-0.895-1.186-2.069-2.092-2.88-3.36c-1.539-1.582-2.862-3.379-4.8-4.561c-0.515-0.927-1.582-1.299-2.642-1.681
	c-0.435-0.686-1.466-0.773-2.399-0.96c-1.478-0.506-3.044-0.282-4.32-0.24c-1.044-0.048-1.746-0.272-2.641,0.24
	c-1.379,0.141-2.552,0.489-3.36,1.199c-0.933,0.563-2.538,1.546-2.4,2.4c0.389,0.818,2.678,3.079,4.081,2.88
	c0.767-0.033,0.794-0.806,1.439-0.96c0.662-0.218,1.686-0.074,2.16-0.479c1.371,0.083,2.01,0.052,3.36,0.479
	c1.564-0.412,2.605,1.928,3.841,2.881c0.909,0.702,2.99,0.491,2.399,2.399c-2.804,0.315-5.899,0.342-8.161,1.2
	c-0.279-0.04-0.26-0.38-0.24-0.721c-1.25,1.454-4.576-0.07-6.24,0.48c-0.965,0.084-1.756-0.004-1.92-0.721
	c0.421-0.369,1.625-1.879,0.239-1.921c-1.21-0.87-2.186-1.976-3.601-2.641c-0.278,0.843-0.944,1.296-0.96,2.4
	c-0.664,0.695-1.166,1.555-1.2,2.881c-1.078,1.235-0.87,2.438-1.439,4.319c-0.472,0.649-0.647,1.593-0.721,2.641
	c0.117,0.758-0.433,0.848-0.24,1.681c-0.88,2.08-1.597,4.323-1.68,7.2c-0.657,1.667,0.355,1.682,0.239,3.601c-0.08,0-0.16,0-0.239,0
	c0.165,1.03,0.09,1.586,0.239,2.16c2.009,0.393,3.187,1.614,5.041,2.16c0.08,0,0.16,0,0.24,0c1.592,1.063,3.755-0.487,5.76,0.24
	c0-0.08,0-0.16,0-0.24c0.08,0,0.16,0,0.24,0c0,0.08,0,0.16,0,0.24c1.345-0.631,1.5,1.375,2.399,1.92
	c0.266-0.728,0.455-2.431,0-3.121c1.291-1.104,2.021,1.418,3.12,0.48c0-0.08,0-0.16,0-0.24c2.9,0.402,6.941,1.063,8.881,0.479
	c0.08,0,0.16,0,0.24,0c1.029,0.453,2.532,0.446,3.601,0.24c0.08,0,0.16,0,0.24,0c1.188,0.167,2.884,0.219,4.081-0.24
	c0.282-0.038,0.681,0.042,0.72-0.239c0.319-0.036,0.725,0.976,0.961,0.239c-0.776-0.275,0.645-0.271,0.959-0.239
	c0.313,0.888,0.797,1.604,0.961,2.64c-0.194-0.095-0.082,1.499,0.239,1.68C101.592,203.182,101.381,202.17,101.43,201.419z
	 M113.671,183.897c-1.048,1.767-0.947,7.651-1.44,9.841C113.877,190.678,113.163,186.259,113.671,183.897z M111.271,179.577
	c-0.006,2.407,0.125,5.297,0,8.401c0.282-0.038,0.682,0.042,0.72-0.24C111.441,185.641,112.504,183.112,111.271,179.577z
	 M104.55,182.219c-0.32,0-0.64,0-0.96,0c0.236,0.712,0.339,1.184,0.48,1.439c0.051-0.29,0.266-0.147,0.479,0
	C104.55,183.179,104.55,182.697,104.55,182.219z M103.35,181.018c0.48,0,0.96,0,1.44,0c0.125-0.355,0.354-0.605,0.479-0.96
	c0.279-0.041,0.26-0.38,0.24-0.722c0.374-0.063,0.167-0.525,0-0.72c0.333-0.239,0.006-1.897-0.72-2.399
	c-0.927-0.271-1.109-0.567-2.16-0.239c0-0.08,0-0.16,0-0.24c-0.897-0.018-1.375,0.386-1.68,0.96c-0.447,1.438,1.443,2.971,1.68,3.84
	C102.728,180.84,102.938,181.028,103.35,181.018z M64.466,180.299c0.687-0.049,0.878-1.825,0.721-1.922c0-0.079,0-0.159,0-0.238
	c-0.362-0.598-1.068-0.853-2.16-0.722c-0.104,0.457-0.518,0.604-0.479,1.2C62.022,179.935,63.304,181.06,64.466,180.299z
	 M57.266,180.299c-0.435-2.615,0.321-3.756-0.479-6.241C56.271,175.95,55.998,178.188,57.266,180.299z M54.865,174.298
	c-0.867-0.229-0.336,0.944-0.479,1.439C55.253,175.966,54.72,174.792,54.865,174.298z M81.027,174.298
	c1.955,1.742,4.801-0.69,7.201,0c-2.148-2.512-8.92-5.956-11.041-2.16c3.171,0.279,6.69-0.558,9.121,1.439
	c-2.784,0.144-4.861-0.42-7.68-0.24c-0.606,1.395-3.753,0.248-4.321,1.681C76.709,174.917,79.788,175.978,81.027,174.298z
	 M73.827,172.617c0.655,0.224,1.022,0.736,1.68,0.96c0.036-0.524,0.604-0.516,1.2-0.479c0.63-0.725-1.071-1.158-1.439-1.681
	c-1.018-0.184-1.398-1.002-2.16-1.439c-0.555-0.886-1.742-1.14-2.399-1.92c-1.019-0.184-1.399-1.002-2.16-1.44
	c-0.455-0.593-1.844-1.506-2.16-1.439c-0.331-0.011-0.527,0.112-0.721,0.239c0.162,2.575,4.082,3.427,5.761,5.28
	C71.981,171.583,73.168,171.835,73.827,172.617z M106.71,170.457c-0.011,0.822,0.425,2.438,0.96,1.92
	C107.234,171.938,107.692,170.821,106.71,170.457z M64.706,165.656c1.104-0.584,0.516-2.424-0.96-2.399
	c-0.903,0.922-0.045,1.856,0.72,2.399C64.546,165.656,64.626,165.656,64.706,165.656z M84.628,162.776
	c1.621,0.224,3.742,2.222,4.8,1.439c-0.08,0-0.16,0-0.24,0c0-0.08,0-0.16,0-0.24c0.355-0.044,0.221-0.579,0.24-0.96
	c-0.515-0.445-1.278-0.643-2.16-0.721c-1.874-0.804-3.436-1.352-5.76-1.199c-0.259-0.397-2.143-0.397-2.4,0
	c-0.678-0.218-2.062-0.086-2.64,0.479c-0.747,0.053-0.406,1.194-0.479,1.92c0.428-0.133,0.996-0.123,1.199-0.479
	c0.81-0.07,1.641-0.12,2.16-0.479C80.589,162.678,82.148,162.603,84.628,162.776z"/>
<path fill="#6A5D52" d="M86.308,230.223c-1.352-0.409-2.718-0.803-3.6-1.681C83.824,229.186,85.279,229.491,86.308,230.223z"/>
<path fill="#6A5D52" d="M114.631,199.499c0.577-1.115,0.259-1.648,0.96-2.64C115.679,198.147,115.23,198.899,114.631,199.499z"/>
<path fill="#6A5D52" d="M116.311,178.617c-0.625-2.096-1.396-4.043-2.16-6C115.26,174.228,116.075,176.134,116.311,178.617z"/>
<path fill="#6A5D52" d="M113.911,172.138c-0.632-0.328-1.112-0.81-1.44-1.44C112.964,170.221,113.622,171.613,113.911,172.138z"/>
<path fill="#6A5D52" d="M69.986,220.861c1.238,0.443,2.432,0.93,2.882,2.16c-1.419,2.182-3.03,4.17-5.762,5.041
	c2.236-1.364,4.384-2.817,5.521-5.28C71.817,222.07,70.954,221.413,69.986,220.861z"/>
<path fill="#6A5D52" d="M47.425,136.613c-0.741-0.619-1.25-1.47-1.68-2.398C46.43,134.89,47.012,135.667,47.425,136.613z"/>
<path fill="#6A5D52" d="M50.065,139.254c-0.661-0.459-1.306-0.936-1.681-1.68C48.995,138.023,50.369,138.652,50.065,139.254z"/>
<path fill="#6A5D52" d="M57.025,143.334c-1.042,0.077-2.709-1.286-3.6-2.159C54.75,141.77,55.712,142.728,57.025,143.334z"/>
<path fill="#6A5D52" d="M72.146,150.056c-0.716-1.284-2.567-1.433-3.84-2.16C69.926,148.154,71.589,148.36,72.146,150.056z"/>
<path fill="#6A5D52" d="M90.629,164.937c-0.735-0.764,0.691-0.72,0.72-1.44c-0.397-0.962-1.545-1.175-2.16-1.92
	c1.386,0.215,1.862,1.338,2.641,2.16c0.008,0.729-1.208,0.232-1.2,0.96C90.9,164.742,90.762,164.937,90.629,164.937z"/>
<path fill="#6A5D52" d="M95.429,160.855c-0.362-0.678-0.423-1.656-0.479-2.64C95.333,158.872,95.442,159.803,95.429,160.855z"/>
<path fill="#6A5D52" d="M110.31,168.776c-0.874-0.646-1.028-2.011-2.88-1.68C108.761,166.333,110.334,167.389,110.31,168.776z"/>
<path fill="#BA918D" d="M112.47,214.381c-0.608-0.433-0.902-1.179-1.2-1.921C111.966,212.806,112.26,213.552,112.47,214.381z"/>
<path fill="#6A5D52" d="M113.671,218.222c-0.422-0.698-0.547-1.693-0.72-2.641C113.718,216.455,113.572,216.752,113.671,218.222z"/>
<path fill="#6A5D52" d="M72.387,227.342c-0.734,1.41-2.349,4.737-4.32,2.641c0.256-0.817,0.075,0.667,0.722,0.24
	c0.422-0.139,1.409,0.29,1.438-0.24C71.305,229.46,71.396,227.951,72.387,227.342z"/>
<path fill="#BA918D" d="M47.185,200.699c-2.266-3.83,1.316-7.596,6.722-7.681c-0.254,1.053,0.812,0.789,0.72,1.68
	c-0.319,0-0.64,0-0.96,0c1.031,1.493,2.506,1.061,3.601,2.4c12.97,2.81,23.376,11.229,34.083,14.881
	c2.879,0.981,9.764,1.709,14.161,0.24c0.836-0.444,1.621-0.939,2.4-1.44c2.461,2.04,4.75,5.215,4.56,8.641
	c-0.216,3.887-3.738,5.479-5.76,7.44c-2.744,0.757-5.223,2.867-8.881,3.36c-8.751,1.181-15.909-2.924-22.803-7.682
	c-1.513,0.969-1.811,3.15-2.641,4.801c-0.99,0.608-1.082,2.118-2.16,2.641c-0.544,0.015-1.856-0.64-1.438,0.24
	c-0.646,0.428-0.466-1.058-0.722-0.24c-0.352-0.209-0.761-0.359-0.72-0.96c1.144,0.023,1.313-0.926,2.4-0.96
	c0.57-0.388,1.058-0.862,1.68-1.2c0.388-0.067,0.413,0.227,0.72,0.24c-0.185-0.613,0.939-1.104,0.24-1.44
	c0.311-1.209,1.117-1.923,1.44-3.12c-3.038-3.473-7.891-5.058-11.762-7.92c-0.604-0.446-0.854-1.205-1.439-1.68
	c-3.947-3.194-8.864-5.327-11.521-9.841C48.322,202.441,48.163,201.161,47.185,200.699z"/>
<path fill="#6A5D52" d="M49.104,203.1c-1.02-0.421-1.22-1.661-1.92-2.4C48.163,201.161,48.322,202.441,49.104,203.1z"/>
<path fill="#6A5D52" d="M72.146,225.901c-0.069,0.489-0.648,0.471-0.72,0.96c-0.622,0.338-1.108,0.813-1.68,1.2
	C70.315,227.11,71.361,226.637,72.146,225.901z"/>
<path fill="#CDB171" d="M70.227,229.982c-0.029,0.53-1.018,0.102-1.438,0.24C68.369,229.343,69.683,229.996,70.227,229.982z"/>
<path fill="#BA918D" d="M97.59,174.777c-1.177-0.984-2.344-1.978-3.121-3.36c0.08,0,0.16,0,0.24,0
	C95.521,172.686,96.695,173.593,97.59,174.777z"/>
<path fill="#6A5D52" d="M94.709,171.417c-0.08,0-0.16,0-0.24,0c-1.501-1.54-2.944-3.137-4.56-4.561
	C91.847,168.038,93.171,169.835,94.709,171.417z"/>
<path fill="#6A5D52" d="M87.268,165.177c-0.707-0.412-1.947-0.291-2.399-0.96C85.802,164.402,86.833,164.491,87.268,165.177z"/>
<path fill="#BA918D" d="M80.548,163.976c0.106,0.823-1.698-0.084-2.642,0.24C78.802,163.703,79.504,163.929,80.548,163.976z"/>
<path fill="#BA918D" d="M74.547,165.416c-1.442,1.176-3.046,2.542-0.72,3.842c-0.526-0.516-1.333-0.747-1.682-1.44
	C72.009,166.962,73.615,165.979,74.547,165.416z"/>
<path fill="#6A5D52" d="M72.146,167.816c0.349,0.693,1.154,0.926,1.682,1.44c1.199,0.078,1.209,1.351,2.399,1.438
	C74.822,170.896,72.534,168.636,72.146,167.816z"/>
<path fill="#6A5D52" d="M72.867,175.258c0.015-0.734,0.881-1.25,0.239-1.921C74.492,173.379,73.288,174.889,72.867,175.258z"/>
<path fill="#6A5D52" d="M68.547,173.098c-0.507,0.854-0.689,2.03-1.2,2.881C67.381,174.651,67.883,173.793,68.547,173.098z"/>
<path fill="#6A5D52" d="M65.906,180.299c-0.174,0.945-0.299,1.941-0.721,2.64C65.259,181.891,65.436,180.947,65.906,180.299z"/>
<path fill="#6A5D52" d="M64.947,184.618c-0.5,2.306-1.024,4.439-1.681,7.2C63.35,188.941,64.066,186.698,64.947,184.618z"/>
<path fill="#6A5D52" d="M68.547,199.739c-1.854-0.546-3.032-1.768-5.041-2.16c-0.149-0.573-0.074-1.13-0.239-2.16
	c0.079,0,0.159,0,0.239,0c-0.023,0.744,0.294,1.146,0.48,1.681c0.027,0.4,1.022-0.274,0.959,0.72
	c0.093,0.078,0.398-0.364,0.24-0.479C66.193,198.076,68.919,199.5,68.547,199.739z"/>
<path fill="#6A5D52" d="M74.547,199.739c0,0.08,0,0.16,0,0.24c-2.005-0.728-4.168,0.823-5.76-0.24c1.54-0.201,3.234,0.222,4.08-0.72
	c0.378,0.125,1.284,0.924,1.68,0.24C74.837,199.311,74.695,199.525,74.547,199.739z"/>
<path fill="#6A5D52" d="M80.308,199.26c-1.1,0.938-1.829-1.585-3.12-0.48c0.455,0.69,0.266,2.395,0,3.121
	c-0.899-0.545-1.056-2.551-2.399-1.92c0-0.08,0-0.16,0-0.24c0.734-1.184,1.745,0.35,1.92,1.2c0.956-0.958-0.234-1.613,0.721-2.88
	C78.887,197.959,79.222,198.985,80.308,199.26z"/>
<path fill="#6A5D52" d="M99.988,199.26c-0.314-0.032-1.735-0.037-0.959,0.239c-0.236,0.736-0.642-0.275-0.961-0.239
	c0.208-0.698,0.359-0.271,0.961-0.24C99.388,199.061,99.915,198.934,99.988,199.26z"/>
<path fill="#BA918D" d="M100.949,201.899c-0.164-1.037-0.648-1.752-0.961-2.64c-0.073-0.326-0.601-0.199-0.959-0.24
	c0.242-0.676,1.02,0.065,1.439,0c-0.536,0.605,0.524,1.072,0.48,1.92c0.261-0.061,0.162-0.479,0.479-0.48c0,0.32,0,0.641,0,0.96
	C101.169,201.479,101.267,201.896,100.949,201.899z"/>
<path fill="#BA918D" d="M65.187,194.699c-0.411,0.05-0.622-0.409-0.721,0c-0.19-0.026-0.728-0.793-0.239-0.72
	c-0.041,0.521,0.852,0.108,1.2,0.24C65.763,194.304,65.447,194.642,65.187,194.699z"/>
<path fill="#272923" d="M66.626,195.419c0.204-1.293-0.649-0.242-0.96,0c-0.308,0.014-0.332,0.309-0.721,0.24
	c0.163-0.557,0.613-0.827,0.961-1.2c-0.059-0.261-0.396-0.575-0.479-0.239c-0.35-0.132-1.241,0.279-1.2-0.24c0-0.08,0-0.16,0-0.24
	c0.454-0.266,1.135-0.306,1.68-0.479c0-0.32,0-0.641,0-0.96c0-0.08,0-0.16,0-0.24c0.438-0.362,0.564-1.036,0.961-1.44
	c0.399-0.398,1.154-0.444,1.439-0.96c1.728-0.646,3.047-0.739,4.562-1.2c1.433,0.465,2.027,0.335,3.601,0.721
	c0.354,0.604,0.928,0.991,1.68,1.199c0.338,3.349-2.833,4.914-5.521,6C70.138,196.495,67.394,196.315,66.626,195.419z
	 M69.507,193.979c-0.08,0-0.16,0-0.24,0c-0.506,0.534-1.419,0.661-1.68,1.439c1.285,0.47,2.819,0.618,3.84,0.24
	c1.103-0.097,2.129-0.271,2.641-0.96c1.29-0.39,2.034-1.326,2.641-2.399c-1.345,0.449-2.614,0.657-4.32,1.199
	c-1.201-0.162-1.856,0.223-2.88,0.24C69.507,193.819,69.507,193.898,69.507,193.979z M67.106,191.578
	c-0.419,0.222-0.528,0.75-0.479,1.44c0.813-0.114,3.238,0.788,3.601-0.72c0.407-2.438,3.612-1.587,4.802-0.48
	c0.195-0.604,1.266-0.334,1.68-0.72C74.478,188.439,70.145,189.933,67.106,191.578z"/>
<path fill="#6A5D52" d="M78.147,190.378c-0.752-0.208-1.325-0.595-1.68-1.199C77.167,189.438,77.887,189.68,78.147,190.378z"/>
<path fill="#6A5D52" d="M72.867,188.458c-1.515,0.461-2.834,0.554-4.562,1.2c0.589-0.931,2.164-0.876,3.36-1.2
	C72.263,188.77,72.832,187.924,72.867,188.458z"/>
<path fill="#BA918D" d="M65.906,192.059c-0.58-0.218,0.544-0.708,0.239-1.44c0.315,0.288,0.377,0.094,0.72,0
	C66.471,191.023,66.345,191.697,65.906,192.059z"/>
<path fill="#6A5D52" d="M65.906,192.299c0,0.319,0,0.64,0,0.96c-0.547,0.174-1.227,0.214-1.681,0.479
	c0.104-0.856,1.754-0.167,1.439-1.439C65.746,192.299,65.826,192.299,65.906,192.299z"/>
<path fill="#BA918D" d="M74.787,175.978c-0.43,0.834-2.691,0.169-1.92-0.721C73.031,175.975,73.822,176.062,74.787,175.978z"/>
<path fill="#272923" d="M83.188,169.258c3.123,1.415,5.194,2.898,6.722,5.521c-0.241-0.001-0.286,0.194-0.48,0.239
	c0.591-1.908-1.49-1.697-2.399-2.399c-1.235-0.953-2.276-3.293-3.841-2.881C83.188,169.576,83.188,169.416,83.188,169.258z"/>
<path fill="#BA918D" d="M103.59,187.259c-0.427-0.77-0.466-1.211-0.24-2.16C103.629,185.475,103.869,187.117,103.59,187.259z"/>
<path fill="#CDB171" d="M95.188,188.938c-2.922-0.824-4.905-0.709-7.44,0c1.69-1.653,5.865-0.371,6.961-0.96
	C95.311,188.401,94.878,188.374,95.188,188.938z"/>
<path fill="#6A5D52" d="M94.709,196.619c-2.63,0.621-8.178-0.868-8.881-4.08C87.208,195.396,91.316,196.545,94.709,196.619z"/>
<path fill="#6A5D52" d="M97.349,195.899c-0.344,0.546-2.005,1.021-2.399,0.72C95.7,196.33,96.458,196.049,97.349,195.899z"/>
<path fill="#BA918D" d="M101.91,196.379c-0.581-0.218,0.544-0.708,0.239-1.439c-0.664,0.03-0.823,0.458-0.479-0.24
	c0.16,0,0.32,0,0.479,0c-0.044,0.204,0.095,0.228,0.24,0.24C102.58,195.77,102.123,195.952,101.91,196.379z"/>
<path fill="#6A5D52" d="M93.269,199.739c-0.196-0.59,3.044-0.438,4.081-0.24C96.152,199.958,94.457,199.906,93.269,199.739z"/>
<path fill="#6A5D52" d="M89.188,199.499c-1.939,0.584-5.979-0.076-8.881-0.479c-0.001-0.241,0.194-0.286,0.24-0.48
	C83.57,199.349,86.199,199.158,89.188,199.499z"/>
<path fill="#6A5D52" d="M102.149,194.699c-0.946-2.894-4.213-3.468-6-5.521c2.226,1.375,4.774,2.426,6,4.8
	c0.473,0.072,0.477-0.324,0.721-0.48c-0.025,0.615-0.137,1.146-0.48,1.44C102.243,194.926,102.105,194.903,102.149,194.699z"/>
<path fill="#6A5D52" d="M101.67,194.699c-0.478-0.003-0.305-0.655-0.96-0.479c0,0.08,0,0.159,0,0.239
	c-0.342-0.293-0.545-0.916-0.24-1.199C101.063,193.545,101.408,194.08,101.67,194.699z"/>
<path fill="#6A5D52" d="M99.51,195.419c0.091-0.812-0.416-1.023-0.72-1.439c0.649-0.478,0.928,1.463,2.16,1.2
	C100.499,195.467,99.563,195.312,99.51,195.419z"/>
<path fill="#6A5D52" d="M99.269,195.419c-0.895-0.407-0.38,0.143-1.2,0.24c0.127-0.192,0.25-0.39,0.24-0.72
	c-1.001-0.041-1.184,0.736-2.16,0.72c-0.065-0.992,2.294-0.411,1.44-1.439C98.3,194.47,98.76,194.97,99.269,195.419z"/>
<path fill="#BA918D" d="M88.709,193.019c-0.298,0.331-0.698,0.138-1.2-0.24c0.101,0.86,1.396,0.525,1.44,1.44
	c-0.558-0.644-1.839-0.563-1.92-1.681C87.772,192.515,88.175,192.832,88.709,193.019z"/>
<path fill="#6A5D52" d="M65.666,195.419c0.242,0.723-0.534,0.426-0.96,0.48c0.021-0.341,0.04-0.68-0.24-0.72
	c0.055-0.347,0.717-0.083,0.721-0.48c0.261-0.058,0.576-0.396,0.24-0.479c0.084-0.336,0.422-0.021,0.479,0.239
	c-0.348,0.373-0.798,0.644-0.961,1.2C65.334,195.727,65.359,195.433,65.666,195.419z"/>
<path fill="#CDB171" d="M76.468,189.179c-1.572-0.386-2.168-0.256-3.601-0.721c-0.035-0.534-0.604,0.313-1.2,0
	c1.021-1.171,2.481,0.597,3.84-0.239C74.814,189.218,76.769,188.31,76.468,189.179z"/>
<path fill="#BA918D" d="M71.427,195.659c-1.021,0.378-2.555,0.229-3.84-0.24c0.261-0.778,1.174-0.905,1.68-1.439
	c0.08,0,0.16,0,0.24,0c0,0.08,0,0.16,0,0.24c-0.425,0.216-0.701,0.579-1.2,0.72c0.277,0.922,2.104,0.297,3.12,0.479
	C71.427,195.498,71.427,195.578,71.427,195.659z"/>
<path fill="#BA918D" d="M94.949,194.458c-0.08,0-0.16,0-0.24,0c-0.163-0.185-0.798-0.364-0.96,0.24
	c-0.244-0.156-0.249-0.552-0.72-0.479C94.039,194.105,93.955,193.341,94.949,194.458z"/>
<path fill="#BA918D" d="M95.188,194.458c0.076-0.563,1.139-0.142,0.96-0.96C97.292,194.251,95.869,194.478,95.188,194.458z"/>
<path fill="#BA918D" d="M72.387,193.498c1.186,0.012,1.628,0.05,2.16,0.24c-0.906,0.723-0.619,0.866-2.16,1.2
	c0.335,0.625,1.242-0.175,1.681-0.24c-0.512,0.689-1.538,0.863-2.641,0.96c0-0.08,0-0.16,0-0.24c-0.127-0.192-0.25-0.39-0.24-0.72
	c-0.463,0.436-1.216-0.194-1.68-0.479c0-0.08,0-0.16,0-0.24s0-0.16,0-0.24C70.529,193.722,71.186,193.337,72.387,193.498z"/>
<path fill="#BA918D" d="M69.507,194.22c0.464,0.286,1.217,0.915,1.68,0.479c-0.01,0.331,0.113,0.527,0.24,0.72
	c-1.018-0.183-2.843,0.442-3.12-0.479C68.806,194.799,69.082,194.435,69.507,194.22z"/>
<path fill="#BA918D" d="M94.709,194.458c0.238,0.911-1.915,0.156-2.16,0.48c-0.4,0-0.8,0-1.2,0c-0.715-0.281-1.425-0.048-2.16-0.72
	c0.08,0,0.16,0,0.24,0c0.601-0.456,0.943,0.198,1.68-0.24c-0.058-0.422-0.413-0.547-0.96-0.48c-0.08,0-0.16,0-0.239,0
	c0-0.08,0-0.16,0-0.239c3.274,1.031,5.126-1.131,7.681,0.96c0.854,1.028-1.507,0.447-1.44,1.439c-0.399,0-0.8,0-1.199,0
	c0.449-0.457,0.025-0.603,0-1.2c-0.994-1.117-0.91-0.353-1.921-0.239c0.473-0.072,0.477,0.323,0.721,0.479
	C93.911,194.094,94.547,194.273,94.709,194.458z M96.148,193.498c0.179,0.818-0.884,0.396-0.96,0.96
	C95.869,194.478,97.292,194.251,96.148,193.498z"/>
<path fill="#BA918D" d="M74.067,194.699c-0.438,0.065-1.346,0.864-1.681,0.24c1.541-0.333,1.254-0.478,2.16-1.2
	c-0.532-0.19-0.975-0.229-2.16-0.24c1.706-0.542,2.977-0.75,4.32-1.199C76.102,193.372,75.357,194.31,74.067,194.699z"/>
<path fill="#BA918D" d="M89.909,193.498c0.079,0,0.159,0,0.239,0c0.547-0.066,0.902,0.059,0.96,0.48
	c-0.736,0.438-1.079-0.216-1.68,0.24c0.088-0.408-0.187-0.453-0.479-0.48C89.014,192.897,90.011,194.173,89.909,193.498z"/>
<path fill="#BA918D" d="M89.428,194.22c-0.08,0-0.16,0-0.24,0s-0.16,0-0.24,0c-0.045-0.915-1.339-0.581-1.439-1.44
	c0.502,0.378,0.902,0.571,1.2,0.24c0.557-0.077,0.921,0.039,1.2,0.24c0,0.08,0,0.159,0,0.239c0.103,0.675-0.896-0.602-0.961,0.24
	C89.24,193.766,89.517,193.811,89.428,194.22z"/>
<path fill="#6A5D52" d="M112.23,193.739c0.493-2.189,0.393-8.075,1.44-9.841C113.163,186.259,113.877,190.678,112.23,193.739z"/>
<path fill="#D3C5A0" d="M70.227,192.299c-0.521,0.757-2.152,0.405-3.359,0.479c-0.198-0.678,0.339-0.622,0.239-1.2
	c3.038-1.646,7.371-3.14,9.602-0.479c-0.414,0.386-1.483,0.117-1.681,0.72C73.839,190.712,70.634,189.86,70.227,192.299z"/>
<path fill="#D3C5A0" d="M70.227,192.299c-0.361,1.508-2.786,0.605-3.601,0.72c-0.049-0.69,0.062-1.219,0.479-1.44
	c0.1,0.578-0.438,0.521-0.24,1.2C68.072,192.704,69.704,193.057,70.227,192.299z"/>
<path fill="#D3C5A0" d="M87.988,190.139c-0.298,0.502-0.697,0.901-1.199,1.2c1.354,1.311,3.637,0.546,4.319-0.721
	c-0.334,0.706-1.172,0.908-1.199,1.92c-1.462-0.272-1.608-0.398-3.121-0.479C86.283,191.093,87.413,190.707,87.988,190.139z"/>
<path fill="#D3C5A0" d="M94.229,191.578c-0.08,0-0.16,0-0.24,0c-0.48-0.398-0.889-0.871-1.68-0.96
	c-0.006-0.232-0.294-0.186-0.479-0.24C92.639,189.818,93.841,190.919,94.229,191.578z"/>
<path fill="#BA918D" d="M103.109,191.578c-0.187-0.596,0.262-2.612,0.48-3.601C103.703,188.941,103.773,190.734,103.109,191.578z"/>
<path fill="#6A5D52" d="M111.99,187.738c-0.039,0.281-0.438,0.202-0.721,0.24c0.125-3.104-0.006-5.994,0-8.401
	C112.504,183.112,111.441,185.641,111.99,187.738z"/>
<path fill="#272923" d="M78.388,182.458c-0.502,0.103-0.636-0.165-0.96-0.239c0.436-1.807,2.271-2.209,3.84-2.882
	c1.001,0.841,4.301,0.524,4.32,2.642c-1.731-0.226-3.341-1.73-5.04-1.2C79.707,181.219,78.564,181.354,78.388,182.458z"/>
<path fill="#6A5D52" d="M85.588,181.978c-0.021-2.116-3.319-1.801-4.32-2.642c0-0.078,0-0.158,0-0.238
	c1.893,0.106,2.73,1.27,4.562,1.438c0.021,0.897,0.269,0.686,0,1.44C85.748,181.978,85.668,181.978,85.588,181.978z"/>
<path fill="#BA918D" d="M104.79,176.218c0.727,0.502,1.053,2.16,0.72,2.399c-0.24,0-0.48,0-0.72,0
	c0.541-0.434,0.564-1.212,0.239-1.92C104.984,176.503,104.789,176.458,104.79,176.218z"/>
<path fill="#6A5D52" d="M102.63,180.537c-0.236-0.869-2.127-2.402-1.68-3.84c0.038,0.282-0.041,0.682,0.239,0.72
	c0.185,0.856,0.619,1.462,1.2,1.92c-0.039,0.279,0.053,0.429,0.24,0.48c0,0.16,0,0.32,0,0.48
	C102.63,180.378,102.63,180.457,102.63,180.537z"/>
<path fill="#BA918D" d="M105.27,180.058c-0.041-0.28-0.379-0.262-0.72-0.24c-0.28,0.04-0.261,0.38-0.24,0.72
	c-0.187-0.053-0.278-0.2-0.239-0.479c-0.422,0.242-1.289,0.415-0.721,0.96c-0.411,0.011-0.622-0.179-0.72-0.48
	c0-0.08,0-0.159,0-0.238c0.502,0.102,0.636-0.165,0.96-0.24c0.378-0.423,1.285-0.314,1.68-0.721c0.08,0,0.16,0,0.24,0
	C105.529,179.679,105.55,180.017,105.27,180.058z"/>
<path fill="#BA918D" d="M103.35,181.018c-0.566-0.545,0.299-0.718,0.721-0.96c-0.039,0.278,0.053,0.427,0.239,0.479
	c-0.021-0.34-0.04-0.68,0.24-0.72c0.341-0.021,0.68-0.04,0.72,0.24c-0.125,0.354-0.354,0.604-0.479,0.96
	C104.31,181.018,103.83,181.018,103.35,181.018z"/>
<path fill="#BA918D" d="M62.546,178.617c0.673,0.235-0.349,0.642,0.24,0.96c0.159,1.07,0.616,0.453,1.68,0.722
	C63.304,181.06,62.022,179.935,62.546,178.617z"/>
<path fill="#BA918D" d="M103.59,180.058c-0.325,0.075-0.458,0.342-0.96,0.24c0-0.16,0-0.32,0-0.48c0.355-0.104-0.095-0.307,0-0.72
	c0.261,0.059,0.163,0.477,0.479,0.479c0.43,0.071,0.016-0.931-0.479-0.72c-0.039-0.281-0.438-0.202-0.72-0.24
	c-0.188-0.593-0.08-0.71-0.721-1.2c-0.28-0.038-0.203-0.438-0.239-0.72c0.192-0.127,0.39-0.251,0.72-0.24
	c-0.088,0.408,0.187,0.453,0.479,0.48c0.271,0.753-0.068,0.634,0.24,1.2c0.145-0.359,1.208-1.002,0.72-1.2c0-0.08,0-0.16,0-0.24
	c0.563-0.567,1.18,0.039,1.92,0c0.325,0.708,0.301,1.486-0.239,1.92c0.239,0,0.479,0,0.72,0c0.167,0.193,0.374,0.657,0,0.72
	c-0.08,0-0.16,0-0.24,0c-0.463-0.443-0.189-0.438-0.96-0.238c-0.044-0.204,0.095-0.228,0.24-0.24c0.649-0.462-0.656-0.758,0.24-1.2
	c-0.268-0.506-0.95,0.715-1.2-0.24c-0.057,0.18-0.531,1.297,0.48,1.2C103.872,179.122,103.082,179.554,103.59,180.058z"/>
<path fill="#BA918D" d="M65.187,178.377c0.157,0.097-0.034,1.873-0.721,1.922c-1.063-0.269-1.521,0.35-1.68-0.722
	c0.656-0.271,1.722,0.002,0.72,0.24C64.299,180.516,64.878,178.959,65.187,178.377z"/>
<path fill="#6A5D52" d="M56.785,174.058c0.802,2.485,0.046,3.626,0.479,6.241C55.998,178.188,56.271,175.95,56.785,174.058z"/>
<path fill="#BA918D" d="M105.27,179.337c-0.395,0.406-1.302,0.299-1.68,0.722c-0.508-0.505,0.282-0.937,0.48-1.44
	c-1.012,0.097-0.537-1.021-0.48-1.2c0.25,0.955,0.933-0.266,1.2,0.24c-0.896,0.442,0.409,0.738-0.24,1.2
	c-0.146,0.014-0.284,0.036-0.24,0.24C105.08,178.897,104.807,178.893,105.27,179.337z"/>
<path fill="#BA918D" d="M65.187,178.377c-0.309,0.582-0.888,2.14-1.681,1.44c1.002-0.238-0.063-0.513-0.72-0.24
	c-0.589-0.318,0.433-0.725-0.24-0.96c-0.037-0.597,0.377-0.743,0.479-1.2c1.092-0.131,1.797,0.124,2.16,0.722
	C65.187,178.218,65.187,178.298,65.187,178.377z"/>
<path fill="#BA918D" d="M102.63,178.857c-0.614-0.011-0.292,0.179-0.24,0.479c-0.582-0.458-1.017-1.063-1.2-1.92
	c0.642,0.49,0.533,0.607,0.721,1.2C102.191,178.655,102.591,178.576,102.63,178.857z"/>
<path fill="#BA918D" d="M103.109,176.938c-0.278-0.039-0.427,0.053-0.479,0.239c-0.224-0.137-0.363-0.667-0.48-0.239
	c-0.293-0.027-0.567-0.072-0.479-0.48c-0.331-0.011-0.527,0.113-0.72,0.24c0.306-0.574,0.782-0.978,1.68-0.96c0,0.08,0,0.16,0,0.24
	c-0.324,0.075-0.458,0.341-0.96,0.239c0.347,0.71,0.536,0.207,1.439,0.479C103.109,176.777,103.109,176.857,103.109,176.938z"/>
<path fill="#BA918D" d="M104.79,176.218c0,0.24,0.194,0.285,0.239,0.479c-0.74,0.039-1.356-0.566-1.92,0
	c-0.903-0.272-1.093,0.229-1.439-0.479c0.502,0.102,0.636-0.164,0.96-0.239C103.681,175.649,103.863,175.947,104.79,176.218z"/>
<path fill="#D3C5A0" d="M94.709,176.938c-0.281-0.039-0.203-0.438-0.24-0.721c0.24,0,0.48,0,0.72,0
	c0.044-0.204-0.094-0.228-0.239-0.239c-0.687-0.278,0.388-0.278,0.479,0c-0.147,0.213-0.29,0.429,0,0.479
	C95.375,176.804,94.713,176.541,94.709,176.938z"/>
<path fill="#6A5D52" d="M74.307,175.017c0.568-1.433,3.715-0.286,4.321-1.681c2.819-0.18,4.896,0.384,7.68,0.24
	c-2.431-1.997-5.95-1.16-9.121-1.439c2.121-3.796,8.893-0.352,11.041,2.159c-2.4-0.689-5.246,1.743-7.201,0
	C79.788,175.978,76.709,174.917,74.307,175.017z"/>
<path fill="#6A5D52" d="M76.707,173.098c-0.331-0.708-1.108-0.973-1.439-1.681C75.636,171.938,77.337,172.373,76.707,173.098z"/>
<path fill="#272923" d="M73.107,169.977c-0.912-0.527-1.91-0.97-2.399-1.92C71.365,168.839,72.553,169.092,73.107,169.977z"/>
<path fill="#272923" d="M68.547,166.616c-0.904-0.296-1.477-0.925-2.16-1.439C66.703,165.11,68.092,166.023,68.547,166.616z"/>
<path fill="#6A5D52" d="M71.427,170.696c0.904,0.536,2.001,0.88,2.4,1.921C73.168,171.835,71.981,171.583,71.427,170.696z"/>
<path fill="#6A5D52" d="M107.67,172.377c-0.535,0.52-0.971-1.098-0.96-1.92C107.692,170.821,107.234,171.938,107.67,172.377z"/>
<path fill="#6A5D52" d="M64.706,165.656c0.282-1.146,0.428-1.822-0.721-2.16c-0.674,0.003,0.571,0.654-0.479,0.479
	c0.111,0.77,0.914,0.847,0.96,1.681c-0.765-0.543-1.623-1.479-0.72-2.399C65.222,163.232,65.812,165.072,64.706,165.656z"/>
<path fill="#BA918D" d="M64.706,165.656c-0.08,0-0.16,0-0.24,0c-0.046-0.834-0.849-0.911-0.96-1.681
	c1.052,0.175-0.193-0.478,0.48-0.479C65.134,163.834,64.988,164.511,64.706,165.656z"/>
<path fill="#6A5D52" d="M60.865,145.256c-0.574-0.387-1.596-0.325-1.92-0.962c0.89-0.009,1.392,0.369,1.92,0.722
	C60.865,145.096,60.865,145.176,60.865,145.256z"/>
<path fill="#6A5D52" d="M89.188,163.976c0.455-1.654-1.436-0.964-1.92-1.681c0.882,0.078,1.646,0.274,2.16,0.721
	C89.409,163.396,89.544,163.933,89.188,163.976z"/>
<path fill="#BA918D" d="M84.628,162.776c-2.479-0.174-4.039-0.1-5.28-0.24C81.27,161.955,82.887,161.961,84.628,162.776z"/>
<path fill="#6A5D52" d="M84.628,162.776c1.337-0.246,3.208,0.915,4.561,1.439c0.08,0,0.16,0,0.24,0
	C88.37,164.998,86.249,163,84.628,162.776z"/>
<path fill="#CDB171" d="M89.188,163.976c0,0.08,0,0.16,0,0.24c-1.353-0.524-3.223-1.687-4.561-1.439
	c-1.741-0.815-3.358-0.821-5.28-0.24c-0.521,0.359-1.352,0.409-2.16,0.479c-0.319,0-0.641,0-0.96,0
	c-0.174-0.733,0.245-0.874,0.24-1.439c0.578-0.565,1.962-0.697,2.64-0.479c0.198,0.035,2.122,0.13,2.4,0
	c2.325-0.151,3.886,0.396,5.76,1.199C87.753,163.013,89.643,162.321,89.188,163.976z"/>
<path fill="#6A5D52" d="M76.468,161.576c0.005,0.565-0.414,0.706-0.24,1.439c0.319,0,0.641,0,0.96,0
	c-0.203,0.356-0.771,0.348-1.199,0.479C76.062,162.771,75.721,161.629,76.468,161.576z"/>
<path fill="#6A5D52" d="M81.508,161.097c-0.278,0.13-2.202,0.035-2.4,0C79.365,160.698,81.249,160.698,81.508,161.097z"/>
<path fill="#6A5D52" d="M94.709,161.336c-0.284-0.069-0.907-0.967-1.2-0.239c-0.695-0.136,0.368-0.374,0.24-0.721
	c0.08,0,0.16,0,0.239,0c0-0.239,0-0.479,0-0.721c0.454,0.347,0.056,1.546,0.961,1.44C94.993,161.301,94.855,161.322,94.709,161.336z
	"/>
<path fill="#BA918D" d="M95.429,160.855c0.273,3.474-2.666,3.734-4.8,4.801c0-0.24,0-0.479,0-0.72c0.133,0,0.271-0.194,0-0.24
	c-0.007-0.728,1.208-0.231,1.2-0.96c-0.778-0.822-1.255-1.945-2.641-2.16c-1.337-0.263-2.419-0.781-3.601-1.2
	c0-0.08,0-0.159,0-0.239c-1.016,0.358-1.542-0.996-2.16-0.24c-3.946-0.026-7.588-0.561-9.121,2.16
	c0.863,0.017,0.759,1.002,0.721,1.92c-0.354,0.125-0.604,0.354-0.96,0.479c-1.269-0.332-2.038-1.162-2.641-2.159
	c0.775-1.01,0.812-3.699,1.2-5.762c0.08,0,0.16,0,0.24,0c-0.006-1.228,0.317-1.894-0.24-2.88c-0.588-1.688-0.157-2.081-0.48-3.601
	c-0.558-1.694-2.221-1.9-3.84-2.16c-3.071-0.766-4.932-1.286-7.439-2.641c0-0.079,0-0.159,0-0.239
	c-0.529-0.353-1.031-0.729-1.922-0.722c-1.017,0.059-1.22-0.699-1.92-0.96c-1.313-0.605-2.274-1.563-3.6-2.159
	c-1.648-0.392-1.803-1.193-3.36-1.921c0.305-0.602-1.069-1.229-1.681-1.68c-0.563-0.077-0.537-0.743-0.96-0.961
	c-0.413-0.946-0.995-1.725-1.68-2.398c-0.331-0.79-0.63-1.611-0.961-2.4c25.521,0,51.045,0,76.566,0
	c-0.98,4.248-2.735,6.209-5.041,8.4c-3.727,3.543-11.348,5.149-16.801,7.439c-1.144,0.48-2.985,1.422-3.84,2.16
	c-2.53,2.187-0.248,6.033-0.72,8.401C95.006,159.199,95.066,160.179,95.429,160.855z M93.988,159.655
	c-0.477-2.588-0.366-7.08,0-9.601c0.776-0.189-1.088-0.938-0.959-0.479c0.618,0.059-0.33,0.412,0,0.96
	c0.579,0.576-0.584,0.635-0.24,1.681c-0.549,0.41-0.088,1.832-0.24,2.641c0.427,1.411,0.034,4.712,1.2,5.521
	c0.128,0.347-0.937,0.585-0.24,0.721c0.284,0.355,0.208,1.071,0.96,0.96c0.013-0.308,0.308-0.332,0.24-0.721
	c0.146-0.014,0.284-0.035,0.24-0.239C94.044,161.201,94.442,160.002,93.988,159.655z M91.829,159.655
	c-0.548-0.065-0.902,0.06-0.96,0.48c0.323,0.074,0.458,0.342,0.96,0.239C91.829,160.137,91.829,159.896,91.829,159.655z
	 M87.988,146.935c-1.166,3.398-0.222,7.94,0,12.241c0.24,0,0.48,0,0.721,0C88.004,155.945,89.115,150.66,87.988,146.935z
	 M73.587,154.375c-0.111,1.69,0.169,3.604,0,4.802c1.35,0.186,0.621-0.794,0.96-1.2c0.126-3.354-0.438-7.872-0.96-10.081
	C71.888,149.365,74.498,151.624,73.587,154.375z M91.108,153.896c0.031-1.613,1.189-4.088-0.239-5.761
	c-0.138,3.67-1.304,7.458,0.479,10.561C91.436,156.78,91.079,155.457,91.108,153.896z M85.828,158.455
	c0.067-0.627-0.088-1.031-0.721-0.96C85.041,158.122,85.026,158.696,85.828,158.455z M75.747,149.814
	c1.26,3.787-0.173,5.8,1.2,8.401c0.261-2.726-0.121-5.955-0.479-8.882c0.24-0.133,0.237-1.539-0.479-1.92
	c0.372-0.591-0.815-0.706-0.721-0.239C75.279,147.493,75.43,148.726,75.747,149.814z M82.468,147.176
	c-0.31-0.907,0.347-1.291-0.72-1.44c0.424,4.181-0.118,8.879,0.72,12.241c0.752-3.354,0.293-4.529,0.24-8.642
	C83.24,148.94,82.68,147.619,82.468,147.176z M78.628,145.975c-0.907,1.603,0.533,4.492,0.72,6.721
	c0.182,2.165-0.366,4.027,0.479,5.28c0.833-3.078-0.291-4.548-0.239-8.161C79.688,149.225,79.478,145.614,78.628,145.975z
	 M84.868,149.096c0.446,1.687-0.865,6.634,0.72,7.921c0.443-0.818,0.027-2.719,0.24-3.602c0-1.04,0-2.08,0-3.12
	c-0.728-1.458,0.062-2.485-0.24-3.841c-0.16,0-0.32,0-0.48,0C84.095,146.781,84.973,148.879,84.868,149.096z"/>
<path fill="#6A5D52" d="M93.029,150.535c-0.33-0.548,0.618-0.901,0-0.96c-0.129-0.459,1.735,0.29,0.959,0.479
	c-0.24,0.001-0.285-0.194-0.479-0.24C93.393,150.1,93.253,150.359,93.029,150.535z"/>
<path fill="#6A5D52" d="M74.547,157.976c-0.339,0.406,0.39,1.386-0.96,1.2c0.169-1.197-0.111-3.11,0-4.802
	c0.54,1.259,0.139,3.355,0.24,3.842C74.215,158.283,74.24,157.988,74.547,157.976z"/>
<path fill="#6A5D52" d="M76.468,149.335c-0.328-0.473-0.229-1.37-0.479-1.92C76.705,147.796,76.708,149.202,76.468,149.335z"/>
<path fill="#6A5D52" d="M75.747,149.814c-0.317-1.089-0.468-2.321-0.479-2.64C75.779,147.596,75.844,149.179,75.747,149.814z"/>
<path fill="#6A5D52" d="M82.708,149.335c-0.142-0.583-0.181-1.024-0.24-2.159C82.68,147.619,83.24,148.94,82.708,149.335z"/>
<path fill="#6A5D52" d="M79.588,149.814c-0.521-1.079-0.173-3.027-0.96-3.84C79.478,145.614,79.688,149.225,79.588,149.814z"/>
<path fill="#6A5D52" d="M84.868,149.096c0.104-0.217-0.773-2.313,0.239-2.642C84.355,147.188,85.494,148.488,84.868,149.096z"/>
<path fill="#D3C5A0" d="M72.387,225.661c0.699,0.337-0.425,0.827-0.24,1.44c-0.307-0.013-0.332-0.309-0.72-0.24
	c0.07-0.489,0.649-0.471,0.72-0.96C72.351,225.945,72.373,225.808,72.387,225.661z"/>
<path fill="#6A5D52" d="M96.629,203.34c1.245-0.521,1.883,3.732,0.479,5.041C97.012,206.309,97.377,204.228,96.629,203.34z"/>
<path fill="#6A5D52" d="M101.43,201.419c-0.049,0.751,0.162,1.763-0.24,2.16c-0.321-0.181-0.434-1.774-0.239-1.68
	C101.267,201.896,101.169,201.479,101.43,201.419z"/>
<path fill="#6A5D52" d="M89.428,199.499c1.096-0.13,3.018-0.458,3.602,0.24C91.961,199.945,90.458,199.952,89.428,199.499z"/>
<path fill="#BA918D" d="M94.949,195.659c-0.733,0.173-0.875-0.245-1.44-0.24c0-0.079,0-0.159,0-0.239
	c-0.38-0.021-0.916,0.114-0.96-0.24c0.245-0.324,2.398,0.431,2.16-0.48c0.08,0,0.16,0,0.24,0
	C94.975,195.057,95.398,195.202,94.949,195.659z"/>
<path fill="#272923" d="M85.828,192.538c-0.266-1.738,0.755-2.688,1.92-3.601c2.535-0.709,4.519-0.824,7.44,0
	c-0.001,0.241,0.194,0.286,0.24,0.479c0.331,0.011,0.527-0.112,0.72-0.239c1.788,2.053,5.055,2.627,6,5.521c-0.16,0-0.319,0-0.479,0
	c-0.263-0.619-0.606-1.154-1.2-1.439c-0.305,0.283-0.102,0.905,0.24,1.199c0.013,0.308,0.308,0.333,0.24,0.721
	c-1.232,0.263-1.511-1.678-2.16-1.2c0.304,0.416,0.812,0.629,0.72,1.439c-0.08,0-0.16,0-0.24,0c-0.51-0.449-0.97-0.949-1.68-1.199
	c-2.555-2.091-4.405,0.071-7.681-0.96c-0.279-0.202-0.645-0.317-1.2-0.24c-0.534-0.188-0.937-0.504-1.681-0.48
	c0.082,1.118,1.363,1.037,1.92,1.681c0.08,0,0.16,0,0.24,0c0.735,0.672,1.445,0.438,2.16,0.72c0,0.08,0,0.16,0,0.24
	c0.79,0.01,1.195,0.404,2.16,0.239c0.564-0.005,0.707,0.413,1.439,0.24c0.4,0,0.801,0,1.2,0c0.977,0.017,1.159-0.761,2.16-0.72
	c0.011,0.331-0.112,0.527-0.24,0.72c-0.331-0.01-0.526,0.113-0.72,0.24c-0.891,0.149-1.648,0.431-2.4,0.72c-0.079,0-0.159,0-0.239,0
	C91.316,196.545,87.208,195.396,85.828,192.538z M96.148,192.299c0.875,0.073,1.563-0.038,2.16-0.24
	c-2.215-2.141-6.719-3.159-10.32-1.92c-0.576,0.568-1.705,0.954-1.2,1.92c1.512,0.081,1.659,0.207,3.121,0.479
	c0.027-1.012,0.865-1.214,1.199-1.92c0.458,0.451,0.436-0.142,1.2,0c0.791,0.089,1.199,0.562,1.68,0.96c0,0.32,0,0.641,0,0.96
	C94.64,192.391,95.894,192.844,96.148,192.299z"/>
<path fill="#6A5D52" d="M52.945,191.338c0.279,0.041,0.262,0.38,0.24,0.721c-0.759-0.331-1.449,0.594-1.681,0
	c0.243-0.397,1.02-0.261,1.44-0.48C52.945,191.498,52.945,191.418,52.945,191.338z"/>
<path fill="#6A5D52" d="M104.55,183.658c-0.214-0.147-0.429-0.29-0.479,0c-0.142-0.257-0.244-0.729-0.48-1.439c0.32,0,0.64,0,0.96,0
	C104.55,182.697,104.55,183.179,104.55,183.658z"/>
<path fill="#BA918D" d="M102.39,179.337c-0.053-0.301-0.374-0.489,0.24-0.479c0.495-0.211,0.909,0.791,0.479,0.72
	c-0.316-0.003-0.219-0.421-0.479-0.479c-0.095,0.413,0.355,0.615,0,0.72C102.442,179.766,102.351,179.616,102.39,179.337z"/>
<path fill="#BA918D" d="M102.149,176.938c0.117-0.428,0.257,0.104,0.48,0.239c0.053-0.188,0.201-0.278,0.479-0.239
	c0.488,0.198-0.575,0.841-0.72,1.2C102.081,177.571,102.421,177.69,102.149,176.938z"/>
<path fill="#6A5D52" d="M54.386,175.737c0.146-0.495-0.388-1.668,0.479-1.439C54.72,174.792,55.253,175.966,54.386,175.737z"/>
<path fill="#6A5D52" d="M112.23,170.937c-0.298,1.108,0.49,2.374,0,2.88c-0.178-1.022-0.746-1.654-0.96-2.64
	c0.292,0.026,0.568,0.07,0.48,0.479C112.165,172.571,111.731,170.723,112.23,170.937z"/>
<path fill="#6A5D52" d="M79.827,169.258c-0.476,0.404-1.498,0.262-2.16,0.479c0.222-0.419,0.751-0.529,1.439-0.479
	C79.348,169.258,79.588,169.258,79.827,169.258z"/>
<path fill="#BA918D" d="M83.188,169.736c-1.351-0.428-1.99-0.396-3.36-0.479c-0.239,0-0.479,0-0.721,0
	c1.404-0.58,2.559-0.384,4.081,0C83.188,169.416,83.188,169.576,83.188,169.736z"/>
<path fill="#D3C5A0" d="M96.148,192.299c-0.826-0.406-1.771,0.547-1.92-0.721c-0.389-0.66-1.59-1.76-2.399-1.2
	c0.186,0.055,0.474,0.007,0.479,0.24c-0.766-0.142-0.742,0.451-1.2,0c-0.683,1.267-2.966,2.031-4.319,0.721
	c0.502-0.299,0.901-0.698,1.199-1.2c3.603-1.238,8.105-0.22,10.321,1.92C97.711,192.261,97.023,192.372,96.148,192.299z"/>
<path fill="#D3C5A0" d="M76.707,173.098c-0.596-0.035-1.164-0.045-1.2,0.479c-0.656-0.224-1.023-0.736-1.68-0.96
	c-0.399-1.041-1.496-1.385-2.4-1.921c-1.679-1.854-5.599-2.705-5.761-5.28c0.192-0.127,0.39-0.25,0.721-0.239
	c0.686,0.516,1.256,1.145,2.16,1.439c0.761,0.438,1.143,1.258,2.16,1.44c0.488,0.95,1.486,1.393,2.399,1.92
	c0.762,0.438,1.144,1.257,2.16,1.439C75.599,172.125,76.376,172.39,76.707,173.098z"/>
<path fill="#6A5D52" d="M113.19,221.581c0.099-1.021,0.111-2.129,0.48-2.88C113.836,219.868,113.805,220.702,113.19,221.581z"/>
<path fill="#6A5D52" d="M72.627,196.379c-1.166,0.849-4.072,0.026-5.04-0.239c-0.797-0.22-1.67,0.553-0.961-0.721
	C67.394,196.315,70.138,196.495,72.627,196.379z"/>
<path fill="#272923" d="M48.385,180.537c1.268,5.327-5.213,7.325-9.601,7.682c1.572-1.626,4.516-1.886,6.479-3.121
	c0.768-0.435,1.429-0.972,1.68-1.92c-2.128-8.71,5.074-12.955,11.281-14.643c1.436-0.166,2.406-0.794,3.841-0.96
	c0,0.08,0,0.16,0,0.24c-0.257,0.623-1.424,0.337-1.681,0.96c-1.03,0.17-2.009,0.392-2.64,0.96c-4.083,1.838-8.497,3.345-9.361,8.401
	C47.988,178.396,47.988,180.278,48.385,180.537z"/>
</svg>
