<?xml version="1.0" encoding="utf-8"?>
<!-- Generator: Adobe Illustrator 15.1.0, SVG Export Plug-In  -->
<!DOCTYPE svg PUBLIC "-//W3C//DTD SVG 1.1//EN" "http://www.w3.org/Graphics/SVG/1.1/DTD/svg11.dtd" [
	<!ENTITY ns_flows "http://ns.adobe.com/Flows/1.0/">
]>
<svg version="1.1"
	 xmlns="http://www.w3.org/2000/svg" xmlns:xlink="http://www.w3.org/1999/xlink" xmlns:a="http://ns.adobe.com/AdobeSVGViewerExtensions/3.0/"
	 x="0px" y="0px" width="167px" height="258px" viewBox="0.002 0.003 167 258" enable-background="new 0.002 0.003 167 258"
	 xml:space="preserve">
<defs>
	<symbol  id="IN" viewBox="-42.52 -42.519 85.038 85.038">
		<path fill="none" d="M0,42.52c-0.007,0-0.013,0-0.02,0H0.02C0.013,42.519,0.007,42.52,0,42.52z"/>
		<path fill="#FF9933" d="M0.02,42.519H-0.02c-18.504-0.008-34.235-11.839-40.071-28.346H40.09
			C34.253,30.68,18.521,42.511,0.02,42.519z"/>
		<path fill="#FFFFFF" d="M42.519,0c0,4.971-0.861,9.739-2.429,14.173h-80.181C-41.658,9.739-42.52,4.971-42.52,0
			s0.861-9.739,2.429-14.173H40.09C41.657-9.739,42.519-4.971,42.519,0z"/>
		<path fill="#138808" d="M40.09-14.173h-80.181C-34.253-30.686-18.512-42.519,0-42.519C18.511-42.519,34.251-30.686,40.09-14.173z"
			/>
		<g>
			<path fill="#000088" d="M0,13.89c-7.671,0-13.89-6.218-13.89-13.89c0-7.671,6.219-13.89,13.89-13.89S13.89-7.671,13.89,0
				C13.89,7.671,7.671,13.89,0,13.89z"/>
			<path fill="#FFFFFF" d="M0,12.154c-6.712,0-12.153-5.441-12.153-12.154c0-6.712,5.441-12.153,12.153-12.153
				S12.153-6.712,12.153,0C12.153,6.712,6.712,12.154,0,12.154z"/>
			<path fill="#000088" d="M0,2.431c1.343,0,2.431-1.088,2.431-2.431c0-1.342-1.088-2.431-2.431-2.431S-2.431-1.342-2.431,0
				C-2.431,1.343-1.343,2.431,0,2.431z"/>
			<g>
				<g>
					<g id="b_36_">
						<g id="a_72_">
							<path fill="#000088" d="M12.129-0.984c0.333-0.043,0.567-0.349,0.523-0.682c-0.044-0.333-0.35-0.567-0.682-0.523
								c-0.333,0.043-0.567,0.349-0.523,0.682C11.491-1.174,11.796-0.94,12.129-0.984z"/>
							<path fill="#000088" d="M0-12.153l0.417,7.292L0-1.389l-0.417-3.473L0-12.153z"/>
						</g>
						<g transform="rotate(15)">
							<g id="a_47_">
								<path fill="#000088" d="M11.461-4.089c0.311-0.128,0.457-0.484,0.329-0.794c-0.129-0.31-0.484-0.458-0.794-0.329
									c-0.311,0.128-0.457,0.484-0.329,0.794C10.796-4.108,11.151-3.961,11.461-4.089z"/>
								<path fill="#000088" d="M-3.146-11.739l2.29,6.936l0.496,3.462l-1.302-3.247L-3.146-11.739z"/>
							</g>
						</g>
					</g>
					<g id="c_18_">
						<g id="b_23_">
							<g id="a_46_">
								<path fill="#000088" d="M10.012-6.917c0.267-0.204,0.316-0.585,0.112-0.852C9.92-8.035,9.538-8.085,9.272-7.88
									C9.006-7.676,8.956-7.295,9.16-7.028C9.364-6.762,9.746-6.712,10.012-6.917z"/>
								<path fill="#000088" d="M-6.077-10.525l4.008,6.107l1.375,3.216l-2.098-2.799L-6.077-10.525z"/>
							</g>
							<g transform="rotate(30)">
								<g id="a_45_">
									<path fill="#000088" d="M7.881-9.272c0.204-0.266,0.154-0.648-0.112-0.852s-0.647-0.154-0.852,0.112
										C6.712-9.746,6.763-9.364,7.028-9.16C7.295-8.956,7.677-9.006,7.881-9.272z"/>
									<path fill="#000088" d="M-8.594-8.594l5.451,4.862l2.16,2.75l-2.75-2.161L-8.594-8.594z"/>
								</g>
							</g>
						</g>
					</g>
					<g>
						<g id="d_9_">
							<g id="b_22_">
								<g id="a_44_">
									<path fill="#000088" d="M5.212-10.996c0.129-0.31-0.019-0.666-0.328-0.794c-0.311-0.128-0.666,0.019-0.794,0.329
										c-0.129,0.31,0.019,0.666,0.329,0.794C4.729-10.539,5.084-10.686,5.212-10.996z"/>
									<path fill="#000088" d="M-10.525-6.077l6.523,3.285l2.799,2.097L-4.418-2.07L-10.525-6.077z"/>
								</g>
								<g transform="rotate(15)">
									<g id="a_43_">
										<path fill="#000088" d="M2.188-11.97c0.044-0.333-0.19-0.638-0.522-0.682c-0.333-0.044-0.639,0.19-0.683,0.523
											c-0.043,0.333,0.191,0.638,0.523,0.682C1.84-11.403,2.146-11.637,2.188-11.97z"/>
										<path fill="#000088" d="M-11.739-3.146l7.151,1.485l3.246,1.301l-3.462-0.496L-11.739-3.146z"/>
									</g>
								</g>
							</g>
							<g id="c_11_">
								<g id="b_21_">
									<g id="a_42_">
										<path fill="#000088" d="M-0.983-12.129c-0.044-0.333-0.35-0.567-0.683-0.523c-0.332,0.044-0.566,0.349-0.522,0.682
											c0.044,0.333,0.349,0.567,0.682,0.523C-1.174-11.491-0.94-11.796-0.983-12.129z"/>
										<path fill="#000088" d="M-12.153,0l7.292-0.417L-1.389,0l-3.473,0.417L-12.153,0z"/>
									</g>
									<g transform="rotate(60)">
										<g id="a_41_">
											<path fill="#000088" d="M-4.09-11.461c-0.128-0.31-0.483-0.457-0.794-0.329c-0.31,0.128-0.457,0.484-0.328,0.794
												c0.128,0.31,0.483,0.457,0.794,0.329C-4.108-10.795-3.961-11.151-4.09-11.461z"/>
											<path fill="#000088" d="M-11.739,3.146l6.936-2.29l3.462-0.497l-3.246,1.301L-11.739,3.146z"/>
										</g>
									</g>
								</g>
							</g>
						</g>
						<g>
							<g>
								<g>
									<g id="b_20_">
										<g id="a_40_">
											<path fill="#000088" d="M-6.916-10.012c-0.205-0.267-0.586-0.316-0.853-0.112s-0.316,0.586-0.112,0.852
												s0.586,0.316,0.853,0.112C-6.763-9.364-6.712-9.746-6.916-10.012z"/>
											<path fill="#000088" d="M-10.525,6.077l6.107-4.007l3.215-1.375l-2.799,2.097L-10.525,6.077z"/>
										</g>
										<g transform="rotate(15)">
											<g id="a_39_">
												<path fill="#000088" d="M-9.272-7.88c-0.266-0.205-0.647-0.154-0.852,0.112c-0.204,0.267-0.154,0.648,0.112,0.852
													c0.266,0.205,0.647,0.154,0.852-0.112C-8.956-7.295-9.006-7.676-9.272-7.88z"/>
												<path fill="#000088" d="M-8.594,8.594l4.861-5.451l2.75-2.161l-2.16,2.75L-8.594,8.594z"/>
											</g>
										</g>
									</g>
									<g id="c_10_">
										<g id="b_19_">
											<g id="a_38_">
												<path fill="#000088" d="M-10.996-5.212c-0.31-0.128-0.665,0.019-0.794,0.329c-0.128,0.31,0.02,0.666,0.329,0.794
													s0.666-0.019,0.794-0.329C-10.538-4.729-10.686-5.084-10.996-5.212z"/>
												<path fill="#000088" d="M-6.077,10.525l3.285-6.523l2.098-2.799l-1.375,3.215L-6.077,10.525z"/>
											</g>
											<g transform="rotate(30)">
												<g id="a_37_">
													<path fill="#000088" d="M-11.97-2.188c-0.333-0.044-0.639,0.19-0.683,0.523c-0.044,0.333,0.19,0.638,0.523,0.682
														c0.333,0.044,0.638-0.19,0.682-0.523C-11.403-1.84-11.638-2.145-11.97-2.188z"/>
													<path fill="#000088" d="M-3.146,11.74l1.484-7.152l1.302-3.246l-0.496,3.462L-3.146,11.74z"/>
												</g>
											</g>
										</g>
									</g>
									<g>
										<g id="d_5_">
											<g id="b_18_">
												<g id="a_36_">
													<path fill="#000088" d="M-12.129,0.984c-0.333,0.044-0.567,0.349-0.523,0.682c0.044,0.333,0.35,0.567,0.683,0.523
														c0.332-0.044,0.566-0.349,0.522-0.682C-11.491,1.174-11.796,0.94-12.129,0.984z"/>
													<path fill="#000088" d="M0,12.154l-0.417-7.292L0,1.389l0.417,3.472L0,12.154z"/>
												</g>
												<g transform="rotate(15)">
													<g id="a_35_">
														<path fill="#000088" d="M-11.461,4.09c-0.31,0.128-0.457,0.484-0.329,0.794c0.129,0.31,0.484,0.457,0.794,0.329
															c0.311-0.128,0.458-0.484,0.329-0.794C-10.795,4.108-11.151,3.961-11.461,4.09z"/>
														<path fill="#000088" d="M3.146,11.74l-2.29-6.936L0.359,1.342l1.302,3.246L3.146,11.74z"/>
													</g>
												</g>
											</g>
											<g id="c_9_">
												<g id="b_17_">
													<g id="a_34_">
														<path fill="#000088" d="M-10.012,6.917c-0.267,0.205-0.316,0.586-0.112,0.852c0.204,0.267,0.586,0.316,0.852,0.112
															c0.267-0.204,0.316-0.586,0.112-0.852S-9.746,6.712-10.012,6.917z"/>
														<path fill="#000088" d="M6.077,10.525L2.07,4.418L0.694,1.203l2.098,2.799L6.077,10.525z"/>
													</g>
													<g transform="rotate(120)">
														<g id="a_33_">
															<path fill="#000088" d="M-7.881,9.272c-0.204,0.266-0.154,0.647,0.112,0.852c0.267,0.204,0.647,0.154,0.853-0.112
																c0.204-0.267,0.153-0.648-0.112-0.852C-7.295,8.956-7.677,9.006-7.881,9.272z"/>
															<path fill="#000088" d="M8.594,8.594L3.143,3.732l-2.16-2.75l2.75,2.161L8.594,8.594z"/>
														</g>
													</g>
												</g>
											</g>
										</g>
										<g>
											<g>
												<g>
													<g id="b_16_">
														<g id="a_32_">
															<path fill="#000088" d="M-5.212,10.996c-0.129,0.31,0.019,0.666,0.328,0.794c0.311,0.128,0.666-0.019,0.794-0.329
																c0.129-0.31-0.019-0.666-0.328-0.794C-4.729,10.539-5.084,10.686-5.212,10.996z"/>
															<path fill="#000088" d="M10.525,6.077L4.002,2.792L1.203,0.695L4.419,2.07L10.525,6.077z"/>
														</g>
														<g transform="rotate(15)">
															<g id="a_31_">
																<path fill="#000088" d="M-2.188,11.97c-0.044,0.333,0.19,0.638,0.522,0.682c0.333,0.043,0.639-0.19,0.683-0.523
																	c0.043-0.333-0.19-0.638-0.523-0.682S-2.145,11.638-2.188,11.97z"/>
																<path fill="#000088" d="M11.739,3.146L4.588,1.661L1.342,0.359l3.462,0.497L11.739,3.146z"/>
															</g>
														</g>
													</g>
													<g id="c_8_">
														<g id="b_15_">
															<g id="a_30_">
																<path fill="#000088" d="M0.983,12.129c0.044,0.333,0.35,0.567,0.683,0.523c0.332-0.044,0.566-0.349,0.522-0.682
																	c-0.043-0.333-0.349-0.567-0.682-0.523C1.175,11.491,0.94,11.796,0.983,12.129z"/>
																<path fill="#000088" d="M12.153,0L4.861,0.417L1.389,0l3.473-0.417L12.153,0z"/>
															</g>
															<g transform="rotate(30)">
																<g id="a_29_">
																	<path fill="#000088" d="M4.09,11.461c0.128,0.31,0.483,0.458,0.794,0.329c0.31-0.128,0.457-0.484,0.328-0.794
																		c-0.128-0.31-0.483-0.458-0.793-0.329C4.108,10.795,3.961,11.151,4.09,11.461z"/>
																	<path fill="#000088" d="M11.739-3.146l-6.936,2.29L1.342-0.359l3.246-1.301L11.739-3.146z"/>
																</g>
															</g>
														</g>
													</g>
													<g>
														<g id="d_4_">
															<g id="b_14_">
																<g id="a_28_">
																	<path fill="#000088" d="M6.917,10.012c0.204,0.266,0.585,0.316,0.852,0.112C8.035,9.92,8.085,9.539,7.881,9.272
																		C7.677,9.006,7.295,8.956,7.028,9.16C6.763,9.364,6.712,9.746,6.917,10.012z"/>
																	<path fill="#000088" d="M10.525-6.077L4.419-2.07L1.203-0.694l2.799-2.097L10.525-6.077z"/>
																</g>
																<g transform="rotate(15)">
																	<g id="a_27_">
																		<path fill="#000088" d="M9.272,7.881c0.266,0.204,0.647,0.154,0.852-0.112c0.204-0.266,0.154-0.647-0.112-0.852
																			C9.746,6.712,9.364,6.763,9.16,7.029S9.006,7.677,9.272,7.881z"/>
																		<path fill="#000088" d="M8.594-8.594L3.732-3.143l-2.75,2.161l2.16-2.75L8.594-8.594z"/>
																	</g>
																</g>
															</g>
															<g id="c_7_">
																<g id="b_13_">
																	<g id="a_26_">
																		<path fill="#000088" d="M10.996,5.212c0.31,0.128,0.665-0.019,0.794-0.329c0.128-0.31-0.019-0.666-0.329-0.794
																			c-0.31-0.128-0.665,0.019-0.794,0.329C10.539,4.729,10.686,5.084,10.996,5.212z"/>
																		<path fill="#000088" d="M6.077-10.525L2.792-4.001L0.694-1.203L2.07-4.418L6.077-10.525z"/>
																	</g>
																	<g transform="rotate(-120)">
																		<g id="a_25_">
																			<path fill="#000088" d="M11.971,2.189c0.332,0.044,0.638-0.19,0.682-0.523c0.044-0.333-0.19-0.638-0.523-0.682
																				c-0.333-0.043-0.638,0.19-0.682,0.523C11.403,1.84,11.638,2.145,11.971,2.189z"/>
																			<path fill="#000088" d="M3.146-11.739L1.661-4.588L0.359-1.341l0.496-3.462L3.146-11.739z"/>
																		</g>
																	</g>
																</g>
															</g>
														</g>
													</g>
												</g>
											</g>
										</g>
									</g>
								</g>
							</g>
						</g>
					</g>
				</g>
			</g>
		</g>
	</symbol>
	<symbol  id="Rand" viewBox="5.377 -252.996 156.49 248.039">
		<g id="weiß_2_">
		</g>
		<path fill="#FFFFFF" d="M159.867-242.076c0,4.92-4,8.92-8.92,8.92c-4.921,0-8.921-4-8.921-8.92s4-8.92,8.921-8.92
			C155.867-250.996,159.867-246.996,159.867-242.076z M159.867-15.887c0,4.92-4,8.93-8.92,8.93c-4.921,0-8.921-4.01-8.921-8.93
			c0-4.91,4-8.92,8.921-8.92C155.867-24.807,159.867-20.797,159.867-15.887z M19.387-4.957h123.9h4.569h3.091
			c6.02,0,10.92-4.9,10.92-10.93v-9.52v-208.09v-8.58c0-6.021-4.9-10.92-10.92-10.92h-9.471c-37.63,0-75.85,0-125.17,0
			c-6.029,0-10.92,4.898-10.92,10.92c-0.01,72.18-0.01,141.83-0.01,211.35v14.84c0,6.029,4.9,10.93,10.92,10.93H19.387z
			 M25.227-15.887c0,4.92-4.01,8.93-8.93,8.93c-4.91,0-8.92-4.01-8.92-8.93c0-4.91,4.01-8.92,8.92-8.92
			C21.217-24.807,25.227-20.797,25.227-15.887z M16.307-250.996c4.92,0,8.92,4,8.92,8.92s-4,8.92-8.92,8.92s-8.92-4-8.92-8.92
			S11.387-250.996,16.307-250.996z M27.227-15.887c0-6.02-4.9-10.92-10.93-10.92c-3.68,0-6.939,1.83-8.92,4.629
			c0-71.199,0-142.398,0-213.609c1.98,2.801,5.24,4.631,8.93,4.631c6.02,0,10.92-4.9,10.92-10.92c0-3.682-1.83-6.941-4.63-8.92
			c40.69,0,81.37,0,122.061,0c-2.801,1.979-4.631,5.238-4.631,8.92c0,6.02,4.9,10.92,10.921,10.92c3.68,0,6.939-1.83,8.92-4.621
			c0,71.201,0,142.4,0,213.6c-1.98-2.799-5.24-4.629-8.92-4.629c-6.021,0-10.921,4.9-10.921,10.92c0,3.689,1.83,6.949,4.631,8.93
			c-40.69,0-81.38,0-122.061,0C25.396-8.938,27.227-12.197,27.227-15.887z"/>
	</symbol>
</defs>
<g>
	<path fill="#D28F38" d="M167.244,240.945c0,9.354-7.653,17.008-17.008,17.008H17.008C7.653,257.953,0,250.3,0,240.945V17.008
		C0,7.653,7.653,0,17.008,0h133.229c9.354,0,17.008,7.653,17.008,17.008V240.945z"/>
</g>
<use xlink:href="#IN"  width="85.038" height="85.038" x="-42.52" y="-42.519" transform="matrix(0.2333 0 0 -0.2333 150.8008 242.0752)" overflow="visible"/>
<use xlink:href="#IN"  width="85.038" height="85.038" x="-42.52" y="-42.519" transform="matrix(0.2333 0 0 -0.2333 150.7998 15.8809)" overflow="visible"/>
<use xlink:href="#IN"  width="85.038" height="85.038" x="-42.52" y="-42.519" transform="matrix(0.2333 0 0 -0.2333 16.2979 242.0752)" overflow="visible"/>
<use xlink:href="#IN"  width="85.038" height="85.038" x="-42.52" y="-42.519" transform="matrix(0.2333 0 0 -0.2333 16.2979 15.8809)" overflow="visible"/>
<path fill="#232223" d="M70.452,43.823c3.375-0.834,2.795,5.039-0.48,4.08C67.901,47.297,68.526,44.3,70.452,43.823z M71.173,46.704
	c0.549-0.2,0.656-1.475,0.24-1.92c-0.32,0-0.641,0-0.961,0C70.069,45.288,69.913,47.101,71.173,46.704z"/>
<path fill="#904C3C" d="M70.452,44.783c0.32,0,0.641,0,0.961,0c0.416,0.445,0.309,1.72-0.24,1.92
	C69.913,47.101,70.069,45.288,70.452,44.783z"/>
<path fill="#232223" d="M87.493,51.263c-3.73-1.75-8.74-2.006-13.682-0.96C77.198,46.639,85.212,47.674,87.493,51.263z"/>
<path fill="#945A33" d="M66.372,55.104c-1.143-0.004-4.082,1.519-5.52,0C61.669,52.702,65.894,52.656,66.372,55.104z"/>
<path fill="#232223" d="M98.052,65.184c-0.053,1.433-1.596,0.052-1.92,0.96c0.428,1.474,0.656,3.301-0.719,3.84
	c-0.074-1.206,0.275-2.837-0.48-3.36c-0.969,0.391-1.893,0.827-2.881,1.2C93.253,66.029,95.954,63.982,98.052,65.184z"/>
<path fill="#232223" d="M72.853,69.744c-0.467,1.83-2.674-0.02-4.32,0.72C68.938,68.792,71.481,69.385,72.853,69.744z"/>
<path fill="#232223" d="M78.612,70.943c0.807,1.273,2.176,1.983,2.881,3.36c-0.756,0.114-0.939-0.342-1.441-0.48
	c-2.275,3.483-4.178,7.342-9.84,7.44c-2.041-1.879-4.246-3.594-5.76-6c1.293-0.486,3.867-1.228,4.801,0
	c2.994-1.98,7.654-0.019,9.84-2.16C79.12,72.213,77.978,71.698,78.612,70.943z M69.013,76.463c-0.959-0.627-1.58-1.224-3.121-0.72
	c2.77,2.162,6.502,1.042,9.842,0.96c-1.408,1.525-5.426,0.993-7.441,1.2c1.957,4.258,8.594,0.576,8.16-2.16
	c0.455,0.026,0.168,0.794,0.721,0.72c0.098-0.557,1.523-1.014,0.719-1.68C75.222,76.136,71.11,74.565,69.013,76.463z"/>
<path fill="#99882D" d="M92.292,70.943c1.033,1.242-0.939,4.719,1.439,5.28C91.437,77.727,90.741,72.533,92.292,70.943z"/>
<path fill="#933251" d="M77.892,74.783c0.805,0.666-0.621,1.123-0.719,1.68c-0.555,0.074-0.268-0.693-0.721-0.72
	c0.434,2.736-6.205,6.418-8.16,2.16c2.016-0.207,6.033,0.325,7.441-1.2c-3.338,0.082-7.072,1.202-9.842-0.96
	c1.541-0.504,2.162,0.093,3.121,0.72C71.11,74.565,75.222,76.136,77.892,74.783z"/>
<path fill="#904C3C" d="M87.493,94.943c2.121,0.618,4.23,2.46,4.318,4.32c-1.572-0.027-2.418-0.782-3.84-0.96
	C87.544,97.454,87.921,95.794,87.493,94.943z"/>
<path fill="#933251" d="M85.571,126.145c-3.439,0-6.879,0-10.32,0c-2.777-5.222-5.387-10.612-6-18
	c-1.934,6.212,2.484,13.208,5.041,18c-0.961,0-1.92,0-2.881,0c-1.734-3.864-3.607-7.592-4.561-12.24
	c-0.953,4.338,2.127,8.736,3.602,12.24c-6.561,0-13.121,0-19.682,0c0.168-2.936,1.131-4.894,1.682-8.16
	c0.629-3.733,2.545-6.741,4.799-9.12c1.676-1.768,3.611-2.124,5.76-3.6c0.732-0.502,1.436-1.779,2.4-2.16
	c2.063-0.814,4.709,0.115,6.48-1.68c0.082,1.214-0.859,3.379,0.24,4.08c1.002-4.517,2.033-9.007,6.48-10.08
	c0.84,2.241-0.314,4.457-1.682,5.279c-0.852,0.373-0.145-0.814-0.719-0.72c-1.123,1.181-1.129,3.566-0.961,5.28
	C76.103,113.926,81.589,120.249,85.571,126.145z M68.772,107.903c0.992,0.251,1.209-1.651,0.48-1.68
	C68.987,106.678,68.946,107.358,68.772,107.903z M66.853,113.185c0-1.04,0-2.08,0-3.12c-0.24,0-0.48,0-0.721,0
	C66.362,111.114,65.542,113.215,66.853,113.185z"/>
<path fill="#232223" d="M69.253,106.224c0.729,0.028,0.512,1.931-0.48,1.68C68.946,107.358,68.987,106.678,69.253,106.224z"/>
<path fill="#232223" d="M75.253,126.145c-0.32,0-0.641,0-0.961,0c-2.557-4.792-6.973-11.788-5.039-18
	C69.864,115.531,72.474,120.922,75.253,126.145z"/>
<path fill="#232223" d="M66.132,110.064c0.24,0,0.48,0,0.721,0c0,1.04,0,2.08,0,3.12C65.542,113.215,66.362,111.114,66.132,110.064z
	"/>
<path fill="#232223" d="M71.413,126.145c-0.32,0-0.641,0-0.961,0c-1.475-3.504-4.555-7.902-3.6-12.24
	C67.804,118.552,69.677,122.279,71.413,126.145z"/>
<path fill="#BFBBB9" d="M62.052,61.104c-1.023-0.735-1.82-1.7-1.92-3.36c0.445-0.036,0.148-0.813,0.48-0.96
	c0.779,0.139,1.115-0.164,1.68-0.24c0.285,2.598,3.428,2.535,4.561,0.72c-0.029,0.431,0.293,0.506,0.24,0.96
	c0.102,0.502-0.166,0.636-0.24,0.96c-1.141,1.417-1.469,2.189-3.119,2.16C62.144,61.315,60.647,59.197,62.052,61.104z"/>
<path fill="#868584" d="M60.132,57.744c0-0.32,0-0.64,0-0.96c0.748-0.292,1.521-0.559,2.641-0.48
	c-0.076,1.117,0.744,1.335,0.959,2.16c1.764,0.163,2.418-0.783,2.641-2.16c0.996-0.034,0.729,1.19,0.961,1.92c-0.08,0-0.16,0-0.24,0
	c0.053-0.454-0.271-0.529-0.24-0.96c-1.133,1.815-4.275,1.878-4.561-0.72c-0.563,0.076-0.9,0.379-1.68,0.24
	C60.28,56.931,60.577,57.708,60.132,57.744z"/>
<path fill="#868584" d="M63.972,56.303c0.924-0.189,0.924,1.149,0,0.96C63.993,56.608,63.573,56.78,63.972,56.303z"/>
<path fill="#868584" d="M66.853,59.184c-0.053,2.098-3.045,3.03-4.801,1.92c-1.404-1.906,0.092,0.211,1.68,0.24
	C65.382,61.374,65.712,60.601,66.853,59.184z"/>
<path fill="#868584" d="M79.573,57.504c0.146-0.214,0.289-0.429,0-0.48c0.025-0.613,0.803-0.477,1.439-0.48
	C81.243,57.781,80.292,57.837,79.573,57.504z"/>
<path fill="#232223" d="M78.853,51.983c-1.246,1.313-3.516,1.605-4.08,3.6c2.166,0.355,7.578,0.795,9.359-0.72
	c-0.924-1.971-2.283-2.35-4.559-2.64c2.602-2.052,4.434,2.38,6.479,0.96c0.174,0.734-0.414,0.706-0.24,1.44
	c0.438,0.575,0.873-0.871,1.922-0.48c-0.125,0.355-0.355,0.605-0.48,0.96c0.387,0.702,1.238-0.383,1.439,0.24
	c-0.295,0.905-1.248,1.151-2.398,1.2c0.271,5.004-4.607,8.425-9.121,6.96C71.128,61.542,72.229,51.642,78.853,51.983z
	 M82.933,57.504c-0.348,0.452-0.354,1.247-0.961,1.44c-0.771-0.053-1.016,0.424-1.92,0.24c-0.865-0.494-1.717-1.001-1.68-2.4
	c-1.514,0.006-3.135-0.095-4.32,0.24c-0.607,2.148,1.063,3.825,2.641,4.56c1.771,1.099,3.492,1.09,5.52,0.24
	c1.582-1.058,3.025-2.255,3.121-4.8c-0.586-0.277-2.072-0.449-2.4-0.24C82.933,57.024,82.933,57.263,82.933,57.504z M81.013,56.544
	c-0.637,0.003-1.414-0.133-1.439,0.48c0.289,0.051,0.146,0.266,0,0.48C80.292,57.837,81.243,57.781,81.013,56.544z"/>
<path fill="#868584" d="M81.972,58.943c-1.553,1.349-3.984-0.246-4.08-1.92c-0.924,0.168-2.607,0.022-3.84,0.48
	c0.035,2.206,1.693,2.787,2.641,4.08c-1.578-0.735-3.248-2.412-2.641-4.56c1.186-0.335,2.807-0.234,4.32-0.24
	c-0.037,1.398,0.814,1.906,1.68,2.4C80.956,59.369,81.2,58.892,81.972,58.943z"/>
<path fill="#BFBBB9" d="M81.972,58.943c0.607-0.193,0.613-0.988,0.961-1.44c0.262-0.06,0.162-0.478,0.48-0.48
	c0.859-0.142,1.16,0.279,1.68,0.48c-0.24,2.002-2.373,3.384-2.881,4.32c-2.027,0.851-3.748,0.859-5.52-0.24
	c-0.947-1.293-2.605-1.875-2.641-4.08c1.23-0.458,2.916-0.312,3.84-0.48C77.987,58.698,80.419,60.293,81.972,58.943z"/>
<path fill="#868584" d="M82.933,57.504c0-0.24,0-0.48,0-0.72c0.328-0.208,1.814-0.037,2.4,0.24c-0.096,2.544-1.539,3.742-3.121,4.8
	c0.508-0.936,2.641-2.318,2.881-4.32c-0.52-0.201-0.818-0.622-1.68-0.48C83.095,57.026,83.192,57.444,82.933,57.504z"/>
<path fill="#232223" d="M74.532,91.823c-6.277-0.88-7.715-7.094-10.801-12.24c-1.734-2.896-4.652-6.748-4.799-10.08
	c-0.178-4.055,2.549-8.124,0.48-12.48c-0.402-0.805-2.895-0.778-2.16-1.92c-0.107-1.437,0.613-0.556,1.68-0.72
	c-1.783-2.625-0.002-4.713,0.24-7.2c0.15-1.546-0.705-2.378-0.48-3.84c0.221-1.444,1.195-3.519,1.68-4.56
	c2.203-4.743,7.309-9.701,14.16-9.6c0.691,0.01,1.398,0.498,2.16,0.48c1.219-0.028,2.533-0.671,3.6-0.72
	c8.143-0.375,16.242,4.201,19.441,10.8c3.27,6.745,3.082,17.115,0.479,23.76c1.529,2.619,0.83,6.525-0.719,8.64
	c0.998,3.082,3.574,4.584,3.357,8.88c0,1.04,0,2.08,0,3.12c-1.459,6.612-8.121,10.245-15.6,8.64c2.01,2.471,5.488,3.474,6,7.44
	c12.197,4.608,22.541,11.784,24.479,25.92c-10.719,0-21.438,0-32.158,0c-3.982-5.896-9.471-12.218-10.32-20.88
	c-0.168-1.714-0.162-4.1,0.959-5.28c0.576-0.095-0.133,1.093,0.721,0.72c1.367-0.822,2.521-3.038,1.68-5.279
	c-4.447,1.073-5.477,5.563-6.48,10.08c-1.1-0.701-0.158-2.866-0.24-4.08c-1.771,1.795-4.416,0.865-6.479,1.68
	c-0.965,0.381-1.67,1.658-2.4,2.16c-2.148,1.476-4.084,1.832-5.76,3.6c-2.256,2.379-4.17,5.387-4.801,9.12
	c-0.551,3.267-1.512,5.225-1.68,8.16c-0.32,0-0.641,0-0.961,0c0-0.8,0-1.6,0-2.4c1.813-3.52,1.611-7.605,3.121-10.8
	c0.875-1.854,4.361-5.766,6.24-6.96c0.904-0.575,1.996-0.629,2.879-1.2c1.262-0.815,2.158-2.147,3.602-2.64
	c0.887-0.153,2.391,0.311,2.879-0.24c5.143-0.858,5.328-6.672,10.561-7.439c-0.318-0.918,0.232-1.995-0.48-2.881
	c-0.732-0.173-0.875,0.246-1.439,0.24C76.292,91.823,75.413,91.823,74.532,91.823z M90.372,55.343
	c-0.475-2.734-1.998-6.595-3.359-8.88c-3.248-5.452-7.205-9.005-12.721-12.48c-7.813,1.193-12.793,7.173-14.639,15.12
	c2.717-0.826,5.918-0.462,6.479,1.44c-2.135-0.804-5.385-0.617-6.719,0.72c0.057,0.983,0.727,1.352,0.719,2.4
	c3.627-2.255,8.248-0.854,7.92,4.32c4.17,3.411-1.461,8.874-3.6,11.28c0.094,1.506,2.043,1.157,2.641,2.16
	c-1.451,0.866-3.756-0.636-3.84-1.919c-0.148-2.25,7.199-6.189,5.279-10.8c-0.871,2.798-3.877,5.112-7.199,3.36
	c0.166,2.107-1.463,4.84-1.201,7.44c0.449,4.424,3.477,7.293,5.521,11.04c2.9,5.322,3.064,9.591,8.398,10.32
	c2.939,0.402,5.619-0.716,7.201-1.92c-2.82,2.945,0.256,11.151-3.121,13.92c-0.555-0.533,0.082-0.936,0-1.68
	c-1.955-0.369-2.156,3.176-1.68,4.8c5.887,0.366,12.816-1.357,13.92-5.76c-0.559-0.401-1.293-0.627-2.16-0.72
	c-0.688,0.372,0.5,1.119-0.24,1.439c-2.463-5.414-2.139-11.789-2.398-18c-1.141-0.149-0.879,2.007-1.92,1.2
	c1.375-2.233,2.859-6.998,5.041-10.08c0.52-0.733,1.488-1.098,1.92-1.68c0.713-0.966,0.527-2.511,1.92-2.4
	c1.332,0.106,1.416,1.758,1.68,2.88c1.332,0.481,2.361-0.211,3.6-0.479c2.346-2.848,3.23-7.364,0-8.88
	c-1.951-0.917-3.854,0.637-6.479,1.2C89.851,62.054,90.851,58.105,90.372,55.343z M60.853,55.104c1.438,1.519,4.377-0.004,5.52,0
	C65.894,52.656,61.669,52.702,60.853,55.104z M67.093,58.223c0.08,0,0.16,0,0.24,0c-0.23-0.729,0.035-1.954-0.961-1.92
	c-0.223,1.377-0.877,2.323-2.639,2.16c-0.217-0.825-1.037-1.043-0.961-2.16c-1.119-0.079-1.893,0.188-2.641,0.48
	c0,0.32,0,0.64,0,0.96c0.102,1.66,0.896,2.625,1.92,3.36c1.756,1.109,4.748,0.177,4.801-1.92
	C66.927,58.859,67.194,58.726,67.093,58.223z M63.972,57.263c0.924,0.189,0.924-1.149,0-0.96
	C63.573,56.78,63.993,56.608,63.972,57.263z M93.733,76.224c-2.381-0.562-0.406-4.038-1.439-5.28
	C90.741,72.533,91.437,77.727,93.733,76.224z M87.972,98.304c1.424,0.178,2.27,0.933,3.84,0.96c-0.086-1.86-2.197-3.702-4.318-4.32
	C87.921,95.794,87.544,97.454,87.972,98.304z"/>
<path fill="#BFBBB9" d="M102.853,81.024c0.398,0.492,0.398,2.628,0,3.12C102.853,83.104,102.853,82.064,102.853,81.024z"/>
<path fill="#868584" d="M74.532,91.823c0.881,0,1.76,0,2.641,0C76.837,92.221,74.868,92.221,74.532,91.823z"/>
<path fill="#BFBBB9" d="M65.653,102.145c0.488-0.551,1.992-0.087,2.879-0.24C68.044,102.455,66.54,101.99,65.653,102.145z"/>
<path fill="#BFBBB9" d="M49.812,123.744c0,0.801,0,1.601,0,2.4C49.415,125.885,49.415,124.002,49.812,123.744z"/>
<path fill="#945A33" d="M91.333,64.704c2.625-0.563,4.527-2.117,6.479-1.2c3.229,1.517,2.346,6.032,0,8.88
	c-1.238,0.269-2.27,0.961-3.6,0.479c-0.264-1.122-0.35-2.774-1.68-2.88c-1.395-0.111-1.209,1.435-1.922,2.4
	c-0.43,0.582-1.4,0.946-1.92,1.68c-2.182,3.082-3.664,7.847-5.039,10.08c1.041,0.807,0.777-1.35,1.918-1.2
	c0.262,6.211-0.063,12.586,2.4,18c0.74-0.32-0.447-1.067,0.24-1.439c0.867,0.093,1.602,0.318,2.16,0.72
	c-1.105,4.402-8.033,6.126-13.92,5.76c-0.477-1.624-0.275-5.169,1.68-4.8c0.082,0.744-0.557,1.146,0,1.68
	c3.377-2.769,0.299-10.975,3.119-13.92c-1.582,1.204-4.262,2.322-7.199,1.92c-5.336-0.729-5.498-4.998-8.4-10.32
	c-2.045-3.746-5.072-6.615-5.52-11.04c-0.264-2.6,1.365-5.333,1.199-7.44c3.322,1.752,6.33-0.562,7.201-3.36
	c1.918,4.611-5.43,8.55-5.281,10.8c0.086,1.284,2.391,2.786,3.84,1.919c-0.596-1.003-2.545-0.653-2.639-2.16
	c2.137-2.406,7.77-7.869,3.6-11.28c0.326-5.175-4.295-6.575-7.92-4.32c0.008-1.048-0.664-1.417-0.721-2.4
	c1.336-1.336,4.586-1.523,6.721-0.72c-0.561-1.902-3.762-2.267-6.48-1.44c1.848-7.947,6.826-13.926,14.641-15.12
	c5.516,3.475,9.473,7.028,12.719,12.48c1.361,2.285,2.887,6.146,3.361,8.88C90.851,58.105,89.851,62.054,91.333,64.704z
	 M69.972,47.903c3.275,0.958,3.855-4.915,0.48-4.08C68.526,44.3,67.901,47.297,69.972,47.903z M73.812,50.303
	c4.941-1.046,9.951-0.79,13.682,0.96C85.212,47.674,77.198,46.639,73.812,50.303z M77.173,63.504
	c4.512,1.465,9.393-1.956,9.119-6.96c1.152-0.049,2.104-0.295,2.4-1.2c-0.203-0.623-1.055,0.462-1.439-0.24
	c0.125-0.355,0.354-0.605,0.479-0.96c-1.047-0.391-1.482,1.055-1.92,0.48c-0.174-0.734,0.414-0.706,0.24-1.44
	c-2.047,1.42-3.877-3.012-6.48-0.96c2.275,0.291,3.637,0.669,4.561,2.64c-1.783,1.516-7.195,1.075-9.361,0.72
	c0.566-1.995,2.834-2.287,4.08-3.6C72.229,51.642,71.128,61.542,77.173,63.504z M92.052,67.823c0.988-0.373,1.912-0.809,2.881-1.2
	c0.756,0.523,0.406,2.154,0.48,3.36c1.375-0.539,1.146-2.366,0.719-3.84c0.324-0.909,1.867,0.473,1.92-0.96
	C95.954,63.982,93.253,66.029,92.052,67.823z M68.532,70.463c1.646-0.739,3.854,1.11,4.32-0.72
	C71.481,69.385,68.938,68.792,68.532,70.463z M79.093,73.104c-2.188,2.142-6.846,0.18-9.84,2.16c-0.934-1.228-3.508-0.486-4.801,0
	c1.514,2.406,3.719,4.121,5.76,6c5.662-0.099,7.564-3.957,9.84-7.44c0.502,0.139,0.686,0.595,1.441,0.48
	c-0.705-1.377-2.074-2.087-2.881-3.36C77.978,71.698,79.12,72.213,79.093,73.104z"/>
<path fill="#232223" d="M96.792,214.135c-3.375,0.834-2.795-5.039,0.48-4.08C99.343,210.661,98.718,213.658,96.792,214.135z
	 M96.071,211.255c-0.549,0.2-0.656,1.475-0.24,1.92c0.32,0,0.641,0,0.961,0C97.175,212.671,97.331,210.858,96.071,211.255z"/>
<path fill="#904C3C" d="M96.792,213.175c-0.32,0-0.641,0-0.961,0c-0.416-0.445-0.309-1.72,0.24-1.92
	C97.331,210.858,97.175,212.671,96.792,213.175z"/>
<path fill="#232223" d="M79.751,206.695c3.73,1.75,8.74,2.006,13.682,0.96C90.046,211.319,82.032,210.284,79.751,206.695z"/>
<path fill="#945A33" d="M100.872,202.854c1.143,0.004,4.082-1.519,5.52,0C105.575,205.257,101.351,205.302,100.872,202.854z"/>
<path fill="#232223" d="M69.192,192.775c0.053-1.433,1.596-0.052,1.92-0.96c-0.428-1.474-0.656-3.301,0.719-3.84
	c0.074,1.206-0.275,2.837,0.48,3.36c0.969-0.391,1.893-0.827,2.881-1.2C73.991,191.929,71.29,193.976,69.192,192.775z"/>
<path fill="#232223" d="M94.392,188.215c0.467-1.83,2.674,0.02,4.32-0.72C98.306,189.167,95.763,188.573,94.392,188.215z"/>
<path fill="#232223" d="M88.632,187.015c-0.807-1.273-2.176-1.983-2.881-3.36c0.756-0.114,0.939,0.342,1.441,0.48
	c2.275-3.483,4.178-7.342,9.84-7.44c2.041,1.879,4.246,3.594,5.76,6c-1.293,0.486-3.867,1.228-4.801,0
	c-2.994,1.98-7.654,0.019-9.84,2.16C88.124,185.745,89.267,186.26,88.632,187.015z M98.231,181.495
	c0.959,0.627,1.58,1.224,3.121,0.72c-2.77-2.162-6.502-1.042-9.842-0.96c1.408-1.525,5.426-0.993,7.441-1.2
	c-1.957-4.258-8.594-0.576-8.16,2.16c-0.455-0.026-0.168-0.794-0.721-0.72c-0.098,0.557-1.523,1.014-0.719,1.68
	C92.022,181.822,96.134,183.393,98.231,181.495z"/>
<path fill="#99882D" d="M74.952,187.015c-1.033-1.242,0.939-4.719-1.439-5.28C75.808,180.232,76.503,185.425,74.952,187.015z"/>
<path fill="#933251" d="M89.353,183.175c-0.805-0.666,0.621-1.123,0.719-1.68c0.555-0.074,0.268,0.693,0.721,0.72
	c-0.434-2.736,6.205-6.418,8.16-2.16c-2.016,0.207-6.033-0.325-7.441,1.2c3.338-0.082,7.072-1.202,9.842,0.96
	c-1.541,0.504-2.162-0.093-3.121-0.72C96.134,183.393,92.022,181.822,89.353,183.175z"/>
<path fill="#904C3C" d="M79.751,163.015c-2.121-0.618-4.23-2.46-4.318-4.32c1.572,0.027,2.418,0.782,3.84,0.96
	C79.7,160.505,79.323,162.164,79.751,163.015z"/>
<path fill="#933251" d="M81.673,131.814c3.439,0,6.879,0,10.32,0c2.777,5.222,5.387,10.612,6,18c1.934-6.212-2.484-13.208-5.041-18
	c0.961,0,1.92,0,2.881,0c1.734,3.864,3.607,7.592,4.561,12.24c0.953-4.338-2.127-8.736-3.602-12.24c6.561,0,13.121,0,19.682,0
	c-0.168,2.936-1.131,4.894-1.682,8.16c-0.629,3.733-2.545,6.741-4.799,9.12c-1.676,1.768-3.611,2.124-5.76,3.6
	c-0.732,0.502-1.436,1.779-2.4,2.16c-2.063,0.814-4.709-0.115-6.48,1.68c-0.082-1.214,0.859-3.379-0.24-4.08
	c-1.002,4.517-2.033,9.007-6.48,10.08c-0.84-2.241,0.314-4.457,1.682-5.279c0.852-0.373,0.145,0.814,0.719,0.72
	c1.123-1.181,1.129-3.566,0.961-5.28C91.142,144.032,85.655,137.71,81.673,131.814z M98.472,150.055
	c-0.992-0.251-1.209,1.651-0.48,1.68C98.257,151.28,98.298,150.6,98.472,150.055z M100.392,144.774c0,1.04,0,2.08,0,3.12
	c0.24,0,0.48,0,0.721,0C100.882,146.844,101.702,144.743,100.392,144.774z"/>
<path fill="#232223" d="M97.991,151.734c-0.729-0.028-0.512-1.931,0.48-1.68C98.298,150.6,98.257,151.28,97.991,151.734z"/>
<path fill="#232223" d="M91.991,131.814c0.32,0,0.641,0,0.961,0c2.557,4.792,6.973,11.788,5.039,18
	C97.38,142.427,94.771,137.036,91.991,131.814z"/>
<path fill="#232223" d="M101.112,147.894c-0.24,0-0.48,0-0.721,0c0-1.04,0-2.08,0-3.12
	C101.702,144.743,100.882,146.844,101.112,147.894z"/>
<path fill="#232223" d="M95.831,131.814c0.32,0,0.641,0,0.961,0c1.475,3.504,4.555,7.902,3.6,12.24
	C99.44,139.406,97.567,135.679,95.831,131.814z"/>
<path fill="#BFBBB9" d="M105.192,196.854c1.023,0.735,1.82,1.7,1.92,3.36c-0.445,0.036-0.148,0.813-0.48,0.96
	c-0.779-0.139-1.115,0.164-1.68,0.24c-0.285-2.598-3.428-2.535-4.561-0.72c0.029-0.431-0.293-0.506-0.24-0.96
	c-0.102-0.502,0.166-0.636,0.24-0.96c1.141-1.417,1.469-2.189,3.119-2.16C105.101,196.643,106.597,198.761,105.192,196.854z"/>
<path fill="#868584" d="M107.112,200.215c0,0.32,0,0.64,0,0.96c-0.748,0.292-1.521,0.559-2.641,0.48
	c0.076-1.117-0.744-1.335-0.959-2.16c-1.764-0.163-2.418,0.783-2.641,2.16c-0.996,0.034-0.729-1.19-0.961-1.92c0.08,0,0.16,0,0.24,0
	c-0.053,0.454,0.271,0.529,0.24,0.96c1.133-1.815,4.275-1.878,4.561,0.72c0.563-0.076,0.9-0.379,1.68-0.24
	C106.964,201.027,106.667,200.251,107.112,200.215z"/>
<path fill="#868584" d="M103.272,201.655c-0.924,0.189-0.924-1.149,0-0.96C103.251,201.35,103.671,201.178,103.272,201.655z"/>
<path fill="#868584" d="M100.392,198.775c0.053-2.098,3.045-3.03,4.801-1.92c1.404,1.906-0.092-0.211-1.68-0.24
	C101.862,196.585,101.532,197.358,100.392,198.775z"/>
<path fill="#868584" d="M87.671,200.454c-0.146,0.214-0.289,0.429,0,0.48c-0.025,0.613-0.803,0.477-1.439,0.48
	C86.001,200.177,86.952,200.121,87.671,200.454z"/>
<path fill="#232223" d="M88.392,205.975c1.246-1.313,3.516-1.605,4.08-3.6c-2.166-0.355-7.578-0.795-9.359,0.72
	c0.924,1.971,2.283,2.35,4.559,2.64c-2.602,2.052-4.434-2.38-6.479-0.96c-0.174-0.734,0.414-0.706,0.24-1.44
	c-0.438-0.575-0.873,0.871-1.922,0.48c0.125-0.355,0.355-0.605,0.48-0.96c-0.387-0.702-1.238,0.383-1.439-0.24
	c0.295-0.905,1.248-1.151,2.398-1.2c-0.271-5.004,4.607-8.425,9.121-6.96C96.116,196.417,95.015,206.317,88.392,205.975z
	 M84.312,200.454c0.348-0.452,0.354-1.247,0.961-1.44c0.771,0.053,1.016-0.424,1.92-0.24c0.865,0.494,1.717,1.001,1.68,2.4
	c1.514-0.006,3.135,0.095,4.32-0.24c0.607-2.148-1.063-3.825-2.641-4.56c-1.771-1.099-3.492-1.09-5.52-0.24
	c-1.582,1.058-3.025,2.255-3.121,4.8c0.586,0.277,2.072,0.449,2.4,0.24C84.312,200.934,84.312,200.695,84.312,200.454z
	 M86.231,201.414c0.637-0.003,1.414,0.133,1.439-0.48c-0.289-0.051-0.146-0.266,0-0.48
	C86.952,200.121,86.001,200.177,86.231,201.414z"/>
<path fill="#868584" d="M85.272,199.015c1.553-1.349,3.984,0.246,4.08,1.92c0.924-0.168,2.607-0.022,3.84-0.48
	c-0.035-2.206-1.693-2.787-2.641-4.08c1.578,0.735,3.248,2.412,2.641,4.56c-1.186,0.335-2.807,0.234-4.32,0.24
	c0.037-1.398-0.814-1.906-1.68-2.4C86.288,198.59,86.044,199.067,85.272,199.015z"/>
<path fill="#BFBBB9" d="M85.272,199.015c-0.607,0.193-0.613,0.988-0.961,1.44c-0.262,0.06-0.162,0.478-0.48,0.48
	c-0.859,0.142-1.16-0.279-1.68-0.48c0.24-2.002,2.373-3.384,2.881-4.32c2.027-0.851,3.748-0.859,5.52,0.24
	c0.947,1.293,2.605,1.875,2.641,4.08c-1.23,0.458-2.916,0.312-3.84,0.48C89.257,199.26,86.825,197.665,85.272,199.015z"/>
<path fill="#868584" d="M84.312,200.454c0,0.24,0,0.48,0,0.72c-0.328,0.208-1.814,0.037-2.4-0.24c0.096-2.544,1.539-3.742,3.121-4.8
	c-0.508,0.936-2.641,2.318-2.881,4.32c0.52,0.201,0.818,0.622,1.68,0.48C84.149,200.932,84.052,200.514,84.312,200.454z"/>
<path fill="#232223" d="M92.712,166.135c6.277,0.88,7.715,7.094,10.801,12.24c1.734,2.896,4.652,6.748,4.799,10.08
	c0.178,4.055-2.549,8.124-0.48,12.48c0.402,0.805,2.895,0.778,2.16,1.92c0.107,1.437-0.613,0.556-1.68,0.72
	c1.783,2.625,0.002,4.713-0.24,7.2c-0.15,1.546,0.705,2.378,0.48,3.84c-0.221,1.444-1.195,3.519-1.68,4.56
	c-2.203,4.743-7.309,9.701-14.16,9.6c-0.691-0.01-1.398-0.498-2.16-0.48c-1.219,0.028-2.533,0.671-3.6,0.72
	c-8.143,0.375-16.242-4.201-19.441-10.8c-3.27-6.745-3.082-17.115-0.479-23.76c-1.529-2.619-0.83-6.525,0.719-8.64
	c-0.998-3.082-3.574-4.584-3.357-8.88c0-1.04,0-2.08,0-3.12c1.459-6.612,8.121-10.245,15.6-8.64c-2.01-2.471-5.488-3.474-6-7.44
	c-12.197-4.608-22.541-11.784-24.479-25.92c10.719,0,21.438,0,32.158,0c3.982,5.896,9.471,12.218,10.32,20.88
	c0.168,1.714,0.162,4.1-0.959,5.28c-0.576,0.095,0.133-1.093-0.721-0.72c-1.367,0.822-2.521,3.038-1.68,5.279
	c4.447-1.073,5.477-5.563,6.48-10.08c1.1,0.701,0.158,2.866,0.24,4.08c1.771-1.795,4.416-0.865,6.479-1.68
	c0.965-0.381,1.67-1.658,2.4-2.16c2.148-1.476,4.084-1.832,5.76-3.6c2.256-2.379,4.17-5.387,4.801-9.12
	c0.551-3.267,1.512-5.225,1.68-8.16c0.32,0,0.641,0,0.961,0c0,0.8,0,1.6,0,2.4c-1.813,3.52-1.611,7.605-3.121,10.8
	c-0.875,1.854-4.361,5.766-6.24,6.96c-0.904,0.575-1.996,0.629-2.879,1.2c-1.262,0.815-2.158,2.147-3.602,2.64
	c-0.887,0.153-2.391-0.311-2.879,0.24c-5.143,0.858-5.328,6.672-10.561,7.439c0.318,0.918-0.232,1.995,0.48,2.881
	c0.732,0.173,0.875-0.246,1.439-0.24C90.952,166.135,91.831,166.135,92.712,166.135z M76.872,202.615
	c0.475,2.734,1.998,6.595,3.359,8.88c3.248,5.452,7.205,9.005,12.721,12.48c7.813-1.193,12.793-7.173,14.639-15.12
	c-2.717,0.826-5.918,0.462-6.479-1.44c2.135,0.804,5.385,0.617,6.719-0.72c-0.057-0.983-0.727-1.352-0.719-2.4
	c-3.627,2.255-8.248,0.854-7.92-4.32c-4.17-3.411,1.461-8.874,3.6-11.28c-0.094-1.506-2.043-1.157-2.641-2.16
	c1.451-0.866,3.756,0.636,3.84,1.919c0.148,2.25-7.199,6.189-5.279,10.8c0.871-2.798,3.877-5.112,7.199-3.36
	c-0.166-2.107,1.463-4.84,1.201-7.44c-0.449-4.424-3.477-7.293-5.521-11.04c-2.9-5.322-3.064-9.591-8.398-10.32
	c-2.939-0.402-5.619,0.716-7.201,1.92c2.82-2.945-0.256-11.151,3.121-13.92c0.555,0.533-0.082,0.936,0,1.68
	c1.955,0.369,2.156-3.176,1.68-4.8c-5.887-0.366-12.816,1.357-13.92,5.76c0.559,0.401,1.293,0.627,2.16,0.72
	c0.688-0.372-0.5-1.119,0.24-1.439c2.463,5.414,2.139,11.789,2.398,18c1.141,0.149,0.879-2.007,1.92-1.2
	c-1.375,2.233-2.859,6.998-5.041,10.08c-0.52,0.733-1.488,1.098-1.92,1.68c-0.713,0.966-0.527,2.511-1.92,2.4
	c-1.332-0.106-1.416-1.758-1.68-2.88c-1.332-0.481-2.361,0.211-3.6,0.479c-2.346,2.848-3.23,7.364,0,8.88
	c1.951,0.917,3.854-0.637,6.479-1.2C77.394,195.904,76.394,199.853,76.872,202.615z M106.392,202.854
	c-1.438-1.519-4.377,0.004-5.52,0C101.351,205.302,105.575,205.257,106.392,202.854z M100.151,199.735c-0.08,0-0.16,0-0.24,0
	c0.23,0.729-0.035,1.954,0.961,1.92c0.223-1.377,0.877-2.323,2.639-2.16c0.217,0.825,1.037,1.043,0.961,2.16
	c1.119,0.079,1.893-0.188,2.641-0.48c0-0.32,0-0.64,0-0.96c-0.102-1.66-0.896-2.625-1.92-3.36c-1.756-1.109-4.748-0.177-4.801,1.92
	C100.317,199.099,100.05,199.233,100.151,199.735z M103.272,200.695c-0.924-0.189-0.924,1.149,0,0.96
	C103.671,201.178,103.251,201.35,103.272,200.695z M73.511,181.734c2.381,0.562,0.406,4.038,1.439,5.28
	C76.503,185.425,75.808,180.232,73.511,181.734z M79.272,159.654c-1.424-0.178-2.27-0.933-3.84-0.96
	c0.086,1.86,2.197,3.702,4.318,4.32C79.323,162.164,79.7,160.505,79.272,159.654z"/>
<path fill="#BFBBB9" d="M64.392,176.934c-0.398-0.492-0.398-2.628,0-3.12C64.392,174.854,64.392,175.894,64.392,176.934z"/>
<path fill="#868584" d="M92.712,166.135c-0.881,0-1.76,0-2.641,0C90.407,165.737,92.376,165.737,92.712,166.135z"/>
<path fill="#BFBBB9" d="M101.591,155.814c-0.488,0.551-1.992,0.087-2.879,0.24C99.2,155.504,100.704,155.968,101.591,155.814z"/>
<path fill="#BFBBB9" d="M117.433,134.215c0-0.801,0-1.601,0-2.4C117.829,132.073,117.829,133.956,117.433,134.215z"/>
<path fill="#945A33" d="M75.911,193.255c-2.625,0.563-4.527,2.117-6.479,1.2c-3.229-1.517-2.346-6.032,0-8.88
	c1.238-0.269,2.27-0.961,3.6-0.479c0.264,1.122,0.35,2.774,1.68,2.88c1.395,0.111,1.209-1.435,1.922-2.4
	c0.43-0.582,1.4-0.946,1.92-1.68c2.182-3.082,3.664-7.847,5.039-10.08c-1.041-0.807-0.777,1.35-1.918,1.2
	c-0.262-6.211,0.063-12.586-2.4-18c-0.74,0.32,0.447,1.067-0.24,1.439c-0.867-0.093-1.602-0.318-2.16-0.72
	c1.105-4.402,8.033-6.126,13.92-5.76c0.477,1.624,0.275,5.169-1.68,4.8c-0.082-0.744,0.557-1.146,0-1.68
	c-3.377,2.769-0.299,10.975-3.119,13.92c1.582-1.204,4.262-2.322,7.199-1.92c5.336,0.729,5.498,4.998,8.4,10.32
	c2.045,3.746,5.072,6.615,5.52,11.04c0.264,2.6-1.365,5.333-1.199,7.44c-3.322-1.752-6.33,0.562-7.201,3.36
	c-1.918-4.611,5.43-8.55,5.281-10.8c-0.086-1.284-2.391-2.786-3.84-1.919c0.596,1.003,2.545,0.653,2.639,2.16
	c-2.137,2.406-7.77,7.869-3.6,11.28c-0.326,5.175,4.295,6.575,7.92,4.32c-0.008,1.048,0.664,1.417,0.721,2.4
	c-1.336,1.336-4.586,1.523-6.721,0.72c0.561,1.902,3.762,2.267,6.48,1.44c-1.848,7.947-6.826,13.926-14.641,15.12
	c-5.516-3.475-9.473-7.028-12.719-12.48c-1.361-2.285-2.887-6.146-3.361-8.88C76.394,199.853,77.394,195.904,75.911,193.255z
	 M97.272,210.055c-3.275-0.958-3.855,4.915-0.48,4.08C98.718,213.658,99.343,210.661,97.272,210.055z M93.433,207.655
	c-4.941,1.046-9.951,0.79-13.682-0.96C82.032,210.284,90.046,211.319,93.433,207.655z M90.071,194.454
	c-4.512-1.465-9.393,1.956-9.119,6.96c-1.152,0.049-2.104,0.295-2.4,1.2c0.203,0.623,1.055-0.462,1.439,0.24
	c-0.125,0.355-0.354,0.605-0.479,0.96c1.047,0.391,1.482-1.055,1.92-0.48c0.174,0.734-0.414,0.706-0.24,1.44
	c2.047-1.42,3.877,3.012,6.48,0.96c-2.275-0.291-3.637-0.669-4.561-2.64c1.783-1.516,7.195-1.075,9.361-0.72
	c-0.566,1.995-2.834,2.287-4.08,3.6C95.015,206.317,96.116,196.417,90.071,194.454z M75.192,190.135
	c-0.988,0.373-1.912,0.809-2.881,1.2c-0.756-0.523-0.406-2.154-0.48-3.36c-1.375,0.539-1.146,2.366-0.719,3.84
	c-0.324,0.909-1.867-0.473-1.92,0.96C71.29,193.976,73.991,191.929,75.192,190.135z M98.712,187.495
	c-1.646,0.739-3.854-1.11-4.32,0.72C95.763,188.573,98.306,189.167,98.712,187.495z M88.151,184.854
	c2.188-2.142,6.846-0.18,9.84-2.16c0.934,1.228,3.508,0.486,4.801,0c-1.514-2.406-3.719-4.121-5.76-6
	c-5.662,0.099-7.564,3.957-9.84,7.44c-0.502-0.139-0.686-0.595-1.441-0.48c0.705,1.377,2.074,2.087,2.881,3.36
	C89.267,186.26,88.124,185.745,88.151,184.854z"/>
<use xlink:href="#Rand"  width="156.49" height="248.039" x="5.377" y="-252.996" transform="matrix(1 0 0 -1 0.002 0.0029)" overflow="visible"/>
</svg>
