<?xml version="1.0" encoding="utf-8"?>
<!-- Generator: Adobe Illustrator 15.1.0, SVG Export Plug-In  -->
<!DOCTYPE svg PUBLIC "-//W3C//DTD SVG 1.1//EN" "http://www.w3.org/Graphics/SVG/1.1/DTD/svg11.dtd" [
	<!ENTITY ns_flows "http://ns.adobe.com/Flows/1.0/">
]>
<svg version="1.1"
	 xmlns="http://www.w3.org/2000/svg" xmlns:xlink="http://www.w3.org/1999/xlink" xmlns:a="http://ns.adobe.com/AdobeSVGViewerExtensions/3.0/"
	 x="0px" y="0px" width="167px" height="258px" viewBox="0.002 0.003 167 258" enable-background="new 0.002 0.003 167 258"
	 xml:space="preserve">
<defs>
	<symbol  id="IN" viewBox="-42.52 -42.519 85.038 85.038">
		<path fill="none" d="M0,42.52c-0.007,0-0.013,0-0.02,0H0.02C0.013,42.519,0.007,42.52,0,42.52z"/>
		<path fill="#FF9933" d="M0.02,42.519H-0.02c-18.504-0.008-34.235-11.839-40.071-28.346H40.09
			C34.253,30.68,18.521,42.511,0.02,42.519z"/>
		<path fill="#FFFFFF" d="M42.519,0c0,4.971-0.861,9.739-2.429,14.173h-80.181C-41.658,9.739-42.52,4.971-42.52,0
			s0.861-9.739,2.429-14.173H40.09C41.657-9.739,42.519-4.971,42.519,0z"/>
		<path fill="#138808" d="M40.09-14.173h-80.181C-34.253-30.686-18.512-42.519,0-42.519C18.511-42.519,34.251-30.686,40.09-14.173z"
			/>
		<g>
			<path fill="#000088" d="M0,13.89c-7.671,0-13.89-6.218-13.89-13.89c0-7.671,6.219-13.89,13.89-13.89S13.89-7.671,13.89,0
				C13.89,7.671,7.671,13.89,0,13.89z"/>
			<path fill="#FFFFFF" d="M0,12.154c-6.712,0-12.153-5.441-12.153-12.154c0-6.712,5.441-12.153,12.153-12.153
				S12.153-6.712,12.153,0C12.153,6.712,6.712,12.154,0,12.154z"/>
			<path fill="#000088" d="M0,2.431c1.343,0,2.431-1.088,2.431-2.431c0-1.342-1.088-2.431-2.431-2.431S-2.431-1.342-2.431,0
				C-2.431,1.343-1.343,2.431,0,2.431z"/>
			<g>
				<g>
					<g id="b_36_">
						<g id="a_72_">
							<path fill="#000088" d="M12.129-0.984c0.333-0.043,0.567-0.349,0.523-0.682c-0.044-0.333-0.35-0.567-0.682-0.523
								c-0.333,0.043-0.567,0.349-0.523,0.682C11.491-1.174,11.796-0.94,12.129-0.984z"/>
							<path fill="#000088" d="M0-12.153l0.417,7.292L0-1.389l-0.417-3.473L0-12.153z"/>
						</g>
						<g transform="rotate(15)">
							<g id="a_47_">
								<path fill="#000088" d="M11.461-4.089c0.311-0.128,0.457-0.484,0.329-0.794c-0.129-0.31-0.484-0.458-0.794-0.329
									c-0.311,0.128-0.457,0.484-0.329,0.794C10.796-4.108,11.151-3.961,11.461-4.089z"/>
								<path fill="#000088" d="M-3.146-11.739l2.29,6.936l0.496,3.462l-1.302-3.247L-3.146-11.739z"/>
							</g>
						</g>
					</g>
					<g id="c_18_">
						<g id="b_23_">
							<g id="a_46_">
								<path fill="#000088" d="M10.012-6.917c0.267-0.204,0.316-0.585,0.112-0.852C9.92-8.035,9.538-8.085,9.272-7.88
									C9.006-7.676,8.956-7.295,9.16-7.028C9.364-6.762,9.746-6.712,10.012-6.917z"/>
								<path fill="#000088" d="M-6.077-10.525l4.008,6.107l1.375,3.216l-2.098-2.799L-6.077-10.525z"/>
							</g>
							<g transform="rotate(30)">
								<g id="a_45_">
									<path fill="#000088" d="M7.881-9.272c0.204-0.266,0.154-0.648-0.112-0.852s-0.647-0.154-0.852,0.112
										C6.712-9.746,6.763-9.364,7.028-9.16C7.295-8.956,7.677-9.006,7.881-9.272z"/>
									<path fill="#000088" d="M-8.594-8.594l5.451,4.862l2.16,2.75l-2.75-2.161L-8.594-8.594z"/>
								</g>
							</g>
						</g>
					</g>
					<g>
						<g id="d_9_">
							<g id="b_22_">
								<g id="a_44_">
									<path fill="#000088" d="M5.212-10.996c0.129-0.31-0.019-0.666-0.328-0.794c-0.311-0.128-0.666,0.019-0.794,0.329
										c-0.129,0.31,0.019,0.666,0.329,0.794C4.729-10.539,5.084-10.686,5.212-10.996z"/>
									<path fill="#000088" d="M-10.525-6.077l6.523,3.285l2.799,2.097L-4.418-2.07L-10.525-6.077z"/>
								</g>
								<g transform="rotate(15)">
									<g id="a_43_">
										<path fill="#000088" d="M2.188-11.97c0.044-0.333-0.19-0.638-0.522-0.682c-0.333-0.044-0.639,0.19-0.683,0.523
											c-0.043,0.333,0.191,0.638,0.523,0.682C1.84-11.403,2.146-11.637,2.188-11.97z"/>
										<path fill="#000088" d="M-11.739-3.146l7.151,1.485l3.246,1.301l-3.462-0.496L-11.739-3.146z"/>
									</g>
								</g>
							</g>
							<g id="c_11_">
								<g id="b_21_">
									<g id="a_42_">
										<path fill="#000088" d="M-0.983-12.129c-0.044-0.333-0.35-0.567-0.683-0.523c-0.332,0.044-0.566,0.349-0.522,0.682
											c0.044,0.333,0.349,0.567,0.682,0.523C-1.174-11.491-0.94-11.796-0.983-12.129z"/>
										<path fill="#000088" d="M-12.153,0l7.292-0.417L-1.389,0l-3.473,0.417L-12.153,0z"/>
									</g>
									<g transform="rotate(60)">
										<g id="a_41_">
											<path fill="#000088" d="M-4.09-11.461c-0.128-0.31-0.483-0.457-0.794-0.329c-0.31,0.128-0.457,0.484-0.328,0.794
												c0.128,0.31,0.483,0.457,0.794,0.329C-4.108-10.795-3.961-11.151-4.09-11.461z"/>
											<path fill="#000088" d="M-11.739,3.146l6.936-2.29l3.462-0.497l-3.246,1.301L-11.739,3.146z"/>
										</g>
									</g>
								</g>
							</g>
						</g>
						<g>
							<g>
								<g>
									<g id="b_20_">
										<g id="a_40_">
											<path fill="#000088" d="M-6.916-10.012c-0.205-0.267-0.586-0.316-0.853-0.112s-0.316,0.586-0.112,0.852
												s0.586,0.316,0.853,0.112C-6.763-9.364-6.712-9.746-6.916-10.012z"/>
											<path fill="#000088" d="M-10.525,6.077l6.107-4.007l3.215-1.375l-2.799,2.097L-10.525,6.077z"/>
										</g>
										<g transform="rotate(15)">
											<g id="a_39_">
												<path fill="#000088" d="M-9.272-7.88c-0.266-0.205-0.647-0.154-0.852,0.112c-0.204,0.267-0.154,0.648,0.112,0.852
													c0.266,0.205,0.647,0.154,0.852-0.112C-8.956-7.295-9.006-7.676-9.272-7.88z"/>
												<path fill="#000088" d="M-8.594,8.594l4.861-5.451l2.75-2.161l-2.16,2.75L-8.594,8.594z"/>
											</g>
										</g>
									</g>
									<g id="c_10_">
										<g id="b_19_">
											<g id="a_38_">
												<path fill="#000088" d="M-10.996-5.212c-0.31-0.128-0.665,0.019-0.794,0.329c-0.128,0.31,0.02,0.666,0.329,0.794
													s0.666-0.019,0.794-0.329C-10.538-4.729-10.686-5.084-10.996-5.212z"/>
												<path fill="#000088" d="M-6.077,10.525l3.285-6.523l2.098-2.799l-1.375,3.215L-6.077,10.525z"/>
											</g>
											<g transform="rotate(30)">
												<g id="a_37_">
													<path fill="#000088" d="M-11.97-2.188c-0.333-0.044-0.639,0.19-0.683,0.523c-0.044,0.333,0.19,0.638,0.523,0.682
														c0.333,0.044,0.638-0.19,0.682-0.523C-11.403-1.84-11.638-2.145-11.97-2.188z"/>
													<path fill="#000088" d="M-3.146,11.74l1.484-7.152l1.302-3.246l-0.496,3.462L-3.146,11.74z"/>
												</g>
											</g>
										</g>
									</g>
									<g>
										<g id="d_5_">
											<g id="b_18_">
												<g id="a_36_">
													<path fill="#000088" d="M-12.129,0.984c-0.333,0.044-0.567,0.349-0.523,0.682c0.044,0.333,0.35,0.567,0.683,0.523
														c0.332-0.044,0.566-0.349,0.522-0.682C-11.491,1.174-11.796,0.94-12.129,0.984z"/>
													<path fill="#000088" d="M0,12.154l-0.417-7.292L0,1.389l0.417,3.472L0,12.154z"/>
												</g>
												<g transform="rotate(15)">
													<g id="a_35_">
														<path fill="#000088" d="M-11.461,4.09c-0.31,0.128-0.457,0.484-0.329,0.794c0.129,0.31,0.484,0.457,0.794,0.329
															c0.311-0.128,0.458-0.484,0.329-0.794C-10.795,4.108-11.151,3.961-11.461,4.09z"/>
														<path fill="#000088" d="M3.146,11.74l-2.29-6.936L0.359,1.342l1.302,3.246L3.146,11.74z"/>
													</g>
												</g>
											</g>
											<g id="c_9_">
												<g id="b_17_">
													<g id="a_34_">
														<path fill="#000088" d="M-10.012,6.917c-0.267,0.205-0.316,0.586-0.112,0.852c0.204,0.267,0.586,0.316,0.852,0.112
															c0.267-0.204,0.316-0.586,0.112-0.852S-9.746,6.712-10.012,6.917z"/>
														<path fill="#000088" d="M6.077,10.525L2.07,4.418L0.694,1.203l2.098,2.799L6.077,10.525z"/>
													</g>
													<g transform="rotate(120)">
														<g id="a_33_">
															<path fill="#000088" d="M-7.881,9.272c-0.204,0.266-0.154,0.647,0.112,0.852c0.267,0.204,0.647,0.154,0.853-0.112
																c0.204-0.267,0.153-0.648-0.112-0.852C-7.295,8.956-7.677,9.006-7.881,9.272z"/>
															<path fill="#000088" d="M8.594,8.594L3.143,3.732l-2.16-2.75l2.75,2.161L8.594,8.594z"/>
														</g>
													</g>
												</g>
											</g>
										</g>
										<g>
											<g>
												<g>
													<g id="b_16_">
														<g id="a_32_">
															<path fill="#000088" d="M-5.212,10.996c-0.129,0.31,0.019,0.666,0.328,0.794c0.311,0.128,0.666-0.019,0.794-0.329
																c0.129-0.31-0.019-0.666-0.328-0.794C-4.729,10.539-5.084,10.686-5.212,10.996z"/>
															<path fill="#000088" d="M10.525,6.077L4.002,2.792L1.203,0.695L4.419,2.07L10.525,6.077z"/>
														</g>
														<g transform="rotate(15)">
															<g id="a_31_">
																<path fill="#000088" d="M-2.188,11.97c-0.044,0.333,0.19,0.638,0.522,0.682c0.333,0.043,0.639-0.19,0.683-0.523
																	c0.043-0.333-0.19-0.638-0.523-0.682S-2.145,11.638-2.188,11.97z"/>
																<path fill="#000088" d="M11.739,3.146L4.588,1.661L1.342,0.359l3.462,0.497L11.739,3.146z"/>
															</g>
														</g>
													</g>
													<g id="c_8_">
														<g id="b_15_">
															<g id="a_30_">
																<path fill="#000088" d="M0.983,12.129c0.044,0.333,0.35,0.567,0.683,0.523c0.332-0.044,0.566-0.349,0.522-0.682
																	c-0.043-0.333-0.349-0.567-0.682-0.523C1.175,11.491,0.94,11.796,0.983,12.129z"/>
																<path fill="#000088" d="M12.153,0L4.861,0.417L1.389,0l3.473-0.417L12.153,0z"/>
															</g>
															<g transform="rotate(30)">
																<g id="a_29_">
																	<path fill="#000088" d="M4.09,11.461c0.128,0.31,0.483,0.458,0.794,0.329c0.31-0.128,0.457-0.484,0.328-0.794
																		c-0.128-0.31-0.483-0.458-0.793-0.329C4.108,10.795,3.961,11.151,4.09,11.461z"/>
																	<path fill="#000088" d="M11.739-3.146l-6.936,2.29L1.342-0.359l3.246-1.301L11.739-3.146z"/>
																</g>
															</g>
														</g>
													</g>
													<g>
														<g id="d_4_">
															<g id="b_14_">
																<g id="a_28_">
																	<path fill="#000088" d="M6.917,10.012c0.204,0.266,0.585,0.316,0.852,0.112C8.035,9.92,8.085,9.539,7.881,9.272
																		C7.677,9.006,7.295,8.956,7.028,9.16C6.763,9.364,6.712,9.746,6.917,10.012z"/>
																	<path fill="#000088" d="M10.525-6.077L4.419-2.07L1.203-0.694l2.799-2.097L10.525-6.077z"/>
																</g>
																<g transform="rotate(15)">
																	<g id="a_27_">
																		<path fill="#000088" d="M9.272,7.881c0.266,0.204,0.647,0.154,0.852-0.112c0.204-0.266,0.154-0.647-0.112-0.852
																			C9.746,6.712,9.364,6.763,9.16,7.029S9.006,7.677,9.272,7.881z"/>
																		<path fill="#000088" d="M8.594-8.594L3.732-3.143l-2.75,2.161l2.16-2.75L8.594-8.594z"/>
																	</g>
																</g>
															</g>
															<g id="c_7_">
																<g id="b_13_">
																	<g id="a_26_">
																		<path fill="#000088" d="M10.996,5.212c0.31,0.128,0.665-0.019,0.794-0.329c0.128-0.31-0.019-0.666-0.329-0.794
																			c-0.31-0.128-0.665,0.019-0.794,0.329C10.539,4.729,10.686,5.084,10.996,5.212z"/>
																		<path fill="#000088" d="M6.077-10.525L2.792-4.001L0.694-1.203L2.07-4.418L6.077-10.525z"/>
																	</g>
																	<g transform="rotate(-120)">
																		<g id="a_25_">
																			<path fill="#000088" d="M11.971,2.189c0.332,0.044,0.638-0.19,0.682-0.523c0.044-0.333-0.19-0.638-0.523-0.682
																				c-0.333-0.043-0.638,0.19-0.682,0.523C11.403,1.84,11.638,2.145,11.971,2.189z"/>
																			<path fill="#000088" d="M3.146-11.739L1.661-4.588L0.359-1.341l0.496-3.462L3.146-11.739z"/>
																		</g>
																	</g>
																</g>
															</g>
														</g>
													</g>
												</g>
											</g>
										</g>
									</g>
								</g>
							</g>
						</g>
					</g>
				</g>
			</g>
		</g>
	</symbol>
	<symbol  id="Rand" viewBox="5.377 -252.996 156.49 248.039">
		<g id="weiß_2_">
		</g>
		<path fill="#FFFFFF" d="M159.867-242.076c0,4.92-4,8.92-8.92,8.92c-4.921,0-8.921-4-8.921-8.92s4-8.92,8.921-8.92
			C155.867-250.996,159.867-246.996,159.867-242.076z M159.867-15.887c0,4.92-4,8.93-8.92,8.93c-4.921,0-8.921-4.01-8.921-8.93
			c0-4.91,4-8.92,8.921-8.92C155.867-24.807,159.867-20.797,159.867-15.887z M19.387-4.957h123.9h4.569h3.091
			c6.02,0,10.92-4.9,10.92-10.93v-9.52v-208.09v-8.58c0-6.021-4.9-10.92-10.92-10.92h-9.471c-37.63,0-75.85,0-125.17,0
			c-6.029,0-10.92,4.898-10.92,10.92c-0.01,72.18-0.01,141.83-0.01,211.35v14.84c0,6.029,4.9,10.93,10.92,10.93H19.387z
			 M25.227-15.887c0,4.92-4.01,8.93-8.93,8.93c-4.91,0-8.92-4.01-8.92-8.93c0-4.91,4.01-8.92,8.92-8.92
			C21.217-24.807,25.227-20.797,25.227-15.887z M16.307-250.996c4.92,0,8.92,4,8.92,8.92s-4,8.92-8.92,8.92s-8.92-4-8.92-8.92
			S11.387-250.996,16.307-250.996z M27.227-15.887c0-6.02-4.9-10.92-10.93-10.92c-3.68,0-6.939,1.83-8.92,4.629
			c0-71.199,0-142.398,0-213.609c1.98,2.801,5.24,4.631,8.93,4.631c6.02,0,10.92-4.9,10.92-10.92c0-3.682-1.83-6.941-4.63-8.92
			c40.69,0,81.37,0,122.061,0c-2.801,1.979-4.631,5.238-4.631,8.92c0,6.02,4.9,10.92,10.921,10.92c3.68,0,6.939-1.83,8.92-4.621
			c0,71.201,0,142.4,0,213.6c-1.98-2.799-5.24-4.629-8.92-4.629c-6.021,0-10.921,4.9-10.921,10.92c0,3.689,1.83,6.949,4.631,8.93
			c-40.69,0-81.38,0-122.061,0C25.396-8.938,27.227-12.197,27.227-15.887z"/>
	</symbol>
</defs>
<g>
	<path fill="#D28F38" d="M167.244,240.945c0,9.354-7.653,17.008-17.008,17.008H17.008C7.653,257.953,0,250.3,0,240.945V17.008
		C0,7.653,7.653,0,17.008,0h133.229c9.354,0,17.008,7.653,17.008,17.008V240.945z"/>
</g>
<use xlink:href="#IN"  width="85.038" height="85.038" x="-42.52" y="-42.519" transform="matrix(0.2333 0 0 -0.2333 150.8008 242.0752)" overflow="visible"/>
<use xlink:href="#IN"  width="85.038" height="85.038" x="-42.52" y="-42.519" transform="matrix(0.2333 0 0 -0.2333 150.7998 15.8809)" overflow="visible"/>
<use xlink:href="#IN"  width="85.038" height="85.038" x="-42.52" y="-42.519" transform="matrix(0.2333 0 0 -0.2333 16.2979 242.0752)" overflow="visible"/>
<use xlink:href="#IN"  width="85.038" height="85.038" x="-42.52" y="-42.519" transform="matrix(0.2333 0 0 -0.2333 16.2979 15.8809)" overflow="visible"/>
<path fill="#2A2321" d="M65.499,36.379c2.69,0.589,3.605,2.955,5.761,4.08C69.026,40.372,66.634,38.367,65.499,36.379z"/>
<path fill="#2A2321" d="M66.939,39.74c1.415,0.985,3.065,1.733,5.04,2.159C70.037,42.903,67.748,41.56,66.939,39.74z"/>
<path fill="#2A2321" d="M77.499,54.139c1.109,1.451,3.724,1.398,4.32,3.36c-3.538-0.521-6.581-1.291-12-0.96
	C71.671,53.628,74.709,54.805,77.499,54.139z"/>
<path fill="#2A2321" d="M76.06,62.299c0.449-0.351,0.283-1.317,1.2-1.2c-0.019,0.418,0.053,0.747,0.24,0.96
	c0.692-0.106,0.566-1.032,1.199-1.2c1.149-0.028,1.44,0.801,1.44,1.92c-0.281,1.079-1.134,1.587-2.4,1.681
	c-0.955-0.245-1.306-1.095-1.68-1.92C76.06,62.459,76.06,62.379,76.06,62.299z"/>
<path fill="#2A2321" d="M63.1,63.5c0.028-0.691-0.131-1.571,0.24-1.92c0.722-0.242,0.425,0.535,0.479,0.96
	c0.755,0.035,0.825-0.615,0.96-1.2c1.988,0.261,1.608,2.638,0.24,3.36c-0.08,0-0.16,0-0.24,0c-0.876-0.003-1.078-0.683-1.68-0.96
	C63.1,63.66,63.1,63.58,63.1,63.5z"/>
<path fill="#995A2D" d="M97.659,67.099c3.297,5.134-5.28,17.993-10.08,12.96c-1.489-4.623-0.717-10.572,3.36-13.2
	C92.934,66.603,95.449,65.944,97.659,67.099z M89.26,74.54c0.828-1.731,1.315-3.804,3.358-4.32c1.514,0.716,0.64,2.541,0.48,4.081
	c1.602-0.656,1.929-3.991,0.479-5.041c1.086-0.75,2.513-0.099,2.881-1.2C92.96,66.902,87.806,71.487,89.26,74.54z"/>
<path fill="#A33C46" d="M61.42,67.58c0.592-0.031,1.155-0.036,1.439,0.239c-0.58,0.301-0.55,1.21-1.439,1.2
	C61.42,68.541,61.42,68.059,61.42,67.58z"/>
<path fill="#995A2D" d="M77.02,94.22c-2.081-0.717-2.197-3.288-2.64-5.04c-3.249,0.116-4.999,1.141-7.681-0.479
	c0-0.561,0-1.12,0-1.681c0.885,0.79,3.248,0.513,4.561,0c4.042-1.578,9.095-6.455,8.64-9.359c-3.059,4.227-8.326,10.981-14.88,7.92
	c-0.306-1.899,1.451-0.415,1.44-2.16c1.375,0.31,4.152,0.911,5.039-0.96c0.146,0.415,1.139-0.019,1.2,0.479
	c2.27-2.698,4.188-4.626,6.96-6.479c0.193,0.127,0.391,0.251,0.721,0.24c1.723,2.424-0.332,6.156-0.96,8.641
	C78.515,88.919,78.533,91.95,77.02,94.22z"/>
<path fill="#995A2D" d="M77.739,106.7c-1.169-0.792-1.192-2.455-0.96-4.08c1.48-0.761,2.9-1.579,4.08-2.641
	c0.95-2.489,2.761-4.12,3.12-7.2c1.429-0.854,0.656-3.626,1.92-4.079c-0.96,3.004,1.039,6.469,0.48,9.119
	c-0.561,2.657-3.771,2.738-6,4.08C80.055,104.055,80.535,107.015,77.739,106.7z"/>
<path fill="#2A2321" d="M77.979,110.779c0.477-0.162,0.549-0.729,0.96-0.96c0.744-0.023,1.146,0.294,1.68,0.48
	c-0.174,0.733,0.414,0.706,0.24,1.439c-0.647,0.712-0.927,1.793-2.399,1.681c-0.08,0-0.16,0-0.24,0
	c-0.341-0.707-0.726-1.516-0.24-2.4C77.979,110.939,77.979,110.859,77.979,110.779z M78.699,112.22
	c1.339,0.574,1.698-1.555,0.48-1.439C79.041,111.282,78.585,111.465,78.699,112.22z"/>
<path fill="#2A2321" d="M102.22,116.54c0.407-1.272,0.67-2.689,1.92-3.119c0.732,1.521-1.354,2.116-0.96,4.08
	c0,0.079,0,0.159,0,0.239c-0.458,1.142-0.51,2.689-0.48,4.319c-0.031,0.447-0.156,0.802-0.479,0.96
	c-1.012-0.028-0.238-1.842-0.48-2.64C101.868,119.068,102.091,117.851,102.22,116.54z"/>
<path fill="#7A7876" d="M74.859,114.14c-0.002,0.638,0.091,1.37-0.24,1.68c-0.726-0.362,0.199-1.053,0-1.68
	C74.699,114.14,74.779,114.14,74.859,114.14z"/>
<path fill="#2A2321" d="M59.739,116.779c0.229-0.172,0.198-1.394,1.2-1.438c0.013,0.307,0.308,0.332,0.24,0.72
	c-0.939,2.196-0.87,3.971-1.2,6.479c-0.549,0.411-0.088,1.832-0.24,2.641c0.044,0.204-0.093,0.228-0.24,0.24
	c-1.035-0.165-0.221-2.18-0.479-3.12C59.225,120.425,59.377,118.497,59.739,116.779z"/>
<path fill="#2A2321" d="M77.26,120.14c-1.167-0.713-0.747-3.02,0.479-3.359c2.242,0.078,1.357,3,0,3.359
	C77.579,120.14,77.42,120.14,77.26,120.14z M77.499,119.18c0.742,0.022,0.716-0.725,0.721-1.439c-0.24,0-0.48,0-0.721,0
	C77.499,118.22,77.499,118.7,77.499,119.18z"/>
<path fill="#7A7876" d="M77.499,117.74c0.24,0,0.48,0,0.721,0c-0.005,0.716,0.021,1.463-0.721,1.439
	C77.499,118.7,77.499,118.22,77.499,117.74z"/>
<path fill="#7A7876" d="M59.979,122.54c-0.152,0.809,0.309,2.229-0.24,2.641C59.892,124.372,59.431,122.951,59.979,122.54z"/>
<path fill="#7A7876" d="M118.54,124.46c0.398,0.049,0.965,1.781,0,1.68c-0.267-0.454-0.307-1.134-0.479-1.68
	c0.188,0.053,0.279,0.2,0.24,0.479C118.486,124.887,118.579,124.738,118.54,124.46z"/>
<path fill="#7A7876" d="M113.26,113.42c0.899,0.779,1.339,2.021,1.68,3.358C114.323,115.717,113.847,114.513,113.26,113.42z"/>
<path fill="#7A7876" d="M91.18,101.18c0.916,0.685,1.597,1.604,2.64,2.16C92.404,103.154,92.006,101.954,91.18,101.18z"/>
<path fill="#7A7876" d="M85.42,105.74c1.301-1.18,2.738-2.221,4.079-3.359c-0.893,1.508-2.609,2.188-3.841,3.359
	C85.579,105.74,85.5,105.74,85.42,105.74z"/>
<path fill="#7A7876" d="M84.22,105.26c0.01,0.33-0.113,0.526-0.24,0.72c0.099,0.409,0.31-0.051,0.72,0
	c-0.691,0.429-1.281,0.958-2.398,0.96c0.01-1.109,1.515-0.725,1.68-1.68C84.06,105.26,84.14,105.26,84.22,105.26z"/>
<path fill="#7A7876" d="M84.46,105.26c2.009-1.671,4.327-3.031,5.278-5.761c0.729,1.055-1.081,2.251-1.92,3.12
	C86.808,103.669,85.742,104.962,84.46,105.26z"/>
<path fill="#7A7876" d="M88.06,94.22c0.775,0.585,0.873,1.847,0.96,3.12C88.534,96.465,88.594,95.046,88.06,94.22z"/>
<path fill="#BDB2B1" d="M86.38,99.979c2.084-1.376,0.102-3.944,0.96-6.479c0.346,0.135,0.585,0.375,0.72,0.721
	c0.534,0.826,0.475,2.245,0.96,3.12c0.191,0.768,0.709,1.211,0.72,2.159c-0.951,2.729-3.271,4.09-5.278,5.761c-0.08,0-0.16,0-0.24,0
	s-0.16,0-0.24,0c-0.165,0.955-1.67,0.569-1.68,1.68c1.117-0.002,1.707-0.531,2.398-0.96c0.309-0.014,0.333-0.308,0.722-0.239
	c0.079,0,0.158,0,0.238,0c1.23-1.171,2.948-1.853,3.841-3.359c0.729-0.23,0.485-1.436,1.681-1.2c0.826,0.773,1.225,1.976,2.64,2.16
	c3.451,0.984,7.2,3.69,11.28,4.8c4.047,1.101,7.007,1.813,8.16,5.28c0.587,1.093,1.063,2.297,1.68,3.359
	c0.925,2.152,2.297,4.765,3.12,7.681c0.174,0.546,0.214,1.226,0.479,1.68c-22.319,0-44.641,0-66.96,0
	c0.448-3.313,0.883-6.638,2.4-8.88c0.756-0.524,0.747-1.813,1.44-2.4c0-0.079,0-0.159,0-0.239c0.779-0.659,1.334-1.546,2.159-2.159
	c3.708-1.733,7.616-3.264,12-4.32c2.982-0.458,3.917-2.963,5.04-5.28c1.689-0.048,0.572,1.008,0.721,1.921
	c-0.931,1.536,1.571,2.574,1.439,3.359c-1.036,2.061-1.167,4.053-1.92,6c-0.08,0-0.16,0-0.24,0c0.199,0.627-0.726,1.316,0,1.681
	c0,0.079,0,0.159,0,0.239c-0.457,0.865-0.388,3.262,0.24,3.84c0.851,2.029,1.128,1.131,0.96-0.479
	c-0.145-1.505,0.183-2.539,0.24-3.841c-0.086-1.205,0.146-2.092,0.479-2.88c0.527-0.833,0.643-2.078,0.96-3.12
	c0.198-1.962,2.096-2.226,3.601-2.88c0.194-0.045,0.239-0.24,0.479-0.239c0-1.12,0-2.24,0-3.36c0-0.16,0-0.319,0-0.479
	c0.756-0.364,1.44-0.8,2.4-0.96C85.116,101.437,85.642,100.602,86.38,99.979z M80.619,110.3c-0.423-1.126-2.632-0.81-2.64,0.479
	c0,0.08,0,0.16,0,0.24c-0.861,0.482-0.432,2.073,0.24,2.4c0.08,0,0.16,0,0.24,0c0.974,0.563,2.324-0.549,2.399-1.682
	C81.033,111.006,80.445,111.034,80.619,110.3z M104.14,113.42c-1.25,0.43-1.513,1.847-1.92,3.119
	c-0.45,0.836-0.827,3.005-0.48,3.841c0.242,0.798-0.529,2.61,0.48,2.64c0.321-0.158,0.446-0.513,0.479-0.96
	c0.381-1.22,0.353-2.849,0.48-4.319c0-0.08,0-0.16,0-0.239C103.139,115.982,105.311,114.513,104.14,113.42z M61.18,116.06
	c0.08,0,0.16,0,0.24,0c0.013-2.174-2.37,0.093-1.681,0.721c-0.362,1.717-0.515,3.646-0.72,5.521c-0.42,0.516-0.534,4.039,0.479,3.12
	c0.146-0.014,0.284-0.036,0.24-0.24c0.549-0.411,0.088-1.832,0.24-2.641C60.311,120.029,60.24,118.256,61.18,116.06z M77.739,120.14
	c1.1,0.283,2.627-2.787,0.721-3.601c-1.771-0.089-2.21,1.15-2.16,2.881c0.489,0.07,0.471,0.648,0.96,0.72
	C77.42,120.14,77.579,120.14,77.739,120.14z"/>
<path fill="#7A7876" d="M83.979,101.66c0.873-0.486,1.461-1.26,2.4-1.681C85.642,100.602,85.116,101.437,83.979,101.66z"/>
<path fill="#7A7876" d="M81.579,103.1c0,1.12,0,2.24,0,3.36c-0.24-0.001-0.285,0.193-0.479,0.239
	c0.491-0.788,0.129-2.431,0.24-3.601C81.42,103.1,81.499,103.1,81.579,103.1z"/>
<path fill="#7A7876" d="M77.499,109.58c-0.317,1.042-0.433,2.287-0.96,3.12C76.711,111.511,76.91,110.35,77.499,109.58z"/>
<path fill="#7A7876" d="M76.06,115.58c-0.06,1.302-0.385,2.336-0.24,3.841C75.263,118.455,75.636,116.361,76.06,115.58z"/>
<path fill="#7A7876" d="M74.619,116.06c-0.021,1.381-0.052,2.771,0.24,3.84C74.231,119.32,74.162,116.925,74.619,116.06z"/>
<path fill="#7A7876" d="M76.779,108.14c0.132-0.785-2.37-1.823-1.439-3.359C74.907,106.708,77.201,107.001,76.779,108.14z"/>
<path fill="#7A7876" d="M74.619,102.859c-1.123,2.317-2.058,4.822-5.04,5.28c1.117-0.991,2.476-0.969,3.36-2.16
	C73.665,105.003,73.191,103.336,74.619,102.859z"/>
<path fill="#7A7876" d="M55.42,114.62c0.561-0.879,1.102-1.778,2.159-2.159C56.754,113.074,56.199,113.96,55.42,114.62z"/>
<path fill="#7A7876" d="M53.979,117.26c0.421-0.858,0.551-2.01,1.44-2.4C54.727,115.446,54.735,116.735,53.979,117.26z"/>
<path fill="#995A2D" d="M66.46,49.819c0.569,0.15-0.037,1.478,0.479,1.681c1.063,0.343,0.628-0.813,1.44-0.721
	c0.02,0.381-0.115,0.916,0.239,0.961c0.702-0.099,0.779-0.821,1.2-1.2c6.826-1.53,12.272,4.229,16.32,8.399
	c0.584,7.171-2.278,11.782-3.84,17.761c-2.604-2.189-6.745-2.643-10.561-2.16c-0.27-1.012-0.417-2.144-1.439-2.399
	c-0.244,0.155-0.248,0.552-0.721,0.479c0.102,0.778,1.068,0.69,0.96,1.681c-2.7,2.631-7.435,5.614-11.76,5.04
	c-0.42-1.999,0.481-4.652,1.92-6.961c1.942-3.116,6.679-5.069,6.96-8.879c0.172-2.325-1.78-4.616-4.8-4.08
	c-1.326,0.235-1.347,1.485-3.12,1.68c0.935-3.605,4.571-1.841,7.44-3.12c-0.724-2.854-4.95-1.239-7.44-0.72
	c0.725-2.557,1.96-4.6,3.601-6.24c0.855-0.056,0.246,1.354,1.199,1.2C65.623,51.863,65.554,50.353,66.46,49.819z M69.819,56.54
	c5.419-0.331,8.462,0.438,12,0.96c-0.597-1.962-3.21-1.909-4.32-3.36C74.709,54.805,71.671,53.628,69.819,56.54z M71.739,65.66
	c2.346,7.101,13.944,1.717,10.08-5.04c-0.733-1.284-1.974-1.453-3.6-2.641C74.135,57.664,70.132,60.79,71.739,65.66z"/>
<path fill="#7A7876" d="M73.18,60.62c1.191-2,4.815-2.213,6.479-0.48C77.577,58.8,74.775,58.955,73.18,60.62z"/>
<path fill="#7A7876" d="M80.38,66.139c-1.86,3.283-8.978,1.396-7.92-2.88C71.772,66.933,77.846,69.063,80.38,66.139z"/>
<path fill="#7A7876" d="M80.859,61.819c0.661,0.567,0.661,2.554,0,3.12C81.149,63.921,81.149,62.837,80.859,61.819z"/>
<path fill="#BDB2B1" d="M79.659,60.139c0.661,0.299,1.164,0.756,1.2,1.68c0.291,1.019,0.291,2.103,0,3.12
	c0.206,0.767-0.377,0.742-0.479,1.2c-2.534,2.923-8.607,0.794-7.92-2.88c-0.188-1.307,0.368-1.872,0.72-2.64
	C74.775,58.955,77.577,58.8,79.659,60.139z M80.14,62.779c0.598-1.007-0.35-2.524-1.92-2.159c-0.033,0.446-0.158,0.802-0.48,0.96
	c-0.494-0.066-0.226-0.895-0.72-0.96c-0.295,0.438-1.456,1.246-0.96,1.68c0,0.08,0,0.16,0,0.24c-0.396,0.491,1.091,2.414,1.68,1.92
	C79.006,64.366,79.858,63.858,80.14,62.779z"/>
<path fill="#7A7876" d="M61.18,61.819c0.234-1.396,2.95-2.218,4.08-1.199c-1.402-0.5-3.473-0.082-3.84,1.199
	C61.34,61.819,61.26,61.819,61.18,61.819z"/>
<path fill="#BDB2B1" d="M60.939,64.7c-0.433-0.667-0.375-2.504,0.24-2.881c0.08,0,0.16,0,0.24,0c0.367-1.281,2.438-1.699,3.84-1.199
	c0.08,0,0.16,0,0.24,0c0.235,0.324,0.64,0.479,0.96,0.72c-1.238,0.21-4.292-0.737-3.36,2.16c0,0.08,0,0.16,0,0.24
	c-0.521,0.306,1.348,1.507,1.68,0.96c0.08,0,0.16,0,0.24,0c0.208,0.709,0.359-0.558,0.96-0.24c-0.443,0.837-1.232,1.328-1.68,2.16
	C62.775,66.383,61.727,65.672,60.939,64.7z"/>
<path fill="#7A7876" d="M60.939,64.7c0.787,0.973,1.836,1.684,3.36,1.92c0.447-0.832,1.236-1.323,1.68-2.16
	c-0.601-0.317-0.751,0.949-0.96,0.24c1.368-0.723,1.748-3.1-0.24-3.36c-0.135,0.584-0.205,1.234-0.96,1.2
	c-0.055-0.425,0.242-1.202-0.479-0.96c-0.371,0.349-0.211,1.229-0.24,1.92c-0.932-2.897,2.122-1.95,3.36-2.16
	c-0.32-0.24-0.725-0.396-0.961-0.72c2.869,1.403,0.072,5.235-1.199,6.239C62.756,66.563,61.397,66.082,60.939,64.7z"/>
<path fill="#7A7876" d="M63.1,63.74c0.602,0.277,0.804,0.956,1.68,0.96C64.447,65.248,62.578,64.045,63.1,63.74z"/>
<path fill="#7A7876" d="M76.06,62.54c0.375,0.826,0.725,1.675,1.68,1.92C77.15,64.954,75.664,63.031,76.06,62.54z"/>
<path fill="#7A7876" d="M76.06,62.299c-0.496-0.434,0.665-1.242,0.96-1.68c0.494,0.065,0.226,0.894,0.72,0.96
	c0.322-0.158,0.447-0.514,0.48-0.96c1.57-0.365,2.518,1.152,1.92,2.159c0-1.119-0.291-1.948-1.44-1.92
	c-0.633,0.167-0.507,1.094-1.2,1.2c-0.187-0.213-0.258-0.542-0.239-0.96C76.343,60.982,76.509,61.949,76.06,62.299z"/>
<path fill="#7A7876" d="M77.979,110.779c0.008-1.288,2.217-1.604,2.64-0.479c-0.533-0.187-0.936-0.505-1.68-0.48
	C78.528,110.049,78.456,110.617,77.979,110.779z"/>
<path fill="#7A7876" d="M77.979,111.02c-0.485,0.887-0.101,1.693,0.24,2.4C77.548,113.093,77.118,111.502,77.979,111.02z"/>
<path fill="#7A7876" d="M78.46,113.42c1.473,0.112,1.751-0.969,2.399-1.681C80.784,112.872,79.434,113.984,78.46,113.42z"/>
<path fill="#7A7876" d="M102.22,116.54c-0.129,1.312-0.353,2.528-0.48,3.841C101.393,119.544,101.77,117.375,102.22,116.54z"/>
<path fill="#7A7876" d="M103.18,117.74c-0.129,1.472-0.101,3.101-0.48,4.319C102.67,120.43,102.722,118.881,103.18,117.74z"/>
<path fill="#7A7876" d="M104.14,113.42c1.171,1.093-1.001,2.563-0.96,4.08C102.787,115.537,104.873,114.942,104.14,113.42z"/>
<path fill="#7A7876" d="M59.739,116.779c-0.689-0.627,1.693-2.894,1.681-0.72c-0.08,0-0.16,0-0.24,0
	c0.066-0.388-0.228-0.413-0.24-0.72C59.938,115.386,59.969,116.607,59.739,116.779z"/>
<path fill="#7A7876" d="M59.02,122.3c0.259,0.94-0.556,2.955,0.479,3.12C58.485,126.339,58.6,122.815,59.02,122.3z"/>
<path fill="#7A7876" d="M77.26,120.14c-0.49-0.07-0.472-0.648-0.96-0.72c-0.05-1.729,0.391-2.97,2.16-2.881
	c1.906,0.813,0.379,3.884-0.721,3.601c1.357-0.359,2.242-3.281,0-3.359C76.513,117.121,76.093,119.427,77.26,120.14z"/>
<path fill="#2A2321" d="M78.22,57.979c1.626,1.188,2.866,1.356,3.6,2.641c3.864,6.757-7.734,12.141-10.08,5.04
	C70.132,60.79,74.135,57.664,78.22,57.979z M79.659,60.139c-1.664-1.732-5.288-1.52-6.479,0.48c-0.353,0.769-0.907,1.333-0.72,2.64
	c-1.058,4.275,6.06,6.163,7.92,2.88c0.103-0.458,0.686-0.434,0.479-1.2c0.661-0.566,0.661-2.553,0-3.12
	C80.823,60.895,80.32,60.438,79.659,60.139z"/>
<path fill="#2A2321" d="M96.46,68.059c-0.368,1.102-1.795,0.451-2.881,1.2c1.448,1.05,1.121,4.384-0.479,5.041
	c0.158-1.54,1.032-3.364-0.48-4.081c-2.043,0.517-2.53,2.588-3.358,4.32C87.806,71.487,92.96,66.902,96.46,68.059z"/>
<path fill="#2A2321" d="M51.579,126.14c-0.239,0-0.479,0-0.72,0c0.48-10.64,5.835-16.405,15.601-17.76
	c2.324-1.493,6.755-1.967,6.479-5.28c-2.578-1.562-6.102-2.839-6.24-5.521c-0.135-2.606,3.172-6.99-0.96-8.641
	c-0.174-0.733,0.414-0.706,0.24-1.439c-1.487-0.592-1.706-2.453-3.6-2.641c-0.601-1.08-0.853-2.508-0.721-4.319
	c-2.292,0.426-3.336-0.298-4.319-1.681c-0.076-3.756,1.72-5.641,3.12-7.92c-0.02-3.496-0.075-4.564-0.721-8.16
	c-0.575-0.287-1.323-0.214-2.399,0c-1.381-0.778-2.783-1.536-4.08-2.399c-1.763-3.844-6.686-6.339-6.96-11.76
	c-0.066-1.307,0.548-2.405,0.479-3.36c-0.134-1.898-1.502-3.769-1.439-6.48c0.062-2.711,1.284-5.239,3.359-6.72
	c2.859-7.754,11.363-13.182,22.08-10.56c6.631,1.622,14.552,3.66,18,8.399c2.688,0.434,3.685,2.558,5.761,3.601
	c1.686,3.577,5.891,4.444,8.881,7.2c2.522,2.325,3.816,6.066,5.52,9.6c2.196,4.556,3.688,8.901,3.12,14.64
	c-0.694,7.021-5.626,12.209-12.24,14.4c-1.326-0.047-1.897,0.661-3.358,0.479c-3.031-0.726-4.773,3.709-8.16,1.92
	c-1.962,2.56-1.335,6.643-1.44,10.32c0.498,0.942,1.853,1.028,2.4,1.92c0.534,7.403,5.829,9.5,12,11.76
	c3.01,1.104,6.629,1.588,8.88,2.881c5.587,3.211,6.091,9.887,8.399,15.841c0.039,0.277-0.054,0.427-0.239,0.479
	c0.039-0.278-0.054-0.427-0.24-0.479c-0.823-2.916-2.195-5.527-3.12-7.682c-0.341-1.338-0.779-2.579-1.68-3.358
	c-1.153-3.468-4.113-4.182-8.16-5.28c-4.08-1.109-7.829-3.814-11.28-4.8c-1.043-0.558-1.724-1.478-2.64-2.16
	c-1.194-0.234-0.95,0.97-1.68,1.2c-1.342,1.14-2.779,2.181-4.08,3.358c-0.389-0.066-0.413,0.228-0.722,0.24
	c-0.41-0.051-0.621,0.409-0.72,0c0.127-0.192,0.25-0.39,0.24-0.72c0.08,0,0.16,0,0.24,0c1.281-0.298,2.348-1.591,3.358-2.641
	c0.839-0.869,2.649-2.065,1.92-3.12c-0.011-0.948-0.527-1.393-0.72-2.159c-0.087-1.273-0.185-2.535-0.96-3.12
	c-0.135-0.346-0.374-0.586-0.72-0.721c-0.858,2.535,1.124,5.104-0.96,6.479c-0.939,0.421-1.527,1.193-2.4,1.681
	c-0.96,0.159-1.645,0.596-2.4,0.96c0,0.159,0,0.319,0,0.479c-0.079,0-0.159,0-0.239,0c-0.11,1.17,0.251,2.813-0.24,3.6
	c-1.505,0.655-3.402,0.919-3.6,2.881c-0.59,0.771-0.789,1.932-0.961,3.119c-0.333,0.788-0.565,1.676-0.479,2.881
	c-0.424,0.781-0.797,2.875-0.24,3.841c0.168,1.608-0.109,2.509-0.96,0.479c-0.292-1.067-0.261-2.459-0.24-3.84c0-0.08,0-0.16,0-0.24
	c0.331-0.31,0.237-1.042,0.24-1.68c0.753-1.947,0.884-3.94,1.92-6c0.422-1.139-1.872-1.433-1.439-3.36
	c-0.147-0.913,0.969-1.968-0.721-1.92c-1.428,0.478-0.955,2.145-1.68,3.12c-0.885,1.191-2.243,1.169-3.36,2.16
	c-4.384,1.057-8.292,2.587-12,4.32c-1.059,0.381-1.599,1.279-2.159,2.159c0,0.079,0,0.159,0,0.239c-0.89,0.392-1.02,1.542-1.44,2.4
	C52.462,119.502,52.027,122.828,51.579,126.14z M90.939,66.859c-4.077,2.628-4.851,8.577-3.36,13.2
	c4.8,5.032,13.377-7.826,10.08-12.96C95.449,65.944,92.934,66.603,90.939,66.859z M108.939,52.7c-2.253-3.159-2.612-6.56-4.8-9.36
	c-1.566-2.006-3.712-2.801-6-4.32c-2.702-1.794-4.457-5.032-7.2-6.96c-0.658-0.462-1.616-0.464-2.399-0.96
	c-1.308-0.827-2.216-2.471-3.601-3.359c-3.929-2.523-10.349-4.205-15.36-5.28c-7.026-1.507-12.48,0.751-17.279,5.28
	c-0.507,1.252-1.413,2.106-1.92,3.359c4.19-0.099,8.153,0.747,11.279,2.4c1.284,0.68,2.678,1.637,3.36,2.64
	c-5.88-2.841-18-7.63-18.48,2.16c-0.099,2.014,0.977,3.709,1.2,5.28c0.252,1.763-0.367,3.565-0.24,5.279
	c0.24,3.248,1.924,5.292,4.08,6.96c-0.236-3.096,1.31-6.201,3.36-6.72c-3.421,3.424-3.181,12.357,3.36,12.24
	c-1.622-4.714,2.815-8.596,4.8-12c-0.839,0.209-2.427,0.922-3.36,0.24c13.102-5.763,26.905,4.454,30.96,16.319
	c1.946-0.652,3.012-0.788,5.762-0.72c-2.508-6.668-8.292-14.492-15.121-17.04c-3.079-1.148-7.11-0.664-10.32-0.96
	c0.919-0.717,1.975-0.22,2.88-1.2c-7.056-2.942-14.1-1.598-21.84,0.24c7.796-5.437,20.471-2.518,29.04,0.72
	c-1.67-2.81-6.786-2.175-8.64-4.8c3.601,0.032,4.588,1.426,7.439,1.92c-1.619-4.86-5.147-9.091-8.399-11.52
	c7.343,1.289,8.032,11.539,12,15.359c0.729,0.702,1.827,0.814,2.64,1.44c5.416,4.167,9.768,9.544,11.76,16.56
	c1.386,0.702,2.311,2.851,1.92,4.561c6.347-6.047-0.404-15.099-3.12-20.88c-1.468-3.126-2.735-6.038-4.318-8.641
	c-0.485-0.797-1.287-1.703-1.2-2.64c4.117,3.003,5.286,8.954,8.16,13.2c3.265,5.907,7.85,16.559,0.239,20.641
	c-0.327,2.57-2.443,4.571-2.641,6.479C108.541,78.299,114.211,63.813,108.939,52.7z M64.539,52.219
	c-0.953,0.154-0.344-1.256-1.199-1.2c-1.641,1.641-2.876,3.685-3.601,6.24c2.491-0.52,6.718-2.135,7.44,0.72
	c-2.869,1.278-6.507-0.486-7.44,3.12c1.773-0.193,1.794-1.445,3.12-1.68c3.021-0.536,4.972,1.755,4.8,4.08
	c-0.281,3.811-5.018,5.764-6.96,8.879c-1.438,2.309-2.341,4.962-1.92,6.961c4.325,0.574,9.061-2.409,11.76-5.04
	c0.108-0.989-0.858-0.901-0.96-1.681c0.473,0.071,0.477-0.324,0.721-0.479c1.022,0.257,1.171,1.389,1.439,2.399
	c3.815-0.481,7.957-0.029,10.561,2.16c1.562-5.979,4.424-10.59,3.84-17.761c-4.048-4.17-9.494-9.93-16.32-8.399
	c-0.421,0.379-0.498,1.102-1.2,1.199c-0.354-0.044-0.22-0.579-0.239-0.96c-0.813-0.092-0.377,1.063-1.44,0.721
	c-0.517-0.203,0.09-1.53-0.479-1.681C65.554,50.353,65.623,51.863,64.539,52.219z M65.26,60.62c-1.129-1.019-3.846-0.196-4.08,1.199
	c-0.615,0.377-0.673,2.214-0.24,2.881c0.458,1.382,1.816,1.863,3.36,2.159c1.271-1.004,4.068-4.836,1.199-6.239
	C65.42,60.62,65.34,60.62,65.26,60.62z M61.42,69.02c0.89,0.011,0.859-0.899,1.439-1.2c-0.284-0.275-0.848-0.271-1.439-0.239
	C61.42,68.059,61.42,68.541,61.42,69.02z M79.42,85.34c0.628-2.483,2.683-6.217,0.96-8.641c-0.33,0.011-0.527-0.113-0.721-0.24
	c-2.771,1.854-4.69,3.781-6.96,6.479c-0.062-0.498-1.055-0.064-1.2-0.479c-0.887,1.871-3.665,1.27-5.04,0.96
	c0.012,1.745-1.745,0.261-1.439,2.16c6.554,3.063,11.821-3.693,14.88-7.92c0.455,2.904-4.598,7.781-8.64,9.359
	c-1.313,0.513-3.675,0.79-4.561,0c0,0.561,0,1.12,0,1.681c2.682,1.62,4.432,0.597,7.681,0.479c0.442,1.752,0.559,4.323,2.64,5.04
	C78.533,91.95,78.515,88.919,79.42,85.34z M80.38,101.899c2.229-1.342,5.44-1.423,6-4.08c0.559-2.65-1.44-6.115-0.48-9.119
	c-1.264,0.453-0.491,3.225-1.92,4.079c-0.359,3.08-2.17,4.711-3.12,7.2c-1.18,1.062-2.6,1.88-4.08,2.641
	c-0.232,1.625-0.209,3.288,0.96,4.08C80.535,107.015,80.055,104.055,80.38,101.899z"/>
<path fill="#7A7876" d="M79.18,110.779c1.218-0.113,0.858,2.016-0.48,1.44C78.585,111.465,79.041,111.282,79.18,110.779z"/>
<path fill="#AC3051" d="M96.939,78.62c0.196-1.908,2.313-3.909,2.641-6.479c7.609-4.082,3.024-14.733-0.239-20.641
	c-2.874-4.246-4.043-10.197-8.16-13.2c-0.087,0.937,0.715,1.842,1.2,2.64c1.583,2.604,2.852,5.515,4.318,8.641
	c2.716,5.782,9.467,14.833,3.12,20.88c0.391-1.71-0.534-3.858-1.92-4.561c-1.992-7.016-6.344-12.394-11.76-16.56
	c-0.813-0.625-1.911-0.738-2.64-1.44c-3.968-3.82-4.657-14.071-12-15.359c3.252,2.429,6.78,6.659,8.399,11.52
	c-2.852-0.494-3.839-1.888-7.439-1.92c1.854,2.625,6.97,1.99,8.64,4.8c-8.569-3.237-21.244-6.156-29.04-0.72
	c7.74-1.838,14.784-3.184,21.84-0.24c-0.905,0.98-1.961,0.483-2.88,1.2c3.21,0.296,7.241-0.188,10.32,0.96
	c6.829,2.548,12.613,10.372,15.121,17.04c-2.75-0.067-3.814,0.067-5.762,0.72c-4.055-11.865-17.858-22.083-30.96-16.319
	c0.934,0.682,2.521-0.031,3.36-0.24c-1.984,3.404-6.422,7.286-4.8,12c-6.541,0.117-6.781-8.816-3.36-12.24
	c-2.051,0.52-3.597,3.625-3.36,6.72c-2.156-1.667-3.84-3.712-4.08-6.96c-0.127-1.714,0.492-3.518,0.24-5.279
	c-0.224-1.571-1.298-3.267-1.2-5.28c0.479-9.79,12.601-5.001,18.48-2.16c-0.683-1.003-2.076-1.96-3.36-2.64
	c-3.126-1.653-7.089-2.499-11.279-2.4c0.507-1.252,1.413-2.106,1.92-3.359c4.799-4.529,10.253-6.788,17.279-5.28
	c5.012,1.075,11.432,2.757,15.36,5.28c1.385,0.889,2.293,2.532,3.601,3.359c0.783,0.496,1.741,0.498,2.399,0.96
	c2.743,1.928,4.498,5.166,7.2,6.96c2.288,1.521,4.434,2.314,6,4.32c2.188,2.801,2.547,6.201,4.8,9.36
	C114.211,63.813,108.541,78.299,96.939,78.62z M71.26,40.459c-2.154-1.125-3.069-3.49-5.761-4.08
	C66.634,38.367,69.026,40.372,71.26,40.459z M71.979,41.899c-1.975-0.426-3.625-1.174-5.04-2.159
	C67.748,41.56,70.037,42.903,71.979,41.899z"/>
<path fill="#2A2321" d="M101.743,221.579c-2.69-0.589-3.605-2.955-5.761-4.08C98.216,217.587,100.608,219.592,101.743,221.579z"/>
<path fill="#2A2321" d="M100.303,218.219c-1.415-0.985-3.065-1.733-5.04-2.159C97.205,215.056,99.494,216.398,100.303,218.219z"/>
<path fill="#2A2321" d="M89.743,203.819c-1.109-1.451-3.724-1.398-4.32-3.36c3.538,0.521,6.581,1.291,12,0.96
	C95.571,204.33,92.533,203.153,89.743,203.819z"/>
<path fill="#2A2321" d="M91.183,195.659c-0.449,0.351-0.283,1.317-1.2,1.2c0.019-0.418-0.053-0.747-0.24-0.96
	c-0.692,0.106-0.566,1.032-1.199,1.2c-1.149,0.028-1.44-0.801-1.44-1.92c0.281-1.079,1.134-1.587,2.4-1.681
	c0.955,0.245,1.306,1.095,1.68,1.92C91.183,195.499,91.183,195.579,91.183,195.659z"/>
<path fill="#2A2321" d="M104.143,194.458c-0.028,0.691,0.131,1.571-0.24,1.92c-0.722,0.242-0.425-0.535-0.479-0.96
	c-0.755-0.035-0.825,0.615-0.96,1.2c-1.988-0.261-1.608-2.638-0.24-3.36c0.08,0,0.16,0,0.24,0c0.876,0.003,1.078,0.683,1.68,0.96
	C104.143,194.299,104.143,194.379,104.143,194.458z"/>
<path fill="#995A2D" d="M69.583,190.859c-3.297-5.134,5.28-17.993,10.08-12.96c1.489,4.623,0.717,10.572-3.36,13.2
	C74.309,191.355,71.793,192.015,69.583,190.859z M77.982,183.419c-0.828,1.731-1.315,3.804-3.358,4.32
	c-1.514-0.716-0.64-2.541-0.48-4.081c-1.602,0.656-1.929,3.991-0.479,5.041c-1.086,0.75-2.513,0.099-2.881,1.2
	C74.282,191.057,79.437,186.472,77.982,183.419z"/>
<path fill="#A33C46" d="M105.822,190.379c-0.592,0.031-1.155,0.036-1.439-0.239c0.58-0.301,0.55-1.21,1.439-1.2
	C105.822,189.418,105.822,189.899,105.822,190.379z"/>
<path fill="#995A2D" d="M90.223,163.738c2.081,0.717,2.197,3.288,2.64,5.04c3.249-0.116,4.999-1.141,7.681,0.479
	c0,0.561,0,1.12,0,1.681c-0.885-0.79-3.248-0.513-4.561,0c-4.042,1.578-9.095,6.455-8.64,9.359c3.059-4.227,8.326-10.981,14.88-7.92
	c0.306,1.899-1.451,0.415-1.44,2.16c-1.375-0.31-4.152-0.911-5.039,0.96c-0.146-0.415-1.139,0.019-1.2-0.479
	c-2.27,2.698-4.188,4.626-6.96,6.479c-0.193-0.127-0.391-0.251-0.721-0.24c-1.723-2.424,0.332-6.156,0.96-8.641
	C88.728,169.039,88.709,166.009,90.223,163.738z"/>
<path fill="#995A2D" d="M89.503,151.259c1.169,0.792,1.192,2.455,0.96,4.08c-1.48,0.761-2.9,1.579-4.08,2.641
	c-0.95,2.489-2.761,4.12-3.12,7.2c-1.429,0.854-0.656,3.626-1.92,4.079c0.96-3.004-1.039-6.469-0.48-9.119
	c0.561-2.657,3.771-2.738,6-4.08C87.188,153.903,86.707,150.943,89.503,151.259z"/>
<path fill="#2A2321" d="M89.263,147.18c-0.477,0.162-0.549,0.729-0.96,0.96c-0.744,0.023-1.146-0.294-1.68-0.48
	c0.174-0.733-0.414-0.706-0.24-1.439c0.647-0.712,0.927-1.793,2.399-1.681c0.08,0,0.16,0,0.24,0c0.341,0.707,0.726,1.516,0.24,2.4
	C89.263,147.02,89.263,147.1,89.263,147.18z M88.543,145.738c-1.339-0.574-1.698,1.555-0.48,1.439
	C88.201,146.677,88.657,146.493,88.543,145.738z"/>
<path fill="#2A2321" d="M65.022,141.419c-0.407,1.272-0.67,2.689-1.92,3.119c-0.732-1.521,1.354-2.116,0.96-4.08
	c0-0.079,0-0.159,0-0.239c0.458-1.142,0.51-2.689,0.48-4.319c0.031-0.447,0.156-0.802,0.479-0.96c1.012,0.028,0.238,1.842,0.48,2.64
	C65.374,138.891,65.151,140.107,65.022,141.419z"/>
<path fill="#7A7876" d="M92.383,143.818c0.002-0.638-0.091-1.37,0.24-1.68c0.726,0.362-0.199,1.053,0,1.68
	C92.543,143.818,92.463,143.818,92.383,143.818z"/>
<path fill="#2A2321" d="M107.503,141.18c-0.229,0.172-0.198,1.394-1.2,1.438c-0.013-0.307-0.308-0.332-0.24-0.72
	c0.939-2.196,0.87-3.971,1.2-6.479c0.549-0.411,0.088-1.832,0.24-2.641c-0.044-0.204,0.093-0.228,0.24-0.24
	c1.035,0.165,0.221,2.18,0.479,3.12C108.018,137.533,107.865,139.462,107.503,141.18z"/>
<path fill="#2A2321" d="M89.982,137.818c1.167,0.713,0.747,3.02-0.479,3.359c-2.242-0.078-1.357-3,0-3.359
	C89.663,137.818,89.822,137.818,89.982,137.818z M89.743,138.778c-0.742-0.022-0.716,0.725-0.721,1.439c0.24,0,0.48,0,0.721,0
	C89.743,139.738,89.743,139.259,89.743,138.778z"/>
<path fill="#7A7876" d="M89.743,140.219c-0.24,0-0.48,0-0.721,0c0.005-0.716-0.021-1.463,0.721-1.439
	C89.743,139.259,89.743,139.738,89.743,140.219z"/>
<path fill="#7A7876" d="M107.263,135.419c0.152-0.809-0.309-2.229,0.24-2.641C107.351,133.587,107.812,135.008,107.263,135.419z"/>
<path fill="#7A7876" d="M48.702,133.498c-0.398-0.049-0.965-1.781,0-1.68c0.267,0.454,0.307,1.134,0.479,1.68
	c-0.188-0.053-0.279-0.2-0.24-0.479C48.756,133.071,48.663,133.221,48.702,133.498z"/>
<path fill="#7A7876" d="M53.982,144.538c-0.899-0.779-1.339-2.021-1.68-3.358C52.919,142.241,53.396,143.445,53.982,144.538z"/>
<path fill="#7A7876" d="M76.063,156.778c-0.916-0.685-1.597-1.604-2.64-2.16C74.838,154.805,75.236,156.005,76.063,156.778z"/>
<path fill="#7A7876" d="M81.822,152.219c-1.301,1.18-2.738,2.221-4.079,3.359c0.893-1.508,2.609-2.188,3.841-3.359
	C81.663,152.219,81.742,152.219,81.822,152.219z"/>
<path fill="#7A7876" d="M83.022,152.698c-0.01-0.33,0.113-0.526,0.24-0.72c-0.099-0.409-0.31,0.051-0.72,0
	c0.691-0.429,1.281-0.958,2.398-0.96c-0.01,1.109-1.515,0.725-1.68,1.68C83.183,152.698,83.103,152.698,83.022,152.698z"/>
<path fill="#7A7876" d="M82.782,152.698c-2.009,1.671-4.327,3.031-5.278,5.761c-0.729-1.055,1.081-2.251,1.92-3.12
	C80.435,154.289,81.5,152.996,82.782,152.698z"/>
<path fill="#7A7876" d="M79.183,163.738c-0.775-0.585-0.873-1.847-0.96-3.12C78.708,161.493,78.648,162.912,79.183,163.738z"/>
<path fill="#BDB2B1" d="M80.862,157.979c-2.084,1.376-0.102,3.944-0.96,6.479c-0.346-0.135-0.585-0.375-0.72-0.721
	c-0.534-0.826-0.475-2.245-0.96-3.12c-0.191-0.768-0.709-1.211-0.72-2.159c0.951-2.729,3.271-4.09,5.278-5.761c0.08,0,0.16,0,0.24,0
	s0.16,0,0.24,0c0.165-0.955,1.67-0.569,1.68-1.68c-1.117,0.002-1.707,0.531-2.398,0.96c-0.309,0.014-0.333,0.308-0.722,0.239
	c-0.079,0-0.158,0-0.238,0c-1.23,1.171-2.948,1.853-3.841,3.359c-0.729,0.23-0.485,1.436-1.681,1.2
	c-0.826-0.773-1.225-1.976-2.64-2.16c-3.451-0.984-7.2-3.69-11.28-4.8c-4.047-1.101-7.007-1.813-8.16-5.28
	c-0.587-1.093-1.063-2.297-1.68-3.359c-0.925-2.152-2.297-4.765-3.12-7.681c-0.174-0.546-0.214-1.226-0.479-1.68
	c22.319,0,44.641,0,66.96,0c-0.448,3.313-0.883,6.638-2.4,8.88c-0.756,0.524-0.747,1.813-1.44,2.4c0,0.079,0,0.159,0,0.239
	c-0.779,0.659-1.334,1.546-2.159,2.159c-3.708,1.733-7.616,3.264-12,4.32c-2.982,0.458-3.917,2.963-5.04,5.28
	c-1.689,0.048-0.572-1.008-0.721-1.921c0.931-1.536-1.571-2.574-1.439-3.359c1.036-2.061,1.167-4.053,1.92-6c0.08,0,0.16,0,0.24,0
	c-0.199-0.627,0.726-1.316,0-1.681c0-0.079,0-0.159,0-0.239c0.457-0.865,0.388-3.262-0.24-3.84c-0.851-2.029-1.128-1.131-0.96,0.479
	c0.145,1.505-0.183,2.539-0.24,3.841c0.086,1.205-0.146,2.092-0.479,2.88c-0.527,0.833-0.643,2.078-0.96,3.12
	c-0.198,1.962-2.096,2.226-3.601,2.88c-0.194,0.045-0.239,0.24-0.479,0.239c0,1.12,0,2.24,0,3.36c0,0.16,0,0.319,0,0.479
	c-0.756,0.364-1.44,0.8-2.4,0.96C82.126,156.521,81.601,157.356,80.862,157.979z M86.623,147.658c0.423,1.126,2.632,0.81,2.64-0.479
	c0-0.08,0-0.16,0-0.24c0.861-0.482,0.432-2.073-0.24-2.4c-0.08,0-0.16,0-0.24,0c-0.974-0.563-2.324,0.549-2.399,1.682
	C86.209,146.952,86.797,146.925,86.623,147.658z M63.103,144.538c1.25-0.43,1.513-1.847,1.92-3.119
	c0.45-0.836,0.827-3.005,0.48-3.841c-0.242-0.798,0.529-2.61-0.48-2.64c-0.321,0.158-0.446,0.513-0.479,0.96
	c-0.381,1.22-0.353,2.849-0.48,4.319c0,0.08,0,0.16,0,0.239C64.104,141.977,61.932,143.445,63.103,144.538z M106.063,141.898
	c-0.08,0-0.16,0-0.24,0c-0.013,2.174,2.37-0.093,1.681-0.721c0.362-1.717,0.515-3.646,0.72-5.521c0.42-0.516,0.534-4.039-0.479-3.12
	c-0.146,0.014-0.284,0.036-0.24,0.24c-0.549,0.411-0.088,1.832-0.24,2.641C106.932,137.93,107.002,139.702,106.063,141.898z
	 M89.503,137.818c-1.1-0.283-2.627,2.787-0.721,3.601c1.771,0.089,2.21-1.15,2.16-2.881c-0.489-0.07-0.471-0.648-0.96-0.72
	C89.822,137.818,89.663,137.818,89.503,137.818z"/>
<path fill="#7A7876" d="M83.263,156.299c-0.873,0.486-1.461,1.26-2.4,1.681C81.601,157.356,82.126,156.521,83.263,156.299z"/>
<path fill="#7A7876" d="M85.663,154.858c0-1.12,0-2.24,0-3.36c0.24,0.001,0.285-0.193,0.479-0.239
	c-0.491,0.788-0.129,2.431-0.24,3.601C85.822,154.858,85.743,154.858,85.663,154.858z"/>
<path fill="#7A7876" d="M89.743,148.379c0.317-1.042,0.433-2.287,0.96-3.12C90.531,146.447,90.332,147.608,89.743,148.379z"/>
<path fill="#7A7876" d="M91.183,142.379c0.06-1.302,0.385-2.336,0.24-3.841C91.979,139.504,91.606,141.598,91.183,142.379z"/>
<path fill="#7A7876" d="M92.623,141.898c0.021-1.381,0.052-2.771-0.24-3.84C93.011,138.639,93.08,141.033,92.623,141.898z"/>
<path fill="#7A7876" d="M90.463,149.818c-0.132,0.785,2.37,1.823,1.439,3.359C92.335,151.251,90.041,150.957,90.463,149.818z"/>
<path fill="#7A7876" d="M92.623,155.1c1.123-2.317,2.058-4.822,5.04-5.28c-1.117,0.991-2.476,0.969-3.36,2.16
	C93.577,152.955,94.051,154.622,92.623,155.1z"/>
<path fill="#7A7876" d="M111.822,143.339c-0.561,0.879-1.102,1.778-2.159,2.159C110.488,144.885,111.043,143.998,111.822,143.339z"
	/>
<path fill="#7A7876" d="M113.263,140.698c-0.421,0.858-0.551,2.01-1.44,2.4C112.516,142.513,112.507,141.224,113.263,140.698z"/>
<path fill="#995A2D" d="M100.782,208.14c-0.569-0.15,0.037-1.478-0.479-1.681c-1.063-0.343-0.628,0.813-1.44,0.721
	c-0.02-0.381,0.115-0.916-0.239-0.961c-0.702,0.099-0.779,0.821-1.2,1.2c-6.826,1.53-12.272-4.229-16.32-8.399
	c-0.584-7.171,2.278-11.782,3.84-17.761c2.604,2.189,6.745,2.643,10.561,2.16c0.27,1.012,0.417,2.144,1.439,2.399
	c0.244-0.155,0.248-0.552,0.721-0.479c-0.102-0.778-1.068-0.69-0.96-1.681c2.7-2.631,7.435-5.614,11.76-5.04
	c0.42,1.999-0.481,4.652-1.92,6.961c-1.942,3.116-6.679,5.069-6.96,8.879c-0.172,2.325,1.78,4.616,4.8,4.08
	c1.326-0.235,1.347-1.485,3.12-1.68c-0.935,3.605-4.571,1.841-7.44,3.12c0.724,2.854,4.95,1.239,7.44,0.72
	c-0.725,2.557-1.96,4.6-3.601,6.24c-0.855,0.056-0.246-1.354-1.199-1.2C101.619,206.096,101.688,207.605,100.782,208.14z
	 M97.423,201.419c-5.419,0.331-8.462-0.438-12-0.96c0.597,1.962,3.21,1.909,4.32,3.36C92.533,203.153,95.571,204.33,97.423,201.419z
	 M95.503,192.299c-2.346-7.101-13.944-1.717-10.08,5.04c0.733,1.284,1.974,1.453,3.6,2.641
	C93.107,200.295,97.11,197.169,95.503,192.299z"/>
<path fill="#7A7876" d="M94.063,197.339c-1.191,2-4.815,2.213-6.479,0.48C89.665,199.158,92.467,199.004,94.063,197.339z"/>
<path fill="#7A7876" d="M86.862,191.819c1.86-3.283,8.978-1.396,7.92,2.88C95.47,191.025,89.396,188.896,86.862,191.819z"/>
<path fill="#7A7876" d="M86.383,196.14c-0.661-0.567-0.661-2.554,0-3.12C86.093,194.037,86.093,195.121,86.383,196.14z"/>
<path fill="#BDB2B1" d="M87.583,197.819c-0.661-0.299-1.164-0.756-1.2-1.68c-0.291-1.019-0.291-2.103,0-3.12
	c-0.206-0.767,0.377-0.742,0.479-1.2c2.534-2.923,8.607-0.794,7.92,2.88c0.188,1.307-0.368,1.872-0.72,2.64
	C92.467,199.004,89.665,199.158,87.583,197.819z M87.103,195.18c-0.598,1.007,0.35,2.524,1.92,2.159
	c0.033-0.446,0.158-0.802,0.48-0.96c0.494,0.066,0.226,0.895,0.72,0.96c0.295-0.438,1.456-1.246,0.96-1.68c0-0.08,0-0.16,0-0.24
	c0.396-0.491-1.091-2.414-1.68-1.92C88.236,193.593,87.384,194.101,87.103,195.18z"/>
<path fill="#7A7876" d="M106.063,196.14c-0.234,1.396-2.95,2.218-4.08,1.199c1.402,0.5,3.473,0.082,3.84-1.199
	C105.902,196.14,105.982,196.14,106.063,196.14z"/>
<path fill="#BDB2B1" d="M106.303,193.259c0.433,0.667,0.375,2.504-0.24,2.881c-0.08,0-0.16,0-0.24,0
	c-0.367,1.281-2.438,1.699-3.84,1.199c-0.08,0-0.16,0-0.24,0c-0.235-0.324-0.64-0.479-0.96-0.72c1.238-0.21,4.292,0.737,3.36-2.16
	c0-0.08,0-0.16,0-0.24c0.521-0.306-1.348-1.507-1.68-0.96c-0.08,0-0.16,0-0.24,0c-0.208-0.709-0.359,0.558-0.96,0.24
	c0.443-0.837,1.232-1.328,1.68-2.16C104.467,191.575,105.516,192.286,106.303,193.259z"/>
<path fill="#7A7876" d="M106.303,193.259c-0.787-0.973-1.836-1.684-3.36-1.92c-0.447,0.832-1.236,1.323-1.68,2.16
	c0.601,0.317,0.751-0.949,0.96-0.24c-1.368,0.723-1.748,3.1,0.24,3.36c0.135-0.584,0.205-1.234,0.96-1.2
	c0.055,0.425-0.242,1.202,0.479,0.96c0.371-0.349,0.211-1.229,0.24-1.92c0.932,2.897-2.122,1.95-3.36,2.16
	c0.32,0.24,0.725,0.396,0.961,0.72c-2.869-1.403-0.072-5.235,1.199-6.239C104.486,191.396,105.845,191.877,106.303,193.259z"/>
<path fill="#7A7876" d="M104.143,194.219c-0.602-0.277-0.804-0.956-1.68-0.96C102.795,192.711,104.664,193.913,104.143,194.219z"/>
<path fill="#7A7876" d="M91.183,195.419c-0.375-0.826-0.725-1.675-1.68-1.92C90.092,193.005,91.578,194.928,91.183,195.419z"/>
<path fill="#7A7876" d="M91.183,195.659c0.496,0.434-0.665,1.242-0.96,1.68c-0.494-0.065-0.226-0.894-0.72-0.96
	c-0.322,0.158-0.447,0.514-0.48,0.96c-1.57,0.365-2.518-1.152-1.92-2.159c0,1.119,0.291,1.948,1.44,1.92
	c0.633-0.167,0.507-1.094,1.2-1.2c0.187,0.213,0.258,0.542,0.239,0.96C90.899,196.977,90.733,196.01,91.183,195.659z"/>
<path fill="#7A7876" d="M89.263,147.18c-0.008,1.288-2.217,1.604-2.64,0.479c0.533,0.187,0.936,0.505,1.68,0.48
	C88.714,147.909,88.786,147.342,89.263,147.18z"/>
<path fill="#7A7876" d="M89.263,146.938c0.485-0.887,0.101-1.693-0.24-2.4C89.694,144.865,90.124,146.456,89.263,146.938z"/>
<path fill="#7A7876" d="M88.782,144.538c-1.473-0.112-1.751,0.969-2.399,1.681C86.458,145.087,87.809,143.975,88.782,144.538z"/>
<path fill="#7A7876" d="M65.022,141.419c0.129-1.312,0.353-2.528,0.48-3.841C65.85,138.414,65.473,140.583,65.022,141.419z"/>
<path fill="#7A7876" d="M64.063,140.219c0.129-1.472,0.101-3.101,0.48-4.319C64.572,137.528,64.521,139.077,64.063,140.219z"/>
<path fill="#7A7876" d="M63.103,144.538c-1.171-1.093,1.001-2.563,0.96-4.08C64.455,142.422,62.369,143.017,63.103,144.538z"/>
<path fill="#7A7876" d="M107.503,141.18c0.689,0.627-1.693,2.894-1.681,0.72c0.08,0,0.16,0,0.24,0
	c-0.066,0.388,0.228,0.413,0.24,0.72C107.305,142.572,107.273,141.352,107.503,141.18z"/>
<path fill="#7A7876" d="M108.223,135.658c-0.259-0.94,0.556-2.955-0.479-3.12C108.757,131.619,108.643,135.144,108.223,135.658z"/>
<path fill="#7A7876" d="M89.982,137.818c0.49,0.07,0.472,0.648,0.96,0.72c0.05,1.729-0.391,2.97-2.16,2.881
	c-1.906-0.813-0.379-3.884,0.721-3.601c-1.357,0.359-2.242,3.281,0,3.359C90.729,140.838,91.149,138.531,89.982,137.818z"/>
<path fill="#2A2321" d="M89.022,199.979c-1.626-1.188-2.866-1.356-3.6-2.641c-3.864-6.757,7.734-12.141,10.08-5.04
	C97.11,197.169,93.107,200.295,89.022,199.979z M87.583,197.819c1.664,1.732,5.288,1.52,6.479-0.48
	c0.353-0.769,0.907-1.333,0.72-2.64c1.058-4.275-6.06-6.163-7.92-2.88c-0.103,0.458-0.686,0.434-0.479,1.2
	c-0.661,0.566-0.661,2.553,0,3.12C86.419,197.063,86.922,197.521,87.583,197.819z"/>
<path fill="#2A2321" d="M70.782,189.899c0.368-1.102,1.795-0.451,2.881-1.2c-1.448-1.05-1.121-4.384,0.479-5.041
	c-0.158,1.54-1.032,3.364,0.48,4.081c2.043-0.517,2.53-2.588,3.358-4.32C79.437,186.472,74.282,191.057,70.782,189.899z"/>
<path fill="#2A2321" d="M115.663,131.818c0.239,0,0.479,0,0.72,0c-0.48,10.64-5.835,16.405-15.601,17.76
	c-2.324,1.493-6.755,1.967-6.479,5.28c2.578,1.562,6.102,2.839,6.24,5.521c0.135,2.606-3.172,6.99,0.96,8.641
	c0.174,0.733-0.414,0.706-0.24,1.439c1.487,0.592,1.706,2.453,3.6,2.641c0.601,1.08,0.853,2.508,0.721,4.319
	c2.292-0.426,3.336,0.298,4.319,1.681c0.076,3.756-1.72,5.641-3.12,7.92c0.02,3.496,0.075,4.564,0.721,8.16
	c0.575,0.287,1.323,0.214,2.399,0c1.381,0.778,2.783,1.536,4.08,2.399c1.763,3.844,6.686,6.339,6.96,11.76
	c0.066,1.307-0.548,2.405-0.479,3.36c0.134,1.898,1.502,3.769,1.439,6.48c-0.062,2.711-1.284,5.239-3.359,6.72
	c-2.859,7.754-11.363,13.182-22.08,10.56c-6.631-1.622-14.552-3.66-18-8.399c-2.688-0.434-3.685-2.558-5.761-3.601
	c-1.686-3.577-5.891-4.444-8.881-7.2c-2.522-2.325-3.816-6.066-5.52-9.6c-2.196-4.556-3.688-8.901-3.12-14.64
	c0.694-7.021,5.626-12.209,12.24-14.4c1.326,0.047,1.897-0.661,3.358-0.479c3.031,0.726,4.773-3.709,8.16-1.92
	c1.962-2.56,1.335-6.643,1.44-10.32c-0.498-0.942-1.853-1.028-2.4-1.92c-0.534-7.403-5.829-9.5-12-11.76
	c-3.01-1.104-6.629-1.588-8.88-2.881c-5.587-3.211-6.091-9.887-8.399-15.841c-0.039-0.277,0.054-0.427,0.239-0.479
	c-0.039,0.278,0.054,0.427,0.24,0.479c0.823,2.916,2.195,5.527,3.12,7.682c0.341,1.338,0.779,2.579,1.68,3.358
	c1.153,3.468,4.113,4.182,8.16,5.28c4.08,1.109,7.829,3.814,11.28,4.8c1.043,0.558,1.724,1.478,2.64,2.16
	c1.194,0.234,0.95-0.97,1.68-1.2c1.342-1.14,2.779-2.181,4.08-3.358c0.389,0.066,0.413-0.228,0.722-0.24
	c0.41,0.051,0.621-0.409,0.72,0c-0.127,0.192-0.25,0.39-0.24,0.72c-0.08,0-0.16,0-0.24,0c-1.281,0.298-2.348,1.591-3.358,2.641
	c-0.839,0.869-2.649,2.065-1.92,3.12c0.011,0.948,0.527,1.393,0.72,2.159c0.087,1.273,0.185,2.535,0.96,3.12
	c0.135,0.346,0.374,0.586,0.72,0.721c0.858-2.535-1.124-5.104,0.96-6.479c0.939-0.421,1.527-1.193,2.4-1.681
	c0.96-0.159,1.645-0.596,2.4-0.96c0-0.159,0-0.319,0-0.479c0.079,0,0.159,0,0.239,0c0.11-1.17-0.251-2.813,0.24-3.6
	c1.505-0.655,3.402-0.919,3.6-2.881c0.59-0.771,0.789-1.932,0.961-3.119c0.333-0.788,0.565-1.676,0.479-2.881
	c0.424-0.781,0.797-2.875,0.24-3.841c-0.168-1.608,0.109-2.509,0.96-0.479c0.292,1.067,0.261,2.459,0.24,3.84c0,0.08,0,0.16,0,0.24
	c-0.331,0.31-0.237,1.042-0.24,1.68c-0.753,1.947-0.884,3.94-1.92,6c-0.422,1.139,1.872,1.433,1.439,3.36
	c0.147,0.913-0.969,1.968,0.721,1.92c1.428-0.478,0.955-2.145,1.68-3.12c0.885-1.191,2.243-1.169,3.36-2.16
	c4.384-1.057,8.292-2.587,12-4.32c1.059-0.381,1.599-1.279,2.159-2.159c0-0.079,0-0.159,0-0.239c0.89-0.392,1.02-1.542,1.44-2.4
	C114.78,138.456,115.215,135.131,115.663,131.818z M76.303,191.1c4.077-2.628,4.851-8.577,3.36-13.2
	c-4.8-5.032-13.377,7.826-10.08,12.96C71.793,192.015,74.309,191.355,76.303,191.1z M58.303,205.259
	c2.253,3.159,2.612,6.56,4.8,9.36c1.566,2.006,3.712,2.801,6,4.32c2.702,1.794,4.457,5.032,7.2,6.96
	c0.658,0.462,1.616,0.464,2.399,0.96c1.308,0.827,2.216,2.471,3.601,3.359c3.929,2.523,10.349,4.205,15.36,5.28
	c7.026,1.507,12.48-0.751,17.279-5.28c0.507-1.252,1.413-2.106,1.92-3.359c-4.19,0.099-8.153-0.747-11.279-2.4
	c-1.284-0.68-2.678-1.637-3.36-2.64c5.88,2.841,18,7.63,18.48-2.16c0.099-2.014-0.977-3.709-1.2-5.28
	c-0.252-1.763,0.367-3.565,0.24-5.279c-0.24-3.248-1.924-5.292-4.08-6.96c0.236,3.096-1.31,6.201-3.36,6.72
	c3.421-3.424,3.181-12.357-3.36-12.24c1.622,4.714-2.815,8.596-4.8,12c0.839-0.209,2.427-0.922,3.36-0.24
	c-13.102,5.763-26.905-4.454-30.96-16.319c-1.946,0.652-3.012,0.788-5.762,0.72c2.508,6.668,8.292,14.492,15.121,17.04
	c3.079,1.148,7.11,0.664,10.32,0.96c-0.919,0.717-1.975,0.22-2.88,1.2c7.056,2.942,14.1,1.598,21.84-0.24
	c-7.796,5.437-20.471,2.518-29.04-0.72c1.67,2.81,6.786,2.175,8.64,4.8c-3.601-0.032-4.588-1.426-7.439-1.92
	c1.619,4.86,5.147,9.091,8.399,11.52c-7.343-1.289-8.032-11.539-12-15.359c-0.729-0.702-1.827-0.814-2.64-1.44
	c-5.416-4.167-9.768-9.544-11.76-16.56c-1.386-0.702-2.311-2.851-1.92-4.561c-6.347,6.047,0.404,15.099,3.12,20.88
	c1.468,3.126,2.735,6.038,4.318,8.641c0.485,0.797,1.287,1.703,1.2,2.64c-4.117-3.003-5.286-8.954-8.16-13.2
	c-3.265-5.907-7.85-16.559-0.239-20.641c0.327-2.57,2.443-4.571,2.641-6.479C58.701,179.659,53.031,194.146,58.303,205.259z
	 M102.703,205.739c0.953-0.154,0.344,1.256,1.199,1.2c1.641-1.641,2.876-3.685,3.601-6.24c-2.491,0.52-6.718,2.135-7.44-0.72
	c2.869-1.278,6.507,0.486,7.44-3.12c-1.773,0.193-1.794,1.445-3.12,1.68c-3.021,0.536-4.972-1.755-4.8-4.08
	c0.281-3.811,5.018-5.764,6.96-8.879c1.438-2.309,2.341-4.962,1.92-6.961c-4.325-0.574-9.061,2.409-11.76,5.04
	c-0.108,0.989,0.858,0.901,0.96,1.681c-0.473-0.071-0.477,0.324-0.721,0.479c-1.022-0.257-1.171-1.389-1.439-2.399
	c-3.815,0.481-7.957,0.029-10.561-2.16c-1.562,5.979-4.424,10.59-3.84,17.761c4.048,4.17,9.494,9.93,16.32,8.399
	c0.421-0.379,0.498-1.102,1.2-1.199c0.354,0.044,0.22,0.579,0.239,0.96c0.813,0.092,0.377-1.063,1.44-0.721
	c0.517,0.203-0.09,1.53,0.479,1.681C101.688,207.605,101.619,206.096,102.703,205.739z M101.982,197.339
	c1.129,1.019,3.846,0.196,4.08-1.199c0.615-0.377,0.673-2.214,0.24-2.881c-0.458-1.382-1.816-1.863-3.36-2.159
	c-1.271,1.004-4.068,4.836-1.199,6.239C101.822,197.339,101.902,197.339,101.982,197.339z M105.822,188.938
	c-0.89-0.011-0.859,0.899-1.439,1.2c0.284,0.275,0.848,0.271,1.439,0.239C105.822,189.899,105.822,189.418,105.822,188.938z
	 M87.822,172.618c-0.628,2.483-2.683,6.217-0.96,8.641c0.33-0.011,0.527,0.113,0.721,0.24c2.771-1.854,4.69-3.781,6.96-6.479
	c0.062,0.498,1.055,0.064,1.2,0.479c0.887-1.871,3.665-1.27,5.04-0.96c-0.012-1.745,1.745-0.261,1.439-2.16
	c-6.554-3.063-11.821,3.693-14.88,7.92c-0.455-2.904,4.598-7.781,8.64-9.359c1.313-0.513,3.675-0.79,4.561,0c0-0.561,0-1.12,0-1.681
	c-2.682-1.62-4.432-0.597-7.681-0.479c-0.442-1.752-0.559-4.323-2.64-5.04C88.709,166.009,88.728,169.039,87.822,172.618z
	 M86.862,156.06c-2.229,1.342-5.44,1.423-6,4.08c-0.559,2.65,1.44,6.115,0.48,9.119c1.264-0.453,0.491-3.225,1.92-4.079
	c0.359-3.08,2.17-4.711,3.12-7.2c1.18-1.062,2.6-1.88,4.08-2.641c0.232-1.625,0.209-3.288-0.96-4.08
	C86.707,150.943,87.188,153.903,86.862,156.06z"/>
<path fill="#7A7876" d="M88.063,147.18c-1.218,0.113-0.858-2.016,0.48-1.44C88.657,146.493,88.201,146.677,88.063,147.18z"/>
<path fill="#AC3051" d="M70.303,179.339c-0.196,1.908-2.313,3.909-2.641,6.479c-7.609,4.082-3.024,14.733,0.239,20.641
	c2.874,4.246,4.043,10.197,8.16,13.2c0.087-0.937-0.715-1.842-1.2-2.64c-1.583-2.604-2.852-5.515-4.318-8.641
	c-2.716-5.782-9.467-14.833-3.12-20.88c-0.391,1.71,0.534,3.858,1.92,4.561c1.992,7.016,6.344,12.394,11.76,16.56
	c0.813,0.625,1.911,0.738,2.64,1.44c3.968,3.82,4.657,14.071,12,15.359c-3.252-2.429-6.78-6.659-8.399-11.52
	c2.852,0.494,3.839,1.888,7.439,1.92c-1.854-2.625-6.97-1.99-8.64-4.8c8.569,3.237,21.244,6.156,29.04,0.72
	c-7.74,1.838-14.784,3.184-21.84,0.24c0.905-0.98,1.961-0.483,2.88-1.2c-3.21-0.296-7.241,0.188-10.32-0.96
	c-6.829-2.548-12.613-10.372-15.121-17.04c2.75,0.067,3.814-0.067,5.762-0.72c4.055,11.865,17.858,22.083,30.96,16.319
	c-0.934-0.682-2.521,0.031-3.36,0.24c1.984-3.404,6.422-7.286,4.8-12c6.541-0.117,6.781,8.816,3.36,12.24
	c2.051-0.52,3.597-3.625,3.36-6.72c2.156,1.667,3.84,3.712,4.08,6.96c0.127,1.714-0.492,3.518-0.24,5.279
	c0.224,1.571,1.298,3.267,1.2,5.28c-0.479,9.79-12.601,5.001-18.48,2.16c0.683,1.003,2.076,1.96,3.36,2.64
	c3.126,1.653,7.089,2.499,11.279,2.4c-0.507,1.252-1.413,2.106-1.92,3.359c-4.799,4.529-10.253,6.788-17.279,5.28
	c-5.012-1.075-11.432-2.757-15.36-5.28c-1.385-0.889-2.293-2.532-3.601-3.359c-0.783-0.496-1.741-0.498-2.399-0.96
	c-2.743-1.928-4.498-5.166-7.2-6.96c-2.288-1.521-4.434-2.314-6-4.32c-2.188-2.801-2.547-6.201-4.8-9.36
	C53.031,194.146,58.701,179.659,70.303,179.339z M95.982,217.499c2.154,1.125,3.069,3.49,5.761,4.08
	C100.608,219.592,98.216,217.587,95.982,217.499z M95.263,216.06c1.975,0.426,3.625,1.174,5.04,2.159
	C99.494,216.398,97.205,215.056,95.263,216.06z"/>
<use xlink:href="#Rand"  width="156.49" height="248.039" x="5.377" y="-252.996" transform="matrix(1 0 0 -1 0.002 0.0029)" overflow="visible"/>
</svg>
