<?xml version="1.0" encoding="utf-8"?>
<!-- Generator: Adobe Illustrator 15.1.0, SVG Export Plug-In  -->
<!DOCTYPE svg PUBLIC "-//W3C//DTD SVG 1.1//EN" "http://www.w3.org/Graphics/SVG/1.1/DTD/svg11.dtd" [
	<!ENTITY ns_flows "http://ns.adobe.com/Flows/1.0/">
]>
<svg version="1.1"
	 xmlns="http://www.w3.org/2000/svg" xmlns:xlink="http://www.w3.org/1999/xlink" xmlns:a="http://ns.adobe.com/AdobeSVGViewerExtensions/3.0/"
	 x="0px" y="0px" width="167px" height="258px" viewBox="0.002 0.003 167 258" enable-background="new 0.002 0.003 167 258"
	 xml:space="preserve">
<defs>
	<symbol  id="IN" viewBox="-42.52 -42.519 85.038 85.038">
		<path fill="none" d="M0,42.52c-0.007,0-0.013,0-0.02,0H0.02C0.013,42.519,0.007,42.52,0,42.52z"/>
		<path fill="#FF9933" d="M0.02,42.519H-0.02c-18.504-0.008-34.235-11.839-40.071-28.346H40.09
			C34.253,30.68,18.521,42.511,0.02,42.519z"/>
		<path fill="#FFFFFF" d="M42.519,0c0,4.971-0.861,9.739-2.429,14.173h-80.181C-41.658,9.739-42.52,4.971-42.52,0
			s0.861-9.739,2.429-14.173H40.09C41.657-9.739,42.519-4.971,42.519,0z"/>
		<path fill="#138808" d="M40.09-14.173h-80.181C-34.253-30.686-18.512-42.519,0-42.519C18.511-42.519,34.251-30.686,40.09-14.173z"
			/>
		<g>
			<path fill="#000088" d="M0,13.89c-7.671,0-13.89-6.218-13.89-13.89c0-7.671,6.219-13.89,13.89-13.89S13.89-7.671,13.89,0
				C13.89,7.671,7.671,13.89,0,13.89z"/>
			<path fill="#FFFFFF" d="M0,12.154c-6.712,0-12.153-5.441-12.153-12.154c0-6.712,5.441-12.153,12.153-12.153
				S12.153-6.712,12.153,0C12.153,6.712,6.712,12.154,0,12.154z"/>
			<path fill="#000088" d="M0,2.431c1.343,0,2.431-1.088,2.431-2.431c0-1.342-1.088-2.431-2.431-2.431S-2.431-1.342-2.431,0
				C-2.431,1.343-1.343,2.431,0,2.431z"/>
			<g>
				<g>
					<g id="b_36_">
						<g id="a_72_">
							<path fill="#000088" d="M12.129-0.984c0.333-0.043,0.567-0.349,0.523-0.682c-0.044-0.333-0.35-0.567-0.682-0.523
								c-0.333,0.043-0.567,0.349-0.523,0.682C11.491-1.174,11.796-0.94,12.129-0.984z"/>
							<path fill="#000088" d="M0-12.153l0.417,7.292L0-1.389l-0.417-3.473L0-12.153z"/>
						</g>
						<g transform="rotate(15)">
							<g id="a_47_">
								<path fill="#000088" d="M11.461-4.089c0.311-0.128,0.457-0.484,0.329-0.794c-0.129-0.31-0.484-0.458-0.794-0.329
									c-0.311,0.128-0.457,0.484-0.329,0.794C10.796-4.108,11.151-3.961,11.461-4.089z"/>
								<path fill="#000088" d="M-3.146-11.739l2.29,6.936l0.496,3.462l-1.302-3.247L-3.146-11.739z"/>
							</g>
						</g>
					</g>
					<g id="c_18_">
						<g id="b_23_">
							<g id="a_46_">
								<path fill="#000088" d="M10.012-6.917c0.267-0.204,0.316-0.585,0.112-0.852C9.92-8.035,9.538-8.085,9.272-7.88
									C9.006-7.676,8.956-7.295,9.16-7.028C9.364-6.762,9.746-6.712,10.012-6.917z"/>
								<path fill="#000088" d="M-6.077-10.525l4.008,6.107l1.375,3.216l-2.098-2.799L-6.077-10.525z"/>
							</g>
							<g transform="rotate(30)">
								<g id="a_45_">
									<path fill="#000088" d="M7.881-9.272c0.204-0.266,0.154-0.648-0.112-0.852s-0.647-0.154-0.852,0.112
										C6.712-9.746,6.763-9.364,7.028-9.16C7.295-8.956,7.677-9.006,7.881-9.272z"/>
									<path fill="#000088" d="M-8.594-8.594l5.451,4.862l2.16,2.75l-2.75-2.161L-8.594-8.594z"/>
								</g>
							</g>
						</g>
					</g>
					<g>
						<g id="d_9_">
							<g id="b_22_">
								<g id="a_44_">
									<path fill="#000088" d="M5.212-10.996c0.129-0.31-0.019-0.666-0.328-0.794c-0.311-0.128-0.666,0.019-0.794,0.329
										c-0.129,0.31,0.019,0.666,0.329,0.794C4.729-10.539,5.084-10.686,5.212-10.996z"/>
									<path fill="#000088" d="M-10.525-6.077l6.523,3.285l2.799,2.097L-4.418-2.07L-10.525-6.077z"/>
								</g>
								<g transform="rotate(15)">
									<g id="a_43_">
										<path fill="#000088" d="M2.188-11.97c0.044-0.333-0.19-0.638-0.522-0.682c-0.333-0.044-0.639,0.19-0.683,0.523
											c-0.043,0.333,0.191,0.638,0.523,0.682C1.84-11.403,2.146-11.637,2.188-11.97z"/>
										<path fill="#000088" d="M-11.739-3.146l7.151,1.485l3.246,1.301l-3.462-0.496L-11.739-3.146z"/>
									</g>
								</g>
							</g>
							<g id="c_11_">
								<g id="b_21_">
									<g id="a_42_">
										<path fill="#000088" d="M-0.983-12.129c-0.044-0.333-0.35-0.567-0.683-0.523c-0.332,0.044-0.566,0.349-0.522,0.682
											c0.044,0.333,0.349,0.567,0.682,0.523C-1.174-11.491-0.94-11.796-0.983-12.129z"/>
										<path fill="#000088" d="M-12.153,0l7.292-0.417L-1.389,0l-3.473,0.417L-12.153,0z"/>
									</g>
									<g transform="rotate(60)">
										<g id="a_41_">
											<path fill="#000088" d="M-4.09-11.461c-0.128-0.31-0.483-0.457-0.794-0.329c-0.31,0.128-0.457,0.484-0.328,0.794
												c0.128,0.31,0.483,0.457,0.794,0.329C-4.108-10.795-3.961-11.151-4.09-11.461z"/>
											<path fill="#000088" d="M-11.739,3.146l6.936-2.29l3.462-0.497l-3.246,1.301L-11.739,3.146z"/>
										</g>
									</g>
								</g>
							</g>
						</g>
						<g>
							<g>
								<g>
									<g id="b_20_">
										<g id="a_40_">
											<path fill="#000088" d="M-6.916-10.012c-0.205-0.267-0.586-0.316-0.853-0.112s-0.316,0.586-0.112,0.852
												s0.586,0.316,0.853,0.112C-6.763-9.364-6.712-9.746-6.916-10.012z"/>
											<path fill="#000088" d="M-10.525,6.077l6.107-4.007l3.215-1.375l-2.799,2.097L-10.525,6.077z"/>
										</g>
										<g transform="rotate(15)">
											<g id="a_39_">
												<path fill="#000088" d="M-9.272-7.88c-0.266-0.205-0.647-0.154-0.852,0.112c-0.204,0.267-0.154,0.648,0.112,0.852
													c0.266,0.205,0.647,0.154,0.852-0.112C-8.956-7.295-9.006-7.676-9.272-7.88z"/>
												<path fill="#000088" d="M-8.594,8.594l4.861-5.451l2.75-2.161l-2.16,2.75L-8.594,8.594z"/>
											</g>
										</g>
									</g>
									<g id="c_10_">
										<g id="b_19_">
											<g id="a_38_">
												<path fill="#000088" d="M-10.996-5.212c-0.31-0.128-0.665,0.019-0.794,0.329c-0.128,0.31,0.02,0.666,0.329,0.794
													s0.666-0.019,0.794-0.329C-10.538-4.729-10.686-5.084-10.996-5.212z"/>
												<path fill="#000088" d="M-6.077,10.525l3.285-6.523l2.098-2.799l-1.375,3.215L-6.077,10.525z"/>
											</g>
											<g transform="rotate(30)">
												<g id="a_37_">
													<path fill="#000088" d="M-11.97-2.188c-0.333-0.044-0.639,0.19-0.683,0.523c-0.044,0.333,0.19,0.638,0.523,0.682
														c0.333,0.044,0.638-0.19,0.682-0.523C-11.403-1.84-11.638-2.145-11.97-2.188z"/>
													<path fill="#000088" d="M-3.146,11.74l1.484-7.152l1.302-3.246l-0.496,3.462L-3.146,11.74z"/>
												</g>
											</g>
										</g>
									</g>
									<g>
										<g id="d_5_">
											<g id="b_18_">
												<g id="a_36_">
													<path fill="#000088" d="M-12.129,0.984c-0.333,0.044-0.567,0.349-0.523,0.682c0.044,0.333,0.35,0.567,0.683,0.523
														c0.332-0.044,0.566-0.349,0.522-0.682C-11.491,1.174-11.796,0.94-12.129,0.984z"/>
													<path fill="#000088" d="M0,12.154l-0.417-7.292L0,1.389l0.417,3.472L0,12.154z"/>
												</g>
												<g transform="rotate(15)">
													<g id="a_35_">
														<path fill="#000088" d="M-11.461,4.09c-0.31,0.128-0.457,0.484-0.329,0.794c0.129,0.31,0.484,0.457,0.794,0.329
															c0.311-0.128,0.458-0.484,0.329-0.794C-10.795,4.108-11.151,3.961-11.461,4.09z"/>
														<path fill="#000088" d="M3.146,11.74l-2.29-6.936L0.359,1.342l1.302,3.246L3.146,11.74z"/>
													</g>
												</g>
											</g>
											<g id="c_9_">
												<g id="b_17_">
													<g id="a_34_">
														<path fill="#000088" d="M-10.012,6.917c-0.267,0.205-0.316,0.586-0.112,0.852c0.204,0.267,0.586,0.316,0.852,0.112
															c0.267-0.204,0.316-0.586,0.112-0.852S-9.746,6.712-10.012,6.917z"/>
														<path fill="#000088" d="M6.077,10.525L2.07,4.418L0.694,1.203l2.098,2.799L6.077,10.525z"/>
													</g>
													<g transform="rotate(120)">
														<g id="a_33_">
															<path fill="#000088" d="M-7.881,9.272c-0.204,0.266-0.154,0.647,0.112,0.852c0.267,0.204,0.647,0.154,0.853-0.112
																c0.204-0.267,0.153-0.648-0.112-0.852C-7.295,8.956-7.677,9.006-7.881,9.272z"/>
															<path fill="#000088" d="M8.594,8.594L3.143,3.732l-2.16-2.75l2.75,2.161L8.594,8.594z"/>
														</g>
													</g>
												</g>
											</g>
										</g>
										<g>
											<g>
												<g>
													<g id="b_16_">
														<g id="a_32_">
															<path fill="#000088" d="M-5.212,10.996c-0.129,0.31,0.019,0.666,0.328,0.794c0.311,0.128,0.666-0.019,0.794-0.329
																c0.129-0.31-0.019-0.666-0.328-0.794C-4.729,10.539-5.084,10.686-5.212,10.996z"/>
															<path fill="#000088" d="M10.525,6.077L4.002,2.792L1.203,0.695L4.419,2.07L10.525,6.077z"/>
														</g>
														<g transform="rotate(15)">
															<g id="a_31_">
																<path fill="#000088" d="M-2.188,11.97c-0.044,0.333,0.19,0.638,0.522,0.682c0.333,0.043,0.639-0.19,0.683-0.523
																	c0.043-0.333-0.19-0.638-0.523-0.682S-2.145,11.638-2.188,11.97z"/>
																<path fill="#000088" d="M11.739,3.146L4.588,1.661L1.342,0.359l3.462,0.497L11.739,3.146z"/>
															</g>
														</g>
													</g>
													<g id="c_8_">
														<g id="b_15_">
															<g id="a_30_">
																<path fill="#000088" d="M0.983,12.129c0.044,0.333,0.35,0.567,0.683,0.523c0.332-0.044,0.566-0.349,0.522-0.682
																	c-0.043-0.333-0.349-0.567-0.682-0.523C1.175,11.491,0.94,11.796,0.983,12.129z"/>
																<path fill="#000088" d="M12.153,0L4.861,0.417L1.389,0l3.473-0.417L12.153,0z"/>
															</g>
															<g transform="rotate(30)">
																<g id="a_29_">
																	<path fill="#000088" d="M4.09,11.461c0.128,0.31,0.483,0.458,0.794,0.329c0.31-0.128,0.457-0.484,0.328-0.794
																		c-0.128-0.31-0.483-0.458-0.793-0.329C4.108,10.795,3.961,11.151,4.09,11.461z"/>
																	<path fill="#000088" d="M11.739-3.146l-6.936,2.29L1.342-0.359l3.246-1.301L11.739-3.146z"/>
																</g>
															</g>
														</g>
													</g>
													<g>
														<g id="d_4_">
															<g id="b_14_">
																<g id="a_28_">
																	<path fill="#000088" d="M6.917,10.012c0.204,0.266,0.585,0.316,0.852,0.112C8.035,9.92,8.085,9.539,7.881,9.272
																		C7.677,9.006,7.295,8.956,7.028,9.16C6.763,9.364,6.712,9.746,6.917,10.012z"/>
																	<path fill="#000088" d="M10.525-6.077L4.419-2.07L1.203-0.694l2.799-2.097L10.525-6.077z"/>
																</g>
																<g transform="rotate(15)">
																	<g id="a_27_">
																		<path fill="#000088" d="M9.272,7.881c0.266,0.204,0.647,0.154,0.852-0.112c0.204-0.266,0.154-0.647-0.112-0.852
																			C9.746,6.712,9.364,6.763,9.16,7.029S9.006,7.677,9.272,7.881z"/>
																		<path fill="#000088" d="M8.594-8.594L3.732-3.143l-2.75,2.161l2.16-2.75L8.594-8.594z"/>
																	</g>
																</g>
															</g>
															<g id="c_7_">
																<g id="b_13_">
																	<g id="a_26_">
																		<path fill="#000088" d="M10.996,5.212c0.31,0.128,0.665-0.019,0.794-0.329c0.128-0.31-0.019-0.666-0.329-0.794
																			c-0.31-0.128-0.665,0.019-0.794,0.329C10.539,4.729,10.686,5.084,10.996,5.212z"/>
																		<path fill="#000088" d="M6.077-10.525L2.792-4.001L0.694-1.203L2.07-4.418L6.077-10.525z"/>
																	</g>
																	<g transform="rotate(-120)">
																		<g id="a_25_">
																			<path fill="#000088" d="M11.971,2.189c0.332,0.044,0.638-0.19,0.682-0.523c0.044-0.333-0.19-0.638-0.523-0.682
																				c-0.333-0.043-0.638,0.19-0.682,0.523C11.403,1.84,11.638,2.145,11.971,2.189z"/>
																			<path fill="#000088" d="M3.146-11.739L1.661-4.588L0.359-1.341l0.496-3.462L3.146-11.739z"/>
																		</g>
																	</g>
																</g>
															</g>
														</g>
													</g>
												</g>
											</g>
										</g>
									</g>
								</g>
							</g>
						</g>
					</g>
				</g>
			</g>
		</g>
	</symbol>
	<symbol  id="Rand" viewBox="5.377 -252.996 156.49 248.039">
		<g id="weiß_2_">
		</g>
		<path fill="#FFFFFF" d="M159.867-242.076c0,4.92-4,8.92-8.92,8.92c-4.921,0-8.921-4-8.921-8.92s4-8.92,8.921-8.92
			C155.867-250.996,159.867-246.996,159.867-242.076z M159.867-15.887c0,4.92-4,8.93-8.92,8.93c-4.921,0-8.921-4.01-8.921-8.93
			c0-4.91,4-8.92,8.921-8.92C155.867-24.807,159.867-20.797,159.867-15.887z M19.387-4.957h123.9h4.569h3.091
			c6.02,0,10.92-4.9,10.92-10.93v-9.52v-208.09v-8.58c0-6.021-4.9-10.92-10.92-10.92h-9.471c-37.63,0-75.85,0-125.17,0
			c-6.029,0-10.92,4.898-10.92,10.92c-0.01,72.18-0.01,141.83-0.01,211.35v14.84c0,6.029,4.9,10.93,10.92,10.93H19.387z
			 M25.227-15.887c0,4.92-4.01,8.93-8.93,8.93c-4.91,0-8.92-4.01-8.92-8.93c0-4.91,4.01-8.92,8.92-8.92
			C21.217-24.807,25.227-20.797,25.227-15.887z M16.307-250.996c4.92,0,8.92,4,8.92,8.92s-4,8.92-8.92,8.92s-8.92-4-8.92-8.92
			S11.387-250.996,16.307-250.996z M27.227-15.887c0-6.02-4.9-10.92-10.93-10.92c-3.68,0-6.939,1.83-8.92,4.629
			c0-71.199,0-142.398,0-213.609c1.98,2.801,5.24,4.631,8.93,4.631c6.02,0,10.92-4.9,10.92-10.92c0-3.682-1.83-6.941-4.63-8.92
			c40.69,0,81.37,0,122.061,0c-2.801,1.979-4.631,5.238-4.631,8.92c0,6.02,4.9,10.92,10.921,10.92c3.68,0,6.939-1.83,8.92-4.621
			c0,71.201,0,142.4,0,213.6c-1.98-2.799-5.24-4.629-8.92-4.629c-6.021,0-10.921,4.9-10.921,10.92c0,3.689,1.83,6.949,4.631,8.93
			c-40.69,0-81.38,0-122.061,0C25.396-8.938,27.227-12.197,27.227-15.887z"/>
	</symbol>
	<symbol  id="Stühle" viewBox="20.226 -210.972 126.867 163.99">
		<g id="weiß_4_">
		</g>
		<path fill="#FFFFFF" d="M140.767-178.387c8.141-11.621,8.13-11.609,1.17-16.49c-6.2-4.34-12.39-8.67-18.58-13.01
			c-6.989-4.891-6.97-4.871-15.1,6.74c-4.55,6.5-4.99,17.26,6.5,25.309C126.337-167.736,136.267-171.957,140.767-178.387z"/>
		<path fill="#FFFFFF" d="M52.486-175.838c11.5-8.049,11.061-18.809,6.5-25.309c-8.129-11.611-8.109-11.631-15.09-6.74
			c-6.199,4.34-12.39,8.67-18.58,13.01c-6.97,4.881-6.97,4.869,1.16,16.49C30.986-171.957,40.917-167.736,52.486-175.838z"/>
		<path fill="#FFFFFF" d="M142.007-63.098c6.96-4.869,6.97-4.869-1.17-16.479c-4.5-6.441-14.43-10.66-26.01-2.551
			c-11.49,8.051-11.051,18.811-6.49,25.311c8.13,11.609,8.1,11.619,15.09,6.73C129.617-54.416,135.807-58.756,142.007-63.098z"/>
		<path fill="#FFFFFF" d="M58.986-56.807c4.561-6.5,5-17.26-6.5-25.311c-11.569-8.1-21.5-3.879-26.01,2.551
			c-8.13,11.619-8.13,11.609-1.16,16.49c6.19,4.33,12.381,8.67,18.58,13.01C50.877-45.178,50.857-45.197,58.986-56.807z"/>
		<path fill="#FFFFFF" d="M83.622-172.996c-24.272,0-44.02,19.746-44.02,44.02s19.747,44.02,44.02,44.02s44.02-19.746,44.02-44.02
			S107.895-172.996,83.622-172.996z M83.622-87.957c-22.618,0-41.02-18.4-41.02-41.02s18.401-41.02,41.02-41.02
			s41.02,18.4,41.02,41.02S106.24-87.957,83.622-87.957z"/>
	</symbol>
</defs>
<g>
	<path fill="#0057A3" d="M167.244,240.945c0,9.354-7.653,17.008-17.008,17.008H17.008C7.653,257.953,0,250.3,0,240.945V17.008
		C0,7.653,7.653,0,17.008,0h133.229c9.354,0,17.008,7.653,17.008,17.008V240.945z"/>
</g>
<use xlink:href="#IN"  width="85.038" height="85.038" x="-42.52" y="-42.519" transform="matrix(0.2333 0 0 -0.2333 150.8008 242.0752)" overflow="visible"/>
<use xlink:href="#IN"  width="85.038" height="85.038" x="-42.52" y="-42.519" transform="matrix(0.2333 0 0 -0.2333 150.7998 15.8809)" overflow="visible"/>
<use xlink:href="#IN"  width="85.038" height="85.038" x="-42.52" y="-42.519" transform="matrix(0.2333 0 0 -0.2333 16.2979 242.0752)" overflow="visible"/>
<use xlink:href="#IN"  width="85.038" height="85.038" x="-42.52" y="-42.519" transform="matrix(0.2333 0 0 -0.2333 16.2979 15.8809)" overflow="visible"/>
<use xlink:href="#IN"  width="85.038" height="85.038" id="XMLID_5_" x="-42.52" y="-42.519" transform="matrix(1 0 0 -1 83.6211 128.9766)" overflow="visible"/>
<use xlink:href="#Rand"  width="156.49" height="248.039" x="5.377" y="-252.996" transform="matrix(1 0 0 -1 0.002 0.0029)" overflow="visible"/>
<use xlink:href="#Stühle"  width="126.867" height="163.99" x="20.226" y="-210.972" transform="matrix(1 0 0 -1 0.002 0.0029)" overflow="visible"/>
</svg>
