<?xml version="1.0" encoding="utf-8"?>
<!-- Generator: Adobe Illustrator 15.1.0, SVG Export Plug-In  -->
<!DOCTYPE svg PUBLIC "-//W3C//DTD SVG 1.1 Tiny//EN" "http://www.w3.org/Graphics/SVG/1.1/DTD/svg11-tiny.dtd" [
	<!ENTITY ns_flows "http://ns.adobe.com/Flows/1.0/">
]>
<svg version="1.1" baseProfile="tiny"
	 xmlns="http://www.w3.org/2000/svg" xmlns:xlink="http://www.w3.org/1999/xlink" xmlns:a="http://ns.adobe.com/AdobeSVGViewerExtensions/3.0/"
	 x="0px" y="0px" width="167px" height="258px" viewBox="0.002 0.003 167 258" xml:space="preserve">
<defs>
</defs>
<path fill="#00B3F2" d="M167.244,240.945c0,9.354-7.653,17.008-17.008,17.008H17.008C7.653,257.953,0,250.3,0,240.945V17.008
	C0,7.653,7.653,0,17.008,0h133.229c9.354,0,17.008,7.653,17.008,17.008V240.945z"/>
<path fill="none" stroke="#FFFFFF" stroke-width="2" stroke-miterlimit="10" d="M160.866,239.24c0,7.047-5.822,12.756-13.008,12.756
	H19.386c-7.186,0-13.008-5.709-13.008-12.756V18.722c0-7.046,5.822-12.762,13.008-12.762h128.473
	c7.186,0,13.008,5.716,13.008,12.762V239.24z"/>
<path fill="#A6713B" d="M167.244,240.945c0,9.354-7.653,17.008-17.008,17.008H17.008C7.653,257.953,0,250.3,0,240.945V17.008
	C0,7.653,7.653,0,17.008,0h133.229c9.354,0,17.008,7.653,17.008,17.008V240.945z"/>
<path fill="none" stroke="#FFFFFF" stroke-width="2" stroke-miterlimit="10" d="M160.866,239.24c0,7.047-5.822,12.756-13.008,12.756
	H19.386c-7.186,0-13.008-5.709-13.008-12.756V18.722c0-7.046,5.822-12.762,13.008-12.762h128.473
	c7.186,0,13.008,5.716,13.008,12.762V239.24z"/>
<line fill="none" stroke="#FFFFFF" stroke-width="2" stroke-miterlimit="10" x1="20.551" y1="128.978" x2="146.693" y2="128.978"/>
<g>
	<path fill="#F4F5F0" d="M155.43,233.305c-1.383-0.731-2.956-1.149-4.629-1.149s-3.246,0.418-4.629,1.149v17.541
		c1.383,0.731,2.956,1.149,4.629,1.149s3.246-0.418,4.629-1.149V233.305z"/>
	<path fill="#008C45" d="M140.881,242.075c0,3.806,2.146,7.107,5.291,8.771v-17.541C143.026,234.968,140.881,238.27,140.881,242.075
		z"/>
	<path fill="#CD212A" d="M160.72,242.075c0-3.806-2.146-7.106-5.29-8.771v17.541C158.574,249.182,160.72,245.881,160.72,242.075z"/>
</g>
<g>
	<path fill="#F4F5F0" d="M155.429,7.111c-1.383-0.731-2.956-1.15-4.629-1.15s-3.246,0.418-4.629,1.149v17.541
		c1.383,0.731,2.956,1.149,4.629,1.149s3.246-0.418,4.629-1.15V7.111z"/>
	<path fill="#008C45" d="M140.88,15.881c0,3.806,2.146,7.107,5.291,8.771V7.11C143.025,8.774,140.88,12.075,140.88,15.881z"/>
	<path fill="#CD212A" d="M160.719,15.881c0-3.806-2.146-7.106-5.29-8.77v17.54C158.573,22.987,160.719,19.687,160.719,15.881z"/>
</g>
<circle fill="none" stroke="#FFFFFF" stroke-width="2" stroke-miterlimit="10" cx="150.945" cy="15.882" r="9.921"/>
<g>
	<path fill="#F4F5F0" d="M20.927,233.305c-1.383-0.731-2.956-1.149-4.629-1.149s-3.246,0.418-4.629,1.149v17.541
		c1.383,0.731,2.956,1.149,4.629,1.149s3.246-0.418,4.629-1.149V233.305z"/>
	<path fill="#008C45" d="M6.378,242.075c0,3.806,2.146,7.107,5.291,8.771v-17.541C8.523,234.968,6.378,238.27,6.378,242.075z"/>
	<path fill="#CD212A" d="M26.217,242.075c0-3.806-2.146-7.106-5.29-8.771v17.541C24.071,249.182,26.217,245.881,26.217,242.075z"/>
</g>
<circle fill="none" stroke="#FFFFFF" stroke-width="2" stroke-miterlimit="10" cx="150.945" cy="242.075" r="9.921"/>
<g>
	<path fill="#F4F5F0" d="M20.927,7.111c-1.383-0.731-2.956-1.15-4.629-1.15s-3.246,0.418-4.629,1.149v17.541
		c1.383,0.731,2.956,1.149,4.629,1.149s3.246-0.418,4.629-1.15V7.111z"/>
	<path fill="#008C45" d="M6.378,15.881c0,3.806,2.146,7.107,5.291,8.771V7.11C8.523,8.774,6.378,12.075,6.378,15.881z"/>
	<path fill="#CD212A" d="M26.217,15.881c0-3.806-2.146-7.106-5.29-8.77v17.54C24.071,22.987,26.217,19.687,26.217,15.881z"/>
</g>
<circle fill="none" stroke="#FFFFFF" stroke-width="2" stroke-miterlimit="10" cx="16.3" cy="242.075" r="9.921"/>
<circle fill="none" stroke="#FFFFFF" stroke-width="2" stroke-miterlimit="10" cx="16.298" cy="15.881" r="9.921"/>
<path fill="#697364" d="M107.395,50.541c0.079,0,0.159,0,0.239,0c0,0.08,0,0.159,0,0.239c0,0.88,0,1.761,0,2.64
	c-0.014,0.146-0.037,0.285-0.239,0.24C107.395,52.621,107.395,51.58,107.395,50.541z"/>
<path fill="#252724" d="M62.029,78.143c1.377,0.18,3.819,0.84,4.319,2.641c-0.688,0.512-1.339-0.615-1.92-0.961
	c-0.749,1.078,0.169,2.545,0.24,3.603c-1.272-0.541-1.78-2.396-1.44-3.843c-0.324-0.866-1.082-0.039-1.68-0.479
	C61.675,78.748,61.904,78.498,62.029,78.143z"/>
<path fill="#252724" d="M102.833,79.822c-0.004,0.797-1.356,0.244-1.68,0.721c0.323,1.373-0.175,3.117-0.961,4.08
	c-0.632-0.771,0.387-2.43,0.239-3.6c-0.957-0.238-0.723,0.717-1.68,0.48C99.071,79.965,101.825,78.457,102.833,79.822z"/>
<path fill="#252724" d="M86.751,81.742c-2.084,2.98-6.846,3.24-8.399,0.24c1.716,0.543,5.961,2.348,7.44-0.479
	C86.222,81.473,86.298,81.797,86.751,81.742z"/>
<path fill="#252724" d="M90.354,89.424c0.973,0.357-0.675,1.514-0.962,1.68c-2.17,1.262-6.028,1.881-8.641,1.441
	c-1.975-0.334-3.683-1.291-5.28-1.922c2.326-0.375,5.523,1.547,9.12,0.961C86.634,91.25,88.507,90.295,90.354,89.424z"/>
<path fill="#CDA96B" d="M80.031,116.785c0.228,0.494,0.773,0.666,1.2,0.961c-0.597,0.313-1.165-0.535-1.2,0
	C79.313,117.588,80.261,117.232,80.031,116.785z"/>
<path fill="#697364" d="M105.954,56.541c0.512,0.848,1.283,1.436,1.438,2.641C106.847,58.368,106.206,57.646,105.954,56.541z"/>
<path fill="#697364" d="M107.153,64.942c0.192,0.046,0.237,0.241,0.479,0.24c0,0.24,0,0.48,0,0.721
	c0.113,0.914-0.102,1.498-0.721,1.68C107.491,67.234,107.604,65.565,107.153,64.942z"/>
<path fill="#252724" d="M85.792,25.098c1.76,0,3.521,0,5.279,0c1.063,0.457,1.996,1.045,2.399,2.16
	c1.318-0.281,2.17,0.085,3.121,0.721c0.08,0,0.16,0,0.24,0c0.98,1.35,1.393,1.796,1.68,3.84c0.562,0.178,1.353,0.167,1.92-0.24
	c0.734,0.546,0.867,1.693,1.439,2.4c0.801,0,1.602,0,2.4,0c0.543,2.256,2.641,4.75,2.159,6.961c-0.272,1.259-2.065,1.877-1.438,3.36
	c-0.383,0.36,0.006,1.011,0.479,1.2c0.597,0.125,0.854,0.585,1.199,0.96c-0.043,0.204,0.094,0.227,0.24,0.24
	c0.713,0.864-0.449,2.153,0.24,2.88c-0.068,0.388,0.227,0.414,0.239,0.721c0,0.08,0,0.16,0,0.24c0,1.039,0,2.08,0,3.119
	c-0.188,0.214-0.258,0.543-0.239,0.961c-0.836,0.203-0.896,1.183-1.199,1.92c0.252,1.105,0.893,1.826,1.438,2.641
	c0,0.08,0,0.16,0,0.239c0.261,2.02-0.428,3.093-0.961,4.321c-0.112,0.753,0.646,0.633,0.722,1.199
	c0.448,0.624,0.338,2.292-0.24,2.641c0.522,1.688-0.601,3.039-2.16,3.359c0.406,0.715,1.027,1.214,1.201,2.161
	c-0.623,1.618-0.994,3.487-2.642,4.081c0.697,0.343,0.912,1.166,1.199,1.92c0,0.879,0,1.761,0,2.64
	c-0.127,0.192-0.25,0.391-0.24,0.721c-0.012,0.307-0.307,0.332-0.239,0.721c-0.289,1.471-1.146,2.373-1.92,3.359
	c0.004,0.477,0.655,0.307,0.479,0.961c0.045,0.193,0.24,0.238,0.24,0.48c0.158,1.838-0.27,3.09-1.201,3.84
	c-1.494-0.037-2.975,0.684-4.08,2.16c-0.203-0.046-0.227,0.094-0.24,0.239c-3.782,0.078-4.633,4.677-6.959,6.961
	c-0.502,0.297-0.901,0.697-1.2,1.199c-0.439,0.278-0.813,0.627-1.199,0.961c-0.064,1.711,0.123,2.231,0.24,3.358
	c0,0.4,0,0.802,0,1.201c0.372,0.346,0.934,0.504,1.438,0.719c1.918,0.14,0.986,2.488,2.16,2.881c-0.039,0.279,0.053,0.429,0.24,0.48
	c-0.068,0.387,0.227,0.412,0.24,0.719c0.188,1.33,1.995,1.045,2.641,1.92c0.213,0.188,0.541,0.261,0.959,0.24
	c0.445,0.836,1.594,0.967,2.4,1.441c0.079,0,0.159,0,0.239,0c0.392,0.568,1.408,0.51,1.92,0.959c0.908,0.211,0.994,1.246,2.4,0.961
	c0,0.16,0,0.32,0,0.48c0.537,0.262,1.203,0.396,1.68,0.719c-0.043,0.205,0.095,0.227,0.24,0.24c0.506,1.016,1.004,2.037,1.68,2.881
	c0,0.08,0,0.16,0,0.24c0.091,1.219,0.375,2.018,0.48,2.641c0,0.238,0,0.479,0,0.719c-14.801,0-29.604,0-44.403,0
	c-1.038-6.699,6.493-8.346,11.521-11.041c-0.055-2.613,2.555-2.564,2.881-4.801c0.826-0.453,1.169-1.391,2.16-1.68
	c0-0.4,0-0.799,0-1.199c0-0.08,0-0.16,0-0.24c0-0.721,0-1.439,0-2.16c-0.146-0.574,0.301-1.742-0.24-1.92c-0.08,0-0.16,0-0.24,0
	c-0.829-0.611-1.532-1.348-2.4-1.92c-0.105-0.215-0.209-0.43-0.479-0.48c-0.465-1.377-1.523-2.155-2.4-3.121
	c0.041-0.6-0.368-0.75-0.72-0.959c0.132-0.532-0.459-0.342-0.479-0.721c-0.222-0.898-0.979-1.262-1.2-2.16
	c-0.592-0.031-1.156-0.037-1.439,0.24c-0.714-0.256-1.807-1.383-2.399-0.961c-1.704-1.096-3.11-2.49-3.842-4.561
	c0.321-0.166-0.117-0.639,0.24-1.199c0.046-0.195,0.241-0.24,0.24-0.48c-1.28-0.649-2.309-2.508-3.12-3.358
	c0.302-0.062,0.241-0.479,0-0.479c-0.423-2.148-1.071-4.353-0.24-6.48c-0.805-2.004-1.931-2.856-0.96-5.521
	c-0.217-1.51-1.749-2.137-0.721-3.6c-0.671-0.93-1.798-1.401-1.92-2.881c0.193-0.926,0.873-1.367,1.439-1.92
	c-0.407-0.711-0.609-1.629-0.479-2.88c0.769-1.085,0.836-2.231,1.92-3.36c0.68-0.707,2.151-0.95,2.4-1.68
	c0.512-1.498-1.737-3.101-2.4-4.801c0-0.08,0-0.16,0-0.24c-0.226-1.346,0.697-1.543,0.721-2.641c-2.277-1.986,2.152-3.749,0-5.52
	c0.443-0.037,0.147-0.813,0.479-0.961c0.359-0.44,1.002-0.598,1.2-1.199c0.758,0.117,0.848-0.434,1.681-0.24
	c0.133-0.428,0.123-0.997,0.479-1.2c1.259-0.263,0.702-2.339,1.682-2.88c0.821-1.076,1.529-0.835,2.88-1.44c0.08,0,0.16,0,0.24,0
	c0,0.08,0,0.159,0,0.239c0.477,0.004,0.305,0.655,0.96,0.48c-0.064-0.864,0.443-1.156,0.479-1.92c0.491-1.374,1.536-3.117,3.36-2.4
	c1.247-1.891,2.347-3.576,4.56-3.36c1.024,0.101,1.595,1.446,2.642,1.44C83.163,27.967,84.024,25.228,85.792,25.098z M91.313,98.064
	c3.264-3.523,4.52-6.396,6.239-11.521c0.947-0.694,2.783-1.811,4.08-0.719c1.396-3.16,3.92-7.211-0.719-8.401
	c-0.851-0.13-0.59,0.853-1.441,0.721c-0.36-1.392-0.332-2.922,0.722-3.12c-0.595-0.286-0.938-0.821-1.199-1.44
	c1.086-0.585,0.916-1.259,0.479-2.4c0.845,0.043,0.791-0.811,1.441-0.959c-0.852-1.465-0.842-2.907-0.721-4.081
	c-1.734-1.534-2.604-2.903-3.359-5.04c0.332-0.557,1.008-2.477,0-2.881c0.002,1.043-0.355,1.726-1.201,1.92
	c-1.74-1.299-4.211-1.869-6-3.119c-2.32,1.758-4.934,3.691-7.921,3.359c-0.021-1.141,1.458-0.781,1.921-1.439
	c0.104-0.826-0.096-1.346-0.24-1.92c-2.757-0.018-6.819,1.756-7.681-1.921c-1.409,0.405-0.548,1.677-1.92,1.921
	c-0.507-0.242-1.416-2.275-1.681-1.201c-0.181,0.74,0.826,0.293,0.479,1.201c-0.354,0.605-0.929,0.991-1.681,1.199
	c0.17,3.678-4.286,3.783-4.32,6.48c-0.766-0.205-0.742,0.378-1.2,0.48c-1.041,3.775,0.707,8.779,0.96,12.24
	c-1.41-0.287-3.939-1.404-5.279-0.238c0.009,1.168-0.108,4.17,0.721,5.279c0.2,1.35,1.74,3.549,2.64,2.641
	c0.586-0.534,1.714-0.526,2.88-0.479c2.046,1.16,1.891,3.541,2.642,5.521c2.069,5.455,6.426,10.271,11.041,13.201
	c0.118,0.758-1.191,0.088-0.96,0.959c0.115,4.595,0.063,7.563-1.682,10.319c0.949,0.332,1.489,1.072,1.682,2.16
	c0.229,0.447-0.719,0.804,0,0.961c0.035-0.535,0.604,0.313,1.2,0c0.731,1.634,3.123,0.127,4.079,1.439
	c0.962-0.238,1.259-1.143,2.642-0.959c-0.445-1.654,0.01-2.242,0.959-3.84c-1.066-1.854-1.822-7.254-1.92-10.563
	c-0.359-0.041-0.885,0.086-0.959-0.24c1.01-0.748,2.252-1.266,2.879-2.398C89.823,100.256,90.77,99.363,91.313,98.064z
	 M66.35,89.904c1.409-0.529,1.399-5.404-0.479-4.561C63.849,85.676,63.658,90.68,66.35,89.904z M99.233,86.303
	c-1.181,1.834,0.147,4.826,1.68,4.561C102.524,89.803,102.093,85.197,99.233,86.303z M88.671,109.346
	c-0.309,0.566,0.031,0.447-0.24,1.199c0.525,0.129,1.554,0.582,1.683-0.24C89.462,110.156,89.515,109.303,88.671,109.346z
	 M78.591,111.506c-0.315-0.744,0.712-1.332,0-1.68C78.349,110.256,77.673,111.299,78.591,111.506z M89.392,113.426
	c0.015,0.307,0.31,0.332,0.24,0.721c0.48,0,0.961,0,1.439,0c0.479-1.744-1.187-3.41-2.16-2.16
	C89.104,112.434,89.313,112.865,89.392,113.426z M78.352,112.705c-1.507-0.984-3.459,0.58-2.399,2.16
	c0.744,0.024,0.685-0.754,1.68-0.479C77.782,113.814,77.777,113.328,78.352,112.705z M92.753,114.625
	c-0.309-0.012-0.334-0.307-0.721-0.238c0.004,0.715,0.623,0.814,0.721,1.439c0.277,0.354,0.277,0.604,0,0.959
	c0.902-0.203,0.818-1.351,0.479-2.16C93.181,114.916,92.966,114.773,92.753,114.625z M89.392,115.586
	c-0.625,1.125-0.209,3.016,1.201,2.881c0.687-0.516,1.324-1.076,1.199-2.4C91.304,115.461,90.325,115.08,89.392,115.586z
	 M75.711,118.945c-0.949-0.867-1.09-2.416-0.24-3.359c-0.319,0-0.64,0-0.96,0c-0.634,1.205,0.062,2.914,0.721,3.601
	c1.523,1.979,2.879,4.815,4.561,5.281c0.276,0.075,1.091-0.459,1.44-0.479c1.967-0.123,4.762,0.268,7.198,0.239
	c1.349-1.293,2.388-2.896,3.361-4.562c0.295-0.282,1.188-1.188,0.479-1.68c-0.217,0.424-0.579,0.701-0.721,1.199
	c-0.596-0.035-0.996,0.125-1.199,0.48c1.058,2.211-2.409,3.326-4.082,2.16c-0.493,2.086-3.666,1.674-4.799,0.239
	c-1.903,1.441-5.104-0.616-4.081-2.881C76.611,119.326,76.274,119.023,75.711,118.945z M78.831,117.025
	c-0.028-2.396-4.144-1.545-2.16,1.201C77.837,118.629,78.841,117.906,78.831,117.025z M79.313,118.945
	c-1.276,0.027-1.09,2.033-0.24,2.4c0.014,0.146,0.036,0.285,0.24,0.24c1.408,0.131,2.438-0.121,2.398-1.439
	C81.952,118.857,80.004,118.504,79.313,118.945z M86.991,119.186c-0.438,0.693-0.39,0.752-0.24,1.682
	c0.623,0.258,1.178,0.582,2.16,0.479c0.553-0.608,0.244-1.17,0.479-1.681C88.847,119.252,88.05,119.088,86.991,119.186z
	 M83.392,121.826c0.482,0.871,1.658,0.217,1.921-0.479c0.286-2.535-4.028-1.584-2.16,0.239
	C83.165,121.732,83.188,121.871,83.392,121.826z"/>
<path fill="#697364" d="M61.79,82.463c0.655,0.992,1.368,3.047,2.64,2.641C63.53,86.012,61.99,83.813,61.79,82.463z"/>
<path fill="#CDA96B" d="M88.911,101.186c0.635-1.207,1.641-2.041,2.399-3.121C90.77,99.363,89.823,100.256,88.911,101.186z"/>
<path fill="#CDA96B" d="M61.79,82.463c-0.829-1.109-0.712-4.111-0.721-5.279c1.34-1.166,3.868-0.049,5.279,0.238
	c-0.253-3.461-2.001-8.465-0.96-12.24c0.458-0.103,0.436-0.686,1.2-0.48c0.034-2.697,4.49-2.803,4.32-6.48
	c0.752-0.208,1.326-0.594,1.681-1.199c0.348-0.908-0.66-0.461-0.479-1.201c0.265-1.074,1.174,0.959,1.681,1.201
	c1.372-0.244,0.511-1.516,1.92-1.921c0.86,3.677,4.924,1.903,7.681,1.921c0.146,0.574,0.345,1.094,0.24,1.92
	c-0.463,0.658-1.941,0.299-1.921,1.439c2.987,0.332,5.602-1.602,7.921-3.359c1.789,1.25,4.26,1.82,6,3.119
	c0.847-0.194,1.203-0.877,1.201-1.92c1.008,0.404,0.332,2.324,0,2.881c0.756,2.137,1.625,3.506,3.359,5.04
	c-0.121,1.174-0.132,2.616,0.721,4.081c-0.65,0.148-0.598,1.002-1.441,0.959c0.438,1.142,0.607,1.815-0.479,2.4
	c0.262,0.619,0.604,1.154,1.199,1.44c-1.054,0.198-1.082,1.729-0.722,3.12c0.853,0.131,0.592-0.85,1.441-0.721
	c4.639,1.191,2.115,5.242,0.719,8.402c-1.297-1.093-3.133,0.022-4.08,0.719c-1.721,5.125-2.977,7.998-6.24,11.521
	c-0.76,1.08-1.766,1.914-2.399,3.121c-0.627,1.134-1.869,1.649-2.879,2.397c0.074,0.326,0.6,0.199,0.959,0.24
	c0.098,3.31,0.854,8.709,1.92,10.563c-0.949,1.599-1.404,2.187-0.959,3.84c-1.383-0.185-1.681,0.722-2.642,0.959
	c-0.957-1.313-3.348,0.192-4.079-1.438c-0.427-0.295-0.974-0.467-1.2-0.961c-0.191-1.088-0.731-1.828-1.682-2.16
	c1.744-2.758,1.797-5.728,1.682-10.32c-0.231-0.871,1.078-0.201,0.96-0.959c-4.615-2.93-8.972-7.746-11.041-13.201
	c-0.751-1.98-0.597-4.361-2.642-5.521c-1.166-0.047-2.294-0.055-2.88,0.48C63.158,85.51,62.445,83.455,61.79,82.463z M61.55,79.104
	c0.597,0.439,1.354-0.389,1.681,0.479c-0.341,1.447,0.166,3.302,1.439,3.843c-0.071-1.058-0.989-2.522-0.24-3.603
	c0.581,0.346,1.232,1.473,1.92,0.961c-0.5-1.801-2.942-2.461-4.319-2.641C61.904,78.498,61.675,78.748,61.55,79.104z M76.671,69.501
	c-2.154-1.496-5.465-2.306-7.2-0.721c-0.458-0.102-0.435-0.686-1.199-0.479c-0.26,0.613,1.032,0.841,0.238,1.2
	c-1.118-0.322-1.533-1.348-2.398-1.92c-0.627,0.86,0.767,1.361,0.96,2.16c-0.146-0.139-1.14-0.563-1.2,0
	c0.597,0.683,1.802,0.758,2.16,1.68c-1.63,5.271,12.204,7.818,10.561,0.721c-0.054,0.186-0.007,0.473-0.24,0.479
	c-0.098-0.578,0.438-0.521,0.24-1.2C78.216,70.518,77.576,69.876,76.671,69.501z M86.751,66.862c1.541,0.33,3.117-0.963,5.041-1.199
	c2.26-0.279,4.982,0.577,5.76-0.48C94.509,62.819,88.806,64.603,86.751,66.862z M66.59,65.662c3.177,0.204,9.001-0.451,12.001,2.16
	C77.73,63.182,69.64,63.911,66.59,65.662z M96.593,68.302c-0.598-0.037-0.744,0.378-1.201,0.479
	c-2.735-2.411-9.196,0.643-9.12,4.081c0.143,6.401,11.907,4.015,10.803-1.921c0.863-0.336,1.809-0.591,2.16-1.439
	c-0.256-0.57-1.105,0.515-1.441-0.24c0.553-0.182,1.607-1.096,0.961-1.68c-0.662,0.459-1.176,1.064-1.92,1.439
	C96.794,68.741,96.874,68.341,96.593,68.302z M98.753,81.504c0.957,0.236,0.724-0.719,1.68-0.48c0.146,1.17-0.87,2.828-0.239,3.6
	c0.787-0.963,1.285-2.707,0.961-4.08c0.322-0.477,1.676,0.076,1.68-0.721C101.825,78.457,99.071,79.965,98.753,81.504z
	 M85.792,81.504c-1.479,2.826-5.726,1.021-7.44,0.479c1.555,3,6.315,2.74,8.399-0.24C86.298,81.797,86.222,81.473,85.792,81.504z
	 M79.551,87.504c-2.226,1.471-4.849,1.436-6.721,1.68c2.066,2.613,5.086,5.549,8.881,6c5.772,0.688,9.893-2.695,11.28-7.439
	c-2.92,0.121-5.566,1.295-8.4-0.239c-0.936,0.584-1.147,1.893-2.399,2.159C81.283,88.973,80.921,87.734,79.551,87.504z
	 M81.711,103.346c-0.023,1.275,4.091,0.836,3.36,0C84.151,103.574,83.155,103.322,81.711,103.346z"/>
<path fill="#697364" d="M76.671,69.501c0.905,0.375,1.545,1.016,1.92,1.92C77.872,70.862,77.4,70.053,76.671,69.501z"/>
<path fill="#697364" d="M96.593,68.302c0.281,0.039,0.201,0.438,0.24,0.72c0.744-0.375,1.258-0.98,1.92-1.439
	c-0.598,0.843-1.371,1.51-2.399,1.92C96.255,68.924,96.79,68.98,96.593,68.302z"/>
<path fill="#697364" d="M73.551,71.182c0.07-0.146,0.598-0.924,0-0.959c0.667-0.729,0.344,1.562,1.681,0.959
	c-0.038-0.281-0.438-0.202-0.721-0.24c0.036-0.443,0.813-0.146,0.96-0.479c-0.834-0.652-1.111-0.903-2.16-0.72
	c0.074,0.561,0.471,0.991,0,1.439c-1.604-0.236-2.809-0.871-3.359-2.16c0.564,0.006,0.707-0.413,1.439-0.24
	c0.176,0.656-0.478,0.484-0.479,0.961c1.093-0.931,1.976,0.331,2.641-0.48c1.888,0.354,2.843,1.639,4.08,2.641
	C76.572,72.619,75.218,71.369,73.551,71.182z M75.711,71.662c0.359-0.797,1.002,0.949,1.2-0.24c-0.82-0.098-0.306-0.648-1.2-0.24
	c-0.153-0.523,0.68-0.764-0.24-0.72C75.602,70.811,75.19,71.703,75.711,71.662z M72.352,70.223
	c-0.414-0.014-0.615,0.184-0.721,0.479c0.731,0.012,1.223-0.218,1.439-0.72c-0.755,0.274-0.583-0.377-0.96-0.48
	C72.1,69.832,72.224,70.03,72.352,70.223z"/>
<path fill="#697364" d="M71.391,68.782c1.354,0.02,1.129,0.138,2.16,0.48c-0.665,0.812-1.548-0.45-2.641,0.48
	C70.913,69.266,71.565,69.438,71.391,68.782z"/>
<path fill="#697364" d="M92.753,68.782c0.08,0.482-0.051,0.752-0.479,0.721c0.098,0.811,0.93-0.639,0.719,0.48
	c-0.5-0.102-0.635,0.164-0.959,0.24c0.127,0.192,0.25,0.389,0.24,0.719c0,0.08,0,0.16,0,0.24c-0.681-0.197-0.623,0.339-1.201,0.24
	c-0.56-1.326-0.711-1.264-1.199-1.199c-0.373,0.268-0.5,0.779-1.201,0.719C89.657,69.848,91.13,69.241,92.753,68.782z
	 M91.071,69.743c0.741,0.588-0.689-0.264-0.479,0.24c0.42-0.067,0.438,1.434,0.719,0.72c-0.75-0.728,0.785-0.232,0.722-0.96
	C91.485,70.073,91.13,69.123,91.071,69.743z"/>
<path fill="#697364" d="M88.671,71.903c0.5,0.128,0.51-0.936,0.24-0.24c-0.84-0.479,0.705-0.548,0.721-0.96
	c-0.063,0.931,0.019,0.437,0.961,0.72C89.911,71.398,89.005,72.373,88.671,71.903z"/>
<path fill="#697364" d="M92.513,70.942c1.496-0.484,0.689-0.854,1.92-1.199c-0.127-0.193-0.25-0.39-0.239-0.721
	c-0.688-0.338-1.312,0.745-1.201-0.24c0.815,0.066,1.947-0.186,2.399,0.24C94.474,69.703,94.091,70.92,92.513,70.942z"/>
<path fill="#697364" d="M92.753,68.782c0.078,0,0.158,0,0.238,0c-0.109,0.985,0.514-0.098,1.201,0.24
	c-0.011,0.331,0.112,0.527,0.239,0.721c-1.229,0.346-0.424,0.715-1.92,1.199c-0.08,0-0.16,0-0.24,0
	c0.011-0.33-0.112-0.526-0.239-0.719c0.324-0.076,0.459-0.342,0.959-0.24c0.211-1.119-0.621,0.33-0.72-0.48
	C92.702,69.534,92.833,69.264,92.753,68.782z"/>
<path fill="#697364" d="M88.671,70.942c0.701,0.061,0.828-0.451,1.201-0.719c0.488-0.064,0.641-0.127,1.199,1.199
	c-0.16,0-0.32,0-0.479,0c-0.942-0.283-1.022,0.211-0.961-0.72c-0.016,0.412-1.561,0.481-0.721,0.96c0.27-0.695,0.26,0.368-0.24,0.24
	c-0.193,0.206-0.656,0.143-0.719,0.48C87.286,71.932,88.146,70.996,88.671,70.942z"/>
<path fill="#697364" d="M92.032,69.743c0.063,0.728-1.472,0.232-0.722,0.96c-0.28,0.714-0.299-0.787-0.719-0.72
	c-0.211-0.504,1.221,0.348,0.479-0.24C91.13,69.123,91.485,70.073,92.032,69.743z"/>
<path fill="#697364" d="M73.311,71.182c0.471-0.448,0.074-0.879,0-1.439c1.049-0.184,1.326,0.067,2.16,0.72
	c-0.146,0.333-0.924,0.036-0.96,0.479c0.282,0.038,0.683-0.041,0.721,0.24c-1.337,0.603-1.014-1.688-1.681-0.959
	c0.598,0.035,0.07,0.813,0,0.959C73.471,71.182,73.391,71.182,73.311,71.182z"/>
<path fill="#697364" d="M72.11,69.501c0.377,0.104,0.205,0.755,0.96,0.48c-0.219,0.502-0.708,0.731-1.439,0.72
	c0.104-0.296,0.307-0.493,0.721-0.479C72.224,70.03,72.1,69.832,72.11,69.501z"/>
<path fill="#252724" d="M78.591,71.422c0.198,0.679-0.338,0.622-0.239,1.2c0.232-0.007,0.187-0.294,0.239-0.479
	c1.645,7.098-12.189,4.551-10.561-0.721c-0.358-0.922-1.563-0.997-2.16-1.68c0.062-0.563,1.055-0.139,1.2,0
	c-0.193-0.799-1.587-1.3-0.96-2.16c0.866,0.572,1.28,1.598,2.398,1.92c0.794-0.359-0.498-0.587-0.239-1.2
	c0.767-0.206,0.742,0.378,1.2,0.479c1.735-1.585,5.046-0.775,7.2,0.721C77.4,70.053,77.872,70.862,78.591,71.422z M71.391,68.782
	c-0.732-0.173-0.875,0.246-1.439,0.24c0.552,1.289,1.757,1.924,3.359,2.16c0.08,0,0.16,0,0.24,0c1.667,0.188,3.021,1.438,4.08,0.721
	c-1.238-1.002-2.193-2.287-4.08-2.641C72.52,68.918,72.745,68.801,71.391,68.782z M77.871,73.103
	c-0.864,0.063-1.157-0.444-1.92-0.48c-0.674,0.446-0.793,1.448-1.682,1.681c-0.768,0.104-2.809-0.693-2.399-2.4
	c-0.835-0.053-2.685-1.355-3.12-0.24C68.683,75.533,76.864,77.377,77.871,73.103z M73.791,72.143c-0.32,0-0.641,0-0.961,0
	C72.642,73.067,73.979,73.067,73.791,72.143z"/>
<path fill="#9ABAC7" d="M72.83,72.143c0.32,0,0.641,0,0.961,0C73.979,73.067,72.642,73.067,72.83,72.143z"/>
<path fill="#697364" d="M65.87,85.344c1.879-0.844,1.889,4.031,0.479,4.561C63.658,90.68,63.849,85.676,65.87,85.344z"/>
<path fill="#697364" d="M100.913,90.863c-1.531,0.267-2.859-2.727-1.68-4.561C102.093,85.197,102.524,89.803,100.913,90.863z
	 M101.395,87.744c-0.16,0-0.32,0-0.48,0c-0.037-0.283,0.041-0.683-0.24-0.722c0.043,0.921-0.197,0.089-0.721,0.24
	C99.823,87.896,101.345,88.08,101.395,87.744z"/>
<path fill="#697364" d="M99.952,87.264c0.522-0.152,0.764,0.68,0.721-0.24c0.281,0.039,0.203,0.438,0.24,0.721
	c0.16,0,0.32,0,0.479,0C101.345,88.08,99.823,87.896,99.952,87.264z"/>
<path fill="#A5703C" d="M91.071,88.943c-1.187,6.613-13.336,6.98-16.32,0.961c2.113,0.113,3.325-0.676,4.8-1.201
	c1.52,1.939,4.415,2.547,5.521-0.239C87.153,89.299,88.974,89.619,91.071,88.943z M84.591,91.584
	c-3.597,0.586-6.794-1.336-9.12-0.961c1.599,0.631,3.307,1.588,5.28,1.922c2.611,0.439,6.471-0.18,8.641-1.441
	c0.287-0.166,1.935-1.322,0.962-1.68C88.507,90.295,86.634,91.25,84.591,91.584z"/>
<path fill="#252724" d="M85.071,103.346c0.729,0.836-3.386,1.275-3.36,0C83.155,103.322,84.151,103.574,85.071,103.346z"/>
<path fill="#A5703C" d="M78.591,109.826c0.712,0.349-0.315,0.937,0,1.681C77.673,111.299,78.349,110.256,78.591,109.826z"/>
<path fill="#A5703C" d="M88.911,111.986c0.975-1.25,2.639,0.416,2.16,2.16c-0.479,0-0.959,0-1.439,0
	c0.068-0.389-0.227-0.414-0.24-0.721c0.464-0.445,0.189-0.439,0.962-0.24C89.71,112.947,89.546,112.23,88.911,111.986z"/>
<path fill="#A5703C" d="M88.911,111.986c0.635,0.244,0.799,0.961,1.44,1.199c-0.771-0.199-0.498-0.205-0.961,0.24
	C89.313,112.865,89.104,112.434,88.911,111.986z"/>
<path fill="#CDA96B" d="M92.753,114.625c0.213,0.147,0.428,0.291,0.479,0c0.34,0.811,0.424,1.957-0.479,2.16
	c0.277-0.354,0.277-0.604,0-0.959c0.158,0,0.318,0,0.479,0C93.438,115.061,92.854,115.084,92.753,114.625z"/>
<path fill="#CDA96B" d="M92.753,115.826c-0.098-0.625-0.717-0.725-0.721-1.438c0.387-0.067,0.412,0.228,0.721,0.237
	c0.103,0.459,0.687,0.437,0.479,1.201C93.071,115.826,92.911,115.826,92.753,115.826z"/>
<path fill="#A5703C" d="M91.792,116.066c0.125,1.324-0.514,1.885-1.199,2.4c-1.41,0.135-1.826-1.756-1.201-2.881
	C90.325,115.08,91.304,115.461,91.792,116.066z M90.112,115.826c1.021,0.244-1.263,0.234-0.24,0.48
	c0.615-0.516,1.359,0.221,1.68-0.24C91.276,115.893,89.485,115.385,90.112,115.826z M89.392,116.547
	c0.037,0.281-0.04,0.68,0.24,0.719c0.054-0.186,0.006-0.473,0.24-0.48c-0.521,0.97,1.688,1.06,0.959,0.722
	c-0.283-0.115-0.543-0.257-0.719-0.479c0.33-0.011,0.526,0.112,0.719,0.239C90.854,116.523,90.106,116.551,89.392,116.547z"/>
<path fill="#A5703C" d="M91.552,116.066c-0.319,0.461-1.063-0.275-1.68,0.24c-1.021-0.246,1.262-0.236,0.24-0.48
	C89.485,115.385,91.276,115.893,91.552,116.066z"/>
<path fill="#CDA96B" d="M91.552,119.186c0.142-0.498,0.504-0.775,0.722-1.199c0.707,0.492-0.187,1.396-0.48,1.68
	C91.737,119.48,91.786,119.193,91.552,119.186z"/>
<path fill="#A5703C" d="M90.831,117.266c-0.191-0.127-0.389-0.25-0.719-0.24c0.176,0.225,0.436,0.365,0.719,0.48
	c0.729,0.338-1.479,0.248-0.959-0.721c-0.234,0.008-0.188,0.295-0.24,0.479c-0.28-0.039-0.203-0.438-0.24-0.72
	C90.106,116.551,90.854,116.523,90.831,117.266z"/>
<path fill="#CDA96B" d="M75.711,118.945c0.563,0.078,0.9,0.381,1.68,0.24c-1.021,2.264,2.178,4.322,4.081,2.881
	c1.134,1.434,4.306,1.846,4.8-0.24c1.672,1.166,5.139,0.051,4.082-2.16c0.202-0.354,0.604-0.516,1.198-0.479
	c0.234,0.009,0.187,0.295,0.24,0.479c-0.975,1.666-2.014,3.269-3.361,4.562c-2.438,0.026-5.231-0.362-7.198-0.239
	c-0.351,0.021-1.164,0.557-1.44,0.479c-1.682-0.466-3.036-3.302-4.561-5.281C75.218,118.738,75.415,118.678,75.711,118.945z"/>
<path fill="#A5703C" d="M79.313,121.586c-0.268-0.846,0.848-1.266,0.238-0.479c0.219,0.212,0.709,0.041,1.44,0.238
	c-0.597-0.416-0.394-0.619,0.24-0.238c-0.027-0.293-0.072-0.567-0.48-0.479c0.357-0.518,0.678,0.262,0.96-0.48
	C81.749,121.465,80.721,121.717,79.313,121.586z"/>
<path fill="#A5703C" d="M79.313,118.945c0.691-0.44,2.641-0.088,2.398,1.201c-0.282,0.742-0.603-0.037-0.96,0.48
	c0.408-0.088,0.453,0.188,0.48,0.479c-0.634-0.381-0.837-0.178-0.24,0.238c-0.731-0.197-1.222-0.026-1.44-0.238
	c0.608-0.786-0.506-0.366-0.238,0.479c-0.204,0.045-0.228-0.094-0.24-0.24c0.104-0.533-0.741-1.301-0.24-1.439
	c0.92-0.043,0.087,0.197,0.24,0.721c0.377-0.104,0.205-0.756,0.96-0.479c-0.158-0.321-0.513-0.446-0.96-0.479
	c-0.745-0.309,0.681-0.309,0.72,0C79.863,119.195,79.467,119.189,79.313,118.945z"/>
<path fill="#A5703C" d="M79.313,118.945c0.154,0.244,0.552,0.25,0.479,0.721c-0.039-0.309-1.465-0.309-0.72,0
	c0.446,0.033,0.802,0.158,0.96,0.48c-0.755-0.275-0.583,0.377-0.96,0.48c-0.153-0.523,0.68-0.764-0.24-0.721
	c-0.501,0.139,0.346,0.905,0.24,1.438C78.223,120.979,78.035,118.973,79.313,118.945z"/>
<path fill="#A5703C" d="M89.392,119.666c-0.235,0.51,0.072,1.07-0.479,1.68c-0.982,0.104-1.537-0.221-2.16-0.479
	c-0.148-0.931-0.197-0.988,0.24-1.683C88.05,119.088,88.847,119.252,89.392,119.666z"/>
<path fill="#A5703C" d="M83.151,121.586c-1.868-1.824,2.446-2.775,2.159-0.24c-0.262,0.697-1.438,1.352-1.92,0.48
	c0-0.16,0-0.32,0-0.48c0.232,0.008,0.187,0.295,0.24,0.48c0.355-0.203,0.348-0.771,0.479-1.199c-0.32,0.303-0.472,0.721-0.959,0.24
	C83.151,121.107,83.151,121.346,83.151,121.586z"/>
<path fill="#A5703C" d="M83.151,121.586c0-0.24,0-0.479,0-0.719c0.487,0.479,0.639,0.063,0.959-0.24
	c-0.132,0.428-0.123,0.996-0.479,1.199c-0.055-0.187-0.008-0.474-0.24-0.48c0,0.16,0,0.32,0,0.48
	C83.188,121.871,83.165,121.732,83.151,121.586z"/>
<path fill="#697364" d="M75.471,70.461c0.92-0.044,0.087,0.196,0.24,0.72c0.896-0.408,0.38,0.143,1.2,0.24
	c-0.198,1.189-0.841-0.557-1.2,0.24C75.19,71.703,75.602,70.811,75.471,70.461z"/>
<path fill="#9ABAC7" d="M87.231,73.103c1.297-0.687,2.184,0.038,2.641-0.48c0.789-0.175,0.367,0.478,0,0.48
	c0.195,1.983,3.889,1.049,3.359-1.2c1.196-0.239,2.469-0.971,3.12-0.48C95.71,75.915,88.61,77.363,87.231,73.103z"/>
<path fill="#9ABAC7" d="M91.313,72.622c-0.298-0.776,0.776-0.183,0.479-0.96c0.342,0.293,0.545,0.916,0.24,1.2
	C91.839,72.736,91.642,72.612,91.313,72.622z"/>
<path fill="#A5703C" d="M77.631,114.387c-0.995-0.275-0.936,0.504-1.68,0.479c-1.06-1.58,0.894-3.145,2.398-2.16
	C77.777,113.328,77.782,113.814,77.631,114.387z"/>
<path fill="#CDA96B" d="M75.23,119.186c-0.659-0.686-1.354-2.395-0.721-3.6c0.32,0,0.641,0,0.96,0
	c-0.85,0.943-0.709,2.492,0.24,3.359C75.415,118.678,75.218,118.738,75.23,119.186z"/>
<path fill="#9ABAC7" d="M68.75,71.662c0.438-1.115,2.285,0.188,3.12,0.24c-0.408,1.707,1.633,2.505,2.399,2.4
	c0.889-0.232,1.008-1.234,1.682-1.681c0.763,0.036,1.056,0.544,1.92,0.48C76.864,77.377,68.683,75.533,68.75,71.662z"/>
<path fill="#A5703C" d="M90.112,110.305c-0.129,0.822-1.156,0.369-1.683,0.24c0.271-0.752-0.067-0.633,0.24-1.199
	C89.515,109.303,89.462,110.156,90.112,110.305z"/>
<path fill="#A5703C" d="M76.671,118.227c-1.983-2.746,2.132-3.598,2.16-1.201C78.841,117.906,77.837,118.629,76.671,118.227z"/>
<path fill="#252724" d="M97.552,65.182c-0.776,1.058-3.5,0.201-5.76,0.48c-1.924,0.236-3.5,1.529-5.041,1.199
	C88.806,64.603,94.509,62.819,97.552,65.182z"/>
<path fill="#252724" d="M78.591,67.823c-3-2.611-8.824-1.956-12.001-2.16C69.64,63.911,77.73,63.182,78.591,67.823z"/>
<path fill="#252724" d="M98.753,67.582c0.646,0.584-0.408,1.498-0.961,1.68c0.336,0.755,1.187-0.33,1.441,0.24
	c-0.353,0.849-1.298,1.104-2.16,1.439c1.104,5.937-10.66,8.322-10.804,1.921c-0.075-3.438,6.386-6.492,9.121-4.081
	c0.457-0.102,0.604-0.517,1.201-0.479c0.197,0.679-0.338,0.622-0.24,1.2C97.382,69.092,98.155,68.425,98.753,67.582z M92.753,68.782
	c-1.623,0.459-3.096,1.066-4.082,2.16c-0.522,0.055-1.385,0.99-0.719,1.441c0.063-0.338,0.524-0.274,0.719-0.48
	c0.334,0.471,1.24-0.504,1.922-0.48c0.158,0,0.318,0,0.479,0c0.578,0.099,0.521-0.438,1.201-0.24c0-0.08,0-0.16,0-0.24
	c0.08,0,0.159,0,0.239,0c1.578-0.021,1.961-1.238,2.88-1.92c-0.453-0.426-1.585-0.174-2.4-0.24
	C92.911,68.782,92.831,68.782,92.753,68.782z M96.354,71.422c-0.652-0.49-1.925,0.241-3.121,0.48c0.528,2.249-3.164,3.184-3.359,1.2
	c0.367-0.003,0.789-0.655,0-0.48c-0.457,0.519-1.344-0.206-2.641,0.48C88.61,77.363,95.71,75.915,96.354,71.422z M92.032,72.863
	c0.305-0.284,0.102-0.907-0.24-1.2c0.297,0.777-0.777,0.184-0.479,0.96C91.642,72.612,91.839,72.736,92.032,72.863z"/>
<path fill="#252724" d="M82.19,89.664c1.252-0.269,1.465-1.576,2.399-2.16c2.834,1.535,5.48,0.361,8.4,0.24
	c-1.389,4.744-5.508,8.127-11.28,7.438c-3.795-0.451-6.813-3.388-8.881-6c1.872-0.244,4.495-0.209,6.721-1.681
	C80.921,87.734,81.283,88.973,82.19,89.664z M85.071,88.463c-1.105,2.787-4.002,2.18-5.521,0.24c-1.475,0.524-2.687,1.313-4.8,1.201
	c2.984,6.02,15.135,5.651,16.32-0.961C88.974,89.619,87.153,89.299,85.071,88.463z"/>
<path fill="#697364" d="M59.85,207.417c-0.079,0-0.159,0-0.239,0c0-0.08,0-0.158,0-0.238c0-0.881,0-1.762,0-2.641
	c0.014-0.145,0.037-0.285,0.239-0.24C59.85,205.337,59.85,206.378,59.85,207.417z"/>
<path fill="#252724" d="M105.215,179.815c-1.377-0.18-3.819-0.84-4.319-2.641c0.688-0.512,1.339,0.615,1.92,0.961
	c0.749-1.078-0.169-2.545-0.24-3.602c1.272,0.541,1.78,2.395,1.44,3.842c0.324,0.867,1.082,0.039,1.68,0.479
	C105.569,179.21,105.34,179.46,105.215,179.815z"/>
<path fill="#252724" d="M64.411,178.136c0.004-0.797,1.356-0.244,1.68-0.721c-0.323-1.373,0.175-3.117,0.961-4.08
	c0.632,0.771-0.387,2.43-0.239,3.6c0.957,0.238,0.723-0.717,1.68-0.48C68.173,177.993,65.419,179.501,64.411,178.136z"/>
<path fill="#252724" d="M80.493,176.216c2.084-2.98,6.846-3.24,8.399-0.24c-1.716-0.543-5.961-2.348-7.44,0.479
	C81.022,176.485,80.946,176.161,80.493,176.216z"/>
<path fill="#252724" d="M76.891,168.534c-0.973-0.357,0.675-1.514,0.962-1.68c2.17-1.262,6.028-1.881,8.641-1.441
	c1.975,0.334,3.683,1.291,5.28,1.922c-2.326,0.375-5.523-1.547-9.12-0.961C80.61,166.708,78.737,167.663,76.891,168.534z"/>
<path fill="#CDA96B" d="M87.213,141.173c-0.228-0.494-0.773-0.666-1.2-0.961c0.597-0.313,1.165,0.535,1.2,0
	C87.932,140.37,86.983,140.726,87.213,141.173z"/>
<path fill="#697364" d="M61.29,201.417c-0.512-0.848-1.283-1.436-1.438-2.641C60.397,199.591,61.038,200.312,61.29,201.417z"/>
<path fill="#697364" d="M60.091,193.017c-0.192-0.047-0.237-0.24-0.479-0.24c0-0.24,0-0.48,0-0.721
	c-0.113-0.914,0.102-1.498,0.721-1.68C59.753,190.724,59.641,192.394,60.091,193.017z"/>
<path fill="#252724" d="M81.452,232.86c-1.76,0-3.521,0-5.279,0c-1.063-0.457-1.996-1.045-2.399-2.16
	c-1.318,0.281-2.17-0.084-3.121-0.721c-0.08,0-0.16,0-0.24,0c-0.98-1.35-1.393-1.797-1.68-3.84c-0.562-0.178-1.353-0.168-1.92,0.24
	c-0.734-0.547-0.867-1.693-1.439-2.4c-0.801,0-1.602,0-2.4,0c-0.543-2.256-2.641-4.75-2.159-6.961
	c0.272-1.26,2.065-1.877,1.438-3.359c0.383-0.361-0.006-1.012-0.479-1.201c-0.597-0.125-0.854-0.584-1.199-0.959
	c0.043-0.205-0.094-0.227-0.24-0.24c-0.713-0.863,0.449-2.152-0.24-2.881c0.068-0.387-0.227-0.414-0.239-0.721c0-0.08,0-0.16,0-0.24
	c0-1.039,0-2.08,0-3.119c0.188-0.213,0.258-0.543,0.239-0.961c0.836-0.203,0.896-1.182,1.199-1.92
	c-0.252-1.104-0.893-1.826-1.438-2.641c0-0.08,0-0.16,0-0.238c-0.261-2.02,0.428-3.094,0.961-4.322
	c0.112-0.752-0.646-0.633-0.722-1.197c-0.448-0.625-0.338-2.293,0.24-2.643c-0.522-1.688,0.601-3.039,2.16-3.357
	c-0.406-0.717-1.027-1.215-1.201-2.162c0.623-1.617,0.994-3.486,2.642-4.08c-0.697-0.344-0.912-1.166-1.199-1.92
	c0-0.879,0-1.762,0-2.641c0.127-0.191,0.25-0.391,0.24-0.721c0.012-0.307,0.307-0.332,0.239-0.721
	c0.289-1.471,1.146-2.373,1.92-3.359c-0.004-0.477-0.655-0.307-0.479-0.961c-0.045-0.193-0.24-0.238-0.24-0.48
	c-0.158-1.838,0.27-3.09,1.201-3.84c1.494,0.037,2.975-0.684,4.08-2.16c0.203,0.047,0.227-0.094,0.24-0.238
	c3.782-0.078,4.633-4.678,6.959-6.961c0.502-0.297,0.901-0.697,1.2-1.199c0.439-0.279,0.813-0.627,1.199-0.961
	c0.064-1.711-0.123-2.232-0.24-3.359c0-0.4,0-0.801,0-1.201c-0.372-0.346-0.934-0.504-1.438-0.719
	c-1.918-0.139-0.986-2.488-2.16-2.881c0.039-0.279-0.053-0.428-0.24-0.48c0.068-0.387-0.227-0.412-0.24-0.719
	c-0.188-1.33-1.995-1.045-2.641-1.92c-0.213-0.188-0.541-0.26-0.959-0.24c-0.445-0.836-1.594-0.967-2.4-1.441
	c-0.079,0-0.159,0-0.239,0c-0.392-0.568-1.408-0.51-1.92-0.959c-0.908-0.211-0.994-1.246-2.4-0.961c0-0.16,0-0.32,0-0.48
	c-0.537-0.262-1.203-0.395-1.68-0.719c0.043-0.205-0.095-0.227-0.24-0.24c-0.506-1.016-1.004-2.037-1.68-2.881c0-0.08,0-0.16,0-0.24
	c-0.091-1.219-0.375-2.018-0.48-2.641c0-0.238,0-0.479,0-0.719c14.801,0,29.604,0,44.403,0c1.038,6.699-6.493,8.346-11.521,11.041
	c0.055,2.613-2.555,2.564-2.881,4.801c-0.826,0.453-1.169,1.391-2.16,1.68c0,0.4,0,0.799,0,1.199c0,0.08,0,0.16,0,0.24
	c0,0.721,0,1.439,0,2.16c0.146,0.574-0.301,1.742,0.24,1.92c0.08,0,0.16,0,0.24,0c0.829,0.611,1.532,1.348,2.4,1.92
	c0.105,0.215,0.209,0.43,0.479,0.48c0.465,1.377,1.523,2.156,2.4,3.121c-0.041,0.6,0.368,0.75,0.72,0.959
	c-0.132,0.533,0.459,0.342,0.479,0.721c0.222,0.898,0.979,1.262,1.2,2.16c0.592,0.031,1.156,0.037,1.439-0.24
	c0.714,0.256,1.807,1.383,2.399,0.961c1.704,1.096,3.11,2.49,3.842,4.561c-0.321,0.166,0.117,0.639-0.24,1.199
	c-0.046,0.195-0.241,0.24-0.24,0.48c1.28,0.65,2.309,2.508,3.12,3.359c-0.302,0.061-0.241,0.479,0,0.479
	c0.423,2.148,1.071,4.354,0.24,6.48c0.805,2.004,1.931,2.857,0.96,5.521c0.217,1.51,1.749,2.137,0.721,3.6
	c0.671,0.93,1.798,1.402,1.92,2.881c-0.193,0.926-0.873,1.367-1.439,1.92c0.407,0.711,0.609,1.629,0.479,2.881
	c-0.769,1.084-0.836,2.23-1.92,3.359c-0.68,0.707-2.151,0.951-2.4,1.68c-0.512,1.498,1.737,3.102,2.4,4.801c0,0.08,0,0.16,0,0.24
	c0.226,1.346-0.697,1.543-0.721,2.643c2.277,1.984-2.152,3.748,0,5.52c-0.443,0.037-0.147,0.813-0.479,0.961
	c-0.359,0.439-1.002,0.598-1.2,1.199c-0.758-0.117-0.848,0.434-1.681,0.24c-0.133,0.428-0.123,0.996-0.479,1.199
	c-1.259,0.264-0.702,2.34-1.682,2.881c-0.821,1.074-1.529,0.834-2.88,1.439c-0.08,0-0.16,0-0.24,0c0-0.08,0-0.16,0-0.24
	c-0.477-0.004-0.305-0.654-0.96-0.479c0.064,0.863-0.443,1.156-0.479,1.92c-0.491,1.373-1.536,3.117-3.36,2.4
	c-1.247,1.891-2.347,3.574-4.56,3.359c-1.024-0.102-1.595-1.447-2.642-1.439C84.081,229.991,83.22,232.731,81.452,232.86z
	 M75.932,159.894c-3.264,3.523-4.52,6.396-6.239,11.521c-0.947,0.695-2.783,1.811-4.08,0.719c-1.396,3.16-3.92,7.211,0.719,8.402
	c0.851,0.129,0.59-0.854,1.441-0.721c0.36,1.391,0.332,2.922-0.722,3.119c0.595,0.285,0.938,0.82,1.199,1.439
	c-1.086,0.586-0.916,1.26-0.479,2.4c-0.845-0.043-0.791,0.811-1.441,0.959c0.852,1.465,0.842,2.906,0.721,4.082
	c1.734,1.533,2.604,2.902,3.359,5.039c-0.332,0.557-1.008,2.477,0,2.881c-0.002-1.043,0.355-1.727,1.201-1.92
	c1.74,1.299,4.211,1.869,6,3.119c2.32-1.758,4.934-3.691,7.921-3.359c0.021,1.141-1.458,0.781-1.921,1.439
	c-0.104,0.826,0.096,1.346,0.24,1.92c2.757,0.018,6.819-1.756,7.681,1.922c1.409-0.406,0.548-1.678,1.92-1.922
	c0.507,0.242,1.416,2.275,1.681,1.201c0.181-0.74-0.826-0.293-0.479-1.201c0.354-0.605,0.929-0.99,1.681-1.199
	c-0.17-3.678,4.286-3.783,4.32-6.48c0.766,0.205,0.742-0.377,1.2-0.479c1.041-3.775-0.707-8.779-0.96-12.24
	c1.41,0.287,3.939,1.404,5.279,0.238c-0.009-1.168,0.108-4.17-0.721-5.279c-0.2-1.35-1.74-3.549-2.64-2.641
	c-0.586,0.533-1.714,0.525-2.88,0.479c-2.046-1.16-1.891-3.541-2.642-5.52c-2.069-5.455-6.426-10.271-11.041-13.201
	c-0.118-0.758,1.191-0.088,0.96-0.959c-0.115-4.596-0.063-7.564,1.682-10.32c-0.949-0.332-1.489-1.072-1.682-2.16
	c-0.229-0.447,0.719-0.803,0-0.961c-0.035,0.535-0.604-0.313-1.2,0c-0.731-1.633-3.123-0.127-4.079-1.439
	c-0.962,0.238-1.259,1.143-2.642,0.959c0.445,1.654-0.01,2.242-0.959,3.84c1.066,1.854,1.822,7.254,1.92,10.563
	c0.359,0.041,0.885-0.086,0.959,0.24c-1.01,0.748-2.252,1.266-2.879,2.398C77.421,157.702,76.475,158.595,75.932,159.894z
	 M100.895,168.054c-1.409,0.529-1.399,5.404,0.479,4.561C103.396,172.282,103.586,167.278,100.895,168.054z M68.011,171.655
	c1.181-1.834-0.147-4.826-1.68-4.561C64.72,168.155,65.151,172.761,68.011,171.655z M78.573,148.612
	c0.309-0.566-0.031-0.447,0.24-1.199c-0.525-0.129-1.554-0.582-1.683,0.24C77.782,147.802,77.729,148.655,78.573,148.612z
	 M88.653,146.452c0.315,0.744-0.712,1.332,0,1.68C88.896,147.702,89.571,146.659,88.653,146.452z M77.853,144.532
	c-0.015-0.307-0.31-0.332-0.24-0.721c-0.48,0-0.961,0-1.439,0c-0.479,1.744,1.187,3.41,2.16,2.16
	C78.141,145.524,77.932,145.093,77.853,144.532z M88.893,145.253c1.507,0.984,3.459-0.58,2.399-2.16
	c-0.744-0.023-0.685,0.754-1.68,0.48C89.462,144.144,89.467,144.63,88.893,145.253z M74.491,143.333
	c0.309,0.012,0.334,0.307,0.721,0.238c-0.004-0.715-0.623-0.814-0.721-1.439c-0.277-0.354-0.277-0.604,0-0.959
	c-0.902,0.203-0.818,1.352-0.479,2.16C74.063,143.042,74.278,143.185,74.491,143.333z M77.853,142.372
	c0.625-1.125,0.209-3.016-1.201-2.881c-0.687,0.516-1.324,1.076-1.199,2.4C75.94,142.497,76.919,142.878,77.853,142.372z
	 M91.533,139.013c0.949,0.867,1.09,2.416,0.24,3.359c0.319,0,0.64,0,0.96,0c0.634-1.205-0.062-2.914-0.721-3.6
	c-1.523-1.98-2.879-4.816-4.561-5.281c-0.276-0.076-1.091,0.459-1.44,0.479c-1.967,0.123-4.762-0.268-7.198-0.238
	c-1.349,1.293-2.388,2.895-3.361,4.561c-0.295,0.283-1.188,1.188-0.479,1.68c0.217-0.424,0.579-0.701,0.721-1.199
	c0.596,0.035,0.996-0.125,1.199-0.48c-1.058-2.211,2.409-3.326,4.082-2.16c0.493-2.086,3.666-1.674,4.799-0.238
	c1.903-1.441,5.104,0.615,4.081,2.881C90.633,138.632,90.97,138.935,91.533,139.013z M88.413,140.933
	c0.028,2.396,4.144,1.545,2.16-1.201C89.407,139.329,88.403,140.052,88.413,140.933z M87.932,139.013
	c1.276-0.027,1.09-2.033,0.24-2.4c-0.014-0.146-0.036-0.285-0.24-0.24c-1.408-0.131-2.438,0.121-2.398,1.439
	C85.292,139.101,87.24,139.454,87.932,139.013z M80.253,138.772c0.438-0.693,0.39-0.752,0.24-1.682
	c-0.623-0.258-1.178-0.582-2.16-0.479c-0.553,0.607-0.244,1.17-0.479,1.68C78.397,138.706,79.194,138.87,80.253,138.772z
	 M83.853,136.132c-0.482-0.871-1.658-0.217-1.921,0.48c-0.286,2.535,4.028,1.584,2.16-0.24
	C84.079,136.226,84.057,136.087,83.853,136.132z"/>
<path fill="#697364" d="M105.454,175.495c-0.655-0.992-1.368-3.047-2.64-2.641C103.714,171.946,105.254,174.146,105.454,175.495z"/>
<path fill="#CDA96B" d="M78.333,156.772c-0.635,1.207-1.641,2.041-2.399,3.121C76.475,158.595,77.421,157.702,78.333,156.772z"/>
<path fill="#CDA96B" d="M105.454,175.495c0.829,1.109,0.712,4.111,0.721,5.279c-1.34,1.166-3.868,0.049-5.279-0.238
	c0.253,3.461,2.001,8.465,0.96,12.24c-0.458,0.104-0.436,0.686-1.2,0.48c-0.034,2.697-4.49,2.803-4.32,6.48
	c-0.752,0.207-1.326,0.594-1.681,1.199c-0.348,0.906,0.66,0.461,0.479,1.199c-0.265,1.074-1.174-0.959-1.681-1.199
	c-1.372,0.242-0.511,1.516-1.92,1.92c-0.86-3.678-4.924-1.902-7.681-1.92c-0.146-0.574-0.345-1.096-0.24-1.922
	c0.463-0.656,1.941-0.299,1.921-1.438c-2.987-0.332-5.602,1.602-7.921,3.359c-1.789-1.25-4.26-1.82-6-3.119
	c-0.847,0.193-1.203,0.877-1.201,1.92c-1.008-0.404-0.332-2.324,0-2.881c-0.756-2.139-1.625-3.508-3.359-5.041
	c0.121-1.174,0.132-2.615-0.721-4.08c0.65-0.148,0.598-1.002,1.441-0.959c-0.438-1.143-0.607-1.816,0.479-2.4
	c-0.262-0.619-0.604-1.154-1.199-1.439c1.054-0.199,1.082-1.73,0.722-3.121c-0.853-0.131-0.592,0.85-1.441,0.721
	c-4.639-1.191-2.115-5.242-0.719-8.402c1.297,1.094,3.133-0.021,4.08-0.719c1.721-5.125,2.977-7.998,6.24-11.52
	c0.76-1.08,1.766-1.914,2.399-3.121c0.627-1.135,1.869-1.65,2.879-2.398c-0.074-0.326-0.6-0.199-0.959-0.24
	c-0.098-3.309-0.854-8.709-1.92-10.563c0.949-1.6,1.404-2.188,0.959-3.84c1.383,0.184,1.681-0.723,2.642-0.959
	c0.957,1.313,3.348-0.193,4.079,1.438c0.427,0.295,0.974,0.467,1.2,0.961c0.191,1.088,0.731,1.828,1.682,2.16
	c-1.744,2.758-1.797,5.729-1.682,10.32c0.231,0.871-1.078,0.201-0.96,0.959c4.615,2.93,8.972,7.746,11.041,13.201
	c0.751,1.98,0.597,4.361,2.642,5.521c1.166,0.047,2.294,0.055,2.88-0.48C104.086,172.448,104.799,174.503,105.454,175.495z
	 M105.694,178.854c-0.597-0.439-1.354,0.389-1.681-0.479c0.341-1.447-0.166-3.301-1.439-3.842c0.071,1.057,0.989,2.521,0.24,3.602
	c-0.581-0.346-1.232-1.473-1.92-0.961c0.5,1.801,2.942,2.461,4.319,2.641C105.34,179.46,105.569,179.21,105.694,178.854z
	 M90.573,188.456c2.154,1.496,5.465,2.307,7.2,0.721c0.458,0.104,0.435,0.688,1.199,0.48c0.26-0.613-1.032-0.842-0.238-1.201
	c1.118,0.322,1.533,1.348,2.398,1.92c0.627-0.859-0.767-1.361-0.96-2.16c0.146,0.141,1.14,0.564,1.2,0
	c-0.597-0.682-1.802-0.758-2.16-1.68c1.63-5.271-12.204-7.818-10.561-0.721c0.054-0.186,0.007-0.473,0.24-0.479
	c0.098,0.578-0.438,0.521-0.24,1.199C89.028,187.44,89.668,188.081,90.573,188.456z M80.493,191.097
	c-1.541-0.33-3.117,0.963-5.041,1.199c-2.26,0.279-4.982-0.578-5.76,0.48C72.735,195.14,78.438,193.356,80.493,191.097z
	 M100.654,192.296c-3.177-0.203-9.001,0.451-12.001-2.16C89.514,194.776,97.604,194.048,100.654,192.296z M70.651,189.657
	c0.598,0.037,0.744-0.379,1.201-0.48c2.735,2.412,9.196-0.643,9.12-4.08c-0.143-6.4-11.907-4.016-10.803,1.922
	c-0.863,0.336-1.809,0.59-2.16,1.438c0.256,0.57,1.105-0.514,1.441,0.24c-0.553,0.182-1.607,1.096-0.961,1.68
	c0.662-0.459,1.176-1.063,1.92-1.438C70.45,189.218,70.37,189.618,70.651,189.657z M68.491,176.454
	c-0.957-0.236-0.724,0.719-1.68,0.48c-0.146-1.17,0.87-2.828,0.239-3.6c-0.787,0.963-1.285,2.707-0.961,4.08
	c-0.322,0.477-1.676-0.076-1.68,0.721C65.419,179.501,68.173,177.993,68.491,176.454z M81.452,176.454
	c1.479-2.826,5.726-1.021,7.44-0.479c-1.555-3-6.315-2.74-8.399,0.24C80.946,176.161,81.022,176.485,81.452,176.454z
	 M87.693,170.454c2.226-1.471,4.849-1.436,6.721-1.68c-2.066-2.613-5.086-5.549-8.881-6c-5.772-0.688-9.893,2.695-11.28,7.439
	c2.92-0.121,5.566-1.295,8.4,0.24c0.936-0.584,1.147-1.893,2.399-2.16C85.961,168.985,86.323,170.224,87.693,170.454z
	 M85.533,154.612c0.023-1.275-4.091-0.836-3.36,0C83.093,154.384,84.089,154.636,85.533,154.612z"/>
<path fill="#697364" d="M90.573,188.456c-0.905-0.375-1.545-1.016-1.92-1.92C89.372,187.097,89.844,187.905,90.573,188.456z"/>
<path fill="#697364" d="M70.651,189.657c-0.281-0.039-0.201-0.439-0.24-0.721c-0.744,0.375-1.258,0.98-1.92,1.439
	c0.598-0.844,1.371-1.51,2.399-1.92C70.989,189.034,70.454,188.978,70.651,189.657z"/>
<path fill="#697364" d="M93.693,186.776c-0.07,0.146-0.598,0.924,0,0.959c-0.667,0.729-0.344-1.563-1.681-0.959
	c0.038,0.281,0.438,0.203,0.721,0.24c-0.036,0.443-0.813,0.146-0.96,0.479c0.834,0.652,1.111,0.904,2.16,0.721
	c-0.074-0.561-0.471-0.992,0-1.439c1.604,0.236,2.809,0.871,3.359,2.16c-0.564-0.006-0.707,0.412-1.439,0.24
	c-0.176-0.656,0.478-0.484,0.479-0.961c-1.093,0.932-1.976-0.332-2.641,0.48c-1.888-0.355-2.843-1.641-4.08-2.643
	C90.672,185.339,92.026,186.589,93.693,186.776z M91.533,186.296c-0.359,0.797-1.002-0.949-1.2,0.24
	c0.82,0.098,0.306,0.648,1.2,0.24c0.153,0.523-0.68,0.764,0.24,0.721C91.643,187.147,92.054,186.255,91.533,186.296z
	 M94.893,187.735c0.414,0.014,0.615-0.184,0.721-0.479c-0.731-0.012-1.223,0.217-1.439,0.721c0.755-0.275,0.583,0.377,0.96,0.479
	C95.145,188.126,95.021,187.929,94.893,187.735z"/>
<path fill="#697364" d="M95.854,189.177c-1.354-0.02-1.129-0.139-2.16-0.48c0.665-0.813,1.548,0.451,2.641-0.48
	C96.331,188.692,95.679,188.521,95.854,189.177z"/>
<path fill="#697364" d="M74.491,189.177c-0.08-0.482,0.051-0.752,0.479-0.721c-0.098-0.811-0.93,0.639-0.719-0.48
	c0.5,0.102,0.635-0.164,0.959-0.24c-0.127-0.191-0.25-0.389-0.24-0.719c0-0.08,0-0.16,0-0.24c0.681,0.197,0.623-0.338,1.201-0.24
	c0.56,1.326,0.711,1.264,1.199,1.199c0.373-0.268,0.5-0.779,1.201-0.719C77.587,188.11,76.114,188.718,74.491,189.177z
	 M76.173,188.216c-0.741-0.588,0.689,0.264,0.479-0.24c-0.42,0.066-0.438-1.434-0.719-0.721c0.75,0.729-0.785,0.232-0.722,0.961
	C75.759,187.886,76.114,188.835,76.173,188.216z"/>
<path fill="#697364" d="M78.573,186.056c-0.5-0.129-0.51,0.936-0.24,0.24c0.84,0.479-0.705,0.547-0.721,0.959
	c0.063-0.93-0.019-0.436-0.961-0.719C77.333,186.56,78.239,185.585,78.573,186.056z"/>
<path fill="#697364" d="M74.731,187.017c-1.496,0.484-0.689,0.854-1.92,1.199c0.127,0.193,0.25,0.391,0.239,0.721
	c0.688,0.338,1.312-0.744,1.201,0.24c-0.815-0.066-1.947,0.186-2.399-0.24C72.771,188.255,73.153,187.038,74.731,187.017z"/>
<path fill="#697364" d="M74.491,189.177c-0.078,0-0.158,0-0.238,0c0.109-0.984-0.514,0.098-1.201-0.24
	c0.011-0.33-0.112-0.527-0.239-0.721c1.229-0.346,0.424-0.715,1.92-1.199c0.08,0,0.16,0,0.24,0c-0.011,0.33,0.112,0.525,0.239,0.719
	c-0.324,0.076-0.459,0.342-0.959,0.24c-0.211,1.119,0.621-0.33,0.72,0.48C74.542,188.425,74.411,188.694,74.491,189.177z"/>
<path fill="#697364" d="M78.573,187.017c-0.701-0.061-0.828,0.451-1.201,0.719c-0.488,0.064-0.641,0.127-1.199-1.199
	c0.16,0,0.32,0,0.479,0c0.942,0.283,1.022-0.211,0.961,0.721c0.016-0.412,1.561-0.48,0.721-0.961c-0.27,0.695-0.26-0.367,0.24-0.24
	c0.193-0.205,0.656-0.143,0.719-0.479C79.958,186.026,79.098,186.962,78.573,187.017z"/>
<path fill="#697364" d="M75.212,188.216c-0.063-0.729,1.472-0.232,0.722-0.961c0.28-0.713,0.299,0.787,0.719,0.721
	c0.211,0.504-1.221-0.348-0.479,0.24C76.114,188.835,75.759,187.886,75.212,188.216z"/>
<path fill="#697364" d="M93.934,186.776c-0.471,0.447-0.074,0.879,0,1.439c-1.049,0.184-1.326-0.066-2.16-0.721
	c0.146-0.332,0.924-0.035,0.96-0.479c-0.282-0.037-0.683,0.041-0.721-0.24c1.337-0.604,1.014,1.688,1.681,0.959
	c-0.598-0.035-0.07-0.813,0-0.959C93.773,186.776,93.854,186.776,93.934,186.776z"/>
<path fill="#697364" d="M95.134,188.456c-0.377-0.104-0.205-0.754-0.96-0.479c0.219-0.504,0.708-0.732,1.439-0.721
	c-0.104,0.295-0.307,0.492-0.721,0.479C95.021,187.929,95.145,188.126,95.134,188.456z"/>
<path fill="#252724" d="M88.653,186.536c-0.198-0.678,0.338-0.621,0.239-1.199c-0.232,0.006-0.187,0.293-0.239,0.479
	c-1.645-7.098,12.189-4.551,10.561,0.721c0.358,0.922,1.563,0.998,2.16,1.68c-0.062,0.564-1.055,0.141-1.2,0
	c0.193,0.799,1.587,1.301,0.96,2.16c-0.866-0.572-1.28-1.598-2.398-1.92c-0.794,0.359,0.498,0.588,0.239,1.201
	c-0.767,0.205-0.742-0.379-1.2-0.48c-1.735,1.586-5.046,0.775-7.2-0.721C89.844,187.905,89.372,187.097,88.653,186.536z
	 M95.854,189.177c0.732,0.172,0.875-0.246,1.439-0.24c-0.552-1.289-1.757-1.924-3.359-2.16c-0.08,0-0.16,0-0.24,0
	c-1.667-0.188-3.021-1.438-4.08-0.721c1.238,1.002,2.193,2.287,4.08,2.641C94.725,189.04,94.499,189.157,95.854,189.177z
	 M89.373,184.856c0.864-0.064,1.157,0.443,1.92,0.479c0.674-0.445,0.793-1.447,1.682-1.68c0.768-0.105,2.809,0.691,2.399,2.398
	c0.835,0.055,2.685,1.355,3.12,0.24C98.562,182.426,90.38,180.581,89.373,184.856z M93.453,185.815c0.32,0,0.641,0,0.961,0
	C94.603,184.892,93.266,184.892,93.453,185.815z"/>
<path fill="#9ABAC7" d="M94.414,185.815c-0.32,0-0.641,0-0.961,0C93.266,184.892,94.603,184.892,94.414,185.815z"/>
<path fill="#697364" d="M101.374,172.614c-1.879,0.844-1.889-4.031-0.479-4.561C103.586,167.278,103.396,172.282,101.374,172.614z"
	/>
<path fill="#697364" d="M66.331,167.095c1.531-0.266,2.859,2.727,1.68,4.561C65.151,172.761,64.72,168.155,66.331,167.095z
	 M65.85,170.214c0.16,0,0.32,0,0.48,0c0.037,0.283-0.041,0.684,0.24,0.723c-0.043-0.922,0.197-0.09,0.721-0.24
	C67.421,170.062,65.899,169.878,65.85,170.214z"/>
<path fill="#697364" d="M67.292,170.694c-0.522,0.152-0.764-0.68-0.721,0.24c-0.281-0.039-0.203-0.438-0.24-0.721
	c-0.16,0-0.32,0-0.479,0C65.899,169.878,67.421,170.062,67.292,170.694z"/>
<path fill="#A5703C" d="M76.173,169.015c1.187-6.613,13.336-6.98,16.32-0.961c-2.113-0.113-3.325,0.676-4.8,1.201
	c-1.52-1.939-4.415-2.547-5.521,0.24C80.091,168.659,78.271,168.339,76.173,169.015z M82.653,166.374
	c3.597-0.586,6.794,1.336,9.12,0.961c-1.599-0.631-3.307-1.588-5.28-1.922c-2.611-0.439-6.471,0.18-8.641,1.441
	c-0.287,0.166-1.935,1.322-0.962,1.68C78.737,167.663,80.61,166.708,82.653,166.374z"/>
<path fill="#252724" d="M82.173,154.612c-0.729-0.836,3.386-1.275,3.36,0C84.089,154.636,83.093,154.384,82.173,154.612z"/>
<path fill="#A5703C" d="M88.653,148.132c-0.712-0.348,0.315-0.936,0-1.68C89.571,146.659,88.896,147.702,88.653,148.132z"/>
<path fill="#A5703C" d="M78.333,145.972c-0.975,1.25-2.639-0.416-2.16-2.16c0.479,0,0.959,0,1.439,0
	c-0.068,0.389,0.227,0.414,0.24,0.721c-0.464,0.445-0.189,0.439-0.962,0.24C77.534,145.011,77.698,145.728,78.333,145.972z"/>
<path fill="#A5703C" d="M78.333,145.972c-0.635-0.244-0.799-0.961-1.44-1.199c0.771,0.199,0.498,0.205,0.961-0.24
	C77.932,145.093,78.141,145.524,78.333,145.972z"/>
<path fill="#CDA96B" d="M74.491,143.333c-0.213-0.146-0.428-0.291-0.479,0c-0.34-0.811-0.424-1.957,0.479-2.16
	c-0.277,0.355-0.277,0.605,0,0.959c-0.158,0-0.318,0-0.479,0C73.807,142.897,74.391,142.874,74.491,143.333z"/>
<path fill="#CDA96B" d="M74.491,142.132c0.098,0.625,0.717,0.725,0.721,1.439c-0.387,0.066-0.412-0.229-0.721-0.238
	c-0.103-0.459-0.687-0.436-0.479-1.201C74.173,142.132,74.333,142.132,74.491,142.132z"/>
<path fill="#A5703C" d="M75.452,141.892c-0.125-1.324,0.514-1.885,1.199-2.4c1.41-0.135,1.826,1.756,1.201,2.881
	C76.919,142.878,75.94,142.497,75.452,141.892z M77.132,142.132c-1.021-0.244,1.263-0.234,0.24-0.48
	c-0.615,0.516-1.359-0.221-1.68,0.24C75.968,142.065,77.759,142.573,77.132,142.132z M77.853,141.411
	c-0.037-0.281,0.04-0.68-0.24-0.719c-0.054,0.186-0.006,0.473-0.24,0.48c0.521-0.969-1.688-1.059-0.959-0.721
	c0.283,0.115,0.543,0.256,0.719,0.479c-0.33,0.012-0.526-0.111-0.719-0.238C76.391,141.435,77.138,141.407,77.853,141.411z"/>
<path fill="#A5703C" d="M75.692,141.892c0.319-0.461,1.063,0.275,1.68-0.24c1.021,0.246-1.262,0.236-0.24,0.48
	C77.759,142.573,75.968,142.065,75.692,141.892z"/>
<path fill="#CDA96B" d="M75.692,138.772c-0.142,0.498-0.504,0.775-0.722,1.199c-0.707-0.492,0.187-1.396,0.48-1.68
	C75.507,138.478,75.458,138.765,75.692,138.772z"/>
<path fill="#A5703C" d="M76.413,140.692c0.191,0.127,0.389,0.25,0.719,0.24c-0.176-0.225-0.436-0.365-0.719-0.48
	c-0.729-0.338,1.479-0.248,0.959,0.721c0.234-0.008,0.188-0.295,0.24-0.479c0.28,0.039,0.203,0.438,0.24,0.719
	C77.138,141.407,76.391,141.435,76.413,140.692z"/>
<path fill="#CDA96B" d="M91.533,139.013c-0.563-0.078-0.9-0.381-1.68-0.24c1.021-2.264-2.178-4.322-4.081-2.881
	c-1.134-1.434-4.306-1.846-4.8,0.24c-1.672-1.166-5.139-0.051-4.082,2.16c-0.202,0.355-0.604,0.516-1.198,0.48
	c-0.234-0.01-0.187-0.295-0.24-0.48c0.975-1.666,2.014-3.268,3.361-4.561c2.438-0.027,5.231,0.361,7.198,0.238
	c0.351-0.02,1.164-0.557,1.44-0.479c1.682,0.465,3.036,3.301,4.561,5.281C92.026,139.22,91.829,139.28,91.533,139.013z"/>
<path fill="#A5703C" d="M87.932,136.372c0.268,0.846-0.848,1.266-0.238,0.48c-0.219-0.213-0.709-0.041-1.44-0.238
	c0.597,0.416,0.394,0.619-0.24,0.238c0.027,0.293,0.072,0.566,0.48,0.479c-0.357,0.518-0.678-0.262-0.96,0.48
	C85.495,136.493,86.523,136.241,87.932,136.372z"/>
<path fill="#A5703C" d="M87.932,139.013c-0.691,0.441-2.641,0.088-2.398-1.201c0.282-0.742,0.603,0.037,0.96-0.48
	c-0.408,0.088-0.453-0.188-0.48-0.479c0.634,0.381,0.837,0.178,0.24-0.238c0.731,0.197,1.222,0.025,1.44,0.238
	c-0.608,0.785,0.506,0.365,0.238-0.48c0.204-0.045,0.228,0.094,0.24,0.24c-0.104,0.533,0.741,1.301,0.24,1.439
	c-0.92,0.043-0.087-0.197-0.24-0.721c-0.377,0.104-0.205,0.756-0.96,0.48c0.158,0.32,0.513,0.445,0.96,0.479
	c0.745,0.309-0.681,0.309-0.72,0C87.381,138.763,87.777,138.769,87.932,139.013z"/>
<path fill="#A5703C" d="M87.932,139.013c-0.154-0.244-0.552-0.25-0.479-0.721c0.039,0.309,1.465,0.309,0.72,0
	c-0.446-0.033-0.802-0.158-0.96-0.48c0.755,0.275,0.583-0.377,0.96-0.48c0.153,0.523-0.68,0.764,0.24,0.721
	c0.501-0.139-0.346-0.904-0.24-1.438C89.021,136.979,89.209,138.985,87.932,139.013z"/>
<path fill="#A5703C" d="M77.853,138.292c0.235-0.51-0.072-1.07,0.479-1.68c0.982-0.104,1.537,0.221,2.16,0.479
	c0.148,0.932,0.197,0.988-0.24,1.684C79.194,138.87,78.397,138.706,77.853,138.292z"/>
<path fill="#A5703C" d="M84.093,136.372c1.868,1.824-2.446,2.775-2.159,0.24c0.262-0.697,1.438-1.352,1.92-0.48
	c0,0.16,0,0.32,0,0.48c-0.232-0.008-0.187-0.295-0.24-0.48c-0.355,0.203-0.348,0.771-0.479,1.199c0.32-0.303,0.472-0.721,0.959-0.24
	C84.093,136.851,84.093,136.612,84.093,136.372z"/>
<path fill="#A5703C" d="M84.093,136.372c0,0.24,0,0.48,0,0.719c-0.487-0.479-0.639-0.063-0.959,0.24
	c0.132-0.428,0.123-0.996,0.479-1.199c0.055,0.188,0.008,0.475,0.24,0.48c0-0.16,0-0.32,0-0.48
	C84.057,136.087,84.079,136.226,84.093,136.372z"/>
<path fill="#697364" d="M91.773,187.497c-0.92,0.043-0.087-0.197-0.24-0.721c-0.896,0.408-0.38-0.143-1.2-0.24
	c0.198-1.189,0.841,0.557,1.2-0.24C92.054,186.255,91.643,187.147,91.773,187.497z"/>
<path fill="#9ABAC7" d="M80.013,184.856c-1.297,0.686-2.184-0.039-2.641,0.479c-0.789,0.176-0.367-0.477,0-0.479
	c-0.195-1.984-3.889-1.051-3.359,1.199c-1.196,0.238-2.469,0.971-3.12,0.48C71.534,182.044,78.634,180.595,80.013,184.856z"/>
<path fill="#9ABAC7" d="M75.932,185.337c0.298,0.775-0.776,0.184-0.479,0.959c-0.342-0.293-0.545-0.916-0.24-1.199
	C75.405,185.222,75.603,185.347,75.932,185.337z"/>
<path fill="#A5703C" d="M89.613,143.571c0.995,0.275,0.936-0.504,1.68-0.479c1.06,1.58-0.894,3.145-2.398,2.16
	C89.467,144.63,89.462,144.144,89.613,143.571z"/>
<path fill="#CDA96B" d="M92.014,138.772c0.659,0.686,1.354,2.395,0.721,3.6c-0.32,0-0.641,0-0.96,0
	c0.85-0.943,0.709-2.492-0.24-3.359C91.829,139.28,92.026,139.22,92.014,138.772z"/>
<path fill="#9ABAC7" d="M98.494,186.296c-0.438,1.115-2.285-0.188-3.12-0.24c0.408-1.707-1.633-2.504-2.399-2.398
	c-0.889,0.23-1.008,1.232-1.682,1.68c-0.763-0.035-1.056-0.543-1.92-0.479C90.38,180.581,98.562,182.426,98.494,186.296z"/>
<path fill="#A5703C" d="M77.132,147.653c0.129-0.822,1.156-0.369,1.683-0.24c-0.271,0.752,0.067,0.633-0.24,1.199
	C77.729,148.655,77.782,147.802,77.132,147.653z"/>
<path fill="#A5703C" d="M90.573,139.731c1.983,2.746-2.132,3.598-2.16,1.201C88.403,140.052,89.407,139.329,90.573,139.731z"/>
<path fill="#252724" d="M69.692,192.776c0.776-1.059,3.5-0.201,5.76-0.48c1.924-0.234,3.5-1.527,5.041-1.199
	C78.438,193.356,72.735,195.14,69.692,192.776z"/>
<path fill="#252724" d="M88.653,190.136c3,2.611,8.824,1.955,12.001,2.16C97.604,194.048,89.514,194.776,88.653,190.136z"/>
<path fill="#252724" d="M68.491,190.376c-0.646-0.584,0.408-1.498,0.961-1.68c-0.336-0.754-1.187,0.33-1.441-0.24
	c0.353-0.848,1.298-1.104,2.16-1.438c-1.104-5.938,10.66-8.322,10.804-1.922c0.075,3.438-6.386,6.492-9.121,4.08
	c-0.457,0.104-0.604,0.518-1.201,0.48c-0.197-0.68,0.338-0.623,0.24-1.201C69.862,188.866,69.089,189.534,68.491,190.376z
	 M74.491,189.177c1.623-0.459,3.096-1.066,4.082-2.16c0.522-0.055,1.385-0.99,0.719-1.441c-0.063,0.338-0.524,0.273-0.719,0.48
	c-0.334-0.471-1.24,0.504-1.922,0.48c-0.158,0-0.318,0-0.479,0c-0.578-0.1-0.521,0.438-1.201,0.24c0,0.08,0,0.16,0,0.238
	c-0.08,0-0.159,0-0.239,0c-1.578,0.021-1.961,1.238-2.88,1.922c0.453,0.426,1.585,0.174,2.4,0.238
	C74.333,189.177,74.413,189.177,74.491,189.177z M70.891,186.536c0.652,0.49,1.925-0.24,3.121-0.48
	c-0.528-2.248,3.164-3.184,3.359-1.199c-0.367,0.004-0.789,0.654,0,0.48c0.457-0.52,1.344,0.205,2.641-0.48
	C78.634,180.595,71.534,182.044,70.891,186.536z M75.212,185.095c-0.305,0.285-0.102,0.908,0.24,1.201
	c-0.297-0.777,0.777-0.184,0.479-0.961C75.603,185.347,75.405,185.222,75.212,185.095z"/>
<path fill="#252724" d="M85.054,168.294c-1.252,0.27-1.465,1.576-2.399,2.16c-2.834-1.535-5.48-0.361-8.4-0.24
	c1.389-4.744,5.508-8.127,11.28-7.438c3.795,0.451,6.813,3.387,8.881,6c-1.872,0.244-4.495,0.209-6.721,1.68
	C86.323,170.224,85.961,168.985,85.054,168.294z M82.173,169.495c1.105-2.787,4.002-2.18,5.521-0.24
	c1.475-0.523,2.687-1.313,4.8-1.201c-2.984-6.02-15.135-5.65-16.32,0.961C78.271,168.339,80.091,168.659,82.173,169.495z"/>
</svg>
