<?xml version="1.0" encoding="utf-8"?>
<!-- Generator: Adobe Illustrator 15.1.0, SVG Export Plug-In  -->
<!DOCTYPE svg PUBLIC "-//W3C//DTD SVG 1.1 Tiny//EN" "http://www.w3.org/Graphics/SVG/1.1/DTD/svg11-tiny.dtd" [
	<!ENTITY ns_flows "http://ns.adobe.com/Flows/1.0/">
]>
<svg version="1.1" baseProfile="tiny"
	 xmlns="http://www.w3.org/2000/svg" xmlns:xlink="http://www.w3.org/1999/xlink" xmlns:a="http://ns.adobe.com/AdobeSVGViewerExtensions/3.0/"
	 x="0px" y="0px" width="167px" height="258px" viewBox="0.002 0.003 167 258" xml:space="preserve">
<defs>
</defs>
<path fill="#00B3F2" d="M167.244,240.945c0,9.354-7.653,17.008-17.008,17.008H17.008C7.653,257.953,0,250.3,0,240.945V17.008
	C0,7.653,7.653,0,17.008,0h133.229c9.354,0,17.008,7.653,17.008,17.008V240.945z"/>
<path fill="none" stroke="#FFFFFF" stroke-width="2" stroke-miterlimit="10" d="M160.866,239.24c0,7.047-5.822,12.756-13.008,12.756
	H19.386c-7.186,0-13.008-5.709-13.008-12.756V18.722c0-7.046,5.822-12.762,13.008-12.762h128.473
	c7.186,0,13.008,5.716,13.008,12.762V239.24z"/>
<path fill="#A6713B" d="M167.244,240.945c0,9.354-7.653,17.008-17.008,17.008H17.008C7.653,257.953,0,250.3,0,240.945V17.008
	C0,7.653,7.653,0,17.008,0h133.229c9.354,0,17.008,7.653,17.008,17.008V240.945z"/>
<path fill="none" stroke="#FFFFFF" stroke-width="2" stroke-miterlimit="10" d="M160.866,239.24c0,7.047-5.822,12.756-13.008,12.756
	H19.386c-7.186,0-13.008-5.709-13.008-12.756V18.722c0-7.046,5.822-12.762,13.008-12.762h128.473
	c7.186,0,13.008,5.716,13.008,12.762V239.24z"/>
<path fill="#4D4534" d="M80.63,31.021c-0.343,0.409-1.306,0.833-1.686,0.482C79.524,31.331,80.225,30.645,80.63,31.021z"/>
<path fill="#4D4534" d="M72.924,31.984c0.1,0.58-0.439,0.523-0.24,1.204c-0.504,0.102-0.639-0.165-0.963-0.241
	C72.03,32.535,72.218,32.001,72.924,31.984z"/>
<path fill="#4D4534" d="M69.313,35.115c0.917-0.18,0.521,1.56-0.241,1.204C68.872,35.64,69.41,35.695,69.313,35.115z"/>
<path fill="#4D4534" d="M72.202,38.005c0.963-0.08,1.336,0.429,2.408,0.241C74.537,38.965,71.947,39.099,72.202,38.005z"/>
<path fill="#4D4534" d="M76.536,38.486c0.831-0.304,2.299-0.264,3.372,0.241C79.274,39.109,77.389,38.686,76.536,38.486z"/>
<path fill="#827651" d="M76.055,39.932c0.97,0.155,2.562-0.313,3.131,0.241C78.216,40.019,76.625,40.485,76.055,39.932z"/>
<path fill="#4D4534" d="M51.01,43.303c0.963,0,1.927,0,2.891,0C53.484,43.702,51.425,43.702,51.01,43.303z"/>
<path fill="#BEA466" d="M90.745,45.47c-0.399,1.339-1.912,0.136-3.131,0.722C87.846,44.379,89.534,45.415,90.745,45.47z"/>
<path fill="#4D4534" d="M46.916,45.23c-0.021,0.342-0.04,0.682,0.241,0.722c-0.189,0.553-1.491,0.234-1.204-0.481
	C46.167,45.283,46.496,45.211,46.916,45.23z"/>
<path fill="#BEA466" d="M89.3,46.674c0.557-0.074,0.269,0.696,0.724,0.722c-0.074,0.327-0.604,0.2-0.964,0.241
	C89.028,47.207,89.354,47.129,89.3,46.674z"/>
<path fill="#4D4534" d="M56.549,48.602c0.711,0.361,0.386,1.205-0.48,1.204C55.889,49.064,56.729,49.342,56.549,48.602z"/>
<path fill="#4D4534" d="M52.455,50.288c0.294-0.729,0.919,0.17,1.204,0.241C53.418,51.204,52.545,50.552,52.455,50.288z"/>
<path fill="#4D4534" d="M78.223,51.491c1.056-0.253,0.791,0.814,1.686,0.722C79.711,53.089,78.127,52.375,78.223,51.491z"/>
<path fill="#4D4534" d="M112.899,58.957c-0.575,0.629-0.985,1.423-1.927,1.686C110.867,59.332,111.962,59.222,112.899,58.957z"/>
<path fill="#4D4534" d="M110.251,60.401c0.146,0.477-0.655,2.066-1.686,2.167C108.781,61.5,109.536,60.97,110.251,60.401z"/>
<path fill="#4D4534" d="M97.006,96.282c-0.154,1.049,0.314,2.723-0.24,3.371C96.921,98.605,96.451,96.933,97.006,96.282z"/>
<path fill="#2A2E29" d="M84.725,96.765c0.657-0.176,0.484,0.479,0.963,0.48c-0.062,1.156-0.992,1.365-1.687,0.723
	C83.889,97.212,84.303,96.984,84.725,96.765z"/>
<path fill="#2A2E29" d="M83.038,97.968c0.526,0.036,0.517,0.607,0.481,1.204C83.031,98.996,82.537,98.447,83.038,97.968z"/>
<path fill="#4D4534" d="M89.3,101.1c-0.777-0.186-1.26-0.666-1.444-1.445C88.508,99.177,89.168,100.301,89.3,101.1z"/>
<path fill="#2A2E29" d="M84.725,99.653c0.752-0.109,0.77,0.515,0.723,1.204C84.665,100.937,84.164,100.21,84.725,99.653z"/>
<path fill="#4D4534" d="M85.93,102.063c0.423,0.059,0.549,0.415,0.48,0.964c0.683-0.415,1.921-0.54,2.167-0.724
	c0.456,1.265-0.071,3.617-1.204,4.095c0.294-1.195-0.146-0.238-0.723-1.445c0.594,0.032,1.161,0.037,1.445-0.24
	c-0.074-0.563-0.473-0.995,0-1.444c-0.737,0.306-2.074,0.013-1.928,1.203C85.191,104.345,85.264,102.487,85.93,102.063z"/>
<path fill="#4D4534" d="M86.41,106.155c-1.636,0.111-3.037-0.013-2.89-1.687C84.346,105.597,85.836,105.214,86.41,106.155z"/>
<path fill="#4D4534" d="M87.854,108.805c-0.175-0.548-1.666,0.223-1.444-0.723C86.954,107.922,87.962,107.72,87.854,108.805z"/>
<path fill="#4D4534" d="M85.206,110.732c-0.459,0.584-0.631,1.455-0.963,2.167C83.371,112.589,84.213,110.688,85.206,110.732z"/>
<path fill="#4D4534" d="M84.002,114.104c0.1,0.58-0.439,0.522-0.24,1.204C82.721,115.237,83.075,114.032,84.002,114.104z"/>
<path fill="#4D4534" d="M116.512,59.919c0.795,0.089,1.204,0.563,1.688,0.963c0.105,0.214,0.211,0.431,0.48,0.481
	C118.228,61.565,116.975,60.509,116.512,59.919z"/>
<path fill="#4D4534" d="M100.859,92.43c1.217,0.469,1.832,1.539,2.647,2.407C102.193,94.466,101.731,93.242,100.859,92.43z"/>
<path fill="#4D4534" d="M125.904,106.878c0.697,0.747,1.744,1.146,2.167,2.168c-0.933-0.434-1.642-1.088-2.167-1.927
	C125.904,107.039,125.904,106.958,125.904,106.878z"/>
<path fill="#BEA466" d="M113.382,102.063c0.872,0.652,2.266,0.784,3.13,1.444c0.44,0.765,1.569,0.84,2.408,1.204
	c1.808,0.684,3.708,1.271,5.059,2.408c0.79,0.815,1.847,1.364,2.647,2.167c3.626,4.633,2.211,9.69,3.131,16.616
	c-0.642,0-1.284,0-1.927,0c-0.271-5.021-0.922-10.876-2.648-14.689c-0.35,2.033,0.39,4.717,0.724,7.226
	c0.345,2.596,0.611,5.195,1.204,7.465c0,0.081,0,0.161,0,0.241c-0.081,0-0.161,0-0.241,0c-1.929-0.562-4.896-0.082-7.225-0.241
	c-0.259-9.003-0.27-13.116-3.132-20.951c-0.664,2.404,1.37,6.514,1.204,10.597c0.188,1.245-0.009,1.725,0.482,2.891
	c0.238,2.489,0.231,5.226,0.722,7.465c-2.432-0.269-5.397,0.159-8.429,0c0.812-5.138-0.71-7.43,0-10.836
	c0.481-2.314,3.337-4.482,2.649-7.466c-0.957-0.452-2.324-0.156-2.891,0.48c-0.766-2.695-0.132-4.317-1.445-6.742
	c-0.918,0.863,0.722,5.313,0.241,7.225c-0.479-0.4-0.307,0.021-0.964,0c-1.781-2.68-1.865-6.244-2.89-9.393
	c1.415,0.271,2.303,1.069,3.854,1.204c0.16,0,0.321,0,0.481,0C110.348,101.401,111.856,101.741,113.382,102.063z"/>
<path fill="#4D4534" d="M106.88,120.846c0.607-0.597,0.491-1.916,1.444-2.168C107.76,119.318,107.672,120.435,106.88,120.846z"/>
<path fill="#BEA466" d="M99.414,125.662c0.653-3.762,0.926-9.426,1.445-14.208c1.013-0.05,1.011,0.915,1.926,0.963
	c2.555-1.859,5.73-3.101,9.151-4.094c-1.412,6.134-5.339,9.753-7.466,15.171c1.052,0.323,1.946-1.58,2.408-2.648
	c0.792-0.411,0.88-1.526,1.444-2.168c0.645-0.479,0.515-1.731,1.445-1.926c-0.321,2.991,0.021,4.213,0,9.15
	C106.391,125.75,102.395,126.214,99.414,125.662z M109.528,111.694C112.137,111.113,108.416,108.802,109.528,111.694
	L109.528,111.694z"/>
<path fill="#4D4534" d="M78.704,117.715c-0.755-0.851-1.3-1.91-1.686-3.131C77.695,115.515,78.185,116.629,78.704,117.715z"/>
<path fill="#827651" d="M51.01,103.748c0.291-0.833,1.478-0.771,2.168-1.204C52.707,103.197,51.7,103.315,51.01,103.748z"/>
<path fill="#4D4534" d="M60.643,71.237c0.393-0.532,1.414,0.336,1.927,0.481c-0.39,0.509,0.956,2.325,1.926,1.445
	c0.04,0.484,0.468,1.617,0.241,2.167C63.651,73.688,62.26,72.351,60.643,71.237z"/>
<path fill="#4D4534" d="M49.565,50.288c0.88,0.725,2.649,0.561,3.13,1.686C51.535,51.527,50.325,51.132,49.565,50.288z"/>
<path fill="#827651" d="M46.435,48.119c1.021,0.505,1.907,1.142,2.648,1.926C47.719,49.885,47.132,48.946,46.435,48.119z"/>
<path fill="#4D4534" d="M59.198,43.063c-0.366,0.745-1.912,0.265-2.649,0c0.401,0,0.804,0,1.204,0
	C58.234,43.063,58.716,43.063,59.198,43.063z"/>
<path fill="#4D4534" d="M83.279,25.001c-0.236,1.129-1.437,1.294-1.926,2.167C81.209,26.614,82.343,25.275,83.279,25.001z"/>
<path fill="#827651" d="M65.941,40.896c-0.121-1.485,0.109-2.619,0.722-3.372C66.401,38.626,66.359,39.949,65.941,40.896z"/>
<path fill="#827651" d="M85.93,48.841c-0.957-0.408-2.194-0.535-2.891-1.204c0.093-0.231,1.576,0.174,1.687,0.723
	c0.717,0.012,1.222-0.708,1.686-0.241C86.325,48.437,85.986,48.499,85.93,48.841z"/>
<path fill="#4D4534" d="M91.708,42.339c0.318-0.458,1.52,0.231,1.927,0.482C93.301,43.294,92.391,42.316,91.708,42.339z"/>
<path fill="#4D4534" d="M86.169,40.896c0.392,0.493,1.777-0.011,2.168,0.481c0.044,0.205-0.095,0.228-0.241,0.241
	c-0.079,0-0.159,0-0.24,0C87.674,40.997,86.073,41.793,86.169,40.896z"/>
<path fill="#BEA466" d="M83.038,47.637c-4.455-1.771-9.055-4.106-16.135-4.334c0.146-1.328,0.067-2.184,0.723-3.372
	c2.497,0.416,5.725-0.373,8.429,0c0.57,0.554,2.161,0.086,3.131,0.241c2.699,0.238,4.256,0.142,6.262,0.963
	c0.208,0.606,1.822,1.051,2.407,0.482c0.081,0,0.161,0,0.241,0c0.436,0.367,0.736,0.868,1.686,0.722
	c-0.1,0.542-1.32-0.036-1.204,0.723c0.286,0.597,1.476,0.29,1.204,1.445c-0.597,0.62-0.857-0.163-1.204-0.481
	c-1.415,0.39-0.885,1.229-1.444,2.408c-0.017,0.818,1.236,0.368,1.204,1.204c-0.759-0.27-0.546-0.021-1.444,0
	c-0.336,0.692,0.655,1.224,0,1.445c-0.433,0.03-0.509-0.295-0.963-0.241c0.058-0.343,0.396-0.406,0.48-0.722
	c-0.464-0.468-0.969,0.253-1.686,0.241C84.615,47.812,83.131,47.406,83.038,47.637z"/>
<path fill="#827651" d="M85.447,41.135c0.135-0.544,0.375,0.292,0.722-0.241c-0.096,0.898,1.505,0.101,1.687,0.723
	C87.27,42.188,85.655,41.742,85.447,41.135z"/>
<path fill="#827651" d="M88.337,41.376c0.979,0.737,1.696,0.424,3.371,0.963c0.684-0.024,1.593,0.955,1.927,0.482
	c2.62,1.124,4.575,1.425,7.466,2.649c-0.445,2.534-0.263,4.408-0.481,6.502c-4.905-1.931-8.693-2.306-13.727-2.89
	c0.655-0.222-0.336-0.753,0-1.445c0.898-0.021,0.687-0.27,1.444,0c0.032-0.835-1.221-0.385-1.204-1.204
	c0.561-1.179,0.029-2.018,1.444-2.408c0.347,0.318,0.607,1.101,1.204,0.481c0.271-1.155-0.918-0.848-1.204-1.445
	c-0.116-0.759,1.104-0.18,1.204-0.723c-0.948,0.146-1.25-0.355-1.686-0.722C88.242,41.604,88.381,41.582,88.337,41.376z
	 M87.614,46.192c1.219-0.586,2.731,0.617,3.131-0.722C89.534,45.415,87.846,44.379,87.614,46.192z M89.059,47.637
	c0.359-0.041,0.89,0.086,0.964-0.241c-0.455-0.026-0.167-0.796-0.724-0.722C89.354,47.129,89.028,47.207,89.059,47.637z"/>
<path fill="#4D4534" d="M55.585,44.507c-0.006,0.234-0.294,0.187-0.48,0.241c0.104,0.296,0.308,0.495,0.722,0.482
	c-1.084,0.302-2.651-0.024-3.371-0.482c0.256-0.546,1.514-0.092,2.167-0.241C54.652,45.635,54.973,44.246,55.585,44.507z"/>
<path fill="#4D4534" d="M67.867,47.879c-0.107-0.364,2.983,0,3.131,0.963C69.819,48.656,69.046,48.064,67.867,47.879z"/>
<path fill="#827651" d="M64.014,64.254c0.399,0.243,0.263,1.022,0.481,1.445c1.062,0.313,0.987-0.013,1.687-0.482
	c-0.311,0.413-0.498,0.947-1.204,0.963C64.418,65.924,63.634,64.65,64.014,64.254z"/>
<path fill="#827651" d="M97.729,64.013c0.02-0.075,0.184-2.053,0.723-2.408C98.137,62.334,98.35,63.59,97.729,64.013z"/>
<path fill="#4D4534" d="M89.541,63.531c-0.705-0.499-1.318-1.09-1.687-1.926C88.637,62.027,89.059,62.81,89.541,63.531z"/>
<path fill="#827651" d="M79.908,54.141c0.352-0.336,1.645,0.431,2.167,0.722C81.71,55.211,80.63,54.233,79.908,54.141z"/>
<path fill="#4D4534" d="M77.981,53.417c-0.984-0.3-1.932-0.638-2.649-1.204C75.664,52.212,77.459,52.809,77.981,53.417z"/>
<path fill="#827651" d="M70.998,50.527c1.344,0.421,2.83,0.702,3.612,1.686C73.76,51.454,71.116,51.217,70.998,50.527z"/>
<path fill="#827651" d="M83.521,55.585c-0.023-0.142,3.163,0.361,1.686,0.963C85.887,55.749,83.757,56.213,83.521,55.585z"/>
<path fill="#4D4534" d="M76.055,88.095c0.131-0.853-0.853-0.593-0.723-1.444c0.756-0.114,0.984,0.301,1.204,0.723
	C76.329,87.567,76.394,88.031,76.055,88.095z"/>
<path fill="#D8B26F" d="M66.182,65.217c-1.459-4.537-0.613-11.718,1.686-15.653c1.427-0.063,2.233,0.496,3.131,0.963
	c0.118,0.69,2.762,0.926,3.612,1.686c0.241,0,0.481,0,0.723,0c0.718,0.566,1.665,0.904,2.649,1.204
	c1.04-0.157,1.35,0.416,1.927,0.723c0.722,0.093,1.802,1.071,2.167,0.722c0.719,0.004,0.819,0.626,1.445,0.723
	c0.236,0.629,2.365,0.163,1.686,0.963c1.257,1.312,1.407,3.73,2.648,5.057c0.367,0.836,0.98,1.427,1.687,1.926
	c1.559,1.403,3.876,1.611,5.538,0.723c2.092-1.118,1.922-4.156,3.372-5.539c0.266,1.059,0.056,1.38,0,2.89
	c-0.539,0.354-0.703,2.333-0.723,2.408c0.526,0.501-0.212,0.778,0.239,1.204c1.777-1.289,3.555-4.392,5.78-2.649
	c2.462,1.928,1.24,9.247-3.854,8.911c-1.327,5.777-2.947,12.132-6.021,15.412c-0.514,0.111-0.458-0.345-0.48-0.724
	c-1.4,1.135-1.564,2.556-2.648,3.612c-4.399,4.289-10.736,0.938-14.208-2.408c-0.22-0.422-0.448-0.837-1.204-0.723
	c-0.13,0.853,0.854,0.593,0.724,1.444c-7.362-2.213-9.49-8.613-11.078-17.338c-3.618,1.326-8.537-5.028-6.502-9.392
	c2.539-1.339,5.166,0.551,5.539,2.89c-0.381,0.396,0.403,1.67,0.963,1.926C65.684,66.165,65.872,65.63,66.182,65.217z
	 M82.075,55.825c-4.242-1.634-10.419-0.943-14.449,2.167c0.427,0.602,0.308,0.26,1.204,0.241c-0.638,2.408,2.372,9.178,7.225,6.502
	c0.799-0.084,1.045-0.721,1.445-1.204c1.864-1.427,2.826-3.756,3.371-6.502C82.104,57.475,83.169,56.24,82.075,55.825z
	 M85.206,61.846c-0.478-0.165,0.15-1.435-0.723-1.204c0.132,0.35-0.281,1.245,0.241,1.204c0.917,7.927,1.439,9.771,0,17.579
	c-3.049-1.366-4.73-4.1-5.779-7.464c0-0.08,0-0.161,0-0.241c-0.542-0.1,0.036-1.32-0.723-1.204c-0.412,0.483-0.352,1.952,0.24,2.167
	c-0.058,1.262,0.586,1.822,0.724,2.89c-0.56-0.077-0.925,0.038-1.204,0.24c0-0.24,0-0.481,0-0.723
	c-3.295,0.09-3.583-1.443-6.021-1.444c1.545,2.633,5.518,4.479,9.393,5.539c0.55,0.333,1.274,0.489,1.926,0.723
	c0.053,0.188,0.202,0.279,0.482,0.24c0.192,0.916-1.14,0.307-1.687,0.48c-1.034,0.017-1.483-0.584-2.89-0.722
	c-0.783-0.502-1.64-0.93-2.649-1.204c-1.743-1.058-3.656-2.434-4.576-3.612c-0.989,0.056-0.913,1.174-0.963,2.167
	c0.758,0.116,0.545-0.738,1.445-0.48c4.95,5.97,17.757,6.882,21.915-1.204c-2.483,1.221-4.855,4.607-8.91,5.057
	c-0.011-0.331,0.113-0.527,0.24-0.722c2.688-1.947,6.303-2.988,7.706-6.743c-1.361-0.419-2.994,0.815-4.095,1.444
	c-0.422-1.041,0.958-3.65-0.723-4.093c-0.494,1.295,0.425,4.948-2.167,4.815C86.418,69.796,86.598,67.429,85.206,61.846z
	 M61.846,64.013c-0.938-0.76-2.141-2.091-3.13-1.445c-0.024,1.068,1.339,0.75,1.687,1.445c0.029,0.694-0.131,1.577,0.241,1.927
	c0.024,1.099,0.068,2.179,1.204,2.167c0.207-0.769-0.38-0.745-0.481-1.204c0.345-0.585-0.396-2.246,0.481-1.686
	c0.162,0.477,0.8,1.059,0.963,0.241C62.318,65.148,62.557,64.107,61.846,64.013z M99.173,66.903c1.13-0.155,0.932-1.639,2.168-1.686
	c0.613,1.079,0.411,2.392,0,3.612c2.036-0.571,1.492-3.18,1.204-4.575c0.64-0.004,1.418,0.133,1.444-0.482
	C100.946,63.01,99.48,64.212,99.173,66.903z M94.357,74.851c0.331-0.011,0.527,0.113,0.722,0.24c0.328-0.307,0.372-1.179-0.24-1.204
	C94.836,74.365,94.182,74.192,94.357,74.851z M89.3,83.037c0.727-0.317,1.486-0.601,1.687-1.444
	c-0.598-0.035-0.999,0.124-1.204,0.481c-1.891,1.306-6.484,1.702-9.151,0.723c-0.979,0.017-1.163-0.764-2.167-0.723
	c0.038,0.283-0.041,0.684,0.241,0.723C81.853,84.527,85.613,85.101,89.3,83.037z"/>
<path fill="#827651" d="M82.075,55.825c1.094,0.415,0.029,1.648-1.204,1.204C81.303,56.654,82.979,56.8,82.075,55.825z"/>
<path fill="#2A2E29" d="M76.055,64.735c-4.853,2.676-7.862-4.094-7.225-6.502c-0.896,0.019-0.777,0.361-1.204-0.241
	c4.03-3.11,10.207-3.802,14.449-2.167c0.904,0.975-0.772,0.829-1.204,1.204c-0.545,2.746-1.507,5.075-3.371,6.502
	C76.701,63.616,76.455,64.253,76.055,64.735z M79.667,57.271c-0.339-0.754-2.479-0.984-2.89-0.241
	c-0.479,1.045-0.413,2.638-1.687,2.89c-1.079-0.001-1.074,0.409-1.927,0c-0.736-0.468-0.969-1.439-0.963-2.649
	c-0.906,0.218-1.604,0.645-2.408,0.963c0.09,3.683,1.197,6.349,5.539,5.779C77.532,62.521,78.934,60.229,79.667,57.271z
	 M73.889,58.715c-0.243-0.978,0.73-1.678-0.482-1.686C73.007,57.458,73.057,58.794,73.889,58.715z"/>
<path fill="#4D4534" d="M77.5,63.531c-0.399,0.483-0.646,1.12-1.445,1.204C76.455,64.253,76.701,63.616,77.5,63.531z"/>
<path fill="#BEA466" d="M76.777,57.029c0.41-0.744,2.551-0.513,2.89,0.241C78.77,57.108,77.944,56.821,76.777,57.029z"/>
<path fill="#D5D3CC" d="M73.406,57.029c1.213,0.008,0.239,0.708,0.482,1.686C73.057,58.794,73.007,57.458,73.406,57.029z"/>
<path fill="#827651" d="M88.096,60.401c0.89,0.556,1.144,1.747,1.928,2.408C89.118,62.27,88.593,61.349,88.096,60.401z"/>
<path fill="#BEA466" d="M90.264,57.271c0.873,0.219,0.146,0.711,0.24,1.445C89.383,58.799,89.843,57.584,90.264,57.271z"/>
<path fill="#827651" d="M96.524,58.475c-0.843,0.338-1.542-0.675-1.927,0c-0.234-0.006-0.188-0.295-0.24-0.481
	C95.258,57.976,96.021,58.094,96.524,58.475z"/>
<path fill="#BEA466" d="M73.165,59.919c0.853,0.409,0.847-0.001,1.927,0C75.199,60.527,73.002,60.789,73.165,59.919z"/>
<path fill="#4D4534" d="M78.463,72.684c-0.591-0.216-0.651-1.685-0.24-2.167c0.759-0.117,0.181,1.104,0.723,1.204
	c0,0.08,0,0.161,0,0.241C78.512,71.929,78.381,72.199,78.463,72.684z"/>
<path fill="#4D4534" d="M83.762,80.148c0.532,0.504,1.604,0.188,1.926-0.24c-0.127,0.193-0.251,0.391-0.24,0.722
	c0,0.081,0,0.161,0,0.241c-1.049-0.155-2.723,0.314-3.372-0.241C82.622,80.454,83.954,81.064,83.762,80.148z"/>
<path fill="#4D4534" d="M81.354,79.186c0.301-0.363,1.651,0.261,1.926,0.723C82.628,79.675,81.903,79.519,81.354,79.186z"/>
<path fill="#4D4534" d="M60.643,65.94c0.639-0.077-0.226,1.349,0.723,0.963c0.103,0.459,0.688,0.436,0.48,1.204
	C60.711,68.12,60.668,67.039,60.643,65.94z"/>
<path fill="#4D4534" d="M61.846,64.013c0.709,0.094,0.472,1.135,0.964,1.445c-0.163,0.818-0.801,0.236-0.964-0.241
	C62.769,65.864,62.09,64.314,61.846,64.013z"/>
<path fill="#2A2E29" d="M60.643,65.94c-0.372-0.35-0.213-1.233-0.241-1.927c-0.349-0.695-1.71-0.376-1.687-1.445
	c0.989-0.646,2.192,0.685,3.131,1.445c0.243,0.301,0.922,1.851,0,1.204c-0.877-0.56-0.137,1.101-0.481,1.686
	C60.417,67.29,61.281,65.863,60.643,65.94z"/>
<path fill="#2A2E29" d="M94.839,73.887c0.612,0.024,0.568,0.897,0.24,1.204c-0.192-0.127-0.391-0.251-0.722-0.24
	C94.182,74.192,94.836,74.365,94.839,73.887z"/>
<path fill="#2A2E29" d="M85.447,80.629c4.055-0.447,6.427-3.836,8.91-5.057c-4.157,8.086-16.965,7.174-21.915,1.204
	c-0.9-0.258-0.688,0.598-1.445,0.48c0.05-0.992-0.026-2.111,0.963-2.167c0.919,1.18,2.833,2.556,4.576,3.612
	c0.733,0.551,1.586,0.981,2.649,1.204c1.405,0.138,1.855,0.737,2.89,0.722c0.649,0.557,2.323,0.086,3.372,0.241
	C85.447,80.79,85.447,80.71,85.447,80.629z"/>
<path fill="#4D4534" d="M76.536,78.703c1.01,0.274,1.866,0.702,2.649,1.204C78.123,79.686,77.27,79.254,76.536,78.703z"/>
<path fill="#827651" d="M78.704,82.797c-0.282-0.039-0.203-0.438-0.241-0.723c1.004-0.041,1.188,0.738,2.167,0.723
	c-0.343,0.56-1.306-0.279-1.686-0.481C78.757,82.368,78.664,82.518,78.704,82.797z"/>
<path fill="#4D4534" d="M89.781,82.074c0.205-0.357,0.605-0.518,1.204-0.481c-0.199,0.845-0.96,1.127-1.687,1.444
	C89.372,82.754,90.575,82.434,89.781,82.074z"/>
<path fill="#BEA466" d="M98.933,92.911c5.907,1.79,5.874,11.349,7.465,16.616c-1.716,0.13-2.563,1.129-4.095,1.443
	c-0.5-0.301-1.016-0.59-1.443-0.963c-0.287-6.056,0.204-10.867-1.445-15.412c-0.45,5.93,0.709,6.894,0.481,14.689
	c-1.613-0.987-2.411-1.388-4.095-2.167c0.295-3.229,1.4-5.054,0.963-7.466c0.557-0.648,0.087-2.322,0.241-3.371
	c0-2.079-0.418-2.615,0-4.094C97.999,91.933,98.663,93.242,98.933,92.911z"/>
<path fill="#827651" d="M97.006,92.189c-0.08,0-0.16,0-0.24,0c0.203-1.018,1.828,0.31,2.168,0.723
	C98.663,93.242,97.999,91.933,97.006,92.189z"/>
<path fill="#2A2E29" d="M66.663,37.523c1.125-2.888,2.995-5.032,5.058-6.983c2.359-0.957,4.533-2.152,6.983-3.853
	c2.224-1.543,4.019-4.172,6.502-4.576c4.53-0.735,7.608,2.704,12.041,3.372c2.771,6.622,4.336,14.448,4.816,23.359
	c0.254,1.512-0.706,4.238,0.963,4.335c5.13,1.613,9.321,4.165,13.485,6.743c0.463,0.59,1.716,1.646,2.168,1.445
	c-0.271-0.051-0.375-0.267-0.481-0.481c0.646,0.558,2.041,1.379,1.444,2.408c-0.338,0.385-0.829,0.615-1.444,0.722
	c-0.594-0.032-1.161-0.036-1.445,0.241c-0.78-0.365-2.278-0.481-2.407-0.241c-2.752-0.106-3.992-0.363-6.503-0.481
	c-0.436-0.786-0.884-0.063-1.927-0.241c-0.146,0.214-0.291,0.431,0,0.481c0.742,6.12-2.672,8.084-5.539,10.596
	c-0.701,2.911-1.223,5.854-2.408,8.429c-0.474,1.031-1.481,1.767-1.686,2.891c-0.246,1.368,0.313,2.774,0.48,4.335
	c1.065,1.103,2.97,1.365,4.096,2.408c0.872,0.813,1.334,2.035,2.647,2.406c0.726,0.642,0.736,1.993,1.445,2.649
	c7.284,2.829,14.438,5.791,20.951,9.392c0,0.08,0,0.161,0,0.241c0.524,0.839,1.235,1.493,2.167,1.927
	c1.133,2.561,2.582,4.804,2.408,8.669c-0.419,2.553,0.876,6.816-0.724,8.188c-0.92-6.926,0.495-11.983-3.131-16.616
	c-0.456-1.149-1.583-1.627-2.647-2.167c-1.351-1.139-3.251-1.726-5.059-2.408c-0.589-0.614-1.585-0.822-2.408-1.204
	c-0.864-0.659-2.258-0.792-3.13-1.444c-1.286-0.56-2.541-1.151-3.854-1.687c-0.16,0-0.321,0-0.481,0
	c-1.202-0.327-2.703-1.625-3.854-1.204c1.023,3.147,1.107,6.713,2.89,9.393c0.657,0.021,0.485-0.4,0.964,0
	c0.479-1.91-1.16-6.36-0.24-7.225c1.313,2.425,0.68,4.047,1.444,6.742c0.565-0.638,1.933-0.934,2.89-0.48
	c0.688,2.982-2.166,5.15-2.648,7.466c-0.71,3.406,0.813,5.698,0,10.836c-0.24,0-0.481,0-0.722,0c0.021-4.938-0.321-6.159,0-9.15
	c-0.932,0.193-0.802,1.446-1.445,1.927c-0.953,0.252-0.837,1.57-1.444,2.168c-0.462,1.067-1.356,2.972-2.408,2.647
	c2.127-5.418,6.054-9.037,7.466-15.171c-3.421,0.993-6.598,2.233-9.151,4.094c-0.915-0.048-0.913-1.013-1.926-0.963
	c-0.521,4.782-0.792,10.446-1.445,14.208c0.041,0.521-0.854,0.108-1.204,0.24c1.146-4.707,1.44-11.848,1.687-14.931
	c-0.953-1.295-2.749-1.745-4.095-2.648c-2.777,5.842-3.643,18.031-12.281,16.375c-2.651-1.282-3.378-4.488-4.816-6.983
	c-0.52-1.086-1.009-2.2-1.686-3.131c-1.517-1.774-2.053-4.529-3.13-6.742c-2.163,0.729-4.186,1.596-6.021,2.648
	c-0.513,3.373,0.756,11.498,1.445,15.412c-0.401,0-0.804,0-1.204,0c-0.595-6.118-1.154-8.675-1.204-14.448
	c-0.561-0.466-1.279,0.957-2.167,0.963c-2.658-2.177-6.104-3.123-9.151-4.094c1.223,5.679,5.584,10.323,7.465,15.171
	c-2.557-0.478-3.353-5.029-5.057-6.502c-0.222,3.206-0.011,4.962-0.241,8.67c-0.007,0.234-0.295,0.188-0.48,0.24
	c-1.25-3.34,0.374-7.583-0.241-10.836c-0.534-2.827-3.85-5.054-2.408-7.466c1.114-0.502,1.485-0.049,2.408,0.24
	c1.382-1.945,0.048-5.117,1.927-6.502c0.357,2.345-1.544,6.049,0.481,7.466c1.537-2.55,1.639-6.632,2.89-9.873
	c-3.236,1.018-6.206,2.303-9.151,3.611c-0.689,0.434-1.876,0.371-2.166,1.204c-3.064,1.337-5.964,1.91-8.67,4.094
	c-5.098,4.112-3.631,12.828-4.575,18.062c-0.241,0-0.481,0-0.723,0c-0.462-0.582-0.151-1.936-0.241-2.89c0-0.321,0-0.643,0-0.964
	c0.555-0.569,0.086-2.16,0.241-3.131c-0.292-6.631,2.265-10.529,6.021-13.004c5.429-3.575,14.037-5.866,19.506-8.67
	c1.429-3.387,3.841-5.791,7.947-6.502c2.254-4.729-2.938-6.569-4.095-10.114c0.05-2.377-1.526-3.129-1.686-5.298
	c0.227-0.55-0.202-1.683-0.241-2.167c-0.971,0.88-2.316-0.937-1.926-1.445c-0.514-0.146-1.534-1.013-1.927-0.481
	c-2.296-0.996-3.077-3.505-3.612-6.261c-0.157-1.368,0.316-3.367-0.241-4.334c-1.759-1.877-2.836-3.921-2.167-7.706
	c-0.655-0.309-1.174-0.752-1.927-0.963c-0.48-1.125-2.25-0.961-3.13-1.686c-0.188-0.054-0.476-0.007-0.482-0.241
	c-0.741-0.784-1.628-1.421-2.648-1.926c-2.983-1.138-1.329-5.061,1.927-4.576c0.993,0.03,1.508-0.418,2.649-0.241
	c0.414,0.399,2.474,0.399,2.89,0c0.342,0.021,0.682,0.04,0.723-0.241c0.643,0,1.284,0,1.926,0c0.737,0.265,2.283,0.745,2.649,0
	c1.686,0,3.372,0,5.057,0c0.424-0.139,1.415,0.291,1.445-0.241c-0.442-0.227,0.372-1.215,0.241-1.927
	C66.359,39.949,66.401,38.626,66.663,37.523z M67.626,96.765c0.112-0.852-0.394-2.32,0.722-2.168
	c-0.534,6.791-0.65,10.612-0.722,14.449c2.329-0.773,2.966-1.813,5.779-1.927c-1.223-4.672-3.869-9.251-2.89-14.689
	c-8.309,1.278-7.106,10.218-9.633,16.856c1.585,0.422,2.706,1.308,4.334,1.686c0.6-0.443,1.359-0.728,1.687-1.443
	c-0.499-2.059,0.063-4.188,0-7.706c0.575-0.485,0.499-1.766,0.241-1.927c-0.095-0.345-0.289-0.406,0-0.724
	C67.668,98.204,67.396,97.771,67.626,96.765z M81.354,27.168c0.49-0.874,1.689-1.039,1.926-2.167
	C82.343,25.275,81.209,26.614,81.354,27.168z M78.945,31.503c0.379,0.351,1.342-0.073,1.686-0.482
	C80.225,30.645,79.524,31.331,78.945,31.503z M71.721,32.948c0.325,0.076,0.459,0.343,0.963,0.241
	c-0.199-0.681,0.339-0.624,0.24-1.204C72.218,32.001,72.03,32.535,71.721,32.948z M69.071,36.319
	c0.762,0.356,1.158-1.383,0.241-1.204C69.41,35.695,68.872,35.64,69.071,36.319z M74.61,38.247
	c-1.071,0.188-1.445-0.321-2.408-0.241C71.947,39.099,74.537,38.965,74.61,38.247z M79.908,38.728
	c-1.072-0.505-2.541-0.544-3.372-0.241C77.389,38.686,79.274,39.109,79.908,38.728z M76.055,39.932
	c-2.704-0.373-5.932,0.416-8.429,0c-0.655,1.188-0.576,2.044-0.723,3.372c7.08,0.229,11.68,2.564,16.135,4.334
	c0.696,0.669,1.933,0.796,2.89,1.204c0.455-0.054,0.531,0.271,0.964,0.241c5.032,0.583,8.82,0.958,13.727,2.89
	c0.22-2.094,0.036-3.968,0.481-6.502c-2.891-1.224-4.846-1.525-7.466-2.649c-0.407-0.25-1.607-0.939-1.927-0.482
	c-1.675-0.539-2.393-0.226-3.371-0.963c-0.391-0.492-1.776,0.011-2.168-0.481c-0.347,0.533-0.587-0.303-0.722,0.241
	c-2.005-0.821-3.563-0.725-6.262-0.963C78.616,39.618,77.024,40.086,76.055,39.932z M54.622,44.507
	c-0.654,0.149-1.912-0.306-2.167,0.241c0.72,0.458,2.287,0.784,3.371,0.482c-0.414,0.013-0.617-0.186-0.722-0.482
	c0.187-0.054,0.475-0.006,0.48-0.241C54.973,44.246,54.652,45.635,54.622,44.507z M45.953,45.47
	c-0.287,0.716,1.015,1.034,1.204,0.481c-0.281-0.041-0.262-0.38-0.241-0.722C46.496,45.211,46.167,45.283,45.953,45.47z
	 M70.998,48.841c-0.146-0.962-3.238-1.327-3.131-0.963C69.046,48.064,69.819,48.656,70.998,48.841z M56.067,49.805
	c0.866,0.001,1.192-0.843,0.48-1.204C56.729,49.342,55.889,49.064,56.067,49.805z M70.998,50.527
	c-0.897-0.467-1.704-1.026-3.131-0.963c-2.299,3.935-3.145,11.116-1.686,15.653c-0.699,0.469-0.625,0.795-1.687,0.482
	c-0.22-0.422-0.083-1.202-0.481-1.445c-0.372-2.339-3-4.229-5.538-2.89c-2.035,4.364,2.884,10.718,6.502,9.392
	c1.588,8.725,3.715,15.125,11.077,17.338c0.339-0.063,0.274-0.527,0.481-0.723c3.472,3.348,9.81,6.697,14.208,2.408
	c1.084-1.059,1.248-2.479,2.648-3.612c0.022,0.379-0.032,0.835,0.48,0.724c3.073-3.28,4.693-9.635,6.021-15.412
	c5.094,0.336,6.314-6.983,3.854-8.911c-2.227-1.743-4.003,1.36-5.779,2.649c-0.452-0.426,0.286-0.703-0.24-1.204
	c0.621-0.422,0.408-1.679,0.723-2.408c0.056-1.51,0.266-1.832,0-2.89c-1.45,1.383-1.28,4.421-3.372,5.539
	c-1.662,0.888-3.979,0.68-5.538-0.723c-0.481-0.722-0.904-1.504-1.687-1.926c-1.241-1.327-1.393-3.745-2.648-5.057
	c1.478-0.602-1.709-1.105-1.686-0.963c-0.626-0.097-0.727-0.719-1.445-0.723c-0.522-0.291-1.815-1.059-2.167-0.722
	c-0.577-0.307-0.887-0.879-1.927-0.723c-0.522-0.609-2.317-1.205-2.649-1.204c-0.241,0-0.48,0-0.723,0
	C73.828,51.229,72.342,50.949,70.998,50.527z M53.659,50.527c-0.285-0.071-0.91-0.97-1.204-0.241
	C52.545,50.552,53.418,51.204,53.659,50.527z M79.908,52.213c-0.895,0.092-0.63-0.976-1.686-0.722
	C78.127,52.375,79.711,53.089,79.908,52.213z M89.059,59.919c-0.612-0.511-0.579-1.668-0.723-2.649
	c-0.424,0.139-1.415-0.291-1.444,0.241c0.403,0.96,0.915,1.814,1.204,2.89c0.496,0.947,1.021,1.868,1.927,2.408
	c3.213,2.105,7.063-0.366,6.502-4.335c-0.503-0.38-1.268-0.5-2.167-0.481c-0.581,0.099-0.523-0.44-1.204-0.241
	c0.274,0.998-0.507,0.938-0.482,1.686C92.025,60.305,90.276,60.284,89.059,59.919z M90.504,58.715
	c-0.094-0.734,0.633-1.226-0.24-1.445C89.843,57.584,89.383,58.799,90.504,58.715z M110.973,60.643
	c0.94-0.263,1.352-1.057,1.927-1.686C111.962,59.222,110.867,59.332,110.973,60.643z M108.565,62.568
	c1.03-0.101,1.831-1.69,1.686-2.167C109.536,60.97,108.781,61.5,108.565,62.568z M97.006,92.189c-0.418,1.479,0,2.015,0,4.094
	c-0.555,0.649-0.085,2.322-0.24,3.371c0.438,2.412-0.668,4.237-0.963,7.466c1.683,0.779,2.479,1.18,4.094,2.167
	c0.228-7.797-0.933-8.761-0.481-14.688c1.649,4.544,1.158,9.355,1.445,15.411c0.429,0.373,0.942,0.662,1.444,0.964
	c1.529-0.315,2.378-1.314,4.094-1.444c-1.591-5.269-1.558-14.826-7.465-16.616c-0.34-0.413-1.965-1.739-2.168-0.723
	C96.846,92.189,96.926,92.189,97.006,92.189z M83.521,104.47c-0.147,1.674,1.254,1.798,2.89,1.687
	C85.836,105.214,84.346,105.597,83.521,104.47z M84.242,104.47c0.059-0.743,1.199-0.405,0.963-1.443
	c-0.756-0.122-0.984,0.566-1.204-0.241c0.35-0.453,0.354-1.251,0.963-1.444c1.411,0.521,1.281-0.225,2.408,0.723
	c-0.13-0.854,0.854-0.593,0.724-1.444c-0.67-0.667-1.575,0.402-1.928-0.481c-0.035-0.598-0.045-1.169,0.481-1.203
	c0.567,0.31,0.448-0.032,1.204,0.239c-0.037-0.509-2.762-4.229-3.854-4.094c0,0-3.116,3.573-3.131,3.612
	c-0.659,1.79,0.663,3.534,1.927,4.335c0.648-0.771-0.583-0.851,0-1.687c-0.536-0.188-1.306-0.14-1.444-0.723
	c0.209-0.353,0.359-0.764,0.963-0.723c1.064,0.379,1.055,1.834,1.444,2.89c-0.282,0.359-1.001,0.284-0.963,0.964
	C83.253,104.016,83.643,104.35,84.242,104.47z M87.854,99.653c0.186,0.779,0.667,1.261,1.444,1.445
	C89.168,100.301,88.508,99.177,87.854,99.653z M86.169,104.47c-0.146-1.19,1.189-0.897,1.927-1.203
	c-0.472,0.449-0.073,0.882,0,1.444c-0.283,0.277-0.852,0.272-1.444,0.24c0.575,1.207,1.017,0.25,0.723,1.445
	c1.133-0.478,1.66-2.83,1.204-4.095c-0.246,0.184-1.484,0.309-2.167,0.724c0.067-0.549-0.059-0.905-0.481-0.964
	C85.264,102.487,85.191,104.345,86.169,104.47z M86.41,108.082c-0.222,0.944,1.271,0.175,1.444,0.723
	C87.962,107.72,86.954,107.922,86.41,108.082z M84.242,112.899c0.332-0.712,0.504-1.583,0.963-2.167
	C84.213,110.688,83.371,112.589,84.242,112.899z M83.762,115.308c-0.199-0.682,0.339-0.624,0.24-1.204
	C83.075,114.032,82.721,115.237,83.762,115.308z"/>
<path fill="#BEA466" d="M66.904,101.821c0.063,3.52-0.499,5.647,0,7.706c-0.327,0.717-1.087,1-1.687,1.443
	c-1.629-0.378-2.75-1.264-4.334-1.686c2.526-6.64,1.325-15.578,9.633-16.856c-0.979,5.438,1.667,10.019,2.89,14.689
	c-2.813,0.114-3.45,1.152-5.779,1.927c0.071-3.837,0.188-7.658,0.723-14.449c-1.116-0.152-0.61,1.316-0.723,2.167
	c-0.572,0.832-0.344,1.057-0.481,2.408c-0.289,0.316-0.095,0.379,0,0.724C66.954,100.451,66.943,100.692,66.904,101.821z"/>
<path fill="#4D4534" d="M67.145,99.172c0.138-1.353-0.092-1.576,0.481-2.407C67.396,97.771,67.668,98.204,67.145,99.172z"/>
<path fill="#4D4534" d="M66.904,101.821c0.039-1.129,0.05-1.37,0.241-1.927C67.403,100.057,67.479,101.336,66.904,101.821z"/>
<path fill="#827651" d="M105.193,99.172c1.149-0.421,2.65,0.877,3.854,1.204C107.496,100.241,106.608,99.443,105.193,99.172z"/>
<path fill="#2A2E29" d="M48.12,125.902c0.017-9.438,0.683-13.434,2.649-20.951c0.599,2.926-1.413,11.522-1.687,17.099
	c-0.086,1.763,0.48,2.24-0.241,3.854C48.603,125.902,48.361,125.902,48.12,125.902z"/>
<path fill="#827651" d="M109.528,100.376c1.313,0.534,2.565,1.127,3.854,1.687C111.856,101.741,110.348,101.401,109.528,100.376z"/>
<path fill="#827651" d="M116.512,103.507c0.823,0.381,1.819,0.589,2.408,1.204C118.081,104.347,116.952,104.271,116.512,103.507z"/>
<path fill="#827651" d="M123.978,107.119c1.064,0.54,2.191,1.018,2.647,2.167C125.824,108.483,124.768,107.936,123.978,107.119z"/>
<path fill="#2A2E29" d="M127.108,125.902c-0.593-2.27-0.859-4.869-1.204-7.465c-0.334-2.509-1.072-5.191-0.723-7.226
	c1.727,3.813,2.378,9.669,2.647,14.689C127.59,125.902,127.348,125.902,127.108,125.902z"/>
<path fill="#827651" d="M117.716,115.548c0.536,1.036,0.38,1.346,0.482,2.891C117.707,117.272,117.904,116.793,117.716,115.548z"/>
<path fill="#BEA466" d="M69.313,125.902c-0.689-3.914-1.958-12.039-1.445-15.412c1.836-1.054,3.858-1.921,6.021-2.648
	c1.078,2.212,1.614,4.968,3.13,6.742c0.386,1.221,0.931,2.28,1.686,3.131c1.438,2.495,2.165,5.701,4.816,6.983
	c8.639,1.656,9.503-10.533,12.282-16.375c1.345,0.903,3.141,1.354,4.094,2.647c-0.245,3.083-0.541,10.225-1.687,14.932
	C88.577,125.902,78.945,125.902,69.313,125.902z"/>
<path fill="#BEA466" d="M57.753,125.662c0.23-3.708,0.02-5.464,0.241-8.67c1.704,1.473,2.5,6.024,5.057,6.502
	c-1.881-4.848-6.243-9.492-7.465-15.171c3.047,0.971,6.494,1.917,9.151,4.094c0.888-0.006,1.606-1.429,2.167-0.963
	c0.05,5.773,0.609,8.33,1.204,14.448c-2.488,0-4.978,0-7.465,0c-0.884,0-1.767,0-2.649,0
	C58.038,125.698,57.9,125.676,57.753,125.662z M57.753,110.009c-0.053,0.188-0.202,0.28-0.48,0.241
	c0.003,0.638-0.134,1.418,0.48,1.444C57.979,111.491,58.268,110.159,57.753,110.009z"/>
<path fill="#2A2E29" d="M57.753,111.694c-0.614-0.026-0.478-0.808-0.48-1.444c0.28,0.039,0.428-0.054,0.48-0.241
	C58.268,110.159,57.979,111.491,57.753,111.694z"/>
<path fill="#2A2E29" d="M109.528,111.694C108.416,108.802,112.137,111.113,109.528,111.694L109.528,111.694z"/>
<path fill="#2A2E29" d="M39.692,125.902c0.727-4.953,0.297-10.518,3.13-14.689c-0.46,3.989-1.739,8.949-2.167,14.689
	C40.334,125.902,40.014,125.902,39.692,125.902z"/>
<path fill="#D5D3CC" d="M88.096,60.401c-0.288-1.076-0.8-1.93-1.203-2.89c0.029-0.532,1.021-0.102,1.444-0.241
	c0.144,0.981,0.109,2.138,0.723,2.649c0.681,0.851,3.485,0.706,3.611-0.481c-0.023-0.748,0.759-0.688,0.482-1.686
	c0.681-0.199,0.623,0.339,1.204,0.241c0.054,0.187,0.006,0.475,0.24,0.481c0.385-0.675,1.084,0.338,1.927,0
	c0.563,3.969-3.289,6.44-6.502,4.335C89.238,62.148,88.984,60.958,88.096,60.401z"/>
<path fill="#D5D3CC" d="M75.092,59.919c1.273-0.252,1.206-1.844,1.687-2.89c1.167-0.208,1.992,0.078,2.89,0.241
	c-0.732,2.959-2.135,5.25-4.334,6.743c-4.342,0.569-5.449-2.096-5.539-5.779c0.806-0.318,1.502-0.745,2.408-0.963
	c-0.006,1.21,0.227,2.181,0.963,2.649C73.002,60.789,75.199,60.527,75.092,59.919z"/>
<path fill="#827651" d="M89.059,59.919c1.218,0.365,2.967,0.386,3.611-0.481C92.545,60.625,89.739,60.771,89.059,59.919z"/>
<path fill="#4D4534" d="M84.725,61.846c-0.522,0.041-0.109-0.854-0.241-1.204c0.873-0.23,0.245,1.04,0.723,1.204
	C85.046,61.846,84.885,61.846,84.725,61.846z"/>
<path fill="#827651" d="M56.789,60.643c0.559,0.968,0.083,2.967,0.241,4.334C56.473,64.008,56.947,62.009,56.789,60.643z"/>
<path fill="#2A2E29" d="M85.206,61.846c1.392,5.583,1.212,7.95,1.204,13.485c2.592,0.133,1.673-3.521,2.167-4.815
	c1.681,0.443,0.301,3.052,0.723,4.093c1.101-0.629,2.732-1.863,4.095-1.444c-1.403,3.754-5.018,4.795-7.706,6.743
	c-0.322,0.429-1.395,0.744-1.927,0.24c-0.279,0.039-0.429-0.054-0.481-0.24c-0.274-0.462-1.625-1.086-1.926-0.723
	c-3.875-1.06-7.848-2.906-9.393-5.539c2.438,0.001,2.727,1.534,6.021,1.444c0,0.24,0,0.481,0,0.723
	c0.28-0.202,0.646-0.317,1.204-0.24c-0.137-1.067-0.78-1.628-0.724-2.89c-0.082-0.483,0.05-0.754,0.482-0.723
	c1.049,3.365,2.731,6.098,5.779,7.464c1.439-7.808,0.917-9.651,0-17.579C84.885,61.846,85.046,61.846,85.206,61.846z"/>
<path fill="#827651" d="M105.916,63.772c-0.291-0.051-0.146-0.267,0-0.481c1.043,0.177,1.491-0.545,1.928,0.241
	C107.149,63.561,106.267,63.4,105.916,63.772z"/>
<path fill="#827651" d="M115.067,64.254c-0.283-0.038-0.685,0.041-0.724-0.241c0.129-0.24,1.629-0.124,2.408,0.241
	C116.191,64.254,115.629,64.254,115.067,64.254z"/>
<path fill="#BEA466" d="M37.043,118.919c-0.154,0.971,0.313,2.562-0.24,3.131C36.956,121.08,36.489,119.489,37.043,118.919z"/>
<path fill="#827651" d="M36.803,123.013c0.089,0.955-0.222,2.309,0.24,2.891c-0.161,0-0.32,0-0.481,0
	C36.715,125.013,36.249,123.504,36.803,123.013z"/>
<path fill="#BEA466" d="M53.178,102.544c2.945-1.31,5.914-2.595,9.15-3.611c-1.251,3.241-1.354,7.323-2.89,9.872
	c-2.026-1.417-0.124-5.12-0.481-7.465c-1.878,1.385-0.544,4.557-1.927,6.502c-0.923-0.289-1.293-0.742-2.408-0.24
	c-1.442,2.411,1.874,4.639,2.408,7.466c0.615,3.253-1.008,7.496,0.241,10.836c-2.811,0-5.619,0-8.43,0
	c0.722-1.612,0.155-2.091,0.241-3.854c0.272-5.575,2.284-14.173,1.687-17.099c-1.967,7.519-2.633,11.513-2.649,20.951
	c-0.803,0-1.604,0-2.408,0c-0.803,0-1.604,0-2.407,0c-0.884,0-1.767,0-2.649,0c0.428-5.74,1.707-10.7,2.167-14.689
	c-2.833,4.173-2.403,9.736-3.13,14.689c-0.643,0-1.285,0-1.927,0c0.944-5.232-0.522-13.948,4.575-18.062
	c2.706-2.184,5.605-2.757,8.669-4.094C51.7,103.315,52.707,103.197,53.178,102.544z"/>
<path fill="#2A2E29" d="M103.989,63.772c-0.026,0.615-0.806,0.478-1.444,0.482c0.288,1.395,0.832,4.004-1.204,4.575
	c0.411-1.221,0.613-2.534,0-3.612c-1.236,0.047-1.038,1.531-2.168,1.686C99.48,64.212,100.946,63.01,103.989,63.772z"/>
<path fill="#2A2E29" d="M80.63,82.797c2.667,0.979,7.261,0.583,9.151-0.723c0.794,0.358-0.409,0.68-0.481,0.963
	c-3.687,2.063-7.447,1.49-10.596-0.24c-0.04-0.279,0.053-0.429,0.241-0.481C79.324,82.518,80.287,83.356,80.63,82.797z"/>
<path fill="#4D4534" d="M82.798,103.748c-0.038-0.68,0.682-0.604,0.964-0.964c-0.391-1.056-0.38-2.511-1.445-2.89
	c-0.604-0.041-0.754,0.37-0.963,0.723c0.139,0.583,0.908,0.535,1.444,0.723c-0.583,0.836,0.648,0.914,0,1.687
	c-1.264-0.801-2.585-2.545-1.927-4.335c0.016-0.039,3.131-3.612,3.131-3.612c1.092-0.136,3.815,3.585,3.854,4.094
	c-0.756-0.271-0.637,0.069-1.204-0.239c-0.526,0.034-0.518,0.605-0.481,1.203c0.353,0.885,1.258-0.186,1.928,0.481
	c0.131,0.853-0.854,0.592-0.724,1.444c-1.127-0.946-0.997-0.201-2.408-0.723c-0.608,0.193-0.613,0.991-0.963,1.444
	c0.22,0.809,0.448,0.119,1.204,0.241c0.235,1.038-0.904,0.7-0.963,1.443C83.643,104.35,83.253,104.016,82.798,103.748z
	 M84.002,97.968c0.694,0.644,1.625,0.435,1.687-0.723c-0.479-0.003-0.307-0.656-0.963-0.481
	C84.303,96.984,83.889,97.212,84.002,97.968z M83.521,99.172c0.036-0.597,0.045-1.168-0.481-1.204
	C82.537,98.447,83.031,98.996,83.521,99.172z M85.447,100.858c0.047-0.689,0.029-1.313-0.723-1.204
	C84.164,100.21,84.665,100.937,85.447,100.858z"/>
<path fill="#2A2E29" d="M117.716,115.548c0.166-4.083-1.868-8.191-1.204-10.597c2.862,7.835,2.873,11.948,3.132,20.951
	c-0.241,0-0.481,0-0.724,0c-0.488-2.239-0.482-4.976-0.722-7.465C118.096,116.894,118.252,116.584,117.716,115.548z"/>
<path fill="#4D4534" d="M86.474,226.937c0.343-0.408,1.306-0.833,1.686-0.481C87.579,226.628,86.879,227.313,86.474,226.937z"/>
<path fill="#4D4534" d="M94.18,225.974c-0.1-0.58,0.439-0.522,0.24-1.204c0.504-0.102,0.639,0.165,0.963,0.241
	C95.073,225.423,94.886,225.957,94.18,225.974z"/>
<path fill="#4D4534" d="M97.791,222.843c-0.917,0.18-0.521-1.56,0.241-1.204C98.231,222.318,97.693,222.263,97.791,222.843z"/>
<path fill="#4D4534" d="M94.901,219.953c-0.963,0.08-1.336-0.43-2.408-0.241C92.566,218.993,95.156,218.859,94.901,219.953z"/>
<path fill="#4D4534" d="M90.567,219.472c-0.831,0.304-2.299,0.265-3.372-0.241C87.829,218.849,89.715,219.272,90.567,219.472z"/>
<path fill="#827651" d="M91.049,218.026c-0.97-0.154-2.562,0.313-3.131-0.24C88.888,217.939,90.479,217.473,91.049,218.026z"/>
<path fill="#4D4534" d="M116.094,214.655c-0.963,0-1.927,0-2.891,0C113.619,214.256,115.679,214.256,116.094,214.655z"/>
<path fill="#BEA466" d="M76.358,212.488c0.399-1.34,1.912-0.137,3.131-0.723C79.258,213.579,77.569,212.544,76.358,212.488z"/>
<path fill="#4D4534" d="M120.188,212.728c0.021-0.342,0.04-0.682-0.241-0.722c0.189-0.553,1.491-0.234,1.204,0.481
	C120.937,212.675,120.607,212.747,120.188,212.728z"/>
<path fill="#BEA466" d="M77.804,211.284c-0.557,0.073-0.269-0.696-0.724-0.723c0.074-0.327,0.604-0.199,0.964-0.24
	C78.075,210.752,77.75,210.829,77.804,211.284z"/>
<path fill="#4D4534" d="M110.555,209.356c-0.711-0.36-0.386-1.205,0.48-1.203C111.215,208.894,110.375,208.616,110.555,209.356z"/>
<path fill="#4D4534" d="M114.648,207.671c-0.294,0.729-0.919-0.17-1.204-0.241C113.686,206.755,114.559,207.406,114.648,207.671z"/>
<path fill="#4D4534" d="M88.881,206.467c-1.056,0.253-0.791-0.813-1.686-0.722C87.393,204.869,88.977,205.584,88.881,206.467z"/>
<path fill="#4D4534" d="M54.204,199.002c0.575-0.629,0.985-1.423,1.927-1.687C56.236,198.627,55.142,198.736,54.204,199.002z"/>
<path fill="#4D4534" d="M56.853,197.557c-0.146-0.477,0.655-2.065,1.686-2.167C58.322,196.458,57.567,196.988,56.853,197.557z"/>
<path fill="#4D4534" d="M70.098,161.676c0.154-1.049-0.314-2.723,0.24-3.371C70.183,159.353,70.652,161.025,70.098,161.676z"/>
<path fill="#2A2E29" d="M82.379,161.193c-0.657,0.176-0.484-0.479-0.963-0.48c0.062-1.156,0.992-1.365,1.687-0.723
	C83.215,160.746,82.801,160.974,82.379,161.193z"/>
<path fill="#2A2E29" d="M84.065,159.99c-0.526-0.036-0.517-0.607-0.481-1.204C84.072,158.962,84.566,159.511,84.065,159.99z"/>
<path fill="#4D4534" d="M77.804,156.858c0.777,0.186,1.26,0.666,1.444,1.445C78.596,158.781,77.936,157.657,77.804,156.858z"/>
<path fill="#2A2E29" d="M82.379,158.305c-0.752,0.109-0.77-0.515-0.723-1.204C82.438,157.021,82.939,157.748,82.379,158.305z"/>
<path fill="#4D4534" d="M81.174,155.896c-0.423-0.059-0.549-0.415-0.48-0.964c-0.683,0.415-1.921,0.54-2.167,0.724
	c-0.456-1.265,0.071-3.617,1.204-4.095c-0.294,1.195,0.146,0.238,0.723,1.445c-0.594-0.032-1.161-0.037-1.445,0.24
	c0.074,0.563,0.473,0.995,0,1.444c0.737-0.306,2.074-0.013,1.928-1.203C81.912,153.613,81.84,155.471,81.174,155.896z"/>
<path fill="#4D4534" d="M80.693,151.803c1.636-0.111,3.037,0.013,2.89,1.687C82.758,152.361,81.268,152.744,80.693,151.803z"/>
<path fill="#4D4534" d="M79.249,149.153c0.175,0.548,1.666-0.223,1.444,0.723C80.149,150.036,79.142,150.238,79.249,149.153z"/>
<path fill="#4D4534" d="M81.897,147.226c0.459-0.584,0.631-1.455,0.963-2.167C83.732,145.369,82.891,147.271,81.897,147.226z"/>
<path fill="#4D4534" d="M83.102,143.854c-0.1-0.58,0.439-0.522,0.24-1.204C84.383,142.721,84.028,143.926,83.102,143.854z"/>
<path fill="#4D4534" d="M50.592,198.039c-0.795-0.089-1.204-0.563-1.688-0.963c-0.105-0.214-0.211-0.432-0.48-0.481
	C48.876,196.393,50.129,197.449,50.592,198.039z"/>
<path fill="#4D4534" d="M66.244,165.528c-1.217-0.469-1.832-1.539-2.647-2.407C64.91,163.492,65.372,164.716,66.244,165.528z"/>
<path fill="#4D4534" d="M41.199,151.08c-0.697-0.747-1.744-1.146-2.167-2.168c0.933,0.434,1.642,1.088,2.167,1.927
	C41.199,150.919,41.199,151,41.199,151.08z"/>
<path fill="#BEA466" d="M53.722,155.896c-0.872-0.652-2.266-0.784-3.13-1.444c-0.44-0.765-1.569-0.84-2.408-1.204
	c-1.808-0.684-3.708-1.271-5.059-2.408c-0.79-0.815-1.847-1.364-2.647-2.167c-3.626-4.633-2.211-9.69-3.131-16.616
	c0.642,0,1.284,0,1.927,0c0.271,5.021,0.922,10.876,2.648,14.689c0.35-2.033-0.39-4.717-0.724-7.226
	c-0.345-2.596-0.611-5.195-1.204-7.465c0-0.081,0-0.161,0-0.241c0.081,0,0.161,0,0.241,0c1.929,0.562,4.896,0.082,7.225,0.241
	c0.259,9.003,0.27,13.116,3.132,20.951c0.664-2.404-1.37-6.514-1.204-10.597c-0.188-1.245,0.009-1.725-0.482-2.891
	c-0.238-2.489-0.231-5.226-0.722-7.465c2.432,0.269,5.397-0.159,8.429,0c-0.812,5.138,0.71,7.43,0,10.836
	c-0.481,2.314-3.337,4.482-2.649,7.466c0.957,0.452,2.324,0.156,2.891-0.48c0.766,2.695,0.132,4.317,1.445,6.742
	c0.918-0.863-0.722-5.313-0.241-7.225c0.479,0.4,0.307-0.021,0.964,0c1.781,2.68,1.865,6.244,2.89,9.393
	c-1.415-0.271-2.303-1.069-3.854-1.204c-0.16,0-0.321,0-0.481,0C56.756,156.557,55.247,156.217,53.722,155.896z"/>
<path fill="#4D4534" d="M60.224,137.112c-0.607,0.597-0.491,1.916-1.444,2.168C59.344,138.64,59.432,137.523,60.224,137.112z"/>
<path fill="#BEA466" d="M67.689,132.296c-0.653,3.762-0.926,9.426-1.445,14.208c-1.013,0.05-1.011-0.915-1.926-0.963
	c-2.555,1.859-5.73,3.101-9.151,4.094c1.412-6.134,5.339-9.753,7.466-15.171c-1.052-0.323-1.946,1.58-2.408,2.648
	c-0.792,0.411-0.88,1.526-1.444,2.168c-0.645,0.479-0.515,1.731-1.445,1.926c0.321-2.991-0.021-4.213,0-9.15
	C60.713,132.208,64.709,131.744,67.689,132.296z M57.575,146.264C54.967,146.845,58.688,149.156,57.575,146.264L57.575,146.264z"/>
<path fill="#4D4534" d="M88.399,140.243c0.755,0.851,1.3,1.91,1.686,3.131C89.408,142.443,88.919,141.329,88.399,140.243z"/>
<path fill="#827651" d="M116.094,154.21c-0.291,0.833-1.478,0.771-2.168,1.204C114.396,154.761,115.403,154.643,116.094,154.21z"/>
<path fill="#4D4534" d="M106.461,186.721c-0.393,0.532-1.414-0.336-1.927-0.48c0.39-0.51-0.956-2.325-1.926-1.445
	c-0.04-0.484-0.468-1.617-0.241-2.167C103.452,184.27,104.844,185.607,106.461,186.721z"/>
<path fill="#4D4534" d="M117.538,207.671c-0.88-0.725-2.649-0.562-3.13-1.687C115.568,206.431,116.778,206.826,117.538,207.671z"/>
<path fill="#827651" d="M120.669,209.839c-1.021-0.505-1.907-1.142-2.648-1.926C119.385,208.073,119.972,209.012,120.669,209.839z"
	/>
<path fill="#4D4534" d="M107.905,214.896c0.366-0.745,1.912-0.265,2.649,0c-0.401,0-0.804,0-1.204,0
	C108.869,214.896,108.388,214.896,107.905,214.896z"/>
<path fill="#4D4534" d="M83.824,232.957c0.236-1.129,1.437-1.294,1.926-2.167C85.895,231.344,84.761,232.683,83.824,232.957z"/>
<path fill="#827651" d="M101.162,217.063c0.121,1.485-0.109,2.619-0.722,3.372C100.702,219.332,100.744,218.009,101.162,217.063z"/>
<path fill="#827651" d="M81.174,209.117c0.957,0.407,2.194,0.534,2.891,1.204c-0.093,0.23-1.576-0.175-1.687-0.724
	c-0.717-0.012-1.222,0.708-1.686,0.241C80.778,209.521,81.117,209.46,81.174,209.117z"/>
<path fill="#4D4534" d="M75.396,215.619c-0.318,0.458-1.52-0.231-1.927-0.482C73.803,214.664,74.713,215.642,75.396,215.619z"/>
<path fill="#4D4534" d="M80.935,217.063c-0.392-0.492-1.777,0.012-2.168-0.48c-0.044-0.205,0.095-0.229,0.241-0.241
	c0.079,0,0.159,0,0.24,0C79.43,216.962,81.03,216.165,80.935,217.063z"/>
<path fill="#BEA466" d="M84.065,210.321c4.455,1.771,9.055,4.105,16.135,4.334c-0.146,1.327-0.067,2.184-0.723,3.371
	c-2.497-0.415-5.725,0.373-8.429,0c-0.57-0.554-2.161-0.086-3.131-0.24c-2.699-0.238-4.256-0.143-6.262-0.963
	c-0.208-0.606-1.822-1.052-2.407-0.482c-0.081,0-0.161,0-0.241,0c-0.436-0.367-0.736-0.868-1.686-0.722
	c0.1-0.542,1.32,0.036,1.204-0.724c-0.286-0.597-1.476-0.29-1.204-1.444c0.597-0.62,0.857,0.163,1.204,0.48
	c1.415-0.39,0.885-1.229,1.444-2.408c0.017-0.817-1.236-0.367-1.204-1.203c0.759,0.27,0.546,0.021,1.444,0
	c0.336-0.692-0.655-1.225,0-1.445c0.433-0.03,0.509,0.295,0.963,0.241c-0.058,0.343-0.396,0.405-0.48,0.722
	c0.464,0.468,0.969-0.253,1.686-0.241C82.488,210.146,83.973,210.552,84.065,210.321z"/>
<path fill="#827651" d="M81.656,216.823c-0.135,0.544-0.375-0.292-0.722,0.24c0.096-0.897-1.505-0.101-1.687-0.723
	C79.834,215.771,81.448,216.216,81.656,216.823z"/>
<path fill="#827651" d="M78.767,216.582c-0.979-0.737-1.696-0.424-3.371-0.963c-0.684,0.023-1.593-0.955-1.927-0.482
	c-2.62-1.124-4.575-1.425-7.466-2.648c0.445-2.534,0.263-4.408,0.481-6.502c4.905,1.931,8.693,2.306,13.727,2.89
	c-0.655,0.222,0.336,0.753,0,1.445c-0.898,0.021-0.687,0.27-1.444,0c-0.032,0.835,1.221,0.385,1.204,1.203
	c-0.561,1.18-0.029,2.019-1.444,2.408c-0.347-0.317-0.607-1.101-1.204-0.48c-0.271,1.154,0.918,0.848,1.204,1.444
	c0.116,0.76-1.104,0.181-1.204,0.724c0.948-0.146,1.25,0.354,1.686,0.722C78.861,216.354,78.723,216.377,78.767,216.582z
	 M79.489,211.766c-1.219,0.586-2.731-0.617-3.131,0.723C77.569,212.544,79.258,213.579,79.489,211.766z M78.045,210.321
	c-0.359,0.041-0.89-0.087-0.964,0.24c0.455,0.026,0.167,0.796,0.724,0.723C77.75,210.829,78.075,210.752,78.045,210.321z"/>
<path fill="#4D4534" d="M111.519,213.451c0.006-0.234,0.294-0.188,0.48-0.241c-0.104-0.296-0.308-0.495-0.722-0.482
	c1.084-0.302,2.651,0.024,3.371,0.482c-0.256,0.546-1.514,0.092-2.167,0.241C112.451,212.323,112.131,213.713,111.519,213.451z"/>
<path fill="#4D4534" d="M99.236,210.079c0.107,0.363-2.983,0-3.131-0.963C97.284,209.302,98.058,209.894,99.236,210.079z"/>
<path fill="#827651" d="M103.09,193.704c-0.399-0.243-0.263-1.022-0.481-1.445c-1.062-0.313-0.987,0.013-1.687,0.482
	c0.311-0.413,0.498-0.947,1.204-0.963C102.686,192.034,103.47,193.308,103.09,193.704z"/>
<path fill="#827651" d="M69.375,193.945c-0.02,0.074-0.184,2.053-0.723,2.407C68.967,195.624,68.754,194.368,69.375,193.945z"/>
<path fill="#4D4534" d="M77.563,194.427c0.705,0.499,1.318,1.09,1.687,1.926C78.467,195.931,78.045,195.148,77.563,194.427z"/>
<path fill="#827651" d="M87.195,203.817c-0.352,0.337-1.645-0.431-2.167-0.722C85.394,202.747,86.474,203.725,87.195,203.817z"/>
<path fill="#4D4534" d="M89.122,204.541c0.984,0.3,1.932,0.638,2.649,1.204C91.439,205.746,89.645,205.149,89.122,204.541z"/>
<path fill="#827651" d="M96.105,207.431c-1.344-0.421-2.83-0.702-3.612-1.686C93.344,206.505,95.987,206.741,96.105,207.431z"/>
<path fill="#827651" d="M83.583,202.373c0.023,0.142-3.163-0.361-1.686-0.963C81.217,202.21,83.347,201.745,83.583,202.373z"/>
<path fill="#4D4534" d="M91.049,169.863c-0.131,0.853,0.853,0.593,0.723,1.444c-0.756,0.114-0.984-0.301-1.204-0.723
	C90.774,170.391,90.71,169.927,91.049,169.863z"/>
<path fill="#D8B26F" d="M100.922,192.741c1.459,4.537,0.613,11.718-1.686,15.652c-1.427,0.063-2.233-0.496-3.131-0.963
	c-0.118-0.689-2.762-0.926-3.612-1.686c-0.241,0-0.481,0-0.723,0c-0.718-0.566-1.665-0.904-2.649-1.204
	c-1.04,0.157-1.35-0.416-1.927-0.724c-0.722-0.093-1.802-1.07-2.167-0.722c-0.719-0.004-0.819-0.626-1.445-0.723
	c-0.236-0.629-2.365-0.163-1.686-0.963c-1.257-1.313-1.407-3.73-2.648-5.058c-0.367-0.836-0.98-1.427-1.687-1.926
	c-1.559-1.403-3.876-1.611-5.538-0.723c-2.092,1.118-1.922,4.155-3.372,5.539c-0.266-1.06-0.056-1.38,0-2.891
	c0.539-0.354,0.703-2.333,0.723-2.407c-0.526-0.501,0.212-0.778-0.239-1.204c-1.777,1.289-3.555,4.392-5.78,2.648
	c-2.462-1.928-1.24-9.247,3.854-8.911c1.327-5.777,2.947-12.132,6.021-15.412c0.514-0.111,0.458,0.345,0.48,0.724
	c1.4-1.135,1.564-2.556,2.648-3.612c4.399-4.289,10.736-0.938,14.208,2.408c0.22,0.422,0.448,0.837,1.204,0.723
	c0.13-0.853-0.854-0.593-0.724-1.444c7.362,2.213,9.49,8.613,11.078,17.339c3.618-1.326,8.537,5.027,6.502,9.392
	c-2.539,1.339-5.166-0.551-5.539-2.89c0.381-0.396-0.403-1.67-0.963-1.926C101.42,191.794,101.231,192.328,100.922,192.741z
	 M85.028,202.133c4.242,1.634,10.419,0.943,14.449-2.167c-0.427-0.602-0.308-0.26-1.204-0.241c0.638-2.408-2.372-9.178-7.225-6.502
	c-0.799,0.084-1.045,0.722-1.445,1.204c-1.864,1.427-2.826,3.756-3.371,6.502C84.999,200.483,83.935,201.718,85.028,202.133z
	 M81.897,196.112c0.478,0.164-0.15,1.435,0.723,1.203c-0.132-0.35,0.281-1.244-0.241-1.203c-0.917-7.928-1.439-9.771,0-17.579
	c3.049,1.366,4.73,4.1,5.779,7.465c0,0.08,0,0.161,0,0.241c0.542,0.1-0.036,1.319,0.723,1.203c0.412-0.482,0.352-1.951-0.24-2.167
	c0.058-1.262-0.586-1.821-0.724-2.89c0.56,0.077,0.925-0.038,1.204-0.24c0,0.24,0,0.481,0,0.723c3.295-0.09,3.583,1.443,6.021,1.444
	c-1.545-2.633-5.518-4.479-9.393-5.539c-0.55-0.333-1.274-0.489-1.926-0.723c-0.053-0.188-0.202-0.279-0.482-0.24
	c-0.192-0.916,1.14-0.307,1.687-0.48c1.034-0.017,1.483,0.584,2.89,0.722c0.783,0.502,1.64,0.93,2.649,1.204
	c1.743,1.058,3.656,2.434,4.576,3.612c0.989-0.056,0.913-1.174,0.963-2.167c-0.758-0.116-0.545,0.738-1.445,0.48
	c-4.95-5.97-17.757-6.882-21.915,1.204c2.483-1.221,4.855-4.607,8.91-5.057c0.011,0.331-0.113,0.527-0.24,0.722
	c-2.688,1.947-6.303,2.988-7.706,6.743c1.361,0.419,2.994-0.815,4.095-1.444c0.422,1.041-0.958,3.65,0.723,4.093
	c0.494-1.295-0.425-4.948,2.167-4.815C80.686,188.162,80.506,190.529,81.897,196.112z M105.258,193.945
	c0.938,0.76,2.141,2.091,3.13,1.444c0.024-1.067-1.339-0.75-1.687-1.444c-0.029-0.694,0.131-1.577-0.241-1.928
	c-0.024-1.099-0.068-2.179-1.204-2.167c-0.207,0.77,0.38,0.745,0.481,1.204c-0.345,0.585,0.396,2.246-0.481,1.687
	c-0.162-0.478-0.8-1.06-0.963-0.241C104.785,192.81,104.547,193.851,105.258,193.945z M67.931,191.055
	c-1.13,0.155-0.932,1.64-2.168,1.687c-0.613-1.079-0.411-2.393,0-3.612c-2.036,0.571-1.492,3.18-1.204,4.575
	c-0.64,0.004-1.418-0.133-1.444,0.481C66.157,194.948,67.623,193.746,67.931,191.055z M72.746,183.107
	c-0.331,0.012-0.527-0.112-0.722-0.24c-0.328,0.307-0.372,1.18,0.24,1.204C72.268,183.593,72.922,183.766,72.746,183.107z
	 M77.804,174.921c-0.727,0.317-1.486,0.601-1.687,1.444c0.598,0.035,0.999-0.124,1.204-0.481c1.891-1.306,6.484-1.702,9.151-0.723
	c0.979-0.017,1.163,0.764,2.167,0.723c-0.038-0.283,0.041-0.684-0.241-0.723C85.251,173.431,81.49,172.857,77.804,174.921z"/>
<path fill="#827651" d="M85.028,202.133c-1.094-0.415-0.029-1.648,1.204-1.204C85.801,201.304,84.124,201.158,85.028,202.133z"/>
<path fill="#2A2E29" d="M91.049,193.223c4.853-2.676,7.862,4.094,7.225,6.502c0.896-0.019,0.777-0.36,1.204,0.241
	c-4.03,3.11-10.207,3.802-14.449,2.167c-0.904-0.975,0.772-0.829,1.204-1.204c0.545-2.746,1.507-5.075,3.371-6.502
	C90.402,194.342,90.648,193.705,91.049,193.223z M87.437,200.688c0.339,0.754,2.479,0.984,2.89,0.241
	c0.479-1.045,0.413-2.638,1.687-2.89c1.079,0.001,1.074-0.409,1.927,0c0.736,0.468,0.969,1.438,0.963,2.648
	c0.906-0.218,1.604-0.645,2.408-0.963c-0.09-3.683-1.197-6.349-5.539-5.778C89.571,195.438,88.17,197.729,87.437,200.688z
	 M93.215,199.243c0.243,0.978-0.73,1.678,0.482,1.686C94.097,200.501,94.047,199.164,93.215,199.243z"/>
<path fill="#4D4534" d="M89.604,194.427c0.399-0.483,0.646-1.12,1.445-1.204C90.648,193.705,90.402,194.342,89.604,194.427z"/>
<path fill="#BEA466" d="M90.326,200.929c-0.41,0.744-2.551,0.513-2.89-0.241C88.334,200.85,89.159,201.137,90.326,200.929z"/>
<path fill="#D5D3CC" d="M93.697,200.929c-1.213-0.008-0.239-0.708-0.482-1.686C94.047,199.164,94.097,200.501,93.697,200.929z"/>
<path fill="#827651" d="M79.008,197.557c-0.89-0.556-1.144-1.747-1.928-2.408C77.985,195.688,78.511,196.609,79.008,197.557z"/>
<path fill="#BEA466" d="M76.84,200.688c-0.873-0.219-0.146-0.711-0.24-1.444C77.721,199.159,77.261,200.374,76.84,200.688z"/>
<path fill="#827651" d="M70.579,199.483c0.843-0.338,1.542,0.676,1.927,0c0.234,0.007,0.188,0.296,0.24,0.481
	C71.846,199.982,71.082,199.864,70.579,199.483z"/>
<path fill="#BEA466" d="M93.938,198.039c-0.853-0.409-0.847,0.001-1.927,0C91.904,197.431,94.102,197.17,93.938,198.039z"/>
<path fill="#4D4534" d="M88.641,185.274c0.591,0.217,0.651,1.686,0.24,2.167c-0.759,0.117-0.181-1.104-0.723-1.203
	c0-0.08,0-0.161,0-0.241C88.592,186.029,88.723,185.759,88.641,185.274z"/>
<path fill="#4D4534" d="M83.342,177.81c-0.532-0.504-1.604-0.188-1.926,0.24c0.127-0.193,0.251-0.391,0.24-0.722
	c0-0.081,0-0.161,0-0.241c1.049,0.155,2.723-0.314,3.372,0.241C84.481,177.504,83.149,176.894,83.342,177.81z"/>
<path fill="#4D4534" d="M85.75,178.772c-0.301,0.363-1.651-0.261-1.926-0.723C84.476,178.283,85.2,178.439,85.75,178.772z"/>
<path fill="#4D4534" d="M106.461,192.018c-0.639,0.077,0.226-1.349-0.723-0.963c-0.103-0.459-0.688-0.436-0.48-1.204
	C106.393,189.839,106.436,190.92,106.461,192.018z"/>
<path fill="#4D4534" d="M105.258,193.945c-0.709-0.095-0.472-1.136-0.964-1.445c0.163-0.818,0.801-0.236,0.964,0.241
	C104.335,192.094,105.014,193.644,105.258,193.945z"/>
<path fill="#2A2E29" d="M106.461,192.018c0.372,0.351,0.213,1.233,0.241,1.928c0.349,0.694,1.71,0.376,1.687,1.444
	c-0.989,0.646-2.192-0.685-3.131-1.444c-0.243-0.302-0.922-1.852,0-1.204c0.877,0.56,0.137-1.102,0.481-1.687
	C106.687,190.669,105.822,192.095,106.461,192.018z"/>
<path fill="#2A2E29" d="M72.265,184.071c-0.612-0.024-0.568-0.897-0.24-1.204c0.192,0.128,0.391,0.252,0.722,0.24
	C72.922,183.766,72.268,183.593,72.265,184.071z"/>
<path fill="#2A2E29" d="M81.656,177.329c-4.055,0.447-6.427,3.836-8.91,5.057c4.157-8.086,16.965-7.174,21.915-1.204
	c0.9,0.258,0.688-0.598,1.445-0.48c-0.05,0.992,0.026,2.111-0.963,2.167c-0.919-1.18-2.833-2.556-4.576-3.612
	c-0.733-0.551-1.586-0.981-2.649-1.204c-1.405-0.138-1.855-0.737-2.89-0.722c-0.649-0.557-2.323-0.086-3.372-0.241
	C81.656,177.168,81.656,177.248,81.656,177.329z"/>
<path fill="#4D4534" d="M90.567,179.255c-1.01-0.274-1.866-0.702-2.649-1.204C88.98,178.272,89.834,178.704,90.567,179.255z"/>
<path fill="#827651" d="M88.399,175.161c0.282,0.039,0.203,0.438,0.241,0.723c-1.004,0.041-1.188-0.738-2.167-0.723
	c0.343-0.56,1.306,0.279,1.686,0.481C88.347,175.59,88.439,175.44,88.399,175.161z"/>
<path fill="#4D4534" d="M77.322,175.884c-0.205,0.357-0.605,0.518-1.204,0.481c0.199-0.845,0.96-1.127,1.687-1.444
	C77.731,175.204,76.528,175.524,77.322,175.884z"/>
<path fill="#BEA466" d="M68.171,165.047c-5.907-1.79-5.874-11.349-7.465-16.616c1.716-0.13,2.563-1.129,4.095-1.443
	c0.5,0.301,1.016,0.59,1.443,0.963c0.287,6.056-0.204,10.867,1.445,15.412c0.45-5.93-0.709-6.894-0.481-14.689
	c1.613,0.987,2.411,1.388,4.095,2.167c-0.295,3.229-1.4,5.054-0.963,7.466c-0.557,0.648-0.087,2.322-0.241,3.371
	c0,2.079,0.418,2.615,0,4.094C69.104,166.025,68.44,164.716,68.171,165.047z"/>
<path fill="#827651" d="M70.098,165.769c0.08,0,0.16,0,0.24,0c-0.203,1.018-1.828-0.31-2.168-0.723
	C68.44,164.716,69.104,166.025,70.098,165.769z"/>
<path fill="#2A2E29" d="M100.44,220.435c-1.125,2.889-2.995,5.032-5.058,6.983c-2.359,0.957-4.533,2.152-6.983,3.853
	c-2.224,1.543-4.019,4.172-6.502,4.576c-4.53,0.735-7.608-2.704-12.041-3.372c-2.771-6.622-4.336-14.448-4.816-23.358
	c-0.254-1.513,0.706-4.238-0.963-4.335c-5.13-1.613-9.321-4.165-13.485-6.743c-0.463-0.59-1.716-1.646-2.168-1.445
	c0.271,0.051,0.375,0.267,0.481,0.481c-0.646-0.559-2.041-1.379-1.444-2.408c0.338-0.385,0.829-0.615,1.444-0.722
	c0.594,0.031,1.161,0.035,1.445-0.241c0.78,0.364,2.278,0.48,2.407,0.241c2.752,0.105,3.992,0.362,6.503,0.48
	c0.436,0.786,0.884,0.063,1.927,0.241c0.146-0.214,0.291-0.432,0-0.481c-0.742-6.12,2.672-8.084,5.539-10.596
	c0.701-2.911,1.223-5.854,2.408-8.429c0.474-1.031,1.481-1.767,1.686-2.891c0.246-1.368-0.313-2.774-0.48-4.335
	c-1.065-1.103-2.97-1.365-4.096-2.408c-0.872-0.813-1.334-2.035-2.647-2.406c-0.726-0.642-0.736-1.993-1.445-2.649
	c-7.284-2.829-14.438-5.791-20.951-9.392c0-0.08,0-0.161,0-0.241c-0.524-0.839-1.235-1.493-2.167-1.927
	c-1.133-2.561-2.582-4.804-2.408-8.669c0.419-2.553-0.876-6.816,0.724-8.188c0.92,6.926-0.495,11.983,3.131,16.616
	c0.456,1.149,1.583,1.627,2.647,2.167c1.351,1.139,3.251,1.726,5.059,2.408c0.589,0.614,1.585,0.822,2.408,1.204
	c0.864,0.659,2.258,0.792,3.13,1.444c1.286,0.56,2.541,1.151,3.854,1.687c0.16,0,0.321,0,0.481,0
	c1.202,0.327,2.703,1.625,3.854,1.204c-1.023-3.147-1.107-6.713-2.89-9.393c-0.657-0.021-0.485,0.4-0.964,0
	c-0.479,1.91,1.16,6.36,0.24,7.225c-1.313-2.425-0.68-4.047-1.444-6.742c-0.565,0.638-1.933,0.934-2.89,0.48
	c-0.688-2.982,2.166-5.15,2.648-7.466c0.71-3.406-0.813-5.698,0-10.836c0.24,0,0.481,0,0.722,0c-0.021,4.938,0.321,6.159,0,9.15
	c0.932-0.193,0.802-1.446,1.445-1.927c0.953-0.252,0.837-1.57,1.444-2.168c0.462-1.067,1.356-2.972,2.408-2.647
	c-2.127,5.418-6.054,9.037-7.466,15.171c3.421-0.993,6.598-2.233,9.151-4.094c0.915,0.048,0.913,1.013,1.926,0.963
	c0.521-4.782,0.792-10.446,1.445-14.208c-0.041-0.521,0.854-0.108,1.204-0.24c-1.146,4.707-1.44,11.848-1.687,14.931
	c0.953,1.295,2.749,1.745,4.095,2.648c2.777-5.842,3.643-18.031,12.281-16.375c2.651,1.282,3.378,4.488,4.816,6.983
	c0.52,1.086,1.009,2.2,1.686,3.131c1.517,1.774,2.053,4.529,3.13,6.742c2.163-0.729,4.186-1.596,6.021-2.648
	c0.513-3.373-0.756-11.498-1.445-15.412c0.401,0,0.804,0,1.204,0c0.595,6.118,1.154,8.675,1.204,14.448
	c0.561,0.466,1.279-0.957,2.167-0.963c2.658,2.177,6.104,3.123,9.151,4.094c-1.223-5.679-5.584-10.323-7.465-15.171
	c2.557,0.478,3.353,5.029,5.057,6.502c0.222-3.206,0.011-4.962,0.241-8.67c0.007-0.234,0.295-0.188,0.48-0.24
	c1.25,3.34-0.374,7.583,0.241,10.836c0.534,2.827,3.85,5.054,2.408,7.466c-1.114,0.502-1.485,0.049-2.408-0.24
	c-1.382,1.945-0.048,5.117-1.927,6.502c-0.357-2.345,1.544-6.049-0.481-7.466c-1.537,2.55-1.639,6.632-2.89,9.873
	c3.236-1.018,6.206-2.303,9.151-3.611c0.689-0.434,1.876-0.371,2.166-1.204c3.064-1.337,5.964-1.91,8.67-4.094
	c5.098-4.112,3.631-12.828,4.575-18.062c0.241,0,0.481,0,0.723,0c0.462,0.582,0.151,1.936,0.241,2.89c0,0.321,0,0.643,0,0.964
	c-0.555,0.569-0.086,2.16-0.241,3.131c0.292,6.631-2.265,10.529-6.021,13.004c-5.429,3.575-14.037,5.866-19.506,8.67
	c-1.429,3.387-3.841,5.791-7.947,6.502c-2.254,4.729,2.938,6.569,4.095,10.114c-0.05,2.377,1.526,3.129,1.686,5.298
	c-0.227,0.55,0.202,1.683,0.241,2.167c0.971-0.88,2.316,0.937,1.926,1.445c0.514,0.146,1.534,1.013,1.927,0.48
	c2.296,0.996,3.077,3.505,3.612,6.261c0.157,1.368-0.316,3.367,0.241,4.334c1.759,1.877,2.836,3.921,2.167,7.706
	c0.655,0.31,1.174,0.752,1.927,0.963c0.48,1.125,2.25,0.961,3.13,1.687c0.188,0.054,0.476,0.007,0.482,0.241
	c0.741,0.783,1.628,1.421,2.648,1.926c2.983,1.138,1.329,5.061-1.927,4.576c-0.993-0.03-1.508,0.418-2.649,0.24
	c-0.414-0.398-2.474-0.398-2.89,0c-0.342-0.021-0.682-0.039-0.723,0.241c-0.643,0-1.284,0-1.926,0c-0.737-0.265-2.283-0.745-2.649,0
	c-1.686,0-3.372,0-5.057,0c-0.424,0.14-1.415-0.291-1.445,0.241c0.442,0.227-0.372,1.215-0.241,1.927
	C100.744,218.009,100.702,219.332,100.44,220.435z M99.478,161.193c-0.112,0.852,0.394,2.32-0.722,2.168
	c0.534-6.791,0.65-10.612,0.722-14.449c-2.329,0.773-2.966,1.813-5.779,1.927c1.223,4.672,3.869,9.251,2.89,14.689
	c8.309-1.278,7.106-10.218,9.633-16.856c-1.585-0.422-2.706-1.308-4.334-1.686c-0.6,0.443-1.359,0.728-1.687,1.443
	c0.499,2.059-0.063,4.188,0,7.706c-0.575,0.485-0.499,1.766-0.241,1.927c0.095,0.345,0.289,0.406,0,0.724
	C99.436,159.754,99.707,160.187,99.478,161.193z M85.75,230.79c-0.49,0.874-1.689,1.039-1.926,2.167
	C84.761,232.683,85.895,231.344,85.75,230.79z M88.158,226.455c-0.379-0.352-1.342,0.073-1.686,0.481
	C86.879,227.313,87.579,226.628,88.158,226.455z M95.383,225.01c-0.325-0.076-0.459-0.343-0.963-0.241
	c0.199,0.682-0.339,0.624-0.24,1.204C94.886,225.957,95.073,225.423,95.383,225.01z M98.032,221.639
	c-0.762-0.355-1.158,1.383-0.241,1.204C97.693,222.263,98.231,222.318,98.032,221.639z M92.493,219.712
	c1.071-0.188,1.445,0.321,2.408,0.241C95.156,218.859,92.566,218.993,92.493,219.712z M87.195,219.23
	c1.072,0.506,2.541,0.544,3.372,0.241C89.715,219.272,87.829,218.849,87.195,219.23z M91.049,218.026
	c2.704,0.373,5.932-0.415,8.429,0c0.655-1.188,0.576-2.044,0.723-3.371c-7.08-0.229-11.68-2.564-16.135-4.334
	c-0.696-0.67-1.933-0.797-2.89-1.204c-0.455,0.054-0.531-0.271-0.964-0.241c-5.032-0.583-8.82-0.958-13.727-2.89
	c-0.22,2.094-0.036,3.968-0.481,6.502c2.891,1.224,4.846,1.524,7.466,2.648c0.407,0.25,1.607,0.939,1.927,0.482
	c1.675,0.539,2.393,0.226,3.371,0.963c0.391,0.492,1.776-0.011,2.168,0.48c0.347-0.532,0.587,0.304,0.722-0.24
	c2.005,0.82,3.563,0.725,6.262,0.963C88.487,218.34,90.079,217.872,91.049,218.026z M112.481,213.451
	c0.654-0.149,1.912,0.306,2.167-0.241c-0.72-0.458-2.287-0.784-3.371-0.482c0.414-0.013,0.617,0.187,0.722,0.482
	c-0.187,0.054-0.475,0.006-0.48,0.241C112.131,213.713,112.451,212.323,112.481,213.451z M121.15,212.488
	c0.287-0.717-1.015-1.034-1.204-0.481c0.281,0.041,0.262,0.38,0.241,0.722C120.607,212.747,120.937,212.675,121.15,212.488z
	 M96.105,209.117c0.146,0.962,3.238,1.326,3.131,0.963C98.058,209.894,97.284,209.302,96.105,209.117z M111.036,208.153
	c-0.866-0.002-1.192,0.843-0.48,1.203C110.375,208.616,111.215,208.894,111.036,208.153z M96.105,207.431
	c0.897,0.467,1.704,1.026,3.131,0.963c2.299-3.935,3.145-11.115,1.686-15.652c0.699-0.47,0.625-0.795,1.687-0.482
	c0.22,0.422,0.083,1.202,0.481,1.445c0.372,2.339,3,4.229,5.538,2.89c2.035-4.364-2.884-10.718-6.502-9.392
	c-1.588-8.726-3.715-15.126-11.077-17.339c-0.339,0.063-0.274,0.527-0.481,0.723c-3.472-3.348-9.81-6.697-14.208-2.408
	c-1.084,1.059-1.248,2.479-2.648,3.612c-0.022-0.379,0.032-0.835-0.48-0.724c-3.073,3.28-4.693,9.635-6.021,15.412
	c-5.094-0.336-6.314,6.983-3.854,8.911c2.227,1.743,4.003-1.359,5.779-2.648c0.452,0.426-0.286,0.702,0.24,1.204
	c-0.621,0.422-0.408,1.679-0.723,2.407c-0.056,1.511-0.266,1.832,0,2.891c1.45-1.384,1.28-4.421,3.372-5.539
	c1.662-0.889,3.979-0.681,5.538,0.723c0.481,0.722,0.904,1.504,1.687,1.926c1.241,1.327,1.393,3.745,2.648,5.058
	c-1.478,0.602,1.709,1.104,1.686,0.963c0.626,0.097,0.727,0.719,1.445,0.723c0.522,0.291,1.815,1.06,2.167,0.722
	c0.577,0.308,0.887,0.88,1.927,0.724c0.522,0.608,2.317,1.205,2.649,1.204c0.241,0,0.48,0,0.723,0
	C93.275,206.729,94.762,207.009,96.105,207.431z M113.444,207.431c0.285,0.071,0.91,0.97,1.204,0.241
	C114.559,207.406,113.686,206.755,113.444,207.431z M87.195,205.745c0.895-0.092,0.63,0.976,1.686,0.722
	C88.977,205.584,87.393,204.869,87.195,205.745z M78.045,198.039c0.612,0.511,0.579,1.668,0.723,2.648
	c0.424-0.139,1.415,0.291,1.444-0.24c-0.403-0.96-0.915-1.814-1.204-2.891c-0.496-0.947-1.021-1.868-1.927-2.408
	c-3.213-2.104-7.063,0.366-6.502,4.335c0.503,0.381,1.268,0.5,2.167,0.481c0.581-0.099,0.523,0.44,1.204,0.241
	c-0.274-0.998,0.507-0.938,0.482-1.687C75.078,197.653,76.827,197.674,78.045,198.039z M76.6,199.243
	c0.094,0.733-0.633,1.226,0.24,1.444C77.261,200.374,77.721,199.159,76.6,199.243z M56.131,197.315
	c-0.94,0.264-1.352,1.058-1.927,1.687C55.142,198.736,56.236,198.627,56.131,197.315z M58.538,195.39
	c-1.03,0.102-1.831,1.69-1.686,2.167C57.567,196.988,58.322,196.458,58.538,195.39z M70.098,165.769c0.418-1.479,0-2.015,0-4.094
	c0.555-0.649,0.085-2.322,0.24-3.371c-0.438-2.412,0.668-4.237,0.963-7.466c-1.683-0.779-2.479-1.18-4.094-2.167
	c-0.228,7.797,0.933,8.761,0.481,14.688c-1.649-4.544-1.158-9.355-1.445-15.411c-0.429-0.373-0.942-0.662-1.444-0.964
	c-1.529,0.315-2.378,1.314-4.094,1.444c1.591,5.269,1.558,14.826,7.465,16.616c0.34,0.413,1.965,1.739,2.168,0.723
	C70.258,165.769,70.178,165.769,70.098,165.769z M83.583,153.488c0.147-1.674-1.254-1.798-2.89-1.687
	C81.268,152.744,82.758,152.361,83.583,153.488z M82.861,153.488c-0.059,0.743-1.199,0.405-0.963,1.443
	c0.756,0.122,0.984-0.566,1.204,0.241c-0.35,0.453-0.354,1.251-0.963,1.444c-1.411-0.521-1.281,0.225-2.408-0.723
	c0.13,0.854-0.854,0.593-0.724,1.444c0.67,0.667,1.575-0.402,1.928,0.481c0.035,0.598,0.045,1.169-0.481,1.203
	c-0.567-0.31-0.448,0.032-1.204-0.239c0.037,0.509,2.762,4.229,3.854,4.094c0,0,3.116-3.573,3.131-3.612
	c0.659-1.79-0.663-3.534-1.927-4.335c-0.648,0.771,0.583,0.851,0,1.687c0.536,0.188,1.306,0.14,1.444,0.723
	c-0.209,0.353-0.359,0.764-0.963,0.723c-1.064-0.379-1.055-1.834-1.444-2.89c0.282-0.359,1.001-0.284,0.963-0.964
	C83.851,153.942,83.461,153.608,82.861,153.488z M79.249,158.305c-0.186-0.779-0.667-1.261-1.444-1.445
	C77.936,157.657,78.596,158.781,79.249,158.305z M80.935,153.488c0.146,1.19-1.189,0.897-1.927,1.203
	c0.472-0.449,0.073-0.882,0-1.444c0.283-0.277,0.852-0.272,1.444-0.24c-0.575-1.207-1.017-0.25-0.723-1.445
	c-1.133,0.478-1.66,2.83-1.204,4.095c0.246-0.184,1.484-0.309,2.167-0.724c-0.067,0.549,0.059,0.905,0.481,0.964
	C81.84,155.471,81.912,153.613,80.935,153.488z M80.693,149.876c0.222-0.944-1.271-0.175-1.444-0.723
	C79.142,150.238,80.149,150.036,80.693,149.876z M82.861,145.059c-0.332,0.712-0.504,1.583-0.963,2.167
	C82.891,147.271,83.732,145.369,82.861,145.059z M83.342,142.65c0.199,0.682-0.339,0.624-0.24,1.204
	C84.028,143.926,84.383,142.721,83.342,142.65z"/>
<path fill="#BEA466" d="M100.199,156.137c-0.063-3.52,0.499-5.647,0-7.706c0.327-0.717,1.087-1,1.687-1.443
	c1.629,0.378,2.75,1.264,4.334,1.686c-2.526,6.64-1.325,15.578-9.633,16.856c0.979-5.438-1.667-10.019-2.89-14.689
	c2.813-0.114,3.45-1.152,5.779-1.927c-0.071,3.837-0.188,7.658-0.723,14.449c1.116,0.152,0.61-1.316,0.723-2.167
	c0.572-0.832,0.344-1.057,0.481-2.408c0.289-0.316,0.095-0.379,0-0.724C100.149,157.507,100.16,157.266,100.199,156.137z"/>
<path fill="#4D4534" d="M99.959,158.786c-0.138,1.353,0.092,1.576-0.481,2.407C99.707,160.187,99.436,159.754,99.959,158.786z"/>
<path fill="#4D4534" d="M100.199,156.137c-0.039,1.129-0.05,1.37-0.241,1.927C99.7,157.901,99.625,156.622,100.199,156.137z"/>
<path fill="#827651" d="M61.91,158.786c-1.149,0.421-2.65-0.877-3.854-1.204C59.607,157.717,60.495,158.515,61.91,158.786z"/>
<path fill="#2A2E29" d="M118.983,132.056c-0.017,9.438-0.683,13.434-2.649,20.951c-0.599-2.926,1.413-11.522,1.687-17.099
	c0.086-1.763-0.48-2.24,0.241-3.854C118.501,132.056,118.742,132.056,118.983,132.056z"/>
<path fill="#827651" d="M57.575,157.582c-1.313-0.534-2.565-1.127-3.854-1.687C55.247,156.217,56.756,156.557,57.575,157.582z"/>
<path fill="#827651" d="M50.592,154.451c-0.823-0.381-1.819-0.589-2.408-1.204C49.022,153.611,50.151,153.687,50.592,154.451z"/>
<path fill="#827651" d="M43.126,150.839c-1.064-0.54-2.191-1.018-2.647-2.167C41.279,149.475,42.336,150.022,43.126,150.839z"/>
<path fill="#2A2E29" d="M39.995,132.056c0.593,2.27,0.859,4.869,1.204,7.465c0.334,2.509,1.072,5.191,0.723,7.226
	c-1.727-3.813-2.378-9.669-2.647-14.689C39.514,132.056,39.756,132.056,39.995,132.056z"/>
<path fill="#827651" d="M49.388,142.41c-0.536-1.036-0.38-1.346-0.482-2.891C49.396,140.686,49.199,141.165,49.388,142.41z"/>
<path fill="#BEA466" d="M97.791,132.056c0.689,3.914,1.958,12.039,1.445,15.412c-1.836,1.054-3.858,1.921-6.021,2.648
	c-1.078-2.212-1.614-4.968-3.13-6.742c-0.386-1.221-0.931-2.28-1.686-3.131c-1.438-2.495-2.165-5.701-4.816-6.983
	c-8.639-1.656-9.503,10.533-12.282,16.375c-1.345-0.903-3.141-1.354-4.094-2.647c0.245-3.083,0.541-10.225,1.687-14.932
	C78.526,132.056,88.158,132.056,97.791,132.056z"/>
<path fill="#BEA466" d="M109.351,132.296c-0.23,3.708-0.02,5.464-0.241,8.67c-1.704-1.473-2.5-6.024-5.057-6.502
	c1.881,4.848,6.243,9.492,7.465,15.171c-3.047-0.971-6.494-1.917-9.151-4.094c-0.888,0.006-1.606,1.429-2.167,0.963
	c-0.05-5.773-0.609-8.33-1.204-14.448c2.488,0,4.978,0,7.465,0c0.884,0,1.767,0,2.649,0
	C109.065,132.26,109.203,132.282,109.351,132.296z M109.351,147.949c0.053-0.188,0.202-0.28,0.48-0.241
	c-0.003-0.638,0.134-1.418-0.48-1.444C109.125,146.467,108.836,147.799,109.351,147.949z"/>
<path fill="#2A2E29" d="M109.351,146.264c0.614,0.026,0.478,0.808,0.48,1.444c-0.28-0.039-0.428,0.054-0.48,0.241
	C108.836,147.799,109.125,146.467,109.351,146.264z"/>
<path fill="#2A2E29" d="M57.575,146.264C58.688,149.156,54.967,146.845,57.575,146.264L57.575,146.264z"/>
<path fill="#2A2E29" d="M127.411,132.056c-0.727,4.953-0.297,10.518-3.13,14.689c0.46-3.989,1.739-8.949,2.167-14.689
	C126.77,132.056,127.09,132.056,127.411,132.056z"/>
<path fill="#D5D3CC" d="M79.008,197.557c0.288,1.076,0.8,1.931,1.203,2.891c-0.029,0.531-1.021,0.102-1.444,0.24
	c-0.144-0.98-0.109-2.138-0.723-2.648c-0.681-0.852-3.485-0.706-3.611,0.48c0.023,0.748-0.759,0.688-0.482,1.687
	c-0.681,0.199-0.623-0.339-1.204-0.241c-0.054-0.187-0.006-0.475-0.24-0.481c-0.385,0.676-1.084-0.338-1.927,0
	c-0.563-3.969,3.289-6.439,6.502-4.335C77.865,195.81,78.119,197.001,79.008,197.557z"/>
<path fill="#D5D3CC" d="M92.012,198.039c-1.273,0.252-1.206,1.844-1.687,2.89c-1.167,0.208-1.992-0.078-2.89-0.241
	c0.732-2.959,2.135-5.25,4.334-6.742c4.342-0.569,5.449,2.096,5.539,5.778c-0.806,0.318-1.502,0.745-2.408,0.963
	c0.006-1.21-0.227-2.181-0.963-2.648C94.102,197.17,91.904,197.431,92.012,198.039z"/>
<path fill="#827651" d="M78.045,198.039c-1.218-0.365-2.967-0.386-3.611,0.48C74.559,197.333,77.364,197.188,78.045,198.039z"/>
<path fill="#4D4534" d="M82.379,196.112c0.522-0.041,0.109,0.854,0.241,1.203c-0.873,0.23-0.245-1.04-0.723-1.203
	C82.058,196.112,82.219,196.112,82.379,196.112z"/>
<path fill="#827651" d="M110.314,197.315c-0.559-0.968-0.083-2.967-0.241-4.334C110.631,193.95,110.156,195.949,110.314,197.315z"/>
<path fill="#2A2E29" d="M81.897,196.112c-1.392-5.583-1.212-7.95-1.204-13.485c-2.592-0.133-1.673,3.521-2.167,4.815
	c-1.681-0.442-0.301-3.052-0.723-4.093c-1.101,0.629-2.732,1.863-4.095,1.444c1.403-3.755,5.018-4.796,7.706-6.743
	c0.322-0.429,1.395-0.744,1.927-0.24c0.279-0.039,0.429,0.054,0.481,0.24c0.274,0.462,1.625,1.086,1.926,0.723
	c3.875,1.06,7.848,2.906,9.393,5.539c-2.438-0.001-2.727-1.534-6.021-1.444c0-0.24,0-0.481,0-0.723
	c-0.28,0.202-0.646,0.317-1.204,0.24c0.137,1.067,0.78,1.628,0.724,2.89c0.082,0.483-0.05,0.755-0.482,0.724
	c-1.049-3.365-2.731-6.099-5.779-7.465c-1.439,7.808-0.917,9.651,0,17.579C82.219,196.112,82.058,196.112,81.897,196.112z"/>
<path fill="#827651" d="M61.188,194.186c0.291,0.052,0.146,0.268,0,0.481c-1.043-0.177-1.491,0.545-1.928-0.241
	C59.954,194.397,60.837,194.558,61.188,194.186z"/>
<path fill="#827651" d="M52.036,193.704c0.283,0.038,0.685-0.041,0.724,0.241c-0.129,0.239-1.629,0.124-2.408-0.241
	C50.912,193.704,51.475,193.704,52.036,193.704z"/>
<path fill="#BEA466" d="M130.061,139.039c0.154-0.971-0.313-2.562,0.24-3.131C130.147,136.878,130.614,138.469,130.061,139.039z"/>
<path fill="#827651" d="M130.301,134.945c-0.089-0.955,0.222-2.309-0.24-2.891c0.161,0,0.32,0,0.481,0
	C130.389,132.945,130.854,134.454,130.301,134.945z"/>
<path fill="#BEA466" d="M113.926,155.414c-2.945,1.31-5.914,2.595-9.15,3.611c1.251-3.241,1.354-7.323,2.89-9.872
	c2.026,1.417,0.124,5.12,0.481,7.465c1.878-1.385,0.544-4.557,1.927-6.502c0.923,0.289,1.293,0.742,2.408,0.24
	c1.442-2.411-1.874-4.639-2.408-7.466c-0.615-3.253,1.008-7.496-0.241-10.836c2.811,0,5.619,0,8.43,0
	c-0.722,1.612-0.155,2.091-0.241,3.854c-0.272,5.575-2.284,14.173-1.687,17.099c1.967-7.519,2.633-11.513,2.649-20.951
	c0.803,0,1.604,0,2.408,0c0.803,0,1.604,0,2.407,0c0.884,0,1.767,0,2.649,0c-0.428,5.74-1.707,10.7-2.167,14.689
	c2.833-4.173,2.403-9.736,3.13-14.689c0.643,0,1.285,0,1.927,0c-0.944,5.232,0.522,13.948-4.575,18.062
	c-2.706,2.184-5.605,2.757-8.669,4.094C115.403,154.643,114.396,154.761,113.926,155.414z"/>
<path fill="#2A2E29" d="M63.114,194.186c0.026-0.614,0.806-0.478,1.444-0.481c-0.288-1.396-0.832-4.004,1.204-4.575
	c-0.411,1.221-0.613,2.534,0,3.612c1.236-0.048,1.038-1.531,2.168-1.687C67.623,193.746,66.157,194.948,63.114,194.186z"/>
<path fill="#2A2E29" d="M86.474,175.161c-2.667-0.979-7.261-0.583-9.151,0.723c-0.794-0.358,0.409-0.68,0.481-0.963
	c3.687-2.063,7.447-1.49,10.596,0.24c0.04,0.279-0.053,0.429-0.241,0.481C87.779,175.44,86.816,174.602,86.474,175.161z"/>
<path fill="#4D4534" d="M84.306,154.21c0.038,0.68-0.682,0.604-0.964,0.964c0.391,1.056,0.38,2.511,1.445,2.89
	c0.604,0.041,0.754-0.37,0.963-0.723c-0.139-0.583-0.908-0.535-1.444-0.723c0.583-0.836-0.648-0.914,0-1.687
	c1.264,0.801,2.585,2.545,1.927,4.335c-0.016,0.039-3.131,3.612-3.131,3.612c-1.092,0.136-3.815-3.585-3.854-4.094
	c0.756,0.271,0.637-0.069,1.204,0.239c0.526-0.034,0.518-0.605,0.481-1.203c-0.353-0.885-1.258,0.186-1.928-0.481
	c-0.131-0.853,0.854-0.592,0.724-1.444c1.127,0.946,0.997,0.201,2.408,0.723c0.608-0.193,0.613-0.991,0.963-1.444
	c-0.22-0.809-0.448-0.119-1.204-0.241c-0.235-1.038,0.904-0.7,0.963-1.443C83.461,153.608,83.851,153.942,84.306,154.21z
	 M83.102,159.99c-0.694-0.644-1.625-0.435-1.687,0.723c0.479,0.003,0.307,0.656,0.963,0.481
	C82.801,160.974,83.215,160.746,83.102,159.99z M83.583,158.786c-0.036,0.597-0.045,1.168,0.481,1.204
	C84.566,159.511,84.072,158.962,83.583,158.786z M81.656,157.1c-0.047,0.689-0.029,1.313,0.723,1.204
	C82.939,157.748,82.438,157.021,81.656,157.1z"/>
<path fill="#2A2E29" d="M49.388,142.41c-0.166,4.083,1.868,8.191,1.204,10.597c-2.862-7.835-2.873-11.948-3.132-20.951
	c0.241,0,0.481,0,0.724,0c0.488,2.239,0.482,4.976,0.722,7.465C49.008,141.064,48.852,141.374,49.388,142.41z"/>
<line fill="none" stroke="#FFFFFF" stroke-width="2" stroke-miterlimit="10" x1="20.551" y1="128.978" x2="146.693" y2="128.978"/>
<g>
	<path fill="#F4F5F0" d="M155.43,233.305c-1.383-0.731-2.956-1.149-4.629-1.149s-3.246,0.418-4.629,1.149v17.541
		c1.383,0.731,2.956,1.149,4.629,1.149s3.246-0.418,4.629-1.149V233.305z"/>
	<path fill="#008C45" d="M140.881,242.075c0,3.806,2.146,7.107,5.291,8.771v-17.541C143.026,234.968,140.881,238.27,140.881,242.075
		z"/>
	<path fill="#CD212A" d="M160.72,242.075c0-3.806-2.146-7.106-5.29-8.771v17.541C158.574,249.182,160.72,245.881,160.72,242.075z"/>
</g>
<g>
	<path fill="#F4F5F0" d="M155.429,7.111c-1.383-0.731-2.956-1.15-4.629-1.15s-3.246,0.418-4.629,1.149v17.541
		c1.383,0.731,2.956,1.149,4.629,1.149s3.246-0.418,4.629-1.15V7.111z"/>
	<path fill="#008C45" d="M140.88,15.881c0,3.806,2.146,7.107,5.291,8.771V7.11C143.025,8.774,140.88,12.075,140.88,15.881z"/>
	<path fill="#CD212A" d="M160.719,15.881c0-3.806-2.146-7.106-5.29-8.77v17.54C158.573,22.987,160.719,19.687,160.719,15.881z"/>
</g>
<circle fill="none" stroke="#FFFFFF" stroke-width="2" stroke-miterlimit="10" cx="150.945" cy="15.882" r="9.921"/>
<g>
	<path fill="#F4F5F0" d="M20.927,233.305c-1.383-0.731-2.956-1.149-4.629-1.149s-3.246,0.418-4.629,1.149v17.541
		c1.383,0.731,2.956,1.149,4.629,1.149s3.246-0.418,4.629-1.149V233.305z"/>
	<path fill="#008C45" d="M6.378,242.075c0,3.806,2.146,7.107,5.291,8.771v-17.541C8.523,234.968,6.378,238.27,6.378,242.075z"/>
	<path fill="#CD212A" d="M26.217,242.075c0-3.806-2.146-7.106-5.29-8.771v17.541C24.071,249.182,26.217,245.881,26.217,242.075z"/>
</g>
<circle fill="none" stroke="#FFFFFF" stroke-width="2" stroke-miterlimit="10" cx="150.945" cy="242.075" r="9.921"/>
<g>
	<path fill="#F4F5F0" d="M20.927,7.111c-1.383-0.731-2.956-1.15-4.629-1.15s-3.246,0.418-4.629,1.149v17.541
		c1.383,0.731,2.956,1.149,4.629,1.149s3.246-0.418,4.629-1.15V7.111z"/>
	<path fill="#008C45" d="M6.378,15.881c0,3.806,2.146,7.107,5.291,8.771V7.11C8.523,8.774,6.378,12.075,6.378,15.881z"/>
	<path fill="#CD212A" d="M26.217,15.881c0-3.806-2.146-7.106-5.29-8.77v17.54C24.071,22.987,26.217,19.687,26.217,15.881z"/>
</g>
<circle fill="none" stroke="#FFFFFF" stroke-width="2" stroke-miterlimit="10" cx="16.3" cy="242.075" r="9.921"/>
<circle fill="none" stroke="#FFFFFF" stroke-width="2" stroke-miterlimit="10" cx="16.298" cy="15.881" r="9.921"/>
</svg>
