<?xml version="1.0" encoding="utf-8"?>
<!-- Generator: Adobe Illustrator 15.1.0, SVG Export Plug-In  -->
<!DOCTYPE svg PUBLIC "-//W3C//DTD SVG 1.1//EN" "http://www.w3.org/Graphics/SVG/1.1/DTD/svg11.dtd" [
	<!ENTITY ns_flows "http://ns.adobe.com/Flows/1.0/">
]>
<svg version="1.1"
	 xmlns="http://www.w3.org/2000/svg" xmlns:xlink="http://www.w3.org/1999/xlink" xmlns:a="http://ns.adobe.com/AdobeSVGViewerExtensions/3.0/"
	 x="0px" y="0px" width="167px" height="258px" viewBox="0.002 0.003 167 258" enable-background="new 0.002 0.003 167 258"
	 xml:space="preserve">
<defs>
	<symbol  id="RU" viewBox="-42.52 -42.519 85.038 85.038">
		<path fill="none" d="M0,42.52c-0.007,0-0.013,0-0.02,0H0.02C0.013,42.519,0.007,42.52,0,42.52z"/>
		<path fill="#FFFFFF" d="M0.02,42.519H-0.02c-18.504-0.008-34.235-11.839-40.071-28.346H40.09
			C34.253,30.68,18.521,42.511,0.02,42.519z"/>
		<path fill="#0039A6" d="M42.519,0c0,4.971-0.861,9.739-2.429,14.173h-80.181C-41.658,9.739-42.52,4.971-42.52,0
			s0.861-9.739,2.429-14.173H40.09C41.657-9.739,42.519-4.971,42.519,0z"/>
		<path fill="#D52B1E" d="M40.09-14.173h-80.181C-34.253-30.686-18.512-42.519,0-42.519C18.511-42.519,34.251-30.686,40.09-14.173z"
			/>
	</symbol>
	<symbol  id="Rand" viewBox="5.377 -252.996 156.49 248.039">
		<g id="weiß_2_">
		</g>
		<path fill="#FFFFFF" d="M159.867-242.076c0,4.92-4,8.92-8.92,8.92c-4.921,0-8.921-4-8.921-8.92s4-8.92,8.921-8.92
			C155.867-250.996,159.867-246.996,159.867-242.076z M159.867-15.887c0,4.92-4,8.93-8.92,8.93c-4.921,0-8.921-4.01-8.921-8.93
			c0-4.91,4-8.92,8.921-8.92C155.867-24.807,159.867-20.797,159.867-15.887z M19.387-4.957h123.9h4.569h3.091
			c6.02,0,10.92-4.9,10.92-10.93v-9.52v-208.09v-8.58c0-6.021-4.9-10.92-10.92-10.92h-9.471c-37.63,0-75.85,0-125.17,0
			c-6.029,0-10.92,4.898-10.92,10.92c-0.01,72.18-0.01,141.83-0.01,211.35v14.84c0,6.029,4.9,10.93,10.92,10.93H19.387z
			 M25.227-15.887c0,4.92-4.01,8.93-8.93,8.93c-4.91,0-8.92-4.01-8.92-8.93c0-4.91,4.01-8.92,8.92-8.92
			C21.217-24.807,25.227-20.797,25.227-15.887z M16.307-250.996c4.92,0,8.92,4,8.92,8.92s-4,8.92-8.92,8.92s-8.92-4-8.92-8.92
			S11.387-250.996,16.307-250.996z M27.227-15.887c0-6.02-4.9-10.92-10.93-10.92c-3.68,0-6.939,1.83-8.92,4.629
			c0-71.199,0-142.398,0-213.609c1.98,2.801,5.24,4.631,8.93,4.631c6.02,0,10.92-4.9,10.92-10.92c0-3.682-1.83-6.941-4.63-8.92
			c40.69,0,81.37,0,122.061,0c-2.801,1.979-4.631,5.238-4.631,8.92c0,6.02,4.9,10.92,10.921,10.92c3.68,0,6.939-1.83,8.92-4.621
			c0,71.201,0,142.4,0,213.6c-1.98-2.799-5.24-4.629-8.92-4.629c-6.021,0-10.921,4.9-10.921,10.92c0,3.689,1.83,6.949,4.631,8.93
			c-40.69,0-81.38,0-122.061,0C25.396-8.938,27.227-12.197,27.227-15.887z"/>
	</symbol>
</defs>
<g>
	<path fill="#4B8F5E" d="M167.244,240.945c0,9.354-7.653,17.008-17.008,17.008H17.008C7.653,257.953,0,250.3,0,240.945V17.008
		C0,7.653,7.653,0,17.008,0h133.229c9.354,0,17.008,7.653,17.008,17.008V240.945z"/>
</g>
<use xlink:href="#RU"  width="85.038" height="85.038" x="-42.52" y="-42.519" transform="matrix(0.2333 0 0 -0.2333 150.8008 242.0752)" overflow="visible"/>
<use xlink:href="#RU"  width="85.038" height="85.038" x="-42.52" y="-42.519" transform="matrix(0.2333 0 0 -0.2333 150.7998 15.8809)" overflow="visible"/>
<use xlink:href="#RU"  width="85.038" height="85.038" x="-42.52" y="-42.519" transform="matrix(0.2333 0 0 -0.2333 16.2979 242.0752)" overflow="visible"/>
<use xlink:href="#RU"  width="85.038" height="85.038" x="-42.52" y="-42.519" transform="matrix(0.2333 0 0 -0.2333 16.2979 15.8809)" overflow="visible"/>
<path fill="#C3AA6C" d="M75.258,52.936c1.048-0.016,2.219-0.226,3.12-0.961c0.753,0.048,0.649,0.949,1.68,0.721
	c0.874-0.134,1.435-0.581,2.16-0.24c1.776,0.932,4.638-0.19,5.76,1.68c0.812,1.03,1.798,1.883,2.642,2.88
	c-0.206,0.767,0.377,0.742,0.479,1.2c0.033,1.007,0.438,1.644,0.96,2.16c-0.039,0.279,0.053,0.427,0.24,0.48
	c0.235,0.672,0.641-0.35,0.96,0.239c0,1.28,0,2.561,0,3.841c0.472,0.743,1.023-0.08,1.2,0.96c0,0.88,0,1.76,0,2.64
	c1.425-0.14,2.44-0.985,3.358-0.96c0.104,0.537,1.185,0.097,1.682,0.24c0.067,1.027-1.857,0.063-1.92,0.96
	c-0.754-0.113-0.636,0.646-1.2,0.72c-0.933,0.428-1.325,1.395-1.681,2.4c0,0.079,0,0.159,0,0.239
	c-0.325,0.074-0.198,0.602-0.239,0.96c0.601,0.04,0.751-0.368,0.96-0.72c0-0.08,0-0.16,0-0.24c0.588-0.372,0.775-1.144,1.438-1.439
	c0.504,0.457,1.268,0.653,1.2,1.681c0,0.561,0,1.119,0,1.68c0.611-0.028,0.931-0.35,0.96-0.96c-0.049-0.751,0.162-1.762-0.24-2.159
	c0.181-0.739-0.657-0.462-0.479-1.2c0.146-0.333,0.924-0.036,0.96-0.48c0.08,0,0.16,0,0.24,0c0.521,0.041,0.107-0.851,0.239-1.2
	c0.845,0.276,0.879,1.361,1.681,1.681c0,0.08,0,0.16,0,0.24c0,0.8,0,1.6,0,2.399c-0.134,0.586-0.93,0.511-0.721,1.439
	c-1.116,0.563-1.441,1.918-2.881,2.159c-0.079,0-0.158,0-0.238,0c-0.278-0.77-1.607-1.741-2.642-0.96
	c-1-0.119-1.15,0.607-1.199,1.439c-1.091,0.731,0.453,1.385,0.239,2.641c-1.399,2.786-2.2,5.782-2.16,8.399
	c0.05,1.381-0.354,2.065,0.24,3.12c-0.277,0.65-0.116,0.598,0,1.439c-2.199,0.44-3.479,1.803-5.04,2.881
	c-0.561,0.318-1.352,0.406-1.92,0.72c-0.08,0-0.16,0-0.24,0c-1.57,1.147-3.061,2.379-4.56,3.601
	c-1.504-0.188-2.556,0.648-3.12-0.479c0.243-0.397,1.02-0.262,1.44-0.479c1.833-0.566,3.207-1.594,4.56-2.641c0-0.08,0-0.16,0-0.24
	c1.492-0.428,1.859-1.979,2.88-2.88c0.204,0.045,0.228-0.094,0.24-0.239c0.935-0.506,1.278-1.602,1.92-2.399
	c0.368-0.831,1.21-1.19,1.2-2.4c0.782-0.177,0.722-1.197,0.96-1.92c-1.392-0.19-0.966,1.435-1.681,1.92
	c-0.824,1.016-1.495,2.186-2.159,3.36c-2.053,1.868-4.002,3.838-6.24,5.52c-0.729-0.156-2.104,0.871-3.36,0.961
	c-1.476,0.122-2.368-0.244-3.359,0c-0.214-0.187-0.542-0.259-0.96-0.24c-1.406-0.354-2.114-1.405-3.12-2.159
	c0.089-1.449-0.938-1.782-0.721-3.36c0-0.08,0-0.16,0-0.239c0.898-0.622,3.314,0.274,3.601-0.961c3.271-0.697,5.358-3.264,5.28-6
	c-3.554-0.539-6.313-5.305-10.08-2.64c-1.041-0.263-2.533-2.172-3.36-0.479c-0.16,0-0.32,0-0.48,0
	c-0.302-0.737-0.871-1.209-1.199-1.92c-1.523-1.907-2.472-5.434-2.16-8.399c0.723-0.798,1.127-1.913,1.92-2.641
	c0.976,0.097,0.738-1.021,1.439-1.2c1.9,1.213,4.27,2.911,5.761,0.24c0.192-0.127,0.39-0.25,0.72-0.24
	c-0.189,0.771-0.871,1.049-1.2,1.681c-1.333,2.026-4.744,1.977-5.52,4.561c0.788,1.451,1.637,2.843,3.359,3.359
	c0.278,0.201,0.645,0.315,1.2,0.24c-0.651-1.669-2.667-1.973-3.36-3.601c0.672-0.688,1.714-1.008,2.4-1.681
	c1.219-0.461,2.133-1.228,2.88-2.16c0.491-0.79,1.393-1.168,1.44-2.4c0.958-1.499-0.453-1.735-0.96-2.159
	c0.144-4.614-1.785-8.199-6.24-7.44c0.174-0.734-0.414-0.706-0.24-1.44c2.939-0.479,4.509,0.668,6.72,1.681
	c-0.194-1.44-0.382-1.813-1.92-2.16c-0.176-0.224-0.437-0.364-0.72-0.48c-0.211-0.771,0.792-0.328,0.72-0.96c0.08,0,0.16,0,0.24,0
	c1.116-0.323,2.655-0.225,3.36-0.96C72.873,54.179,75.027,54.13,75.258,52.936z M84.617,55.096c-2.655-1.396-6.951-1.062-8.16,2.16
	c2.821-1.774,7.793-1.86,10.318,0.24c0.188-0.053,0.279-0.201,0.24-0.48C86.502,56.091,85.688,55.465,84.617,55.096z M83.418,57.496
	c-0.633-0.563-1.637-0.041-2.4,0c-1.613,0.307-2.148,1.691-3.12,2.64c-3.559,3.573-2.251,13.046,4.08,9.601
	c0.708-0.651,1.609-1.11,1.92-2.16c0.247-0.553,0.826-0.774,0.721-1.68c0.807-0.554,0.725-1.995,1.439-2.641c0.08,0,0.16,0,0.24,0
	c0.712-0.487,1.147-1.252,1.2-2.399c-1.271,0.182-0.228-0.628-0.722-0.96c-0.678-0.198-0.62,0.338-1.198,0.239
	C85.156,58.957,84.842,57.671,83.418,57.496z M91.338,69.496c-0.184-0.856,0.743-1.648-0.24-1.92
	c-0.638,2.498-2.49,5.007-2.88,6.959c0.835,0.585,1.458-1.094,1.92-1.68c0-0.16,0-0.32,0-0.479
	C91.028,71.906,90.91,70.428,91.338,69.496z M69.737,74.775c0.729,0.391,1.184,1.058,2.4,0.96c0.209-1.891-1.697-1.662-3.36-1.681
	C67.3,74.225,68.658,75.108,69.737,74.775z"/>
<path fill="#C3AA6C" d="M64.697,58.455c2.158-0.398,2.933,0.588,3.841,1.44c0.011,0.948,0.527,1.392,0.72,2.159
	c0,0.32,0,0.641,0,0.96c-0.32,0-0.64,0-0.96,0c-1.625-0.693-3.321-1.318-4.32-2.64C63.774,59.293,64.539,59.177,64.697,58.455z"/>
<path fill="#C3AA6C" d="M79.817,59.415c1.025-0.495,1.841-1.2,3.601-0.96c0.08,0,0.16,0,0.24,0c0.443,0.917,1.229,1.49,0.96,3.12
	c-1.698,1.422-4.248,1.992-6.96,2.399c-0.222-0.313,0.435-1.795,0.72-2.399C78.646,60.645,79.549,60.347,79.817,59.415z"/>
<path fill="#4C5E56" d="M69.258,62.056c0.53,0.03,0.102,1.019,0.24,1.44c-0.429-0.133-0.997-0.124-1.2-0.48c0.32,0,0.64,0,0.96,0
	C69.258,62.695,69.258,62.375,69.258,62.056z"/>
<path fill="#4C5E56" d="M101.418,69.975c0.396,0.26,0.396,2.143,0,2.4C101.418,71.575,101.418,70.775,101.418,69.975z"/>
<path fill="#4C5E56" d="M94.697,72.136c0.04,0.279,0.38,0.262,0.721,0.24c-0.209,0.352-0.359,0.76-0.96,0.72
	C94.499,72.736,94.372,72.21,94.697,72.136z"/>
<path fill="#4C5E56" d="M98.057,72.376c0.355,0.044,0.22,0.579,0.24,0.96c0.33,0.01,0.527-0.113,0.72-0.24
	c-0.029,0.61-0.349,0.932-0.96,0.96C98.057,73.495,98.057,72.936,98.057,72.376z"/>
<path fill="#4C5E56" d="M68.777,74.056c-0.384,0.944,1.037,0.083,0.96,0.721C68.658,75.108,67.3,74.225,68.777,74.056z"/>
<path fill="#C3AA6C" d="M96.378,76.455c0.095,0.899-1.092,1.238-1.681,0.721C94.645,76.051,95.783,75.632,96.378,76.455z"/>
<path fill="#AB3027" d="M64.938,81.495c1.093,0.347,1.739,1.142,2.4,1.92c0.922-0.438,1.624-1.096,2.64-1.438
	c2.099,0.701,3.595,2.005,5.521,2.88c-3.486,0.571-8.292,0.612-11.04-0.48C64.331,83.129,64.773,82.452,64.938,81.495z"/>
<path fill="#AB3027" d="M75.978,86.296c-0.745,3.485-9.705,5.417-9.84,0C69.479,86.057,72.465,86.586,75.978,86.296z"/>
<path fill="#4C5E56" d="M128.298,126.136c-5.04,0-10.08,0-15.12,0c0.618-2.191,1.14-4.782,2.64-6.721
	c1.12-1.445,3.089-1.997,3.842-3.6c-4.458,0.348-7.052,5.901-7.44,10.319c-11.6,0-23.2,0-34.8,0c0.295-1.705,2.664-1.337,2.64-3.359
	c1.516,0.19,1.997-0.71,2.641-1.92c0.314,0.244,0.885,0.234,1.199,0.479c1.184-0.856,1.394-3,3.601-2.16
	c0.489-0.39-0.012-1.771,0.479-2.16c0.311-0.331,1.043-0.236,1.682-0.239c0.666-0.533,0.396-2.003,1.198-2.4
	c0.733-0.173,0.875,0.246,1.44,0.24c0.813-0.226,0.734-1.345,1.2-1.92c0.563,0.077,0.899,0.379,1.68,0.24
	c0.729-0.23,0.522-1.397,0.96-1.921c0.866-0.143,1.609-0.404,2.4,0c0.296-2.184,3.558-1.401,4.318-3.119
	c4.71-0.892,7.368,1.5,11.04,3.359c6.5,3.292,12.568,7.087,13.92,14.399C128.109,125.684,128.386,125.728,128.298,126.136z"/>
<path fill="#4C5E56" d="M59.897,126.136c-7.04,0-14.08,0-21.12,0c1.545-9.637,10.561-10.786,17.04-15.359
	c1.684,1.037,2.029,3.411,3.36,4.8C57.376,118.716,58.117,123.083,59.897,126.136z M46.938,125.896
	c0.686-2.437,1.14-5.102,1.681-7.681c-0.33,0.01-0.527-0.112-0.721-0.24C46.751,119.404,45.183,123.93,46.938,125.896z"/>
<path fill="#322922" d="M113.177,126.136c-0.32,0-0.64,0-0.96,0c0.39-4.418,2.982-9.973,7.44-10.319
	c-0.753,1.603-2.722,2.153-3.842,3.6C114.316,121.353,113.796,123.943,113.177,126.136z"/>
<path fill="#322922" d="M47.897,117.975c0.193,0.128,0.391,0.25,0.721,0.24c-0.541,2.579-0.995,5.244-1.681,7.681
	C45.183,123.93,46.751,119.404,47.897,117.975z"/>
<path fill="#322922" d="M38.777,126.136c-0.278,0.039-0.427-0.054-0.479-0.239c0.547-10.653,11.3-11.101,17.28-16.32
	c0.201-2.105-0.519-5.126,1.68-6c0.139-0.779-0.164-1.116-0.24-1.68c3.626-3.453,4.172-8.902,10.8-9.601
	c0.018-3.057-2.979-3.101-2.64-6.479c-0.24-0.641-0.969-0.791-1.44-1.2c0.171-1.289-0.188-2.05-0.479-2.88
	c-2.783-2.623-5.63-8.543-3.12-12.48c0.853-1.336,2.38-1.796,3.36-3.12c-0.263-2.487-0.709-5.429-1.2-7.199
	c0.309-0.962,0.496,0.065,1.2,0c-0.386-1.304-0.247-2.939-0.721-4.08c-0.673-1.621-2.396-2.435-3.359-3.841
	c-1.245-1.814-1.339-4.161-1.92-6.479c-0.21-0.838-0.958-1.193-0.48-2.4c-0.257-0.543-0.545-1.056-0.96-1.439
	c0.502-0.935,0.671-2.244,0-3.12c0.568-0.899,0.066-2.036,0.24-2.88c0.937-4.554,4.07-6.754,7.68-8.88
	c2.364,0.108,4.273-0.427,6.24-1.44c1.096,1.206,3.367,0.677,4.08-0.479c1.749,0.766,3.347,0.812,4.8-0.24
	c1.305,1.452,3.461,0.75,5.28,0.24c0.818,0.22,0.93,1.149,1.92,1.199c1.218,0.098,1.401-0.838,2.16-1.199
	c3.4,2.19,10.387-0.656,12.239,3.6c4.838,1.163,6.348,5.653,9.601,8.4c1.128,7.235-1.458,13.261-4.561,18
	c0.782,2.373,0.685,6.338-0.721,7.92c-0.211,0.771,0.791,0.329,0.721,0.96c-2.314,3.668-2.213,8.455-4.801,12
	c7.453,1.518,11.395,10.141,5.761,15.359c-1.806,1.673-4.49,2.003-6.479,3.841c1.52,1.84,3.044,3.676,4.32,5.76
	c0.173,0.732-0.246,0.875-0.24,1.439c0.744,0.855,0.814,2.385,1.92,2.88c0.076,0.558-0.038,0.922-0.24,1.2
	c4.064,4.952,12.782,5.907,17.76,10.8c1.821,1.789,2.337,3.489,3.602,6c0.495,0.983,2.114,2.303,1.438,4.08
	c-0.158,0-0.318,0-0.479,0c0.088-0.407-0.188-0.452-0.48-0.479c-1.352-7.313-7.42-11.107-13.92-14.399
	c-3.672-1.859-6.33-4.251-11.04-3.359c-0.762,1.718-4.022,0.937-4.318,3.12c-0.791-0.405-1.534-0.144-2.4,0
	c-0.438,0.521-0.229,1.688-0.96,1.92c-0.779,0.139-1.116-0.163-1.68-0.24c-0.466,0.575-0.387,1.695-1.2,1.92
	c-0.565,0.006-0.707-0.413-1.44-0.24c-0.803,0.397-0.532,1.867-1.198,2.4c-0.639,0.003-1.371-0.091-1.682,0.24
	c-0.489,0.389,0.012,1.771-0.479,2.159c-2.207-0.84-2.417,1.304-3.601,2.16c-0.314-0.245-0.885-0.234-1.199-0.479
	c-0.644,1.21-1.125,2.11-2.641,1.92c0.024,2.022-2.345,1.654-2.64,3.359c-5.84,0-11.68,0-17.521,0
	c-1.779-3.053-2.521-7.42-0.72-10.561c-1.331-1.389-1.677-3.763-3.36-4.8C49.338,115.35,40.322,116.499,38.777,126.136z
	 M62.298,68.295c-1.129,0.392-1.402,1.639-1.92,2.641c-0.312,2.967,0.637,6.492,2.16,8.399c0.231,0.834,1.061,2.994,1.68,1.92
	c0.827-1.691,2.319,0.217,3.36,0.479c3.767-2.665,6.526,2.101,10.08,2.64c0.078,2.736-2.01,5.303-5.28,6
	c-0.571,0.874-4.212-0.058-3.601,1.2c-0.218,1.578,0.81,1.911,0.721,3.359c0.601,1.004,2.104,2.369,3.12,2.16
	c0.418-0.019,0.747,0.055,0.96,0.24c0.532,0.189,2.389,0.494,3.359,0c1.257-0.09,2.632-1.117,3.36-0.961
	c2.463-1.456,4.403-3.436,6.24-5.52c0.664-1.176,1.335-2.346,2.159-3.36c0.343-0.093,0.404-0.288,0.721,0
	c0.01,1.21-0.832,1.569-1.2,2.4c-0.974,0.466-1.18,1.699-1.92,2.399c-0.014,0.146-0.036,0.284-0.24,0.239
	c-1.158,0.763-1.751,2.089-2.88,2.88c0,0.08,0,0.16,0,0.24c-1.625,0.774-3.067,1.731-4.56,2.641
	c-0.421,0.219-1.197,0.082-1.44,0.479c0.564,1.129,1.616,0.291,3.12,0.479c1.87-0.851,3.223-2.218,4.56-3.601c0.08,0,0.16,0,0.24,0
	c1.077,0.362,1.328-0.082,1.92-0.721c1.563-1.077,2.841-2.438,5.04-2.88c-0.116-0.843-0.276-0.789,0-1.439
	c-0.262-1.38,0.271-2.064-0.24-3.12c-0.04-2.617,0.761-5.613,2.16-8.399c0.791-0.808-0.717-1.352-0.239-2.641
	c0.049-0.832,0.199-1.561,1.199-1.439c1.489-0.289,1.978,0.425,2.642,0.96c0.08,0,0.159,0,0.238,0
	c1.051,0.323,2.151-1.364,2.882-2.159c-0.209-0.93,0.586-0.854,0.72-1.439c0.396-0.259,0.396-2.142,0-2.4c0-0.08,0-0.159,0-0.239
	c-0.769-1.152-1.363-2.478-3.602-2.16c-0.918-0.025-1.935,0.819-3.358,0.96c0-0.88,0-1.76,0-2.641c0.618-0.058-0.33-0.412,0-0.96
	c-0.602,0.03-0.752,0.458-0.96-0.239c-0.175-1.426,0.429-3.629-0.48-4.32c-0.098,0.302-0.31,0.491-0.72,0.48
	c-0.188-0.054-0.279-0.201-0.24-0.48c-0.214-0.826-0.584-1.496-0.96-2.16c-0.103-0.458-0.686-0.434-0.479-1.2
	c-0.655-1.185-1.572-2.107-2.642-2.88c-1.122-1.871-3.983-0.748-5.76-1.68c0-0.08,0-0.16,0-0.24c-0.759-0.356-1.641-0.049-2.16,0.48
	c-1.029,0.229-0.926-0.673-1.68-0.721c-0.901,0.735-2.072,0.945-3.12,0.96c-0.712,1.15-2.554,0.707-3.12-0.239
	c-0.231,1.288-2.51,0.529-3.12,1.439c-0.08,0-0.16,0-0.24,0c-0.474,0.39-1.746,0.772-2.399,0.24c0.066,1.133,1.606,0.792,2.399,1.2
	c1.538,0.347,1.726,0.719,1.921,2.16c-2.212-1.014-3.781-2.159-6.721-1.681c-0.174,0.734,0.414,0.706,0.24,1.44
	c4.455-0.759,6.384,2.826,6.24,7.439c-0.08,0-0.16,0-0.24,0c0,0.4,0,0.801,0,1.2c0.739,0.18,0.461-0.659,1.2-0.479
	c0,0.479,0,0.96,0,1.439c-0.048,1.232-0.949,1.61-1.44,2.4c-1.022,0.657-1.896,1.464-2.88,2.16
	c-0.687,0.673-1.729,0.991-2.399,1.681c0.691,1.628,2.709,1.931,3.359,3.6c-0.556,0.076-0.921-0.038-1.2-0.239
	c-1.523-0.716-2.333-2.146-3.359-3.359c0.775-2.584,4.188-2.533,5.52-4.561c0.65-0.47,1.31-0.932,1.44-1.92
	c-0.331,0.01-0.527-0.113-0.721-0.24c0.011,0.33-0.112,0.526-0.239,0.72c-1.492,2.671-3.86,0.973-5.761-0.24
	C63.036,67.274,63.272,68.391,62.298,68.295z M63.737,54.136c0,0.32,0,0.641,0,0.96c0.854,0.055,1.438-0.162,1.681-0.72
	C64.585,54.568,64.495,54.019,63.737,54.136z M64.697,58.455c-0.157,0.722-0.922,0.837-0.72,1.92c0.999,1.321,2.694,1.946,4.32,2.64
	c0.203,0.356,0.771,0.348,1.2,0.48c-0.139-0.422,0.29-1.41-0.24-1.44c-0.191-0.769-0.709-1.211-0.72-2.159
	C68.013,58.815,66.399,57.559,64.697,58.455z M69.018,66.136c0.226-0.202,0.512-1.529,0-1.68c-0.439,1.035-1.134,1.467-1.92,1.44
	c-2.11-0.071-1.272-3.528-3.36-3.601c0.559,2.323,0.578,5.183,3.36,5.28C67.642,67.948,69.128,67.215,69.018,66.136z M94.697,77.176
	c0.589,0.519,1.774,0.18,1.681-0.721C95.783,75.632,94.645,76.051,94.697,77.176z M64.458,84.375
	c2.748,1.094,7.554,1.053,11.04,0.48c-1.926-0.875-3.422-2.179-5.521-2.881c-1.017,0.345-1.718,1.003-2.64,1.439
	c-0.661-0.778-1.308-1.573-2.4-1.92C64.773,82.452,64.331,83.129,64.458,84.375z M66.137,86.296c0.135,5.417,9.096,3.485,9.84,0
	C72.465,86.586,69.479,86.057,66.137,86.296z"/>
<path fill="#C3AA6C" d="M60.378,70.936c0.518-1.002,0.791-2.249,1.92-2.641C61.505,69.023,61.1,70.138,60.378,70.936z"/>
<path fill="#4C5E56" d="M62.538,79.336c0.328,0.711,0.896,1.183,1.199,1.92c0.16,0,0.32,0,0.48,0
	C63.599,82.33,62.77,80.17,62.538,79.336z"/>
<path fill="#4C5E56" d="M68.777,91.575c-0.611-1.258,3.029-0.326,3.601-1.2c-0.286,1.235-2.702,0.339-3.601,0.961
	C68.777,91.415,68.777,91.495,68.777,91.575z"/>
<path fill="#4C5E56" d="M69.498,94.936c1.006,0.754,1.714,1.806,3.12,2.159C71.603,97.305,70.099,95.938,69.498,94.936z"/>
<path fill="#4C5E56" d="M73.577,97.336c0.991-0.244,1.884,0.122,3.359,0C75.967,97.83,74.11,97.525,73.577,97.336z"/>
<path fill="#4C5E56" d="M80.298,96.375c2.238-1.682,4.188-3.651,6.24-5.52C84.701,92.939,82.761,94.919,80.298,96.375z"/>
<path fill="#4C5E56" d="M88.697,87.495c0.715-0.485,0.289-2.11,1.681-1.92c-0.238,0.723-0.178,1.743-0.96,1.92
	C89.102,87.207,89.04,87.402,88.697,87.495z"/>
<path fill="#4C5E56" d="M86.298,92.296c0.74-0.7,0.946-1.935,1.92-2.399C87.576,90.694,87.231,91.79,86.298,92.296z"/>
<path fill="#4C5E56" d="M83.177,95.415c1.128-0.791,1.722-2.117,2.88-2.88C85.037,93.434,84.669,94.987,83.177,95.415z"/>
<path fill="#4C5E56" d="M78.617,98.296c1.492-0.908,2.936-1.865,4.56-2.641C81.824,96.702,80.45,97.729,78.617,98.296z"/>
<path fill="#4C5E56" d="M80.298,99.256c1.499-1.222,2.989-2.452,4.56-3.601C83.52,97.038,82.168,98.405,80.298,99.256z"/>
<path fill="#4C5E56" d="M85.097,95.655c0.568-0.313,1.359-0.4,1.92-0.72C86.426,95.573,86.175,96.019,85.097,95.655z"/>
<path fill="#4C5E56" d="M91.816,87.495c0.513,1.056-0.021,1.74,0.24,3.12C91.462,89.561,91.866,88.876,91.816,87.495z"/>
<path fill="#4C5E56" d="M93.737,76.455c-0.478,1.289,1.03,1.833,0.239,2.641C94.19,77.84,92.646,77.187,93.737,76.455z"/>
<path fill="#4C5E56" d="M94.937,75.016c1.033-0.781,2.362,0.19,2.642,0.961C96.914,75.439,96.427,74.727,94.937,75.016z"/>
<path fill="#4C5E56" d="M97.816,75.975c1.438-0.241,1.765-1.597,2.881-2.159C99.969,74.61,98.867,76.299,97.816,75.975z"/>
<path fill="#4C5E56" d="M97.816,67.576c2.237-0.317,2.833,1.008,3.602,2.16c-0.802-0.319-0.836-1.404-1.681-1.681
	c-0.132,0.35,0.28,1.24-0.239,1.2c0.297-1.305-1.453-0.561-1.92-0.479c0.063-0.897,1.987,0.067,1.92-0.96
	C99.001,67.673,97.921,68.112,97.816,67.576z"/>
<path fill="#4C5E56" d="M92.298,60.855c0.41,0.011,0.622-0.179,0.72-0.48c0.909,0.691,0.307,2.896,0.48,4.32
	c0.208,0.698,0.358,0.27,0.96,0.24c-0.33,0.547,0.618,0.901,0,0.96c-0.177-1.04-0.729-0.217-1.2-0.96c0-1.28,0-2.561,0-3.841
	C92.938,60.507,92.533,61.528,92.298,60.855z"/>
<path fill="#4C5E56" d="M91.097,58.215c0.376,0.664,0.746,1.334,0.96,2.16C91.535,59.858,91.131,59.223,91.097,58.215z"/>
<path fill="#4C5E56" d="M87.977,54.136c1.068,0.772,1.985,1.695,2.642,2.88C89.774,56.019,88.788,55.165,87.977,54.136z"/>
<path fill="#4C5E56" d="M82.218,52.455c-0.727-0.341-1.286,0.106-2.16,0.24c0.52-0.529,1.401-0.837,2.16-0.48
	C82.218,52.295,82.218,52.375,82.218,52.455z"/>
<path fill="#4C5E56" d="M69.018,54.136c0.61-0.909,2.888-0.151,3.12-1.439c0.566,0.947,2.408,1.391,3.12,0.24
	c-0.23,1.193-2.384,1.242-2.88,0.239C71.673,53.911,70.134,53.813,69.018,54.136z"/>
<path fill="#C3AA6C" d="M68.777,55.576c-0.792-0.408-2.333-0.067-2.399-1.2c0.652,0.533,1.926,0.149,2.399-0.24
	c0.071,0.632-0.931,0.188-0.72,0.96C68.341,55.212,68.602,55.352,68.777,55.576z"/>
<path fill="#4C5E56" d="M69.498,67.335c0.127-0.192,0.25-0.39,0.239-0.72c0.193,0.127,0.391,0.25,0.721,0.24
	c-0.131,0.988-0.79,1.45-1.44,1.92c0.329-0.631,1.01-0.91,1.2-1.681C69.887,67.085,69.69,67.208,69.498,67.335z"/>
<path fill="#4C5E56" d="M94.697,71.896c0.354-1.006,0.748-1.973,1.681-2.4C95.705,70.184,95.386,71.224,94.697,71.896z"/>
<path fill="#4C5E56" d="M96.856,70.695c-0.663,0.297-0.852,1.067-1.438,1.439c0.315-0.724,0.599-1.48,1.438-1.68
	C96.856,70.536,96.856,70.616,96.856,70.695z"/>
<path fill="#4C5E56" d="M99.258,69.255c-0.036,0.444-0.813,0.147-0.96,0.48c-0.179,0.738,0.659,0.461,0.479,1.2
	c-0.482-0.316-0.812-0.788-0.96-1.44C98.383,69.501,98.523,69.082,99.258,69.255z"/>
<path fill="#4C5E56" d="M63.498,73.336c1.025,1.213,1.835,2.645,3.359,3.359C65.135,76.179,64.286,74.787,63.498,73.336z"/>
<path fill="#C3AA6C" d="M67.097,71.655c0.984-0.695,1.857-1.502,2.88-2.16C69.229,70.428,68.316,71.194,67.097,71.655z"/>
<path fill="#322922" d="M65.418,54.375c-0.242,0.559-0.826,0.774-1.681,0.72c0-0.319,0-0.64,0-0.96
	C64.495,54.019,64.585,54.568,65.418,54.375z"/>
<path fill="#4C5E56" d="M84.617,55.096c1.07,0.369,1.884,0.996,2.399,1.92C86.242,56.352,85.444,55.708,84.617,55.096z"/>
<path fill="#322922" d="M87.017,57.016c0.039,0.279-0.053,0.428-0.24,0.48c-2.525-2.101-7.497-2.016-10.318-0.24
	c1.209-3.222,5.504-3.557,8.16-2.16C85.444,55.708,86.242,56.352,87.017,57.016z"/>
<path fill="#4C5E56" d="M77.897,60.136c0.972-0.948,1.507-2.333,3.12-2.64C79.646,58.043,79.109,59.427,77.897,60.136z"/>
<path fill="#4C5E56" d="M81.978,69.735c0.323-1.037,1.501-1.22,1.92-2.16C83.587,68.625,82.686,69.084,81.978,69.735z"/>
<path fill="#4C5E56" d="M86.057,63.255c-0.715,0.646-0.633,2.087-1.439,2.641C85.056,65.128,85.344,62.951,86.057,63.255z"/>
<path fill="#4C5E56" d="M86.298,63.255c0.501-0.898,0.401-0.993,0.96-1.92c-0.29-0.35-1.049-0.23-0.72-1.2
	c-0.776-0.297-0.185,0.776-0.96,0.48c-0.576-1.104-0.684-2.678-2.16-2.88c0-0.08,0-0.16,0-0.24c1.424,0.176,1.737,1.461,2.16,2.64
	c0.577,0.099,0.521-0.438,1.198-0.239c0.494,0.332-0.55,1.142,0.722,0.96C87.445,62.003,87.01,62.768,86.298,63.255z"/>
<path fill="#4C5E56" d="M64.697,58.455c1.702-0.896,3.316,0.36,3.841,1.44C67.629,59.044,66.854,58.059,64.697,58.455z"/>
<path fill="#4C5E56" d="M79.817,59.415c0.593-0.772,2.318-1.674,3.601-0.96C81.657,58.215,80.843,58.921,79.817,59.415z"/>
<path fill="#4C5E56" d="M77.657,63.975c-0.733,0.549,0.039-2.133,0.72-2.399C78.092,62.18,77.437,63.661,77.657,63.975z"/>
<path fill="#BDBDBB" d="M67.097,67.576c-2.782-0.098-2.802-2.958-3.36-5.28c2.086,0.072,1.25,3.529,3.36,3.601
	c0.787,0.026,1.48-0.405,1.92-1.44c0.512,0.15,0.226,1.478,0,1.68C68.636,66.874,68.101,67.459,67.097,67.576z"/>
<path fill="#C3AA6C" d="M69.018,66.136c0.11,1.08-1.376,1.813-1.92,1.44C68.101,67.459,68.636,66.874,69.018,66.136z"/>
<path fill="#4C5E56" d="M83.657,66.136c0.197-0.614,1.135-1.729,0.479-2.399C85.015,63.304,84.432,66.009,83.657,66.136z"/>
<path fill="#BDBDBB" d="M83.657,66.136c-0.706,4.258-8.355,4.223-6.48-0.96c0.422-0.138,1.41,0.291,1.44-0.239
	c0.481,0.638,0.958,1.281,1.68,1.68c2.047,0.446,2.236-2.18,3.84-2.88C84.792,64.406,83.854,65.521,83.657,66.136z"/>
<path fill="#4C5E56" d="M88.218,74.535c1.146-0.053,1.029-1.37,1.92-1.68C89.676,73.441,89.052,75.12,88.218,74.535z"/>
<path fill="#4C5E56" d="M91.338,69.496c-0.428,0.932-0.31,2.411-1.2,2.88C90.757,71.635,90.582,70.1,91.338,69.496z"/>
<path fill="#322922" d="M68.777,74.056c1.663,0.019,3.569-0.21,3.36,1.681c-1.217,0.098-1.67-0.569-2.4-0.96
	C69.813,74.139,68.393,75,68.777,74.056z"/>
<path fill="#C3AA6C" d="M71.418,67.096c0-0.479,0-0.96,0-1.439c-0.739-0.179-0.461,0.659-1.2,0.479c0-0.399,0-0.8,0-1.199
	c0.08,0,0.16,0,0.24,0C70.965,65.359,72.376,65.597,71.418,67.096z"/>
<path fill="#322922" d="M98.776,70.936c0.402,0.397,0.191,1.408,0.24,2.159c-0.191,0.127-0.39,0.25-0.72,0.24
	c-0.021-0.381,0.115-0.916-0.24-0.96c0.066-1.026-0.696-1.224-1.2-1.681c0-0.08,0-0.16,0-0.24c-0.841,0.199-1.123,0.957-1.438,1.68
	c0,0.08,0,0.16,0,0.24c-0.341,0.021-0.681,0.039-0.721-0.24c0-0.08,0-0.16,0-0.239c0.688-0.673,1.008-1.714,1.681-2.4
	c0.564-0.074,0.446-0.833,1.2-0.72c0.467-0.081,2.217-0.825,1.92,0.479c-0.08,0-0.16,0-0.24,0c-0.733-0.173-0.875,0.246-1.44,0.24
	C97.966,70.147,98.294,70.62,98.776,70.936z"/>
<path fill="#322922" d="M81.018,57.496c0.764-0.041,1.768-0.563,2.4,0c0,0.08,0,0.16,0,0.24c1.478,0.203,1.584,1.775,2.16,2.88
	c0.775,0.296,0.184-0.777,0.96-0.48c-0.329,0.97,0.43,0.851,0.72,1.2c-0.559,0.927-0.459,1.021-0.96,1.92c-0.08,0-0.16,0-0.24,0
	c-0.713-0.304-1.001,1.873-1.439,2.641c0.105,0.905-0.474,1.127-0.721,1.68c-0.419,0.941-1.597,1.123-1.92,2.16
	c-6.331,3.445-7.639-6.026-4.08-9.601C79.109,59.427,79.646,58.043,81.018,57.496z M83.418,58.455
	c-1.282-0.714-3.008,0.188-3.601,0.96c-0.269,0.932-1.172,1.229-1.439,2.16c-0.682,0.267-1.453,2.948-0.72,2.399
	c2.712-0.407,5.262-0.978,6.96-2.399c0.27-1.63-0.517-2.204-0.96-3.12C83.577,58.455,83.498,58.455,83.418,58.455z M84.137,63.735
	c-1.604,0.7-1.792,3.326-3.84,2.88c-0.722-0.398-1.198-1.042-1.68-1.68c-0.03,0.529-1.019,0.102-1.44,0.239
	c-1.875,5.184,5.774,5.218,6.48,0.96C84.432,66.009,85.015,63.304,84.137,63.735z"/>
<path fill="#322922" d="M88.218,74.535c0.39-1.952,2.242-4.462,2.88-6.959c0.983,0.271,0.059,1.063,0.24,1.92
	c-0.756,0.604-0.581,2.139-1.2,2.88c0,0.159,0,0.319,0,0.479C89.247,73.165,89.363,74.482,88.218,74.535z"/>
<path fill="#C3AA6C" d="M91.979,205.022c-1.048,0.016-2.219,0.227-3.12,0.961c-0.753-0.047-0.649-0.949-1.68-0.721
	c-0.874,0.135-1.435,0.582-2.16,0.24c-1.776-0.932-4.638,0.191-5.76-1.68c-0.812-1.029-1.798-1.883-2.642-2.879
	c0.206-0.768-0.377-0.742-0.479-1.201c-0.033-1.006-0.438-1.643-0.96-2.16c0.039-0.279-0.053-0.426-0.24-0.48
	c-0.235-0.672-0.641,0.35-0.96-0.238c0-1.281,0-2.561,0-3.842c-0.472-0.742-1.023,0.08-1.2-0.959c0-0.881,0-1.76,0-2.641
	c-1.425,0.141-2.44,0.986-3.358,0.961c-0.104-0.537-1.185-0.098-1.682-0.24c-0.067-1.027,1.857-0.063,1.92-0.961
	c0.754,0.113,0.636-0.645,1.2-0.719c0.933-0.428,1.325-1.395,1.681-2.4c0-0.08,0-0.16,0-0.24c0.325-0.074,0.198-0.602,0.239-0.959
	c-0.601-0.041-0.751,0.367-0.96,0.719c0,0.08,0,0.16,0,0.24c-0.588,0.373-0.775,1.145-1.438,1.439
	c-0.504-0.457-1.268-0.652-1.2-1.68c0-0.561,0-1.119,0-1.68c-0.611,0.027-0.931,0.35-0.96,0.959c0.049,0.752-0.162,1.762,0.24,2.16
	c-0.181,0.738,0.657,0.461,0.479,1.199c-0.146,0.334-0.924,0.037-0.96,0.48c-0.08,0-0.16,0-0.24,0
	c-0.521-0.041-0.107,0.852-0.239,1.201c-0.845-0.277-0.879-1.361-1.681-1.682c0-0.08,0-0.16,0-0.24c0-0.799,0-1.6,0-2.398
	c0.134-0.586,0.93-0.512,0.721-1.439c1.116-0.563,1.441-1.918,2.881-2.16c0.079,0,0.158,0,0.238,0
	c0.278,0.77,1.607,1.742,2.642,0.961c1,0.119,1.15-0.607,1.199-1.439c1.091-0.732-0.453-1.385-0.239-2.641
	c1.399-2.787,2.2-5.783,2.16-8.4c-0.05-1.381,0.354-2.064-0.24-3.119c0.277-0.65,0.116-0.598,0-1.439
	c2.199-0.441,3.479-1.803,5.04-2.881c0.561-0.318,1.352-0.406,1.92-0.721c0.08,0,0.16,0,0.24,0c1.57-1.146,3.061-2.379,4.56-3.6
	c1.504,0.188,2.556-0.648,3.12,0.479c-0.243,0.398-1.02,0.262-1.44,0.48c-1.833,0.566-3.207,1.594-4.56,2.641c0,0.08,0,0.16,0,0.24
	c-1.492,0.428-1.859,1.979-2.88,2.879c-0.204-0.045-0.228,0.094-0.24,0.24c-0.935,0.506-1.278,1.602-1.92,2.398
	c-0.368,0.832-1.21,1.191-1.2,2.4c-0.782,0.178-0.722,1.197-0.96,1.92c1.392,0.191,0.966-1.434,1.681-1.92
	c0.824-1.016,1.495-2.186,2.159-3.359c2.053-1.869,4.002-3.838,6.24-5.52c0.729,0.156,2.104-0.871,3.36-0.961
	c1.476-0.123,2.368,0.244,3.359,0c0.214,0.186,0.542,0.258,0.96,0.24c1.406,0.354,2.114,1.404,3.12,2.158
	c-0.089,1.449,0.938,1.783,0.721,3.361c0,0.08,0,0.16,0,0.238c-0.898,0.623-3.314-0.273-3.601,0.961
	c-3.271,0.697-5.358,3.264-5.28,6c3.554,0.539,6.313,5.305,10.08,2.641c1.041,0.262,2.533,2.172,3.36,0.479c0.16,0,0.32,0,0.48,0
	c0.302,0.738,0.871,1.209,1.199,1.92c1.523,1.908,2.472,5.434,2.16,8.4c-0.723,0.797-1.127,1.912-1.92,2.641
	c-0.976-0.098-0.738,1.02-1.439,1.199c-1.9-1.213-4.27-2.91-5.761-0.24c-0.192,0.127-0.39,0.25-0.72,0.24
	c0.189-0.77,0.871-1.049,1.2-1.68c1.333-2.027,4.744-1.977,5.52-4.561c-0.788-1.451-1.637-2.844-3.359-3.359
	c-0.278-0.201-0.645-0.316-1.2-0.24c0.651,1.668,2.667,1.973,3.36,3.6c-0.672,0.689-1.714,1.008-2.4,1.682
	c-1.219,0.461-2.133,1.227-2.88,2.16c-0.491,0.789-1.393,1.168-1.44,2.4c-0.958,1.498,0.453,1.734,0.96,2.158
	c-0.144,4.615,1.785,8.199,6.24,7.441c-0.174,0.734,0.414,0.705,0.24,1.439c-2.939,0.479-4.509-0.668-6.72-1.68
	c0.194,1.439,0.382,1.813,1.92,2.16c0.176,0.223,0.437,0.363,0.72,0.48c0.211,0.77-0.792,0.328-0.72,0.959c-0.08,0-0.16,0-0.24,0
	c-1.116,0.324-2.655,0.225-3.36,0.961C94.363,203.78,92.209,203.829,91.979,205.022z M82.619,202.862
	c2.655,1.396,6.951,1.063,8.16-2.16c-2.821,1.775-7.793,1.861-10.318-0.24c-0.188,0.053-0.279,0.201-0.24,0.48
	C80.734,201.868,81.549,202.493,82.619,202.862z M83.818,200.462c0.633,0.563,1.637,0.041,2.4,0c1.613-0.307,2.148-1.691,3.12-2.639
	c3.559-3.574,2.251-13.047-4.08-9.602c-0.708,0.652-1.609,1.111-1.92,2.16c-0.247,0.553-0.826,0.775-0.721,1.68
	c-0.807,0.555-0.725,1.996-1.439,2.641c-0.08,0-0.16,0-0.24,0c-0.712,0.488-1.147,1.252-1.2,2.4
	c1.271-0.182,0.228,0.627,0.722,0.959c0.678,0.199,0.62-0.338,1.198-0.238C82.08,199.001,82.395,200.288,83.818,200.462z
	 M75.898,188.462c0.184,0.857-0.743,1.648,0.24,1.92c0.638-2.498,2.49-5.006,2.88-6.959c-0.835-0.584-1.458,1.094-1.92,1.68
	c0,0.16,0,0.32,0,0.48C76.208,186.052,76.326,187.53,75.898,188.462z M97.499,183.183c-0.729-0.391-1.184-1.057-2.4-0.959
	c-0.209,1.891,1.697,1.662,3.36,1.68C99.937,183.733,98.578,182.851,97.499,183.183z"/>
<path fill="#C3AA6C" d="M102.539,199.503c-2.158,0.398-2.933-0.588-3.841-1.439c-0.011-0.949-0.527-1.393-0.72-2.16
	c0-0.32,0-0.641,0-0.959c0.32,0,0.64,0,0.96,0c1.625,0.693,3.321,1.318,4.32,2.639C103.462,198.665,102.697,198.782,102.539,199.503
	z"/>
<path fill="#C3AA6C" d="M87.419,198.544c-1.025,0.494-1.841,1.199-3.601,0.959c-0.08,0-0.16,0-0.24,0
	c-0.443-0.916-1.229-1.49-0.96-3.119c1.698-1.422,4.248-1.992,6.96-2.4c0.222,0.314-0.435,1.795-0.72,2.4
	C88.591,197.313,87.688,197.612,87.419,198.544z"/>
<path fill="#4C5E56" d="M97.979,195.903c-0.53-0.031-0.102-1.02-0.24-1.441c0.429,0.133,0.997,0.125,1.2,0.48c-0.32,0-0.64,0-0.96,0
	C97.979,195.263,97.979,195.583,97.979,195.903z"/>
<path fill="#4C5E56" d="M65.818,187.983c-0.396-0.26-0.396-2.143,0-2.4C65.818,186.384,65.818,187.183,65.818,187.983z"/>
<path fill="#4C5E56" d="M72.539,185.823c-0.04-0.279-0.38-0.262-0.721-0.24c0.209-0.352,0.359-0.76,0.96-0.721
	C72.737,185.222,72.864,185.749,72.539,185.823z"/>
<path fill="#4C5E56" d="M69.18,185.583c-0.355-0.045-0.22-0.58-0.24-0.961c-0.33-0.01-0.527,0.113-0.72,0.24
	c0.029-0.609,0.349-0.932,0.96-0.959C69.18,184.464,69.18,185.022,69.18,185.583z"/>
<path fill="#4C5E56" d="M98.459,183.903c0.384-0.945-1.037-0.084-0.96-0.721C98.578,182.851,99.937,183.733,98.459,183.903z"/>
<path fill="#C3AA6C" d="M70.858,181.503c-0.095-0.898,1.092-1.238,1.681-0.721C72.592,181.907,71.453,182.327,70.858,181.503z"/>
<path fill="#AB3027" d="M102.299,176.464c-1.093-0.348-1.739-1.143-2.4-1.92c-0.922,0.438-1.624,1.096-2.64,1.438
	c-2.099-0.701-3.595-2.004-5.521-2.879c3.486-0.572,8.292-0.613,11.04,0.48C102.905,174.829,102.463,175.507,102.299,176.464z"/>
<path fill="#AB3027" d="M91.259,171.663c0.745-3.486,9.705-5.418,9.84,0C97.757,171.901,94.771,171.372,91.259,171.663z"/>
<path fill="#4C5E56" d="M38.938,131.823c5.04,0,10.08,0,15.12,0c-0.618,2.191-1.14,4.781-2.64,6.721
	c-1.12,1.445-3.089,1.996-3.842,3.6c4.458-0.348,7.052-5.902,7.44-10.32c11.6,0,23.2,0,34.8,0c-0.295,1.705-2.664,1.338-2.64,3.359
	c-1.516-0.189-1.997,0.711-2.641,1.92c-0.314-0.244-0.885-0.234-1.199-0.479c-1.184,0.855-1.394,3-3.601,2.16
	c-0.489,0.389,0.012,1.77-0.479,2.16c-0.311,0.33-1.043,0.236-1.682,0.238c-0.666,0.533-0.396,2.004-1.198,2.4
	c-0.733,0.174-0.875-0.246-1.44-0.24c-0.813,0.227-0.734,1.346-1.2,1.92c-0.563-0.076-0.899-0.379-1.68-0.24
	c-0.729,0.23-0.522,1.398-0.96,1.922c-0.866,0.143-1.609,0.404-2.4,0c-0.296,2.184-3.558,1.4-4.318,3.119
	c-4.71,0.891-7.368-1.5-11.04-3.359c-6.5-3.293-12.568-7.088-13.92-14.4C39.127,132.274,38.851,132.231,38.938,131.823z"/>
<path fill="#4C5E56" d="M107.339,131.823c7.04,0,14.08,0,21.12,0c-1.545,9.637-10.561,10.785-17.04,15.359
	c-1.684-1.037-2.029-3.412-3.36-4.801C109.86,139.243,109.119,134.876,107.339,131.823z M120.299,132.063
	c-0.686,2.436-1.14,5.102-1.681,7.68c0.33-0.01,0.527,0.113,0.721,0.24C120.485,138.554,122.054,134.028,120.299,132.063z"/>
<path fill="#322922" d="M54.06,131.823c0.32,0,0.64,0,0.96,0c-0.39,4.418-2.982,9.973-7.44,10.318
	c0.753-1.602,2.722-2.152,3.842-3.6C52.92,136.606,53.44,134.015,54.06,131.823z"/>
<path fill="#322922" d="M119.339,139.983c-0.193-0.127-0.391-0.25-0.721-0.24c0.541-2.578,0.995-5.244,1.681-7.68
	C122.054,134.028,120.485,138.554,119.339,139.983z"/>
<path fill="#322922" d="M128.459,131.823c0.278-0.039,0.427,0.053,0.479,0.238c-0.547,10.654-11.3,11.102-17.28,16.32
	c-0.201,2.105,0.519,5.127-1.68,6c-0.139,0.779,0.164,1.117,0.24,1.68c-3.626,3.453-4.172,8.902-10.8,9.602
	c-0.018,3.057,2.979,3.1,2.64,6.479c0.24,0.641,0.969,0.791,1.44,1.201c-0.171,1.289,0.188,2.049,0.479,2.879
	c2.783,2.623,5.63,8.543,3.12,12.48c-0.853,1.336-2.38,1.797-3.36,3.121c0.263,2.486,0.709,5.428,1.2,7.199
	c-0.309,0.961-0.496-0.066-1.2,0c0.386,1.303,0.247,2.939,0.721,4.08c0.673,1.621,2.396,2.434,3.359,3.84
	c1.245,1.814,1.339,4.162,1.92,6.48c0.21,0.838,0.958,1.193,0.48,2.4c0.257,0.543,0.545,1.055,0.96,1.439
	c-0.502,0.934-0.671,2.244,0,3.119c-0.568,0.9-0.066,2.037-0.24,2.881c-0.937,4.553-4.07,6.754-7.68,8.879
	c-2.364-0.107-4.273,0.428-6.24,1.441c-1.096-1.207-3.367-0.678-4.08,0.479c-1.749-0.766-3.347-0.811-4.8,0.24
	c-1.305-1.451-3.461-0.75-5.28-0.24c-0.818-0.219-0.93-1.148-1.92-1.199c-1.218-0.098-1.401,0.838-2.16,1.199
	c-3.4-2.189-10.387,0.656-12.239-3.6c-4.838-1.162-6.348-5.652-9.601-8.4c-1.128-7.234,1.458-13.26,4.561-18
	c-0.782-2.373-0.685-6.338,0.721-7.92c0.211-0.77-0.791-0.328-0.721-0.959c2.314-3.668,2.213-8.455,4.801-12
	c-7.453-1.518-11.395-10.141-5.761-15.359c1.806-1.674,4.49-2.004,6.479-3.842c-1.52-1.84-3.044-3.676-4.32-5.76
	c-0.173-0.732,0.246-0.875,0.24-1.439c-0.744-0.855-0.814-2.385-1.92-2.879c-0.076-0.559,0.038-0.922,0.24-1.201
	c-4.064-4.951-12.782-5.906-17.76-10.799c-1.821-1.789-2.337-3.49-3.602-6c-0.495-0.984-2.114-2.303-1.438-4.08
	c0.158,0,0.318,0,0.479,0c-0.088,0.406,0.188,0.451,0.48,0.479c1.352,7.314,7.42,11.107,13.92,14.4
	c3.672,1.859,6.33,4.25,11.04,3.359c0.762-1.719,4.022-0.938,4.318-3.121c0.791,0.406,1.534,0.145,2.4,0
	c0.438-0.521,0.229-1.688,0.96-1.92c0.779-0.139,1.116,0.164,1.68,0.24c0.466-0.574,0.387-1.695,1.2-1.92
	c0.565-0.006,0.707,0.414,1.44,0.24c0.803-0.396,0.532-1.867,1.198-2.4c0.639-0.002,1.371,0.092,1.682-0.24
	c0.489-0.389-0.012-1.77,0.479-2.158c2.207,0.84,2.417-1.305,3.601-2.16c0.314,0.244,0.885,0.234,1.199,0.479
	c0.644-1.209,1.125-2.109,2.641-1.92c-0.024-2.021,2.345-1.654,2.64-3.359c5.84,0,11.68,0,17.521,0
	c1.779,3.053,2.521,7.42,0.72,10.561c1.331,1.389,1.677,3.764,3.36,4.801C117.898,142.608,126.914,141.46,128.459,131.823z
	 M104.938,189.663c1.129-0.391,1.402-1.639,1.92-2.641c0.312-2.967-0.637-6.492-2.16-8.398c-0.231-0.834-1.061-2.994-1.68-1.92
	c-0.827,1.691-2.319-0.217-3.36-0.48c-3.767,2.666-6.526-2.1-10.08-2.639c-0.078-2.736,2.01-5.303,5.28-6
	c0.571-0.875,4.212,0.057,3.601-1.201c0.218-1.578-0.81-1.91-0.721-3.359c-0.601-1.004-2.104-2.369-3.12-2.16
	c-0.418,0.02-0.747-0.055-0.96-0.24c-0.532-0.189-2.389-0.494-3.359,0c-1.257,0.09-2.632,1.117-3.36,0.961
	c-2.463,1.457-4.403,3.436-6.24,5.52c-0.664,1.176-1.335,2.346-2.159,3.361c-0.343,0.092-0.404,0.287-0.721,0
	c-0.01-1.211,0.832-1.57,1.2-2.4c0.974-0.467,1.18-1.699,1.92-2.4c0.014-0.146,0.036-0.283,0.24-0.238
	c1.158-0.764,1.751-2.09,2.88-2.881c0-0.08,0-0.16,0-0.24c1.625-0.773,3.067-1.73,4.56-2.641c0.421-0.219,1.197-0.082,1.44-0.479
	c-0.564-1.129-1.616-0.291-3.12-0.48c-1.87,0.852-3.223,2.219-4.56,3.602c-0.08,0-0.16,0-0.24,0
	c-1.077-0.363-1.328,0.082-1.92,0.721c-1.563,1.076-2.841,2.438-5.04,2.879c0.116,0.844,0.276,0.789,0,1.439
	c0.262,1.381-0.271,2.064,0.24,3.121c0.04,2.617-0.761,5.613-2.16,8.398c-0.791,0.809,0.717,1.352,0.239,2.641
	c-0.049,0.832-0.199,1.561-1.199,1.439c-1.489,0.289-1.978-0.424-2.642-0.959c-0.08,0-0.159,0-0.238,0
	c-1.051-0.324-2.151,1.363-2.882,2.158c0.209,0.93-0.586,0.855-0.72,1.439c-0.396,0.26-0.396,2.143,0,2.4c0,0.08,0,0.16,0,0.24
	c0.769,1.152,1.363,2.477,3.602,2.16c0.918,0.025,1.935-0.82,3.358-0.961c0,0.881,0,1.76,0,2.641c-0.618,0.059,0.33,0.412,0,0.961
	c0.602-0.031,0.752-0.459,0.96,0.238c0.175,1.426-0.429,3.629,0.48,4.32c0.098-0.301,0.31-0.49,0.72-0.48
	c0.188,0.055,0.279,0.201,0.24,0.48c0.214,0.826,0.584,1.496,0.96,2.16c0.103,0.459,0.686,0.434,0.479,1.201
	c0.655,1.184,1.572,2.107,2.642,2.879c1.122,1.871,3.983,0.748,5.76,1.68c0,0.08,0,0.16,0,0.24c0.759,0.357,1.641,0.049,2.16-0.48
	c1.029-0.229,0.926,0.674,1.68,0.721c0.901-0.734,2.072-0.945,3.12-0.959c0.712-1.15,2.554-0.707,3.12,0.238
	c0.231-1.287,2.51-0.529,3.12-1.439c0.08,0,0.16,0,0.24,0c0.474-0.389,1.746-0.771,2.399-0.24c-0.066-1.133-1.606-0.791-2.399-1.199
	c-1.538-0.348-1.726-0.719-1.921-2.16c2.212,1.014,3.781,2.158,6.721,1.68c0.174-0.734-0.414-0.705-0.24-1.439
	c-4.455,0.758-6.384-2.826-6.24-7.439c0.08,0,0.16,0,0.24,0c0-0.4,0-0.801,0-1.201c-0.739-0.18-0.461,0.66-1.2,0.48
	c0-0.48,0-0.961,0-1.439c0.048-1.232,0.949-1.611,1.44-2.4c1.022-0.658,1.896-1.465,2.88-2.16c0.687-0.674,1.729-0.992,2.399-1.682
	c-0.691-1.627-2.709-1.93-3.359-3.6c0.556-0.076,0.921,0.039,1.2,0.24c1.523,0.715,2.333,2.146,3.359,3.359
	c-0.775,2.584-4.188,2.533-5.52,4.561c-0.65,0.469-1.31,0.932-1.44,1.92c0.331-0.01,0.527,0.113,0.721,0.24
	c-0.011-0.33,0.112-0.527,0.239-0.721c1.492-2.67,3.86-0.973,5.761,0.24C104.2,190.685,103.964,189.567,104.938,189.663z
	 M103.499,203.823c0-0.32,0-0.641,0-0.961c-0.854-0.055-1.438,0.162-1.681,0.721C102.651,203.39,102.741,203.94,103.499,203.823z
	 M102.539,199.503c0.157-0.721,0.922-0.836,0.72-1.92c-0.999-1.32-2.694-1.945-4.32-2.639c-0.203-0.357-0.771-0.348-1.2-0.48
	c0.139,0.422-0.29,1.41,0.24,1.439c0.191,0.77,0.709,1.211,0.72,2.16C99.224,199.144,100.837,200.399,102.539,199.503z
	 M98.219,191.823c-0.226,0.201-0.512,1.529,0,1.68c0.439-1.035,1.134-1.467,1.92-1.441c2.11,0.072,1.272,3.529,3.36,3.602
	c-0.559-2.324-0.578-5.184-3.36-5.281C99.595,190.011,98.108,190.743,98.219,191.823z M72.539,180.782
	c-0.589-0.518-1.774-0.18-1.681,0.721C71.453,182.327,72.592,181.907,72.539,180.782z M102.778,173.583
	c-2.748-1.094-7.554-1.053-11.04-0.48c1.926,0.875,3.422,2.18,5.521,2.881c1.017-0.344,1.718-1.002,2.64-1.439
	c0.661,0.779,1.308,1.574,2.4,1.92C102.463,175.507,102.905,174.829,102.778,173.583z M101.1,171.663
	c-0.135-5.418-9.096-3.486-9.84,0C94.771,171.372,97.757,171.901,101.1,171.663z"/>
<path fill="#C3AA6C" d="M106.858,187.022c-0.518,1.002-0.791,2.25-1.92,2.641C105.731,188.935,106.137,187.821,106.858,187.022z"/>
<path fill="#4C5E56" d="M104.698,178.622c-0.328-0.711-0.896-1.182-1.199-1.92c-0.16,0-0.32,0-0.48,0
	C103.638,175.628,104.467,177.788,104.698,178.622z"/>
<path fill="#4C5E56" d="M98.459,166.384c0.611,1.258-3.029,0.326-3.601,1.199c0.286-1.234,2.702-0.338,3.601-0.961
	C98.459,166.544,98.459,166.464,98.459,166.384z"/>
<path fill="#4C5E56" d="M97.738,163.022c-1.006-0.754-1.714-1.805-3.12-2.158C95.634,160.653,97.138,162.021,97.738,163.022z"/>
<path fill="#4C5E56" d="M93.659,160.622c-0.991,0.244-1.884-0.121-3.359,0C91.27,160.128,93.126,160.433,93.659,160.622z"/>
<path fill="#4C5E56" d="M86.938,161.583c-2.238,1.682-4.188,3.652-6.24,5.52C82.535,165.019,84.476,163.04,86.938,161.583z"/>
<path fill="#4C5E56" d="M78.539,170.464c-0.715,0.484-0.289,2.109-1.681,1.92c0.238-0.723,0.178-1.744,0.96-1.92
	C78.135,170.751,78.196,170.556,78.539,170.464z"/>
<path fill="#4C5E56" d="M80.938,165.663c-0.74,0.699-0.946,1.934-1.92,2.398C79.66,167.265,80.005,166.169,80.938,165.663z"/>
<path fill="#4C5E56" d="M84.06,162.544c-1.128,0.791-1.722,2.117-2.88,2.879C82.199,164.524,82.567,162.972,84.06,162.544z"/>
<path fill="#4C5E56" d="M88.619,159.663c-1.492,0.908-2.936,1.865-4.56,2.641C85.412,161.257,86.786,160.229,88.619,159.663z"/>
<path fill="#4C5E56" d="M86.938,158.702c-1.499,1.223-2.989,2.453-4.56,3.602C83.717,160.921,85.068,159.554,86.938,158.702z"/>
<path fill="#4C5E56" d="M82.14,162.304c-0.568,0.313-1.359,0.4-1.92,0.719C80.811,162.386,81.062,161.94,82.14,162.304z"/>
<path fill="#4C5E56" d="M75.42,170.464c-0.513-1.057,0.021-1.74-0.24-3.121C75.774,168.397,75.37,169.083,75.42,170.464z"/>
<path fill="#4C5E56" d="M73.499,181.503c0.478-1.289-1.03-1.832-0.239-2.641C73.046,180.118,74.59,180.772,73.499,181.503z"/>
<path fill="#4C5E56" d="M72.3,182.942c-1.033,0.781-2.362-0.189-2.642-0.961C70.322,182.519,70.81,183.231,72.3,182.942z"/>
<path fill="#4C5E56" d="M69.42,181.983c-1.438,0.242-1.765,1.598-2.881,2.16C67.268,183.349,68.369,181.659,69.42,181.983z"/>
<path fill="#4C5E56" d="M69.42,190.382c-2.237,0.318-2.833-1.008-3.602-2.16c0.802,0.32,0.836,1.404,1.681,1.682
	c0.132-0.35-0.28-1.24,0.239-1.201c-0.297,1.305,1.453,0.561,1.92,0.48c-0.063,0.896-1.987-0.068-1.92,0.959
	C68.235,190.286,69.315,189.847,69.42,190.382z"/>
<path fill="#4C5E56" d="M74.938,197.103c-0.41-0.01-0.622,0.18-0.72,0.48c-0.909-0.691-0.307-2.895-0.48-4.32
	c-0.208-0.697-0.358-0.27-0.96-0.24c0.33-0.547-0.618-0.9,0-0.959c0.177,1.039,0.729,0.217,1.2,0.959c0,1.281,0,2.561,0,3.842
	C74.299,197.452,74.703,196.431,74.938,197.103z"/>
<path fill="#4C5E56" d="M76.14,199.743c-0.376-0.664-0.746-1.334-0.96-2.16C75.701,198.101,76.105,198.735,76.14,199.743z"/>
<path fill="#4C5E56" d="M79.26,203.823c-1.068-0.773-1.985-1.695-2.642-2.881C77.462,201.94,78.448,202.794,79.26,203.823z"/>
<path fill="#4C5E56" d="M85.019,205.503c0.727,0.342,1.286-0.105,2.16-0.24c-0.52,0.529-1.401,0.838-2.16,0.48
	C85.019,205.663,85.019,205.583,85.019,205.503z"/>
<path fill="#4C5E56" d="M98.219,203.823c-0.61,0.908-2.888,0.15-3.12,1.439c-0.566-0.947-2.408-1.391-3.12-0.24
	c0.23-1.193,2.384-1.242,2.88-0.24C95.563,204.048,97.103,204.146,98.219,203.823z"/>
<path fill="#C3AA6C" d="M98.459,202.382c0.792,0.408,2.333,0.068,2.399,1.201c-0.652-0.533-1.926-0.15-2.399,0.24
	c-0.071-0.633,0.931-0.189,0.72-0.961C98.896,202.747,98.635,202.606,98.459,202.382z"/>
<path fill="#4C5E56" d="M97.738,190.624c-0.127,0.191-0.25,0.389-0.239,0.719c-0.193-0.127-0.391-0.25-0.721-0.24
	c0.131-0.988,0.79-1.449,1.44-1.92c-0.329,0.631-1.01,0.91-1.2,1.682C97.35,190.874,97.546,190.751,97.738,190.624z"/>
<path fill="#4C5E56" d="M72.539,186.063c-0.354,1.006-0.748,1.973-1.681,2.4C71.531,187.774,71.851,186.735,72.539,186.063z"/>
<path fill="#4C5E56" d="M70.38,187.263c0.663-0.297,0.852-1.066,1.438-1.439c-0.315,0.725-0.599,1.48-1.438,1.68
	C70.38,187.423,70.38,187.343,70.38,187.263z"/>
<path fill="#4C5E56" d="M67.979,188.704c0.036-0.445,0.813-0.148,0.96-0.48c0.179-0.738-0.659-0.461-0.479-1.201
	c0.482,0.316,0.812,0.789,0.96,1.441C68.854,188.458,68.713,188.876,67.979,188.704z"/>
<path fill="#4C5E56" d="M103.738,184.622c-1.025-1.213-1.835-2.645-3.359-3.359C102.102,181.78,102.95,183.171,103.738,184.622z"/>
<path fill="#C3AA6C" d="M100.14,186.304c-0.984,0.695-1.857,1.502-2.88,2.16C98.007,187.53,98.92,186.765,100.14,186.304z"/>
<path fill="#322922" d="M101.818,203.583c0.242-0.559,0.826-0.773,1.681-0.719c0,0.318,0,0.639,0,0.959
	C102.741,203.94,102.651,203.39,101.818,203.583z"/>
<path fill="#4C5E56" d="M82.619,202.862c-1.07-0.369-1.884-0.996-2.399-1.92C80.994,201.606,81.792,202.251,82.619,202.862z"/>
<path fill="#322922" d="M80.22,200.942c-0.039-0.279,0.053-0.428,0.24-0.48c2.525,2.102,7.497,2.016,10.318,0.24
	c-1.209,3.223-5.504,3.557-8.16,2.16C81.792,202.251,80.994,201.606,80.22,200.942z"/>
<path fill="#4C5E56" d="M89.339,197.823c-0.972,0.947-1.507,2.332-3.12,2.639C87.591,199.915,88.127,198.532,89.339,197.823z"/>
<path fill="#4C5E56" d="M85.259,188.224c-0.323,1.037-1.501,1.219-1.92,2.16C83.649,189.333,84.551,188.874,85.259,188.224z"/>
<path fill="#4C5E56" d="M81.18,194.704c0.715-0.646,0.633-2.088,1.439-2.641C82.181,192.831,81.893,195.007,81.18,194.704z"/>
<path fill="#4C5E56" d="M80.938,194.704c-0.501,0.898-0.401,0.992-0.96,1.92c0.29,0.35,1.049,0.23,0.72,1.199
	c0.776,0.297,0.185-0.775,0.96-0.48c0.576,1.105,0.684,2.678,2.16,2.881c0,0.08,0,0.16,0,0.24c-1.424-0.176-1.737-1.461-2.16-2.641
	c-0.577-0.098-0.521,0.438-1.198,0.24c-0.494-0.332,0.55-1.143-0.722-0.961C79.791,195.956,80.227,195.19,80.938,194.704z"/>
<path fill="#4C5E56" d="M102.539,199.503c-1.702,0.896-3.316-0.359-3.841-1.439C99.607,198.915,100.382,199.899,102.539,199.503z"/>
<path fill="#4C5E56" d="M87.419,198.544c-0.593,0.771-2.318,1.674-3.601,0.959C85.579,199.743,86.394,199.038,87.419,198.544z"/>
<path fill="#4C5E56" d="M89.579,193.983c0.733-0.549-0.039,2.133-0.72,2.4C89.145,195.778,89.8,194.298,89.579,193.983z"/>
<path fill="#BDBDBB" d="M100.14,190.382c2.782,0.098,2.802,2.959,3.36,5.281c-2.086-0.072-1.25-3.529-3.36-3.602
	c-0.787-0.025-1.48,0.406-1.92,1.441c-0.512-0.15-0.226-1.479,0-1.68C98.601,191.085,99.136,190.499,100.14,190.382z"/>
<path fill="#C3AA6C" d="M98.219,191.823c-0.11-1.08,1.376-1.813,1.92-1.441C99.136,190.499,98.601,191.085,98.219,191.823z"/>
<path fill="#4C5E56" d="M83.579,191.823c-0.197,0.613-1.135,1.729-0.479,2.398C82.222,194.655,82.805,191.95,83.579,191.823z"/>
<path fill="#BDBDBB" d="M83.579,191.823c0.706-4.258,8.355-4.223,6.48,0.959c-0.422,0.139-1.41-0.291-1.44,0.24
	c-0.481-0.639-0.958-1.281-1.68-1.68c-2.047-0.447-2.236,2.18-3.84,2.879C82.444,193.552,83.382,192.437,83.579,191.823z"/>
<path fill="#4C5E56" d="M79.019,183.423c-1.146,0.053-1.029,1.371-1.92,1.68C77.561,184.517,78.185,182.839,79.019,183.423z"/>
<path fill="#4C5E56" d="M75.898,188.462c0.428-0.932,0.31-2.41,1.2-2.879C76.479,186.323,76.654,187.858,75.898,188.462z"/>
<path fill="#322922" d="M98.459,183.903c-1.663-0.02-3.569,0.209-3.36-1.682c1.217-0.098,1.67,0.57,2.4,0.961
	C97.423,183.819,98.844,182.958,98.459,183.903z"/>
<path fill="#C3AA6C" d="M95.818,190.862c0,0.48,0,0.961,0,1.439c0.739,0.18,0.461-0.658,1.2-0.479c0,0.398,0,0.799,0,1.199
	c-0.08,0-0.16,0-0.24,0C96.271,192.599,94.86,192.362,95.818,190.862z"/>
<path fill="#322922" d="M68.46,187.022c-0.402-0.396-0.191-1.408-0.24-2.158c0.191-0.127,0.39-0.25,0.72-0.24
	c0.021,0.381-0.115,0.916,0.24,0.959c-0.066,1.027,0.696,1.225,1.2,1.682c0,0.08,0,0.16,0,0.24c0.841-0.199,1.123-0.957,1.438-1.68
	c0-0.08,0-0.16,0-0.24c0.341-0.021,0.681-0.039,0.721,0.24c0,0.08,0,0.16,0,0.238c-0.688,0.674-1.008,1.715-1.681,2.4
	c-0.564,0.074-0.446,0.834-1.2,0.721c-0.467,0.08-2.217,0.824-1.92-0.48c0.08,0,0.16,0,0.24,0c0.733,0.174,0.875-0.246,1.44-0.24
	C69.271,187.812,68.942,187.339,68.46,187.022z"/>
<path fill="#322922" d="M86.219,200.462c-0.764,0.041-1.768,0.563-2.4,0c0-0.08,0-0.16,0-0.24c-1.478-0.203-1.584-1.775-2.16-2.879
	c-0.775-0.297-0.184,0.777-0.96,0.48c0.329-0.971-0.43-0.852-0.72-1.201c0.559-0.926,0.459-1.021,0.96-1.92c0.08,0,0.16,0,0.24,0
	c0.713,0.305,1.001-1.873,1.439-2.641c-0.105-0.904,0.474-1.127,0.721-1.68c0.419-0.941,1.597-1.123,1.92-2.16
	c6.331-3.445,7.639,6.027,4.08,9.602C88.127,198.532,87.591,199.915,86.219,200.462z M83.818,199.503
	c1.282,0.715,3.008-0.188,3.601-0.959c0.269-0.932,1.172-1.23,1.439-2.16c0.682-0.268,1.453-2.949,0.72-2.4
	c-2.712,0.408-5.262,0.979-6.96,2.4c-0.27,1.629,0.517,2.203,0.96,3.119C83.659,199.503,83.738,199.503,83.818,199.503z
	 M83.1,194.224c1.604-0.701,1.792-3.326,3.84-2.881c0.722,0.398,1.198,1.043,1.68,1.68c0.03-0.529,1.019-0.102,1.44-0.238
	c1.875-5.184-5.774-5.219-6.48-0.961C82.805,191.95,82.222,194.655,83.1,194.224z"/>
<path fill="#322922" d="M79.019,183.423c-0.39,1.953-2.242,4.463-2.88,6.959c-0.983-0.271-0.059-1.063-0.24-1.92
	c0.756-0.604,0.581-2.139,1.2-2.879c0-0.16,0-0.32,0-0.48C77.989,184.794,77.873,183.476,79.019,183.423z"/>
<use xlink:href="#Rand"  width="156.49" height="248.039" x="5.377" y="-252.996" transform="matrix(1 0 0 -1 0.002 0.0029)" overflow="visible"/>
</svg>
