<?xml version="1.0" encoding="utf-8"?>
<!-- Generator: Adobe Illustrator 15.1.0, SVG Export Plug-In  -->
<!DOCTYPE svg PUBLIC "-//W3C//DTD SVG 1.1 Tiny//EN" "http://www.w3.org/Graphics/SVG/1.1/DTD/svg11-tiny.dtd" [
	<!ENTITY ns_flows "http://ns.adobe.com/Flows/1.0/">
]>
<svg version="1.1" baseProfile="tiny"
	 xmlns="http://www.w3.org/2000/svg" xmlns:xlink="http://www.w3.org/1999/xlink" xmlns:a="http://ns.adobe.com/AdobeSVGViewerExtensions/3.0/"
	 x="0px" y="0px" width="167px" height="258px" viewBox="0.002 0.003 167 258" xml:space="preserve">
<defs>
</defs>
<path fill="#00B3F2" d="M167.244,240.945c0,9.354-7.653,17.008-17.008,17.008H17.008C7.653,257.953,0,250.3,0,240.945V17.008
	C0,7.653,7.653,0,17.008,0h133.229c9.354,0,17.008,7.653,17.008,17.008V240.945z"/>
<path fill="none" stroke="#FFFFFF" stroke-width="2" stroke-miterlimit="10" d="M160.866,239.24c0,7.047-5.822,12.756-13.008,12.756
	H19.386c-7.186,0-13.008-5.709-13.008-12.756V18.722c0-7.046,5.822-12.762,13.008-12.762h128.473
	c7.186,0,13.008,5.716,13.008,12.762V239.24z"/>
<path fill="#ADBBC6" d="M167.244,240.945c0,9.354-7.653,17.008-17.008,17.008H17.008C7.653,257.953,0,250.3,0,240.945V17.008
	C0,7.653,7.653,0,17.008,0h133.229c9.354,0,17.008,7.653,17.008,17.008V240.945z"/>
<path fill="none" stroke="#FFFFFF" stroke-width="2" stroke-miterlimit="10" d="M160.866,239.24c0,7.047-5.822,12.756-13.008,12.756
	H19.386c-7.186,0-13.008-5.709-13.008-12.756V18.722c0-7.046,5.822-12.762,13.008-12.762h128.473
	c7.186,0,13.008,5.716,13.008,12.762V239.24z"/>
<line fill="none" stroke="#FFFFFF" stroke-width="2" stroke-miterlimit="10" x1="20.551" y1="128.978" x2="146.693" y2="128.978"/>
<g>
	<path fill="#E30A17" d="M150.801,232.155c-5.479,0-9.92,4.441-9.92,9.92s4.441,9.92,9.92,9.92s9.92-4.441,9.92-9.92
		S156.279,232.155,150.801,232.155z M157.487,243.533l-1.713-0.557l-1.06,1.458v-1.803l-0.473-0.153
		c-0.087,0.854-0.437,1.623-0.979,2.229c-0.877,1.394-2.419,2.327-4.188,2.327c-2.739,0-4.96-2.22-4.96-4.96
		c0-2.738,2.221-4.96,4.96-4.96c1.769,0,3.311,0.934,4.188,2.327c0.541,0.606,0.892,1.376,0.979,2.229l0.473-0.153v-1.802
		l1.059,1.458l1.714-0.557l-1.059,1.457L157.487,243.533z"/>
	<path fill="#FFFFFF" d="M150.314,246.044c-2.191,0-3.968-1.777-3.968-3.969s1.776-3.968,3.968-3.968
		c1.176,0,2.223,0.521,2.949,1.335c-0.878-1.394-2.42-2.327-4.188-2.327c-2.739,0-4.96,2.222-4.96,4.96c0,2.74,2.221,4.96,4.96,4.96
		c1.77,0,3.312-0.934,4.188-2.327C152.537,245.521,151.491,246.044,150.314,246.044z"/>
	<path fill="#E30A17" d="M153.001,242.075l1.241-0.403c-0.087-0.854-0.438-1.623-0.979-2.229c-0.727-0.813-1.773-1.335-2.949-1.335
		c-2.191,0-3.968,1.776-3.968,3.968s1.776,3.969,3.968,3.969c1.177,0,2.223-0.522,2.949-1.336c0.542-0.606,0.892-1.376,0.979-2.229
		L153.001,242.075z"/>
	<polygon fill="#FFFFFF" points="155.773,241.175 154.715,239.717 154.715,241.519 154.242,241.672 153.001,242.075 
		154.242,242.479 154.715,242.632 154.715,244.435 155.774,242.977 157.487,243.533 156.429,242.075 157.487,240.618 	"/>
</g>
<g>
	<path fill="#E30A17" d="M150.81,5.961h-0.02c-5.474,0.005-9.91,4.444-9.91,9.919c0,5.479,4.441,9.919,9.92,9.919
		s9.92-4.441,9.92-9.919C160.72,10.406,156.283,5.967,150.81,5.961z M157.486,17.339l-1.713-0.557l-1.06,1.458v-1.802l-0.472-0.153
		c-0.088,0.854-0.438,1.623-0.979,2.229c-0.878,1.395-2.42,2.328-4.189,2.328c-2.739,0-4.96-2.22-4.96-4.959
		c0-2.739,2.221-4.96,4.96-4.96c1.77,0,3.311,0.933,4.188,2.328c0.542,0.606,0.892,1.375,0.979,2.229l0.472-0.153v-1.802l1.06,1.458
		l1.713-0.557l-1.059,1.458L157.486,17.339z"/>
	<path fill="#FFFFFF" d="M150.313,19.849c-2.191,0-3.968-1.776-3.968-3.968c0-2.192,1.776-3.968,3.968-3.968
		c1.177,0,2.223,0.522,2.949,1.335c-0.878-1.395-2.419-2.328-4.188-2.328c-2.739,0-4.96,2.221-4.96,4.96
		c0,2.74,2.221,4.959,4.96,4.959c1.77,0,3.312-0.933,4.189-2.328C152.536,19.327,151.49,19.849,150.313,19.849z"/>
	<path fill="#E30A17" d="M153,15.881l1.242-0.403c-0.088-0.854-0.438-1.623-0.979-2.229c-0.727-0.813-1.772-1.335-2.949-1.335
		c-2.191,0-3.968,1.776-3.968,3.968c0,2.191,1.776,3.968,3.968,3.968c1.177,0,2.223-0.522,2.95-1.336
		c0.541-0.606,0.891-1.375,0.979-2.229L153,15.881z"/>
	<polygon fill="#FFFFFF" points="155.773,14.98 154.714,13.523 154.714,15.325 154.242,15.478 153,15.881 154.242,16.285 
		154.714,16.438 154.714,18.24 155.773,16.782 157.486,17.339 156.428,15.881 157.486,14.424 	"/>
</g>
<circle fill="none" stroke="#FFFFFF" stroke-width="2" stroke-miterlimit="10" cx="150.945" cy="15.882" r="9.921"/>
<g>
	<path fill="#E30A17" d="M16.298,232.155c-5.479,0-9.92,4.441-9.92,9.92s4.441,9.92,9.92,9.92s9.92-4.441,9.92-9.92
		S21.776,232.155,16.298,232.155z M22.984,243.533l-1.713-0.557l-1.06,1.458v-1.803l-0.473-0.153
		c-0.087,0.854-0.437,1.623-0.979,2.229c-0.878,1.394-2.419,2.327-4.188,2.327c-2.739,0-4.96-2.22-4.96-4.96
		c0-2.738,2.221-4.96,4.96-4.96c1.77,0,3.311,0.934,4.188,2.327c0.543,0.606,0.893,1.376,0.98,2.229l0.472-0.153v-1.802l1.06,1.458
		l1.713-0.557l-1.059,1.457L22.984,243.533z"/>
	<path fill="#FFFFFF" d="M15.812,246.044c-2.191,0-3.968-1.777-3.968-3.969s1.776-3.968,3.968-3.968
		c1.177,0,2.222,0.521,2.948,1.335c-0.877-1.394-2.418-2.327-4.188-2.327c-2.739,0-4.96,2.222-4.96,4.96
		c0,2.74,2.221,4.96,4.96,4.96c1.77,0,3.311-0.934,4.188-2.327C18.034,245.521,16.988,246.044,15.812,246.044z"/>
	<path fill="#E30A17" d="M18.498,242.075l1.242-0.403c-0.088-0.854-0.438-1.623-0.98-2.229c-0.727-0.813-1.771-1.335-2.948-1.335
		c-2.191,0-3.968,1.776-3.968,3.968s1.776,3.969,3.968,3.969c1.177,0,2.223-0.522,2.949-1.336c0.542-0.606,0.892-1.376,0.979-2.229
		L18.498,242.075z"/>
	<polygon fill="#FFFFFF" points="21.271,241.175 20.212,239.717 20.212,241.519 19.74,241.672 18.498,242.075 19.739,242.479 
		20.212,242.632 20.212,244.435 21.271,242.977 22.984,243.533 21.926,242.075 22.984,240.618 	"/>
</g>
<circle fill="none" stroke="#FFFFFF" stroke-width="2" stroke-miterlimit="10" cx="150.945" cy="242.075" r="9.921"/>
<g>
	<path fill="#E30A17" d="M16.308,5.961h-0.02c-5.474,0.005-9.91,4.444-9.91,9.919c0,5.479,4.441,9.919,9.92,9.919
		s9.92-4.441,9.92-9.919C26.218,10.406,21.781,5.967,16.308,5.961z M22.984,17.339l-1.713-0.557l-1.06,1.458v-1.802l-0.472-0.153
		c-0.088,0.854-0.438,1.623-0.979,2.229c-0.878,1.395-2.42,2.328-4.189,2.328c-2.739,0-4.96-2.22-4.96-4.959
		c0-2.739,2.221-4.96,4.96-4.96c1.77,0,3.311,0.933,4.188,2.328c0.542,0.606,0.892,1.375,0.979,2.229l0.472-0.153v-1.802l1.06,1.458
		l1.713-0.557l-1.059,1.458L22.984,17.339z"/>
	<path fill="#FFFFFF" d="M15.812,19.849c-2.191,0-3.968-1.776-3.968-3.968c0-2.192,1.776-3.968,3.968-3.968
		c1.177,0,2.223,0.522,2.949,1.335c-0.878-1.395-2.419-2.328-4.188-2.328c-2.739,0-4.96,2.221-4.96,4.96
		c0,2.74,2.221,4.959,4.96,4.959c1.77,0,3.312-0.933,4.189-2.328C18.034,19.327,16.988,19.849,15.812,19.849z"/>
	<path fill="#E30A17" d="M18.498,15.881l1.242-0.403c-0.088-0.854-0.438-1.623-0.979-2.229c-0.727-0.813-1.772-1.335-2.949-1.335
		c-2.191,0-3.968,1.776-3.968,3.968c0,2.191,1.776,3.968,3.968,3.968c1.177,0,2.223-0.522,2.95-1.336
		c0.541-0.606,0.891-1.375,0.979-2.229L18.498,15.881z"/>
	<polygon fill="#FFFFFF" points="21.271,14.98 20.212,13.523 20.212,15.325 19.74,15.478 18.498,15.881 19.74,16.285 20.212,16.438 
		20.212,18.24 21.271,16.782 22.984,17.339 21.926,15.881 22.984,14.424 	"/>
</g>
<circle fill="none" stroke="#FFFFFF" stroke-width="2" stroke-miterlimit="10" cx="16.3" cy="242.075" r="9.921"/>
<circle fill="none" stroke="#FFFFFF" stroke-width="2" stroke-miterlimit="10" cx="16.298" cy="15.881" r="9.921"/>
<path fill="#437356" d="M69.625,35.216c0.959,0,1.92,0,2.879,0C72.092,35.614,70.039,35.614,69.625,35.216z"/>
<path fill="#9E4A34" d="M60.504,41.697c0.768-0.339,0.607,1.436,0.24,1.44C60.467,42.853,60.473,42.288,60.504,41.697z"/>
<path fill="#9E4A34" d="M65.064,74.099c1.455-0.255,1.635,0.766,2.4,1.2c0.732-0.227,0.752-1.168,1.68-1.2
	c0.469,0.187,2.084,0.617,3.6,0.479C70.955,76.171,66.252,76.319,65.064,74.099z"/>
<path fill="#9E4A34" d="M66.984,76.26c1.379,0.383,5.014,0.46,6-0.96C73.875,76.842,67.828,79.724,66.984,76.26z"/>
<path fill="#CBA34A" d="M91.467,76.26c1.07,0.51,0.271,2.447-0.479,2.64c-0.555-0.245-0.496-1.104-0.48-1.92
	C91.107,77.02,91.258,76.611,91.467,76.26z"/>
<path fill="#CBA34A" d="M68.186,88.5c0.146-0.214,0.289-0.43,0-0.48c0.65-0.636,1.176,0.894,1.92,0.96
	c-0.127,0.193-0.25,0.391-0.24,0.722c0.678,0.198,0.621-0.339,1.199-0.24c0,0.399,0,0.8,0,1.2c-0.379,0.02-0.914-0.116-0.959,0.239
	c-0.16,0-0.32,0-0.48,0c-0.08,0-0.16,0-0.24,0C69.355,90.153,69.227,88.861,68.186,88.5z"/>
<path fill="#437356" d="M107.068,88.74c0.396,0.259,0.396,2.142,0,2.399C107.068,90.34,107.068,89.541,107.068,88.74z"/>
<path fill="#CBA34A" d="M70.584,92.34c-0.299,1.701-2.617,1.383-2.879,3.12c0.879,0.562,2-1.521,3.119-0.72
	c0.322,1.098-0.537,1.661-1.199,2.399c-1.617,4.944-3.16,9.962-7.92,11.762C63.045,102.679,62.221,91.842,70.584,92.34z"/>
<path fill="#9E4A34" d="M62.664,96.18c-0.127,0.586-0.248,1.163-0.719,1.92c-0.279-0.2-0.645-0.315-1.201-0.239
	C61.313,97.228,61.697,96.414,62.664,96.18z"/>
<path fill="#9E4A34" d="M75.625,96.661c-0.203,4.647-4.549,9.546-2.879,14.642c-2.164,0.675-5.979-0.962-8.4-2.16
	c3.43-3.051,5.246-7.715,6.961-12.48C72.746,95.835,73.992,96.473,75.625,96.661z"/>
<path fill="#323022" d="M95.066,100.98c-0.016,0.646-0.547,1.154-0.959,0.722C94.033,101.068,94.607,101.083,95.066,100.98z"/>
<path fill="#323022" d="M92.906,101.461c1.162,0.407-0.488,2.057-0.959,0.96C92.023,101.858,92.689,101.884,92.906,101.461z"/>
<path fill="#437356" d="M120.51,126.423c-8.32,0-16.643,0-24.963,0c-0.324-3.973-1.273-10.68,0.721-14.642
	c-2.262,0.717-2.627,4.805-2.641,7.681c-0.01,2.622,0.637,4.955,1.201,6.961c-14.963,0-29.924,0-44.885,0
	c0.527-6.604,2.67-12.081,5.521-17.762c-2.709,1.142-3.307,4.738-4.32,7.921c-0.814,2.559-2.797,5.688-1.92,9.841
	c-1.199,0-2.4,0-3.6,0c0.387-4.255,0.674-7.205,2.4-10.081c0.797-1.33,2.123-2.282,2.641-3.6c0.877-2.24,0.711-6.172,2.879-7.201
	c2.602-1.234,4.953,1.502,7.201,2.16c-0.121,1.231-1,1.61-0.959,2.399c1.174,0.676,2.49-0.316,3.359-0.72
	c2.676,1.805,5.328,3.634,10.082,3.36c0.635,2.164,1.955,3.644,4.08,4.319c0.822-1.84,0.703-3.574,1.92-5.28
	c5.883,0.02,12.799-5.636,18.24-3.36c1.449-0.34,2.891-0.86,4.32-0.96c4.238-0.293,5.436,1.766,8.641,3.121
	c1.895,0.8,3.99,0.933,5.281,2.398c0.648,0.739,1.518,2.423,1.92,3.36c1.271,2.963,1.871,6.709,2.4,9.603
	c0.053,0.187,0.199,0.277,0.479,0.238C120.51,126.262,120.51,126.343,120.51,126.423z M68.424,123.062
	c0.33-2.396,0.994-4.608,1.201-6.479c-0.332,0.011-0.527-0.113-0.721-0.24C67.813,117.967,67.369,121.078,68.424,123.062z"/>
<path fill="#323022" d="M49.943,126.423c-0.24,0-0.48,0-0.719,0c-0.877-4.152,1.104-7.282,1.92-9.841
	c1.014-3.183,1.609-6.779,4.318-7.921C52.613,114.342,50.471,119.82,49.943,126.423z"/>
<path fill="#323022" d="M95.547,126.423c-0.238,0-0.479,0-0.719,0c-0.564-2.006-1.211-4.339-1.201-6.961
	c0.014-2.876,0.379-6.964,2.641-7.681C94.271,115.744,95.223,122.451,95.547,126.423z"/>
<path fill="#323022" d="M68.904,116.342c0.193,0.127,0.391,0.251,0.721,0.24c-0.209,1.871-0.871,4.085-1.201,6.479
	C67.369,121.078,67.813,117.967,68.904,116.342z"/>
<path fill="#437356" d="M101.068,45.777c0.945,0.818,2.264,2.532,2.398,3.36C102.654,48.031,101.844,46.92,101.068,45.777z"/>
<path fill="#437356" d="M95.787,39.536c0.906,0.615,1.588,1.452,2.16,2.4C97.039,41.325,96.541,40.302,95.787,39.536z"/>
<path fill="#9E4A34" d="M62.424,36.416c0.041,0.681-0.811,0.468-0.479,1.44c-0.193,0.206-0.658,0.143-0.721,0.48
	c-0.08,0-0.16,0-0.24,0C61.5,37.73,61.58,36.692,62.424,36.416z"/>
<path fill="#9E4A34" d="M60.984,43.617c2.006-1.312,1.834-3.316,4.08-4.32c-1.578,1.241-2.654,4.201-4.08,4.8
	C60.984,43.936,60.984,43.777,60.984,43.617z"/>
<path fill="#437356" d="M61.705,52.257c0.701,0.259-0.223,2.142,0.48,2.4c0.006,0.233,0.293,0.186,0.479,0.24
	c-0.547,0.949,0.346-0.061,0.961,0c-0.336,0.383-0.828,0.613-1.439,0.72C61.67,54.851,61.656,53.586,61.705,52.257z"/>
<path fill="#323022" d="M44.902,126.423c-0.328-3.606-0.031-6.692,1.68-10.081c0.734-1.452,2.268-2.547,2.881-4.08
	c0.539-1.348,0.494-2.777,0.959-4.08c0.824-2.304,2.701-3.985,2.881-6.479c2.434-2.849,6.549-4.014,8.881-6.961
	c1.67,0.073,4.141-2.36,5.76-3.841c-0.658-1.775-1.578-3.173-1.439-6.24c-2.395-3.07-4.387-8.335-4.561-13.201
	c-0.035-0.964-1.414-3.092-1.68-4.32c-0.756-3.477,1.711-6.462,0.719-9.841c0.145-0.541-1.66,0.689-1.439-0.48
	c1.104-0.66,0.281-0.515-0.24-1.2c0.025-0.995,1.508,0.422,1.68-0.72c-1.215-2.412,0.486-3.651-0.719-6.001
	c0.49-0.869,0.105-2.614,0.719-3.36c-4.764-4.213,0.473-14.524,8.641-10.321c0.414,0.398,2.467,0.398,2.881,0
	c8.184-1.478,18.881-1.16,23.281,4.321c0.754,0.766,1.252,1.788,2.16,2.4c0.891,1.43,2.613,2.027,3.121,3.84
	c0.775,1.144,1.586,2.254,2.398,3.36c3.068,3.824,4.502,10.907,5.281,15.602c0.154,0.966-0.313,2.552,0.24,3.12
	c0.281,8.891-1.262,20.125-0.24,28.083c-1.59,0.412-4.467,0.403-5.762-0.24c0.162,1.041,1.451,1.558,2.16,2.16
	c3.875,3.29,9.105,5.583,10.801,10.801c0.371,1.141,0.119,2.591,0.48,3.601c0.563,1.571,2,2.893,2.641,4.562
	c1.283,3.354,1.998,6.3,1.92,9.601c-0.16,0-0.32,0-0.48,0c0-0.08,0-0.16,0-0.24c-0.277,0.039-0.426-0.053-0.479-0.238
	c-0.529-2.894-1.129-6.64-2.4-9.603c-0.4-0.938-1.27-2.621-1.92-3.359c-1.289-1.468-3.387-1.601-5.281-2.399
	c-3.203-1.355-4.4-3.414-8.641-3.121c-1.43,0.1-2.869,0.62-4.32,0.96c-5.441-2.273-12.357,3.38-18.24,3.36
	c-1.217,1.706-1.098,3.44-1.92,5.281c-2.123-0.678-3.443-2.156-4.08-4.32c-4.754,0.272-7.406-1.557-10.08-3.36
	c-0.871,0.402-2.186,1.396-3.361,0.72c-0.041-0.788,0.84-1.168,0.961-2.399c-2.25-0.658-4.6-3.396-7.201-2.16
	c-2.168,1.029-2.002,4.961-2.881,7.201c-0.516,1.316-1.842,2.27-2.641,3.6c-1.727,2.876-2.014,5.826-2.4,10.081
	C45.383,126.423,45.143,126.423,44.902,126.423z M65.064,39.296c0.688-1.806,3.338-1.449,3.602-2.88
	c-2.326,0.034-4.143-1.017-6.242,0c-0.844,0.276-0.924,1.315-1.439,1.92c-0.336,0.877-0.578,1.771,0,2.4
	c-0.721-0.242-0.424,0.535-0.48,0.96c-0.031,0.591-0.037,1.156,0.24,1.44c0,0.241,0.195,0.286,0.24,0.48c0,0.16,0,0.32,0,0.48
	C62.41,43.497,63.486,40.537,65.064,39.296z M107.068,88.74c0.484-10.48,1.557-20.572-0.721-29.042
	c-0.383-1.423-0.311-2.897-0.721-4.081c-2.346-6.763-7.842-11.253-11.76-16.801c-5.654-3.432-13.799-3.147-21.123-2.4
	c3.191,1.689,6.236,3.526,8.641,6c8.152,11.018,11.441,33.35,2.16,45.364c-1.309,1.693-3.242,2.585-4.08,4.561
	c2.285,0.603,2.887-1.729,5.281-1.2c-0.74,1.021-2.236,1.284-3.602,1.682c4.502,4.329,3.9,14.214-0.721,17.521
	c4.084-0.147,6.643-2.201,10.082-3.12c2.813-0.752,7.152-0.187,9.602-0.721c5.053-1.101,9.104,2.108,14.881,4.32
	c-0.717-6.378-7.092-11.605-15.602-10.562c-0.701,0.086-2.766,1.453-3.84,0.72c2.582-1.537,6.211-1.617,9.602-1.68
	c-3.289-3.825-9.184-3.828-14.643-2.399c2.338-1.771,5.045-1.755,8.643-1.921c-0.955-5.86-9.668-3.955-14.162-3.841
	c0-0.08,0-0.16,0-0.239c4.002-0.938,8.469-1.769,12.48-1.199c1.77,0.25,3.939,0.817,5.041,1.92c-1.471,0.75-2.297-0.751-3.842,0
	c1.367,3.223,6.088,3.437,8.643,3.12c-0.201-1.578-0.129-1.934-0.24-3.602C107.465,90.881,107.465,88.999,107.068,88.74z
	 M62.186,54.658c2.74-4.223,7.322-0.29,6.479,4.8c-0.58,3.503-6.914,7.502-6.24,10.081c3.102-0.5,6.127-1.073,8.881-1.92
	c0.203-0.877-1.105-1.286,0-1.68c1.014,0.08,1.25,1.204,0.961,1.92c-2.576,2.344-5.93,1.839-9.361,2.88
	c0.863,6.897,4.779,19.978,13.68,18.962c1.426-0.163,2.793-2.429,4.563-1.682c-1.328,0.993-2.197,2.444-4.32,2.642
	c-0.18,0.737,0.658,0.461,0.48,1.2c3.549-2.291,6.664-5.018,7.68-9.842c-1.072-1.452-1.756-3.922-0.48-5.28
	c-0.609-0.414-0.93,0.366-0.959-0.479c0.244-1.116,1.457-1.263,1.439-2.641c-0.793-0.486-1.883-0.677-1.92-1.92
	c0.574-0.642,2.424-0.759,2.641-2.4c-1.521,0.564-3.629,0.026-3.359-1.2c1.568-0.19,2.043-1.476,3.119-2.16
	c2.209-6.36,1.145-11.566-1.439-16.801c-4.389-2.77-7.686-6.237-13.922-7.201c-0.186-0.534-0.139-1.301-0.721-1.44
	c0.037,0.596-0.123,0.996-0.479,1.2c-4.777,0.53-7.973,3.957-7.201,7.44c1.773-0.967,2.951-1.711,5.281-1.68
	c-0.162,1.21,1.043,1.195,0.479,2.16c-2.004,0.796-5.063,0.536-5.76,2.64c-0.049,1.329-0.033,2.594,0.48,3.36
	c0.613-0.107,1.104-0.336,1.439-0.72c0.732-0.069,1.639,0.038,1.682-0.72c-1.391-0.269-1.797,0.444-2.641,0.72
	C62.479,54.844,62.191,54.891,62.186,54.658z M63.385,56.338c-0.578-0.098-0.521,0.438-1.199,0.24
	c-0.5,3.461,1.166,4.754,4.08,4.801c0.752-0.692,1.414-2.739,0.719-4.081c-0.309,0.572-0.459,1.301-1.199,1.44
	C63.498,58.909,64.09,57.692,63.385,56.338z M62.186,61.378c-0.99,2.478-1.207,4.455-0.48,6.48c0.977-1.984,2.201-3.718,3.6-5.28
	C63.619,62.312,63.162,62.058,62.186,61.378z M71.064,89.46c-0.578-0.099-0.521,0.438-1.199,0.24
	c-0.012-0.331,0.113-0.527,0.24-0.722c-0.744-0.066-1.27-1.596-1.92-0.96c0.289,0.052,0.146,0.268,0,0.48
	c0.543,0.583,0.662,2.849,1.439,2.399c0.16,0,0.32,0,0.48,0c0.209,0.361,0.357-0.065,0.959,0.239
	C71.131,90.533,72.098,89.78,71.064,89.46z M73.465,90.661c-2.443,0.343-1.822,2.379-1.439,4.319
	c1.186-0.457,1.695,0.116,2.881,0.24c0.348-1.172,1.348-1.691,1.439-3.121c-0.348-0.453-0.535-1.063-1.439-0.96
	c-1.207,0.951-0.055,2.192-0.961,2.881c-0.16,0-0.32,0-0.48,0C72.877,92.818,73.049,91.9,73.465,90.661z M61.705,108.902
	c4.76-1.8,6.303-6.816,7.92-11.762c0.662-0.738,1.521-1.303,1.199-2.399c-1.119-0.803-2.24,1.28-3.119,0.72
	c0.262-1.737,2.58-1.419,2.879-3.12C62.221,91.842,63.045,102.679,61.705,108.902z M79.945,96.18
	c0.826,4.577-1.193,8.832-3.6,12.001c-0.598-3.141,5.785-10.424,0.24-13.682c-1.289,1.091,0.453,1.693,0.48,2.881
	c-0.723,3.606-2.777,6.147-3.121,9.36c-0.406,3.799,0.484,6.716,2.639,8.641c0.221-1.54,1.061-2.462,1.201-4.08
	c2.018-1.688,4.996-4.74,5.281-8.881c0.273-3.998-1.648-9.314-5.041-8.881c0.268,0.051,0.373,0.267,0.479,0.479
	C78.979,94.749,79.34,95.586,79.945,96.18z M60.744,97.861c0.557-0.076,0.922,0.039,1.201,0.239c0.473-0.757,0.592-1.334,0.719-1.92
	C61.697,96.414,61.313,97.228,60.744,97.861z M71.307,96.661c-1.715,4.767-3.531,9.431-6.961,12.48
	c2.424,1.198,6.236,2.835,8.4,2.16c-1.67-5.096,2.676-9.993,2.879-14.642C73.992,96.473,72.746,95.835,71.307,96.661z
	 M54.023,104.582c1.574-0.754,4.68,0.777,6.961,1.92c0.188-2.794,1.025-6.686,0.479-8.16
	C57.529,98.712,53.652,101.477,54.023,104.582z"/>
<path fill="#C9A763" d="M61.705,52.257c0.695-2.104,3.756-1.844,5.76-2.64c0.564-0.965-0.643-0.95-0.48-2.16
	c-2.33-0.031-3.506,0.713-5.279,1.68c-0.771-3.484,2.422-6.911,7.199-7.44c0.355-0.204,0.516-0.604,0.48-1.2
	c0.58,0.139,0.533,0.906,0.721,1.44c6.236,0.964,9.533,4.431,13.92,7.201c2.584,5.235,3.65,10.441,1.439,16.801
	c-1.074,0.684-1.549,1.97-3.119,2.16c-0.268,1.226,1.838,1.764,3.359,1.2c-0.215,1.641-2.064,1.759-2.639,2.4
	c0.037,1.243,1.125,1.434,1.92,1.92c0.018,1.378-1.197,1.524-1.441,2.641c0.029,0.846,0.35,0.065,0.961,0.479
	c-1.275,1.358-0.594,3.828,0.48,5.28c-1.018,4.824-4.131,7.551-7.682,9.842c0.18-0.739-0.658-0.463-0.48-1.2
	c2.125-0.196,2.994-1.647,4.32-2.642c-1.77-0.747-3.135,1.519-4.561,1.682c-8.902,1.016-12.816-12.064-13.682-18.962
	c3.432-1.041,6.785-0.537,9.361-2.88c0.291-0.717,0.055-1.84-0.959-1.92c-1.107,0.395,0.203,0.803,0,1.68
	c-2.754,0.848-5.781,1.421-8.883,1.92c-0.672-2.579,5.66-6.578,6.242-10.081c0.842-5.09-3.74-9.023-6.48-4.8
	C61.482,54.399,62.406,52.516,61.705,52.257z M72.986,47.217c-0.33,1.031-1.832,0.889-2.16,1.92c3.148,1.947,5.959,0.78,9.6,3.12
	C80.773,48.711,75.758,47.701,72.986,47.217z M75.865,62.578c4.396,0.59,6.914-3.293,5.521-6.481c0.719-0.322,1.617-0.462,1.68-1.44
	c-0.891-0.17-1.029,0.41-1.92,0.24c0.135-0.49,0.723-0.471,0.24-0.96c-0.578-0.098-0.521,0.438-1.199,0.24
	c-4.281-5.761-12.465,2.221-6.723,7.201c0,0.08,0,0.16,0,0.24C74.168,62.036,74.83,62.492,75.865,62.578z M67.225,74.099
	c-0.668-1.101-2.73-1.247-3.359,0c0.836,1.31,2.578,3.613,4.08,5.04c4.828,0.375,6.807-3.646,7.439-6
	C72.352,75.07,69.289,71.854,67.225,74.099z"/>
<path fill="#323022" d="M96.268,48.177c0.479,0.775-0.535,1.766-1.92,1.44c1.074-1.122-0.063-1.196,0-2.16
	c0.055-0.834,1.283-1.937,1.68-2.88c0.268-0.635-0.502-1.52,0.721-1.44c0.572,1.216-0.266,2.06-0.959,3.12
	C94.73,46.638,95.613,48.044,96.268,48.177z"/>
<path fill="#9E4A34" d="M95.787,46.257c0.045,0.204-0.094,0.227-0.24,0.24c-0.129,0.929,0.611,0.988,0.721,1.68
	C95.613,48.044,94.73,46.638,95.787,46.257z"/>
<path fill="#323022" d="M98.668,47.457c2.896,0.986,0.447,2.612,1.199,4.32c0.211,0.172,0.965,0.222,1.68,0.48
	c0.486,0.775,1.207,2.565,0.24,3.36c1.564,1.46,2.898,4.182,1.441,5.521c1.318,0.822,1.668,3.004,0.959,4.561
	c0.576,0.79,0.709-0.874,1.682-0.48c0.23,1.715-1.799,2.188-2.641,1.44c-1.184,1.11-1.605,1.532-1.441,3.84
	c1.252-0.108,1.289-1.431,2.641-1.44c-0.381,1.584-2.02,1.803-2.881,2.88c-1.215,1.521-1.402,3.75-3.119,5.28
	c-0.039,0.521,0.852,0.108,1.199,0.24c-0.105,1.013-1.234,1.003-2.16,1.2c-0.482,0.477-0.783,1.135-1.439,1.439
	c0,0.32,0,0.641,0,0.959c-3.439,3.444-7.258,7.778-12,9.121c0.973-1.254,2.457-2.3,3.84-3.359c2.586-1.979,6.887-4.138,8.16-7.681
	c-0.627-0.772-2.004,0.611-2.398-0.479c0.439-1.216,1.537-0.357,3.119-0.961c1.412-1.389,2.303-3.297,3.361-5.04
	c-0.459-0.188-2.266,0.994-3.121,0.48c0.158-1.682,2.506-1.176,3.6-1.921c0.166-1.029,0.092-1.585,0.24-2.16
	c-0.252-0.491-1.23,1.115-1.92,0.24c0.09-0.95,0.756-1.324,1.68-1.44c-0.107-1.539-1.568-2.846-0.959-4.32
	c1.641,0.378,1.664,2.185,1.92,3.36c2.201-0.942,2.441-3.85,0.48-5.041c0.557-2.199,1.52-4.28-1.441-4.561
	c-0.289-0.946,0.188-2.513,0.723-3.36c-0.072-0.489-0.65-0.471-0.723-0.96c-2.354,1.277-3.217-2.549-1.438-3.36
	C99.402,48.5,97.963,48.282,98.668,47.457z"/>
<path fill="#323022" d="M90.027,52.497c0.035,1.22-2.273,1.762-2.643,0.48c0.879-1.522,1.998-2.803,2.4-4.8
	c1.359,0.493-0.076,2.458-0.479,3.36C89.547,51.855,89.533,52.43,90.027,52.497z"/>
<path fill="#323022" d="M90.508,57.778c-1.625-0.262-0.773-1.671-2.16-1.92c-0.133-0.532,0.459-0.342,0.479-0.72
	c0.422,0.058,0.547,0.413,0.48,0.96c1.771-0.788,2.197-2.921,3.359-4.32c0.539,1.187-0.539,2.816-1.439,3.36
	C91.881,55.987,91.52,57.327,90.508,57.778z"/>
<path fill="#437356" d="M73.465,61.378c0.619,0.582,1.74,0.661,2.4,1.2c-1.035-0.086-1.697-0.542-2.4-0.96
	C73.465,61.538,73.465,61.458,73.465,61.378z"/>
<path fill="#CBA34A" d="M62.664,54.897c0.844-0.276,1.252-0.989,2.641-0.72c-0.041,0.758-0.949,0.651-1.68,0.72
	C63.01,54.837,62.117,55.847,62.664,54.897z"/>
<path fill="#437356" d="M89.309,81.058c0.314-0.482,0.787-0.812,1.438-0.959c0.045,0.204-0.094,0.227-0.238,0.24
	c-0.229,0.155-0.096,1.09-0.721,1.44C90.076,81.119,90.045,80.508,89.309,81.058z"/>
<path fill="#9E4A34" d="M92.906,76.739c-0.535-0.104-0.096-1.183-0.238-1.68c0.643-0.157,0.912-0.688,1.439-0.96
	c-0.311,0.411-0.496,0.943-1.201,0.96C92.906,75.619,92.906,76.18,92.906,76.739z"/>
<path fill="#437356" d="M63.385,56.338c0.705,1.354,0.115,2.571,2.4,2.4C64.354,59.522,63.033,58.134,63.385,56.338z"/>
<path fill="#CBA34A" d="M65.305,62.578c-1.398,1.562-2.623,3.296-3.6,5.28c-0.727-2.025-0.51-4.002,0.48-6.48
	C63.162,62.058,63.619,62.312,65.305,62.578z"/>
<path fill="#323022" d="M75.385,73.139c-0.633,2.354-2.611,6.375-7.439,6c-1.502-1.427-3.244-3.73-4.08-5.04
	c0.629-1.247,2.691-1.101,3.359,0C69.289,71.854,72.352,75.07,75.385,73.139z M72.746,74.579c-1.518,0.138-3.131-0.293-3.6-0.479
	c-0.93,0.032-0.947,0.974-1.682,1.2c-0.766-0.435-0.945-1.455-2.398-1.2C66.252,76.319,70.955,76.171,72.746,74.579z M72.986,75.3
	c-0.988,1.42-4.623,1.343-6,0.96C67.828,79.724,73.875,76.842,72.986,75.3z"/>
<path fill="#323022" d="M104.188,81.299c-0.01,1.479,1.932,3.748-0.721,3.841c-1.035-2.686-0.162-5.788,2.4-6.24
	C106.17,80.56,105.018,80.766,104.188,81.299z"/>
<path fill="#323022" d="M88.107,84.179c-0.432-0.03-0.508,0.293-0.961,0.239C86.238,83.256,88.32,82.341,88.107,84.179z"/>
<path fill="#323022" d="M102.268,84.9c-0.332,1.049-0.242,1.854,0.24,2.641c-0.215,0.186-0.543,0.258-0.961,0.239
	C101.021,87,100.672,84.806,102.268,84.9z"/>
<path fill="#9E4A34" d="M95.309,86.82c0.074-0.746,3.104-0.639,2.398,0C97.273,86.247,95.828,86.684,95.309,86.82z"/>
<path fill="#9E4A34" d="M68.186,88.5c1.041,0.36,1.17,1.652,1.199,2.399c0.08,0,0.16,0,0.24,0
	C68.848,91.348,68.729,89.083,68.186,88.5z"/>
<path fill="#9E4A34" d="M71.064,89.46c1.031,0.319,0.066,1.072,0,1.68c-0.602-0.306-0.75,0.122-0.959-0.239
	c0.045-0.355,0.58-0.221,0.959-0.239C71.064,90.26,71.064,89.86,71.064,89.46z"/>
<path fill="#9E4A34" d="M78.506,94.02c0.789,0.41,1.082,1.317,1.439,2.16C79.34,95.586,78.979,94.749,78.506,94.02z"/>
<path fill="#9E4A34" d="M61.465,98.341c0.545,1.476-0.293,5.366-0.48,8.16c-2.281-1.143-5.387-2.674-6.959-1.92
	C53.652,101.477,57.529,98.712,61.465,98.341z"/>
<path fill="#CBA34A" d="M62.424,36.416c2.1-1.017,3.916,0.034,6.242,0c-0.264,1.432-2.914,1.074-3.602,2.88
	c-2.248,1.004-2.074,3.008-4.08,4.32c-0.045-0.194-0.24-0.239-0.24-0.48c0.367-0.004,0.527-1.779-0.24-1.44
	c0.057-0.426-0.24-1.202,0.48-0.96c-0.578-0.628-0.336-1.523,0-2.4c0.08,0,0.16,0,0.24,0c0.063-0.337,0.527-0.274,0.721-0.48
	C61.613,36.884,62.465,37.097,62.424,36.416z"/>
<path fill="#323022" d="M83.547,39.776c-0.35,0.771-1.611,0.629-2.4,0.96c0.039-0.279-0.053-0.427-0.24-0.48
	C81.246,39.604,82.844,39.309,83.547,39.776z"/>
<path fill="#323022" d="M92.428,42.657c0.717,0.564,1.148,1.412,1.199,2.64c-0.277,0.202-0.643,0.316-1.199,0.24
	c-0.689-1.38-0.766-4.52-0.721-6.481C93.029,39.02,92.828,41.768,92.428,42.657z"/>
<path fill="#CBA34A" d="M84.746,91.139c-2.393-0.529-2.996,1.803-5.281,1.2c0.838-1.976,2.773-2.866,4.082-4.561
	c9.279-12.014,5.992-34.346-2.16-45.364c-2.406-2.475-5.449-4.311-8.641-6c7.324-0.747,15.467-1.031,21.121,2.4
	c3.918,5.547,9.416,10.038,11.762,16.801c0.41,1.183,0.338,2.658,0.721,4.081c2.277,8.47,1.205,18.562,0.721,29.042
	c0,0.801,0,1.601,0,2.399c0.111,1.668,0.039,2.022,0.24,3.602c-2.555,0.315-7.275,0.103-8.643-3.12c1.545-0.751,2.371,0.75,3.842,0
	c-1.102-1.103-3.271-1.67-5.041-1.92c-4.012-0.568-8.479,0.263-12.48,1.198C84.781,90.855,84.76,90.994,84.746,91.139z
	 M81.625,37.136c1.838,1.181,4.877,1.968,4.322,4.8c3.141,2.218,4.916,5.805,7.68,8.401c0.525-0.5-0.211-0.776,0.24-1.2
	c-2.357-2.442-3.924-5.676-6.721-7.681c0.588-0.772,1.379-1.342,1.199-2.88c-0.428-0.213-0.609-0.67-1.439-0.48
	c-0.752,0.452,0.58,1.248,0,1.44C85.449,38.74,83.27,35.415,81.625,37.136z M91.707,39.056c-0.045,1.961,0.029,5.101,0.721,6.481
	c0.557,0.076,0.922-0.039,1.199-0.24c-0.051-1.229-0.482-2.076-1.199-2.64C92.828,41.768,93.029,39.02,91.707,39.056z
	 M80.906,40.256c0.188,0.053,0.279,0.201,0.24,0.48c0.791-0.331,2.053-0.188,2.4-0.96C82.844,39.309,81.246,39.604,80.906,40.256z
	 M95.787,46.257c0.693-1.06,1.533-1.904,0.961-3.12c-1.225-0.08-0.453,0.805-0.721,1.44c-0.396,0.944-1.625,2.046-1.68,2.88
	c-0.064,0.964,1.074,1.039,0,2.16c1.385,0.326,2.396-0.665,1.92-1.44c-0.109-0.692-0.852-0.751-0.721-1.68
	C95.693,46.483,95.832,46.461,95.787,46.257z M88.826,46.017c-1.727,0.768-2.49,2.074-2.4,3.6c0.48,0,0.961,0,1.441,0
	C87.846,47.954,88.248,46.779,88.826,46.017z M99.148,49.617c-1.777,0.812-0.914,4.637,1.438,3.36
	c0.072,0.489,0.65,0.471,0.723,0.96c-0.535,0.847-1.012,2.414-0.723,3.36c2.961,0.281,1.998,2.362,1.441,4.561
	c1.961,1.191,1.721,4.099-0.48,5.041c-0.256-1.175-0.279-2.982-1.92-3.36c-0.609,1.475,0.852,2.782,0.959,4.32
	c-0.924,0.116-1.59,0.49-1.68,1.44c0.688,0.875,1.668-0.73,1.92-0.24c-0.148,0.574-0.074,1.13-0.24,2.16
	c-1.094,0.745-3.439,0.239-3.6,1.921c0.855,0.514,2.662-0.669,3.121-0.48c-1.059,1.743-1.949,3.651-3.361,5.04
	c-1.582,0.604-2.68-0.255-3.119,0.961c0.395,1.091,1.771-0.293,2.398,0.479c-1.273,3.543-5.574,5.701-8.16,7.681
	c-1.383,1.061-2.867,2.105-3.84,3.359c4.744-1.343,8.561-5.677,12-9.121c0-0.318,0-0.64,0-0.959
	c0.656-0.305,0.957-0.963,1.439-1.439c0.926-0.197,2.055-0.188,2.16-1.2c-0.348-0.132-1.24,0.28-1.199-0.24
	c1.717-1.53,1.904-3.759,3.119-5.28c0.861-1.078,2.5-1.296,2.881-2.88c-1.352,0.009-1.389,1.332-2.641,1.44
	c-0.164-2.309,0.258-2.73,1.441-3.84c0.842,0.748,2.871,0.275,2.641-1.44c-0.973-0.394-1.105,1.27-1.682,0.48
	c0.709-1.556,0.359-3.739-0.959-4.561c1.457-1.339,0.121-4.06-1.441-5.521c0.967-0.795,0.246-2.585-0.24-3.36
	c-0.715-0.258-1.469-0.308-1.68-0.48c-0.752-1.708,1.695-3.334-1.199-4.32C97.963,48.282,99.402,48.5,99.148,49.617z M89.309,51.537
	c0.4-0.902,1.838-2.867,0.479-3.36c-0.402,1.997-1.521,3.278-2.4,4.8c0.367,1.282,2.678,0.74,2.641-0.48
	C89.533,52.43,89.547,51.855,89.309,51.537z M91.227,55.138c0.9-0.544,1.979-2.174,1.439-3.36c-1.162,1.399-1.588,3.532-3.359,4.32
	c0.066-0.547-0.059-0.902-0.48-0.96c-0.02,0.378-0.611,0.188-0.479,0.72c1.387,0.249,0.535,1.658,2.16,1.92
	C91.52,57.327,91.881,55.987,91.227,55.138z M97.947,53.698c-0.016,2.353-1.625,3.052-0.959,5.041
	C97.904,57.519,100.453,53.375,97.947,53.698z M94.107,74.099c1.166-2.192,0.016-3.124-0.961-4.801
	c0.066-1.054,1.047-1.194,1.682-1.68c-0.236-0.959-0.236-1.44,0-2.4c-1.361-0.657-1.641-1.755-1.439-3.121
	c1.025,0.066,1.223-0.696,1.68-1.2c-0.732-1.268-2.133-1.869-2.4-3.601c0.139-1.063,1.883-0.517,1.92-1.68
	c-3.627-0.861-2.914,4.075-1.199,5.521c-2.436,1.333-0.359,3.587,0.24,6c-4.105,1.958,2.244,5.782-1.922,7.921
	c-1.213-1.044,0.195-2.145,0.48-3.12c-1.814-1.293,0.057-2.867,0-4.321c-0.041-1.073-1.719-2.203-0.721-4.56
	c-0.469-0.281-1.344-0.789-1.92-0.24c-0.188,0.989,1.148,0.451,0.961,1.44c-0.211,0.75-0.652,1.268-0.961,1.92
	c0.236,0.804,1.039,1.042,1.199,1.92c-1.813,0.808-0.549,3.132,0.24,4.081c-0.604,0.596-1.576,0.823-1.439,2.16
	c0.18,0.701,1.295,0.464,1.199,1.439c-0.904,0.375-1.545,1.016-1.92,1.92c0.844,0.178-0.111,1.198,0.48,1.921
	c-0.4,0.959-1.734,0.983-1.439,2.64c1.072,0.194,1.332-0.427,1.439-1.2c0.738-0.551,0.77,0.061,0.479,0.722
	c-0.32,0.604-1.105,1.598-0.719,2.159c2.354-0.933,1.412-4.173,3.84-5.521c0.131-0.958,0.131-0.723,0-1.681c0-0.56,0-1.12,0-1.68
	C93.611,75.042,93.799,74.511,94.107,74.099z M100.35,57.778c-2.652,0.79-1.883,5-3.842,6.48c-0.383-0.177,0.055-1.175-0.721-0.96
	c-0.834,0.329-0.426,0.988-0.721,1.44c0.574,0.386,1.131,0.79,2.16,0.72C97.727,62.873,100.234,60.064,100.35,57.778z
	 M90.746,60.178c-0.318,0-0.639,0-0.959,0C89.477,61.409,90.961,61.295,90.746,60.178z M104.428,75.3
	c0.238-0.77,0.898-2.787-0.479-3.12c-0.361,3.031-1.668,5.41-3.121,7.92C102.289,79.355,103.904,76.996,104.428,75.3z
	 M105.869,78.898c-2.563,0.453-3.438,3.556-2.4,6.241c2.65-0.093,0.711-2.361,0.721-3.841
	C105.018,80.766,106.17,80.56,105.869,78.898z M98.428,82.979c0.521-0.603,1.789-2.483,1.199-3.359
	c-0.717,1.096-1.434,2.22-2.398,3.12c-2.693,2.513-6.996,3.651-8.643,6.239C91.811,87.386,96.152,85.608,98.428,82.979z
	 M87.146,84.419c0.453,0.054,0.529-0.271,0.961-0.239C88.32,82.341,86.238,83.256,87.146,84.419z M101.547,87.78
	c0.42,0.019,0.748-0.055,0.961-0.239c-0.48-0.786-0.572-1.592-0.238-2.641C100.672,84.806,101.021,87,101.547,87.78z M86.426,86.099
	c-0.805-0.104-1.416,0.507-0.959,0.96C86.219,87.171,86.537,86.85,86.426,86.099z M97.707,86.82c0.703-0.639-2.324-0.746-2.398,0
	c-1.305,0.376-2.939,0.423-3.121,1.92C93.342,88.373,95.879,87.314,97.707,86.82z M102.748,91.621c0.178,0.941,1.098,1.144,2.16,1.2
	c-0.041-0.359,0.086-0.887-0.24-0.96c-0.059,0.091-1.193,0.634-0.961-0.48C103.254,91.327,103.178,91.651,102.748,91.621z"/>
<path fill="#323022" d="M87.867,49.617c-0.48,0-0.961,0-1.441,0c-0.09-1.526,0.674-2.832,2.4-3.6
	C88.248,46.779,87.846,47.954,87.867,49.617z"/>
<path fill="#CBA34A" d="M72.986,54.658c0.676-1.89,4.229-1.688,5.52-0.48C77.26,54.334,75.25,54.135,72.986,54.658z"/>
<path fill="#323022" d="M89.309,81.058c-0.107,0.773-0.367,1.396-1.441,1.2c-0.295-1.655,1.039-1.681,1.441-2.64
	c-0.594-0.723,0.361-1.743-0.48-1.921c0.375-0.904,1.016-1.545,1.92-1.92c0.096-0.976-1.021-0.738-1.201-1.439
	c-0.135-1.337,0.838-1.564,1.441-2.16c-0.789-0.949-2.055-3.273-0.24-4.081c-0.162-0.878-0.965-1.116-1.201-1.92
	c0.309-0.652,0.75-1.17,0.961-1.92c0.189-0.989-1.148-0.451-0.961-1.44c0.578-0.548,1.453-0.041,1.922,0.24
	c-0.998,2.357,0.68,3.487,0.721,4.56c0.055,1.454-1.814,3.027,0,4.321c-0.285,0.976-1.695,2.076-0.48,3.12
	c4.166-2.139-2.186-5.963,1.92-7.921c-0.6-2.414-2.676-4.667-0.238-6c-1.717-1.445-2.43-6.382,1.199-5.521
	c-0.037,1.163-1.783,0.617-1.92,1.68c0.268,1.732,1.666,2.333,2.398,3.601c-0.455,0.503-0.652,1.266-1.68,1.2
	c-0.199,1.365,0.078,2.463,1.439,3.121c-0.236,0.959-0.236,1.44,0,2.4c-0.633,0.486-1.613,0.626-1.68,1.68
	c0.977,1.677,2.125,2.608,0.959,4.801c-0.527,0.272-0.797,0.803-1.439,0.96c0.145,0.497-0.297,1.576,0.24,1.68
	c0.131,0.958,0.131,0.723,0,1.681c-2.428,1.347-1.486,4.587-3.84,5.521c-0.387-0.563,0.398-1.557,0.719-2.16
	c0.625-0.352,0.492-1.285,0.721-1.44c0.146-0.014,0.283-0.036,0.24-0.24C90.096,80.248,89.623,80.576,89.309,81.058z M90.508,76.979
	c-0.018,0.816-0.074,1.675,0.479,1.92c0.752-0.192,1.551-2.13,0.48-2.64C91.258,76.611,91.107,77.02,90.508,76.979z"/>
<path fill="#CECEC6" d="M74.666,55.858c-0.377,4.286,4.271,2.896,4.32,0c4.016,1.237,0.191,7.473-4.32,5.28
	c-1.146-1.226-2.213-3.085-1.92-5.041C73.518,56.15,73.76,55.673,74.666,55.858z"/>
<path fill="#323022" d="M97.227,65.458c-1.029,0.07-1.586-0.334-2.16-0.72c0.295-0.452-0.113-1.111,0.721-1.44
	c0.775-0.215,0.338,0.783,0.721,0.96c1.959-1.48,1.189-5.691,3.842-6.48C100.234,60.064,97.727,62.873,97.227,65.458z"/>
<path fill="#323022" d="M89.787,60.178c0.32,0,0.641,0,0.959,0C90.961,61.295,89.477,61.409,89.787,60.178z"/>
<path fill="#323022" d="M100.828,80.099c1.451-2.51,2.758-4.889,3.119-7.92c1.379,0.333,0.719,2.351,0.48,3.12
	C103.904,76.996,102.289,79.355,100.828,80.099z"/>
<path fill="#323022" d="M88.586,88.979c1.646-2.588,5.947-3.728,8.643-6.239c0.965-0.9,1.682-2.024,2.398-3.12
	c0.59,0.876-0.678,2.758-1.199,3.359C96.152,85.608,91.811,87.386,88.586,88.979z"/>
<path fill="#323022" d="M85.467,87.059c-0.457-0.453,0.154-1.063,0.959-0.96C86.537,86.85,86.219,87.171,85.467,87.059z"/>
<path fill="#323022" d="M97.707,86.82c-1.828,0.494-4.365,1.553-5.52,1.92c0.182-1.497,1.814-1.544,3.119-1.92
	C95.828,86.684,97.273,86.247,97.707,86.82z"/>
<path fill="#9E4A34" d="M84.986,90.9c0,0.079,0,0.159,0,0.239c4.494-0.114,13.207-2.021,14.162,3.841
	c-3.598,0.166-6.305,0.148-8.643,1.921c5.459-1.429,11.354-1.426,14.643,2.399c-3.391,0.063-7.02,0.143-9.602,1.68
	c1.074,0.733,3.139-0.634,3.84-0.72c8.51-1.045,14.885,4.184,15.602,10.562c-5.775-2.212-9.828-5.421-14.881-4.32
	c-2.449,0.534-6.789-0.031-9.602,0.721c-3.438,0.919-5.996,2.973-10.082,3.12c4.623-3.308,5.223-13.191,0.721-17.521
	c1.363-0.396,2.861-0.66,3.602-1.682C84.76,90.994,84.781,90.855,84.986,90.9z M94.107,101.702c0.412,0.434,0.943-0.074,0.959-0.722
	C94.607,101.083,94.033,101.068,94.107,101.702z M91.947,102.421c0.471,1.097,2.121-0.553,0.959-0.96
	C92.689,101.884,92.023,101.858,91.947,102.421z"/>
<path fill="#CBA34A" d="M73.465,94.02c0.16,0,0.32,0,0.48,0c0.906-0.688-0.246-1.93,0.961-2.881c0.904-0.104,1.092,0.507,1.439,0.96
	c-0.092,1.43-1.092,1.949-1.439,3.121c-1.186-0.124-1.695-0.696-2.881-0.24c-0.383-1.94-1.004-3.978,1.439-4.319
	C73.049,91.9,72.877,92.818,73.465,94.02z"/>
<path fill="#323022" d="M86.906,39.536c0.58-0.193-0.752-0.988,0-1.44c0.83-0.19,1.014,0.267,1.439,0.48
	c0.18,1.539-0.611,2.108-1.199,2.88c2.797,2.004,4.361,5.238,6.721,7.681c-0.451,0.424,0.285,0.701-0.24,1.2
	c-2.764-2.596-4.539-6.183-7.68-8.401c0.557-2.833-2.482-3.619-4.322-4.8C83.27,35.415,85.449,38.74,86.906,39.536z"/>
<path fill="#323022" d="M80.426,52.257c-3.643-2.34-6.451-1.173-9.602-3.12c0.33-1.031,1.832-0.889,2.16-1.92
	C75.758,47.701,80.773,48.711,80.426,52.257z"/>
<path fill="#323022" d="M73.465,61.378c-5.744-4.979,2.441-12.962,6.723-7.201c0.678,0.198,0.621-0.338,1.199-0.24
	c0.482,0.49-0.105,0.471-0.24,0.96c0.891,0.17,1.029-0.41,1.92-0.24c-0.063,0.978-0.961,1.118-1.68,1.44
	c1.393,3.188-1.125,7.071-5.521,6.481C75.205,62.039,74.084,61.959,73.465,61.378z M78.506,54.178
	c-1.293-1.208-4.844-1.41-5.521,0.48C75.25,54.135,77.26,54.334,78.506,54.178z M72.746,56.097c-0.293,1.956,0.773,3.815,1.92,5.041
	c4.514,2.193,8.336-4.043,4.32-5.28c-0.049,2.896-4.697,4.286-4.32,0C73.76,55.673,73.518,56.15,72.746,56.097z"/>
<path fill="#323022" d="M96.988,58.738c-0.666-1.989,0.943-2.688,0.959-5.041C100.453,53.375,97.904,57.519,96.988,58.738z"/>
<path fill="#323022" d="M103.707,91.38c-0.232,1.114,0.902,0.571,0.961,0.48c0.326,0.073,0.199,0.601,0.24,0.96
	c-1.064-0.058-1.982-0.259-2.16-1.2C103.178,91.651,103.254,91.327,103.707,91.38z"/>
<path fill="#CBA34A" d="M78.506,94.02c-0.105-0.214-0.211-0.43-0.48-0.479c3.395-0.435,5.316,4.883,5.041,8.881
	c-0.285,4.141-3.264,7.192-5.281,8.881c-0.141,1.618-0.979,2.54-1.199,4.08c-2.156-1.925-3.047-4.842-2.641-8.641
	c0.344-3.213,2.4-5.754,3.121-9.36c-0.027-1.188-1.77-1.79-0.48-2.881c5.545,3.258-0.836,10.541-0.238,13.682
	c2.404-3.169,4.426-7.424,3.6-12.001C79.588,95.338,79.295,94.43,78.506,94.02z"/>
<path fill="#437356" d="M108.748,64.739c0.553,0.568,0.086,2.154,0.24,3.12C108.436,67.291,108.902,65.704,108.748,64.739z"/>
<path fill="#CECEC6" d="M65.785,58.738c0.74-0.14,0.893-0.868,1.199-1.44c0.695,1.342,0.033,3.389-0.719,4.081
	c-2.914-0.046-4.582-1.34-4.08-4.801c0.678,0.199,0.621-0.338,1.199-0.24C63.033,58.134,64.354,59.522,65.785,58.738z"/>
<path fill="#437356" d="M96.152,223.31c-0.959,0-1.92,0-2.879,0C93.686,222.912,95.738,222.912,96.152,223.31z"/>
<path fill="#9E4A34" d="M105.273,216.829c-0.768,0.339-0.607-1.437-0.24-1.44C105.311,215.673,105.305,216.238,105.273,216.829z"/>
<path fill="#9E4A34" d="M100.713,184.427c-1.455,0.255-1.635-0.766-2.4-1.2c-0.732,0.228-0.752,1.168-1.68,1.2
	c-0.469-0.187-2.084-0.617-3.6-0.479C94.822,182.354,99.525,182.207,100.713,184.427z"/>
<path fill="#9E4A34" d="M98.793,182.266c-1.379-0.383-5.014-0.46-6,0.96C91.902,181.684,97.949,178.802,98.793,182.266z"/>
<path fill="#CBA34A" d="M74.311,182.266c-1.07-0.51-0.271-2.446,0.479-2.64c0.555,0.245,0.496,1.104,0.48,1.92
	C74.67,181.506,74.52,181.915,74.311,182.266z"/>
<path fill="#CBA34A" d="M97.592,170.025c-0.146,0.214-0.289,0.43,0,0.48c-0.65,0.636-1.176-0.894-1.92-0.96
	c0.127-0.193,0.25-0.391,0.24-0.722c-0.678-0.198-0.621,0.339-1.199,0.24c0-0.399,0-0.8,0-1.2c0.379-0.02,0.914,0.116,0.959-0.239
	c0.16,0,0.32,0,0.48,0c0.08,0,0.16,0,0.24,0C96.422,168.373,96.551,169.665,97.592,170.025z"/>
<path fill="#437356" d="M58.709,169.786c-0.396-0.259-0.396-2.142,0-2.399C58.709,168.186,58.709,168.985,58.709,169.786z"/>
<path fill="#CBA34A" d="M95.193,166.186c0.299-1.701,2.617-1.383,2.879-3.12c-0.879-0.562-2,1.521-3.119,0.72
	c-0.322-1.098,0.537-1.661,1.199-2.399c1.617-4.944,3.16-9.962,7.92-11.762C102.732,155.847,103.557,166.684,95.193,166.186z"/>
<path fill="#9E4A34" d="M103.113,162.346c0.127-0.586,0.248-1.163,0.719-1.92c0.279,0.2,0.645,0.315,1.201,0.239
	C104.465,161.298,104.08,162.112,103.113,162.346z"/>
<path fill="#9E4A34" d="M90.152,161.865c0.203-4.647,4.549-9.546,2.879-14.642c2.164-0.675,5.979,0.962,8.4,2.16
	c-3.43,3.051-5.246,7.715-6.961,12.48C93.031,162.69,91.785,162.053,90.152,161.865z"/>
<path fill="#323022" d="M70.711,157.546c0.016-0.646,0.547-1.154,0.959-0.722C71.744,157.458,71.17,157.443,70.711,157.546z"/>
<path fill="#323022" d="M72.871,157.064c-1.162-0.407,0.488-2.057,0.959-0.96C73.754,156.668,73.088,156.642,72.871,157.064z"/>
<path fill="#437356" d="M45.268,132.103c8.32,0,16.643,0,24.963,0c0.324,3.973,1.273,10.68-0.721,14.642
	c2.262-0.717,2.627-4.805,2.641-7.681c0.01-2.622-0.637-4.955-1.201-6.961c14.963,0,29.924,0,44.885,0
	c-0.527,6.604-2.67,12.081-5.521,17.762c2.709-1.142,3.307-4.738,4.32-7.921c0.814-2.559,2.797-5.688,1.92-9.841
	c1.199,0,2.4,0,3.6,0c-0.387,4.255-0.674,7.205-2.4,10.081c-0.797,1.33-2.123,2.282-2.641,3.6c-0.877,2.24-0.711,6.172-2.879,7.201
	c-2.602,1.234-4.953-1.502-7.201-2.16c0.121-1.231,1-1.61,0.959-2.399c-1.174-0.676-2.49,0.316-3.359,0.72
	c-2.676-1.805-5.328-3.634-10.082-3.36c-0.635-2.164-1.955-3.644-4.08-4.319c-0.822,1.84-0.703,3.574-1.92,5.28
	c-5.883-0.02-12.799,5.636-18.24,3.36c-1.449,0.34-2.891,0.86-4.32,0.96c-4.238,0.293-5.436-1.766-8.641-3.121
	c-1.895-0.8-3.99-0.933-5.281-2.398c-0.648-0.739-1.518-2.423-1.92-3.36c-1.271-2.963-1.871-6.709-2.4-9.603
	c-0.053-0.187-0.199-0.277-0.479-0.238C45.268,132.264,45.268,132.183,45.268,132.103z M97.354,135.464
	c-0.33,2.396-0.994,4.608-1.201,6.479c0.332-0.011,0.527,0.113,0.721,0.24C97.965,140.559,98.408,137.448,97.354,135.464z"/>
<path fill="#323022" d="M115.834,132.103c0.24,0,0.48,0,0.719,0c0.877,4.152-1.104,7.282-1.92,9.841
	c-1.014,3.183-1.609,6.779-4.318,7.921C113.164,144.184,115.307,138.706,115.834,132.103z"/>
<path fill="#323022" d="M70.23,132.103c0.238,0,0.479,0,0.719,0c0.564,2.006,1.211,4.339,1.201,6.961
	c-0.014,2.876-0.379,6.964-2.641,7.681C71.506,142.782,70.555,136.075,70.23,132.103z"/>
<path fill="#323022" d="M96.873,142.184c-0.193-0.127-0.391-0.251-0.721-0.24c0.209-1.871,0.871-4.085,1.201-6.479
	C98.408,137.448,97.965,140.559,96.873,142.184z"/>
<path fill="#437356" d="M64.709,212.749c-0.945-0.818-2.264-2.532-2.398-3.36C63.123,210.495,63.934,211.605,64.709,212.749z"/>
<path fill="#437356" d="M69.99,218.99c-0.906-0.615-1.588-1.452-2.16-2.4C68.738,217.201,69.236,218.224,69.99,218.99z"/>
<path fill="#9E4A34" d="M103.354,222.11c-0.041-0.682,0.811-0.469,0.479-1.44c0.193-0.206,0.658-0.143,0.721-0.48
	c0.08,0,0.16,0,0.24,0C104.277,220.795,104.197,221.834,103.354,222.11z"/>
<path fill="#9E4A34" d="M104.793,214.909c-2.006,1.312-1.834,3.315-4.08,4.319c1.578-1.24,2.654-4.2,4.08-4.8
	C104.793,214.59,104.793,214.749,104.793,214.909z"/>
<path fill="#437356" d="M104.072,206.269c-0.701-0.259,0.223-2.142-0.48-2.399c-0.006-0.233-0.293-0.187-0.479-0.24
	c0.547-0.949-0.346,0.061-0.961,0c0.336-0.383,0.828-0.613,1.439-0.72C104.107,203.675,104.121,204.939,104.072,206.269z"/>
<path fill="#323022" d="M120.875,132.103c0.328,3.606,0.031,6.692-1.68,10.081c-0.734,1.452-2.268,2.547-2.881,4.08
	c-0.539,1.348-0.494,2.777-0.959,4.08c-0.824,2.304-2.701,3.985-2.881,6.479c-2.434,2.849-6.549,4.014-8.881,6.961
	c-1.67-0.073-4.141,2.36-5.76,3.841c0.658,1.775,1.578,3.173,1.439,6.24c2.395,3.07,4.387,8.335,4.561,13.201
	c0.035,0.964,1.414,3.092,1.68,4.319c0.756,3.478-1.711,6.462-0.719,9.841c-0.145,0.541,1.66-0.688,1.439,0.48
	c-1.104,0.66-0.281,0.515,0.24,1.2c-0.025,0.995-1.508-0.422-1.68,0.72c1.215,2.412-0.486,3.651,0.719,6.001
	c-0.49,0.869-0.105,2.614-0.719,3.36c4.764,4.213-0.473,14.523-8.641,10.32c-0.414-0.397-2.467-0.397-2.881,0
	c-8.184,1.479-18.881,1.16-23.281-4.32c-0.754-0.767-1.252-1.788-2.16-2.4c-0.891-1.43-2.613-2.027-3.121-3.84
	c-0.775-1.145-1.586-2.254-2.398-3.36c-3.068-3.824-4.502-10.907-5.281-15.602c-0.154-0.966,0.313-2.552-0.24-3.12
	c-0.281-8.891,1.262-20.125,0.24-28.083c1.59-0.412,4.467-0.403,5.762,0.24c-0.162-1.041-1.451-1.558-2.16-2.16
	c-3.875-3.29-9.105-5.583-10.801-10.801c-0.371-1.141-0.119-2.591-0.48-3.601c-0.563-1.571-2-2.893-2.641-4.562
	c-1.283-3.354-1.998-6.3-1.92-9.601c0.16,0,0.32,0,0.48,0c0,0.08,0,0.16,0,0.24c0.277-0.039,0.426,0.053,0.479,0.238
	c0.529,2.894,1.129,6.64,2.4,9.603c0.4,0.938,1.27,2.621,1.92,3.359c1.289,1.468,3.387,1.601,5.281,2.399
	c3.203,1.355,4.4,3.414,8.641,3.121c1.43-0.1,2.869-0.62,4.32-0.96c5.441,2.273,12.357-3.38,18.24-3.36
	c1.217-1.706,1.098-3.44,1.92-5.281c2.123,0.678,3.443,2.156,4.08,4.32c4.754-0.272,7.406,1.557,10.08,3.36
	c0.871-0.402,2.186-1.396,3.361-0.72c0.041,0.788-0.84,1.168-0.961,2.399c2.25,0.658,4.6,3.396,7.201,2.16
	c2.168-1.029,2.002-4.961,2.881-7.201c0.516-1.316,1.842-2.27,2.641-3.6c1.727-2.876,2.014-5.826,2.4-10.081
	C120.395,132.103,120.635,132.103,120.875,132.103z M100.713,219.229c-0.688,1.807-3.338,1.449-3.602,2.881
	c2.326-0.034,4.143,1.017,6.242,0c0.844-0.276,0.924-1.315,1.439-1.921c0.336-0.877,0.578-1.771,0-2.399
	c0.721,0.242,0.424-0.535,0.48-0.96c0.031-0.591,0.037-1.156-0.24-1.44c0-0.24-0.195-0.286-0.24-0.479c0-0.16,0-0.32,0-0.48
	C103.367,215.029,102.291,217.989,100.713,219.229z M58.709,169.786c-0.484,10.479-1.557,20.572,0.721,29.042
	c0.383,1.423,0.311,2.896,0.721,4.081c2.346,6.763,7.842,11.253,11.76,16.801c5.654,3.432,13.799,3.146,21.123,2.4
	c-3.191-1.689-6.236-3.526-8.641-6c-8.152-11.019-11.441-33.351-2.16-45.364c1.309-1.693,3.242-2.585,4.08-4.561
	c-2.285-0.603-2.887,1.729-5.281,1.2c0.74-1.021,2.236-1.284,3.602-1.682c-4.502-4.329-3.9-14.214,0.721-17.521
	c-4.084,0.147-6.643,2.201-10.082,3.12c-2.813,0.752-7.152,0.187-9.602,0.721c-5.053,1.101-9.104-2.108-14.881-4.32
	c0.717,6.378,7.092,11.605,15.602,10.562c0.701-0.086,2.766-1.453,3.84-0.72c-2.582,1.537-6.211,1.617-9.602,1.68
	c3.289,3.825,9.184,3.828,14.643,2.399c-2.338,1.771-5.045,1.755-8.643,1.921c0.955,5.86,9.668,3.955,14.162,3.841
	c0,0.08,0,0.16,0,0.239c-4.002,0.938-8.469,1.769-12.48,1.199c-1.77-0.25-3.939-0.817-5.041-1.92c1.471-0.75,2.297,0.751,3.842,0
	c-1.367-3.223-6.088-3.437-8.643-3.12c0.201,1.578,0.129,1.934,0.24,3.602C58.313,167.645,58.313,169.527,58.709,169.786z
	 M103.592,203.868c-2.74,4.223-7.322,0.29-6.479-4.8c0.58-3.504,6.914-7.502,6.24-10.081c-3.102,0.5-6.127,1.072-8.881,1.92
	c-0.203,0.877,1.105,1.286,0,1.68c-1.014-0.08-1.25-1.204-0.961-1.92c2.576-2.344,5.93-1.839,9.361-2.88
	c-0.863-6.897-4.779-19.978-13.68-18.962c-1.426,0.163-2.793,2.429-4.563,1.682c1.328-0.993,2.197-2.444,4.32-2.642
	c0.18-0.737-0.658-0.461-0.48-1.2c-3.549,2.291-6.664,5.018-7.68,9.842c1.072,1.452,1.756,3.922,0.48,5.28
	c0.609,0.414,0.93-0.366,0.959,0.479c-0.244,1.116-1.457,1.264-1.439,2.642c0.793,0.485,1.883,0.677,1.92,1.92
	c-0.574,0.642-2.424,0.759-2.641,2.399c1.521-0.563,3.629-0.025,3.359,1.2c-1.568,0.19-2.043,1.477-3.119,2.16
	c-2.209,6.36-1.145,11.566,1.439,16.801c4.389,2.771,7.686,6.237,13.922,7.201c0.186,0.534,0.139,1.301,0.721,1.44
	c-0.037-0.597,0.123-0.996,0.479-1.2c4.777-0.53,7.973-3.957,7.201-7.44c-1.773,0.967-2.951,1.711-5.281,1.681
	c0.162-1.21-1.043-1.195-0.479-2.16c2.004-0.796,5.063-0.536,5.76-2.641c0.049-1.329,0.033-2.594-0.48-3.359
	c-0.613,0.106-1.104,0.336-1.439,0.72c-0.732,0.069-1.639-0.038-1.682,0.72c1.391,0.27,1.797-0.443,2.641-0.72
	C103.299,203.682,103.586,203.635,103.592,203.868z M102.393,202.188c0.578,0.099,0.521-0.438,1.199-0.239
	c0.5-3.461-1.166-4.754-4.08-4.802c-0.752,0.692-1.414,2.739-0.719,4.081c0.309-0.571,0.459-1.301,1.199-1.439
	C102.279,199.617,101.688,200.834,102.393,202.188z M103.592,197.147c0.99-2.478,1.207-4.454,0.48-6.479
	c-0.977,1.984-2.201,3.718-3.6,5.28C102.158,196.214,102.615,196.468,103.592,197.147z M94.713,169.065
	c0.578,0.099,0.521-0.438,1.199-0.24c0.012,0.331-0.113,0.527-0.24,0.722c0.744,0.066,1.27,1.596,1.92,0.96
	c-0.289-0.052-0.146-0.268,0-0.48c-0.543-0.583-0.662-2.849-1.439-2.399c-0.16,0-0.32,0-0.48,0
	c-0.209-0.361-0.357,0.065-0.959-0.239C94.646,167.993,93.68,168.746,94.713,169.065z M92.313,167.865
	c2.443-0.343,1.822-2.379,1.439-4.319c-1.186,0.457-1.695-0.116-2.881-0.24c-0.348,1.172-1.348,1.691-1.439,3.121
	c0.348,0.453,0.535,1.063,1.439,0.96c1.207-0.951,0.055-2.192,0.961-2.881c0.16,0,0.32,0,0.48,0
	C92.9,165.708,92.729,166.626,92.313,167.865z M104.072,149.624c-4.76,1.8-6.303,6.816-7.92,11.762
	c-0.662,0.738-1.521,1.303-1.199,2.399c1.119,0.803,2.24-1.28,3.119-0.72c-0.262,1.737-2.58,1.419-2.879,3.12
	C103.557,166.684,102.732,155.847,104.072,149.624z M85.832,162.346c-0.826-4.577,1.193-8.832,3.6-12.001
	c0.598,3.141-5.785,10.424-0.24,13.682c1.289-1.091-0.453-1.693-0.48-2.881c0.723-3.606,2.777-6.147,3.121-9.36
	c0.406-3.799-0.484-6.716-2.639-8.641c-0.221,1.54-1.061,2.462-1.201,4.08c-2.018,1.688-4.996,4.74-5.281,8.881
	c-0.273,3.998,1.648,9.314,5.041,8.881c-0.268-0.051-0.373-0.267-0.479-0.479C86.799,163.777,86.438,162.939,85.832,162.346z
	 M105.033,160.665c-0.557,0.076-0.922-0.039-1.201-0.239c-0.473,0.757-0.592,1.334-0.719,1.92
	C104.08,162.112,104.465,161.298,105.033,160.665z M94.471,161.865c1.715-4.767,3.531-9.431,6.961-12.48
	c-2.424-1.198-6.236-2.835-8.4-2.16c1.67,5.096-2.676,9.993-2.879,14.642C91.785,162.053,93.031,162.69,94.471,161.865z
	 M111.754,153.944c-1.574,0.754-4.68-0.777-6.961-1.92c-0.188,2.794-1.025,6.686-0.479,8.16
	C108.248,159.813,112.125,157.049,111.754,153.944z"/>
<path fill="#C9A763" d="M104.072,206.269c-0.695,2.104-3.756,1.845-5.76,2.641c-0.564,0.965,0.643,0.95,0.48,2.16
	c2.33,0.03,3.506-0.714,5.279-1.681c0.771,3.484-2.422,6.911-7.199,7.44c-0.355,0.204-0.516,0.604-0.48,1.2
	c-0.58-0.14-0.533-0.906-0.721-1.44c-6.236-0.964-9.533-4.431-13.92-7.201c-2.584-5.234-3.65-10.44-1.439-16.801
	c1.074-0.684,1.549-1.97,3.119-2.16c0.268-1.226-1.838-1.764-3.359-1.2c0.215-1.641,2.064-1.759,2.639-2.399
	c-0.037-1.243-1.125-1.435-1.92-1.92c-0.018-1.378,1.197-1.524,1.441-2.642c-0.029-0.846-0.35-0.064-0.961-0.479
	c1.275-1.358,0.594-3.828-0.48-5.28c1.018-4.824,4.131-7.551,7.682-9.842c-0.18,0.739,0.658,0.463,0.48,1.2
	c-2.125,0.196-2.994,1.647-4.32,2.642c1.77,0.747,3.135-1.519,4.561-1.682c8.902-1.016,12.816,12.063,13.682,18.962
	c-3.432,1.041-6.785,0.537-9.361,2.88c-0.291,0.717-0.055,1.84,0.959,1.92c1.107-0.395-0.203-0.803,0-1.68
	c2.754-0.849,5.781-1.421,8.883-1.92c0.672,2.579-5.66,6.577-6.242,10.081c-0.842,5.09,3.74,9.022,6.48,4.8
	C104.295,204.127,103.371,206.01,104.072,206.269z M92.791,211.309c0.33-1.03,1.832-0.889,2.16-1.92
	c-3.148-1.946-5.959-0.779-9.6-3.12C85.004,209.814,90.02,210.825,92.791,211.309z M89.912,195.948
	c-4.396-0.59-6.914,3.293-5.521,6.48c-0.719,0.322-1.617,0.462-1.68,1.44c0.891,0.17,1.029-0.41,1.92-0.24
	c-0.135,0.49-0.723,0.471-0.24,0.96c0.578,0.098,0.521-0.438,1.199-0.24c4.281,5.762,12.465-2.221,6.723-7.201
	c0-0.079,0-0.159,0-0.239C91.609,196.49,90.947,196.034,89.912,195.948z M98.553,184.427c0.668,1.102,2.73,1.247,3.359,0
	c-0.836-1.31-2.578-3.613-4.08-5.04c-4.828-0.375-6.807,3.646-7.439,6C93.426,183.456,96.488,186.672,98.553,184.427z"/>
<path fill="#323022" d="M69.51,210.349c-0.479-0.774,0.535-1.766,1.92-1.439c-1.074,1.122,0.063,1.195,0,2.16
	c-0.055,0.834-1.283,1.937-1.68,2.88c-0.268,0.635,0.502,1.52-0.721,1.439c-0.572-1.216,0.266-2.06,0.959-3.12
	C71.047,211.888,70.164,210.481,69.51,210.349z"/>
<path fill="#9E4A34" d="M69.99,212.269c-0.045-0.204,0.094-0.227,0.24-0.239c0.129-0.93-0.611-0.988-0.721-1.681
	C70.164,210.481,71.047,211.888,69.99,212.269z"/>
<path fill="#323022" d="M67.109,211.069c-2.896-0.986-0.447-2.612-1.199-4.32c-0.211-0.172-0.965-0.222-1.68-0.48
	c-0.486-0.774-1.207-2.564-0.24-3.359c-1.564-1.46-2.898-4.183-1.441-5.521c-1.318-0.821-1.668-3.004-0.959-4.561
	c-0.576-0.79-0.709,0.874-1.682,0.479c-0.23-1.715,1.799-2.188,2.641-1.439c1.184-1.11,1.605-1.532,1.441-3.84
	c-1.252,0.107-1.289,1.431-2.641,1.439c0.381-1.584,2.02-1.803,2.881-2.88c1.215-1.521,1.402-3.75,3.119-5.28
	c0.039-0.521-0.852-0.107-1.199-0.239c0.105-1.014,1.234-1.004,2.16-1.2c0.482-0.478,0.783-1.136,1.439-1.439
	c0-0.319,0-0.641,0-0.959c3.439-3.444,7.258-7.778,12-9.121c-0.973,1.254-2.457,2.3-3.84,3.359c-2.586,1.979-6.887,4.138-8.16,7.681
	c0.627,0.772,2.004-0.61,2.398,0.479c-0.439,1.216-1.537,0.356-3.119,0.961c-1.412,1.389-2.303,3.297-3.361,5.04
	c0.459,0.188,2.266-0.994,3.121-0.48c-0.158,1.683-2.506,1.176-3.6,1.921c-0.166,1.029-0.092,1.585-0.24,2.16
	c0.252,0.491,1.23-1.115,1.92-0.24c-0.09,0.95-0.756,1.324-1.68,1.44c0.107,1.539,1.568,2.846,0.959,4.32
	c-1.641-0.378-1.664-2.186-1.92-3.36c-2.201,0.942-2.441,3.85-0.48,5.041c-0.557,2.199-1.52,4.28,1.441,4.561
	c0.289,0.946-0.188,2.514-0.723,3.36c0.072,0.489,0.65,0.471,0.723,0.96c2.354-1.277,3.217,2.549,1.438,3.36
	C66.375,210.026,67.814,210.244,67.109,211.069z"/>
<path fill="#323022" d="M75.75,206.029c-0.035-1.221,2.273-1.763,2.643-0.48c-0.879,1.522-1.998,2.803-2.4,4.8
	c-1.359-0.493,0.076-2.458,0.479-3.359C76.23,206.67,76.244,206.096,75.75,206.029z"/>
<path fill="#323022" d="M75.27,200.748c1.625,0.262,0.773,1.671,2.16,1.92c0.133,0.532-0.459,0.342-0.479,0.72
	c-0.422-0.058-0.547-0.413-0.48-0.96c-1.771,0.788-2.197,2.921-3.359,4.32c-0.539-1.188,0.539-2.816,1.439-3.36
	C73.896,202.539,74.258,201.199,75.27,200.748z"/>
<path fill="#437356" d="M92.313,197.147c-0.619-0.581-1.74-0.66-2.4-1.199c1.035,0.086,1.697,0.542,2.4,0.96
	C92.313,196.988,92.313,197.068,92.313,197.147z"/>
<path fill="#CBA34A" d="M103.113,203.628c-0.844,0.276-1.252,0.989-2.641,0.72c0.041-0.758,0.949-0.65,1.68-0.72
	C102.768,203.688,103.66,202.679,103.113,203.628z"/>
<path fill="#437356" d="M76.469,177.468c-0.314,0.482-0.787,0.812-1.438,0.959c-0.045-0.203,0.094-0.227,0.238-0.239
	c0.229-0.155,0.096-1.09,0.721-1.44C75.701,177.407,75.732,178.018,76.469,177.468z"/>
<path fill="#9E4A34" d="M72.871,181.787c0.535,0.104,0.096,1.183,0.238,1.68c-0.643,0.157-0.912,0.688-1.439,0.96
	c0.311-0.411,0.496-0.942,1.201-0.96C72.871,182.907,72.871,182.346,72.871,181.787z"/>
<path fill="#437356" d="M102.393,202.188c-0.705-1.354-0.115-2.57-2.4-2.399C101.424,199.003,102.744,200.392,102.393,202.188z"/>
<path fill="#CBA34A" d="M100.473,195.948c1.398-1.563,2.623-3.296,3.6-5.28c0.727,2.025,0.51,4.002-0.48,6.479
	C102.615,196.468,102.158,196.214,100.473,195.948z"/>
<path fill="#323022" d="M90.393,185.387c0.633-2.354,2.611-6.375,7.439-6c1.502,1.427,3.244,3.73,4.08,5.04
	c-0.629,1.247-2.691,1.102-3.359,0C96.488,186.672,93.426,183.456,90.393,185.387z M93.031,183.947
	c1.518-0.139,3.131,0.293,3.6,0.479c0.93-0.032,0.947-0.974,1.682-1.2c0.766,0.436,0.945,1.455,2.398,1.2
	C99.525,182.207,94.822,182.354,93.031,183.947z M92.791,183.226c0.988-1.42,4.623-1.343,6-0.96
	C97.949,178.802,91.902,181.684,92.791,183.226z"/>
<path fill="#323022" d="M61.59,177.227c0.01-1.479-1.932-3.748,0.721-3.841c1.035,2.686,0.162,5.787-2.4,6.24
	C59.607,177.966,60.76,177.76,61.59,177.227z"/>
<path fill="#323022" d="M77.67,174.347c0.432,0.03,0.508-0.293,0.961-0.239C79.539,175.27,77.457,176.185,77.67,174.347z"/>
<path fill="#323022" d="M63.51,173.626c0.332-1.049,0.242-1.854-0.24-2.641c0.215-0.186,0.543-0.258,0.961-0.239
	C64.756,171.526,65.105,173.72,63.51,173.626z"/>
<path fill="#9E4A34" d="M70.469,171.706c-0.074,0.746-3.104,0.639-2.398,0C68.504,172.279,69.949,171.842,70.469,171.706z"/>
<path fill="#9E4A34" d="M97.592,170.025c-1.041-0.36-1.17-1.652-1.199-2.399c-0.08,0-0.16,0-0.24,0
	C96.93,167.178,97.049,169.442,97.592,170.025z"/>
<path fill="#9E4A34" d="M94.713,169.065c-1.031-0.319-0.066-1.072,0-1.68c0.602,0.306,0.75-0.122,0.959,0.239
	c-0.045,0.355-0.58,0.221-0.959,0.239C94.713,168.266,94.713,168.666,94.713,169.065z"/>
<path fill="#9E4A34" d="M87.271,164.506c-0.789-0.41-1.082-1.317-1.439-2.16C86.438,162.939,86.799,163.777,87.271,164.506z"/>
<path fill="#9E4A34" d="M104.313,160.185c-0.545-1.476,0.293-5.366,0.48-8.16c2.281,1.143,5.387,2.674,6.959,1.92
	C112.125,157.049,108.248,159.813,104.313,160.185z"/>
<path fill="#CBA34A" d="M103.354,222.11c-2.1,1.017-3.916-0.034-6.242,0c0.264-1.433,2.914-1.074,3.602-2.881
	c2.248-1.004,2.074-3.008,4.08-4.319c0.045,0.193,0.24,0.239,0.24,0.479c-0.367,0.004-0.527,1.779,0.24,1.44
	c-0.057,0.426,0.24,1.202-0.48,0.96c0.578,0.628,0.336,1.522,0,2.399c-0.08,0-0.16,0-0.24,0c-0.063,0.338-0.527,0.274-0.721,0.48
	C104.164,221.642,103.313,221.429,103.354,222.11z"/>
<path fill="#323022" d="M82.23,218.75c0.35-0.771,1.611-0.629,2.4-0.96c-0.039,0.279,0.053,0.427,0.24,0.479
	C84.531,218.921,82.934,219.217,82.23,218.75z"/>
<path fill="#323022" d="M73.35,215.869c-0.717-0.564-1.148-1.412-1.199-2.641c0.277-0.201,0.643-0.315,1.199-0.239
	c0.689,1.38,0.766,4.52,0.721,6.48C72.748,219.506,72.949,216.758,73.35,215.869z"/>
<path fill="#CBA34A" d="M81.031,167.387c2.393,0.529,2.996-1.803,5.281-1.2c-0.838,1.976-2.773,2.866-4.082,4.561
	c-9.279,12.014-5.992,34.346,2.16,45.364c2.406,2.475,5.449,4.311,8.641,6c-7.324,0.747-15.467,1.03-21.121-2.4
	c-3.918-5.547-9.416-10.038-11.762-16.801c-0.41-1.184-0.338-2.658-0.721-4.081c-2.277-8.47-1.205-18.563-0.721-29.042
	c0-0.801,0-1.601,0-2.399c-0.111-1.668-0.039-2.022-0.24-3.602c2.555-0.315,7.275-0.103,8.643,3.12c-1.545,0.751-2.371-0.75-3.842,0
	c1.102,1.103,3.271,1.67,5.041,1.92c4.012,0.568,8.479-0.263,12.48-1.198C80.996,167.671,81.018,167.532,81.031,167.387z
	 M84.152,221.39c-1.838-1.181-4.877-1.968-4.322-4.8c-3.141-2.218-4.916-5.805-7.68-8.401c-0.525,0.5,0.211,0.776-0.24,1.2
	c2.357,2.442,3.924,5.676,6.721,7.682c-0.588,0.771-1.379,1.342-1.199,2.88c0.428,0.213,0.609,0.67,1.439,0.479
	c0.752-0.452-0.58-1.248,0-1.439C80.328,219.786,82.508,223.111,84.152,221.39z M74.07,219.47c0.045-1.961-0.029-5.101-0.721-6.48
	c-0.557-0.076-0.922,0.039-1.199,0.239c0.051,1.229,0.482,2.076,1.199,2.641C72.949,216.758,72.748,219.506,74.07,219.47z
	 M84.871,218.27c-0.188-0.053-0.279-0.2-0.24-0.479c-0.791,0.331-2.053,0.188-2.4,0.96C82.934,219.217,84.531,218.921,84.871,218.27
	z M69.99,212.269c-0.693,1.061-1.533,1.904-0.961,3.12c1.225,0.08,0.453-0.805,0.721-1.439c0.396-0.944,1.625-2.046,1.68-2.88
	c0.064-0.965-1.074-1.039,0-2.16c-1.385-0.326-2.396,0.665-1.92,1.439c0.109,0.692,0.852,0.751,0.721,1.681
	C70.084,212.043,69.945,212.064,69.99,212.269z M76.951,212.509c1.727-0.768,2.49-2.074,2.4-3.6c-0.48,0-0.961,0-1.441,0
	C77.932,210.572,77.529,211.747,76.951,212.509z M66.629,208.909c1.777-0.813,0.914-4.638-1.438-3.36
	c-0.072-0.489-0.65-0.471-0.723-0.96c0.535-0.847,1.012-2.414,0.723-3.36c-2.961-0.28-1.998-2.361-1.441-4.561
	c-1.961-1.191-1.721-4.099,0.48-5.041c0.256,1.175,0.279,2.982,1.92,3.36c0.609-1.476-0.852-2.782-0.959-4.32
	c0.924-0.116,1.59-0.49,1.68-1.44c-0.688-0.875-1.668,0.73-1.92,0.24c0.148-0.574,0.074-1.13,0.24-2.16
	c1.094-0.745,3.439-0.238,3.6-1.921c-0.855-0.514-2.662,0.669-3.121,0.48c1.059-1.743,1.949-3.651,3.361-5.04
	c1.582-0.604,2.68,0.255,3.119-0.961c-0.395-1.091-1.771,0.293-2.398-0.479c1.273-3.543,5.574-5.7,8.16-7.681
	c1.383-1.061,2.867-2.105,3.84-3.359c-4.744,1.343-8.561,5.677-12,9.121c0,0.318,0,0.64,0,0.959
	c-0.656,0.305-0.957,0.963-1.439,1.439c-0.926,0.196-2.055,0.188-2.16,1.199c0.348,0.133,1.24-0.279,1.199,0.24
	c-1.717,1.53-1.904,3.759-3.119,5.28c-0.861,1.078-2.5,1.296-2.881,2.88c1.352-0.009,1.389-1.332,2.641-1.439
	c0.164,2.309-0.258,2.729-1.441,3.84c-0.842-0.748-2.871-0.275-2.641,1.439c0.973,0.395,1.105-1.27,1.682-0.479
	c-0.709,1.556-0.359,3.738,0.959,4.561c-1.457,1.339-0.121,4.061,1.441,5.521c-0.967,0.795-0.246,2.585,0.24,3.359
	c0.715,0.259,1.469,0.309,1.68,0.48c0.752,1.708-1.695,3.334,1.199,4.32C67.814,210.244,66.375,210.026,66.629,208.909z
	 M76.469,206.989c-0.4,0.901-1.838,2.866-0.479,3.359c0.402-1.997,1.521-3.277,2.4-4.8c-0.367-1.282-2.678-0.74-2.641,0.48
	C76.244,206.096,76.23,206.67,76.469,206.989z M74.551,203.388c-0.9,0.544-1.979,2.174-1.439,3.36
	c1.162-1.399,1.588-3.532,3.359-4.32c-0.066,0.547,0.059,0.902,0.48,0.96c0.02-0.378,0.611-0.188,0.479-0.72
	c-1.387-0.249-0.535-1.658-2.16-1.92C74.258,201.199,73.896,202.539,74.551,203.388z M67.83,204.828
	c0.016-2.354,1.625-3.052,0.959-5.041C67.873,201.007,65.324,205.151,67.83,204.828z M71.67,184.427
	c-1.166,2.192-0.016,3.124,0.961,4.801c-0.066,1.055-1.047,1.194-1.682,1.681c0.236,0.959,0.236,1.439,0,2.399
	c1.361,0.657,1.641,1.755,1.439,3.121c-1.025-0.065-1.223,0.696-1.68,1.2c0.732,1.268,2.133,1.869,2.4,3.601
	c-0.139,1.063-1.883,0.518-1.92,1.681c3.627,0.86,2.914-4.075,1.199-5.521c2.436-1.333,0.359-3.587-0.24-6
	c4.105-1.958-2.244-5.781,1.922-7.921c1.213,1.044-0.195,2.146-0.48,3.12c1.814,1.293-0.057,2.867,0,4.321
	c0.041,1.072,1.719,2.203,0.721,4.56c0.469,0.281,1.344,0.789,1.92,0.24c0.188-0.989-1.148-0.451-0.961-1.44
	c0.211-0.75,0.652-1.268,0.961-1.92c-0.236-0.804-1.039-1.042-1.199-1.92c1.813-0.808,0.549-3.132-0.24-4.081
	c0.604-0.596,1.576-0.822,1.439-2.16c-0.18-0.7-1.295-0.464-1.199-1.438c0.904-0.375,1.545-1.016,1.92-1.92
	c-0.844-0.178,0.111-1.198-0.48-1.921c0.4-0.959,1.734-0.983,1.439-2.64c-1.072-0.194-1.332,0.427-1.439,1.2
	c-0.738,0.551-0.77-0.061-0.479-0.722c0.32-0.604,1.105-1.598,0.719-2.159c-2.354,0.933-1.412,4.173-3.84,5.521
	c-0.131,0.958-0.131,0.723,0,1.681c0,0.56,0,1.12,0,1.68C72.166,183.483,71.979,184.015,71.67,184.427z M65.428,200.748
	c2.652-0.79,1.883-5,3.842-6.48c0.383,0.178-0.055,1.176,0.721,0.96c0.834-0.328,0.426-0.987,0.721-1.439
	c-0.574-0.386-1.131-0.79-2.16-0.72C68.051,195.653,65.543,198.461,65.428,200.748z M75.031,198.348c0.318,0,0.639,0,0.959,0
	C76.301,197.117,74.816,197.23,75.031,198.348z M61.35,183.226c-0.238,0.771-0.898,2.787,0.479,3.12
	c0.361-3.031,1.668-5.41,3.121-7.92C63.488,179.17,61.873,181.53,61.35,183.226z M59.908,179.627c2.563-0.453,3.438-3.556,2.4-6.24
	c-2.65,0.093-0.711,2.361-0.721,3.841C60.76,177.76,59.607,177.966,59.908,179.627z M67.35,175.547
	c-0.521,0.603-1.789,2.483-1.199,3.359c0.717-1.096,1.434-2.22,2.398-3.12c2.693-2.513,6.996-3.651,8.643-6.239
	C73.967,171.14,69.625,172.918,67.35,175.547z M78.631,174.106c-0.453-0.054-0.529,0.271-0.961,0.239
	C77.457,176.185,79.539,175.27,78.631,174.106z M64.23,170.746c-0.42-0.019-0.748,0.055-0.961,0.239
	c0.48,0.786,0.572,1.592,0.238,2.641C65.105,173.72,64.756,171.526,64.23,170.746z M79.352,172.427
	c0.805,0.104,1.416-0.507,0.959-0.96C79.559,171.354,79.24,171.676,79.352,172.427z M68.07,171.706
	c-0.703,0.639,2.324,0.746,2.398,0c1.305-0.376,2.939-0.423,3.121-1.92C72.436,170.153,69.898,171.212,68.07,171.706z
	 M63.029,166.905c-0.178-0.941-1.098-1.144-2.16-1.2c0.041,0.359-0.086,0.887,0.24,0.96c0.059-0.091,1.193-0.634,0.961,0.48
	C62.523,167.199,62.6,166.875,63.029,166.905z"/>
<path fill="#323022" d="M77.91,208.909c0.48,0,0.961,0,1.441,0c0.09,1.525-0.674,2.832-2.4,3.6
	C77.529,211.747,77.932,210.572,77.91,208.909z"/>
<path fill="#CBA34A" d="M92.791,203.868c-0.676,1.89-4.229,1.688-5.52,0.479C88.518,204.191,90.527,204.391,92.791,203.868z"/>
<path fill="#323022" d="M76.469,177.468c0.107-0.773,0.367-1.396,1.441-1.2c0.295,1.655-1.039,1.681-1.441,2.64
	c0.594,0.723-0.361,1.743,0.48,1.921c-0.375,0.903-1.016,1.545-1.92,1.92c-0.096,0.976,1.021,0.738,1.201,1.438
	c0.135,1.338-0.838,1.564-1.441,2.16c0.789,0.949,2.055,3.273,0.24,4.081c0.162,0.878,0.965,1.116,1.201,1.92
	c-0.309,0.652-0.75,1.17-0.961,1.92c-0.189,0.989,1.148,0.451,0.961,1.44c-0.578,0.548-1.453,0.041-1.922-0.24
	c0.998-2.356-0.68-3.487-0.721-4.56c-0.055-1.454,1.814-3.027,0-4.321c0.285-0.976,1.695-2.076,0.48-3.12
	c-4.166,2.139,2.186,5.963-1.92,7.921c0.6,2.414,2.676,4.667,0.238,6c1.717,1.445,2.43,6.382-1.199,5.521
	c0.037-1.163,1.783-0.617,1.92-1.681c-0.268-1.731-1.666-2.333-2.398-3.601c0.455-0.503,0.652-1.266,1.68-1.2
	c0.199-1.365-0.078-2.463-1.439-3.121c0.236-0.959,0.236-1.439,0-2.399c0.633-0.486,1.613-0.626,1.68-1.681
	c-0.977-1.677-2.125-2.607-0.959-4.801c0.527-0.271,0.797-0.803,1.439-0.96c-0.145-0.497,0.297-1.576-0.24-1.68
	c-0.131-0.958-0.131-0.724,0-1.682c2.428-1.347,1.486-4.587,3.84-5.521c0.387,0.563-0.398,1.557-0.719,2.16
	c-0.625,0.352-0.492,1.285-0.721,1.44c-0.146,0.014-0.283,0.036-0.24,0.239C75.682,178.278,76.154,177.95,76.469,177.468z
	 M75.27,181.547c0.018-0.816,0.074-1.675-0.479-1.92c-0.752,0.192-1.551,2.13-0.48,2.64C74.52,181.915,74.67,181.506,75.27,181.547z
	"/>
<path fill="#CECEC6" d="M91.111,202.668c0.377-4.286-4.271-2.896-4.32,0c-4.016-1.237-0.191-7.473,4.32-5.28
	c1.146,1.227,2.213,3.085,1.92,5.041C92.26,202.376,92.018,202.853,91.111,202.668z"/>
<path fill="#323022" d="M68.551,193.068c1.029-0.07,1.586,0.334,2.16,0.72c-0.295,0.452,0.113,1.111-0.721,1.439
	c-0.775,0.216-0.338-0.782-0.721-0.96c-1.959,1.48-1.189,5.691-3.842,6.48C65.543,198.461,68.051,195.653,68.551,193.068z"/>
<path fill="#323022" d="M75.99,198.348c-0.32,0-0.641,0-0.959,0C74.816,197.23,76.301,197.117,75.99,198.348z"/>
<path fill="#323022" d="M64.949,178.427c-1.451,2.51-2.758,4.89-3.119,7.92c-1.379-0.333-0.719-2.351-0.48-3.12
	C61.873,181.53,63.488,179.17,64.949,178.427z"/>
<path fill="#323022" d="M77.191,169.547c-1.646,2.588-5.947,3.728-8.643,6.239c-0.965,0.9-1.682,2.024-2.398,3.12
	c-0.59-0.876,0.678-2.758,1.199-3.359C69.625,172.918,73.967,171.14,77.191,169.547z"/>
<path fill="#323022" d="M80.311,171.467c0.457,0.453-0.154,1.063-0.959,0.96C79.24,171.676,79.559,171.354,80.311,171.467z"/>
<path fill="#323022" d="M68.07,171.706c1.828-0.494,4.365-1.553,5.52-1.92c-0.182,1.497-1.814,1.544-3.119,1.92
	C69.949,171.842,68.504,172.279,68.07,171.706z"/>
<path fill="#9E4A34" d="M80.791,167.626c0-0.079,0-0.159,0-0.239c-4.494,0.114-13.207,2.021-14.162-3.841
	c3.598-0.166,6.305-0.148,8.643-1.921c-5.459,1.429-11.354,1.426-14.643-2.399c3.391-0.063,7.02-0.143,9.602-1.68
	c-1.074-0.733-3.139,0.634-3.84,0.72c-8.51,1.045-14.885-4.184-15.602-10.562c5.775,2.212,9.828,5.421,14.881,4.32
	c2.449-0.534,6.789,0.031,9.602-0.721c3.438-0.919,5.996-2.973,10.082-3.12c-4.623,3.308-5.223,13.191-0.721,17.521
	c-1.363,0.396-2.861,0.66-3.602,1.682C81.018,167.532,80.996,167.671,80.791,167.626z M71.67,156.824
	c-0.412-0.434-0.943,0.074-0.959,0.722C71.17,157.443,71.744,157.458,71.67,156.824z M73.83,156.104
	c-0.471-1.097-2.121,0.553-0.959,0.96C73.088,156.642,73.754,156.668,73.83,156.104z"/>
<path fill="#CBA34A" d="M92.313,164.506c-0.16,0-0.32,0-0.48,0c-0.906,0.688,0.246,1.93-0.961,2.881
	c-0.904,0.104-1.092-0.507-1.439-0.96c0.092-1.43,1.092-1.949,1.439-3.121c1.186,0.124,1.695,0.696,2.881,0.24
	c0.383,1.94,1.004,3.978-1.439,4.319C92.729,166.626,92.9,165.708,92.313,164.506z"/>
<path fill="#323022" d="M78.871,218.99c-0.58,0.192,0.752,0.987,0,1.439c-0.83,0.19-1.014-0.267-1.439-0.479
	c-0.18-1.539,0.611-2.108,1.199-2.88c-2.797-2.004-4.361-5.238-6.721-7.682c0.451-0.424-0.285-0.701,0.24-1.2
	c2.764,2.597,4.539,6.184,7.68,8.401c-0.557,2.833,2.482,3.619,4.322,4.8C82.508,223.111,80.328,219.786,78.871,218.99z"/>
<path fill="#323022" d="M85.352,206.269c3.643,2.341,6.451,1.174,9.602,3.12c-0.33,1.031-1.832,0.89-2.16,1.92
	C90.02,210.825,85.004,209.814,85.352,206.269z"/>
<path fill="#323022" d="M92.313,197.147c5.744,4.979-2.441,12.963-6.723,7.201c-0.678-0.197-0.621,0.338-1.199,0.24
	c-0.482-0.49,0.105-0.471,0.24-0.96c-0.891-0.17-1.029,0.41-1.92,0.24c0.063-0.979,0.961-1.118,1.68-1.44
	c-1.393-3.188,1.125-7.07,5.521-6.48C90.572,196.487,91.693,196.566,92.313,197.147z M87.271,204.348
	c1.293,1.208,4.844,1.41,5.521-0.479C90.527,204.391,88.518,204.191,87.271,204.348z M93.031,202.429
	c0.293-1.956-0.773-3.814-1.92-5.041c-4.514-2.192-8.336,4.043-4.32,5.28c0.049-2.896,4.697-4.286,4.32,0
	C92.018,202.853,92.26,202.376,93.031,202.429z"/>
<path fill="#323022" d="M68.789,199.788c0.666,1.989-0.943,2.688-0.959,5.041C65.324,205.151,67.873,201.007,68.789,199.788z"/>
<path fill="#323022" d="M62.07,167.146c0.232-1.114-0.902-0.571-0.961-0.48c-0.326-0.073-0.199-0.601-0.24-0.96
	c1.064,0.058,1.982,0.259,2.16,1.2C62.6,166.875,62.523,167.199,62.07,167.146z"/>
<path fill="#CBA34A" d="M87.271,164.506c0.105,0.214,0.211,0.43,0.48,0.479c-3.395,0.435-5.316-4.883-5.041-8.881
	c0.285-4.141,3.264-7.192,5.281-8.881c0.141-1.618,0.979-2.54,1.199-4.08c2.156,1.925,3.047,4.842,2.641,8.641
	c-0.344,3.213-2.4,5.754-3.121,9.36c0.027,1.188,1.77,1.79,0.48,2.881c-5.545-3.258,0.836-10.541,0.238-13.682
	c-2.404,3.169-4.426,7.424-3.6,12.001C86.189,163.188,86.482,164.096,87.271,164.506z"/>
<path fill="#437356" d="M57.029,193.787c-0.553-0.568-0.086-2.154-0.24-3.12C57.342,191.235,56.875,192.822,57.029,193.787z"/>
<path fill="#CECEC6" d="M99.992,199.788c-0.74,0.14-0.893,0.868-1.199,1.439c-0.695-1.342-0.033-3.389,0.719-4.081
	c2.914,0.047,4.582,1.341,4.08,4.802c-0.678-0.199-0.621,0.338-1.199,0.239C102.744,200.392,101.424,199.003,99.992,199.788z"/>
</svg>
