<?xml version="1.0" encoding="utf-8"?>
<!-- Generator: Adobe Illustrator 15.1.0, SVG Export Plug-In  -->
<!DOCTYPE svg PUBLIC "-//W3C//DTD SVG 1.1//EN" "http://www.w3.org/Graphics/SVG/1.1/DTD/svg11.dtd" [
	<!ENTITY ns_flows "http://ns.adobe.com/Flows/1.0/">
]>
<svg version="1.1"
	 xmlns="http://www.w3.org/2000/svg" xmlns:xlink="http://www.w3.org/1999/xlink" xmlns:a="http://ns.adobe.com/AdobeSVGViewerExtensions/3.0/"
	 x="0px" y="0px" width="167px" height="258px" viewBox="0.002 0.003 167 258" enable-background="new 0.002 0.003 167 258"
	 xml:space="preserve">
<defs>
	<symbol  id="Rand" viewBox="5.377 -252.996 156.49 248.039">
		<g id="weiß_2_">
		</g>
		<path fill="#FFFFFF" d="M159.867-242.076c0,4.92-4,8.92-8.92,8.92c-4.921,0-8.921-4-8.921-8.92s4-8.92,8.921-8.92
			C155.867-250.996,159.867-246.996,159.867-242.076z M159.867-15.887c0,4.92-4,8.93-8.92,8.93c-4.921,0-8.921-4.01-8.921-8.93
			c0-4.91,4-8.92,8.921-8.92C155.867-24.807,159.867-20.797,159.867-15.887z M19.387-4.957h123.9h4.569h3.091
			c6.02,0,10.92-4.9,10.92-10.93v-9.52v-208.09v-8.58c0-6.021-4.9-10.92-10.92-10.92h-9.471c-37.63,0-75.85,0-125.17,0
			c-6.029,0-10.92,4.898-10.92,10.92c-0.01,72.18-0.01,141.83-0.01,211.35v14.84c0,6.029,4.9,10.93,10.92,10.93H19.387z
			 M25.227-15.887c0,4.92-4.01,8.93-8.93,8.93c-4.91,0-8.92-4.01-8.92-8.93c0-4.91,4.01-8.92,8.92-8.92
			C21.217-24.807,25.227-20.797,25.227-15.887z M16.307-250.996c4.92,0,8.92,4,8.92,8.92s-4,8.92-8.92,8.92s-8.92-4-8.92-8.92
			S11.387-250.996,16.307-250.996z M27.227-15.887c0-6.02-4.9-10.92-10.93-10.92c-3.68,0-6.939,1.83-8.92,4.629
			c0-71.199,0-142.398,0-213.609c1.98,2.801,5.24,4.631,8.93,4.631c6.02,0,10.92-4.9,10.92-10.92c0-3.682-1.83-6.941-4.63-8.92
			c40.69,0,81.37,0,122.061,0c-2.801,1.979-4.631,5.238-4.631,8.92c0,6.02,4.9,10.92,10.921,10.92c3.68,0,6.939-1.83,8.92-4.621
			c0,71.201,0,142.4,0,213.6c-1.98-2.799-5.24-4.629-8.92-4.629c-6.021,0-10.921,4.9-10.921,10.92c0,3.689,1.83,6.949,4.631,8.93
			c-40.69,0-81.38,0-122.061,0C25.396-8.938,27.227-12.197,27.227-15.887z"/>
	</symbol>
	<symbol  id="TR" viewBox="-42.519 -42.518 85.037 85.036">
		<path fill="#E30A17" d="M0-42.518c23.481,0,42.519,19.035,42.519,42.519c0,23.457-18.996,42.476-42.441,42.518h-0.154
			c-23.435-0.042-42.42-19.04-42.441-42.479v-0.077C-42.498-23.504-23.471-42.518,0-42.518z"/>
		<g>
			<path fill="#FFFFFF" d="M-7.397,21.258c11.741,0,21.259-9.52,21.259-21.26c0-11.743-9.518-21.259-21.259-21.259
				c-11.742,0-21.261,9.516-21.261,21.259C-28.658,11.739-19.14,21.258-7.397,21.258z"/>
			<path fill="#E30A17" d="M-2.083,17.005c9.393,0,17.008-7.613,17.008-17.007S7.31-17.009-2.083-17.009S-19.091-9.395-19.091-0.001
				S-11.476,17.005-2.083,17.005z"/>
			<polygon fill="#FFFFFF" points="9.433,-0.001 28.662,-6.249 16.778,10.107 16.778,-10.113 28.662,6.246 			"/>
		</g>
	</symbol>
</defs>
<g>
	<path fill="#ADBBC6" d="M167.244,240.945c0,9.354-7.653,17.008-17.008,17.008H17.008C7.653,257.953,0,250.3,0,240.945V17.008
		C0,7.653,7.653,0,17.008,0h133.229c9.354,0,17.008,7.653,17.008,17.008V240.945z"/>
</g>
<use xlink:href="#TR"  width="85.037" height="85.036" x="-42.519" y="-42.518" transform="matrix(0.2333 0 0 -0.2333 150.8008 242.0752)" overflow="visible"/>
<use xlink:href="#TR"  width="85.037" height="85.036" x="-42.519" y="-42.518" transform="matrix(0.2333 0 0 -0.2333 150.7998 15.8809)" overflow="visible"/>
<use xlink:href="#TR"  width="85.037" height="85.036" x="-42.519" y="-42.518" transform="matrix(0.2333 0 0 -0.2333 16.2979 242.0752)" overflow="visible"/>
<use xlink:href="#TR"  width="85.037" height="85.036" x="-42.519" y="-42.518" transform="matrix(0.2333 0 0 -0.2333 16.2979 15.8809)" overflow="visible"/>
<path fill="#2F2F27" d="M79.833,25.094c5.546,1.931,10.986,3.093,16.32,2.88C92.007,29.315,83.017,28.334,79.833,25.094z"/>
<path fill="#C9A763" d="M114.876,49.815c0,0.32,0,0.641,0,0.961c-0.874-0.074-1.563,0.037-2.16,0.24
	c0.605,1.043,1.898,0.457,2.881,0.719c-0.63,0.527,0.744,0.797,0,1.44c-1.066-0.134-1.77-0.632-2.641-0.96
	c-0.123,1.403,1.154,1.404,2.16,1.68c0.162,1.203-0.642,1.439-1.2,1.92c-1.237,0.037-1.517-1.893-2.641-1.199
	c0.5,0.779,1.44,1.119,1.681,2.16c-1.073,0.193-1.333-0.428-1.44-1.201c-0.754-0.398-0.979,0.894-1.2,0.24
	c0.59-1.729,1.883-2.758,1.682-5.279C112.833,50.172,113.391,49.53,114.876,49.815z"/>
<path fill="#C9A763" d="M110.796,50.776c0.105,0.772,0.46,1.299,0.48,2.16c-0.957-0.781-0.486,1.469-1.682,1.199
	c-0.258-1.182-1.486-1.395-1.2-3.119C109.355,51.096,109.728,50.588,110.796,50.776z"/>
<path fill="#C9A763" d="M66.151,63.257c-0.197-0.679,0.338-0.622,0.24-1.199c0.801,0.256,0.016,0.728,0.48,1.439
	C66.526,62.966,66.286,63.799,66.151,63.257z"/>
<path fill="#C9A763" d="M69.753,82.219c0.643-0.146,2.23,0.363,2.88-0.479c0.579-0.098,0.522,0.438,1.2,0.24
	c-1.201,1.13-2.736,0.453-4.801,0.721C69.131,82.398,69.342,82.208,69.753,82.219z"/>
<path fill="#4B5A7E" d="M75.993,98.062c0.398,0.887,0.398,3.433,0,4.319C75.993,100.941,75.993,99.5,75.993,98.062z"/>
<path fill="#4B5A7E" d="M112.716,126.144c-5.761,0-11.521,0-17.281,0c0.73-4.472,2.965-7.437,5.521-10.081
	c-1.184-0.584-2.51,0.921-3.12,1.681c-1.86,2.309-2.999,5.087-3.601,8.4c-14.002,0-28.003,0-42.004,0
	c0.667-3.847,1.366-6.271,3.12-9.121c3.159-2.829,8.275-4.199,11.761-6c7.929,7.456,20.095,5.242,27.604-2.16
	C102.005,113.332,110.362,116.735,112.716,126.144z M61.112,124.224c0.366-3.442,0.947-5.196,2.399-7.44
	C60.9,117.232,59.301,121.893,61.112,124.224z"/>
<path fill="#2F2F27" d="M95.435,126.144c-0.4,0-0.8,0-1.199,0c0.602-3.313,1.739-6.093,3.601-8.4c0.61-0.76,1.938-2.265,3.12-1.681
	C98.399,118.707,96.165,121.672,95.435,126.144z"/>
<path fill="#2F2F27" d="M63.512,116.782c-1.452,2.244-2.034,3.998-2.399,7.44C59.301,121.893,60.9,117.232,63.512,116.782z"/>
<path fill="#4B5A7E" d="M101.196,63.257c-0.685,1.129-0.231,1.68,0.479,2.4c-0.559-0.163-0.643-0.797-1.2-0.961
	C100.887,64.39,100.479,63.262,101.196,63.257z"/>
<path fill="#4B5A7E" d="M105.275,43.815c0.507,1.488,0.21,2.785,0.48,3.601C105.134,46.972,105.321,44.883,105.275,43.815z"/>
<path fill="#4B5A7E" d="M105.756,37.575c0.679,0.841,0.438,2.603,0.479,4.08C105.739,40.633,106.141,38.71,105.756,37.575z"/>
<path fill="#4B5A7E" d="M104.315,30.854c0.557,0.805,0.695,2.025,0.96,3.121C104.753,33.291,104.312,31.267,104.315,30.854z"/>
<path fill="#4B5A7E" d="M70.472,36.135c0.58-0.62,0.407-1.993,1.2-2.399C71.196,34.458,71.311,35.772,70.472,36.135z"/>
<path fill="#CCCCC7" d="M66.151,82.219c0.24,0,0.48,0,0.721,0c-0.133,0.859-0.537,2.35,0,3.12
	C65.786,85.146,66.807,82.845,66.151,82.219z"/>
<path fill="#4B5A7E" d="M81.032,77.899c1.387-0.665,0.035-1.313,1.2-1.92c-0.105,0.213-0.211,0.429-0.479,0.479
	c0.006,0.233,0.293,0.188,0.479,0.24C82.251,77.517,81.528,77.593,81.032,77.899z"/>
<path fill="#C9A763" d="M82.233,75.979c0.563-0.063,0.139-1.056,0-1.2c-2.555,0.847-4.018,1.068-6.721,0.479
	c-0.953-0.877-0.396-3.056-2.4-3.36c-0.3,0.631,1.139,1.576,0.721,3.122c-0.803,1.68-2.258,0.836-3.84,1.198
	c-3.313,0.762-6.698,4.551-10.321,2.4c0.862-6.578,5.08-9.801,10.561-11.762c2.943-3.24,1.77-8.268-3.601-6
	c0.232-2.511,3.574-1.879,4.561-1.92c0.668,0.108-0.188-1.308,0.48-1.199c-0.979-1.239-2.396-1.375-3.84-0.721
	c-0.747-0.576-0.375-2.332-0.48-4.08c1.594-1.063,3.662-2.193,5.521-2.16c-0.238,0.723-0.85,1.07-0.721,2.16
	c2.623-0.904,4.959-2.918,8.401-2.641c2.244,0.182,4.199,1.482,6.241,1.2c1.792,2.053,1.318,6.297,0.72,8.401
	c0.828,0.707,1.122-0.656,1.92-0.721c-0.014,1.001-0.558,1.504-0.479,3.12c1.118,0.159,1.063-0.856,1.92-0.96
	c0.112,2.672-0.946,4.174-1.2,6.48c2.957,1.121,4.746-3.109,8.641-2.641c1.816,0.219,3.394,1.639,3.602,4.081
	c0.435,5.104-5.665,12.358-11.762,7.921c-0.285,0.87,0.317,1.142,0.961,1.921c-1.401,0.686-0.106,1.87-1.44,2.399
	c0.743,3.941-2.06,7.893-2.88,12.001c-0.484,2.42-0.232,5.087-0.48,7.682c-2.516,1.869-5.656,3.404-10.32,2.64
	c0.269-0.756,0.021-0.543,0-1.439c0.398-0.888,0.398-3.434,0-4.319c0.127-0.193,0.25-0.391,0.24-0.722
	c3.94-1.259,5.65-4.749,7.92-7.681c-2.42,0.442-4.789,6.254-8.4,6.961c-6.193,1.212-6.163-5.114-5.281-10.081
	c0.613-0.105,1.104-0.337,1.44-0.72c-1.581-0.579-4.248-0.072-4.32-2.16c5.765,0.955,13.298-1.413,15.841-6.48
	c-1.747,1.214-3.063,2.856-5.281,3.601c-0.151-1.434,1.565-0.995,2.4-1.439c0.038-1.02-0.465-1.209,0.48-1.439
	c0.494-0.307,1.217-0.383,1.199-1.2c-0.187-0.054-0.474-0.007-0.479-0.24C82.022,76.407,82.127,76.191,82.233,75.979z
	 M72.393,57.257c0,0.641,0,1.28,0,1.92c4.07,0.064,7.238,1.874,10.562,2.641C80.999,58.629,76.842,55.849,72.393,57.257z
	 M80.313,69.978c2.445-1.328,2.624-4.41,1.92-6.72c-3.547-1.267-5.969-2.909-9.601-2.642C72.399,65.61,74.521,70.22,80.313,69.978z
	 M92.555,71.178c1.461-0.378,1.719-1.961,3.36-2.159c0.525,1.358,0.224,2.219,0.238,3.84c1.711-0.293,1.516-3.355,0.961-4.561
	c0.571-0.468,2.227,0.146,2.399-0.72C96.454,66.274,93.276,68.585,92.555,71.178z M72.153,86.061
	c0.627,0.066,1.032-0.088,0.959-0.722C72.485,85.272,72.08,85.427,72.153,86.061z"/>
<path fill="#2F2F27" d="M72.633,60.616c3.632-0.27,6.054,1.375,9.601,2.642c0.703,2.31,0.525,5.392-1.92,6.72
	C74.521,70.22,72.399,65.61,72.633,60.616z M73.593,62.537c-0.104,1.053,0.734,0.788,0.24,1.68c1.053,2.879,2.708,5.283,6.24,5.041
	c1.717-0.952,1.608-3.888,1.2-5.521c-0.325-0.076-0.458-0.342-0.96-0.24c-0.207-0.674-1.25-0.51-1.68-0.96
	c-0.245,0.315-0.235,0.885-0.48,1.2c-0.201,1.601-2.824,1.363-3.6,0.479c-0.191-0.448-0.4-0.879-0.48-1.44
	c-0.043-0.781,0.564-1.154-0.479-1.199C73.593,61.897,73.593,62.217,73.593,62.537z"/>
<path fill="#4B5A7E" d="M78.153,63.737c0.244-0.315,0.234-0.885,0.479-1.2c0.43,0.45,1.473,0.286,1.68,0.96
	c-0.387-0.333-1.237-0.203-1.439-0.721c-0.444,0.037-0.147,0.813-0.48,0.961C78.313,63.737,78.232,63.737,78.153,63.737z"/>
<path fill="#CCCCC7" d="M73.593,62.537c0-0.32,0-0.64,0-0.96c1.044,0.045,0.438,0.417,0.48,1.199
	C73.832,62.778,73.787,62.583,73.593,62.537z"/>
<path fill="#4B5A7E" d="M68.552,66.616c0.53-0.829,1.628-1.09,1.92-2.159C70.452,65.797,69.273,65.979,68.552,66.616z"/>
<path fill="#C9A763" d="M73.833,64.217c0.496-0.892-0.344-0.627-0.24-1.68c0.194,0.045,0.239,0.241,0.48,0.239
	c0.078,0.562,0.289,0.992,0.479,1.44C74.313,64.217,74.073,64.217,73.833,64.217z"/>
<path fill="#4B5A7E" d="M69.032,82.699c-0.205-0.045-0.228,0.093-0.24,0.239c-0.225-0.256-0.885-0.074-0.721-0.721
	c0.791,0.709,1.199-0.601,1.681,0C69.342,82.208,69.131,82.398,69.032,82.699z"/>
<path fill="#C9A763" d="M74.553,81.259c0.204-0.044,0.228,0.095,0.24,0.24c1.042,0.051,1.528-1.355,2.64-0.479
	c-0.834,0.605-1.951,0.93-3.121,1.199C74.282,81.788,74.606,81.713,74.553,81.259z"/>
<path fill="#C9A763" d="M89.434,104.301c1.741-0.059,3.46,1.979,4.802,3.12c-3.58,3.853-10.162,7.898-17.281,6.961
	c-3.608-0.476-7.064-1.989-9.361-4.561c1.303-1.844,2.665-2.25,4.8-3.36c-0.588,1.649-0.855,3.852,0.48,4.562
	c1.378,0.018,1.523-1.196,2.64-1.44c0.355,1.084,0.717,2.164,1.68,2.642c1.352-0.33,2.139-1.224,2.641-2.4
	c1.122,0.559,1.621,1.739,2.88,2.16c1.6-0.198,1.666-1.964,1.44-3.36c0.764,0.438,0.957,1.443,1.92,1.68
	c1.133-0.228,1.904-0.814,1.681-2.398C90.31,109.191,90.155,104.912,89.434,104.301z"/>
<path fill="#2F2F27" d="M82.954,61.817c-3.323-0.768-6.491-2.576-10.562-2.641c0-0.64,0-1.279,0-1.92
	C76.842,55.849,80.999,58.629,82.954,61.817z"/>
<path fill="#2F2F27" d="M73.112,85.339c0.072,0.634-0.332,0.788-0.959,0.722C72.08,85.427,72.485,85.272,73.112,85.339z"/>
<path fill="#CCCCC7" d="M66.872,63.497c0.49,0.39,0.98,0.779,1.68,0.96c1.232-0.207,1.338-1.542,2.4-1.92
	c-0.252,0.549-0.152,1.448-0.48,1.92c-0.292,1.069-1.39,1.33-1.92,2.159c-0.818,0.143-1.261,0.66-2.16,0.721
	c-0.5-0.541-0.734-2.793-0.24-4.08C66.286,63.799,66.526,62.966,66.872,63.497z"/>
<path fill="#CCCCC7" d="M78.153,63.737c0.079,0,0.159,0,0.239,0c0.333-0.147,0.036-0.924,0.48-0.961
	c0.202,0.519,1.053,0.389,1.439,0.721c0.502-0.102,0.636,0.165,0.96,0.24c0.408,1.632,0.517,4.566-1.199,5.521
	c-3.532,0.243-5.188-2.162-6.241-5.041c0.239,0,0.479,0,0.72,0C75.327,65.101,77.95,65.338,78.153,63.737z"/>
<path fill="#2F2F27" d="M71.673,33.733c0.598-2.131,1.5-3.891,2.4-5.76c0.78-1.621,1.436-4.303,3.119-5.521
	c3.43-2.478,9.613-0.337,14.162,0.239c2.043,0.26,4.962,0.17,6.48,0.721c3.344,1.212,5.536,4.986,6.479,7.441
	c-0.004,0.412,0.438,2.436,0.96,3.119c-0.025,1.299,1.047,2.533,0.48,3.6c0.385,1.136-0.018,3.059,0.479,4.082
	c0.2,2.843-0.194,5.711,1.2,8.641c2.998,0.354,4.773-2.126,7.2-1.68c1.423,0.262,2.204,2.625,2.16,4.561
	c-0.066,2.973-3.372,5.366-6.24,4.801c-1.63-3.246-4.121-5.814-4.8-10.562c-0.271-0.815,0.026-2.112-0.48-3.601
	c-0.339-8.359-0.657-15.312-7.439-18.961c2.21,2.688,1.748,8.265,1.68,13.441c-0.051,3.911-0.469,7.675-0.72,11.041
	c4.888,2.4,4.714,9.053,2.4,13.921c-0.717,0.005-0.31,1.132-0.722,1.44c0.558,0.162,0.644,0.797,1.2,0.959
	c4.425,7.012-2.695,13.558-8.16,14.883c-3.271,3.748-5.818,12.601-6.241,18.241c3.882,0.416,3.636,3.393,5.281,5.761
	c0.667,0.96,2.193,1.646,3.12,2.641c0.575,0.617,0.688,1.44,1.2,1.921c1.571,1.469,3.707,1.589,5.521,2.64
	c0.7,0.406,1.409,1.402,2.16,1.92c4.509,3.108,7.523,6.709,9.36,12.241c0,0.08,0,0.16,0,0.24c-0.4,0-0.8,0-1.2,0
	c-2.354-9.407-10.711-12.812-18.001-17.281c-7.509,7.402-19.674,9.616-27.603,2.16c-3.486,1.801-8.604,3.171-11.762,6
	c-1.754,2.85-2.453,5.274-3.12,9.121c-0.479,0-0.96,0-1.439,0c1.061-4.338,2.03-8.522,5.761-11.281
	c2.697-1.994,6.021-2.817,9.361-4.32c-0.076-1.636,1.768-2.119,2.64-3.12c1.326-1.521,2.028-3.577,3.36-5.04
	c1.182-1.299,3.655-1.862,3.119-3.841c-1.178-1.206-3.02-0.636-4.319-1.68c-2.582-2.074-1.818-5.757-1.44-9.841
	c-0.509-0.854-1.765-0.956-2.399-1.682c-0.537-0.771-0.132-2.261,0-3.12c-0.24,0-0.48,0-0.721,0c-1.429-0.634,0.044-2.595-0.96-2.88
	c-2.152,1.043-5.735,2.167-6.721-0.479c-1.346-3.619,4.643-9.961,6.961-11.041c-1.095-2.336-0.784-4.94,0.48-6.24
	c-0.133-0.747-1.319-0.441-1.2-1.439c1.428-1.666,1.747-3.017,1.439-6.24c-0.848-0.674-1.884,1.781-2.88,0.959
	c-0.047-1.694,0.525-2.847,1.44-5.279c-1.965,0.357-3.422,2.496-5.041,2.4c1.512-4.09,4.86-6.34,8.401-8.401
	c0.334-1.832,1.56-4.779,2.399-7.44C71.311,35.772,71.196,34.458,71.673,33.733z M77.913,22.935
	c-3.594,6.088-6.428,12.934-8.642,20.401c6.624,4.922,17.661,9.271,28.322,6.479c0.282-7.701,1.665-16.602,0.72-22.321
	c-0.375-2.274-4.943-3.861-8.16-3.36c-0.834,0.398,0.149,1.374-1.199,1.439c-0.764-0.277-1.953-0.127-1.92-1.199
	c0.378-0.821,2.315-0.083,2.16-1.439C85.913,22.746,81.247,21.812,77.913,22.935z M111.996,50.536c0.2,2.521-1.091,3.55-1.682,5.279
	c0.22,0.653,0.446-0.639,1.2-0.24c0.107,0.773,0.367,1.395,1.44,1.201c-0.239-1.041-1.181-1.381-1.681-2.16
	c1.124-0.693,1.402,1.236,2.641,1.199c0.56-0.48,1.361-0.717,1.199-1.92c-1.004-0.275-2.282-0.276-2.159-1.68
	c0.872,0.328,1.573,0.826,2.641,0.96c0.744-0.644-0.63-0.913,0-1.44c-0.981-0.262-2.274,0.324-2.881-0.719
	c0.599-0.203,1.286-0.314,2.16-0.24c0-0.32,0-0.641,0-0.961C113.391,49.53,112.833,50.172,111.996,50.536z M108.396,51.017
	c-0.285,1.727,0.942,1.938,1.2,3.119c1.194,0.27,0.726-1.98,1.681-1.199c-0.021-0.861-0.373-1.388-0.479-2.16
	C109.728,50.588,109.355,51.096,108.396,51.017z M75.993,102.381c0.021,0.896,0.269,0.685,0,1.439
	c4.664,0.766,7.805-0.771,10.32-2.64c0.248-2.595-0.004-5.262,0.48-7.682c0.82-4.108,3.623-8.06,2.88-12.001
	c1.334-0.529,0.039-1.715,1.44-2.399c-0.644-0.779-1.246-1.051-0.961-1.921c6.097,4.438,12.195-2.815,11.762-7.921
	c-0.208-2.443-1.784-3.861-3.602-4.081c-3.895-0.469-5.684,3.761-8.641,2.64c0.254-2.306,1.313-3.808,1.2-6.479
	c-0.857,0.103-0.802,1.119-1.921,0.96c-0.077-1.617,0.467-2.119,0.479-3.12c-0.798,0.065-1.092,1.429-1.92,0.72
	c0.599-2.104,1.072-6.348-0.72-8.4c-2.042,0.281-3.997-1.02-6.241-1.2c-3.443-0.278-5.778,1.735-8.401,2.64
	c-0.129-1.089,0.482-1.438,0.721-2.16c-1.858-0.033-3.926,1.098-5.521,2.16c0.104,1.75-0.267,3.504,0.48,4.082
	c1.443-0.654,2.86-0.52,3.84,0.719c-0.668-0.107,0.188,1.309-0.48,1.201c-0.986,0.039-4.328-0.592-4.561,1.92
	c5.37-2.268,6.543,2.758,3.601,6c-5.48,1.959-9.698,5.183-10.561,11.761c3.623,2.149,7.008-1.64,10.321-2.4
	c1.582-0.362,3.037,0.48,3.84-1.198c0.418-1.547-1.021-2.49-0.721-3.121c2.004,0.305,1.447,2.482,2.4,3.359
	c2.703,0.589,4.166,0.367,6.721-0.479c0.139,0.146,0.563,1.139,0,1.2c-1.165,0.606,0.187,1.255-1.199,1.92
	c-0.945,0.23-0.442,0.421-0.48,1.439c-0.835,0.444-2.553,0.007-2.4,1.439c2.217-0.743,3.534-2.387,5.281-3.601
	c-2.543,5.067-10.076,7.437-15.841,6.48c0.072,2.088,2.739,1.581,4.319,2.16c-0.336,0.383-0.826,0.613-1.439,0.72
	c-0.882,4.967-0.912,11.293,5.281,10.081c3.611-0.707,5.98-6.519,8.4-6.961c-2.27,2.932-3.979,6.422-7.921,7.681
	c0.011,0.331-0.112,0.527-0.239,0.722C75.993,99.5,75.993,100.941,75.993,102.381z M70.472,64.457
	c0.328-0.472,0.229-1.371,0.48-1.92c-1.063,0.378-1.168,1.713-2.4,1.92c-0.699-0.181-1.189-0.57-1.68-0.96
	c-0.465-0.712,0.32-1.184-0.48-1.439c0.098,0.577-0.438,0.521-0.24,1.199c-0.494,1.287-0.259,3.539,0.24,4.08
	c0.899-0.061,1.342-0.579,2.16-0.721C69.273,65.979,70.452,65.797,70.472,64.457z M74.313,82.219
	c1.169-0.271,2.287-0.594,3.121-1.199c-1.11-0.876-1.598,0.53-2.64,0.479c-0.014-0.146-0.036-0.284-0.24-0.24
	C74.606,81.713,74.282,81.788,74.313,82.219z M69.032,82.699c2.063-0.268,3.599,0.409,4.8-0.721c-0.679,0.197-0.622-0.338-1.2-0.24
	c-0.649,0.844-2.237,0.334-2.88,0.479c-0.481-0.601-0.89,0.709-1.681,0c-0.166,0.646,0.496,0.465,0.721,0.721
	C68.806,82.792,68.827,82.654,69.032,82.699z M87.514,100.221c0.302,0.099,0.49,0.311,0.479,0.721
	c-1.41,3.081-12.291,6.894-13.92,2.16c0.662-0.139,0.748-0.853,0.959-1.44c-1.325,0.146-3.496,2.72-3.6,4.081
	c0.229-0.606,2.463-0.822,2.641,0c-0.575,0.605-1.591,3.127-0.48,3.84c1.409-0.512,1.173-2.667,3.12-2.641
	c0.151,1.983-0.369,3.198,0.96,3.841c1.64-0.521,0.948-3.373,2.64-3.841c1.067,0.98,0.365,3.381,2.642,3.601
	c0.694-1.728-0.489-2.908,0-4.08c0.24,0.001,0.285-0.193,0.479-0.239c1.562,0.358,1.535,2.306,3.12,2.641
	c1.263-1.485-1.405-2.977,0-3.841c0.779,0.581,1.62,1.101,2.16,1.92c0.381-1.431-0.214-2.15-0.479-3.84
	c0.456-0.104,0.434-0.687,1.198-0.48c0.853-0.05,0.476,1.126,1.44,0.961C90.051,102.321,89.105,99.912,87.514,100.221z
	 M87.754,107.901c0.225,1.584-0.548,2.172-1.681,2.398c-0.963-0.235-1.156-1.242-1.92-1.68c0.226,1.396,0.159,3.162-1.44,3.36
	c-1.259-0.421-1.759-1.603-2.88-2.16c-0.502,1.178-1.29,2.07-2.641,2.399c-0.963-0.477-1.324-1.557-1.68-2.641
	c-1.116,0.244-1.262,1.458-2.64,1.44c-1.336-0.71-1.068-2.911-0.48-4.562c-2.136,1.11-3.498,1.518-4.8,3.36
	c2.297,2.57,5.753,4.085,9.361,4.561c7.119,0.938,13.701-3.108,17.281-6.961c-1.342-1.142-3.061-3.179-4.802-3.12
	C90.155,104.912,90.31,109.191,87.754,107.901z"/>
<path fill="#2F2F27" d="M99.515,67.578c-0.174,0.866-1.828,0.251-2.4,0.72c0.556,1.205,0.752,4.268-0.959,4.561
	c-0.017-1.621,0.286-2.481-0.239-3.84c-1.643,0.198-1.899,1.781-3.36,2.159C93.276,68.585,96.454,66.274,99.515,67.578z"/>
<path fill="#A24434" d="M89.194,22.935c0.156,1.355-1.781,0.618-2.16,1.439c-0.032,1.072,1.157,0.922,1.921,1.199
	c1.35-0.065,0.364-1.041,1.2-1.439c3.216-0.5,7.784,1.086,8.159,3.36c0.945,5.72-0.438,14.62-0.72,22.321
	c-10.661,2.789-21.698-1.559-28.322-6.479c2.213-7.468,5.047-14.313,8.642-20.401C81.247,21.812,85.913,22.746,89.194,22.935z
	 M96.155,27.974c-5.334,0.211-10.775-0.949-16.321-2.88C83.017,28.334,92.007,29.315,96.155,27.974z"/>
<path fill="#C9A763" d="M90.874,103.581c-0.967,0.165-0.59-1.011-1.44-0.961c-0.766-0.205-0.742,0.378-1.198,0.48
	c0.266,1.688,0.859,2.409,0.479,3.84c-0.54-0.819-1.381-1.339-2.16-1.92c-1.405,0.864,1.263,2.354,0,3.841
	c-1.585-0.335-1.561-2.281-3.12-2.642c-0.194,0.047-0.239,0.241-0.479,0.24c-0.489,1.172,0.694,2.354,0,4.08
	c-2.276-0.22-1.574-2.619-2.642-3.601c-1.691,0.468-1,3.319-2.64,3.841c-1.329-0.644-0.809-1.856-0.96-3.841
	c-1.947-0.026-1.711,2.129-3.12,2.641c-1.11-0.713-0.095-3.233,0.48-3.84c-0.178-0.822-2.412-0.606-2.641,0
	c0.104-1.361,2.274-3.935,3.6-4.081c-0.211,0.589-0.297,1.303-0.959,1.44c1.629,4.732,12.51,0.921,13.92-2.16
	c0.011-0.41-0.179-0.622-0.479-0.721C89.105,99.912,90.051,102.321,90.874,103.581z"/>
<path fill="#2F2F27" d="M84.919,233.148c-5.546-1.931-10.986-3.093-16.32-2.881C72.745,228.927,81.735,229.908,84.919,233.148z"/>
<path fill="#C9A763" d="M49.876,208.426c0-0.319,0-0.64,0-0.96c0.874,0.074,1.563-0.038,2.16-0.24
	c-0.605-1.043-1.898-0.458-2.881-0.72c0.63-0.527-0.744-0.797,0-1.439c1.066,0.134,1.77,0.632,2.641,0.96
	c0.123-1.403-1.154-1.404-2.16-1.681c-0.162-1.202,0.642-1.438,1.2-1.92c1.237-0.037,1.517,1.894,2.641,1.2
	c-0.5-0.78-1.44-1.12-1.681-2.16c1.073-0.193,1.333,0.427,1.44,1.2c0.754,0.399,0.979-0.893,1.2-0.24
	c-0.59,1.73-1.883,2.759-1.682,5.28C51.919,208.07,51.361,208.711,49.876,208.426z"/>
<path fill="#C9A763" d="M53.956,207.466c-0.105-0.772-0.46-1.3-0.48-2.16c0.957,0.78,0.486-1.469,1.682-1.199
	c0.258,1.182,1.486,1.394,1.2,3.119C55.396,207.146,55.024,207.654,53.956,207.466z"/>
<path fill="#C9A763" d="M98.601,194.985c0.197,0.679-0.338,0.622-0.24,1.199c-0.801-0.256-0.016-0.728-0.48-1.439
	C98.226,195.276,98.466,194.443,98.601,194.985z"/>
<path fill="#C9A763" d="M94.999,176.023c-0.643,0.146-2.23-0.363-2.88,0.479c-0.579,0.098-0.522-0.438-1.2-0.24
	c1.201-1.13,2.736-0.453,4.801-0.721C95.621,175.844,95.41,176.034,94.999,176.023z"/>
<path fill="#4B5A7E" d="M88.759,160.181c-0.398-0.887-0.398-3.433,0-4.319C88.759,157.301,88.759,158.742,88.759,160.181z"/>
<path fill="#4B5A7E" d="M52.036,132.099c5.761,0,11.521,0,17.281,0c-0.73,4.472-2.965,7.437-5.521,10.081
	c1.184,0.584,2.51-0.921,3.12-1.681c1.86-2.309,2.999-5.087,3.601-8.4c14.002,0,28.003,0,42.004,0
	c-0.667,3.847-1.366,6.271-3.12,9.121c-3.159,2.829-8.275,4.199-11.761,6c-7.929-7.456-20.095-5.242-27.604,2.16
	C62.747,144.91,54.39,141.507,52.036,132.099z M103.64,134.019c-0.366,3.442-0.947,5.196-2.399,7.44
	C103.852,141.01,105.451,136.35,103.64,134.019z"/>
<path fill="#2F2F27" d="M69.317,132.099c0.4,0,0.8,0,1.199,0c-0.602,3.313-1.739,6.093-3.601,8.4c-0.61,0.76-1.938,2.265-3.12,1.681
	C66.353,139.535,68.587,136.57,69.317,132.099z"/>
<path fill="#2F2F27" d="M101.24,141.46c1.452-2.244,2.034-3.998,2.399-7.44C105.451,136.35,103.852,141.01,101.24,141.46z"/>
<path fill="#4B5A7E" d="M63.556,194.985c0.685-1.129,0.231-1.681-0.479-2.4c0.559,0.163,0.643,0.797,1.2,0.96
	C63.865,193.852,64.272,194.98,63.556,194.985z"/>
<path fill="#4B5A7E" d="M59.477,214.426c-0.507-1.487-0.21-2.784-0.48-3.6C59.618,211.27,59.431,213.359,59.477,214.426z"/>
<path fill="#4B5A7E" d="M58.996,220.667c-0.679-0.841-0.438-2.603-0.479-4.081C59.013,217.609,58.611,219.532,58.996,220.667z"/>
<path fill="#4B5A7E" d="M60.437,227.387c-0.557-0.804-0.695-2.024-0.96-3.12C59.999,224.951,60.44,226.975,60.437,227.387z"/>
<path fill="#4B5A7E" d="M94.28,222.107c-0.58,0.619-0.407,1.993-1.2,2.399C93.556,223.784,93.441,222.469,94.28,222.107z"/>
<path fill="#CCCCC7" d="M98.601,176.023c-0.24,0-0.48,0-0.721,0c0.133-0.859,0.537-2.35,0-3.12
	C98.966,173.097,97.945,175.397,98.601,176.023z"/>
<path fill="#4B5A7E" d="M83.72,180.343c-1.387,0.665-0.035,1.313-1.2,1.92c0.105-0.213,0.211-0.429,0.479-0.479
	c-0.006-0.233-0.293-0.188-0.479-0.24C82.501,180.726,83.224,180.649,83.72,180.343z"/>
<path fill="#C9A763" d="M82.519,182.263c-0.563,0.063-0.139,1.056,0,1.2c2.555-0.847,4.018-1.068,6.721-0.479
	c0.953,0.877,0.396,3.056,2.4,3.359c0.3-0.631-1.139-1.575-0.721-3.121c0.803-1.68,2.258-0.836,3.84-1.198
	c3.313-0.762,6.698-4.551,10.321-2.4c-0.862,6.578-5.08,9.801-10.561,11.761c-2.943,3.241-1.77,8.269,3.601,6
	c-0.232,2.512-3.574,1.88-4.561,1.92c-0.668-0.107,0.188,1.309-0.48,1.2c0.979,1.239,2.396,1.374,3.84,0.72
	c0.747,0.577,0.375,2.332,0.48,4.081c-1.594,1.063-3.662,2.193-5.521,2.16c0.238-0.723,0.85-1.071,0.721-2.16
	c-2.623,0.904-4.959,2.918-8.401,2.641c-2.244-0.182-4.199-1.482-6.241-1.2c-1.792-2.053-1.318-6.297-0.72-8.401
	c-0.828-0.708-1.122,0.655-1.92,0.721c0.014-1.001,0.558-1.504,0.479-3.12c-1.118-0.159-1.063,0.856-1.92,0.96
	c-0.112-2.672,0.946-4.174,1.2-6.48c-2.957-1.121-4.746,3.109-8.641,2.641c-1.816-0.22-3.394-1.639-3.602-4.081
	c-0.435-5.104,5.665-12.358,11.762-7.921c0.285-0.87-0.317-1.142-0.961-1.921c1.401-0.686,0.106-1.87,1.44-2.399
	c-0.743-3.941,2.06-7.893,2.88-12.001c0.484-2.42,0.232-5.087,0.48-7.682c2.516-1.869,5.656-3.404,10.32-2.64
	c-0.269,0.756-0.021,0.543,0,1.439c-0.398,0.888-0.398,3.434,0,4.319c-0.127,0.193-0.25,0.391-0.24,0.722
	c-3.94,1.259-5.65,4.749-7.92,7.681c2.42-0.442,4.789-6.254,8.4-6.961c6.193-1.212,6.163,5.114,5.281,10.081
	c-0.613,0.105-1.104,0.337-1.44,0.72c1.581,0.579,4.248,0.072,4.32,2.16c-5.765-0.955-13.298,1.413-15.841,6.48
	c1.747-1.214,3.063-2.856,5.281-3.601c0.151,1.434-1.565,0.995-2.4,1.439c-0.038,1.02,0.465,1.209-0.48,1.439
	c-0.494,0.307-1.217,0.383-1.199,1.2c0.187,0.054,0.474,0.007,0.479,0.24C82.729,181.835,82.625,182.051,82.519,182.263z
	 M92.359,200.985c0-0.641,0-1.28,0-1.92c-4.07-0.064-7.238-1.874-10.562-2.641C83.753,199.613,87.91,202.393,92.359,200.985z
	 M84.439,188.264c-2.445,1.328-2.624,4.411-1.92,6.721c3.547,1.266,5.969,2.909,9.601,2.641
	C92.353,192.632,90.231,188.022,84.439,188.264z M72.197,187.064c-1.461,0.378-1.719,1.961-3.36,2.159
	c-0.525-1.358-0.224-2.22-0.238-3.841c-1.711,0.293-1.516,3.356-0.961,4.562c-0.571,0.468-2.227-0.146-2.399,0.72
	C68.298,191.968,71.476,189.657,72.197,187.064z M92.599,172.182c-0.627-0.066-1.032,0.088-0.959,0.722
	C92.267,172.97,92.672,172.815,92.599,172.182z"/>
<path fill="#2F2F27" d="M92.119,197.625c-3.632,0.27-6.054-1.375-9.601-2.641c-0.703-2.311-0.525-5.393,1.92-6.721
	C90.231,188.022,92.353,192.632,92.119,197.625z M91.159,195.705c0.104-1.053-0.734-0.788-0.24-1.68
	c-1.053-2.879-2.708-5.283-6.24-5.041c-1.717,0.952-1.608,3.888-1.2,5.521c0.325,0.076,0.458,0.342,0.96,0.24
	c0.207,0.673,1.25,0.51,1.68,0.96c0.245-0.315,0.235-0.885,0.48-1.2c0.201-1.601,2.824-1.363,3.6-0.479
	c0.191,0.448,0.4,0.879,0.48,1.439c0.043,0.782-0.564,1.155,0.479,1.2C91.159,196.345,91.159,196.025,91.159,195.705z"/>
<path fill="#4B5A7E" d="M86.599,194.505c-0.244,0.315-0.234,0.885-0.479,1.2c-0.43-0.45-1.473-0.287-1.68-0.96
	c0.387,0.333,1.237,0.203,1.439,0.72c0.444-0.036,0.147-0.813,0.48-0.96C86.439,194.505,86.52,194.505,86.599,194.505z"/>
<path fill="#CCCCC7" d="M91.159,195.705c0,0.32,0,0.64,0,0.96c-1.044-0.045-0.438-0.417-0.48-1.2
	C90.92,195.464,90.965,195.659,91.159,195.705z"/>
<path fill="#4B5A7E" d="M96.2,191.625c-0.53,0.83-1.628,1.091-1.92,2.16C94.3,192.445,95.479,192.263,96.2,191.625z"/>
<path fill="#C9A763" d="M90.919,194.025c-0.496,0.892,0.344,0.627,0.24,1.68c-0.194-0.045-0.239-0.241-0.48-0.24
	c-0.078-0.561-0.289-0.992-0.479-1.439C90.439,194.025,90.679,194.025,90.919,194.025z"/>
<path fill="#4B5A7E" d="M95.72,175.543c0.205,0.045,0.228-0.093,0.24-0.239c0.225,0.256,0.885,0.074,0.721,0.721
	c-0.791-0.709-1.199,0.601-1.681,0C95.41,176.034,95.621,175.844,95.72,175.543z"/>
<path fill="#C9A763" d="M90.199,176.983c-0.204,0.044-0.228-0.095-0.24-0.24c-1.042-0.051-1.528,1.355-2.64,0.479
	c0.834-0.605,1.951-0.93,3.121-1.199C90.47,176.454,90.146,176.529,90.199,176.983z"/>
<path fill="#C9A763" d="M75.318,153.941c-1.741,0.059-3.46-1.979-4.802-3.12c3.58-3.853,10.162-7.898,17.281-6.961
	c3.608,0.476,7.064,1.989,9.361,4.561c-1.303,1.844-2.665,2.25-4.8,3.36c0.588-1.649,0.855-3.852-0.48-4.562
	c-1.378-0.018-1.523,1.196-2.64,1.44c-0.355-1.084-0.717-2.164-1.68-2.642c-1.352,0.33-2.139,1.224-2.641,2.4
	c-1.122-0.559-1.621-1.739-2.88-2.16c-1.6,0.198-1.666,1.964-1.44,3.36c-0.764-0.438-0.957-1.443-1.92-1.68
	c-1.133,0.228-1.904,0.814-1.681,2.398C74.442,149.051,74.597,153.33,75.318,153.941z"/>
<path fill="#2F2F27" d="M81.798,196.425c3.323,0.768,6.491,2.576,10.562,2.641c0,0.64,0,1.279,0,1.92
	C87.91,202.393,83.753,199.613,81.798,196.425z"/>
<path fill="#2F2F27" d="M91.64,172.903c-0.072-0.634,0.332-0.788,0.959-0.722C92.672,172.815,92.267,172.97,91.64,172.903z"/>
<path fill="#CCCCC7" d="M97.88,194.745c-0.49-0.39-0.98-0.779-1.68-0.96c-1.232,0.207-1.338,1.542-2.4,1.92
	c0.252-0.549,0.152-1.448,0.48-1.92c0.292-1.069,1.39-1.33,1.92-2.16c0.818-0.142,1.261-0.659,2.16-0.72
	c0.5,0.541,0.734,2.793,0.24,4.08C98.466,194.443,98.226,195.276,97.88,194.745z"/>
<path fill="#CCCCC7" d="M86.599,194.505c-0.079,0-0.159,0-0.239,0c-0.333,0.147-0.036,0.924-0.48,0.96
	c-0.202-0.518-1.053-0.388-1.439-0.72c-0.502,0.102-0.636-0.165-0.96-0.24c-0.408-1.632-0.517-4.566,1.199-5.521
	c3.532-0.243,5.188,2.162,6.241,5.041c-0.239,0-0.479,0-0.72,0C89.425,193.141,86.802,192.904,86.599,194.505z"/>
<path fill="#2F2F27" d="M93.079,224.508c-0.598,2.132-1.5,3.892-2.4,5.76c-0.78,1.622-1.436,4.304-3.119,5.521
	c-3.43,2.477-9.613,0.336-14.162-0.24c-2.043-0.259-4.962-0.17-6.48-0.72c-3.344-1.212-5.536-4.986-6.479-7.441
	c0.004-0.412-0.438-2.436-0.96-3.12c0.025-1.299-1.047-2.532-0.48-3.6c-0.385-1.135,0.018-3.058-0.479-4.081
	c-0.2-2.843,0.194-5.712-1.2-8.641c-2.998-0.354-4.773,2.126-7.2,1.68c-1.423-0.262-2.204-2.625-2.16-4.561
	c0.066-2.974,3.372-5.366,6.24-4.801c1.63,3.246,4.121,5.814,4.8,10.562c0.271,0.815-0.026,2.112,0.48,3.6
	c0.339,8.36,0.657,15.313,7.439,18.961c-2.21-2.688-1.748-8.264-1.68-13.44c0.051-3.911,0.469-7.675,0.72-11.041
	c-4.888-2.4-4.714-9.053-2.4-13.921c0.717-0.005,0.31-1.133,0.722-1.44c-0.558-0.163-0.644-0.797-1.2-0.96
	c-4.425-7.011,2.695-13.557,8.16-14.882c3.271-3.748,5.818-12.601,6.241-18.241c-3.882-0.416-3.636-3.393-5.281-5.761
	c-0.667-0.96-2.193-1.646-3.12-2.641c-0.575-0.617-0.688-1.44-1.2-1.921c-1.571-1.469-3.707-1.589-5.521-2.64
	c-0.7-0.406-1.409-1.402-2.16-1.92c-4.509-3.108-7.523-6.709-9.36-12.241c0-0.08,0-0.16,0-0.24c0.4,0,0.8,0,1.2,0
	c2.354,9.407,10.711,12.812,18.001,17.281c7.509-7.402,19.674-9.616,27.603-2.16c3.486-1.801,8.604-3.171,11.762-6
	c1.754-2.85,2.453-5.274,3.12-9.121c0.479,0,0.96,0,1.439,0c-1.061,4.338-2.03,8.522-5.761,11.281
	c-2.697,1.994-6.021,2.817-9.361,4.32c0.076,1.636-1.768,2.119-2.64,3.12c-1.326,1.521-2.028,3.577-3.36,5.04
	c-1.182,1.299-3.655,1.862-3.119,3.841c1.178,1.206,3.02,0.636,4.319,1.68c2.582,2.074,1.818,5.757,1.44,9.841
	c0.509,0.854,1.765,0.956,2.399,1.682c0.537,0.771,0.132,2.261,0,3.12c0.24,0,0.48,0,0.721,0c1.429,0.634-0.044,2.595,0.96,2.88
	c2.152-1.043,5.735-2.167,6.721,0.479c1.346,3.619-4.643,9.96-6.961,11.041c1.095,2.336,0.784,4.94-0.48,6.24
	c0.133,0.747,1.319,0.441,1.2,1.439c-1.428,1.665-1.747,3.017-1.439,6.24c0.848,0.674,1.884-1.782,2.88-0.96
	c0.047,1.695-0.525,2.848-1.44,5.28c1.965-0.357,3.422-2.496,5.041-2.4c-1.512,4.089-4.86,6.34-8.401,8.401
	c-0.334,1.832-1.56,4.779-2.399,7.44C93.441,222.469,93.556,223.784,93.079,224.508z M86.839,235.308
	c3.594-6.088,6.428-12.934,8.642-20.401c-6.624-4.922-17.661-9.271-28.322-6.48c-0.282,7.702-1.665,16.603-0.72,22.322
	c0.375,2.274,4.943,3.861,8.16,3.36c0.834-0.399-0.149-1.374,1.199-1.44c0.764,0.278,1.953,0.127,1.92,1.2
	c-0.378,0.821-2.315,0.083-2.16,1.439C78.839,235.496,83.505,236.43,86.839,235.308z M52.756,207.706
	c-0.2-2.521,1.091-3.55,1.682-5.28c-0.22-0.652-0.446,0.64-1.2,0.24c-0.107-0.773-0.367-1.394-1.44-1.2
	c0.239,1.041,1.181,1.38,1.681,2.16c-1.124,0.693-1.402-1.237-2.641-1.2c-0.56,0.481-1.361,0.718-1.199,1.92
	c1.004,0.276,2.282,0.277,2.159,1.681c-0.872-0.328-1.573-0.826-2.641-0.96c-0.744,0.643,0.63,0.912,0,1.439
	c0.981,0.262,2.274-0.323,2.881,0.72c-0.599,0.202-1.286,0.314-2.16,0.24c0,0.32,0,0.641,0,0.96
	C51.361,208.711,51.919,208.07,52.756,207.706z M56.356,207.226c0.285-1.727-0.942-1.938-1.2-3.119
	c-1.194-0.27-0.726,1.979-1.681,1.199c0.021,0.86,0.373,1.388,0.479,2.16C55.024,207.654,55.396,207.146,56.356,207.226z
	 M88.759,155.861c-0.021-0.896-0.269-0.685,0-1.439c-4.664-0.766-7.805,0.771-10.32,2.64c-0.248,2.595,0.004,5.262-0.48,7.682
	c-0.82,4.108-3.623,8.06-2.88,12.001c-1.334,0.529-0.039,1.715-1.44,2.399c0.644,0.779,1.246,1.051,0.961,1.921
	c-6.097-4.438-12.195,2.815-11.762,7.921c0.208,2.442,1.784,3.861,3.602,4.081c3.895,0.469,5.684-3.762,8.641-2.641
	c-0.254,2.307-1.313,3.809-1.2,6.48c0.857-0.104,0.802-1.119,1.921-0.96c0.077,1.617-0.467,2.119-0.479,3.12
	c0.798-0.065,1.092-1.429,1.92-0.721c-0.599,2.104-1.072,6.349,0.72,8.401c2.042-0.282,3.997,1.019,6.241,1.2
	c3.443,0.277,5.778-1.736,8.401-2.641c0.129,1.09-0.482,1.438-0.721,2.16c1.858,0.033,3.926-1.097,5.521-2.16
	c-0.104-1.749,0.267-3.504-0.48-4.081c-1.443,0.653-2.86,0.52-3.84-0.72c0.668,0.108-0.188-1.308,0.48-1.2
	c0.986-0.04,4.328,0.592,4.561-1.92c-5.37,2.268-6.543-2.759-3.601-6c5.48-1.959,9.698-5.183,10.561-11.761
	c-3.623-2.149-7.008,1.64-10.321,2.4c-1.582,0.362-3.037-0.48-3.84,1.198c-0.418,1.546,1.021,2.49,0.721,3.121
	c-2.004-0.305-1.447-2.482-2.4-3.359c-2.703-0.589-4.166-0.367-6.721,0.479c-0.139-0.146-0.563-1.139,0-1.2
	c1.165-0.606-0.187-1.255,1.199-1.92c0.945-0.23,0.442-0.421,0.48-1.439c0.835-0.444,2.553-0.007,2.4-1.439
	c-2.217,0.743-3.534,2.387-5.281,3.601c2.543-5.067,10.076-7.437,15.841-6.48c-0.072-2.088-2.739-1.581-4.319-2.16
	c0.336-0.383,0.826-0.613,1.439-0.72c0.882-4.967,0.912-11.293-5.281-10.081c-3.611,0.707-5.98,6.519-8.4,6.961
	c2.27-2.932,3.979-6.422,7.921-7.681c-0.011-0.331,0.112-0.527,0.239-0.722C88.759,158.742,88.759,157.301,88.759,155.861z
	 M94.28,193.785c-0.328,0.472-0.229,1.371-0.48,1.92c1.063-0.378,1.168-1.713,2.4-1.92c0.699,0.181,1.189,0.57,1.68,0.96
	c0.465,0.712-0.32,1.184,0.48,1.439c-0.098-0.577,0.438-0.521,0.24-1.199c0.494-1.287,0.259-3.539-0.24-4.08
	c-0.899,0.061-1.342,0.579-2.16,0.72C95.479,192.263,94.3,192.445,94.28,193.785z M90.439,176.023
	c-1.169,0.271-2.287,0.594-3.121,1.199c1.11,0.876,1.598-0.53,2.64-0.479c0.014,0.146,0.036,0.284,0.24,0.24
	C90.146,176.529,90.47,176.454,90.439,176.023z M95.72,175.543c-2.063,0.268-3.599-0.409-4.8,0.721
	c0.679-0.197,0.622,0.338,1.2,0.24c0.649-0.844,2.237-0.334,2.88-0.479c0.481,0.601,0.89-0.709,1.681,0
	c0.166-0.646-0.496-0.465-0.721-0.721C95.946,175.45,95.925,175.588,95.72,175.543z M77.238,158.021
	c-0.302-0.099-0.49-0.311-0.479-0.721c1.41-3.081,12.291-6.894,13.92-2.16c-0.662,0.139-0.748,0.853-0.959,1.44
	c1.325-0.146,3.496-2.72,3.6-4.081c-0.229,0.606-2.463,0.822-2.641,0c0.575-0.605,1.591-3.127,0.48-3.84
	c-1.409,0.512-1.173,2.667-3.12,2.641c-0.151-1.983,0.369-3.198-0.96-3.841c-1.64,0.521-0.948,3.373-2.64,3.841
	c-1.067-0.98-0.365-3.381-2.642-3.601c-0.694,1.728,0.489,2.908,0,4.08c-0.24-0.001-0.285,0.193-0.479,0.239
	c-1.562-0.358-1.535-2.306-3.12-2.641c-1.263,1.485,1.405,2.977,0,3.841c-0.779-0.581-1.62-1.101-2.16-1.92
	c-0.381,1.431,0.214,2.15,0.479,3.84c-0.456,0.104-0.434,0.687-1.198,0.48c-0.853,0.05-0.476-1.126-1.44-0.961
	C74.701,155.921,75.646,158.33,77.238,158.021z M76.998,150.341c-0.225-1.584,0.548-2.172,1.681-2.398
	c0.963,0.235,1.156,1.242,1.92,1.68c-0.226-1.396-0.159-3.162,1.44-3.36c1.259,0.421,1.759,1.603,2.88,2.16
	c0.502-1.178,1.29-2.07,2.641-2.399c0.963,0.477,1.324,1.557,1.68,2.641c1.116-0.244,1.262-1.458,2.64-1.44
	c1.336,0.71,1.068,2.911,0.48,4.562c2.136-1.11,3.498-1.518,4.8-3.36c-2.297-2.57-5.753-4.085-9.361-4.561
	c-7.119-0.938-13.701,3.108-17.281,6.961c1.342,1.142,3.061,3.179,4.802,3.12C74.597,153.33,74.442,149.051,76.998,150.341z"/>
<path fill="#2F2F27" d="M65.237,190.664c0.174-0.866,1.828-0.251,2.4-0.72c-0.556-1.205-0.752-4.269,0.959-4.562
	c0.017,1.621-0.286,2.482,0.239,3.841c1.643-0.198,1.899-1.781,3.36-2.159C71.476,189.657,68.298,191.968,65.237,190.664z"/>
<path fill="#A24434" d="M75.558,235.308c-0.156-1.355,1.781-0.618,2.16-1.439c0.032-1.073-1.157-0.922-1.921-1.2
	c-1.35,0.066-0.364,1.041-1.2,1.44c-3.216,0.5-7.784-1.086-8.159-3.36c-0.945-5.72,0.438-14.62,0.72-22.322
	c10.661-2.789,21.698,1.56,28.322,6.48c-2.213,7.468-5.047,14.313-8.642,20.401C83.505,236.43,78.839,235.496,75.558,235.308z
	 M68.597,230.268c5.334-0.211,10.775,0.95,16.321,2.881C81.735,229.908,72.745,228.927,68.597,230.268z"/>
<path fill="#C9A763" d="M73.878,154.661c0.967-0.165,0.59,1.011,1.44,0.961c0.766,0.205,0.742-0.378,1.198-0.48
	c-0.266-1.688-0.859-2.409-0.479-3.84c0.54,0.819,1.381,1.339,2.16,1.92c1.405-0.864-1.263-2.354,0-3.841
	c1.585,0.335,1.561,2.281,3.12,2.642c0.194-0.047,0.239-0.241,0.479-0.24c0.489-1.172-0.694-2.354,0-4.08
	c2.276,0.22,1.574,2.619,2.642,3.601c1.691-0.468,1-3.319,2.64-3.841c1.329,0.644,0.809,1.856,0.96,3.841
	c1.947,0.026,1.711-2.129,3.12-2.641c1.11,0.713,0.095,3.233-0.48,3.84c0.178,0.822,2.412,0.606,2.641,0
	c-0.104,1.361-2.274,3.935-3.6,4.081c0.211-0.589,0.297-1.303,0.959-1.44c-1.629-4.732-12.51-0.921-13.92,2.16
	c-0.011,0.41,0.179,0.622,0.479,0.721C75.646,158.33,74.701,155.921,73.878,154.661z"/>
<use xlink:href="#Rand"  width="156.49" height="248.039" x="5.377" y="-252.996" transform="matrix(1 0 0 -1 0.002 0.0029)" overflow="visible"/>
</svg>
