<?xml version="1.0" encoding="utf-8"?>
<!-- Generator: Adobe Illustrator 15.1.0, SVG Export Plug-In  -->
<!DOCTYPE svg PUBLIC "-//W3C//DTD SVG 1.1//EN" "http://www.w3.org/Graphics/SVG/1.1/DTD/svg11.dtd" [
	<!ENTITY ns_flows "http://ns.adobe.com/Flows/1.0/">
]>
<svg version="1.1"
	 xmlns="http://www.w3.org/2000/svg" xmlns:xlink="http://www.w3.org/1999/xlink" xmlns:a="http://ns.adobe.com/AdobeSVGViewerExtensions/3.0/"
	 x="0px" y="0px" width="167px" height="258px" viewBox="0 0 167 258" enable-background="new 0 0 167 258" xml:space="preserve">
<defs>
	<symbol  id="Rand" viewBox="5.377 -252.996 156.49 248.039">
		<g id="weiß_2_">
		</g>
		<path fill="#FFFFFF" d="M159.867-242.076c0,4.92-4,8.92-8.92,8.92c-4.921,0-8.921-4-8.921-8.92s4-8.92,8.921-8.92
			C155.867-250.996,159.867-246.996,159.867-242.076z M159.867-15.887c0,4.92-4,8.93-8.92,8.93c-4.921,0-8.921-4.01-8.921-8.93
			c0-4.91,4-8.92,8.921-8.92C155.867-24.807,159.867-20.797,159.867-15.887z M19.387-4.957h123.9h4.569h3.091
			c6.02,0,10.92-4.9,10.92-10.93v-9.52v-208.09v-8.58c0-6.021-4.9-10.92-10.92-10.92h-9.471c-37.63,0-75.85,0-125.17,0
			c-6.029,0-10.92,4.898-10.92,10.92c-0.01,72.18-0.01,141.83-0.01,211.35v14.84c0,6.029,4.9,10.93,10.92,10.93H19.387z
			 M25.227-15.887c0,4.92-4.01,8.93-8.93,8.93c-4.91,0-8.92-4.01-8.92-8.93c0-4.91,4.01-8.92,8.92-8.92
			C21.217-24.807,25.227-20.797,25.227-15.887z M16.307-250.996c4.92,0,8.92,4,8.92,8.92s-4,8.92-8.92,8.92s-8.92-4-8.92-8.92
			S11.387-250.996,16.307-250.996z M27.227-15.887c0-6.02-4.9-10.92-10.93-10.92c-3.68,0-6.939,1.83-8.92,4.629
			c0-71.199,0-142.398,0-213.609c1.98,2.801,5.24,4.631,8.93,4.631c6.02,0,10.92-4.9,10.92-10.92c0-3.682-1.83-6.941-4.63-8.92
			c40.69,0,81.37,0,122.061,0c-2.801,1.979-4.631,5.238-4.631,8.92c0,6.02,4.9,10.92,10.921,10.92c3.68,0,6.939-1.83,8.92-4.621
			c0,71.201,0,142.4,0,213.6c-1.98-2.799-5.24-4.629-8.92-4.629c-6.021,0-10.921,4.9-10.921,10.92c0,3.689,1.83,6.949,4.631,8.93
			c-40.69,0-81.38,0-122.061,0C25.396-8.938,27.227-12.197,27.227-15.887z"/>
	</symbol>
	<symbol  id="US" viewBox="-42.52 -42.52 85.039 85.039">
		<g>
			<path fill="#DE2910" d="M-42.382,3.271C-42.464,2.19-42.52,1.102-42.52,0s0.056-2.19,0.138-3.271h84.764
				C42.464-2.19,42.52-1.102,42.52,0s-0.056,2.19-0.138,3.271H-42.382z"/>
			<path fill="#FFFFFF" d="M41.369,9.813h-82.737c-0.502-2.123-0.844-4.308-1.014-6.541h84.764
				C42.212,5.505,41.87,7.689,41.369,9.813z"/>
			<path fill="#DE2910" d="M39.255,16.355h-78.51c-0.876-2.101-1.581-4.288-2.113-6.543h82.737
				C40.836,12.067,40.131,14.255,39.255,16.355z"/>
			<path fill="#FFFFFF" d="M35.819,22.896h-71.639c-1.324-2.066-2.48-4.251-3.436-6.541h78.51
				C38.3,18.646,37.144,20.83,35.819,22.896z"/>
			<path fill="#DE2910" d="M30.663,29.439h-61.326c-1.924-2.004-3.651-4.193-5.156-6.543h71.639
				C34.315,25.246,32.587,27.436,30.663,29.439z"/>
			<path fill="#FFFFFF" d="M22.646,35.98h-45.291c-2.935-1.851-5.625-4.05-8.018-6.541h61.326
				C28.271,31.931,25.581,34.13,22.646,35.98z"/>
			<path fill="#DE2910" d="M0,42.52c-8.326,0-16.087-2.402-22.646-6.539h45.291C16.088,40.117,8.327,42.52,0,42.52z"/>
			<path fill="#FFFFFF" d="M-41.369-9.813h82.738c0.501,2.123,0.843,4.308,1.013,6.541h-84.764
				C-42.212-5.505-41.87-7.689-41.369-9.813z"/>
			<path fill="#DE2910" d="M-39.255-16.355h78.51c0.876,2.101,1.581,4.288,2.114,6.543h-82.738
				C-40.836-12.067-40.131-14.255-39.255-16.355z"/>
			<path fill="#FFFFFF" d="M-35.82-22.896H35.82c1.323,2.066,2.479,4.251,3.435,6.541h-78.51
				C-38.3-18.646-37.144-20.83-35.82-22.896z"/>
			<path fill="#DE2910" d="M-30.663-29.439h61.326c1.924,2.004,3.652,4.193,5.157,6.543H-35.82
				C-34.315-25.246-32.587-27.436-30.663-29.439z"/>
			<path fill="#FFFFFF" d="M-22.646-35.98h45.292c2.935,1.851,5.625,4.05,8.017,6.541h-61.326
				C-28.271-31.931-25.581-34.13-22.646-35.98z"/>
			<path fill="#DE2910" d="M0-42.52c8.327,0,16.088,2.402,22.646,6.539h-45.292C-16.088-40.117-8.326-42.52,0-42.52z"/>
		</g>
		<path fill="#3C3B6E" d="M-42.52,0c0-1.102,0.056-2.19,0.138-3.271h60.686v41.657C12.76,41.034,6.554,42.52,0,42.52
			C-23.482,42.52-42.52,23.482-42.52,0z"/>
		<path id="s_104_" fill="#FFFFFF" d="M12.918,3.926l1.56-4.8l-4.083,2.968h5.046l-4.083-2.968L12.918,3.926z"/>
		<path id="s_103_" fill="#FFFFFF" d="M2.146,3.926l1.56-4.8l-4.083,2.968h5.046L0.586-0.874L2.146,3.926z"/>
		<path id="s_102_" fill="#FFFFFF" d="M-8.625,3.926l1.56-4.8l-4.083,2.968h5.046l-4.083-2.968L-8.625,3.926z"/>
		<path id="s_101_" fill="#FFFFFF" d="M-19.396,3.926l1.56-4.8l-4.083,2.968h5.046l-4.083-2.968L-19.396,3.926z"/>
		<path id="s_100_" fill="#FFFFFF" d="M-30.168,3.926l1.56-4.8l-4.083,2.968h5.046l-4.083-2.968L-30.168,3.926z"/>
		<path id="s_99_" fill="#FFFFFF" d="M7.532,8.504l1.56-4.8L5.009,6.672h5.046L5.972,3.704L7.532,8.504z"/>
		<path id="s_98_" fill="#FFFFFF" d="M-3.239,8.504l1.56-4.8l-4.083,2.968h5.046L-4.8,3.704L-3.239,8.504z"/>
		<path id="s_97_" fill="#FFFFFF" d="M-14.011,8.504l1.56-4.8l-4.083,2.968h5.046l-4.083-2.968L-14.011,8.504z"/>
		<path id="s_96_" fill="#FFFFFF" d="M-24.782,8.504l1.56-4.8l-4.083,2.968h5.046l-4.083-2.968L-24.782,8.504z"/>
		<path id="s_95_" fill="#FFFFFF" d="M-35.554,8.504l1.56-4.8l-4.083,2.968h5.046l-4.083-2.968L-35.554,8.504z"/>
		<path id="s_94_" fill="#FFFFFF" d="M12.918,13.082l1.56-4.8l-4.083,2.968h5.046l-4.083-2.968L12.918,13.082z"/>
		<path id="s_93_" fill="#FFFFFF" d="M2.146,13.082l1.56-4.8l-4.083,2.968h5.046L0.586,8.282L2.146,13.082z"/>
		<path id="s_92_" fill="#FFFFFF" d="M-8.625,13.082l1.56-4.8l-4.083,2.968h5.046l-4.083-2.968L-8.625,13.082z"/>
		<path id="s_91_" fill="#FFFFFF" d="M-19.396,13.082l1.56-4.8l-4.083,2.968h5.046l-4.083-2.968L-19.396,13.082z"/>
		<path id="s_90_" fill="#FFFFFF" d="M-30.168,13.082l1.56-4.8l-4.083,2.968h5.046l-4.083-2.968L-30.168,13.082z"/>
		<path id="s_89_" fill="#FFFFFF" d="M7.532,17.66l1.56-4.8l-4.083,2.968h5.046L5.972,12.86L7.532,17.66z"/>
		<path id="s_88_" fill="#FFFFFF" d="M-3.239,17.66l1.56-4.8l-4.083,2.968h5.046L-4.8,12.86L-3.239,17.66z"/>
		<path id="s_87_" fill="#FFFFFF" d="M-14.011,17.66l1.56-4.8l-4.083,2.968h5.046l-4.083-2.968L-14.011,17.66z"/>
		<path id="s_86_" fill="#FFFFFF" d="M-24.782,17.66l1.56-4.8l-4.083,2.968h5.046l-4.083-2.968L-24.782,17.66z"/>
		<path id="s_85_" fill="#FFFFFF" d="M23.689,22.238l1.56-4.8l-4.083,2.968h5.046l-4.083-2.968L23.689,22.238z"/>
		<path id="s_84_" fill="#FFFFFF" d="M12.918,22.238l1.56-4.8l-4.083,2.968h5.046l-4.083-2.968L12.918,22.238z"/>
		<path id="s_83_" fill="#FFFFFF" d="M2.146,22.238l1.56-4.8l-4.083,2.968h5.046l-4.083-2.968L2.146,22.238z"/>
		<path id="s_82_" fill="#FFFFFF" d="M-8.625,22.238l1.56-4.8l-4.083,2.968h5.046l-4.083-2.968L-8.625,22.238z"/>
		<path id="s_81_" fill="#FFFFFF" d="M-19.396,22.238l1.56-4.8l-4.083,2.968h5.046l-4.083-2.968L-19.396,22.238z"/>
		<path id="s_80_" fill="#FFFFFF" d="M7.532,26.816l1.56-4.8l-4.083,2.968h5.046l-4.083-2.968L7.532,26.816z"/>
		<path id="s_79_" fill="#FFFFFF" d="M-3.239,26.816l1.56-4.8l-4.083,2.968h5.046L-4.8,22.017L-3.239,26.816z"/>
		<path id="s_78_" fill="#FFFFFF" d="M-14.011,26.816l1.56-4.8l-4.083,2.968h5.046l-4.083-2.968L-14.011,26.816z"/>
		<path id="s_77_" fill="#FFFFFF" d="M12.918,31.395l1.56-4.8l-4.083,2.968h5.046l-4.083-2.968L12.918,31.395z"/>
		<path id="s_76_" fill="#FFFFFF" d="M2.146,31.395l1.56-4.8l-4.083,2.968h5.046l-4.083-2.968L2.146,31.395z"/>
		<path id="s_75_" fill="#FFFFFF" d="M-8.625,31.395l1.56-4.8l-4.083,2.968h5.046l-4.083-2.968L-8.625,31.395z"/>
		<path id="s_74_" fill="#FFFFFF" d="M7.532,35.973l1.56-4.8l-4.083,2.968h5.046l-4.083-2.968L7.532,35.973z"/>
		<path id="s_73_" fill="#FFFFFF" d="M-3.239,35.973l1.56-4.8l-4.083,2.968h5.046L-4.8,31.173L-3.239,35.973z"/>
		<path id="s_72_" fill="#FFFFFF" d="M2.146,40.551l1.56-4.8l-4.083,2.968h5.046l-4.083-2.968L2.146,40.551z"/>
		<path id="s_71_" fill="#FFFFFF" d="M-30.168,22.238l1.56-4.8l-4.083,2.968h5.046l-4.083-2.968L-30.168,22.238z"/>
		<path id="s_29_" fill="#FFFFFF" d="M-24.782,26.816l1.56-4.8l-4.083,2.968h5.046l-4.083-2.968L-24.782,26.816z"/>
		<path id="s_24_" fill="#FFFFFF" d="M-19.396,31.395l1.56-4.8l-4.083,2.968h5.046l-4.083-2.968L-19.396,31.395z"/>
		<path id="s_6_" fill="#FFFFFF" d="M-14.011,35.973l1.56-4.8l-4.083,2.968h5.046l-4.083-2.968L-14.011,35.973z"/>
	</symbol>
</defs>
<g>
	<path fill="#EEBD34" d="M167.244,240.945c0,9.354-7.653,17.008-17.008,17.008H17.008C7.653,257.953,0,250.3,0,240.945V17.008
		C0,7.653,7.653,0,17.008,0h133.229c9.354,0,17.008,7.653,17.008,17.008V240.945z"/>
</g>
<path fill="#C5A43B" d="M85.691,40.963c0.399,1.046,0.399,3.754,0,4.8C85.691,44.165,85.691,42.563,85.691,40.963z"/>
<path fill="#C5A43B" d="M95.771,55.125c0.729-0.399,3.111-0.399,3.84,0C98.331,55.125,97.052,55.125,95.771,55.125z"/>
<path fill="#893E4F" d="M99.371,56.324c-0.32,1.759-2.557,1.604-2.88,3.36c0.125,1.155,2.206,0.354,2.642,1.2
	c-0.456,1.785-2.371,2.109-3.12,3.6c-0.237,0.958,0.717,0.723,0.479,1.68c-3.577,5.938-17.439,13.02-23.52,3.84
	c-1.922,0.281-2.621,3.529-4.561,4.56c-6.535-2.184-13.071-4.368-16.319-9.84c0.479,0,0.96,0,1.439,0
	c-0.584-2.216-2.81-2.791-3.359-5.04c0.693-0.713,2.15,0.268,2.64-0.24c-0.661-1.659-2.507-2.132-2.88-4.08
	c5.771-0.739,10.775,1.545,14.88,3.84c2.538,1.419,5.935,4.714,7.92,4.8c2.534,0.11,6.652-3.261,9.36-4.32
	C87.66,57.506,92.917,56.005,99.371,56.324z M55.451,58.963c-1.337,5.945,6.253,14.062,11.521,13.68
	c2.188-0.158,4.374-1.999,4.32-4.32c-0.098-4.207-8.285-8.818-12.48-9.84c-0.766-0.187-1.916-0.314-2.88-0.24
	C55.63,58.342,55.44,58.553,55.451,58.963z M74.172,67.604c-1.069,4.058,5.584,6.93,9.84,5.76c4.992-1.372,9.948-7.513,8.16-13.92
	C86.817,60.208,75.175,63.794,74.172,67.604z"/>
<path fill="#2F2A25" d="M115.932,66.403c0.396,0.336,0.396,2.304,0,2.64C115.932,68.165,115.932,67.285,115.932,66.403z"/>
<path fill="#893E4F" d="M52.571,72.884c-0.396-0.336-0.396-2.304,0-2.641C52.571,71.124,52.571,72.004,52.571,72.884z"/>
<path fill="#869A8A" d="M93.132,80.805c-0.077-0.557,0.038-0.922,0.238-1.2c0.24,0,0.48,0,0.722,0
	C94.191,80.424,94.019,80.972,93.132,80.805z"/>
<path fill="#893E4F" d="M77.771,93.765c-2.302,0.48-7.847,1.497-7.92-1.68c1.802-1.095,3.609,0.3,5.28-0.24
	c3.18-1.027,1.679-5.137,0.239-7.44c-1.575-0.416-3.096-0.894-4.319-0.479C75.942,78.059,79.951,89.575,77.771,93.765z"/>
<path fill="#893E4F" d="M68.411,82.244c1.01,0.271,1.425,1.137,2.4,1.44c-0.427,0.613-1.311,0.771-2.16,0.96
	C68.171,84.024,67.635,82.784,68.411,82.244z"/>
<path fill="#869A8A" d="M94.092,82.244c0.082,0.781,1.147,1.371,0.72,1.92c-0.24,0-0.48,0-0.72,0
	c0.066-0.627-0.088-1.032-0.722-0.96C93.161,82.435,93.994,82.707,94.092,82.244z"/>
<path fill="#C2BDB5" d="M70.812,85.125c0.259-0.397,2.141-0.397,2.4,0C72.411,85.125,71.611,85.124,70.812,85.125z"/>
<path fill="#C4A369" d="M79.212,88.725c0.551,0.489,0.087,1.993,0.239,2.88C78.9,91.114,79.364,89.61,79.212,88.725z"/>
<path fill="#C4A369" d="M86.892,103.363c-0.397-0.259-0.397-2.141,0-2.399C86.892,101.765,86.892,102.563,86.892,103.363z"/>
<path fill="#869A8A" d="M88.331,107.685c0.558-0.076,0.923,0.038,1.2,0.24c0.19,0.83-0.267,1.013-0.479,1.439
	C88.434,109.183,88.218,108.599,88.331,107.685z"/>
<path fill="#869A8A" d="M77.771,108.884c0.581,0.142,1.062,0.143,1.44,0.96c0.014,1.113-1.696,1.182-2.16,0.479
	C77.347,109.898,77.227,109.06,77.771,108.884z"/>
<path fill="#869A8A" d="M91.691,110.563c0.116,0.916-0.068,1.532-0.479,1.92c-0.562-0.079-0.991-0.288-1.439-0.479
	C89.018,110.489,90.414,109.183,91.691,110.563z"/>
<path fill="#893E4F" d="M116.411,124.725c-20.238,0-40.479,0-60.72,0c0.888-8.872,10.769-8.752,17.76-11.521
	c-0.047,1.394-1.254,1.626-1.68,2.641c0.946,1.7-0.961,2.313-0.72,3.84c0.365,2.317,3.398,2.352,4.56,0.24
	c0.337-1.278-0.011-2.037,0.72-3.12c2.619,2.336,8.052,1.895,10.561-0.24c0.392,2.045-2.958,2.759-3.12,4.561
	c-0.312,3.452,5.236,3.354,4.8-0.24c1.027-0.173,1.661-0.738,2.16-1.44c-0.267-1.866,0.771-2.396,1.68-3.6
	c-0.465-2.305,0.735-2.945,0.722-4.8c6.155,3.183,13.226,1.067,17.52,4.56c2.695,2.192,3.79,6.173,5.76,8.88
	C116.411,124.563,116.411,124.645,116.411,124.725z"/>
<path fill="#869A8A" d="M77.052,112.483c0.187,1.387-1.267,2.144-2.4,1.44C74.013,111.975,76.198,111.498,77.052,112.483z"/>
<path fill="#869A8A" d="M91.211,114.165c0.043,1.482-0.512,2.369-2.159,2.159c-0.665-0.644-0.854-1.538-0.48-2.64
	C89.727,113.523,90.417,113.508,91.211,114.165z"/>
<path fill="#869A8A" d="M75.371,115.363c0.124,1.577-1.013,2.018-2.159,1.681C72.531,115.903,74.044,114.454,75.371,115.363z"/>
<path fill="#869A8A" d="M89.531,117.765c0.105,0.825-0.095,1.345-0.239,1.92c-0.641,0-1.279,0-1.921,0
	C86.617,117.982,87.892,117.28,89.531,117.765z"/>
<path fill="#869A8A" d="M74.651,118.483c0.186,1.145-0.339,1.581-0.96,1.92c-0.896,0.018-1.375-0.386-1.68-0.96
	C71.97,118.272,73.708,117.904,74.651,118.483z"/>
<path fill="#869A8A" d="M87.611,121.125c-0.043,1.346-1.709,1.848-2.64,0.96C84.282,119.705,87.162,119.795,87.611,121.125z"/>
<path fill="#C2BDB5" d="M94.571,33.284c0.03,0.99-0.417,1.503-0.24,2.64c-1.077,0.039-0.648-1.43-0.96-2.16
	C94.05,34.549,94.188,33.935,94.571,33.284z"/>
<path fill="#893E4F" d="M48.491,50.563c0.769,0.592,1.033,1.687,1.681,2.4C49.316,52.458,48.977,51.438,48.491,50.563z"/>
<path fill="#893E4F" d="M51.371,39.765c1.035,1.765,2.388,3.213,4.08,4.32C53.553,43.184,52.173,41.762,51.371,39.765z"/>
<path fill="#2F2A25" d="M89.052,50.084c0,0.4,0,0.8,0,1.2c0.499-0.141,0.774-0.504,1.199-0.72c-0.257,0.544-0.729,0.872-1.439,0.96
	C88.949,51.103,88.521,50.113,89.052,50.084z"/>
<path fill="#C5A43B" d="M101.771,73.363c0.008,1.049,0.089,2.169-0.479,2.641C101.607,75.279,101.315,73.947,101.771,73.363z"/>
<path fill="#893E4F" d="M112.092,49.125c-0.15,0.89-0.675,1.405-0.96,2.16C110.751,50.812,111.726,49.648,112.092,49.125z"/>
<path fill="#C5A43B" d="M115.932,69.043c-1.169,6.511-10.181,5.18-12.721,10.32c0.28,2.165,3.159,2.585,5.04,2.4
	c-1.336,1.544-3.494,2.265-6,2.64c-0.204,1.245,1.3,0.78,1.439,1.681c-1.692,0.607-4.119,1.285-6.24,0.72
	c-0.117-2.621-0.613-3.729-1.438-6c2.484-0.874,4.496-2.225,5.278-4.8c0.569-0.472,0.488-1.592,0.48-2.641
	c1.547,0.188,2.365-0.354,3.6-0.479c-0.84-1.418-2.93-0.555-4.318-0.721c-2.57-0.307-4.466-1.521-5.521-3.12
	c0.375-1.225,1.576-1.624,2.16-2.64c0.038-0.758,0.009-1.448-0.479-1.68c1.852-1.254,4.896-5.163,0.961-5.52
	c0.968-0.792,2.311-1.209,2.64-2.64c-0.262-0.618-0.606-1.153-1.2-1.44c-0.729-0.399-3.11-0.399-3.84,0
	c-2.117-0.143-2.609,0.777-5.04,0.72c-0.328-2.171,0.094-2.866,0.24-5.28c-0.24,0-0.48,0-0.721,0c-0.425,0.216-0.7,0.579-1.199,0.72
	c0-0.4,0-0.8,0-1.2s0-0.8,0-1.2c-1.908-0.068-2.08,1.601-3.841,1.68c-0.035-0.737,0.845-1.079,0.239-1.68
	c-4.632-2.508-9.87,1.354-12,4.56c-1.692,2.55-2.134,5.841-6.72,5.76c-4.315-2.772-9.69-4.647-14.64-5.52
	c-1.809-2.68-4.486-5.743-4.08-9.84c0.886,0.243,1.762,1.476,2.88,0.72c-0.003-1.526-1.171-4.242-0.24-6.24
	c0.517,0.203,0.387,1.053,0.72,1.44c0.803,1.998,2.182,3.419,4.08,4.32c0.681,0.393,1.869,0.76,2.4,0
	c0.15-1.357-1.661-2.01-1.2-2.88c1.645,1.798,6.563,1.97,8.16,0c-5.794-6.523,0.897-15.312,9.6-14.64
	c0.367-1.327-1.064-0.855-0.96-1.92c7.072-1.293,12.523,2.491,15.12,7.2c0.979,0.244,1.118-1.583,1.44-1.2
	c1.615,1.126,2.553,4.442,2.398,7.2c-0.063,1.16-1.206,2.629,0,3.12c2.027-0.853,2.319-3.441,3.12-5.52
	c1.336,2.716,1.113,5.872,0.24,8.88c3.804-0.572,10.368-3.747,15.12-1.2c1.262,1.255,1.809,3.548,1.2,6
	c-0.366,0.524-1.341,1.687-0.96,2.16c1.771,1.508,4.354,2.205,5.278,4.56c0.517,3.236-1.148,4.291-1.92,6.24
	c0.444,1.476,1.198,2.642,1.44,4.32C115.932,67.285,115.932,68.165,115.932,69.043z M84.012,39.765
	c-1.767-4.067-8.203-6.855-12.48-3.84c-2.89,2.037-1.694,6.155-3.12,9.6c-0.806,0.954-1.709,1.811-2.88,2.4c-0.319,0-0.64,0-0.96,0
	c-0.283-0.421-2.188-0.444-2.16,0.24c0.457,0.103,0.604,0.517,1.2,0.48c2.202,1.309,5.249-0.625,6.24-2.64
	c1.083-2.204,0.157-5.993,1.68-8.16c1.814-2.581,6.465-2.32,9.12-0.479c1.284,0.89,1.11,2.076,2.88,3.36
	c0.166,0.752,0.642,0.313,1.2,0.24c0,1.04,0,2.08,0,3.12c-0.411,1.173-0.079,3.307,0.96,1.68c0.399-1.046,0.399-3.754,0-4.8
	c0.088-0.99-0.094-3.295-1.2-3.84c-0.565,0.563,0.039,1.179,0,1.92C84.526,39.703,84.536,40.282,84.012,39.765z M84.731,35.685
	c0.376,0.744,0.667,1.573,1.44,1.92c0.667,1.973,1.665,3.614,2.158,5.76c-0.157,0.885,0.537,2.979,0.722,4.32
	c0.601,0.041,0.751-0.369,0.96-0.72c0.437-2.476,1.607-5.574-0.48-6.96c-0.11,0.955,0.559,2.129-0.239,2.64
	c-0.567-0.986-0.801-2.633-1.439-3.84C87.057,37.306,85.692,35.301,84.731,35.685z M69.852,51.765
	c2.359-1.911,5.669-3.777,8.64-4.32C74.744,46.109,71.144,49.046,69.852,51.765z M106.331,67.125
	c-1.757,1.434-4.241,1.416-5.76,2.64c4.678,0.977,8.375-3.13,9.602-7.2c-0.055-0.187-0.201-0.279-0.48-0.24
	C108.442,63.958,107.725,65.986,106.331,67.125z M108.731,72.164c-1.493,1.147-4.063,1.217-5.521,2.4
	c4.414,0.797,7.799-2.474,9.36-6c-0.774,0.184-1.256,0.664-1.438,1.44C110.354,70.748,109.269,71.182,108.731,72.164z"/>
<path fill="#C5A43B" d="M65.531,47.923c1.17-0.589,2.074-1.446,2.88-2.4C67.807,46.678,66.962,47.594,65.531,47.923z"/>
<path fill="#C5A43B" d="M63.611,48.645c-0.597,0.037-0.743-0.377-1.2-0.48c-0.027-0.685,1.877-0.661,2.16-0.24
	C62.953,47.836,62.254,47.962,63.611,48.645z"/>
<path fill="#C5A43B" d="M84.491,39.043c0.479,1.18,0.75,3.271,0.24,5.04c0-1.04,0-2.08,0-3.12c-0.56,0.073-1.034,0.512-1.2-0.24
	c0.919,0.649,1.07-0.396,0.48-0.96C84.536,40.282,84.526,39.703,84.491,39.043z"/>
<path fill="#2F2A25" d="M84.491,39.043c0.039-0.741-0.565-1.357,0-1.92c1.106,0.544,1.288,2.85,1.2,3.84c0,1.6,0,3.2,0,4.8
	c-1.039,1.626-1.371-0.507-0.96-1.68C85.241,42.315,84.97,40.224,84.491,39.043z"/>
<path fill="#C5A43B" d="M84.731,35.685c0.683,0.437,0.922,1.318,1.44,1.92C85.398,37.256,85.107,36.427,84.731,35.685z"/>
<path fill="#C5A43B" d="M88.331,43.363c0.324,1.277,0.817,2.383,0.722,4.08c0.653,0.175,0.481-0.477,0.96-0.48
	c-0.209,0.352-0.359,0.761-0.96,0.72C88.868,46.343,88.173,44.25,88.331,43.363z"/>
<path fill="#2F2A25" d="M84.731,35.685c0.961-0.382,2.325,1.622,3.12,3.12c0.64,1.207,0.872,2.854,1.438,3.84
	c0.799-0.511,0.13-1.685,0.24-2.64c2.089,1.386,0.917,4.484,0.48,6.96c-0.479,0.003-0.307,0.655-0.96,0.48
	c0.097-1.697-0.396-2.803-0.722-4.08c-0.493-2.146-1.491-3.787-2.158-5.76C85.653,37.002,85.414,36.122,84.731,35.685z"/>
<path fill="#893E4F" d="M70.812,61.843c0.739,0.461,1.206,1.195,2.4,1.2C72.4,63.604,71.199,62.503,70.812,61.843z"/>
<path fill="#C4A369" d="M88.331,53.685c0.105-0.295,0.309-0.493,0.722-0.48c0.371,0.349,0.211,1.229,0.239,1.92
	C88.731,54.879,89.438,52.647,88.331,53.685z"/>
<path fill="#C4A369" d="M84.251,52.245c0.539-0.66,1.697-0.702,2.399-1.2C86.213,51.806,85.088,51.88,84.251,52.245z"/>
<path fill="#2F2A25" d="M55.932,58.245c0.964-0.074,2.114,0.053,2.88,0.24c4.195,1.022,12.383,5.633,12.48,9.84
	c0.053,2.321-2.134,4.162-4.32,4.32c-5.268,0.382-12.857-7.735-11.521-13.68C55.44,58.553,55.63,58.342,55.932,58.245z
	 M59.052,66.645c0.829,0.451,0.831,1.729,2.16,1.68c0.757-2.204,2.421-3.499,3.359-5.521c-0.686-0.595-1.464-1.096-2.399-1.439
	C61.21,63.203,59.901,64.694,59.052,66.645z M68.892,69.043c0.669-0.391,1.521-1.542,0.96-2.4c-0.739,0.221-0.959,0.96-1.44,1.44
	c-0.166,1.434-1.273,1.925-1.68,3.12C68.21,71.243,68.031,69.624,68.892,69.043z"/>
<path fill="#EEBD33" d="M85.451,65.443c-0.526,0.913-0.898,1.98-1.68,2.64C84.299,67.171,84.671,66.104,85.451,65.443z"/>
<path fill="#2F2A25" d="M109.691,62.325c0.279-0.039,0.427,0.053,0.48,0.24c-1.227,4.07-4.924,8.177-9.602,7.2
	c1.519-1.224,4.003-1.206,5.76-2.64C107.725,65.986,108.442,63.958,109.691,62.325z"/>
<path fill="#EEBD33" d="M76.331,67.844c0.388,0.067,0.413-0.227,0.721-0.24c-0.271,0.449-0.271,0.449-0.64,0.973
	c0.007,0.233-0.081,0-0.081,0.227c-0.256,0.224-0.074,0.885-0.72,0.72c0.4-0.477-0.021-0.305,0-0.96
	C76.165,68.637,75.878,67.871,76.331,67.844z"/>
<path fill="#EEBD33" d="M77.052,67.363c0.28-0.311,1.396-2.146,0.479-1.44c-0.08,0-0.16,0-0.239,0
	c0.309-0.411,0.495-0.943,1.199-0.96C78.173,65.924,77.87,66.903,77.052,67.363z"/>
<path fill="#EEBD33" d="M77.292,65.923c0.079,0,0.159,0,0.239,0c0.916-0.706-0.199,1.129-0.479,1.44c0,0.08,0,0.16,0,0.24
	c-0.308,0.013-0.333,0.308-0.721,0.24C76.38,66.933,77.341,66.934,77.292,65.923z"/>
<path fill="#EEBD33" d="M68.892,69.043c1.224-1.428,1.023-2.763-0.48-0.96c0.481-0.479,0.701-1.219,1.44-1.44
	C70.412,67.502,69.561,68.653,68.892,69.043z"/>
<path fill="#2F2A25" d="M108.731,72.164c0.537-0.982,1.623-1.416,2.4-2.159c-0.459,0.981-1.605,1.274-2.16,2.159
	C108.892,72.164,108.812,72.164,108.731,72.164z"/>
<path fill="#2F2A25" d="M111.132,70.004c0.184-0.776,0.664-1.256,1.438-1.44c-1.563,3.526-4.946,6.797-9.359,6
	c1.456-1.184,4.026-1.253,5.521-2.4c0.08,0,0.16,0,0.24,0C109.526,71.278,110.673,70.985,111.132,70.004z"/>
<path fill="#C4A369" d="M92.651,70.964c0.306-0.734,1.374-0.706,1.68-1.44c0.713,0.497-0.342,1.239-0.72,1.44
	C93.575,70.367,92.799,70.895,92.651,70.964z"/>
<path fill="#C4A369" d="M84.491,75.523c2.36-1.029,6.158-2.402,8.16-4.56c0.147-0.07,0.924-0.598,0.96,0
	c-0.288,0.314-0.094,0.377,0,0.72c0.992-0.455,1.882-1.011,2.64,0c0.229,1.094-2.168,1.464-2.158,3.12
	c1.146,0.107,1.052-1.027,1.92-1.2c0.637-0.462,1.415,0.539,1.199,1.68c-0.379,0.822-0.791,1.608-1.439,2.16
	c1.679,0.828,3.738-2.336,2.64-4.56c0.279,0.201,0.645,0.316,1.2,0.239c0.007,0.233,0.294,0.187,0.48,0.24
	c0.022,0.984,0.047,1.968-0.24,2.641c0,0.08,0,0.159,0,0.239c-0.558,1.043-1.477,1.725-2.16,2.641
	c-0.825,0.135-1.446,0.474-2.16,0.72c-0.669-1.43-2.681-1.31-3.6-0.24c-0.929,6.924-5.546,13.255-5.04,21.601
	c-0.397,0.259-0.397,2.141,0,2.399c-0.113,3.466,0.35,6.6,1.68,9.36c-1.224,0.137-1.303,1.417-1.68,2.4
	c-2.392,2.033-7.533,3.355-9.601,0.239c0.245-1.114,1.289-1.431,0.961-3.12c1.012-0.04,1.214-1.151,1.92-0.239
	c0.278,0.039,0.427-0.054,0.479-0.24c1.747-3.65,0.412-7.333,1.2-9.84c0.73-2.326,3.198-3.714,3.359-6.96
	c-2.301,1.379-2.482,4.877-4.801,6.239c-0.681,0.52-1.801,0.599-2.399,1.2c-1.095-0.121-1.36,0.417-2.16,0
	c-1.499,0.371-2.808-0.702-3.36-0.479c-4.303-1.712-3.148-7.726-5.52-11.04c-0.788-6.359-6.784-10.44-4.8-17.28
	c1.645,0.516,3.167,1.152,4.8,1.68c-0.057,0.904-0.904,1.017-0.96,1.92c0.046,0.194,0.241,0.239,0.239,0.48
	c0.432,1.169,1.517,1.684,2.881,1.92c0.388,0.067,0.413-0.227,0.72-0.24c-0.358-1.082-1.827-1.053-2.16-2.16
	c0.503-1.416,1.938-1.901,2.64-3.119c0.786-0.895,1.484-1.876,2.16-2.881c2.395,2.327,4.932,4.51,9.601,4.561
	C83.019,75.812,83.86,75.772,84.491,75.523z M79.212,88.725c-0.412-4.723-4.06-10.25-8.641-6.48c-1.416-0.791-2.844-1.241-3.84,0.24
	c0.334,3.894,3.67,3.76,3.6,7.68c-5.748,4.866,4.604,6.037,7.92,4.32c0.602-0.759,1.514-1.207,1.2-2.88
	C79.299,90.717,79.763,89.213,79.212,88.725z M70.092,77.924c1.821,0.042,2.438,1.141,3.6,0.72c0-0.32,0-0.64,0-0.96
	C72.72,77.235,70.49,76.308,70.092,77.924z M80.172,80.324c-0.613,0.027-0.478,0.804-0.48,1.44c0.565-0.006,0.707,0.413,1.44,0.24
	c0.138-0.146,0.562-1.139,0-1.2c0.001-0.241-0.194-0.286-0.24-0.479C80.651,80.324,80.411,80.324,80.172,80.324z"/>
<path fill="#C4A369" d="M67.691,77.204c-0.149-1.114,1.797-2.198,2.64-3.119C69.63,75.302,68.194,75.788,67.691,77.204z"/>
<path fill="#C4A369" d="M69.132,79.604c-1.364-0.236-2.449-0.751-2.88-1.92C66.886,78.649,68.089,79.047,69.132,79.604z"/>
<path fill="#C4A369" d="M78.012,102.403c0.599-0.602,1.719-0.681,2.399-1.2C79.957,101.951,78.94,102.133,78.012,102.403z"/>
<path fill="#893E4F" d="M78.491,112.004c0.307-0.574,0.783-0.978,1.681-0.96c-0.082,0.481,0.049,0.751,0.479,0.72
	c-0.053,0.187-0.201,0.279-0.479,0.24c-0.127-0.193-0.25-0.39-0.24-0.721C79.2,111.272,78.998,111.791,78.491,112.004z"/>
<path fill="#C4A369" d="M97.691,78.884c0.685-0.916,1.604-1.598,2.16-2.641C99.564,77.558,98.594,78.187,97.691,78.884z"/>
<path fill="#C4A369" d="M99.611,73.124c1.21-0.119,0.836,2.617,0.24,2.881c0.287-0.673,0.264-1.656,0.24-2.641
	C99.905,73.311,99.618,73.356,99.611,73.124z"/>
<path fill="#C4A369" d="M97.211,75.284c0.216-1.141-0.563-2.142-1.199-1.68C96.411,72.382,98.105,74.496,97.211,75.284z"/>
<path fill="#869A8A" d="M78.491,112.004c0.507-0.214,0.709-0.731,1.44-0.721c-0.01,0.331,0.113,0.527,0.24,0.721
	c-0.706-0.912-0.908,0.199-1.921,0.239C78.207,112.04,78.345,112.019,78.491,112.004z"/>
<path fill="#C4A369" d="M75.852,102.403c-0.981,0.651-2.688-0.025-3.36-0.479C73.044,101.702,74.354,102.774,75.852,102.403z"/>
<path fill="#C4A369" d="M82.092,75.765c0.431-0.303,2.227-0.475,2.399-0.24C83.86,75.772,83.019,75.812,82.092,75.765z"/>
<path fill="#2F2A25" d="M73.691,77.685c0,0.32,0,0.64,0,0.96c-1.162,0.421-1.778-0.678-3.6-0.72
	C70.49,76.308,72.72,77.235,73.691,77.685z"/>
<path fill="#C4A369" d="M81.132,80.805c0.562,0.062,0.138,1.055,0,1.2c-0.733,0.173-0.875-0.246-1.44-0.24
	c0.003-0.637-0.133-1.413,0.48-1.44c-0.445,0.474-0.357,1.768,0.72,1.44c0.281-0.039,0.202-0.438,0.24-0.72
	C81.132,80.964,81.132,80.884,81.132,80.805z"/>
<path fill="#C2BDB5" d="M71.531,89.443c-0.393-1.527-1.239-2.601-1.439-4.319c0.239,0,0.479,0,0.72,0c0.8-0.001,1.6,0,2.4,0
	c0.159,0,0.319,0,0.479,0c1.105,0.494,1.273,1.927,1.92,2.88c0,0.159,0,0.319,0,0.479c0,0.641,0,1.28,0,1.92
	c-0.146,0.415-1.138-0.019-1.2,0.48c-0.08,0-0.16,0-0.239,0c-0.599-0.202-1.286-0.314-2.16-0.24
	C72.048,90.048,71.888,89.647,71.531,89.443z"/>
<path fill="#C2BDB5" d="M74.172,90.884c-0.267,0.479-1.289-0.293-2.16,0c-0.191-0.448-0.401-0.879-0.48-1.44
	c0.356,0.204,0.517,0.604,0.48,1.2C72.886,90.569,73.573,90.683,74.172,90.884z"/>
<path fill="#C2BDB5" d="M73.691,85.125c1.24,0.359,1.749,1.451,1.92,2.88C74.965,87.051,74.797,85.619,73.691,85.125z"/>
<path fill="#C2BDB5" d="M75.611,88.483c0.542,0.179,0.094,1.347,0.24,1.92c-0.427,0.214-0.61,0.67-1.44,0.48
	c0.063-0.499,1.056-0.065,1.2-0.48C75.611,89.765,75.611,89.125,75.611,88.483z"/>
<path fill="#2F2A25" d="M92.172,59.443c1.788,6.407-3.168,12.548-8.16,13.92c-4.256,1.17-10.909-1.702-9.84-5.76
	C75.175,63.794,86.817,60.208,92.172,59.443z M85.451,65.443c0.334-1.506,1.271-2.409,1.682-3.84
	c-4.795,1.445-5.499,6.981-8.4,10.32c0.659,0.381,1.741,0.339,2.4,0.72c0.97-1.43,1.816-2.983,2.64-4.56
	C84.552,67.424,84.924,66.356,85.451,65.443z M77.052,67.363c0.818-0.46,1.121-1.439,1.439-2.4c-0.704,0.017-0.891,0.549-1.199,0.96
	c0.049,1.009-0.912,1.008-0.961,1.92c-0.453,0.026-0.167,0.793-0.72,0.72c-0.021,0.655,0.4,0.483,0,0.96
	c0.646,0.165,0.464-0.496,0.72-0.72c0-0.129,0.023,0,0.018-0.234c0.491-0.619,0.432-0.517,0.703-0.966
	C77.052,67.523,77.052,67.443,77.052,67.363z"/>
<path fill="#EEBD33" d="M83.771,68.084c-0.823,1.577-1.67,3.13-2.64,4.56c-0.659-0.381-1.741-0.339-2.4-0.72
	c2.901-3.339,3.605-8.875,8.4-10.32c-0.409,1.431-1.348,2.333-1.682,3.84C84.671,66.104,84.299,67.171,83.771,68.084z"/>
<path fill="#EEBD33" d="M68.411,68.084c1.504-1.803,1.704-0.468,0.48,0.96c-0.86,0.58-0.681,2.199-2.16,2.16
	C67.137,70.009,68.245,69.519,68.411,68.084z"/>
<path fill="#C5A43B" d="M60.972,72.884c-2.098,5.426,1.406,9.604,3.12,13.92c-0.951,0.489-1.872,1.008-3.36,0.96
	c-0.005-0.565,0.413-0.707,0.24-1.44c-1.296-0.624-3.489-0.351-4.561-1.199c-0.179-0.739,0.659-0.462,0.48-1.2
	c-1.056-1.107-3.478-2.119-3.601-3.36c1.468,0.036,4.108,0.846,4.801-0.479c-2.744-2.263-5.563-6.305-4.08-11.28
	C56.141,70.355,58.214,71.961,60.972,72.884z"/>
<path fill="#2F2A25" d="M80.172,80.324c0.239,0,0.479,0,0.72,0c0.045,0.194,0.241,0.239,0.24,0.479c0,0.08,0,0.16,0,0.24
	c-0.038,0.282,0.042,0.681-0.24,0.72C79.814,82.091,79.727,80.797,80.172,80.324z"/>
<path fill="#869A8A" d="M104.651,41.205c0.729-0.399,3.111-0.399,3.84,0C107.212,41.205,105.932,41.205,104.651,41.205z"/>
<path fill="#869A8A" d="M93.371,81.765c2.675-0.776,2.93,3.943,3.12,6.479c0.248,3.279,0.271,8.828-1.68,9.12
	C91.303,97.891,91.067,83.5,93.371,81.765z M93.371,83.204c0.634-0.072,0.788,0.333,0.722,0.96c0.238,0,0.479,0,0.72,0
	c0.429-0.549-0.638-1.139-0.72-1.92C93.994,82.707,93.161,82.435,93.371,83.204z"/>
<path fill="#2F2A25" d="M48.491,50.563c-1.205-1.652-2.979-7.019-0.479-8.64c0.668,0.211,0.568,1.191,1.439,1.2
	c-0.932-2.235-0.214-5.611,1.681-6.96c1.205,2.486,2.246,6.378,4.8,6.72c-0.168-1.286-2.219-3.105-0.48-4.08
	c1.723,1.477,4.053,3.36,7.44,2.4c-0.108-1.662-1.333-2.318-1.68-3.6c-1.594-5.898,4.148-10.929,9.84-11.76
	c0.354-0.651-0.075-1.352,0.96-1.68c6.382-2.749,13.342,0.853,15.84,5.04c0.81-0.151,0.589-1.332,1.438-1.44
	c2.102,1.26,2.937,3.784,4.08,6c0.312,0.73-0.117,2.199,0.96,2.16c-0.177-1.137,0.271-1.65,0.24-2.64
	c3.103-1.044,3.573,6.818,2.88,9.6c2.332-0.628,4.355-1.565,7.2-1.68c1.28,0,2.562,0,3.84,0c4.934-0.086,6.521,6.073,4.08,9.84
	c4.832,0.873,6.796,7.411,3.36,11.28c3.802,6.573-0.784,12.151-6,14.16c-1.823,0.702-5.402,0.47-5.04,3.601
	c1.258,1.354,4.12-0.301,5.28,0.239c-0.266,2.775-2.555,3.527-4.802,4.32c-0.18,0.82,0.977,0.305,0.722,1.2
	c-1.6,2.001-5.215,1.986-8.4,2.399c-0.457,4.279,0.382,10.65-3.6,10.32c-3.558-0.294-2.767-7.207-3.602-11.04
	c-1.877,5.094-3.143,12.044-2.398,18.96c2.047-0.047,2.474,1.525,3.358,2.641c6.023,4.164,14.779,1.571,19.682,5.52
	c2.764,2.227,4.479,6.567,6,10.08c-0.24,0-0.48,0-0.722,0c0-0.08,0-0.16,0-0.24c-1.97-2.707-3.063-6.688-5.76-8.88
	c-4.294-3.492-11.363-1.377-17.52-4.56c0.015,1.854-1.187,2.495-0.722,4.8c-0.907,1.203-1.945,1.733-1.68,3.6
	c-0.499,0.702-1.133,1.268-2.16,1.44c0.438,3.594-5.111,3.692-4.8,0.24c0.162-1.802,3.512-2.516,3.12-4.561
	c-2.509,2.135-7.941,2.576-10.561,0.24c-0.73,1.083-0.383,1.842-0.72,3.12c-1.161,2.111-4.195,2.077-4.56-0.24
	c-0.241-1.526,1.667-2.14,0.72-3.84c0.426-1.015,1.633-1.247,1.68-2.641c-6.992,2.769-16.872,2.648-17.76,11.521
	c-0.48,0-0.96,0-1.44,0c1.147-10.773,14.442-9.397,21.841-13.92c-0.268-1.627,0.692-2.027,1.439-2.64
	c1.542,0.262,2.07-0.49,3.12-0.721c0-1.6,0-3.2,0-4.8c-4.99,1.824-9.415,1.045-11.76-2.4c-2.285-3.355-1.921-8.799-4.08-12.239
	c-5.021,2.375-5.39-1.548-8.88-1.92c-0.459-3.142-4.074-3.126-4.32-6.48c1.578-0.058,3.029,0.011,4.32,0.24
	c-1.367-2.073-3.202-3.678-3.36-6.96c0-0.88,0-1.761,0-2.641c-0.169-1.209,0.431-1.649,0.72-2.399
	c-0.958-0.643-1.812-1.389-2.159-2.64c1.243-2.762-1.744-3.098-2.16-5.52c0.287-0.754,1.049-1.031,1.439-1.68
	c-0.507-0.933-1.639-1.241-1.439-2.88c-0.007-1.127,1.962-0.278,2.16-1.2c-0.356-0.283-1.072-0.208-0.96-0.96
	C49.524,52.25,49.26,51.157,48.491,50.563z M112.092,49.125c0.607-2.452,0.062-4.745-1.2-6c-4.752-2.547-11.316,0.628-15.12,1.2
	c0.873-3.008,1.096-6.164-0.24-8.88c-0.801,2.079-1.093,4.667-3.12,5.52c-1.206-0.491-0.063-1.96,0-3.12
	c0.153-2.758-0.782-6.073-2.398-7.2c-0.322-0.383-0.463,1.443-1.44,1.2c-2.597-4.708-8.048-8.493-15.12-7.2
	c-0.104,1.065,1.327,0.593,0.96,1.92c-8.701-0.672-15.394,8.117-9.6,14.64c-1.597,1.97-6.516,1.798-8.16,0
	c-0.461,0.87,1.351,1.523,1.2,2.88c-0.532,0.76-1.72,0.393-2.4,0c-1.692-1.106-3.045-2.555-4.08-4.32
	c-0.333-0.388-0.202-1.237-0.72-1.44c-0.931,1.999,0.236,4.714,0.24,6.24c-1.118,0.755-1.994-0.477-2.88-0.72
	c-0.406,4.097,2.271,7.16,4.08,9.84c4.949,0.873,10.324,2.748,14.64,5.52c4.586,0.081,5.026-3.21,6.72-5.76
	c2.131-3.207,7.368-7.068,12-4.56c0.604,0.601-0.274,0.943-0.239,1.68c1.761-0.08,1.933-1.748,3.841-1.68c0,0.4,0,0.8,0,1.2
	c-0.53,0.03-0.104,1.018-0.24,1.44c0.712-0.088,1.184-0.416,1.439-0.96c0.239,0,0.479,0,0.721,0c-0.146,2.414-0.568,3.109-0.24,5.28
	c2.431,0.057,2.923-0.862,5.04-0.72c1.28,0,2.56,0,3.84,0c0.595,0.287,0.938,0.822,1.2,1.44c-0.329,1.431-1.672,1.848-2.64,2.64
	c3.936,0.357,0.891,4.266-0.961,5.52c0.488,0.231,0.519,0.921,0.479,1.68c-0.584,1.016-1.785,1.415-2.16,2.64
	c1.056,1.598,2.95,2.813,5.521,3.12c1.39,0.166,3.479-0.697,4.318,0.721c-1.233,0.125-2.053,0.667-3.6,0.479
	c-0.456,0.584-0.164,1.916-0.48,2.641c-0.782,2.575-2.794,3.926-5.278,4.8c0.825,2.271,1.321,3.379,1.438,6
	c2.121,0.565,4.549-0.112,6.24-0.72c-0.141-0.9-1.645-0.436-1.439-1.681c2.506-0.375,4.664-1.096,6-2.64
	c-1.881,0.185-4.76-0.235-5.04-2.4c2.541-5.14,11.552-3.809,12.721-10.32c0.396-0.336,0.396-2.304,0-2.64
	c-0.242-1.678-0.996-2.844-1.44-4.32c0.771-1.95,2.437-3.004,1.92-6.24c-0.925-2.354-3.509-3.051-5.278-4.56
	C111.417,50.529,111.941,50.015,112.092,49.125z M84.251,52.245c-0.358-0.041-0.886,0.085-0.959-0.24
	c-0.195-1.314,0.801-1.438,0.72-2.64c-9.241-1.57-8.796,9.706-15.602,10.56c0.487,0.953,1.548,1.333,2.4,1.92
	c0.388,0.66,1.589,1.76,2.4,1.2c4.614-2.905,9.985-5.054,15.84-6.72c-0.077-0.556,0.038-0.921,0.238-1.2
	c-0.027-0.691,0.133-1.571-0.238-1.92c-0.413-0.013-0.615,0.185-0.722,0.48c-0.277,0.201-0.644,0.316-1.198,0.24
	c-0.573-1.122,0.345-1.998,0.479-3.12c-0.454-0.054-0.529,0.271-0.96,0.24C85.949,51.542,84.792,51.584,84.251,52.245z
	 M82.092,59.685c-2.708,1.059-6.826,4.43-9.36,4.32c-1.985-0.086-5.382-3.381-7.92-4.8c-4.104-2.295-9.109-4.579-14.88-3.84
	c0.373,1.948,2.219,2.421,2.88,4.08c-0.489,0.508-1.946-0.473-2.64,0.24c0.55,2.25,2.775,2.824,3.359,5.04c-0.479,0-0.96,0-1.439,0
	c3.248,5.472,9.784,7.656,16.319,9.84c1.939-1.03,2.639-4.278,4.561-4.56c6.08,9.18,19.942,2.098,23.52-3.84
	c0.237-0.958-0.717-0.723-0.479-1.68c0.749-1.491,2.664-1.815,3.12-3.6c-0.436-0.846-2.517-0.044-2.642-1.2
	c0.323-1.757,2.56-1.602,2.88-3.36C92.917,56.005,87.66,57.506,82.092,59.685z M54.012,68.804c-1.481,4.976,1.336,9.018,4.08,11.28
	c-0.692,1.325-3.333,0.516-4.801,0.479c0.123,1.241,2.545,2.253,3.601,3.36c0.179,0.738-0.659,0.461-0.48,1.2
	c1.071,0.849,3.265,0.575,4.561,1.199c0.173,0.733-0.245,0.875-0.24,1.44c1.488,0.048,2.409-0.471,3.36-0.96
	c-1.714-4.315-5.218-8.494-3.12-13.92C58.214,71.961,56.141,70.355,54.012,68.804z M93.611,70.964
	c0.378-0.201,1.433-0.943,0.72-1.44c-0.306,0.734-1.374,0.706-1.68,1.44c-2.002,2.157-5.8,3.53-8.16,4.56
	c-0.173-0.234-1.969-0.063-2.399,0.24c-4.669-0.051-7.207-2.233-9.601-4.561c-0.676,1.005-1.374,1.986-2.16,2.881
	c-0.843,0.921-2.791,2.005-2.64,3.119c0.333,1.107,1.802,1.078,2.16,2.16c-0.307,0.014-0.333,0.308-0.72,0.24
	c-1.043-0.557-2.246-0.954-2.881-1.92c0-0.241-0.193-0.286-0.239-0.48c0.056-0.903,0.903-1.016,0.96-1.92
	c-1.632-0.527-3.155-1.164-4.8-1.68c-1.984,6.84,4.012,10.921,4.8,17.28c2.371,3.314,1.217,9.328,5.52,11.04
	c0.673,0.454,2.379,1.131,3.36,0.479c0.799,0.417,1.063-0.121,2.16,0c0.929-0.271,1.945-0.453,2.399-1.2
	c2.317-1.362,2.5-4.86,4.801-6.239c-0.161,3.246-2.629,4.634-3.359,6.96c-0.789,2.507,0.547,6.189-1.2,9.84
	c-0.431,0.031-0.562-0.238-0.479-0.72c-0.897-0.018-1.375,0.386-1.681,0.96c-0.146,0.014-0.284,0.035-0.239,0.239
	c0.328,1.689-0.716,2.006-0.961,3.12c2.067,3.116,7.209,1.794,9.601-0.239c0.377-0.983,0.456-2.264,1.68-2.4
	c-1.33-2.761-1.793-5.895-1.68-9.36c0-0.8,0-1.6,0-2.399c-0.506-8.346,4.111-14.677,5.04-21.601c0.919-1.069,2.931-1.189,3.6,0.24
	c0.714-0.246,1.335-0.585,2.16-0.72c0.902-0.698,1.873-1.327,2.16-2.641c0-0.08,0-0.159,0-0.239c0.596-0.264,0.97-3-0.24-2.881
	c-0.557,0.077-0.921-0.038-1.2-0.239c1.1,2.224-0.961,5.388-2.64,4.56c0.648-0.552,1.063-1.338,1.439-2.16
	c0.895-0.788-0.801-2.901-1.199-1.68c-0.868,0.173-0.773,1.308-1.92,1.2c-0.01-1.656,2.389-2.026,2.158-3.12
	c-0.758-1.011-1.646-0.455-2.64,0C93.518,71.341,93.323,71.278,93.611,70.964z M94.092,79.604c-0.24,0-0.48,0-0.722,0
	c-0.2,0.278-0.315,0.644-0.238,1.2C94.019,80.972,94.191,80.424,94.092,79.604z M94.812,97.363c1.95-0.292,1.928-5.841,1.68-9.12
	c-0.19-2.536-0.445-7.256-3.12-6.479C91.067,83.5,91.303,97.891,94.812,97.363z M89.052,109.363c0.213-0.427,0.67-0.609,0.479-1.439
	c-0.277-0.202-0.644-0.316-1.2-0.24C88.218,108.599,88.434,109.183,89.052,109.363z M77.052,110.324
	c0.464,0.702,2.174,0.634,2.16-0.479c-0.379-0.817-0.859-0.818-1.44-0.96C77.227,109.06,77.347,109.898,77.052,110.324z
	 M89.771,112.004c0.448,0.191,0.879,0.4,1.439,0.479c0.411-0.388,0.597-1.004,0.479-1.92
	C90.414,109.183,89.018,110.489,89.771,112.004z M74.651,113.924c1.134,0.703,2.586-0.054,2.4-1.44
	C76.198,111.498,74.013,111.975,74.651,113.924z M88.571,113.685c-0.374,1.102-0.185,1.996,0.48,2.64
	c1.647,0.21,2.202-0.677,2.158-2.159C90.417,113.508,89.727,113.523,88.571,113.685z M73.212,117.044
	c1.146,0.337,2.283-0.104,2.159-1.681C74.044,114.454,72.531,115.903,73.212,117.044z M87.371,119.685c0.642,0,1.28,0,1.921,0
	c0.146-0.575,0.346-1.095,0.239-1.92C87.892,117.28,86.617,117.982,87.371,119.685z M72.012,119.443
	c0.306,0.574,0.783,0.978,1.68,0.96c0.621-0.339,1.146-0.775,0.96-1.92C73.708,117.904,71.97,118.272,72.012,119.443z
	 M84.972,122.084c0.931,0.888,2.597,0.386,2.64-0.96C87.162,119.795,84.282,119.705,84.972,122.084z"/>
<path fill="#2F2A25" d="M68.411,45.523c1.426-3.445,0.23-7.563,3.12-9.6c4.278-3.015,10.715-0.227,12.48,3.84
	c0.59,0.564,0.438,1.609-0.48,0.96c-1.77-1.285-1.596-2.47-2.88-3.36c-2.655-1.84-7.306-2.101-9.12,0.48
	c-1.522,2.167-0.597,5.956-1.68,8.16c-0.991,2.016-4.039,3.949-6.24,2.64c-1.356-0.681-0.658-0.807,0.96-0.72c0.32,0,0.641,0,0.96,0
	C66.962,47.594,67.807,46.678,68.411,45.523z"/>
<path fill="#2F2A25" d="M78.491,47.443c-2.97,0.543-6.279,2.41-8.64,4.32C71.144,49.046,74.744,46.109,78.491,47.443z"/>
<path fill="#2F2A25" d="M79.451,91.604c0.313,1.673-0.599,2.121-1.2,2.88c-3.315,1.717-13.666,0.546-7.92-4.32
	c0.07-3.92-3.266-3.786-3.6-7.68c0.996-1.481,2.424-1.031,3.84-0.24c4.581-3.77,8.229,1.758,8.641,6.48
	C79.364,89.61,78.9,91.114,79.451,91.604z M71.052,83.924c1.225-0.414,2.745,0.063,4.319,0.479c1.438,2.304,2.939,6.413-0.239,7.44
	c-1.67,0.54-3.479-0.854-5.28,0.24c0.073,3.177,5.618,2.16,7.92,1.68C79.951,89.575,75.942,78.059,71.052,83.924z M68.651,84.645
	c0.852-0.189,1.733-0.347,2.16-0.96c-0.976-0.304-1.392-1.169-2.4-1.44C67.635,82.784,68.171,84.024,68.651,84.645z M73.212,85.125
	c-0.26-0.397-2.142-0.397-2.4,0c-0.24,0-0.48,0-0.72,0c0.2,1.719,1.047,2.792,1.439,4.319c0.079,0.562,0.289,0.992,0.48,1.44
	c0.872-0.293,1.895,0.479,2.16,0c0.079,0,0.159,0,0.239,0c0.83,0.189,1.015-0.267,1.44-0.48c-0.146-0.573,0.301-1.741-0.24-1.92
	c0-0.16,0-0.32,0-0.479c-0.171-1.429-0.68-2.521-1.92-2.88C73.531,85.125,73.371,85.125,73.212,85.125z"/>
<path fill="#C4A369" d="M70.812,61.843c-0.854-0.587-1.913-0.967-2.4-1.92c6.806-0.854,6.36-12.13,15.602-10.56
	c0.081,1.202-0.915,1.326-0.721,2.64c0.074,0.326,0.602,0.199,0.959,0.24c0.838-0.363,1.963-0.438,2.4-1.2
	c0.431,0.03,0.506-0.294,0.96-0.24c-0.135,1.122-1.053,1.998-0.479,3.12c0.556,0.077,0.921-0.039,1.198-0.24
	c1.107-1.036,0.4,1.195,0.961,1.44c-0.201,0.278-0.316,0.644-0.239,1.2c-5.854,1.666-11.226,3.815-15.84,6.72
	C72.018,63.039,71.551,62.304,70.812,61.843z"/>
<path fill="#EEBD33" d="M62.172,61.363c0.936,0.344,1.714,0.846,2.399,1.44c-0.938,2.021-2.603,3.316-3.359,5.521
	c-1.33,0.049-1.331-1.229-2.16-1.68C59.901,64.694,61.21,63.203,62.172,61.363z"/>
<path fill="#C5A43B" d="M81.553,214.155c-0.399-1.046-0.399-3.754,0-4.8C81.553,210.954,81.553,212.555,81.553,214.155z"/>
<path fill="#C5A43B" d="M71.473,199.994c-0.729,0.399-3.111,0.399-3.84,0C68.913,199.994,70.192,199.994,71.473,199.994z"/>
<path fill="#893E4F" d="M67.873,198.794c0.32-1.759,2.557-1.604,2.88-3.36c-0.125-1.155-2.206-0.354-2.642-1.2
	c0.456-1.785,2.371-2.109,3.12-3.6c0.237-0.958-0.717-0.723-0.479-1.68c3.577-5.938,17.439-13.02,23.52-3.84
	c1.922-0.281,2.621-3.529,4.561-4.56c6.535,2.184,13.071,4.368,16.319,9.84c-0.479,0-0.96,0-1.439,0
	c0.584,2.216,2.81,2.791,3.359,5.04c-0.693,0.713-2.15-0.268-2.64,0.24c0.661,1.659,2.507,2.132,2.88,4.08
	c-5.771,0.739-10.775-1.545-14.88-3.84c-2.538-1.419-5.935-4.714-7.92-4.8c-2.534-0.11-6.652,3.261-9.36,4.32
	C79.584,197.612,74.327,199.113,67.873,198.794z M111.793,196.155c1.337-5.945-6.253-14.062-11.521-13.68
	c-2.188,0.158-4.374,1.999-4.32,4.32c0.098,4.207,8.285,8.818,12.48,9.84c0.766,0.187,1.916,0.314,2.88,0.24
	C111.614,196.776,111.804,196.565,111.793,196.155z M93.072,187.514c1.069-4.058-5.584-6.93-9.84-5.76
	c-4.992,1.372-9.948,7.513-8.16,13.92C80.427,194.911,92.069,191.324,93.072,187.514z"/>
<path fill="#2F2A25" d="M51.313,188.715c-0.396-0.336-0.396-2.304,0-2.64C51.313,186.954,51.313,187.833,51.313,188.715z"/>
<path fill="#893E4F" d="M114.673,182.234c0.396,0.336,0.396,2.304,0,2.641C114.673,183.995,114.673,183.114,114.673,182.234z"/>
<path fill="#869A8A" d="M74.112,174.313c0.077,0.557-0.038,0.922-0.238,1.2c-0.24,0-0.48,0-0.722,0
	C73.053,174.694,73.226,174.146,74.112,174.313z"/>
<path fill="#893E4F" d="M89.473,161.354c2.302-0.48,7.847-1.497,7.92,1.68c-1.802,1.095-3.609-0.3-5.28,0.24
	c-3.18,1.027-1.679,5.137-0.239,7.44c1.575,0.416,3.096,0.894,4.319,0.479C91.302,177.06,87.293,165.543,89.473,161.354z"/>
<path fill="#893E4F" d="M98.833,172.875c-1.01-0.271-1.425-1.137-2.4-1.44c0.427-0.613,1.311-0.771,2.16-0.96
	C99.073,171.094,99.609,172.334,98.833,172.875z"/>
<path fill="#869A8A" d="M73.152,172.875c-0.082-0.781-1.147-1.371-0.72-1.92c0.24,0,0.48,0,0.72,0
	c-0.066,0.627,0.088,1.032,0.722,0.96C74.083,172.684,73.25,172.412,73.152,172.875z"/>
<path fill="#C2BDB5" d="M96.433,169.994c-0.259,0.397-2.141,0.397-2.4,0C94.833,169.994,95.633,169.995,96.433,169.994z"/>
<path fill="#C4A369" d="M88.032,166.394c-0.551-0.489-0.087-1.993-0.239-2.88C88.344,164.004,87.88,165.508,88.032,166.394z"/>
<path fill="#C4A369" d="M80.353,151.755c0.397,0.259,0.397,2.141,0,2.399C80.353,153.354,80.353,152.555,80.353,151.755z"/>
<path fill="#869A8A" d="M78.913,147.434c-0.558,0.076-0.923-0.038-1.2-0.24c-0.19-0.83,0.267-1.013,0.479-1.439
	C78.811,145.936,79.026,146.52,78.913,147.434z"/>
<path fill="#869A8A" d="M89.473,146.234c-0.581-0.142-1.062-0.143-1.44-0.96c-0.014-1.113,1.696-1.182,2.16-0.479
	C89.897,145.22,90.018,146.059,89.473,146.234z"/>
<path fill="#869A8A" d="M75.553,144.555c-0.116-0.916,0.068-1.532,0.479-1.92c0.562,0.079,0.991,0.288,1.439,0.479
	C78.227,144.629,76.83,145.936,75.553,144.555z"/>
<path fill="#893E4F" d="M50.833,130.394c20.238,0,40.479,0,60.72,0c-0.888,8.872-10.769,8.752-17.76,11.521
	c0.047-1.394,1.254-1.626,1.68-2.641c-0.946-1.7,0.961-2.313,0.72-3.84c-0.365-2.317-3.398-2.352-4.56-0.24
	c-0.337,1.278,0.011,2.037-0.72,3.12c-2.619-2.336-8.052-1.895-10.561,0.24c-0.392-2.045,2.958-2.759,3.12-4.561
	c0.312-3.452-5.236-3.354-4.8,0.24c-1.027,0.173-1.661,0.738-2.16,1.44c0.267,1.866-0.771,2.396-1.68,3.6
	c0.465,2.305-0.735,2.945-0.722,4.8c-6.155-3.183-13.226-1.067-17.52-4.56c-2.695-2.192-3.79-6.173-5.76-8.88
	C50.833,130.555,50.833,130.474,50.833,130.394z"/>
<path fill="#869A8A" d="M90.192,142.635c-0.187-1.387,1.267-2.144,2.4-1.44C93.231,143.144,91.046,143.621,90.192,142.635z"/>
<path fill="#869A8A" d="M76.033,140.954c-0.043-1.482,0.512-2.369,2.159-2.159c0.665,0.644,0.854,1.538,0.48,2.64
	C77.518,141.595,76.827,141.61,76.033,140.954z"/>
<path fill="#869A8A" d="M91.873,139.755c-0.124-1.577,1.013-2.018,2.159-1.681C94.713,139.215,93.2,140.665,91.873,139.755z"/>
<path fill="#869A8A" d="M77.713,137.354c-0.105-0.825,0.095-1.345,0.239-1.92c0.641,0,1.279,0,1.921,0
	C80.627,137.136,79.353,137.838,77.713,137.354z"/>
<path fill="#869A8A" d="M92.593,136.635c-0.186-1.145,0.339-1.581,0.96-1.92c0.896-0.018,1.375,0.386,1.68,0.96
	C95.274,136.846,93.536,137.214,92.593,136.635z"/>
<path fill="#869A8A" d="M79.633,133.994c0.043-1.346,1.709-1.848,2.64-0.96C82.962,135.414,80.082,135.323,79.633,133.994z"/>
<path fill="#C2BDB5" d="M72.673,221.834c-0.03-0.99,0.417-1.503,0.24-2.64c1.077-0.039,0.648,1.43,0.96,2.16
	C73.194,220.569,73.056,221.184,72.673,221.834z"/>
<path fill="#893E4F" d="M118.753,204.555c-0.769-0.592-1.033-1.687-1.681-2.4C117.928,202.66,118.268,203.68,118.753,204.555z"/>
<path fill="#893E4F" d="M115.873,215.354c-1.035-1.765-2.388-3.213-4.08-4.32C113.691,211.935,115.071,213.356,115.873,215.354z"/>
<path fill="#2F2A25" d="M78.192,205.034c0-0.4,0-0.8,0-1.2c-0.499,0.141-0.774,0.504-1.199,0.72c0.257-0.544,0.729-0.872,1.439-0.96
	C78.295,204.016,78.723,205.005,78.192,205.034z"/>
<path fill="#C5A43B" d="M65.473,181.755c-0.008-1.049-0.089-2.169,0.479-2.641C65.637,179.839,65.929,181.171,65.473,181.755z"/>
<path fill="#893E4F" d="M55.152,205.994c0.15-0.89,0.675-1.405,0.96-2.16C56.493,204.307,55.519,205.47,55.152,205.994z"/>
<path fill="#C5A43B" d="M51.313,186.075c1.169-6.511,10.181-5.18,12.721-10.32c-0.28-2.165-3.159-2.585-5.04-2.4
	c1.336-1.544,3.494-2.265,6-2.64c0.204-1.245-1.3-0.78-1.439-1.681c1.692-0.607,4.119-1.285,6.24-0.72
	c0.117,2.621,0.613,3.729,1.438,6c-2.484,0.874-4.496,2.225-5.278,4.8c-0.569,0.472-0.488,1.592-0.48,2.641
	c-1.547-0.188-2.365,0.354-3.6,0.479c0.84,1.418,2.93,0.555,4.318,0.721c2.57,0.307,4.466,1.521,5.521,3.12
	c-0.375,1.225-1.576,1.624-2.16,2.64c-0.038,0.758-0.009,1.448,0.479,1.68c-1.852,1.254-4.896,5.163-0.961,5.52
	c-0.968,0.792-2.311,1.209-2.64,2.64c0.262,0.618,0.606,1.153,1.2,1.44c0.729,0.399,3.11,0.399,3.84,0
	c2.117,0.143,2.609-0.777,5.04-0.72c0.328,2.171-0.094,2.866-0.24,5.28c0.24,0,0.48,0,0.721,0c0.425-0.216,0.7-0.579,1.199-0.72
	c0,0.4,0,0.8,0,1.2s0,0.8,0,1.2c1.908,0.068,2.08-1.601,3.841-1.68c0.035,0.737-0.845,1.079-0.239,1.68
	c4.632,2.508,9.87-1.354,12-4.56c1.692-2.55,2.134-5.841,6.72-5.76c4.315,2.772,9.69,4.647,14.64,5.52
	c1.809,2.68,4.486,5.743,4.08,9.84c-0.886-0.243-1.762-1.476-2.88-0.72c0.003,1.526,1.171,4.242,0.24,6.24
	c-0.517-0.203-0.387-1.053-0.72-1.44c-0.803-1.998-2.182-3.419-4.08-4.32c-0.681-0.393-1.869-0.76-2.4,0
	c-0.15,1.357,1.661,2.01,1.2,2.88c-1.645-1.798-6.563-1.97-8.16,0c5.794,6.523-0.897,15.312-9.6,14.64
	c-0.367,1.327,1.064,0.855,0.96,1.92c-7.072,1.293-12.523-2.491-15.12-7.2c-0.979-0.244-1.118,1.583-1.44,1.2
	c-1.615-1.126-2.553-4.442-2.398-7.2c0.063-1.16,1.206-2.629,0-3.12c-2.027,0.853-2.319,3.441-3.12,5.52
	c-1.336-2.716-1.113-5.872-0.24-8.88c-3.804,0.572-10.368,3.747-15.12,1.2c-1.262-1.255-1.809-3.548-1.2-6
	c0.366-0.524,1.341-1.687,0.96-2.16c-1.771-1.508-4.354-2.205-5.278-4.56c-0.517-3.236,1.148-4.291,1.92-6.24
	c-0.444-1.476-1.198-2.642-1.44-4.32C51.313,187.833,51.313,186.954,51.313,186.075z M83.232,215.354
	c1.767,4.067,8.203,6.855,12.48,3.84c2.89-2.037,1.694-6.155,3.12-9.6c0.806-0.954,1.709-1.811,2.88-2.4c0.319,0,0.64,0,0.96,0
	c0.283,0.421,2.188,0.444,2.16-0.24c-0.457-0.103-0.604-0.517-1.2-0.48c-2.202-1.309-5.249,0.625-6.24,2.64
	c-1.083,2.204-0.157,5.993-1.68,8.16c-1.814,2.581-6.465,2.32-9.12,0.479c-1.284-0.89-1.11-2.076-2.88-3.36
	c-0.166-0.752-0.642-0.313-1.2-0.24c0-1.04,0-2.08,0-3.12c0.411-1.173,0.079-3.307-0.96-1.68c-0.399,1.046-0.399,3.754,0,4.8
	c-0.088,0.99,0.094,3.295,1.2,3.84c0.565-0.563-0.039-1.179,0-1.92C82.718,215.416,82.708,214.836,83.232,215.354z M82.513,219.434
	c-0.376-0.744-0.667-1.573-1.44-1.92c-0.667-1.973-1.665-3.614-2.158-5.76c0.157-0.885-0.537-2.979-0.722-4.32
	c-0.601-0.041-0.751,0.369-0.96,0.72c-0.437,2.476-1.607,5.574,0.48,6.96c0.11-0.955-0.559-2.129,0.239-2.64
	c0.567,0.986,0.801,2.633,1.439,3.84C80.188,217.813,81.552,219.817,82.513,219.434z M97.393,203.354
	c-2.359,1.911-5.669,3.777-8.64,4.32C92.5,209.009,96.101,206.072,97.393,203.354z M60.913,187.994
	c1.757-1.434,4.241-1.416,5.76-2.64c-4.678-0.977-8.375,3.13-9.602,7.2c0.055,0.187,0.201,0.279,0.48,0.24
	C58.802,191.161,59.52,189.132,60.913,187.994z M58.513,182.955c1.493-1.147,4.063-1.217,5.521-2.4c-4.414-0.797-7.799,2.474-9.36,6
	c0.774-0.184,1.256-0.664,1.438-1.44C56.89,184.371,57.976,183.937,58.513,182.955z"/>
<path fill="#C5A43B" d="M101.713,207.195c-1.17,0.589-2.074,1.446-2.88,2.4C99.438,208.44,100.282,207.524,101.713,207.195z"/>
<path fill="#C5A43B" d="M103.633,206.474c0.597-0.037,0.743,0.377,1.2,0.48c0.027,0.685-1.877,0.661-2.16,0.24
	C104.291,207.282,104.99,207.156,103.633,206.474z"/>
<path fill="#C5A43B" d="M82.753,216.075c-0.479-1.18-0.75-3.271-0.24-5.04c0,1.04,0,2.08,0,3.12c0.56-0.073,1.034-0.512,1.2,0.24
	c-0.919-0.649-1.07,0.396-0.48,0.96C82.708,214.836,82.718,215.416,82.753,216.075z"/>
<path fill="#2F2A25" d="M82.753,216.075c-0.039,0.741,0.565,1.357,0,1.92c-1.106-0.544-1.288-2.85-1.2-3.84c0-1.6,0-3.2,0-4.8
	c1.039-1.626,1.371,0.507,0.96,1.68C82.003,212.803,82.274,214.895,82.753,216.075z"/>
<path fill="#C5A43B" d="M82.513,219.434c-0.683-0.437-0.922-1.318-1.44-1.92C81.846,217.862,82.137,218.691,82.513,219.434z"/>
<path fill="#C5A43B" d="M78.913,211.755c-0.324-1.277-0.817-2.383-0.722-4.08c-0.653-0.175-0.481,0.477-0.96,0.48
	c0.209-0.352,0.359-0.761,0.96-0.72C78.376,208.775,79.071,210.869,78.913,211.755z"/>
<path fill="#2F2A25" d="M82.513,219.434c-0.961,0.382-2.325-1.622-3.12-3.12c-0.64-1.207-0.872-2.854-1.438-3.84
	c-0.799,0.511-0.13,1.685-0.24,2.64c-2.089-1.386-0.917-4.484-0.48-6.96c0.479-0.003,0.307-0.655,0.96-0.48
	c-0.097,1.697,0.396,2.803,0.722,4.08c0.493,2.146,1.491,3.787,2.158,5.76C81.591,218.116,81.83,218.997,82.513,219.434z"/>
<path fill="#893E4F" d="M96.433,193.275c-0.739-0.461-1.206-1.195-2.4-1.2C94.844,191.515,96.045,192.615,96.433,193.275z"/>
<path fill="#C4A369" d="M78.913,201.434c-0.105,0.295-0.309,0.493-0.722,0.48c-0.371-0.349-0.211-1.229-0.239-1.92
	C78.513,200.239,77.806,202.471,78.913,201.434z"/>
<path fill="#C4A369" d="M82.993,202.874c-0.539,0.66-1.697,0.702-2.399,1.2C81.031,203.313,82.156,203.238,82.993,202.874z"/>
<path fill="#2F2A25" d="M111.313,196.874c-0.964,0.074-2.114-0.053-2.88-0.24c-4.195-1.022-12.383-5.633-12.48-9.84
	c-0.053-2.321,2.134-4.162,4.32-4.32c5.268-0.382,12.857,7.735,11.521,13.68C111.804,196.565,111.614,196.776,111.313,196.874z
	 M108.192,188.474c-0.829-0.451-0.831-1.729-2.16-1.68c-0.757,2.204-2.421,3.499-3.359,5.521c0.686,0.595,1.464,1.096,2.399,1.439
	C106.034,191.916,107.343,190.424,108.192,188.474z M98.353,186.075c-0.669,0.391-1.521,1.542-0.96,2.4
	c0.739-0.221,0.959-0.96,1.44-1.44c0.166-1.434,1.273-1.925,1.68-3.12C99.034,183.875,99.213,185.495,98.353,186.075z"/>
<path fill="#EEBD33" d="M81.793,189.675c0.526-0.913,0.898-1.98,1.68-2.64C82.945,187.947,82.573,189.015,81.793,189.675z"/>
<path fill="#2F2A25" d="M57.553,192.793c-0.279,0.039-0.427-0.053-0.48-0.24c1.227-4.07,4.924-8.177,9.602-7.2
	c-1.519,1.224-4.003,1.206-5.76,2.64C59.52,189.132,58.802,191.161,57.553,192.793z"/>
<path fill="#EEBD33" d="M90.913,187.274c-0.388-0.067-0.413,0.227-0.721,0.24c0.271-0.449,0.271-0.449,0.64-0.973
	c-0.007-0.233,0.081,0,0.081-0.227c0.256-0.224,0.074-0.885,0.72-0.72c-0.4,0.477,0.021,0.305,0,0.96
	C91.079,186.481,91.366,187.248,90.913,187.274z"/>
<path fill="#EEBD33" d="M90.192,187.755c-0.28,0.311-1.396,2.146-0.479,1.44c0.08,0,0.16,0,0.239,0
	c-0.309,0.411-0.495,0.943-1.199,0.96C89.071,189.194,89.374,188.215,90.192,187.755z"/>
<path fill="#EEBD33" d="M89.952,189.195c-0.079,0-0.159,0-0.239,0c-0.916,0.706,0.199-1.129,0.479-1.44c0-0.08,0-0.16,0-0.24
	c0.308-0.013,0.333-0.308,0.721-0.24C90.864,188.186,89.903,188.185,89.952,189.195z"/>
<path fill="#EEBD33" d="M98.353,186.075c-1.224,1.428-1.023,2.763,0.48,0.96c-0.481,0.479-0.701,1.219-1.44,1.44
	C96.832,187.616,97.684,186.465,98.353,186.075z"/>
<path fill="#2F2A25" d="M58.513,182.955c-0.537,0.982-1.623,1.416-2.4,2.159c0.459-0.981,1.605-1.274,2.16-2.159
	C58.353,182.955,58.433,182.955,58.513,182.955z"/>
<path fill="#2F2A25" d="M56.112,185.114c-0.184,0.776-0.664,1.256-1.438,1.44c1.563-3.526,4.946-6.797,9.359-6
	c-1.456,1.184-4.026,1.253-5.521,2.4c-0.08,0-0.16,0-0.24,0C57.718,183.84,56.571,184.133,56.112,185.114z"/>
<path fill="#C4A369" d="M74.593,184.154c-0.306,0.734-1.374,0.706-1.68,1.44c-0.713-0.497,0.342-1.239,0.72-1.44
	C73.669,184.751,74.445,184.224,74.593,184.154z"/>
<path fill="#C4A369" d="M82.753,179.595c-2.36,1.029-6.158,2.402-8.16,4.56c-0.147,0.07-0.924,0.598-0.96,0
	c0.288-0.314,0.094-0.377,0-0.72c-0.992,0.455-1.882,1.011-2.64,0c-0.229-1.094,2.168-1.464,2.158-3.12
	c-1.146-0.107-1.052,1.027-1.92,1.2c-0.637,0.462-1.415-0.539-1.199-1.68c0.379-0.822,0.791-1.608,1.439-2.16
	c-1.679-0.828-3.738,2.336-2.64,4.56c-0.279-0.201-0.645-0.316-1.2-0.239c-0.007-0.233-0.294-0.187-0.48-0.24
	c-0.022-0.984-0.047-1.968,0.24-2.641c0-0.08,0-0.159,0-0.239c0.558-1.043,1.477-1.725,2.16-2.641
	c0.825-0.135,1.446-0.474,2.16-0.72c0.669,1.43,2.681,1.31,3.6,0.24c0.929-6.924,5.546-13.255,5.04-21.601
	c0.397-0.259,0.397-2.141,0-2.399c0.113-3.466-0.35-6.6-1.68-9.36c1.224-0.137,1.303-1.417,1.68-2.4
	c2.392-2.033,7.533-3.355,9.601-0.239c-0.245,1.114-1.289,1.431-0.961,3.12c-1.012,0.04-1.214,1.151-1.92,0.239
	c-0.278-0.039-0.427,0.054-0.479,0.24c-1.747,3.65-0.412,7.333-1.2,9.84c-0.73,2.326-3.198,3.714-3.359,6.96
	c2.301-1.379,2.482-4.877,4.801-6.239c0.681-0.52,1.801-0.599,2.399-1.2c1.095,0.121,1.36-0.417,2.16,0
	c1.499-0.371,2.808,0.702,3.36,0.479c4.303,1.712,3.148,7.726,5.52,11.04c0.788,6.359,6.784,10.44,4.8,17.28
	c-1.645-0.516-3.167-1.152-4.8-1.68c0.057-0.904,0.904-1.017,0.96-1.92c-0.046-0.194-0.241-0.239-0.239-0.48
	c-0.432-1.169-1.517-1.684-2.881-1.92c-0.388-0.067-0.413,0.227-0.72,0.24c0.358,1.082,1.827,1.053,2.16,2.16
	c-0.503,1.416-1.938,1.901-2.64,3.119c-0.786,0.895-1.484,1.876-2.16,2.881c-2.395-2.327-4.932-4.51-9.601-4.561
	C84.226,179.307,83.384,179.346,82.753,179.595z M88.032,166.394c0.412,4.723,4.06,10.25,8.641,6.48
	c1.416,0.791,2.844,1.241,3.84-0.24c-0.334-3.894-3.67-3.76-3.6-7.68c5.748-4.866-4.604-6.037-7.92-4.32
	c-0.602,0.759-1.514,1.207-1.2,2.88C87.945,164.401,87.481,165.905,88.032,166.394z M97.152,177.194
	c-1.821-0.042-2.438-1.141-3.6-0.72c0,0.32,0,0.64,0,0.96C94.524,177.883,96.754,178.811,97.152,177.194z M87.072,174.794
	c0.613-0.027,0.478-0.804,0.48-1.44c-0.565,0.006-0.707-0.413-1.44-0.24c-0.138,0.146-0.562,1.139,0,1.2
	c-0.001,0.241,0.194,0.286,0.24,0.479C86.593,174.794,86.833,174.794,87.072,174.794z"/>
<path fill="#C4A369" d="M99.553,177.915c0.149,1.114-1.797,2.198-2.64,3.119C97.614,179.816,99.05,179.331,99.553,177.915z"/>
<path fill="#C4A369" d="M98.112,175.514c1.364,0.236,2.449,0.751,2.88,1.92C100.358,176.469,99.155,176.071,98.112,175.514z"/>
<path fill="#C4A369" d="M89.232,152.715c-0.599,0.602-1.719,0.681-2.399,1.2C87.287,153.167,88.304,152.985,89.232,152.715z"/>
<path fill="#893E4F" d="M88.753,143.114c-0.307,0.574-0.783,0.978-1.681,0.96c0.082-0.481-0.049-0.751-0.479-0.72
	c0.053-0.187,0.201-0.279,0.479-0.24c0.127,0.193,0.25,0.39,0.24,0.721C88.044,143.846,88.246,143.328,88.753,143.114z"/>
<path fill="#C4A369" d="M69.553,176.234c-0.685,0.916-1.604,1.598-2.16,2.641C67.68,177.561,68.65,176.932,69.553,176.234z"/>
<path fill="#C4A369" d="M67.633,181.995c-1.21,0.119-0.836-2.617-0.24-2.881c-0.287,0.673-0.264,1.656-0.24,2.641
	C67.339,181.808,67.626,181.762,67.633,181.995z"/>
<path fill="#C4A369" d="M70.033,179.834c-0.216,1.141,0.563,2.142,1.199,1.68C70.833,182.736,69.139,180.623,70.033,179.834z"/>
<path fill="#869A8A" d="M88.753,143.114c-0.507,0.214-0.709,0.731-1.44,0.721c0.01-0.331-0.113-0.527-0.24-0.721
	c0.706,0.912,0.908-0.199,1.921-0.239C89.037,143.079,88.899,143.1,88.753,143.114z"/>
<path fill="#C4A369" d="M91.393,152.715c0.981-0.651,2.688,0.025,3.36,0.479C94.2,153.417,92.891,152.344,91.393,152.715z"/>
<path fill="#C4A369" d="M85.152,179.354c-0.431,0.303-2.227,0.475-2.399,0.24C83.384,179.346,84.226,179.307,85.152,179.354z"/>
<path fill="#2F2A25" d="M93.553,177.434c0-0.32,0-0.64,0-0.96c1.162-0.421,1.778,0.678,3.6,0.72
	C96.754,178.811,94.524,177.883,93.553,177.434z"/>
<path fill="#C4A369" d="M86.112,174.313c-0.562-0.062-0.138-1.055,0-1.2c0.733-0.173,0.875,0.246,1.44,0.24
	c-0.003,0.637,0.133,1.413-0.48,1.44c0.445-0.474,0.357-1.768-0.72-1.44c-0.281,0.039-0.202,0.438-0.24,0.72
	C86.112,174.154,86.112,174.234,86.112,174.313z"/>
<path fill="#C2BDB5" d="M95.713,165.675c0.393,1.527,1.239,2.601,1.439,4.319c-0.239,0-0.479,0-0.72,0c-0.8,0.001-1.6,0-2.4,0
	c-0.159,0-0.319,0-0.479,0c-1.105-0.494-1.273-1.927-1.92-2.88c0-0.159,0-0.319,0-0.479c0-0.641,0-1.28,0-1.92
	c0.146-0.415,1.138,0.019,1.2-0.48c0.08,0,0.16,0,0.239,0c0.599,0.202,1.286,0.314,2.16,0.24
	C95.196,165.07,95.356,165.471,95.713,165.675z"/>
<path fill="#C2BDB5" d="M93.072,164.234c0.267-0.479,1.289,0.293,2.16,0c0.191,0.448,0.401,0.879,0.48,1.44
	c-0.356-0.204-0.517-0.604-0.48-1.2C94.358,164.549,93.671,164.436,93.072,164.234z"/>
<path fill="#C2BDB5" d="M93.553,169.994c-1.24-0.359-1.749-1.451-1.92-2.88C92.279,168.067,92.447,169.5,93.553,169.994z"/>
<path fill="#C2BDB5" d="M91.633,166.635c-0.542-0.179-0.094-1.347-0.24-1.92c0.427-0.214,0.61-0.67,1.44-0.48
	c-0.063,0.499-1.056,0.065-1.2,0.48C91.633,165.354,91.633,165.994,91.633,166.635z"/>
<path fill="#2F2A25" d="M75.072,195.675c-1.788-6.407,3.168-12.548,8.16-13.92c4.256-1.17,10.909,1.702,9.84,5.76
	C92.069,191.324,80.427,194.911,75.072,195.675z M81.793,189.675c-0.334,1.506-1.271,2.409-1.682,3.84
	c4.795-1.445,5.499-6.981,8.4-10.32c-0.659-0.381-1.741-0.339-2.4-0.72c-0.97,1.43-1.816,2.983-2.64,4.56
	C82.692,187.694,82.32,188.762,81.793,189.675z M90.192,187.755c-0.818,0.46-1.121,1.439-1.439,2.4
	c0.704-0.017,0.891-0.549,1.199-0.96c-0.049-1.009,0.912-1.008,0.961-1.92c0.453-0.026,0.167-0.793,0.72-0.72
	c0.021-0.655-0.4-0.483,0-0.96c-0.646-0.165-0.464,0.496-0.72,0.72c0,0.129-0.023,0-0.018,0.234
	c-0.491,0.619-0.432,0.517-0.703,0.966C90.192,187.595,90.192,187.675,90.192,187.755z"/>
<path fill="#EEBD33" d="M83.473,187.034c0.823-1.577,1.67-3.13,2.64-4.56c0.659,0.381,1.741,0.339,2.4,0.72
	c-2.901,3.339-3.605,8.875-8.4,10.32c0.409-1.431,1.348-2.333,1.682-3.84C82.573,189.015,82.945,187.947,83.473,187.034z"/>
<path fill="#EEBD33" d="M98.833,187.034c-1.504,1.803-1.704,0.468-0.48-0.96c0.86-0.58,0.681-2.199,2.16-2.16
	C100.107,185.109,98.999,185.6,98.833,187.034z"/>
<path fill="#C5A43B" d="M106.272,182.234c2.098-5.426-1.406-9.604-3.12-13.92c0.951-0.489,1.872-1.008,3.36-0.96
	c0.005,0.565-0.413,0.707-0.24,1.44c1.296,0.624,3.489,0.351,4.561,1.199c0.179,0.739-0.659,0.462-0.48,1.2
	c1.056,1.107,3.478,2.119,3.601,3.36c-1.468-0.036-4.108-0.846-4.801,0.479c2.744,2.263,5.563,6.305,4.08,11.28
	C111.104,184.763,109.03,183.157,106.272,182.234z"/>
<path fill="#2F2A25" d="M87.072,174.794c-0.239,0-0.479,0-0.72,0c-0.045-0.194-0.241-0.239-0.24-0.479c0-0.08,0-0.16,0-0.24
	c0.038-0.282-0.042-0.681,0.24-0.72C87.43,173.027,87.518,174.321,87.072,174.794z"/>
<path fill="#869A8A" d="M62.593,213.914c-0.729,0.399-3.111,0.399-3.84,0C60.032,213.914,61.313,213.914,62.593,213.914z"/>
<path fill="#869A8A" d="M73.873,173.354c-2.675,0.776-2.93-3.943-3.12-6.479c-0.248-3.279-0.271-8.828,1.68-9.12
	C75.941,157.228,76.177,171.618,73.873,173.354z M73.873,171.915c-0.634,0.072-0.788-0.333-0.722-0.96c-0.238,0-0.479,0-0.72,0
	c-0.429,0.549,0.638,1.139,0.72,1.92C73.25,172.412,74.083,172.684,73.873,171.915z"/>
<path fill="#2F2A25" d="M118.753,204.555c1.205,1.652,2.979,7.019,0.479,8.64c-0.668-0.211-0.568-1.191-1.439-1.2
	c0.932,2.235,0.214,5.611-1.681,6.96c-1.205-2.486-2.246-6.378-4.8-6.72c0.168,1.286,2.219,3.105,0.48,4.08
	c-1.723-1.477-4.053-3.36-7.44-2.4c0.108,1.662,1.333,2.318,1.68,3.6c1.594,5.898-4.148,10.929-9.84,11.76
	c-0.354,0.651,0.075,1.352-0.96,1.68c-6.382,2.749-13.342-0.853-15.84-5.04c-0.81,0.151-0.589,1.332-1.438,1.44
	c-2.102-1.26-2.937-3.784-4.08-6c-0.312-0.73,0.117-2.199-0.96-2.16c0.177,1.137-0.271,1.65-0.24,2.64
	c-3.103,1.044-3.573-6.818-2.88-9.6c-2.332,0.628-4.355,1.565-7.2,1.68c-1.28,0-2.562,0-3.84,0c-4.934,0.086-6.521-6.073-4.08-9.84
	c-4.832-0.873-6.796-7.411-3.36-11.28c-3.802-6.573,0.784-12.151,6-14.16c1.823-0.702,5.402-0.47,5.04-3.601
	c-1.258-1.354-4.12,0.301-5.28-0.239c0.266-2.775,2.555-3.527,4.802-4.32c0.18-0.82-0.977-0.305-0.722-1.2
	c1.6-2.001,5.215-1.986,8.4-2.399c0.457-4.279-0.382-10.65,3.6-10.32c3.558,0.294,2.767,7.207,3.602,11.04
	c1.877-5.094,3.143-12.044,2.398-18.96c-2.047,0.047-2.474-1.525-3.358-2.641c-6.023-4.164-14.779-1.571-19.682-5.52
	c-2.764-2.227-4.479-6.567-6-10.08c0.24,0,0.48,0,0.722,0c0,0.08,0,0.16,0,0.24c1.97,2.707,3.063,6.688,5.76,8.88
	c4.294,3.492,11.363,1.377,17.52,4.56c-0.015-1.854,1.187-2.495,0.722-4.8c0.907-1.203,1.945-1.733,1.68-3.6
	c0.499-0.702,1.133-1.268,2.16-1.44c-0.438-3.594,5.111-3.692,4.8-0.24c-0.162,1.802-3.512,2.516-3.12,4.561
	c2.509-2.135,7.941-2.576,10.561-0.24c0.73-1.083,0.383-1.842,0.72-3.12c1.161-2.111,4.195-2.077,4.56,0.24
	c0.241,1.526-1.667,2.14-0.72,3.84c-0.426,1.015-1.633,1.247-1.68,2.641c6.992-2.769,16.872-2.648,17.76-11.521
	c0.48,0,0.96,0,1.44,0c-1.147,10.773-14.442,9.397-21.841,13.92c0.268,1.627-0.692,2.027-1.439,2.64
	c-1.542-0.262-2.07,0.49-3.12,0.721c0,1.6,0,3.2,0,4.8c4.99-1.824,9.415-1.045,11.76,2.4c2.285,3.355,1.921,8.799,4.08,12.239
	c5.021-2.375,5.39,1.548,8.88,1.92c0.459,3.142,4.074,3.126,4.32,6.48c-1.578,0.058-3.029-0.011-4.32-0.24
	c1.367,2.073,3.202,3.678,3.36,6.96c0,0.88,0,1.761,0,2.641c0.169,1.209-0.431,1.649-0.72,2.399c0.958,0.643,1.812,1.389,2.159,2.64
	c-1.243,2.762,1.744,3.098,2.16,5.52c-0.287,0.754-1.049,1.031-1.439,1.68c0.507,0.933,1.639,1.241,1.439,2.88
	c0.007,1.127-1.962,0.278-2.16,1.2c0.356,0.283,1.072,0.208,0.96,0.96C117.72,202.868,117.984,203.961,118.753,204.555z
	 M55.152,205.994c-0.607,2.452-0.062,4.745,1.2,6c4.752,2.547,11.316-0.628,15.12-1.2c-0.873,3.008-1.096,6.164,0.24,8.88
	c0.801-2.079,1.093-4.667,3.12-5.52c1.206,0.491,0.063,1.96,0,3.12c-0.153,2.758,0.782,6.073,2.398,7.2
	c0.322,0.383,0.463-1.443,1.44-1.2c2.597,4.708,8.048,8.493,15.12,7.2c0.104-1.065-1.327-0.593-0.96-1.92
	c8.701,0.672,15.394-8.117,9.6-14.64c1.597-1.97,6.516-1.798,8.16,0c0.461-0.87-1.351-1.523-1.2-2.88c0.532-0.76,1.72-0.393,2.4,0
	c1.692,1.106,3.045,2.555,4.08,4.32c0.333,0.388,0.202,1.237,0.72,1.44c0.931-1.999-0.236-4.714-0.24-6.24
	c1.118-0.755,1.994,0.477,2.88,0.72c0.406-4.097-2.271-7.16-4.08-9.84c-4.949-0.873-10.324-2.748-14.64-5.52
	c-4.586-0.081-5.026,3.21-6.72,5.76c-2.131,3.207-7.368,7.068-12,4.56c-0.604-0.601,0.274-0.943,0.239-1.68
	c-1.761,0.08-1.933,1.748-3.841,1.68c0-0.4,0-0.8,0-1.2c0.53-0.03,0.104-1.018,0.24-1.44c-0.712,0.088-1.184,0.416-1.439,0.96
	c-0.239,0-0.479,0-0.721,0c0.146-2.414,0.568-3.109,0.24-5.28c-2.431-0.057-2.923,0.862-5.04,0.72c-1.28,0-2.56,0-3.84,0
	c-0.595-0.287-0.938-0.822-1.2-1.44c0.329-1.431,1.672-1.848,2.64-2.64c-3.936-0.357-0.891-4.266,0.961-5.52
	c-0.488-0.231-0.519-0.921-0.479-1.68c0.584-1.016,1.785-1.415,2.16-2.64c-1.056-1.598-2.95-2.813-5.521-3.12
	c-1.39-0.166-3.479,0.697-4.318-0.721c1.233-0.125,2.053-0.667,3.6-0.479c0.456-0.584,0.164-1.916,0.48-2.641
	c0.782-2.575,2.794-3.926,5.278-4.8c-0.825-2.271-1.321-3.379-1.438-6c-2.121-0.565-4.549,0.112-6.24,0.72
	c0.141,0.9,1.645,0.436,1.439,1.681c-2.506,0.375-4.664,1.096-6,2.64c1.881-0.185,4.76,0.235,5.04,2.4
	c-2.541,5.14-11.552,3.809-12.721,10.32c-0.396,0.336-0.396,2.304,0,2.64c0.242,1.678,0.996,2.844,1.44,4.32
	c-0.771,1.95-2.437,3.004-1.92,6.24c0.925,2.354,3.509,3.051,5.278,4.56C55.827,204.589,55.303,205.104,55.152,205.994z
	 M82.993,202.874c0.358,0.041,0.886-0.085,0.959,0.24c0.195,1.314-0.801,1.438-0.72,2.64c9.241,1.57,8.796-9.706,15.602-10.56
	c-0.487-0.953-1.548-1.333-2.4-1.92c-0.388-0.66-1.589-1.76-2.4-1.2c-4.614,2.905-9.985,5.054-15.84,6.72
	c0.077,0.556-0.038,0.921-0.238,1.2c0.027,0.691-0.133,1.571,0.238,1.92c0.413,0.013,0.615-0.185,0.722-0.48
	c0.277-0.201,0.644-0.316,1.198-0.24c0.573,1.122-0.345,1.998-0.479,3.12c0.454,0.054,0.529-0.271,0.96-0.24
	C81.295,203.576,82.452,203.534,82.993,202.874z M85.152,195.434c2.708-1.059,6.826-4.43,9.36-4.32
	c1.985,0.086,5.382,3.381,7.92,4.8c4.104,2.295,9.109,4.579,14.88,3.84c-0.373-1.948-2.219-2.421-2.88-4.08
	c0.489-0.508,1.946,0.473,2.64-0.24c-0.55-2.25-2.775-2.824-3.359-5.04c0.479,0,0.96,0,1.439,0
	c-3.248-5.472-9.784-7.656-16.319-9.84c-1.939,1.03-2.639,4.278-4.561,4.56c-6.08-9.18-19.942-2.098-23.52,3.84
	c-0.237,0.958,0.717,0.723,0.479,1.68c-0.749,1.491-2.664,1.815-3.12,3.6c0.436,0.846,2.517,0.044,2.642,1.2
	c-0.323,1.757-2.56,1.602-2.88,3.36C74.327,199.113,79.584,197.612,85.152,195.434z M113.232,186.314
	c1.481-4.976-1.336-9.018-4.08-11.28c0.692-1.325,3.333-0.516,4.801-0.479c-0.123-1.241-2.545-2.253-3.601-3.36
	c-0.179-0.738,0.659-0.461,0.48-1.2c-1.071-0.849-3.265-0.575-4.561-1.199c-0.173-0.733,0.245-0.875,0.24-1.44
	c-1.488-0.048-2.409,0.471-3.36,0.96c1.714,4.315,5.218,8.494,3.12,13.92C109.03,183.157,111.104,184.763,113.232,186.314z
	 M73.633,184.154c-0.378,0.201-1.433,0.943-0.72,1.44c0.306-0.734,1.374-0.706,1.68-1.44c2.002-2.157,5.8-3.53,8.16-4.56
	c0.173,0.234,1.969,0.063,2.399-0.24c4.669,0.051,7.207,2.233,9.601,4.561c0.676-1.005,1.374-1.986,2.16-2.881
	c0.843-0.921,2.791-2.005,2.64-3.119c-0.333-1.107-1.802-1.078-2.16-2.16c0.307-0.014,0.333-0.308,0.72-0.24
	c1.043,0.557,2.246,0.954,2.881,1.92c0,0.241,0.193,0.286,0.239,0.48c-0.056,0.903-0.903,1.016-0.96,1.92
	c1.632,0.527,3.155,1.164,4.8,1.68c1.984-6.84-4.012-10.921-4.8-17.28c-2.371-3.314-1.217-9.328-5.52-11.04
	c-0.673-0.454-2.379-1.131-3.36-0.479c-0.799-0.417-1.063,0.121-2.16,0c-0.929,0.271-1.945,0.453-2.399,1.2
	c-2.317,1.362-2.5,4.86-4.801,6.239c0.161-3.246,2.629-4.634,3.359-6.96c0.789-2.507-0.547-6.189,1.2-9.84
	c0.431-0.031,0.562,0.238,0.479,0.72c0.897,0.018,1.375-0.386,1.681-0.96c0.146-0.014,0.284-0.035,0.239-0.239
	c-0.328-1.689,0.716-2.006,0.961-3.12c-2.067-3.116-7.209-1.794-9.601,0.239c-0.377,0.983-0.456,2.264-1.68,2.4
	c1.33,2.761,1.793,5.895,1.68,9.36c0,0.8,0,1.6,0,2.399c0.506,8.346-4.111,14.677-5.04,21.601c-0.919,1.069-2.931,1.189-3.6-0.24
	c-0.714,0.246-1.335,0.585-2.16,0.72c-0.902,0.698-1.873,1.327-2.16,2.641c0,0.08,0,0.159,0,0.239c-0.596,0.264-0.97,3,0.24,2.881
	c0.557-0.077,0.921,0.038,1.2,0.239c-1.1-2.224,0.961-5.388,2.64-4.56c-0.648,0.552-1.063,1.338-1.439,2.16
	c-0.895,0.788,0.801,2.901,1.199,1.68c0.868-0.173,0.773-1.308,1.92-1.2c0.01,1.656-2.389,2.026-2.158,3.12
	c0.758,1.011,1.646,0.455,2.64,0C73.727,183.777,73.921,183.84,73.633,184.154z M73.152,175.514c0.24,0,0.48,0,0.722,0
	c0.2-0.278,0.315-0.644,0.238-1.2C73.226,174.146,73.053,174.694,73.152,175.514z M72.433,157.755
	c-1.95,0.292-1.928,5.841-1.68,9.12c0.19,2.536,0.445,7.256,3.12,6.479C76.177,171.618,75.941,157.228,72.433,157.755z
	 M78.192,145.755c-0.213,0.427-0.67,0.609-0.479,1.439c0.277,0.202,0.644,0.316,1.2,0.24
	C79.026,146.52,78.811,145.936,78.192,145.755z M90.192,144.794c-0.464-0.702-2.174-0.634-2.16,0.479
	c0.379,0.817,0.859,0.818,1.44,0.96C90.018,146.059,89.897,145.22,90.192,144.794z M77.473,143.114
	c-0.448-0.191-0.879-0.4-1.439-0.479c-0.411,0.388-0.597,1.004-0.479,1.92C76.83,145.936,78.227,144.629,77.473,143.114z
	 M92.593,141.194c-1.134-0.703-2.586,0.054-2.4,1.44C91.046,143.621,93.231,143.144,92.593,141.194z M78.673,141.434
	c0.374-1.102,0.185-1.996-0.48-2.64c-1.647-0.21-2.202,0.677-2.158,2.159C76.827,141.61,77.518,141.595,78.673,141.434z
	 M94.032,138.074c-1.146-0.337-2.283,0.104-2.159,1.681C93.2,140.665,94.713,139.215,94.032,138.074z M79.873,135.434
	c-0.642,0-1.28,0-1.921,0c-0.146,0.575-0.346,1.095-0.239,1.92C79.353,137.838,80.627,137.136,79.873,135.434z M95.232,135.675
	c-0.306-0.574-0.783-0.978-1.68-0.96c-0.621,0.339-1.146,0.775-0.96,1.92C93.536,137.214,95.274,136.846,95.232,135.675z
	 M82.272,133.034c-0.931-0.888-2.597-0.386-2.64,0.96C80.082,135.323,82.962,135.414,82.272,133.034z"/>
<path fill="#2F2A25" d="M98.833,209.595c-1.426,3.445-0.23,7.563-3.12,9.6c-4.278,3.015-10.715,0.227-12.48-3.84
	c-0.59-0.564-0.438-1.609,0.48-0.96c1.77,1.285,1.596,2.47,2.88,3.36c2.655,1.84,7.306,2.101,9.12-0.48
	c1.522-2.167,0.597-5.956,1.68-8.16c0.991-2.016,4.039-3.949,6.24-2.64c1.356,0.681,0.658,0.807-0.96,0.72c-0.32,0-0.641,0-0.96,0
	C100.282,207.524,99.438,208.44,98.833,209.595z"/>
<path fill="#2F2A25" d="M88.753,207.675c2.97-0.543,6.279-2.41,8.64-4.32C96.101,206.072,92.5,209.009,88.753,207.675z"/>
<path fill="#2F2A25" d="M87.793,163.514c-0.313-1.673,0.599-2.121,1.2-2.88c3.315-1.717,13.666-0.546,7.92,4.32
	c-0.07,3.92,3.266,3.786,3.6,7.68c-0.996,1.481-2.424,1.031-3.84,0.24c-4.581,3.77-8.229-1.758-8.641-6.48
	C87.88,165.508,88.344,164.004,87.793,163.514z M96.192,171.194c-1.225,0.414-2.745-0.063-4.319-0.479
	c-1.438-2.304-2.939-6.413,0.239-7.44c1.67-0.54,3.479,0.854,5.28-0.24c-0.073-3.177-5.618-2.16-7.92-1.68
	C87.293,165.543,91.302,177.06,96.192,171.194z M98.593,170.474c-0.852,0.189-1.733,0.347-2.16,0.96
	c0.976,0.304,1.392,1.169,2.4,1.44C99.609,172.334,99.073,171.094,98.593,170.474z M94.032,169.994c0.26,0.397,2.142,0.397,2.4,0
	c0.24,0,0.48,0,0.72,0c-0.2-1.719-1.047-2.792-1.439-4.319c-0.079-0.562-0.289-0.992-0.48-1.44c-0.872,0.293-1.895-0.479-2.16,0
	c-0.079,0-0.159,0-0.239,0c-0.83-0.189-1.015,0.267-1.44,0.48c0.146,0.573-0.301,1.741,0.24,1.92c0,0.16,0,0.32,0,0.479
	c0.171,1.429,0.68,2.521,1.92,2.88C93.713,169.994,93.873,169.994,94.032,169.994z"/>
<path fill="#C4A369" d="M96.433,193.275c0.854,0.587,1.913,0.967,2.4,1.92c-6.806,0.854-6.36,12.13-15.602,10.56
	c-0.081-1.202,0.915-1.326,0.721-2.64c-0.074-0.326-0.602-0.199-0.959-0.24c-0.838,0.363-1.963,0.438-2.4,1.2
	c-0.431-0.03-0.506,0.294-0.96,0.24c0.135-1.122,1.053-1.998,0.479-3.12c-0.556-0.077-0.921,0.039-1.198,0.24
	c-1.107,1.036-0.4-1.195-0.961-1.44c0.201-0.278,0.316-0.644,0.239-1.2c5.854-1.666,11.226-3.815,15.84-6.72
	C95.227,192.08,95.693,192.814,96.433,193.275z"/>
<path fill="#EEBD33" d="M105.072,193.755c-0.936-0.344-1.714-0.846-2.399-1.44c0.938-2.021,2.603-3.316,3.359-5.521
	c1.33-0.049,1.331,1.229,2.16,1.68C107.343,190.424,106.034,191.916,105.072,193.755z"/>
<use xlink:href="#US"  width="85.039" height="85.039" x="-42.52" y="-42.52" transform="matrix(0.2333 0 0 -0.2333 150.8008 242.0752)" overflow="visible"/>
<use xlink:href="#US"  width="85.039" height="85.039" x="-42.52" y="-42.52" transform="matrix(0.2333 0 0 -0.2333 150.7998 15.8809)" overflow="visible"/>
<use xlink:href="#US"  width="85.039" height="85.039" x="-42.52" y="-42.52" transform="matrix(0.2333 0 0 -0.2333 16.2979 242.0752)" overflow="visible"/>
<use xlink:href="#US"  width="85.039" height="85.039" x="-42.52" y="-42.52" transform="matrix(0.2333 0 0 -0.2333 16.2979 15.8809)" overflow="visible"/>
<use xlink:href="#Rand"  width="156.49" height="248.039" x="5.377" y="-252.996" transform="matrix(1 0 0 -1 0.002 0.0029)" overflow="visible"/>
</svg>
