<?xml version="1.0" encoding="utf-8"?>
<!-- Generator: Adobe Illustrator 15.1.0, SVG Export Plug-In  -->
<!DOCTYPE svg PUBLIC "-//W3C//DTD SVG 1.1//EN" "http://www.w3.org/Graphics/SVG/1.1/DTD/svg11.dtd" [
	<!ENTITY ns_flows "http://ns.adobe.com/Flows/1.0/">
]>
<svg version="1.1"
	 xmlns="http://www.w3.org/2000/svg" xmlns:xlink="http://www.w3.org/1999/xlink" xmlns:a="http://ns.adobe.com/AdobeSVGViewerExtensions/3.0/"
	 x="0px" y="0px" width="167px" height="258px" viewBox="0 0 167 258" enable-background="new 0 0 167 258" xml:space="preserve">
<defs>
	<symbol  id="Rand" viewBox="5.377 -252.996 156.49 248.039">
		<g id="weiß_2_">
		</g>
		<path fill="#FFFFFF" d="M159.867-242.076c0,4.92-4,8.92-8.92,8.92c-4.921,0-8.921-4-8.921-8.92s4-8.92,8.921-8.92
			C155.867-250.996,159.867-246.996,159.867-242.076z M159.867-15.887c0,4.92-4,8.93-8.92,8.93c-4.921,0-8.921-4.01-8.921-8.93
			c0-4.91,4-8.92,8.921-8.92C155.867-24.807,159.867-20.797,159.867-15.887z M19.387-4.957h123.9h4.569h3.091
			c6.02,0,10.92-4.9,10.92-10.93v-9.52v-208.09v-8.58c0-6.021-4.9-10.92-10.92-10.92h-9.471c-37.63,0-75.85,0-125.17,0
			c-6.029,0-10.92,4.898-10.92,10.92c-0.01,72.18-0.01,141.83-0.01,211.35v14.84c0,6.029,4.9,10.93,10.92,10.93H19.387z
			 M25.227-15.887c0,4.92-4.01,8.93-8.93,8.93c-4.91,0-8.92-4.01-8.92-8.93c0-4.91,4.01-8.92,8.92-8.92
			C21.217-24.807,25.227-20.797,25.227-15.887z M16.307-250.996c4.92,0,8.92,4,8.92,8.92s-4,8.92-8.92,8.92s-8.92-4-8.92-8.92
			S11.387-250.996,16.307-250.996z M27.227-15.887c0-6.02-4.9-10.92-10.93-10.92c-3.68,0-6.939,1.83-8.92,4.629
			c0-71.199,0-142.398,0-213.609c1.98,2.801,5.24,4.631,8.93,4.631c6.02,0,10.92-4.9,10.92-10.92c0-3.682-1.83-6.941-4.63-8.92
			c40.69,0,81.37,0,122.061,0c-2.801,1.979-4.631,5.238-4.631,8.92c0,6.02,4.9,10.92,10.921,10.92c3.68,0,6.939-1.83,8.92-4.621
			c0,71.201,0,142.4,0,213.6c-1.98-2.799-5.24-4.629-8.92-4.629c-6.021,0-10.921,4.9-10.921,10.92c0,3.689,1.83,6.949,4.631,8.93
			c-40.69,0-81.38,0-122.061,0C25.396-8.938,27.227-12.197,27.227-15.887z"/>
	</symbol>
	<symbol  id="US" viewBox="-42.52 -42.52 85.039 85.039">
		<g>
			<path fill="#DE2910" d="M-42.382,3.271C-42.464,2.19-42.52,1.102-42.52,0s0.056-2.19,0.138-3.271h84.764
				C42.464-2.19,42.52-1.102,42.52,0s-0.056,2.19-0.138,3.271H-42.382z"/>
			<path fill="#FFFFFF" d="M41.369,9.813h-82.737c-0.502-2.123-0.844-4.308-1.014-6.541h84.764
				C42.212,5.505,41.87,7.689,41.369,9.813z"/>
			<path fill="#DE2910" d="M39.255,16.355h-78.51c-0.876-2.101-1.581-4.288-2.113-6.543h82.737
				C40.836,12.067,40.131,14.255,39.255,16.355z"/>
			<path fill="#FFFFFF" d="M35.819,22.896h-71.639c-1.324-2.066-2.48-4.251-3.436-6.541h78.51
				C38.3,18.646,37.144,20.83,35.819,22.896z"/>
			<path fill="#DE2910" d="M30.663,29.439h-61.326c-1.924-2.004-3.651-4.193-5.156-6.543h71.639
				C34.315,25.246,32.587,27.436,30.663,29.439z"/>
			<path fill="#FFFFFF" d="M22.646,35.98h-45.291c-2.935-1.851-5.625-4.05-8.018-6.541h61.326
				C28.271,31.931,25.581,34.13,22.646,35.98z"/>
			<path fill="#DE2910" d="M0,42.52c-8.326,0-16.087-2.402-22.646-6.539h45.291C16.088,40.117,8.327,42.52,0,42.52z"/>
			<path fill="#FFFFFF" d="M-41.369-9.813h82.738c0.501,2.123,0.843,4.308,1.013,6.541h-84.764
				C-42.212-5.505-41.87-7.689-41.369-9.813z"/>
			<path fill="#DE2910" d="M-39.255-16.355h78.51c0.876,2.101,1.581,4.288,2.114,6.543h-82.738
				C-40.836-12.067-40.131-14.255-39.255-16.355z"/>
			<path fill="#FFFFFF" d="M-35.82-22.896H35.82c1.323,2.066,2.479,4.251,3.435,6.541h-78.51
				C-38.3-18.646-37.144-20.83-35.82-22.896z"/>
			<path fill="#DE2910" d="M-30.663-29.439h61.326c1.924,2.004,3.652,4.193,5.157,6.543H-35.82
				C-34.315-25.246-32.587-27.436-30.663-29.439z"/>
			<path fill="#FFFFFF" d="M-22.646-35.98h45.292c2.935,1.851,5.625,4.05,8.017,6.541h-61.326
				C-28.271-31.931-25.581-34.13-22.646-35.98z"/>
			<path fill="#DE2910" d="M0-42.52c8.327,0,16.088,2.402,22.646,6.539h-45.292C-16.088-40.117-8.326-42.52,0-42.52z"/>
		</g>
		<path fill="#3C3B6E" d="M-42.52,0c0-1.102,0.056-2.19,0.138-3.271h60.686v41.657C12.76,41.034,6.554,42.52,0,42.52
			C-23.482,42.52-42.52,23.482-42.52,0z"/>
		<path id="s_104_" fill="#FFFFFF" d="M12.918,3.926l1.56-4.8l-4.083,2.968h5.046l-4.083-2.968L12.918,3.926z"/>
		<path id="s_103_" fill="#FFFFFF" d="M2.146,3.926l1.56-4.8l-4.083,2.968h5.046L0.586-0.874L2.146,3.926z"/>
		<path id="s_102_" fill="#FFFFFF" d="M-8.625,3.926l1.56-4.8l-4.083,2.968h5.046l-4.083-2.968L-8.625,3.926z"/>
		<path id="s_101_" fill="#FFFFFF" d="M-19.396,3.926l1.56-4.8l-4.083,2.968h5.046l-4.083-2.968L-19.396,3.926z"/>
		<path id="s_100_" fill="#FFFFFF" d="M-30.168,3.926l1.56-4.8l-4.083,2.968h5.046l-4.083-2.968L-30.168,3.926z"/>
		<path id="s_99_" fill="#FFFFFF" d="M7.532,8.504l1.56-4.8L5.009,6.672h5.046L5.972,3.704L7.532,8.504z"/>
		<path id="s_98_" fill="#FFFFFF" d="M-3.239,8.504l1.56-4.8l-4.083,2.968h5.046L-4.8,3.704L-3.239,8.504z"/>
		<path id="s_97_" fill="#FFFFFF" d="M-14.011,8.504l1.56-4.8l-4.083,2.968h5.046l-4.083-2.968L-14.011,8.504z"/>
		<path id="s_96_" fill="#FFFFFF" d="M-24.782,8.504l1.56-4.8l-4.083,2.968h5.046l-4.083-2.968L-24.782,8.504z"/>
		<path id="s_95_" fill="#FFFFFF" d="M-35.554,8.504l1.56-4.8l-4.083,2.968h5.046l-4.083-2.968L-35.554,8.504z"/>
		<path id="s_94_" fill="#FFFFFF" d="M12.918,13.082l1.56-4.8l-4.083,2.968h5.046l-4.083-2.968L12.918,13.082z"/>
		<path id="s_93_" fill="#FFFFFF" d="M2.146,13.082l1.56-4.8l-4.083,2.968h5.046L0.586,8.282L2.146,13.082z"/>
		<path id="s_92_" fill="#FFFFFF" d="M-8.625,13.082l1.56-4.8l-4.083,2.968h5.046l-4.083-2.968L-8.625,13.082z"/>
		<path id="s_91_" fill="#FFFFFF" d="M-19.396,13.082l1.56-4.8l-4.083,2.968h5.046l-4.083-2.968L-19.396,13.082z"/>
		<path id="s_90_" fill="#FFFFFF" d="M-30.168,13.082l1.56-4.8l-4.083,2.968h5.046l-4.083-2.968L-30.168,13.082z"/>
		<path id="s_89_" fill="#FFFFFF" d="M7.532,17.66l1.56-4.8l-4.083,2.968h5.046L5.972,12.86L7.532,17.66z"/>
		<path id="s_88_" fill="#FFFFFF" d="M-3.239,17.66l1.56-4.8l-4.083,2.968h5.046L-4.8,12.86L-3.239,17.66z"/>
		<path id="s_87_" fill="#FFFFFF" d="M-14.011,17.66l1.56-4.8l-4.083,2.968h5.046l-4.083-2.968L-14.011,17.66z"/>
		<path id="s_86_" fill="#FFFFFF" d="M-24.782,17.66l1.56-4.8l-4.083,2.968h5.046l-4.083-2.968L-24.782,17.66z"/>
		<path id="s_85_" fill="#FFFFFF" d="M23.689,22.238l1.56-4.8l-4.083,2.968h5.046l-4.083-2.968L23.689,22.238z"/>
		<path id="s_84_" fill="#FFFFFF" d="M12.918,22.238l1.56-4.8l-4.083,2.968h5.046l-4.083-2.968L12.918,22.238z"/>
		<path id="s_83_" fill="#FFFFFF" d="M2.146,22.238l1.56-4.8l-4.083,2.968h5.046l-4.083-2.968L2.146,22.238z"/>
		<path id="s_82_" fill="#FFFFFF" d="M-8.625,22.238l1.56-4.8l-4.083,2.968h5.046l-4.083-2.968L-8.625,22.238z"/>
		<path id="s_81_" fill="#FFFFFF" d="M-19.396,22.238l1.56-4.8l-4.083,2.968h5.046l-4.083-2.968L-19.396,22.238z"/>
		<path id="s_80_" fill="#FFFFFF" d="M7.532,26.816l1.56-4.8l-4.083,2.968h5.046l-4.083-2.968L7.532,26.816z"/>
		<path id="s_79_" fill="#FFFFFF" d="M-3.239,26.816l1.56-4.8l-4.083,2.968h5.046L-4.8,22.017L-3.239,26.816z"/>
		<path id="s_78_" fill="#FFFFFF" d="M-14.011,26.816l1.56-4.8l-4.083,2.968h5.046l-4.083-2.968L-14.011,26.816z"/>
		<path id="s_77_" fill="#FFFFFF" d="M12.918,31.395l1.56-4.8l-4.083,2.968h5.046l-4.083-2.968L12.918,31.395z"/>
		<path id="s_76_" fill="#FFFFFF" d="M2.146,31.395l1.56-4.8l-4.083,2.968h5.046l-4.083-2.968L2.146,31.395z"/>
		<path id="s_75_" fill="#FFFFFF" d="M-8.625,31.395l1.56-4.8l-4.083,2.968h5.046l-4.083-2.968L-8.625,31.395z"/>
		<path id="s_74_" fill="#FFFFFF" d="M7.532,35.973l1.56-4.8l-4.083,2.968h5.046l-4.083-2.968L7.532,35.973z"/>
		<path id="s_73_" fill="#FFFFFF" d="M-3.239,35.973l1.56-4.8l-4.083,2.968h5.046L-4.8,31.173L-3.239,35.973z"/>
		<path id="s_72_" fill="#FFFFFF" d="M2.146,40.551l1.56-4.8l-4.083,2.968h5.046l-4.083-2.968L2.146,40.551z"/>
		<path id="s_71_" fill="#FFFFFF" d="M-30.168,22.238l1.56-4.8l-4.083,2.968h5.046l-4.083-2.968L-30.168,22.238z"/>
		<path id="s_29_" fill="#FFFFFF" d="M-24.782,26.816l1.56-4.8l-4.083,2.968h5.046l-4.083-2.968L-24.782,26.816z"/>
		<path id="s_24_" fill="#FFFFFF" d="M-19.396,31.395l1.56-4.8l-4.083,2.968h5.046l-4.083-2.968L-19.396,31.395z"/>
		<path id="s_6_" fill="#FFFFFF" d="M-14.011,35.973l1.56-4.8l-4.083,2.968h5.046l-4.083-2.968L-14.011,35.973z"/>
	</symbol>
</defs>
<g>
	<path fill="#EEBD34" d="M167.244,240.945c0,9.354-7.653,17.008-17.008,17.008H17.008C7.653,257.953,0,250.3,0,240.945V17.008
		C0,7.653,7.653,0,17.008,0h133.229c9.354,0,17.008,7.653,17.008,17.008V240.945z"/>
</g>
<use xlink:href="#US"  width="85.039" height="85.039" x="-42.52" y="-42.52" transform="matrix(0.2333 0 0 -0.2333 150.8008 242.0752)" overflow="visible"/>
<use xlink:href="#US"  width="85.039" height="85.039" x="-42.52" y="-42.52" transform="matrix(0.2333 0 0 -0.2333 150.7998 15.8809)" overflow="visible"/>
<use xlink:href="#US"  width="85.039" height="85.039" x="-42.52" y="-42.52" transform="matrix(0.2333 0 0 -0.2333 16.2979 242.0752)" overflow="visible"/>
<use xlink:href="#US"  width="85.039" height="85.039" x="-42.52" y="-42.52" transform="matrix(0.2333 0 0 -0.2333 16.2979 15.8809)" overflow="visible"/>
<path fill="#64746C" d="M84.989,22.721c-0.042-0.758-0.949-0.65-1.68-0.72c2.938-2.415,8.022-1.713,11.76,0.96
	c1.654,1.184,4.563,3.849,4.32,4.8c-0.79,3.103-4.144,5.749-3.12,10.08c-3.479,0.795-5.15,2.327-7.44,4.56
	c-1.07-0.781-1.679-1.557-3.12-1.44c0-0.8,0-1.6,0-2.4c-0.419-1.181-1.372-1.827-3.119-1.68c-1.629-1.499-1.509-6.566-5.28-5.04
	c-0.438-1.743-0.063-3.673-1.2-5.76c-0.948-1.741-3.613-3.628-0.479-5.76C79.924,19.485,81.036,23.439,84.989,22.721z M88.35,29.682
	c2.161,0.095,2.968,1.074,4.56,2.16c0.857-2.482-1.979-2.847-3.6-3.6c0.418-1.954,2.36-3.214,2.64-4.56
	C90.134,24.005,87.674,26.855,88.35,29.682z"/>
<path fill="#64746C" d="M99.869,73.602c0.448-1.739,2.534-3.825,1.92-6.72c-0.425-2.003-2.033-2.475-3.358-3.36
	c0.142-3.007-0.62-5.41-1.682-8.16c-5.229-2.986-14.837-6.087-23.04-5.28c-2.8,0.276-6.188,0.901-6.96,4.56
	c-2.409,0.776-7.042-0.812-7.92,1.92c-8.702-2.95-15.383-10.094-13.439-20.4c0.34,0.021,0.68,0.04,0.72-0.24
	c2.23,0.7,4.025,3.901,6.72,6c2.209,1.72,4.48,2.5,6.24,4.08c10.148,4.472,21.031,4.043,29.04-1.68
	c4.521-3.229,7.504-7.486,13.92-5.04c3.382,1.29,8.18,5.19,10.561,8.16c3.382,4.22,6.629,11.952,6.239,16.8
	C118.039,74.105,108.844,74.391,99.869,73.602z"/>
<path fill="#774727" d="M75.149,43.36c0.32,0,0.64,0,0.96,0c0.039,0.279-0.053,0.427-0.24,0.48c-0.24,0-0.285,0.194-0.479,0.24
	c-0.204,0.044-0.228-0.094-0.24-0.24C75.149,43.682,75.149,43.521,75.149,43.36z"/>
<path fill="#64746C" d="M101.789,74.801c0.729,0.15,2.067-0.308,2.4,0.24C103.46,74.891,102.122,75.349,101.789,74.801z"/>
<path fill="#2B2824" d="M84.27,80.561c1.073,0.008-0.526,0.706,0,1.68C83.22,82.257,83.991,80.731,84.27,80.561z"/>
<path fill="#B8BEBE" d="M69.149,82.001c0.303,0.576,1.892-0.133,2.16,0.479C70.646,82.266,69.057,82.975,69.149,82.001z"/>
<path fill="#64746C" d="M86.909,124.722c2.608-7.132,4.44-15.051,4.801-24.24c1.654,0.105,2.936,0.585,3.84,1.44
	c0.907,3.332,1.805,6.675,2.399,10.319c-2.092,1.188-4.176,2.385-5.76,4.08c1.787,3.413,5.502,4.898,7.2,8.4
	C95.229,124.722,91.069,124.722,86.909,124.722z"/>
<path fill="#64746C" d="M59.55,124.722c2.6-3.855,6.037-7.732,10.56-10.32c-0.813-1.267-1.961-2.199-2.64-3.6
	c1.36-3.438,3.484-6.115,5.76-8.641c0.349,0.371,1.229,0.212,1.92,0.24c-2.062,6.563-3.832,13.66-3.36,22.32
	C67.709,124.722,63.63,124.722,59.55,124.722z"/>
<path fill="#774727" d="M114.029,124.722c-4.399,0-8.8,0-13.2,0c-1.897-3.062-4.101-5.819-7.199-7.68
	c1.159-2.041,3.411-2.988,5.521-4.08c-0.292-2.902-1.213-7.055-2.16-10.08c7.923,2.294,13.762,6.027,20.4,9.12
	C115.206,115.071,113.724,119.943,114.029,124.722z"/>
<path fill="#774727" d="M58.109,124.722c-2.8,0-5.6,0-8.399,0c0.432-1.485,0.188-3.155,0.479-4.561
	c0.699-3.375,2.571-7.66,4.56-9.119c1.653-1.213,4.513-1.764,6.721-2.641c2.425-0.963,4.856-2.062,7.439-2.64
	c-0.946,1.613-1.933,3.187-2.88,4.8c0.572,1.429,1.711,2.289,2.4,3.6C64.199,116.893,60.668,120.319,58.109,124.722z"/>
<path fill="#64746C" d="M45.629,124.722c0.594-4.406,1.342-12.69,6.96-12.72c-2.776,3.946-3.732,8.97-3.601,12.72
	C47.869,124.722,46.749,124.722,45.629,124.722z"/>
<path fill="#64746C" d="M115.229,124.722c0.137-5.232,0.463-9.146,3.84-12.48c3.526,1.832,4.89,9.022,5.521,12.48
	C121.47,124.722,118.35,124.722,115.229,124.722z"/>
<path fill="#774727" d="M80.188,124.722c-0.24,0-0.479,0-0.72,0c0.372-0.491,0.372-2.148,0-2.64c-0.656,0.265-0.188,1.977-0.24,2.64
	c-0.32,0-0.64,0-0.96,0c0.25-3.544,0.428-6.845,0.72-11.28c0.896-0.021,0.685-0.269,1.44,0
	C80.329,118.152,80.535,121.378,80.188,124.722z"/>
<path fill="#64746C" d="M77.31,121.36c0,1.12,0,2.24,0,3.36c-0.08,0-0.16,0-0.24,0C77.225,123.677,76.757,122.008,77.31,121.36z"/>
<path fill="#2B2824" d="M79.47,124.722c-0.08,0-0.16,0-0.24,0c0.054-0.663-0.416-2.375,0.24-2.64
	C79.841,122.573,79.841,124.229,79.47,124.722z"/>
<path fill="#C1A160" d="M115.709,72.4c0.699-0.739,1.321-1.558,2.159-2.16C117.487,71.299,116.589,71.84,115.709,72.4z"/>
<path fill="#C1A160" d="M99.629,37.602c1.313-0.114,2.065,0.334,2.641,0.96C101.404,38.226,100.437,37.994,99.629,37.602z"/>
<path fill="#64746C" d="M97.709,23.92c0.979,0.78,1.859,1.66,2.641,2.64C99.369,25.782,98.489,24.901,97.709,23.92z"/>
<path fill="#C1A160" d="M47.069,49.36c-0.5-0.46-1-0.92-1.2-1.68C46.362,48,47.329,49.084,47.069,49.36z"/>
<path fill="#64746C" d="M87.39,119.921c-0.35,1.491-0.793,2.888-1.44,4.08C86.283,122.495,86.757,121.129,87.39,119.921z"/>
<path fill="#B8BEBE" d="M89.069,105.521c0.127-1.473,0.937-2.264,1.2-3.6c0.972,0.259-0.073,1.143,0.239,2.16
	c-0.261-0.06-0.162-0.478-0.479-0.48C89.641,104.172,89.555,105.047,89.069,105.521z"/>
<path fill="#B8BEBE" d="M87.39,108.642c0.217-0.742,0.598-1.322,0.96-1.92c0.079,0,0.159,0,0.239,0
	C88.15,107.323,88.09,108.302,87.39,108.642z"/>
<path fill="#B8BEBE" d="M81.63,112.722c0.659-0.46,0.814-1.426,1.439-1.92C82.784,111.637,82.63,112.603,81.63,112.722z"/>
<path fill="#B8BEBE" d="M73.949,112.001c0-0.24,0-0.48,0-0.721c0.425,0.532,1.348,0.7,1.44-0.239c0.619,0.058-0.33,0.412,0,0.96
	C74.56,112.196,74.375,111.554,73.949,112.001z"/>
<path fill="#64746C" d="M73.229,117.521c0.031,1.554-0.435,4.684-0.24,7.2c-0.08,0-0.16,0-0.24,0
	C72.761,122.172,72.62,119.473,73.229,117.521z"/>
<path fill="#64746C" d="M61.949,66.162c-0.238-0.961-1.688-0.712-1.68-1.92C60.768,64.942,61.798,65.113,61.949,66.162z"/>
<path fill="#2B2824" d="M69.63,47.682c0-0.4,0-0.8,0-1.2c0.279,0.36,0.692,0.587,0.72,1.2c-0.193,0.127-0.39,0.25-0.72,0.24
	C69.63,47.84,69.63,47.761,69.63,47.682z"/>
<path fill="#B8BEBE" d="M80.43,36.4c-0.032,2.474-1.319,3.651-2.16,6.24c-0.734,0.174-0.706-0.414-1.44-0.24
	c-0.053-0.773,0.426-1.016,0.24-1.92c-0.957-0.157-0.688,0.913-0.72,1.68c-0.716,0.287-0.816,0.066-1.44-0.24
	c-0.004-2.467,0.415-4.69,0.96-6.24c1.564,1.091,0.718,2.296,0.96,4.08c0.777,0.297,0.185-0.776,0.96-0.48
	C76.587,37.724,78.569,36.365,80.43,36.4z"/>
<path fill="#B8BEBE" d="M80.67,42.162c-0.938,0.103-0.659,1.421-1.921,1.2c0.125-1.554,0.978-2.383,1.44-3.6
	c0.876-0.156,1.278,0.162,1.68,0.48c-0.296,0.504-0.664,0.936-0.96,1.44C81.178,41.977,81.118,42.173,80.67,42.162z"/>
<path fill="#B8BEBE" d="M82.109,41.44c0.214-0.106,0.429-0.211,0.479-0.48c0.53,0.189,0.601,0.839,0.96,1.2
	c-0.748,1.411-1.937,2.384-3.601,2.88c-0.56-1.063,0.18-1.982,0.96-2.4C81.389,42.319,81.949,42.082,82.109,41.44z"/>
<path fill="#2B2824" d="M80.909,41.682c0.5,0.521,0.776-0.029,1.2-0.24c-0.16,0.641-0.721,0.879-1.2,1.2
	c-0.045-0.194-0.24-0.239-0.239-0.48C81.118,42.173,81.178,41.977,80.909,41.682z"/>
<path fill="#B8BEBE" d="M71.31,40c1.313,0.874,0.99,2.922,0.96,4.8C70.41,44.499,70.171,41.258,71.31,40z"/>
<path fill="#B8BEBE" d="M85.709,44.561c-1.787,0.559-3.653,2.23-5.521,1.92C81.671,45.637,84.948,40.967,85.709,44.561z"/>
<path fill="#774727" d="M75.149,43.36c0,0.16,0,0.32,0,0.48c-1.412,0.348-1.28,2.24-1.68,3.6c-0.356-0.204-0.517-0.604-0.48-1.2
	C73.455,46.574,72.806,43.537,75.149,43.36z"/>
<path fill="#774727" d="M75.869,43.84c-0.371,0.846,1.171,2.394,0.24,3.84c-0.679-0.199-0.622,0.338-1.2,0.24
	c-0.772-1.344,0.131-2.843,0.48-3.84C75.584,44.036,75.629,43.84,75.869,43.84z"/>
<path fill="#774727" d="M77.069,44.8c1.068,0.698,0.104,2.086,1.68,2.4c-0.029,0.53-1.018,0.102-1.439,0.24
	C77.23,46.56,77.515,45.316,77.069,44.8z"/>
<path fill="#774727" d="M77.069,44.8c-0.074-0.566-0.833-0.446-0.72-1.2c1.89-0.781,3.324,2.047,2.88,3.6c-0.16,0-0.32,0-0.48,0
	C77.172,46.887,78.138,45.499,77.069,44.8z"/>
<path fill="#2B2824" d="M71.069,47.202c0.24,0,0.48,0,0.72,0c0.296,0.104,0.493,0.307,0.48,0.72
	C71.71,47.84,71.235,47.674,71.069,47.202z"/>
<path fill="#B8BEBE" d="M71.069,47.202c-0.146-0.575-0.345-1.095-0.24-1.92c1.398,0.033,1.22,1.215,0.96,1.92
	C71.55,47.202,71.31,47.202,71.069,47.202z"/>
<path fill="#64746C" d="M89.069,58c0.669-0.292,0.909-1.011,1.2-1.68c-0.067,0.547,0.058,0.902,0.479,0.96
	C90.231,57.563,89.647,57.779,89.069,58z"/>
<path fill="#64746C" d="M82.829,55.36c0.505-0.565,1.896,0.01,2.4,0.24C84.181,55.77,83.877,55.192,82.829,55.36z"/>
<path fill="#EEBD34" d="M61.949,64.48c-3.346-1.022,3.345-8.399,5.04-8.88c0.861-0.245,1.841,0.212,2.16,0
	C66.648,58.46,64.305,61.477,61.949,64.48z"/>
<path fill="#64746C" d="M60.029,58.722c0.603,1.082,1.134-0.768,1.92-0.96c-0.568,0.631-0.953,1.447-1.92,1.68
	C60.029,59.202,60.029,58.96,60.029,58.722z"/>
<path fill="#774727" d="M78.51,62.321c0.788-0.813,1.143-2.057,2.16-2.64C79.882,60.494,79.525,61.738,78.51,62.321z"/>
<path fill="#EEBD34" d="M80.43,61.602c-1.38,1.58-1.979,3.942-3.84,5.04c-0.925-1.334,1.301-3,1.92-4.32
	c1.017-0.583,1.373-1.827,2.16-2.64c1.253-1.066,1.803-2.836,3.839-3.12c0.552,0.786-0.994,1.134-1.199,1.92
	C82.124,59.295,81.331,60.503,80.43,61.602z"/>
<path fill="#774727" d="M80.43,61.602c0.901-1.098,1.694-2.305,2.88-3.12C82.317,59.489,81.563,60.734,80.43,61.602z"/>
<path fill="#774727" d="M81.63,68.321c1.124-0.796,2.359-1.479,3.359-2.4C84.173,67.024,83.04,67.812,81.63,68.321z"/>
<path fill="#774727" d="M79.47,68.561c-1.325,0.044-2.187-0.374-2.88-0.96C77.488,67.981,78.55,68.201,79.47,68.561z"/>
<path fill="#C1A160" d="M70.35,73.602c0.702-0.431,3.842-1.679,3.36-0.96C72.608,72.98,71.509,73.321,70.35,73.602z"/>
<path fill="#774727" d="M71.31,92.561c1.008,0.365,1.555-0.317,2.4,0.48c-0.638,0.348-1.773-0.241-2.4,0.96
	C71.407,93.25,72.176,93.02,71.31,92.561z"/>
<path fill="#C1A160" d="M84.989,65.92c1.687-1.754,2.461-4.419,3.36-6.96c1.669-0.229,1.301,1.579,2.159,2.16
	c-0.838,1.015,0.189,2.852,0,4.8c-0.168,1.72-2.069,3.808,0.239,4.8c0.966-2.979,3.74-8.608,8.4-5.76
	c4.617,2.822-2.571,14.401-9.12,9.6c-0.686,9.946-3.141,23.802-11.28,26.64c-3.427,1.195-8.672-0.463-7.439-7.199
	c0.627-1.201,1.763-0.612,2.4-0.96c-0.846-0.798-1.393-0.115-2.4-0.48c-0.563,0.387-1.908-0.046-2.4-0.479
	c-0.095-2.681,2.296-1.278,3.36-1.2c10.997,0.802,12.411-6.414,14.88-15.601c0.423-0.212,0.396-1.064,0.96-0.479
	c-0.063-1.137-0.927-1.474-1.439-2.16c-0.569,0.15,0.036,1.478-0.479,1.68c-4.683,2.705-11.969,5.61-18,4.08
	c0.375-1.421,0.497-1.849,0.72-3.6c2.708-0.256,8.896-1.81,8.4-4.32c-0.292-1.48-2.577-1.471-4.08-1.2
	c0.472,0.888,2.352,0.369,2.88,1.2c-0.008,1.512-1.509,1.531-2.4,2.16c0.482-0.719-2.657,0.529-3.359,0.96c-0.08,0-0.16,0-0.24,0
	c-0.068-0.052-2.239-0.171-2.64,0.24c-2.63,0.23-6.611-0.03-7.44-1.92c-1.867-4.256,6.505-5.041,9.84-6
	c0.971-1.03,1.212-2.788,2.641-3.36c0.942,2.097,2.121,3.958,4.08,5.04c0.693,0.586,1.555,1.004,2.88,0.96
	c0.598-0.202,1.286-0.314,2.16-0.24C83.04,67.812,84.173,67.024,84.989,65.92z M98.669,66.4c-3.679-0.237-5.76,1.121-6.239,4.08
	c1.243-0.596,1.524-2.154,3.119-2.4c0.758,0.523,0.405,2.154,0.479,3.36c1.545-0.42,1.206-2.578,0.72-3.84
	c0.532-0.698,0.977-0.095,2.16-0.24C98.927,66.942,98.855,66.615,98.669,66.4z"/>
<path fill="#C1A160" d="M67.47,73.841c0.4-0.411,2.571-0.292,2.64-0.24C69.594,74.045,68.352,73.764,67.47,73.841z"/>
<path fill="#EEBD34" d="M86.669,60.4c-0.892,2.949-2.028,5.651-5.04,6.48C82.664,64.076,84.436,62.006,86.669,60.4z"/>
<path fill="#EEBD34" d="M69.149,63.041c0.657-1.023,1.743-1.617,2.4-2.64c0.676,0.243-0.066,1.02,0,1.44c-0.08,0-0.16,0-0.24,0
	c-0.045-0.194-0.241-0.239-0.24-0.48C70.282,61.774,69.936,62.627,69.149,63.041z"/>
<path fill="#EEBD34" d="M71.31,61.84c-0.805,1.835-1.822,3.458-4.08,3.84c0.313-1.208,1.367-1.673,1.92-2.64
	c0.786-0.414,1.133-1.266,1.92-1.68C71.068,61.602,71.264,61.646,71.31,61.84z"/>
<path fill="#2B2824" d="M39.148,64.96c0.821-1.419,1.941-2.539,3.36-3.36c-0.557,1.204-1.573,1.947-2.4,2.88
	c-0.48-0.082-0.75,0.049-0.72,0.48C39.31,64.96,39.229,64.96,39.148,64.96z"/>
<path fill="#2B2824" d="M37.47,81.521c-0.167,0.971,0.035,2.294,0.96,1.44c-0.024,0.61-0.896,0.566-1.2,0.239
	C37.372,82.704,36.933,81.625,37.47,81.521z"/>
<path fill="#2B2824" d="M42.27,77.921c0.875-1.445,2.693-1.947,2.88-4.08C45.695,75.75,43.237,76.728,42.27,77.921z"/>
<path fill="#2B2824" d="M48.029,63.521c0.106,0.349,0.21-0.024,0.48,0c-1.603,2.638-4.476,4.005-5.04,7.68
	c-0.015,1.134,0.876,1.364,1.439,1.92c0.281,0.039,0.202,0.438,0.24,0.721c-0.187,2.133-2.004,2.635-2.88,4.08
	c-1.196,1.764-2.875,3.045-3.84,5.04c-0.925,0.854-1.127-0.47-0.96-1.44c0.575-2.306,1.653-4.106,2.399-6.24
	c0.979-0.31-0.005-2.46-0.479-1.92c-0.697-0.583-1.54-1.021-2.4-1.439c-0.403-3.445,0.829-5.252,2.16-6.96c0.08,0,0.16,0,0.24,0
	c-0.031-0.431,0.238-0.562,0.72-0.48c-0.979,1.901-2.462,3.298-2.16,6.48c3.812,1.532,3.64,4.552,1.44,8.159
	c1.663-0.578,3.712-2.846,4.8-4.8c-0.169-1.431-1.489-1.71-1.92-2.88C43.256,67.868,45.628,65.68,48.029,63.521z"/>
<path fill="#2B2824" d="M48.029,63.521c0.361-1.274,1.902-0.732,0.48,0C48.239,63.497,48.136,63.871,48.029,63.521z"/>
<path fill="#2B2824" d="M43.47,71.201c0.313,0.806,1.204,1.036,1.439,1.92C44.346,72.564,43.455,72.334,43.47,71.201z"/>
<path fill="#B8BEBE" d="M84.509,76.001c0.801,0,0.818-0.781,1.681-0.721c-0.183,1.657-0.577,3.104-1.2,4.32
	C84,79.007,84.538,80.122,83.55,80.08c0.006-0.564-0.413-0.706-0.239-1.439c-0.055-0.426,0.241-1.202-0.48-0.96
	C83.064,76.796,84.359,76.972,84.509,76.001z"/>
<path fill="#2B2824" d="M81.63,77.682c0.857-0.661,2.185-0.854,2.879-1.68c-0.149,0.97-1.444,0.795-1.681,1.68
	c0.723-0.242,0.427,0.534,0.48,0.96c-0.252-0.302-0.75-1.707-0.721-0.24c-0.08,0-0.16,0-0.239,0c0-0.24,0-0.479,0-0.72
	C82.109,77.682,81.869,77.682,81.63,77.682z"/>
<path fill="#2B2824" d="M75.39,84.4c2.265,0.897,1.784-1.936,2.16-3.6c0.08,1.76,0.092,3.452-0.721,4.319
	c-1.021-0.208-1.903,0.96-2.399,0.48c0.459-0.421,1.251-0.509,1.92-0.72C76.521,84.229,75.218,85.054,75.39,84.4z"/>
<path fill="#B8BEBE" d="M69.869,88.001c0-0.4,0-0.801,0-1.2c0.764-0.037,1.057-0.544,1.92-0.48
	C71.01,86.742,69.957,86.89,69.869,88.001z"/>
<path fill="#2B2824" d="M78.51,83.44c0.928,0.129,1.171-0.429,2.16-0.24c-0.246,0.955-1.096,1.306-1.921,1.681
	c0.042,0.849,0.781,2.244,0.24,2.88c-0.075-1.045-0.276-1.963-0.479-2.88c0.597-0.443,1.354-0.726,1.68-1.44
	C79.404,83.104,78.638,84.636,78.51,83.44z"/>
<path fill="#B8BEBE" d="M69.149,82.001c0-0.641,0-1.28,0-1.921c0.511-0.265,1.95-0.248,3.36-0.239c0.313,0.933-0.004,1.241,0,2.88
	c-0.679,0.198-0.622-0.339-1.2-0.24C71.041,81.869,69.452,82.578,69.149,82.001z"/>
<path fill="#B8BEBE" d="M38.909,89.921c-1.116-0.084-1.598-0.803-2.16-1.44C37.519,85.826,39.885,87.808,38.909,89.921z"/>
<path fill="#B8BEBE" d="M84.509,98.082c0.329-1.112,1.422-1.459,1.681-2.641c2.928,1.284,5.151,4.938,2.16,8.16
	c0.279,2.255-1.612,3.285-2.4,5.521c-1.976-1.586-2.595-4.394-5.04-6.001c0.362-0.438,0.255-1.345,0.721-1.68
	C82.049,99.781,83.922,99.574,84.509,98.082z"/>
<path fill="#B8BEBE" d="M81.63,101.44c0.198-1.88,1.971-2.188,2.879-3.359C83.922,99.574,82.049,99.781,81.63,101.44z"/>
<path fill="#B8BEBE" d="M74.909,107.44c0.796-1.659,0.653-6.365,4.08-5.28c-1.977,1.537-2.729,2.846-3.359,5.761
	C75.147,108.002,74.879,107.872,74.909,107.44z"/>
<path fill="#C1A160" d="M77.31,105.521c-0.331,1.022-0.06,2.553-0.24,3.12C76.677,107.746,76.773,106.185,77.31,105.521z"/>
<path fill="#C1A160" d="M77.069,108.881c0.516,0.765,0.665,1.896,1.2,2.64C77.521,110.989,77.229,110.002,77.069,108.881z"/>
<path fill="#EEBD34" d="M77.31,105.521c4.87-7.949,7.624,11.032,0.96,6c-0.535-0.744-0.685-1.875-1.2-2.64c0-0.08,0-0.16,0-0.24
	C77.25,108.074,76.979,106.543,77.31,105.521z"/>
<path fill="#C1A160" d="M75.39,27.761c0.799,1.284,0.592,4.845,0.24,6.48C75.639,31.992,75.699,29.69,75.39,27.761z"/>
<path fill="#C1A160" d="M43.949,38.082c0.397,0.685-0.128,0.98,0,2.4C43.552,40.223,43.552,38.339,43.949,38.082z"/>
<path fill="#64746C" d="M72.989,41.92c-0.301-0.317-0.63-2.698,0.24-2.64C72.784,39.796,73.067,41.04,72.989,41.92z"/>
<path fill="#B8BEBE" d="M119.549,65.92c0.115-1.626,0.407-3.021,0-4.56C120.368,62.282,120.094,64.924,119.549,65.92z"/>
<path fill="#2B2824" d="M60.27,64.242c-1.428-1.052-0.651-4.309-1.44-6c-4.523-2.356-9.129-4.631-11.76-8.88
	c0.26-0.276-0.707-1.361-1.2-1.68c-1.149-1.89-1.75-4.33-1.92-7.2c-0.128-1.419,0.397-1.715,0-2.4
	c1.805-8.825,8.153,2.697,11.04,4.32c2.813,1.027,5.021,2.659,7.92,3.6c0.453,0.427,0.97,0.791,1.92,0.72
	c1.721,0.2,2.721,1.12,4.801,0.96c0,0.08,0,0.16,0,0.24c0.33,0.01,0.526-0.113,0.72-0.24c-0.027-0.613-0.44-0.84-0.72-1.2
	c-0.618-3.298-0.544-8.936,2.399-10.32c1.006-0.474,1.926-0.077,3.12-0.72c0.524-0.035,0.515-0.604,0.48-1.2
	c0.352-1.635,0.559-5.196-0.24-6.48c-2.102-2.516-4.125-8.22,0.72-8.88c2.229-0.304,3.602,1.542,6,1.68
	c3.424,0.197,5.531-2.419,8.399-1.44c2.763,1.237,5.114,2.885,7.2,4.8c0.779,0.98,1.659,1.86,2.641,2.64
	c0.354,3.689-3.688,6.165-2.641,10.56c0.525,0.273,0.979,0.619,1.92,0.48c0.808,0.392,1.774,0.625,2.641,0.96
	c9.484,3.875,15.175,11.545,17.279,22.8c0.407,1.539,0.115,2.934,0,4.56c-0.154,0.885-0.246,1.834-0.721,2.4
	c-0.31,0.65-0.833,1.087-0.96,1.92c-0.838,0.603-1.46,1.421-2.159,2.16c-2.307,1.135-4.426,2.455-7.921,2.4
	c-0.887,0.153-2.391-0.311-2.88,0.24c-0.239,0-0.479,0-0.72,0c-0.333-0.548-1.671-0.09-2.4-0.24c-3.376-0.973-4.414,1.368-7.68,1.68
	c-0.443,2.065-2.934,1.729-3.84,3.6c-0.883,1.823-0.668,5.178-1.2,7.681c-0.562,2.64-1.496,4.684-2.16,6.72
	c1.659,1.381,3.09,2.99,4.32,4.8c1.661,0.179,2.826,0.854,4.319,1.2c0.859,0.181,1.018,1.063,1.681,1.44
	c8.572,1.929,14.444,7.766,22.56,9.359c3.689,2.791,4.861,8.099,6,13.44c-0.398,0-0.8,0-1.199,0
	c-0.63-3.458-1.993-10.648-5.521-12.48c-3.377,3.335-3.703,7.248-3.84,12.48c-0.4,0-0.8,0-1.2,0c-0.306-4.777,1.177-9.65,3.36-12.72
	c-6.641-3.093-12.479-6.826-20.4-9.12c0.947,3.025,1.868,7.178,2.16,10.08c-2.108,1.092-4.36,2.039-5.521,4.08
	c3.1,1.86,5.302,4.618,7.199,7.68c-0.479,0-0.96,0-1.438,0c-1.698-3.502-5.413-4.987-7.2-8.4c1.584-1.695,3.668-2.892,5.76-4.08
	c-0.596-3.645-1.492-6.987-2.399-10.319c-0.904-0.855-2.186-1.335-3.84-1.44c-0.359,9.189-2.191,17.108-4.801,24.24
	c-0.319,0-0.64,0-0.96,0c0-0.24,0-0.48,0-0.72c0.647-1.192,1.092-2.589,1.44-4.08c1.867-5.323,2.361-10.711,3.119-15.84
	c-0.313-1.018,0.731-1.901-0.239-2.16c-0.265,1.336-1.073,2.127-1.2,3.6c-0.103,0.458-0.686,0.435-0.479,1.2c-0.08,0-0.16,0-0.239,0
	c-0.362,0.598-0.743,1.178-0.96,1.92c-0.573,0.872-1.68,2.475-2.4,2.4c-0.666-0.922-0.609-1.929-1.439-3.12
	c0.265,0.68-0.419,1.363-0.479,2.88c-0.625,0.494-0.779,1.46-1.439,1.92c-0.242,3.668-0.112,7.188,0,12c-0.48,0-0.96,0-1.44,0
	c0.346-3.343,0.14-6.568,0.24-11.28c-0.756-0.269-0.543-0.021-1.44,0c-0.292,4.436-0.471,7.736-0.72,11.28c-0.32,0-0.64,0-0.96,0
	c0-1.12,0-2.24,0-3.36c0-3.865,1.747-8.928-1.2-12c-0.334,0.459-0.301,0.894-0.72,1.681c-0.093,0.939-1.015,0.771-1.44,0.239
	c0,0.24,0,0.48,0,0.721c-0.575,1.504-0.705,3.454-0.72,5.52c-0.609,1.951-0.469,4.651-0.479,7.2c-0.32,0-0.641,0-0.96,0
	c-0.472-8.66,1.298-15.757,3.359-22.32c-0.69-0.028-1.571,0.131-1.92-0.24c-2.274,2.525-4.398,5.202-5.76,8.641
	c0.679,1.4,1.827,2.333,2.64,3.6c-4.522,2.588-7.96,6.465-10.56,10.32c-0.48,0-0.96,0-1.44,0c2.56-4.401,6.09-7.829,10.32-10.561
	c-0.689-1.311-1.828-2.171-2.4-3.6c0.947-1.613,1.934-3.187,2.88-4.8c-2.583,0.578-5.015,1.677-7.439,2.64
	c-2.208,0.877-5.067,1.428-6.72,2.641c-1.989,1.459-3.861,5.744-4.561,9.119c-0.291,1.405-0.048,3.075-0.479,4.561
	c-0.24,0-0.48,0-0.721,0c-0.132-3.75,0.824-8.773,3.601-12.72c-5.618,0.029-6.367,8.313-6.96,12.72c-0.24,0-0.48,0-0.721,0
	c-0.138-5.731,1.077-10.626,4.801-12.96c1.269-0.795,2.625-0.708,4.08-1.2c1.428-0.482,2.97-1.317,4.56-1.92
	c5.237-1.983,11.084-3.391,14.16-6.96c-1.229-2.131-2.536-4.185-2.16-7.92c-0.521-0.839-2.115-0.604-2.16-1.92
	c0.325-1.469,1.586-2.897,0.72-4.8c-8.484,1.335-15.063,3.584-24.239,3.84c-1.841,0-3.681,0-5.521,0
	c-1.709-0.064-3.441-0.609-3.359-2.4c0.106-2.342,3.225-2.039,5.279-2.399c7.894-1.387,18.344-4.186,27.36-3.601
	c0.191-3.631-1.792-3.929-0.72-7.439c-3.499-0.192-8.119-0.413-8.881-3.12c-0.911-3.246,1.595-3.84,3.36-5.521
	c-0.146-0.014-0.284-0.036-0.24-0.24C61.798,65.113,60.768,64.942,60.27,64.242z M75.63,20.321c-3.134,2.132-0.469,4.02,0.479,5.76
	c1.137,2.086,0.763,4.017,1.2,5.76c3.771-1.526,3.651,3.542,5.28,5.04c1.747-0.146,2.7,0.499,3.12,1.68c0,0.8,0,1.6,0,2.4
	c1.44-0.117,2.049,0.659,3.119,1.44c2.29-2.233,3.962-3.765,7.44-4.56c-1.022-4.331,2.33-6.977,3.12-10.08
	c0.241-0.951-2.666-3.616-4.32-4.8c-3.735-2.673-8.822-3.375-11.76-0.96c0.729,0.069,1.638-0.038,1.68,0.72
	C81.036,23.439,79.924,19.485,75.63,20.321z M77.789,39.281c-0.775-0.296-0.183,0.777-0.96,0.48c-0.242-1.784,0.604-2.989-0.96-4.08
	c-0.545,1.549-0.964,3.773-0.96,6.24c0.624,0.306,0.725,0.527,1.44,0.24c0.033-0.768-0.236-1.837,0.72-1.68
	c0.186,0.904-0.293,1.147-0.24,1.92c0.734-0.174,0.706,0.414,1.44,0.24c0.841-2.589,2.128-3.767,2.16-6.24
	C78.569,36.365,76.587,37.724,77.789,39.281z M118.829,64.242c0.39-4.849-2.857-12.58-6.239-16.8c-2.38-2.97-7.179-6.87-10.561-8.16
	c-6.416-2.446-9.399,1.811-13.92,5.04c-8.009,5.724-18.892,6.152-29.04,1.68c-1.76-1.58-4.031-2.36-6.24-4.08
	c-2.694-2.099-4.489-5.3-6.72-6c-0.04,0.28-0.379,0.261-0.72,0.24c-1.943,10.306,4.737,17.45,13.439,20.4
	c0.878-2.732,5.511-1.144,7.921-1.92c0.771-3.659,4.159-4.284,6.96-4.56c8.202-0.808,17.81,2.294,23.04,5.28
	c1.061,2.75,1.821,5.153,1.681,8.16c1.325,0.885,2.935,1.356,3.358,3.36c0.614,2.895-1.472,4.981-1.92,6.72
	C108.844,74.391,118.039,74.105,118.829,64.242z M73.229,39.281c-0.87-0.058-0.541,2.323-0.24,2.64
	c-0.035,0.595-0.045,1.165,0.48,1.2c0.158-0.322,0.513-0.447,0.96-0.48c-0.176-1.178-0.373-2.239,0-3.36
	C74.029,39.281,73.63,39.281,73.229,39.281z M80.909,41.682c0.296-0.504,0.664-0.936,0.96-1.44c-0.401-0.318-0.804-0.636-1.68-0.48
	c-0.463,1.217-1.314,2.046-1.44,3.6c1.262,0.221,0.983-1.097,1.921-1.2c-0.001,0.241,0.193,0.286,0.239,0.48
	c-0.78,0.417-1.52,1.337-0.96,2.4c1.664-0.496,2.853-1.469,3.601-2.88c-0.359-0.361-0.43-1.011-0.96-1.2
	c-0.052,0.269-0.267,0.374-0.479,0.48C81.686,41.651,81.408,42.202,80.909,41.682z M72.27,44.8c0.03-1.877,0.354-3.926-0.96-4.8
	C70.171,41.258,70.41,44.499,72.27,44.8z M80.188,46.48c1.867,0.311,3.733-1.361,5.521-1.92
	C84.948,40.967,81.671,45.637,80.188,46.48z M75.149,43.36c-2.344,0.176-1.694,3.213-2.16,2.88c-0.036,0.596,0.124,0.996,0.48,1.2
	c0.399-1.36,0.268-3.252,1.68-3.6c0.013,0.146,0.036,0.284,0.24,0.24c-0.35,0.997-1.253,2.496-0.48,3.84
	c0.578,0.098,0.521-0.438,1.2-0.24c0.931-1.447-0.611-2.994-0.24-3.84c0.188-0.053,0.279-0.201,0.24-0.48
	C75.789,43.36,75.47,43.36,75.149,43.36z M78.749,47.202c0.16,0,0.32,0,0.48,0c0.444-1.553-0.99-4.381-2.88-3.6
	c-0.113,0.753,0.646,0.634,0.72,1.2c0.445,0.516,0.162,1.758,0.24,2.64C77.73,47.303,78.72,47.73,78.749,47.202z M71.789,47.202
	c0.26-0.706,0.438-1.887-0.96-1.92c-0.104,0.825,0.096,1.345,0.24,1.92c0.166,0.474,0.641,0.64,1.2,0.72
	C72.282,47.508,72.085,47.306,71.789,47.202z M90.27,56.321c0.424-0.21,0.7-0.761,1.199-0.24c-0.382-0.897-1.104-1.456-1.199-2.64
	c-4.154-0.855-7.543-2.745-10.32-2.16c-1.332,0.281-1.769,1.161-3.359,0.96c-0.904-0.114-1.685-1.074-2.641-1.2
	c-2.046,0.706-6.069,0.415-5.52,3.6c5.342,0.005,11.083-0.008,14.399,0.72c1.049-0.168,1.353,0.408,2.4,0.24
	c2.469,0.456,3.145,0.617,3.84,2.4c0.578-0.222,1.162-0.438,1.68-0.72C90.327,57.224,90.202,56.869,90.27,56.321z M69.149,55.602
	c-0.319,0.212-1.299-0.245-2.16,0c-1.695,0.481-8.386,7.858-5.04,8.88C64.305,61.477,66.648,58.46,69.149,55.602z M61.949,57.762
	c0.622-0.418,1.138-0.943,1.44-1.68c-0.96,0-1.92,0-2.88,0c-0.475,0.666-0.661,1.621-0.48,2.64c0,0.24,0,0.48,0,0.72
	C60.996,59.208,61.381,58.393,61.949,57.762z M83.31,58.48c0.205-0.786,1.751-1.134,1.199-1.92c-2.036,0.284-2.586,2.054-3.839,3.12
	c-1.018,0.583-1.373,1.828-2.16,2.64c-0.619,1.32-2.845,2.986-1.92,4.32c1.861-1.098,2.459-3.46,3.84-5.04
	C81.563,60.734,82.317,59.489,83.31,58.48z M71.31,94.001c-1.232,6.736,4.013,8.395,7.439,7.199
	c8.141-2.838,10.596-16.693,11.28-26.64c6.549,4.801,13.737-6.778,9.12-9.6c-4.66-2.848-7.436,2.782-8.399,5.76
	c-2.311-0.992-0.408-3.08-0.24-4.8c0.189-1.948-0.838-3.785,0-4.8c-0.858-0.581-0.49-2.39-2.159-2.16
	c-0.899,2.541-1.675,5.206-3.36,6.96c-1,0.92-2.235,1.604-3.359,2.4c-0.875-0.074-1.563,0.039-2.16,0.24
	c-0.919-0.361-1.981-0.579-2.88-0.96c-1.959-1.082-3.138-2.943-4.08-5.04c-1.429,0.572-1.67,2.33-2.641,3.36
	c-3.335,0.96-11.707,1.744-9.84,6c0.829,1.89,4.811,2.15,7.44,1.92c0.882-0.078,2.125,0.204,2.64-0.24c0.08,0,0.16,0,0.24,0
	c1.16-0.28,2.26-0.62,3.36-0.96c0.891-0.629,2.392-0.648,2.399-2.16c-0.529-0.831-2.409-0.312-2.88-1.2
	c1.503-0.271,3.789-0.281,4.08,1.2c0.495,2.511-5.692,4.064-8.4,4.32c-0.224,1.751-0.345,2.179-0.72,3.6
	c6.031,1.53,13.318-1.375,18-4.08c0.517-0.202-0.09-1.529,0.479-1.68c0.514,0.687,1.377,1.023,1.439,2.16
	c-0.563-0.585-0.537,0.268-0.96,0.479c-2.47,9.187-3.884,16.402-14.88,15.601c-1.063-0.078-3.455-1.48-3.36,1.2
	c0.492,0.434,1.838,0.866,2.4,0.479C72.176,93.02,71.407,93.25,71.31,94.001z M81.63,66.88c3.011-0.829,4.148-3.531,5.04-6.48
	C84.436,62.006,82.664,64.076,81.63,66.88z M71.31,61.84c0.08,0,0.16,0,0.24,0c-0.066-0.42,0.676-1.197,0-1.44
	c-0.657,1.023-1.743,1.617-2.4,2.64c-0.553,0.967-1.608,1.432-1.92,2.64C69.487,65.299,70.505,63.676,71.31,61.84z M83.31,78.642
	c-0.174,0.733,0.245,0.875,0.239,1.439c0.988,0.041,0.45-1.072,1.439-0.479c0.623-1.217,1.019-2.663,1.2-4.32
	c-0.861-0.061-0.88,0.721-1.681,0.721c-0.694,0.825-2.021,1.019-2.879,1.68c-3.575,1.317-4.96,1.348-8.4,2.399
	c0.507,1.173,0.025,3.335,0.72,4.32c0.843,0.116,0.789,0.277,1.44,0c-0.172,0.652,1.132-0.172,0.96,0.48
	c-0.668,0.211-1.46,0.299-1.92,0.72c-1.134,0.693-0.203,2.171-0.72,2.64c-0.308-0.013-0.332-0.308-0.721-0.239
	c0.614-0.643-0.145-1.266,0-2.16c-0.597-0.037-0.743,0.377-1.2,0.479c-0.863-0.063-1.156,0.443-1.92,0.48c0,0.399,0,0.8,0,1.2
	c0,0.399,0,0.8,0,1.199c2.055,0.615,4.14,1.029,6,0.96c4.622-0.172,6.834-3.931,8.16-7.68c-0.987,0.236-1.968,0.245-2.399,0.24
	c-0.268-1.307,1.313-0.767,1.199-1.92c-0.312-0.404-0.02-1.594-0.479-2.4c0.079,0,0.159,0,0.239,0
	C82.56,76.935,83.058,78.339,83.31,78.642z M84.27,82.241c-0.526-0.974,1.073-1.672,0-1.68C83.991,80.731,83.22,82.257,84.27,82.241
	z M71.31,82.48c0.578-0.099,0.521,0.438,1.2,0.24c-0.004-1.639,0.313-1.947,0-2.88c-1.41-0.009-2.85-0.025-3.36,0.239
	c0,0.641,0,1.28,0,1.921C69.057,82.975,70.646,82.266,71.31,82.48z M36.749,88.48c0.563,0.638,1.044,1.356,2.16,1.44
	C39.885,87.808,37.519,85.826,36.749,88.48z M81.63,101.44c-0.466,0.335-0.358,1.242-0.721,1.68c2.445,1.607,3.064,4.415,5.04,6.001
	c0.788-2.235,2.681-3.266,2.4-5.521c2.991-3.223,0.768-6.876-2.16-8.16c-0.259,1.182-1.352,1.528-1.681,2.641
	C83.601,99.252,81.828,99.561,81.63,101.44z M75.63,107.921c0.629-2.915,1.383-4.224,3.359-5.761
	c-3.427-1.085-3.284,3.621-4.08,5.28c-0.212,0.444-0.771,1.766-0.239,2.16C75.086,109.138,75.213,108.385,75.63,107.921z
	 M78.27,111.521c6.664,5.032,3.91-13.949-0.96-6c-0.536,0.663-0.632,2.225-0.24,3.12c0,0.08,0,0.16,0,0.24
	C77.229,110.002,77.521,110.989,78.27,111.521z"/>
<path fill="#2B2824" d="M98.909,67.36c-1.185,0.146-1.628-0.458-2.16,0.24c0.486,1.262,0.825,3.42-0.72,3.84
	c-0.074-1.206,0.277-2.837-0.479-3.36c-1.595,0.246-1.876,1.804-3.119,2.4c0.479-2.959,2.562-4.317,6.239-4.08
	C98.855,66.615,98.927,66.942,98.909,67.36z"/>
<path fill="#64746C" d="M118.829,68.321c-0.061,0.899-0.377,1.544-0.96,1.92C117.996,69.408,118.52,68.972,118.829,68.321z"/>
<path fill="#2B2824" d="M39.39,73.36c0.475-0.54,1.459,1.61,0.479,1.92C39.985,74.365,39.801,73.75,39.39,73.36z"/>
<path fill="#64746C" d="M104.909,75.042c0.489-0.551,1.993-0.087,2.88-0.24C107.3,75.353,105.796,74.889,104.909,75.042z"/>
<path fill="#2B2824" d="M77.55,80.802c-0.176-0.655,0.477-0.483,0.479-0.96c1.452,0.975-0.3,2.136,0.48,3.6
	c0.128,1.194,0.895-0.336,1.68,0c-0.325,0.715-1.083,0.997-1.68,1.44c0.203,0.917,0.404,1.835,0.479,2.88
	c-0.454,0.054-0.529-0.271-0.96-0.24c0-0.64,0-1.28,0-1.92c-0.204-0.356-0.604-0.516-1.2-0.48
	C77.642,84.253,77.63,82.561,77.55,80.802z"/>
<path fill="#B8BEBE" d="M89.069,105.521c0.485-0.474,0.571-1.349,0.96-1.92c0.317,0.003,0.22,0.421,0.479,0.48
	c-0.759,5.129-1.252,10.517-3.119,15.84c-0.633,1.208-1.106,2.573-1.44,4.08c0,0.239,0,0.479,0,0.72c-1.439,0-2.88,0-4.319,0
	c-0.112-4.813-0.242-8.332,0-12c1-0.119,1.154-1.085,1.439-1.92c0.062-1.517,0.744-2.2,0.479-2.88
	c0.83,1.191,0.773,2.198,1.439,3.12c0.721,0.074,1.827-1.528,2.4-2.4c0.7-0.34,0.761-1.318,1.199-1.92
	C88.384,105.956,88.967,105.979,89.069,105.521z"/>
<path fill="#B8BEBE" d="M74.909,107.44c-0.03,0.431,0.238,0.562,0.721,0.48c-0.417,0.463-0.543,1.216-0.96,1.68
	C74.137,109.207,74.697,107.886,74.909,107.44z"/>
<path fill="#B8BEBE" d="M72.989,41.92c0.078-0.882-0.205-2.125,0.24-2.64c0.4,0,0.8,0,1.2,0c-0.373,1.121-0.176,2.183,0,3.36
	c-0.447,0.033-0.802,0.158-0.96,0.48C72.944,43.085,72.954,42.517,72.989,41.92z"/>
<path fill="#B8BEBE" d="M81.63,77.682c0.239,0,0.479,0,0.72,0c0,0.24,0,0.479,0,0.72c0.46,0.807,0.168,1.996,0.479,2.4
	c0.113,1.153-1.466,0.613-1.199,1.92c0.432,0.005,1.412-0.004,2.399-0.24c-1.326,3.749-3.538,7.508-8.16,7.68
	c-1.86,0.069-3.945-0.345-6-0.96c0-0.399,0-0.8,0-1.199c0.088-1.112,1.142-1.26,1.92-1.681c0.457-0.103,0.604-0.517,1.2-0.479
	c-0.145,0.895,0.614,1.518,0,2.16c0.389-0.068,0.413,0.227,0.721,0.239c0.517-0.469-0.414-1.946,0.72-2.64
	c0.496,0.479,1.379-0.688,2.399-0.48c0.597-0.035,0.996,0.124,1.2,0.48c0,0.64,0,1.28,0,1.92c0.431-0.03,0.506,0.294,0.96,0.24
	c0.541-0.636-0.198-2.031-0.24-2.88c0.826-0.375,1.676-0.726,1.921-1.681c-0.989-0.188-1.232,0.369-2.16,0.24
	c-0.78-1.464,0.972-2.625-0.48-3.6c-0.003,0.477-0.655,0.305-0.479,0.96c-0.376,1.664,0.104,4.497-2.16,3.6
	c-0.651,0.277-0.598,0.116-1.44,0c-0.694-0.985-0.213-3.147-0.72-4.32C76.67,79.028,78.055,78.999,81.63,77.682z"/>
<path fill="#B8BEBE" d="M75.39,111.042c0.419-0.787,0.386-1.222,0.72-1.681c2.946,3.072,1.2,8.135,1.2,12
	c-0.553,0.647-0.085,2.315-0.24,3.36c-1.359,0-2.72,0-4.08,0c-0.194-2.517,0.271-5.646,0.24-7.2c0.015-2.065,0.146-4.016,0.72-5.52
	c0.428-0.448,0.61,0.194,1.44,0C75.06,111.454,76.008,111.1,75.39,111.042z"/>
<path fill="#C1A160" d="M82.829,55.36c-3.316-0.728-9.058-0.715-14.399-0.72c-0.55-3.185,3.474-2.895,5.52-3.6
	c0.956,0.126,1.736,1.086,2.641,1.2c1.591,0.2,2.027-0.68,3.359-0.96c2.777-0.584,6.166,1.305,10.32,2.16
	c0.096,1.185,0.817,1.743,1.199,2.64c-0.499-0.521-0.775,0.029-1.199,0.24c-0.291,0.669-0.531,1.389-1.2,1.68
	c-0.695-1.783-1.371-1.944-3.84-2.4C84.726,55.371,83.334,54.795,82.829,55.36z"/>
<path fill="#EEBD34" d="M61.949,57.762c-0.786,0.192-1.317,2.042-1.92,0.96c-0.181-1.02,0.006-1.975,0.48-2.64c0.96,0,1.92,0,2.88,0
	C63.087,56.818,62.57,57.342,61.949,57.762z"/>
<path fill="#64746C" d="M39.148,90.881c1.84,0,3.68,0,5.521,0C43.385,91.281,40.434,91.281,39.148,90.881z"/>
<path fill="#2B2824" d="M91.949,23.682c-0.278,1.346-2.222,2.606-2.64,4.56c1.619,0.753,4.457,1.118,3.6,3.6
	c-1.592-1.085-2.397-2.064-4.56-2.16C87.674,26.855,90.134,24.005,91.949,23.682z"/>
<path fill="#64746C" d="M82.255,232.397c0.042,0.758,0.949,0.65,1.68,0.72c-2.938,2.415-8.022,1.713-11.76-0.96
	c-1.654-1.184-4.563-3.849-4.32-4.8c0.79-3.103,4.144-5.749,3.12-10.08c3.479-0.795,5.15-2.327,7.44-4.56
	c1.07,0.781,1.679,1.557,3.12,1.44c0,0.8,0,1.6,0,2.4c0.419,1.181,1.372,1.827,3.119,1.68c1.629,1.499,1.509,6.566,5.28,5.04
	c0.438,1.743,0.063,3.673,1.2,5.76c0.948,1.741,3.613,3.628,0.479,5.76C87.32,235.633,86.208,231.679,82.255,232.397z
	 M78.895,225.437c-2.161-0.095-2.968-1.074-4.56-2.16c-0.857,2.482,1.979,2.847,3.6,3.6c-0.418,1.954-2.36,3.214-2.64,4.56
	C77.11,231.113,79.57,228.263,78.895,225.437z"/>
<path fill="#64746C" d="M67.375,181.517c-0.448,1.739-2.534,3.825-1.92,6.72c0.425,2.003,2.033,2.475,3.358,3.36
	c-0.142,3.007,0.62,5.41,1.682,8.16c5.229,2.986,14.837,6.087,23.04,5.28c2.8-0.276,6.188-0.901,6.96-4.56
	c2.409-0.776,7.042,0.812,7.92-1.92c8.702,2.95,15.383,10.094,13.439,20.4c-0.34-0.021-0.68-0.04-0.72,0.24
	c-2.23-0.7-4.025-3.901-6.72-6c-2.209-1.72-4.48-2.5-6.24-4.08c-10.148-4.472-21.031-4.043-29.04,1.68
	c-4.521,3.229-7.504,7.486-13.92,5.04c-3.382-1.29-8.18-5.19-10.561-8.16c-3.382-4.22-6.629-11.952-6.239-16.8
	C49.205,181.013,58.4,180.728,67.375,181.517z"/>
<path fill="#774727" d="M92.095,211.758c-0.32,0-0.64,0-0.96,0c-0.039-0.279,0.053-0.427,0.24-0.48c0.24,0,0.285-0.194,0.479-0.24
	c0.204-0.044,0.228,0.094,0.24,0.24C92.095,211.437,92.095,211.598,92.095,211.758z"/>
<path fill="#64746C" d="M65.455,180.317c-0.729-0.15-2.067,0.308-2.4-0.24C63.784,180.228,65.122,179.77,65.455,180.317z"/>
<path fill="#2B2824" d="M82.975,174.558c-1.073-0.008,0.526-0.706,0-1.68C84.024,172.861,83.253,174.387,82.975,174.558z"/>
<path fill="#B8BEBE" d="M98.095,173.117c-0.303-0.576-1.892,0.133-2.16-0.479C96.599,172.853,98.188,172.144,98.095,173.117z"/>
<path fill="#64746C" d="M80.335,130.396c-2.608,7.132-4.44,15.051-4.801,24.24c-1.654-0.105-2.936-0.585-3.84-1.44
	c-0.907-3.332-1.805-6.675-2.399-10.319c2.092-1.188,4.176-2.385,5.76-4.08c-1.787-3.413-5.502-4.898-7.2-8.4
	C72.015,130.396,76.175,130.396,80.335,130.396z"/>
<path fill="#64746C" d="M107.694,130.396c-2.6,3.855-6.037,7.732-10.56,10.32c0.813,1.267,1.961,2.199,2.64,3.6
	c-1.36,3.438-3.484,6.115-5.76,8.641c-0.349-0.371-1.229-0.212-1.92-0.24c2.062-6.563,3.832-13.66,3.36-22.32
	C99.535,130.396,103.614,130.396,107.694,130.396z"/>
<path fill="#774727" d="M53.215,130.396c4.399,0,8.8,0,13.2,0c1.897,3.062,4.101,5.819,7.199,7.68
	c-1.159,2.041-3.411,2.988-5.521,4.08c0.292,2.902,1.213,7.055,2.16,10.08c-7.923-2.294-13.762-6.027-20.4-9.12
	C52.038,140.047,53.521,135.175,53.215,130.396z"/>
<path fill="#774727" d="M109.135,130.396c2.8,0,5.6,0,8.399,0c-0.432,1.485-0.188,3.155-0.479,4.561
	c-0.699,3.375-2.571,7.66-4.56,9.119c-1.653,1.213-4.513,1.764-6.721,2.641c-2.425,0.963-4.856,2.062-7.439,2.64
	c0.946-1.613,1.933-3.187,2.88-4.8c-0.572-1.429-1.711-2.289-2.4-3.6C103.045,138.226,106.576,134.799,109.135,130.396z"/>
<path fill="#64746C" d="M121.615,130.396c-0.594,4.406-1.342,12.69-6.96,12.72c2.776-3.946,3.732-8.97,3.601-12.72
	C119.375,130.396,120.495,130.396,121.615,130.396z"/>
<path fill="#64746C" d="M52.015,130.396c-0.137,5.232-0.463,9.146-3.84,12.48c-3.526-1.832-4.89-9.022-5.521-12.48
	C45.774,130.396,48.895,130.396,52.015,130.396z"/>
<path fill="#774727" d="M87.056,130.396c0.24,0,0.479,0,0.72,0c-0.372,0.491-0.372,2.148,0,2.64c0.656-0.265,0.188-1.977,0.24-2.64
	c0.32,0,0.64,0,0.96,0c-0.25,3.544-0.428,6.845-0.72,11.28c-0.896,0.021-0.685,0.269-1.44,0
	C86.915,136.966,86.709,133.74,87.056,130.396z"/>
<path fill="#64746C" d="M89.935,133.758c0-1.12,0-2.24,0-3.36c0.08,0,0.16,0,0.24,0C90.02,131.441,90.487,133.11,89.935,133.758z"/>
<path fill="#2B2824" d="M87.774,130.396c0.08,0,0.16,0,0.24,0c-0.054,0.663,0.416,2.375-0.24,2.64
	C87.403,132.545,87.403,130.889,87.774,130.396z"/>
<path fill="#C1A160" d="M51.535,182.718c-0.699,0.739-1.321,1.558-2.159,2.16C49.757,183.819,50.655,183.278,51.535,182.718z"/>
<path fill="#C1A160" d="M67.615,217.517c-1.313,0.114-2.065-0.334-2.641-0.96C65.84,216.893,66.808,217.125,67.615,217.517z"/>
<path fill="#64746C" d="M69.535,231.198c-0.979-0.78-1.859-1.66-2.641-2.64C67.875,229.336,68.755,230.217,69.535,231.198z"/>
<path fill="#C1A160" d="M120.175,205.758c0.5,0.46,1,0.92,1.2,1.68C120.882,207.119,119.915,206.034,120.175,205.758z"/>
<path fill="#64746C" d="M79.854,135.197c0.35-1.491,0.793-2.888,1.44-4.08C80.961,132.624,80.487,133.989,79.854,135.197z"/>
<path fill="#B8BEBE" d="M78.175,149.598c-0.127,1.473-0.937,2.264-1.2,3.6c-0.972-0.259,0.073-1.143-0.239-2.16
	c0.261,0.06,0.162,0.478,0.479,0.48C77.604,150.946,77.689,150.071,78.175,149.598z"/>
<path fill="#B8BEBE" d="M79.854,146.477c-0.217,0.742-0.598,1.322-0.96,1.92c-0.079,0-0.159,0-0.239,0
	C79.094,147.795,79.154,146.816,79.854,146.477z"/>
<path fill="#B8BEBE" d="M85.614,142.396c-0.659,0.46-0.814,1.426-1.439,1.92C84.46,143.481,84.614,142.516,85.614,142.396z"/>
<path fill="#B8BEBE" d="M93.295,143.117c0,0.24,0,0.48,0,0.721c-0.425-0.532-1.348-0.7-1.44,0.239c-0.619-0.058,0.33-0.412,0-0.96
	C92.685,142.922,92.869,143.564,93.295,143.117z"/>
<path fill="#64746C" d="M94.015,137.598c-0.031-1.554,0.435-4.684,0.24-7.2c0.08,0,0.16,0,0.24,0
	C94.483,132.946,94.624,135.646,94.015,137.598z"/>
<path fill="#64746C" d="M105.295,188.957c0.238,0.961,1.688,0.712,1.68,1.92C106.477,190.176,105.446,190.005,105.295,188.957z"/>
<path fill="#2B2824" d="M97.614,207.437c0,0.4,0,0.8,0,1.2c-0.279-0.36-0.692-0.587-0.72-1.2c0.193-0.127,0.39-0.25,0.72-0.24
	C97.614,207.278,97.614,207.357,97.614,207.437z"/>
<path fill="#B8BEBE" d="M86.814,218.718c0.032-2.474,1.319-3.651,2.16-6.24c0.734-0.174,0.706,0.414,1.44,0.24
	c0.053,0.773-0.426,1.016-0.24,1.92c0.957,0.157,0.688-0.913,0.72-1.68c0.716-0.287,0.816-0.066,1.44,0.24
	c0.004,2.467-0.415,4.69-0.96,6.24c-1.564-1.091-0.718-2.296-0.96-4.08c-0.777-0.297-0.185,0.776-0.96,0.48
	C90.657,217.395,88.675,218.753,86.814,218.718z"/>
<path fill="#B8BEBE" d="M86.574,212.957c0.938-0.103,0.659-1.421,1.921-1.2c-0.125,1.554-0.978,2.383-1.44,3.6
	c-0.876,0.156-1.278-0.162-1.68-0.48c0.296-0.504,0.664-0.936,0.96-1.44C86.066,213.142,86.126,212.945,86.574,212.957z"/>
<path fill="#B8BEBE" d="M85.135,213.678c-0.214,0.106-0.429,0.211-0.479,0.48c-0.53-0.189-0.601-0.839-0.96-1.2
	c0.748-1.411,1.937-2.384,3.601-2.88c0.56,1.063-0.18,1.982-0.96,2.4C85.855,212.799,85.295,213.037,85.135,213.678z"/>
<path fill="#2B2824" d="M86.335,213.437c-0.5-0.521-0.776,0.029-1.2,0.24c0.16-0.641,0.721-0.879,1.2-1.2
	c0.045,0.194,0.24,0.239,0.239,0.48C86.126,212.945,86.066,213.142,86.335,213.437z"/>
<path fill="#B8BEBE" d="M95.935,215.118c-1.313-0.874-0.99-2.922-0.96-4.8C96.834,210.62,97.073,213.86,95.935,215.118z"/>
<path fill="#B8BEBE" d="M81.535,210.558c1.787-0.559,3.653-2.23,5.521-1.92C85.573,209.481,82.296,214.151,81.535,210.558z"/>
<path fill="#774727" d="M92.095,211.758c0-0.16,0-0.32,0-0.48c1.412-0.348,1.28-2.24,1.68-3.6c0.356,0.204,0.517,0.604,0.48,1.2
	C93.789,208.544,94.438,211.582,92.095,211.758z"/>
<path fill="#774727" d="M91.375,211.278c0.371-0.846-1.171-2.394-0.24-3.84c0.679,0.199,0.622-0.338,1.2-0.24
	c0.772,1.344-0.131,2.843-0.48,3.84C91.66,211.083,91.615,211.278,91.375,211.278z"/>
<path fill="#774727" d="M90.175,210.318c-1.068-0.698-0.104-2.086-1.68-2.4c0.029-0.53,1.018-0.102,1.439-0.24
	C90.014,208.559,89.729,209.802,90.175,210.318z"/>
<path fill="#774727" d="M90.175,210.318c0.074,0.566,0.833,0.446,0.72,1.2c-1.89,0.781-3.324-2.047-2.88-3.6c0.16,0,0.32,0,0.48,0
	C90.072,208.231,89.106,209.62,90.175,210.318z"/>
<path fill="#2B2824" d="M96.175,207.917c-0.24,0-0.48,0-0.72,0c-0.296-0.104-0.493-0.307-0.48-0.72
	C95.534,207.278,96.009,207.444,96.175,207.917z"/>
<path fill="#B8BEBE" d="M96.175,207.917c0.146,0.575,0.345,1.095,0.24,1.92c-1.398-0.033-1.22-1.215-0.96-1.92
	C95.694,207.917,95.935,207.917,96.175,207.917z"/>
<path fill="#64746C" d="M78.175,197.118c-0.669,0.292-0.909,1.011-1.2,1.68c0.067-0.547-0.058-0.902-0.479-0.96
	C77.013,197.556,77.597,197.339,78.175,197.118z"/>
<path fill="#64746C" d="M84.415,199.758c-0.505,0.565-1.896-0.01-2.4-0.24C83.063,199.349,83.367,199.926,84.415,199.758z"/>
<path fill="#EEBD34" d="M105.295,190.638c3.346,1.022-3.345,8.399-5.04,8.88c-0.861,0.245-1.841-0.212-2.16,0
	C100.596,196.658,102.939,193.642,105.295,190.638z"/>
<path fill="#64746C" d="M107.215,196.396c-0.603-1.082-1.134,0.768-1.92,0.96c0.568-0.631,0.953-1.447,1.92-1.68
	C107.215,195.917,107.215,196.158,107.215,196.396z"/>
<path fill="#774727" d="M88.734,192.797c-0.788,0.813-1.143,2.057-2.16,2.64C87.362,194.625,87.719,193.38,88.734,192.797z"/>
<path fill="#EEBD34" d="M86.814,193.517c1.38-1.58,1.979-3.942,3.84-5.04c0.925,1.334-1.301,3-1.92,4.32
	c-1.017,0.583-1.373,1.827-2.16,2.64c-1.253,1.066-1.803,2.836-3.839,3.12c-0.552-0.786,0.994-1.134,1.199-1.92
	C85.12,195.823,85.913,194.615,86.814,193.517z"/>
<path fill="#774727" d="M86.814,193.517c-0.901,1.098-1.694,2.305-2.88,3.12C84.927,195.629,85.682,194.384,86.814,193.517z"/>
<path fill="#774727" d="M85.614,186.797c-1.124,0.796-2.359,1.479-3.359,2.4C83.071,188.094,84.204,187.307,85.614,186.797z"/>
<path fill="#774727" d="M87.774,186.558c1.325-0.044,2.187,0.374,2.88,0.96C89.756,187.137,88.694,186.917,87.774,186.558z"/>
<path fill="#C1A160" d="M96.895,181.517c-0.702,0.431-3.842,1.679-3.36,0.96C94.636,182.138,95.735,181.797,96.895,181.517z"/>
<path fill="#774727" d="M95.935,162.558c-1.008-0.365-1.555,0.317-2.4-0.48c0.638-0.348,1.773,0.241,2.4-0.96
	C95.837,161.869,95.068,162.099,95.935,162.558z"/>
<path fill="#C1A160" d="M82.255,189.198c-1.687,1.754-2.461,4.419-3.36,6.96c-1.669,0.229-1.301-1.579-2.159-2.16
	c0.838-1.015-0.189-2.852,0-4.8c0.168-1.72,2.069-3.808-0.239-4.8c-0.966,2.979-3.74,8.608-8.4,5.76
	c-4.617-2.822,2.571-14.401,9.12-9.6c0.686-9.946,3.141-23.802,11.28-26.64c3.427-1.195,8.672,0.463,7.439,7.199
	c-0.627,1.201-1.763,0.612-2.4,0.96c0.846,0.798,1.393,0.115,2.4,0.48c0.563-0.387,1.908,0.046,2.4,0.479
	c0.095,2.681-2.296,1.278-3.36,1.2c-10.997-0.802-12.411,6.414-14.88,15.601c-0.423,0.212-0.396,1.064-0.96,0.479
	c0.063,1.137,0.927,1.474,1.439,2.16c0.569-0.15-0.036-1.478,0.479-1.68c4.683-2.705,11.969-5.61,18-4.08
	c-0.375,1.421-0.497,1.849-0.72,3.6c-2.708,0.256-8.896,1.81-8.4,4.32c0.292,1.48,2.577,1.471,4.08,1.2
	c-0.472-0.888-2.352-0.369-2.88-1.2c0.008-1.512,1.509-1.531,2.4-2.16c-0.482,0.719,2.657-0.529,3.359-0.96c0.08,0,0.16,0,0.24,0
	c0.068,0.052,2.239,0.171,2.64-0.24c2.63-0.23,6.611,0.03,7.44,1.92c1.867,4.256-6.505,5.041-9.84,6
	c-0.971,1.03-1.212,2.788-2.641,3.36c-0.942-2.097-2.121-3.958-4.08-5.04c-0.693-0.586-1.555-1.004-2.88-0.96
	c-0.598,0.202-1.286,0.314-2.16,0.24C84.204,187.307,83.071,188.094,82.255,189.198z M68.575,188.718
	c3.679,0.237,5.76-1.121,6.239-4.08c-1.243,0.596-1.524,2.154-3.119,2.4c-0.758-0.523-0.405-2.154-0.479-3.36
	c-1.545,0.42-1.206,2.578-0.72,3.84c-0.532,0.698-0.977,0.095-2.16,0.24C68.317,188.176,68.389,188.503,68.575,188.718z"/>
<path fill="#C1A160" d="M99.774,181.277c-0.4,0.411-2.571,0.292-2.64,0.24C97.65,181.073,98.893,181.354,99.774,181.277z"/>
<path fill="#EEBD34" d="M80.575,194.718c0.892-2.949,2.028-5.651,5.04-6.48C84.58,191.042,82.809,193.112,80.575,194.718z"/>
<path fill="#EEBD34" d="M98.095,192.078c-0.657,1.023-1.743,1.617-2.4,2.64c-0.676-0.243,0.066-1.02,0-1.44c0.08,0,0.16,0,0.24,0
	c0.045,0.194,0.241,0.239,0.24,0.48C96.962,193.344,97.309,192.491,98.095,192.078z"/>
<path fill="#EEBD34" d="M95.935,193.278c0.805-1.835,1.822-3.458,4.08-3.84c-0.313,1.208-1.367,1.673-1.92,2.64
	c-0.786,0.414-1.133,1.266-1.92,1.68C96.176,193.517,95.98,193.472,95.935,193.278z"/>
<path fill="#2B2824" d="M128.096,190.158c-0.821,1.419-1.941,2.539-3.36,3.36c0.557-1.204,1.573-1.947,2.4-2.88
	c0.48,0.082,0.75-0.049,0.72-0.48C127.935,190.158,128.015,190.158,128.096,190.158z"/>
<path fill="#2B2824" d="M129.774,173.598c0.167-0.971-0.035-2.294-0.96-1.44c0.024-0.61,0.896-0.566,1.2-0.239
	C129.872,172.415,130.312,173.494,129.774,173.598z"/>
<path fill="#2B2824" d="M124.975,177.197c-0.875,1.445-2.693,1.947-2.88,4.08C121.549,179.368,124.007,178.391,124.975,177.197z"/>
<path fill="#2B2824" d="M119.215,191.598c-0.106-0.349-0.21,0.024-0.48,0c1.603-2.638,4.476-4.005,5.04-7.68
	c0.015-1.134-0.876-1.364-1.439-1.92c-0.281-0.039-0.202-0.438-0.24-0.721c0.187-2.133,2.004-2.635,2.88-4.08
	c1.196-1.764,2.875-3.045,3.84-5.04c0.925-0.854,1.127,0.47,0.96,1.44c-0.575,2.306-1.653,4.106-2.399,6.24
	c-0.979,0.31,0.005,2.46,0.479,1.92c0.697,0.583,1.54,1.021,2.4,1.439c0.403,3.445-0.829,5.252-2.16,6.96c-0.08,0-0.16,0-0.24,0
	c0.031,0.431-0.238,0.562-0.72,0.48c0.979-1.901,2.462-3.298,2.16-6.48c-3.812-1.532-3.64-4.552-1.44-8.159
	c-1.663,0.578-3.712,2.846-4.8,4.8c0.169,1.431,1.489,1.71,1.92,2.88C123.988,187.25,121.616,189.438,119.215,191.598z"/>
<path fill="#2B2824" d="M119.215,191.598c-0.361,1.274-1.902,0.732-0.48,0C119.005,191.622,119.108,191.248,119.215,191.598z"/>
<path fill="#2B2824" d="M123.774,183.917c-0.313-0.806-1.204-1.036-1.439-1.92C122.898,182.554,123.789,182.784,123.774,183.917z"/>
<path fill="#B8BEBE" d="M82.735,179.117c-0.801,0-0.818,0.781-1.681,0.721c0.183-1.657,0.577-3.104,1.2-4.32
	c0.989,0.593,0.451-0.521,1.439-0.479c-0.006,0.564,0.413,0.706,0.239,1.439c0.055,0.426-0.241,1.202,0.48,0.96
	C84.18,178.322,82.885,178.146,82.735,179.117z"/>
<path fill="#2B2824" d="M85.614,177.437c-0.857,0.661-2.185,0.854-2.879,1.68c0.149-0.97,1.444-0.795,1.681-1.68
	c-0.723,0.242-0.427-0.534-0.48-0.96c0.252,0.302,0.75,1.707,0.721,0.24c0.08,0,0.16,0,0.239,0c0,0.24,0,0.479,0,0.72
	C85.135,177.437,85.375,177.437,85.614,177.437z"/>
<path fill="#2B2824" d="M91.854,170.718c-2.265-0.897-1.784,1.936-2.16,3.6c-0.08-1.76-0.092-3.452,0.721-4.319
	c1.021,0.208,1.903-0.96,2.399-0.48c-0.459,0.421-1.251,0.509-1.92,0.72C90.723,170.89,92.026,170.064,91.854,170.718z"/>
<path fill="#B8BEBE" d="M97.375,167.117c0,0.4,0,0.801,0,1.2c-0.764,0.037-1.057,0.544-1.92,0.48
	C96.234,168.376,97.287,168.229,97.375,167.117z"/>
<path fill="#2B2824" d="M88.734,171.678c-0.928-0.129-1.171,0.429-2.16,0.24c0.246-0.955,1.096-1.306,1.921-1.681
	c-0.042-0.849-0.781-2.244-0.24-2.88c0.075,1.045,0.276,1.963,0.479,2.88c-0.597,0.443-1.354,0.726-1.68,1.44
	C87.84,172.014,88.606,170.482,88.734,171.678z"/>
<path fill="#B8BEBE" d="M98.095,173.117c0,0.641,0,1.28,0,1.921c-0.511,0.265-1.95,0.248-3.36,0.239
	c-0.313-0.933,0.004-1.241,0-2.88c0.679-0.198,0.622,0.339,1.2,0.24C96.203,173.25,97.792,172.541,98.095,173.117z"/>
<path fill="#B8BEBE" d="M128.335,165.197c1.116,0.084,1.598,0.803,2.16,1.44C129.726,169.292,127.359,167.311,128.335,165.197z"/>
<path fill="#B8BEBE" d="M82.735,157.037c-0.329,1.112-1.422,1.459-1.681,2.641c-2.928-1.284-5.151-4.938-2.16-8.16
	c-0.279-2.255,1.612-3.285,2.4-5.521c1.976,1.586,2.595,4.394,5.04,6.001c-0.362,0.438-0.255,1.345-0.721,1.68
	C85.195,155.337,83.322,155.544,82.735,157.037z"/>
<path fill="#B8BEBE" d="M85.614,153.678c-0.198,1.88-1.971,2.188-2.879,3.359C83.322,155.544,85.195,155.337,85.614,153.678z"/>
<path fill="#B8BEBE" d="M92.335,147.678c-0.796,1.659-0.653,6.365-4.08,5.28c1.977-1.537,2.729-2.846,3.359-5.761
	C92.097,147.116,92.365,147.247,92.335,147.678z"/>
<path fill="#C1A160" d="M89.935,149.598c0.331-1.022,0.06-2.553,0.24-3.12C90.567,147.373,90.471,148.934,89.935,149.598z"/>
<path fill="#C1A160" d="M90.175,146.237c-0.516-0.765-0.665-1.896-1.2-2.64C89.723,144.129,90.016,145.116,90.175,146.237z"/>
<path fill="#EEBD34" d="M89.935,149.598c-4.87,7.949-7.624-11.032-0.96-6c0.535,0.744,0.685,1.875,1.2,2.64c0,0.08,0,0.16,0,0.24
	C89.994,147.044,90.266,148.575,89.935,149.598z"/>
<path fill="#C1A160" d="M91.854,227.357c-0.799-1.284-0.592-4.845-0.24-6.48C91.605,223.126,91.545,225.428,91.854,227.357z"/>
<path fill="#C1A160" d="M123.295,217.037c-0.397-0.685,0.128-0.98,0-2.4C123.692,214.896,123.692,216.779,123.295,217.037z"/>
<path fill="#64746C" d="M94.255,213.198c0.301,0.317,0.63,2.698-0.24,2.64C94.46,215.322,94.177,214.079,94.255,213.198z"/>
<path fill="#B8BEBE" d="M47.695,189.198c-0.115,1.626-0.407,3.021,0,4.56C46.876,192.836,47.15,190.194,47.695,189.198z"/>
<path fill="#2B2824" d="M106.975,190.876c1.428,1.052,0.651,4.309,1.44,6c4.523,2.356,9.129,4.631,11.76,8.88
	c-0.26,0.276,0.707,1.361,1.2,1.68c1.149,1.89,1.75,4.33,1.92,7.2c0.128,1.419-0.397,1.715,0,2.4
	c-1.805,8.825-8.153-2.697-11.04-4.32c-2.813-1.027-5.021-2.659-7.92-3.6c-0.453-0.427-0.97-0.791-1.92-0.72
	c-1.721-0.2-2.721-1.12-4.801-0.96c0-0.08,0-0.16,0-0.24c-0.33-0.01-0.526,0.113-0.72,0.24c0.027,0.613,0.44,0.84,0.72,1.2
	c0.618,3.298,0.544,8.936-2.399,10.32c-1.006,0.474-1.926,0.077-3.12,0.72c-0.524,0.035-0.515,0.604-0.48,1.2
	c-0.352,1.635-0.559,5.196,0.24,6.48c2.102,2.516,4.125,8.22-0.72,8.88c-2.229,0.304-3.602-1.542-6-1.68
	c-3.424-0.197-5.531,2.419-8.399,1.44c-2.763-1.237-5.114-2.885-7.2-4.8c-0.779-0.98-1.659-1.86-2.641-2.64
	c-0.354-3.689,3.688-6.165,2.641-10.56c-0.525-0.273-0.979-0.619-1.92-0.48c-0.808-0.392-1.774-0.625-2.641-0.96
	c-9.484-3.875-15.175-11.545-17.279-22.8c-0.407-1.539-0.115-2.934,0-4.56c0.154-0.885,0.246-1.834,0.721-2.4
	c0.31-0.65,0.833-1.087,0.96-1.92c0.838-0.603,1.46-1.421,2.159-2.16c2.307-1.135,4.426-2.455,7.921-2.4
	c0.887-0.153,2.391,0.311,2.88-0.24c0.239,0,0.479,0,0.72,0c0.333,0.548,1.671,0.09,2.4,0.24c3.376,0.973,4.414-1.368,7.68-1.68
	c0.443-2.065,2.934-1.729,3.84-3.6c0.883-1.823,0.668-5.178,1.2-7.681c0.562-2.64,1.496-4.684,2.16-6.72
	c-1.659-1.381-3.09-2.99-4.32-4.8c-1.661-0.179-2.826-0.854-4.319-1.2c-0.859-0.181-1.018-1.063-1.681-1.44
	c-8.572-1.929-14.444-7.766-22.56-9.359c-3.689-2.791-4.861-8.099-6-13.44c0.398,0,0.8,0,1.199,0
	c0.63,3.458,1.993,10.648,5.521,12.48c3.377-3.335,3.703-7.248,3.84-12.48c0.4,0,0.8,0,1.2,0c0.306,4.777-1.177,9.65-3.36,12.72
	c6.641,3.093,12.479,6.826,20.4,9.12c-0.947-3.025-1.868-7.178-2.16-10.08c2.108-1.092,4.36-2.039,5.521-4.08
	c-3.1-1.86-5.302-4.618-7.199-7.68c0.479,0,0.96,0,1.438,0c1.698,3.502,5.413,4.987,7.2,8.4c-1.584,1.695-3.668,2.892-5.76,4.08
	c0.596,3.645,1.492,6.987,2.399,10.319c0.904,0.855,2.186,1.335,3.84,1.44c0.359-9.189,2.191-17.108,4.801-24.24
	c0.319,0,0.64,0,0.96,0c0,0.24,0,0.48,0,0.72c-0.647,1.192-1.092,2.589-1.44,4.08c-1.867,5.323-2.361,10.711-3.119,15.84
	c0.313,1.018-0.731,1.901,0.239,2.16c0.265-1.336,1.073-2.127,1.2-3.6c0.103-0.458,0.686-0.435,0.479-1.2c0.08,0,0.16,0,0.239,0
	c0.362-0.598,0.743-1.178,0.96-1.92c0.573-0.872,1.68-2.475,2.4-2.4c0.666,0.922,0.609,1.929,1.439,3.12
	c-0.265-0.68,0.419-1.363,0.479-2.88c0.625-0.494,0.779-1.46,1.439-1.92c0.242-3.668,0.112-7.188,0-12c0.48,0,0.96,0,1.44,0
	c-0.346,3.343-0.14,6.568-0.24,11.28c0.756,0.269,0.543,0.021,1.44,0c0.292-4.436,0.471-7.736,0.72-11.28c0.32,0,0.64,0,0.96,0
	c0,1.12,0,2.24,0,3.36c0,3.865-1.747,8.928,1.2,12c0.334-0.459,0.301-0.894,0.72-1.681c0.093-0.939,1.015-0.771,1.44-0.239
	c0-0.24,0-0.48,0-0.721c0.575-1.504,0.705-3.454,0.72-5.52c0.609-1.951,0.469-4.651,0.479-7.2c0.32,0,0.641,0,0.96,0
	c0.472,8.66-1.298,15.757-3.359,22.32c0.69,0.028,1.571-0.131,1.92,0.24c2.274-2.525,4.398-5.202,5.76-8.641
	c-0.679-1.4-1.827-2.333-2.64-3.6c4.522-2.588,7.96-6.465,10.56-10.32c0.48,0,0.96,0,1.44,0c-2.56,4.401-6.09,7.829-10.32,10.561
	c0.689,1.311,1.828,2.171,2.4,3.6c-0.947,1.613-1.934,3.187-2.88,4.8c2.583-0.578,5.015-1.677,7.439-2.64
	c2.208-0.877,5.067-1.428,6.72-2.641c1.989-1.459,3.861-5.744,4.561-9.119c0.291-1.405,0.048-3.075,0.479-4.561
	c0.24,0,0.48,0,0.721,0c0.132,3.75-0.824,8.773-3.601,12.72c5.618-0.029,6.367-8.313,6.96-12.72c0.24,0,0.48,0,0.721,0
	c0.138,5.731-1.077,10.626-4.801,12.96c-1.269,0.795-2.625,0.708-4.08,1.2c-1.428,0.482-2.97,1.317-4.56,1.92
	c-5.237,1.983-11.084,3.391-14.16,6.96c1.229,2.131,2.536,4.185,2.16,7.92c0.521,0.839,2.115,0.604,2.16,1.92
	c-0.325,1.469-1.586,2.897-0.72,4.8c8.484-1.335,15.063-3.584,24.239-3.84c1.841,0,3.681,0,5.521,0
	c1.709,0.064,3.441,0.609,3.359,2.4c-0.106,2.342-3.225,2.039-5.279,2.399c-7.894,1.387-18.344,4.186-27.36,3.601
	c-0.191,3.631,1.792,3.929,0.72,7.439c3.499,0.192,8.119,0.413,8.881,3.12c0.911,3.246-1.595,3.84-3.36,5.521
	c0.146,0.014,0.284,0.036,0.24,0.24C105.446,190.005,106.477,190.176,106.975,190.876z M91.614,234.797
	c3.134-2.132,0.469-4.02-0.479-5.76c-1.137-2.086-0.763-4.017-1.2-5.76c-3.771,1.526-3.651-3.542-5.28-5.04
	c-1.747,0.146-2.7-0.499-3.12-1.68c0-0.8,0-1.6,0-2.4c-1.44,0.117-2.049-0.659-3.119-1.44c-2.29,2.233-3.962,3.765-7.44,4.56
	c1.022,4.331-2.33,6.977-3.12,10.08c-0.241,0.951,2.666,3.616,4.32,4.8c3.735,2.673,8.822,3.375,11.76,0.96
	c-0.729-0.069-1.638,0.038-1.68-0.72C86.208,231.679,87.32,235.633,91.614,234.797z M89.455,215.837
	c0.775,0.296,0.183-0.777,0.96-0.48c0.242,1.784-0.604,2.989,0.96,4.08c0.545-1.549,0.964-3.773,0.96-6.24
	c-0.624-0.306-0.725-0.527-1.44-0.24c-0.033,0.768,0.236,1.837-0.72,1.68c-0.186-0.904,0.293-1.147,0.24-1.92
	c-0.734,0.174-0.706-0.414-1.44-0.24c-0.841,2.589-2.128,3.767-2.16,6.24C88.675,218.753,90.657,217.395,89.455,215.837z
	 M48.415,190.876c-0.39,4.849,2.857,12.58,6.239,16.8c2.38,2.97,7.179,6.87,10.561,8.16c6.416,2.446,9.399-1.811,13.92-5.04
	c8.009-5.724,18.892-6.152,29.04-1.68c1.76,1.58,4.031,2.36,6.24,4.08c2.694,2.099,4.489,5.3,6.72,6
	c0.04-0.28,0.379-0.261,0.72-0.24c1.943-10.306-4.737-17.45-13.439-20.4c-0.878,2.732-5.511,1.144-7.921,1.92
	c-0.771,3.659-4.159,4.284-6.96,4.56c-8.202,0.808-17.81-2.294-23.04-5.28c-1.061-2.75-1.821-5.153-1.681-8.16
	c-1.325-0.885-2.935-1.356-3.358-3.36c-0.614-2.895,1.472-4.981,1.92-6.72C58.4,180.728,49.205,181.013,48.415,190.876z
	 M94.015,215.837c0.87,0.058,0.541-2.323,0.24-2.64c0.035-0.595,0.045-1.165-0.48-1.2c-0.158,0.322-0.513,0.447-0.96,0.48
	c0.176,1.178,0.373,2.239,0,3.36C93.215,215.837,93.614,215.837,94.015,215.837z M86.335,213.437
	c-0.296,0.504-0.664,0.936-0.96,1.44c0.401,0.318,0.804,0.636,1.68,0.48c0.463-1.217,1.314-2.046,1.44-3.6
	c-1.262-0.221-0.983,1.097-1.921,1.2c0.001-0.241-0.193-0.286-0.239-0.48c0.78-0.417,1.52-1.337,0.96-2.4
	c-1.664,0.496-2.853,1.469-3.601,2.88c0.359,0.361,0.43,1.011,0.96,1.2c0.052-0.269,0.267-0.374,0.479-0.48
	C85.559,213.467,85.836,212.917,86.335,213.437z M94.975,210.318c-0.03,1.877-0.354,3.926,0.96,4.8
	C97.073,213.86,96.834,210.62,94.975,210.318z M87.056,208.638c-1.867-0.311-3.733,1.361-5.521,1.92
	C82.296,214.151,85.573,209.481,87.056,208.638z M92.095,211.758c2.344-0.176,1.694-3.213,2.16-2.88
	c0.036-0.596-0.124-0.996-0.48-1.2c-0.399,1.36-0.268,3.252-1.68,3.6c-0.013-0.146-0.036-0.284-0.24-0.24
	c0.35-0.997,1.253-2.496,0.48-3.84c-0.578-0.098-0.521,0.438-1.2,0.24c-0.931,1.447,0.611,2.994,0.24,3.84
	c-0.188,0.053-0.279,0.201-0.24,0.48C91.455,211.758,91.774,211.758,92.095,211.758z M88.495,207.917c-0.16,0-0.32,0-0.48,0
	c-0.444,1.553,0.99,4.381,2.88,3.6c0.113-0.753-0.646-0.634-0.72-1.2c-0.445-0.516-0.162-1.758-0.24-2.64
	C89.514,207.815,88.524,207.388,88.495,207.917z M95.455,207.917c-0.26,0.706-0.438,1.887,0.96,1.92
	c0.104-0.825-0.096-1.345-0.24-1.92c-0.166-0.474-0.641-0.64-1.2-0.72C94.962,207.61,95.159,207.813,95.455,207.917z
	 M76.975,198.797c-0.424,0.21-0.7,0.761-1.199,0.24c0.382,0.897,1.104,1.456,1.199,2.64c4.154,0.855,7.543,2.745,10.32,2.16
	c1.332-0.281,1.769-1.161,3.359-0.96c0.904,0.114,1.685,1.074,2.641,1.2c2.046-0.706,6.069-0.415,5.52-3.6
	c-5.342-0.005-11.083,0.008-14.399-0.72c-1.049,0.168-1.353-0.408-2.4-0.24c-2.469-0.456-3.145-0.617-3.84-2.4
	c-0.578,0.222-1.162,0.438-1.68,0.72C76.917,197.895,77.042,198.25,76.975,198.797z M98.095,199.517c0.319-0.212,1.299,0.245,2.16,0
	c1.695-0.481,8.386-7.858,5.04-8.88C102.939,193.642,100.596,196.658,98.095,199.517z M105.295,197.356
	c-0.622,0.418-1.138,0.943-1.44,1.68c0.96,0,1.92,0,2.88,0c0.475-0.666,0.661-1.621,0.48-2.64c0-0.24,0-0.48,0-0.72
	C106.248,195.911,105.863,196.726,105.295,197.356z M83.935,196.638c-0.205,0.786-1.751,1.134-1.199,1.92
	c2.036-0.284,2.586-2.054,3.839-3.12c1.018-0.583,1.373-1.828,2.16-2.64c0.619-1.32,2.845-2.986,1.92-4.32
	c-1.861,1.098-2.459,3.46-3.84,5.04C85.682,194.384,84.927,195.629,83.935,196.638z M95.935,161.117
	c1.232-6.736-4.013-8.395-7.439-7.199c-8.141,2.838-10.596,16.693-11.28,26.64c-6.549-4.801-13.737,6.778-9.12,9.6
	c4.66,2.848,7.436-2.782,8.399-5.76c2.311,0.992,0.408,3.08,0.24,4.8c-0.189,1.948,0.838,3.785,0,4.8
	c0.858,0.581,0.49,2.39,2.159,2.16c0.899-2.541,1.675-5.206,3.36-6.96c1-0.92,2.235-1.604,3.359-2.4
	c0.875,0.074,1.563-0.039,2.16-0.24c0.919,0.361,1.981,0.579,2.88,0.96c1.959,1.082,3.138,2.943,4.08,5.04
	c1.429-0.572,1.67-2.33,2.641-3.36c3.335-0.96,11.707-1.744,9.84-6c-0.829-1.89-4.811-2.15-7.44-1.92
	c-0.882,0.078-2.125-0.204-2.64,0.24c-0.08,0-0.16,0-0.24,0c-1.16,0.28-2.26,0.62-3.36,0.96c-0.891,0.629-2.392,0.648-2.399,2.16
	c0.529,0.831,2.409,0.312,2.88,1.2c-1.503,0.271-3.789,0.281-4.08-1.2c-0.495-2.511,5.692-4.064,8.4-4.32
	c0.224-1.751,0.345-2.179,0.72-3.6c-6.031-1.53-13.318,1.375-18,4.08c-0.517,0.202,0.09,1.529-0.479,1.68
	c-0.514-0.687-1.377-1.023-1.439-2.16c0.563,0.585,0.537-0.268,0.96-0.479c2.47-9.187,3.884-16.402,14.88-15.601
	c1.063,0.078,3.455,1.48,3.36-1.2c-0.492-0.434-1.838-0.866-2.4-0.479C95.068,162.099,95.837,161.869,95.935,161.117z
	 M85.614,188.238c-3.011,0.829-4.148,3.531-5.04,6.48C82.809,193.112,84.58,191.042,85.614,188.238z M95.935,193.278
	c-0.08,0-0.16,0-0.24,0c0.066,0.42-0.676,1.197,0,1.44c0.657-1.023,1.743-1.617,2.4-2.64c0.553-0.967,1.608-1.432,1.92-2.64
	C97.757,189.819,96.739,191.442,95.935,193.278z M83.935,176.477c0.174-0.733-0.245-0.875-0.239-1.439
	c-0.988-0.041-0.45,1.072-1.439,0.479c-0.623,1.217-1.019,2.663-1.2,4.32c0.861,0.061,0.88-0.721,1.681-0.721
	c0.694-0.825,2.021-1.019,2.879-1.68c3.575-1.317,4.96-1.348,8.4-2.399c-0.507-1.173-0.025-3.335-0.72-4.32
	c-0.843-0.116-0.789-0.277-1.44,0c0.172-0.652-1.132,0.172-0.96-0.48c0.668-0.211,1.46-0.299,1.92-0.72
	c1.134-0.693,0.203-2.171,0.72-2.64c0.308,0.013,0.332,0.308,0.721,0.239c-0.614,0.643,0.145,1.266,0,2.16
	c0.597,0.037,0.743-0.377,1.2-0.479c0.863,0.063,1.156-0.443,1.92-0.48c0-0.399,0-0.8,0-1.2c0-0.399,0-0.8,0-1.199
	c-2.055-0.615-4.14-1.029-6-0.96c-4.622,0.172-6.834,3.931-8.16,7.68c0.987-0.236,1.968-0.245,2.399-0.24
	c0.268,1.307-1.313,0.767-1.199,1.92c0.312,0.404,0.02,1.594,0.479,2.4c-0.079,0-0.159,0-0.239,0
	C84.685,178.184,84.187,176.779,83.935,176.477z M82.975,172.877c0.526,0.974-1.073,1.672,0,1.68
	C83.253,174.387,84.024,172.861,82.975,172.877z M95.935,172.638c-0.578,0.099-0.521-0.438-1.2-0.24c0.004,1.639-0.313,1.947,0,2.88
	c1.41,0.009,2.85,0.025,3.36-0.239c0-0.641,0-1.28,0-1.921C98.188,172.144,96.599,172.853,95.935,172.638z M130.495,166.638
	c-0.563-0.638-1.044-1.356-2.16-1.44C127.359,167.311,129.726,169.292,130.495,166.638z M85.614,153.678
	c0.466-0.335,0.358-1.242,0.721-1.68c-2.445-1.607-3.064-4.415-5.04-6.001c-0.788,2.235-2.681,3.266-2.4,5.521
	c-2.991,3.223-0.768,6.876,2.16,8.16c0.259-1.182,1.352-1.528,1.681-2.641C83.644,155.866,85.416,155.558,85.614,153.678z
	 M91.614,147.197c-0.629,2.915-1.383,4.224-3.359,5.761c3.427,1.085,3.284-3.621,4.08-5.28c0.212-0.444,0.771-1.766,0.239-2.16
	C92.158,145.98,92.031,146.733,91.614,147.197z M88.975,143.598c-6.664-5.032-3.91,13.949,0.96,6c0.536-0.663,0.632-2.225,0.24-3.12
	c0-0.08,0-0.16,0-0.24C90.016,145.116,89.723,144.129,88.975,143.598z"/>
<path fill="#2B2824" d="M68.335,187.758c1.185-0.146,1.628,0.458,2.16-0.24c-0.486-1.262-0.825-3.42,0.72-3.84
	c0.074,1.206-0.277,2.837,0.479,3.36c1.595-0.246,1.876-1.804,3.119-2.4c-0.479,2.959-2.562,4.317-6.239,4.08
	C68.389,188.503,68.317,188.176,68.335,187.758z"/>
<path fill="#64746C" d="M48.415,186.797c0.061-0.899,0.377-1.544,0.96-1.92C49.248,185.71,48.725,186.146,48.415,186.797z"/>
<path fill="#2B2824" d="M127.854,181.758c-0.475,0.54-1.459-1.61-0.479-1.92C127.259,180.753,127.443,181.369,127.854,181.758z"/>
<path fill="#64746C" d="M62.335,180.077c-0.489,0.551-1.993,0.087-2.88,0.24C59.944,179.766,61.448,180.229,62.335,180.077z"/>
<path fill="#2B2824" d="M89.694,174.316c0.176,0.655-0.477,0.483-0.479,0.96c-1.452-0.975,0.3-2.136-0.48-3.6
	c-0.128-1.194-0.895,0.336-1.68,0c0.325-0.715,1.083-0.997,1.68-1.44c-0.203-0.917-0.404-1.835-0.479-2.88
	c0.454-0.054,0.529,0.271,0.96,0.24c0,0.64,0,1.28,0,1.92c0.204,0.356,0.604,0.516,1.2,0.48
	C89.603,170.865,89.614,172.558,89.694,174.316z"/>
<path fill="#B8BEBE" d="M78.175,149.598c-0.485,0.474-0.571,1.349-0.96,1.92c-0.317-0.003-0.22-0.421-0.479-0.48
	c0.759-5.129,1.252-10.517,3.119-15.84c0.633-1.208,1.106-2.573,1.44-4.08c0-0.239,0-0.479,0-0.72c1.439,0,2.88,0,4.319,0
	c0.112,4.813,0.242,8.332,0,12c-1,0.119-1.154,1.085-1.439,1.92c-0.062,1.517-0.744,2.2-0.479,2.88
	c-0.83-1.191-0.773-2.198-1.439-3.12c-0.721-0.074-1.827,1.528-2.4,2.4c-0.7,0.34-0.761,1.318-1.199,1.92
	C78.86,149.163,78.277,149.14,78.175,149.598z"/>
<path fill="#B8BEBE" d="M92.335,147.678c0.03-0.431-0.238-0.562-0.721-0.48c0.417-0.463,0.543-1.216,0.96-1.68
	C93.107,145.912,92.547,147.232,92.335,147.678z"/>
<path fill="#B8BEBE" d="M94.255,213.198c-0.078,0.882,0.205,2.125-0.24,2.64c-0.4,0-0.8,0-1.2,0c0.373-1.121,0.176-2.183,0-3.36
	c0.447-0.033,0.802-0.158,0.96-0.48C94.3,212.033,94.29,212.602,94.255,213.198z"/>
<path fill="#B8BEBE" d="M85.614,177.437c-0.239,0-0.479,0-0.72,0c0-0.24,0-0.479,0-0.72c-0.46-0.807-0.168-1.996-0.479-2.4
	c-0.113-1.153,1.466-0.613,1.199-1.92c-0.432-0.005-1.412,0.004-2.399,0.24c1.326-3.749,3.538-7.508,8.16-7.68
	c1.86-0.069,3.945,0.345,6,0.96c0,0.399,0,0.8,0,1.199c-0.088,1.112-1.142,1.26-1.92,1.681c-0.457,0.103-0.604,0.517-1.2,0.479
	c0.145-0.895-0.614-1.518,0-2.16c-0.389,0.068-0.413-0.227-0.721-0.239c-0.517,0.469,0.414,1.946-0.72,2.64
	c-0.496-0.479-1.379,0.688-2.399,0.48c-0.597,0.035-0.996-0.124-1.2-0.48c0-0.64,0-1.28,0-1.92c-0.431,0.03-0.506-0.294-0.96-0.24
	c-0.541,0.636,0.198,2.031,0.24,2.88c-0.826,0.375-1.676,0.726-1.921,1.681c0.989,0.188,1.232-0.369,2.16-0.24
	c0.78,1.464-0.972,2.625,0.48,3.6c0.003-0.477,0.655-0.305,0.479-0.96c0.376-1.664-0.104-4.497,2.16-3.6
	c0.651-0.277,0.598-0.116,1.44,0c0.694,0.985,0.213,3.147,0.72,4.32C90.574,176.09,89.189,176.12,85.614,177.437z"/>
<path fill="#B8BEBE" d="M91.854,144.077c-0.419,0.787-0.386,1.222-0.72,1.681c-2.946-3.072-1.2-8.135-1.2-12
	c0.553-0.647,0.085-2.315,0.24-3.36c1.359,0,2.72,0,4.08,0c0.194,2.517-0.271,5.646-0.24,7.2c-0.015,2.065-0.146,4.016-0.72,5.52
	c-0.428,0.448-0.61-0.194-1.44,0C92.185,143.665,91.236,144.019,91.854,144.077z"/>
<path fill="#C1A160" d="M84.415,199.758c3.316,0.728,9.058,0.715,14.399,0.72c0.55,3.185-3.474,2.895-5.52,3.6
	c-0.956-0.126-1.736-1.086-2.641-1.2c-1.591-0.2-2.027,0.68-3.359,0.96c-2.777,0.584-6.166-1.305-10.32-2.16
	c-0.096-1.185-0.817-1.743-1.199-2.64c0.499,0.521,0.775-0.029,1.199-0.24c0.291-0.669,0.531-1.389,1.2-1.68
	c0.695,1.783,1.371,1.944,3.84,2.4C82.519,199.748,83.91,200.323,84.415,199.758z"/>
<path fill="#EEBD34" d="M105.295,197.356c0.786-0.192,1.317-2.042,1.92-0.96c0.181,1.02-0.006,1.975-0.48,2.64
	c-0.96,0-1.92,0-2.88,0C104.157,198.3,104.674,197.776,105.295,197.356z"/>
<path fill="#64746C" d="M128.096,164.237c-1.84,0-3.68,0-5.521,0C123.859,163.837,126.811,163.837,128.096,164.237z"/>
<path fill="#2B2824" d="M75.295,231.437c0.278-1.346,2.222-2.606,2.64-4.56c-1.619-0.753-4.457-1.118-3.6-3.6
	c1.592,1.085,2.397,2.064,4.56,2.16C79.57,228.263,77.11,231.113,75.295,231.437z"/>
<use xlink:href="#Rand"  width="156.49" height="248.039" x="5.377" y="-252.996" transform="matrix(1 0 0 -1 0.002 0.0029)" overflow="visible"/>
</svg>
