<?xml version="1.0" encoding="utf-8"?>
<!-- Generator: Adobe Illustrator 15.1.0, SVG Export Plug-In  -->
<!DOCTYPE svg PUBLIC "-//W3C//DTD SVG 1.1//EN" "http://www.w3.org/Graphics/SVG/1.1/DTD/svg11.dtd" [
	<!ENTITY ns_flows "http://ns.adobe.com/Flows/1.0/">
]>
<svg version="1.1"
	 xmlns="http://www.w3.org/2000/svg" xmlns:xlink="http://www.w3.org/1999/xlink" xmlns:a="http://ns.adobe.com/AdobeSVGViewerExtensions/3.0/"
	 x="0px" y="0px" width="167px" height="258px" viewBox="0.002 0.003 167 258" enable-background="new 0.002 0.003 167 258"
	 xml:space="preserve">
<defs>
	<symbol  id="Rand" viewBox="5.377 -252.996 156.49 248.039">
		<g id="weiß_2_">
		</g>
		<path fill="#FFFFFF" d="M159.867-242.076c0,4.92-4,8.92-8.92,8.92c-4.921,0-8.921-4-8.921-8.92s4-8.92,8.921-8.92
			C155.867-250.996,159.867-246.996,159.867-242.076z M159.867-15.887c0,4.92-4,8.93-8.92,8.93c-4.921,0-8.921-4.01-8.921-8.93
			c0-4.91,4-8.92,8.921-8.92C155.867-24.807,159.867-20.797,159.867-15.887z M19.387-4.957h123.9h4.569h3.091
			c6.02,0,10.92-4.9,10.92-10.93v-9.52v-208.09v-8.58c0-6.021-4.9-10.92-10.92-10.92h-9.471c-37.63,0-75.85,0-125.17,0
			c-6.029,0-10.92,4.898-10.92,10.92c-0.01,72.18-0.01,141.83-0.01,211.35v14.84c0,6.029,4.9,10.93,10.92,10.93H19.387z
			 M25.227-15.887c0,4.92-4.01,8.93-8.93,8.93c-4.91,0-8.92-4.01-8.92-8.93c0-4.91,4.01-8.92,8.92-8.92
			C21.217-24.807,25.227-20.797,25.227-15.887z M16.307-250.996c4.92,0,8.92,4,8.92,8.92s-4,8.92-8.92,8.92s-8.92-4-8.92-8.92
			S11.387-250.996,16.307-250.996z M27.227-15.887c0-6.02-4.9-10.92-10.93-10.92c-3.68,0-6.939,1.83-8.92,4.629
			c0-71.199,0-142.398,0-213.609c1.98,2.801,5.24,4.631,8.93,4.631c6.02,0,10.92-4.9,10.92-10.92c0-3.682-1.83-6.941-4.63-8.92
			c40.69,0,81.37,0,122.061,0c-2.801,1.979-4.631,5.238-4.631,8.92c0,6.02,4.9,10.92,10.921,10.92c3.68,0,6.939-1.83,8.92-4.621
			c0,71.201,0,142.4,0,213.6c-1.98-2.799-5.24-4.629-8.92-4.629c-6.021,0-10.921,4.9-10.921,10.92c0,3.689,1.83,6.949,4.631,8.93
			c-40.69,0-81.38,0-122.061,0C25.396-8.938,27.227-12.197,27.227-15.887z"/>
	</symbol>
	<symbol  id="Stühle" viewBox="20.226 -210.972 126.867 163.99">
		<g id="weiß_4_">
		</g>
		<path fill="#FFFFFF" d="M140.767-178.387c8.141-11.621,8.13-11.609,1.17-16.49c-6.2-4.34-12.39-8.67-18.58-13.01
			c-6.989-4.891-6.97-4.871-15.1,6.74c-4.55,6.5-4.99,17.26,6.5,25.309C126.337-167.736,136.267-171.957,140.767-178.387z"/>
		<path fill="#FFFFFF" d="M52.486-175.838c11.5-8.049,11.061-18.809,6.5-25.309c-8.129-11.611-8.109-11.631-15.09-6.74
			c-6.199,4.34-12.39,8.67-18.58,13.01c-6.97,4.881-6.97,4.869,1.16,16.49C30.986-171.957,40.917-167.736,52.486-175.838z"/>
		<path fill="#FFFFFF" d="M142.007-63.098c6.96-4.869,6.97-4.869-1.17-16.479c-4.5-6.441-14.43-10.66-26.01-2.551
			c-11.49,8.051-11.051,18.811-6.49,25.311c8.13,11.609,8.1,11.619,15.09,6.73C129.617-54.416,135.807-58.756,142.007-63.098z"/>
		<path fill="#FFFFFF" d="M58.986-56.807c4.561-6.5,5-17.26-6.5-25.311c-11.569-8.1-21.5-3.879-26.01,2.551
			c-8.13,11.619-8.13,11.609-1.16,16.49c6.19,4.33,12.381,8.67,18.58,13.01C50.877-45.178,50.857-45.197,58.986-56.807z"/>
		<path fill="#FFFFFF" d="M83.622-172.996c-24.272,0-44.02,19.746-44.02,44.02s19.747,44.02,44.02,44.02s44.02-19.746,44.02-44.02
			S107.895-172.996,83.622-172.996z M83.622-87.957c-22.618,0-41.02-18.4-41.02-41.02s18.401-41.02,41.02-41.02
			s41.02,18.4,41.02,41.02S106.24-87.957,83.622-87.957z"/>
	</symbol>
	<symbol  id="US" viewBox="-42.52 -42.52 85.039 85.039">
		<g>
			<path fill="#DE2910" d="M-42.382,3.271C-42.464,2.19-42.52,1.102-42.52,0s0.056-2.19,0.138-3.271h84.764
				C42.464-2.19,42.52-1.102,42.52,0s-0.056,2.19-0.138,3.271H-42.382z"/>
			<path fill="#FFFFFF" d="M41.369,9.813h-82.737c-0.502-2.123-0.844-4.308-1.014-6.541h84.764
				C42.212,5.505,41.87,7.689,41.369,9.813z"/>
			<path fill="#DE2910" d="M39.255,16.355h-78.51c-0.876-2.101-1.581-4.288-2.113-6.543h82.737
				C40.836,12.067,40.131,14.255,39.255,16.355z"/>
			<path fill="#FFFFFF" d="M35.819,22.896h-71.639c-1.324-2.066-2.48-4.251-3.436-6.541h78.51
				C38.3,18.646,37.144,20.83,35.819,22.896z"/>
			<path fill="#DE2910" d="M30.663,29.439h-61.326c-1.924-2.004-3.651-4.193-5.156-6.543h71.639
				C34.315,25.246,32.587,27.436,30.663,29.439z"/>
			<path fill="#FFFFFF" d="M22.646,35.98h-45.291c-2.935-1.851-5.625-4.05-8.018-6.541h61.326
				C28.271,31.931,25.581,34.13,22.646,35.98z"/>
			<path fill="#DE2910" d="M0,42.52c-8.326,0-16.087-2.402-22.646-6.539h45.291C16.088,40.117,8.327,42.52,0,42.52z"/>
			<path fill="#FFFFFF" d="M-41.369-9.813h82.738c0.501,2.123,0.843,4.308,1.013,6.541h-84.764
				C-42.212-5.505-41.87-7.689-41.369-9.813z"/>
			<path fill="#DE2910" d="M-39.255-16.355h78.51c0.876,2.101,1.581,4.288,2.114,6.543h-82.738
				C-40.836-12.067-40.131-14.255-39.255-16.355z"/>
			<path fill="#FFFFFF" d="M-35.82-22.896H35.82c1.323,2.066,2.479,4.251,3.435,6.541h-78.51
				C-38.3-18.646-37.144-20.83-35.82-22.896z"/>
			<path fill="#DE2910" d="M-30.663-29.439h61.326c1.924,2.004,3.652,4.193,5.157,6.543H-35.82
				C-34.315-25.246-32.587-27.436-30.663-29.439z"/>
			<path fill="#FFFFFF" d="M-22.646-35.98h45.292c2.935,1.851,5.625,4.05,8.017,6.541h-61.326
				C-28.271-31.931-25.581-34.13-22.646-35.98z"/>
			<path fill="#DE2910" d="M0-42.52c8.327,0,16.088,2.402,22.646,6.539h-45.292C-16.088-40.117-8.326-42.52,0-42.52z"/>
		</g>
		<path fill="#3C3B6E" d="M-42.52,0c0-1.102,0.056-2.19,0.138-3.271h60.686v41.657C12.76,41.034,6.554,42.52,0,42.52
			C-23.482,42.52-42.52,23.482-42.52,0z"/>
		<path id="s_104_" fill="#FFFFFF" d="M12.918,3.926l1.56-4.8l-4.083,2.968h5.046l-4.083-2.968L12.918,3.926z"/>
		<path id="s_103_" fill="#FFFFFF" d="M2.146,3.926l1.56-4.8l-4.083,2.968h5.046L0.586-0.874L2.146,3.926z"/>
		<path id="s_102_" fill="#FFFFFF" d="M-8.625,3.926l1.56-4.8l-4.083,2.968h5.046l-4.083-2.968L-8.625,3.926z"/>
		<path id="s_101_" fill="#FFFFFF" d="M-19.396,3.926l1.56-4.8l-4.083,2.968h5.046l-4.083-2.968L-19.396,3.926z"/>
		<path id="s_100_" fill="#FFFFFF" d="M-30.168,3.926l1.56-4.8l-4.083,2.968h5.046l-4.083-2.968L-30.168,3.926z"/>
		<path id="s_99_" fill="#FFFFFF" d="M7.532,8.504l1.56-4.8L5.009,6.672h5.046L5.972,3.704L7.532,8.504z"/>
		<path id="s_98_" fill="#FFFFFF" d="M-3.239,8.504l1.56-4.8l-4.083,2.968h5.046L-4.8,3.704L-3.239,8.504z"/>
		<path id="s_97_" fill="#FFFFFF" d="M-14.011,8.504l1.56-4.8l-4.083,2.968h5.046l-4.083-2.968L-14.011,8.504z"/>
		<path id="s_96_" fill="#FFFFFF" d="M-24.782,8.504l1.56-4.8l-4.083,2.968h5.046l-4.083-2.968L-24.782,8.504z"/>
		<path id="s_95_" fill="#FFFFFF" d="M-35.554,8.504l1.56-4.8l-4.083,2.968h5.046l-4.083-2.968L-35.554,8.504z"/>
		<path id="s_94_" fill="#FFFFFF" d="M12.918,13.082l1.56-4.8l-4.083,2.968h5.046l-4.083-2.968L12.918,13.082z"/>
		<path id="s_93_" fill="#FFFFFF" d="M2.146,13.082l1.56-4.8l-4.083,2.968h5.046L0.586,8.282L2.146,13.082z"/>
		<path id="s_92_" fill="#FFFFFF" d="M-8.625,13.082l1.56-4.8l-4.083,2.968h5.046l-4.083-2.968L-8.625,13.082z"/>
		<path id="s_91_" fill="#FFFFFF" d="M-19.396,13.082l1.56-4.8l-4.083,2.968h5.046l-4.083-2.968L-19.396,13.082z"/>
		<path id="s_90_" fill="#FFFFFF" d="M-30.168,13.082l1.56-4.8l-4.083,2.968h5.046l-4.083-2.968L-30.168,13.082z"/>
		<path id="s_89_" fill="#FFFFFF" d="M7.532,17.66l1.56-4.8l-4.083,2.968h5.046L5.972,12.86L7.532,17.66z"/>
		<path id="s_88_" fill="#FFFFFF" d="M-3.239,17.66l1.56-4.8l-4.083,2.968h5.046L-4.8,12.86L-3.239,17.66z"/>
		<path id="s_87_" fill="#FFFFFF" d="M-14.011,17.66l1.56-4.8l-4.083,2.968h5.046l-4.083-2.968L-14.011,17.66z"/>
		<path id="s_86_" fill="#FFFFFF" d="M-24.782,17.66l1.56-4.8l-4.083,2.968h5.046l-4.083-2.968L-24.782,17.66z"/>
		<path id="s_85_" fill="#FFFFFF" d="M23.689,22.238l1.56-4.8l-4.083,2.968h5.046l-4.083-2.968L23.689,22.238z"/>
		<path id="s_84_" fill="#FFFFFF" d="M12.918,22.238l1.56-4.8l-4.083,2.968h5.046l-4.083-2.968L12.918,22.238z"/>
		<path id="s_83_" fill="#FFFFFF" d="M2.146,22.238l1.56-4.8l-4.083,2.968h5.046l-4.083-2.968L2.146,22.238z"/>
		<path id="s_82_" fill="#FFFFFF" d="M-8.625,22.238l1.56-4.8l-4.083,2.968h5.046l-4.083-2.968L-8.625,22.238z"/>
		<path id="s_81_" fill="#FFFFFF" d="M-19.396,22.238l1.56-4.8l-4.083,2.968h5.046l-4.083-2.968L-19.396,22.238z"/>
		<path id="s_80_" fill="#FFFFFF" d="M7.532,26.816l1.56-4.8l-4.083,2.968h5.046l-4.083-2.968L7.532,26.816z"/>
		<path id="s_79_" fill="#FFFFFF" d="M-3.239,26.816l1.56-4.8l-4.083,2.968h5.046L-4.8,22.017L-3.239,26.816z"/>
		<path id="s_78_" fill="#FFFFFF" d="M-14.011,26.816l1.56-4.8l-4.083,2.968h5.046l-4.083-2.968L-14.011,26.816z"/>
		<path id="s_77_" fill="#FFFFFF" d="M12.918,31.395l1.56-4.8l-4.083,2.968h5.046l-4.083-2.968L12.918,31.395z"/>
		<path id="s_76_" fill="#FFFFFF" d="M2.146,31.395l1.56-4.8l-4.083,2.968h5.046l-4.083-2.968L2.146,31.395z"/>
		<path id="s_75_" fill="#FFFFFF" d="M-8.625,31.395l1.56-4.8l-4.083,2.968h5.046l-4.083-2.968L-8.625,31.395z"/>
		<path id="s_74_" fill="#FFFFFF" d="M7.532,35.973l1.56-4.8l-4.083,2.968h5.046l-4.083-2.968L7.532,35.973z"/>
		<path id="s_73_" fill="#FFFFFF" d="M-3.239,35.973l1.56-4.8l-4.083,2.968h5.046L-4.8,31.173L-3.239,35.973z"/>
		<path id="s_72_" fill="#FFFFFF" d="M2.146,40.551l1.56-4.8l-4.083,2.968h5.046l-4.083-2.968L2.146,40.551z"/>
		<path id="s_71_" fill="#FFFFFF" d="M-30.168,22.238l1.56-4.8l-4.083,2.968h5.046l-4.083-2.968L-30.168,22.238z"/>
		<path id="s_29_" fill="#FFFFFF" d="M-24.782,26.816l1.56-4.8l-4.083,2.968h5.046l-4.083-2.968L-24.782,26.816z"/>
		<path id="s_24_" fill="#FFFFFF" d="M-19.396,31.395l1.56-4.8l-4.083,2.968h5.046l-4.083-2.968L-19.396,31.395z"/>
		<path id="s_6_" fill="#FFFFFF" d="M-14.011,35.973l1.56-4.8l-4.083,2.968h5.046l-4.083-2.968L-14.011,35.973z"/>
	</symbol>
</defs>
<g>
	<path fill="#0057A3" d="M167.244,240.945c0,9.354-7.653,17.008-17.008,17.008H17.008C7.653,257.953,0,250.3,0,240.945V17.008
		C0,7.653,7.653,0,17.008,0h133.229c9.354,0,17.008,7.653,17.008,17.008V240.945z"/>
</g>
<use xlink:href="#US"  width="85.039" height="85.039" x="-42.52" y="-42.52" transform="matrix(0.2333 0 0 -0.2333 150.8008 242.0752)" overflow="visible"/>
<use xlink:href="#US"  width="85.039" height="85.039" x="-42.52" y="-42.52" transform="matrix(0.2333 0 0 -0.2333 150.7998 15.8809)" overflow="visible"/>
<use xlink:href="#US"  width="85.039" height="85.039" x="-42.52" y="-42.52" transform="matrix(0.2333 0 0 -0.2333 16.2979 242.0752)" overflow="visible"/>
<use xlink:href="#US"  width="85.039" height="85.039" x="-42.52" y="-42.52" transform="matrix(0.2333 0 0 -0.2333 16.2979 15.8809)" overflow="visible"/>
<use xlink:href="#US"  width="85.039" height="85.039" id="XMLID_19_" x="-42.52" y="-42.52" transform="matrix(1 0 0 -1 83.6221 128.9795)" overflow="visible"/>
<use xlink:href="#Rand"  width="156.49" height="248.039" x="5.377" y="-252.996" transform="matrix(1 0 0 -1 0.002 0.0029)" overflow="visible"/>
<use xlink:href="#Stühle"  width="126.867" height="163.99" x="20.226" y="-210.972" transform="matrix(1 0 0 -1 0.002 0.0029)" overflow="visible"/>
</svg>
