<?xml version="1.0" encoding="utf-8"?>
<!-- Generator: Adobe Illustrator 15.1.0, SVG Export Plug-In  -->
<!DOCTYPE svg PUBLIC "-//W3C//DTD SVG 1.1//EN" "http://www.w3.org/Graphics/SVG/1.1/DTD/svg11.dtd" [
	<!ENTITY ns_flows "http://ns.adobe.com/Flows/1.0/">
]>
<svg version="1.1"
	 xmlns="http://www.w3.org/2000/svg" xmlns:xlink="http://www.w3.org/1999/xlink" xmlns:a="http://ns.adobe.com/AdobeSVGViewerExtensions/3.0/"
	 x="0px" y="0px" width="167px" height="258px" viewBox="0.002 0.003 167 258" enable-background="new 0.002 0.003 167 258"
	 xml:space="preserve">
<defs>
	<symbol  id="Rand" viewBox="5.377 -252.996 156.49 248.039">
		<g id="weiß_3_">
		</g>
		<path fill="#FFFFFF" d="M159.867-242.076c0,4.92-4,8.92-8.92,8.92c-4.921,0-8.921-4-8.921-8.92s4-8.92,8.921-8.92
			C155.867-250.996,159.867-246.996,159.867-242.076z M159.867-15.887c0,4.92-4,8.93-8.92,8.93c-4.921,0-8.921-4.01-8.921-8.93
			c0-4.91,4-8.92,8.921-8.92C155.867-24.807,159.867-20.797,159.867-15.887z M19.387-4.957h123.9h4.569h3.091
			c6.02,0,10.92-4.9,10.92-10.93v-9.52v-208.09v-8.58c0-6.021-4.9-10.92-10.92-10.92h-9.471c-37.63,0-75.85,0-125.17,0
			c-6.029,0-10.92,4.898-10.92,10.92c-0.01,72.18-0.01,141.83-0.01,211.35v14.84c0,6.029,4.9,10.93,10.92,10.93H19.387z
			 M25.227-15.887c0,4.92-4.01,8.93-8.93,8.93c-4.91,0-8.92-4.01-8.92-8.93c0-4.91,4.01-8.92,8.92-8.92
			C21.217-24.807,25.227-20.797,25.227-15.887z M16.307-250.996c4.92,0,8.92,4,8.92,8.92s-4,8.92-8.92,8.92s-8.92-4-8.92-8.92
			S11.387-250.996,16.307-250.996z M27.227-15.887c0-6.02-4.9-10.92-10.93-10.92c-3.68,0-6.939,1.83-8.92,4.629
			c0-71.199,0-142.398,0-213.609c1.98,2.801,5.24,4.631,8.93,4.631c6.02,0,10.92-4.9,10.92-10.92c0-3.682-1.83-6.941-4.63-8.92
			c40.69,0,81.37,0,122.061,0c-2.801,1.979-4.631,5.238-4.631,8.92c0,6.02,4.9,10.92,10.921,10.92c3.68,0,6.939-1.83,8.92-4.621
			c0,71.201,0,142.4,0,213.6c-1.98-2.799-5.24-4.629-8.92-4.629c-6.021,0-10.921,4.9-10.921,10.92c0,3.689,1.83,6.949,4.631,8.93
			c-40.69,0-81.38,0-122.061,0C25.396-8.938,27.227-12.197,27.227-15.887z"/>
	</symbol>
</defs>
<g>
	<path fill="#00B3F2" d="M167.244,240.945c0,9.354-7.653,17.008-17.008,17.008H17.008C7.653,257.953,0,250.3,0,240.945V17.008
		C0,7.653,7.653,0,17.008,0h133.229c9.354,0,17.008,7.653,17.008,17.008V240.945z"/>
</g>
<use xlink:href="#Rand"  width="156.49" height="248.039" x="5.377" y="-252.996" transform="matrix(1 0 0 -1 0.002 0.0029)" overflow="visible"/>
</svg>
