<?xml version="1.0" encoding="utf-8"?>
<!-- Generator: Adobe Illustrator 15.1.0, SVG Export Plug-In . SVG Version: 6.00 Build 0)  -->
<!DOCTYPE svg PUBLIC "-//W3C//DTD SVG 1.1//EN" "http://www.w3.org/Graphics/SVG/1.1/DTD/svg11.dtd">
<svg version="1.1" id="Ebene_1" xmlns="http://www.w3.org/2000/svg" xmlns:xlink="http://www.w3.org/1999/xlink" x="0px" y="0px"
	 width="167.24px" height="257.95px" viewBox="0 0 167.24 257.95" enable-background="new 0 0 167.24 257.95" xml:space="preserve">
<g>
	<path fill="#0057A3" d="M167.242,240.942c0,9.354-7.653,17.008-17.008,17.008H17.006c-9.354,0-17.008-7.653-17.008-17.008V17.005
		c0-9.354,7.653-17.008,17.008-17.008h133.229c9.354,0,17.008,7.653,17.008,17.008V240.942z"/>
</g>
<g>
	<defs>
		<circle id="SVGID_1_" cx="83.619" cy="128.975" r="42.519"/>
	</defs>
	<clipPath id="SVGID_2_">
		<use xlink:href="#SVGID_1_"  overflow="visible"/>
	</clipPath>
	<g clip-path="url(#SVGID_2_)">
		<rect x="12.754" y="86.456" width="141.732" height="28.346"/>
		<rect x="12.754" y="114.802" fill="#FF0000" width="141.732" height="28.347"/>
		<rect x="12.754" y="143.148" fill="#FFCC00" width="141.732" height="28.346"/>
	</g>
</g>
<circle fill="none" stroke="#FFFFFF" stroke-width="3" stroke-miterlimit="10" cx="83.62" cy="128.974" r="42.52"/>
<path fill="#FFFFFF" d="M-70.709,168.09c8.504,0,8.504,0.009,8.504-14.172c0-7.855-5.712-17.008-19.842-17.008
	c-14.036,0-19.842,9.069-19.842,17.008c0,14.172-0.026,14.172,8.504,14.172H-70.709z"/>
<path fill="#FFFFFF" stroke="#FFFFFF" stroke-miterlimit="10" d="M141.928,194.874c6.966-4.878,6.971-4.87-1.163-16.487
	c-4.505-6.435-14.435-10.655-26.009-2.551c-11.498,8.05-11.053,18.81-6.499,25.313c8.13,11.609,8.107,11.625,15.096,6.731
	L141.928,194.874z"/>
<path fill="#FFFFFF" stroke="#FFFFFF" stroke-miterlimit="10" d="M25.312,194.874c-6.965-4.878-6.97-4.87,1.163-16.487
	c4.506-6.435,14.435-10.655,26.009-2.551c11.499,8.05,11.053,18.81,6.5,25.313c-8.13,11.609-8.107,11.625-15.095,6.731
	L25.312,194.874z"/>
<path fill="#FFFFFF" stroke="#FFFFFF" stroke-miterlimit="10" d="M141.998,63.089c6.966,4.878,6.971,4.871-1.162,16.487
	c-4.506,6.435-14.436,10.656-26.01,2.552c-11.498-8.05-11.053-18.81-6.499-25.313c8.13-11.609,8.108-11.625,15.095-6.732
	L141.998,63.089z"/>
<path fill="#FFFFFF" stroke="#FFFFFF" stroke-miterlimit="10" d="M25.312,63.075c-6.965,4.878-6.97,4.871,1.163,16.487
	c4.506,6.435,14.435,10.656,26.009,2.552c11.499-8.05,11.053-18.811,6.5-25.313c-8.13-11.609-8.107-11.625-15.096-6.731
	L25.312,63.075z"/>
<path fill="none" stroke="#FFFFFF" stroke-width="2" stroke-miterlimit="10" d="M160.864,239.237
	c0,7.047-5.822,12.756-13.008,12.756H19.384c-7.185,0-13.007-5.709-13.007-12.756V18.719c0-7.046,5.822-12.762,13.007-12.762
	h128.473c7.186,0,13.008,5.716,13.008,12.762V239.237z"/>
<g>
	<g>
		<defs>
			<circle id="SVGID_3_" cx="16.298" cy="15.878" r="9.921"/>
		</defs>
		<clipPath id="SVGID_4_">
			<use xlink:href="#SVGID_3_"  overflow="visible"/>
		</clipPath>
		<g clip-path="url(#SVGID_4_)">
			<rect x="-0.237" y="5.958" width="33.071" height="6.614"/>
			<rect x="-0.237" y="12.571" fill="#FF0000" width="33.071" height="6.614"/>
			<rect x="-0.237" y="19.186" fill="#FFCC00" width="33.071" height="6.614"/>
		</g>
	</g>
	<circle fill="none" stroke="#FFFFFF" stroke-width="2" stroke-miterlimit="10" cx="16.298" cy="15.878" r="9.921"/>
</g>
<g>
	<g>
		<defs>
			<circle id="SVGID_5_" cx="150.943" cy="15.879" r="9.921"/>
		</defs>
		<clipPath id="SVGID_6_">
			<use xlink:href="#SVGID_5_"  overflow="visible"/>
		</clipPath>
		<g clip-path="url(#SVGID_6_)">
			<rect x="134.408" y="5.958" width="33.071" height="6.614"/>
			<rect x="134.408" y="12.571" fill="#FF0000" width="33.071" height="6.614"/>
			<rect x="134.408" y="19.186" fill="#FFCC00" width="33.071" height="6.613"/>
		</g>
	</g>
	<circle fill="none" stroke="#FFFFFF" stroke-width="2" stroke-miterlimit="10" cx="150.943" cy="15.878" r="9.921"/>
</g>
<g>
	<g>
		<defs>
			<circle id="SVGID_7_" cx="16.297" cy="242.073" r="9.921"/>
		</defs>
		<clipPath id="SVGID_8_">
			<use xlink:href="#SVGID_7_"  overflow="visible"/>
		</clipPath>
		<g clip-path="url(#SVGID_8_)">
			<rect x="-0.238" y="232.152" width="33.071" height="6.613"/>
			<rect x="-0.238" y="238.766" fill="#FF0000" width="33.071" height="6.614"/>
			<rect x="-0.238" y="245.38" fill="#FFCC00" width="33.071" height="6.613"/>
		</g>
	</g>
	<circle fill="none" stroke="#FFFFFF" stroke-width="2" stroke-miterlimit="10" cx="16.297" cy="242.072" r="9.921"/>
</g>
<g>
	<g>
		<defs>
			<circle id="SVGID_9_" cx="150.942" cy="242.073" r="9.921"/>
		</defs>
		<clipPath id="SVGID_10_">
			<use xlink:href="#SVGID_9_"  overflow="visible"/>
		</clipPath>
		<g clip-path="url(#SVGID_10_)">
			<rect x="134.407" y="232.152" width="33.071" height="6.613"/>
			<rect x="134.407" y="238.766" fill="#FF0000" width="33.071" height="6.614"/>
			<rect x="134.407" y="245.38" fill="#FFCC00" width="33.071" height="6.613"/>
		</g>
	</g>
	<circle fill="none" stroke="#FFFFFF" stroke-width="2" stroke-miterlimit="10" cx="150.942" cy="242.072" r="9.921"/>
</g>
</svg>
