<?xml version="1.0" encoding="utf-8"?>
<!-- Generator: Adobe Illustrator 15.1.0, SVG Export Plug-In  -->
<!DOCTYPE svg PUBLIC "-//W3C//DTD SVG 1.1 Tiny//EN" "http://www.w3.org/Graphics/SVG/1.1/DTD/svg11-tiny.dtd" [
	<!ENTITY ns_flows "http://ns.adobe.com/Flows/1.0/">
]>
<svg version="1.1" baseProfile="tiny"
	 xmlns="http://www.w3.org/2000/svg" xmlns:xlink="http://www.w3.org/1999/xlink" xmlns:a="http://ns.adobe.com/AdobeSVGViewerExtensions/3.0/"
	 x="0px" y="0px" width="167px" height="258px" viewBox="0.002 0.003 167 258" xml:space="preserve">
<defs>
</defs>
<g id="XMLID_6_">
	<path fill="#0057A3" d="M167.244,240.945c0,9.354-7.653,17.008-17.008,17.008H17.008C7.653,257.953,0,250.3,0,240.945V17.008
		C0,7.653,7.653,0,17.008,0h133.229c9.354,0,17.008,7.653,17.008,17.008V240.945z"/>
	<path fill="#FFFFFF" stroke="#FFFFFF" stroke-miterlimit="10" d="M141.93,194.877c6.966-4.878,6.971-4.87-1.163-16.487
		c-4.505-6.435-14.435-10.655-26.009-2.551c-11.498,8.05-11.053,18.81-6.499,25.313c8.13,11.609,8.107,11.625,15.096,6.731
		L141.93,194.877z"/>
	<path fill="#FFFFFF" stroke="#FFFFFF" stroke-miterlimit="10" d="M25.313,194.877c-6.965-4.878-6.97-4.87,1.163-16.487
		c4.506-6.435,14.436-10.655,26.009-2.551c11.499,8.05,11.054,18.81,6.5,25.313c-8.13,11.609-8.107,11.625-15.096,6.731
		L25.313,194.877z"/>
	<path fill="#FFFFFF" stroke="#FFFFFF" stroke-miterlimit="10" d="M142,63.092c6.966,4.878,6.971,4.871-1.162,16.487
		c-4.506,6.435-14.436,10.656-26.01,2.552c-11.498-8.05-11.053-18.81-6.499-25.313c8.13-11.609,8.108-11.625,15.095-6.732
		L142,63.092z"/>
	<path fill="#FFFFFF" stroke="#FFFFFF" stroke-miterlimit="10" d="M25.313,63.078c-6.965,4.878-6.97,4.871,1.163,16.487
		c4.506,6.435,14.436,10.656,26.009,2.552c11.499-8.05,11.054-18.811,6.5-25.313c-8.13-11.609-8.107-11.625-15.096-6.731
		L25.313,63.078z"/>
	<path fill="none" stroke="#FFFFFF" stroke-width="2" stroke-miterlimit="10" d="M160.866,239.24
		c0,7.047-5.822,12.756-13.008,12.756H19.386c-7.186,0-13.008-5.709-13.008-12.756V18.722c0-7.046,5.822-12.762,13.008-12.762
		h128.473c7.186,0,13.008,5.716,13.008,12.762V239.24z"/>
</g>
<g>
	<path fill="#E30A17" d="M150.801,251.996c5.479,0,9.921-4.441,9.921-9.921c0-5.473-4.431-9.91-9.901-9.921h-0.039
		c-5.471,0.011-9.901,4.448-9.901,9.921C140.88,247.555,145.321,251.996,150.801,251.996z M149.074,237.115
		c1.771,0,3.313,0.935,4.191,2.329c0.541,0.606,0.89,1.375,0.977,2.228l0.474-0.153v-1.802l1.06,1.458l1.713-0.557l-1.059,1.457
		l1.059,1.458l-1.713-0.557l-1.06,1.458v-1.803l-0.474-0.153c-0.087,0.854-0.437,1.622-0.977,2.229
		c-0.879,1.396-2.421,2.329-4.191,2.329c-2.739,0-4.96-2.221-4.96-4.961C144.114,239.336,146.335,237.115,149.074,237.115z"/>
	<path fill="#FFFFFF" d="M149.074,247.036c1.771,0,3.313-0.934,4.191-2.329c-0.728,0.814-1.773,1.337-2.951,1.337
		c-2.191,0-3.968-1.776-3.968-3.969c0-2.191,1.776-3.968,3.968-3.968c1.178,0,2.225,0.522,2.951,1.337
		c-0.878-1.395-2.421-2.329-4.191-2.329c-2.739,0-4.96,2.221-4.96,4.96C144.114,244.815,146.335,247.036,149.074,247.036z"/>
	<path fill="#E30A17" d="M150.314,238.107c-2.191,0-3.968,1.776-3.968,3.968c0,2.192,1.776,3.969,3.968,3.969
		c1.178,0,2.224-0.522,2.951-1.337c0.54-0.606,0.89-1.375,0.977-2.229l-1.24-0.403l1.24-0.403c-0.087-0.853-0.436-1.621-0.977-2.228
		C152.539,238.63,151.492,238.107,150.314,238.107z"/>
	<polygon fill="#FFFFFF" points="153.002,242.075 154.242,242.479 154.716,242.632 154.716,244.435 155.775,242.977 
		157.488,243.533 156.43,242.075 157.488,240.618 155.775,241.175 154.716,239.717 154.716,241.519 154.242,241.672 	"/>
</g>
<g>
	<path fill="#E30A17" d="M150.8,25.802c5.479,0,9.921-4.441,9.921-9.921c0-5.476-4.437-9.916-9.911-9.921h-0.02
		c-5.475,0.005-9.911,4.445-9.911,9.921C140.879,21.36,145.32,25.802,150.8,25.802z M149.073,10.92c1.771,0,3.313,0.935,4.191,2.33
		c0.54,0.606,0.89,1.375,0.977,2.228l0.474-0.154v-1.802l1.059,1.458l1.714-0.557l-1.059,1.458l1.059,1.458l-1.713-0.557
		l-1.06,1.458v-1.803l-0.474-0.154c-0.087,0.854-0.437,1.623-0.978,2.229c-0.877,1.395-2.42,2.329-4.19,2.329
		c-2.739,0-4.96-2.221-4.96-4.96S146.334,10.92,149.073,10.92z"/>
	<path fill="#FFFFFF" d="M149.073,20.842c1.771,0,3.313-0.934,4.19-2.329c-0.727,0.814-1.772,1.337-2.95,1.337
		c-2.191,0-3.968-1.776-3.968-3.968s1.776-3.968,3.968-3.968c1.178,0,2.225,0.523,2.951,1.337c-0.878-1.396-2.421-2.33-4.191-2.33
		c-2.739,0-4.96,2.221-4.96,4.961S146.334,20.842,149.073,20.842z"/>
	<path fill="#E30A17" d="M150.313,11.913c-2.191,0-3.968,1.776-3.968,3.968s1.776,3.968,3.968,3.968c1.178,0,2.224-0.522,2.95-1.337
		c0.541-0.606,0.891-1.375,0.978-2.229l-1.24-0.403l1.24-0.403c-0.087-0.853-0.437-1.622-0.977-2.228
		C152.538,12.436,151.491,11.913,150.313,11.913z"/>
	<polygon fill="#FFFFFF" points="153.001,15.881 154.241,16.284 154.715,16.438 154.715,18.241 155.774,16.782 157.487,17.339 
		156.429,15.881 157.487,14.423 155.773,14.98 154.715,13.522 154.715,15.324 154.241,15.478 	"/>
</g>
<circle fill="none" stroke="#FFFFFF" stroke-width="2" stroke-miterlimit="10" cx="150.945" cy="15.882" r="9.921"/>
<g>
	<path fill="#E30A17" d="M16.298,251.996c5.479,0,9.921-4.441,9.921-9.921c0-5.473-4.431-9.91-9.901-9.921h-0.039
		c-5.471,0.011-9.901,4.448-9.901,9.921C6.377,247.555,10.818,251.996,16.298,251.996z M14.571,237.115
		c1.771,0,3.313,0.935,4.191,2.329c0.54,0.606,0.89,1.375,0.977,2.228l0.474-0.153v-1.802l1.059,1.458l1.714-0.557l-1.059,1.457
		l1.059,1.458l-1.713-0.557l-1.06,1.458v-1.803l-0.474-0.153c-0.087,0.854-0.437,1.622-0.978,2.229
		c-0.877,1.396-2.42,2.329-4.19,2.329c-2.739,0-4.96-2.221-4.96-4.961C9.611,239.336,11.832,237.115,14.571,237.115z"/>
	<path fill="#FFFFFF" d="M14.571,247.036c1.771,0,3.313-0.934,4.19-2.329c-0.727,0.814-1.772,1.337-2.95,1.337
		c-2.191,0-3.968-1.776-3.968-3.969c0-2.191,1.776-3.968,3.968-3.968c1.178,0,2.224,0.522,2.951,1.337
		c-0.878-1.395-2.421-2.329-4.191-2.329c-2.739,0-4.96,2.221-4.96,4.96C9.611,244.815,11.832,247.036,14.571,247.036z"/>
	<path fill="#E30A17" d="M15.812,238.107c-2.191,0-3.968,1.776-3.968,3.968c0,2.192,1.776,3.969,3.968,3.969
		c1.178,0,2.224-0.522,2.95-1.337c0.541-0.606,0.891-1.375,0.978-2.229l-1.24-0.403l1.24-0.403
		c-0.087-0.853-0.437-1.621-0.977-2.228C18.035,238.63,16.989,238.107,15.812,238.107z"/>
	<polygon fill="#FFFFFF" points="18.499,242.075 19.739,242.479 20.213,242.632 20.213,244.435 21.272,242.977 22.985,243.533 
		21.927,242.075 22.985,240.618 21.271,241.175 20.213,239.717 20.213,241.519 19.739,241.672 	"/>
</g>
<circle fill="none" stroke="#FFFFFF" stroke-width="2" stroke-miterlimit="10" cx="150.945" cy="242.075" r="9.921"/>
<g>
	<path fill="#E30A17" d="M16.298,25.802c5.479,0,9.921-4.441,9.921-9.921c0-5.476-4.437-9.916-9.911-9.921h-0.02
		c-5.475,0.005-9.911,4.445-9.911,9.921C6.377,21.36,10.818,25.802,16.298,25.802z M14.571,10.92c1.771,0,3.313,0.935,4.191,2.33
		c0.54,0.606,0.89,1.375,0.977,2.228l0.474-0.154v-1.802l1.059,1.458l1.714-0.557l-1.059,1.458l1.059,1.458l-1.713-0.557
		l-1.06,1.458v-1.803l-0.474-0.154c-0.087,0.854-0.437,1.623-0.978,2.229c-0.877,1.395-2.42,2.329-4.19,2.329
		c-2.739,0-4.96-2.221-4.96-4.96S11.832,10.92,14.571,10.92z"/>
	<path fill="#FFFFFF" d="M14.571,20.842c1.771,0,3.313-0.934,4.19-2.329c-0.727,0.814-1.772,1.337-2.95,1.337
		c-2.191,0-3.968-1.776-3.968-3.968s1.776-3.968,3.968-3.968c1.178,0,2.225,0.523,2.951,1.337c-0.878-1.396-2.421-2.33-4.191-2.33
		c-2.739,0-4.96,2.221-4.96,4.961S11.832,20.842,14.571,20.842z"/>
	<path fill="#E30A17" d="M15.812,11.913c-2.191,0-3.968,1.776-3.968,3.968s1.776,3.968,3.968,3.968c1.178,0,2.224-0.522,2.95-1.337
		c0.541-0.606,0.891-1.375,0.978-2.229l-1.24-0.403l1.24-0.403c-0.087-0.853-0.437-1.622-0.977-2.228
		C18.036,12.436,16.989,11.913,15.812,11.913z"/>
	<polygon fill="#FFFFFF" points="18.499,15.881 19.739,16.284 20.213,16.438 20.213,18.241 21.272,16.782 22.985,17.339 
		21.927,15.881 22.985,14.423 21.271,14.98 20.213,13.522 20.213,15.324 19.739,15.478 	"/>
</g>
<circle fill="none" stroke="#FFFFFF" stroke-width="2" stroke-miterlimit="10" cx="16.3" cy="242.075" r="9.921"/>
<circle fill="none" stroke="#FFFFFF" stroke-width="2" stroke-miterlimit="10" cx="16.298" cy="15.881" r="9.921"/>
<g>
	<path fill="#E30A17" d="M41.103,128.938v0.077c0.021,23.465,19.048,42.48,42.519,42.48c23.481,0,42.519-19.035,42.519-42.519
		c0-23.457-18.995-42.476-42.441-42.518h-0.154C60.109,86.501,41.123,105.499,41.103,128.938z M112.283,122.731l-4.539,6.248
		l4.539,6.247l-7.344-2.386l-4.54,6.25v-7.725l-1.944-0.632c-0.377,3.678-1.938,6.995-4.279,9.599
		c-3.769,5.946-10.391,9.905-17.952,9.905c-11.742,0-21.261-9.516-21.261-21.259c0-11.74,9.519-21.26,21.261-21.26
		c7.561,0,14.183,3.959,17.951,9.906c2.341,2.604,3.903,5.921,4.28,9.599l1.944-0.631v-7.722l4.539,6.247L112.283,122.731z"/>
	<path fill="#FFFFFF" d="M81.538,145.986c-9.393,0-17.008-7.614-17.008-17.008s7.615-17.007,17.008-17.007
		c5.022,0,9.523,2.19,12.637,5.653c-3.769-5.946-10.391-9.906-17.951-9.906c-11.742,0-21.261,9.52-21.261,21.26
		c0,11.743,9.519,21.259,21.261,21.259c7.562,0,14.184-3.959,17.952-9.905C91.063,143.795,86.562,145.986,81.538,145.986z"/>
	<path fill="#E30A17" d="M93.054,128.979l5.401-1.755c-0.377-3.678-1.939-6.996-4.28-9.599c-3.113-3.462-7.614-5.653-12.637-5.653
		c-9.393,0-17.008,7.613-17.008,17.007s7.615,17.008,17.008,17.008c5.023,0,9.524-2.191,12.638-5.654
		c2.341-2.604,3.902-5.921,4.279-9.599L93.054,128.979z"/>
	<polygon fill="#FFFFFF" points="100.399,126.592 98.455,127.224 93.054,128.979 98.455,130.733 100.399,131.365 100.399,139.09 
		104.939,132.84 112.283,135.226 107.744,128.979 112.283,122.731 104.938,125.117 100.399,118.87 	"/>
</g>
<circle fill="none" stroke="#FFFFFF" stroke-width="3" stroke-miterlimit="10" cx="83.619" cy="128.979" r="42.52"/>
</svg>
