<?xml version="1.0" encoding="utf-8"?>
<!-- Generator: Adobe Illustrator 15.1.0, SVG Export Plug-In . SVG Version: 6.00 Build 0)  -->
<!DOCTYPE svg PUBLIC "-//W3C//DTD SVG 1.1//EN" "http://www.w3.org/Graphics/SVG/1.1/DTD/svg11.dtd">
<svg version="1.1" id="Ebene_1" xmlns="http://www.w3.org/2000/svg" xmlns:xlink="http://www.w3.org/1999/xlink" x="0px" y="0px"
	 width="167.24px" height="257.95px" viewBox="0 0 167.24 257.95" enable-background="new 0 0 167.24 257.95" xml:space="preserve">
<g>
	<path fill="#0057A3" d="M167.242,240.942c0,9.354-7.653,17.008-17.008,17.008H17.006c-9.354,0-17.008-7.653-17.008-17.008V17.005
		c0-9.354,7.653-17.008,17.008-17.008h133.229c9.354,0,17.008,7.653,17.008,17.008V240.942z"/>
</g>
<path fill="#FFFFFF" d="M-70.709,168.09c8.504,0,8.504,0.009,8.504-14.172c0-7.855-5.712-17.008-19.842-17.008
	c-14.036,0-19.842,9.069-19.842,17.008c0,14.172-0.026,14.172,8.504,14.172H-70.709z"/>
<path fill="none" stroke="#FFFFFF" stroke-width="2" stroke-miterlimit="10" d="M160.864,239.237
	c0,7.047-5.822,12.756-13.008,12.756H19.384c-7.185,0-13.007-5.709-13.007-12.756V18.719c0-7.046,5.822-12.762,13.007-12.762
	h128.473c7.186,0,13.008,5.716,13.008,12.762V239.237z"/>
</svg>
